<?xml version="1.0" encoding="UTF-8" standalone="no"?>
<!DOCTYPE svg PUBLIC "-//W3C//DTD SVG 1.1//EN"
 "http://www.w3.org/Graphics/SVG/1.1/DTD/svg11.dtd">
<!-- Generated by graphviz version 2.49.0 (20210828.1703)
 -->
<!-- Pages: 1 -->
<svg width="721pt" height="734pt"
 viewBox="0.00 0.00 720.50 734.00" xmlns="http://www.w3.org/2000/svg" xmlns:xlink="http://www.w3.org/1999/xlink">
<g id="graph0" class="graph" transform="scale(1 1) rotate(0) translate(4 730)">
<polygon fill="white" stroke="transparent" points="-4,4 -4,-730 716.5,-730 716.5,4 -4,4"/>
<!-- agrosIE -->
<g id="node1" class="node">
<title>agrosIE</title>
<g id="a_node1"><a xlink:title="Indo&#45;European &quot;agros&quot; field">
<polygon fill="none" stroke="black" points="251,-722 40,-722 40,-618 251,-618 251,-722"/>
<polygon fill="none" stroke="black" points="255,-726 36,-726 36,-614 255,-614 255,-726"/>
<text text-anchor="start" x="67.5" y="-677.8" font-family="Times New Roman,serif" font-weight="bold" font-size="24.00">Indo&#45;European</text>
<text text-anchor="start" x="85.5" y="-649.6" font-family="Times New Roman,serif" font-size="18.00" fill="red">*agros</text>
<text text-anchor="start" x="177.5" y="-650.2" font-family="Times New Roman,serif" font-size="16.00">field</text>
</a>
</g>
</g>
<!-- akrazGm -->
<g id="node2" class="node">
<title>akrazGm</title>
<text text-anchor="start" x="17" y="-557.8" font-family="Times New Roman,serif" font-weight="bold" font-size="14.00">Germanic</text>
<text text-anchor="start" x="29" y="-543.8" font-family="Times New Roman,serif" font-size="14.00" fill="red">*akraz</text>
</g>
<!-- agrosIE&#45;&gt;akrazGm -->
<g id="edge1" class="edge">
<title>agrosIE&#45;&gt;akrazGm</title>
<path fill="none" stroke="black" d="M97.94,-613.67C87.8,-601.88 77.58,-590 69.02,-580.04"/>
<polygon fill="black" stroke="black" points="71.43,-577.47 62.26,-572.17 66.12,-582.03 71.43,-577.47"/>
</g>
<!-- agerL -->
<g id="node6" class="node">
<title>agerL</title>
<text text-anchor="start" x="312" y="-557.8" font-family="Times New Roman,serif" font-weight="bold" font-size="14.00">Latin</text>
<text text-anchor="start" x="302" y="-543.8" font-family="Times New Roman,serif" font-size="14.00" fill="red">ager, agr&#45;</text>
</g>
<!-- agrosIE&#45;&gt;agerL -->
<g id="edge5" class="edge">
<title>agrosIE&#45;&gt;agerL</title>
<path fill="none" stroke="black" d="M234.05,-613.84C254.53,-601.08 275.2,-588.2 291.96,-577.76"/>
<polygon fill="black" stroke="black" points="294.21,-580.48 300.85,-572.23 290.51,-574.54 294.21,-580.48"/>
</g>
<!-- agrosG -->
<g id="node27" class="node">
<title>agrosG</title>
<text text-anchor="start" x="109.5" y="-148.8" font-family="Times New Roman,serif" font-weight="bold" font-size="14.00">Greek</text>
<text text-anchor="start" x="114" y="-134.8" font-family="Times New Roman,serif" font-size="14.00" fill="red">agros</text>
<text text-anchor="start" x="120" y="-122.4" font-family="Times New Roman,serif" font-size="12.00">field</text>
</g>
<!-- agrosIE&#45;&gt;agrosG -->
<g id="edge26" class="edge">
<title>agrosIE&#45;&gt;agrosG</title>
<path fill="none" stroke="black" d="M133.14,-613.86C125.64,-575.65 117.5,-523.49 117.5,-477 117.5,-477 117.5,-477 117.5,-304 117.5,-258.53 122.14,-206.16 125.65,-173.08"/>
<polygon fill="black" stroke="black" points="129.14,-173.37 126.75,-163.05 122.18,-172.61 129.14,-173.37"/>
</g>
<!-- agriosG -->
<g id="node29" class="node">
<title>agriosG</title>
<text text-anchor="start" x="153.5" y="-563.8" font-family="Times New Roman,serif" font-weight="bold" font-size="14.00">Greek</text>
<text text-anchor="start" x="156.5" y="-549.8" font-family="Times New Roman,serif" font-size="14.00" fill="red">agrios</text>
<text text-anchor="start" x="164" y="-537.4" font-family="Times New Roman,serif" font-size="12.00">wild</text>
</g>
<!-- agrosIE&#45;&gt;agriosG -->
<g id="edge29" class="edge">
<title>agrosIE&#45;&gt;agriosG</title>
<path fill="none" stroke="black" d="M159.09,-613.67C161.26,-604.81 163.45,-595.91 165.44,-587.8"/>
<polygon fill="black" stroke="black" points="168.86,-588.57 167.85,-578.02 162.06,-586.9 168.86,-588.57"/>
</g>
<!-- aecerOE -->
<g id="node3" class="node">
<title>aecerOE</title>
<text text-anchor="start" x="8" y="-479.8" font-family="Times New Roman,serif" font-weight="bold" font-size="14.00">Old English</text>
<text text-anchor="start" x="30.5" y="-465.8" font-family="Times New Roman,serif" font-size="14.00" fill="red">æcer</text>
</g>
<!-- akrazGm&#45;&gt;aecerOE -->
<g id="edge2" class="edge">
<title>akrazGm&#45;&gt;aecerOE</title>
<path fill="none" stroke="black" d="M46.82,-535.75C46.45,-526.52 46,-514.93 45.59,-504.49"/>
<polygon fill="black" stroke="black" points="49.07,-504.03 45.18,-494.18 42.08,-504.31 49.07,-504.03"/>
</g>
<!-- akerME -->
<g id="node4" class="node">
<title>akerME</title>
<text text-anchor="start" x="23" y="-407.8" font-family="Times New Roman,serif" font-weight="bold" font-size="14.00">Middle</text>
<text text-anchor="start" x="21.5" y="-393.8" font-family="Times New Roman,serif" font-weight="bold" font-size="14.00">English</text>
<text text-anchor="start" x="32.5" y="-379.8" font-family="Times New Roman,serif" font-size="14.00" fill="red">aker</text>
<text text-anchor="start" x="34.5" y="-367.4" font-family="Times New Roman,serif" font-size="12.00">acre</text>
</g>
<!-- aecerOE&#45;&gt;akerME -->
<g id="edge3" class="edge">
<title>aecerOE&#45;&gt;akerME</title>
<path fill="none" stroke="black" d="M44.5,-457.8C44.5,-450.35 44.5,-441.28 44.5,-432.29"/>
<polygon fill="black" stroke="black" points="48,-432.27 44.5,-422.27 41,-432.27 48,-432.27"/>
</g>
<!-- acre -->
<g id="node5" class="node">
<title>acre</title>
<text text-anchor="start" x="20" y="-49.8" font-family="Times New Roman,serif" font-weight="bold" font-size="14.00">Modern</text>
<text text-anchor="start" x="21.5" y="-35.8" font-family="Times New Roman,serif" font-weight="bold" font-size="14.00">English</text>
<text text-anchor="start" x="32.5" y="-21.8" font-family="Times New Roman,serif" font-size="14.00" fill="red">acre</text>
</g>
<!-- akerME&#45;&gt;acre -->
<g id="edge4" class="edge">
<title>akerME&#45;&gt;acre</title>
<path fill="none" stroke="black" d="M44.5,-359.86C44.5,-295.01 44.5,-142.61 44.5,-74.25"/>
<polygon fill="black" stroke="black" points="48,-74.02 44.5,-64.02 41,-74.02 48,-74.02"/>
</g>
<!-- agrariusL -->
<g id="node7" class="node">
<title>agrariusL</title>
<text text-anchor="start" x="276.5" y="-233.8" font-family="Times New Roman,serif" font-size="14.00" fill="red">agrārius</text>
<text text-anchor="start" x="282" y="-221.4" font-family="Times New Roman,serif" font-size="12.00">relating</text>
<text text-anchor="start" x="283" y="-209.4" font-family="Times New Roman,serif" font-size="12.00">to land</text>
</g>
<!-- agerL&#45;&gt;agrariusL -->
<g id="edge6" class="edge">
<title>agerL&#45;&gt;agrariusL</title>
<path fill="none" stroke="black" d="M306.33,-535.93C294.44,-525.32 280.94,-510.57 274.5,-494 243.17,-413.38 269.72,-309.18 286.81,-257.69"/>
<polygon fill="black" stroke="black" points="290.16,-258.71 290.08,-248.12 283.53,-256.45 290.16,-258.71"/>
</g>
<!-- agriculturaL -->
<g id="node9" class="node">
<title>agriculturaL</title>
<text text-anchor="start" x="362.5" y="-399.8" font-family="Times New Roman,serif" font-size="14.00" fill="red">agrīcultūra</text>
<text text-anchor="start" x="369.5" y="-387.4" font-family="Times New Roman,serif" font-size="12.00">cultivation</text>
<text text-anchor="start" x="377" y="-375.4" font-family="Times New Roman,serif" font-size="12.00">of land</text>
</g>
<!-- agerL&#45;&gt;agriculturaL -->
<g id="edge10" class="edge">
<title>agerL&#45;&gt;agriculturaL</title>
<path fill="none" stroke="black" d="M333.53,-535.95C339.36,-516.75 349.57,-484.74 360.5,-458 365.2,-446.51 370.96,-434.21 376.29,-423.37"/>
<polygon fill="black" stroke="black" points="379.49,-424.79 380.82,-414.28 373.22,-421.67 379.49,-424.79"/>
</g>
<!-- peregerL -->
<g id="node16" class="node">
<title>peregerL</title>
<text text-anchor="start" x="517.5" y="-478.8" font-family="Times New Roman,serif" font-size="14.00" fill="red">pereger</text>
<text text-anchor="start" x="508.5" y="-466.4" font-family="Times New Roman,serif" font-size="12.00">being abroad</text>
</g>
<!-- agerL&#45;&gt;peregerL -->
<g id="edge14" class="edge">
<title>agerL&#45;&gt;peregerL</title>
<path fill="none" stroke="black" d="M359.43,-535.99C363.76,-533.85 368.2,-531.79 372.5,-530 411.21,-513.84 456.69,-499.64 490.24,-490.02"/>
<polygon fill="black" stroke="black" points="491.59,-493.27 500.25,-487.18 489.68,-486.54 491.59,-493.27"/>
</g>
<!-- agro -->
<g id="node28" class="node">
<title>agro</title>
<text text-anchor="start" x="110" y="-63.8" font-family="Times New Roman,serif" font-weight="bold" font-size="14.00">Modern</text>
<text text-anchor="start" x="111.5" y="-49.8" font-family="Times New Roman,serif" font-weight="bold" font-size="14.00">English</text>
<text text-anchor="start" x="119.5" y="-35.8" font-family="Times New Roman,serif" font-size="14.00" fill="red">agro&#45;</text>
<text text-anchor="start" x="122" y="-21.8" font-family="Times New Roman,serif" font-size="14.00" fill="red">agri&#45;</text>
<text text-anchor="start" x="123.5" y="-7.8" font-family="Times New Roman,serif" font-size="14.00" fill="red">agr&#45;</text>
</g>
<!-- agerL&#45;&gt;agro -->
<g id="edge27" class="edge">
<title>agerL&#45;&gt;agro</title>
<path fill="none" stroke="black" stroke-dasharray="1,5" d="M322.51,-535.72C301.89,-476.51 231.57,-276.53 166.5,-114 163.06,-105.41 159.27,-96.33 155.53,-87.57"/>
<polygon fill="black" stroke="black" points="158.68,-86.04 151.51,-78.24 152.25,-88.81 158.68,-86.04"/>
</g>
<!-- agrarian -->
<g id="node8" class="node">
<title>agrarian</title>
<text text-anchor="start" x="280" y="-49.8" font-family="Times New Roman,serif" font-weight="bold" font-size="14.00">Modern</text>
<text text-anchor="start" x="281.5" y="-35.8" font-family="Times New Roman,serif" font-weight="bold" font-size="14.00">English</text>
<text text-anchor="start" x="282.5" y="-21.8" font-family="Times New Roman,serif" font-size="14.00" fill="red">agrarian</text>
</g>
<!-- agrariusL&#45;&gt;agrarian -->
<g id="edge7" class="edge">
<title>agrariusL&#45;&gt;agrarian</title>
<path fill="none" stroke="black" stroke-dasharray="1,5" d="M299.22,-201.81C300.26,-170.14 302.16,-111.71 303.38,-74.4"/>
<polygon fill="black" stroke="black" points="306.89,-74.13 303.72,-64.02 299.89,-73.9 306.89,-74.13"/>
</g>
<!-- agriculture -->
<g id="node10" class="node">
<title>agriculture</title>
<text text-anchor="start" x="368" y="-49.8" font-family="Times New Roman,serif" font-weight="bold" font-size="14.00">Modern</text>
<text text-anchor="start" x="369.5" y="-35.8" font-family="Times New Roman,serif" font-weight="bold" font-size="14.00">English</text>
<text text-anchor="start" x="363.5" y="-21.8" font-family="Times New Roman,serif" font-size="14.00" fill="red">agriculture</text>
</g>
<!-- agriculturaL&#45;&gt;agriculture -->
<g id="edge12" class="edge">
<title>agriculturaL&#45;&gt;agriculture</title>
<path fill="none" stroke="black" stroke-dasharray="1,5" d="M392.5,-367.84C392.5,-308.52 392.5,-145.8 392.5,-74.38"/>
<polygon fill="black" stroke="black" points="396,-74.13 392.5,-64.13 389,-74.13 396,-74.13"/>
</g>
<!-- kwelIE -->
<g id="node11" class="node">
<title>kwelIE</title>
<g id="a_node11"><a xlink:href="kwel-turn.svg" xlink:title="&lt;b&gt;Indo&#45;&lt;br/&gt;European&lt;/b&gt;&lt;br/&gt;&lt;font color=&quot;red&quot;&gt;*kʷel&#45;&lt;/font&gt;&lt;br/&gt;&lt;font point&#45;size=&quot;12&quot;&gt;to turn?&lt;/font&gt;">
<path fill="none" stroke="black" stroke-dasharray="5,2" d="M435,-701C435,-701 382,-701 382,-701 376,-701 370,-695 370,-689 370,-689 370,-651 370,-651 370,-645 376,-639 382,-639 382,-639 435,-639 435,-639 441,-639 447,-645 447,-651 447,-651 447,-689 447,-689 447,-695 441,-701 435,-701"/>
<text text-anchor="start" x="392" y="-686.8" font-family="Times New Roman,serif" font-weight="bold" font-size="14.00">Indo&#45;</text>
<text text-anchor="start" x="378" y="-672.8" font-family="Times New Roman,serif" font-weight="bold" font-size="14.00">European</text>
<text text-anchor="start" x="391.5" y="-658.8" font-family="Times New Roman,serif" font-size="14.00" fill="red">*kʷel&#45;</text>
<text text-anchor="start" x="391" y="-646.4" font-family="Times New Roman,serif" font-size="12.00">to turn?</text>
</a>
</g>
</g>
<!-- colereL -->
<g id="node12" class="node">
<title>colereL</title>
<text text-anchor="start" x="392" y="-563.8" font-family="Times New Roman,serif" font-weight="bold" font-size="14.00">Latin</text>
<text text-anchor="start" x="391.5" y="-549.8" font-family="Times New Roman,serif" font-size="14.00" fill="red">colere</text>
<text text-anchor="start" x="397.5" y="-537.4" font-family="Times New Roman,serif" font-size="12.00">to till</text>
</g>
<!-- kwelIE&#45;&gt;colereL -->
<g id="edge8" class="edge">
<title>kwelIE&#45;&gt;colereL</title>
<path fill="none" stroke="black" d="M408.5,-638.75C408.5,-623.31 408.5,-604.49 408.5,-588.61"/>
<polygon fill="black" stroke="black" points="412,-588.16 408.5,-578.16 405,-588.16 412,-588.16"/>
</g>
<!-- culturaL -->
<g id="node13" class="node">
<title>culturaL</title>
<text text-anchor="start" x="377.5" y="-472.3" font-family="Times New Roman,serif" font-size="14.00" fill="red">cultūra</text>
</g>
<!-- colereL&#45;&gt;culturaL -->
<g id="edge9" class="edge">
<title>colereL&#45;&gt;culturaL</title>
<path fill="none" stroke="black" d="M404.83,-529.78C403.55,-521.68 402.11,-512.52 400.78,-504.12"/>
<polygon fill="black" stroke="black" points="404.21,-503.38 399.19,-494.04 397.29,-504.47 404.21,-503.38"/>
</g>
<!-- culturaL&#45;&gt;agriculturaL -->
<g id="edge11" class="edge">
<title>culturaL&#45;&gt;agriculturaL</title>
<path fill="none" stroke="black" d="M395.67,-457.8C395.21,-448.13 394.61,-435.74 394.06,-424.33"/>
<polygon fill="black" stroke="black" points="397.55,-424.05 393.57,-414.23 390.56,-424.38 397.55,-424.05"/>
</g>
<!-- perIE -->
<g id="node14" class="node">
<title>perIE</title>
<g id="a_node14"><a xlink:href="per-peri.svg" xlink:title="&lt;b&gt;Indo&#45;&lt;br/&gt;European&lt;/b&gt;&lt;br/&gt;&lt;font color=&quot;red&quot;&gt;per&lt;/font&gt;&lt;br/&gt;&lt;font point&#45;size=&quot;12&quot;&gt;(various prepositions)&lt;/font&gt;">
<path fill="none" stroke="black" stroke-dasharray="5,2" d="M583.5,-701C583.5,-701 493.5,-701 493.5,-701 487.5,-701 481.5,-695 481.5,-689 481.5,-689 481.5,-651 481.5,-651 481.5,-645 487.5,-639 493.5,-639 493.5,-639 583.5,-639 583.5,-639 589.5,-639 595.5,-645 595.5,-651 595.5,-651 595.5,-689 595.5,-689 595.5,-695 589.5,-701 583.5,-701"/>
<text text-anchor="start" x="522" y="-686.8" font-family="Times New Roman,serif" font-weight="bold" font-size="14.00">Indo&#45;</text>
<text text-anchor="start" x="508" y="-672.8" font-family="Times New Roman,serif" font-weight="bold" font-size="14.00">European</text>
<text text-anchor="start" x="529" y="-658.8" font-family="Times New Roman,serif" font-size="14.00" fill="red">per</text>
<text text-anchor="start" x="489.5" y="-646.4" font-family="Times New Roman,serif" font-size="12.00">(various prepositions)</text>
</a>
</g>
</g>
<!-- perL -->
<g id="node15" class="node">
<title>perL</title>
<text text-anchor="start" x="522" y="-563.8" font-family="Times New Roman,serif" font-weight="bold" font-size="14.00">Latin</text>
<text text-anchor="start" x="527" y="-549.8" font-family="Times New Roman,serif" font-size="14.00" fill="red">per&#45;</text>
<text text-anchor="start" x="521.5" y="-537.4" font-family="Times New Roman,serif" font-size="12.00">through</text>
</g>
<!-- perIE&#45;&gt;perL -->
<g id="edge13" class="edge">
<title>perIE&#45;&gt;perL</title>
<path fill="none" stroke="black" d="M538.5,-638.75C538.5,-623.31 538.5,-604.49 538.5,-588.61"/>
<polygon fill="black" stroke="black" points="542,-588.16 538.5,-578.16 535,-588.16 542,-588.16"/>
</g>
<!-- perL&#45;&gt;peregerL -->
<g id="edge15" class="edge">
<title>perL&#45;&gt;peregerL</title>
<path fill="none" stroke="black" d="M538.5,-529.78C538.5,-521.68 538.5,-512.52 538.5,-504.12"/>
<polygon fill="black" stroke="black" points="542,-504.04 538.5,-494.04 535,-504.04 542,-504.04"/>
</g>
<!-- peregrinusL -->
<g id="node17" class="node">
<title>peregrinusL</title>
<text text-anchor="start" x="526" y="-393.8" font-family="Times New Roman,serif" font-size="14.00" fill="red">peregīnus</text>
<text text-anchor="start" x="533.5" y="-381.4" font-family="Times New Roman,serif" font-size="12.00">foreigner</text>
</g>
<!-- peregerL&#45;&gt;peregrinusL -->
<g id="edge16" class="edge">
<title>peregerL&#45;&gt;peregrinusL</title>
<path fill="none" stroke="black" d="M541.61,-457.8C543.62,-446.67 546.28,-431.94 548.58,-419.24"/>
<polygon fill="black" stroke="black" points="552.06,-419.64 550.4,-409.18 545.17,-418.39 552.06,-419.64"/>
</g>
<!-- peregrineOF -->
<g id="node18" class="node">
<title>peregrineOF</title>
<text text-anchor="start" x="534.5" y="-308.8" font-family="Times New Roman,serif" font-weight="bold" font-size="14.00">Old French</text>
<text text-anchor="start" x="543.5" y="-294.8" font-family="Times New Roman,serif" font-size="14.00" fill="red">peregrine</text>
</g>
<!-- peregrinusL&#45;&gt;peregrineOF -->
<g id="edge17" class="edge">
<title>peregrinusL&#45;&gt;peregrineOF</title>
<path fill="none" stroke="black" d="M556.82,-372.6C559,-361.14 561.9,-345.93 564.37,-332.93"/>
<polygon fill="black" stroke="black" points="567.81,-333.57 566.24,-323.1 560.93,-332.26 567.81,-333.57"/>
</g>
<!-- peregrinariL -->
<g id="node21" class="node">
<title>peregrinariL</title>
<text text-anchor="start" x="638.5" y="-308.8" font-family="Times New Roman,serif" font-size="14.00" fill="red">peregrīnārī,</text>
<text text-anchor="start" x="641" y="-293.8" font-family="Times New Roman,serif" font-size="14.00" fill="red">peregrīnāt&#45;</text>
</g>
<!-- peregrinusL&#45;&gt;peregrinariL -->
<g id="edge20" class="edge">
<title>peregrinusL&#45;&gt;peregrinariL</title>
<path fill="none" stroke="black" d="M577.66,-372.8C595.05,-360.42 618.72,-343.57 637.94,-329.89"/>
<polygon fill="black" stroke="black" points="640.03,-332.7 646.15,-324.05 635.97,-327 640.03,-332.7"/>
</g>
<!-- pelegrinusL -->
<g id="node23" class="node">
<title>pelegrinusL</title>
<text text-anchor="start" x="436.5" y="-308.8" font-family="Times New Roman,serif" font-weight="bold" font-size="14.00">Late Latin</text>
<text text-anchor="start" x="439.5" y="-294.8" font-family="Times New Roman,serif" font-size="14.00" fill="red">pelegrīnus</text>
</g>
<!-- peregrinusL&#45;&gt;pelegrinusL -->
<g id="edge22" class="edge">
<title>peregrinusL&#45;&gt;pelegrinusL</title>
<path fill="none" stroke="black" d="M535.89,-372.6C523.5,-360.35 506.75,-343.8 493.05,-330.26"/>
<polygon fill="black" stroke="black" points="495.37,-327.63 485.8,-323.1 490.45,-332.61 495.37,-327.63"/>
</g>
<!-- peregrineME -->
<g id="node19" class="node">
<title>peregrineME</title>
<text text-anchor="start" x="548" y="-235.8" font-family="Times New Roman,serif" font-weight="bold" font-size="14.00">Middle</text>
<text text-anchor="start" x="546.5" y="-221.8" font-family="Times New Roman,serif" font-weight="bold" font-size="14.00">English</text>
<text text-anchor="start" x="543.5" y="-207.8" font-family="Times New Roman,serif" font-size="14.00" fill="red">peregrine</text>
</g>
<!-- peregrineOF&#45;&gt;peregrineME -->
<g id="edge18" class="edge">
<title>peregrineOF&#45;&gt;peregrineME</title>
<path fill="none" stroke="black" stroke-dasharray="1,5" d="M569.5,-286.69C569.5,-278.86 569.5,-269.33 569.5,-260.16"/>
<polygon fill="black" stroke="black" points="573,-260.07 569.5,-250.07 566,-260.07 573,-260.07"/>
</g>
<!-- peregrine -->
<g id="node20" class="node">
<title>peregrine</title>
<text text-anchor="start" x="545" y="-49.8" font-family="Times New Roman,serif" font-weight="bold" font-size="14.00">Modern</text>
<text text-anchor="start" x="546.5" y="-35.8" font-family="Times New Roman,serif" font-weight="bold" font-size="14.00">English</text>
<text text-anchor="start" x="543.5" y="-21.8" font-family="Times New Roman,serif" font-size="14.00" fill="red">peregrine</text>
</g>
<!-- peregrineME&#45;&gt;peregrine -->
<g id="edge19" class="edge">
<title>peregrineME&#45;&gt;peregrine</title>
<path fill="none" stroke="black" d="M569.5,-199.95C569.5,-167.85 569.5,-110.83 569.5,-74.25"/>
<polygon fill="black" stroke="black" points="573,-74.06 569.5,-64.06 566,-74.06 573,-74.06"/>
</g>
<!-- peregrinate -->
<g id="node22" class="node">
<title>peregrinate</title>
<text text-anchor="start" x="647" y="-49.8" font-family="Times New Roman,serif" font-weight="bold" font-size="14.00">Modern</text>
<text text-anchor="start" x="648.5" y="-35.8" font-family="Times New Roman,serif" font-weight="bold" font-size="14.00">English</text>
<text text-anchor="start" x="641" y="-21.8" font-family="Times New Roman,serif" font-size="14.00" fill="red">peregrinate</text>
</g>
<!-- peregrinariL&#45;&gt;peregrinate -->
<g id="edge21" class="edge">
<title>peregrinariL&#45;&gt;peregrinate</title>
<path fill="none" stroke="black" stroke-dasharray="1,5" d="M671.5,-285.85C671.5,-242.3 671.5,-131.24 671.5,-74.5"/>
<polygon fill="black" stroke="black" points="675,-74.24 671.5,-64.24 668,-74.24 675,-74.24"/>
</g>
<!-- peligrinOF -->
<g id="node24" class="node">
<title>peligrinOF</title>
<text text-anchor="start" x="436.5" y="-228.8" font-family="Times New Roman,serif" font-weight="bold" font-size="14.00">Old French</text>
<text text-anchor="start" x="451" y="-214.8" font-family="Times New Roman,serif" font-size="14.00" fill="red">peligrin</text>
</g>
<!-- pelegrinusL&#45;&gt;peligrinOF -->
<g id="edge23" class="edge">
<title>pelegrinusL&#45;&gt;peligrinOF</title>
<path fill="none" stroke="black" d="M469.17,-286.69C469.54,-276.89 470.02,-264.42 470.45,-253.33"/>
<polygon fill="black" stroke="black" points="473.95,-253.39 470.84,-243.26 466.95,-253.12 473.95,-253.39"/>
</g>
<!-- pilgrimME -->
<g id="node25" class="node">
<title>pilgrimME</title>
<text text-anchor="start" x="454" y="-149.8" font-family="Times New Roman,serif" font-weight="bold" font-size="14.00">Middle</text>
<text text-anchor="start" x="452.5" y="-135.8" font-family="Times New Roman,serif" font-weight="bold" font-size="14.00">English</text>
<text text-anchor="start" x="456" y="-121.8" font-family="Times New Roman,serif" font-size="14.00" fill="red">pilgrim</text>
</g>
<!-- peligrinOF&#45;&gt;pilgrimME -->
<g id="edge24" class="edge">
<title>peligrinOF&#45;&gt;pilgrimME</title>
<path fill="none" stroke="black" stroke-dasharray="1,5" d="M472.33,-206.6C472.77,-197.27 473.34,-185.45 473.86,-174.37"/>
<polygon fill="black" stroke="black" points="477.37,-174.23 474.35,-164.07 470.38,-173.89 477.37,-174.23"/>
</g>
<!-- pilgrim -->
<g id="node26" class="node">
<title>pilgrim</title>
<text text-anchor="start" x="456" y="-49.8" font-family="Times New Roman,serif" font-weight="bold" font-size="14.00">Modern</text>
<text text-anchor="start" x="457.5" y="-35.8" font-family="Times New Roman,serif" font-weight="bold" font-size="14.00">English</text>
<text text-anchor="start" x="461" y="-21.8" font-family="Times New Roman,serif" font-size="14.00" fill="red">pilgrim</text>
</g>
<!-- pilgrimME&#45;&gt;pilgrim -->
<g id="edge25" class="edge">
<title>pilgrimME&#45;&gt;pilgrim</title>
<path fill="none" stroke="black" d="M476.74,-113.78C477.34,-101.88 478.08,-87.34 478.75,-74.32"/>
<polygon fill="black" stroke="black" points="482.25,-74.45 479.26,-64.29 475.26,-74.09 482.25,-74.45"/>
</g>
<!-- agrosG&#45;&gt;agro -->
<g id="edge28" class="edge">
<title>agrosG&#45;&gt;agro</title>
<path fill="none" stroke="black" stroke-dasharray="1,5" d="M130.68,-114.78C131.09,-106.88 131.55,-97.74 132.02,-88.61"/>
<polygon fill="black" stroke="black" points="135.53,-88.55 132.54,-78.38 128.54,-88.19 135.53,-88.55"/>
</g>
<!-- onagrosG -->
<g id="node31" class="node">
<title>onagrosG</title>
<text text-anchor="start" x="168.5" y="-472.3" font-family="Times New Roman,serif" font-size="14.00" fill="red">onagros</text>
</g>
<!-- agriosG&#45;&gt;onagrosG -->
<g id="edge30" class="edge">
<title>agriosG&#45;&gt;onagrosG</title>
<path fill="none" stroke="black" d="M179,-529.78C180.94,-521.59 183.14,-512.31 185.14,-503.84"/>
<polygon fill="black" stroke="black" points="188.56,-504.58 187.46,-494.04 181.75,-502.97 188.56,-504.58"/>
</g>
<!-- onosG -->
<g id="node30" class="node">
<title>onosG</title>
<text text-anchor="start" x="227.5" y="-563.8" font-family="Times New Roman,serif" font-weight="bold" font-size="14.00">Greek</text>
<text text-anchor="start" x="233.5" y="-549.8" font-family="Times New Roman,serif" font-size="14.00" fill="red">onos</text>
<text text-anchor="start" x="240" y="-537.4" font-family="Times New Roman,serif" font-size="12.00">ass</text>
</g>
<!-- onosG&#45;&gt;onagrosG -->
<g id="edge31" class="edge">
<title>onosG&#45;&gt;onagrosG</title>
<path fill="none" stroke="black" d="M230.39,-529.78C223.96,-521.05 216.61,-511.08 210.05,-502.18"/>
<polygon fill="black" stroke="black" points="212.81,-500.02 204.06,-494.04 207.17,-504.17 212.81,-500.02"/>
</g>
<!-- onagerL -->
<g id="node32" class="node">
<title>onagerL</title>
<text text-anchor="start" x="233" y="-142.8" font-family="Times New Roman,serif" font-weight="bold" font-size="14.00">Latin</text>
<text text-anchor="start" x="230.5" y="-128.8" font-family="Times New Roman,serif" font-size="14.00" fill="red">onager</text>
</g>
<!-- onagrosG&#45;&gt;onagerL -->
<g id="edge32" class="edge">
<title>onagrosG&#45;&gt;onagerL</title>
<path fill="none" stroke="black" stroke-dasharray="1,5" d="M194.46,-457.93C203.88,-403.49 233.27,-233.71 244.8,-167.16"/>
<polygon fill="black" stroke="black" points="248.29,-167.49 246.55,-157.04 241.4,-166.3 248.29,-167.49"/>
</g>
<!-- onager -->
<g id="node33" class="node">
<title>onager</title>
<text text-anchor="start" x="197" y="-49.8" font-family="Times New Roman,serif" font-weight="bold" font-size="14.00">Modern</text>
<text text-anchor="start" x="198.5" y="-35.8" font-family="Times New Roman,serif" font-weight="bold" font-size="14.00">English</text>
<text text-anchor="start" x="202.5" y="-21.8" font-family="Times New Roman,serif" font-size="14.00" fill="red">onager</text>
</g>
<!-- onagerL&#45;&gt;onager -->
<g id="edge33" class="edge">
<title>onagerL&#45;&gt;onager</title>
<path fill="none" stroke="black" stroke-dasharray="1,5" d="M244.62,-120.93C240.95,-108.06 235.78,-90 231.27,-74.2"/>
<polygon fill="black" stroke="black" points="234.53,-72.87 228.42,-64.22 227.8,-74.79 234.53,-72.87"/>
</g>
</g>
</svg>
