<?xml version="1.0" encoding="UTF-8" standalone="no"?>
<!DOCTYPE svg PUBLIC "-//W3C//DTD SVG 1.1//EN"
 "http://www.w3.org/Graphics/SVG/1.1/DTD/svg11.dtd">
<!-- Generated by graphviz version 2.49.0 (20210828.1703)
 -->
<!-- Pages: 1 -->
<svg width="305pt" height="230pt"
 viewBox="0.00 0.00 305.00 230.00" xmlns="http://www.w3.org/2000/svg" xmlns:xlink="http://www.w3.org/1999/xlink">
<g id="graph0" class="graph" transform="scale(1 1) rotate(0) translate(4 226)">
<polygon fill="white" stroke="transparent" points="-4,4 -4,-226 301,-226 301,4 -4,4"/>
<!-- aiwIE -->
<g id="node1" class="node">
<title>aiwIE</title>
<g id="a_node1"><a xlink:title="Indo&#45;European &quot;*aiw&#45;, ayu&#45;&quot; vital force, life, eternity">
<polygon fill="none" stroke="black" points="292,-218 5,-218 5,-114 292,-114 292,-218"/>
<polygon fill="none" stroke="black" points="296,-222 1,-222 1,-110 296,-110 296,-222"/>
<text text-anchor="start" x="70.5" y="-173.8" font-family="Times New Roman,serif" font-weight="bold" font-size="24.00">Indo&#45;European</text>
<text text-anchor="start" x="31.5" y="-145.6" font-family="Times New Roman,serif" font-size="18.00" fill="red">*aiw&#45;, ayu&#45;</text>
<text text-anchor="start" x="119.5" y="-146.2" font-family="Times New Roman,serif" font-size="16.00">vital force, life, eternity</text>
</a>
</g>
</g>
<!-- aiw1 -->
<g id="node2" class="node">
<title>aiw1</title>
<g id="a_node2"><a xlink:href="aiw-life1.svg" xlink:title="basic form">
<path fill="none" stroke="black" stroke-dasharray="5,2" d="M65,-55C65,-55 12,-55 12,-55 6,-55 0,-49 0,-43 0,-43 0,-31 0,-31 0,-25 6,-19 12,-19 12,-19 65,-19 65,-19 71,-19 77,-25 77,-31 77,-31 77,-43 77,-43 77,-49 71,-55 65,-55"/>
<text text-anchor="start" x="8" y="-33.3" font-family="Times New Roman,serif" font-size="14.00">basic form</text>
</a>
</g>
</g>
<!-- aiwIE&#45;&gt;aiw1 -->
<g id="edge1" class="edge">
<title>aiwIE&#45;&gt;aiw1</title>
<path fill="none" stroke="black" d="M100.57,-109.67C86.48,-93.39 71.75,-76.39 60.18,-63.03"/>
<polygon fill="black" stroke="black" points="62.61,-60.49 53.42,-55.22 57.32,-65.08 62.61,-60.49"/>
</g>
<!-- aiw2 -->
<g id="node3" class="node">
<title>aiw2</title>
<g id="a_node3"><a xlink:href="aiw-life2.svg" xlink:title="derivative forms">
<path fill="none" stroke="black" stroke-dasharray="5,2" d="M190,-55C190,-55 107,-55 107,-55 101,-55 95,-49 95,-43 95,-43 95,-31 95,-31 95,-25 101,-19 107,-19 107,-19 190,-19 190,-19 196,-19 202,-25 202,-31 202,-31 202,-43 202,-43 202,-49 196,-55 190,-55"/>
<text text-anchor="start" x="103" y="-33.3" font-family="Times New Roman,serif" font-size="14.00">derivative forms</text>
</a>
</g>
</g>
<!-- aiwIE&#45;&gt;aiw2 -->
<g id="edge2" class="edge">
<title>aiwIE&#45;&gt;aiw2</title>
<path fill="none" stroke="black" d="M148.5,-109.67C148.5,-94.31 148.5,-78.31 148.5,-65.33"/>
<polygon fill="black" stroke="black" points="152,-65.22 148.5,-55.22 145,-65.22 152,-65.22"/>
</g>
<!-- yeuIE -->
<g id="node4" class="node">
<title>yeuIE</title>
<g id="a_node4"><a xlink:href="yeu-youth.svg" xlink:title="&lt;b&gt;Indo&#45;&lt;br/&gt;European&lt;/b&gt;&lt;br/&gt;&lt;font color=&quot;red&quot;&gt;*yeu&#45;&lt;/font&gt;&lt;br/&gt;&lt;font point&#45;size=&quot;12&quot;&gt;vital force,&lt;br/&gt;youthful vigor&lt;/font&gt;">
<path fill="none" stroke="black" stroke-dasharray="5,2" d="M285,-74C285,-74 232,-74 232,-74 226,-74 220,-68 220,-62 220,-62 220,-12 220,-12 220,-6 226,0 232,0 232,0 285,0 285,0 291,0 297,-6 297,-12 297,-12 297,-62 297,-62 297,-68 291,-74 285,-74"/>
<text text-anchor="start" x="242" y="-59.8" font-family="Times New Roman,serif" font-weight="bold" font-size="14.00">Indo&#45;</text>
<text text-anchor="start" x="228" y="-45.8" font-family="Times New Roman,serif" font-weight="bold" font-size="14.00">European</text>
<text text-anchor="start" x="243" y="-31.8" font-family="Times New Roman,serif" font-size="14.00" fill="red">*yeu&#45;</text>
<text text-anchor="start" x="234.5" y="-19.4" font-family="Times New Roman,serif" font-size="12.00">vital force,</text>
<text text-anchor="start" x="228" y="-7.4" font-family="Times New Roman,serif" font-size="12.00">youthful vigor</text>
</a>
</g>
</g>
<!-- aiwIE&#45;&gt;yeuIE -->
<g id="edge3" class="edge">
<title>aiwIE&#45;&gt;yeuIE</title>
<path fill="none" stroke="black" d="M196.43,-109.67C204.49,-100.36 212.75,-90.82 220.52,-81.85"/>
<polygon fill="black" stroke="black" points="223.29,-83.99 227.19,-74.14 218,-79.41 223.29,-83.99"/>
</g>
</g>
</svg>
