<?xml version="1.0" encoding="UTF-8" standalone="no"?>
<!DOCTYPE svg PUBLIC "-//W3C//DTD SVG 1.1//EN"
 "http://www.w3.org/Graphics/SVG/1.1/DTD/svg11.dtd">
<!-- Generated by graphviz version 2.49.0 (20210828.1703)
 -->
<!-- Pages: 1 -->
<svg width="1403pt" height="786pt"
 viewBox="0.00 0.00 1403.00 786.00" xmlns="http://www.w3.org/2000/svg" xmlns:xlink="http://www.w3.org/1999/xlink">
<g id="graph0" class="graph" transform="scale(1 1) rotate(0) translate(4 782)">
<polygon fill="white" stroke="transparent" points="-4,4 -4,-782 1399,-782 1399,4 -4,4"/>
<!-- aiw -->
<g id="node1" class="node">
<title>aiw</title>
<g id="a_node1"><a xlink:title="Indo&#45;European &quot;aiw&#45;, ayu&#45;&quot; vital force, life, eternity">
<polygon fill="none" stroke="black" points="876,-774 665,-774 665,-654 876,-654 876,-774"/>
<polygon fill="none" stroke="black" points="880,-778 661,-778 661,-650 880,-650 880,-778"/>
<text text-anchor="start" x="692.5" y="-729.8" font-family="Times New Roman,serif" font-weight="bold" font-size="24.00">Indo&#45;European</text>
<text text-anchor="start" x="692.5" y="-693.6" font-family="Times New Roman,serif" font-size="18.00" fill="red">aiw&#45;, ayu&#45;</text>
<text text-anchor="start" x="777.5" y="-703.2" font-family="Times New Roman,serif" font-size="16.00">vital force,</text>
<text text-anchor="start" x="773.5" y="-685.2" font-family="Times New Roman,serif" font-size="16.00">life, eternity</text>
</a>
</g>
</g>
<!-- yeu -->
<g id="node2" class="node">
<title>yeu</title>
<g id="a_node2"><a xlink:href="yeu-youth.svg" xlink:title="yeu&#45; &quot;vital force, youthful vigor&quot;">
<path fill="none" stroke="black" stroke-dasharray="5,2" d="M675.5,-614C675.5,-614 645.5,-614 645.5,-614 639.5,-614 633.5,-608 633.5,-602 633.5,-602 633.5,-590 633.5,-590 633.5,-584 639.5,-578 645.5,-578 645.5,-578 675.5,-578 675.5,-578 681.5,-578 687.5,-584 687.5,-590 687.5,-590 687.5,-602 687.5,-602 687.5,-608 681.5,-614 675.5,-614"/>
<text text-anchor="start" x="648" y="-592.3" font-family="Times New Roman,serif" font-size="14.00" fill="red">yeu&#45;</text>
</a>
</g>
</g>
<!-- aiw&#45;&gt;yeu -->
<g id="edge1" class="edge">
<title>aiw&#45;&gt;yeu</title>
<path fill="none" stroke="black" d="M776.5,-649C776.5,-649 730.95,-628.58 696.94,-613.33"/>
<polygon fill="black" stroke="black" points="698.25,-610.09 687.7,-609.19 695.39,-616.48 698.25,-610.09"/>
</g>
<!-- aiwiGm -->
<g id="node3" class="node">
<title>aiwiGm</title>
<text text-anchor="start" x="263" y="-416.8" font-family="Times New Roman,serif" font-weight="bold" font-size="14.00">Germanic</text>
<text text-anchor="start" x="282.5" y="-402.8" font-family="Times New Roman,serif" font-size="14.00" fill="red">aiwi</text>
</g>
<!-- aiw&#45;&gt;aiwiGm -->
<g id="edge2" class="edge">
<title>aiw&#45;&gt;aiwiGm</title>
<path fill="none" stroke="black" d="M776.5,-649C776.5,-649 736.87,-603.1 696.5,-578 577.76,-504.19 420.07,-451.38 341.81,-427.79"/>
<polygon fill="black" stroke="black" points="342.8,-424.43 332.21,-424.92 340.79,-431.14 342.8,-424.43"/>
</g>
<!-- aiwo -->
<g id="node27" class="node">
<title>aiwo</title>
<text text-anchor="start" x="752.5" y="-507.3" font-family="Times New Roman,serif" font-size="14.00" fill="red">aiw&#45;o&#45;</text>
</g>
<!-- aiw&#45;&gt;aiwo -->
<g id="edge26" class="edge">
<title>aiw&#45;&gt;aiwo</title>
<path fill="none" stroke="black" d="M776.5,-649C776.5,-649 773.44,-579.19 771.69,-539.23"/>
<polygon fill="black" stroke="black" points="775.18,-538.91 771.25,-529.07 768.19,-539.22 775.18,-538.91"/>
</g>
<!-- aiwen -->
<g id="node49" class="node">
<title>aiwen</title>
<text text-anchor="start" x="1081" y="-507.3" font-family="Times New Roman,serif" font-size="14.00" fill="red">aiw&#45;en&#45;</text>
</g>
<!-- aiw&#45;&gt;aiwen -->
<g id="edge48" class="edge">
<title>aiw&#45;&gt;aiwen</title>
<path fill="none" stroke="black" d="M776.5,-649C776.5,-649 977.82,-564.14 1063.56,-527.99"/>
<polygon fill="black" stroke="black" points="1065.09,-531.15 1072.94,-524.04 1062.37,-524.7 1065.09,-531.15"/>
</g>
<!-- oyu -->
<g id="node53" class="node">
<title>oyu</title>
<text text-anchor="start" x="1103.5" y="-592.3" font-family="Times New Roman,serif" font-size="14.00" fill="red">oyu&#45;</text>
</g>
<!-- aiw&#45;&gt;oyu -->
<g id="edge52" class="edge">
<title>aiw&#45;&gt;oyu</title>
<path fill="none" stroke="black" d="M776.5,-649C776.5,-649 990.79,-616.23 1079.13,-602.72"/>
<polygon fill="black" stroke="black" points="1079.9,-606.14 1089.25,-601.17 1078.84,-599.22 1079.9,-606.14"/>
</g>
<!-- aiwiwihti -->
<g id="node4" class="node">
<title>aiwiwihti</title>
<text text-anchor="start" x="61.5" y="-324.8" font-family="Times New Roman,serif" font-size="14.00" fill="red">aiwi wihti</text>
<text text-anchor="start" x="69" y="-312.4" font-family="Times New Roman,serif" font-size="12.00">anything</text>
</g>
<!-- aiwiGm&#45;&gt;aiwiwihti -->
<g id="edge3" class="edge">
<title>aiwiGm&#45;&gt;aiwiwihti</title>
<path fill="none" stroke="black" d="M287.5,-394C287.5,-394 198.59,-373.58 131.5,-346 130.29,-345.5 129.07,-344.98 127.84,-344.45"/>
<polygon fill="black" stroke="black" points="128.95,-341.1 118.41,-340.06 126,-347.45 128.95,-341.1"/>
</g>
<!-- aOE -->
<g id="node8" class="node">
<title>aOE</title>
<text text-anchor="start" x="149" y="-331.8" font-family="Times New Roman,serif" font-weight="bold" font-size="14.00">Old English</text>
<text text-anchor="start" x="182" y="-317.8" font-family="Times New Roman,serif" font-size="14.00" fill="red">ā</text>
<text text-anchor="start" x="175.5" y="-305.4" font-family="Times New Roman,serif" font-size="12.00">ever</text>
</g>
<!-- aiwiGm&#45;&gt;aOE -->
<g id="edge7" class="edge">
<title>aiwiGm&#45;&gt;aOE</title>
<path fill="none" stroke="black" d="M287.5,-394C287.5,-394 255.11,-371.45 226.83,-351.77"/>
<polygon fill="black" stroke="black" points="228.82,-348.89 218.62,-346.05 224.82,-354.64 228.82,-348.89"/>
</g>
<!-- aefreOE -->
<g id="node12" class="node">
<title>aefreOE</title>
<text text-anchor="start" x="257" y="-331.8" font-family="Times New Roman,serif" font-weight="bold" font-size="14.00">Old English</text>
<text text-anchor="start" x="281" y="-317.8" font-family="Times New Roman,serif" font-size="14.00" fill="red">ǣfre</text>
<text text-anchor="start" x="283.5" y="-305.4" font-family="Times New Roman,serif" font-size="12.00">ever</text>
</g>
<!-- aiwiGm&#45;&gt;aefreOE -->
<g id="edge11" class="edge">
<title>aiwiGm&#45;&gt;aefreOE</title>
<path fill="none" stroke="black" d="M287.5,-394C287.5,-394 289.13,-374.75 290.69,-356.29"/>
<polygon fill="black" stroke="black" points="294.18,-356.51 291.54,-346.25 287.21,-355.92 294.18,-356.51"/>
</g>
<!-- eiON -->
<g id="node21" class="node">
<title>eiON</title>
<text text-anchor="start" x="427.5" y="-331.8" font-family="Times New Roman,serif" font-weight="bold" font-size="14.00">Old Norse</text>
<text text-anchor="start" x="454.5" y="-317.8" font-family="Times New Roman,serif" font-size="14.00" fill="red">ei</text>
<text text-anchor="start" x="449.5" y="-305.4" font-family="Times New Roman,serif" font-size="12.00">ever</text>
</g>
<!-- aiwiGm&#45;&gt;eiON -->
<g id="edge20" class="edge">
<title>aiwiGm&#45;&gt;eiON</title>
<path fill="none" stroke="black" d="M287.5,-394C287.5,-394 358.84,-364.55 409.63,-343.58"/>
<polygon fill="black" stroke="black" points="411.27,-346.7 419.17,-339.65 408.59,-340.23 411.27,-346.7"/>
</g>
<!-- awihtOE -->
<g id="node5" class="node">
<title>awihtOE</title>
<text text-anchor="start" x="8" y="-247.8" font-family="Times New Roman,serif" font-weight="bold" font-size="14.00">Old English</text>
<text text-anchor="start" x="29.5" y="-233.8" font-family="Times New Roman,serif" font-size="14.00" fill="red">āwiht</text>
<text text-anchor="start" x="32.5" y="-219.8" font-family="Times New Roman,serif" font-size="14.00" fill="red">āuht</text>
</g>
<!-- aiwiwihti&#45;&gt;awihtOE -->
<g id="edge4" class="edge">
<title>aiwiwihti&#45;&gt;awihtOE</title>
<path fill="none" stroke="black" d="M78.59,-303.8C73.71,-294.38 67.49,-282.38 61.7,-271.21"/>
<polygon fill="black" stroke="black" points="64.69,-269.37 56.99,-262.1 58.48,-272.59 64.69,-269.37"/>
</g>
<!-- aughtME -->
<g id="node6" class="node">
<title>aughtME</title>
<text text-anchor="start" x="17" y="-161.8" font-family="Times New Roman,serif" font-weight="bold" font-size="14.00">Middle</text>
<text text-anchor="start" x="15.5" y="-147.8" font-family="Times New Roman,serif" font-weight="bold" font-size="14.00">English</text>
<text text-anchor="start" x="23" y="-133.8" font-family="Times New Roman,serif" font-size="14.00" fill="red">aught</text>
<text text-anchor="start" x="22.5" y="-119.8" font-family="Times New Roman,serif" font-size="14.00" fill="red">ought</text>
</g>
<!-- awihtOE&#45;&gt;aughtME -->
<g id="edge5" class="edge">
<title>awihtOE&#45;&gt;aughtME</title>
<path fill="none" stroke="black" d="M42.89,-211.61C42.38,-203.82 41.79,-194.96 41.22,-186.31"/>
<polygon fill="black" stroke="black" points="44.72,-186.07 40.56,-176.32 37.73,-186.53 44.72,-186.07"/>
</g>
<!-- aught -->
<g id="node7" class="node">
<title>aught</title>
<text text-anchor="start" x="10" y="-61.8" font-family="Times New Roman,serif" font-weight="bold" font-size="14.00">Modern</text>
<text text-anchor="start" x="11.5" y="-47.8" font-family="Times New Roman,serif" font-weight="bold" font-size="14.00">English</text>
<text text-anchor="start" x="19" y="-33.8" font-family="Times New Roman,serif" font-size="14.00" fill="red">aught</text>
<text text-anchor="start" x="18.5" y="-19.8" font-family="Times New Roman,serif" font-size="14.00" fill="red">ought</text>
<text text-anchor="start" x="16" y="-7.4" font-family="Times New Roman,serif" font-size="12.00">anything</text>
</g>
<!-- aughtME&#45;&gt;aught -->
<g id="edge6" class="edge">
<title>aughtME&#45;&gt;aught</title>
<path fill="none" stroke="black" d="M37.3,-111.8C36.99,-103.71 36.65,-94.82 36.31,-86.12"/>
<polygon fill="black" stroke="black" points="39.81,-85.9 35.92,-76.05 32.81,-86.17 39.81,-85.9"/>
</g>
<!-- naOE -->
<g id="node9" class="node">
<title>naOE</title>
<text text-anchor="start" x="147" y="-246.8" font-family="Times New Roman,serif" font-size="14.00" fill="red">ne ā</text>
<text text-anchor="start" x="152" y="-232.8" font-family="Times New Roman,serif" font-size="14.00" fill="red">nā</text>
<text text-anchor="start" x="146" y="-220.4" font-family="Times New Roman,serif" font-size="12.00">never</text>
</g>
<!-- aOE&#45;&gt;naOE -->
<g id="edge8" class="edge">
<title>aOE&#45;&gt;naOE</title>
<path fill="none" stroke="black" d="M177.98,-297.88C175.25,-289.5 172.12,-279.86 169.17,-270.8"/>
<polygon fill="black" stroke="black" points="172.5,-269.71 166.07,-261.28 165.84,-271.88 172.5,-269.71"/>
</g>
<!-- noME -->
<g id="node10" class="node">
<title>noME</title>
<text text-anchor="start" x="105" y="-154.8" font-family="Times New Roman,serif" font-weight="bold" font-size="14.00">Middle</text>
<text text-anchor="start" x="103.5" y="-140.8" font-family="Times New Roman,serif" font-weight="bold" font-size="14.00">English</text>
<text text-anchor="start" x="119" y="-126.8" font-family="Times New Roman,serif" font-size="14.00" fill="red">no</text>
</g>
<!-- naOE&#45;&gt;noME -->
<g id="edge9" class="edge">
<title>naOE&#45;&gt;noME</title>
<path fill="none" stroke="black" d="M150.26,-212.57C146.65,-202.3 142.35,-190.06 138.4,-178.84"/>
<polygon fill="black" stroke="black" points="141.67,-177.58 135.05,-169.31 135.06,-179.9 141.67,-177.58"/>
</g>
<!-- no -->
<g id="node11" class="node">
<title>no</title>
<text text-anchor="start" x="98" y="-54.8" font-family="Times New Roman,serif" font-weight="bold" font-size="14.00">Modern</text>
<text text-anchor="start" x="99.5" y="-40.8" font-family="Times New Roman,serif" font-weight="bold" font-size="14.00">English</text>
<text text-anchor="start" x="115" y="-26.8" font-family="Times New Roman,serif" font-size="14.00" fill="red">no</text>
<text text-anchor="start" x="93" y="-14.4" font-family="Times New Roman,serif" font-size="12.00">(interj., adv.)</text>
</g>
<!-- noME&#45;&gt;no -->
<g id="edge10" class="edge">
<title>noME&#45;&gt;no</title>
<path fill="none" stroke="black" d="M125.57,-118.88C125.12,-107.23 124.57,-92.93 124.06,-79.67"/>
<polygon fill="black" stroke="black" points="127.55,-79.18 123.67,-69.33 120.55,-79.45 127.55,-79.18"/>
</g>
<!-- everME -->
<g id="node13" class="node">
<title>everME</title>
<text text-anchor="start" x="190" y="-154.8" font-family="Times New Roman,serif" font-weight="bold" font-size="14.00">Middle</text>
<text text-anchor="start" x="188.5" y="-140.8" font-family="Times New Roman,serif" font-weight="bold" font-size="14.00">English</text>
<text text-anchor="start" x="199.5" y="-126.8" font-family="Times New Roman,serif" font-size="14.00" fill="red">ever</text>
</g>
<!-- aefreOE&#45;&gt;everME -->
<g id="edge12" class="edge">
<title>aefreOE&#45;&gt;everME</title>
<path fill="none" stroke="black" d="M296.5,-297C296.5,-297 265.45,-282.89 250.5,-262 232.84,-237.32 222.78,-204.1 217.32,-179.36"/>
<polygon fill="black" stroke="black" points="220.7,-178.42 215.25,-169.33 213.84,-179.83 220.7,-178.42"/>
</g>
<!-- aefreaelc -->
<g id="node15" class="node">
<title>aefreaelc</title>
<text text-anchor="start" x="269" y="-239.8" font-family="Times New Roman,serif" font-size="14.00" fill="red">ǣfre ǣlc</text>
<text text-anchor="start" x="267.5" y="-227.4" font-family="Times New Roman,serif" font-size="12.00">&quot;ever each&quot;</text>
</g>
<!-- aefreOE&#45;&gt;aefreaelc -->
<g id="edge14" class="edge">
<title>aefreOE&#45;&gt;aefreaelc</title>
<path fill="none" stroke="black" d="M296.5,-297C296.5,-297 295.68,-280.82 294.89,-265.41"/>
<polygon fill="black" stroke="black" points="298.37,-264.87 294.37,-255.07 291.38,-265.23 298.37,-264.87"/>
</g>
<!-- naefreOE -->
<g id="node18" class="node">
<title>naefreOE</title>
<text text-anchor="start" x="354.5" y="-246.8" font-family="Times New Roman,serif" font-size="14.00" fill="red">ne ǣfre</text>
<text text-anchor="start" x="359.5" y="-232.8" font-family="Times New Roman,serif" font-size="14.00" fill="red">nǣfre</text>
<text text-anchor="start" x="363" y="-220.4" font-family="Times New Roman,serif" font-size="12.00">never</text>
</g>
<!-- aefreOE&#45;&gt;naefreOE -->
<g id="edge17" class="edge">
<title>aefreOE&#45;&gt;naefreOE</title>
<path fill="none" stroke="black" d="M296.5,-297C296.5,-297 317.64,-281.21 338.05,-265.97"/>
<polygon fill="black" stroke="black" points="340.17,-268.76 346.08,-259.97 335.98,-263.15 340.17,-268.76"/>
</g>
<!-- ever -->
<g id="node14" class="node">
<title>ever</title>
<text text-anchor="start" x="186" y="-48.8" font-family="Times New Roman,serif" font-weight="bold" font-size="14.00">Modern</text>
<text text-anchor="start" x="187.5" y="-34.8" font-family="Times New Roman,serif" font-weight="bold" font-size="14.00">English</text>
<text text-anchor="start" x="198.5" y="-20.8" font-family="Times New Roman,serif" font-size="14.00" fill="red">ever</text>
</g>
<!-- everME&#45;&gt;ever -->
<g id="edge13" class="edge">
<title>everME&#45;&gt;ever</title>
<path fill="none" stroke="black" d="M211.27,-118.88C211.14,-105.46 210.98,-88.51 210.83,-73.69"/>
<polygon fill="black" stroke="black" points="214.33,-73.32 210.73,-63.35 207.33,-73.38 214.33,-73.32"/>
</g>
<!-- everichME -->
<g id="node16" class="node">
<title>everichME</title>
<text text-anchor="start" x="272" y="-161.8" font-family="Times New Roman,serif" font-weight="bold" font-size="14.00">Middle</text>
<text text-anchor="start" x="270.5" y="-147.8" font-family="Times New Roman,serif" font-weight="bold" font-size="14.00">English</text>
<text text-anchor="start" x="273.5" y="-133.8" font-family="Times New Roman,serif" font-size="14.00" fill="red">everich</text>
<text text-anchor="start" x="280" y="-119.8" font-family="Times New Roman,serif" font-size="14.00" fill="red">everi</text>
</g>
<!-- aefreaelc&#45;&gt;everichME -->
<g id="edge15" class="edge">
<title>aefreaelc&#45;&gt;everichME</title>
<path fill="none" stroke="black" d="M293.5,-218.88C293.5,-209.66 293.5,-197.84 293.5,-186.38"/>
<polygon fill="black" stroke="black" points="297,-186.04 293.5,-176.04 290,-186.04 297,-186.04"/>
</g>
<!-- every -->
<g id="node17" class="node">
<title>every</title>
<text text-anchor="start" x="269" y="-48.8" font-family="Times New Roman,serif" font-weight="bold" font-size="14.00">Modern</text>
<text text-anchor="start" x="270.5" y="-34.8" font-family="Times New Roman,serif" font-weight="bold" font-size="14.00">English</text>
<text text-anchor="start" x="278" y="-20.8" font-family="Times New Roman,serif" font-size="14.00" fill="red">every</text>
</g>
<!-- everichME&#45;&gt;every -->
<g id="edge16" class="edge">
<title>everichME&#45;&gt;every</title>
<path fill="none" stroke="black" d="M293.5,-111.8C293.5,-99.64 293.5,-85.68 293.5,-73.25"/>
<polygon fill="black" stroke="black" points="297,-73.24 293.5,-63.24 290,-73.24 297,-73.24"/>
</g>
<!-- neverME -->
<g id="node19" class="node">
<title>neverME</title>
<text text-anchor="start" x="355" y="-154.8" font-family="Times New Roman,serif" font-weight="bold" font-size="14.00">Middle</text>
<text text-anchor="start" x="353.5" y="-140.8" font-family="Times New Roman,serif" font-weight="bold" font-size="14.00">English</text>
<text text-anchor="start" x="361" y="-126.8" font-family="Times New Roman,serif" font-size="14.00" fill="red">never</text>
</g>
<!-- naefreOE&#45;&gt;neverME -->
<g id="edge18" class="edge">
<title>naefreOE&#45;&gt;neverME</title>
<path fill="none" stroke="black" d="M375.76,-212.57C375.87,-202.51 376,-190.55 376.12,-179.52"/>
<polygon fill="black" stroke="black" points="379.62,-179.35 376.23,-169.31 372.62,-179.27 379.62,-179.35"/>
</g>
<!-- never -->
<g id="node20" class="node">
<title>never</title>
<text text-anchor="start" x="352" y="-48.8" font-family="Times New Roman,serif" font-weight="bold" font-size="14.00">Modern</text>
<text text-anchor="start" x="353.5" y="-34.8" font-family="Times New Roman,serif" font-weight="bold" font-size="14.00">English</text>
<text text-anchor="start" x="361" y="-20.8" font-family="Times New Roman,serif" font-size="14.00" fill="red">never</text>
</g>
<!-- neverME&#45;&gt;never -->
<g id="edge19" class="edge">
<title>neverME&#45;&gt;never</title>
<path fill="none" stroke="black" d="M376.5,-118.88C376.5,-105.46 376.5,-88.51 376.5,-73.69"/>
<polygon fill="black" stroke="black" points="380,-73.35 376.5,-63.35 373,-73.35 380,-73.35"/>
</g>
<!-- aiME -->
<g id="node22" class="node">
<title>aiME</title>
<text text-anchor="start" x="438" y="-154.8" font-family="Times New Roman,serif" font-weight="bold" font-size="14.00">Middle</text>
<text text-anchor="start" x="436.5" y="-140.8" font-family="Times New Roman,serif" font-weight="bold" font-size="14.00">English</text>
<text text-anchor="start" x="454.5" y="-126.8" font-family="Times New Roman,serif" font-size="14.00" fill="red">ai</text>
</g>
<!-- eiON&#45;&gt;aiME -->
<g id="edge21" class="edge">
<title>eiON&#45;&gt;aiME</title>
<path fill="none" stroke="black" stroke-dasharray="5,2" d="M468.5,-297C468.5,-297 464.18,-224.1 461.53,-179.27"/>
<polygon fill="black" stroke="black" points="465.01,-178.86 460.93,-169.08 458.02,-179.27 465.01,-178.86"/>
</g>
<!-- neiON -->
<g id="node24" class="node">
<title>neiON</title>
<text text-anchor="start" x="515.5" y="-240.8" font-family="Times New Roman,serif" font-size="14.00" fill="red">ne ei</text>
<text text-anchor="start" x="520.5" y="-225.8" font-family="Times New Roman,serif" font-size="14.00" fill="red">nei</text>
</g>
<!-- eiON&#45;&gt;neiON -->
<g id="edge23" class="edge">
<title>eiON&#45;&gt;neiON</title>
<path fill="none" stroke="black" d="M468.5,-297C468.5,-297 486.57,-279.23 502.88,-263.2"/>
<polygon fill="black" stroke="black" points="505.5,-265.53 510.17,-256.02 500.59,-260.54 505.5,-265.53"/>
</g>
<!-- aye -->
<g id="node23" class="node">
<title>aye</title>
<text text-anchor="start" x="435" y="-54.8" font-family="Times New Roman,serif" font-weight="bold" font-size="14.00">Modern</text>
<text text-anchor="start" x="436.5" y="-40.8" font-family="Times New Roman,serif" font-weight="bold" font-size="14.00">English</text>
<text text-anchor="start" x="450" y="-26.8" font-family="Times New Roman,serif" font-size="14.00" fill="red">aye</text>
<text text-anchor="start" x="449.5" y="-14.4" font-family="Times New Roman,serif" font-size="12.00">ever</text>
</g>
<!-- aiME&#45;&gt;aye -->
<g id="edge22" class="edge">
<title>aiME&#45;&gt;aye</title>
<path fill="none" stroke="black" d="M459.5,-118.88C459.5,-107.23 459.5,-92.93 459.5,-79.67"/>
<polygon fill="black" stroke="black" points="463,-79.33 459.5,-69.33 456,-79.33 463,-79.33"/>
</g>
<!-- nayME -->
<g id="node25" class="node">
<title>nayME</title>
<text text-anchor="start" x="520" y="-154.8" font-family="Times New Roman,serif" font-weight="bold" font-size="14.00">Middle</text>
<text text-anchor="start" x="518.5" y="-140.8" font-family="Times New Roman,serif" font-weight="bold" font-size="14.00">English</text>
<text text-anchor="start" x="531.5" y="-126.8" font-family="Times New Roman,serif" font-size="14.00" fill="red">nay</text>
</g>
<!-- neiON&#45;&gt;nayME -->
<g id="edge24" class="edge">
<title>neiON&#45;&gt;nayME</title>
<path fill="none" stroke="black" stroke-dasharray="5,2" d="M531.13,-217.58C532.7,-206.6 534.74,-192.31 536.6,-179.31"/>
<polygon fill="black" stroke="black" points="540.08,-179.65 538.03,-169.26 533.16,-178.66 540.08,-179.65"/>
</g>
<!-- nay -->
<g id="node26" class="node">
<title>nay</title>
<text text-anchor="start" x="518" y="-48.8" font-family="Times New Roman,serif" font-weight="bold" font-size="14.00">Modern</text>
<text text-anchor="start" x="519.5" y="-34.8" font-family="Times New Roman,serif" font-weight="bold" font-size="14.00">English</text>
<text text-anchor="start" x="532.5" y="-20.8" font-family="Times New Roman,serif" font-size="14.00" fill="red">nay</text>
</g>
<!-- nayME&#45;&gt;nay -->
<g id="edge25" class="edge">
<title>nayME&#45;&gt;nay</title>
<path fill="none" stroke="black" d="M541.73,-118.88C541.86,-105.46 542.02,-88.51 542.17,-73.69"/>
<polygon fill="black" stroke="black" points="545.67,-73.38 542.27,-63.35 538.67,-73.32 545.67,-73.38"/>
</g>
<!-- aevumL -->
<g id="node28" class="node">
<title>aevumL</title>
<text text-anchor="start" x="831" y="-422.8" font-family="Times New Roman,serif" font-weight="bold" font-size="14.00">Latin</text>
<text text-anchor="start" x="829" y="-408.8" font-family="Times New Roman,serif" font-size="14.00" fill="red">aevum</text>
<text text-anchor="start" x="839.5" y="-396.4" font-family="Times New Roman,serif" font-size="12.00">age</text>
</g>
<!-- aiwo&#45;&gt;aevumL -->
<g id="edge27" class="edge">
<title>aiwo&#45;&gt;aevumL</title>
<path fill="none" stroke="black" d="M763.5,-492C763.5,-492 791.23,-466.25 814.82,-444.34"/>
<polygon fill="black" stroke="black" points="817.35,-446.77 822.3,-437.4 812.59,-441.64 817.35,-446.77"/>
</g>
<!-- aeternusL -->
<g id="node42" class="node">
<title>aeternusL</title>
<text text-anchor="start" x="609" y="-422.8" font-family="Times New Roman,serif" font-weight="bold" font-size="14.00">Latin</text>
<text text-anchor="start" x="602.5" y="-408.8" font-family="Times New Roman,serif" font-size="14.00" fill="red">aeternus</text>
<text text-anchor="start" x="610" y="-396.4" font-family="Times New Roman,serif" font-size="12.00">eternal</text>
</g>
<!-- aiwo&#45;&gt;aeternusL -->
<g id="edge41" class="edge">
<title>aiwo&#45;&gt;aeternusL</title>
<path fill="none" stroke="black" d="M763.5,-492C763.5,-492 706.86,-469.33 665.5,-444 664.86,-443.61 664.22,-443.21 663.58,-442.8"/>
<polygon fill="black" stroke="black" points="665.48,-439.86 655.22,-437.23 661.6,-445.69 665.48,-439.86"/>
</g>
<!-- aetasL -->
<g id="node44" class="node">
<title>aetasL</title>
<text text-anchor="start" x="685" y="-429.8" font-family="Times New Roman,serif" font-weight="bold" font-size="14.00">Latin</text>
<text text-anchor="start" x="687.5" y="-415.8" font-family="Times New Roman,serif" font-size="14.00" fill="red">aetās</text>
<text text-anchor="start" x="686" y="-401.8" font-family="Times New Roman,serif" font-size="14.00" fill="red">aetāt&#45;</text>
<text text-anchor="start" x="693.5" y="-389.4" font-family="Times New Roman,serif" font-size="12.00">age</text>
</g>
<!-- aiwo&#45;&gt;aetasL -->
<g id="edge43" class="edge">
<title>aiwo&#45;&gt;aetasL</title>
<path fill="none" stroke="black" d="M763.5,-492C763.5,-492 747.71,-472.13 732.06,-452.45"/>
<polygon fill="black" stroke="black" points="734.61,-450.03 725.65,-444.38 729.13,-454.39 734.61,-450.03"/>
</g>
<!-- coaevusL -->
<g id="node31" class="node">
<title>coaevusL</title>
<text text-anchor="start" x="884.5" y="-318.3" font-family="Times New Roman,serif" font-size="14.00" fill="red">coaevus</text>
</g>
<!-- aevumL&#45;&gt;coaevusL -->
<g id="edge30" class="edge">
<title>aevumL&#45;&gt;coaevusL</title>
<path fill="none" stroke="black" d="M865.5,-388C865.5,-388 886.98,-362.11 898.06,-348.76"/>
<polygon fill="black" stroke="black" points="900.81,-350.93 904.5,-341 895.42,-346.46 900.81,-350.93"/>
</g>
<!-- mediumaevum -->
<g id="node34" class="node">
<title>mediumaevum</title>
<text text-anchor="start" x="775.5" y="-325.8" font-family="Times New Roman,serif" font-weight="bold" font-size="14.00">New Latin</text>
<text text-anchor="start" x="765" y="-311.8" font-family="Times New Roman,serif" font-size="14.00" fill="red">medium aevum</text>
</g>
<!-- aevumL&#45;&gt;mediumaevum -->
<g id="edge33" class="edge">
<title>aevumL&#45;&gt;mediumaevum</title>
<path fill="none" stroke="black" d="M865.5,-388C865.5,-388 832.09,-360.45 816.43,-347.54"/>
<polygon fill="black" stroke="black" points="818.44,-344.66 808.5,-341 813.99,-350.06 818.44,-344.66"/>
</g>
<!-- primaevusL -->
<g id="node37" class="node">
<title>primaevusL</title>
<text text-anchor="start" x="965" y="-324.8" font-family="Times New Roman,serif" font-size="14.00" fill="red">prīmaevus</text>
<text text-anchor="start" x="970" y="-312.4" font-family="Times New Roman,serif" font-size="12.00">early in life</text>
</g>
<!-- aevumL&#45;&gt;primaevusL -->
<g id="edge36" class="edge">
<title>aevumL&#45;&gt;primaevusL</title>
<path fill="none" stroke="black" d="M865.5,-388C865.5,-388 949.17,-355.77 977.93,-344.69"/>
<polygon fill="black" stroke="black" points="979.43,-347.86 987.5,-341 976.91,-341.33 979.43,-347.86"/>
</g>
<!-- longaevusL -->
<g id="node40" class="node">
<title>longaevusL</title>
<text text-anchor="start" x="1061.5" y="-331.8" font-family="Times New Roman,serif" font-size="14.00" fill="red">longaevus</text>
<text text-anchor="start" x="1073.5" y="-319.4" font-family="Times New Roman,serif" font-size="12.00">ancient</text>
<text text-anchor="start" x="1058.5" y="-305.8" font-family="Times New Roman,serif" font-size="14.00" fill="red">longaevitās</text>
</g>
<!-- aevumL&#45;&gt;longaevusL -->
<g id="edge39" class="edge">
<title>aevumL&#45;&gt;longaevusL</title>
<path fill="none" stroke="black" d="M865.5,-388C865.5,-388 875.33,-384.11 883.5,-382 951.03,-364.58 1034.27,-352.28 1062.56,-348.34"/>
<polygon fill="black" stroke="black" points="1063.06,-351.81 1072.5,-347 1062.12,-344.87 1063.06,-351.81"/>
</g>
<!-- komIE -->
<g id="node29" class="node">
<title>komIE</title>
<g id="a_node29"><a xlink:href="kom-with.svg" xlink:title="&lt;b&gt;Indo&#45;&lt;br/&gt;European&lt;/b&gt;&lt;br/&gt;&lt;font color=&quot;red&quot;&gt;kom&lt;/font&gt;&lt;br/&gt;&lt;font point&#45;size=&quot;12&quot;&gt;beside, near, with&lt;/font&gt;">
<path fill="none" stroke="black" stroke-dasharray="5,2" d="M967.5,-542C967.5,-542 895.5,-542 895.5,-542 889.5,-542 883.5,-536 883.5,-530 883.5,-530 883.5,-492 883.5,-492 883.5,-486 889.5,-480 895.5,-480 895.5,-480 967.5,-480 967.5,-480 973.5,-480 979.5,-486 979.5,-492 979.5,-492 979.5,-530 979.5,-530 979.5,-536 973.5,-542 967.5,-542"/>
<text text-anchor="start" x="915" y="-527.8" font-family="Times New Roman,serif" font-weight="bold" font-size="14.00">Indo&#45;</text>
<text text-anchor="start" x="901" y="-513.8" font-family="Times New Roman,serif" font-weight="bold" font-size="14.00">European</text>
<text text-anchor="start" x="919" y="-499.8" font-family="Times New Roman,serif" font-size="14.00" fill="red">kom</text>
<text text-anchor="start" x="891.5" y="-487.4" font-family="Times New Roman,serif" font-size="12.00">beside, near, with</text>
</a>
</g>
</g>
<!-- comL -->
<g id="node30" class="node">
<title>comL</title>
<text text-anchor="start" x="915" y="-422.8" font-family="Times New Roman,serif" font-weight="bold" font-size="14.00">Latin</text>
<text text-anchor="start" x="903.5" y="-408.8" font-family="Times New Roman,serif" font-size="14.00" fill="red">com&#45;, co&#45;</text>
<text text-anchor="start" x="900.5" y="-396.4" font-family="Times New Roman,serif" font-size="12.00">with, together</text>
</g>
<!-- komIE&#45;&gt;comL -->
<g id="edge28" class="edge">
<title>komIE&#45;&gt;comL</title>
<path fill="none" stroke="black" d="M931.5,-479.89C931.5,-469.58 931.5,-457.98 931.5,-447.43"/>
<polygon fill="black" stroke="black" points="935,-447.3 931.5,-437.3 928,-447.3 935,-447.3"/>
</g>
<!-- comL&#45;&gt;coaevusL -->
<g id="edge29" class="edge">
<title>comL&#45;&gt;coaevusL</title>
<path fill="none" stroke="black" d="M922.66,-388.75C917.74,-375.81 911.87,-360.39 908.17,-350.65"/>
<polygon fill="black" stroke="black" points="911.33,-349.1 904.5,-341 904.78,-351.59 911.33,-349.1"/>
</g>
<!-- coeval -->
<g id="node32" class="node">
<title>coeval</title>
<text text-anchor="start" x="883" y="-48.8" font-family="Times New Roman,serif" font-weight="bold" font-size="14.00">Modern</text>
<text text-anchor="start" x="884.5" y="-34.8" font-family="Times New Roman,serif" font-weight="bold" font-size="14.00">English</text>
<text text-anchor="start" x="889" y="-20.8" font-family="Times New Roman,serif" font-size="14.00" fill="red">coeval</text>
</g>
<!-- coaevusL&#45;&gt;coeval -->
<g id="edge31" class="edge">
<title>coaevusL&#45;&gt;coeval</title>
<path fill="none" stroke="black" stroke-dasharray="5,2" d="M907.5,-303.78C907.5,-258.32 907.5,-134.39 907.5,-73.58"/>
<polygon fill="black" stroke="black" points="911,-73.34 907.5,-63.34 904,-73.34 911,-73.34"/>
</g>
<!-- mediusL -->
<g id="node33" class="node">
<title>mediusL</title>
<g id="a_node33"><a xlink:href="medhyo-middle2.svg" xlink:title="&lt;b&gt;Latin&lt;/b&gt;&lt;br/&gt;&lt;font color=&quot;red&quot;&gt;medius&lt;/font&gt;&lt;br/&gt;&lt;font point&#45;size=&quot;12&quot;&gt;middle&lt;/font&gt;">
<path fill="none" stroke="black" stroke-dasharray="5,2" d="M790.5,-437C790.5,-437 758.5,-437 758.5,-437 752.5,-437 746.5,-431 746.5,-425 746.5,-425 746.5,-401 746.5,-401 746.5,-395 752.5,-389 758.5,-389 758.5,-389 790.5,-389 790.5,-389 796.5,-389 802.5,-395 802.5,-401 802.5,-401 802.5,-425 802.5,-425 802.5,-431 796.5,-437 790.5,-437"/>
<text text-anchor="start" x="758" y="-422.8" font-family="Times New Roman,serif" font-weight="bold" font-size="14.00">Latin</text>
<text text-anchor="start" x="754.5" y="-408.8" font-family="Times New Roman,serif" font-size="14.00" fill="red">medius</text>
<text text-anchor="start" x="759" y="-396.4" font-family="Times New Roman,serif" font-size="12.00">middle</text>
</a>
</g>
</g>
<!-- mediusL&#45;&gt;mediumaevum -->
<g id="edge32" class="edge">
<title>mediusL&#45;&gt;mediumaevum</title>
<path fill="none" stroke="black" d="M785.63,-388.75C791.91,-375.65 799.4,-360.01 804.05,-350.29"/>
<polygon fill="black" stroke="black" points="807.34,-351.53 808.5,-341 801.02,-348.51 807.34,-351.53"/>
</g>
<!-- medieval -->
<g id="node35" class="node">
<title>medieval</title>
<text text-anchor="start" x="783" y="-55.8" font-family="Times New Roman,serif" font-weight="bold" font-size="14.00">Modern</text>
<text text-anchor="start" x="784.5" y="-41.8" font-family="Times New Roman,serif" font-weight="bold" font-size="14.00">English</text>
<text text-anchor="start" x="778" y="-27.8" font-family="Times New Roman,serif" font-size="14.00" fill="red">mediaeval,</text>
<text text-anchor="start" x="783" y="-13.8" font-family="Times New Roman,serif" font-size="14.00" fill="red">medieval</text>
</g>
<!-- mediumaevum&#45;&gt;medieval -->
<g id="edge34" class="edge">
<title>mediumaevum&#45;&gt;medieval</title>
<path fill="none" stroke="black" stroke-dasharray="5,2" d="M807.5,-303.78C807.5,-260.04 807.5,-143.62 807.5,-80.72"/>
<polygon fill="black" stroke="black" points="811,-80.37 807.5,-70.37 804,-80.37 811,-80.37"/>
</g>
<!-- primusL -->
<g id="node36" class="node">
<title>primusL</title>
<text text-anchor="start" x="1000" y="-422.8" font-family="Times New Roman,serif" font-weight="bold" font-size="14.00">Latin</text>
<text text-anchor="start" x="996.5" y="-408.8" font-family="Times New Roman,serif" font-size="14.00" fill="red">prīmus</text>
<text text-anchor="start" x="1008" y="-396.4" font-family="Times New Roman,serif" font-size="12.00">first</text>
</g>
<!-- primusL&#45;&gt;primaevusL -->
<g id="edge35" class="edge">
<title>primusL&#45;&gt;primaevusL</title>
<path fill="none" stroke="black" d="M1007,-388.75C1001.65,-375.65 995.26,-360.01 991.29,-350.29"/>
<polygon fill="black" stroke="black" points="994.52,-348.93 987.5,-341 988.04,-351.58 994.52,-348.93"/>
</g>
<!-- primeval -->
<g id="node38" class="node">
<title>primeval</title>
<text text-anchor="start" x="970" y="-48.8" font-family="Times New Roman,serif" font-weight="bold" font-size="14.00">Modern</text>
<text text-anchor="start" x="971.5" y="-34.8" font-family="Times New Roman,serif" font-weight="bold" font-size="14.00">English</text>
<text text-anchor="start" x="970.5" y="-20.8" font-family="Times New Roman,serif" font-size="14.00" fill="red">primeval</text>
</g>
<!-- primaevusL&#45;&gt;primeval -->
<g id="edge37" class="edge">
<title>primaevusL&#45;&gt;primeval</title>
<path fill="none" stroke="black" stroke-dasharray="5,2" d="M994.5,-303.78C994.5,-258.32 994.5,-134.39 994.5,-73.58"/>
<polygon fill="black" stroke="black" points="998,-73.34 994.5,-63.34 991,-73.34 998,-73.34"/>
</g>
<!-- longusL -->
<g id="node39" class="node">
<title>longusL</title>
<text text-anchor="start" x="1073" y="-422.8" font-family="Times New Roman,serif" font-weight="bold" font-size="14.00">Latin</text>
<text text-anchor="start" x="1071" y="-408.8" font-family="Times New Roman,serif" font-size="14.00" fill="red">longus</text>
<text text-anchor="start" x="1080" y="-396.4" font-family="Times New Roman,serif" font-size="12.00">long</text>
</g>
<!-- longusL&#45;&gt;longaevusL -->
<g id="edge38" class="edge">
<title>longusL&#45;&gt;longaevusL</title>
<path fill="none" stroke="black" d="M1083.46,-388.9C1080.6,-377.95 1077.33,-365.45 1075.11,-356.97"/>
<polygon fill="black" stroke="black" points="1078.42,-355.79 1072.5,-347 1071.64,-357.56 1078.42,-355.79"/>
</g>
<!-- longevity -->
<g id="node41" class="node">
<title>longevity</title>
<text text-anchor="start" x="1065" y="-48.8" font-family="Times New Roman,serif" font-weight="bold" font-size="14.00">Modern</text>
<text text-anchor="start" x="1066.5" y="-34.8" font-family="Times New Roman,serif" font-weight="bold" font-size="14.00">English</text>
<text text-anchor="start" x="1064" y="-20.8" font-family="Times New Roman,serif" font-size="14.00" fill="red">longevity</text>
</g>
<!-- longaevusL&#45;&gt;longevity -->
<g id="edge40" class="edge">
<title>longaevusL&#45;&gt;longevity</title>
<path fill="none" stroke="black" stroke-dasharray="5,2" d="M1089.5,-297.92C1089.5,-248.39 1089.5,-131.66 1089.5,-73.37"/>
<polygon fill="black" stroke="black" points="1093,-73.2 1089.5,-63.2 1086,-73.2 1093,-73.2"/>
</g>
<!-- eternal -->
<g id="node43" class="node">
<title>eternal</title>
<text text-anchor="start" x="601" y="-55.8" font-family="Times New Roman,serif" font-weight="bold" font-size="14.00">Modern</text>
<text text-anchor="start" x="602.5" y="-41.8" font-family="Times New Roman,serif" font-weight="bold" font-size="14.00">English</text>
<text text-anchor="start" x="607" y="-27.8" font-family="Times New Roman,serif" font-size="14.00" fill="red">eternal</text>
<text text-anchor="start" x="605" y="-13.8" font-family="Times New Roman,serif" font-size="14.00" fill="red">eternity</text>
</g>
<!-- aeternusL&#45;&gt;eternal -->
<g id="edge42" class="edge">
<title>aeternusL&#45;&gt;eternal</title>
<path fill="none" stroke="black" stroke-dasharray="5,2" d="M625.5,-388.95C625.5,-327.39 625.5,-158.48 625.5,-80.04"/>
<polygon fill="black" stroke="black" points="629,-80.03 625.5,-70.03 622,-80.03 629,-80.03"/>
</g>
<!-- aetaticum -->
<g id="node45" class="node">
<title>aetaticum</title>
<text text-anchor="start" x="670.5" y="-318.3" font-family="Times New Roman,serif" font-size="14.00" fill="red">*aetāticum</text>
</g>
<!-- aetasL&#45;&gt;aetaticum -->
<g id="edge44" class="edge">
<title>aetasL&#45;&gt;aetaticum</title>
<path fill="none" stroke="black" d="M701.16,-381.87C701.05,-371.65 700.92,-360.29 700.81,-350.3"/>
<polygon fill="black" stroke="black" points="704.3,-350.08 700.69,-340.12 697.31,-350.16 704.3,-350.08"/>
</g>
<!-- aageOF -->
<g id="node46" class="node">
<title>aageOF</title>
<text text-anchor="start" x="667.5" y="-240.8" font-family="Times New Roman,serif" font-weight="bold" font-size="14.00">Old French</text>
<text text-anchor="start" x="690" y="-226.8" font-family="Times New Roman,serif" font-size="14.00" fill="red">aage</text>
</g>
<!-- aetaticum&#45;&gt;aageOF -->
<g id="edge45" class="edge">
<title>aetaticum&#45;&gt;aageOF</title>
<path fill="none" stroke="black" d="M700.91,-303.8C701.18,-292.67 701.54,-277.94 701.84,-265.24"/>
<polygon fill="black" stroke="black" points="705.34,-265.26 702.09,-255.18 698.35,-265.09 705.34,-265.26"/>
</g>
<!-- ageME -->
<g id="node47" class="node">
<title>ageME</title>
<text text-anchor="start" x="685" y="-154.8" font-family="Times New Roman,serif" font-weight="bold" font-size="14.00">Middle</text>
<text text-anchor="start" x="683.5" y="-140.8" font-family="Times New Roman,serif" font-weight="bold" font-size="14.00">English</text>
<text text-anchor="start" x="697" y="-126.8" font-family="Times New Roman,serif" font-size="14.00" fill="red">age</text>
</g>
<!-- aageOF&#45;&gt;ageME -->
<g id="edge46" class="edge">
<title>aageOF&#45;&gt;ageME</title>
<path fill="none" stroke="black" stroke-dasharray="5,2" d="M703.25,-218.88C703.74,-207.83 704.39,-193.06 704.98,-179.64"/>
<polygon fill="black" stroke="black" points="708.49,-179.4 705.43,-169.25 701.5,-179.09 708.49,-179.4"/>
</g>
<!-- age -->
<g id="node48" class="node">
<title>age</title>
<text text-anchor="start" x="684" y="-48.8" font-family="Times New Roman,serif" font-weight="bold" font-size="14.00">Modern</text>
<text text-anchor="start" x="685.5" y="-34.8" font-family="Times New Roman,serif" font-weight="bold" font-size="14.00">English</text>
<text text-anchor="start" x="699" y="-20.8" font-family="Times New Roman,serif" font-size="14.00" fill="red">age</text>
</g>
<!-- ageME&#45;&gt;age -->
<g id="edge47" class="edge">
<title>ageME&#45;&gt;age</title>
<path fill="none" stroke="black" d="M706.96,-118.88C707.22,-105.46 707.55,-88.51 707.83,-73.69"/>
<polygon fill="black" stroke="black" points="711.34,-73.42 708.03,-63.35 704.34,-73.28 711.34,-73.42"/>
</g>
<!-- aionG -->
<g id="node50" class="node">
<title>aionG</title>
<text text-anchor="start" x="1156.5" y="-422.8" font-family="Times New Roman,serif" font-weight="bold" font-size="14.00">Greek</text>
<text text-anchor="start" x="1164.5" y="-408.8" font-family="Times New Roman,serif" font-size="14.00" fill="red">aiōn</text>
<text text-anchor="start" x="1143" y="-396.4" font-family="Times New Roman,serif" font-size="12.00">age, vital force</text>
</g>
<!-- aiwen&#45;&gt;aionG -->
<g id="edge49" class="edge">
<title>aiwen&#45;&gt;aionG</title>
<path fill="none" stroke="black" d="M1114.91,-492.84C1125.24,-479.61 1139.81,-460.97 1152.18,-445.13"/>
<polygon fill="black" stroke="black" points="1155.02,-447.18 1158.42,-437.15 1149.5,-442.87 1155.02,-447.18"/>
</g>
<!-- aeonL -->
<g id="node51" class="node">
<title>aeonL</title>
<text text-anchor="start" x="1160" y="-325.8" font-family="Times New Roman,serif" font-weight="bold" font-size="14.00">Latin</text>
<text text-anchor="start" x="1163" y="-311.8" font-family="Times New Roman,serif" font-size="14.00" fill="red">aeōn</text>
</g>
<!-- aionG&#45;&gt;aeonL -->
<g id="edge50" class="edge">
<title>aionG&#45;&gt;aeonL</title>
<path fill="none" stroke="black" stroke-dasharray="5,2" d="M1176.5,-388.62C1176.5,-376.83 1176.5,-362.46 1176.5,-350.18"/>
<polygon fill="black" stroke="black" points="1180,-350.04 1176.5,-340.04 1173,-350.04 1180,-350.04"/>
</g>
<!-- eon -->
<g id="node52" class="node">
<title>eon</title>
<text text-anchor="start" x="1152" y="-48.8" font-family="Times New Roman,serif" font-weight="bold" font-size="14.00">Modern</text>
<text text-anchor="start" x="1153.5" y="-34.8" font-family="Times New Roman,serif" font-weight="bold" font-size="14.00">English</text>
<text text-anchor="start" x="1149" y="-20.8" font-family="Times New Roman,serif" font-size="14.00" fill="red">eon, aeon</text>
</g>
<!-- aeonL&#45;&gt;eon -->
<g id="edge51" class="edge">
<title>aeonL&#45;&gt;eon</title>
<path fill="none" stroke="black" stroke-dasharray="5,2" d="M1176.5,-303.78C1176.5,-258.32 1176.5,-134.39 1176.5,-73.58"/>
<polygon fill="black" stroke="black" points="1180,-73.34 1176.5,-63.34 1173,-73.34 1180,-73.34"/>
</g>
<!-- oyus -->
<g id="node56" class="node">
<title>oyus</title>
<text text-anchor="start" x="1205" y="-507.3" font-family="Times New Roman,serif" font-size="14.00" fill="red">oyu&#45;s&#45;</text>
</g>
<!-- oyu&#45;&gt;oyus -->
<g id="edge54" class="edge">
<title>oyu&#45;&gt;oyus</title>
<path fill="none" stroke="black" d="M1138.67,-577.8C1154.45,-565.56 1175.85,-548.96 1193.2,-535.5"/>
<polygon fill="black" stroke="black" points="1195.6,-538.07 1201.36,-529.18 1191.31,-532.54 1195.6,-538.07"/>
</g>
<!-- weidIE -->
<g id="node54" class="node">
<title>weidIE</title>
<g id="a_node54"><a xlink:href="weid-see.svg" xlink:title="&lt;b&gt;Indo&#45;&lt;br/&gt;European&lt;/b&gt;&lt;br/&gt;&lt;font color=&quot;red&quot;&gt;weid&#45;&lt;/font&gt;&lt;br/&gt;&lt;font point&#45;size=&quot;12&quot;&gt;to see&lt;/font&gt;">
<path fill="none" stroke="black" stroke-dasharray="5,2" d="M1383,-542C1383,-542 1330,-542 1330,-542 1324,-542 1318,-536 1318,-530 1318,-530 1318,-492 1318,-492 1318,-486 1324,-480 1330,-480 1330,-480 1383,-480 1383,-480 1389,-480 1395,-486 1395,-492 1395,-492 1395,-530 1395,-530 1395,-536 1389,-542 1383,-542"/>
<text text-anchor="start" x="1340" y="-527.8" font-family="Times New Roman,serif" font-weight="bold" font-size="14.00">Indo&#45;</text>
<text text-anchor="start" x="1326" y="-513.8" font-family="Times New Roman,serif" font-weight="bold" font-size="14.00">European</text>
<text text-anchor="start" x="1341" y="-499.8" font-family="Times New Roman,serif" font-size="14.00" fill="red">weid&#45;</text>
<text text-anchor="start" x="1342.5" y="-487.4" font-family="Times New Roman,serif" font-size="12.00">to see</text>
</a>
</g>
</g>
<!-- vedahS -->
<g id="node55" class="node">
<title>vedahS</title>
<text text-anchor="start" x="1330.5" y="-422.8" font-family="Times New Roman,serif" font-weight="bold" font-size="14.00">Sanskrit</text>
<text text-anchor="start" x="1339.5" y="-408.8" font-family="Times New Roman,serif" font-size="14.00" fill="red">vedaḥ</text>
<text text-anchor="start" x="1331.5" y="-396.4" font-family="Times New Roman,serif" font-size="12.00">knowledge</text>
</g>
<!-- weidIE&#45;&gt;vedahS -->
<g id="edge53" class="edge">
<title>weidIE&#45;&gt;vedahS</title>
<path fill="none" stroke="black" d="M1356.5,-479.89C1356.5,-469.58 1356.5,-457.98 1356.5,-447.43"/>
<polygon fill="black" stroke="black" points="1360,-447.3 1356.5,-437.3 1353,-447.3 1360,-447.3"/>
</g>
<!-- ayurvedahS -->
<g id="node58" class="node">
<title>ayurvedahS</title>
<text text-anchor="start" x="1283" y="-318.3" font-family="Times New Roman,serif" font-size="14.00" fill="red">Āyurvedaḥ</text>
</g>
<!-- vedahS&#45;&gt;ayurvedahS -->
<g id="edge56" class="edge">
<title>vedahS&#45;&gt;ayurvedahS</title>
<path fill="none" stroke="black" d="M1342.42,-388.75C1334.29,-375.33 1324.54,-359.23 1318.69,-349.58"/>
<polygon fill="black" stroke="black" points="1321.67,-347.74 1313.5,-341 1315.69,-351.37 1321.67,-347.74"/>
</g>
<!-- ayuhS -->
<g id="node57" class="node">
<title>ayuhS</title>
<text text-anchor="start" x="1244.5" y="-422.8" font-family="Times New Roman,serif" font-weight="bold" font-size="14.00">Sanskrit</text>
<text text-anchor="start" x="1257" y="-408.8" font-family="Times New Roman,serif" font-size="14.00" fill="red">āyuḥ</text>
<text text-anchor="start" x="1247.5" y="-396.4" font-family="Times New Roman,serif" font-size="12.00">life, health</text>
</g>
<!-- oyus&#45;&gt;ayuhS -->
<g id="edge55" class="edge">
<title>oyus&#45;&gt;ayuhS</title>
<path fill="none" stroke="black" d="M1231.9,-492.84C1238.2,-479.97 1247.01,-461.99 1254.62,-446.44"/>
<polygon fill="black" stroke="black" points="1257.91,-447.67 1259.17,-437.15 1251.63,-444.59 1257.91,-447.67"/>
</g>
<!-- ayuhS&#45;&gt;vedahS -->
<!-- ayuhS&#45;&gt;ayurvedahS -->
<g id="edge57" class="edge">
<title>ayuhS&#45;&gt;ayurvedahS</title>
<path fill="none" stroke="black" d="M1284.58,-388.75C1292.71,-375.33 1302.46,-359.23 1308.31,-349.58"/>
<polygon fill="black" stroke="black" points="1311.31,-351.37 1313.5,-341 1305.33,-347.74 1311.31,-351.37"/>
</g>
<!-- ayurveda -->
<g id="node59" class="node">
<title>ayurveda</title>
<text text-anchor="start" x="1289" y="-48.8" font-family="Times New Roman,serif" font-weight="bold" font-size="14.00">Modern</text>
<text text-anchor="start" x="1290.5" y="-34.8" font-family="Times New Roman,serif" font-weight="bold" font-size="14.00">English</text>
<text text-anchor="start" x="1286" y="-20.8" font-family="Times New Roman,serif" font-size="14.00" fill="red">Ayurveda</text>
</g>
<!-- ayurvedahS&#45;&gt;ayurveda -->
<g id="edge58" class="edge">
<title>ayurvedahS&#45;&gt;ayurveda</title>
<path fill="none" stroke="black" stroke-dasharray="5,2" d="M1313.5,-303.78C1313.5,-258.32 1313.5,-134.39 1313.5,-73.58"/>
<polygon fill="black" stroke="black" points="1317,-73.34 1313.5,-63.34 1310,-73.34 1317,-73.34"/>
</g>
</g>
</svg>
