<?xml version="1.0" encoding="UTF-8" standalone="no"?>
<!DOCTYPE svg PUBLIC "-//W3C//DTD SVG 1.1//EN"
 "http://www.w3.org/Graphics/SVG/1.1/DTD/svg11.dtd">
<!-- Generated by graphviz version 2.49.0 (20210828.1703)
 -->
<!-- Pages: 1 -->
<svg width="1195pt" height="648pt"
 viewBox="0.00 0.00 1194.50 648.00" xmlns="http://www.w3.org/2000/svg" xmlns:xlink="http://www.w3.org/1999/xlink">
<g id="graph0" class="graph" transform="scale(1 1) rotate(0) translate(4 644)">
<polygon fill="white" stroke="transparent" points="-4,4 -4,-644 1190.5,-644 1190.5,4 -4,4"/>
<!-- aiwIE -->
<g id="node1" class="node">
<title>aiwIE</title>
<g id="a_node1"><a xlink:href="aiw-life0.svg" xlink:title="Indo&#45;European &quot;*aiw&#45;, *ayu&#45;&quot; vital force, life, eternity">
<polygon fill="none" stroke="black" stroke-dasharray="5,2" points="940,-640 644,-640 644,-536 940,-536 940,-640"/>
<text text-anchor="start" x="713.5" y="-595.8" font-family="Times New Roman,serif" font-weight="bold" font-size="24.00">Indo&#45;European</text>
<text text-anchor="start" x="670" y="-567.6" font-family="Times New Roman,serif" font-size="18.00" fill="red">*aiw&#45;, *ayu&#45;</text>
<text text-anchor="start" x="767" y="-568.2" font-family="Times New Roman,serif" font-size="16.00">vital force, life, eternity</text>
</a>
</g>
</g>
<!-- aiwoIE -->
<g id="node4" class="node">
<title>aiwoIE</title>
<text text-anchor="start" x="114" y="-459.3" font-family="Times New Roman,serif" font-size="14.00" fill="red">aiw&#45;o&#45;</text>
</g>
<!-- aiwIE&#45;&gt;aiwoIE -->
<g id="edge2" class="edge">
<title>aiwIE&#45;&gt;aiwoIE</title>
<path fill="none" stroke="black" d="M643.92,-577.22C486.44,-564.92 249.09,-540.37 168,-500 162.18,-497.1 156.74,-492.9 151.93,-488.39"/>
<polygon fill="black" stroke="black" points="154.42,-485.92 144.95,-481.17 149.39,-490.79 154.42,-485.92"/>
</g>
<!-- aiwenIE -->
<g id="node33" class="node">
<title>aiwenIE</title>
<text text-anchor="start" x="809.5" y="-459.3" font-family="Times New Roman,serif" font-size="14.00" fill="red">aiw&#45;en&#45;</text>
</g>
<!-- aiwIE&#45;&gt;aiwenIE -->
<g id="edge33" class="edge">
<title>aiwIE&#45;&gt;aiwenIE</title>
<path fill="none" stroke="black" d="M807.79,-535.91C812.55,-520.49 817.59,-504.17 821.66,-490.99"/>
<polygon fill="black" stroke="black" points="825.09,-491.75 824.7,-481.16 818.4,-489.68 825.09,-491.75"/>
</g>
<!-- yuIE -->
<g id="node37" class="node">
<title>yuIE</title>
<text text-anchor="start" x="718" y="-459.3" font-family="Times New Roman,serif" font-size="14.00" fill="red">əyu&#45;, yu&#45;</text>
</g>
<!-- aiwIE&#45;&gt;yuIE -->
<g id="edge37" class="edge">
<title>aiwIE&#45;&gt;yuIE</title>
<path fill="none" stroke="black" d="M771.65,-535.91C765.44,-520.34 758.88,-503.85 753.6,-490.6"/>
<polygon fill="black" stroke="black" points="756.79,-489.16 749.84,-481.16 750.29,-491.75 756.79,-489.16"/>
</g>
<!-- oyuIE -->
<g id="node44" class="node">
<title>oyuIE</title>
<text text-anchor="start" x="937" y="-459.3" font-family="Times New Roman,serif" font-size="14.00" fill="red">oyu&#45;</text>
</g>
<!-- aiwIE&#45;&gt;oyuIE -->
<g id="edge45" class="edge">
<title>aiwIE&#45;&gt;oyuIE</title>
<path fill="none" stroke="black" d="M857.63,-535.91C879.2,-519.12 902.14,-501.26 919.76,-487.54"/>
<polygon fill="black" stroke="black" points="922.21,-490.07 927.95,-481.16 917.91,-484.54 922.21,-490.07"/>
</g>
<!-- komIE -->
<g id="node2" class="node">
<title>komIE</title>
<g id="a_node2"><a xlink:href="kom-with.svg" xlink:title="&lt;b&gt;Indo&#45;&lt;br/&gt;European&lt;/b&gt;&lt;br/&gt;&lt;font color=&quot;red&quot;&gt;*kom&lt;/font&gt;&lt;br/&gt;&lt;font point&#45;size=&quot;12&quot;&gt;beside, near,&lt;br/&gt;by, with&lt;/font&gt;">
<path fill="none" stroke="black" stroke-dasharray="5,2" d="M432.5,-500C432.5,-500 379.5,-500 379.5,-500 373.5,-500 367.5,-494 367.5,-488 367.5,-488 367.5,-438 367.5,-438 367.5,-432 373.5,-426 379.5,-426 379.5,-426 432.5,-426 432.5,-426 438.5,-426 444.5,-432 444.5,-438 444.5,-438 444.5,-488 444.5,-488 444.5,-494 438.5,-500 432.5,-500"/>
<text text-anchor="start" x="389.5" y="-485.8" font-family="Times New Roman,serif" font-weight="bold" font-size="14.00">Indo&#45;</text>
<text text-anchor="start" x="375.5" y="-471.8" font-family="Times New Roman,serif" font-weight="bold" font-size="14.00">European</text>
<text text-anchor="start" x="390" y="-457.8" font-family="Times New Roman,serif" font-size="14.00" fill="red">*kom</text>
<text text-anchor="start" x="377" y="-445.4" font-family="Times New Roman,serif" font-size="12.00">beside, near,</text>
<text text-anchor="start" x="387.5" y="-433.4" font-family="Times New Roman,serif" font-size="12.00">by, with</text>
</a>
</g>
</g>
<!-- coL -->
<g id="node3" class="node">
<title>coL</title>
<text text-anchor="start" x="379.5" y="-375.8" font-family="Times New Roman,serif" font-weight="bold" font-size="14.00">Latin</text>
<text text-anchor="start" x="368" y="-361.8" font-family="Times New Roman,serif" font-size="14.00" fill="red">com&#45;, co&#45;</text>
<text text-anchor="start" x="365" y="-349.4" font-family="Times New Roman,serif" font-size="12.00">together, with</text>
</g>
<!-- komIE&#45;&gt;coL -->
<g id="edge1" class="edge">
<title>komIE&#45;&gt;coL</title>
<path fill="none" stroke="black" d="M402.19,-425.81C401.31,-417.41 400.37,-408.5 399.5,-400.23"/>
<polygon fill="black" stroke="black" points="402.97,-399.76 398.44,-390.18 396.01,-400.49 402.97,-399.76"/>
</g>
<!-- coaevusL -->
<g id="node6" class="node">
<title>coaevusL</title>
<text text-anchor="start" x="376" y="-278.3" font-family="Times New Roman,serif" font-size="14.00" fill="red">coaevus</text>
</g>
<!-- coL&#45;&gt;coaevusL -->
<g id="edge4" class="edge">
<title>coL&#45;&gt;coaevusL</title>
<path fill="none" stroke="black" d="M396.85,-341.72C397.21,-331.88 397.63,-320.36 398.01,-310.13"/>
<polygon fill="black" stroke="black" points="401.51,-310.2 398.38,-300.08 394.51,-309.94 401.51,-310.2"/>
</g>
<!-- aevumL -->
<g id="node5" class="node">
<title>aevumL</title>
<text text-anchor="start" x="463.5" y="-375.8" font-family="Times New Roman,serif" font-weight="bold" font-size="14.00">Latin</text>
<text text-anchor="start" x="461.5" y="-361.8" font-family="Times New Roman,serif" font-size="14.00" fill="red">aevum</text>
<text text-anchor="start" x="472" y="-349.4" font-family="Times New Roman,serif" font-size="12.00">age</text>
</g>
<!-- aiwoIE&#45;&gt;aevumL -->
<g id="edge3" class="edge">
<title>aiwoIE&#45;&gt;aevumL</title>
<path fill="none" stroke="black" d="M144.93,-444.79C151.12,-437.81 159.12,-430.37 168,-426 276.05,-372.79 325.14,-429.18 443,-389.55"/>
<polygon fill="black" stroke="black" points="444.46,-392.74 452.73,-386.11 442.13,-386.14 444.46,-392.74"/>
</g>
<!-- aeternusL -->
<g id="node21" class="node">
<title>aeternusL</title>
<text text-anchor="start" x="116.5" y="-375.8" font-family="Times New Roman,serif" font-weight="bold" font-size="14.00">Latin</text>
<text text-anchor="start" x="110" y="-361.8" font-family="Times New Roman,serif" font-size="14.00" fill="red">aeternus</text>
<text text-anchor="start" x="117.5" y="-349.4" font-family="Times New Roman,serif" font-size="12.00">eternal</text>
</g>
<!-- aiwoIE&#45;&gt;aeternusL -->
<g id="edge20" class="edge">
<title>aiwoIE&#45;&gt;aeternusL</title>
<path fill="none" stroke="black" d="M132.18,-444.58C132.31,-432.25 132.49,-415.33 132.65,-400.44"/>
<polygon fill="black" stroke="black" points="136.15,-400.08 132.76,-390.05 129.15,-400.01 136.15,-400.08"/>
</g>
<!-- aetasL -->
<g id="node28" class="node">
<title>aetasL</title>
<text text-anchor="start" x="26.5" y="-375.8" font-family="Times New Roman,serif" font-weight="bold" font-size="14.00">Latin</text>
<text text-anchor="start" x="10" y="-361.8" font-family="Times New Roman,serif" font-size="14.00" fill="red">aetās, aetāt&#45;</text>
<text text-anchor="start" x="35" y="-349.4" font-family="Times New Roman,serif" font-size="12.00">age</text>
</g>
<!-- aiwoIE&#45;&gt;aetasL -->
<g id="edge28" class="edge">
<title>aiwoIE&#45;&gt;aetasL</title>
<path fill="none" stroke="black" d="M115.68,-444.58C103.34,-431.41 86.1,-413.01 71.51,-397.43"/>
<polygon fill="black" stroke="black" points="73.98,-394.95 64.59,-390.05 68.87,-399.74 73.98,-394.95"/>
</g>
<!-- aevumL&#45;&gt;coaevusL -->
<g id="edge5" class="edge">
<title>aevumL&#45;&gt;coaevusL</title>
<path fill="none" stroke="black" d="M457.01,-341.72C446.36,-330.95 433.73,-318.16 422.97,-307.27"/>
<polygon fill="black" stroke="black" points="425.39,-304.73 415.87,-300.08 420.41,-309.65 425.39,-304.73"/>
</g>
<!-- mediumaevumL -->
<g id="node10" class="node">
<title>mediumaevumL</title>
<text text-anchor="start" x="456.5" y="-278.3" font-family="Times New Roman,serif" font-size="14.00" fill="red">medium aevum</text>
</g>
<!-- aevumL&#45;&gt;mediumaevumL -->
<g id="edge8" class="edge">
<title>aevumL&#45;&gt;mediumaevumL</title>
<path fill="none" stroke="black" d="M485.39,-341.72C487.67,-331.88 490.34,-320.36 492.71,-310.13"/>
<polygon fill="black" stroke="black" points="496.2,-310.61 495.04,-300.08 489.38,-309.03 496.2,-310.61"/>
</g>
<!-- primaevusL -->
<g id="node14" class="node">
<title>primaevusL</title>
<text text-anchor="start" x="282.5" y="-284.8" font-family="Times New Roman,serif" font-size="14.00" fill="red">prīmaevus</text>
<text text-anchor="start" x="287.5" y="-272.4" font-family="Times New Roman,serif" font-size="12.00">early in life</text>
</g>
<!-- aevumL&#45;&gt;primaevusL -->
<g id="edge12" class="edge">
<title>aevumL&#45;&gt;primaevusL</title>
<path fill="none" stroke="black" d="M452.77,-346.93C449.85,-345.2 446.89,-343.52 444,-342 407.7,-322.89 396.33,-323.02 359,-306 357.84,-305.47 356.66,-304.93 355.48,-304.38"/>
<polygon fill="black" stroke="black" points="356.83,-301.15 346.29,-300.05 353.85,-307.48 356.83,-301.15"/>
</g>
<!-- longaevusL -->
<g id="node18" class="node">
<title>longaevusL</title>
<text text-anchor="start" x="576" y="-284.8" font-family="Times New Roman,serif" font-size="14.00" fill="red">longaevus</text>
<text text-anchor="start" x="588" y="-272.4" font-family="Times New Roman,serif" font-size="12.00">ancient</text>
</g>
<!-- aevumL&#45;&gt;longaevusL -->
<g id="edge16" class="edge">
<title>aevumL&#45;&gt;longaevusL</title>
<path fill="none" stroke="black" d="M507.21,-347C525.59,-334.85 550.01,-318.7 569.72,-305.67"/>
<polygon fill="black" stroke="black" points="571.71,-308.55 578.12,-300.11 567.85,-302.71 571.71,-308.55"/>
</g>
<!-- coeval -->
<g id="node7" class="node">
<title>coeval</title>
<text text-anchor="start" x="374.5" y="-42.8" font-family="Times New Roman,serif" font-weight="bold" font-size="14.00">Modern</text>
<text text-anchor="start" x="376" y="-28.8" font-family="Times New Roman,serif" font-weight="bold" font-size="14.00">English</text>
<text text-anchor="start" x="380.5" y="-14.8" font-family="Times New Roman,serif" font-size="14.00" fill="red">coeval</text>
</g>
<!-- coaevusL&#45;&gt;coeval -->
<g id="edge6" class="edge">
<title>coaevusL&#45;&gt;coeval</title>
<path fill="none" stroke="black" stroke-dasharray="5,2" d="M399,-263.95C399,-223.53 399,-121.23 399,-67.37"/>
<polygon fill="black" stroke="black" points="402.5,-67.28 399,-57.28 395.5,-67.28 402.5,-67.28"/>
</g>
<!-- medhyoIE -->
<g id="node8" class="node">
<title>medhyoIE</title>
<g id="a_node8"><a xlink:href="medhyo-middle2.svg" xlink:title="&lt;b&gt;Indo&#45;&lt;br/&gt;European&lt;/b&gt;&lt;br/&gt;&lt;font color=&quot;red&quot;&gt;*medhyo&#45;&lt;/font&gt;&lt;br/&gt;&lt;font point&#45;size=&quot;12&quot;&gt;middle&lt;/font&gt;">
<path fill="none" stroke="black" stroke-dasharray="5,2" d="M571.5,-494C571.5,-494 518.5,-494 518.5,-494 512.5,-494 506.5,-488 506.5,-482 506.5,-482 506.5,-444 506.5,-444 506.5,-438 512.5,-432 518.5,-432 518.5,-432 571.5,-432 571.5,-432 577.5,-432 583.5,-438 583.5,-444 583.5,-444 583.5,-482 583.5,-482 583.5,-488 577.5,-494 571.5,-494"/>
<text text-anchor="start" x="528.5" y="-479.8" font-family="Times New Roman,serif" font-weight="bold" font-size="14.00">Indo&#45;</text>
<text text-anchor="start" x="514.5" y="-465.8" font-family="Times New Roman,serif" font-weight="bold" font-size="14.00">European</text>
<text text-anchor="start" x="516.5" y="-451.8" font-family="Times New Roman,serif" font-size="14.00" fill="red">*medhyo&#45;</text>
<text text-anchor="start" x="529.5" y="-439.4" font-family="Times New Roman,serif" font-size="12.00">middle</text>
</a>
</g>
</g>
<!-- mediusL -->
<g id="node9" class="node">
<title>mediusL</title>
<text text-anchor="start" x="536.5" y="-369.8" font-family="Times New Roman,serif" font-weight="bold" font-size="14.00">Latin</text>
<text text-anchor="start" x="533" y="-355.8" font-family="Times New Roman,serif" font-size="14.00" fill="red">medius</text>
</g>
<!-- medhyoIE&#45;&gt;mediusL -->
<g id="edge7" class="edge">
<title>medhyoIE&#45;&gt;mediusL</title>
<path fill="none" stroke="black" d="M547.53,-431.94C548.55,-419.87 549.71,-406.06 550.7,-394.28"/>
<polygon fill="black" stroke="black" points="554.2,-394.41 551.56,-384.15 547.23,-393.82 554.2,-394.41"/>
</g>
<!-- mediusL&#45;&gt;mediumaevumL -->
<g id="edge9" class="edge">
<title>mediusL&#45;&gt;mediumaevumL</title>
<path fill="none" stroke="black" d="M541.55,-347.61C534.05,-336.23 524.13,-321.16 515.75,-308.44"/>
<polygon fill="black" stroke="black" points="518.67,-306.51 510.25,-300.08 512.83,-310.36 518.67,-306.51"/>
</g>
<!-- medieval -->
<g id="node11" class="node">
<title>medieval</title>
<text text-anchor="start" x="474.5" y="-42.8" font-family="Times New Roman,serif" font-weight="bold" font-size="14.00">Modern</text>
<text text-anchor="start" x="476" y="-28.8" font-family="Times New Roman,serif" font-weight="bold" font-size="14.00">English</text>
<text text-anchor="start" x="474.5" y="-14.8" font-family="Times New Roman,serif" font-size="14.00" fill="red">medieval</text>
</g>
<!-- mediumaevumL&#45;&gt;medieval -->
<g id="edge10" class="edge">
<title>mediumaevumL&#45;&gt;medieval</title>
<path fill="none" stroke="black" stroke-dasharray="5,2" d="M499,-263.95C499,-223.53 499,-121.23 499,-67.37"/>
<polygon fill="black" stroke="black" points="502.5,-67.28 499,-57.28 495.5,-67.28 502.5,-67.28"/>
</g>
<!-- perIE -->
<g id="node12" class="node">
<title>perIE</title>
<g id="a_node12"><a xlink:href="per-prai2.svg" xlink:title="&lt;b&gt;Indo&#45;&lt;br/&gt;European&lt;/b&gt;&lt;br/&gt;&lt;font color=&quot;red&quot;&gt;*per&lt;/font&gt;&lt;br/&gt;&lt;font point&#45;size=&quot;12&quot;&gt;forward,&lt;br/&gt;through&lt;/font&gt;">
<path fill="none" stroke="black" stroke-dasharray="5,2" d="M337.5,-500C337.5,-500 284.5,-500 284.5,-500 278.5,-500 272.5,-494 272.5,-488 272.5,-488 272.5,-438 272.5,-438 272.5,-432 278.5,-426 284.5,-426 284.5,-426 337.5,-426 337.5,-426 343.5,-426 349.5,-432 349.5,-438 349.5,-438 349.5,-488 349.5,-488 349.5,-494 343.5,-500 337.5,-500"/>
<text text-anchor="start" x="294.5" y="-485.8" font-family="Times New Roman,serif" font-weight="bold" font-size="14.00">Indo&#45;</text>
<text text-anchor="start" x="280.5" y="-471.8" font-family="Times New Roman,serif" font-weight="bold" font-size="14.00">European</text>
<text text-anchor="start" x="298.5" y="-457.8" font-family="Times New Roman,serif" font-size="14.00" fill="red">*per</text>
<text text-anchor="start" x="291" y="-445.4" font-family="Times New Roman,serif" font-size="12.00">forward,</text>
<text text-anchor="start" x="294" y="-433.4" font-family="Times New Roman,serif" font-size="12.00">through</text>
</a>
</g>
</g>
<!-- primusL -->
<g id="node13" class="node">
<title>primusL</title>
<text text-anchor="start" x="294.5" y="-375.8" font-family="Times New Roman,serif" font-weight="bold" font-size="14.00">Latin</text>
<text text-anchor="start" x="291" y="-361.8" font-family="Times New Roman,serif" font-size="14.00" fill="red">prīmus</text>
<text text-anchor="start" x="302.5" y="-349.4" font-family="Times New Roman,serif" font-size="12.00">first</text>
</g>
<!-- perIE&#45;&gt;primusL -->
<g id="edge11" class="edge">
<title>perIE&#45;&gt;primusL</title>
<path fill="none" stroke="black" d="M311,-425.81C311,-417.41 311,-408.5 311,-400.23"/>
<polygon fill="black" stroke="black" points="314.5,-400.18 311,-390.18 307.5,-400.18 314.5,-400.18"/>
</g>
<!-- semperL -->
<g id="node24" class="node">
<title>semperL</title>
<text text-anchor="start" x="199.5" y="-375.8" font-family="Times New Roman,serif" font-weight="bold" font-size="14.00">Latin</text>
<text text-anchor="start" x="195.5" y="-361.8" font-family="Times New Roman,serif" font-size="14.00" fill="red">semper</text>
<text text-anchor="start" x="200.5" y="-349.4" font-family="Times New Roman,serif" font-size="12.00">always</text>
</g>
<!-- perIE&#45;&gt;semperL -->
<g id="edge22" class="edge">
<title>perIE&#45;&gt;semperL</title>
<path fill="none" stroke="black" d="M274.81,-425.81C265.47,-416.47 255.51,-406.51 246.5,-397.5"/>
<polygon fill="black" stroke="black" points="248.72,-394.77 239.18,-390.18 243.77,-399.72 248.72,-394.77"/>
</g>
<!-- primusL&#45;&gt;primaevusL -->
<g id="edge13" class="edge">
<title>primusL&#45;&gt;primaevusL</title>
<path fill="none" stroke="black" d="M311.28,-341.72C311.4,-331.88 311.54,-320.36 311.67,-310.13"/>
<polygon fill="black" stroke="black" points="315.17,-310.12 311.79,-300.08 308.17,-310.03 315.17,-310.12"/>
</g>
<!-- primeval -->
<g id="node15" class="node">
<title>primeval</title>
<text text-anchor="start" x="287.5" y="-42.8" font-family="Times New Roman,serif" font-weight="bold" font-size="14.00">Modern</text>
<text text-anchor="start" x="289" y="-28.8" font-family="Times New Roman,serif" font-weight="bold" font-size="14.00">English</text>
<text text-anchor="start" x="288" y="-14.8" font-family="Times New Roman,serif" font-size="14.00" fill="red">primeval</text>
</g>
<!-- primaevusL&#45;&gt;primeval -->
<g id="edge14" class="edge">
<title>primaevusL&#45;&gt;primeval</title>
<path fill="none" stroke="black" stroke-dasharray="5,2" d="M312,-263.95C312,-223.53 312,-121.23 312,-67.37"/>
<polygon fill="black" stroke="black" points="315.5,-67.28 312,-57.28 308.5,-67.28 315.5,-67.28"/>
</g>
<!-- delIE -->
<g id="node16" class="node">
<title>delIE</title>
<g id="a_node16"><a xlink:href="del-long1.svg" xlink:title="&lt;b&gt;Indo&#45;&lt;br/&gt;European&lt;/b&gt;&lt;br/&gt;&lt;font color=&quot;red&quot;&gt;*del&#45;&lt;/font&gt;&lt;br/&gt;&lt;font point&#45;size=&quot;12&quot;&gt;long&lt;/font&gt;">
<path fill="none" stroke="black" stroke-dasharray="5,2" d="M666.5,-494C666.5,-494 613.5,-494 613.5,-494 607.5,-494 601.5,-488 601.5,-482 601.5,-482 601.5,-444 601.5,-444 601.5,-438 607.5,-432 613.5,-432 613.5,-432 666.5,-432 666.5,-432 672.5,-432 678.5,-438 678.5,-444 678.5,-444 678.5,-482 678.5,-482 678.5,-488 672.5,-494 666.5,-494"/>
<text text-anchor="start" x="623.5" y="-479.8" font-family="Times New Roman,serif" font-weight="bold" font-size="14.00">Indo&#45;</text>
<text text-anchor="start" x="609.5" y="-465.8" font-family="Times New Roman,serif" font-weight="bold" font-size="14.00">European</text>
<text text-anchor="start" x="626" y="-451.8" font-family="Times New Roman,serif" font-size="14.00" fill="red">*del&#45;</text>
<text text-anchor="start" x="630.5" y="-439.4" font-family="Times New Roman,serif" font-size="12.00">long</text>
</a>
</g>
</g>
<!-- longusL -->
<g id="node17" class="node">
<title>longusL</title>
<text text-anchor="start" x="617.5" y="-369.8" font-family="Times New Roman,serif" font-weight="bold" font-size="14.00">Latin</text>
<text text-anchor="start" x="615.5" y="-355.8" font-family="Times New Roman,serif" font-size="14.00" fill="red">longus</text>
</g>
<!-- delIE&#45;&gt;longusL -->
<g id="edge15" class="edge">
<title>delIE&#45;&gt;longusL</title>
<path fill="none" stroke="black" d="M638.1,-431.94C637.34,-419.87 636.47,-406.06 635.72,-394.28"/>
<polygon fill="black" stroke="black" points="639.21,-393.91 635.08,-384.15 632.22,-394.35 639.21,-393.91"/>
</g>
<!-- longusL&#45;&gt;longaevusL -->
<g id="edge17" class="edge">
<title>longusL&#45;&gt;longaevusL</title>
<path fill="none" stroke="black" d="M627.64,-347.61C623.59,-336.56 618.28,-322.03 613.71,-309.55"/>
<polygon fill="black" stroke="black" points="616.97,-308.27 610.25,-300.08 610.4,-310.68 616.97,-308.27"/>
</g>
<!-- longaevitasL -->
<g id="node19" class="node">
<title>longaevitasL</title>
<text text-anchor="start" x="557" y="-121.3" font-family="Times New Roman,serif" font-size="14.00" fill="red">longaevitās</text>
</g>
<!-- longaevusL&#45;&gt;longaevitasL -->
<g id="edge18" class="edge">
<title>longaevusL&#45;&gt;longaevitasL</title>
<path fill="none" stroke="black" d="M602.23,-263.82C599.46,-237.05 594.11,-185.16 590.81,-153.25"/>
<polygon fill="black" stroke="black" points="594.29,-152.84 589.78,-143.26 587.33,-153.56 594.29,-152.84"/>
</g>
<!-- longevity -->
<g id="node20" class="node">
<title>longevity</title>
<text text-anchor="start" x="563.5" y="-42.8" font-family="Times New Roman,serif" font-weight="bold" font-size="14.00">Modern</text>
<text text-anchor="start" x="565" y="-28.8" font-family="Times New Roman,serif" font-weight="bold" font-size="14.00">English</text>
<text text-anchor="start" x="562.5" y="-14.8" font-family="Times New Roman,serif" font-size="14.00" fill="red">longevity</text>
</g>
<!-- longaevitasL&#45;&gt;longevity -->
<g id="edge19" class="edge">
<title>longaevitasL&#45;&gt;longevity</title>
<path fill="none" stroke="black" stroke-dasharray="5,2" d="M588,-106.88C588,-95.83 588,-81.06 588,-67.64"/>
<polygon fill="black" stroke="black" points="591.5,-67.25 588,-57.25 584.5,-67.25 591.5,-67.25"/>
</g>
<!-- eternal -->
<g id="node22" class="node">
<title>eternal</title>
<text text-anchor="start" x="104.5" y="-49.8" font-family="Times New Roman,serif" font-weight="bold" font-size="14.00">Modern</text>
<text text-anchor="start" x="106" y="-35.8" font-family="Times New Roman,serif" font-weight="bold" font-size="14.00">English</text>
<text text-anchor="start" x="110.5" y="-21.8" font-family="Times New Roman,serif" font-size="14.00" fill="red">eternal</text>
<text text-anchor="start" x="108.5" y="-7.8" font-family="Times New Roman,serif" font-size="14.00" fill="red">eternity</text>
</g>
<!-- aeternusL&#45;&gt;eternal -->
<g id="edge21" class="edge">
<title>aeternusL&#45;&gt;eternal</title>
<path fill="none" stroke="black" stroke-dasharray="5,2" d="M132.72,-341.92C132.05,-286.53 130.35,-145.45 129.5,-74.73"/>
<polygon fill="black" stroke="black" points="133,-74.38 129.38,-64.42 126,-74.46 133,-74.38"/>
</g>
<!-- sempiternusL -->
<g id="node25" class="node">
<title>sempiternusL</title>
<text text-anchor="start" x="181.5" y="-278.3" font-family="Times New Roman,serif" font-size="14.00" fill="red">sempiternus</text>
</g>
<!-- aeternusL&#45;&gt;sempiternusL -->
<g id="edge24" class="edge">
<title>aeternusL&#45;&gt;sempiternusL</title>
<path fill="none" stroke="black" d="M156.28,-341.72C167.05,-330.95 179.84,-318.16 190.73,-307.27"/>
<polygon fill="black" stroke="black" points="193.33,-309.62 197.92,-300.08 188.38,-304.67 193.33,-309.62"/>
</g>
<!-- semIE -->
<g id="node23" class="node">
<title>semIE</title>
<g id="a_node23"><a xlink:href="sem-one1.svg" xlink:title="&lt;b&gt;Indo&#45;&lt;br/&gt;European&lt;/b&gt;&lt;br/&gt;&lt;font color=&quot;red&quot;&gt;*sem&#45;&lt;/font&gt;&lt;br/&gt;&lt;font point&#45;size=&quot;12&quot;&gt;one, as one&lt;/font&gt;">
<path fill="none" stroke="black" stroke-dasharray="5,2" d="M242.5,-494C242.5,-494 189.5,-494 189.5,-494 183.5,-494 177.5,-488 177.5,-482 177.5,-482 177.5,-444 177.5,-444 177.5,-438 183.5,-432 189.5,-432 189.5,-432 242.5,-432 242.5,-432 248.5,-432 254.5,-438 254.5,-444 254.5,-444 254.5,-482 254.5,-482 254.5,-488 248.5,-494 242.5,-494"/>
<text text-anchor="start" x="199.5" y="-479.8" font-family="Times New Roman,serif" font-weight="bold" font-size="14.00">Indo&#45;</text>
<text text-anchor="start" x="185.5" y="-465.8" font-family="Times New Roman,serif" font-weight="bold" font-size="14.00">European</text>
<text text-anchor="start" x="199" y="-451.8" font-family="Times New Roman,serif" font-size="14.00" fill="red">*sem&#45;</text>
<text text-anchor="start" x="190" y="-439.4" font-family="Times New Roman,serif" font-size="12.00">one, as one</text>
</a>
</g>
</g>
<!-- semIE&#45;&gt;semperL -->
<g id="edge23" class="edge">
<title>semIE&#45;&gt;semperL</title>
<path fill="none" stroke="black" d="M216,-431.94C216,-421.94 216,-410.73 216,-400.48"/>
<polygon fill="black" stroke="black" points="219.5,-400.24 216,-390.24 212.5,-400.24 219.5,-400.24"/>
</g>
<!-- semperL&#45;&gt;sempiternusL -->
<g id="edge25" class="edge">
<title>semperL&#45;&gt;sempiternusL</title>
<path fill="none" stroke="black" d="M215.72,-341.72C215.6,-331.88 215.46,-320.36 215.33,-310.13"/>
<polygon fill="black" stroke="black" points="218.83,-310.03 215.21,-300.08 211.83,-310.12 218.83,-310.03"/>
</g>
<!-- sempiternalisL -->
<g id="node26" class="node">
<title>sempiternalisL</title>
<text text-anchor="start" x="185" y="-207.8" font-family="Times New Roman,serif" font-weight="bold" font-size="14.00">Late Latin</text>
<text text-anchor="start" x="180.5" y="-193.8" font-family="Times New Roman,serif" font-size="14.00" fill="red">sempiternālis</text>
</g>
<!-- sempiternusL&#45;&gt;sempiternalisL -->
<g id="edge26" class="edge">
<title>sempiternusL&#45;&gt;sempiternalisL</title>
<path fill="none" stroke="black" d="M215.45,-263.75C215.7,-254.52 216,-242.93 216.28,-232.49"/>
<polygon fill="black" stroke="black" points="219.78,-232.27 216.55,-222.18 212.79,-232.08 219.78,-232.27"/>
</g>
<!-- sempiternal -->
<g id="node27" class="node">
<title>sempiternal</title>
<text text-anchor="start" x="195.5" y="-42.8" font-family="Times New Roman,serif" font-weight="bold" font-size="14.00">Modern</text>
<text text-anchor="start" x="197" y="-28.8" font-family="Times New Roman,serif" font-weight="bold" font-size="14.00">English</text>
<text text-anchor="start" x="188" y="-14.8" font-family="Times New Roman,serif" font-size="14.00" fill="red">sempiternal</text>
</g>
<!-- sempiternalisL&#45;&gt;sempiternal -->
<g id="edge27" class="edge">
<title>sempiternalisL&#45;&gt;sempiternal</title>
<path fill="none" stroke="black" stroke-dasharray="5,2" d="M217.3,-185.76C217.79,-158.03 218.77,-102.98 219.4,-67.09"/>
<polygon fill="black" stroke="black" points="222.9,-67.13 219.58,-57.07 215.9,-67.01 222.9,-67.13"/>
</g>
<!-- aetaticumL -->
<g id="node29" class="node">
<title>aetaticumL</title>
<text text-anchor="start" x="13" y="-278.3" font-family="Times New Roman,serif" font-size="14.00" fill="red">*aetāticum</text>
</g>
<!-- aetasL&#45;&gt;aetaticumL -->
<g id="edge29" class="edge">
<title>aetasL&#45;&gt;aetaticumL</title>
<path fill="none" stroke="black" d="M43,-341.72C43,-331.88 43,-320.36 43,-310.13"/>
<polygon fill="black" stroke="black" points="46.5,-310.08 43,-300.08 39.5,-310.08 46.5,-310.08"/>
</g>
<!-- aageOF -->
<g id="node30" class="node">
<title>aageOF</title>
<text text-anchor="start" x="8" y="-207.8" font-family="Times New Roman,serif" font-weight="bold" font-size="14.00">Old French</text>
<text text-anchor="start" x="30.5" y="-193.8" font-family="Times New Roman,serif" font-size="14.00" fill="red">aage</text>
</g>
<!-- aetaticumL&#45;&gt;aageOF -->
<g id="edge30" class="edge">
<title>aetaticumL&#45;&gt;aageOF</title>
<path fill="none" stroke="black" d="M43,-263.75C43,-254.52 43,-242.93 43,-232.49"/>
<polygon fill="black" stroke="black" points="46.5,-232.18 43,-222.18 39.5,-232.18 46.5,-232.18"/>
</g>
<!-- ageME -->
<g id="node31" class="node">
<title>ageME</title>
<text text-anchor="start" x="21.5" y="-135.8" font-family="Times New Roman,serif" font-weight="bold" font-size="14.00">Middle</text>
<text text-anchor="start" x="20" y="-121.8" font-family="Times New Roman,serif" font-weight="bold" font-size="14.00">English</text>
<text text-anchor="start" x="33.5" y="-107.8" font-family="Times New Roman,serif" font-size="14.00" fill="red">age</text>
</g>
<!-- aageOF&#45;&gt;ageME -->
<g id="edge31" class="edge">
<title>aageOF&#45;&gt;ageME</title>
<path fill="none" stroke="black" stroke-dasharray="5,2" d="M43,-185.91C43,-178.33 43,-169.13 43,-160.23"/>
<polygon fill="black" stroke="black" points="46.5,-160.05 43,-150.05 39.5,-160.05 46.5,-160.05"/>
</g>
<!-- age -->
<g id="node32" class="node">
<title>age</title>
<text text-anchor="start" x="18.5" y="-42.8" font-family="Times New Roman,serif" font-weight="bold" font-size="14.00">Modern</text>
<text text-anchor="start" x="20" y="-28.8" font-family="Times New Roman,serif" font-weight="bold" font-size="14.00">English</text>
<text text-anchor="start" x="33.5" y="-14.8" font-family="Times New Roman,serif" font-size="14.00" fill="red">age</text>
</g>
<!-- ageME&#45;&gt;age -->
<g id="edge32" class="edge">
<title>ageME&#45;&gt;age</title>
<path fill="none" stroke="black" d="M43,-99.61C43,-89.74 43,-78.17 43,-67.46"/>
<polygon fill="black" stroke="black" points="46.5,-67.14 43,-57.14 39.5,-67.14 46.5,-67.14"/>
</g>
<!-- aionGk -->
<g id="node34" class="node">
<title>aionGk</title>
<text text-anchor="start" x="819" y="-375.8" font-family="Times New Roman,serif" font-weight="bold" font-size="14.00">Greek</text>
<text text-anchor="start" x="827" y="-361.8" font-family="Times New Roman,serif" font-size="14.00" fill="red">aiōn</text>
<text text-anchor="start" x="805.5" y="-349.4" font-family="Times New Roman,serif" font-size="12.00">age, vital force</text>
</g>
<!-- aiwenIE&#45;&gt;aionGk -->
<g id="edge34" class="edge">
<title>aiwenIE&#45;&gt;aionGk</title>
<path fill="none" stroke="black" d="M831.65,-444.58C832.83,-432.13 834.45,-415 835.87,-400"/>
<polygon fill="black" stroke="black" points="839.36,-400.33 836.82,-390.05 832.39,-399.67 839.36,-400.33"/>
</g>
<!-- aeonL -->
<g id="node35" class="node">
<title>aeonL</title>
<text text-anchor="start" x="889.5" y="-128.8" font-family="Times New Roman,serif" font-weight="bold" font-size="14.00">Latin</text>
<text text-anchor="start" x="892.5" y="-114.8" font-family="Times New Roman,serif" font-size="14.00" fill="red">aeōn</text>
</g>
<!-- aionGk&#45;&gt;aeonL -->
<g id="edge35" class="edge">
<title>aionGk&#45;&gt;aeonL</title>
<path fill="none" stroke="black" stroke-dasharray="5,2" d="M852.1,-341.75C857.65,-331.12 863.79,-318.19 868,-306 886.14,-253.47 897.17,-189.19 902.38,-153.4"/>
<polygon fill="black" stroke="black" points="905.88,-153.65 903.81,-143.26 898.95,-152.67 905.88,-153.65"/>
</g>
<!-- eon -->
<g id="node36" class="node">
<title>eon</title>
<text text-anchor="start" x="889.5" y="-49.8" font-family="Times New Roman,serif" font-weight="bold" font-size="14.00">Modern</text>
<text text-anchor="start" x="891" y="-35.8" font-family="Times New Roman,serif" font-weight="bold" font-size="14.00">English</text>
<text text-anchor="start" x="900.5" y="-21.8" font-family="Times New Roman,serif" font-size="14.00" fill="red">aeon</text>
<text text-anchor="start" x="903.5" y="-7.8" font-family="Times New Roman,serif" font-size="14.00" fill="red">eon</text>
</g>
<!-- aeonL&#45;&gt;eon -->
<g id="edge36" class="edge">
<title>aeonL&#45;&gt;eon</title>
<path fill="none" stroke="black" stroke-dasharray="5,2" d="M907.5,-106.88C908.32,-97.57 909.38,-85.6 910.39,-74.03"/>
<polygon fill="black" stroke="black" points="913.88,-74.3 911.27,-64.04 906.91,-73.69 913.88,-74.3"/>
</g>
<!-- yugwiees -->
<g id="node38" class="node">
<title>yugwiees</title>
<text text-anchor="start" x="706.5" y="-374.8" font-family="Times New Roman,serif" font-size="14.00" fill="red">yu&#45;gʷiə&#45;es&#45;</text>
<text text-anchor="start" x="718.5" y="-362.4" font-family="Times New Roman,serif" font-size="12.00">having a</text>
<text text-anchor="start" x="709.5" y="-350.4" font-family="Times New Roman,serif" font-size="12.00">vigorous life</text>
</g>
<!-- yuIE&#45;&gt;yugwiees -->
<g id="edge38" class="edge">
<title>yuIE&#45;&gt;yugwiees</title>
<path fill="none" stroke="black" d="M741.9,-444.58C741.1,-431.95 740,-414.52 739.04,-399.38"/>
<polygon fill="black" stroke="black" points="742.53,-399.1 738.41,-389.34 735.55,-399.55 742.53,-399.1"/>
</g>
<!-- hugiesGk -->
<g id="node39" class="node">
<title>hugiesGk</title>
<text text-anchor="start" x="711" y="-291.8" font-family="Times New Roman,serif" font-weight="bold" font-size="14.00">Greek</text>
<text text-anchor="start" x="713" y="-277.8" font-family="Times New Roman,serif" font-size="14.00" fill="red">hugiēs</text>
<text text-anchor="start" x="715" y="-265.4" font-family="Times New Roman,serif" font-size="12.00">healthy</text>
</g>
<!-- yugwiees&#45;&gt;hugiesGk -->
<g id="edge39" class="edge">
<title>yugwiees&#45;&gt;hugiesGk</title>
<path fill="none" stroke="black" d="M735.36,-342.59C734.77,-334.48 734.08,-325.14 733.44,-316.29"/>
<polygon fill="black" stroke="black" points="736.92,-315.96 732.7,-306.24 729.94,-316.47 736.92,-315.96"/>
</g>
<!-- hugieineGk -->
<g id="node40" class="node">
<title>hugieineGk</title>
<text text-anchor="start" x="671" y="-206.8" font-family="Times New Roman,serif" font-size="14.00" fill="red">hugieinē (tekhnē)</text>
<text text-anchor="start" x="687.5" y="-194.4" font-family="Times New Roman,serif" font-size="12.00">(art) of health</text>
</g>
<!-- hugiesGk&#45;&gt;hugieineGk -->
<g id="edge40" class="edge">
<title>hugiesGk&#45;&gt;hugieineGk</title>
<path fill="none" stroke="black" d="M727.03,-257.78C725.64,-249.68 724.08,-240.52 722.64,-232.12"/>
<polygon fill="black" stroke="black" points="726.05,-231.31 720.92,-222.04 719.15,-232.49 726.05,-231.31"/>
</g>
<!-- hygieneF -->
<g id="node41" class="node">
<title>hygieneF</title>
<text text-anchor="start" x="751" y="-128.8" font-family="Times New Roman,serif" font-weight="bold" font-size="14.00">French</text>
<text text-anchor="start" x="751.5" y="-114.8" font-family="Times New Roman,serif" font-size="14.00" fill="red">hygiene</text>
</g>
<!-- hugieineGk&#45;&gt;hygieneF -->
<g id="edge41" class="edge">
<title>hugieineGk&#45;&gt;hygieneF</title>
<path fill="none" stroke="black" stroke-dasharray="5,2" d="M730.21,-185.91C737.47,-175.74 746.82,-162.65 754.93,-151.3"/>
<polygon fill="black" stroke="black" points="757.86,-153.21 760.83,-143.04 752.17,-149.14 757.86,-153.21"/>
</g>
<!-- hygieinaNL -->
<g id="node42" class="node">
<title>hygieinaNL</title>
<text text-anchor="start" x="653" y="-128.8" font-family="Times New Roman,serif" font-weight="bold" font-size="14.00">New Latin</text>
<text text-anchor="start" x="662" y="-114.8" font-family="Times New Roman,serif" font-size="14.00" fill="red">hygieina</text>
</g>
<!-- hugieineGk&#45;&gt;hygieinaNL -->
<g id="edge42" class="edge">
<title>hugieineGk&#45;&gt;hygieinaNL</title>
<path fill="none" stroke="black" stroke-dasharray="5,2" d="M710.68,-185.91C706.45,-176.04 701.04,-163.42 696.28,-152.31"/>
<polygon fill="black" stroke="black" points="699.46,-150.85 692.3,-143.04 693.03,-153.61 699.46,-150.85"/>
</g>
<!-- hygiene -->
<g id="node43" class="node">
<title>hygiene</title>
<text text-anchor="start" x="692.5" y="-42.8" font-family="Times New Roman,serif" font-weight="bold" font-size="14.00">Modern</text>
<text text-anchor="start" x="694" y="-28.8" font-family="Times New Roman,serif" font-weight="bold" font-size="14.00">English</text>
<text text-anchor="start" x="695.5" y="-14.8" font-family="Times New Roman,serif" font-size="14.00" fill="red">hygiene</text>
</g>
<!-- hygieneF&#45;&gt;hygiene -->
<g id="edge43" class="edge">
<title>hygieneF&#45;&gt;hygiene</title>
<path fill="none" stroke="black" stroke-dasharray="5,2" d="M762.47,-106.88C755.4,-95.4 745.85,-79.89 737.34,-66.05"/>
<polygon fill="black" stroke="black" points="740.15,-63.93 731.92,-57.25 734.18,-67.6 740.15,-63.93"/>
</g>
<!-- hygieinaNL&#45;&gt;hygiene -->
<g id="edge44" class="edge">
<title>hygieinaNL&#45;&gt;hygiene</title>
<path fill="none" stroke="black" stroke-dasharray="5,2" d="M691.02,-106.88C694.98,-95.61 700.3,-80.48 705.1,-66.84"/>
<polygon fill="black" stroke="black" points="708.46,-67.85 708.47,-57.25 701.85,-65.52 708.46,-67.85"/>
</g>
<!-- neoyukwid -->
<g id="node45" class="node">
<title>neoyukwid</title>
<text text-anchor="start" x="908.5" y="-368.8" font-family="Times New Roman,serif" font-size="14.00" fill="red">(ne) oyu (kʷid)</text>
<text text-anchor="start" x="912" y="-356.4" font-family="Times New Roman,serif" font-size="12.00">(not on your) life</text>
</g>
<!-- oyuIE&#45;&gt;neoyukwid -->
<g id="edge46" class="edge">
<title>oyuIE&#45;&gt;neoyukwid</title>
<path fill="none" stroke="black" d="M950,-444.58C950,-430.65 950,-410.86 950,-394.76"/>
<polygon fill="black" stroke="black" points="953.5,-394.31 950,-384.31 946.5,-394.31 953.5,-394.31"/>
</g>
<!-- oyusIE -->
<g id="node50" class="node">
<title>oyusIE</title>
<text text-anchor="start" x="1026.5" y="-362.3" font-family="Times New Roman,serif" font-size="14.00" fill="red">oyu&#45;s&#45;</text>
</g>
<!-- oyuIE&#45;&gt;oyusIE -->
<g id="edge51" class="edge">
<title>oyuIE&#45;&gt;oyusIE</title>
<path fill="none" stroke="black" d="M967.42,-444.58C982.29,-429.71 1003.83,-408.17 1020.44,-391.56"/>
<polygon fill="black" stroke="black" points="1023.09,-393.86 1027.69,-384.31 1018.14,-388.91 1023.09,-393.86"/>
</g>
<!-- ouGk -->
<g id="node46" class="node">
<title>ouGk</title>
<text text-anchor="start" x="937" y="-291.8" font-family="Times New Roman,serif" font-weight="bold" font-size="14.00">Greek</text>
<text text-anchor="start" x="935.5" y="-277.8" font-family="Times New Roman,serif" font-size="14.00" fill="red">ouk, ou</text>
<text text-anchor="start" x="949.5" y="-265.4" font-family="Times New Roman,serif" font-size="12.00">not</text>
</g>
<!-- neoyukwid&#45;&gt;ouGk -->
<g id="edge47" class="edge">
<title>neoyukwid&#45;&gt;ouGk</title>
<path fill="none" stroke="black" d="M951.48,-347.61C952.26,-338.49 953.24,-327 954.16,-316.26"/>
<polygon fill="black" stroke="black" points="957.65,-316.54 955.01,-306.28 950.67,-315.94 957.65,-316.54"/>
</g>
<!-- utopiaNL -->
<g id="node48" class="node">
<title>utopiaNL</title>
<text text-anchor="start" x="799" y="-207.8" font-family="Times New Roman,serif" font-weight="bold" font-size="14.00">New Latin</text>
<text text-anchor="start" x="812" y="-193.8" font-family="Times New Roman,serif" font-size="14.00" fill="red">Ūtopia</text>
</g>
<!-- ouGk&#45;&gt;utopiaNL -->
<g id="edge48" class="edge">
<title>ouGk&#45;&gt;utopiaNL</title>
<path fill="none" stroke="black" stroke-dasharray="5,2" d="M927.46,-263.18C909.75,-252.5 887.08,-238.82 868.16,-227.41"/>
<polygon fill="black" stroke="black" points="869.86,-224.35 859.49,-222.18 866.24,-230.35 869.86,-224.35"/>
</g>
<!-- toposGk -->
<g id="node47" class="node">
<title>toposGk</title>
<text text-anchor="start" x="811" y="-291.8" font-family="Times New Roman,serif" font-weight="bold" font-size="14.00">Greek</text>
<text text-anchor="start" x="814.5" y="-277.8" font-family="Times New Roman,serif" font-size="14.00" fill="red">topos</text>
<text text-anchor="start" x="818.5" y="-265.4" font-family="Times New Roman,serif" font-size="12.00">place</text>
</g>
<!-- toposGk&#45;&gt;utopiaNL -->
<g id="edge49" class="edge">
<title>toposGk&#45;&gt;utopiaNL</title>
<path fill="none" stroke="black" stroke-dasharray="5,2" d="M831,-257.78C831,-249.68 831,-240.52 831,-232.12"/>
<polygon fill="black" stroke="black" points="834.5,-232.04 831,-222.04 827.5,-232.04 834.5,-232.04"/>
</g>
<!-- utopia -->
<g id="node49" class="node">
<title>utopia</title>
<text text-anchor="start" x="806.5" y="-42.8" font-family="Times New Roman,serif" font-weight="bold" font-size="14.00">Modern</text>
<text text-anchor="start" x="808" y="-28.8" font-family="Times New Roman,serif" font-weight="bold" font-size="14.00">English</text>
<text text-anchor="start" x="813.5" y="-14.8" font-family="Times New Roman,serif" font-size="14.00" fill="red">utopia</text>
</g>
<!-- utopiaNL&#45;&gt;utopia -->
<g id="edge50" class="edge">
<title>utopiaNL&#45;&gt;utopia</title>
<path fill="none" stroke="black" stroke-dasharray="5,2" d="M831,-185.76C831,-158.03 831,-102.98 831,-67.09"/>
<polygon fill="black" stroke="black" points="834.5,-67.07 831,-57.07 827.5,-67.07 834.5,-67.07"/>
</g>
<!-- ayuhSk -->
<g id="node51" class="node">
<title>ayuhSk</title>
<text text-anchor="start" x="1019" y="-291.8" font-family="Times New Roman,serif" font-weight="bold" font-size="14.00">Sanskrit</text>
<text text-anchor="start" x="1031.5" y="-277.8" font-family="Times New Roman,serif" font-size="14.00" fill="red">āyuḥ</text>
<text text-anchor="start" x="1022" y="-265.4" font-family="Times New Roman,serif" font-size="12.00">life, health</text>
</g>
<!-- oyusIE&#45;&gt;ayuhSk -->
<g id="edge52" class="edge">
<title>oyusIE&#45;&gt;ayuhSk</title>
<path fill="none" stroke="black" d="M1045,-347.61C1045,-338.58 1045,-327.24 1045,-316.59"/>
<polygon fill="black" stroke="black" points="1048.5,-316.28 1045,-306.28 1041.5,-316.28 1048.5,-316.28"/>
</g>
<!-- ayurvedahSk -->
<g id="node54" class="node">
<title>ayurvedahSk</title>
<text text-anchor="start" x="1064" y="-200.3" font-family="Times New Roman,serif" font-size="14.00" fill="red">āyurvedaḥ</text>
</g>
<!-- ayuhSk&#45;&gt;ayurvedahSk -->
<g id="edge54" class="edge">
<title>ayuhSk&#45;&gt;ayurvedahSk</title>
<path fill="none" stroke="black" d="M1059.66,-257.78C1065.06,-249.23 1071.21,-239.49 1076.75,-230.73"/>
<polygon fill="black" stroke="black" points="1079.85,-232.37 1082.24,-222.04 1073.94,-228.63 1079.85,-232.37"/>
</g>
<!-- weidIE -->
<g id="node52" class="node">
<title>weidIE</title>
<g id="a_node52"><a xlink:href="weid-see1.svg" xlink:title="&lt;b&gt;Indo&#45;&lt;br/&gt;European&lt;/b&gt;&lt;br/&gt;&lt;font color=&quot;red&quot;&gt;*weid&#45;&lt;/font&gt;&lt;br/&gt;&lt;font point&#45;size=&quot;12&quot;&gt;to see&lt;/font&gt;">
<path fill="none" stroke="black" stroke-dasharray="5,2" d="M1168.5,-494C1168.5,-494 1115.5,-494 1115.5,-494 1109.5,-494 1103.5,-488 1103.5,-482 1103.5,-482 1103.5,-444 1103.5,-444 1103.5,-438 1109.5,-432 1115.5,-432 1115.5,-432 1168.5,-432 1168.5,-432 1174.5,-432 1180.5,-438 1180.5,-444 1180.5,-444 1180.5,-482 1180.5,-482 1180.5,-488 1174.5,-494 1168.5,-494"/>
<text text-anchor="start" x="1125.5" y="-479.8" font-family="Times New Roman,serif" font-weight="bold" font-size="14.00">Indo&#45;</text>
<text text-anchor="start" x="1111.5" y="-465.8" font-family="Times New Roman,serif" font-weight="bold" font-size="14.00">European</text>
<text text-anchor="start" x="1123" y="-451.8" font-family="Times New Roman,serif" font-size="14.00" fill="red">*weid&#45;</text>
<text text-anchor="start" x="1128" y="-439.4" font-family="Times New Roman,serif" font-size="12.00">to see</text>
</a>
</g>
</g>
<!-- vedahSk -->
<g id="node53" class="node">
<title>vedahSk</title>
<text text-anchor="start" x="1116" y="-291.8" font-family="Times New Roman,serif" font-weight="bold" font-size="14.00">Sanskrit</text>
<text text-anchor="start" x="1125" y="-277.8" font-family="Times New Roman,serif" font-size="14.00" fill="red">vedaḥ</text>
<text text-anchor="start" x="1105.5" y="-265.4" font-family="Times New Roman,serif" font-size="12.00">knowledge, lore</text>
</g>
<!-- weidIE&#45;&gt;vedahSk -->
<g id="edge53" class="edge">
<title>weidIE&#45;&gt;vedahSk</title>
<path fill="none" stroke="black" d="M1142,-431.64C1142,-399.59 1142,-349.25 1142,-316.18"/>
<polygon fill="black" stroke="black" points="1145.5,-316.1 1142,-306.1 1138.5,-316.1 1145.5,-316.1"/>
</g>
<!-- vedahSk&#45;&gt;ayurvedahSk -->
<g id="edge55" class="edge">
<title>vedahSk&#45;&gt;ayurvedahSk</title>
<path fill="none" stroke="black" d="M1127.03,-257.78C1121.46,-249.14 1115.11,-239.29 1109.41,-230.46"/>
<polygon fill="black" stroke="black" points="1112.35,-228.55 1103.99,-222.04 1106.47,-232.35 1112.35,-228.55"/>
</g>
<!-- ayurveda -->
<g id="node55" class="node">
<title>ayurveda</title>
<text text-anchor="start" x="1068.5" y="-42.8" font-family="Times New Roman,serif" font-weight="bold" font-size="14.00">Modern</text>
<text text-anchor="start" x="1070" y="-28.8" font-family="Times New Roman,serif" font-weight="bold" font-size="14.00">English</text>
<text text-anchor="start" x="1065.5" y="-14.8" font-family="Times New Roman,serif" font-size="14.00" fill="red">Ayurveda</text>
</g>
<!-- ayurvedahSk&#45;&gt;ayurveda -->
<g id="edge56" class="edge">
<title>ayurvedahSk&#45;&gt;ayurveda</title>
<path fill="none" stroke="black" stroke-dasharray="5,2" d="M1093,-185.76C1093,-158.03 1093,-102.98 1093,-67.09"/>
<polygon fill="black" stroke="black" points="1096.5,-67.07 1093,-57.07 1089.5,-67.07 1096.5,-67.07"/>
</g>
</g>
</svg>
