<?xml version="1.0" encoding="UTF-8" standalone="no"?>
<!DOCTYPE svg PUBLIC "-//W3C//DTD SVG 1.1//EN"
 "http://www.w3.org/Graphics/SVG/1.1/DTD/svg11.dtd">
<!-- Generated by graphviz version 2.49.0 (20210828.1703)
 -->
<!-- Pages: 1 -->
<svg width="1143pt" height="994pt"
 viewBox="0.00 0.00 1143.00 994.00" xmlns="http://www.w3.org/2000/svg" xmlns:xlink="http://www.w3.org/1999/xlink">
<g id="graph0" class="graph" transform="scale(1 1) rotate(0) translate(4 990)">
<polygon fill="white" stroke="transparent" points="-4,4 -4,-990 1139,-990 1139,4 -4,4"/>
<!-- al -->
<g id="node1" class="node">
<title>al</title>
<g id="a_node1"><a xlink:href="al-beyond0.svg" xlink:title="Indo&#45;European &quot;*al&#45;&quot; beyond">
<polygon fill="none" stroke="black" stroke-dasharray="5,2" points="501.5,-986 290.5,-986 290.5,-882 501.5,-882 501.5,-986"/>
<text text-anchor="start" x="318" y="-941.8" font-family="Times New Roman,serif" font-weight="bold" font-size="24.00">Indo&#45;European</text>
<text text-anchor="start" x="337" y="-913.6" font-family="Times New Roman,serif" font-size="18.00" fill="red">*al&#45;</text>
<text text-anchor="start" x="411" y="-914.2" font-family="Times New Roman,serif" font-size="16.00">beyond</text>
</a>
</g>
</g>
<!-- ol -->
<g id="node2" class="node">
<title>ol</title>
<text text-anchor="start" x="385" y="-805.3" font-family="Times New Roman,serif" font-size="14.00" fill="red">*ol&#45;</text>
</g>
<!-- al&#45;&gt;ol -->
<g id="edge1" class="edge">
<title>al&#45;&gt;ol</title>
<path fill="none" stroke="black" d="M396,-881.91C396,-866.64 396,-850.5 396,-837.38"/>
<polygon fill="black" stroke="black" points="399.5,-837.16 396,-827.16 392.5,-837.16 399.5,-837.16"/>
</g>
<!-- olso -->
<g id="node4" class="node">
<title>olso</title>
<text text-anchor="start" x="441" y="-702.3" font-family="Times New Roman,serif" font-size="14.00" fill="red">*ol&#45;se&#45;, *ol&#45;so&#45;</text>
</g>
<!-- ol&#45;&gt;olso -->
<g id="edge2" class="edge">
<title>ol&#45;&gt;olso</title>
<path fill="none" stroke="black" d="M410.93,-790.87C424.96,-774.76 446.13,-750.46 462.08,-732.15"/>
<polygon fill="black" stroke="black" points="465.07,-734.06 469,-724.22 459.79,-729.46 465.07,-734.06"/>
</g>
<!-- ols -->
<g id="node46" class="node">
<title>ols</title>
<text text-anchor="start" x="283" y="-618.3" font-family="Times New Roman,serif" font-size="14.00" fill="red">*ol&#45;s, *ol&#45;tero&#45;</text>
</g>
<!-- ol&#45;&gt;ols -->
<g id="edge46" class="edge">
<title>ol&#45;&gt;ols</title>
<path fill="none" stroke="black" d="M389.45,-790.93C377.03,-758.58 350,-688.13 335.19,-649.56"/>
<polygon fill="black" stroke="black" points="338.39,-648.11 331.54,-640.03 331.85,-650.62 338.39,-648.11"/>
</g>
<!-- soIE -->
<g id="node3" class="node">
<title>soIE</title>
<g id="a_node3"><a xlink:href="so-that.svg" xlink:title="&lt;b&gt;Indo&#45;&lt;br/&gt;European&lt;/b&gt;&lt;br/&gt;&lt;font color=&quot;red&quot;&gt;*so&#45;&lt;/font&gt;&lt;br/&gt;&lt;font point&#45;size=&quot;12&quot;&gt;this, that&lt;/font&gt;">
<path fill="none" stroke="black" stroke-dasharray="5,2" d="M510.5,-840C510.5,-840 457.5,-840 457.5,-840 451.5,-840 445.5,-834 445.5,-828 445.5,-828 445.5,-790 445.5,-790 445.5,-784 451.5,-778 457.5,-778 457.5,-778 510.5,-778 510.5,-778 516.5,-778 522.5,-784 522.5,-790 522.5,-790 522.5,-828 522.5,-828 522.5,-834 516.5,-840 510.5,-840"/>
<text text-anchor="start" x="467.5" y="-825.8" font-family="Times New Roman,serif" font-weight="bold" font-size="14.00">Indo&#45;</text>
<text text-anchor="start" x="453.5" y="-811.8" font-family="Times New Roman,serif" font-weight="bold" font-size="14.00">European</text>
<text text-anchor="start" x="471.5" y="-797.8" font-family="Times New Roman,serif" font-size="14.00" fill="red">*so&#45;</text>
<text text-anchor="start" x="465" y="-785.4" font-family="Times New Roman,serif" font-size="12.00">this, that</text>
</a>
</g>
</g>
<!-- soIE&#45;&gt;olso -->
<g id="edge3" class="edge">
<title>soIE&#45;&gt;olso</title>
<path fill="none" stroke="black" d="M484,-777.97C484,-764.11 484,-747.78 484,-734.28"/>
<polygon fill="black" stroke="black" points="487.5,-734.16 484,-724.16 480.5,-734.16 487.5,-734.16"/>
</g>
<!-- ollusL -->
<g id="node5" class="node">
<title>ollusL</title>
<text text-anchor="start" x="458.5" y="-625.8" font-family="Times New Roman,serif" font-weight="bold" font-size="14.00">Archaic Latin</text>
<text text-anchor="start" x="487.5" y="-611.8" font-family="Times New Roman,serif" font-size="14.00" fill="red">ollus</text>
</g>
<!-- olso&#45;&gt;ollusL -->
<g id="edge4" class="edge">
<title>olso&#45;&gt;ollusL</title>
<path fill="none" stroke="black" d="M487.61,-687.61C489.87,-676.66 492.85,-662.31 495.42,-649.92"/>
<polygon fill="black" stroke="black" points="498.86,-650.59 497.46,-640.08 492,-649.17 498.86,-650.59"/>
</g>
<!-- illeL -->
<g id="node6" class="node">
<title>illeL</title>
<text text-anchor="start" x="517.5" y="-553.8" font-family="Times New Roman,serif" font-weight="bold" font-size="14.00">Latin</text>
<text text-anchor="start" x="499.5" y="-539.8" font-family="Times New Roman,serif" font-size="14.00" fill="red">ille, illa, illud</text>
<text text-anchor="start" x="506.5" y="-527.4" font-family="Times New Roman,serif" font-size="12.00">yonder, that</text>
</g>
<!-- ollusL&#45;&gt;illeL -->
<g id="edge5" class="edge">
<title>ollusL&#45;&gt;illeL</title>
<path fill="none" stroke="black" d="M508.49,-603.75C511.88,-595.95 515.99,-586.47 519.92,-577.42"/>
<polygon fill="black" stroke="black" points="523.14,-578.8 523.91,-568.23 516.72,-576.01 523.14,-578.8"/>
</g>
<!-- adillaL -->
<g id="node8" class="node">
<title>adillaL</title>
<text text-anchor="start" x="726.5" y="-456.3" font-family="Times New Roman,serif" font-size="14.00" fill="red">ad illa</text>
</g>
<!-- illeL&#45;&gt;adillaL -->
<g id="edge6" class="edge">
<title>illeL&#45;&gt;adillaL</title>
<path fill="none" stroke="black" d="M576.72,-531.55C612.43,-521.24 664.25,-504.58 707,-484 707.68,-483.67 708.36,-483.34 709.04,-482.99"/>
<polygon fill="black" stroke="black" points="710.81,-486.01 717.87,-478.12 707.42,-479.89 710.81,-486.01"/>
</g>
<!-- ilI -->
<g id="node24" class="node">
<title>ilI</title>
<text text-anchor="start" x="650" y="-469.8" font-family="Times New Roman,serif" font-weight="bold" font-size="14.00">Italian</text>
<text text-anchor="start" x="666.5" y="-455.8" font-family="Times New Roman,serif" font-size="14.00" fill="red">il</text>
<text text-anchor="start" x="663" y="-443.4" font-family="Times New Roman,serif" font-size="12.00">the</text>
</g>
<!-- illeL&#45;&gt;ilI -->
<g id="edge23" class="edge">
<title>illeL&#45;&gt;ilI</title>
<path fill="none" stroke="black" d="M573.13,-519.91C591.37,-509.09 613.35,-495.96 633,-484 633.09,-483.95 633.18,-483.89 633.27,-483.84"/>
<polygon fill="black" stroke="black" points="635.06,-486.85 641.75,-478.64 631.4,-480.88 635.06,-486.85"/>
</g>
<!-- elS -->
<g id="node28" class="node">
<title>elS</title>
<text text-anchor="start" x="462.5" y="-469.8" font-family="Times New Roman,serif" font-weight="bold" font-size="14.00">Spanish</text>
<text text-anchor="start" x="482" y="-455.8" font-family="Times New Roman,serif" font-size="14.00" fill="red">el</text>
<text text-anchor="start" x="480" y="-443.4" font-family="Times New Roman,serif" font-size="12.00">the</text>
</g>
<!-- illeL&#45;&gt;elS -->
<g id="edge28" class="edge">
<title>illeL&#45;&gt;elS</title>
<path fill="none" stroke="black" d="M520.66,-519.72C515.85,-511.34 510.35,-501.74 505.2,-492.76"/>
<polygon fill="black" stroke="black" points="508.22,-490.99 500.21,-484.05 502.15,-494.47 508.22,-490.99"/>
</g>
<!-- laOF -->
<g id="node35" class="node">
<title>laOF</title>
<text text-anchor="start" x="546" y="-463.8" font-family="Times New Roman,serif" font-weight="bold" font-size="14.00">Old French</text>
<text text-anchor="start" x="566.5" y="-449.8" font-family="Times New Roman,serif" font-size="14.00" fill="red">la, lai</text>
</g>
<!-- illeL&#45;&gt;laOF -->
<g id="edge34" class="edge">
<title>illeL&#45;&gt;laOF</title>
<path fill="none" stroke="black" d="M547.34,-519.72C553.22,-509.47 560.15,-497.38 566.18,-486.85"/>
<polygon fill="black" stroke="black" points="569.28,-488.49 571.21,-478.08 563.2,-485.01 569.28,-488.49"/>
</g>
<!-- laS -->
<g id="node42" class="node">
<title>laS</title>
<text text-anchor="start" x="290.5" y="-469.8" font-family="Times New Roman,serif" font-weight="bold" font-size="14.00">Spanish</text>
<text text-anchor="start" x="310" y="-455.8" font-family="Times New Roman,serif" font-size="14.00" fill="red">la</text>
<text text-anchor="start" x="308" y="-443.4" font-family="Times New Roman,serif" font-size="12.00">the</text>
</g>
<!-- illeL&#45;&gt;laS -->
<g id="edge41" class="edge">
<title>illeL&#45;&gt;laS</title>
<path fill="none" stroke="black" d="M491.36,-531.13C455,-520.46 401.68,-503.49 357,-484 356.9,-483.96 356.81,-483.92 356.71,-483.87"/>
<polygon fill="black" stroke="black" points="358.27,-480.74 347.73,-479.65 355.29,-487.07 358.27,-480.74"/>
</g>
<!-- adL -->
<g id="node7" class="node">
<title>adL</title>
<text text-anchor="start" x="753.5" y="-553.8" font-family="Times New Roman,serif" font-weight="bold" font-size="14.00">Latin</text>
<text text-anchor="start" x="763" y="-539.8" font-family="Times New Roman,serif" font-size="14.00" fill="red">ad</text>
<text text-anchor="start" x="765" y="-527.4" font-family="Times New Roman,serif" font-size="12.00">to</text>
</g>
<!-- adL&#45;&gt;adillaL -->
<g id="edge7" class="edge">
<title>adL&#45;&gt;adillaL</title>
<path fill="none" stroke="black" d="M762.34,-519.72C759.06,-509.78 755.22,-498.11 751.83,-487.81"/>
<polygon fill="black" stroke="black" points="755.08,-486.48 748.62,-478.08 748.43,-488.67 755.08,-486.48"/>
</g>
<!-- aI -->
<g id="node25" class="node">
<title>aI</title>
<text text-anchor="start" x="796" y="-469.8" font-family="Times New Roman,serif" font-weight="bold" font-size="14.00">Italian</text>
<text text-anchor="start" x="812.5" y="-455.8" font-family="Times New Roman,serif" font-size="14.00" fill="red">a</text>
<text text-anchor="start" x="804.5" y="-443.4" font-family="Times New Roman,serif" font-size="12.00">to, in</text>
</g>
<!-- adL&#45;&gt;aI -->
<g id="edge24" class="edge">
<title>adL&#45;&gt;aI</title>
<path fill="none" stroke="black" d="M783.06,-519.72C787.71,-511.43 793.04,-501.94 798.03,-493.04"/>
<polygon fill="black" stroke="black" points="801.23,-494.49 803.07,-484.05 795.12,-491.06 801.23,-494.49"/>
</g>
<!-- allaOI -->
<g id="node9" class="node">
<title>allaOI</title>
<text text-anchor="start" x="908.5" y="-385.8" font-family="Times New Roman,serif" font-weight="bold" font-size="14.00">Old Italian</text>
<text text-anchor="start" x="932.5" y="-371.8" font-family="Times New Roman,serif" font-size="14.00" fill="red">alla</text>
<text text-anchor="start" x="929" y="-359.4" font-family="Times New Roman,serif" font-size="12.00">to the</text>
</g>
<!-- adillaL&#45;&gt;allaOI -->
<g id="edge8" class="edge">
<title>adillaL&#45;&gt;allaOI</title>
<path fill="none" stroke="black" d="M768.16,-441.95C771.73,-439.82 775.41,-437.77 779,-436 815.08,-418.22 857.93,-402.92 890.63,-392.36"/>
<polygon fill="black" stroke="black" points="891.97,-395.61 900.44,-389.24 889.85,-388.94 891.97,-395.61"/>
</g>
<!-- allarmeOI -->
<g id="node10" class="node">
<title>allarmeOI</title>
<text text-anchor="start" x="884.5" y="-294.8" font-family="Times New Roman,serif" font-size="14.00" fill="red">all&#39;arme, allarme</text>
<text text-anchor="start" x="912" y="-282.4" font-family="Times New Roman,serif" font-size="12.00">to arms</text>
</g>
<!-- allaOI&#45;&gt;allarmeOI -->
<g id="edge9" class="edge">
<title>allaOI&#45;&gt;allarmeOI</title>
<path fill="none" stroke="black" d="M938.31,-351.72C936.75,-341.88 934.92,-330.36 933.3,-320.13"/>
<polygon fill="black" stroke="black" points="936.73,-319.41 931.71,-310.08 929.82,-320.5 936.73,-319.41"/>
</g>
<!-- allertaI -->
<g id="node21" class="node">
<title>allertaI</title>
<text text-anchor="start" x="1021" y="-301.8" font-family="Times New Roman,serif" font-weight="bold" font-size="14.00">Italian</text>
<text text-anchor="start" x="1021" y="-287.8" font-family="Times New Roman,serif" font-size="14.00" fill="red">all&#39; erta</text>
<text text-anchor="start" x="1008" y="-275.4" font-family="Times New Roman,serif" font-size="12.00">on the lookout</text>
</g>
<!-- allaOI&#45;&gt;allertaI -->
<g id="edge19" class="edge">
<title>allaOI&#45;&gt;allertaI</title>
<path fill="none" stroke="black" d="M969.84,-351.94C980.81,-342.86 993.54,-332.31 1005.18,-322.67"/>
<polygon fill="black" stroke="black" points="1007.56,-325.25 1013.03,-316.17 1003.09,-319.85 1007.56,-325.25"/>
</g>
<!-- alarmeOF -->
<g id="node11" class="node">
<title>alarmeOF</title>
<text text-anchor="start" x="894" y="-205.8" font-family="Times New Roman,serif" font-weight="bold" font-size="14.00">Old French</text>
<text text-anchor="start" x="910.5" y="-191.8" font-family="Times New Roman,serif" font-size="14.00" fill="red">alarme</text>
</g>
<!-- allarmeOI&#45;&gt;alarmeOF -->
<g id="edge10" class="edge">
<title>allarmeOI&#45;&gt;alarmeOF</title>
<path fill="none" stroke="black" stroke-dasharray="5,2" d="M929,-273.61C929,-261.24 929,-244.37 929,-230.22"/>
<polygon fill="black" stroke="black" points="932.5,-230.05 929,-220.05 925.5,-230.05 932.5,-230.05"/>
</g>
<!-- alarmME -->
<g id="node12" class="node">
<title>alarmME</title>
<text text-anchor="start" x="907.5" y="-121.8" font-family="Times New Roman,serif" font-weight="bold" font-size="14.00">Middle</text>
<text text-anchor="start" x="906" y="-107.8" font-family="Times New Roman,serif" font-weight="bold" font-size="14.00">English</text>
<text text-anchor="start" x="913.5" y="-93.8" font-family="Times New Roman,serif" font-size="14.00" fill="red">alarm</text>
</g>
<!-- alarmeOF&#45;&gt;alarmME -->
<g id="edge11" class="edge">
<title>alarmeOF&#45;&gt;alarmME</title>
<path fill="none" stroke="black" stroke-dasharray="5,2" d="M929,-183.84C929,-173.26 929,-159.32 929,-146.54"/>
<polygon fill="black" stroke="black" points="932.5,-146.17 929,-136.17 925.5,-146.17 932.5,-146.17"/>
</g>
<!-- alarm -->
<g id="node13" class="node">
<title>alarm</title>
<text text-anchor="start" x="904.5" y="-35.8" font-family="Times New Roman,serif" font-weight="bold" font-size="14.00">Modern</text>
<text text-anchor="start" x="906" y="-21.8" font-family="Times New Roman,serif" font-weight="bold" font-size="14.00">English</text>
<text text-anchor="start" x="913.5" y="-7.8" font-family="Times New Roman,serif" font-size="14.00" fill="red">alarm</text>
</g>
<!-- alarmME&#45;&gt;alarm -->
<g id="edge12" class="edge">
<title>alarmME&#45;&gt;alarm</title>
<path fill="none" stroke="black" d="M929,-85.7C929,-77.78 929,-68.83 929,-60.31"/>
<polygon fill="black" stroke="black" points="932.5,-60.24 929,-50.24 925.5,-60.24 932.5,-60.24"/>
</g>
<!-- regIE -->
<g id="node14" class="node">
<title>regIE</title>
<g id="a_node14"><a xlink:href="reg-rule.svg" xlink:title="&lt;b&gt;Indo&#45;&lt;br/&gt;European&lt;/b&gt;&lt;br/&gt;&lt;font color=&quot;red&quot;&gt;*reg&#45;&lt;/font&gt;&lt;br/&gt;&lt;font point&#45;size=&quot;12&quot;&gt;to move in&lt;br/&gt;a straight line&lt;/font&gt;">
<path fill="none" stroke="black" stroke-dasharray="5,2" d="M1119.5,-846C1119.5,-846 1066.5,-846 1066.5,-846 1060.5,-846 1054.5,-840 1054.5,-834 1054.5,-834 1054.5,-784 1054.5,-784 1054.5,-778 1060.5,-772 1066.5,-772 1066.5,-772 1119.5,-772 1119.5,-772 1125.5,-772 1131.5,-778 1131.5,-784 1131.5,-784 1131.5,-834 1131.5,-834 1131.5,-840 1125.5,-846 1119.5,-846"/>
<text text-anchor="start" x="1076.5" y="-831.8" font-family="Times New Roman,serif" font-weight="bold" font-size="14.00">Indo&#45;</text>
<text text-anchor="start" x="1062.5" y="-817.8" font-family="Times New Roman,serif" font-weight="bold" font-size="14.00">European</text>
<text text-anchor="start" x="1078.5" y="-803.8" font-family="Times New Roman,serif" font-size="14.00" fill="red">*reg&#45;</text>
<text text-anchor="start" x="1069" y="-791.4" font-family="Times New Roman,serif" font-size="12.00">to move in</text>
<text text-anchor="start" x="1063.5" y="-779.4" font-family="Times New Roman,serif" font-size="12.00">a straight line</text>
</a>
</g>
</g>
<!-- regereL -->
<g id="node15" class="node">
<title>regereL</title>
<text text-anchor="start" x="1075.5" y="-721.8" font-family="Times New Roman,serif" font-weight="bold" font-size="14.00">Latin</text>
<text text-anchor="start" x="1075" y="-707.8" font-family="Times New Roman,serif" font-size="14.00" fill="red">regere</text>
<text text-anchor="start" x="1057" y="-695.4" font-family="Times New Roman,serif" font-size="12.00">to lead straight,</text>
<text text-anchor="start" x="1073.5" y="-683.4" font-family="Times New Roman,serif" font-size="12.00">to guide</text>
</g>
<!-- regIE&#45;&gt;regereL -->
<g id="edge13" class="edge">
<title>regIE&#45;&gt;regereL</title>
<path fill="none" stroke="black" d="M1092.64,-771.82C1092.56,-763.62 1092.47,-754.88 1092.39,-746.55"/>
<polygon fill="black" stroke="black" points="1095.89,-746.26 1092.29,-736.29 1088.89,-746.32 1095.89,-746.26"/>
</g>
<!-- erigereL -->
<g id="node18" class="node">
<title>erigereL</title>
<text text-anchor="start" x="1022.5" y="-624.8" font-family="Times New Roman,serif" font-size="14.00" fill="red">ērigere</text>
<text text-anchor="start" x="1021" y="-612.4" font-family="Times New Roman,serif" font-size="12.00">to set up</text>
</g>
<!-- regereL&#45;&gt;erigereL -->
<g id="edge15" class="edge">
<title>regereL&#45;&gt;erigereL</title>
<path fill="none" stroke="black" d="M1073.88,-675.86C1068.35,-666.98 1062.32,-657.28 1056.95,-648.65"/>
<polygon fill="black" stroke="black" points="1059.9,-646.76 1051.64,-640.11 1053.95,-650.45 1059.9,-646.76"/>
</g>
<!-- eghsIE -->
<g id="node16" class="node">
<title>eghsIE</title>
<g id="a_node16"><a xlink:href="eghs-out.svg" xlink:title="&lt;b&gt;Indo&#45;&lt;br/&gt;European&lt;/b&gt;&lt;br/&gt;&lt;font color=&quot;red&quot;&gt;*eghs&lt;/font&gt;&lt;br/&gt;&lt;font point&#45;size=&quot;12&quot;&gt;out&lt;/font&gt;">
<path fill="none" stroke="black" stroke-dasharray="5,2" d="M1024.5,-840C1024.5,-840 971.5,-840 971.5,-840 965.5,-840 959.5,-834 959.5,-828 959.5,-828 959.5,-790 959.5,-790 959.5,-784 965.5,-778 971.5,-778 971.5,-778 1024.5,-778 1024.5,-778 1030.5,-778 1036.5,-784 1036.5,-790 1036.5,-790 1036.5,-828 1036.5,-828 1036.5,-834 1030.5,-840 1024.5,-840"/>
<text text-anchor="start" x="981.5" y="-825.8" font-family="Times New Roman,serif" font-weight="bold" font-size="14.00">Indo&#45;</text>
<text text-anchor="start" x="967.5" y="-811.8" font-family="Times New Roman,serif" font-weight="bold" font-size="14.00">European</text>
<text text-anchor="start" x="981.5" y="-797.8" font-family="Times New Roman,serif" font-size="14.00" fill="red">*eghs</text>
<text text-anchor="start" x="990.5" y="-785.4" font-family="Times New Roman,serif" font-size="12.00">out</text>
</a>
</g>
</g>
<!-- exL -->
<g id="node17" class="node">
<title>exL</title>
<text text-anchor="start" x="982.5" y="-709.8" font-family="Times New Roman,serif" font-weight="bold" font-size="14.00">Latin</text>
<text text-anchor="start" x="976" y="-695.8" font-family="Times New Roman,serif" font-size="14.00" fill="red">ex&#45;, ēre&#45;</text>
</g>
<!-- eghsIE&#45;&gt;exL -->
<g id="edge14" class="edge">
<title>eghsIE&#45;&gt;exL</title>
<path fill="none" stroke="black" d="M998.3,-777.97C998.43,-764.11 998.6,-747.78 998.73,-734.28"/>
<polygon fill="black" stroke="black" points="1002.23,-734.2 998.83,-724.16 995.23,-734.13 1002.23,-734.2"/>
</g>
<!-- exL&#45;&gt;erigereL -->
<g id="edge16" class="edge">
<title>exL&#45;&gt;erigereL</title>
<path fill="none" stroke="black" d="M1007.91,-687.61C1013.63,-676.45 1021.16,-661.74 1027.59,-649.18"/>
<polygon fill="black" stroke="black" points="1030.81,-650.58 1032.25,-640.08 1024.58,-647.39 1030.81,-650.58"/>
</g>
<!-- ergereI -->
<g id="node19" class="node">
<title>ergereI</title>
<text text-anchor="start" x="1021" y="-553.8" font-family="Times New Roman,serif" font-weight="bold" font-size="14.00">Italian</text>
<text text-anchor="start" x="1024" y="-539.8" font-family="Times New Roman,serif" font-size="14.00" fill="red">ergere</text>
<text text-anchor="start" x="1024" y="-527.4" font-family="Times New Roman,serif" font-size="12.00">to raise</text>
</g>
<!-- erigereL&#45;&gt;ergereI -->
<g id="edge17" class="edge">
<title>erigereL&#45;&gt;ergereI</title>
<path fill="none" stroke="black" d="M1041,-603.75C1041,-596.2 1041,-587.07 1041,-578.28"/>
<polygon fill="black" stroke="black" points="1044.5,-578.23 1041,-568.23 1037.5,-578.23 1044.5,-578.23"/>
</g>
<!-- ertaI -->
<g id="node20" class="node">
<title>ertaI</title>
<text text-anchor="start" x="1030.5" y="-378.8" font-family="Times New Roman,serif" font-size="14.00" fill="red">erta</text>
<text text-anchor="start" x="1023.5" y="-366.4" font-family="Times New Roman,serif" font-size="12.00">lookout</text>
</g>
<!-- ergereI&#45;&gt;ertaI -->
<g id="edge18" class="edge">
<title>ergereI&#45;&gt;ertaI</title>
<path fill="none" stroke="black" d="M1041,-519.92C1041,-489.66 1041,-436.67 1041,-404.41"/>
<polygon fill="black" stroke="black" points="1044.5,-404.32 1041,-394.32 1037.5,-404.32 1044.5,-404.32"/>
</g>
<!-- ertaI&#45;&gt;allertaI -->
<g id="edge20" class="edge">
<title>ertaI&#45;&gt;allertaI</title>
<path fill="none" stroke="black" d="M1041,-357.61C1041,-348.58 1041,-337.24 1041,-326.59"/>
<polygon fill="black" stroke="black" points="1044.5,-326.28 1041,-316.28 1037.5,-326.28 1044.5,-326.28"/>
</g>
<!-- alerteF -->
<g id="node22" class="node">
<title>alerteF</title>
<text text-anchor="start" x="1019" y="-114.8" font-family="Times New Roman,serif" font-weight="bold" font-size="14.00">French</text>
<text text-anchor="start" x="1026" y="-100.8" font-family="Times New Roman,serif" font-size="14.00" fill="red">alerte</text>
</g>
<!-- allertaI&#45;&gt;alerteF -->
<g id="edge21" class="edge">
<title>allertaI&#45;&gt;alerteF</title>
<path fill="none" stroke="black" stroke-dasharray="5,2" d="M1041,-267.97C1041,-234.93 1041,-174.23 1041,-139.09"/>
<polygon fill="black" stroke="black" points="1044.5,-139.07 1041,-129.07 1037.5,-139.07 1044.5,-139.07"/>
</g>
<!-- alert -->
<g id="node23" class="node">
<title>alert</title>
<text text-anchor="start" x="1016.5" y="-35.8" font-family="Times New Roman,serif" font-weight="bold" font-size="14.00">Modern</text>
<text text-anchor="start" x="1018" y="-21.8" font-family="Times New Roman,serif" font-weight="bold" font-size="14.00">English</text>
<text text-anchor="start" x="1029" y="-7.8" font-family="Times New Roman,serif" font-size="14.00" fill="red">alert</text>
</g>
<!-- alerteF&#45;&gt;alert -->
<g id="edge22" class="edge">
<title>alerteF&#45;&gt;alert</title>
<path fill="none" stroke="black" stroke-dasharray="5,2" d="M1041,-92.6C1041,-83.27 1041,-71.45 1041,-60.37"/>
<polygon fill="black" stroke="black" points="1044.5,-60.07 1041,-50.07 1037.5,-60.07 1044.5,-60.07"/>
</g>
<!-- alfrescoI -->
<g id="node26" class="node">
<title>alfrescoI</title>
<text text-anchor="start" x="671.5" y="-378.8" font-family="Times New Roman,serif" font-size="14.00" fill="red">al fresco</text>
<text text-anchor="start" x="660.5" y="-366.4" font-family="Times New Roman,serif" font-size="12.00">in the fresh (air)</text>
</g>
<!-- ilI&#45;&gt;alfrescoI -->
<g id="edge25" class="edge">
<title>ilI&#45;&gt;alfrescoI</title>
<path fill="none" stroke="black" d="M677.38,-435.72C680.53,-425.78 684.23,-414.11 687.5,-403.81"/>
<polygon fill="black" stroke="black" points="690.9,-404.67 690.59,-394.08 684.23,-402.55 690.9,-404.67"/>
</g>
<!-- aI&#45;&gt;alfrescoI -->
<g id="edge26" class="edge">
<title>aI&#45;&gt;alfrescoI</title>
<path fill="none" stroke="black" d="M787.87,-439.77C770.48,-427.9 748.07,-412.58 729.74,-400.05"/>
<polygon fill="black" stroke="black" points="731.33,-396.91 721.1,-394.15 727.39,-402.69 731.33,-396.91"/>
</g>
<!-- alfresco -->
<g id="node27" class="node">
<title>alfresco</title>
<text text-anchor="start" x="671.5" y="-35.8" font-family="Times New Roman,serif" font-weight="bold" font-size="14.00">Modern</text>
<text text-anchor="start" x="673" y="-21.8" font-family="Times New Roman,serif" font-weight="bold" font-size="14.00">English</text>
<text text-anchor="start" x="673.5" y="-7.8" font-family="Times New Roman,serif" font-size="14.00" fill="red">alfresco</text>
</g>
<!-- alfrescoI&#45;&gt;alfresco -->
<g id="edge27" class="edge">
<title>alfrescoI&#45;&gt;alfresco</title>
<path fill="none" stroke="black" stroke-dasharray="5,2" d="M696,-357.69C696,-303.03 696,-133.35 696,-60.17"/>
<polygon fill="black" stroke="black" points="699.5,-60.1 696,-50.1 692.5,-60.1 699.5,-60.1"/>
</g>
<!-- ellagartoS -->
<g id="node29" class="node">
<title>ellagartoS</title>
<text text-anchor="start" x="464.5" y="-113.8" font-family="Times New Roman,serif" font-size="14.00" fill="red">el lagarto</text>
<text text-anchor="start" x="469.5" y="-101.4" font-family="Times New Roman,serif" font-size="12.00">the lizard</text>
</g>
<!-- elS&#45;&gt;ellagartoS -->
<g id="edge29" class="edge">
<title>elS&#45;&gt;ellagartoS</title>
<path fill="none" stroke="black" d="M487.2,-435.96C487.73,-374.31 489.19,-205.71 489.76,-139.35"/>
<polygon fill="black" stroke="black" points="493.26,-139.29 489.85,-129.26 486.26,-139.23 493.26,-139.29"/>
</g>
<!-- alligator -->
<g id="node30" class="node">
<title>alligator</title>
<text text-anchor="start" x="465.5" y="-35.8" font-family="Times New Roman,serif" font-weight="bold" font-size="14.00">Modern</text>
<text text-anchor="start" x="467" y="-21.8" font-family="Times New Roman,serif" font-weight="bold" font-size="14.00">English</text>
<text text-anchor="start" x="468" y="-7.8" font-family="Times New Roman,serif" font-size="14.00" fill="red">alligator</text>
</g>
<!-- ellagartoS&#45;&gt;alligator -->
<g id="edge30" class="edge">
<title>ellagartoS&#45;&gt;alligator</title>
<path fill="none" stroke="black" stroke-dasharray="5,2" d="M490,-92.6C490,-83.27 490,-71.45 490,-60.37"/>
<polygon fill="black" stroke="black" points="493.5,-60.07 490,-50.07 486.5,-60.07 493.5,-60.07"/>
</g>
<!-- weidIE -->
<g id="node31" class="node">
<title>weidIE</title>
<g id="a_node31"><a xlink:href="weid-see3.svg" xlink:title="&lt;b&gt;Indo&#45;&lt;br/&gt;European&lt;/b&gt;&lt;br/&gt;&lt;font color=&quot;red&quot;&gt;*weid&#45;&lt;/font&gt;&lt;br/&gt;&lt;font point&#45;size=&quot;12&quot;&gt;to see&lt;/font&gt;">
<path fill="none" stroke="black" stroke-dasharray="5,2" d="M898.5,-840C898.5,-840 845.5,-840 845.5,-840 839.5,-840 833.5,-834 833.5,-828 833.5,-828 833.5,-790 833.5,-790 833.5,-784 839.5,-778 845.5,-778 845.5,-778 898.5,-778 898.5,-778 904.5,-778 910.5,-784 910.5,-790 910.5,-790 910.5,-828 910.5,-828 910.5,-834 904.5,-840 898.5,-840"/>
<text text-anchor="start" x="855.5" y="-825.8" font-family="Times New Roman,serif" font-weight="bold" font-size="14.00">Indo&#45;</text>
<text text-anchor="start" x="841.5" y="-811.8" font-family="Times New Roman,serif" font-weight="bold" font-size="14.00">European</text>
<text text-anchor="start" x="853" y="-797.8" font-family="Times New Roman,serif" font-size="14.00" fill="red">*weid&#45;</text>
<text text-anchor="start" x="858" y="-785.4" font-family="Times New Roman,serif" font-size="12.00">to see</text>
</a>
</g>
</g>
<!-- videreL -->
<g id="node32" class="node">
<title>videreL</title>
<text text-anchor="start" x="855.5" y="-709.8" font-family="Times New Roman,serif" font-weight="bold" font-size="14.00">Latin</text>
<text text-anchor="start" x="855" y="-695.8" font-family="Times New Roman,serif" font-size="14.00" fill="red">vidēre</text>
</g>
<!-- weidIE&#45;&gt;videreL -->
<g id="edge31" class="edge">
<title>weidIE&#45;&gt;videreL</title>
<path fill="none" stroke="black" d="M872,-777.97C872,-764.11 872,-747.78 872,-734.28"/>
<polygon fill="black" stroke="black" points="875.5,-734.16 872,-724.16 868.5,-734.16 875.5,-734.16"/>
</g>
<!-- voirOF -->
<g id="node33" class="node">
<title>voirOF</title>
<text text-anchor="start" x="837" y="-625.8" font-family="Times New Roman,serif" font-weight="bold" font-size="14.00">Old French</text>
<text text-anchor="start" x="861" y="-611.8" font-family="Times New Roman,serif" font-size="14.00" fill="red">voir</text>
</g>
<!-- videreL&#45;&gt;voirOF -->
<g id="edge32" class="edge">
<title>videreL&#45;&gt;voirOF</title>
<path fill="none" stroke="black" d="M872,-687.61C872,-676.77 872,-662.6 872,-650.29"/>
<polygon fill="black" stroke="black" points="875.5,-650.08 872,-640.08 868.5,-650.08 875.5,-650.08"/>
</g>
<!-- voirF -->
<g id="node34" class="node">
<title>voirF</title>
<text text-anchor="start" x="850" y="-547.8" font-family="Times New Roman,serif" font-weight="bold" font-size="14.00">French</text>
<text text-anchor="start" x="861" y="-533.8" font-family="Times New Roman,serif" font-size="14.00" fill="red">voir</text>
</g>
<!-- voirOF&#45;&gt;voirF -->
<g id="edge33" class="edge">
<title>voirOF&#45;&gt;voirF</title>
<path fill="none" stroke="black" d="M872,-603.75C872,-594.52 872,-582.93 872,-572.49"/>
<polygon fill="black" stroke="black" points="875.5,-572.18 872,-562.18 868.5,-572.18 875.5,-572.18"/>
</g>
<!-- voilaF -->
<g id="node37" class="node">
<title>voilaF</title>
<text text-anchor="start" x="755" y="-294.8" font-family="Times New Roman,serif" font-size="14.00" fill="red">voi là, voilà</text>
<text text-anchor="start" x="764" y="-282.4" font-family="Times New Roman,serif" font-size="12.00">look there</text>
</g>
<!-- voirF&#45;&gt;voilaF -->
<g id="edge36" class="edge">
<title>voirF&#45;&gt;voilaF</title>
<path fill="none" stroke="black" d="M870.3,-525.63C867.89,-504.18 862.66,-466.78 853,-436 839.67,-393.53 816.6,-347.24 801.57,-319.17"/>
<polygon fill="black" stroke="black" points="804.46,-317.16 796.62,-310.04 798.31,-320.5 804.46,-317.16"/>
</g>
<!-- laF -->
<g id="node36" class="node">
<title>laF</title>
<text text-anchor="start" x="574" y="-385.8" font-family="Times New Roman,serif" font-weight="bold" font-size="14.00">French</text>
<text text-anchor="start" x="591" y="-371.8" font-family="Times New Roman,serif" font-size="14.00" fill="red">là</text>
<text text-anchor="start" x="584.5" y="-359.4" font-family="Times New Roman,serif" font-size="12.00">there</text>
</g>
<!-- laOF&#45;&gt;laF -->
<g id="edge35" class="edge">
<title>laOF&#45;&gt;laF</title>
<path fill="none" stroke="black" d="M584.18,-441.61C585.85,-432.49 587.95,-421 589.92,-410.26"/>
<polygon fill="black" stroke="black" points="593.39,-410.75 591.74,-400.28 586.5,-409.49 593.39,-410.75"/>
</g>
<!-- laF&#45;&gt;voilaF -->
<g id="edge37" class="edge">
<title>laF&#45;&gt;voilaF</title>
<path fill="none" stroke="black" d="M626.1,-360.27C632,-357.46 638.18,-354.59 644,-352 674.83,-338.27 709.86,-323.8 737.53,-312.62"/>
<polygon fill="black" stroke="black" points="739.02,-315.8 746.99,-308.82 736.41,-309.3 739.02,-315.8"/>
</g>
<!-- houplaF -->
<g id="node39" class="node">
<title>houplaF</title>
<text text-anchor="start" x="574.5" y="-113.8" font-family="Times New Roman,serif" font-size="14.00" fill="red">houp&#45;là</text>
<text text-anchor="start" x="569.5" y="-101.4" font-family="Times New Roman,serif" font-size="12.00">upsy&#45;daisy!</text>
</g>
<!-- laF&#45;&gt;houplaF -->
<g id="edge39" class="edge">
<title>laF&#45;&gt;houplaF</title>
<path fill="none" stroke="black" d="M596,-351.66C596,-303.07 596,-191.27 596,-139.38"/>
<polygon fill="black" stroke="black" points="599.5,-139.26 596,-129.26 592.5,-139.26 599.5,-139.26"/>
</g>
<!-- voila -->
<g id="node38" class="node">
<title>voila</title>
<text text-anchor="start" x="762.5" y="-35.8" font-family="Times New Roman,serif" font-weight="bold" font-size="14.00">Modern</text>
<text text-anchor="start" x="764" y="-21.8" font-family="Times New Roman,serif" font-weight="bold" font-size="14.00">English</text>
<text text-anchor="start" x="773.5" y="-7.8" font-family="Times New Roman,serif" font-size="14.00" fill="red">voilà</text>
</g>
<!-- voilaF&#45;&gt;voila -->
<g id="edge38" class="edge">
<title>voilaF&#45;&gt;voila</title>
<path fill="none" stroke="black" stroke-dasharray="5,2" d="M787,-273.61C787,-230.45 787,-117.77 787,-60.5"/>
<polygon fill="black" stroke="black" points="790.5,-60.15 787,-50.15 783.5,-60.15 790.5,-60.15"/>
</g>
<!-- hoopla -->
<g id="node40" class="node">
<title>hoopla</title>
<text text-anchor="start" x="571.5" y="-35.8" font-family="Times New Roman,serif" font-weight="bold" font-size="14.00">Modern</text>
<text text-anchor="start" x="573" y="-21.8" font-family="Times New Roman,serif" font-weight="bold" font-size="14.00">English</text>
<text text-anchor="start" x="576.5" y="-7.8" font-family="Times New Roman,serif" font-size="14.00" fill="red">hoopla</text>
</g>
<!-- houplaF&#45;&gt;hoopla -->
<g id="edge40" class="edge">
<title>houplaF&#45;&gt;hoopla</title>
<path fill="none" stroke="black" stroke-dasharray="5,2" d="M596,-92.6C596,-83.27 596,-71.45 596,-60.37"/>
<polygon fill="black" stroke="black" points="599.5,-60.07 596,-50.07 592.5,-60.07 599.5,-60.07"/>
</g>
<!-- yapaQ -->
<g id="node41" class="node">
<title>yapaQ</title>
<text text-anchor="start" x="373.5" y="-469.8" font-family="Times New Roman,serif" font-weight="bold" font-size="14.00" fill="green">Quechua</text>
<text text-anchor="start" x="387.5" y="-455.8" font-family="Times New Roman,serif" font-size="14.00" fill="red">yapa</text>
<text text-anchor="start" x="394" y="-443.4" font-family="Times New Roman,serif" font-size="12.00">gift</text>
</g>
<!-- lanapaS -->
<g id="node43" class="node">
<title>lanapaS</title>
<text text-anchor="start" x="342" y="-385.8" font-family="Times New Roman,serif" font-weight="bold" font-size="14.00">American Spanish</text>
<text text-anchor="start" x="378" y="-371.8" font-family="Times New Roman,serif" font-size="14.00" fill="red">la ñapa</text>
<text text-anchor="start" x="382.5" y="-359.4" font-family="Times New Roman,serif" font-size="12.00">the gift</text>
</g>
<!-- yapaQ&#45;&gt;lanapaS -->
<g id="edge43" class="edge">
<title>yapaQ&#45;&gt;lanapaS</title>
<path fill="none" stroke="black" stroke-dasharray="5,2" d="M400.15,-435.72C399.86,-427.78 399.53,-418.73 399.21,-410.16"/>
<polygon fill="black" stroke="black" points="402.71,-409.92 398.84,-400.05 395.71,-410.17 402.71,-409.92"/>
</g>
<!-- laS&#45;&gt;lanapaS -->
<g id="edge42" class="edge">
<title>laS&#45;&gt;lanapaS</title>
<path fill="none" stroke="black" d="M338.56,-435.72C347.49,-426.9 357.78,-416.73 367.27,-407.36"/>
<polygon fill="black" stroke="black" points="370.01,-409.57 374.67,-400.05 365.09,-404.59 370.01,-409.57"/>
</g>
<!-- lagniappeF -->
<g id="node44" class="node">
<title>lagniappeF</title>
<text text-anchor="start" x="346" y="-205.8" font-family="Times New Roman,serif" font-weight="bold" font-size="14.00">Louisiana French</text>
<text text-anchor="start" x="373.5" y="-191.8" font-family="Times New Roman,serif" font-size="14.00" fill="red">lagniappe</text>
</g>
<!-- lanapaS&#45;&gt;lagniappeF -->
<g id="edge44" class="edge">
<title>lanapaS&#45;&gt;lagniappeF</title>
<path fill="none" stroke="black" stroke-dasharray="5,2" d="M398.27,-351.8C398.64,-320.2 399.29,-263.7 399.68,-230.16"/>
<polygon fill="black" stroke="black" points="403.18,-230.17 399.8,-220.13 396.18,-230.09 403.18,-230.17"/>
</g>
<!-- lagniappe -->
<g id="node45" class="node">
<title>lagniappe</title>
<text text-anchor="start" x="375.5" y="-35.8" font-family="Times New Roman,serif" font-weight="bold" font-size="14.00">Modern</text>
<text text-anchor="start" x="377" y="-21.8" font-family="Times New Roman,serif" font-weight="bold" font-size="14.00">English</text>
<text text-anchor="start" x="373.5" y="-7.8" font-family="Times New Roman,serif" font-size="14.00" fill="red">lagniappe</text>
</g>
<!-- lagniappeF&#45;&gt;lagniappe -->
<g id="edge45" class="edge">
<title>lagniappeF&#45;&gt;lagniappe</title>
<path fill="none" stroke="black" stroke-dasharray="5,2" d="M400,-183.9C400,-155.41 400,-97.68 400,-60.48"/>
<polygon fill="black" stroke="black" points="403.5,-60.11 400,-50.11 396.5,-60.11 403.5,-60.11"/>
</g>
<!-- ultraL -->
<g id="node47" class="node">
<title>ultraL</title>
<text text-anchor="start" x="216.5" y="-385.8" font-family="Times New Roman,serif" font-weight="bold" font-size="14.00">Latin</text>
<text text-anchor="start" x="190" y="-371.8" font-family="Times New Roman,serif" font-size="14.00" fill="red">uls, *ulter, ultrā</text>
<text text-anchor="start" x="216" y="-359.4" font-family="Times New Roman,serif" font-size="12.00">beyond</text>
</g>
<!-- ols&#45;&gt;ultraL -->
<g id="edge47" class="edge">
<title>ols&#45;&gt;ultraL</title>
<path fill="none" stroke="black" d="M318.41,-603.71C308.51,-577.73 289.23,-527.09 273,-484 263.65,-459.17 253.14,-431.06 245.25,-409.89"/>
<polygon fill="black" stroke="black" points="248.48,-408.54 241.71,-400.39 241.92,-410.98 248.48,-408.54"/>
</g>
<!-- outreOF -->
<g id="node48" class="node">
<title>outreOF</title>
<text text-anchor="start" x="26" y="-295.8" font-family="Times New Roman,serif" font-weight="bold" font-size="14.00">Old French</text>
<text text-anchor="start" x="46.5" y="-281.8" font-family="Times New Roman,serif" font-size="14.00" fill="red">outre</text>
</g>
<!-- ultraL&#45;&gt;outreOF -->
<g id="edge48" class="edge">
<title>ultraL&#45;&gt;outreOF</title>
<path fill="none" stroke="black" d="M184.63,-351.94C159.98,-340.19 130.2,-325.99 106.04,-314.47"/>
<polygon fill="black" stroke="black" points="107.27,-311.18 96.74,-310.04 104.26,-317.5 107.27,-311.18"/>
</g>
<!-- ulteriorL -->
<g id="node52" class="node">
<title>ulteriorL</title>
<text text-anchor="start" x="118" y="-204.8" font-family="Times New Roman,serif" font-size="14.00" fill="red">ulterior</text>
<text text-anchor="start" x="123" y="-192.4" font-family="Times New Roman,serif" font-size="12.00">farther</text>
</g>
<!-- ultraL&#45;&gt;ulteriorL -->
<g id="edge52" class="edge">
<title>ultraL&#45;&gt;ulteriorL</title>
<path fill="none" stroke="black" d="M217.77,-351.74C210.9,-340.99 202.81,-327.98 196,-316 179.4,-286.82 162.03,-252.38 150.68,-229.26"/>
<polygon fill="black" stroke="black" points="153.73,-227.54 146.2,-220.09 147.44,-230.61 153.73,-227.54"/>
</g>
<!-- ultimusL -->
<g id="node54" class="node">
<title>ultimusL</title>
<text text-anchor="start" x="213" y="-294.8" font-family="Times New Roman,serif" font-size="14.00" fill="red">ultimus</text>
<text text-anchor="start" x="225" y="-282.4" font-family="Times New Roman,serif" font-size="12.00">last</text>
</g>
<!-- ultraL&#45;&gt;ultimusL -->
<g id="edge54" class="edge">
<title>ultraL&#45;&gt;ultimusL</title>
<path fill="none" stroke="black" d="M233,-351.72C233,-341.88 233,-330.36 233,-320.13"/>
<polygon fill="black" stroke="black" points="236.5,-320.08 233,-310.08 229.5,-320.08 236.5,-320.08"/>
</g>
<!-- ultra -->
<g id="node58" class="node">
<title>ultra</title>
<text text-anchor="start" x="285.5" y="-35.8" font-family="Times New Roman,serif" font-weight="bold" font-size="14.00">Modern</text>
<text text-anchor="start" x="287" y="-21.8" font-family="Times New Roman,serif" font-weight="bold" font-size="14.00">English</text>
<text text-anchor="start" x="295.5" y="-7.8" font-family="Times New Roman,serif" font-size="14.00" fill="red">ultra&#45;</text>
</g>
<!-- ultraL&#45;&gt;ultra -->
<g id="edge58" class="edge">
<title>ultraL&#45;&gt;ultra</title>
<path fill="none" stroke="black" stroke-dasharray="5,2" d="M249.91,-351.82C256.95,-341.31 264.69,-328.46 270,-316 306.94,-229.24 311.35,-115.91 310.97,-60.09"/>
<polygon fill="black" stroke="black" points="314.47,-60 310.85,-50.04 307.47,-60.08 314.47,-60"/>
</g>
<!-- outrerOF -->
<g id="node49" class="node">
<title>outrerOF</title>
<text text-anchor="start" x="29" y="-217.8" font-family="Times New Roman,serif" font-size="14.00" fill="red">outrer</text>
<text text-anchor="start" x="8" y="-205.4" font-family="Times New Roman,serif" font-size="12.00">to pass someone</text>
<text text-anchor="start" x="31.5" y="-191.8" font-family="Times New Roman,serif" font-size="14.00" fill="red">outré</text>
<text text-anchor="start" x="26" y="-179.4" font-family="Times New Roman,serif" font-size="12.00">defeated</text>
</g>
<!-- outreOF&#45;&gt;outrerOF -->
<g id="edge49" class="edge">
<title>outreOF&#45;&gt;outrerOF</title>
<path fill="none" stroke="black" d="M58.04,-273.61C56.49,-264.56 54.54,-253.11 52.66,-242.07"/>
<polygon fill="black" stroke="black" points="56.1,-241.4 50.97,-232.13 49.2,-242.58 56.1,-241.4"/>
</g>
<!-- outreF -->
<g id="node50" class="node">
<title>outreF</title>
<text text-anchor="start" x="24" y="-114.8" font-family="Times New Roman,serif" font-weight="bold" font-size="14.00">French</text>
<text text-anchor="start" x="31.5" y="-100.8" font-family="Times New Roman,serif" font-size="14.00" fill="red">outré</text>
</g>
<!-- outrerOF&#45;&gt;outreF -->
<g id="edge50" class="edge">
<title>outrerOF&#45;&gt;outreF</title>
<path fill="none" stroke="black" d="M46,-171.86C46,-161.4 46,-149.65 46,-139.35"/>
<polygon fill="black" stroke="black" points="49.5,-139.25 46,-129.25 42.5,-139.25 49.5,-139.25"/>
</g>
<!-- outre -->
<g id="node51" class="node">
<title>outre</title>
<text text-anchor="start" x="21.5" y="-35.8" font-family="Times New Roman,serif" font-weight="bold" font-size="14.00">Modern</text>
<text text-anchor="start" x="23" y="-21.8" font-family="Times New Roman,serif" font-weight="bold" font-size="14.00">English</text>
<text text-anchor="start" x="31.5" y="-7.8" font-family="Times New Roman,serif" font-size="14.00" fill="red">outré</text>
</g>
<!-- outreF&#45;&gt;outre -->
<g id="edge51" class="edge">
<title>outreF&#45;&gt;outre</title>
<path fill="none" stroke="black" stroke-dasharray="5,2" d="M46,-92.6C46,-83.27 46,-71.45 46,-60.37"/>
<polygon fill="black" stroke="black" points="49.5,-60.07 46,-50.07 42.5,-60.07 49.5,-60.07"/>
</g>
<!-- ulterior -->
<g id="node53" class="node">
<title>ulterior</title>
<text text-anchor="start" x="113.5" y="-35.8" font-family="Times New Roman,serif" font-weight="bold" font-size="14.00">Modern</text>
<text text-anchor="start" x="115" y="-21.8" font-family="Times New Roman,serif" font-weight="bold" font-size="14.00">English</text>
<text text-anchor="start" x="118" y="-7.8" font-family="Times New Roman,serif" font-size="14.00" fill="red">ulterior</text>
</g>
<!-- ulteriorL&#45;&gt;ulterior -->
<g id="edge53" class="edge">
<title>ulteriorL&#45;&gt;ulterior</title>
<path fill="none" stroke="black" stroke-dasharray="5,2" d="M138,-183.9C138,-155.41 138,-97.68 138,-60.48"/>
<polygon fill="black" stroke="black" points="141.5,-60.11 138,-50.11 134.5,-60.11 141.5,-60.11"/>
</g>
<!-- ultimareL -->
<g id="node55" class="node">
<title>ultimareL</title>
<text text-anchor="start" x="211" y="-204.8" font-family="Times New Roman,serif" font-size="14.00" fill="red">ultimāre</text>
<text text-anchor="start" x="192" y="-192.4" font-family="Times New Roman,serif" font-size="12.00">to come to an end</text>
</g>
<!-- ultimusL&#45;&gt;ultimareL -->
<g id="edge55" class="edge">
<title>ultimusL&#45;&gt;ultimareL</title>
<path fill="none" stroke="black" d="M233,-273.61C233,-261.24 233,-244.37 233,-230.22"/>
<polygon fill="black" stroke="black" points="236.5,-230.05 233,-220.05 229.5,-230.05 236.5,-230.05"/>
</g>
<!-- ultimatusL -->
<g id="node56" class="node">
<title>ultimatusL</title>
<text text-anchor="start" x="205" y="-113.8" font-family="Times New Roman,serif" font-size="14.00" fill="red">ultimātus</text>
<text text-anchor="start" x="216" y="-101.4" font-family="Times New Roman,serif" font-size="12.00">ended</text>
</g>
<!-- ultimareL&#45;&gt;ultimatusL -->
<g id="edge56" class="edge">
<title>ultimareL&#45;&gt;ultimatusL</title>
<path fill="none" stroke="black" d="M232.42,-183.84C232,-171.28 231.42,-153.98 230.93,-139.5"/>
<polygon fill="black" stroke="black" points="234.41,-138.98 230.58,-129.11 227.42,-139.22 234.41,-138.98"/>
</g>
<!-- ultimate -->
<g id="node57" class="node">
<title>ultimate</title>
<text text-anchor="start" x="202.5" y="-35.8" font-family="Times New Roman,serif" font-weight="bold" font-size="14.00">Modern</text>
<text text-anchor="start" x="204" y="-21.8" font-family="Times New Roman,serif" font-weight="bold" font-size="14.00">English</text>
<text text-anchor="start" x="205.5" y="-7.8" font-family="Times New Roman,serif" font-size="14.00" fill="red">ultimate</text>
</g>
<!-- ultimatusL&#45;&gt;ultimate -->
<g id="edge57" class="edge">
<title>ultimatusL&#45;&gt;ultimate</title>
<path fill="none" stroke="black" stroke-dasharray="5,2" d="M229.38,-92.6C229.05,-83.27 228.62,-71.45 228.23,-60.37"/>
<polygon fill="black" stroke="black" points="231.71,-59.94 227.86,-50.07 224.72,-60.19 231.71,-59.94"/>
</g>
</g>
</svg>
