<?xml version="1.0" encoding="UTF-8" standalone="no"?>
<!DOCTYPE svg PUBLIC "-//W3C//DTD SVG 1.1//EN"
 "http://www.w3.org/Graphics/SVG/1.1/DTD/svg11.dtd">
<!-- Generated by graphviz version 2.49.0 (20210828.1703)
 -->
<!-- Pages: 1 -->
<svg width="312pt" height="192pt"
 viewBox="0.00 0.00 312.00 192.00" xmlns="http://www.w3.org/2000/svg" xmlns:xlink="http://www.w3.org/1999/xlink">
<g id="graph0" class="graph" transform="scale(1 1) rotate(0) translate(4 188)">
<polygon fill="white" stroke="transparent" points="-4,4 -4,-188 308,-188 308,4 -4,4"/>
<!-- al -->
<g id="node1" class="node">
<title>al</title>
<g id="a_node1"><a xlink:title="Indo&#45;European &quot;*al&#45;&quot; beyond">
<polygon fill="none" stroke="black" points="281.5,-180 70.5,-180 70.5,-76 281.5,-76 281.5,-180"/>
<polygon fill="none" stroke="black" points="285.5,-184 66.5,-184 66.5,-72 285.5,-72 285.5,-184"/>
<text text-anchor="start" x="98" y="-135.8" font-family="Times New Roman,serif" font-weight="bold" font-size="24.00">Indo&#45;European</text>
<text text-anchor="start" x="117" y="-107.6" font-family="Times New Roman,serif" font-size="18.00" fill="red">*al&#45;</text>
<text text-anchor="start" x="191" y="-108.2" font-family="Times New Roman,serif" font-size="16.00">beyond</text>
</a>
</g>
</g>
<!-- ol -->
<g id="node2" class="node">
<title>ol</title>
<g id="a_node2"><a xlink:href="al-beyond1.svg" xlink:title="*ol derivatives">
<path fill="none" stroke="black" stroke-dasharray="5,2" d="M90,-36C90,-36 12,-36 12,-36 6,-36 0,-30 0,-24 0,-24 0,-12 0,-12 0,-6 6,0 12,0 12,0 90,0 90,0 96,0 102,-6 102,-12 102,-12 102,-24 102,-24 102,-30 96,-36 90,-36"/>
<text text-anchor="start" x="8" y="-15.3" font-family="Times New Roman,serif" font-size="14.00" fill="red">*ol&#45; </text>
<text text-anchor="start" x="34" y="-15.3" font-family="Times New Roman,serif" font-size="14.00">derivatives</text>
</a>
</g>
</g>
<!-- al&#45;&gt;ol -->
<g id="edge1" class="edge">
<title>al&#45;&gt;ol</title>
<path fill="none" stroke="black" d="M112.04,-71.73C100.19,-61.5 88.41,-51.32 78.4,-42.68"/>
<polygon fill="black" stroke="black" points="80.65,-39.99 70.79,-36.1 76.07,-45.29 80.65,-39.99"/>
</g>
<!-- altero -->
<g id="node3" class="node">
<title>altero</title>
<g id="a_node3"><a xlink:href="al-beyond2.svg" xlink:title="*al&#45;tero&#45;, *al&#45;eno&#45;">
<path fill="none" stroke="black" stroke-dasharray="5,2" d="M219.5,-36C219.5,-36 132.5,-36 132.5,-36 126.5,-36 120.5,-30 120.5,-24 120.5,-24 120.5,-12 120.5,-12 120.5,-6 126.5,0 132.5,0 132.5,0 219.5,0 219.5,0 225.5,0 231.5,-6 231.5,-12 231.5,-12 231.5,-24 231.5,-24 231.5,-30 225.5,-36 219.5,-36"/>
<text text-anchor="start" x="128.5" y="-14.3" font-family="Times New Roman,serif" font-size="14.00" fill="red">*al&#45;tero&#45;, *al&#45;eno</text>
</a>
</g>
</g>
<!-- al&#45;&gt;altero -->
<g id="edge2" class="edge">
<title>al&#45;&gt;altero</title>
<path fill="none" stroke="black" d="M176,-71.73C176,-62.99 176,-54.28 176,-46.54"/>
<polygon fill="black" stroke="black" points="179.5,-46.34 176,-36.34 172.5,-46.34 179.5,-46.34"/>
</g>
<!-- alyo -->
<g id="node4" class="node">
<title>alyo</title>
<g id="a_node4"><a xlink:href="al-beyond3.svg" xlink:title="*alyo&#45;">
<path fill="none" stroke="black" stroke-dasharray="5,2" d="M292,-36C292,-36 262,-36 262,-36 256,-36 250,-30 250,-24 250,-24 250,-12 250,-12 250,-6 256,0 262,0 262,0 292,0 292,0 298,0 304,-6 304,-12 304,-12 304,-24 304,-24 304,-30 298,-36 292,-36"/>
<text text-anchor="start" x="259.5" y="-14.3" font-family="Times New Roman,serif" font-size="14.00" fill="red">*alyo&#45;</text>
</a>
</g>
</g>
<!-- al&#45;&gt;alyo -->
<g id="edge3" class="edge">
<title>al&#45;&gt;alyo</title>
<path fill="none" stroke="black" d="M227.68,-71.73C236.9,-61.88 246.06,-52.08 253.94,-43.65"/>
<polygon fill="black" stroke="black" points="256.51,-46.03 260.79,-36.34 251.4,-41.25 256.51,-46.03"/>
</g>
</g>
</svg>
