<?xml version="1.0" encoding="UTF-8" standalone="no"?>
<!DOCTYPE svg PUBLIC "-//W3C//DTD SVG 1.1//EN"
 "http://www.w3.org/Graphics/SVG/1.1/DTD/svg11.dtd">
<!-- Generated by graphviz version 2.49.0 (20210828.1703)
 -->
<!-- Pages: 1 -->
<svg width="889pt" height="656pt"
 viewBox="0.00 0.00 889.00 656.00" xmlns="http://www.w3.org/2000/svg" xmlns:xlink="http://www.w3.org/1999/xlink">
<g id="graph0" class="graph" transform="scale(1 1) rotate(0) translate(4 652)">
<polygon fill="white" stroke="transparent" points="-4,4 -4,-652 885,-652 885,4 -4,4"/>
<!-- al -->
<g id="node1" class="node">
<title>al</title>
<g id="a_node1"><a xlink:href="al-beyond0.svg" xlink:title="Indo&#45;European &quot;*al&#45;&quot; beyond">
<polygon fill="none" stroke="black" stroke-dasharray="5,2" points="546,-648 335,-648 335,-544 546,-544 546,-648"/>
<text text-anchor="start" x="362.5" y="-603.8" font-family="Times New Roman,serif" font-weight="bold" font-size="24.00">Indo&#45;European</text>
<text text-anchor="start" x="381.5" y="-575.6" font-family="Times New Roman,serif" font-size="18.00" fill="red">*al&#45;</text>
<text text-anchor="start" x="455.5" y="-576.2" font-family="Times New Roman,serif" font-size="16.00">beyond</text>
</a>
</g>
</g>
<!-- alyo -->
<g id="node2" class="node">
<title>alyo</title>
<text text-anchor="start" x="423" y="-473.8" font-family="Times New Roman,serif" font-size="14.00" fill="red">*alyo&#45;</text>
<text text-anchor="start" x="388.5" y="-461.4" font-family="Times New Roman,serif" font-size="12.00">other of more than two</text>
</g>
<!-- al&#45;&gt;alyo -->
<g id="edge1" class="edge">
<title>al&#45;&gt;alyo</title>
<path fill="none" stroke="black" d="M440.5,-543.91C440.5,-528.64 440.5,-512.5 440.5,-499.38"/>
<polygon fill="black" stroke="black" points="444,-499.16 440.5,-489.16 437,-499.16 444,-499.16"/>
</g>
<!-- aljazGmc -->
<g id="node3" class="node">
<title>aljazGmc</title>
<text text-anchor="start" x="228" y="-282.8" font-family="Times New Roman,serif" font-weight="bold" font-size="14.00">Germanic</text>
<text text-anchor="start" x="243" y="-268.8" font-family="Times New Roman,serif" font-size="14.00" fill="red">*aljaz</text>
</g>
<!-- alyo&#45;&gt;aljazGmc -->
<g id="edge2" class="edge">
<title>alyo&#45;&gt;aljazGmc</title>
<path fill="none" stroke="black" d="M380.37,-453.97C349.74,-442.93 314.27,-425.21 291.5,-398 270,-372.3 262.47,-333.56 259.85,-307.55"/>
<polygon fill="black" stroke="black" points="263.31,-306.94 259,-297.26 256.33,-307.51 263.31,-306.94"/>
</g>
<!-- aliusL -->
<g id="node14" class="node">
<title>aliusL</title>
<text text-anchor="start" x="703" y="-383.8" font-family="Times New Roman,serif" font-weight="bold" font-size="14.00">Latin</text>
<text text-anchor="start" x="707" y="-369.8" font-family="Times New Roman,serif" font-size="14.00" fill="red">alius</text>
<text text-anchor="start" x="688.5" y="-357.4" font-family="Times New Roman,serif" font-size="12.00">other of more</text>
<text text-anchor="start" x="699.5" y="-345.4" font-family="Times New Roman,serif" font-size="12.00">than two</text>
</g>
<!-- alyo&#45;&gt;aliusL -->
<g id="edge13" class="edge">
<title>alyo&#45;&gt;aliusL</title>
<path fill="none" stroke="black" d="M500.82,-455.48C545.98,-443.65 609.05,-425.09 670.85,-397.93"/>
<polygon fill="black" stroke="black" points="672.66,-400.96 680.36,-393.68 669.8,-394.57 672.66,-400.96"/>
</g>
<!-- allosGk -->
<g id="node28" class="node">
<title>allosGk</title>
<text text-anchor="start" x="420.5" y="-377.8" font-family="Times New Roman,serif" font-weight="bold" font-size="14.00">Greek</text>
<text text-anchor="start" x="427.5" y="-363.8" font-family="Times New Roman,serif" font-size="14.00" fill="red">allos</text>
<text text-anchor="start" x="428.5" y="-351.4" font-family="Times New Roman,serif" font-size="12.00">other</text>
</g>
<!-- alyo&#45;&gt;allosGk -->
<g id="edge27" class="edge">
<title>alyo&#45;&gt;allosGk</title>
<path fill="none" stroke="black" d="M440.5,-452.87C440.5,-439.07 440.5,-419.26 440.5,-402.36"/>
<polygon fill="black" stroke="black" points="444,-402.29 440.5,-392.29 437,-402.29 444,-402.29"/>
</g>
<!-- ellesOE -->
<g id="node4" class="node">
<title>ellesOE</title>
<text text-anchor="start" x="222" y="-205.8" font-family="Times New Roman,serif" font-weight="bold" font-size="14.00">Old English</text>
<text text-anchor="start" x="246" y="-191.8" font-family="Times New Roman,serif" font-size="14.00" fill="red">elles</text>
<text text-anchor="start" x="223.5" y="-179.4" font-family="Times New Roman,serif" font-size="12.00">else, &#160;otherwise</text>
</g>
<!-- aljazGmc&#45;&gt;ellesOE -->
<g id="edge3" class="edge">
<title>aljazGmc&#45;&gt;ellesOE</title>
<path fill="none" stroke="black" d="M258.5,-260.82C258.5,-251.98 258.5,-240.88 258.5,-230.43"/>
<polygon fill="black" stroke="black" points="262,-230.3 258.5,-220.3 255,-230.3 262,-230.3"/>
</g>
<!-- elOE -->
<g id="node11" class="node">
<title>elOE</title>
<text text-anchor="start" x="115" y="-205.8" font-family="Times New Roman,serif" font-weight="bold" font-size="14.00">Old English</text>
<text text-anchor="start" x="144.5" y="-191.8" font-family="Times New Roman,serif" font-size="14.00" fill="red">el&#45;</text>
<text text-anchor="start" x="120.5" y="-179.4" font-family="Times New Roman,serif" font-size="12.00">strange, other</text>
</g>
<!-- aljazGmc&#45;&gt;elOE -->
<g id="edge9" class="edge">
<title>aljazGmc&#45;&gt;elOE</title>
<path fill="none" stroke="black" d="M235.81,-260.82C222.66,-250.87 205.75,-238.07 190.53,-226.54"/>
<polygon fill="black" stroke="black" points="192.36,-223.54 182.28,-220.3 188.14,-229.13 192.36,-223.54"/>
</g>
<!-- ellesME -->
<g id="node5" class="node">
<title>ellesME</title>
<text text-anchor="start" x="237" y="-121.8" font-family="Times New Roman,serif" font-weight="bold" font-size="14.00">Middle</text>
<text text-anchor="start" x="235.5" y="-107.8" font-family="Times New Roman,serif" font-weight="bold" font-size="14.00">English</text>
<text text-anchor="start" x="246" y="-93.8" font-family="Times New Roman,serif" font-size="14.00" fill="red">elles</text>
</g>
<!-- ellesOE&#45;&gt;ellesME -->
<g id="edge4" class="edge">
<title>ellesOE&#45;&gt;ellesME</title>
<path fill="none" stroke="black" d="M258.5,-171.88C258.5,-163.97 258.5,-154.94 258.5,-146.34"/>
<polygon fill="black" stroke="black" points="262,-146.15 258.5,-136.15 255,-146.15 262,-146.15"/>
</g>
<!-- else -->
<g id="node6" class="node">
<title>else</title>
<text text-anchor="start" x="234" y="-35.8" font-family="Times New Roman,serif" font-weight="bold" font-size="14.00">Modern</text>
<text text-anchor="start" x="235.5" y="-21.8" font-family="Times New Roman,serif" font-weight="bold" font-size="14.00">English</text>
<text text-anchor="start" x="247.5" y="-7.8" font-family="Times New Roman,serif" font-size="14.00" fill="red">else</text>
</g>
<!-- ellesME&#45;&gt;else -->
<g id="edge5" class="edge">
<title>ellesME&#45;&gt;else</title>
<path fill="none" stroke="black" d="M258.5,-85.7C258.5,-77.78 258.5,-68.83 258.5,-60.31"/>
<polygon fill="black" stroke="black" points="262,-60.24 258.5,-50.24 255,-60.24 262,-60.24"/>
</g>
<!-- regIE -->
<g id="node7" class="node">
<title>regIE</title>
<g id="a_node7"><a xlink:href="reg-rule.svg" xlink:title="&lt;b&gt;Indo&#45;&lt;br/&gt;European&lt;/b&gt;&lt;br/&gt;&lt;font color=&quot;red&quot;&gt;*reg&#45;&lt;/font&gt;&lt;br/&gt;&lt;font point&#45;size=&quot;12&quot;&gt;to move in&lt;br/&gt;a straight line&lt;/font&gt;">
<path fill="none" stroke="black" stroke-dasharray="5,2" d="M71,-508C71,-508 18,-508 18,-508 12,-508 6,-502 6,-496 6,-496 6,-446 6,-446 6,-440 12,-434 18,-434 18,-434 71,-434 71,-434 77,-434 83,-440 83,-446 83,-446 83,-496 83,-496 83,-502 77,-508 71,-508"/>
<text text-anchor="start" x="28" y="-493.8" font-family="Times New Roman,serif" font-weight="bold" font-size="14.00">Indo&#45;</text>
<text text-anchor="start" x="14" y="-479.8" font-family="Times New Roman,serif" font-weight="bold" font-size="14.00">European</text>
<text text-anchor="start" x="30" y="-465.8" font-family="Times New Roman,serif" font-size="14.00" fill="red">*reg&#45;</text>
<text text-anchor="start" x="20.5" y="-453.4" font-family="Times New Roman,serif" font-size="12.00">to move in</text>
<text text-anchor="start" x="15" y="-441.4" font-family="Times New Roman,serif" font-size="12.00">a straight line</text>
</a>
</g>
</g>
<!-- rigyoC -->
<g id="node8" class="node">
<title>rigyoC</title>
<text text-anchor="start" x="26" y="-371.8" font-family="Times New Roman,serif" font-weight="bold" font-size="14.00">Celtic</text>
<text text-anchor="start" x="21.5" y="-357.8" font-family="Times New Roman,serif" font-size="14.00" fill="red">*rīg&#45;yo&#45;</text>
</g>
<!-- regIE&#45;&gt;rigyoC -->
<g id="edge6" class="edge">
<title>regIE&#45;&gt;rigyoC</title>
<path fill="none" stroke="black" d="M44.5,-433.82C44.5,-421.47 44.5,-407.87 44.5,-396.33"/>
<polygon fill="black" stroke="black" points="48,-396 44.5,-386 41,-396 48,-396"/>
</g>
<!-- rikjaGmc -->
<g id="node9" class="node">
<title>rikjaGmc</title>
<text text-anchor="start" x="14" y="-282.8" font-family="Times New Roman,serif" font-weight="bold" font-size="14.00">Germanic</text>
<text text-anchor="start" x="26" y="-268.8" font-family="Times New Roman,serif" font-size="14.00" fill="red">*rīkja&#45;</text>
</g>
<!-- rigyoC&#45;&gt;rikjaGmc -->
<g id="edge7" class="edge">
<title>rigyoC&#45;&gt;rikjaGmc</title>
<path fill="none" stroke="black" stroke-dasharray="5,2" d="M44.5,-349.81C44.5,-337.66 44.5,-321.11 44.5,-307.18"/>
<polygon fill="black" stroke="black" points="48,-307.15 44.5,-297.15 41,-307.15 48,-307.15"/>
</g>
<!-- riceOE -->
<g id="node10" class="node">
<title>riceOE</title>
<text text-anchor="start" x="8" y="-205.8" font-family="Times New Roman,serif" font-weight="bold" font-size="14.00">Old English</text>
<text text-anchor="start" x="33.5" y="-191.8" font-family="Times New Roman,serif" font-size="14.00" fill="red">rīce</text>
<text text-anchor="start" x="32" y="-179.4" font-family="Times New Roman,serif" font-size="12.00">realm</text>
</g>
<!-- rikjaGmc&#45;&gt;riceOE -->
<g id="edge8" class="edge">
<title>rikjaGmc&#45;&gt;riceOE</title>
<path fill="none" stroke="black" d="M44.5,-260.82C44.5,-251.98 44.5,-240.88 44.5,-230.43"/>
<polygon fill="black" stroke="black" points="48,-230.3 44.5,-220.3 41,-230.3 48,-230.3"/>
</g>
<!-- elricheME -->
<g id="node12" class="node">
<title>elricheME</title>
<text text-anchor="start" x="77" y="-121.8" font-family="Times New Roman,serif" font-weight="bold" font-size="14.00">Middle</text>
<text text-anchor="start" x="75.5" y="-107.8" font-family="Times New Roman,serif" font-weight="bold" font-size="14.00">English</text>
<text text-anchor="start" x="77" y="-93.8" font-family="Times New Roman,serif" font-size="14.00" fill="red">*elriche</text>
</g>
<!-- riceOE&#45;&gt;elricheME -->
<g id="edge10" class="edge">
<title>riceOE&#45;&gt;elricheME</title>
<path fill="none" stroke="black" d="M59.54,-171.88C65.03,-163.45 71.34,-153.74 77.26,-144.64"/>
<polygon fill="black" stroke="black" points="80.27,-146.44 82.79,-136.15 74.4,-142.63 80.27,-146.44"/>
</g>
<!-- elOE&#45;&gt;elricheME -->
<g id="edge11" class="edge">
<title>elOE&#45;&gt;elricheME</title>
<path fill="none" stroke="black" d="M136.74,-171.88C131.35,-163.45 125.16,-153.74 119.34,-144.64"/>
<polygon fill="black" stroke="black" points="122.26,-142.7 113.92,-136.15 116.36,-146.47 122.26,-142.7"/>
</g>
<!-- eldritch -->
<g id="node13" class="node">
<title>eldritch</title>
<text text-anchor="start" x="74" y="-35.8" font-family="Times New Roman,serif" font-weight="bold" font-size="14.00">Modern</text>
<text text-anchor="start" x="75.5" y="-21.8" font-family="Times New Roman,serif" font-weight="bold" font-size="14.00">English</text>
<text text-anchor="start" x="77.5" y="-7.8" font-family="Times New Roman,serif" font-size="14.00" fill="red">eldritch</text>
</g>
<!-- elricheME&#45;&gt;eldritch -->
<g id="edge12" class="edge">
<title>elricheME&#45;&gt;eldritch</title>
<path fill="none" stroke="black" d="M98.5,-85.7C98.5,-77.78 98.5,-68.83 98.5,-60.31"/>
<polygon fill="black" stroke="black" points="102,-60.24 98.5,-50.24 95,-60.24 102,-60.24"/>
</g>
<!-- aliasL -->
<g id="node15" class="node">
<title>aliasL</title>
<text text-anchor="start" x="669" y="-119.8" font-family="Times New Roman,serif" font-size="14.00" fill="red">aliās</text>
<text text-anchor="start" x="652.5" y="-107.4" font-family="Times New Roman,serif" font-size="12.00">otherwise, at</text>
<text text-anchor="start" x="653.5" y="-95.4" font-family="Times New Roman,serif" font-size="12.00">another time</text>
</g>
<!-- aliusL&#45;&gt;aliasL -->
<g id="edge14" class="edge">
<title>aliusL&#45;&gt;aliasL</title>
<path fill="none" stroke="black" d="M710.31,-337.8C707.1,-326.69 703.75,-313.85 701.5,-302 691.12,-247.28 685.75,-182.59 683.29,-144.56"/>
<polygon fill="black" stroke="black" points="686.75,-143.88 682.64,-134.11 679.76,-144.31 686.75,-143.88"/>
</g>
<!-- alibiL -->
<g id="node18" class="node">
<title>alibiL</title>
<text text-anchor="start" x="564" y="-281.8" font-family="Times New Roman,serif" font-size="14.00" fill="red">alibi</text>
<text text-anchor="start" x="552.5" y="-269.4" font-family="Times New Roman,serif" font-size="12.00">elsewhere</text>
</g>
<!-- aliusL&#45;&gt;alibiL -->
<g id="edge16" class="edge">
<title>aliusL&#45;&gt;alibiL</title>
<path fill="none" stroke="black" d="M680.15,-343.23C659.12,-330.52 633.36,-314.96 612.67,-302.45"/>
<polygon fill="black" stroke="black" points="614.21,-299.3 603.84,-297.12 610.59,-305.29 614.21,-299.3"/>
</g>
<!-- alienusL -->
<g id="node20" class="node">
<title>alienusL</title>
<text text-anchor="start" x="718.5" y="-275.3" font-family="Times New Roman,serif" font-size="14.00" fill="red">aliēnus</text>
</g>
<!-- aliusL&#45;&gt;alienusL -->
<g id="edge19" class="edge">
<title>aliusL&#45;&gt;alienusL</title>
<path fill="none" stroke="black" d="M725.59,-337.55C727.63,-327.7 729.89,-316.78 731.89,-307.12"/>
<polygon fill="black" stroke="black" points="735.33,-307.74 733.93,-297.24 728.48,-306.32 735.33,-307.74"/>
</g>
<!-- aliquotL -->
<g id="node26" class="node">
<title>aliquotL</title>
<text text-anchor="start" x="790.5" y="-281.8" font-family="Times New Roman,serif" font-size="14.00" fill="red">aliquot</text>
<text text-anchor="start" x="793.5" y="-269.4" font-family="Times New Roman,serif" font-size="12.00">several</text>
</g>
<!-- aliusL&#45;&gt;aliquotL -->
<g id="edge24" class="edge">
<title>aliusL&#45;&gt;aliquotL</title>
<path fill="none" stroke="black" d="M749.97,-337.55C761.13,-326.76 773.63,-314.68 784.28,-304.38"/>
<polygon fill="black" stroke="black" points="786.91,-306.71 791.67,-297.24 782.04,-301.67 786.91,-306.71"/>
</g>
<!-- alias -->
<g id="node16" class="node">
<title>alias</title>
<text text-anchor="start" x="657" y="-35.8" font-family="Times New Roman,serif" font-weight="bold" font-size="14.00">Modern</text>
<text text-anchor="start" x="658.5" y="-21.8" font-family="Times New Roman,serif" font-weight="bold" font-size="14.00">English</text>
<text text-anchor="start" x="669" y="-7.8" font-family="Times New Roman,serif" font-size="14.00" fill="red">alias</text>
</g>
<!-- aliasL&#45;&gt;alias -->
<g id="edge15" class="edge">
<title>aliasL&#45;&gt;alias</title>
<path fill="none" stroke="black" stroke-dasharray="5,2" d="M681.5,-87.93C681.5,-79.52 681.5,-69.73 681.5,-60.45"/>
<polygon fill="black" stroke="black" points="685,-60.29 681.5,-50.29 678,-60.29 685,-60.29"/>
</g>
<!-- ibiL -->
<g id="node17" class="node">
<title>ibiL</title>
<text text-anchor="start" x="545" y="-377.8" font-family="Times New Roman,serif" font-weight="bold" font-size="14.00">Latin</text>
<text text-anchor="start" x="554.5" y="-363.8" font-family="Times New Roman,serif" font-size="14.00" fill="red">ibi</text>
<text text-anchor="start" x="550" y="-351.4" font-family="Times New Roman,serif" font-size="12.00">there</text>
</g>
<!-- ibiL&#45;&gt;alibiL -->
<g id="edge17" class="edge">
<title>ibiL&#45;&gt;alibiL</title>
<path fill="none" stroke="black" stroke-dasharray="1,5" d="M565.25,-343.69C567.06,-332.43 569.25,-318.86 571.13,-307.15"/>
<polygon fill="none" stroke="black" points="574.63,-307.46 572.76,-297.03 567.72,-306.35 574.63,-307.46"/>
</g>
<!-- alibi -->
<g id="node19" class="node">
<title>alibi</title>
<text text-anchor="start" x="490" y="-35.8" font-family="Times New Roman,serif" font-weight="bold" font-size="14.00">Modern</text>
<text text-anchor="start" x="491.5" y="-21.8" font-family="Times New Roman,serif" font-weight="bold" font-size="14.00">English</text>
<text text-anchor="start" x="503" y="-7.8" font-family="Times New Roman,serif" font-size="14.00" fill="red">alibi</text>
</g>
<!-- alibiL&#45;&gt;alibi -->
<g id="edge18" class="edge">
<title>alibiL&#45;&gt;alibi</title>
<path fill="none" stroke="black" stroke-dasharray="5,2" d="M566.12,-260.96C560.26,-249.65 553,-234.3 548.5,-220 531.36,-165.47 522.1,-99.43 517.75,-60.17"/>
<polygon fill="black" stroke="black" points="521.21,-59.64 516.67,-50.07 514.25,-60.39 521.21,-59.64"/>
</g>
<!-- alienOF -->
<g id="node21" class="node">
<title>alienOF</title>
<text text-anchor="start" x="725.5" y="-199.8" font-family="Times New Roman,serif" font-weight="bold" font-size="14.00">Old French</text>
<text text-anchor="start" x="748" y="-185.8" font-family="Times New Roman,serif" font-size="14.00" fill="red">alien</text>
</g>
<!-- alienusL&#45;&gt;alienOF -->
<g id="edge20" class="edge">
<title>alienusL&#45;&gt;alienOF</title>
<path fill="none" stroke="black" d="M742.38,-260.82C745.43,-250.08 749.42,-236.03 752.88,-223.84"/>
<polygon fill="black" stroke="black" points="756.26,-224.73 755.63,-214.15 749.53,-222.82 756.26,-224.73"/>
</g>
<!-- alienME -->
<g id="node22" class="node">
<title>alienME</title>
<text text-anchor="start" x="746" y="-121.8" font-family="Times New Roman,serif" font-weight="bold" font-size="14.00">Middle</text>
<text text-anchor="start" x="744.5" y="-107.8" font-family="Times New Roman,serif" font-weight="bold" font-size="14.00">English</text>
<text text-anchor="start" x="755" y="-93.8" font-family="Times New Roman,serif" font-size="14.00" fill="red">alien</text>
</g>
<!-- alienOF&#45;&gt;alienME -->
<g id="edge21" class="edge">
<title>alienOF&#45;&gt;alienME</title>
<path fill="none" stroke="black" stroke-dasharray="5,2" d="M761.95,-177.8C762.72,-168.66 763.7,-157.09 764.61,-146.22"/>
<polygon fill="black" stroke="black" points="768.11,-146.36 765.47,-136.1 761.14,-145.77 768.11,-146.36"/>
</g>
<!-- alien -->
<g id="node23" class="node">
<title>alien</title>
<text text-anchor="start" x="741" y="-35.8" font-family="Times New Roman,serif" font-weight="bold" font-size="14.00">Modern</text>
<text text-anchor="start" x="742.5" y="-21.8" font-family="Times New Roman,serif" font-weight="bold" font-size="14.00">English</text>
<text text-anchor="start" x="753" y="-7.8" font-family="Times New Roman,serif" font-size="14.00" fill="red">alien</text>
</g>
<!-- alienME&#45;&gt;alien -->
<g id="edge22" class="edge">
<title>alienME&#45;&gt;alien</title>
<path fill="none" stroke="black" d="M766.92,-85.7C766.73,-77.78 766.52,-68.83 766.32,-60.31"/>
<polygon fill="black" stroke="black" points="769.81,-60.16 766.08,-50.24 762.82,-60.32 769.81,-60.16"/>
</g>
<!-- kwoIE -->
<g id="node24" class="node">
<title>kwoIE</title>
<g id="a_node24"><a xlink:href="kwo-who.svg" xlink:title="&lt;b&gt;Indo&#45;&lt;br/&gt;European&lt;/b&gt;&lt;br/&gt;&lt;font color=&quot;red&quot;&gt;*kʷo&#45;&lt;/font&gt;&lt;br/&gt;&lt;font point&#45;size=&quot;12&quot;&gt;who, which&lt;/font&gt;">
<path fill="none" stroke="black" stroke-dasharray="5,2" d="M836,-502C836,-502 783,-502 783,-502 777,-502 771,-496 771,-490 771,-490 771,-452 771,-452 771,-446 777,-440 783,-440 783,-440 836,-440 836,-440 842,-440 848,-446 848,-452 848,-452 848,-490 848,-490 848,-496 842,-502 836,-502"/>
<text text-anchor="start" x="793" y="-487.8" font-family="Times New Roman,serif" font-weight="bold" font-size="14.00">Indo&#45;</text>
<text text-anchor="start" x="779" y="-473.8" font-family="Times New Roman,serif" font-weight="bold" font-size="14.00">European</text>
<text text-anchor="start" x="793.5" y="-459.8" font-family="Times New Roman,serif" font-size="14.00" fill="red">*kʷo&#45;</text>
<text text-anchor="start" x="783.5" y="-447.4" font-family="Times New Roman,serif" font-size="12.00">who, which</text>
</a>
</g>
</g>
<!-- quotL -->
<g id="node25" class="node">
<title>quotL</title>
<text text-anchor="start" x="793" y="-377.8" font-family="Times New Roman,serif" font-weight="bold" font-size="14.00">Latin</text>
<text text-anchor="start" x="796.5" y="-363.8" font-family="Times New Roman,serif" font-size="14.00" fill="red">quot</text>
<text text-anchor="start" x="786" y="-351.4" font-family="Times New Roman,serif" font-size="12.00">how many</text>
</g>
<!-- kwoIE&#45;&gt;quotL -->
<g id="edge23" class="edge">
<title>kwoIE&#45;&gt;quotL</title>
<path fill="none" stroke="black" d="M809.5,-439.97C809.5,-428.1 809.5,-414.41 809.5,-402.24"/>
<polygon fill="black" stroke="black" points="813,-402.02 809.5,-392.02 806,-402.02 813,-402.02"/>
</g>
<!-- quotL&#45;&gt;aliquotL -->
<g id="edge25" class="edge">
<title>quotL&#45;&gt;aliquotL</title>
<path fill="none" stroke="black" d="M809.5,-343.69C809.5,-332.43 809.5,-318.86 809.5,-307.15"/>
<polygon fill="black" stroke="black" points="813,-307.03 809.5,-297.03 806,-307.03 813,-307.03"/>
</g>
<!-- aliquot -->
<g id="node27" class="node">
<title>aliquot</title>
<text text-anchor="start" x="824" y="-35.8" font-family="Times New Roman,serif" font-weight="bold" font-size="14.00">Modern</text>
<text text-anchor="start" x="825.5" y="-21.8" font-family="Times New Roman,serif" font-weight="bold" font-size="14.00">English</text>
<text text-anchor="start" x="829.5" y="-7.8" font-family="Times New Roman,serif" font-size="14.00" fill="red">aliquot</text>
</g>
<!-- aliquotL&#45;&gt;aliquot -->
<g id="edge26" class="edge">
<title>aliquotL&#45;&gt;aliquot</title>
<path fill="none" stroke="black" stroke-dasharray="5,2" d="M812.18,-260.68C818.57,-219.41 834.77,-114.69 843.21,-60.17"/>
<polygon fill="black" stroke="black" points="846.67,-60.7 844.74,-50.28 839.75,-59.63 846.67,-60.7"/>
</g>
<!-- alloGk -->
<g id="node29" class="node">
<title>alloGk</title>
<text text-anchor="start" x="416" y="-192.3" font-family="Times New Roman,serif" font-size="14.00" fill="red">allo&#45;</text>
</g>
<!-- allosGk&#45;&gt;alloGk -->
<g id="edge28" class="edge">
<title>allosGk&#45;&gt;alloGk</title>
<path fill="none" stroke="black" d="M438.66,-343.84C437.69,-331.43 436.5,-315.89 435.5,-302 433.61,-275.62 431.62,-245.5 430.24,-224.3"/>
<polygon fill="black" stroke="black" points="433.72,-223.85 429.59,-214.1 426.74,-224.3 433.72,-223.85"/>
</g>
<!-- allegoreinGk -->
<g id="node32" class="node">
<title>allegoreinGk</title>
<text text-anchor="start" x="326" y="-287.8" font-family="Times New Roman,serif" font-size="14.00" fill="red">allēgorein</text>
<text text-anchor="start" x="327.5" y="-275.4" font-family="Times New Roman,serif" font-size="12.00">to interpret</text>
<text text-anchor="start" x="326" y="-263.4" font-family="Times New Roman,serif" font-size="12.00">allegorically</text>
</g>
<!-- allosGk&#45;&gt;allegoreinGk -->
<g id="edge30" class="edge">
<title>allosGk&#45;&gt;allegoreinGk</title>
<path fill="none" stroke="black" d="M416.92,-343.69C406.23,-333.12 393.47,-320.5 382.14,-309.3"/>
<polygon fill="black" stroke="black" points="384.51,-306.72 374.93,-302.18 379.58,-311.7 384.51,-306.72"/>
</g>
<!-- allelonGk -->
<g id="node38" class="node">
<title>allelonGk</title>
<text text-anchor="start" x="467.5" y="-281.8" font-family="Times New Roman,serif" font-size="14.00" fill="red">allēlōn</text>
<text text-anchor="start" x="452.5" y="-269.4" font-family="Times New Roman,serif" font-size="12.00">of one another</text>
</g>
<!-- allosGk&#45;&gt;allelonGk -->
<g id="edge36" class="edge">
<title>allosGk&#45;&gt;allelonGk</title>
<path fill="none" stroke="black" d="M452.56,-343.69C458.56,-332.09 465.83,-318.03 472.01,-306.08"/>
<polygon fill="black" stroke="black" points="475.21,-307.52 476.69,-297.03 468.99,-304.3 475.21,-307.52"/>
</g>
<!-- allo -->
<g id="node30" class="node">
<title>allo</title>
<text text-anchor="start" x="406" y="-35.8" font-family="Times New Roman,serif" font-weight="bold" font-size="14.00">Modern</text>
<text text-anchor="start" x="407.5" y="-21.8" font-family="Times New Roman,serif" font-weight="bold" font-size="14.00">English</text>
<text text-anchor="start" x="418" y="-7.8" font-family="Times New Roman,serif" font-size="14.00" fill="red">allo&#45;</text>
</g>
<!-- alloGk&#45;&gt;allo -->
<g id="edge29" class="edge">
<title>alloGk&#45;&gt;allo</title>
<path fill="none" stroke="black" stroke-dasharray="5,2" d="M428.7,-177.87C429.03,-150.49 429.67,-96.34 430.09,-60.65"/>
<polygon fill="black" stroke="black" points="433.59,-60.26 430.21,-50.22 426.6,-60.18 433.59,-60.26"/>
</g>
<!-- agoreueinGk -->
<g id="node31" class="node">
<title>agoreueinGk</title>
<text text-anchor="start" x="327.5" y="-377.8" font-family="Times New Roman,serif" font-weight="bold" font-size="14.00">Greek</text>
<text text-anchor="start" x="320.5" y="-363.8" font-family="Times New Roman,serif" font-size="14.00" fill="red">agoreuein</text>
<text text-anchor="start" x="309" y="-351.4" font-family="Times New Roman,serif" font-size="12.00">to speak publicly</text>
</g>
<!-- agoreueinGk&#45;&gt;allegoreinGk -->
<g id="edge31" class="edge">
<title>agoreueinGk&#45;&gt;allegoreinGk</title>
<path fill="none" stroke="black" d="M348.84,-343.69C349.4,-334.02 350.05,-322.65 350.65,-312.21"/>
<polygon fill="black" stroke="black" points="354.15,-312.36 351.23,-302.18 347.16,-311.96 354.15,-312.36"/>
</g>
<!-- allegoriaL -->
<g id="node33" class="node">
<title>allegoriaL</title>
<text text-anchor="start" x="336" y="-199.8" font-family="Times New Roman,serif" font-weight="bold" font-size="14.00">Latin</text>
<text text-anchor="start" x="329.5" y="-185.8" font-family="Times New Roman,serif" font-size="14.00" fill="red">allēgoria</text>
</g>
<!-- allegoreinGk&#45;&gt;allegoriaL -->
<g id="edge32" class="edge">
<title>allegoreinGk&#45;&gt;allegoriaL</title>
<path fill="none" stroke="black" stroke-dasharray="5,2" d="M352.5,-255.87C352.5,-246.13 352.5,-234.6 352.5,-224.34"/>
<polygon fill="black" stroke="black" points="356,-224.23 352.5,-214.23 349,-224.23 356,-224.23"/>
</g>
<!-- allegorieME -->
<g id="node34" class="node">
<title>allegorieME</title>
<text text-anchor="start" x="328" y="-121.8" font-family="Times New Roman,serif" font-weight="bold" font-size="14.00">Middle</text>
<text text-anchor="start" x="326.5" y="-107.8" font-family="Times New Roman,serif" font-weight="bold" font-size="14.00">English</text>
<text text-anchor="start" x="326.5" y="-93.8" font-family="Times New Roman,serif" font-size="14.00" fill="red">allegorie</text>
</g>
<!-- allegoriaL&#45;&gt;allegorieME -->
<g id="edge33" class="edge">
<title>allegoriaL&#45;&gt;allegorieME</title>
<path fill="none" stroke="black" stroke-dasharray="5,2" d="M351.88,-177.8C351.55,-168.66 351.13,-157.09 350.74,-146.22"/>
<polygon fill="black" stroke="black" points="354.23,-145.97 350.37,-136.1 347.23,-146.22 354.23,-145.97"/>
</g>
<!-- allegory -->
<g id="node35" class="node">
<title>allegory</title>
<text text-anchor="start" x="323" y="-35.8" font-family="Times New Roman,serif" font-weight="bold" font-size="14.00">Modern</text>
<text text-anchor="start" x="324.5" y="-21.8" font-family="Times New Roman,serif" font-weight="bold" font-size="14.00">English</text>
<text text-anchor="start" x="325.5" y="-7.8" font-family="Times New Roman,serif" font-size="14.00" fill="red">allegory</text>
</g>
<!-- allegorieME&#45;&gt;allegory -->
<g id="edge34" class="edge">
<title>allegorieME&#45;&gt;allegory</title>
<path fill="none" stroke="black" d="M348.92,-85.7C348.73,-77.78 348.52,-68.83 348.32,-60.31"/>
<polygon fill="black" stroke="black" points="351.81,-60.16 348.08,-50.24 344.82,-60.32 351.81,-60.16"/>
</g>
<!-- perIE -->
<g id="node36" class="node">
<title>perIE</title>
<g id="a_node36"><a xlink:href="per-pre.svg" xlink:title="&lt;b&gt;Indo&#45;&lt;br/&gt;European&lt;/b&gt;&lt;br/&gt;&lt;font color=&quot;red&quot;&gt;*per&lt;/font&gt;&lt;br/&gt;&lt;font point&#45;size=&quot;12&quot;&gt;(various&lt;br/&gt;prepositions)&lt;/font&gt;">
<path fill="none" stroke="black" stroke-dasharray="5,2" d="M661,-508C661,-508 608,-508 608,-508 602,-508 596,-502 596,-496 596,-496 596,-446 596,-446 596,-440 602,-434 608,-434 608,-434 661,-434 661,-434 667,-434 673,-440 673,-446 673,-446 673,-496 673,-496 673,-502 667,-508 661,-508"/>
<text text-anchor="start" x="618" y="-493.8" font-family="Times New Roman,serif" font-weight="bold" font-size="14.00">Indo&#45;</text>
<text text-anchor="start" x="604" y="-479.8" font-family="Times New Roman,serif" font-weight="bold" font-size="14.00">European</text>
<text text-anchor="start" x="622" y="-465.8" font-family="Times New Roman,serif" font-size="14.00" fill="red">*per</text>
<text text-anchor="start" x="616" y="-453.4" font-family="Times New Roman,serif" font-size="12.00">(various</text>
<text text-anchor="start" x="605" y="-441.4" font-family="Times New Roman,serif" font-size="12.00">prepositions)</text>
</a>
</g>
</g>
<!-- paraGk -->
<g id="node37" class="node">
<title>paraGk</title>
<text text-anchor="start" x="614.5" y="-377.8" font-family="Times New Roman,serif" font-weight="bold" font-size="14.00">Greek</text>
<text text-anchor="start" x="620" y="-363.8" font-family="Times New Roman,serif" font-size="14.00" fill="red">para&#45;</text>
<text text-anchor="start" x="619.5" y="-351.4" font-family="Times New Roman,serif" font-size="12.00">beside</text>
</g>
<!-- perIE&#45;&gt;paraGk -->
<g id="edge35" class="edge">
<title>perIE&#45;&gt;paraGk</title>
<path fill="none" stroke="black" d="M634.5,-433.82C634.5,-423.49 634.5,-412.28 634.5,-402.14"/>
<polygon fill="black" stroke="black" points="638,-402.03 634.5,-392.03 631,-402.03 638,-402.03"/>
</g>
<!-- parallelosGk -->
<g id="node39" class="node">
<title>parallelosGk</title>
<text text-anchor="start" x="566" y="-192.3" font-family="Times New Roman,serif" font-size="14.00" fill="red">parallēlos</text>
</g>
<!-- paraGk&#45;&gt;parallelosGk -->
<g id="edge37" class="edge">
<title>paraGk&#45;&gt;parallelosGk</title>
<path fill="none" stroke="black" d="M631.91,-343.74C629.06,-321.07 623.76,-285.77 615.5,-256 612.5,-245.19 608.24,-233.63 604.2,-223.63"/>
<polygon fill="black" stroke="black" points="607.36,-222.13 600.29,-214.24 600.9,-224.82 607.36,-222.13"/>
</g>
<!-- allelonGk&#45;&gt;parallelosGk -->
<g id="edge38" class="edge">
<title>allelonGk&#45;&gt;parallelosGk</title>
<path fill="none" stroke="black" d="M508.19,-260.82C523.8,-249.01 544.71,-233.18 561.8,-220.24"/>
<polygon fill="black" stroke="black" points="563.98,-222.98 569.84,-214.15 559.76,-217.4 563.98,-222.98"/>
</g>
<!-- parallelusL -->
<g id="node40" class="node">
<title>parallelusL</title>
<text text-anchor="start" x="576" y="-114.8" font-family="Times New Roman,serif" font-weight="bold" font-size="14.00">Latin</text>
<text text-anchor="start" x="566.5" y="-100.8" font-family="Times New Roman,serif" font-size="14.00" fill="red">parallēlus</text>
</g>
<!-- parallelosGk&#45;&gt;parallelusL -->
<g id="edge39" class="edge">
<title>parallelosGk&#45;&gt;parallelusL</title>
<path fill="none" stroke="black" stroke-dasharray="5,2" d="M592.5,-177.8C592.5,-166.67 592.5,-151.94 592.5,-139.24"/>
<polygon fill="black" stroke="black" points="596,-139.18 592.5,-129.18 589,-139.18 596,-139.18"/>
</g>
<!-- parallel -->
<g id="node41" class="node">
<title>parallel</title>
<text text-anchor="start" x="573" y="-35.8" font-family="Times New Roman,serif" font-weight="bold" font-size="14.00">Modern</text>
<text text-anchor="start" x="574.5" y="-21.8" font-family="Times New Roman,serif" font-weight="bold" font-size="14.00">English</text>
<text text-anchor="start" x="577.5" y="-7.8" font-family="Times New Roman,serif" font-size="14.00" fill="red">parallel</text>
</g>
<!-- parallelusL&#45;&gt;parallel -->
<g id="edge40" class="edge">
<title>parallelusL&#45;&gt;parallel</title>
<path fill="none" stroke="black" stroke-dasharray="5,2" d="M593.54,-92.6C594.09,-83.27 594.79,-71.45 595.45,-60.37"/>
<polygon fill="black" stroke="black" points="598.97,-60.26 596.07,-50.07 591.98,-59.85 598.97,-60.26"/>
</g>
</g>
</svg>
