<?xml version="1.0" encoding="UTF-8" standalone="no"?>
<!DOCTYPE svg PUBLIC "-//W3C//DTD SVG 1.1//EN"
 "http://www.w3.org/Graphics/SVG/1.1/DTD/svg11.dtd">
<!-- Generated by graphviz version 2.49.0 (20210828.1703)
 -->
<!-- Pages: 1 -->
<svg width="684pt" height="912pt"
 viewBox="0.00 0.00 683.50 912.00" xmlns="http://www.w3.org/2000/svg" xmlns:xlink="http://www.w3.org/1999/xlink">
<g id="graph0" class="graph" transform="scale(1 1) rotate(0) translate(4 908)">
<polygon fill="white" stroke="transparent" points="-4,4 -4,-908 679.5,-908 679.5,4 -4,4"/>
<!-- al -->
<g id="node1" class="node">
<title>al</title>
<g id="a_node1"><a xlink:href="al-beyond0.svg" xlink:title="Indo&#45;European &quot;*al&#45;&quot; beyond">
<polygon fill="none" stroke="black" stroke-dasharray="5,2" points="656.5,-904 445.5,-904 445.5,-800 656.5,-800 656.5,-904"/>
<text text-anchor="start" x="473" y="-859.8" font-family="Times New Roman,serif" font-weight="bold" font-size="24.00">Indo&#45;European</text>
<text text-anchor="start" x="492" y="-831.6" font-family="Times New Roman,serif" font-size="18.00" fill="red">*al&#45;</text>
<text text-anchor="start" x="566" y="-832.2" font-family="Times New Roman,serif" font-size="16.00">beyond</text>
</a>
</g>
</g>
<!-- altero -->
<g id="node2" class="node">
<title>altero</title>
<text text-anchor="start" x="494.5" y="-747.8" font-family="Times New Roman,serif" font-size="14.00" fill="red">*al&#45;tero&#45;</text>
<text text-anchor="start" x="490" y="-735.4" font-family="Times New Roman,serif" font-size="12.00">other of two</text>
</g>
<!-- al&#45;&gt;altero -->
<g id="edge1" class="edge">
<title>al&#45;&gt;altero</title>
<path fill="none" stroke="black" d="M534.89,-799.73C531.99,-790.51 529.07,-781.23 526.5,-773.05"/>
<polygon fill="black" stroke="black" points="529.79,-771.84 523.45,-763.35 523.11,-773.94 529.79,-771.84"/>
</g>
<!-- aleno -->
<g id="node28" class="node">
<title>aleno</title>
<text text-anchor="start" x="562" y="-687.3" font-family="Times New Roman,serif" font-size="14.00" fill="red">*al&#45;eno&#45;</text>
</g>
<!-- al&#45;&gt;aleno -->
<g id="edge27" class="edge">
<title>al&#45;&gt;aleno</title>
<path fill="none" stroke="black" d="M561.94,-799.82C567.68,-772.98 574.48,-741.19 579.2,-719.11"/>
<polygon fill="black" stroke="black" points="582.67,-719.63 581.34,-709.12 575.83,-718.17 582.67,-719.63"/>
</g>
<!-- alterL -->
<g id="node3" class="node">
<title>alterL</title>
<text text-anchor="start" x="216.5" y="-561.8" font-family="Times New Roman,serif" font-weight="bold" font-size="14.00">Latin</text>
<text text-anchor="start" x="221" y="-547.8" font-family="Times New Roman,serif" font-size="14.00" fill="red">alter</text>
</g>
<!-- altero&#45;&gt;alterL -->
<g id="edge2" class="edge">
<title>altero&#45;&gt;alterL</title>
<path fill="none" stroke="black" d="M491.7,-726.93C440.06,-693.4 325.41,-618.99 267.67,-581.5"/>
<polygon fill="black" stroke="black" points="269.53,-578.54 259.24,-576.03 265.72,-584.41 269.53,-578.54"/>
</g>
<!-- antero -->
<g id="node23" class="node">
<title>antero</title>
<text text-anchor="start" x="492.5" y="-639.8" font-family="Times New Roman,serif" font-size="14.00" fill="red">*an&#45;tero&#45;</text>
<text text-anchor="start" x="486" y="-627.4" font-family="Times New Roman,serif" font-size="12.00">other (of two)</text>
</g>
<!-- altero&#45;&gt;antero -->
<g id="edge22" class="edge">
<title>altero&#45;&gt;antero</title>
<path fill="none" stroke="black" d="M518,-726.97C518,-710.38 518,-684.88 518,-665.43"/>
<polygon fill="black" stroke="black" points="521.5,-665.34 518,-655.34 514.5,-665.34 521.5,-665.34"/>
</g>
<!-- alterareL -->
<g id="node4" class="node">
<title>alterareL</title>
<text text-anchor="start" x="36.5" y="-476.8" font-family="Times New Roman,serif" font-weight="bold" font-size="14.00">Latin</text>
<text text-anchor="start" x="33" y="-462.8" font-family="Times New Roman,serif" font-size="14.00" fill="red">alterāre</text>
</g>
<!-- alterL&#45;&gt;alterareL -->
<g id="edge3" class="edge">
<title>alterL&#45;&gt;alterareL</title>
<path fill="none" stroke="black" d="M205.63,-550.52C180.03,-543.85 141.17,-532.16 110,-516 99.99,-510.81 89.84,-503.95 80.93,-497.28"/>
<polygon fill="black" stroke="black" points="82.87,-494.36 72.82,-491.01 78.59,-499.89 82.87,-494.36"/>
</g>
<!-- altercariL -->
<g id="node8" class="node">
<title>altercariL</title>
<text text-anchor="start" x="68.5" y="-415.8" font-family="Times New Roman,serif" font-size="14.00" fill="red">altercārī, altercāt&#45;</text>
<text text-anchor="start" x="95" y="-403.4" font-family="Times New Roman,serif" font-size="12.00">to quarrel</text>
</g>
<!-- alterL&#45;&gt;altercariL -->
<g id="edge7" class="edge">
<title>alterL&#45;&gt;altercariL</title>
<path fill="none" stroke="black" d="M205.96,-542.85C188.02,-532.28 165.08,-516.36 150,-497 137.14,-480.49 128.67,-458.31 123.53,-441.04"/>
<polygon fill="black" stroke="black" points="126.79,-439.71 120.75,-431.01 120.05,-441.58 126.79,-439.71"/>
</g>
<!-- alternusL -->
<g id="node10" class="node">
<title>alternusL</title>
<text text-anchor="start" x="167.5" y="-475.8" font-family="Times New Roman,serif" font-size="14.00" fill="red">alternus</text>
<text text-anchor="start" x="170.5" y="-463.4" font-family="Times New Roman,serif" font-size="12.00">by turns</text>
</g>
<!-- alterL&#45;&gt;alternusL -->
<g id="edge9" class="edge">
<title>alterL&#45;&gt;alternusL</title>
<path fill="none" stroke="black" d="M223.88,-539.8C217.81,-528.34 209.71,-513.06 202.84,-500.11"/>
<polygon fill="black" stroke="black" points="205.88,-498.37 198.11,-491.18 199.7,-501.65 205.88,-498.37"/>
</g>
<!-- altruiI -->
<g id="node13" class="node">
<title>altruiI</title>
<text text-anchor="start" x="255" y="-482.8" font-family="Times New Roman,serif" font-weight="bold" font-size="14.00">Italian</text>
<text text-anchor="start" x="261" y="-468.8" font-family="Times New Roman,serif" font-size="14.00" fill="red">altrui</text>
<text text-anchor="start" x="244.5" y="-456.4" font-family="Times New Roman,serif" font-size="12.00">someone else</text>
</g>
<!-- alterL&#45;&gt;altruiI -->
<g id="edge12" class="edge">
<title>alterL&#45;&gt;altruiI</title>
<path fill="none" stroke="black" d="M241.7,-539.8C246.58,-530.16 252.83,-517.81 258.6,-506.42"/>
<polygon fill="black" stroke="black" points="261.89,-507.66 263.28,-497.16 255.64,-504.5 261.89,-507.66"/>
</g>
<!-- adalterumL -->
<g id="node17" class="node">
<title>adalterumL</title>
<text text-anchor="start" x="361" y="-481.8" font-family="Times New Roman,serif" font-size="14.00" fill="red">ad alterum</text>
<text text-anchor="start" x="340" y="-469.4" font-family="Times New Roman,serif" font-size="12.00">(approaching) another</text>
<text text-anchor="start" x="364" y="-457.4" font-family="Times New Roman,serif" font-size="12.00">(unlawfully)</text>
</g>
<!-- alterL&#45;&gt;adalterumL -->
<g id="edge15" class="edge">
<title>alterL&#45;&gt;adalterumL</title>
<path fill="none" stroke="black" d="M260.35,-542.54C282.04,-531.08 312.96,-514.73 339.16,-500.88"/>
<polygon fill="black" stroke="black" points="341.01,-503.86 348.21,-496.09 337.73,-497.67 341.01,-503.86"/>
</g>
<!-- altererOF -->
<g id="node5" class="node">
<title>altererOF</title>
<text text-anchor="start" x="8" y="-357.8" font-family="Times New Roman,serif" font-weight="bold" font-size="14.00">Old French</text>
<text text-anchor="start" x="26" y="-343.8" font-family="Times New Roman,serif" font-size="14.00" fill="red">alterer</text>
</g>
<!-- alterareL&#45;&gt;altererOF -->
<g id="edge4" class="edge">
<title>alterareL&#45;&gt;altererOF</title>
<path fill="none" stroke="black" d="M51.55,-454.99C49.92,-435.92 47.25,-404.75 45.33,-382.28"/>
<polygon fill="black" stroke="black" points="48.79,-381.7 44.46,-372.03 41.82,-382.3 48.79,-381.7"/>
</g>
<!-- alterenME -->
<g id="node6" class="node">
<title>alterenME</title>
<text text-anchor="start" x="17.5" y="-190.8" font-family="Times New Roman,serif" font-weight="bold" font-size="14.00">Middle</text>
<text text-anchor="start" x="16" y="-176.8" font-family="Times New Roman,serif" font-weight="bold" font-size="14.00">English</text>
<text text-anchor="start" x="20.5" y="-162.8" font-family="Times New Roman,serif" font-size="14.00" fill="red">alteren</text>
</g>
<!-- altererOF&#45;&gt;alterenME -->
<g id="edge5" class="edge">
<title>altererOF&#45;&gt;alterenME</title>
<path fill="none" stroke="black" stroke-dasharray="5,2" d="M42.6,-335.88C41.95,-307.88 40.65,-251.78 39.8,-215.34"/>
<polygon fill="black" stroke="black" points="43.29,-215.09 39.56,-205.17 36.3,-215.25 43.29,-215.09"/>
</g>
<!-- alter -->
<g id="node7" class="node">
<title>alter</title>
<text text-anchor="start" x="8.5" y="-35.8" font-family="Times New Roman,serif" font-weight="bold" font-size="14.00">Modern</text>
<text text-anchor="start" x="10" y="-21.8" font-family="Times New Roman,serif" font-weight="bold" font-size="14.00">English</text>
<text text-anchor="start" x="21" y="-7.8" font-family="Times New Roman,serif" font-size="14.00" fill="red">alter</text>
</g>
<!-- alterenME&#45;&gt;alter -->
<g id="edge6" class="edge">
<title>alterenME&#45;&gt;alter</title>
<path fill="none" stroke="black" d="M38.05,-154.76C37.05,-129.24 35.47,-88.87 34.34,-60.14"/>
<polygon fill="black" stroke="black" points="37.84,-59.99 33.95,-50.13 30.84,-60.26 37.84,-59.99"/>
</g>
<!-- altercate -->
<g id="node9" class="node">
<title>altercate</title>
<text text-anchor="start" x="91.5" y="-35.8" font-family="Times New Roman,serif" font-weight="bold" font-size="14.00">Modern</text>
<text text-anchor="start" x="93" y="-21.8" font-family="Times New Roman,serif" font-weight="bold" font-size="14.00">English</text>
<text text-anchor="start" x="93" y="-7.8" font-family="Times New Roman,serif" font-size="14.00" fill="red">altercate</text>
</g>
<!-- altercariL&#45;&gt;altercate -->
<g id="edge8" class="edge">
<title>altercariL&#45;&gt;altercate</title>
<path fill="none" stroke="black" stroke-dasharray="5,2" d="M116.76,-394.71C116.46,-372.04 116,-331.04 116,-296 116,-296 116,-296 116,-111 116,-94.33 116,-75.83 116,-60.35"/>
<polygon fill="black" stroke="black" points="119.5,-60.18 116,-50.18 112.5,-60.18 119.5,-60.18"/>
</g>
<!-- alternareL -->
<g id="node11" class="node">
<title>alternareL</title>
<text text-anchor="start" x="139.5" y="-291.3" font-family="Times New Roman,serif" font-size="14.00" fill="red">alternāre, alternāt&#45;</text>
</g>
<!-- alternusL&#45;&gt;alternareL -->
<g id="edge10" class="edge">
<title>alternusL&#45;&gt;alternareL</title>
<path fill="none" stroke="black" d="M189,-454.8C189,-424.23 189,-360.19 189,-323.46"/>
<polygon fill="black" stroke="black" points="192.5,-323.01 189,-313.01 185.5,-323.01 192.5,-323.01"/>
</g>
<!-- alternate -->
<g id="node12" class="node">
<title>alternate</title>
<text text-anchor="start" x="174.5" y="-35.8" font-family="Times New Roman,serif" font-weight="bold" font-size="14.00">Modern</text>
<text text-anchor="start" x="176" y="-21.8" font-family="Times New Roman,serif" font-weight="bold" font-size="14.00">English</text>
<text text-anchor="start" x="176" y="-7.8" font-family="Times New Roman,serif" font-size="14.00" fill="red">alternate</text>
</g>
<!-- alternareL&#45;&gt;alternate -->
<g id="edge11" class="edge">
<title>alternareL&#45;&gt;alternate</title>
<path fill="none" stroke="black" stroke-dasharray="5,2" d="M189.64,-276.83C191.26,-233.32 195.56,-118.13 197.72,-60.24"/>
<polygon fill="black" stroke="black" points="201.22,-60.25 198.1,-50.12 194.23,-59.99 201.22,-60.25"/>
</g>
<!-- altruismeF -->
<g id="node14" class="node">
<title>altruismeF</title>
<text text-anchor="start" x="263" y="-298.8" font-family="Times New Roman,serif" font-weight="bold" font-size="14.00">French</text>
<text text-anchor="start" x="260" y="-284.8" font-family="Times New Roman,serif" font-size="14.00" fill="red">altruisme</text>
</g>
<!-- altruiI&#45;&gt;altruismeF -->
<g id="edge13" class="edge">
<title>altruiI&#45;&gt;altruismeF</title>
<path fill="none" stroke="black" stroke-dasharray="5,2" d="M276.31,-448.99C278.14,-416.71 281.47,-358.05 283.44,-323.5"/>
<polygon fill="black" stroke="black" points="286.95,-323.38 284.02,-313.2 279.96,-322.98 286.95,-323.38"/>
<text text-anchor="middle" x="283.5" y="-409.3" font-family="Times New Roman,serif" font-size="14.00">?</text>
</g>
<!-- altruism -->
<g id="node15" class="node">
<title>altruism</title>
<text text-anchor="start" x="258.5" y="-35.8" font-family="Times New Roman,serif" font-weight="bold" font-size="14.00">Modern</text>
<text text-anchor="start" x="260" y="-21.8" font-family="Times New Roman,serif" font-weight="bold" font-size="14.00">English</text>
<text text-anchor="start" x="261" y="-7.8" font-family="Times New Roman,serif" font-size="14.00" fill="red">altruism</text>
</g>
<!-- altruismeF&#45;&gt;altruism -->
<g id="edge14" class="edge">
<title>altruismeF&#45;&gt;altruism</title>
<path fill="none" stroke="black" stroke-dasharray="5,2" d="M284.87,-276.83C284.55,-233.32 283.69,-118.13 283.26,-60.24"/>
<polygon fill="black" stroke="black" points="286.75,-60.1 283.18,-50.12 279.75,-60.15 286.75,-60.1"/>
</g>
<!-- adL -->
<g id="node16" class="node">
<title>adL</title>
<text text-anchor="start" x="373.5" y="-567.8" font-family="Times New Roman,serif" font-weight="bold" font-size="14.00">Latin</text>
<text text-anchor="start" x="383" y="-553.8" font-family="Times New Roman,serif" font-size="14.00" fill="red">ad</text>
<text text-anchor="start" x="385" y="-541.4" font-family="Times New Roman,serif" font-size="12.00">to</text>
</g>
<!-- adL&#45;&gt;adalterumL -->
<g id="edge16" class="edge">
<title>adL&#45;&gt;adalterumL</title>
<path fill="none" stroke="black" d="M390,-533.88C390,-525.31 390,-515.42 390,-506.19"/>
<polygon fill="black" stroke="black" points="393.5,-506.14 390,-496.14 386.5,-506.14 393.5,-506.14"/>
</g>
<!-- adulterareL -->
<g id="node18" class="node">
<title>adulterareL</title>
<text text-anchor="start" x="333" y="-362.8" font-family="Times New Roman,serif" font-size="14.00" fill="red">adulterāre, adulterāt&#45;</text>
<text text-anchor="start" x="335.5" y="-350.4" font-family="Times New Roman,serif" font-size="12.00">to commit adultery with,</text>
<text text-anchor="start" x="368.5" y="-338.4" font-family="Times New Roman,serif" font-size="12.00">to pollute</text>
</g>
<!-- adalterumL&#45;&gt;adulterareL -->
<g id="edge17" class="edge">
<title>adalterumL&#45;&gt;adulterareL</title>
<path fill="none" stroke="black" d="M390,-449.99C390,-432.37 390,-407.4 390,-387.48"/>
<polygon fill="black" stroke="black" points="393.5,-387.31 390,-377.31 386.5,-387.31 393.5,-387.31"/>
</g>
<!-- adulterate -->
<g id="node19" class="node">
<title>adulterate</title>
<text text-anchor="start" x="344.5" y="-35.8" font-family="Times New Roman,serif" font-weight="bold" font-size="14.00">Modern</text>
<text text-anchor="start" x="346" y="-21.8" font-family="Times New Roman,serif" font-weight="bold" font-size="14.00">English</text>
<text text-anchor="start" x="342" y="-7.8" font-family="Times New Roman,serif" font-size="14.00" fill="red">adulterate</text>
</g>
<!-- adulterareL&#45;&gt;adulterate -->
<g id="edge18" class="edge">
<title>adulterareL&#45;&gt;adulterate</title>
<path fill="none" stroke="black" stroke-dasharray="5,2" d="M388.57,-330.78C384.97,-274.7 375.49,-127.13 371.19,-60.05"/>
<polygon fill="black" stroke="black" points="374.68,-59.76 370.54,-50 367.69,-60.21 374.68,-59.76"/>
</g>
<!-- adultereOF -->
<g id="node20" class="node">
<title>adultereOF</title>
<text text-anchor="start" x="408" y="-244.8" font-family="Times New Roman,serif" font-weight="bold" font-size="14.00">Old French</text>
<text text-anchor="start" x="421" y="-230.8" font-family="Times New Roman,serif" font-size="14.00" fill="red">adultere</text>
</g>
<!-- adulterareL&#45;&gt;adultereOF -->
<g id="edge19" class="edge">
<title>adulterareL&#45;&gt;adultereOF</title>
<path fill="none" stroke="black" d="M400.6,-330.8C409.23,-312.73 421.43,-287.17 430.53,-268.11"/>
<polygon fill="black" stroke="black" points="433.7,-269.61 434.85,-259.07 427.38,-266.59 433.7,-269.61"/>
</g>
<!-- adulteryME -->
<g id="node21" class="node">
<title>adulteryME</title>
<text text-anchor="start" x="427.5" y="-122.8" font-family="Times New Roman,serif" font-weight="bold" font-size="14.00">Middle</text>
<text text-anchor="start" x="426" y="-108.8" font-family="Times New Roman,serif" font-weight="bold" font-size="14.00">English</text>
<text text-anchor="start" x="426.5" y="-94.8" font-family="Times New Roman,serif" font-size="14.00" fill="red">adultery</text>
</g>
<!-- adultereOF&#45;&gt;adulteryME -->
<g id="edge20" class="edge">
<title>adultereOF&#45;&gt;adulteryME</title>
<path fill="none" stroke="black" stroke-dasharray="5,2" d="M443.81,-222.87C444.72,-203.65 446.22,-171.95 447.37,-147.53"/>
<polygon fill="black" stroke="black" points="450.88,-147.38 447.86,-137.23 443.89,-147.05 450.88,-147.38"/>
</g>
<!-- adultery -->
<g id="node22" class="node">
<title>adultery</title>
<text text-anchor="start" x="430.5" y="-35.8" font-family="Times New Roman,serif" font-weight="bold" font-size="14.00">Modern</text>
<text text-anchor="start" x="432" y="-21.8" font-family="Times New Roman,serif" font-weight="bold" font-size="14.00">English</text>
<text text-anchor="start" x="432.5" y="-7.8" font-family="Times New Roman,serif" font-size="14.00" fill="red">adultery</text>
</g>
<!-- adulteryME&#45;&gt;adultery -->
<g id="edge21" class="edge">
<title>adulteryME&#45;&gt;adultery</title>
<path fill="none" stroke="black" d="M450.7,-86.87C451.29,-78.61 451.95,-69.22 452.58,-60.31"/>
<polygon fill="black" stroke="black" points="456.08,-60.41 453.29,-50.19 449.1,-59.92 456.08,-60.41"/>
</g>
<!-- antharaGmc -->
<g id="node24" class="node">
<title>antharaGmc</title>
<text text-anchor="start" x="487.5" y="-561.8" font-family="Times New Roman,serif" font-weight="bold" font-size="14.00">Germanic</text>
<text text-anchor="start" x="492" y="-547.8" font-family="Times New Roman,serif" font-size="14.00" fill="red">*anthara&#45;</text>
</g>
<!-- antero&#45;&gt;antharaGmc -->
<g id="edge23" class="edge">
<title>antero&#45;&gt;antharaGmc</title>
<path fill="none" stroke="black" d="M518,-618.91C518,-609.34 518,-597.18 518,-586.32"/>
<polygon fill="black" stroke="black" points="521.5,-586.04 518,-576.04 514.5,-586.04 521.5,-586.04"/>
</g>
<!-- otherOE -->
<g id="node25" class="node">
<title>otherOE</title>
<text text-anchor="start" x="481.5" y="-476.8" font-family="Times New Roman,serif" font-weight="bold" font-size="14.00">Old English</text>
<text text-anchor="start" x="503.5" y="-462.8" font-family="Times New Roman,serif" font-size="14.00" fill="red">ōther</text>
</g>
<!-- antharaGmc&#45;&gt;otherOE -->
<g id="edge24" class="edge">
<title>antharaGmc&#45;&gt;otherOE</title>
<path fill="none" stroke="black" d="M518,-539.8C518,-528.67 518,-513.94 518,-501.24"/>
<polygon fill="black" stroke="black" points="521.5,-501.18 518,-491.18 514.5,-501.18 521.5,-501.18"/>
</g>
<!-- otherME -->
<g id="node26" class="node">
<title>otherME</title>
<text text-anchor="start" x="509.5" y="-190.8" font-family="Times New Roman,serif" font-weight="bold" font-size="14.00">Middle</text>
<text text-anchor="start" x="508" y="-176.8" font-family="Times New Roman,serif" font-weight="bold" font-size="14.00">English</text>
<text text-anchor="start" x="516.5" y="-162.8" font-family="Times New Roman,serif" font-size="14.00" fill="red">other</text>
</g>
<!-- otherOE&#45;&gt;otherME -->
<g id="edge25" class="edge">
<title>otherOE&#45;&gt;otherME</title>
<path fill="none" stroke="black" d="M518.77,-454.67C520.87,-407.82 526.67,-278.02 529.46,-215.51"/>
<polygon fill="black" stroke="black" points="532.96,-215.51 529.91,-205.37 525.97,-215.2 532.96,-215.51"/>
</g>
<!-- other -->
<g id="node27" class="node">
<title>other</title>
<text text-anchor="start" x="513.5" y="-35.8" font-family="Times New Roman,serif" font-weight="bold" font-size="14.00">Modern</text>
<text text-anchor="start" x="515" y="-21.8" font-family="Times New Roman,serif" font-weight="bold" font-size="14.00">English</text>
<text text-anchor="start" x="523.5" y="-7.8" font-family="Times New Roman,serif" font-size="14.00" fill="red">other</text>
</g>
<!-- otherME&#45;&gt;other -->
<g id="edge26" class="edge">
<title>otherME&#45;&gt;other</title>
<path fill="none" stroke="black" d="M532.11,-154.76C533.28,-129.24 535.12,-88.87 536.44,-60.14"/>
<polygon fill="black" stroke="black" points="539.94,-60.28 536.9,-50.13 532.94,-59.96 539.94,-60.28"/>
</g>
<!-- aranaSk -->
<g id="node29" class="node">
<title>aranaSk</title>
<text text-anchor="start" x="596" y="-567.8" font-family="Times New Roman,serif" font-weight="bold" font-size="14.00">Sanskrit</text>
<text text-anchor="start" x="605" y="-553.8" font-family="Times New Roman,serif" font-size="14.00" fill="red">araṇa&#45;</text>
<text text-anchor="start" x="588.5" y="-541.4" font-family="Times New Roman,serif" font-size="12.00">distant, foreign</text>
</g>
<!-- aleno&#45;&gt;aranaSk -->
<g id="edge28" class="edge">
<title>aleno&#45;&gt;aranaSk</title>
<path fill="none" stroke="black" d="M589.84,-672.87C595.61,-652.42 605.4,-617.76 612.67,-592.04"/>
<polygon fill="black" stroke="black" points="616.06,-592.9 615.41,-582.32 609.33,-590.99 616.06,-592.9"/>
</g>
<!-- aranyamSk -->
<g id="node30" class="node">
<title>aranyamSk</title>
<text text-anchor="start" x="604.5" y="-481.8" font-family="Times New Roman,serif" font-size="14.00" fill="red">araṇyam</text>
<text text-anchor="start" x="600" y="-469.4" font-family="Times New Roman,serif" font-size="12.00">foreign land,</text>
<text text-anchor="start" x="588.5" y="-457.4" font-family="Times New Roman,serif" font-size="12.00">wilderness, forest</text>
</g>
<!-- aranaSk&#45;&gt;aranyamSk -->
<g id="edge29" class="edge">
<title>aranaSk&#45;&gt;aranyamSk</title>
<path fill="none" stroke="black" d="M623.67,-533.88C624.29,-525.31 625.01,-515.42 625.67,-506.19"/>
<polygon fill="black" stroke="black" points="629.17,-506.36 626.4,-496.14 622.19,-505.86 629.17,-506.36"/>
</g>
<!-- aranyakaSk -->
<g id="node31" class="node">
<title>aranyakaSk</title>
<text text-anchor="start" x="601" y="-356.8" font-family="Times New Roman,serif" font-size="14.00" fill="red">āraṇyaka&#45;</text>
<text text-anchor="start" x="600.5" y="-344.4" font-family="Times New Roman,serif" font-size="12.00">of the forest</text>
</g>
<!-- aranyamSk&#45;&gt;aranyakaSk -->
<g id="edge30" class="edge">
<title>aranyamSk&#45;&gt;aranyakaSk</title>
<path fill="none" stroke="black" d="M628,-449.99C628,-430.83 628,-402.96 628,-382.36"/>
<polygon fill="black" stroke="black" points="631.5,-382.34 628,-372.34 624.5,-382.34 631.5,-382.34"/>
</g>
<!-- aranyakamSk -->
<g id="node32" class="node">
<title>aranyakamSk</title>
<text text-anchor="start" x="596" y="-108.3" font-family="Times New Roman,serif" font-size="14.00" fill="red">Āraṇyakam</text>
</g>
<!-- aranyakaSk&#45;&gt;aranyakamSk -->
<g id="edge31" class="edge">
<title>aranyakaSk&#45;&gt;aranyakamSk</title>
<path fill="none" stroke="black" d="M628,-335.74C628,-294.49 628,-189.9 628,-140.13"/>
<polygon fill="black" stroke="black" points="631.5,-140.1 628,-130.1 624.5,-140.1 631.5,-140.1"/>
</g>
<!-- aranyaka -->
<g id="node33" class="node">
<title>aranyaka</title>
<text text-anchor="start" x="603.5" y="-35.8" font-family="Times New Roman,serif" font-weight="bold" font-size="14.00">Modern</text>
<text text-anchor="start" x="605" y="-21.8" font-family="Times New Roman,serif" font-weight="bold" font-size="14.00">English</text>
<text text-anchor="start" x="601.5" y="-7.8" font-family="Times New Roman,serif" font-size="14.00" fill="red">Aranyaka</text>
</g>
<!-- aranyakamSk&#45;&gt;aranyaka -->
<g id="edge32" class="edge">
<title>aranyakamSk&#45;&gt;aranyaka</title>
<path fill="none" stroke="black" stroke-dasharray="5,2" d="M628,-93.8C628,-84.22 628,-71.94 628,-60.47"/>
<polygon fill="black" stroke="black" points="631.5,-60.26 628,-50.26 624.5,-60.26 631.5,-60.26"/>
</g>
</g>
</svg>
