<?xml version="1.0" encoding="UTF-8" standalone="no"?>
<!DOCTYPE svg PUBLIC "-//W3C//DTD SVG 1.1//EN"
 "http://www.w3.org/Graphics/SVG/1.1/DTD/svg11.dtd">
<!-- Generated by graphviz version 2.49.0 (20210828.1703)
 -->
<!-- Pages: 1 -->
<svg width="936pt" height="618pt"
 viewBox="0.00 0.00 935.50 618.00" xmlns="http://www.w3.org/2000/svg" xmlns:xlink="http://www.w3.org/1999/xlink">
<g id="graph0" class="graph" transform="scale(1 1) rotate(0) translate(4 614)">
<polygon fill="white" stroke="transparent" points="-4,4 -4,-614 931.5,-614 931.5,4 -4,4"/>
<!-- ambhiIE -->
<g id="node1" class="node">
<title>ambhiIE</title>
<g id="a_node1"><a xlink:href="ambhi-around.svg" xlink:title="Indo&#45;European &quot;*ambhi, *m̥bhi&quot; around">
<polygon fill="none" stroke="black" stroke-dasharray="5,2" points="415,-610 204,-610 204,-506 415,-506 415,-610"/>
<text text-anchor="start" x="231.5" y="-565.8" font-family="Times New Roman,serif" font-weight="bold" font-size="24.00">Indo&#45;European</text>
<text text-anchor="start" x="230.5" y="-537.6" font-family="Times New Roman,serif" font-size="18.00" fill="red">*ambhi, *m̥bhi</text>
<text text-anchor="start" x="345" y="-538.2" font-family="Times New Roman,serif" font-size="16.00">around</text>
</a>
</g>
</g>
<!-- ambulareL -->
<g id="node2" class="node">
<title>ambulareL</title>
<text text-anchor="start" x="293" y="-454.8" font-family="Times New Roman,serif" font-weight="bold" font-size="14.00">Latin</text>
<text text-anchor="start" x="256.5" y="-440.8" font-family="Times New Roman,serif" font-size="14.00" fill="red">ambulāre, ambulāt&#45;</text>
<text text-anchor="start" x="292.5" y="-428.4" font-family="Times New Roman,serif" font-size="12.00">to walk</text>
</g>
<!-- ambhiIE&#45;&gt;ambulareL -->
<g id="edge1" class="edge">
<title>ambhiIE&#45;&gt;ambulareL</title>
<path fill="none" stroke="black" d="M309.5,-505.72C309.5,-496.7 309.5,-487.52 309.5,-479.16"/>
<polygon fill="black" stroke="black" points="313,-479.07 309.5,-469.07 306,-479.07 313,-479.07"/>
</g>
<!-- ambulate -->
<g id="node3" class="node">
<title>ambulate</title>
<text text-anchor="start" x="191" y="-35.8" font-family="Times New Roman,serif" font-weight="bold" font-size="14.00">Modern</text>
<text text-anchor="start" x="192.5" y="-21.8" font-family="Times New Roman,serif" font-weight="bold" font-size="14.00">English</text>
<text text-anchor="start" x="190.5" y="-7.8" font-family="Times New Roman,serif" font-size="14.00" fill="red">ambulate</text>
</g>
<!-- ambulareL&#45;&gt;ambulate -->
<g id="edge2" class="edge">
<title>ambulareL&#45;&gt;ambulate</title>
<path fill="none" stroke="black" stroke-dasharray="5,2" d="M269.91,-420.86C244.22,-402.58 215.5,-374.44 215.5,-340 215.5,-340 215.5,-340 215.5,-111 215.5,-94.33 215.5,-75.83 215.5,-60.35"/>
<polygon fill="black" stroke="black" points="219,-60.18 215.5,-50.18 212,-60.18 219,-60.18"/>
</g>
<!-- ambulansL -->
<g id="node4" class="node">
<title>ambulansL</title>
<text text-anchor="start" x="252" y="-335.3" font-family="Times New Roman,serif" font-size="14.00" fill="red">ambulāns, ambulant&#45;</text>
</g>
<!-- ambulareL&#45;&gt;ambulansL -->
<g id="edge3" class="edge">
<title>ambulareL&#45;&gt;ambulansL</title>
<path fill="none" stroke="black" d="M309.5,-420.92C309.5,-405.11 309.5,-384.08 309.5,-367.42"/>
<polygon fill="black" stroke="black" points="313,-367.2 309.5,-357.2 306,-367.2 313,-367.2"/>
</g>
<!-- allerOF -->
<g id="node7" class="node">
<title>allerOF</title>
<text text-anchor="start" x="593.5" y="-342.8" font-family="Times New Roman,serif" font-weight="bold" font-size="14.00">Old French</text>
<text text-anchor="start" x="617" y="-328.8" font-family="Times New Roman,serif" font-size="14.00" fill="red">aller</text>
</g>
<!-- ambulareL&#45;&gt;allerOF -->
<g id="edge6" class="edge">
<title>ambulareL&#45;&gt;allerOF</title>
<path fill="none" stroke="black" d="M359.83,-420.94C386.33,-409.59 419.66,-396.54 450.5,-388 498.24,-374.78 513.01,-384.11 560.5,-370 568.59,-367.6 576.98,-364.46 585,-361.13"/>
<polygon fill="black" stroke="black" points="586.4,-364.33 594.2,-357.15 583.63,-357.91 586.4,-364.33"/>
</g>
<!-- andareI -->
<g id="node14" class="node">
<title>andareI</title>
<text text-anchor="start" x="14.5" y="-342.8" font-family="Times New Roman,serif" font-weight="bold" font-size="14.00">Italian</text>
<text text-anchor="start" x="16" y="-328.8" font-family="Times New Roman,serif" font-size="14.00" fill="red">andare</text>
</g>
<!-- ambulareL&#45;&gt;andareI -->
<g id="edge13" class="edge">
<title>ambulareL&#45;&gt;andareI</title>
<path fill="none" stroke="black" d="M248.45,-432.01C198.74,-420.64 127.84,-400.67 71.5,-370 68,-368.1 64.52,-365.85 61.15,-363.45"/>
<polygon fill="black" stroke="black" points="63.2,-360.61 53.13,-357.31 58.94,-366.17 63.2,-360.61"/>
<text text-anchor="middle" x="151" y="-391.8" font-family="Times New Roman,serif" font-size="14.00">?</text>
<polyline fill="none" stroke="black" points="154.5,-388 147.5,-388 148.26,-403.39 "/>
</g>
<!-- funambulusL -->
<g id="node18" class="node">
<title>funambulusL</title>
<text text-anchor="start" x="93" y="-341.8" font-family="Times New Roman,serif" font-size="14.00" fill="red">fūnambulus</text>
<text text-anchor="start" x="88.5" y="-329.4" font-family="Times New Roman,serif" font-size="12.00">tightrope walker</text>
</g>
<!-- ambulareL&#45;&gt;funambulusL -->
<g id="edge16" class="edge">
<title>ambulareL&#45;&gt;funambulusL</title>
<path fill="none" stroke="black" d="M248.29,-424.04C233.22,-418.13 217.42,-411.05 203.5,-403 184.55,-392.05 165.41,-376.66 150.82,-363.83"/>
<polygon fill="black" stroke="black" points="153,-361.08 143.22,-357.01 148.33,-366.3 153,-361.08"/>
</g>
<!-- perambulareL -->
<g id="node22" class="node">
<title>perambulareL</title>
<text text-anchor="start" x="401.5" y="-335.3" font-family="Times New Roman,serif" font-size="14.00" fill="red">perambulāre, perambulāt&#45;</text>
</g>
<!-- ambulareL&#45;&gt;perambulareL -->
<g id="edge20" class="edge">
<title>ambulareL&#45;&gt;perambulareL</title>
<path fill="none" stroke="black" d="M345.67,-420.92C372.89,-403.55 410,-379.88 437.04,-362.62"/>
<polygon fill="black" stroke="black" points="439.25,-365.37 445.8,-357.04 435.48,-359.47 439.25,-365.37"/>
</g>
<!-- praeambulumL -->
<g id="node25" class="node">
<title>praeambulumL</title>
<text text-anchor="start" x="707" y="-355.8" font-family="Times New Roman,serif" font-weight="bold" font-size="14.00">Medieval</text>
<text text-anchor="start" x="719" y="-341.8" font-family="Times New Roman,serif" font-weight="bold" font-size="14.00">Latin</text>
<text text-anchor="start" x="697.5" y="-327.8" font-family="Times New Roman,serif" font-size="14.00" fill="red">praeambulum</text>
<text text-anchor="start" x="700.5" y="-315.4" font-family="Times New Roman,serif" font-size="12.00">walking in front</text>
</g>
<!-- ambulareL&#45;&gt;praeambulumL -->
<g id="edge24" class="edge">
<title>ambulareL&#45;&gt;praeambulumL</title>
<path fill="none" stroke="black" d="M370.78,-437.53C443.5,-428.6 567.94,-409.33 679.71,-369.89"/>
<polygon fill="black" stroke="black" points="681.22,-373.07 689.45,-366.39 678.86,-366.48 681.22,-373.07"/>
</g>
<!-- ambulantF -->
<g id="node5" class="node">
<title>ambulantF</title>
<text text-anchor="start" x="284.5" y="-188.8" font-family="Times New Roman,serif" font-weight="bold" font-size="14.00">French</text>
<text text-anchor="start" x="256" y="-174.8" font-family="Times New Roman,serif" font-size="14.00" fill="red">(hôpital) ambulant</text>
<text text-anchor="start" x="268.5" y="-162.4" font-family="Times New Roman,serif" font-size="12.00">mobile (hospital)</text>
</g>
<!-- ambulansL&#45;&gt;ambulantF -->
<g id="edge4" class="edge">
<title>ambulansL&#45;&gt;ambulantF</title>
<path fill="none" stroke="black" d="M309.17,-320.79C308.68,-295.03 307.75,-245.95 307.13,-213.09"/>
<polygon fill="black" stroke="black" points="310.63,-212.98 306.94,-203.05 303.63,-213.11 310.63,-212.98"/>
</g>
<!-- ambulance -->
<g id="node6" class="node">
<title>ambulance</title>
<text text-anchor="start" x="280" y="-35.8" font-family="Times New Roman,serif" font-weight="bold" font-size="14.00">Modern</text>
<text text-anchor="start" x="281.5" y="-21.8" font-family="Times New Roman,serif" font-weight="bold" font-size="14.00">English</text>
<text text-anchor="start" x="274.5" y="-7.8" font-family="Times New Roman,serif" font-size="14.00" fill="red">ambulance</text>
</g>
<!-- ambulantF&#45;&gt;ambulance -->
<g id="edge5" class="edge">
<title>ambulantF&#45;&gt;ambulance</title>
<path fill="none" stroke="black" stroke-dasharray="5,2" d="M306.2,-154.91C305.86,-129.69 305.33,-89.03 304.95,-60.13"/>
<polygon fill="black" stroke="black" points="308.45,-60.01 304.82,-50.06 301.45,-60.1 308.45,-60.01"/>
</g>
<!-- aleeOF -->
<g id="node8" class="node">
<title>aleeOF</title>
<text text-anchor="start" x="707.5" y="-242.3" font-family="Times New Roman,serif" font-size="14.00" fill="red">alee</text>
</g>
<!-- allerOF&#45;&gt;aleeOF -->
<g id="edge7" class="edge">
<title>allerOF&#45;&gt;aleeOF</title>
<path fill="none" stroke="black" d="M645.43,-320.88C659.26,-306.9 678.97,-286.97 694.44,-271.33"/>
<polygon fill="black" stroke="black" points="697.1,-273.61 701.65,-264.04 692.13,-268.69 697.1,-273.61"/>
</g>
<!-- allezF -->
<g id="node11" class="node">
<title>allezF</title>
<text text-anchor="start" x="614.5" y="-256.8" font-family="Times New Roman,serif" font-weight="bold" font-size="14.00">French</text>
<text text-anchor="start" x="623" y="-242.8" font-family="Times New Roman,serif" font-size="14.00" fill="red">aller,</text>
<text text-anchor="start" x="624" y="-228.8" font-family="Times New Roman,serif" font-size="14.00" fill="red">allez</text>
</g>
<!-- allerOF&#45;&gt;allezF -->
<g id="edge10" class="edge">
<title>allerOF&#45;&gt;allezF</title>
<path fill="none" stroke="black" d="M630,-320.88C630.99,-309.72 632.3,-294.77 633.49,-281.24"/>
<polygon fill="black" stroke="black" points="636.98,-281.52 634.37,-271.25 630.01,-280.91 636.98,-281.52"/>
</g>
<!-- aleiME -->
<g id="node9" class="node">
<title>aleiME</title>
<text text-anchor="start" x="781" y="-122.8" font-family="Times New Roman,serif" font-weight="bold" font-size="14.00">Middle</text>
<text text-anchor="start" x="779.5" y="-108.8" font-family="Times New Roman,serif" font-weight="bold" font-size="14.00">English</text>
<text text-anchor="start" x="793" y="-94.8" font-family="Times New Roman,serif" font-size="14.00" fill="red">alei</text>
</g>
<!-- aleeOF&#45;&gt;aleiME -->
<g id="edge8" class="edge">
<title>aleeOF&#45;&gt;aleiME</title>
<path fill="none" stroke="black" stroke-dasharray="5,2" d="M729.48,-227.74C742.61,-207.11 764.87,-172.13 781.37,-146.2"/>
<polygon fill="black" stroke="black" points="784.53,-147.76 786.94,-137.45 778.62,-144 784.53,-147.76"/>
</g>
<!-- alley -->
<g id="node10" class="node">
<title>alley</title>
<text text-anchor="start" x="784" y="-35.8" font-family="Times New Roman,serif" font-weight="bold" font-size="14.00">Modern</text>
<text text-anchor="start" x="785.5" y="-21.8" font-family="Times New Roman,serif" font-weight="bold" font-size="14.00">English</text>
<text text-anchor="start" x="796" y="-7.8" font-family="Times New Roman,serif" font-size="14.00" fill="red">alley</text>
</g>
<!-- aleiME&#45;&gt;alley -->
<g id="edge9" class="edge">
<title>aleiME&#45;&gt;alley</title>
<path fill="none" stroke="black" d="M804.2,-86.87C804.79,-78.61 805.45,-69.22 806.08,-60.31"/>
<polygon fill="black" stroke="black" points="809.58,-60.41 806.79,-50.19 802.6,-59.92 809.58,-60.41"/>
</g>
<!-- allezoopF -->
<g id="node12" class="node">
<title>allezoopF</title>
<text text-anchor="start" x="665.5" y="-120.8" font-family="Times New Roman,serif" font-size="14.00" fill="red">allez&#45;oop</text>
<text text-anchor="start" x="643" y="-108.4" font-family="Times New Roman,serif" font-size="12.00">(cry of circus acrobat</text>
<text text-anchor="start" x="659.5" y="-96.4" font-family="Times New Roman,serif" font-size="12.00">about to leap)</text>
</g>
<!-- allezF&#45;&gt;allezoopF -->
<g id="edge11" class="edge">
<title>allezF&#45;&gt;allezoopF</title>
<path fill="none" stroke="black" d="M646.59,-220.79C655.49,-199.43 668.52,-168.15 678.26,-144.78"/>
<polygon fill="black" stroke="black" points="681.59,-145.88 682.21,-135.3 675.13,-143.18 681.59,-145.88"/>
</g>
<!-- alleyoop -->
<g id="node13" class="node">
<title>alleyoop</title>
<text text-anchor="start" x="699" y="-35.8" font-family="Times New Roman,serif" font-weight="bold" font-size="14.00">Modern</text>
<text text-anchor="start" x="700.5" y="-21.8" font-family="Times New Roman,serif" font-weight="bold" font-size="14.00">English</text>
<text text-anchor="start" x="697.5" y="-7.8" font-family="Times New Roman,serif" font-size="14.00" fill="red">alley&#45;oop</text>
</g>
<!-- allezoopF&#45;&gt;alleyoop -->
<g id="edge12" class="edge">
<title>allezoopF&#45;&gt;alleyoop</title>
<path fill="none" stroke="black" stroke-dasharray="5,2" d="M699.91,-88.67C703.24,-79.81 707.15,-69.44 710.81,-59.71"/>
<polygon fill="black" stroke="black" points="714.11,-60.86 714.36,-50.27 707.56,-58.4 714.11,-60.86"/>
</g>
<!-- andanteI -->
<g id="node15" class="node">
<title>andanteI</title>
<text text-anchor="start" x="12" y="-175.3" font-family="Times New Roman,serif" font-size="14.00" fill="red">andante</text>
</g>
<!-- andareI&#45;&gt;andanteI -->
<g id="edge14" class="edge">
<title>andareI&#45;&gt;andanteI</title>
<path fill="none" stroke="black" d="M34.39,-320.79C34.22,-293.48 33.88,-239.99 33.67,-207.38"/>
<polygon fill="black" stroke="black" points="37.17,-207.17 33.61,-197.19 30.17,-207.21 37.17,-207.17"/>
</g>
<!-- andante -->
<g id="node16" class="node">
<title>andante</title>
<text text-anchor="start" x="8" y="-35.8" font-family="Times New Roman,serif" font-weight="bold" font-size="14.00">Modern</text>
<text text-anchor="start" x="9.5" y="-21.8" font-family="Times New Roman,serif" font-weight="bold" font-size="14.00">English</text>
<text text-anchor="start" x="11" y="-7.8" font-family="Times New Roman,serif" font-size="14.00" fill="red">andante</text>
</g>
<!-- andanteI&#45;&gt;andante -->
<g id="edge15" class="edge">
<title>andanteI&#45;&gt;andante</title>
<path fill="none" stroke="black" stroke-dasharray="5,2" d="M33.39,-160.86C33.23,-136.51 32.93,-91.41 32.72,-60.1"/>
<polygon fill="black" stroke="black" points="36.22,-60.04 32.66,-50.06 29.22,-60.09 36.22,-60.04"/>
</g>
<!-- funisL -->
<g id="node17" class="node">
<title>funisL</title>
<text text-anchor="start" x="109" y="-454.8" font-family="Times New Roman,serif" font-weight="bold" font-size="14.00">Latin</text>
<text text-anchor="start" x="111.5" y="-440.8" font-family="Times New Roman,serif" font-size="14.00" fill="red">fūnis</text>
<text text-anchor="start" x="114.5" y="-428.4" font-family="Times New Roman,serif" font-size="12.00">rope</text>
</g>
<!-- funisL&#45;&gt;funambulusL -->
<g id="edge17" class="edge">
<title>funisL&#45;&gt;funambulusL</title>
<path fill="none" stroke="black" d="M125.5,-420.92C125.5,-405.11 125.5,-384.08 125.5,-367.42"/>
<polygon fill="black" stroke="black" points="129,-367.2 125.5,-357.2 122,-367.2 129,-367.2"/>
</g>
<!-- funambulist -->
<g id="node19" class="node">
<title>funambulist</title>
<text text-anchor="start" x="99" y="-35.8" font-family="Times New Roman,serif" font-weight="bold" font-size="14.00">Modern</text>
<text text-anchor="start" x="100.5" y="-21.8" font-family="Times New Roman,serif" font-weight="bold" font-size="14.00">English</text>
<text text-anchor="start" x="91" y="-7.8" font-family="Times New Roman,serif" font-size="14.00" fill="red">funambulist</text>
</g>
<!-- funambulusL&#45;&gt;funambulist -->
<g id="edge18" class="edge">
<title>funambulusL&#45;&gt;funambulist</title>
<path fill="none" stroke="black" stroke-dasharray="5,2" d="M125.39,-320.78C125.07,-271.17 124.15,-127.2 123.72,-60.58"/>
<polygon fill="black" stroke="black" points="127.22,-60.18 123.66,-50.2 120.22,-60.22 127.22,-60.18"/>
</g>
<!-- perIE -->
<g id="node20" class="node">
<title>perIE</title>
<text text-anchor="start" x="612" y="-580.8" font-family="Times New Roman,serif" font-weight="bold" font-size="14.00">Indo&#45;</text>
<text text-anchor="start" x="598" y="-566.8" font-family="Times New Roman,serif" font-weight="bold" font-size="14.00">European</text>
<text text-anchor="start" x="616" y="-552.8" font-family="Times New Roman,serif" font-size="14.00" fill="red">*per</text>
<text text-anchor="start" x="610" y="-540.4" font-family="Times New Roman,serif" font-size="12.00">(various</text>
<text text-anchor="start" x="599" y="-528.4" font-family="Times New Roman,serif" font-size="12.00">prepositions)</text>
</g>
<!-- perL -->
<g id="node21" class="node">
<title>perL</title>
<g id="a_node21"><a xlink:href="per-peri.svg" xlink:title="&lt;b&gt;Latin&lt;/b&gt;&lt;br/&gt;&lt;font color=&quot;red&quot;&gt;per, per&#45;&lt;/font&gt;&lt;br/&gt;&lt;font point&#45;size=&quot;12&quot;&gt;through&lt;/font&gt;">
<path fill="none" stroke="black" stroke-dasharray="5,2" d="M568,-469C568,-469 527,-469 527,-469 521,-469 515,-463 515,-457 515,-457 515,-433 515,-433 515,-427 521,-421 527,-421 527,-421 568,-421 568,-421 574,-421 580,-427 580,-433 580,-433 580,-457 580,-457 580,-463 574,-469 568,-469"/>
<text text-anchor="start" x="531" y="-454.8" font-family="Times New Roman,serif" font-weight="bold" font-size="14.00">Latin</text>
<text text-anchor="start" x="523" y="-440.8" font-family="Times New Roman,serif" font-size="14.00" fill="red">per, per&#45;</text>
<text text-anchor="start" x="530.5" y="-428.4" font-family="Times New Roman,serif" font-size="12.00">through</text>
</a>
</g>
</g>
<!-- perIE&#45;&gt;perL -->
<g id="edge19" class="edge">
<title>perIE&#45;&gt;perL</title>
<path fill="none" stroke="black" d="M602.2,-520.96C591.95,-506.91 580.31,-490.96 570.41,-477.39"/>
<polygon fill="black" stroke="black" points="573.22,-475.3 564.49,-469.29 567.56,-479.43 573.22,-475.3"/>
</g>
<!-- praeL -->
<g id="node24" class="node">
<title>praeL</title>
<g id="a_node24"><a xlink:href="per-prai1.svg" xlink:title="&lt;b&gt;Latin&lt;/b&gt;&lt;br/&gt;&lt;font color=&quot;red&quot;&gt;prae&#45;&lt;/font&gt;&lt;br/&gt;&lt;font point&#45;size=&quot;12&quot;&gt;before&lt;/font&gt;">
<path fill="none" stroke="black" stroke-dasharray="5,2" d="M724.5,-469C724.5,-469 694.5,-469 694.5,-469 688.5,-469 682.5,-463 682.5,-457 682.5,-457 682.5,-433 682.5,-433 682.5,-427 688.5,-421 694.5,-421 694.5,-421 724.5,-421 724.5,-421 730.5,-421 736.5,-427 736.5,-433 736.5,-433 736.5,-457 736.5,-457 736.5,-463 730.5,-469 724.5,-469"/>
<text text-anchor="start" x="693" y="-454.8" font-family="Times New Roman,serif" font-weight="bold" font-size="14.00">Latin</text>
<text text-anchor="start" x="695" y="-440.8" font-family="Times New Roman,serif" font-size="14.00" fill="red">prae&#45;</text>
<text text-anchor="start" x="694.5" y="-428.4" font-family="Times New Roman,serif" font-size="12.00">before</text>
</a>
</g>
</g>
<!-- perIE&#45;&gt;praeL -->
<g id="edge23" class="edge">
<title>perIE&#45;&gt;praeL</title>
<path fill="none" stroke="black" d="M654.8,-520.96C665.05,-506.91 676.69,-490.96 686.59,-477.39"/>
<polygon fill="black" stroke="black" points="689.44,-479.43 692.51,-469.29 683.78,-475.3 689.44,-479.43"/>
</g>
<!-- perL&#45;&gt;perambulareL -->
<g id="edge21" class="edge">
<title>perL&#45;&gt;perambulareL</title>
<path fill="none" stroke="black" d="M530.86,-420.92C519.02,-404.51 503.13,-382.47 490.91,-365.53"/>
<polygon fill="black" stroke="black" points="493.59,-363.26 484.9,-357.2 487.91,-367.36 493.59,-363.26"/>
</g>
<!-- perambulate -->
<g id="node23" class="node">
<title>perambulate</title>
<text text-anchor="start" x="378" y="-35.8" font-family="Times New Roman,serif" font-weight="bold" font-size="14.00">Modern</text>
<text text-anchor="start" x="379.5" y="-21.8" font-family="Times New Roman,serif" font-weight="bold" font-size="14.00">English</text>
<text text-anchor="start" x="368.5" y="-7.8" font-family="Times New Roman,serif" font-size="14.00" fill="red">perambulate</text>
</g>
<!-- perambulareL&#45;&gt;perambulate -->
<g id="edge22" class="edge">
<title>perambulareL&#45;&gt;perambulate</title>
<path fill="none" stroke="black" stroke-dasharray="5,2" d="M468.64,-320.78C457.48,-271.06 425.07,-126.61 410.17,-60.17"/>
<polygon fill="black" stroke="black" points="413.53,-59.19 407.93,-50.2 406.7,-60.72 413.53,-59.19"/>
</g>
<!-- perambulator -->
<g id="node29" class="node">
<title>perambulator</title>
<text text-anchor="start" x="501" y="-35.8" font-family="Times New Roman,serif" font-weight="bold" font-size="14.00">Modern</text>
<text text-anchor="start" x="502.5" y="-21.8" font-family="Times New Roman,serif" font-weight="bold" font-size="14.00">English</text>
<text text-anchor="start" x="488.5" y="-7.8" font-family="Times New Roman,serif" font-size="14.00" fill="red">perambulator</text>
</g>
<!-- perambulate&#45;&gt;perambulator -->
<g id="edge29" class="edge">
<title>perambulate&#45;&gt;perambulator</title>
<path fill="none" stroke="black" d="M444.78,-25C453.32,-25 461.85,-25 470.39,-25"/>
<polygon fill="black" stroke="black" points="470.41,-28.5 480.41,-25 470.41,-21.5 470.41,-28.5"/>
</g>
<!-- praeL&#45;&gt;praeambulumL -->
<g id="edge25" class="edge">
<title>praeL&#45;&gt;praeambulumL</title>
<path fill="none" stroke="black" d="M715.27,-420.92C718.28,-408.88 722.05,-393.81 725.51,-379.95"/>
<polygon fill="black" stroke="black" points="728.94,-380.68 727.97,-370.13 722.15,-378.98 728.94,-380.68"/>
</g>
<!-- preambuleOF -->
<g id="node26" class="node">
<title>preambuleOF</title>
<text text-anchor="start" x="814.5" y="-249.8" font-family="Times New Roman,serif" font-weight="bold" font-size="14.00">Old French</text>
<text text-anchor="start" x="820.5" y="-235.8" font-family="Times New Roman,serif" font-size="14.00" fill="red">preambule</text>
</g>
<!-- praeambulumL&#45;&gt;preambuleOF -->
<g id="edge26" class="edge">
<title>praeambulumL&#45;&gt;preambuleOF</title>
<path fill="none" stroke="black" d="M773.14,-307.95C788.43,-295.75 805.83,-281.86 820.15,-270.43"/>
<polygon fill="black" stroke="black" points="822.56,-272.98 828.19,-264.01 818.19,-267.51 822.56,-272.98"/>
</g>
<!-- preambleME -->
<g id="node27" class="node">
<title>preambleME</title>
<text text-anchor="start" x="868" y="-122.8" font-family="Times New Roman,serif" font-weight="bold" font-size="14.00">Middle</text>
<text text-anchor="start" x="866.5" y="-108.8" font-family="Times New Roman,serif" font-weight="bold" font-size="14.00">English</text>
<text text-anchor="start" x="863.5" y="-94.8" font-family="Times New Roman,serif" font-size="14.00" fill="red">preamble</text>
</g>
<!-- preambuleOF&#45;&gt;preambleME -->
<g id="edge27" class="edge">
<title>preambuleOF&#45;&gt;preambleME</title>
<path fill="none" stroke="black" stroke-dasharray="5,2" d="M854.73,-227.74C860.9,-207.38 871.3,-173.04 879.13,-147.23"/>
<polygon fill="black" stroke="black" points="882.54,-148.03 882.09,-137.45 875.84,-146 882.54,-148.03"/>
</g>
<!-- preamble -->
<g id="node28" class="node">
<title>preamble</title>
<text text-anchor="start" x="869" y="-35.8" font-family="Times New Roman,serif" font-weight="bold" font-size="14.00">Modern</text>
<text text-anchor="start" x="870.5" y="-21.8" font-family="Times New Roman,serif" font-weight="bold" font-size="14.00">English</text>
<text text-anchor="start" x="867.5" y="-7.8" font-family="Times New Roman,serif" font-size="14.00" fill="red">preamble</text>
</g>
<!-- preambleME&#45;&gt;preamble -->
<g id="edge28" class="edge">
<title>preambleME&#45;&gt;preamble</title>
<path fill="none" stroke="black" d="M890.64,-86.87C891.02,-78.61 891.47,-69.22 891.89,-60.31"/>
<polygon fill="black" stroke="black" points="895.39,-60.34 892.36,-50.19 888.4,-60.01 895.39,-60.34"/>
</g>
<!-- pram -->
<g id="node30" class="node">
<title>pram</title>
<text text-anchor="start" x="614" y="-35.8" font-family="Times New Roman,serif" font-weight="bold" font-size="14.00">Modern</text>
<text text-anchor="start" x="615.5" y="-21.8" font-family="Times New Roman,serif" font-weight="bold" font-size="14.00">English</text>
<text text-anchor="start" x="624" y="-7.8" font-family="Times New Roman,serif" font-size="14.00" fill="red">pram</text>
</g>
<!-- perambulator&#45;&gt;pram -->
<g id="edge30" class="edge">
<title>perambulator&#45;&gt;pram</title>
<path fill="none" stroke="black" d="M570.52,-25C578.89,-25 587.26,-25 595.63,-25"/>
<polygon fill="black" stroke="black" points="595.84,-28.5 605.84,-25 595.84,-21.5 595.84,-28.5"/>
</g>
</g>
</svg>
