<?xml version="1.0" encoding="UTF-8" standalone="no"?>
<!DOCTYPE svg PUBLIC "-//W3C//DTD SVG 1.1//EN"
 "http://www.w3.org/Graphics/SVG/1.1/DTD/svg11.dtd">
<!-- Generated by graphviz version 2.49.0 (20210828.1703)
 -->
<!-- Pages: 1 -->
<svg width="1373pt" height="840pt"
 viewBox="0.00 0.00 1372.50 840.00" xmlns="http://www.w3.org/2000/svg" xmlns:xlink="http://www.w3.org/1999/xlink">
<g id="graph0" class="graph" transform="scale(1 1) rotate(0) translate(4 836)">
<polygon fill="white" stroke="transparent" points="-4,4 -4,-836 1368.5,-836 1368.5,4 -4,4"/>
<!-- ane -->
<g id="node1" class="node">
<title>ane</title>
<g id="a_node1"><a xlink:title="Indo&#45;European &quot;*anə&#45;&quot; to breathe">
<polygon fill="none" stroke="black" points="825,-828 614,-828 614,-724 825,-724 825,-828"/>
<polygon fill="none" stroke="black" points="829,-832 610,-832 610,-720 829,-720 829,-832"/>
<text text-anchor="start" x="641.5" y="-783.8" font-family="Times New Roman,serif" font-weight="bold" font-size="24.00">Indo&#45;European</text>
<text text-anchor="start" x="653" y="-755.6" font-family="Times New Roman,serif" font-size="18.00" fill="red">*anə&#45;</text>
<text text-anchor="start" x="725" y="-756.2" font-family="Times New Roman,serif" font-size="16.00">to breathe</text>
</a>
</g>
</g>
<!-- anemo -->
<g id="node2" class="node">
<title>anemo</title>
<text text-anchor="start" x="696" y="-655.3" font-family="Times New Roman,serif" font-size="14.00" fill="red">*anə&#45;mo&#45;</text>
</g>
<!-- ane&#45;&gt;anemo -->
<g id="edge1" class="edge">
<title>ane&#45;&gt;anemo</title>
<path fill="none" stroke="black" d="M720.94,-719.86C721.23,-708.55 721.53,-697.12 721.79,-687.32"/>
<polygon fill="black" stroke="black" points="725.29,-687.13 722.06,-677.05 718.3,-686.95 725.29,-687.13"/>
</g>
<!-- animaL -->
<g id="node3" class="node">
<title>animaL</title>
<text text-anchor="start" x="137" y="-463.8" font-family="Times New Roman,serif" font-weight="bold" font-size="14.00">Latin</text>
<text text-anchor="start" x="137" y="-449.8" font-family="Times New Roman,serif" font-size="14.00" fill="red">anima</text>
<text text-anchor="start" x="103.5" y="-437.4" font-family="Times New Roman,serif" font-size="12.00">soul, spirit, life, breath</text>
</g>
<!-- anemo&#45;&gt;animaL -->
<g id="edge2" class="edge">
<title>anemo&#45;&gt;animaL</title>
<path fill="none" stroke="black" d="M687.76,-645.61C595.56,-612.71 343.36,-522.73 221.37,-479.21"/>
<polygon fill="black" stroke="black" points="222.34,-475.85 211.75,-475.78 219.99,-482.44 222.34,-475.85"/>
</g>
<!-- animusL -->
<g id="node4" class="node">
<title>animusL</title>
<text text-anchor="start" x="754" y="-548.8" font-family="Times New Roman,serif" font-weight="bold" font-size="14.00">Latin</text>
<text text-anchor="start" x="750.5" y="-534.8" font-family="Times New Roman,serif" font-size="14.00" fill="red">animus</text>
<text text-anchor="start" x="727.5" y="-522.4" font-family="Times New Roman,serif" font-size="12.00">reason, mind, spirit</text>
</g>
<!-- anemo&#45;&gt;animusL -->
<g id="edge3" class="edge">
<title>anemo&#45;&gt;animusL</title>
<path fill="none" stroke="black" d="M729.48,-640.84C736.73,-623.02 748.24,-594.72 757.23,-572.62"/>
<polygon fill="black" stroke="black" points="760.51,-573.86 761.03,-563.28 754.02,-571.22 760.51,-573.86"/>
</g>
<!-- anemosG -->
<g id="node5" class="node">
<title>anemosG</title>
<text text-anchor="start" x="1066.5" y="-378.8" font-family="Times New Roman,serif" font-weight="bold" font-size="14.00">Greek</text>
<text text-anchor="start" x="1065" y="-364.8" font-family="Times New Roman,serif" font-size="14.00" fill="red">anemos</text>
<text text-anchor="start" x="1075.5" y="-352.4" font-family="Times New Roman,serif" font-size="12.00">wind</text>
</g>
<!-- anemo&#45;&gt;anemosG -->
<g id="edge4" class="edge">
<title>anemo&#45;&gt;anemosG</title>
<path fill="none" stroke="black" d="M757.27,-657.75C797.33,-655.91 863.65,-647.91 910.5,-617 992.63,-562.81 1048.64,-456.12 1072.9,-402.45"/>
<polygon fill="black" stroke="black" points="1076.2,-403.63 1077.06,-393.07 1069.8,-400.8 1076.2,-403.63"/>
</g>
<!-- anima -->
<g id="node6" class="node">
<title>anima</title>
<text text-anchor="start" x="8" y="-42.8" font-family="Times New Roman,serif" font-weight="bold" font-size="14.00">Modern</text>
<text text-anchor="start" x="9.5" y="-28.8" font-family="Times New Roman,serif" font-weight="bold" font-size="14.00">English</text>
<text text-anchor="start" x="16" y="-14.8" font-family="Times New Roman,serif" font-size="14.00" fill="red">anima</text>
</g>
<!-- animaL&#45;&gt;anima -->
<g id="edge5" class="edge">
<title>animaL&#45;&gt;anima</title>
<path fill="none" stroke="black" stroke-dasharray="5,2" d="M95.48,-436.97C64.43,-424.48 32.5,-403.5 32.5,-370 32.5,-370 32.5,-370 32.5,-125 32.5,-105.95 32.5,-84.69 32.5,-67.4"/>
<polygon fill="black" stroke="black" points="36,-67.21 32.5,-57.21 29,-67.21 36,-67.21"/>
</g>
<!-- animalisL -->
<g id="node8" class="node">
<title>animalisL</title>
<text text-anchor="start" x="93" y="-371.8" font-family="Times New Roman,serif" font-size="14.00" fill="red">animālis</text>
<text text-anchor="start" x="104" y="-359.4" font-family="Times New Roman,serif" font-size="12.00">living</text>
</g>
<!-- animaL&#45;&gt;animalisL -->
<g id="edge7" class="edge">
<title>animaL&#45;&gt;animalisL</title>
<path fill="none" stroke="black" d="M142.91,-429.88C138.17,-419.52 132.56,-407.25 127.64,-396.53"/>
<polygon fill="black" stroke="black" points="130.72,-394.84 123.38,-387.21 124.36,-397.75 130.72,-394.84"/>
</g>
<!-- animareL -->
<g id="node11" class="node">
<title>animareL</title>
<text text-anchor="start" x="172" y="-371.8" font-family="Times New Roman,serif" font-size="14.00" fill="red">animāre, animāt&#45;</text>
<text text-anchor="start" x="194" y="-359.4" font-family="Times New Roman,serif" font-size="12.00">to animate</text>
</g>
<!-- animaL&#45;&gt;animareL -->
<g id="edge10" class="edge">
<title>animaL&#45;&gt;animareL</title>
<path fill="none" stroke="black" d="M171.33,-429.88C179.64,-419.1 189.55,-406.25 198.05,-395.22"/>
<polygon fill="black" stroke="black" points="200.9,-397.26 204.23,-387.21 195.36,-392.99 200.9,-397.26"/>
</g>
<!-- animus -->
<g id="node7" class="node">
<title>animus</title>
<text text-anchor="start" x="735" y="-42.8" font-family="Times New Roman,serif" font-weight="bold" font-size="14.00">Modern</text>
<text text-anchor="start" x="736.5" y="-28.8" font-family="Times New Roman,serif" font-weight="bold" font-size="14.00">English</text>
<text text-anchor="start" x="739.5" y="-14.8" font-family="Times New Roman,serif" font-size="14.00" fill="red">animus</text>
</g>
<!-- animusL&#45;&gt;animus -->
<g id="edge6" class="edge">
<title>animusL&#45;&gt;animus</title>
<path fill="none" stroke="black" stroke-dasharray="5,2" d="M770.5,-514.75C770.5,-498.11 770.5,-475.17 770.5,-455 770.5,-455 770.5,-455 770.5,-125 770.5,-105.82 768.11,-84.54 765.56,-67.29"/>
<polygon fill="black" stroke="black" points="768.98,-66.46 763.97,-57.12 762.06,-67.54 768.98,-66.46"/>
</g>
<!-- animosusL -->
<g id="node19" class="node">
<title>animosusL</title>
<text text-anchor="start" x="681" y="-456.8" font-family="Times New Roman,serif" font-size="14.00" fill="red">animōsus</text>
<text text-anchor="start" x="697" y="-444.4" font-family="Times New Roman,serif" font-size="12.00">bold</text>
</g>
<!-- animusL&#45;&gt;animosusL -->
<g id="edge18" class="edge">
<title>animusL&#45;&gt;animosusL</title>
<path fill="none" stroke="black" d="M752.95,-514.88C744.77,-504.1 735.01,-491.25 726.64,-480.22"/>
<polygon fill="black" stroke="black" points="729.39,-478.05 720.56,-472.21 723.82,-482.29 729.39,-478.05"/>
</g>
<!-- animadvertereL -->
<g id="node28" class="node">
<title>animadvertereL</title>
<text text-anchor="start" x="1152.5" y="-456.8" font-family="Times New Roman,serif" font-size="14.00" fill="red">animadvertere</text>
<text text-anchor="start" x="1171.5" y="-444.4" font-family="Times New Roman,serif" font-size="12.00">to notice</text>
</g>
<!-- animusL&#45;&gt;animadvertereL -->
<g id="edge26" class="edge">
<title>animusL&#45;&gt;animadvertereL</title>
<path fill="none" stroke="black" d="M821.7,-527.91C900.69,-512.33 1051.75,-482.55 1134.25,-466.29"/>
<polygon fill="black" stroke="black" points="1135.07,-469.69 1144.21,-464.32 1133.72,-462.82 1135.07,-469.69"/>
</g>
<!-- aequanimusL -->
<g id="node32" class="node">
<title>aequanimusL</title>
<text text-anchor="start" x="557.5" y="-456.8" font-family="Times New Roman,serif" font-size="14.00" fill="red">aequanimus</text>
<text text-anchor="start" x="534" y="-444.4" font-family="Times New Roman,serif" font-size="12.00">even&#45;tempered, impartial</text>
</g>
<!-- animusL&#45;&gt;aequanimusL -->
<g id="edge30" class="edge">
<title>animusL&#45;&gt;aequanimusL</title>
<path fill="none" stroke="black" d="M720.36,-514.88C694.14,-502.79 662.27,-488.09 636.66,-476.28"/>
<polygon fill="black" stroke="black" points="638.08,-473.08 627.53,-472.07 635.14,-479.44 638.08,-473.08"/>
</g>
<!-- longanimisL -->
<g id="node38" class="node">
<title>longanimisL</title>
<text text-anchor="start" x="1289.5" y="-456.8" font-family="Times New Roman,serif" font-size="14.00" fill="red">longanimis</text>
<text text-anchor="start" x="1304" y="-444.4" font-family="Times New Roman,serif" font-size="12.00">patient</text>
</g>
<!-- animusL&#45;&gt;longanimisL -->
<g id="edge36" class="edge">
<title>animusL&#45;&gt;longanimisL</title>
<path fill="none" stroke="black" d="M821.5,-534.68C909.34,-528.28 1094.47,-511.76 1247.5,-478 1255.43,-476.25 1263.72,-474 1271.75,-471.6"/>
<polygon fill="black" stroke="black" points="1272.86,-474.93 1281.37,-468.62 1270.78,-468.24 1272.86,-474.93"/>
</g>
<!-- magnanimusL -->
<g id="node45" class="node">
<title>magnanimusL</title>
<text text-anchor="start" x="429.5" y="-450.3" font-family="Times New Roman,serif" font-size="14.00" fill="red">magnanimus</text>
</g>
<!-- animusL&#45;&gt;magnanimusL -->
<g id="edge43" class="edge">
<title>animusL&#45;&gt;magnanimusL</title>
<path fill="none" stroke="black" d="M719.12,-528.76C667.26,-518.76 585.22,-501.09 516.5,-478 514.41,-477.3 512.29,-476.54 510.16,-475.75"/>
<polygon fill="black" stroke="black" points="511.4,-472.48 500.81,-472.07 508.84,-478.99 511.4,-472.48"/>
</g>
<!-- pusillanimisL -->
<g id="node49" class="node">
<title>pusillanimisL</title>
<text text-anchor="start" x="909.5" y="-457.8" font-family="Times New Roman,serif" font-weight="bold" font-size="14.00">Late Latin</text>
<text text-anchor="start" x="909" y="-443.8" font-family="Times New Roman,serif" font-size="14.00" fill="red">pusillanimis</text>
</g>
<!-- animusL&#45;&gt;pusillanimisL -->
<g id="edge47" class="edge">
<title>animusL&#45;&gt;pusillanimisL</title>
<path fill="none" stroke="black" d="M818.13,-514.88C842.82,-502.9 872.79,-488.35 897.01,-476.6"/>
<polygon fill="black" stroke="black" points="898.86,-479.59 906.32,-472.07 895.8,-473.29 898.86,-479.59"/>
</g>
<!-- unanimusL -->
<g id="node54" class="node">
<title>unanimusL</title>
<text text-anchor="start" x="822" y="-450.3" font-family="Times New Roman,serif" font-size="14.00" fill="red">ūnanimus</text>
</g>
<!-- animusL&#45;&gt;unanimusL -->
<g id="edge52" class="edge">
<title>animusL&#45;&gt;unanimusL</title>
<path fill="none" stroke="black" d="M792.23,-514.88C802.56,-503.89 814.91,-490.74 825.41,-479.57"/>
<polygon fill="black" stroke="black" points="828.03,-481.89 832.33,-472.21 822.93,-477.1 828.03,-481.89"/>
</g>
<!-- anemoG -->
<g id="node56" class="node">
<title>anemoG</title>
<text text-anchor="start" x="1107.5" y="-237.3" font-family="Times New Roman,serif" font-size="14.00" fill="red">anemo&#45;</text>
</g>
<!-- anemosG&#45;&gt;anemoG -->
<g id="edge55" class="edge">
<title>anemosG&#45;&gt;anemoG</title>
<path fill="none" stroke="black" d="M1094.2,-344.89C1101.35,-323.45 1111.99,-291.54 1119.52,-268.95"/>
<polygon fill="black" stroke="black" points="1122.89,-269.89 1122.73,-259.3 1116.25,-267.68 1122.89,-269.89"/>
</g>
<!-- anemoneG -->
<g id="node58" class="node">
<title>anemoneG</title>
<text text-anchor="start" x="1023.5" y="-237.3" font-family="Times New Roman,serif" font-size="14.00" fill="red">anemōnē</text>
</g>
<!-- anemosG&#45;&gt;anemoneG -->
<g id="edge57" class="edge">
<title>anemosG&#45;&gt;anemoneG</title>
<path fill="none" stroke="black" d="M1079.53,-344.89C1073.06,-323.45 1063.44,-291.54 1056.63,-268.95"/>
<polygon fill="black" stroke="black" points="1059.95,-267.86 1053.72,-259.3 1053.25,-269.88 1059.95,-267.86"/>
<text text-anchor="middle" x="1076" y="-298.3" font-family="Times New Roman,serif" font-size="14.00">?</text>
<polyline fill="none" stroke="black" points="1079.5,-294.5 1072.5,-294.5 1067.35,-304.51 "/>
</g>
<!-- animalL -->
<g id="node9" class="node">
<title>animalL</title>
<text text-anchor="start" x="97.5" y="-189.8" font-family="Times New Roman,serif" font-size="14.00" fill="red">animal</text>
<text text-anchor="start" x="101" y="-177.4" font-family="Times New Roman,serif" font-size="12.00">animal</text>
</g>
<!-- animalisL&#45;&gt;animalL -->
<g id="edge8" class="edge">
<title>animalisL&#45;&gt;animalL</title>
<path fill="none" stroke="black" d="M115.5,-350.74C115.5,-319.43 115.5,-253.02 115.5,-215.43"/>
<polygon fill="black" stroke="black" points="119,-215.21 115.5,-205.21 112,-215.21 119,-215.21"/>
</g>
<!-- animal -->
<g id="node10" class="node">
<title>animal</title>
<text text-anchor="start" x="91" y="-42.8" font-family="Times New Roman,serif" font-weight="bold" font-size="14.00">Modern</text>
<text text-anchor="start" x="92.5" y="-28.8" font-family="Times New Roman,serif" font-weight="bold" font-size="14.00">English</text>
<text text-anchor="start" x="97.5" y="-14.8" font-family="Times New Roman,serif" font-size="14.00" fill="red">animal</text>
</g>
<!-- animalL&#45;&gt;animal -->
<g id="edge9" class="edge">
<title>animalL&#45;&gt;animal</title>
<path fill="none" stroke="black" stroke-dasharray="5,2" d="M115.5,-168.75C115.5,-144.24 115.5,-98.84 115.5,-67.33"/>
<polygon fill="black" stroke="black" points="119,-67.22 115.5,-57.22 112,-67.22 119,-67.22"/>
</g>
<!-- animate -->
<g id="node12" class="node">
<title>animate</title>
<text text-anchor="start" x="177" y="-49.8" font-family="Times New Roman,serif" font-weight="bold" font-size="14.00">Modern</text>
<text text-anchor="start" x="178.5" y="-35.8" font-family="Times New Roman,serif" font-weight="bold" font-size="14.00">English</text>
<text text-anchor="start" x="180" y="-21.8" font-family="Times New Roman,serif" font-size="14.00" fill="red">animate</text>
<text text-anchor="start" x="174.5" y="-7.8" font-family="Times New Roman,serif" font-size="14.00" fill="red">animation</text>
</g>
<!-- animareL&#45;&gt;animate -->
<g id="edge11" class="edge">
<title>animareL&#45;&gt;animate</title>
<path fill="none" stroke="black" stroke-dasharray="5,2" d="M216.68,-350.93C214.25,-300.03 207.01,-148.3 203.48,-74.39"/>
<polygon fill="black" stroke="black" points="206.96,-73.89 202.98,-64.07 199.97,-74.22 206.96,-73.89"/>
</g>
<!-- animareI -->
<g id="node16" class="node">
<title>animareI</title>
<text text-anchor="start" x="342.5" y="-244.8" font-family="Times New Roman,serif" font-weight="bold" font-size="14.00">Italian</text>
<text text-anchor="start" x="341" y="-230.8" font-family="Times New Roman,serif" font-size="14.00" fill="red">animare</text>
</g>
<!-- animareL&#45;&gt;animareI -->
<g id="edge15" class="edge">
<title>animareL&#45;&gt;animareI</title>
<path fill="none" stroke="black" d="M237.36,-350.74C262.74,-328.69 306.8,-290.41 335.29,-265.65"/>
<polygon fill="black" stroke="black" points="337.63,-268.25 342.88,-259.05 333.04,-262.96 337.63,-268.25"/>
</g>
<!-- animeshonJ -->
<g id="node13" class="node">
<title>animeshonJ</title>
<text text-anchor="start" x="235.5" y="-244.8" font-family="Times New Roman,serif" font-weight="bold" font-size="14.00" fill="green">Japanese</text>
<text text-anchor="start" x="234.5" y="-230.8" font-family="Times New Roman,serif" font-size="14.00" fill="red">animēshon</text>
</g>
<!-- animate&#45;&gt;animeshonJ -->
<g id="edge12" class="edge">
<title>animate&#45;&gt;animeshonJ</title>
<path fill="none" stroke="black" stroke-dasharray="5,2" d="M211.04,-64.35C223.35,-104.79 244.55,-174.46 256.22,-212.78"/>
<polygon fill="black" stroke="black" points="252.98,-214.16 259.24,-222.71 259.67,-212.12 252.98,-214.16"/>
</g>
<!-- animeJ -->
<g id="node14" class="node">
<title>animeJ</title>
<text text-anchor="start" x="274" y="-122.3" font-family="Times New Roman,serif" font-size="14.00" fill="red">anime</text>
</g>
<!-- animeshonJ&#45;&gt;animeJ -->
<g id="edge13" class="edge">
<title>animeshonJ&#45;&gt;animeJ</title>
<path fill="none" stroke="black" d="M268.45,-222.84C272.65,-204.59 279.35,-175.46 284.26,-154.1"/>
<polygon fill="black" stroke="black" points="287.68,-154.85 286.51,-144.32 280.86,-153.28 287.68,-154.85"/>
</g>
<!-- anime -->
<g id="node15" class="node">
<title>anime</title>
<text text-anchor="start" x="263" y="-42.8" font-family="Times New Roman,serif" font-weight="bold" font-size="14.00">Modern</text>
<text text-anchor="start" x="264.5" y="-28.8" font-family="Times New Roman,serif" font-weight="bold" font-size="14.00">English</text>
<text text-anchor="start" x="271" y="-14.8" font-family="Times New Roman,serif" font-size="14.00" fill="red">anime</text>
</g>
<!-- animeJ&#45;&gt;anime -->
<g id="edge14" class="edge">
<title>animeJ&#45;&gt;anime</title>
<path fill="none" stroke="black" stroke-dasharray="5,2" d="M289.94,-107.7C289.57,-96.33 289.07,-81.07 288.62,-67.31"/>
<polygon fill="black" stroke="black" points="292.11,-67.05 288.29,-57.17 285.12,-67.28 292.11,-67.05"/>
</g>
<!-- animatoI -->
<g id="node17" class="node">
<title>animatoI</title>
<text text-anchor="start" x="347.5" y="-128.8" font-family="Times New Roman,serif" font-size="14.00" fill="red">animato</text>
<text text-anchor="start" x="349" y="-116.4" font-family="Times New Roman,serif" font-size="12.00">animated</text>
</g>
<!-- animareI&#45;&gt;animatoI -->
<g id="edge16" class="edge">
<title>animareI&#45;&gt;animatoI</title>
<path fill="none" stroke="black" d="M363.56,-222.84C364.69,-204.67 366.48,-175.72 367.8,-154.39"/>
<polygon fill="black" stroke="black" points="371.3,-154.52 368.43,-144.32 364.32,-154.09 371.3,-154.52"/>
</g>
<!-- animato -->
<g id="node18" class="node">
<title>animato</title>
<text text-anchor="start" x="346" y="-42.8" font-family="Times New Roman,serif" font-weight="bold" font-size="14.00">Modern</text>
<text text-anchor="start" x="347.5" y="-28.8" font-family="Times New Roman,serif" font-weight="bold" font-size="14.00">English</text>
<text text-anchor="start" x="348.5" y="-14.8" font-family="Times New Roman,serif" font-size="14.00" fill="red">animato</text>
</g>
<!-- animatoI&#45;&gt;animato -->
<g id="edge17" class="edge">
<title>animatoI&#45;&gt;animato</title>
<path fill="none" stroke="black" stroke-dasharray="5,2" d="M369.69,-107.7C369.81,-96.33 369.98,-81.07 370.13,-67.31"/>
<polygon fill="black" stroke="black" points="373.63,-67.21 370.24,-57.17 366.63,-67.13 373.63,-67.21"/>
</g>
<!-- animositasL -->
<g id="node20" class="node">
<title>animositasL</title>
<text text-anchor="start" x="669.5" y="-378.8" font-family="Times New Roman,serif" font-weight="bold" font-size="14.00">Late Latin</text>
<text text-anchor="start" x="672" y="-364.8" font-family="Times New Roman,serif" font-size="14.00" fill="red">animōsitās</text>
<text text-anchor="start" x="683" y="-352.4" font-family="Times New Roman,serif" font-size="12.00">courage</text>
</g>
<!-- animosusL&#45;&gt;animositasL -->
<g id="edge19" class="edge">
<title>animosusL&#45;&gt;animositasL</title>
<path fill="none" stroke="black" d="M706.26,-435.8C705.58,-426.45 704.72,-414.55 703.92,-403.45"/>
<polygon fill="black" stroke="black" points="707.39,-402.88 703.17,-393.16 700.4,-403.38 707.39,-402.88"/>
</g>
<!-- animositeOF -->
<g id="node21" class="node">
<title>animositeOF</title>
<text text-anchor="start" x="650.5" y="-244.8" font-family="Times New Roman,serif" font-weight="bold" font-size="14.00">Old French</text>
<text text-anchor="start" x="659" y="-230.8" font-family="Times New Roman,serif" font-size="14.00" fill="red">animosite</text>
</g>
<!-- animositasL&#45;&gt;animositeOF -->
<g id="edge20" class="edge">
<title>animositasL&#45;&gt;animositeOF</title>
<path fill="none" stroke="black" d="M698.57,-344.89C695.86,-323.55 691.83,-291.83 688.96,-269.25"/>
<polygon fill="black" stroke="black" points="692.43,-268.78 687.7,-259.3 685.48,-269.66 692.43,-268.78"/>
</g>
<!-- animositeME -->
<g id="node22" class="node">
<title>animositeME</title>
<text text-anchor="start" x="655" y="-136.8" font-family="Times New Roman,serif" font-weight="bold" font-size="14.00">Middle</text>
<text text-anchor="start" x="653.5" y="-122.8" font-family="Times New Roman,serif" font-weight="bold" font-size="14.00">English</text>
<text text-anchor="start" x="650" y="-108.8" font-family="Times New Roman,serif" font-size="14.00" fill="red">animosite</text>
</g>
<!-- animositeOF&#45;&gt;animositeME -->
<g id="edge21" class="edge">
<title>animositeOF&#45;&gt;animositeME</title>
<path fill="none" stroke="black" stroke-dasharray="5,2" d="M684.13,-222.84C682.83,-206.54 680.85,-181.57 679.22,-161.2"/>
<polygon fill="black" stroke="black" points="682.7,-160.73 678.42,-151.04 675.72,-161.29 682.7,-160.73"/>
</g>
<!-- animosity -->
<g id="node23" class="node">
<title>animosity</title>
<text text-anchor="start" x="649" y="-42.8" font-family="Times New Roman,serif" font-weight="bold" font-size="14.00">Modern</text>
<text text-anchor="start" x="650.5" y="-28.8" font-family="Times New Roman,serif" font-weight="bold" font-size="14.00">English</text>
<text text-anchor="start" x="646.5" y="-14.8" font-family="Times New Roman,serif" font-size="14.00" fill="red">animosity</text>
</g>
<!-- animositeME&#45;&gt;animosity -->
<g id="edge22" class="edge">
<title>animositeME&#45;&gt;animosity</title>
<path fill="none" stroke="black" d="M675.71,-100.83C675.38,-90.58 674.98,-78.45 674.62,-67.3"/>
<polygon fill="black" stroke="black" points="678.11,-66.89 674.28,-57.01 671.11,-67.12 678.11,-66.89"/>
</g>
<!-- werIE -->
<g id="node24" class="node">
<title>werIE</title>
<g id="a_node24"><a xlink:href="wer-turn.svg" xlink:title="&lt;b&gt;Indo&#45;&lt;br/&gt;European&lt;/b&gt;&lt;br/&gt;&lt;font color=&quot;red&quot;&gt;*wer&#45;&lt;/font&gt;&lt;br/&gt;&lt;font point&#45;size=&quot;12&quot;&gt;to turn, bend&lt;/font&gt;">
<path fill="none" stroke="black" stroke-dasharray="5,2" d="M1257,-807C1257,-807 1204,-807 1204,-807 1198,-807 1192,-801 1192,-795 1192,-795 1192,-757 1192,-757 1192,-751 1198,-745 1204,-745 1204,-745 1257,-745 1257,-745 1263,-745 1269,-751 1269,-757 1269,-757 1269,-795 1269,-795 1269,-801 1263,-807 1257,-807"/>
<text text-anchor="start" x="1214" y="-792.8" font-family="Times New Roman,serif" font-weight="bold" font-size="14.00">Indo&#45;</text>
<text text-anchor="start" x="1200" y="-778.8" font-family="Times New Roman,serif" font-weight="bold" font-size="14.00">European</text>
<text text-anchor="start" x="1214.5" y="-764.8" font-family="Times New Roman,serif" font-size="14.00" fill="red">*wer&#45;</text>
<text text-anchor="start" x="1201.5" y="-752.4" font-family="Times New Roman,serif" font-size="12.00">to turn, bend</text>
</a>
</g>
</g>
<!-- vertereL -->
<g id="node25" class="node">
<title>vertereL</title>
<text text-anchor="start" x="1219" y="-662.8" font-family="Times New Roman,serif" font-weight="bold" font-size="14.00">Latin</text>
<text text-anchor="start" x="1216.5" y="-648.8" font-family="Times New Roman,serif" font-size="14.00" fill="red">vertere</text>
</g>
<!-- werIE&#45;&gt;vertereL -->
<g id="edge23" class="edge">
<title>werIE&#45;&gt;vertereL</title>
<path fill="none" stroke="black" d="M1231.81,-744.79C1232.59,-726.93 1233.57,-704.5 1234.32,-687.2"/>
<polygon fill="black" stroke="black" points="1237.82,-687.32 1234.75,-677.18 1230.82,-687.02 1237.82,-687.32"/>
</g>
<!-- advertereL -->
<g id="node27" class="node">
<title>advertereL</title>
<text text-anchor="start" x="1165.5" y="-535.3" font-family="Times New Roman,serif" font-size="14.00" fill="red">advertere</text>
</g>
<!-- vertereL&#45;&gt;advertereL -->
<g id="edge24" class="edge">
<title>vertereL&#45;&gt;advertereL</title>
<path fill="none" stroke="black" d="M1229.1,-640.84C1221.84,-621.35 1209.89,-589.32 1201.41,-566.59"/>
<polygon fill="black" stroke="black" points="1204.68,-565.33 1197.91,-557.18 1198.12,-567.77 1204.68,-565.33"/>
</g>
<!-- adL -->
<g id="node26" class="node">
<title>adL</title>
<text text-anchor="start" x="1147" y="-668.8" font-family="Times New Roman,serif" font-weight="bold" font-size="14.00">Latin</text>
<text text-anchor="start" x="1154" y="-654.8" font-family="Times New Roman,serif" font-size="14.00" fill="red">ad&#45;</text>
<text text-anchor="start" x="1147" y="-642.4" font-family="Times New Roman,serif" font-size="12.00">toward</text>
</g>
<!-- adL&#45;&gt;advertereL -->
<g id="edge25" class="edge">
<title>adL&#45;&gt;advertereL</title>
<path fill="none" stroke="black" d="M1168.97,-634.97C1173.57,-615.55 1180.18,-587.72 1185.04,-567.21"/>
<polygon fill="black" stroke="black" points="1188.51,-567.77 1187.41,-557.23 1181.7,-566.15 1188.51,-567.77"/>
</g>
<!-- advertereL&#45;&gt;animadvertereL -->
<g id="edge27" class="edge">
<title>advertereL&#45;&gt;animadvertereL</title>
<path fill="none" stroke="black" d="M1191.5,-520.8C1191.5,-509.67 1191.5,-494.94 1191.5,-482.24"/>
<polygon fill="black" stroke="black" points="1195,-482.18 1191.5,-472.18 1188,-482.18 1195,-482.18"/>
</g>
<!-- animadvertenME -->
<g id="node29" class="node">
<title>animadvertenME</title>
<text text-anchor="start" x="1186" y="-312.8" font-family="Times New Roman,serif" font-weight="bold" font-size="14.00">Middle</text>
<text text-anchor="start" x="1184.5" y="-298.8" font-family="Times New Roman,serif" font-weight="bold" font-size="14.00">English</text>
<text text-anchor="start" x="1170.5" y="-284.8" font-family="Times New Roman,serif" font-size="14.00" fill="red">animadverten</text>
</g>
<!-- animadvertereL&#45;&gt;animadvertenME -->
<g id="edge28" class="edge">
<title>animadvertereL&#45;&gt;animadvertenME</title>
<path fill="none" stroke="black" stroke-dasharray="5,2" d="M1193.34,-435.79C1195.88,-411.91 1200.55,-368.18 1203.83,-337.44"/>
<polygon fill="black" stroke="black" points="1207.34,-337.48 1204.92,-327.17 1200.38,-336.74 1207.34,-337.48"/>
</g>
<!-- animadvert -->
<g id="node30" class="node">
<title>animadvert</title>
<text text-anchor="start" x="1197" y="-42.8" font-family="Times New Roman,serif" font-weight="bold" font-size="14.00">Modern</text>
<text text-anchor="start" x="1198.5" y="-28.8" font-family="Times New Roman,serif" font-weight="bold" font-size="14.00">English</text>
<text text-anchor="start" x="1191" y="-14.8" font-family="Times New Roman,serif" font-size="14.00" fill="red">animadvert</text>
</g>
<!-- animadvertenME&#45;&gt;animadvert -->
<g id="edge29" class="edge">
<title>animadvertenME&#45;&gt;animadvert</title>
<path fill="none" stroke="black" d="M1208.77,-276.74C1211.27,-228.91 1216.84,-122.29 1219.71,-67.29"/>
<polygon fill="black" stroke="black" points="1223.22,-67.18 1220.25,-57.01 1216.23,-66.81 1223.22,-67.18"/>
</g>
<!-- aequusL -->
<g id="node31" class="node">
<title>aequusL</title>
<text text-anchor="start" x="574" y="-548.8" font-family="Times New Roman,serif" font-weight="bold" font-size="14.00">Latin</text>
<text text-anchor="start" x="570.5" y="-534.8" font-family="Times New Roman,serif" font-size="14.00" fill="red">aequus</text>
<text text-anchor="start" x="579.5" y="-522.4" font-family="Times New Roman,serif" font-size="12.00">even</text>
</g>
<!-- aequusL&#45;&gt;aequanimusL -->
<g id="edge31" class="edge">
<title>aequusL&#45;&gt;aequanimusL</title>
<path fill="none" stroke="black" d="M590.5,-514.88C590.5,-504.84 590.5,-493 590.5,-482.51"/>
<polygon fill="black" stroke="black" points="594,-482.21 590.5,-472.21 587,-482.21 594,-482.21"/>
</g>
<!-- aequanimitasL -->
<g id="node33" class="node">
<title>aequanimitasL</title>
<text text-anchor="start" x="551.5" y="-183.3" font-family="Times New Roman,serif" font-size="14.00" fill="red">aequanimitās</text>
</g>
<!-- aequanimusL&#45;&gt;aequanimitasL -->
<g id="edge32" class="edge">
<title>aequanimusL&#45;&gt;aequanimitasL</title>
<path fill="none" stroke="black" d="M590.3,-435.61C589.79,-390.58 588.43,-269.89 587.81,-215.38"/>
<polygon fill="black" stroke="black" points="591.31,-215.07 587.69,-205.11 584.31,-215.15 591.31,-215.07"/>
</g>
<!-- equanimity -->
<g id="node34" class="node">
<title>equanimity</title>
<text text-anchor="start" x="557" y="-42.8" font-family="Times New Roman,serif" font-weight="bold" font-size="14.00">Modern</text>
<text text-anchor="start" x="558.5" y="-28.8" font-family="Times New Roman,serif" font-weight="bold" font-size="14.00">English</text>
<text text-anchor="start" x="551" y="-14.8" font-family="Times New Roman,serif" font-size="14.00" fill="red">equanimity</text>
</g>
<!-- aequanimitasL&#45;&gt;equanimity -->
<g id="edge33" class="edge">
<title>aequanimitasL&#45;&gt;equanimity</title>
<path fill="none" stroke="black" stroke-dasharray="5,2" d="M586.82,-168.75C585.86,-144.24 584.08,-98.84 582.85,-67.33"/>
<polygon fill="black" stroke="black" points="586.34,-67.08 582.45,-57.22 579.34,-67.35 586.34,-67.08"/>
</g>
<!-- delIE -->
<g id="node35" class="node">
<title>delIE</title>
<g id="a_node35"><a xlink:href="del-long1.svg" xlink:title="&lt;b&gt;Indo&#45;&lt;br/&gt;European&lt;/b&gt;&lt;br/&gt;&lt;font color=&quot;red&quot;&gt;*del&#45;&lt;/font&gt;&lt;br/&gt;&lt;font point&#45;size=&quot;12&quot;&gt;long&lt;/font&gt;">
<path fill="none" stroke="black" stroke-dasharray="5,2" d="M1352,-807C1352,-807 1299,-807 1299,-807 1293,-807 1287,-801 1287,-795 1287,-795 1287,-757 1287,-757 1287,-751 1293,-745 1299,-745 1299,-745 1352,-745 1352,-745 1358,-745 1364,-751 1364,-757 1364,-757 1364,-795 1364,-795 1364,-801 1358,-807 1352,-807"/>
<text text-anchor="start" x="1309" y="-792.8" font-family="Times New Roman,serif" font-weight="bold" font-size="14.00">Indo&#45;</text>
<text text-anchor="start" x="1295" y="-778.8" font-family="Times New Roman,serif" font-weight="bold" font-size="14.00">European</text>
<text text-anchor="start" x="1311.5" y="-764.8" font-family="Times New Roman,serif" font-size="14.00" fill="red">*del&#45;</text>
<text text-anchor="start" x="1316" y="-752.4" font-family="Times New Roman,serif" font-size="12.00">long</text>
</a>
</g>
</g>
<!-- dlongho -->
<g id="node36" class="node">
<title>dlongho</title>
<text text-anchor="start" x="1294.5" y="-655.3" font-family="Times New Roman,serif" font-size="14.00" fill="red">*dlon&#45;gho&#45;</text>
</g>
<!-- delIE&#45;&gt;dlongho -->
<g id="edge34" class="edge">
<title>delIE&#45;&gt;dlongho</title>
<path fill="none" stroke="black" d="M1325.5,-744.79C1325.5,-726.93 1325.5,-704.5 1325.5,-687.2"/>
<polygon fill="black" stroke="black" points="1329,-687.18 1325.5,-677.18 1322,-687.18 1329,-687.18"/>
</g>
<!-- longusL -->
<g id="node37" class="node">
<title>longusL</title>
<text text-anchor="start" x="1307" y="-542.8" font-family="Times New Roman,serif" font-weight="bold" font-size="14.00">Latin</text>
<text text-anchor="start" x="1305" y="-528.8" font-family="Times New Roman,serif" font-size="14.00" fill="red">longus</text>
</g>
<!-- dlongho&#45;&gt;longusL -->
<g id="edge35" class="edge">
<title>dlongho&#45;&gt;longusL</title>
<path fill="none" stroke="black" d="M1325.21,-640.84C1324.88,-621.53 1324.35,-589.89 1323.96,-567.2"/>
<polygon fill="black" stroke="black" points="1327.46,-567.12 1323.79,-557.18 1320.46,-567.24 1327.46,-567.12"/>
</g>
<!-- longusL&#45;&gt;longanimisL -->
<g id="edge37" class="edge">
<title>longusL&#45;&gt;longanimisL</title>
<path fill="none" stroke="black" d="M1322.67,-520.8C1322.13,-509.67 1321.43,-494.94 1320.81,-482.24"/>
<polygon fill="black" stroke="black" points="1324.31,-482 1320.33,-472.18 1317.31,-482.33 1324.31,-482"/>
</g>
<!-- longanimitasL -->
<g id="node39" class="node">
<title>longanimitasL</title>
<text text-anchor="start" x="1287.5" y="-372.8" font-family="Times New Roman,serif" font-weight="bold" font-size="14.00">Late Latin</text>
<text text-anchor="start" x="1287" y="-358.8" font-family="Times New Roman,serif" font-size="14.00" fill="red">anganimitās</text>
</g>
<!-- longanimisL&#45;&gt;longanimitasL -->
<g id="edge38" class="edge">
<title>longanimisL&#45;&gt;longanimitasL</title>
<path fill="none" stroke="black" d="M1319.5,-435.8C1319.5,-424.67 1319.5,-409.94 1319.5,-397.24"/>
<polygon fill="black" stroke="black" points="1323,-397.18 1319.5,-387.18 1316,-397.18 1323,-397.18"/>
</g>
<!-- longanimiteOF -->
<g id="node40" class="node">
<title>longanimiteOF</title>
<text text-anchor="start" x="1284.5" y="-244.8" font-family="Times New Roman,serif" font-weight="bold" font-size="14.00">Old French</text>
<text text-anchor="start" x="1287.5" y="-230.8" font-family="Times New Roman,serif" font-size="14.00" fill="red">longanimite</text>
</g>
<!-- longanimitasL&#45;&gt;longanimiteOF -->
<g id="edge39" class="edge">
<title>longanimitasL&#45;&gt;longanimiteOF</title>
<path fill="none" stroke="black" d="M1319.5,-350.74C1319.5,-329.73 1319.5,-293.97 1319.5,-269.23"/>
<polygon fill="black" stroke="black" points="1323,-269.05 1319.5,-259.05 1316,-269.05 1323,-269.05"/>
</g>
<!-- longanimiteME -->
<g id="node41" class="node">
<title>longanimiteME</title>
<text text-anchor="start" x="1298" y="-136.8" font-family="Times New Roman,serif" font-weight="bold" font-size="14.00">Middle</text>
<text text-anchor="start" x="1296.5" y="-122.8" font-family="Times New Roman,serif" font-weight="bold" font-size="14.00">English</text>
<text text-anchor="start" x="1287.5" y="-108.8" font-family="Times New Roman,serif" font-size="14.00" fill="red">longanimite</text>
</g>
<!-- longanimiteOF&#45;&gt;longanimiteME -->
<g id="edge40" class="edge">
<title>longanimiteOF&#45;&gt;longanimiteME</title>
<path fill="none" stroke="black" stroke-dasharray="5,2" d="M1319.5,-222.84C1319.5,-206.54 1319.5,-181.57 1319.5,-161.2"/>
<polygon fill="black" stroke="black" points="1323,-161.04 1319.5,-151.04 1316,-161.04 1323,-161.04"/>
</g>
<!-- longanimity -->
<g id="node42" class="node">
<title>longanimity</title>
<text text-anchor="start" x="1295" y="-42.8" font-family="Times New Roman,serif" font-weight="bold" font-size="14.00">Modern</text>
<text text-anchor="start" x="1296.5" y="-28.8" font-family="Times New Roman,serif" font-weight="bold" font-size="14.00">English</text>
<text text-anchor="start" x="1287.5" y="-14.8" font-family="Times New Roman,serif" font-size="14.00" fill="red">longanimity</text>
</g>
<!-- longanimiteME&#45;&gt;longanimity -->
<g id="edge41" class="edge">
<title>longanimiteME&#45;&gt;longanimity</title>
<path fill="none" stroke="black" d="M1319.5,-100.83C1319.5,-90.58 1319.5,-78.45 1319.5,-67.3"/>
<polygon fill="black" stroke="black" points="1323,-67.01 1319.5,-57.01 1316,-67.01 1323,-67.01"/>
</g>
<!-- megIE -->
<g id="node43" class="node">
<title>megIE</title>
<g id="a_node43"><a xlink:href="meg-great.svg" xlink:title="&lt;b&gt;Indo&#45;&lt;br/&gt;European&lt;/b&gt;&lt;br/&gt;&lt;font color=&quot;red&quot;&gt;*meg&#45;&lt;/font&gt;&lt;br/&gt;&lt;font point&#45;size=&quot;12&quot;&gt;great&lt;/font&gt;">
<path fill="none" stroke="black" stroke-dasharray="5,2" d="M491,-807C491,-807 438,-807 438,-807 432,-807 426,-801 426,-795 426,-795 426,-757 426,-757 426,-751 432,-745 438,-745 438,-745 491,-745 491,-745 497,-745 503,-751 503,-757 503,-757 503,-795 503,-795 503,-801 497,-807 491,-807"/>
<text text-anchor="start" x="448" y="-792.8" font-family="Times New Roman,serif" font-weight="bold" font-size="14.00">Indo&#45;</text>
<text text-anchor="start" x="434" y="-778.8" font-family="Times New Roman,serif" font-weight="bold" font-size="14.00">European</text>
<text text-anchor="start" x="447" y="-764.8" font-family="Times New Roman,serif" font-size="14.00" fill="red">*meg&#45;</text>
<text text-anchor="start" x="453" y="-752.4" font-family="Times New Roman,serif" font-size="12.00">great</text>
</a>
</g>
</g>
<!-- magnusL -->
<g id="node44" class="node">
<title>magnusL</title>
<text text-anchor="start" x="448" y="-602.8" font-family="Times New Roman,serif" font-weight="bold" font-size="14.00">Latin</text>
<text text-anchor="start" x="443" y="-588.8" font-family="Times New Roman,serif" font-size="14.00" fill="red">magnus</text>
</g>
<!-- megIE&#45;&gt;magnusL -->
<g id="edge42" class="edge">
<title>megIE&#45;&gt;magnusL</title>
<path fill="none" stroke="black" d="M464.5,-744.92C464.5,-712.05 464.5,-659.82 464.5,-627.86"/>
<polygon fill="black" stroke="black" points="468,-627.46 464.5,-617.46 461,-627.46 468,-627.46"/>
</g>
<!-- magnusL&#45;&gt;magnanimusL -->
<g id="edge44" class="edge">
<title>magnusL&#45;&gt;magnanimusL</title>
<path fill="none" stroke="black" d="M464.5,-580.75C464.5,-556.38 464.5,-511.61 464.5,-482.59"/>
<polygon fill="black" stroke="black" points="468,-482.31 464.5,-472.31 461,-482.31 468,-482.31"/>
</g>
<!-- magnanimous -->
<g id="node46" class="node">
<title>magnanimous</title>
<text text-anchor="start" x="443" y="-42.8" font-family="Times New Roman,serif" font-weight="bold" font-size="14.00">Modern</text>
<text text-anchor="start" x="444.5" y="-28.8" font-family="Times New Roman,serif" font-weight="bold" font-size="14.00">English</text>
<text text-anchor="start" x="429" y="-14.8" font-family="Times New Roman,serif" font-size="14.00" fill="red">magnanimous</text>
</g>
<!-- magnanimusL&#45;&gt;magnanimous -->
<g id="edge45" class="edge">
<title>magnanimusL&#45;&gt;magnanimous</title>
<path fill="none" stroke="black" stroke-dasharray="5,2" d="M465.48,-435.84C466.36,-419.06 467.5,-392.78 467.5,-370 467.5,-370 467.5,-370 467.5,-125 467.5,-105.95 467.5,-84.69 467.5,-67.4"/>
<polygon fill="black" stroke="black" points="471,-67.21 467.5,-57.21 464,-67.21 471,-67.21"/>
</g>
<!-- pullusL -->
<g id="node47" class="node">
<title>pullusL</title>
<text text-anchor="start" x="1051" y="-668.8" font-family="Times New Roman,serif" font-weight="bold" font-size="14.00">Latin</text>
<text text-anchor="start" x="1050.5" y="-654.8" font-family="Times New Roman,serif" font-size="14.00" fill="red">pullus</text>
<text text-anchor="start" x="1025" y="-642.4" font-family="Times New Roman,serif" font-size="12.00">young of an animal</text>
</g>
<!-- pusillusL -->
<g id="node48" class="node">
<title>pusillusL</title>
<text text-anchor="start" x="1047" y="-541.8" font-family="Times New Roman,serif" font-size="14.00" fill="red">pusillus</text>
<text text-anchor="start" x="1056" y="-529.4" font-family="Times New Roman,serif" font-size="12.00">weak</text>
</g>
<!-- pullusL&#45;&gt;pusillusL -->
<g id="edge46" class="edge">
<title>pullusL&#45;&gt;pusillusL</title>
<path fill="none" stroke="black" d="M1067.7,-634.97C1067.86,-615.64 1068.09,-587.98 1068.27,-567.49"/>
<polygon fill="black" stroke="black" points="1071.77,-567.26 1068.35,-557.23 1064.77,-567.2 1071.77,-567.26"/>
</g>
<!-- pusillusL&#45;&gt;pusillanimisL -->
<g id="edge48" class="edge">
<title>pusillusL&#45;&gt;pusillanimisL</title>
<path fill="none" stroke="black" d="M1042.19,-520.8C1023.11,-508.34 997.13,-491.36 976.34,-477.77"/>
<polygon fill="black" stroke="black" points="978.07,-474.72 967.78,-472.18 974.24,-480.58 978.07,-474.72"/>
</g>
<!-- pusillanimusME -->
<g id="node50" class="node">
<title>pusillanimusME</title>
<text text-anchor="start" x="925" y="-312.8" font-family="Times New Roman,serif" font-weight="bold" font-size="14.00">Middle</text>
<text text-anchor="start" x="923.5" y="-298.8" font-family="Times New Roman,serif" font-weight="bold" font-size="14.00">English</text>
<text text-anchor="start" x="912" y="-284.8" font-family="Times New Roman,serif" font-size="14.00" fill="red">pusillanimus</text>
</g>
<!-- pusillanimisL&#45;&gt;pusillanimusME -->
<g id="edge49" class="edge">
<title>pusillanimisL&#45;&gt;pusillanimusME</title>
<path fill="none" stroke="black" stroke-dasharray="5,2" d="M942.07,-435.79C942.87,-411.91 944.33,-368.18 945.35,-337.44"/>
<polygon fill="black" stroke="black" points="948.86,-337.28 945.69,-327.17 941.86,-337.04 948.86,-337.28"/>
</g>
<!-- pusillanimous -->
<g id="node51" class="node">
<title>pusillanimous</title>
<text text-anchor="start" x="927" y="-42.8" font-family="Times New Roman,serif" font-weight="bold" font-size="14.00">Modern</text>
<text text-anchor="start" x="928.5" y="-28.8" font-family="Times New Roman,serif" font-weight="bold" font-size="14.00">English</text>
<text text-anchor="start" x="913.5" y="-14.8" font-family="Times New Roman,serif" font-size="14.00" fill="red">pusillanimous</text>
</g>
<!-- pusillanimusME&#45;&gt;pusillanimous -->
<g id="edge50" class="edge">
<title>pusillanimusME&#45;&gt;pusillanimous</title>
<path fill="none" stroke="black" d="M946.95,-276.74C947.84,-228.91 949.83,-122.29 950.86,-67.29"/>
<polygon fill="black" stroke="black" points="954.36,-67.07 951.05,-57.01 947.37,-66.94 954.36,-67.07"/>
</g>
<!-- oinoIE -->
<g id="node52" class="node">
<title>oinoIE</title>
<g id="a_node52"><a xlink:href="oino-one2.svg" xlink:title="&lt;b&gt;Indo&#45;&lt;br/&gt;European&lt;/b&gt;&lt;br/&gt;&lt;font color=&quot;red&quot;&gt;*oi&#45;no&#45;&lt;/font&gt;&lt;br/&gt;&lt;font point&#45;size=&quot;12&quot;&gt;one&lt;/font&gt;">
<path fill="none" stroke="black" stroke-dasharray="5,2" d="M912,-807C912,-807 859,-807 859,-807 853,-807 847,-801 847,-795 847,-795 847,-757 847,-757 847,-751 853,-745 859,-745 859,-745 912,-745 912,-745 918,-745 924,-751 924,-757 924,-757 924,-795 924,-795 924,-801 918,-807 912,-807"/>
<text text-anchor="start" x="869" y="-792.8" font-family="Times New Roman,serif" font-weight="bold" font-size="14.00">Indo&#45;</text>
<text text-anchor="start" x="855" y="-778.8" font-family="Times New Roman,serif" font-weight="bold" font-size="14.00">European</text>
<text text-anchor="start" x="865" y="-764.8" font-family="Times New Roman,serif" font-size="14.00" fill="red">*oi&#45;no&#45;</text>
<text text-anchor="start" x="877" y="-752.4" font-family="Times New Roman,serif" font-size="12.00">one</text>
</a>
</g>
</g>
<!-- unusL -->
<g id="node53" class="node">
<title>unusL</title>
<text text-anchor="start" x="858" y="-602.8" font-family="Times New Roman,serif" font-weight="bold" font-size="14.00">Latin</text>
<text text-anchor="start" x="861" y="-588.8" font-family="Times New Roman,serif" font-size="14.00" fill="red">ūnus</text>
</g>
<!-- oinoIE&#45;&gt;unusL -->
<g id="edge51" class="edge">
<title>oinoIE&#45;&gt;unusL</title>
<path fill="none" stroke="black" d="M883.61,-744.92C881.54,-712.05 878.26,-659.82 876.25,-627.86"/>
<polygon fill="black" stroke="black" points="879.72,-627.23 875.6,-617.46 872.73,-627.66 879.72,-627.23"/>
</g>
<!-- unusL&#45;&gt;unanimusL -->
<g id="edge53" class="edge">
<title>unusL&#45;&gt;unanimusL</title>
<path fill="none" stroke="black" d="M871.36,-580.75C866.91,-556.27 858.72,-511.21 853.45,-482.2"/>
<polygon fill="black" stroke="black" points="856.88,-481.52 851.65,-472.31 849.99,-482.78 856.88,-481.52"/>
</g>
<!-- unanimous -->
<g id="node55" class="node">
<title>unanimous</title>
<text text-anchor="start" x="824" y="-42.8" font-family="Times New Roman,serif" font-weight="bold" font-size="14.00">Modern</text>
<text text-anchor="start" x="825.5" y="-28.8" font-family="Times New Roman,serif" font-weight="bold" font-size="14.00">English</text>
<text text-anchor="start" x="818" y="-14.8" font-family="Times New Roman,serif" font-size="14.00" fill="red">unanimous</text>
</g>
<!-- unanimusL&#45;&gt;unanimous -->
<g id="edge54" class="edge">
<title>unanimusL&#45;&gt;unanimous</title>
<path fill="none" stroke="black" stroke-dasharray="5,2" d="M848.5,-435.83C848.5,-419.05 848.5,-392.77 848.5,-370 848.5,-370 848.5,-370 848.5,-125 848.5,-105.95 848.5,-84.69 848.5,-67.4"/>
<polygon fill="black" stroke="black" points="852,-67.21 848.5,-57.21 845,-67.21 852,-67.21"/>
</g>
<!-- anemoE -->
<g id="node57" class="node">
<title>anemoE</title>
<text text-anchor="start" x="1108" y="-42.8" font-family="Times New Roman,serif" font-weight="bold" font-size="14.00">Modern</text>
<text text-anchor="start" x="1109.5" y="-28.8" font-family="Times New Roman,serif" font-weight="bold" font-size="14.00">English</text>
<text text-anchor="start" x="1111.5" y="-14.8" font-family="Times New Roman,serif" font-size="14.00" fill="red">anemo&#45;</text>
</g>
<!-- anemoG&#45;&gt;anemoE -->
<g id="edge56" class="edge">
<title>anemoG&#45;&gt;anemoE</title>
<path fill="none" stroke="black" stroke-dasharray="5,2" d="M1128.83,-222.71C1129.49,-188.61 1130.97,-112.16 1131.84,-67.41"/>
<polygon fill="black" stroke="black" points="1135.34,-67.36 1132.03,-57.3 1128.34,-67.23 1135.34,-67.36"/>
</g>
<!-- anemoneL -->
<g id="node59" class="node">
<title>anemoneL</title>
<text text-anchor="start" x="1032" y="-129.8" font-family="Times New Roman,serif" font-weight="bold" font-size="14.00">Latin</text>
<text text-anchor="start" x="1023.5" y="-115.8" font-family="Times New Roman,serif" font-size="14.00" fill="red">anemōnē</text>
</g>
<!-- anemoneG&#45;&gt;anemoneL -->
<g id="edge58" class="edge">
<title>anemoneG&#45;&gt;anemoneL</title>
<path fill="none" stroke="black" stroke-dasharray="5,2" d="M1048.5,-222.84C1048.5,-204.67 1048.5,-175.72 1048.5,-154.39"/>
<polygon fill="black" stroke="black" points="1052,-154.32 1048.5,-144.32 1045,-154.32 1052,-154.32"/>
</g>
<!-- anemone -->
<g id="node60" class="node">
<title>anemone</title>
<text text-anchor="start" x="1024" y="-42.8" font-family="Times New Roman,serif" font-weight="bold" font-size="14.00">Modern</text>
<text text-anchor="start" x="1025.5" y="-28.8" font-family="Times New Roman,serif" font-weight="bold" font-size="14.00">English</text>
<text text-anchor="start" x="1023.5" y="-14.8" font-family="Times New Roman,serif" font-size="14.00" fill="red">anemone</text>
</g>
<!-- anemoneL&#45;&gt;anemone -->
<g id="edge59" class="edge">
<title>anemoneL&#45;&gt;anemone</title>
<path fill="none" stroke="black" stroke-dasharray="5,2" d="M1048.5,-107.7C1048.5,-96.33 1048.5,-81.07 1048.5,-67.31"/>
<polygon fill="black" stroke="black" points="1052,-67.17 1048.5,-57.17 1045,-67.17 1052,-67.17"/>
</g>
</g>
</svg>
