<?xml version="1.0" encoding="UTF-8" standalone="no"?>
<!DOCTYPE svg PUBLIC "-//W3C//DTD SVG 1.1//EN"
 "http://www.w3.org/Graphics/SVG/1.1/DTD/svg11.dtd">
<!-- Generated by graphviz version 2.44.1 (20200629.0846)
 -->
<!-- Pages: 1 -->
<svg width="678pt" height="722pt"
 viewBox="0.00 0.00 677.50 722.00" xmlns="http://www.w3.org/2000/svg" xmlns:xlink="http://www.w3.org/1999/xlink">
<g id="graph0" class="graph" transform="scale(1 1) rotate(0) translate(4 718)">
<polygon fill="white" stroke="transparent" points="-4,4 -4,-718 673.5,-718 673.5,4 -4,4"/>
<!-- ank -->
<g id="node1" class="node">
<title>ank</title>
<g id="a_node1"><a xlink:title="Indo&#45;European &quot;ank&#45;, angg&#45;&quot; to bend">
<polygon fill="none" stroke="black" points="556.5,-710 345.5,-710 345.5,-606 556.5,-606 556.5,-710"/>
<polygon fill="none" stroke="black" points="560.5,-714 341.5,-714 341.5,-602 560.5,-602 560.5,-714"/>
<text text-anchor="start" x="373" y="-665.8" font-family="Times New Roman,serif" font-weight="bold" font-size="24.00">Indo&#45;European</text>
<text text-anchor="start" x="378" y="-637.6" font-family="Times New Roman,serif" font-size="18.00" fill="red">ank&#45;, angg&#45;</text>
<text text-anchor="start" x="478.5" y="-638.2" font-family="Times New Roman,serif" font-size="16.00">to bend</text>
</a>
</g>
</g>
<!-- anggGm -->
<g id="node2" class="node">
<title>anggGm</title>
<g id="a_node2"><a xlink:title=" ">
<text text-anchor="start" x="169.5" y="-524.8" font-family="Times New Roman,serif" font-weight="bold" font-size="14.00">Germanic</text>
<text text-anchor="start" x="184.5" y="-510.8" font-family="Times New Roman,serif" font-size="14.00" fill="red">angg&#45;</text>
<text text-anchor="start" x="180.5" y="-498.4" font-family="Times New Roman,serif" font-size="12.00">fishhook</text>
</a>
</g>
</g>
<!-- ank&#45;&gt;anggGm -->
<g id="edge1" class="edge">
<title>ank&#45;&gt;anggGm</title>
<g id="a_edge1"><a xlink:title=" ">
<path fill="none" stroke="black" d="M345.97,-601.97C316.32,-585.96 284.18,-568.15 255,-551 251.43,-548.9 247.76,-546.69 244.09,-544.44"/>
<polygon fill="black" stroke="black" points="245.91,-541.45 235.57,-539.15 242.22,-547.4 245.91,-541.45"/>
</a>
</g>
<text text-anchor="middle" x="312.5" y="-572.8" font-family="Times New Roman,serif" font-size="14.00">?</text>
<polyline fill="none" stroke="black" points="316,-569 309,-569 309.69,-582.13 "/>
</g>
<!-- angulGm -->
<g id="node6" class="node">
<title>angulGm</title>
<g id="a_node6"><a xlink:title=" ">
<text text-anchor="start" x="304.5" y="-536.8" font-family="Times New Roman,serif" font-weight="bold" font-size="14.00">Germanic</text>
<text text-anchor="start" x="318" y="-522.8" font-family="Times New Roman,serif" font-size="14.00" fill="red">Angul</text>
<text text-anchor="start" x="319" y="-510.4" font-family="Times New Roman,serif" font-size="12.00">Angeln</text>
<text text-anchor="start" x="295.5" y="-498.4" font-family="Times New Roman,serif" font-size="12.00">(fishhook&#45;shaped</text>
<text text-anchor="start" x="272" y="-486.4" font-family="Times New Roman,serif" font-size="12.00">region of modern Germany)</text>
</a>
</g>
</g>
<!-- ank&#45;&gt;angulGm -->
<g id="edge5" class="edge">
<title>ank&#45;&gt;angulGm</title>
<g id="a_edge5"><a xlink:title=" ">
<path fill="none" stroke="black" d="M405.49,-601.68C393.81,-587.49 381.43,-572.44 370.36,-558.98"/>
<polygon fill="black" stroke="black" points="373.06,-556.75 364,-551.25 367.65,-561.2 373.06,-556.75"/>
</a>
</g>
</g>
<!-- angusL -->
<g id="node16" class="node">
<title>angusL</title>
<g id="a_node16"><a xlink:title=" ">
<text text-anchor="start" x="434.5" y="-524.8" font-family="Times New Roman,serif" font-weight="bold" font-size="14.00">Latin</text>
<text text-anchor="start" x="434.5" y="-510.8" font-family="Times New Roman,serif" font-size="14.00" fill="red">angus</text>
<text text-anchor="start" x="448" y="-498.4" font-family="Times New Roman,serif" font-size="12.00">?</text>
</a>
</g>
</g>
<!-- ank&#45;&gt;angusL -->
<g id="edge15" class="edge">
<title>ank&#45;&gt;angusL</title>
<g id="a_edge15"><a xlink:title=" ">
<path fill="none" stroke="black" d="M451,-601.68C451,-584 451,-564.99 451,-549.37"/>
<polygon fill="black" stroke="black" points="454.5,-549.16 451,-539.16 447.5,-549.16 454.5,-549.16"/>
</a>
</g>
</g>
<!-- ankuraG -->
<g id="node21" class="node">
<title>ankuraG</title>
<g id="a_node21"><a xlink:title=" ">
<text text-anchor="start" x="514" y="-524.8" font-family="Times New Roman,serif" font-weight="bold" font-size="14.00">Greek</text>
<text text-anchor="start" x="515.5" y="-510.8" font-family="Times New Roman,serif" font-size="14.00" fill="red">ankūra</text>
<text text-anchor="start" x="518.5" y="-498.4" font-family="Times New Roman,serif" font-size="12.00">anchor</text>
</a>
</g>
</g>
<!-- ank&#45;&gt;ankuraG -->
<g id="edge20" class="edge">
<title>ank&#45;&gt;ankuraG</title>
<g id="a_edge20"><a xlink:title=" ">
<path fill="none" stroke="black" d="M483.57,-601.68C494.27,-583.49 505.81,-563.89 515.15,-548.03"/>
<polygon fill="black" stroke="black" points="518.31,-549.56 520.36,-539.16 512.28,-546.01 518.31,-549.56"/>
</a>
</g>
</g>
<!-- ankulaON -->
<g id="node26" class="node">
<title>ankulaON</title>
<g id="a_node26"><a xlink:title=" ">
<text text-anchor="start" x="593" y="-518.8" font-family="Times New Roman,serif" font-weight="bold" font-size="14.00">Old Norse</text>
<text text-anchor="start" x="607" y="-504.8" font-family="Times New Roman,serif" font-size="14.00" fill="red">ankula</text>
</a>
</g>
</g>
<!-- ank&#45;&gt;ankulaON -->
<g id="edge25" class="edge">
<title>ank&#45;&gt;ankulaON</title>
<g id="a_edge25"><a xlink:title=" ">
<path fill="none" stroke="black" d="M519.27,-601.68C546,-580.02 575.2,-556.35 596.13,-539.39"/>
<polygon fill="black" stroke="black" points="598.44,-542.03 604,-533.01 594.03,-536.59 598.44,-542.03"/>
</a>
</g>
</g>
<!-- angel1OE -->
<g id="node3" class="node">
<title>angel1OE</title>
<g id="a_node3"><a xlink:title=" ">
<text text-anchor="start" x="69.5" y="-323.8" font-family="Times New Roman,serif" font-weight="bold" font-size="14.00">Old English</text>
<text text-anchor="start" x="91.5" y="-309.8" font-family="Times New Roman,serif" font-size="14.00" fill="red">angel</text>
</a>
</g>
</g>
<!-- anggGm&#45;&gt;angel1OE -->
<g id="edge2" class="edge">
<title>anggGm&#45;&gt;angel1OE</title>
<g id="a_edge2"><a xlink:title=" ">
<path fill="none" stroke="black" d="M188.66,-490.72C171.09,-454.64 137.39,-385.44 118.91,-347.5"/>
<polygon fill="black" stroke="black" points="121.86,-345.58 114.34,-338.12 115.57,-348.65 121.86,-345.58"/>
</a>
</g>
</g>
<!-- angle1ME -->
<g id="node4" class="node">
<title>angle1ME</title>
<g id="a_node4"><a xlink:title=" ">
<text text-anchor="start" x="57.5" y="-153.8" font-family="Times New Roman,serif" font-weight="bold" font-size="14.00">Middle</text>
<text text-anchor="start" x="56" y="-139.8" font-family="Times New Roman,serif" font-weight="bold" font-size="14.00">English</text>
<text text-anchor="start" x="64.5" y="-125.8" font-family="Times New Roman,serif" font-size="14.00" fill="red">angle</text>
</a>
</g>
</g>
<!-- angel1OE&#45;&gt;angle1ME -->
<g id="edge3" class="edge">
<title>angel1OE&#45;&gt;angle1ME</title>
<g id="a_edge3"><a xlink:title=" ">
<path fill="none" stroke="black" d="M103.36,-301.9C98.95,-273.29 89.98,-215.18 84.25,-178"/>
<polygon fill="black" stroke="black" points="87.7,-177.46 82.72,-168.11 80.79,-178.52 87.7,-177.46"/>
</a>
</g>
</g>
<!-- angle1 -->
<g id="node5" class="node">
<title>angle1</title>
<g id="a_node5"><a xlink:title=" ">
<text text-anchor="start" x="42.5" y="-59.8" font-family="Times New Roman,serif" font-weight="bold" font-size="14.00">Modern</text>
<text text-anchor="start" x="44" y="-45.8" font-family="Times New Roman,serif" font-weight="bold" font-size="14.00">English</text>
<text text-anchor="start" x="52.5" y="-31.8" font-family="Times New Roman,serif" font-size="14.00" fill="red">angle</text>
<text text-anchor="start" x="40" y="-19.4" font-family="Times New Roman,serif" font-size="12.00">(to fish, and</text>
<text text-anchor="start" x="8" y="-7.4" font-family="Times New Roman,serif" font-size="12.00">related metaphorical uses)</text>
</a>
</g>
</g>
<!-- angle1ME&#45;&gt;angle1 -->
<g id="edge4" class="edge">
<title>angle1ME&#45;&gt;angle1</title>
<g id="a_edge4"><a xlink:title=" ">
<path fill="none" stroke="black" d="M76.22,-117.88C75.06,-107.85 73.68,-95.87 72.34,-84.27"/>
<polygon fill="black" stroke="black" points="75.8,-83.76 71.18,-74.23 68.85,-84.56 75.8,-83.76"/>
</a>
</g>
</g>
<!-- angliL -->
<g id="node7" class="node">
<title>angliL</title>
<g id="a_node7"><a xlink:title=" ">
<text text-anchor="start" x="318.5" y="-427.8" font-family="Times New Roman,serif" font-weight="bold" font-size="14.00">Latin</text>
<text text-anchor="start" x="296.5" y="-413.8" font-family="Times New Roman,serif" font-size="14.00" fill="red">Anglī, Anglo&#45;</text>
<text text-anchor="start" x="318" y="-401.4" font-family="Times New Roman,serif" font-size="12.00">Angles,</text>
<text text-anchor="start" x="286.5" y="-389.4" font-family="Times New Roman,serif" font-size="12.00">the people from there</text>
</a>
</g>
</g>
<!-- angulGm&#45;&gt;angliL -->
<g id="edge6" class="edge">
<title>angulGm&#45;&gt;angliL</title>
<g id="a_edge6"><a xlink:title=" ">
<path fill="none" stroke="black" stroke-dasharray="1,5" d="M335,-478.96C335,-470.36 335,-461.1 335,-452.31"/>
<polygon fill="black" stroke="black" points="338.5,-452.28 335,-442.28 331.5,-452.28 338.5,-452.28"/>
</a>
</g>
</g>
<!-- angloOE -->
<g id="node8" class="node">
<title>angloOE</title>
<g id="a_node8"><a xlink:title=" ">
<text text-anchor="start" x="180.5" y="-330.8" font-family="Times New Roman,serif" font-weight="bold" font-size="14.00">Old English</text>
<text text-anchor="start" x="201.5" y="-316.8" font-family="Times New Roman,serif" font-size="14.00" fill="red">Engle</text>
<text text-anchor="start" x="197.5" y="-302.8" font-family="Times New Roman,serif" font-size="14.00" fill="red">Anglo&#45;</text>
</a>
</g>
</g>
<!-- angliL&#45;&gt;angloOE -->
<g id="edge7" class="edge">
<title>angliL&#45;&gt;angloOE</title>
<g id="a_edge7"><a xlink:title=" ">
<path fill="none" stroke="black" stroke-dasharray="1,5" d="M296.69,-381.78C283.99,-372.1 269.83,-361.3 257.01,-351.52"/>
<polygon fill="black" stroke="black" points="258.88,-348.54 248.81,-345.26 254.64,-354.11 258.88,-348.54"/>
</a>
</g>
</g>
<!-- anglicusL -->
<g id="node11" class="node">
<title>anglicusL</title>
<g id="a_node11"><a xlink:title=" ">
<text text-anchor="start" x="310.5" y="-322.8" font-family="Times New Roman,serif" font-size="14.00" fill="red">Anglicus</text>
<text text-anchor="start" x="288" y="-310.4" font-family="Times New Roman,serif" font-size="12.00">of the English people</text>
</a>
</g>
</g>
<!-- angliL&#45;&gt;anglicusL -->
<g id="edge10" class="edge">
<title>angliL&#45;&gt;anglicusL</title>
<g id="a_edge10"><a xlink:title=" ">
<path fill="none" stroke="black" d="M335,-381.53C335,-370.88 335,-358.9 335,-348.43"/>
<polygon fill="black" stroke="black" points="338.5,-348.18 335,-338.18 331.5,-348.18 338.5,-348.18"/>
</a>
</g>
</g>
<!-- angloME -->
<g id="node9" class="node">
<title>angloME</title>
<g id="a_node9"><a xlink:title=" ">
<text text-anchor="start" x="164.5" y="-160.8" font-family="Times New Roman,serif" font-weight="bold" font-size="14.00">Middle</text>
<text text-anchor="start" x="163" y="-146.8" font-family="Times New Roman,serif" font-weight="bold" font-size="14.00">English</text>
<text text-anchor="start" x="169.5" y="-132.8" font-family="Times New Roman,serif" font-size="14.00" fill="red">Angle</text>
<text text-anchor="start" x="166.5" y="-118.8" font-family="Times New Roman,serif" font-size="14.00" fill="red">Anglo&#45;</text>
</a>
</g>
</g>
<!-- angloOE&#45;&gt;angloME -->
<g id="edge8" class="edge">
<title>angloOE&#45;&gt;angloME</title>
<g id="a_edge8"><a xlink:title=" ">
<path fill="none" stroke="black" d="M212.69,-294.67C207.68,-266.41 199.34,-219.33 193.32,-185.31"/>
<polygon fill="black" stroke="black" points="196.72,-184.45 191.53,-175.21 189.83,-185.67 196.72,-184.45"/>
</a>
</g>
</g>
<!-- engliscOE -->
<g id="node13" class="node">
<title>engliscOE</title>
<g id="a_node13"><a xlink:title=" ">
<text text-anchor="start" x="243.5" y="-243.8" font-family="Times New Roman,serif" font-size="14.00" fill="red">Englisc</text>
<text text-anchor="start" x="239.5" y="-231.4" font-family="Times New Roman,serif" font-size="12.00">(nationality</text>
<text text-anchor="start" x="232.5" y="-219.4" font-family="Times New Roman,serif" font-size="12.00">and language)</text>
</a>
</g>
</g>
<!-- angloOE&#45;&gt;engliscOE -->
<g id="edge12" class="edge">
<title>angloOE&#45;&gt;engliscOE</title>
<g id="a_edge12"><a xlink:title=" ">
<path fill="none" stroke="black" d="M230.59,-294.99C235.52,-286.3 241.14,-276.36 246.36,-267.15"/>
<polygon fill="black" stroke="black" points="249.52,-268.67 251.4,-258.25 243.43,-265.22 249.52,-268.67"/>
</a>
</g>
</g>
<!-- anglo -->
<g id="node10" class="node">
<title>anglo</title>
<g id="a_node10"><a xlink:title=" ">
<text text-anchor="start" x="160.5" y="-54.8" font-family="Times New Roman,serif" font-weight="bold" font-size="14.00">Modern</text>
<text text-anchor="start" x="162" y="-40.8" font-family="Times New Roman,serif" font-weight="bold" font-size="14.00">English</text>
<text text-anchor="start" x="168.5" y="-26.8" font-family="Times New Roman,serif" font-size="14.00" fill="red">Angle</text>
<text text-anchor="start" x="165.5" y="-12.8" font-family="Times New Roman,serif" font-size="14.00" fill="red">Anglo&#45;</text>
</a>
</g>
</g>
<!-- angloME&#45;&gt;anglo -->
<g id="edge9" class="edge">
<title>angloME&#45;&gt;anglo</title>
<g id="a_edge9"><a xlink:title=" ">
<path fill="none" stroke="black" d="M185.7,-110.8C185.61,-100.92 185.5,-89.85 185.4,-79.38"/>
<polygon fill="black" stroke="black" points="188.9,-79.15 185.3,-69.18 181.9,-79.21 188.9,-79.15"/>
</a>
</g>
</g>
<!-- anglicize -->
<g id="node12" class="node">
<title>anglicize</title>
<g id="a_node12"><a xlink:title=" ">
<text text-anchor="start" x="328.5" y="-54.8" font-family="Times New Roman,serif" font-weight="bold" font-size="14.00">Modern</text>
<text text-anchor="start" x="330" y="-40.8" font-family="Times New Roman,serif" font-weight="bold" font-size="14.00">English</text>
<text text-anchor="start" x="327" y="-26.8" font-family="Times New Roman,serif" font-size="14.00" fill="red">Anglicize</text>
<text text-anchor="start" x="328.5" y="-12.8" font-family="Times New Roman,serif" font-size="14.00" fill="red">Anglican</text>
</a>
</g>
</g>
<!-- anglicusL&#45;&gt;anglicize -->
<g id="edge11" class="edge">
<title>anglicusL&#45;&gt;anglicize</title>
<g id="a_edge11"><a xlink:title=" ">
<path fill="none" stroke="black" stroke-dasharray="1,5" d="M336.1,-301.85C338.89,-258.25 346.32,-142.25 350.34,-79.57"/>
<polygon fill="black" stroke="black" points="353.85,-79.46 351,-69.25 346.87,-79.01 353.85,-79.46"/>
</a>
</g>
</g>
<!-- englishME -->
<g id="node14" class="node">
<title>englishME</title>
<g id="a_node14"><a xlink:title=" ">
<text text-anchor="start" x="245.5" y="-153.8" font-family="Times New Roman,serif" font-weight="bold" font-size="14.00">Middle</text>
<text text-anchor="start" x="244" y="-139.8" font-family="Times New Roman,serif" font-weight="bold" font-size="14.00">English</text>
<text text-anchor="start" x="246.5" y="-125.8" font-family="Times New Roman,serif" font-size="14.00" fill="red">English</text>
</a>
</g>
</g>
<!-- engliscOE&#45;&gt;englishME -->
<g id="edge13" class="edge">
<title>engliscOE&#45;&gt;englishME</title>
<g id="a_edge13"><a xlink:title=" ">
<path fill="none" stroke="black" d="M264.74,-211.75C265.08,-201.73 265.48,-189.67 265.85,-178.52"/>
<polygon fill="black" stroke="black" points="269.36,-178.31 266.19,-168.2 262.36,-178.08 269.36,-178.31"/>
</a>
</g>
</g>
<!-- english -->
<g id="node15" class="node">
<title>english</title>
<g id="a_node15"><a xlink:title=" ">
<text text-anchor="start" x="243.5" y="-47.8" font-family="Times New Roman,serif" font-weight="bold" font-size="14.00">Modern</text>
<text text-anchor="start" x="245" y="-33.8" font-family="Times New Roman,serif" font-weight="bold" font-size="14.00">English</text>
<text text-anchor="start" x="247.5" y="-19.8" font-family="Times New Roman,serif" font-size="14.00" fill="red">English</text>
</a>
</g>
</g>
<!-- englishME&#45;&gt;english -->
<g id="edge14" class="edge">
<title>englishME&#45;&gt;english</title>
<g id="a_edge14"><a xlink:title=" ">
<path fill="none" stroke="black" d="M267.23,-117.88C267.36,-104.46 267.52,-87.51 267.67,-72.69"/>
<polygon fill="black" stroke="black" points="271.17,-72.38 267.77,-62.35 264.17,-72.32 271.17,-72.38"/>
</a>
</g>
</g>
<!-- angulusL -->
<g id="node17" class="node">
<title>angulusL</title>
<g id="a_node17"><a xlink:title=" ">
<text text-anchor="start" x="429.5" y="-414.8" font-family="Times New Roman,serif" font-size="14.00" fill="red">angulus</text>
<text text-anchor="start" x="436" y="-402.4" font-family="Times New Roman,serif" font-size="12.00">corner</text>
</a>
</g>
</g>
<!-- angusL&#45;&gt;angulusL -->
<g id="edge16" class="edge">
<title>angusL&#45;&gt;angulusL</title>
<g id="a_edge16"><a xlink:title=" ">
<path fill="none" stroke="black" d="M451,-490.83C451,-475.78 451,-456.1 451,-440.3"/>
<polygon fill="black" stroke="black" points="454.5,-440.08 451,-430.08 447.5,-440.08 454.5,-440.08"/>
</a>
</g>
</g>
<!-- angle2OF -->
<g id="node18" class="node">
<title>angle2OF</title>
<g id="a_node18"><a xlink:title=" ">
<text text-anchor="start" x="416" y="-323.8" font-family="Times New Roman,serif" font-weight="bold" font-size="14.00">Old French</text>
<text text-anchor="start" x="436.5" y="-309.8" font-family="Times New Roman,serif" font-size="14.00" fill="red">angle</text>
</a>
</g>
</g>
<!-- angulusL&#45;&gt;angle2OF -->
<g id="edge17" class="edge">
<title>angulusL&#45;&gt;angle2OF</title>
<g id="a_edge17"><a xlink:title=" ">
<path fill="none" stroke="black" d="M451,-393.65C451,-380.82 451,-363.11 451,-348.38"/>
<polygon fill="black" stroke="black" points="454.5,-348.3 451,-338.3 447.5,-348.3 454.5,-348.3"/>
</a>
</g>
</g>
<!-- angle2ME -->
<g id="node19" class="node">
<title>angle2ME</title>
<g id="a_node19"><a xlink:title=" ">
<text text-anchor="start" x="429.5" y="-153.8" font-family="Times New Roman,serif" font-weight="bold" font-size="14.00">Middle</text>
<text text-anchor="start" x="428" y="-139.8" font-family="Times New Roman,serif" font-weight="bold" font-size="14.00">English</text>
<text text-anchor="start" x="436.5" y="-125.8" font-family="Times New Roman,serif" font-size="14.00" fill="red">angle</text>
</a>
</g>
</g>
<!-- angle2OF&#45;&gt;angle2ME -->
<g id="edge18" class="edge">
<title>angle2OF&#45;&gt;angle2ME</title>
<g id="a_edge18"><a xlink:title=" ">
<path fill="none" stroke="black" stroke-dasharray="1,5" d="M451,-301.9C451,-273.41 451,-215.68 451,-178.48"/>
<polygon fill="black" stroke="black" points="454.5,-178.11 451,-168.11 447.5,-178.11 454.5,-178.11"/>
</a>
</g>
</g>
<!-- angle2 -->
<g id="node20" class="node">
<title>angle2</title>
<g id="a_node20"><a xlink:title=" ">
<text text-anchor="start" x="426.5" y="-53.8" font-family="Times New Roman,serif" font-weight="bold" font-size="14.00">Modern</text>
<text text-anchor="start" x="428" y="-39.8" font-family="Times New Roman,serif" font-weight="bold" font-size="14.00">English</text>
<text text-anchor="start" x="436.5" y="-25.8" font-family="Times New Roman,serif" font-size="14.00" fill="red">angle</text>
<text text-anchor="start" x="426" y="-13.4" font-family="Times New Roman,serif" font-size="12.00">(geometry)</text>
</a>
</g>
</g>
<!-- angle2ME&#45;&gt;angle2 -->
<g id="edge19" class="edge">
<title>angle2ME&#45;&gt;angle2</title>
<g id="a_edge19"><a xlink:title=" ">
<path fill="none" stroke="black" d="M451,-117.88C451,-106.23 451,-91.93 451,-78.67"/>
<polygon fill="black" stroke="black" points="454.5,-78.33 451,-68.33 447.5,-78.33 454.5,-78.33"/>
</a>
</g>
</g>
<!-- ancoraL -->
<g id="node22" class="node">
<title>ancoraL</title>
<g id="a_node22"><a xlink:title=" ">
<text text-anchor="start" x="531.5" y="-415.8" font-family="Times New Roman,serif" font-weight="bold" font-size="14.00">Latin</text>
<text text-anchor="start" x="529" y="-401.8" font-family="Times New Roman,serif" font-size="14.00" fill="red">ancora</text>
</a>
</g>
</g>
<!-- ankuraG&#45;&gt;ancoraL -->
<g id="edge21" class="edge">
<title>ankuraG&#45;&gt;ancoraL</title>
<g id="a_edge21"><a xlink:title=" ">
<path fill="none" stroke="black" stroke-dasharray="1,5" d="M537.21,-490.83C539.3,-475.78 542.03,-456.1 544.22,-440.3"/>
<polygon fill="black" stroke="black" points="547.73,-440.46 545.63,-430.08 540.79,-439.5 547.73,-440.46"/>
</a>
</g>
</g>
<!-- ancorOE -->
<g id="node23" class="node">
<title>ancorOE</title>
<g id="a_node23"><a xlink:title=" ">
<text text-anchor="start" x="520.5" y="-323.8" font-family="Times New Roman,serif" font-weight="bold" font-size="14.00">Old English</text>
<text text-anchor="start" x="541" y="-309.8" font-family="Times New Roman,serif" font-size="14.00" fill="red">ancor</text>
</a>
</g>
</g>
<!-- ancoraL&#45;&gt;ancorOE -->
<g id="edge22" class="edge">
<title>ancoraL&#45;&gt;ancorOE</title>
<g id="a_edge22"><a xlink:title=" ">
<path fill="none" stroke="black" stroke-dasharray="1,5" d="M549.74,-393.65C551.02,-380.82 552.79,-363.11 554.26,-348.38"/>
<polygon fill="black" stroke="black" points="557.76,-348.6 555.27,-338.3 550.79,-347.9 557.76,-348.6"/>
</a>
</g>
</g>
<!-- ancreME -->
<g id="node24" class="node">
<title>ancreME</title>
<g id="a_node24"><a xlink:title=" ">
<text text-anchor="start" x="524.5" y="-153.8" font-family="Times New Roman,serif" font-weight="bold" font-size="14.00">Middle</text>
<text text-anchor="start" x="523" y="-139.8" font-family="Times New Roman,serif" font-weight="bold" font-size="14.00">English</text>
<text text-anchor="start" x="512" y="-125.8" font-family="Times New Roman,serif" font-size="14.00" fill="red">ancre, anker</text>
</a>
</g>
</g>
<!-- ancorOE&#45;&gt;ancreME -->
<g id="edge23" class="edge">
<title>ancorOE&#45;&gt;ancreME</title>
<g id="a_edge23"><a xlink:title=" ">
<path fill="none" stroke="black" d="M555.93,-301.9C554.13,-273.41 550.51,-215.68 548.17,-178.48"/>
<polygon fill="black" stroke="black" points="551.64,-177.87 547.52,-168.11 544.65,-178.31 551.64,-177.87"/>
</a>
</g>
</g>
<!-- anchor -->
<g id="node25" class="node">
<title>anchor</title>
<g id="a_node25"><a xlink:title=" ">
<text text-anchor="start" x="521.5" y="-47.8" font-family="Times New Roman,serif" font-weight="bold" font-size="14.00">Modern</text>
<text text-anchor="start" x="523" y="-33.8" font-family="Times New Roman,serif" font-weight="bold" font-size="14.00">English</text>
<text text-anchor="start" x="526.5" y="-19.8" font-family="Times New Roman,serif" font-size="14.00" fill="red">anchor</text>
</a>
</g>
</g>
<!-- ancreME&#45;&gt;anchor -->
<g id="edge24" class="edge">
<title>ancreME&#45;&gt;anchor</title>
<g id="a_edge24"><a xlink:title=" ">
<path fill="none" stroke="black" d="M546,-117.88C546,-104.46 546,-87.51 546,-72.69"/>
<polygon fill="black" stroke="black" points="549.5,-72.35 546,-62.35 542.5,-72.35 549.5,-72.35"/>
</a>
</g>
</g>
<!-- ancleME -->
<g id="node27" class="node">
<title>ancleME</title>
<g id="a_node27"><a xlink:title=" ">
<text text-anchor="start" x="615.5" y="-153.8" font-family="Times New Roman,serif" font-weight="bold" font-size="14.00">Middle</text>
<text text-anchor="start" x="614" y="-139.8" font-family="Times New Roman,serif" font-weight="bold" font-size="14.00">English</text>
<text text-anchor="start" x="622.5" y="-125.8" font-family="Times New Roman,serif" font-size="14.00" fill="red">ancle</text>
</a>
</g>
</g>
<!-- ankulaON&#45;&gt;ancleME -->
<g id="edge26" class="edge">
<title>ankulaON&#45;&gt;ancleME</title>
<g id="a_edge26"><a xlink:title=" ">
<path fill="none" stroke="black" stroke-dasharray="1,5" d="M626.64,-496.86C628.42,-476.79 631,-442.51 631,-413 631,-413 631,-413 631,-234 631,-215.63 632.26,-195.2 633.62,-178.45"/>
<polygon fill="black" stroke="black" points="637.15,-178.3 634.52,-168.04 630.18,-177.7 637.15,-178.3"/>
</a>
</g>
</g>
<!-- ankle -->
<g id="node28" class="node">
<title>ankle</title>
<g id="a_node28"><a xlink:title=" ">
<text text-anchor="start" x="612.5" y="-47.8" font-family="Times New Roman,serif" font-weight="bold" font-size="14.00">Modern</text>
<text text-anchor="start" x="614" y="-33.8" font-family="Times New Roman,serif" font-weight="bold" font-size="14.00">English</text>
<text text-anchor="start" x="622.5" y="-19.8" font-family="Times New Roman,serif" font-size="14.00" fill="red">ankle</text>
</a>
</g>
</g>
<!-- ancleME&#45;&gt;ankle -->
<g id="edge27" class="edge">
<title>ancleME&#45;&gt;ankle</title>
<g id="a_edge27"><a xlink:title=" ">
<path fill="none" stroke="black" d="M637,-117.88C637,-104.46 637,-87.51 637,-72.69"/>
<polygon fill="black" stroke="black" points="640.5,-72.35 637,-62.35 633.5,-72.35 640.5,-72.35"/>
</a>
</g>
</g>
</g>
</svg>
