<?xml version="1.0" encoding="UTF-8" standalone="no"?>
<!DOCTYPE svg PUBLIC "-//W3C//DTD SVG 1.1//EN"
 "http://www.w3.org/Graphics/SVG/1.1/DTD/svg11.dtd">
<!-- Generated by graphviz version 2.49.0 (20210828.1703)
 -->
<!-- Pages: 1 -->
<svg width="227pt" height="192pt"
 viewBox="0.00 0.00 227.00 192.00" xmlns="http://www.w3.org/2000/svg" xmlns:xlink="http://www.w3.org/1999/xlink">
<g id="graph0" class="graph" transform="scale(1 1) rotate(0) translate(4 188)">
<polygon fill="white" stroke="transparent" points="-4,4 -4,-188 223,-188 223,4 -4,4"/>
<!-- apoIE -->
<g id="node1" class="node">
<title>apoIE</title>
<g id="a_node1"><a xlink:title="Indo&#45;European &quot;*apo&#45;, *ap&#45;&quot; off, away">
<polygon fill="none" stroke="black" points="215,-180 4,-180 4,-76 215,-76 215,-180"/>
<polygon fill="none" stroke="black" points="219,-184 0,-184 0,-72 219,-72 219,-184"/>
<text text-anchor="start" x="31.5" y="-135.8" font-family="Times New Roman,serif" font-weight="bold" font-size="24.00">Indo&#45;European</text>
<text text-anchor="start" x="33.5" y="-107.6" font-family="Times New Roman,serif" font-size="18.00" fill="red">*apo&#45;, *ap&#45;</text>
<text text-anchor="start" x="128.5" y="-108.2" font-family="Times New Roman,serif" font-size="16.00">off, away</text>
</a>
</g>
</g>
<!-- apo1 -->
<g id="node2" class="node">
<title>apo1</title>
<g id="a_node2"><a xlink:href="apo-off1.svg" xlink:title="base form">
<path fill="none" stroke="black" stroke-dasharray="5,2" d="M88,-36C88,-36 39,-36 39,-36 33,-36 27,-30 27,-24 27,-24 27,-12 27,-12 27,-6 33,0 39,0 39,0 88,0 88,0 94,0 100,-6 100,-12 100,-12 100,-24 100,-24 100,-30 94,-36 88,-36"/>
<text text-anchor="start" x="35" y="-14.3" font-family="Times New Roman,serif" font-size="14.00">base form</text>
</a>
</g>
</g>
<!-- apoIE&#45;&gt;apo1 -->
<g id="edge1" class="edge">
<title>apoIE&#45;&gt;apo1</title>
<path fill="none" stroke="black" d="M85.96,-71.73C82.11,-62.68 78.27,-53.68 74.89,-45.75"/>
<polygon fill="black" stroke="black" points="78.02,-44.17 70.88,-36.34 71.58,-46.91 78.02,-44.17"/>
</g>
<!-- apo2 -->
<g id="node3" class="node">
<title>apo2</title>
<g id="a_node3"><a xlink:href="apo-off2.svg" xlink:title="derivatives">
<path fill="none" stroke="black" stroke-dasharray="5,2" d="M182.5,-36C182.5,-36 130.5,-36 130.5,-36 124.5,-36 118.5,-30 118.5,-24 118.5,-24 118.5,-12 118.5,-12 118.5,-6 124.5,0 130.5,0 130.5,0 182.5,0 182.5,0 188.5,0 194.5,-6 194.5,-12 194.5,-12 194.5,-24 194.5,-24 194.5,-30 188.5,-36 182.5,-36"/>
<text text-anchor="start" x="126.5" y="-14.3" font-family="Times New Roman,serif" font-size="14.00">derivatives</text>
</a>
</g>
</g>
<!-- apoIE&#45;&gt;apo2 -->
<g id="edge2" class="edge">
<title>apoIE&#45;&gt;apo2</title>
<path fill="none" stroke="black" d="M133.55,-71.73C137.49,-62.68 141.41,-53.68 144.86,-45.75"/>
<polygon fill="black" stroke="black" points="148.17,-46.9 148.96,-36.34 141.76,-44.11 148.17,-46.9"/>
</g>
</g>
</svg>
