<?xml version="1.0" encoding="UTF-8" standalone="no"?>
<!DOCTYPE svg PUBLIC "-//W3C//DTD SVG 1.1//EN"
 "http://www.w3.org/Graphics/SVG/1.1/DTD/svg11.dtd">
<!-- Generated by graphviz version 2.49.0 (20210828.1703)
 -->
<!-- Pages: 1 -->
<svg width="792pt" height="676pt"
 viewBox="0.00 0.00 792.00 676.00" xmlns="http://www.w3.org/2000/svg" xmlns:xlink="http://www.w3.org/1999/xlink">
<g id="graph0" class="graph" transform="scale(1 1) rotate(0) translate(4 672)">
<polygon fill="white" stroke="transparent" points="-4,4 -4,-672 788,-672 788,4 -4,4"/>
<!-- apoIE -->
<g id="node1" class="node">
<title>apoIE</title>
<g id="a_node1"><a xlink:href="apo-off0.svg" xlink:title="Indo&#45;European &quot;*apo&#45;, *ap&#45;&quot; off, away">
<polygon fill="none" stroke="black" stroke-dasharray="5,2" points="511,-668 300,-668 300,-564 511,-564 511,-668"/>
<text text-anchor="start" x="327.5" y="-623.8" font-family="Times New Roman,serif" font-weight="bold" font-size="24.00">Indo&#45;European</text>
<text text-anchor="start" x="329.5" y="-595.6" font-family="Times New Roman,serif" font-size="18.00" fill="red">*apo&#45;, *ap&#45;</text>
<text text-anchor="start" x="424.5" y="-596.2" font-family="Times New Roman,serif" font-size="16.00">off, away</text>
</a>
</g>
</g>
<!-- afGmc -->
<g id="node2" class="node">
<title>afGmc</title>
<text text-anchor="start" x="375" y="-500.8" font-family="Times New Roman,serif" font-weight="bold" font-size="14.00">Germanic</text>
<text text-anchor="start" x="396.5" y="-486.8" font-family="Times New Roman,serif" font-size="14.00" fill="red">*af</text>
</g>
<!-- apoIE&#45;&gt;afGmc -->
<g id="edge1" class="edge">
<title>apoIE&#45;&gt;afGmc</title>
<path fill="none" stroke="black" d="M405.5,-563.68C405.5,-550.47 405.5,-536.76 405.5,-525.3"/>
<polygon fill="black" stroke="black" points="409,-525.1 405.5,-515.1 402,-525.1 409,-525.1"/>
</g>
<!-- abL -->
<g id="node33" class="node">
<title>abL</title>
<text text-anchor="start" x="735" y="-506.8" font-family="Times New Roman,serif" font-weight="bold" font-size="14.00">Latin</text>
<text text-anchor="start" x="731.5" y="-492.8" font-family="Times New Roman,serif" font-size="14.00" fill="red">ab, ab&#45;</text>
<text text-anchor="start" x="727" y="-480.4" font-family="Times New Roman,serif" font-size="12.00">away from</text>
</g>
<!-- apoIE&#45;&gt;abL -->
<g id="edge32" class="edge">
<title>apoIE&#45;&gt;abL</title>
<path fill="none" stroke="black" d="M511.22,-594.56C571.53,-580.54 647.43,-558.84 710.5,-528 711.49,-527.52 712.48,-527.01 713.47,-526.48"/>
<polygon fill="black" stroke="black" points="715.46,-529.37 722.28,-521.25 711.89,-523.35 715.46,-529.37"/>
</g>
<!-- apoG -->
<g id="node35" class="node">
<title>apoG</title>
<text text-anchor="start" x="25.5" y="-506.8" font-family="Times New Roman,serif" font-weight="bold" font-size="14.00">Greek</text>
<text text-anchor="start" x="18" y="-492.8" font-family="Times New Roman,serif" font-size="14.00" fill="red">apo, apo&#45;</text>
<text text-anchor="start" x="21" y="-480.4" font-family="Times New Roman,serif" font-size="12.00">away from</text>
</g>
<!-- apoIE&#45;&gt;apoG -->
<g id="edge34" class="edge">
<title>apoIE&#45;&gt;apoG</title>
<path fill="none" stroke="black" d="M299.83,-587.86C243.05,-572.27 172.23,-551.21 110.5,-528 104.01,-525.56 97.27,-522.76 90.68,-519.87"/>
<polygon fill="black" stroke="black" points="91.76,-516.52 81.2,-515.61 88.89,-522.9 91.76,-516.52"/>
</g>
<!-- ofOE -->
<g id="node3" class="node">
<title>ofOE</title>
<text text-anchor="start" x="221" y="-408.8" font-family="Times New Roman,serif" font-weight="bold" font-size="14.00">Old English</text>
<text text-anchor="start" x="251" y="-394.8" font-family="Times New Roman,serif" font-size="14.00" fill="red">of</text>
<text text-anchor="start" x="251" y="-382.4" font-family="Times New Roman,serif" font-size="12.00">off</text>
</g>
<!-- afGmc&#45;&gt;ofOE -->
<g id="edge2" class="edge">
<title>afGmc&#45;&gt;ofOE</title>
<path fill="none" stroke="black" d="M379.04,-478.84C357.62,-464.94 326.98,-445.07 301.83,-428.75"/>
<polygon fill="black" stroke="black" points="303.48,-425.65 293.19,-423.15 299.67,-431.53 303.48,-425.65"/>
</g>
<!-- ebbaOE -->
<g id="node11" class="node">
<title>ebbaOE</title>
<text text-anchor="start" x="419" y="-408.8" font-family="Times New Roman,serif" font-weight="bold" font-size="14.00">Old English</text>
<text text-anchor="start" x="441.5" y="-394.8" font-family="Times New Roman,serif" font-size="14.00" fill="red">ebba</text>
<text text-anchor="start" x="437" y="-382.4" font-family="Times New Roman,serif" font-size="12.00">low tide</text>
</g>
<!-- afGmc&#45;&gt;ebbaOE -->
<g id="edge10" class="edge">
<title>afGmc&#45;&gt;ebbaOE</title>
<path fill="none" stroke="black" d="M414.44,-478.84C421.14,-465.97 430.51,-447.99 438.6,-432.44"/>
<polygon fill="black" stroke="black" points="441.93,-433.63 443.44,-423.15 435.72,-430.4 441.93,-433.63"/>
</g>
<!-- abaOHG -->
<g id="node14" class="node">
<title>abaOHG</title>
<text text-anchor="start" x="328.5" y="-409.8" font-family="Times New Roman,serif" font-weight="bold" font-size="14.00">Old High</text>
<text text-anchor="start" x="331" y="-395.8" font-family="Times New Roman,serif" font-weight="bold" font-size="14.00">German</text>
<text text-anchor="start" x="346.5" y="-381.8" font-family="Times New Roman,serif" font-size="14.00" fill="red">aba</text>
</g>
<!-- afGmc&#45;&gt;abaOHG -->
<g id="edge13" class="edge">
<title>afGmc&#45;&gt;abaOHG</title>
<path fill="none" stroke="black" d="M396.74,-478.84C390.31,-466.24 381.38,-448.74 373.56,-433.42"/>
<polygon fill="black" stroke="black" points="376.53,-431.54 368.87,-424.23 370.29,-434.72 376.53,-431.54"/>
</g>
<!-- aeftanOE -->
<g id="node23" class="node">
<title>aeftanOE</title>
<text text-anchor="start" x="526" y="-408.8" font-family="Times New Roman,serif" font-weight="bold" font-size="14.00">Old English</text>
<text text-anchor="start" x="547" y="-394.8" font-family="Times New Roman,serif" font-size="14.00" fill="red">æftan</text>
<text text-anchor="start" x="535" y="-382.4" font-family="Times New Roman,serif" font-size="12.00">behindæftan</text>
</g>
<!-- afGmc&#45;&gt;aeftanOE -->
<g id="edge22" class="edge">
<title>afGmc&#45;&gt;aeftanOE</title>
<path fill="none" stroke="black" d="M433.57,-478.84C456.39,-464.88 489.07,-444.9 515.82,-428.54"/>
<polygon fill="black" stroke="black" points="517.94,-431.35 524.64,-423.15 514.29,-425.38 517.94,-431.35"/>
</g>
<!-- ofME -->
<g id="node4" class="node">
<title>ofME</title>
<text text-anchor="start" x="175" y="-225.8" font-family="Times New Roman,serif" font-weight="bold" font-size="14.00">Middle</text>
<text text-anchor="start" x="173.5" y="-211.8" font-family="Times New Roman,serif" font-weight="bold" font-size="14.00">English</text>
<text text-anchor="start" x="190" y="-197.8" font-family="Times New Roman,serif" font-size="14.00" fill="red">of</text>
</g>
<!-- ofOE&#45;&gt;ofME -->
<g id="edge3" class="edge">
<title>ofOE&#45;&gt;ofME</title>
<path fill="none" stroke="black" d="M250.06,-374.85C242.49,-351.4 230.36,-314.12 219.5,-282 215.94,-271.46 211.98,-260 208.36,-249.64"/>
<polygon fill="black" stroke="black" points="211.63,-248.38 205.02,-240.1 205.02,-250.7 211.63,-248.38"/>
</g>
<!-- of -->
<g id="node5" class="node">
<title>of</title>
<text text-anchor="start" x="257" y="-35.8" font-family="Times New Roman,serif" font-weight="bold" font-size="14.00">Modern</text>
<text text-anchor="start" x="258.5" y="-21.8" font-family="Times New Roman,serif" font-weight="bold" font-size="14.00">English</text>
<text text-anchor="start" x="275" y="-7.8" font-family="Times New Roman,serif" font-size="14.00" fill="red">of</text>
</g>
<!-- ofME&#45;&gt;of -->
<g id="edge4" class="edge">
<title>ofME&#45;&gt;of</title>
<path fill="none" stroke="black" d="M211.01,-189.97C218.19,-177.63 226.74,-162.24 233.5,-148 247.3,-118.9 260.51,-84.7 269.57,-59.92"/>
<polygon fill="black" stroke="black" points="272.95,-60.85 273.06,-50.25 266.37,-58.47 272.95,-60.85"/>
</g>
<!-- offME -->
<g id="node6" class="node">
<title>offME</title>
<text text-anchor="start" x="189" y="-113.3" font-family="Times New Roman,serif" font-size="14.00" fill="red">off</text>
</g>
<!-- ofME&#45;&gt;offME -->
<g id="edge5" class="edge">
<title>ofME&#45;&gt;offME</title>
<path fill="none" stroke="black" d="M196.75,-189.78C196.89,-176.23 197.07,-159.31 197.22,-145.3"/>
<polygon fill="black" stroke="black" points="200.72,-145.29 197.32,-135.25 193.72,-145.22 200.72,-145.29"/>
</g>
<!-- offalME -->
<g id="node9" class="node">
<title>offalME</title>
<text text-anchor="start" x="102.5" y="-113.3" font-family="Times New Roman,serif" font-size="14.00" fill="red">offal</text>
</g>
<!-- ofME&#45;&gt;offalME -->
<g id="edge7" class="edge">
<title>ofME&#45;&gt;offalME</title>
<path fill="none" stroke="black" d="M176.06,-189.78C164.07,-175.57 148.95,-157.64 136.81,-143.26"/>
<polygon fill="black" stroke="black" points="139.18,-140.64 130.06,-135.25 133.83,-145.15 139.18,-140.64"/>
</g>
<!-- off -->
<g id="node7" class="node">
<title>off</title>
<text text-anchor="start" x="174" y="-35.8" font-family="Times New Roman,serif" font-weight="bold" font-size="14.00">Modern</text>
<text text-anchor="start" x="175.5" y="-21.8" font-family="Times New Roman,serif" font-weight="bold" font-size="14.00">English</text>
<text text-anchor="start" x="190" y="-7.8" font-family="Times New Roman,serif" font-size="14.00" fill="red">off</text>
</g>
<!-- offME&#45;&gt;off -->
<g id="edge6" class="edge">
<title>offME&#45;&gt;off</title>
<path fill="none" stroke="black" d="M197.69,-98.65C197.81,-87.76 197.97,-73.36 198.12,-60.25"/>
<polygon fill="black" stroke="black" points="201.62,-60.14 198.23,-50.1 194.62,-60.06 201.62,-60.14"/>
</g>
<!-- falME -->
<g id="node8" class="node">
<title>falME</title>
<text text-anchor="start" x="94" y="-231.8" font-family="Times New Roman,serif" font-weight="bold" font-size="14.00">Middle</text>
<text text-anchor="start" x="92.5" y="-217.8" font-family="Times New Roman,serif" font-weight="bold" font-size="14.00">English</text>
<text text-anchor="start" x="108.5" y="-203.8" font-family="Times New Roman,serif" font-size="14.00" fill="red">fal</text>
<text text-anchor="start" x="109" y="-191.4" font-family="Times New Roman,serif" font-size="12.00">fall</text>
</g>
<!-- falME&#45;&gt;offalME -->
<g id="edge8" class="edge">
<title>falME&#45;&gt;offalME</title>
<path fill="none" stroke="black" d="M115.5,-183.89C115.5,-171.6 115.5,-157.48 115.5,-145.47"/>
<polygon fill="black" stroke="black" points="119,-145.15 115.5,-135.15 112,-145.15 119,-145.15"/>
</g>
<!-- offal -->
<g id="node10" class="node">
<title>offal</title>
<text text-anchor="start" x="91" y="-35.8" font-family="Times New Roman,serif" font-weight="bold" font-size="14.00">Modern</text>
<text text-anchor="start" x="92.5" y="-21.8" font-family="Times New Roman,serif" font-weight="bold" font-size="14.00">English</text>
<text text-anchor="start" x="102.5" y="-7.8" font-family="Times New Roman,serif" font-size="14.00" fill="red">offal</text>
</g>
<!-- offalME&#45;&gt;offal -->
<g id="edge9" class="edge">
<title>offalME&#45;&gt;offal</title>
<path fill="none" stroke="black" d="M115.5,-98.65C115.5,-87.76 115.5,-73.36 115.5,-60.25"/>
<polygon fill="black" stroke="black" points="119,-60.1 115.5,-50.1 112,-60.1 119,-60.1"/>
</g>
<!-- ebbeME -->
<g id="node12" class="node">
<title>ebbeME</title>
<text text-anchor="start" x="434" y="-317.8" font-family="Times New Roman,serif" font-weight="bold" font-size="14.00">Middle</text>
<text text-anchor="start" x="432.5" y="-303.8" font-family="Times New Roman,serif" font-weight="bold" font-size="14.00">English</text>
<text text-anchor="start" x="441.5" y="-289.8" font-family="Times New Roman,serif" font-size="14.00" fill="red">ebbe</text>
</g>
<!-- ebbaOE&#45;&gt;ebbeME -->
<g id="edge11" class="edge">
<title>ebbaOE&#45;&gt;ebbeME</title>
<path fill="none" stroke="black" d="M455.5,-374.82C455.5,-364.88 455.5,-353.05 455.5,-342.14"/>
<polygon fill="black" stroke="black" points="459,-342.04 455.5,-332.04 452,-342.04 459,-342.04"/>
</g>
<!-- ebb -->
<g id="node13" class="node">
<title>ebb</title>
<text text-anchor="start" x="431" y="-35.8" font-family="Times New Roman,serif" font-weight="bold" font-size="14.00">Modern</text>
<text text-anchor="start" x="432.5" y="-21.8" font-family="Times New Roman,serif" font-weight="bold" font-size="14.00">English</text>
<text text-anchor="start" x="444.5" y="-7.8" font-family="Times New Roman,serif" font-size="14.00" fill="red">ebb</text>
</g>
<!-- ebbeME&#45;&gt;ebb -->
<g id="edge12" class="edge">
<title>ebbeME&#45;&gt;ebb</title>
<path fill="none" stroke="black" d="M455.5,-281.64C455.5,-231.66 455.5,-117.43 455.5,-60.11"/>
<polygon fill="black" stroke="black" points="459,-60.1 455.5,-50.1 452,-60.1 459,-60.1"/>
</g>
<!-- abMHG -->
<g id="node15" class="node">
<title>abMHG</title>
<text text-anchor="start" x="320.5" y="-317.8" font-family="Times New Roman,serif" font-weight="bold" font-size="14.00">Middle High</text>
<text text-anchor="start" x="333" y="-303.8" font-family="Times New Roman,serif" font-weight="bold" font-size="14.00">German</text>
<text text-anchor="start" x="351.5" y="-289.8" font-family="Times New Roman,serif" font-size="14.00" fill="red">ab</text>
</g>
<!-- abaOHG&#45;&gt;abMHG -->
<g id="edge14" class="edge">
<title>abaOHG&#45;&gt;abMHG</title>
<path fill="none" stroke="black" d="M357.04,-373.88C357.25,-364.2 357.5,-352.85 357.74,-342.34"/>
<polygon fill="black" stroke="black" points="361.24,-342.26 357.96,-332.18 354.24,-342.1 361.24,-342.26"/>
</g>
<!-- abGm -->
<g id="node16" class="node">
<title>abGm</title>
<text text-anchor="start" x="339" y="-218.8" font-family="Times New Roman,serif" font-weight="bold" font-size="14.00">German</text>
<text text-anchor="start" x="357.5" y="-204.8" font-family="Times New Roman,serif" font-size="14.00" fill="red">ab</text>
</g>
<!-- abMHG&#45;&gt;abGm -->
<g id="edge15" class="edge">
<title>abMHG&#45;&gt;abGm</title>
<path fill="none" stroke="black" d="M360.11,-281.88C360.9,-269.96 361.86,-255.53 362.69,-243.21"/>
<polygon fill="black" stroke="black" points="366.19,-243.26 363.36,-233.05 359.21,-242.8 366.19,-243.26"/>
</g>
<!-- ablautGm -->
<g id="node21" class="node">
<title>ablautGm</title>
<text text-anchor="start" x="347.5" y="-113.3" font-family="Times New Roman,serif" font-size="14.00" fill="red">ablaut</text>
</g>
<!-- abGm&#45;&gt;ablautGm -->
<g id="edge19" class="edge">
<title>abGm&#45;&gt;ablautGm</title>
<path fill="none" stroke="black" d="M364.5,-196.84C364.5,-182.5 364.5,-161.81 364.5,-145.22"/>
<polygon fill="black" stroke="black" points="368,-145.01 364.5,-135.01 361,-145.01 368,-145.01"/>
</g>
<!-- kleuIE -->
<g id="node17" class="node">
<title>kleuIE</title>
<g id="a_node17"><a xlink:href="kleu-hear.svg" xlink:title="&lt;b&gt;Indo&#45;&lt;br/&gt;European&lt;/b&gt;&lt;br/&gt;&lt;font color=&quot;red&quot;&gt;*kleu&#45;&lt;/font&gt;&lt;br/&gt;&lt;font point&#45;size=&quot;12&quot;&gt;to hear&lt;/font&gt;">
<path fill="none" stroke="black" stroke-dasharray="5,2" d="M185,-528C185,-528 132,-528 132,-528 126,-528 120,-522 120,-516 120,-516 120,-478 120,-478 120,-472 126,-466 132,-466 132,-466 185,-466 185,-466 191,-466 197,-472 197,-478 197,-478 197,-516 197,-516 197,-522 191,-528 185,-528"/>
<text text-anchor="start" x="142" y="-513.8" font-family="Times New Roman,serif" font-weight="bold" font-size="14.00">Indo&#45;</text>
<text text-anchor="start" x="128" y="-499.8" font-family="Times New Roman,serif" font-weight="bold" font-size="14.00">European</text>
<text text-anchor="start" x="141.5" y="-485.8" font-family="Times New Roman,serif" font-size="14.00" fill="red">*kleu&#45;</text>
<text text-anchor="start" x="142.5" y="-473.4" font-family="Times New Roman,serif" font-size="12.00">to hear</text>
</a>
</g>
</g>
<!-- hlutOHG -->
<g id="node18" class="node">
<title>hlutOHG</title>
<text text-anchor="start" x="130.5" y="-415.8" font-family="Times New Roman,serif" font-weight="bold" font-size="14.00">Old High</text>
<text text-anchor="start" x="133" y="-401.8" font-family="Times New Roman,serif" font-weight="bold" font-size="14.00">German</text>
<text text-anchor="start" x="148" y="-387.8" font-family="Times New Roman,serif" font-size="14.00" fill="red">hlūt</text>
<text text-anchor="start" x="144.5" y="-375.4" font-family="Times New Roman,serif" font-size="12.00">sound</text>
</g>
<!-- kleuIE&#45;&gt;hlutOHG -->
<g id="edge16" class="edge">
<title>kleuIE&#45;&gt;hlutOHG</title>
<path fill="none" stroke="black" d="M158.5,-465.89C158.5,-457.76 158.5,-448.83 158.5,-440.24"/>
<polygon fill="black" stroke="black" points="162,-440 158.5,-430 155,-440 162,-440"/>
</g>
<!-- lutMHG -->
<g id="node19" class="node">
<title>lutMHG</title>
<text text-anchor="start" x="126.5" y="-317.8" font-family="Times New Roman,serif" font-weight="bold" font-size="14.00">Middle High</text>
<text text-anchor="start" x="139" y="-303.8" font-family="Times New Roman,serif" font-weight="bold" font-size="14.00">German</text>
<text text-anchor="start" x="157.5" y="-289.8" font-family="Times New Roman,serif" font-size="14.00" fill="red">lūt</text>
</g>
<!-- hlutOHG&#45;&gt;lutMHG -->
<g id="edge17" class="edge">
<title>hlutOHG&#45;&gt;lutMHG</title>
<path fill="none" stroke="black" d="M160.53,-367.53C161.07,-359.43 161.66,-350.62 162.21,-342.32"/>
<polygon fill="black" stroke="black" points="165.71,-342.4 162.89,-332.18 158.73,-341.93 165.71,-342.4"/>
</g>
<!-- lautGm -->
<g id="node20" class="node">
<title>lautGm</title>
<text text-anchor="start" x="254" y="-218.8" font-family="Times New Roman,serif" font-weight="bold" font-size="14.00">German</text>
<text text-anchor="start" x="267" y="-204.8" font-family="Times New Roman,serif" font-size="14.00" fill="red">Laut</text>
</g>
<!-- lutMHG&#45;&gt;lautGm -->
<g id="edge18" class="edge">
<title>lutMHG&#45;&gt;lautGm</title>
<path fill="none" stroke="black" d="M195.32,-281.88C212.09,-268.76 232.75,-252.59 249.41,-239.55"/>
<polygon fill="black" stroke="black" points="251.99,-241.97 257.71,-233.05 247.68,-236.46 251.99,-241.97"/>
</g>
<!-- lautGm&#45;&gt;ablautGm -->
<g id="edge20" class="edge">
<title>lautGm&#45;&gt;ablautGm</title>
<path fill="none" stroke="black" d="M294.7,-196.84C307.99,-181.82 327.47,-159.82 342.48,-142.87"/>
<polygon fill="black" stroke="black" points="345.43,-144.82 349.44,-135.01 340.19,-140.18 345.43,-144.82"/>
</g>
<!-- ablaut -->
<g id="node22" class="node">
<title>ablaut</title>
<text text-anchor="start" x="340" y="-35.8" font-family="Times New Roman,serif" font-weight="bold" font-size="14.00">Modern</text>
<text text-anchor="start" x="341.5" y="-21.8" font-family="Times New Roman,serif" font-weight="bold" font-size="14.00">English</text>
<text text-anchor="start" x="347.5" y="-7.8" font-family="Times New Roman,serif" font-size="14.00" fill="red">ablaut</text>
</g>
<!-- ablautGm&#45;&gt;ablaut -->
<g id="edge21" class="edge">
<title>ablautGm&#45;&gt;ablaut</title>
<path fill="none" stroke="black" stroke-dasharray="5,2" d="M364.5,-98.65C364.5,-87.76 364.5,-73.36 364.5,-60.25"/>
<polygon fill="black" stroke="black" points="368,-60.1 364.5,-50.1 361,-60.1 368,-60.1"/>
</g>
<!-- afteME -->
<g id="node24" class="node">
<title>afteME</title>
<text text-anchor="start" x="523" y="-133.8" font-family="Times New Roman,serif" font-weight="bold" font-size="14.00">Middle</text>
<text text-anchor="start" x="521.5" y="-119.8" font-family="Times New Roman,serif" font-weight="bold" font-size="14.00">English</text>
<text text-anchor="start" x="534" y="-105.8" font-family="Times New Roman,serif" font-size="14.00" fill="red">afte</text>
<text text-anchor="start" x="533" y="-93.4" font-family="Times New Roman,serif" font-size="12.00">back</text>
</g>
<!-- aeftanOE&#45;&gt;afteME -->
<g id="edge23" class="edge">
<title>aeftanOE&#45;&gt;afteME</title>
<path fill="none" stroke="black" d="M561,-374.61C557.93,-326.87 550.91,-217.74 547.09,-158.33"/>
<polygon fill="black" stroke="black" points="550.58,-157.95 546.44,-148.19 543.59,-158.4 550.58,-157.95"/>
</g>
<!-- beaeftanOE -->
<g id="node28" class="node">
<title>beaeftanOE</title>
<text text-anchor="start" x="647" y="-309.8" font-family="Times New Roman,serif" font-size="14.00" fill="red">beæftan</text>
<text text-anchor="start" x="654" y="-297.4" font-family="Times New Roman,serif" font-size="12.00">behind</text>
</g>
<!-- aeftanOE&#45;&gt;beaeftanOE -->
<g id="edge26" class="edge">
<title>aeftanOE&#45;&gt;beaeftanOE</title>
<path fill="none" stroke="black" d="M590.06,-374.82C605.77,-361.61 625.42,-345.08 641.25,-331.76"/>
<polygon fill="black" stroke="black" points="643.74,-334.24 649.14,-325.13 639.23,-328.89 643.74,-334.24"/>
</g>
<!-- aft -->
<g id="node25" class="node">
<title>aft</title>
<text text-anchor="start" x="520" y="-35.8" font-family="Times New Roman,serif" font-weight="bold" font-size="14.00">Modern</text>
<text text-anchor="start" x="521.5" y="-21.8" font-family="Times New Roman,serif" font-weight="bold" font-size="14.00">English</text>
<text text-anchor="start" x="537" y="-7.8" font-family="Times New Roman,serif" font-size="14.00" fill="red">aft</text>
</g>
<!-- afteME&#45;&gt;aft -->
<g id="edge24" class="edge">
<title>afteME&#45;&gt;aft</title>
<path fill="none" stroke="black" d="M544.5,-85.53C544.5,-77.43 544.5,-68.62 544.5,-60.32"/>
<polygon fill="black" stroke="black" points="548,-60.18 544.5,-50.18 541,-60.18 548,-60.18"/>
</g>
<!-- ambhiIE -->
<g id="node26" class="node">
<title>ambhiIE</title>
<g id="a_node26"><a xlink:href="ambhi-around.svg" xlink:title="&lt;b&gt;Indo&#45;&lt;br/&gt;European&lt;/b&gt;&lt;br/&gt;&lt;font color=&quot;red&quot;&gt;*ambhi, *m̥bhi&lt;/font&gt;&lt;br/&gt;&lt;font point&#45;size=&quot;12&quot;&gt;around&lt;/font&gt;">
<path fill="none" stroke="black" stroke-dasharray="5,2" d="M689,-528C689,-528 614,-528 614,-528 608,-528 602,-522 602,-516 602,-516 602,-478 602,-478 602,-472 608,-466 614,-466 614,-466 689,-466 689,-466 695,-466 701,-472 701,-478 701,-478 701,-516 701,-516 701,-522 695,-528 689,-528"/>
<text text-anchor="start" x="635" y="-513.8" font-family="Times New Roman,serif" font-weight="bold" font-size="14.00">Indo&#45;</text>
<text text-anchor="start" x="621" y="-499.8" font-family="Times New Roman,serif" font-weight="bold" font-size="14.00">European</text>
<text text-anchor="start" x="610" y="-485.8" font-family="Times New Roman,serif" font-size="14.00" fill="red">*ambhi, *m̥bhi</text>
<text text-anchor="start" x="635.5" y="-473.4" font-family="Times New Roman,serif" font-size="12.00">around</text>
</a>
</g>
</g>
<!-- beOE -->
<g id="node27" class="node">
<title>beOE</title>
<text text-anchor="start" x="633" y="-408.8" font-family="Times New Roman,serif" font-weight="bold" font-size="14.00">Old English</text>
<text text-anchor="start" x="662.5" y="-394.8" font-family="Times New Roman,serif" font-size="14.00" fill="red">be</text>
<text text-anchor="start" x="656.5" y="-382.4" font-family="Times New Roman,serif" font-size="12.00">by, at</text>
</g>
<!-- ambhiIE&#45;&gt;beOE -->
<g id="edge25" class="edge">
<title>ambhiIE&#45;&gt;beOE</title>
<path fill="none" stroke="black" d="M657.15,-465.89C659.08,-455.58 661.25,-443.98 663.23,-433.43"/>
<polygon fill="black" stroke="black" points="666.73,-433.78 665.13,-423.3 659.85,-432.49 666.73,-433.78"/>
</g>
<!-- beOE&#45;&gt;beaeftanOE -->
<g id="edge27" class="edge">
<title>beOE&#45;&gt;beaeftanOE</title>
<path fill="none" stroke="black" d="M669.5,-374.82C669.5,-362.82 669.5,-348.08 669.5,-335.5"/>
<polygon fill="black" stroke="black" points="673,-335.13 669.5,-325.13 666,-335.13 673,-335.13"/>
</g>
<!-- baftME -->
<g id="node29" class="node">
<title>baftME</title>
<text text-anchor="start" x="663" y="-231.8" font-family="Times New Roman,serif" font-weight="bold" font-size="14.00">Middle</text>
<text text-anchor="start" x="661.5" y="-217.8" font-family="Times New Roman,serif" font-weight="bold" font-size="14.00">English</text>
<text text-anchor="start" x="673.5" y="-203.8" font-family="Times New Roman,serif" font-size="14.00" fill="red">baft</text>
<text text-anchor="start" x="661" y="-191.4" font-family="Times New Roman,serif" font-size="12.00">to the rear</text>
</g>
<!-- beaeftanOE&#45;&gt;baftME -->
<g id="edge28" class="edge">
<title>beaeftanOE&#45;&gt;baftME</title>
<path fill="none" stroke="black" d="M672.39,-288.65C673.95,-279.32 675.93,-267.41 677.84,-255.95"/>
<polygon fill="black" stroke="black" points="681.3,-256.5 679.49,-246.06 674.39,-255.35 681.3,-256.5"/>
</g>
<!-- onbaftME -->
<g id="node31" class="node">
<title>onbaftME</title>
<text text-anchor="start" x="628.5" y="-113.3" font-family="Times New Roman,serif" font-size="14.00" fill="red">on baft</text>
</g>
<!-- baftME&#45;&gt;onbaftME -->
<g id="edge29" class="edge">
<title>baftME&#45;&gt;onbaftME</title>
<path fill="none" stroke="black" d="M673.21,-183.89C668.5,-171.34 663.09,-156.9 658.53,-144.74"/>
<polygon fill="black" stroke="black" points="661.72,-143.28 654.93,-135.15 655.16,-145.74 661.72,-143.28"/>
</g>
<!-- onME -->
<g id="node30" class="node">
<title>onME</title>
<text text-anchor="start" x="582" y="-231.8" font-family="Times New Roman,serif" font-weight="bold" font-size="14.00">Middle</text>
<text text-anchor="start" x="580.5" y="-217.8" font-family="Times New Roman,serif" font-weight="bold" font-size="14.00">English</text>
<text text-anchor="start" x="596" y="-203.8" font-family="Times New Roman,serif" font-size="14.00" fill="red">on</text>
<text text-anchor="start" x="599" y="-191.4" font-family="Times New Roman,serif" font-size="12.00">at</text>
</g>
<!-- onME&#45;&gt;onbaftME -->
<g id="edge30" class="edge">
<title>onME&#45;&gt;onbaftME</title>
<path fill="none" stroke="black" d="M617.61,-183.89C623.55,-171.22 630.4,-156.61 636.14,-144.37"/>
<polygon fill="black" stroke="black" points="639.39,-145.69 640.46,-135.15 633.05,-142.72 639.39,-145.69"/>
</g>
<!-- abaft -->
<g id="node32" class="node">
<title>abaft</title>
<text text-anchor="start" x="624" y="-35.8" font-family="Times New Roman,serif" font-weight="bold" font-size="14.00">Modern</text>
<text text-anchor="start" x="625.5" y="-21.8" font-family="Times New Roman,serif" font-weight="bold" font-size="14.00">English</text>
<text text-anchor="start" x="634.5" y="-7.8" font-family="Times New Roman,serif" font-size="14.00" fill="red">abaft</text>
</g>
<!-- onbaftME&#45;&gt;abaft -->
<g id="edge31" class="edge">
<title>onbaftME&#45;&gt;abaft</title>
<path fill="none" stroke="black" d="M648.5,-98.65C648.5,-87.76 648.5,-73.36 648.5,-60.25"/>
<polygon fill="black" stroke="black" points="652,-60.1 648.5,-50.1 645,-60.1 652,-60.1"/>
</g>
<!-- ab -->
<g id="node34" class="node">
<title>ab</title>
<text text-anchor="start" x="727" y="-35.8" font-family="Times New Roman,serif" font-weight="bold" font-size="14.00">Modern</text>
<text text-anchor="start" x="728.5" y="-21.8" font-family="Times New Roman,serif" font-weight="bold" font-size="14.00">English</text>
<text text-anchor="start" x="742" y="-7.8" font-family="Times New Roman,serif" font-size="14.00" fill="red">ab&#45;</text>
</g>
<!-- abL&#45;&gt;ab -->
<g id="edge33" class="edge">
<title>abL&#45;&gt;ab</title>
<path fill="none" stroke="black" stroke-dasharray="5,2" d="M751.5,-472.85C751.5,-437.36 751.5,-367.4 751.5,-308 751.5,-308 751.5,-308 751.5,-214 751.5,-160.38 751.5,-98.16 751.5,-60.45"/>
<polygon fill="black" stroke="black" points="755,-60.04 751.5,-50.04 748,-60.04 755,-60.04"/>
</g>
<!-- apo -->
<g id="node36" class="node">
<title>apo</title>
<text text-anchor="start" x="8" y="-35.8" font-family="Times New Roman,serif" font-weight="bold" font-size="14.00">Modern</text>
<text text-anchor="start" x="9.5" y="-21.8" font-family="Times New Roman,serif" font-weight="bold" font-size="14.00">English</text>
<text text-anchor="start" x="19.5" y="-7.8" font-family="Times New Roman,serif" font-size="14.00" fill="red">apo&#45;</text>
</g>
<!-- apoG&#45;&gt;apo -->
<g id="edge35" class="edge">
<title>apoG&#45;&gt;apo</title>
<path fill="none" stroke="black" stroke-dasharray="5,2" d="M42.87,-472.88C39.07,-437.45 32.5,-367.54 32.5,-308 32.5,-308 32.5,-308 32.5,-214 32.5,-160.38 32.5,-98.16 32.5,-60.45"/>
<polygon fill="black" stroke="black" points="36,-60.04 32.5,-50.04 29,-60.04 36,-60.04"/>
</g>
</g>
</svg>
