<?xml version="1.0" encoding="UTF-8" standalone="no"?>
<!DOCTYPE svg PUBLIC "-//W3C//DTD SVG 1.1//EN"
 "http://www.w3.org/Graphics/SVG/1.1/DTD/svg11.dtd">
<!-- Generated by graphviz version 2.49.0 (20210828.1703)
 -->
<!-- Pages: 1 -->
<svg width="1392pt" height="546pt"
 viewBox="0.00 0.00 1392.00 546.00" xmlns="http://www.w3.org/2000/svg" xmlns:xlink="http://www.w3.org/1999/xlink">
<g id="graph0" class="graph" transform="scale(1 1) rotate(0) translate(4 542)">
<polygon fill="white" stroke="transparent" points="-4,4 -4,-542 1388,-542 1388,4 -4,4"/>
<!-- apoIE -->
<g id="node1" class="node">
<title>apoIE</title>
<g id="a_node1"><a xlink:href="apo-off2.svg" xlink:title="Indo&#45;European &quot;*apo&#45;, *ap&#45;&quot; off, away">
<polygon fill="none" stroke="black" stroke-dasharray="5,2" points="786.5,-538 575.5,-538 575.5,-434 786.5,-434 786.5,-538"/>
<text text-anchor="start" x="603" y="-493.8" font-family="Times New Roman,serif" font-weight="bold" font-size="24.00">Indo&#45;European</text>
<text text-anchor="start" x="605" y="-465.6" font-family="Times New Roman,serif" font-size="18.00" fill="red">*apo&#45;, *ap&#45;</text>
<text text-anchor="start" x="700" y="-466.2" font-family="Times New Roman,serif" font-size="16.00">off, away</text>
</a>
</g>
</g>
<!-- posIE -->
<g id="node2" class="node">
<title>posIE</title>
<text text-anchor="start" x="662.5" y="-363.8" font-family="Times New Roman,serif" font-size="14.00" fill="red">*po(s)</text>
<text text-anchor="start" x="668.5" y="-351.4" font-family="Times New Roman,serif" font-size="12.00">on, in</text>
</g>
<!-- apoIE&#45;&gt;posIE -->
<g id="edge1" class="edge">
<title>apoIE&#45;&gt;posIE</title>
<path fill="none" stroke="black" d="M681,-433.91C681,-418.64 681,-402.5 681,-389.38"/>
<polygon fill="black" stroke="black" points="684.5,-389.16 681,-379.16 677.5,-389.16 684.5,-389.16"/>
</g>
<!-- ponereL -->
<g id="node3" class="node">
<title>ponereL</title>
<text text-anchor="start" x="664.5" y="-267.8" font-family="Times New Roman,serif" font-weight="bold" font-size="14.00">Latin</text>
<text text-anchor="start" x="661.5" y="-253.8" font-family="Times New Roman,serif" font-size="14.00" fill="red">pōnere</text>
<text text-anchor="start" x="652.5" y="-241.4" font-family="Times New Roman,serif" font-size="12.00">to put, place</text>
</g>
<!-- posIE&#45;&gt;ponereL -->
<g id="edge2" class="edge">
<title>posIE&#45;&gt;ponereL</title>
<path fill="none" stroke="black" d="M681,-342.87C681,-329.07 681,-309.26 681,-292.36"/>
<polygon fill="black" stroke="black" points="684.5,-292.29 681,-282.29 677.5,-292.29 684.5,-292.29"/>
</g>
<!-- post -->
<g id="node4" class="node">
<title>post</title>
<text text-anchor="start" x="594.5" y="-105.8" font-family="Times New Roman,serif" font-weight="bold" font-size="14.00">Modern</text>
<text text-anchor="start" x="596" y="-91.8" font-family="Times New Roman,serif" font-weight="bold" font-size="14.00">English</text>
<text text-anchor="start" x="596" y="-77.8" font-family="Times New Roman,serif" font-size="14.00" fill="red">position</text>
<text text-anchor="start" x="597" y="-63.8" font-family="Times New Roman,serif" font-size="14.00" fill="red">positive</text>
<text text-anchor="start" x="590" y="-49.8" font-family="Times New Roman,serif" font-size="14.00" fill="red">post </text>
<text text-anchor="start" x="619" y="-49.8" font-family="Times New Roman,serif" font-size="12.00">(base)</text>
<text text-anchor="start" x="591.5" y="-35.8" font-family="Times New Roman,serif" font-size="14.00" fill="red">post </text>
<text text-anchor="start" x="620.5" y="-35.8" font-family="Times New Roman,serif" font-size="12.00">(mail)</text>
<text text-anchor="start" x="597.5" y="-21.8" font-family="Times New Roman,serif" font-size="14.00" fill="red">posture</text>
<text text-anchor="start" x="584.5" y="-7.8" font-family="Times New Roman,serif" font-size="14.00" fill="red">punt </text>
<text text-anchor="start" x="613.5" y="-7.8" font-family="Times New Roman,serif" font-size="12.00">(gamble)</text>
</g>
<!-- ponereL&#45;&gt;post -->
<g id="edge3" class="edge">
<title>ponereL&#45;&gt;post</title>
<path fill="none" stroke="black" stroke-dasharray="5,2" d="M661.94,-233.7C653.27,-221.89 643.69,-206.92 638,-192 630.61,-172.62 626.07,-150.62 623.29,-130.26"/>
<polygon fill="black" stroke="black" points="626.73,-129.59 622.02,-120.1 619.79,-130.46 626.73,-129.59"/>
</g>
<!-- apponereL -->
<g id="node5" class="node">
<title>apponereL</title>
<text text-anchor="start" x="339" y="-176.8" font-family="Times New Roman,serif" font-size="14.00" fill="red">appōnere</text>
<text text-anchor="start" x="340.5" y="-164.4" font-family="Times New Roman,serif" font-size="12.00">to put near</text>
</g>
<!-- ponereL&#45;&gt;apponereL -->
<g id="edge4" class="edge">
<title>ponereL&#45;&gt;apponereL</title>
<path fill="none" stroke="black" d="M644.16,-249.08C592.56,-237.73 496.01,-215.62 415,-192 412.89,-191.38 410.74,-190.74 408.57,-190.06"/>
<polygon fill="black" stroke="black" points="409.62,-186.73 399.03,-187.02 407.49,-193.4 409.62,-186.73"/>
</g>
<!-- componereL -->
<g id="node9" class="node">
<title>componereL</title>
<text text-anchor="start" x="121" y="-176.8" font-family="Times New Roman,serif" font-size="14.00" fill="red">compōnere</text>
<text text-anchor="start" x="119.5" y="-164.4" font-family="Times New Roman,serif" font-size="12.00">to put together</text>
</g>
<!-- ponereL&#45;&gt;componereL -->
<g id="edge7" class="edge">
<title>ponereL&#45;&gt;componereL</title>
<path fill="none" stroke="black" d="M644.5,-253.1C566.52,-244.49 378.06,-222.19 222,-192 216.34,-190.9 210.44,-189.64 204.58,-188.31"/>
<polygon fill="black" stroke="black" points="205.35,-184.89 194.81,-186.02 203.75,-191.71 205.35,-184.89"/>
</g>
<!-- contraponereL -->
<g id="node12" class="node">
<title>contraponereL</title>
<text text-anchor="start" x="11" y="-176.8" font-family="Times New Roman,serif" font-size="14.00" fill="red">contrāpōnere</text>
<text text-anchor="start" x="14.5" y="-164.4" font-family="Times New Roman,serif" font-size="12.00">to set opposite</text>
</g>
<!-- ponereL&#45;&gt;contraponereL -->
<g id="edge11" class="edge">
<title>ponereL&#45;&gt;contraponereL</title>
<path fill="none" stroke="black" d="M644.36,-255.35C553.73,-250.73 311.85,-235.24 103.12,-192.01"/>
<polygon fill="black" stroke="black" points="103.71,-188.56 93.2,-189.93 102.27,-195.41 103.71,-188.56"/>
</g>
<!-- deponereL -->
<g id="node14" class="node">
<title>deponereL</title>
<text text-anchor="start" x="434" y="-176.8" font-family="Times New Roman,serif" font-size="14.00" fill="red">dēpōnere</text>
<text text-anchor="start" x="432.5" y="-164.4" font-family="Times New Roman,serif" font-size="12.00">to put down</text>
</g>
<!-- ponereL&#45;&gt;deponereL -->
<g id="edge14" class="edge">
<title>ponereL&#45;&gt;deponereL</title>
<path fill="none" stroke="black" d="M644.01,-243.28C605.79,-229.09 546.09,-206.94 505.12,-191.74"/>
<polygon fill="black" stroke="black" points="506.24,-188.42 495.65,-188.23 503.8,-194.99 506.24,-188.42"/>
</g>
<!-- disponereL -->
<g id="node16" class="node">
<title>disponereL</title>
<text text-anchor="start" x="525.5" y="-176.8" font-family="Times New Roman,serif" font-size="14.00" fill="red">dispōnere</text>
<text text-anchor="start" x="530" y="-164.4" font-family="Times New Roman,serif" font-size="12.00">to arrange</text>
</g>
<!-- ponereL&#45;&gt;disponereL -->
<g id="edge16" class="edge">
<title>ponereL&#45;&gt;disponereL</title>
<path fill="none" stroke="black" d="M645,-233.94C627.37,-222.65 606.21,-209.09 588.63,-197.82"/>
<polygon fill="black" stroke="black" points="590.11,-194.62 579.8,-192.17 586.33,-200.51 590.11,-194.62"/>
</g>
<!-- exponereL -->
<g id="node20" class="node">
<title>exponereL</title>
<text text-anchor="start" x="239" y="-176.8" font-family="Times New Roman,serif" font-size="14.00" fill="red">expōnere</text>
<text text-anchor="start" x="239" y="-164.4" font-family="Times New Roman,serif" font-size="12.00">to expound</text>
</g>
<!-- ponereL&#45;&gt;exponereL -->
<g id="edge19" class="edge">
<title>ponereL&#45;&gt;exponereL</title>
<path fill="none" stroke="black" d="M644.29,-251.73C578.99,-242.05 438.59,-219.85 322,-192 317.82,-191 313.49,-189.88 309.17,-188.7"/>
<polygon fill="black" stroke="black" points="309.77,-185.23 299.2,-185.87 307.86,-191.96 309.77,-185.23"/>
</g>
<!-- imponereL -->
<g id="node24" class="node">
<title>imponereL</title>
<text text-anchor="start" x="848" y="-176.8" font-family="Times New Roman,serif" font-size="14.00" fill="red">impōnere</text>
<text text-anchor="start" x="843" y="-164.4" font-family="Times New Roman,serif" font-size="12.00">to place upon</text>
</g>
<!-- ponereL&#45;&gt;imponereL -->
<g id="edge23" class="edge">
<title>ponereL&#45;&gt;imponereL</title>
<path fill="none" stroke="black" d="M717.52,-239.86C726.17,-235.89 735.38,-231.74 744,-228 770.75,-216.4 800.88,-204.07 825.4,-194.22"/>
<polygon fill="black" stroke="black" points="826.86,-197.4 834.85,-190.44 824.26,-190.91 826.86,-197.4"/>
</g>
<!-- interponereL -->
<g id="node27" class="node">
<title>interponereL</title>
<text text-anchor="start" x="743.5" y="-176.8" font-family="Times New Roman,serif" font-size="14.00" fill="red">interpōnere</text>
<text text-anchor="start" x="741" y="-164.4" font-family="Times New Roman,serif" font-size="12.00">to put between</text>
</g>
<!-- ponereL&#45;&gt;interponereL -->
<g id="edge27" class="edge">
<title>ponereL&#45;&gt;interponereL</title>
<path fill="none" stroke="black" d="M707.43,-233.94C720.03,-222.96 735.07,-209.83 747.76,-198.76"/>
<polygon fill="black" stroke="black" points="750.08,-201.38 755.32,-192.17 745.48,-196.1 750.08,-201.38"/>
</g>
<!-- opponereL -->
<g id="node31" class="node">
<title>opponereL</title>
<text text-anchor="start" x="939" y="-176.8" font-family="Times New Roman,serif" font-size="14.00" fill="red">oppōnere</text>
<text text-anchor="start" x="943" y="-164.4" font-family="Times New Roman,serif" font-size="12.00">to oppose</text>
</g>
<!-- ponereL&#45;&gt;opponereL -->
<g id="edge31" class="edge">
<title>ponereL&#45;&gt;opponereL</title>
<path fill="none" stroke="black" d="M717.74,-238.36C726.21,-234.55 735.3,-230.84 744,-228 817.73,-203.94 842.58,-213.77 920.82,-192.06"/>
<polygon fill="black" stroke="black" points="921.98,-195.37 930.64,-189.26 920.06,-188.64 921.98,-195.37"/>
</g>
<!-- praeponereL -->
<g id="node35" class="node">
<title>praeponereL</title>
<text text-anchor="start" x="1119.5" y="-176.8" font-family="Times New Roman,serif" font-size="14.00" fill="red">praepōnere</text>
<text text-anchor="start" x="1120.5" y="-164.4" font-family="Times New Roman,serif" font-size="12.00">to put in front</text>
</g>
<!-- ponereL&#45;&gt;praeponereL -->
<g id="edge35" class="edge">
<title>ponereL&#45;&gt;praeponereL</title>
<path fill="none" stroke="black" d="M717.54,-237.72C726.03,-233.94 735.17,-230.4 744,-228 895.13,-186.85 943.84,-224.82 1101.34,-191.79"/>
<polygon fill="black" stroke="black" points="1102.34,-195.15 1111.38,-189.62 1100.86,-188.31 1102.34,-195.15"/>
</g>
<!-- proponereL -->
<g id="node38" class="node">
<title>proponereL</title>
<text text-anchor="start" x="1027" y="-176.8" font-family="Times New Roman,serif" font-size="14.00" fill="red">prōpōnere</text>
<text text-anchor="start" x="1031.5" y="-164.4" font-family="Times New Roman,serif" font-size="12.00">to set forth</text>
</g>
<!-- ponereL&#45;&gt;proponereL -->
<g id="edge39" class="edge">
<title>ponereL&#45;&gt;proponereL</title>
<path fill="none" stroke="black" d="M717.61,-237.94C726.09,-234.15 735.21,-230.55 744,-228 855.42,-195.6 892.23,-219.47 1008.79,-191.97"/>
<polygon fill="black" stroke="black" points="1009.92,-195.29 1018.81,-189.52 1008.26,-188.49 1009.92,-195.29"/>
</g>
<!-- reponereL -->
<g id="node40" class="node">
<title>reponereL</title>
<text text-anchor="start" x="656.5" y="-176.8" font-family="Times New Roman,serif" font-size="14.00" fill="red">repōnere</text>
<text text-anchor="start" x="655" y="-164.4" font-family="Times New Roman,serif" font-size="12.00">to put back</text>
</g>
<!-- ponereL&#45;&gt;reponereL -->
<g id="edge42" class="edge">
<title>ponereL&#45;&gt;reponereL</title>
<path fill="none" stroke="black" d="M681,-233.72C681,-223.88 681,-212.36 681,-202.13"/>
<polygon fill="black" stroke="black" points="684.5,-202.08 681,-192.08 677.5,-202.08 684.5,-202.08"/>
</g>
<!-- supponereL -->
<g id="node44" class="node">
<title>supponereL</title>
<text text-anchor="start" x="1216.5" y="-176.8" font-family="Times New Roman,serif" font-size="14.00" fill="red">suppōnere</text>
<text text-anchor="start" x="1218.5" y="-164.4" font-family="Times New Roman,serif" font-size="12.00">to put under</text>
</g>
<!-- ponereL&#45;&gt;supponereL -->
<g id="edge45" class="edge">
<title>ponereL&#45;&gt;supponereL</title>
<path fill="none" stroke="black" d="M717.51,-237.58C726,-233.8 735.15,-230.31 744,-228 937.12,-177.62 998.75,-233.04 1198.37,-191.73"/>
<polygon fill="black" stroke="black" points="1199.24,-195.13 1208.29,-189.62 1197.78,-188.28 1199.24,-195.13"/>
</g>
<!-- transponereL -->
<g id="node48" class="node">
<title>transponereL</title>
<text text-anchor="start" x="1310" y="-176.8" font-family="Times New Roman,serif" font-size="14.00" fill="red">trānspōnere</text>
<text text-anchor="start" x="1320" y="-164.4" font-family="Times New Roman,serif" font-size="12.00">to transfer</text>
</g>
<!-- ponereL&#45;&gt;transponereL -->
<g id="edge49" class="edge">
<title>ponereL&#45;&gt;transponereL</title>
<path fill="none" stroke="black" d="M717.82,-237.34C726.22,-233.63 735.25,-230.22 744,-228 980.58,-167.97 1052.48,-238.98 1292,-192 1292.1,-191.98 1292.2,-191.96 1292.3,-191.94"/>
<polygon fill="black" stroke="black" points="1292.83,-195.41 1301.77,-189.73 1291.23,-188.6 1292.83,-195.41"/>
</g>
<!-- apposite -->
<g id="node6" class="node">
<title>apposite</title>
<text text-anchor="start" x="313.5" y="-84.8" font-family="Times New Roman,serif" font-weight="bold" font-size="14.00">Modern</text>
<text text-anchor="start" x="315" y="-70.8" font-family="Times New Roman,serif" font-weight="bold" font-size="14.00">English</text>
<text text-anchor="start" x="314" y="-56.8" font-family="Times New Roman,serif" font-size="14.00" fill="red">apposite</text>
<text text-anchor="start" x="308.5" y="-42.8" font-family="Times New Roman,serif" font-size="14.00" fill="red">apposition</text>
<text text-anchor="start" x="314" y="-28.8" font-family="Times New Roman,serif" font-size="14.00" fill="red">postiche</text>
</g>
<!-- apponereL&#45;&gt;apposite -->
<g id="edge5" class="edge">
<title>apponereL&#45;&gt;apposite</title>
<path fill="none" stroke="black" stroke-dasharray="5,2" d="M360.9,-155.99C357.87,-143.41 353.57,-125.61 349.53,-108.81"/>
<polygon fill="black" stroke="black" points="352.93,-107.99 347.18,-99.09 346.12,-109.63 352.93,-107.99"/>
</g>
<!-- komIE -->
<g id="node7" class="node">
<title>komIE</title>
<g id="a_node7"><a xlink:href="kom-with.svg" xlink:title="&lt;b&gt;Indo&#45;&lt;br/&gt;European&lt;/b&gt;&lt;br/&gt;&lt;font color=&quot;red&quot;&gt;*kom&lt;/font&gt;&lt;br/&gt;&lt;font point&#45;size=&quot;12&quot;&gt;with&lt;/font&gt;">
<path fill="none" stroke="black" stroke-dasharray="5,2" d="M160.5,-392C160.5,-392 107.5,-392 107.5,-392 101.5,-392 95.5,-386 95.5,-380 95.5,-380 95.5,-342 95.5,-342 95.5,-336 101.5,-330 107.5,-330 107.5,-330 160.5,-330 160.5,-330 166.5,-330 172.5,-336 172.5,-342 172.5,-342 172.5,-380 172.5,-380 172.5,-386 166.5,-392 160.5,-392"/>
<text text-anchor="start" x="117.5" y="-377.8" font-family="Times New Roman,serif" font-weight="bold" font-size="14.00">Indo&#45;</text>
<text text-anchor="start" x="103.5" y="-363.8" font-family="Times New Roman,serif" font-weight="bold" font-size="14.00">European</text>
<text text-anchor="start" x="118" y="-349.8" font-family="Times New Roman,serif" font-size="14.00" fill="red">*kom</text>
<text text-anchor="start" x="124.5" y="-337.4" font-family="Times New Roman,serif" font-size="12.00">with</text>
</a>
</g>
</g>
<!-- comL -->
<g id="node8" class="node">
<title>comL</title>
<text text-anchor="start" x="136.5" y="-261.8" font-family="Times New Roman,serif" font-weight="bold" font-size="14.00">Latin</text>
<text text-anchor="start" x="138" y="-247.8" font-family="Times New Roman,serif" font-size="14.00" fill="red">com&#45;</text>
</g>
<!-- komIE&#45;&gt;comL -->
<g id="edge6" class="edge">
<title>komIE&#45;&gt;comL</title>
<path fill="none" stroke="black" d="M139.65,-329.97C142.26,-316.11 145.33,-299.78 147.87,-286.28"/>
<polygon fill="black" stroke="black" points="151.36,-286.64 149.77,-276.16 144.48,-285.34 151.36,-286.64"/>
</g>
<!-- contraL -->
<g id="node11" class="node">
<title>contraL</title>
<text text-anchor="start" x="47.5" y="-267.8" font-family="Times New Roman,serif" font-weight="bold" font-size="14.00">Latin</text>
<text text-anchor="start" x="44" y="-253.8" font-family="Times New Roman,serif" font-size="14.00" fill="red">contrā&#45;</text>
<text text-anchor="start" x="48.5" y="-241.4" font-family="Times New Roman,serif" font-size="12.00">against</text>
</g>
<!-- komIE&#45;&gt;contraL -->
<g id="edge10" class="edge">
<title>komIE&#45;&gt;contraL</title>
<path fill="none" stroke="black" d="M113.19,-329.97C104.54,-317.5 94.51,-303.02 85.77,-290.4"/>
<polygon fill="black" stroke="black" points="88.53,-288.24 79.95,-282.02 82.77,-292.23 88.53,-288.24"/>
</g>
<!-- comL&#45;&gt;componereL -->
<g id="edge8" class="edge">
<title>comL&#45;&gt;componereL</title>
<path fill="none" stroke="black" d="M153,-239.61C153,-228.77 153,-214.6 153,-202.29"/>
<polygon fill="black" stroke="black" points="156.5,-202.08 153,-192.08 149.5,-202.08 156.5,-202.08"/>
</g>
<!-- component -->
<g id="node10" class="node">
<title>component</title>
<text text-anchor="start" x="125.5" y="-105.8" font-family="Times New Roman,serif" font-weight="bold" font-size="14.00">Modern</text>
<text text-anchor="start" x="127" y="-91.8" font-family="Times New Roman,serif" font-weight="bold" font-size="14.00">English</text>
<text text-anchor="start" x="118" y="-77.8" font-family="Times New Roman,serif" font-size="14.00" fill="red">component</text>
<text text-anchor="start" x="124" y="-63.8" font-family="Times New Roman,serif" font-size="14.00" fill="red">compose</text>
<text text-anchor="start" x="120.5" y="-49.8" font-family="Times New Roman,serif" font-size="14.00" fill="red">composite</text>
<text text-anchor="start" x="125" y="-35.8" font-family="Times New Roman,serif" font-size="14.00" fill="red">compost</text>
<text text-anchor="start" x="125" y="-21.8" font-family="Times New Roman,serif" font-size="14.00" fill="red">compote</text>
<text text-anchor="start" x="119.5" y="-7.8" font-family="Times New Roman,serif" font-size="14.00" fill="red">compound</text>
</g>
<!-- componereL&#45;&gt;component -->
<g id="edge9" class="edge">
<title>componereL&#45;&gt;component</title>
<path fill="none" stroke="black" stroke-dasharray="5,2" d="M152.54,-155.99C152.35,-148.72 152.11,-139.72 151.85,-130.17"/>
<polygon fill="black" stroke="black" points="155.35,-129.98 151.58,-120.07 148.35,-130.16 155.35,-129.98"/>
</g>
<!-- contraL&#45;&gt;contraponereL -->
<g id="edge12" class="edge">
<title>contraL&#45;&gt;contraponereL</title>
<path fill="none" stroke="black" d="M59.46,-233.72C57.54,-223.88 55.29,-212.36 53.29,-202.13"/>
<polygon fill="black" stroke="black" points="56.68,-201.22 51.33,-192.08 49.81,-202.56 56.68,-201.22"/>
</g>
<!-- contrapposto -->
<g id="node13" class="node">
<title>contrapposto</title>
<text text-anchor="start" x="21.5" y="-70.8" font-family="Times New Roman,serif" font-weight="bold" font-size="14.00">Modern</text>
<text text-anchor="start" x="23" y="-56.8" font-family="Times New Roman,serif" font-weight="bold" font-size="14.00">English</text>
<text text-anchor="start" x="8" y="-42.8" font-family="Times New Roman,serif" font-size="14.00" fill="red">contrapposto</text>
</g>
<!-- contraponereL&#45;&gt;contrapposto -->
<g id="edge13" class="edge">
<title>contraponereL&#45;&gt;contrapposto</title>
<path fill="none" stroke="black" stroke-dasharray="5,2" d="M47.7,-155.99C47.41,-139.94 46.97,-115.41 46.61,-95.29"/>
<polygon fill="black" stroke="black" points="50.11,-95.18 46.43,-85.25 43.11,-95.31 50.11,-95.18"/>
</g>
<!-- deposit -->
<g id="node15" class="node">
<title>deposit</title>
<text text-anchor="start" x="403.5" y="-98.8" font-family="Times New Roman,serif" font-weight="bold" font-size="14.00">Modern</text>
<text text-anchor="start" x="405" y="-84.8" font-family="Times New Roman,serif" font-weight="bold" font-size="14.00">English</text>
<text text-anchor="start" x="407" y="-70.8" font-family="Times New Roman,serif" font-size="14.00" fill="red">depone</text>
<text text-anchor="start" x="402" y="-56.8" font-family="Times New Roman,serif" font-size="14.00" fill="red">deponent</text>
<text text-anchor="start" x="407.5" y="-42.8" font-family="Times New Roman,serif" font-size="14.00" fill="red">depose</text>
<text text-anchor="start" x="407" y="-28.8" font-family="Times New Roman,serif" font-size="14.00" fill="red">deposit</text>
<text text-anchor="start" x="411.5" y="-14.8" font-family="Times New Roman,serif" font-size="14.00" fill="red">depot</text>
</g>
<!-- deponereL&#45;&gt;deposit -->
<g id="edge15" class="edge">
<title>deponereL&#45;&gt;deposit</title>
<path fill="none" stroke="black" stroke-dasharray="5,2" d="M455.14,-155.99C452.55,-146.91 449.18,-135.12 445.7,-122.95"/>
<polygon fill="black" stroke="black" points="449.01,-121.81 442.9,-113.15 442.28,-123.73 449.01,-121.81"/>
</g>
<!-- dispose -->
<g id="node17" class="node">
<title>dispose</title>
<text text-anchor="start" x="494.5" y="-77.8" font-family="Times New Roman,serif" font-weight="bold" font-size="14.00">Modern</text>
<text text-anchor="start" x="496" y="-63.8" font-family="Times New Roman,serif" font-weight="bold" font-size="14.00">English</text>
<text text-anchor="start" x="497" y="-49.8" font-family="Times New Roman,serif" font-size="14.00" fill="red">dispose</text>
<text text-anchor="start" x="488" y="-35.8" font-family="Times New Roman,serif" font-size="14.00" fill="red">disposition</text>
</g>
<!-- disponereL&#45;&gt;dispose -->
<g id="edge17" class="edge">
<title>disponereL&#45;&gt;dispose</title>
<path fill="none" stroke="black" stroke-dasharray="5,2" d="M547.84,-155.99C543.49,-141.67 537.09,-120.61 531.43,-101.95"/>
<polygon fill="black" stroke="black" points="534.72,-100.73 528.46,-92.17 528.02,-102.76 534.72,-100.73"/>
</g>
<!-- eghsIE -->
<g id="node18" class="node">
<title>eghsIE</title>
<g id="a_node18"><a xlink:href="eghs-out.svg" xlink:title="&lt;b&gt;Indo&#45;&lt;br/&gt;European&lt;/b&gt;&lt;br/&gt;&lt;font color=&quot;red&quot;&gt;*eghs&lt;/font&gt;&lt;br/&gt;&lt;font point&#45;size=&quot;12&quot;&gt;out&lt;/font&gt;">
<path fill="none" stroke="black" stroke-dasharray="5,2" d="M291.5,-392C291.5,-392 238.5,-392 238.5,-392 232.5,-392 226.5,-386 226.5,-380 226.5,-380 226.5,-342 226.5,-342 226.5,-336 232.5,-330 238.5,-330 238.5,-330 291.5,-330 291.5,-330 297.5,-330 303.5,-336 303.5,-342 303.5,-342 303.5,-380 303.5,-380 303.5,-386 297.5,-392 291.5,-392"/>
<text text-anchor="start" x="248.5" y="-377.8" font-family="Times New Roman,serif" font-weight="bold" font-size="14.00">Indo&#45;</text>
<text text-anchor="start" x="234.5" y="-363.8" font-family="Times New Roman,serif" font-weight="bold" font-size="14.00">European</text>
<text text-anchor="start" x="248.5" y="-349.8" font-family="Times New Roman,serif" font-size="14.00" fill="red">*eghs</text>
<text text-anchor="start" x="257.5" y="-337.4" font-family="Times New Roman,serif" font-size="12.00">out</text>
</a>
</g>
</g>
<!-- exL -->
<g id="node19" class="node">
<title>exL</title>
<text text-anchor="start" x="248.5" y="-261.8" font-family="Times New Roman,serif" font-weight="bold" font-size="14.00">Latin</text>
<text text-anchor="start" x="256" y="-247.8" font-family="Times New Roman,serif" font-size="14.00" fill="red">ex&#45;</text>
</g>
<!-- eghsIE&#45;&gt;exL -->
<g id="edge18" class="edge">
<title>eghsIE&#45;&gt;exL</title>
<path fill="none" stroke="black" d="M265,-329.97C265,-316.11 265,-299.78 265,-286.28"/>
<polygon fill="black" stroke="black" points="268.5,-286.16 265,-276.16 261.5,-286.16 268.5,-286.16"/>
</g>
<!-- exL&#45;&gt;exponereL -->
<g id="edge20" class="edge">
<title>exL&#45;&gt;exponereL</title>
<path fill="none" stroke="black" d="M265,-239.61C265,-228.77 265,-214.6 265,-202.29"/>
<polygon fill="black" stroke="black" points="268.5,-202.08 265,-192.08 261.5,-202.08 268.5,-202.08"/>
</g>
<!-- expound -->
<g id="node21" class="node">
<title>expound</title>
<text text-anchor="start" x="220.5" y="-91.8" font-family="Times New Roman,serif" font-weight="bold" font-size="14.00">Modern</text>
<text text-anchor="start" x="222" y="-77.8" font-family="Times New Roman,serif" font-weight="bold" font-size="14.00">English</text>
<text text-anchor="start" x="219" y="-63.8" font-family="Times New Roman,serif" font-size="14.00" fill="red">exponent</text>
<text text-anchor="start" x="225" y="-49.8" font-family="Times New Roman,serif" font-size="14.00" fill="red">expose</text>
<text text-anchor="start" x="216" y="-35.8" font-family="Times New Roman,serif" font-size="14.00" fill="red">exposition</text>
<text text-anchor="start" x="220.5" y="-21.8" font-family="Times New Roman,serif" font-size="14.00" fill="red">expound</text>
</g>
<!-- exponereL&#45;&gt;expound -->
<g id="edge21" class="edge">
<title>exponereL&#45;&gt;expound</title>
<path fill="none" stroke="black" stroke-dasharray="5,2" d="M261.96,-155.99C260.04,-145.25 257.45,-130.71 254.86,-116.24"/>
<polygon fill="black" stroke="black" points="258.29,-115.51 253.09,-106.28 251.4,-116.74 258.29,-115.51"/>
</g>
<!-- enIE -->
<g id="node22" class="node">
<title>enIE</title>
<text text-anchor="start" x="807.5" y="-377.8" font-family="Times New Roman,serif" font-weight="bold" font-size="14.00">Indo&#45;</text>
<text text-anchor="start" x="793.5" y="-363.8" font-family="Times New Roman,serif" font-weight="bold" font-size="14.00">European</text>
<text text-anchor="start" x="814" y="-349.8" font-family="Times New Roman,serif" font-size="14.00" fill="red">*en</text>
<text text-anchor="start" x="820" y="-337.4" font-family="Times New Roman,serif" font-size="12.00">in</text>
</g>
<!-- inL -->
<g id="node23" class="node">
<title>inL</title>
<g id="a_node23"><a xlink:href="en-in1.svg" xlink:title="&lt;b&gt;Latin&lt;/b&gt;&lt;br/&gt;&lt;font color=&quot;red&quot;&gt;in&#45;&lt;/font&gt;">
<path fill="none" stroke="black" stroke-dasharray="5,2" d="M876,-276C876,-276 846,-276 846,-276 840,-276 834,-270 834,-264 834,-264 834,-252 834,-252 834,-246 840,-240 846,-240 846,-240 876,-240 876,-240 882,-240 888,-246 888,-252 888,-252 888,-264 888,-264 888,-270 882,-276 876,-276"/>
<text text-anchor="start" x="844.5" y="-261.8" font-family="Times New Roman,serif" font-weight="bold" font-size="14.00">Latin</text>
<text text-anchor="start" x="853.5" y="-247.8" font-family="Times New Roman,serif" font-size="14.00" fill="red">in&#45;</text>
</a>
</g>
</g>
<!-- enIE&#45;&gt;inL -->
<g id="edge22" class="edge">
<title>enIE&#45;&gt;inL</title>
<path fill="none" stroke="black" d="M835,-329.97C840.13,-315.98 846.18,-299.46 851.15,-285.88"/>
<polygon fill="black" stroke="black" points="854.56,-286.75 854.71,-276.16 847.99,-284.35 854.56,-286.75"/>
</g>
<!-- interL -->
<g id="node26" class="node">
<title>interL</title>
<g id="a_node26"><a xlink:href="en-in3.svg" xlink:title="&lt;b&gt;Latin&lt;/b&gt;&lt;br/&gt;&lt;font color=&quot;red&quot;&gt;inter&#45;&lt;/font&gt;&lt;br/&gt;&lt;font point&#45;size=&quot;12&quot;&gt;between&lt;/font&gt;">
<path fill="none" stroke="black" stroke-dasharray="5,2" d="M796.5,-282C796.5,-282 765.5,-282 765.5,-282 759.5,-282 753.5,-276 753.5,-270 753.5,-270 753.5,-246 753.5,-246 753.5,-240 759.5,-234 765.5,-234 765.5,-234 796.5,-234 796.5,-234 802.5,-234 808.5,-240 808.5,-246 808.5,-246 808.5,-270 808.5,-270 808.5,-276 802.5,-282 796.5,-282"/>
<text text-anchor="start" x="764.5" y="-267.8" font-family="Times New Roman,serif" font-weight="bold" font-size="14.00">Latin</text>
<text text-anchor="start" x="766.5" y="-253.8" font-family="Times New Roman,serif" font-size="14.00" fill="red">inter&#45;</text>
<text text-anchor="start" x="761.5" y="-241.4" font-family="Times New Roman,serif" font-size="12.00">between</text>
</a>
</g>
</g>
<!-- enIE&#45;&gt;interL -->
<g id="edge26" class="edge">
<title>enIE&#45;&gt;interL</title>
<path fill="none" stroke="black" d="M811.22,-329.97C806.06,-317.86 800.1,-303.85 794.84,-291.5"/>
<polygon fill="black" stroke="black" points="797.94,-289.85 790.8,-282.02 791.5,-292.59 797.94,-289.85"/>
</g>
<!-- inL&#45;&gt;imponereL -->
<g id="edge24" class="edge">
<title>inL&#45;&gt;imponereL</title>
<path fill="none" stroke="black" d="M863.76,-239.61C865.47,-228.77 867.72,-214.6 869.67,-202.29"/>
<polygon fill="black" stroke="black" points="873.18,-202.51 871.29,-192.08 866.27,-201.41 873.18,-202.51"/>
</g>
<!-- impose -->
<g id="node25" class="node">
<title>impose</title>
<text text-anchor="start" x="857.5" y="-84.8" font-family="Times New Roman,serif" font-weight="bold" font-size="14.00">Modern</text>
<text text-anchor="start" x="859" y="-70.8" font-family="Times New Roman,serif" font-weight="bold" font-size="14.00">English</text>
<text text-anchor="start" x="861.5" y="-56.8" font-family="Times New Roman,serif" font-size="14.00" fill="red">impose</text>
<text text-anchor="start" x="862.5" y="-42.8" font-family="Times New Roman,serif" font-size="14.00" fill="red">impost</text>
<text text-anchor="start" x="857.5" y="-28.8" font-family="Times New Roman,serif" font-size="14.00" fill="red">imposter</text>
</g>
<!-- imponereL&#45;&gt;impose -->
<g id="edge25" class="edge">
<title>imponereL&#45;&gt;impose</title>
<path fill="none" stroke="black" stroke-dasharray="5,2" d="M875.22,-155.99C876.11,-143.52 877.36,-125.94 878.55,-109.28"/>
<polygon fill="black" stroke="black" points="882.06,-109.31 879.28,-99.09 875.08,-108.81 882.06,-109.31"/>
</g>
<!-- interL&#45;&gt;interponereL -->
<g id="edge28" class="edge">
<title>interL&#45;&gt;interponereL</title>
<path fill="none" stroke="black" d="M779.3,-233.72C778.58,-223.88 777.73,-212.36 776.99,-202.13"/>
<polygon fill="black" stroke="black" points="780.47,-201.8 776.25,-192.08 773.49,-202.31 780.47,-201.8"/>
</g>
<!-- interpose -->
<g id="node28" class="node">
<title>interpose</title>
<text text-anchor="start" x="772.5" y="-70.8" font-family="Times New Roman,serif" font-weight="bold" font-size="14.00">Modern</text>
<text text-anchor="start" x="774" y="-56.8" font-family="Times New Roman,serif" font-weight="bold" font-size="14.00">English</text>
<text text-anchor="start" x="771" y="-42.8" font-family="Times New Roman,serif" font-size="14.00" fill="red">interpose</text>
</g>
<!-- interponereL&#45;&gt;interpose -->
<g id="edge29" class="edge">
<title>interponereL&#45;&gt;interpose</title>
<path fill="none" stroke="black" stroke-dasharray="5,2" d="M778.34,-155.99C781.49,-139.94 786.31,-115.41 790.26,-95.29"/>
<polygon fill="black" stroke="black" points="793.74,-95.73 792.24,-85.25 786.88,-94.38 793.74,-95.73"/>
</g>
<!-- epiIE -->
<g id="node29" class="node">
<title>epiIE</title>
<g id="a_node29"><a xlink:href="epi-near.svg" xlink:title="&lt;b&gt;Indo&#45;&lt;br/&gt;European&lt;/b&gt;&lt;br/&gt;&lt;font color=&quot;red&quot;&gt;*epi, *opi&lt;/font&gt;&lt;br/&gt;&lt;font point&#45;size=&quot;12&quot;&gt;near, at,&lt;br/&gt;against&lt;/font&gt;">
<path fill="none" stroke="black" stroke-dasharray="5,2" d="M992.5,-398C992.5,-398 939.5,-398 939.5,-398 933.5,-398 927.5,-392 927.5,-386 927.5,-386 927.5,-336 927.5,-336 927.5,-330 933.5,-324 939.5,-324 939.5,-324 992.5,-324 992.5,-324 998.5,-324 1004.5,-330 1004.5,-336 1004.5,-336 1004.5,-386 1004.5,-386 1004.5,-392 998.5,-398 992.5,-398"/>
<text text-anchor="start" x="949.5" y="-383.8" font-family="Times New Roman,serif" font-weight="bold" font-size="14.00">Indo&#45;</text>
<text text-anchor="start" x="935.5" y="-369.8" font-family="Times New Roman,serif" font-weight="bold" font-size="14.00">European</text>
<text text-anchor="start" x="938" y="-355.8" font-family="Times New Roman,serif" font-size="14.00" fill="red">*epi, *opi</text>
<text text-anchor="start" x="947.5" y="-343.4" font-family="Times New Roman,serif" font-size="12.00">near, at,</text>
<text text-anchor="start" x="950.5" y="-331.4" font-family="Times New Roman,serif" font-size="12.00">against</text>
</a>
</g>
</g>
<!-- obL -->
<g id="node30" class="node">
<title>obL</title>
<text text-anchor="start" x="949.5" y="-273.8" font-family="Times New Roman,serif" font-weight="bold" font-size="14.00">Latin</text>
<text text-anchor="start" x="956" y="-259.8" font-family="Times New Roman,serif" font-size="14.00" fill="red">ob&#45;</text>
<text text-anchor="start" x="948" y="-247.4" font-family="Times New Roman,serif" font-size="12.00">toward,</text>
<text text-anchor="start" x="950.5" y="-235.4" font-family="Times New Roman,serif" font-size="12.00">against</text>
</g>
<!-- epiIE&#45;&gt;obL -->
<g id="edge30" class="edge">
<title>epiIE&#45;&gt;obL</title>
<path fill="none" stroke="black" d="M966,-323.82C966,-315.62 966,-306.88 966,-298.55"/>
<polygon fill="black" stroke="black" points="969.5,-298.29 966,-288.29 962.5,-298.29 969.5,-298.29"/>
</g>
<!-- obL&#45;&gt;opponereL -->
<g id="edge32" class="edge">
<title>obL&#45;&gt;opponereL</title>
<path fill="none" stroke="black" d="M966,-227.86C966,-219.54 966,-210.5 966,-202.29"/>
<polygon fill="black" stroke="black" points="969.5,-202.11 966,-192.11 962.5,-202.11 969.5,-202.11"/>
</g>
<!-- oppose -->
<g id="node32" class="node">
<title>oppose</title>
<text text-anchor="start" x="940.5" y="-77.8" font-family="Times New Roman,serif" font-weight="bold" font-size="14.00">Modern</text>
<text text-anchor="start" x="942" y="-63.8" font-family="Times New Roman,serif" font-weight="bold" font-size="14.00">English</text>
<text text-anchor="start" x="943.5" y="-49.8" font-family="Times New Roman,serif" font-size="14.00" fill="red">oppose</text>
<text text-anchor="start" x="940.5" y="-35.8" font-family="Times New Roman,serif" font-size="14.00" fill="red">opposite</text>
</g>
<!-- opponereL&#45;&gt;oppose -->
<g id="edge33" class="edge">
<title>opponereL&#45;&gt;oppose</title>
<path fill="none" stroke="black" stroke-dasharray="5,2" d="M965.85,-155.99C965.72,-141.74 965.53,-120.8 965.37,-102.21"/>
<polygon fill="black" stroke="black" points="968.87,-102.14 965.28,-92.17 961.87,-102.21 968.87,-102.14"/>
</g>
<!-- perIE -->
<g id="node33" class="node">
<title>perIE</title>
<text text-anchor="start" x="1084.5" y="-383.8" font-family="Times New Roman,serif" font-weight="bold" font-size="14.00">Indo&#45;</text>
<text text-anchor="start" x="1070.5" y="-369.8" font-family="Times New Roman,serif" font-weight="bold" font-size="14.00">European</text>
<text text-anchor="start" x="1088.5" y="-355.8" font-family="Times New Roman,serif" font-size="14.00" fill="red">*per</text>
<text text-anchor="start" x="1082.5" y="-343.4" font-family="Times New Roman,serif" font-size="12.00">(various</text>
<text text-anchor="start" x="1071.5" y="-331.4" font-family="Times New Roman,serif" font-size="12.00">prepositions)</text>
</g>
<!-- praeL -->
<g id="node34" class="node">
<title>praeL</title>
<g id="a_node34"><a xlink:href="per-prai1.svg" xlink:title="&lt;b&gt;Latin&lt;/b&gt;&lt;br/&gt;&lt;font color=&quot;red&quot;&gt;prae&#45;&lt;/font&gt;&lt;br/&gt;&lt;font point&#45;size=&quot;12&quot;&gt;before&lt;/font&gt;">
<path fill="none" stroke="black" stroke-dasharray="5,2" d="M1156,-282C1156,-282 1126,-282 1126,-282 1120,-282 1114,-276 1114,-270 1114,-270 1114,-246 1114,-246 1114,-240 1120,-234 1126,-234 1126,-234 1156,-234 1156,-234 1162,-234 1168,-240 1168,-246 1168,-246 1168,-270 1168,-270 1168,-276 1162,-282 1156,-282"/>
<text text-anchor="start" x="1124.5" y="-267.8" font-family="Times New Roman,serif" font-weight="bold" font-size="14.00">Latin</text>
<text text-anchor="start" x="1126.5" y="-253.8" font-family="Times New Roman,serif" font-size="14.00" fill="red">prae&#45;</text>
<text text-anchor="start" x="1126" y="-241.4" font-family="Times New Roman,serif" font-size="12.00">before</text>
</a>
</g>
</g>
<!-- perIE&#45;&gt;praeL -->
<g id="edge34" class="edge">
<title>perIE&#45;&gt;praeL</title>
<path fill="none" stroke="black" d="M1115.33,-323.82C1119.51,-313.27 1124.05,-301.81 1128.13,-291.5"/>
<polygon fill="black" stroke="black" points="1131.45,-292.62 1131.88,-282.03 1124.94,-290.04 1131.45,-292.62"/>
</g>
<!-- proL -->
<g id="node37" class="node">
<title>proL</title>
<g id="a_node37"><a xlink:href="per-pro2.svg" xlink:title="&lt;b&gt;Latin&lt;/b&gt;&lt;br/&gt;&lt;font color=&quot;red&quot;&gt;prō&#45;&lt;/font&gt;&lt;br/&gt;&lt;font point&#45;size=&quot;12&quot;&gt;in front of&lt;/font&gt;">
<path fill="none" stroke="black" stroke-dasharray="5,2" d="M1079,-282C1079,-282 1043,-282 1043,-282 1037,-282 1031,-276 1031,-270 1031,-270 1031,-246 1031,-246 1031,-240 1037,-234 1043,-234 1043,-234 1079,-234 1079,-234 1085,-234 1091,-240 1091,-246 1091,-246 1091,-270 1091,-270 1091,-276 1085,-282 1079,-282"/>
<text text-anchor="start" x="1044.5" y="-267.8" font-family="Times New Roman,serif" font-weight="bold" font-size="14.00">Latin</text>
<text text-anchor="start" x="1048.5" y="-253.8" font-family="Times New Roman,serif" font-size="14.00" fill="red">prō&#45;</text>
<text text-anchor="start" x="1039" y="-241.4" font-family="Times New Roman,serif" font-size="12.00">in front of</text>
</a>
</g>
</g>
<!-- perIE&#45;&gt;proL -->
<g id="edge38" class="edge">
<title>perIE&#45;&gt;proL</title>
<path fill="none" stroke="black" d="M1086.67,-323.82C1082.49,-313.27 1077.95,-301.81 1073.87,-291.5"/>
<polygon fill="black" stroke="black" points="1077.06,-290.04 1070.12,-282.03 1070.55,-292.62 1077.06,-290.04"/>
</g>
<!-- praeL&#45;&gt;praeponereL -->
<g id="edge36" class="edge">
<title>praeL&#45;&gt;praeponereL</title>
<path fill="none" stroke="black" d="M1143.84,-233.72C1145.04,-223.88 1146.44,-212.36 1147.69,-202.13"/>
<polygon fill="black" stroke="black" points="1151.18,-202.43 1148.92,-192.08 1144.23,-201.58 1151.18,-202.43"/>
</g>
<!-- preposition -->
<g id="node36" class="node">
<title>preposition</title>
<text text-anchor="start" x="1130.5" y="-84.8" font-family="Times New Roman,serif" font-weight="bold" font-size="14.00">Modern</text>
<text text-anchor="start" x="1132" y="-70.8" font-family="Times New Roman,serif" font-weight="bold" font-size="14.00">English</text>
<text text-anchor="start" x="1123" y="-56.8" font-family="Times New Roman,serif" font-size="14.00" fill="red">preposition</text>
<text text-anchor="start" x="1124" y="-42.8" font-family="Times New Roman,serif" font-size="14.00" fill="red">prepositive</text>
<text text-anchor="start" x="1133" y="-28.8" font-family="Times New Roman,serif" font-size="14.00" fill="red">provost</text>
</g>
<!-- praeponereL&#45;&gt;preposition -->
<g id="edge37" class="edge">
<title>praeponereL&#45;&gt;preposition</title>
<path fill="none" stroke="black" stroke-dasharray="5,2" d="M1151.61,-155.99C1152.05,-143.52 1152.68,-125.94 1153.28,-109.28"/>
<polygon fill="black" stroke="black" points="1156.78,-109.21 1153.64,-99.09 1149.78,-108.96 1156.78,-109.21"/>
</g>
<!-- proL&#45;&gt;proponereL -->
<g id="edge40" class="edge">
<title>proL&#45;&gt;proponereL</title>
<path fill="none" stroke="black" d="M1059.58,-233.72C1058.98,-223.88 1058.28,-212.36 1057.65,-202.13"/>
<polygon fill="black" stroke="black" points="1061.14,-201.85 1057.04,-192.08 1054.16,-202.27 1061.14,-201.85"/>
</g>
<!-- propound -->
<g id="node39" class="node">
<title>propound</title>
<text text-anchor="start" x="1031.5" y="-91.8" font-family="Times New Roman,serif" font-weight="bold" font-size="14.00">Modern</text>
<text text-anchor="start" x="1033" y="-77.8" font-family="Times New Roman,serif" font-weight="bold" font-size="14.00">English</text>
<text text-anchor="start" x="1032.5" y="-63.8" font-family="Times New Roman,serif" font-size="14.00" fill="red">propose</text>
<text text-anchor="start" x="1027" y="-49.8" font-family="Times New Roman,serif" font-size="14.00" fill="red">proponent</text>
<text text-anchor="start" x="1023.5" y="-35.8" font-family="Times New Roman,serif" font-size="14.00" fill="red">proposition</text>
<text text-anchor="start" x="1028" y="-21.8" font-family="Times New Roman,serif" font-size="14.00" fill="red">propound</text>
</g>
<!-- proponereL&#45;&gt;propound -->
<g id="edge41" class="edge">
<title>proponereL&#45;&gt;propound</title>
<path fill="none" stroke="black" stroke-dasharray="5,2" d="M1056,-155.99C1056,-145.35 1056,-130.99 1056,-116.66"/>
<polygon fill="black" stroke="black" points="1059.5,-116.28 1056,-106.28 1052.5,-116.28 1059.5,-116.28"/>
</g>
<!-- reposit -->
<g id="node41" class="node">
<title>reposit</title>
<text text-anchor="start" x="687.5" y="-70.8" font-family="Times New Roman,serif" font-weight="bold" font-size="14.00">Modern</text>
<text text-anchor="start" x="689" y="-56.8" font-family="Times New Roman,serif" font-weight="bold" font-size="14.00">English</text>
<text text-anchor="start" x="692.5" y="-42.8" font-family="Times New Roman,serif" font-size="14.00" fill="red">reposit</text>
</g>
<!-- reponereL&#45;&gt;reposit -->
<g id="edge43" class="edge">
<title>reponereL&#45;&gt;reposit</title>
<path fill="none" stroke="black" stroke-dasharray="5,2" d="M685.71,-155.99C690.17,-139.87 697,-115.18 702.58,-95.02"/>
<polygon fill="black" stroke="black" points="705.99,-95.82 705.29,-85.25 699.25,-93.95 705.99,-95.82"/>
</g>
<!-- upoIE -->
<g id="node42" class="node">
<title>upoIE</title>
<g id="a_node42"><a xlink:href="upo-under.svg" xlink:title="&lt;b&gt;Indo&#45;&lt;br/&gt;European&lt;/b&gt;&lt;br/&gt;&lt;font color=&quot;red&quot;&gt;*upo&lt;/font&gt;&lt;br/&gt;&lt;font point&#45;size=&quot;12&quot;&gt;under&lt;/font&gt;">
<path fill="none" stroke="black" stroke-dasharray="5,2" d="M1272.5,-392C1272.5,-392 1219.5,-392 1219.5,-392 1213.5,-392 1207.5,-386 1207.5,-380 1207.5,-380 1207.5,-342 1207.5,-342 1207.5,-336 1213.5,-330 1219.5,-330 1219.5,-330 1272.5,-330 1272.5,-330 1278.5,-330 1284.5,-336 1284.5,-342 1284.5,-342 1284.5,-380 1284.5,-380 1284.5,-386 1278.5,-392 1272.5,-392"/>
<text text-anchor="start" x="1229.5" y="-377.8" font-family="Times New Roman,serif" font-weight="bold" font-size="14.00">Indo&#45;</text>
<text text-anchor="start" x="1215.5" y="-363.8" font-family="Times New Roman,serif" font-weight="bold" font-size="14.00">European</text>
<text text-anchor="start" x="1231.5" y="-349.8" font-family="Times New Roman,serif" font-size="14.00" fill="red">*upo</text>
<text text-anchor="start" x="1233" y="-337.4" font-family="Times New Roman,serif" font-size="12.00">under</text>
</a>
</g>
</g>
<!-- subL -->
<g id="node43" class="node">
<title>subL</title>
<text text-anchor="start" x="1229.5" y="-261.8" font-family="Times New Roman,serif" font-weight="bold" font-size="14.00">Latin</text>
<text text-anchor="start" x="1233.5" y="-247.8" font-family="Times New Roman,serif" font-size="14.00" fill="red">sub&#45;</text>
</g>
<!-- upoIE&#45;&gt;subL -->
<g id="edge44" class="edge">
<title>upoIE&#45;&gt;subL</title>
<path fill="none" stroke="black" d="M1246,-329.97C1246,-316.11 1246,-299.78 1246,-286.28"/>
<polygon fill="black" stroke="black" points="1249.5,-286.16 1246,-276.16 1242.5,-286.16 1249.5,-286.16"/>
</g>
<!-- subL&#45;&gt;supponereL -->
<g id="edge46" class="edge">
<title>subL&#45;&gt;supponereL</title>
<path fill="none" stroke="black" d="M1246,-239.61C1246,-228.77 1246,-214.6 1246,-202.29"/>
<polygon fill="black" stroke="black" points="1249.5,-202.08 1246,-192.08 1242.5,-202.08 1249.5,-202.08"/>
</g>
<!-- suppose -->
<g id="node45" class="node">
<title>suppose</title>
<text text-anchor="start" x="1221.5" y="-70.8" font-family="Times New Roman,serif" font-weight="bold" font-size="14.00">Modern</text>
<text text-anchor="start" x="1223" y="-56.8" font-family="Times New Roman,serif" font-weight="bold" font-size="14.00">English</text>
<text text-anchor="start" x="1222" y="-42.8" font-family="Times New Roman,serif" font-size="14.00" fill="red">suppose</text>
</g>
<!-- supponereL&#45;&gt;suppose -->
<g id="edge47" class="edge">
<title>supponereL&#45;&gt;suppose</title>
<path fill="none" stroke="black" stroke-dasharray="5,2" d="M1246,-155.99C1246,-139.94 1246,-115.41 1246,-95.29"/>
<polygon fill="black" stroke="black" points="1249.5,-95.25 1246,-85.25 1242.5,-95.25 1249.5,-95.25"/>
</g>
<!-- tereIE -->
<g id="node46" class="node">
<title>tereIE</title>
<g id="a_node46"><a xlink:href="tere-cross.svg" xlink:title="&lt;b&gt;Indo&#45;&lt;br/&gt;European&lt;/b&gt;&lt;br/&gt;&lt;font color=&quot;red&quot;&gt;*terə&#45;&lt;/font&gt;&lt;br/&gt;&lt;font point&#45;size=&quot;12&quot;&gt;to cross over&lt;/font&gt;">
<path fill="none" stroke="black" stroke-dasharray="5,2" d="M1369.5,-392C1369.5,-392 1316.5,-392 1316.5,-392 1310.5,-392 1304.5,-386 1304.5,-380 1304.5,-380 1304.5,-342 1304.5,-342 1304.5,-336 1310.5,-330 1316.5,-330 1316.5,-330 1369.5,-330 1369.5,-330 1375.5,-330 1381.5,-336 1381.5,-342 1381.5,-342 1381.5,-380 1381.5,-380 1381.5,-386 1375.5,-392 1369.5,-392"/>
<text text-anchor="start" x="1326.5" y="-377.8" font-family="Times New Roman,serif" font-weight="bold" font-size="14.00">Indo&#45;</text>
<text text-anchor="start" x="1312.5" y="-363.8" font-family="Times New Roman,serif" font-weight="bold" font-size="14.00">European</text>
<text text-anchor="start" x="1327" y="-349.8" font-family="Times New Roman,serif" font-size="14.00" fill="red">*terə&#45;</text>
<text text-anchor="start" x="1313" y="-337.4" font-family="Times New Roman,serif" font-size="12.00">to cross over</text>
</a>
</g>
</g>
<!-- transL -->
<g id="node47" class="node">
<title>transL</title>
<text text-anchor="start" x="1326.5" y="-267.8" font-family="Times New Roman,serif" font-weight="bold" font-size="14.00">Latin</text>
<text text-anchor="start" x="1327" y="-253.8" font-family="Times New Roman,serif" font-size="14.00" fill="red">trāns&#45;</text>
<text text-anchor="start" x="1328" y="-241.4" font-family="Times New Roman,serif" font-size="12.00">across</text>
</g>
<!-- tereIE&#45;&gt;transL -->
<g id="edge48" class="edge">
<title>tereIE&#45;&gt;transL</title>
<path fill="none" stroke="black" d="M1343,-329.97C1343,-318.1 1343,-304.41 1343,-292.24"/>
<polygon fill="black" stroke="black" points="1346.5,-292.02 1343,-282.02 1339.5,-292.02 1346.5,-292.02"/>
</g>
<!-- transL&#45;&gt;transponereL -->
<g id="edge50" class="edge">
<title>transL&#45;&gt;transponereL</title>
<path fill="none" stroke="black" d="M1343,-233.72C1343,-223.88 1343,-212.36 1343,-202.13"/>
<polygon fill="black" stroke="black" points="1346.5,-202.08 1343,-192.08 1339.5,-202.08 1346.5,-202.08"/>
</g>
<!-- transpose -->
<g id="node49" class="node">
<title>transpose</title>
<text text-anchor="start" x="1318.5" y="-70.8" font-family="Times New Roman,serif" font-weight="bold" font-size="14.00">Modern</text>
<text text-anchor="start" x="1320" y="-56.8" font-family="Times New Roman,serif" font-weight="bold" font-size="14.00">English</text>
<text text-anchor="start" x="1315.5" y="-42.8" font-family="Times New Roman,serif" font-size="14.00" fill="red">transpose</text>
</g>
<!-- transponereL&#45;&gt;transpose -->
<g id="edge51" class="edge">
<title>transponereL&#45;&gt;transpose</title>
<path fill="none" stroke="black" stroke-dasharray="5,2" d="M1343,-155.99C1343,-139.94 1343,-115.41 1343,-95.29"/>
<polygon fill="black" stroke="black" points="1346.5,-95.25 1343,-85.25 1339.5,-95.25 1346.5,-95.25"/>
</g>
</g>
</svg>
