<?xml version="1.0" encoding="UTF-8" standalone="no"?>
<!DOCTYPE svg PUBLIC "-//W3C//DTD SVG 1.1//EN"
 "http://www.w3.org/Graphics/SVG/1.1/DTD/svg11.dtd">
<!-- Generated by graphviz version 2.49.0 (20210828.1703)
 -->
<!-- Pages: 1 -->
<svg width="594pt" height="650pt"
 viewBox="0.00 0.00 593.50 650.00" xmlns="http://www.w3.org/2000/svg" xmlns:xlink="http://www.w3.org/1999/xlink">
<g id="graph0" class="graph" transform="scale(1 1) rotate(0) translate(4 646)">
<polygon fill="white" stroke="transparent" points="-4,4 -4,-646 589.5,-646 589.5,4 -4,4"/>
<!-- arg -->
<g id="node1" class="node">
<title>arg</title>
<text text-anchor="start" x="261" y="-623.8" font-family="Times New Roman,serif" font-weight="bold" font-size="14.00">Indo&#45;European</text>
<text text-anchor="start" x="267" y="-592.7" font-family="Times New Roman,serif" font-size="16.00" fill="red">arg&#45;</text>
<text text-anchor="start" x="312.5" y="-605" font-family="Times New Roman,serif" font-size="10.00">to shine,</text>
<text text-anchor="start" x="317.5" y="-594" font-family="Times New Roman,serif" font-size="10.00">white,</text>
<text text-anchor="start" x="319" y="-583" font-family="Times New Roman,serif" font-size="10.00">silver</text>
</g>
<!-- argentIE -->
<g id="node2" class="node">
<title>argentIE</title>
<text text-anchor="start" x="143.5" y="-514.3" font-family="Times New Roman,serif" font-size="14.00" fill="red">arg&#45;ent&#45;</text>
</g>
<!-- arg&#45;&gt;argentIE -->
<g id="edge1" class="edge">
<title>arg&#45;&gt;argentIE</title>
<path fill="none" stroke="black" d="M251.29,-571.86C234.53,-561.6 216.58,-550.6 201.41,-541.31"/>
<polygon fill="black" stroke="black" points="203.19,-538.29 192.84,-536.05 199.53,-544.26 203.19,-538.29"/>
</g>
<!-- argilIE -->
<g id="node3" class="node">
<title>argilIE</title>
<text text-anchor="start" x="238.5" y="-514.3" font-family="Times New Roman,serif" font-size="14.00" fill="red">arg&#45;i&#45;l(l)&#45;</text>
</g>
<!-- arg&#45;&gt;argilIE -->
<g id="edge2" class="edge">
<title>arg&#45;&gt;argilIE</title>
<path fill="none" stroke="black" d="M289.61,-571.62C285.19,-562.88 280.51,-553.62 276.33,-545.35"/>
<polygon fill="black" stroke="black" points="279.33,-543.53 271.69,-536.19 273.08,-546.69 279.33,-543.53"/>
</g>
<!-- arguIE -->
<g id="node4" class="node">
<title>arguIE</title>
<text text-anchor="start" x="335" y="-520.8" font-family="Times New Roman,serif" font-size="14.00" fill="red">arg&#45;u&#45;</text>
<text text-anchor="start" x="321.5" y="-508.4" font-family="Times New Roman,serif" font-size="12.00">brilliant, clear</text>
</g>
<!-- arg&#45;&gt;arguIE -->
<g id="edge3" class="edge">
<title>arg&#45;&gt;arguIE</title>
<path fill="none" stroke="black" d="M324.79,-571.62C329.35,-562.78 334.2,-553.42 338.51,-545.08"/>
<polygon fill="black" stroke="black" points="341.62,-546.68 343.11,-536.19 335.41,-543.46 341.62,-546.68"/>
</g>
<!-- argro -->
<g id="node5" class="node">
<title>argro</title>
<text text-anchor="start" x="438" y="-514.3" font-family="Times New Roman,serif" font-size="14.00" fill="red">ər̥g&#45;ro&#45;, arg&#45;ro&#45;</text>
</g>
<!-- arg&#45;&gt;argro -->
<g id="edge4" class="edge">
<title>arg&#45;&gt;argro</title>
<path fill="none" stroke="black" d="M366.54,-576.06C389.69,-564.41 415.72,-551.33 437,-540.63"/>
<polygon fill="black" stroke="black" points="438.74,-543.67 446.1,-536.05 435.6,-537.41 438.74,-543.67"/>
</g>
<!-- argentumL -->
<g id="node6" class="node">
<title>argentumL</title>
<text text-anchor="start" x="129.5" y="-449.8" font-family="Times New Roman,serif" font-weight="bold" font-size="14.00">Latin</text>
<text text-anchor="start" x="120" y="-435.8" font-family="Times New Roman,serif" font-size="14.00" fill="red">argentum</text>
<text text-anchor="start" x="134" y="-423.4" font-family="Times New Roman,serif" font-size="12.00">silver</text>
</g>
<!-- argentIE&#45;&gt;argentumL -->
<g id="edge5" class="edge">
<title>argentIE&#45;&gt;argentumL</title>
<path fill="none" stroke="black" d="M160.69,-499.75C158.78,-492.12 156.47,-482.87 154.25,-473.99"/>
<polygon fill="black" stroke="black" points="157.63,-473.08 151.81,-464.23 150.84,-474.78 157.63,-473.08"/>
</g>
<!-- argillosG -->
<g id="node18" class="node">
<title>argillosG</title>
<text text-anchor="start" x="243" y="-449.8" font-family="Times New Roman,serif" font-weight="bold" font-size="14.00">Greek</text>
<text text-anchor="start" x="243" y="-435.8" font-family="Times New Roman,serif" font-size="14.00" fill="red">argillos</text>
<text text-anchor="start" x="240" y="-423.4" font-family="Times New Roman,serif" font-size="12.00">white clay</text>
</g>
<!-- argilIE&#45;&gt;argillosG -->
<g id="edge17" class="edge">
<title>argilIE&#45;&gt;argillosG</title>
<path fill="none" stroke="black" d="M263,-499.75C263,-492.2 263,-483.07 263,-474.28"/>
<polygon fill="black" stroke="black" points="266.5,-474.23 263,-464.23 259.5,-474.23 266.5,-474.23"/>
</g>
<!-- argutusL -->
<g id="node9" class="node">
<title>argutusL</title>
<text text-anchor="start" x="335.5" y="-449.8" font-family="Times New Roman,serif" font-weight="bold" font-size="14.00">Latin</text>
<text text-anchor="start" x="331.5" y="-435.8" font-family="Times New Roman,serif" font-size="14.00" fill="red">argutus</text>
<text text-anchor="start" x="326.5" y="-423.4" font-family="Times New Roman,serif" font-size="12.00">transparent</text>
</g>
<!-- arguIE&#45;&gt;argutusL -->
<g id="edge8" class="edge">
<title>arguIE&#45;&gt;argutusL</title>
<path fill="none" stroke="black" d="M352,-499.75C352,-492.2 352,-483.07 352,-474.28"/>
<polygon fill="black" stroke="black" points="355.5,-474.23 352,-464.23 348.5,-474.23 355.5,-474.23"/>
</g>
<!-- argosG -->
<g id="node22" class="node">
<title>argosG</title>
<text text-anchor="start" x="481" y="-449.8" font-family="Times New Roman,serif" font-weight="bold" font-size="14.00">Greek</text>
<text text-anchor="start" x="485.5" y="-435.8" font-family="Times New Roman,serif" font-size="14.00" fill="red">argos</text>
<text text-anchor="start" x="470.5" y="-423.4" font-family="Times New Roman,serif" font-size="12.00">white, shining</text>
</g>
<!-- argro&#45;&gt;argosG -->
<g id="edge21" class="edge">
<title>argro&#45;&gt;argosG</title>
<path fill="none" stroke="black" d="M484.77,-499.75C486.88,-492.12 489.43,-482.87 491.88,-473.99"/>
<polygon fill="black" stroke="black" points="495.29,-474.8 494.58,-464.23 488.54,-472.94 495.29,-474.8"/>
</g>
<!-- argentE -->
<g id="node7" class="node">
<title>argentE</title>
<text text-anchor="start" x="10.5" y="-63.8" font-family="Times New Roman,serif" font-weight="bold" font-size="14.00">Modern</text>
<text text-anchor="start" x="12" y="-49.8" font-family="Times New Roman,serif" font-weight="bold" font-size="14.00">English</text>
<text text-anchor="start" x="18" y="-35.8" font-family="Times New Roman,serif" font-size="14.00" fill="red">argent</text>
<text text-anchor="start" x="10" y="-21.8" font-family="Times New Roman,serif" font-size="14.00" fill="red">argentine</text>
<text text-anchor="start" x="8" y="-7.8" font-family="Times New Roman,serif" font-size="14.00" fill="red">Argentina</text>
</g>
<!-- argentumL&#45;&gt;argentE -->
<g id="edge6" class="edge">
<title>argentumL&#45;&gt;argentE</title>
<path fill="none" stroke="black" stroke-dasharray="1,5" d="M113.3,-415.8C80.55,-389.6 35,-343.67 35,-291 35,-291 35,-291 35,-217 35,-173.51 35,-124.01 35,-88.43"/>
<polygon fill="black" stroke="black" points="38.5,-88.33 35,-78.33 31.5,-88.33 38.5,-88.33"/>
</g>
<!-- agE -->
<g id="node8" class="node">
<title>agE</title>
<text text-anchor="start" x="121.5" y="-56.8" font-family="Times New Roman,serif" font-weight="bold" font-size="14.00">Modern</text>
<text text-anchor="start" x="123" y="-42.8" font-family="Times New Roman,serif" font-weight="bold" font-size="14.00">English</text>
<text text-anchor="start" x="108.5" y="-28.8" font-family="Times New Roman,serif" font-size="14.00" fill="red">Ag </text>
<text text-anchor="start" x="129.5" y="-28.8" font-family="Times New Roman,serif" font-size="14.00">(chemical</text>
<text text-anchor="start" x="96" y="-14.8" font-family="Times New Roman,serif" font-size="14.00">symbol for silver)</text>
</g>
<!-- argentumL&#45;&gt;agE -->
<g id="edge7" class="edge">
<title>argentumL&#45;&gt;agE</title>
<path fill="none" stroke="black" stroke-dasharray="1,5" d="M146,-415.93C146,-386.81 146,-335.19 146,-291 146,-291 146,-291 146,-217 146,-170.43 146,-116.97 146,-81.1"/>
<polygon fill="black" stroke="black" points="149.5,-81.01 146,-71.01 142.5,-81.01 149.5,-81.01"/>
</g>
<!-- arguereL -->
<g id="node10" class="node">
<title>arguereL</title>
<text text-anchor="start" x="331.5" y="-364.8" font-family="Times New Roman,serif" font-size="14.00" fill="red">arguere</text>
<text text-anchor="start" x="321" y="-352.4" font-family="Times New Roman,serif" font-size="12.00">to make clear</text>
</g>
<!-- argutusL&#45;&gt;arguereL -->
<g id="edge9" class="edge">
<title>argutusL&#45;&gt;arguereL</title>
<path fill="none" stroke="black" d="M352,-415.78C352,-407.68 352,-398.52 352,-390.12"/>
<polygon fill="black" stroke="black" points="355.5,-390.04 352,-380.04 348.5,-390.04 355.5,-390.04"/>
</g>
<!-- arguerOF -->
<g id="node11" class="node">
<title>arguerOF</title>
<text text-anchor="start" x="310" y="-221.8" font-family="Times New Roman,serif" font-weight="bold" font-size="14.00">Old French</text>
<text text-anchor="start" x="327.5" y="-207.8" font-family="Times New Roman,serif" font-size="14.00" fill="red">arguer</text>
</g>
<!-- arguereL&#45;&gt;arguerOF -->
<g id="edge10" class="edge">
<title>arguereL&#45;&gt;arguerOF</title>
<path fill="none" stroke="black" d="M351.16,-343.87C349.96,-319.67 347.77,-275.21 346.35,-246.39"/>
<polygon fill="black" stroke="black" points="349.84,-246 345.85,-236.19 342.84,-246.35 349.84,-246"/>
</g>
<!-- argumentumL -->
<g id="node14" class="node">
<title>argumentumL</title>
<text text-anchor="start" x="406.5" y="-286.3" font-family="Times New Roman,serif" font-size="14.00" fill="red">argūmentum</text>
</g>
<!-- arguereL&#45;&gt;argumentumL -->
<g id="edge13" class="edge">
<title>arguereL&#45;&gt;argumentumL</title>
<path fill="none" stroke="black" d="M374,-343.7C385.21,-334.88 399,-324.03 411.15,-314.47"/>
<polygon fill="black" stroke="black" points="413.56,-317.04 419.25,-308.1 409.23,-311.54 413.56,-317.04"/>
</g>
<!-- arguenME -->
<g id="node12" class="node">
<title>arguenME</title>
<text text-anchor="start" x="327.5" y="-149.8" font-family="Times New Roman,serif" font-weight="bold" font-size="14.00">Middle</text>
<text text-anchor="start" x="326" y="-135.8" font-family="Times New Roman,serif" font-weight="bold" font-size="14.00">English</text>
<text text-anchor="start" x="330.5" y="-121.8" font-family="Times New Roman,serif" font-size="14.00" fill="red">arguen</text>
</g>
<!-- arguerOF&#45;&gt;arguenME -->
<g id="edge11" class="edge">
<title>arguerOF&#45;&gt;arguenME</title>
<path fill="none" stroke="black" stroke-dasharray="1,5" d="M345.89,-199.91C346.28,-192.33 346.76,-183.13 347.22,-174.23"/>
<polygon fill="black" stroke="black" points="350.73,-174.22 347.75,-164.05 343.74,-173.85 350.73,-174.22"/>
</g>
<!-- argue -->
<g id="node13" class="node">
<title>argue</title>
<text text-anchor="start" x="330.5" y="-49.8" font-family="Times New Roman,serif" font-weight="bold" font-size="14.00">Modern</text>
<text text-anchor="start" x="332" y="-35.8" font-family="Times New Roman,serif" font-weight="bold" font-size="14.00">English</text>
<text text-anchor="start" x="339.5" y="-21.8" font-family="Times New Roman,serif" font-size="14.00" fill="red">argue</text>
</g>
<!-- arguenME&#45;&gt;argue -->
<g id="edge12" class="edge">
<title>arguenME&#45;&gt;argue</title>
<path fill="none" stroke="black" d="M350.48,-113.78C351.21,-101.88 352.1,-87.34 352.9,-74.32"/>
<polygon fill="black" stroke="black" points="356.4,-74.48 353.51,-64.29 349.41,-74.05 356.4,-74.48"/>
</g>
<!-- argumentOF -->
<g id="node15" class="node">
<title>argumentOF</title>
<text text-anchor="start" x="414" y="-221.8" font-family="Times New Roman,serif" font-weight="bold" font-size="14.00">Old French</text>
<text text-anchor="start" x="423" y="-207.8" font-family="Times New Roman,serif" font-size="14.00" fill="red">argument</text>
</g>
<!-- argumentumL&#45;&gt;argumentOF -->
<g id="edge14" class="edge">
<title>argumentumL&#45;&gt;argumentOF</title>
<path fill="none" stroke="black" d="M442.98,-271.7C443.86,-263.98 444.92,-254.71 445.9,-246.11"/>
<polygon fill="black" stroke="black" points="449.39,-246.44 447.05,-236.1 442.43,-245.64 449.39,-246.44"/>
</g>
<!-- argumentME -->
<g id="node16" class="node">
<title>argumentME</title>
<text text-anchor="start" x="425.5" y="-149.8" font-family="Times New Roman,serif" font-weight="bold" font-size="14.00">Middle</text>
<text text-anchor="start" x="424" y="-135.8" font-family="Times New Roman,serif" font-weight="bold" font-size="14.00">English</text>
<text text-anchor="start" x="421" y="-121.8" font-family="Times New Roman,serif" font-size="14.00" fill="red">argument</text>
</g>
<!-- argumentOF&#45;&gt;argumentME -->
<g id="edge15" class="edge">
<title>argumentOF&#45;&gt;argumentME</title>
<path fill="none" stroke="black" stroke-dasharray="1,5" d="M448.56,-199.91C448.36,-192.33 448.12,-183.13 447.89,-174.23"/>
<polygon fill="black" stroke="black" points="451.38,-173.96 447.62,-164.05 444.39,-174.14 451.38,-173.96"/>
</g>
<!-- argument -->
<g id="node17" class="node">
<title>argument</title>
<text text-anchor="start" x="421.5" y="-49.8" font-family="Times New Roman,serif" font-weight="bold" font-size="14.00">Modern</text>
<text text-anchor="start" x="423" y="-35.8" font-family="Times New Roman,serif" font-weight="bold" font-size="14.00">English</text>
<text text-anchor="start" x="420" y="-21.8" font-family="Times New Roman,serif" font-size="14.00" fill="red">argument</text>
</g>
<!-- argumentME&#45;&gt;argument -->
<g id="edge16" class="edge">
<title>argumentME&#45;&gt;argument</title>
<path fill="none" stroke="black" d="M446.75,-113.78C446.63,-101.88 446.48,-87.34 446.35,-74.32"/>
<polygon fill="black" stroke="black" points="449.85,-74.25 446.25,-64.29 442.85,-74.32 449.85,-74.25"/>
</g>
<!-- argillaL -->
<g id="node19" class="node">
<title>argillaL</title>
<text text-anchor="start" x="246.5" y="-293.8" font-family="Times New Roman,serif" font-weight="bold" font-size="14.00">Latin</text>
<text text-anchor="start" x="246.5" y="-279.8" font-family="Times New Roman,serif" font-size="14.00" fill="red">argilla</text>
</g>
<!-- argillosG&#45;&gt;argillaL -->
<g id="edge18" class="edge">
<title>argillosG&#45;&gt;argillaL</title>
<path fill="none" stroke="black" stroke-dasharray="1,5" d="M263,-415.88C263,-389.61 263,-346.76 263,-318.72"/>
<polygon fill="black" stroke="black" points="266.5,-318.41 263,-308.41 259.5,-318.41 266.5,-318.41"/>
</g>
<!-- argillaME -->
<g id="node20" class="node">
<title>argillaME</title>
<text text-anchor="start" x="241.5" y="-149.8" font-family="Times New Roman,serif" font-weight="bold" font-size="14.00">Middle</text>
<text text-anchor="start" x="240" y="-135.8" font-family="Times New Roman,serif" font-weight="bold" font-size="14.00">English</text>
<text text-anchor="start" x="246.5" y="-121.8" font-family="Times New Roman,serif" font-size="14.00" fill="red">argilla</text>
</g>
<!-- argillaL&#45;&gt;argillaME -->
<g id="edge19" class="edge">
<title>argillaL&#45;&gt;argillaME</title>
<path fill="none" stroke="black" stroke-dasharray="1,5" d="M263,-271.91C263,-248.18 263,-204.74 263,-174.21"/>
<polygon fill="black" stroke="black" points="266.5,-174 263,-164 259.5,-174 266.5,-174"/>
</g>
<!-- argil -->
<g id="node21" class="node">
<title>argil</title>
<text text-anchor="start" x="238.5" y="-63.8" font-family="Times New Roman,serif" font-weight="bold" font-size="14.00">Modern</text>
<text text-anchor="start" x="240" y="-49.8" font-family="Times New Roman,serif" font-weight="bold" font-size="14.00">English</text>
<text text-anchor="start" x="251" y="-35.8" font-family="Times New Roman,serif" font-size="14.00" fill="red">argil</text>
<text text-anchor="start" x="230" y="-21.8" font-family="Times New Roman,serif" font-size="14.00" fill="red">argillaceous</text>
<text text-anchor="start" x="243" y="-7.8" font-family="Times New Roman,serif" font-size="14.00" fill="red">argillite</text>
</g>
<!-- argillaME&#45;&gt;argil -->
<g id="edge20" class="edge">
<title>argillaME&#45;&gt;argil</title>
<path fill="none" stroke="black" d="M263,-113.78C263,-106.03 263,-97.17 263,-88.34"/>
<polygon fill="black" stroke="black" points="266.5,-88.06 263,-78.06 259.5,-88.06 266.5,-88.06"/>
</g>
<!-- argosE -->
<g id="node23" class="node">
<title>argosE</title>
<text text-anchor="start" x="506.5" y="-35.3" font-family="Times New Roman,serif" font-size="14.00" fill="red">Argos, Argo</text>
</g>
<!-- argosG&#45;&gt;argosE -->
<g id="edge22" class="edge">
<title>argosG&#45;&gt;argosE</title>
<path fill="none" stroke="black" stroke-dasharray="1,5" d="M511.56,-415.97C523.71,-387.31 542,-336.59 542,-291 542,-291 542,-291 542,-217 542,-164.04 542,-102.16 542,-67.38"/>
<polygon fill="black" stroke="black" points="545.5,-67.09 542,-57.09 538.5,-67.09 545.5,-67.09"/>
</g>
</g>
</svg>
