<?xml version="1.0" encoding="UTF-8" standalone="no"?>
<!DOCTYPE svg PUBLIC "-//W3C//DTD SVG 1.1//EN"
 "http://www.w3.org/Graphics/SVG/1.1/DTD/svg11.dtd">
<!-- Generated by graphviz version 2.49.0 (20210828.1703)
 -->
<!-- Pages: 1 -->
<svg width="574pt" height="692pt"
 viewBox="0.00 0.00 573.50 692.00" xmlns="http://www.w3.org/2000/svg" xmlns:xlink="http://www.w3.org/1999/xlink">
<g id="graph0" class="graph" transform="scale(1 1) rotate(0) translate(4 688)">
<polygon fill="white" stroke="transparent" points="-4,4 -4,-688 569.5,-688 569.5,4 -4,4"/>
<!-- arg -->
<g id="node1" class="node">
<title>arg</title>
<g id="a_node1"><a xlink:title="Indo&#45;European &quot;*arg&#45;&quot; to shine, white, silver">
<polygon fill="none" stroke="black" points="401.5,-680 172.5,-680 172.5,-576 401.5,-576 401.5,-680"/>
<polygon fill="none" stroke="black" points="405.5,-684 168.5,-684 168.5,-572 405.5,-572 405.5,-684"/>
<text text-anchor="start" x="209" y="-635.8" font-family="Times New Roman,serif" font-weight="bold" font-size="24.00">Indo&#45;European</text>
<text text-anchor="start" x="199" y="-607.6" font-family="Times New Roman,serif" font-size="18.00" fill="red">*arg&#45;</text>
<text text-anchor="start" x="243" y="-608.2" font-family="Times New Roman,serif" font-size="16.00">to shine, white, silver</text>
</a>
</g>
</g>
<!-- argentIE -->
<g id="node2" class="node">
<title>argentIE</title>
<text text-anchor="start" x="128.5" y="-514.3" font-family="Times New Roman,serif" font-size="14.00" fill="red">arg&#45;ent&#45;</text>
</g>
<!-- arg&#45;&gt;argentIE -->
<g id="edge1" class="edge">
<title>arg&#45;&gt;argentIE</title>
<path fill="none" stroke="black" d="M216.89,-571.73C203.78,-561.4 190.74,-551.12 179.71,-542.42"/>
<polygon fill="black" stroke="black" points="181.71,-539.54 171.69,-536.1 177.38,-545.04 181.71,-539.54"/>
</g>
<!-- argilIE -->
<g id="node3" class="node">
<title>argilIE</title>
<text text-anchor="start" x="218.5" y="-514.3" font-family="Times New Roman,serif" font-size="14.00" fill="red">arg&#45;i&#45;l(l)&#45;</text>
</g>
<!-- arg&#45;&gt;argilIE -->
<g id="edge2" class="edge">
<title>arg&#45;&gt;argilIE</title>
<path fill="none" stroke="black" d="M264.48,-571.73C260.8,-562.68 257.13,-553.68 253.9,-545.75"/>
<polygon fill="black" stroke="black" points="257.08,-544.28 250.06,-536.34 250.59,-546.92 257.08,-544.28"/>
</g>
<!-- arguIE -->
<g id="node4" class="node">
<title>arguIE</title>
<text text-anchor="start" x="315" y="-520.8" font-family="Times New Roman,serif" font-size="14.00" fill="red">arg&#45;u&#45;</text>
<text text-anchor="start" x="301.5" y="-508.4" font-family="Times New Roman,serif" font-size="12.00">brilliant, clear</text>
</g>
<!-- arg&#45;&gt;arguIE -->
<g id="edge3" class="edge">
<title>arg&#45;&gt;arguIE</title>
<path fill="none" stroke="black" d="M310.03,-571.73C313.8,-562.68 317.55,-553.68 320.86,-545.75"/>
<polygon fill="black" stroke="black" points="324.16,-546.91 324.78,-536.34 317.7,-544.22 324.16,-546.91"/>
</g>
<!-- argro -->
<g id="node5" class="node">
<title>argro</title>
<text text-anchor="start" x="418" y="-514.3" font-family="Times New Roman,serif" font-size="14.00" fill="red">ər̥g&#45;ro&#45;, arg&#45;ro&#45;</text>
</g>
<!-- arg&#45;&gt;argro -->
<g id="edge4" class="edge">
<title>arg&#45;&gt;argro</title>
<path fill="none" stroke="black" d="M375.27,-571.89C392.52,-561.13 409.67,-550.42 423.99,-541.48"/>
<polygon fill="black" stroke="black" points="425.88,-544.43 432.51,-536.16 422.17,-538.49 425.88,-544.43"/>
</g>
<!-- argentumL -->
<g id="node6" class="node">
<title>argentumL</title>
<text text-anchor="start" x="119.5" y="-449.8" font-family="Times New Roman,serif" font-weight="bold" font-size="14.00">Latin</text>
<text text-anchor="start" x="110" y="-435.8" font-family="Times New Roman,serif" font-size="14.00" fill="red">argentum</text>
<text text-anchor="start" x="124" y="-423.4" font-family="Times New Roman,serif" font-size="12.00">silver</text>
</g>
<!-- argentIE&#45;&gt;argentumL -->
<g id="edge5" class="edge">
<title>argentIE&#45;&gt;argentumL</title>
<path fill="none" stroke="black" d="M146.82,-499.75C145.43,-492.2 143.75,-483.07 142.13,-474.28"/>
<polygon fill="black" stroke="black" points="145.53,-473.43 140.28,-464.23 138.65,-474.7 145.53,-473.43"/>
</g>
<!-- argillosG -->
<g id="node18" class="node">
<title>argillosG</title>
<text text-anchor="start" x="223" y="-449.8" font-family="Times New Roman,serif" font-weight="bold" font-size="14.00">Greek</text>
<text text-anchor="start" x="223" y="-435.8" font-family="Times New Roman,serif" font-size="14.00" fill="red">argillos</text>
<text text-anchor="start" x="220" y="-423.4" font-family="Times New Roman,serif" font-size="12.00">white clay</text>
</g>
<!-- argilIE&#45;&gt;argillosG -->
<g id="edge17" class="edge">
<title>argilIE&#45;&gt;argillosG</title>
<path fill="none" stroke="black" d="M243,-499.75C243,-492.2 243,-483.07 243,-474.28"/>
<polygon fill="black" stroke="black" points="246.5,-474.23 243,-464.23 239.5,-474.23 246.5,-474.23"/>
</g>
<!-- argutusL -->
<g id="node9" class="node">
<title>argutusL</title>
<text text-anchor="start" x="315.5" y="-449.8" font-family="Times New Roman,serif" font-weight="bold" font-size="14.00">Latin</text>
<text text-anchor="start" x="311.5" y="-435.8" font-family="Times New Roman,serif" font-size="14.00" fill="red">argutus</text>
<text text-anchor="start" x="306.5" y="-423.4" font-family="Times New Roman,serif" font-size="12.00">transparent</text>
</g>
<!-- arguIE&#45;&gt;argutusL -->
<g id="edge8" class="edge">
<title>arguIE&#45;&gt;argutusL</title>
<path fill="none" stroke="black" d="M332,-499.75C332,-492.2 332,-483.07 332,-474.28"/>
<polygon fill="black" stroke="black" points="335.5,-474.23 332,-464.23 328.5,-474.23 335.5,-474.23"/>
</g>
<!-- argosG -->
<g id="node22" class="node">
<title>argosG</title>
<text text-anchor="start" x="461" y="-449.8" font-family="Times New Roman,serif" font-weight="bold" font-size="14.00">Greek</text>
<text text-anchor="start" x="465.5" y="-435.8" font-family="Times New Roman,serif" font-size="14.00" fill="red">argos</text>
<text text-anchor="start" x="450.5" y="-423.4" font-family="Times New Roman,serif" font-size="12.00">white, shining</text>
</g>
<!-- argro&#45;&gt;argosG -->
<g id="edge21" class="edge">
<title>argro&#45;&gt;argosG</title>
<path fill="none" stroke="black" d="M464.77,-499.75C466.88,-492.12 469.43,-482.87 471.88,-473.99"/>
<polygon fill="black" stroke="black" points="475.29,-474.8 474.58,-464.23 468.54,-472.94 475.29,-474.8"/>
</g>
<!-- argentE -->
<g id="node7" class="node">
<title>argentE</title>
<text text-anchor="start" x="10.5" y="-63.8" font-family="Times New Roman,serif" font-weight="bold" font-size="14.00">Modern</text>
<text text-anchor="start" x="12" y="-49.8" font-family="Times New Roman,serif" font-weight="bold" font-size="14.00">English</text>
<text text-anchor="start" x="18" y="-35.8" font-family="Times New Roman,serif" font-size="14.00" fill="red">argent</text>
<text text-anchor="start" x="10" y="-21.8" font-family="Times New Roman,serif" font-size="14.00" fill="red">argentine</text>
<text text-anchor="start" x="8" y="-7.8" font-family="Times New Roman,serif" font-size="14.00" fill="red">Argentina</text>
</g>
<!-- argentumL&#45;&gt;argentE -->
<g id="edge6" class="edge">
<title>argentumL&#45;&gt;argentE</title>
<path fill="none" stroke="black" stroke-dasharray="5,2" d="M107.06,-415.89C77.21,-389.26 35,-342.48 35,-291 35,-291 35,-291 35,-217 35,-173.51 35,-124.01 35,-88.43"/>
<polygon fill="black" stroke="black" points="38.5,-88.33 35,-78.33 31.5,-88.33 38.5,-88.33"/>
</g>
<!-- agE -->
<g id="node8" class="node">
<title>agE</title>
<text text-anchor="start" x="111.5" y="-55.8" font-family="Times New Roman,serif" font-weight="bold" font-size="14.00">Modern</text>
<text text-anchor="start" x="113" y="-41.8" font-family="Times New Roman,serif" font-weight="bold" font-size="14.00">English</text>
<text text-anchor="start" x="104" y="-27.8" font-family="Times New Roman,serif" font-size="14.00" fill="red">Ag </text>
<text text-anchor="start" x="125" y="-27.8" font-family="Times New Roman,serif" font-size="12.00">(chemical</text>
<text text-anchor="start" x="96.5" y="-15.4" font-family="Times New Roman,serif" font-size="12.00">symbol for silver)</text>
</g>
<!-- argentumL&#45;&gt;agE -->
<g id="edge7" class="edge">
<title>argentumL&#45;&gt;agE</title>
<path fill="none" stroke="black" stroke-dasharray="5,2" d="M136,-415.93C136,-386.81 136,-335.19 136,-291 136,-291 136,-291 136,-217 136,-170.01 136,-116.01 136,-80.14"/>
<polygon fill="black" stroke="black" points="139.5,-80.07 136,-70.07 132.5,-80.07 139.5,-80.07"/>
</g>
<!-- arguereL -->
<g id="node10" class="node">
<title>arguereL</title>
<text text-anchor="start" x="311.5" y="-364.8" font-family="Times New Roman,serif" font-size="14.00" fill="red">arguere</text>
<text text-anchor="start" x="301" y="-352.4" font-family="Times New Roman,serif" font-size="12.00">to make clear</text>
</g>
<!-- argutusL&#45;&gt;arguereL -->
<g id="edge9" class="edge">
<title>argutusL&#45;&gt;arguereL</title>
<path fill="none" stroke="black" d="M332,-415.78C332,-407.68 332,-398.52 332,-390.12"/>
<polygon fill="black" stroke="black" points="335.5,-390.04 332,-380.04 328.5,-390.04 335.5,-390.04"/>
</g>
<!-- arguerOF -->
<g id="node11" class="node">
<title>arguerOF</title>
<text text-anchor="start" x="290" y="-221.8" font-family="Times New Roman,serif" font-weight="bold" font-size="14.00">Old French</text>
<text text-anchor="start" x="307.5" y="-207.8" font-family="Times New Roman,serif" font-size="14.00" fill="red">arguer</text>
</g>
<!-- arguereL&#45;&gt;arguerOF -->
<g id="edge10" class="edge">
<title>arguereL&#45;&gt;arguerOF</title>
<path fill="none" stroke="black" d="M331.16,-343.87C329.96,-319.67 327.77,-275.21 326.35,-246.39"/>
<polygon fill="black" stroke="black" points="329.84,-246 325.85,-236.19 322.84,-246.35 329.84,-246"/>
</g>
<!-- argumentumL -->
<g id="node14" class="node">
<title>argumentumL</title>
<text text-anchor="start" x="386.5" y="-286.3" font-family="Times New Roman,serif" font-size="14.00" fill="red">argūmentum</text>
</g>
<!-- arguereL&#45;&gt;argumentumL -->
<g id="edge13" class="edge">
<title>arguereL&#45;&gt;argumentumL</title>
<path fill="none" stroke="black" d="M354,-343.7C365.21,-334.88 379,-324.03 391.15,-314.47"/>
<polygon fill="black" stroke="black" points="393.56,-317.04 399.25,-308.1 389.23,-311.54 393.56,-317.04"/>
</g>
<!-- arguenME -->
<g id="node12" class="node">
<title>arguenME</title>
<text text-anchor="start" x="307.5" y="-149.8" font-family="Times New Roman,serif" font-weight="bold" font-size="14.00">Middle</text>
<text text-anchor="start" x="306" y="-135.8" font-family="Times New Roman,serif" font-weight="bold" font-size="14.00">English</text>
<text text-anchor="start" x="310.5" y="-121.8" font-family="Times New Roman,serif" font-size="14.00" fill="red">arguen</text>
</g>
<!-- arguerOF&#45;&gt;arguenME -->
<g id="edge11" class="edge">
<title>arguerOF&#45;&gt;arguenME</title>
<path fill="none" stroke="black" stroke-dasharray="5,2" d="M325.89,-199.91C326.28,-192.33 326.76,-183.13 327.22,-174.23"/>
<polygon fill="black" stroke="black" points="330.73,-174.22 327.75,-164.05 323.74,-173.85 330.73,-174.22"/>
</g>
<!-- argue -->
<g id="node13" class="node">
<title>argue</title>
<text text-anchor="start" x="310.5" y="-49.8" font-family="Times New Roman,serif" font-weight="bold" font-size="14.00">Modern</text>
<text text-anchor="start" x="312" y="-35.8" font-family="Times New Roman,serif" font-weight="bold" font-size="14.00">English</text>
<text text-anchor="start" x="319.5" y="-21.8" font-family="Times New Roman,serif" font-size="14.00" fill="red">argue</text>
</g>
<!-- arguenME&#45;&gt;argue -->
<g id="edge12" class="edge">
<title>arguenME&#45;&gt;argue</title>
<path fill="none" stroke="black" d="M330.48,-113.78C331.21,-101.88 332.1,-87.34 332.9,-74.32"/>
<polygon fill="black" stroke="black" points="336.4,-74.48 333.51,-64.29 329.41,-74.05 336.4,-74.48"/>
</g>
<!-- argumentOF -->
<g id="node15" class="node">
<title>argumentOF</title>
<text text-anchor="start" x="394" y="-221.8" font-family="Times New Roman,serif" font-weight="bold" font-size="14.00">Old French</text>
<text text-anchor="start" x="403" y="-207.8" font-family="Times New Roman,serif" font-size="14.00" fill="red">argument</text>
</g>
<!-- argumentumL&#45;&gt;argumentOF -->
<g id="edge14" class="edge">
<title>argumentumL&#45;&gt;argumentOF</title>
<path fill="none" stroke="black" d="M422.98,-271.7C423.86,-263.98 424.92,-254.71 425.9,-246.11"/>
<polygon fill="black" stroke="black" points="429.39,-246.44 427.05,-236.1 422.43,-245.64 429.39,-246.44"/>
</g>
<!-- argumentME -->
<g id="node16" class="node">
<title>argumentME</title>
<text text-anchor="start" x="405.5" y="-149.8" font-family="Times New Roman,serif" font-weight="bold" font-size="14.00">Middle</text>
<text text-anchor="start" x="404" y="-135.8" font-family="Times New Roman,serif" font-weight="bold" font-size="14.00">English</text>
<text text-anchor="start" x="401" y="-121.8" font-family="Times New Roman,serif" font-size="14.00" fill="red">argument</text>
</g>
<!-- argumentOF&#45;&gt;argumentME -->
<g id="edge15" class="edge">
<title>argumentOF&#45;&gt;argumentME</title>
<path fill="none" stroke="black" stroke-dasharray="5,2" d="M428.56,-199.91C428.36,-192.33 428.12,-183.13 427.89,-174.23"/>
<polygon fill="black" stroke="black" points="431.38,-173.96 427.62,-164.05 424.39,-174.14 431.38,-173.96"/>
</g>
<!-- argument -->
<g id="node17" class="node">
<title>argument</title>
<text text-anchor="start" x="401.5" y="-49.8" font-family="Times New Roman,serif" font-weight="bold" font-size="14.00">Modern</text>
<text text-anchor="start" x="403" y="-35.8" font-family="Times New Roman,serif" font-weight="bold" font-size="14.00">English</text>
<text text-anchor="start" x="400" y="-21.8" font-family="Times New Roman,serif" font-size="14.00" fill="red">argument</text>
</g>
<!-- argumentME&#45;&gt;argument -->
<g id="edge16" class="edge">
<title>argumentME&#45;&gt;argument</title>
<path fill="none" stroke="black" d="M426.75,-113.78C426.63,-101.88 426.48,-87.34 426.35,-74.32"/>
<polygon fill="black" stroke="black" points="429.85,-74.25 426.25,-64.29 422.85,-74.32 429.85,-74.25"/>
</g>
<!-- argillaL -->
<g id="node19" class="node">
<title>argillaL</title>
<text text-anchor="start" x="226.5" y="-293.8" font-family="Times New Roman,serif" font-weight="bold" font-size="14.00">Latin</text>
<text text-anchor="start" x="226.5" y="-279.8" font-family="Times New Roman,serif" font-size="14.00" fill="red">argilla</text>
</g>
<!-- argillosG&#45;&gt;argillaL -->
<g id="edge18" class="edge">
<title>argillosG&#45;&gt;argillaL</title>
<path fill="none" stroke="black" stroke-dasharray="5,2" d="M243,-415.88C243,-389.61 243,-346.76 243,-318.72"/>
<polygon fill="black" stroke="black" points="246.5,-318.41 243,-308.41 239.5,-318.41 246.5,-318.41"/>
</g>
<!-- argillaME -->
<g id="node20" class="node">
<title>argillaME</title>
<text text-anchor="start" x="221.5" y="-149.8" font-family="Times New Roman,serif" font-weight="bold" font-size="14.00">Middle</text>
<text text-anchor="start" x="220" y="-135.8" font-family="Times New Roman,serif" font-weight="bold" font-size="14.00">English</text>
<text text-anchor="start" x="226.5" y="-121.8" font-family="Times New Roman,serif" font-size="14.00" fill="red">argilla</text>
</g>
<!-- argillaL&#45;&gt;argillaME -->
<g id="edge19" class="edge">
<title>argillaL&#45;&gt;argillaME</title>
<path fill="none" stroke="black" stroke-dasharray="5,2" d="M243,-271.91C243,-248.18 243,-204.74 243,-174.21"/>
<polygon fill="black" stroke="black" points="246.5,-174 243,-164 239.5,-174 246.5,-174"/>
</g>
<!-- argil -->
<g id="node21" class="node">
<title>argil</title>
<text text-anchor="start" x="218.5" y="-63.8" font-family="Times New Roman,serif" font-weight="bold" font-size="14.00">Modern</text>
<text text-anchor="start" x="220" y="-49.8" font-family="Times New Roman,serif" font-weight="bold" font-size="14.00">English</text>
<text text-anchor="start" x="231" y="-35.8" font-family="Times New Roman,serif" font-size="14.00" fill="red">argil</text>
<text text-anchor="start" x="210" y="-21.8" font-family="Times New Roman,serif" font-size="14.00" fill="red">argillaceous</text>
<text text-anchor="start" x="223" y="-7.8" font-family="Times New Roman,serif" font-size="14.00" fill="red">argillite</text>
</g>
<!-- argillaME&#45;&gt;argil -->
<g id="edge20" class="edge">
<title>argillaME&#45;&gt;argil</title>
<path fill="none" stroke="black" d="M243,-113.78C243,-106.03 243,-97.17 243,-88.34"/>
<polygon fill="black" stroke="black" points="246.5,-88.06 243,-78.06 239.5,-88.06 246.5,-88.06"/>
</g>
<!-- argosE -->
<g id="node23" class="node">
<title>argosE</title>
<text text-anchor="start" x="486.5" y="-35.3" font-family="Times New Roman,serif" font-size="14.00" fill="red">Argos, Argo</text>
</g>
<!-- argosG&#45;&gt;argosE -->
<g id="edge22" class="edge">
<title>argosG&#45;&gt;argosE</title>
<path fill="none" stroke="black" stroke-dasharray="5,2" d="M491.56,-415.97C503.71,-387.31 522,-336.59 522,-291 522,-291 522,-291 522,-217 522,-164.04 522,-102.16 522,-67.38"/>
<polygon fill="black" stroke="black" points="525.5,-67.09 522,-57.09 518.5,-67.09 525.5,-67.09"/>
</g>
</g>
</svg>
