<?xml version="1.0" encoding="UTF-8" standalone="no"?>
<!DOCTYPE svg PUBLIC "-//W3C//DTD SVG 1.1//EN"
 "http://www.w3.org/Graphics/SVG/1.1/DTD/svg11.dtd">
<!-- Generated by graphviz version 2.44.1 (20200629.0846)
 -->
<!-- Pages: 1 -->
<svg width="590pt" height="650pt"
 viewBox="0.00 0.00 589.50 650.00" xmlns="http://www.w3.org/2000/svg" xmlns:xlink="http://www.w3.org/1999/xlink">
<g id="graph0" class="graph" transform="scale(1 1) rotate(0) translate(4 646)">
<polygon fill="white" stroke="transparent" points="-4,4 -4,-646 585.5,-646 585.5,4 -4,4"/>
<!-- arg -->
<g id="node1" class="node">
<title>arg</title>
<text text-anchor="start" x="257" y="-623.8" font-family="Times New Roman,serif" font-weight="bold" font-size="14.00">Indo&#45;European</text>
<text text-anchor="start" x="263" y="-592.7" font-family="Times New Roman,serif" font-size="16.00" fill="red">arg&#45;</text>
<text text-anchor="start" x="308.5" y="-605" font-family="Times New Roman,serif" font-size="10.00">to shine,</text>
<text text-anchor="start" x="313.5" y="-594" font-family="Times New Roman,serif" font-size="10.00">white,</text>
<text text-anchor="start" x="315" y="-583" font-family="Times New Roman,serif" font-size="10.00">silver</text>
</g>
<!-- argentIE -->
<g id="node2" class="node">
<title>argentIE</title>
<text text-anchor="start" x="140.5" y="-514.3" font-family="Times New Roman,serif" font-size="14.00" fill="red">arg&#45;ent&#45;</text>
</g>
<!-- arg&#45;&gt;argentIE -->
<g id="edge1" class="edge">
<title>arg&#45;&gt;argentIE</title>
<path fill="none" stroke="black" d="M247.68,-571.86C231.04,-561.6 213.21,-550.6 198.16,-541.31"/>
<polygon fill="black" stroke="black" points="199.99,-538.33 189.64,-536.05 196.31,-544.28 199.99,-538.33"/>
</g>
<!-- argilIE -->
<g id="node3" class="node">
<title>argilIE</title>
<text text-anchor="start" x="234.5" y="-514.3" font-family="Times New Roman,serif" font-size="14.00" fill="red">arg&#45;i&#45;l(l)&#45;</text>
</g>
<!-- arg&#45;&gt;argilIE -->
<g id="edge2" class="edge">
<title>arg&#45;&gt;argilIE</title>
<path fill="none" stroke="black" d="M285.61,-571.62C281.19,-562.88 276.51,-553.62 272.33,-545.35"/>
<polygon fill="black" stroke="black" points="275.33,-543.53 267.69,-536.19 269.08,-546.69 275.33,-543.53"/>
</g>
<!-- arguIE -->
<g id="node4" class="node">
<title>arguIE</title>
<text text-anchor="start" x="331" y="-520.8" font-family="Times New Roman,serif" font-size="14.00" fill="red">arg&#45;u&#45;</text>
<text text-anchor="start" x="317.5" y="-508.4" font-family="Times New Roman,serif" font-size="12.00">brilliant, clear</text>
</g>
<!-- arg&#45;&gt;arguIE -->
<g id="edge3" class="edge">
<title>arg&#45;&gt;arguIE</title>
<path fill="none" stroke="black" d="M320.79,-571.62C325.35,-562.78 330.2,-553.42 334.51,-545.08"/>
<polygon fill="black" stroke="black" points="337.62,-546.68 339.11,-536.19 331.41,-543.46 337.62,-546.68"/>
</g>
<!-- argro -->
<g id="node5" class="node">
<title>argro</title>
<text text-anchor="start" x="434" y="-514.3" font-family="Times New Roman,serif" font-size="14.00" fill="red">ər̥g&#45;ro&#45;, arg&#45;ro&#45;</text>
</g>
<!-- arg&#45;&gt;argro -->
<g id="edge4" class="edge">
<title>arg&#45;&gt;argro</title>
<path fill="none" stroke="black" d="M362.54,-576.06C385.69,-564.41 411.72,-551.33 433,-540.63"/>
<polygon fill="black" stroke="black" points="434.74,-543.67 442.1,-536.05 431.6,-537.41 434.74,-543.67"/>
</g>
<!-- argentumL -->
<g id="node6" class="node">
<title>argentumL</title>
<text text-anchor="start" x="127.5" y="-449.8" font-family="Times New Roman,serif" font-weight="bold" font-size="14.00">Latin</text>
<text text-anchor="start" x="118" y="-435.8" font-family="Times New Roman,serif" font-size="14.00" fill="red">argentum</text>
<text text-anchor="start" x="132" y="-423.4" font-family="Times New Roman,serif" font-size="12.00">silver</text>
</g>
<!-- argentIE&#45;&gt;argentumL -->
<g id="edge5" class="edge">
<title>argentIE&#45;&gt;argentumL</title>
<path fill="none" stroke="black" d="M157.92,-499.75C156.11,-492.12 153.92,-482.87 151.81,-473.99"/>
<polygon fill="black" stroke="black" points="155.21,-473.15 149.5,-464.23 148.4,-474.77 155.21,-473.15"/>
</g>
<!-- argillosG -->
<g id="node18" class="node">
<title>argillosG</title>
<text text-anchor="start" x="239" y="-449.8" font-family="Times New Roman,serif" font-weight="bold" font-size="14.00">Greek</text>
<text text-anchor="start" x="239" y="-435.8" font-family="Times New Roman,serif" font-size="14.00" fill="red">argillos</text>
<text text-anchor="start" x="236" y="-423.4" font-family="Times New Roman,serif" font-size="12.00">white clay</text>
</g>
<!-- argilIE&#45;&gt;argillosG -->
<g id="edge17" class="edge">
<title>argilIE&#45;&gt;argillosG</title>
<path fill="none" stroke="black" d="M259,-499.75C259,-492.2 259,-483.07 259,-474.28"/>
<polygon fill="black" stroke="black" points="262.5,-474.23 259,-464.23 255.5,-474.23 262.5,-474.23"/>
</g>
<!-- argutusL -->
<g id="node9" class="node">
<title>argutusL</title>
<text text-anchor="start" x="331.5" y="-449.8" font-family="Times New Roman,serif" font-weight="bold" font-size="14.00">Latin</text>
<text text-anchor="start" x="327.5" y="-435.8" font-family="Times New Roman,serif" font-size="14.00" fill="red">argutus</text>
<text text-anchor="start" x="322.5" y="-423.4" font-family="Times New Roman,serif" font-size="12.00">transparent</text>
</g>
<!-- arguIE&#45;&gt;argutusL -->
<g id="edge8" class="edge">
<title>arguIE&#45;&gt;argutusL</title>
<path fill="none" stroke="black" d="M348,-499.75C348,-492.2 348,-483.07 348,-474.28"/>
<polygon fill="black" stroke="black" points="351.5,-474.23 348,-464.23 344.5,-474.23 351.5,-474.23"/>
</g>
<!-- argosG -->
<g id="node22" class="node">
<title>argosG</title>
<text text-anchor="start" x="477" y="-449.8" font-family="Times New Roman,serif" font-weight="bold" font-size="14.00">Greek</text>
<text text-anchor="start" x="481.5" y="-435.8" font-family="Times New Roman,serif" font-size="14.00" fill="red">argos</text>
<text text-anchor="start" x="466.5" y="-423.4" font-family="Times New Roman,serif" font-size="12.00">white, shining</text>
</g>
<!-- argro&#45;&gt;argosG -->
<g id="edge21" class="edge">
<title>argro&#45;&gt;argosG</title>
<path fill="none" stroke="black" d="M480.77,-499.75C482.88,-492.12 485.43,-482.87 487.88,-473.99"/>
<polygon fill="black" stroke="black" points="491.29,-474.8 490.58,-464.23 484.54,-472.94 491.29,-474.8"/>
</g>
<!-- argentE -->
<g id="node7" class="node">
<title>argentE</title>
<text text-anchor="start" x="10.5" y="-63.8" font-family="Times New Roman,serif" font-weight="bold" font-size="14.00">Modern</text>
<text text-anchor="start" x="12" y="-49.8" font-family="Times New Roman,serif" font-weight="bold" font-size="14.00">English</text>
<text text-anchor="start" x="18" y="-35.8" font-family="Times New Roman,serif" font-size="14.00" fill="red">argent</text>
<text text-anchor="start" x="10" y="-21.8" font-family="Times New Roman,serif" font-size="14.00" fill="red">argentine</text>
<text text-anchor="start" x="8" y="-7.8" font-family="Times New Roman,serif" font-size="14.00" fill="red">Argentina</text>
</g>
<!-- argentumL&#45;&gt;argentE -->
<g id="edge6" class="edge">
<title>argentumL&#45;&gt;argentE</title>
<path fill="none" stroke="black" stroke-dasharray="1,5" d="M112.18,-415.91C80.01,-389.63 35,-343.49 35,-291 35,-291 35,-291 35,-217 35,-173.51 35,-124.01 35,-88.43"/>
<polygon fill="black" stroke="black" points="38.5,-88.33 35,-78.33 31.5,-88.33 38.5,-88.33"/>
</g>
<!-- agE -->
<g id="node8" class="node">
<title>agE</title>
<text text-anchor="start" x="119.5" y="-56.8" font-family="Times New Roman,serif" font-weight="bold" font-size="14.00">Modern</text>
<text text-anchor="start" x="121" y="-42.8" font-family="Times New Roman,serif" font-weight="bold" font-size="14.00">English</text>
<text text-anchor="start" x="106.5" y="-28.8" font-family="Times New Roman,serif" font-size="14.00" fill="red">Ag </text>
<text text-anchor="start" x="127.5" y="-28.8" font-family="Times New Roman,serif" font-size="14.00">(chemical</text>
<text text-anchor="start" x="96.5" y="-14.8" font-family="Times New Roman,serif" font-size="14.00">symbol for silver</text>
</g>
<!-- argentumL&#45;&gt;agE -->
<g id="edge7" class="edge">
<title>argentumL&#45;&gt;agE</title>
<path fill="none" stroke="black" stroke-dasharray="1,5" d="M144,-415.93C144,-386.81 144,-335.19 144,-291 144,-291 144,-291 144,-217 144,-170.43 144,-116.97 144,-81.1"/>
<polygon fill="black" stroke="black" points="147.5,-81.01 144,-71.01 140.5,-81.01 147.5,-81.01"/>
</g>
<!-- arguereL -->
<g id="node10" class="node">
<title>arguereL</title>
<text text-anchor="start" x="327.5" y="-364.8" font-family="Times New Roman,serif" font-size="14.00" fill="red">arguere</text>
<text text-anchor="start" x="317" y="-352.4" font-family="Times New Roman,serif" font-size="12.00">to make clear</text>
</g>
<!-- argutusL&#45;&gt;arguereL -->
<g id="edge9" class="edge">
<title>argutusL&#45;&gt;arguereL</title>
<path fill="none" stroke="black" d="M348,-415.78C348,-407.68 348,-398.52 348,-390.12"/>
<polygon fill="black" stroke="black" points="351.5,-390.04 348,-380.04 344.5,-390.04 351.5,-390.04"/>
</g>
<!-- arguerOF -->
<g id="node11" class="node">
<title>arguerOF</title>
<text text-anchor="start" x="306" y="-221.8" font-family="Times New Roman,serif" font-weight="bold" font-size="14.00">Old French</text>
<text text-anchor="start" x="323.5" y="-207.8" font-family="Times New Roman,serif" font-size="14.00" fill="red">arguer</text>
</g>
<!-- arguereL&#45;&gt;arguerOF -->
<g id="edge10" class="edge">
<title>arguereL&#45;&gt;arguerOF</title>
<path fill="none" stroke="black" d="M347.16,-343.87C345.96,-319.67 343.77,-275.21 342.35,-246.39"/>
<polygon fill="black" stroke="black" points="345.84,-246 341.85,-236.19 338.84,-246.35 345.84,-246"/>
</g>
<!-- argumentumL -->
<g id="node14" class="node">
<title>argumentumL</title>
<text text-anchor="start" x="402.5" y="-286.3" font-family="Times New Roman,serif" font-size="14.00" fill="red">argūmentum</text>
</g>
<!-- arguereL&#45;&gt;argumentumL -->
<g id="edge13" class="edge">
<title>arguereL&#45;&gt;argumentumL</title>
<path fill="none" stroke="black" d="M370,-343.7C381.21,-334.88 395,-324.03 407.15,-314.47"/>
<polygon fill="black" stroke="black" points="409.56,-317.04 415.25,-308.1 405.23,-311.54 409.56,-317.04"/>
</g>
<!-- arguenME -->
<g id="node12" class="node">
<title>arguenME</title>
<text text-anchor="start" x="323.5" y="-149.8" font-family="Times New Roman,serif" font-weight="bold" font-size="14.00">Middle</text>
<text text-anchor="start" x="322" y="-135.8" font-family="Times New Roman,serif" font-weight="bold" font-size="14.00">English</text>
<text text-anchor="start" x="326.5" y="-121.8" font-family="Times New Roman,serif" font-size="14.00" fill="red">arguen</text>
</g>
<!-- arguerOF&#45;&gt;arguenME -->
<g id="edge11" class="edge">
<title>arguerOF&#45;&gt;arguenME</title>
<path fill="none" stroke="black" stroke-dasharray="1,5" d="M341.89,-199.91C342.28,-192.33 342.76,-183.13 343.22,-174.23"/>
<polygon fill="black" stroke="black" points="346.73,-174.22 343.75,-164.05 339.74,-173.85 346.73,-174.22"/>
</g>
<!-- argue -->
<g id="node13" class="node">
<title>argue</title>
<text text-anchor="start" x="326.5" y="-49.8" font-family="Times New Roman,serif" font-weight="bold" font-size="14.00">Modern</text>
<text text-anchor="start" x="328" y="-35.8" font-family="Times New Roman,serif" font-weight="bold" font-size="14.00">English</text>
<text text-anchor="start" x="335.5" y="-21.8" font-family="Times New Roman,serif" font-size="14.00" fill="red">argue</text>
</g>
<!-- arguenME&#45;&gt;argue -->
<g id="edge12" class="edge">
<title>arguenME&#45;&gt;argue</title>
<path fill="none" stroke="black" d="M346.48,-113.78C347.21,-101.88 348.1,-87.34 348.9,-74.32"/>
<polygon fill="black" stroke="black" points="352.4,-74.48 349.51,-64.29 345.41,-74.05 352.4,-74.48"/>
</g>
<!-- argumentOF -->
<g id="node15" class="node">
<title>argumentOF</title>
<text text-anchor="start" x="410" y="-221.8" font-family="Times New Roman,serif" font-weight="bold" font-size="14.00">Old French</text>
<text text-anchor="start" x="419" y="-207.8" font-family="Times New Roman,serif" font-size="14.00" fill="red">argument</text>
</g>
<!-- argumentumL&#45;&gt;argumentOF -->
<g id="edge14" class="edge">
<title>argumentumL&#45;&gt;argumentOF</title>
<path fill="none" stroke="black" d="M438.98,-271.7C439.86,-263.98 440.92,-254.71 441.9,-246.11"/>
<polygon fill="black" stroke="black" points="445.39,-246.44 443.05,-236.1 438.43,-245.64 445.39,-246.44"/>
</g>
<!-- argumentME -->
<g id="node16" class="node">
<title>argumentME</title>
<text text-anchor="start" x="421.5" y="-149.8" font-family="Times New Roman,serif" font-weight="bold" font-size="14.00">Middle</text>
<text text-anchor="start" x="420" y="-135.8" font-family="Times New Roman,serif" font-weight="bold" font-size="14.00">English</text>
<text text-anchor="start" x="417" y="-121.8" font-family="Times New Roman,serif" font-size="14.00" fill="red">argument</text>
</g>
<!-- argumentOF&#45;&gt;argumentME -->
<g id="edge15" class="edge">
<title>argumentOF&#45;&gt;argumentME</title>
<path fill="none" stroke="black" stroke-dasharray="1,5" d="M444.56,-199.91C444.36,-192.33 444.12,-183.13 443.89,-174.23"/>
<polygon fill="black" stroke="black" points="447.38,-173.96 443.62,-164.05 440.39,-174.14 447.38,-173.96"/>
</g>
<!-- argument -->
<g id="node17" class="node">
<title>argument</title>
<text text-anchor="start" x="417.5" y="-49.8" font-family="Times New Roman,serif" font-weight="bold" font-size="14.00">Modern</text>
<text text-anchor="start" x="419" y="-35.8" font-family="Times New Roman,serif" font-weight="bold" font-size="14.00">English</text>
<text text-anchor="start" x="416" y="-21.8" font-family="Times New Roman,serif" font-size="14.00" fill="red">argument</text>
</g>
<!-- argumentME&#45;&gt;argument -->
<g id="edge16" class="edge">
<title>argumentME&#45;&gt;argument</title>
<path fill="none" stroke="black" d="M442.75,-113.78C442.63,-101.88 442.48,-87.34 442.35,-74.32"/>
<polygon fill="black" stroke="black" points="445.85,-74.25 442.25,-64.29 438.85,-74.32 445.85,-74.25"/>
</g>
<!-- argillaL -->
<g id="node19" class="node">
<title>argillaL</title>
<text text-anchor="start" x="242.5" y="-293.8" font-family="Times New Roman,serif" font-weight="bold" font-size="14.00">Latin</text>
<text text-anchor="start" x="242.5" y="-279.8" font-family="Times New Roman,serif" font-size="14.00" fill="red">argilla</text>
</g>
<!-- argillosG&#45;&gt;argillaL -->
<g id="edge18" class="edge">
<title>argillosG&#45;&gt;argillaL</title>
<path fill="none" stroke="black" stroke-dasharray="1,5" d="M259,-415.88C259,-389.61 259,-346.76 259,-318.72"/>
<polygon fill="black" stroke="black" points="262.5,-318.41 259,-308.41 255.5,-318.41 262.5,-318.41"/>
</g>
<!-- argillaME -->
<g id="node20" class="node">
<title>argillaME</title>
<text text-anchor="start" x="237.5" y="-149.8" font-family="Times New Roman,serif" font-weight="bold" font-size="14.00">Middle</text>
<text text-anchor="start" x="236" y="-135.8" font-family="Times New Roman,serif" font-weight="bold" font-size="14.00">English</text>
<text text-anchor="start" x="242.5" y="-121.8" font-family="Times New Roman,serif" font-size="14.00" fill="red">argilla</text>
</g>
<!-- argillaL&#45;&gt;argillaME -->
<g id="edge19" class="edge">
<title>argillaL&#45;&gt;argillaME</title>
<path fill="none" stroke="black" stroke-dasharray="1,5" d="M259,-271.91C259,-248.18 259,-204.74 259,-174.21"/>
<polygon fill="black" stroke="black" points="262.5,-174 259,-164 255.5,-174 262.5,-174"/>
</g>
<!-- argil -->
<g id="node21" class="node">
<title>argil</title>
<text text-anchor="start" x="234.5" y="-63.8" font-family="Times New Roman,serif" font-weight="bold" font-size="14.00">Modern</text>
<text text-anchor="start" x="236" y="-49.8" font-family="Times New Roman,serif" font-weight="bold" font-size="14.00">English</text>
<text text-anchor="start" x="247" y="-35.8" font-family="Times New Roman,serif" font-size="14.00" fill="red">argil</text>
<text text-anchor="start" x="226" y="-21.8" font-family="Times New Roman,serif" font-size="14.00" fill="red">argillaceous</text>
<text text-anchor="start" x="239" y="-7.8" font-family="Times New Roman,serif" font-size="14.00" fill="red">argillite</text>
</g>
<!-- argillaME&#45;&gt;argil -->
<g id="edge20" class="edge">
<title>argillaME&#45;&gt;argil</title>
<path fill="none" stroke="black" d="M259,-113.78C259,-106.03 259,-97.17 259,-88.34"/>
<polygon fill="black" stroke="black" points="262.5,-88.06 259,-78.06 255.5,-88.06 262.5,-88.06"/>
</g>
<!-- argosE -->
<g id="node23" class="node">
<title>argosE</title>
<text text-anchor="start" x="502.5" y="-35.3" font-family="Times New Roman,serif" font-size="14.00" fill="red">Argos, Argo</text>
</g>
<!-- argosG&#45;&gt;argosE -->
<g id="edge22" class="edge">
<title>argosG&#45;&gt;argosE</title>
<path fill="none" stroke="black" stroke-dasharray="1,5" d="M507.56,-415.97C519.71,-387.31 538,-336.59 538,-291 538,-291 538,-291 538,-217 538,-164.04 538,-102.16 538,-67.38"/>
<polygon fill="black" stroke="black" points="541.5,-67.09 538,-57.09 534.5,-67.09 541.5,-67.09"/>
</g>
</g>
</svg>
