<?xml version="1.0" encoding="UTF-8" standalone="no"?>
<!DOCTYPE svg PUBLIC "-//W3C//DTD SVG 1.1//EN"
 "http://www.w3.org/Graphics/SVG/1.1/DTD/svg11.dtd">
<!-- Generated by graphviz version 2.49.0 (20210828.1703)
 -->
<!-- Pages: 1 -->
<svg width="931pt" height="696pt"
 viewBox="0.00 0.00 931.00 696.00" xmlns="http://www.w3.org/2000/svg" xmlns:xlink="http://www.w3.org/1999/xlink">
<g id="graph0" class="graph" transform="scale(1 1) rotate(0) translate(4 692)">
<polygon fill="white" stroke="transparent" points="-4,4 -4,-692 927,-692 927,4 -4,4"/>
<!-- ausIE -->
<g id="node1" class="node">
<title>ausIE</title>
<g id="a_node1"><a xlink:title="Indo&#45;European &quot;*aus&#45;&quot; to shine, dawn">
<polygon fill="none" stroke="black" points="709,-684 498,-684 498,-580 709,-580 709,-684"/>
<polygon fill="none" stroke="black" points="713,-688 494,-688 494,-576 713,-576 713,-688"/>
<text text-anchor="start" x="525.5" y="-639.8" font-family="Times New Roman,serif" font-weight="bold" font-size="24.00">Indo&#45;European</text>
<text text-anchor="start" x="530" y="-611.6" font-family="Times New Roman,serif" font-size="18.00" fill="red">*aus&#45;</text>
<text text-anchor="start" x="587.5" y="-612.2" font-family="Times New Roman,serif" font-size="16.00">to shine, dawn</text>
</a>
</g>
</g>
<!-- austGm -->
<g id="node2" class="node">
<title>austGm</title>
<text text-anchor="start" x="113" y="-513.8" font-family="Times New Roman,serif" font-weight="bold" font-size="14.00">Germanic</text>
<text text-anchor="start" x="126.5" y="-499.8" font-family="Times New Roman,serif" font-size="14.00" fill="red">*aust&#45;</text>
<text text-anchor="start" x="119" y="-487.4" font-family="Times New Roman,serif" font-size="12.00">dawn, east</text>
</g>
<!-- ausIE&#45;&gt;austGm -->
<g id="edge1" class="edge">
<title>ausIE&#45;&gt;austGm</title>
<path fill="none" stroke="black" d="M493.8,-616.86C410.49,-603.64 294.33,-579.83 198.5,-540 193.79,-538.04 189.03,-535.69 184.39,-533.14"/>
<polygon fill="black" stroke="black" points="186.05,-530.05 175.64,-528.04 182.52,-536.1 186.05,-530.05"/>
</g>
<!-- austraGm -->
<g id="node6" class="node">
<title>austraGm</title>
<text text-anchor="start" x="422" y="-410.8" font-family="Times New Roman,serif" font-weight="bold" font-size="14.00">Germanic</text>
<text text-anchor="start" x="430" y="-396.8" font-family="Times New Roman,serif" font-size="14.00" fill="red">*austra&#45;</text>
</g>
<!-- ausIE&#45;&gt;austraGm -->
<g id="edge5" class="edge">
<title>ausIE&#45;&gt;austraGm</title>
<path fill="none" stroke="black" d="M539.59,-575.91C528.71,-564.72 518.15,-552.52 509.5,-540 486.6,-506.86 469.92,-463.04 460.72,-435.18"/>
<polygon fill="black" stroke="black" points="463.95,-433.8 457.56,-425.34 457.28,-435.93 463.95,-433.8"/>
</g>
<!-- austronGm -->
<g id="node15" class="node">
<title>austronGm</title>
<text text-anchor="start" x="527" y="-525.8" font-family="Times New Roman,serif" font-weight="bold" font-size="14.00">Germanic</text>
<text text-anchor="start" x="529" y="-511.8" font-family="Times New Roman,serif" font-size="14.00" fill="red">*Austrōn&#45;</text>
<text text-anchor="start" x="543.5" y="-499.4" font-family="Times New Roman,serif" font-size="12.00">dawn,</text>
<text text-anchor="start" x="538.5" y="-487.4" font-family="Times New Roman,serif" font-size="12.00">goddess</text>
<text text-anchor="start" x="530.5" y="-475.4" font-family="Times New Roman,serif" font-size="12.00">of the dawn</text>
</g>
<!-- ausIE&#45;&gt;austronGm -->
<g id="edge14" class="edge">
<title>ausIE&#45;&gt;austronGm</title>
<path fill="none" stroke="black" d="M583.32,-575.73C580.17,-567.08 576.94,-558.24 573.88,-549.86"/>
<polygon fill="black" stroke="black" points="577.1,-548.47 570.38,-540.28 570.52,-550.87 577.1,-548.47"/>
</g>
<!-- auroraL -->
<g id="node19" class="node">
<title>auroraL</title>
<text text-anchor="start" x="633" y="-525.8" font-family="Times New Roman,serif" font-weight="bold" font-size="14.00">Latin</text>
<text text-anchor="start" x="629.5" y="-511.8" font-family="Times New Roman,serif" font-size="14.00" fill="red">Aurōra</text>
<text text-anchor="start" x="635.5" y="-499.4" font-family="Times New Roman,serif" font-size="12.00">dawn,</text>
<text text-anchor="start" x="630.5" y="-487.4" font-family="Times New Roman,serif" font-size="12.00">goddess</text>
<text text-anchor="start" x="622.5" y="-475.4" font-family="Times New Roman,serif" font-size="12.00">of the dawn</text>
</g>
<!-- ausIE&#45;&gt;auroraL -->
<g id="edge18" class="edge">
<title>ausIE&#45;&gt;auroraL</title>
<path fill="none" stroke="black" d="M623.68,-575.73C626.83,-567.08 630.06,-558.24 633.12,-549.86"/>
<polygon fill="black" stroke="black" points="636.48,-550.87 636.62,-540.28 629.9,-548.47 636.48,-550.87"/>
</g>
<!-- eosG -->
<g id="node22" class="node">
<title>eosG</title>
<text text-anchor="start" x="704.5" y="-159.8" font-family="Times New Roman,serif" font-weight="bold" font-size="14.00">Greek</text>
<text text-anchor="start" x="714.5" y="-145.8" font-family="Times New Roman,serif" font-size="14.00" fill="red">ēōs</text>
<text text-anchor="start" x="712" y="-133.4" font-family="Times New Roman,serif" font-size="12.00">dawn</text>
<text text-anchor="start" x="713.5" y="-119.8" font-family="Times New Roman,serif" font-size="14.00" fill="red">Ēōs</text>
<text text-anchor="start" x="677.5" y="-107.4" font-family="Times New Roman,serif" font-size="12.00">goddess of the dawn</text>
</g>
<!-- ausIE&#45;&gt;eosG -->
<g id="edge21" class="edge">
<title>ausIE&#45;&gt;eosG</title>
<path fill="none" stroke="black" d="M667.52,-575.81C677.4,-564.8 686.6,-552.69 693.5,-540 722.2,-487.23 722.5,-468.07 722.5,-408 722.5,-408 722.5,-408 722.5,-320 722.5,-273.98 723.15,-221.43 723.71,-184.66"/>
<polygon fill="black" stroke="black" points="727.21,-184.31 723.87,-174.26 720.21,-184.2 727.21,-184.31"/>
</g>
<!-- austerL -->
<g id="node25" class="node">
<title>austerL</title>
<text text-anchor="start" x="850" y="-146.8" font-family="Times New Roman,serif" font-weight="bold" font-size="14.00">Latin</text>
<text text-anchor="start" x="830" y="-132.8" font-family="Times New Roman,serif" font-size="14.00" fill="red">auster, austr&#45;</text>
<text text-anchor="start" x="842" y="-120.4" font-family="Times New Roman,serif" font-size="12.00">south wind</text>
</g>
<!-- ausIE&#45;&gt;austerL -->
<g id="edge24" class="edge">
<title>ausIE&#45;&gt;austerL</title>
<path fill="none" stroke="black" d="M706.12,-575.9C762.66,-537.39 821.5,-480.01 821.5,-408 821.5,-408 821.5,-408 821.5,-320 821.5,-266.45 840.09,-206.55 853.37,-170.59"/>
<polygon fill="black" stroke="black" points="856.69,-171.7 856.96,-161.11 850.15,-169.22 856.69,-171.7"/>
</g>
<!-- eastOE -->
<g id="node3" class="node">
<title>eastOE</title>
<text text-anchor="start" x="8" y="-410.8" font-family="Times New Roman,serif" font-weight="bold" font-size="14.00">Old English</text>
<text text-anchor="start" x="33.5" y="-396.8" font-family="Times New Roman,serif" font-size="14.00" fill="red">ēast</text>
</g>
<!-- austGm&#45;&gt;eastOE -->
<g id="edge2" class="edge">
<title>austGm&#45;&gt;eastOE</title>
<path fill="none" stroke="black" d="M119.28,-479.76C104.27,-465.35 85.01,-446.88 69.8,-432.28"/>
<polygon fill="black" stroke="black" points="71.9,-429.44 62.26,-425.04 67.05,-434.49 71.9,-429.44"/>
</g>
<!-- ostanOHG -->
<g id="node27" class="node">
<title>ostanOHG</title>
<text text-anchor="start" x="115.5" y="-417.8" font-family="Times New Roman,serif" font-weight="bold" font-size="14.00">Old High</text>
<text text-anchor="start" x="118" y="-403.8" font-family="Times New Roman,serif" font-weight="bold" font-size="14.00">German</text>
<text text-anchor="start" x="128" y="-389.8" font-family="Times New Roman,serif" font-size="14.00" fill="red">ōstan</text>
</g>
<!-- austGm&#45;&gt;ostanOHG -->
<g id="edge26" class="edge">
<title>austGm&#45;&gt;ostanOHG</title>
<path fill="none" stroke="black" d="M143.5,-479.52C143.5,-468.27 143.5,-454.59 143.5,-442.21"/>
<polygon fill="black" stroke="black" points="147,-442.2 143.5,-432.2 140,-442.2 147,-442.2"/>
</g>
<!-- eastME -->
<g id="node4" class="node">
<title>eastME</title>
<text text-anchor="start" x="23" y="-147.8" font-family="Times New Roman,serif" font-weight="bold" font-size="14.00">Middle</text>
<text text-anchor="start" x="21.5" y="-133.8" font-family="Times New Roman,serif" font-weight="bold" font-size="14.00">English</text>
<text text-anchor="start" x="33.5" y="-119.8" font-family="Times New Roman,serif" font-size="14.00" fill="red">east</text>
</g>
<!-- eastOE&#45;&gt;eastME -->
<g id="edge3" class="edge">
<title>eastOE&#45;&gt;eastME</title>
<path fill="none" stroke="black" d="M44.5,-388.83C44.5,-345.32 44.5,-230.13 44.5,-172.24"/>
<polygon fill="black" stroke="black" points="48,-172.12 44.5,-162.12 41,-172.12 48,-172.12"/>
</g>
<!-- east -->
<g id="node5" class="node">
<title>east</title>
<text text-anchor="start" x="20" y="-42.8" font-family="Times New Roman,serif" font-weight="bold" font-size="14.00">Modern</text>
<text text-anchor="start" x="21.5" y="-28.8" font-family="Times New Roman,serif" font-weight="bold" font-size="14.00">English</text>
<text text-anchor="start" x="33.5" y="-14.8" font-family="Times New Roman,serif" font-size="14.00" fill="red">east</text>
</g>
<!-- eastME&#45;&gt;east -->
<g id="edge4" class="edge">
<title>eastME&#45;&gt;east</title>
<path fill="none" stroke="black" d="M44.5,-111.85C44.5,-98.65 44.5,-82.06 44.5,-67.51"/>
<polygon fill="black" stroke="black" points="48,-67.35 44.5,-57.35 41,-67.35 48,-67.35"/>
</g>
<!-- easterneOE -->
<g id="node7" class="node">
<title>easterneOE</title>
<text text-anchor="start" x="326" y="-324.8" font-family="Times New Roman,serif" font-weight="bold" font-size="14.00">Old English</text>
<text text-anchor="start" x="339.5" y="-310.8" font-family="Times New Roman,serif" font-size="14.00" fill="red">ēasterne</text>
</g>
<!-- austraGm&#45;&gt;easterneOE -->
<g id="edge6" class="edge">
<title>austraGm&#45;&gt;easterneOE</title>
<path fill="none" stroke="black" d="M433.85,-388.6C420.73,-376.35 403,-359.8 388.49,-346.26"/>
<polygon fill="black" stroke="black" points="390.51,-343.36 380.82,-339.1 385.74,-348.48 390.51,-343.36"/>
</g>
<!-- ostroL -->
<g id="node10" class="node">
<title>ostroL</title>
<text text-anchor="start" x="436" y="-330.8" font-family="Times New Roman,serif" font-weight="bold" font-size="14.00">Latin</text>
<text text-anchor="start" x="435.5" y="-316.8" font-family="Times New Roman,serif" font-size="14.00" fill="red">ostro&#45;</text>
<text text-anchor="start" x="436" y="-304.4" font-family="Times New Roman,serif" font-size="12.00">eastern</text>
</g>
<!-- austraGm&#45;&gt;ostroL -->
<g id="edge9" class="edge">
<title>austraGm&#45;&gt;ostroL</title>
<path fill="none" stroke="black" d="M452.5,-388.6C452.5,-378.96 452.5,-366.65 452.5,-355.24"/>
<polygon fill="black" stroke="black" points="456,-355.12 452.5,-345.12 449,-355.12 456,-355.12"/>
</g>
<!-- esternME -->
<g id="node8" class="node">
<title>esternME</title>
<text text-anchor="start" x="341" y="-147.8" font-family="Times New Roman,serif" font-weight="bold" font-size="14.00">Middle</text>
<text text-anchor="start" x="339.5" y="-133.8" font-family="Times New Roman,serif" font-weight="bold" font-size="14.00">English</text>
<text text-anchor="start" x="345.5" y="-119.8" font-family="Times New Roman,serif" font-size="14.00" fill="red">estern</text>
</g>
<!-- easterneOE&#45;&gt;esternME -->
<g id="edge7" class="edge">
<title>easterneOE&#45;&gt;esternME</title>
<path fill="none" stroke="black" d="M362.5,-302.88C362.5,-273.11 362.5,-211.29 362.5,-172.38"/>
<polygon fill="black" stroke="black" points="366,-172.06 362.5,-162.06 359,-172.06 366,-172.06"/>
</g>
<!-- eastern -->
<g id="node9" class="node">
<title>eastern</title>
<text text-anchor="start" x="338" y="-42.8" font-family="Times New Roman,serif" font-weight="bold" font-size="14.00">Modern</text>
<text text-anchor="start" x="339.5" y="-28.8" font-family="Times New Roman,serif" font-weight="bold" font-size="14.00">English</text>
<text text-anchor="start" x="342.5" y="-14.8" font-family="Times New Roman,serif" font-size="14.00" fill="red">eastern</text>
</g>
<!-- esternME&#45;&gt;eastern -->
<g id="edge8" class="edge">
<title>esternME&#45;&gt;eastern</title>
<path fill="none" stroke="black" d="M362.5,-111.85C362.5,-98.65 362.5,-82.06 362.5,-67.51"/>
<polygon fill="black" stroke="black" points="366,-67.35 362.5,-57.35 359,-67.35 366,-67.35"/>
</g>
<!-- ostrogothiL -->
<g id="node12" class="node">
<title>ostrogothiL</title>
<text text-anchor="start" x="429.5" y="-231.3" font-family="Times New Roman,serif" font-size="14.00" fill="red">Ostrogothī</text>
</g>
<!-- ostroL&#45;&gt;ostrogothiL -->
<g id="edge10" class="edge">
<title>ostroL&#45;&gt;ostrogothiL</title>
<path fill="none" stroke="black" d="M454.73,-296.6C455.71,-286.26 456.88,-274.04 457.9,-263.28"/>
<polygon fill="black" stroke="black" points="461.4,-263.43 458.87,-253.15 454.43,-262.77 461.4,-263.43"/>
</g>
<!-- gothiL -->
<g id="node11" class="node">
<title>gothiL</title>
<text text-anchor="start" x="508" y="-330.8" font-family="Times New Roman,serif" font-weight="bold" font-size="14.00">Latin</text>
<text text-anchor="start" x="507.5" y="-316.8" font-family="Times New Roman,serif" font-size="14.00" fill="red">Gothī</text>
<text text-anchor="start" x="510.5" y="-304.4" font-family="Times New Roman,serif" font-size="12.00">Goths</text>
</g>
<!-- gothiL&#45;&gt;ostrogothiL -->
<g id="edge11" class="edge">
<title>gothiL&#45;&gt;ostrogothiL</title>
<path fill="none" stroke="black" d="M506.67,-296.6C498.3,-285.62 488.31,-272.5 479.77,-261.29"/>
<polygon fill="black" stroke="black" points="482.41,-258.98 473.56,-253.15 476.84,-263.22 482.41,-258.98"/>
</g>
<!-- ostrogotesME -->
<g id="node13" class="node">
<title>ostrogotesME</title>
<text text-anchor="start" x="439" y="-147.8" font-family="Times New Roman,serif" font-weight="bold" font-size="14.00">Middle</text>
<text text-anchor="start" x="437.5" y="-133.8" font-family="Times New Roman,serif" font-weight="bold" font-size="14.00">English</text>
<text text-anchor="start" x="429" y="-119.8" font-family="Times New Roman,serif" font-size="14.00" fill="red">Ostrogotes</text>
</g>
<!-- ostrogothiL&#45;&gt;ostrogotesME -->
<g id="edge12" class="edge">
<title>ostrogothiL&#45;&gt;ostrogotesME</title>
<path fill="none" stroke="black" stroke-dasharray="5,2" d="M460.5,-216.84C460.5,-204.48 460.5,-187.39 460.5,-172.29"/>
<polygon fill="black" stroke="black" points="464,-172.23 460.5,-162.23 457,-172.23 464,-172.23"/>
</g>
<!-- ostrogoth -->
<g id="node14" class="node">
<title>ostrogoth</title>
<text text-anchor="start" x="436" y="-42.8" font-family="Times New Roman,serif" font-weight="bold" font-size="14.00">Modern</text>
<text text-anchor="start" x="437.5" y="-28.8" font-family="Times New Roman,serif" font-weight="bold" font-size="14.00">English</text>
<text text-anchor="start" x="431.5" y="-14.8" font-family="Times New Roman,serif" font-size="14.00" fill="red">Ostrogoth</text>
</g>
<!-- ostrogotesME&#45;&gt;ostrogoth -->
<g id="edge13" class="edge">
<title>ostrogotesME&#45;&gt;ostrogoth</title>
<path fill="none" stroke="black" d="M460.5,-111.85C460.5,-98.65 460.5,-82.06 460.5,-67.51"/>
<polygon fill="black" stroke="black" points="464,-67.35 460.5,-57.35 457,-67.35 464,-67.35"/>
</g>
<!-- eastreOE -->
<g id="node16" class="node">
<title>eastreOE</title>
<text text-anchor="start" x="530" y="-416.8" font-family="Times New Roman,serif" font-weight="bold" font-size="14.00">Old English</text>
<text text-anchor="start" x="549" y="-402.8" font-family="Times New Roman,serif" font-size="14.00" fill="red">Ēastre</text>
<text text-anchor="start" x="552" y="-390.4" font-family="Times New Roman,serif" font-size="12.00">Easter</text>
</g>
<!-- austronGm&#45;&gt;eastreOE -->
<g id="edge15" class="edge">
<title>austronGm&#45;&gt;eastreOE</title>
<path fill="none" stroke="black" d="M560.83,-467.9C561.65,-459.18 562.53,-449.86 563.35,-441.24"/>
<polygon fill="black" stroke="black" points="566.85,-441.43 564.31,-431.14 559.88,-440.77 566.85,-441.43"/>
</g>
<!-- esterME -->
<g id="node17" class="node">
<title>esterME</title>
<text text-anchor="start" x="544" y="-245.8" font-family="Times New Roman,serif" font-weight="bold" font-size="14.00">Middle</text>
<text text-anchor="start" x="542.5" y="-231.8" font-family="Times New Roman,serif" font-weight="bold" font-size="14.00">English</text>
<text text-anchor="start" x="551" y="-217.8" font-family="Times New Roman,serif" font-size="14.00" fill="red">Ester</text>
</g>
<!-- eastreOE&#45;&gt;esterME -->
<g id="edge16" class="edge">
<title>eastreOE&#45;&gt;esterME</title>
<path fill="none" stroke="black" d="M566.36,-382.72C566.19,-353.67 565.9,-303.76 565.7,-270.33"/>
<polygon fill="black" stroke="black" points="569.2,-270.08 565.64,-260.1 562.2,-270.12 569.2,-270.08"/>
</g>
<!-- easter -->
<g id="node18" class="node">
<title>easter</title>
<text text-anchor="start" x="534" y="-42.8" font-family="Times New Roman,serif" font-weight="bold" font-size="14.00">Modern</text>
<text text-anchor="start" x="535.5" y="-28.8" font-family="Times New Roman,serif" font-weight="bold" font-size="14.00">English</text>
<text text-anchor="start" x="541" y="-14.8" font-family="Times New Roman,serif" font-size="14.00" fill="red">Easter</text>
</g>
<!-- esterME&#45;&gt;easter -->
<g id="edge17" class="edge">
<title>esterME&#45;&gt;easter</title>
<path fill="none" stroke="black" d="M564.66,-209.75C563.42,-174.19 561.1,-107.74 559.69,-67.22"/>
<polygon fill="black" stroke="black" points="563.18,-66.89 559.34,-57.02 556.19,-67.13 563.18,-66.89"/>
</g>
<!-- auroraME -->
<g id="node20" class="node">
<title>auroraME</title>
<text text-anchor="start" x="625" y="-245.8" font-family="Times New Roman,serif" font-weight="bold" font-size="14.00">Middle</text>
<text text-anchor="start" x="623.5" y="-231.8" font-family="Times New Roman,serif" font-weight="bold" font-size="14.00">English</text>
<text text-anchor="start" x="628.5" y="-217.8" font-family="Times New Roman,serif" font-size="14.00" fill="red">aurora</text>
</g>
<!-- auroraL&#45;&gt;auroraME -->
<g id="edge19" class="edge">
<title>auroraL&#45;&gt;auroraME</title>
<path fill="none" stroke="black" stroke-dasharray="5,2" d="M649.1,-467.82C648.53,-416.39 647.46,-321.29 646.89,-270.34"/>
<polygon fill="black" stroke="black" points="650.38,-270.13 646.77,-260.17 643.38,-270.21 650.38,-270.13"/>
</g>
<!-- aurora -->
<g id="node21" class="node">
<title>aurora</title>
<text text-anchor="start" x="617" y="-49.8" font-family="Times New Roman,serif" font-weight="bold" font-size="14.00">Modern</text>
<text text-anchor="start" x="618.5" y="-35.8" font-family="Times New Roman,serif" font-weight="bold" font-size="14.00">English</text>
<text text-anchor="start" x="623.5" y="-21.8" font-family="Times New Roman,serif" font-size="14.00" fill="red">aurora</text>
<text text-anchor="start" x="621.5" y="-7.8" font-family="Times New Roman,serif" font-size="14.00" fill="red">Aurora</text>
</g>
<!-- auroraME&#45;&gt;aurora -->
<g id="edge20" class="edge">
<title>auroraME&#45;&gt;aurora</title>
<path fill="none" stroke="black" d="M645.9,-209.75C645.06,-176.23 643.55,-115.25 642.53,-74.43"/>
<polygon fill="black" stroke="black" points="646.03,-74.17 642.28,-64.26 639.03,-74.34 646.03,-74.17"/>
</g>
<!-- eo -->
<g id="node23" class="node">
<title>eo</title>
<text text-anchor="start" x="700" y="-48.8" font-family="Times New Roman,serif" font-weight="bold" font-size="14.00">Modern</text>
<text text-anchor="start" x="701.5" y="-34.8" font-family="Times New Roman,serif" font-weight="bold" font-size="14.00">English</text>
<text text-anchor="start" x="715" y="-20.8" font-family="Times New Roman,serif" font-size="14.00" fill="red">eo&#45;</text>
<text text-anchor="start" x="708.5" y="-8.4" font-family="Times New Roman,serif" font-size="12.00">earliest</text>
</g>
<!-- eosG&#45;&gt;eo -->
<g id="edge22" class="edge">
<title>eosG&#45;&gt;eo</title>
<path fill="none" stroke="black" stroke-dasharray="5,2" d="M724.5,-99.98C724.5,-91.3 724.5,-81.98 724.5,-73.14"/>
<polygon fill="black" stroke="black" points="728,-73.03 724.5,-63.03 721,-73.03 728,-73.03"/>
</g>
<!-- eos -->
<g id="node24" class="node">
<title>eos</title>
<text text-anchor="start" x="783" y="-42.8" font-family="Times New Roman,serif" font-weight="bold" font-size="14.00">Modern</text>
<text text-anchor="start" x="784.5" y="-28.8" font-family="Times New Roman,serif" font-weight="bold" font-size="14.00">English</text>
<text text-anchor="start" x="796.5" y="-14.8" font-family="Times New Roman,serif" font-size="14.00" fill="red">Eos</text>
</g>
<!-- eosG&#45;&gt;eos -->
<g id="edge23" class="edge">
<title>eosG&#45;&gt;eos</title>
<path fill="none" stroke="black" stroke-dasharray="5,2" d="M753.53,-99.98C762.71,-88.59 772.78,-76.08 781.72,-64.99"/>
<polygon fill="black" stroke="black" points="784.44,-67.19 787.99,-57.21 778.99,-62.8 784.44,-67.19"/>
</g>
<!-- austro -->
<g id="node26" class="node">
<title>austro</title>
<text text-anchor="start" x="866" y="-48.8" font-family="Times New Roman,serif" font-weight="bold" font-size="14.00">Modern</text>
<text text-anchor="start" x="867.5" y="-34.8" font-family="Times New Roman,serif" font-weight="bold" font-size="14.00">English</text>
<text text-anchor="start" x="869" y="-20.8" font-family="Times New Roman,serif" font-size="14.00" fill="red">Austro&#45;</text>
<text text-anchor="start" x="871" y="-8.4" font-family="Times New Roman,serif" font-size="12.00">southern</text>
</g>
<!-- austerL&#45;&gt;austro -->
<g id="edge25" class="edge">
<title>austerL&#45;&gt;austro</title>
<path fill="none" stroke="black" stroke-dasharray="5,2" d="M871.89,-112.88C874.62,-101.16 878.01,-86.59 881.15,-73.11"/>
<polygon fill="black" stroke="black" points="884.63,-73.62 883.49,-63.08 877.81,-72.03 884.63,-73.62"/>
</g>
<!-- ostMHG -->
<g id="node28" class="node">
<title>ostMHG</title>
<text text-anchor="start" x="105.5" y="-331.8" font-family="Times New Roman,serif" font-weight="bold" font-size="14.00">Middle High</text>
<text text-anchor="start" x="118" y="-317.8" font-family="Times New Roman,serif" font-weight="bold" font-size="14.00">German</text>
<text text-anchor="start" x="116" y="-303.8" font-family="Times New Roman,serif" font-size="14.00" fill="red">ōsten, ōst</text>
</g>
<!-- ostanOHG&#45;&gt;ostMHG -->
<g id="edge27" class="edge">
<title>ostanOHG&#45;&gt;ostMHG</title>
<path fill="none" stroke="black" d="M143.5,-381.7C143.5,-373.78 143.5,-364.83 143.5,-356.31"/>
<polygon fill="black" stroke="black" points="147,-356.24 143.5,-346.24 140,-356.24 147,-356.24"/>
</g>
<!-- ostG -->
<g id="node29" class="node">
<title>ostG</title>
<text text-anchor="start" x="124" y="-238.8" font-family="Times New Roman,serif" font-weight="bold" font-size="14.00">German</text>
<text text-anchor="start" x="139" y="-224.8" font-family="Times New Roman,serif" font-size="14.00" fill="red">Ost</text>
</g>
<!-- ostMHG&#45;&gt;ostG -->
<g id="edge28" class="edge">
<title>ostMHG&#45;&gt;ostG</title>
<path fill="none" stroke="black" d="M145.24,-295.7C145.96,-285.56 146.8,-273.74 147.55,-263.3"/>
<polygon fill="black" stroke="black" points="151.06,-263.27 148.28,-253.05 144.08,-262.77 151.06,-263.27"/>
</g>
<!-- ostmarkG -->
<g id="node34" class="node">
<title>ostmarkG</title>
<text text-anchor="start" x="174" y="-133.3" font-family="Times New Roman,serif" font-size="14.00" fill="red">Ostmark</text>
</g>
<!-- ostG&#45;&gt;ostmarkG -->
<g id="edge32" class="edge">
<title>ostG&#45;&gt;ostmarkG</title>
<path fill="none" stroke="black" d="M158.26,-216.84C165.72,-202.23 176.54,-181.02 185.09,-164.27"/>
<polygon fill="black" stroke="black" points="188.39,-165.51 189.82,-155.01 182.15,-162.33 188.39,-165.51"/>
</g>
<!-- mergIE -->
<g id="node30" class="node">
<title>mergIE</title>
<g id="a_node30"><a xlink:href="merg-border.svg" xlink:title="&lt;b&gt;Indo&#45;&lt;br/&gt;European&lt;/b&gt;&lt;br/&gt;&lt;font color=&quot;red&quot;&gt;*merg&#45;&lt;/font&gt;&lt;br/&gt;&lt;font point&#45;size=&quot;12&quot;&gt;boundary, border&lt;/font&gt;">
<path fill="none" stroke="black" stroke-dasharray="5,2" d="M291.5,-535C291.5,-535 219.5,-535 219.5,-535 213.5,-535 207.5,-529 207.5,-523 207.5,-523 207.5,-485 207.5,-485 207.5,-479 213.5,-473 219.5,-473 219.5,-473 291.5,-473 291.5,-473 297.5,-473 303.5,-479 303.5,-485 303.5,-485 303.5,-523 303.5,-523 303.5,-529 297.5,-535 291.5,-535"/>
<text text-anchor="start" x="239" y="-520.8" font-family="Times New Roman,serif" font-weight="bold" font-size="14.00">Indo&#45;</text>
<text text-anchor="start" x="225" y="-506.8" font-family="Times New Roman,serif" font-weight="bold" font-size="14.00">European</text>
<text text-anchor="start" x="235.5" y="-492.8" font-family="Times New Roman,serif" font-size="14.00" fill="red">*merg&#45;</text>
<text text-anchor="start" x="215.5" y="-480.4" font-family="Times New Roman,serif" font-size="12.00">boundary, border</text>
</a>
</g>
</g>
<!-- markGm -->
<g id="node31" class="node">
<title>markGm</title>
<text text-anchor="start" x="225" y="-416.8" font-family="Times New Roman,serif" font-weight="bold" font-size="14.00">Germanic</text>
<text text-anchor="start" x="235.5" y="-402.8" font-family="Times New Roman,serif" font-size="14.00" fill="red">*mark&#45;</text>
<text text-anchor="start" x="205.5" y="-390.4" font-family="Times New Roman,serif" font-size="12.00">mark, unit of currency</text>
</g>
<!-- mergIE&#45;&gt;markGm -->
<g id="edge29" class="edge">
<title>mergIE&#45;&gt;markGm</title>
<path fill="none" stroke="black" d="M255.5,-472.94C255.5,-462.94 255.5,-451.73 255.5,-441.48"/>
<polygon fill="black" stroke="black" points="259,-441.24 255.5,-431.24 252,-441.24 259,-441.24"/>
</g>
<!-- markeMHG -->
<g id="node32" class="node">
<title>markeMHG</title>
<text text-anchor="start" x="215.5" y="-331.8" font-family="Times New Roman,serif" font-weight="bold" font-size="14.00">Middle High</text>
<text text-anchor="start" x="228" y="-317.8" font-family="Times New Roman,serif" font-weight="bold" font-size="14.00">German</text>
<text text-anchor="start" x="218.5" y="-303.8" font-family="Times New Roman,serif" font-size="14.00" fill="red">marke, marc</text>
</g>
<!-- markGm&#45;&gt;markeMHG -->
<g id="edge30" class="edge">
<title>markGm&#45;&gt;markeMHG</title>
<path fill="none" stroke="black" d="M254.94,-382.6C254.75,-374.44 254.53,-365.1 254.32,-356.23"/>
<polygon fill="black" stroke="black" points="257.81,-356.06 254.08,-346.15 250.81,-356.23 257.81,-356.06"/>
</g>
<!-- markG -->
<g id="node33" class="node">
<title>markG</title>
<text text-anchor="start" x="221" y="-238.8" font-family="Times New Roman,serif" font-weight="bold" font-size="14.00">German</text>
<text text-anchor="start" x="231.5" y="-224.8" font-family="Times New Roman,serif" font-size="14.00" fill="red">Mark</text>
</g>
<!-- markeMHG&#45;&gt;markG -->
<g id="edge31" class="edge">
<title>markeMHG&#45;&gt;markG</title>
<path fill="none" stroke="black" d="M251.48,-295.7C250.63,-285.56 249.64,-273.74 248.77,-263.3"/>
<polygon fill="black" stroke="black" points="252.24,-262.72 247.92,-253.05 245.26,-263.3 252.24,-262.72"/>
</g>
<!-- markG&#45;&gt;ostmarkG -->
<g id="edge33" class="edge">
<title>markG&#45;&gt;ostmarkG</title>
<path fill="none" stroke="black" d="M237.92,-216.84C230.62,-202.23 220.01,-181.02 211.64,-164.27"/>
<polygon fill="black" stroke="black" points="214.61,-162.39 207.01,-155.01 208.35,-165.52 214.61,-162.39"/>
</g>
<!-- ostmark -->
<g id="node35" class="node">
<title>ostmark</title>
<text text-anchor="start" x="174" y="-42.8" font-family="Times New Roman,serif" font-weight="bold" font-size="14.00">Modern</text>
<text text-anchor="start" x="175.5" y="-28.8" font-family="Times New Roman,serif" font-weight="bold" font-size="14.00">English</text>
<text text-anchor="start" x="175.5" y="-14.8" font-family="Times New Roman,serif" font-size="14.00" fill="red">ostmark</text>
</g>
<!-- ostmarkG&#45;&gt;ostmark -->
<g id="edge34" class="edge">
<title>ostmarkG&#45;&gt;ostmark</title>
<path fill="none" stroke="black" stroke-dasharray="5,2" d="M198.5,-118.99C198.5,-105.08 198.5,-84.95 198.5,-67.67"/>
<polygon fill="black" stroke="black" points="202,-67.36 198.5,-57.36 195,-67.36 202,-67.36"/>
</g>
</g>
</svg>
