<?xml version="1.0" encoding="UTF-8" standalone="no"?>
<!DOCTYPE svg PUBLIC "-//W3C//DTD SVG 1.1//EN"
 "http://www.w3.org/Graphics/SVG/1.1/DTD/svg11.dtd">
<!-- Generated by graphviz version 2.49.0 (20210828.1703)
 -->
<!-- Title: 3 Pages: 1 -->
<svg width="1008pt" height="991pt"
 viewBox="0.00 0.00 1007.50 991.00" xmlns="http://www.w3.org/2000/svg" xmlns:xlink="http://www.w3.org/1999/xlink">
<g id="graph0" class="graph" transform="scale(1 1) rotate(0) translate(4 987)">
<title>3</title>
<polygon fill="white" stroke="transparent" points="-4,4 -4,-987 1003.5,-987 1003.5,4 -4,4"/>
<!-- bha -->
<g id="node1" class="node">
<title>bha</title>
<g id="a_node1"><a xlink:href="bha-speak0.svg" xlink:title="&lt;b&gt;Indo&#45;European&lt;/b&gt;&lt;br/&gt;&lt;font color=&quot;red&quot;&gt;bhā&lt;/font&gt;&lt;br/&gt;&lt;font point&#45;size=&quot;12&quot;&gt;to speak&lt;/font&gt;">
<path fill="none" stroke="black" stroke-dasharray="5,2" d="M474,-983C474,-983 389,-983 389,-983 383,-983 377,-977 377,-971 377,-971 377,-947 377,-947 377,-941 383,-935 389,-935 389,-935 474,-935 474,-935 480,-935 486,-941 486,-947 486,-947 486,-971 486,-971 486,-977 480,-983 474,-983"/>
<text text-anchor="start" x="385" y="-968.8" font-family="Times New Roman,serif" font-weight="bold" font-size="14.00">Indo&#45;European</text>
<text text-anchor="start" x="421" y="-954.8" font-family="Times New Roman,serif" font-size="14.00" fill="red">bhā</text>
<text text-anchor="start" x="411.5" y="-942.4" font-family="Times New Roman,serif" font-size="12.00">to speak</text>
</a>
</g>
</g>
<!-- bhani -->
<g id="node2" class="node">
<title>bhani</title>
<text text-anchor="start" x="119.5" y="-876.3" font-family="Times New Roman,serif" font-size="14.00" fill="red">bhā&#45;ni&#45;</text>
</g>
<!-- bha&#45;&gt;bhani -->
<g id="edge1" class="edge">
<title>bha&#45;&gt;bhani</title>
<path fill="none" stroke="black" d="M376.92,-943.61C318.85,-928.3 228.51,-904.47 177.64,-891.06"/>
<polygon fill="black" stroke="black" points="178.28,-887.61 167.72,-888.44 176.49,-894.38 178.28,-887.61"/>
</g>
<!-- bhama -->
<g id="node3" class="node">
<title>bhama</title>
<text text-anchor="start" x="230.5" y="-876.3" font-family="Times New Roman,serif" font-size="14.00" fill="red">bhā&#45;mā&#45;</text>
</g>
<!-- bha&#45;&gt;bhama -->
<g id="edge2" class="edge">
<title>bha&#45;&gt;bhama</title>
<path fill="none" stroke="black" d="M378.09,-934.9C351.15,-923.24 319,-909.34 294.11,-898.57"/>
<polygon fill="black" stroke="black" points="295.18,-895.22 284.61,-894.46 292.4,-901.64 295.18,-895.22"/>
</g>
<!-- bhona -->
<g id="node4" class="node">
<title>bhona</title>
<text text-anchor="start" x="409.5" y="-876.3" font-family="Times New Roman,serif" font-size="14.00" fill="red">bhō&#45;nā&#45;</text>
</g>
<!-- bha&#45;&gt;bhona -->
<g id="edge3" class="edge">
<title>bha&#45;&gt;bhona</title>
<path fill="none" stroke="black" d="M431.5,-934.9C431.5,-926.58 431.5,-917.12 431.5,-908.47"/>
<polygon fill="black" stroke="black" points="435,-908.45 431.5,-898.45 428,-908.45 435,-908.45"/>
</g>
<!-- bheto -->
<g id="node5" class="node">
<title>bheto</title>
<text text-anchor="start" x="506" y="-876.3" font-family="Times New Roman,serif" font-size="14.00" fill="red">bhə&#45;to&#45;</text>
</g>
<!-- bha&#45;&gt;bheto -->
<g id="edge4" class="edge">
<title>bha&#45;&gt;bheto</title>
<path fill="none" stroke="black" d="M460,-934.9C471.82,-925.32 485.5,-914.23 497.38,-904.6"/>
<polygon fill="black" stroke="black" points="499.7,-907.23 505.27,-898.21 495.29,-901.79 499.7,-907.23"/>
</g>
<!-- mlsbhamo -->
<g id="node6" class="node">
<title>mlsbhamo</title>
<text text-anchor="start" x="590.5" y="-882.8" font-family="Times New Roman,serif" font-size="14.00" fill="red">ml̥s&#45;bhā&#45;mo&#45;</text>
<text text-anchor="start" x="593.5" y="-870.4" font-family="Times New Roman,serif" font-size="12.00">&quot;speaking evil&quot;</text>
</g>
<!-- bha&#45;&gt;mlsbhamo -->
<g id="edge5" class="edge">
<title>bha&#45;&gt;mlsbhamo</title>
<path fill="none" stroke="black" d="M486.08,-936.45C513.59,-925.58 546.81,-912.47 574.02,-901.72"/>
<polygon fill="black" stroke="black" points="575.36,-904.96 583.38,-898.03 572.79,-898.44 575.36,-904.96"/>
</g>
<!-- boniGm -->
<g id="node10" class="node">
<title>boniGm</title>
<text text-anchor="start" x="72" y="-490.8" font-family="Times New Roman,serif" font-weight="bold" font-size="14.00">Germanic</text>
<text text-anchor="start" x="90" y="-476.8" font-family="Times New Roman,serif" font-size="14.00" fill="red">bōni</text>
</g>
<!-- bhani&#45;&gt;boniGm -->
<g id="edge9" class="edge">
<title>bhani&#45;&gt;boniGm</title>
<path fill="none" stroke="black" d="M129.39,-861.99C118.43,-841.92 102.5,-807.2 102.5,-775 102.5,-775 102.5,-775 102.5,-600 102.5,-571.09 102.5,-537.99 102.5,-515.31"/>
<polygon fill="black" stroke="black" points="106,-515.08 102.5,-505.08 99,-515.08 106,-515.08"/>
</g>
<!-- famaL -->
<g id="node7" class="node">
<title>famaL</title>
<g id="a_node7"><a xlink:href="bha-speak4.svg" xlink:title="&lt;b&gt;Latin&lt;/b&gt;&lt;br/&gt;&lt;font color=&quot;red&quot;&gt;fāma&lt;/font&gt;&lt;br/&gt;&lt;font point&#45;size=&quot;12&quot;&gt;talk, fame,&lt;br/&gt;reputation&lt;/font&gt;">
<path fill="none" stroke="black" stroke-dasharray="5,2" d="M182.5,-804C182.5,-804 142.5,-804 142.5,-804 136.5,-804 130.5,-798 130.5,-792 130.5,-792 130.5,-756 130.5,-756 130.5,-750 136.5,-744 142.5,-744 142.5,-744 182.5,-744 182.5,-744 188.5,-744 194.5,-750 194.5,-756 194.5,-756 194.5,-792 194.5,-792 194.5,-798 188.5,-804 182.5,-804"/>
<text text-anchor="start" x="146" y="-789.8" font-family="Times New Roman,serif" font-weight="bold" font-size="14.00">Latin</text>
<text text-anchor="start" x="148.5" y="-775.8" font-family="Times New Roman,serif" font-size="14.00" fill="red">fāma</text>
<text text-anchor="start" x="138.5" y="-763.4" font-family="Times New Roman,serif" font-size="12.00">talk, fame,</text>
<text text-anchor="start" x="139.5" y="-751.4" font-family="Times New Roman,serif" font-size="12.00">reputation</text>
</a>
</g>
</g>
<!-- bhama&#45;&gt;famaL -->
<g id="edge6" class="edge">
<title>bhama&#45;&gt;famaL</title>
<path fill="none" stroke="black" d="M238.47,-861.83C226.57,-848.22 209.51,-828.72 194.57,-811.65"/>
<polygon fill="black" stroke="black" points="197.1,-809.23 187.88,-804 191.83,-813.83 197.1,-809.23"/>
</g>
<!-- phemeG -->
<g id="node8" class="node">
<title>phemeG</title>
<text text-anchor="start" x="233.5" y="-783.8" font-family="Times New Roman,serif" font-weight="bold" font-size="14.00">Greek</text>
<text text-anchor="start" x="235" y="-769.8" font-family="Times New Roman,serif" font-size="14.00" fill="red">phēmē</text>
<text text-anchor="start" x="220.5" y="-757.4" font-family="Times New Roman,serif" font-size="12.00">saying, speech</text>
</g>
<!-- bhama&#45;&gt;phemeG -->
<g id="edge7" class="edge">
<title>bhama&#45;&gt;phemeG</title>
<path fill="none" stroke="black" d="M253.5,-861.83C253.5,-847.26 253.5,-825.95 253.5,-808.09"/>
<polygon fill="black" stroke="black" points="257,-808.04 253.5,-798.04 250,-808.04 257,-808.04"/>
</g>
<!-- phoneG -->
<g id="node9" class="node">
<title>phoneG</title>
<g id="a_node9"><a xlink:href="bha-speak5.svg" xlink:title="&lt;b&gt;Greek&lt;/b&gt;&lt;br/&gt;&lt;font color=&quot;red&quot;&gt;phōnē&lt;/font&gt;&lt;br/&gt;&lt;font point&#45;size=&quot;12&quot;&gt;voice, sound&lt;/font&gt;&lt;br/&gt;&lt;font color=&quot;red&quot;&gt;phōnein&lt;/font&gt;&lt;br/&gt;&lt;font point&#45;size=&quot;12&quot;&gt;to speak&lt;/font&gt;">
<path fill="none" stroke="black" stroke-dasharray="5,2" d="M456.5,-811C456.5,-811 406.5,-811 406.5,-811 400.5,-811 394.5,-805 394.5,-799 394.5,-799 394.5,-749 394.5,-749 394.5,-743 400.5,-737 406.5,-737 406.5,-737 456.5,-737 456.5,-737 462.5,-737 468.5,-743 468.5,-749 468.5,-749 468.5,-799 468.5,-799 468.5,-805 462.5,-811 456.5,-811"/>
<text text-anchor="start" x="411.5" y="-796.8" font-family="Times New Roman,serif" font-weight="bold" font-size="14.00">Greek</text>
<text text-anchor="start" x="414" y="-782.8" font-family="Times New Roman,serif" font-size="14.00" fill="red">phōnē</text>
<text text-anchor="start" x="402.5" y="-770.4" font-family="Times New Roman,serif" font-size="12.00">voice, sound</text>
<text text-anchor="start" x="409" y="-756.8" font-family="Times New Roman,serif" font-size="14.00" fill="red">phōnein</text>
<text text-anchor="start" x="411.5" y="-744.4" font-family="Times New Roman,serif" font-size="12.00">to speak</text>
</a>
</g>
</g>
<!-- bhona&#45;&gt;phoneG -->
<g id="edge8" class="edge">
<title>bhona&#45;&gt;phoneG</title>
<path fill="none" stroke="black" d="M431.5,-861.83C431.5,-850.78 431.5,-835.85 431.5,-821.48"/>
<polygon fill="black" stroke="black" points="435,-821.19 431.5,-811.19 428,-821.19 435,-821.19"/>
</g>
<!-- fateriL -->
<g id="node23" class="node">
<title>fateriL</title>
<text text-anchor="start" x="587" y="-783.8" font-family="Times New Roman,serif" font-weight="bold" font-size="14.00">Latin</text>
<text text-anchor="start" x="588.5" y="-769.8" font-family="Times New Roman,serif" font-size="14.00" fill="red">fatērī</text>
<text text-anchor="start" x="567" y="-757.4" font-family="Times New Roman,serif" font-size="12.00">to acknowledge</text>
</g>
<!-- bheto&#45;&gt;fateriL -->
<g id="edge22" class="edge">
<title>bheto&#45;&gt;fateriL</title>
<path fill="none" stroke="black" d="M539.21,-861.83C550.4,-846.72 566.96,-824.35 580.48,-806.1"/>
<polygon fill="black" stroke="black" points="583.3,-808.16 586.44,-798.04 577.67,-804 583.3,-808.16"/>
</g>
<!-- blasphemosG -->
<g id="node41" class="node">
<title>blasphemosG</title>
<text text-anchor="start" x="760.5" y="-789.8" font-family="Times New Roman,serif" font-weight="bold" font-size="14.00">Greek</text>
<text text-anchor="start" x="747" y="-775.8" font-family="Times New Roman,serif" font-size="14.00" fill="red">blasphēmos</text>
<text text-anchor="start" x="749" y="-763.4" font-family="Times New Roman,serif" font-size="12.00">evil&#45;speaking,</text>
<text text-anchor="start" x="751" y="-751.4" font-family="Times New Roman,serif" font-size="12.00">blasphemous</text>
</g>
<!-- mlsbhamo&#45;&gt;blasphemosG -->
<g id="edge40" class="edge">
<title>mlsbhamo&#45;&gt;blasphemosG</title>
<path fill="none" stroke="black" d="M652.9,-861.9C673.8,-848.28 703.66,-828.64 729.5,-811 730,-810.66 730.51,-810.31 731.02,-809.96"/>
<polygon fill="black" stroke="black" points="733.14,-812.75 739.38,-804.19 729.16,-806.99 733.14,-812.75"/>
<text text-anchor="middle" x="705" y="-832.8" font-family="Times New Roman,serif" font-size="14.00">?</text>
</g>
<!-- euphemiaG -->
<g id="node19" class="node">
<title>euphemiaG</title>
<text text-anchor="start" x="309" y="-683.8" font-family="Times New Roman,serif" font-size="14.00" fill="red">euphēmiā</text>
<text text-anchor="start" x="281" y="-671.4" font-family="Times New Roman,serif" font-size="12.00">use of auspicious words</text>
</g>
<!-- phemeG&#45;&gt;euphemiaG -->
<g id="edge17" class="edge">
<title>phemeG&#45;&gt;euphemiaG</title>
<path fill="none" stroke="black" d="M274.62,-749.57C286.52,-736.36 301.37,-719.88 313.42,-706.5"/>
<polygon fill="black" stroke="black" points="316.06,-708.8 320.15,-699.03 310.86,-704.12 316.06,-708.8"/>
</g>
<!-- bonON -->
<g id="node11" class="node">
<title>bonON</title>
<text text-anchor="start" x="99.5" y="-375.8" font-family="Times New Roman,serif" font-weight="bold" font-size="14.00">Old Norse</text>
<text text-anchor="start" x="120.5" y="-361.8" font-family="Times New Roman,serif" font-size="14.00" fill="red">bōn</text>
<text text-anchor="start" x="116.5" y="-349.4" font-family="Times New Roman,serif" font-size="12.00">prayer</text>
</g>
<!-- boniGm&#45;&gt;bonON -->
<g id="edge10" class="edge">
<title>boniGm&#45;&gt;bonON</title>
<path fill="none" stroke="black" d="M106.65,-468.95C111.03,-451 118.02,-422.31 123.48,-399.93"/>
<polygon fill="black" stroke="black" points="126.89,-400.69 125.86,-390.15 120.09,-399.04 126.89,-400.69"/>
</g>
<!-- benOE -->
<g id="node12" class="node">
<title>benOE</title>
<text text-anchor="start" x="31" y="-382.8" font-family="Times New Roman,serif" font-weight="bold" font-size="14.00">Old</text>
<text text-anchor="start" x="19.5" y="-368.8" font-family="Times New Roman,serif" font-weight="bold" font-size="14.00">English</text>
<text text-anchor="start" x="32" y="-354.8" font-family="Times New Roman,serif" font-size="14.00" fill="red">bēn</text>
<text text-anchor="start" x="27.5" y="-342.4" font-family="Times New Roman,serif" font-size="12.00">prayer</text>
</g>
<!-- boniGm&#45;&gt;benOE -->
<g id="edge11" class="edge">
<title>boniGm&#45;&gt;benOE</title>
<path fill="none" stroke="black" d="M93.9,-468.95C85.72,-452.72 73.1,-427.68 62.41,-406.49"/>
<polygon fill="black" stroke="black" points="65.44,-404.72 57.81,-397.37 59.19,-407.87 65.44,-404.72"/>
</g>
<!-- boneME -->
<g id="node13" class="node">
<title>boneME</title>
<text text-anchor="start" x="110" y="-271.8" font-family="Times New Roman,serif" font-weight="bold" font-size="14.00">Middle</text>
<text text-anchor="start" x="108.5" y="-257.8" font-family="Times New Roman,serif" font-weight="bold" font-size="14.00">English</text>
<text text-anchor="start" x="117.5" y="-243.8" font-family="Times New Roman,serif" font-size="14.00" fill="red">bone</text>
</g>
<!-- bonON&#45;&gt;boneME -->
<g id="edge12" class="edge">
<title>bonON&#45;&gt;boneME</title>
<path fill="none" stroke="black" stroke-dasharray="1,5" d="M131.5,-341.88C131.5,-328.52 131.5,-311.45 131.5,-296.52"/>
<polygon fill="black" stroke="black" points="135,-296.11 131.5,-286.11 128,-296.11 135,-296.11"/>
</g>
<!-- beneME -->
<g id="node15" class="node">
<title>beneME</title>
<text text-anchor="start" x="21" y="-283.8" font-family="Times New Roman,serif" font-weight="bold" font-size="14.00">Middle</text>
<text text-anchor="start" x="19.5" y="-269.8" font-family="Times New Roman,serif" font-weight="bold" font-size="14.00">English</text>
<text text-anchor="start" x="29" y="-255.8" font-family="Times New Roman,serif" font-size="14.00" fill="red">bene</text>
<text text-anchor="start" x="13.5" y="-243.4" font-family="Times New Roman,serif" font-size="12.00">extra service</text>
<text text-anchor="start" x="17.5" y="-231.4" font-family="Times New Roman,serif" font-size="12.00">by a tenant</text>
</g>
<!-- benOE&#45;&gt;beneME -->
<g id="edge14" class="edge">
<title>benOE&#45;&gt;beneME</title>
<path fill="none" stroke="black" d="M42.5,-334.93C42.5,-326.56 42.5,-317.27 42.5,-308.21"/>
<polygon fill="black" stroke="black" points="46,-308.12 42.5,-298.12 39,-308.12 46,-308.12"/>
</g>
<!-- boon -->
<g id="node14" class="node">
<title>boon</title>
<text text-anchor="start" x="107" y="-47.8" font-family="Times New Roman,serif" font-weight="bold" font-size="14.00">Modern</text>
<text text-anchor="start" x="108.5" y="-33.8" font-family="Times New Roman,serif" font-weight="bold" font-size="14.00">English</text>
<text text-anchor="start" x="116.5" y="-19.8" font-family="Times New Roman,serif" font-size="14.00" fill="red">boon</text>
<text text-anchor="start" x="113.5" y="-7.4" font-family="Times New Roman,serif" font-size="12.00">blessing</text>
</g>
<!-- boneME&#45;&gt;boon -->
<g id="edge13" class="edge">
<title>boneME&#45;&gt;boon</title>
<path fill="none" stroke="black" d="M131.5,-235.6C131.5,-196.62 131.5,-119.87 131.5,-72.55"/>
<polygon fill="black" stroke="black" points="135,-72.34 131.5,-62.34 128,-72.34 135,-72.34"/>
</g>
<!-- beanE -->
<g id="node16" class="node">
<title>beanE</title>
<text text-anchor="start" x="18" y="-172.8" font-family="Times New Roman,serif" font-weight="bold" font-size="14.00">Modern</text>
<text text-anchor="start" x="19.5" y="-158.8" font-family="Times New Roman,serif" font-weight="bold" font-size="14.00">English</text>
<text text-anchor="start" x="10.5" y="-144.8" font-family="Times New Roman,serif" font-size="14.00">(dialectical)</text>
<text text-anchor="start" x="29" y="-130.8" font-family="Times New Roman,serif" font-size="14.00" fill="red">bean</text>
<text text-anchor="start" x="8" y="-118.4" font-family="Times New Roman,serif" font-size="12.00">neighborly help</text>
<text text-anchor="start" x="17.5" y="-106.4" font-family="Times New Roman,serif" font-size="12.00">to a farmer</text>
</g>
<!-- beneME&#45;&gt;beanE -->
<g id="edge15" class="edge">
<title>beneME&#45;&gt;beanE</title>
<path fill="none" stroke="black" d="M42.5,-223.93C42.5,-215.52 42.5,-206.4 42.5,-197.41"/>
<polygon fill="black" stroke="black" points="46,-197.38 42.5,-187.38 39,-197.38 46,-197.38"/>
</g>
<!-- bee -->
<g id="node17" class="node">
<title>bee</title>
<text text-anchor="start" x="32.5" y="-33.8" font-family="Times New Roman,serif" font-size="14.00" fill="red">bee</text>
<text text-anchor="start" x="22" y="-21.4" font-family="Times New Roman,serif" font-size="12.00">gathering</text>
</g>
<!-- beanE&#45;&gt;bee -->
<g id="edge16" class="edge">
<title>beanE&#45;&gt;bee</title>
<path fill="none" stroke="black" d="M42.5,-98.84C42.5,-85.57 42.5,-71.33 42.5,-59.42"/>
<polygon fill="black" stroke="black" points="46,-59.23 42.5,-49.23 39,-59.23 46,-59.23"/>
</g>
<!-- eu -->
<g id="node18" class="node">
<title>eu</title>
<text text-anchor="start" x="335.5" y="-776.8" font-family="Times New Roman,serif" font-size="14.00" fill="red">eu&#45;</text>
<text text-anchor="start" x="321" y="-764.4" font-family="Times New Roman,serif" font-size="12.00">good, true</text>
</g>
<!-- eu&#45;&gt;euphemiaG -->
<g id="edge18" class="edge">
<title>eu&#45;&gt;euphemiaG</title>
<path fill="none" stroke="black" d="M342.81,-755.88C341.51,-742.79 339.7,-724.48 338.21,-709.36"/>
<polygon fill="black" stroke="black" points="341.65,-708.65 337.19,-699.04 334.69,-709.34 341.65,-708.65"/>
</g>
<!-- euphemizeinG -->
<g id="node20" class="node">
<title>euphemizeinG</title>
<text text-anchor="start" x="301" y="-603.8" font-family="Times New Roman,serif" font-size="14.00" fill="red">euphēmizein</text>
<text text-anchor="start" x="281" y="-591.4" font-family="Times New Roman,serif" font-size="12.00">to use auspicious words</text>
</g>
<!-- euphemiaG&#45;&gt;euphemizeinG -->
<g id="edge19" class="edge">
<title>euphemiaG&#45;&gt;euphemizeinG</title>
<path fill="none" stroke="black" d="M335.5,-662.69C335.5,-652.89 335.5,-640.42 335.5,-629.33"/>
<polygon fill="black" stroke="black" points="339,-629.26 335.5,-619.26 332,-629.26 339,-629.26"/>
</g>
<!-- euphemismosG -->
<g id="node21" class="node">
<title>euphemismosG</title>
<text text-anchor="start" x="297" y="-483.3" font-family="Times New Roman,serif" font-size="14.00" fill="red">euphēmismos</text>
</g>
<!-- euphemizeinG&#45;&gt;euphemismosG -->
<g id="edge20" class="edge">
<title>euphemizeinG&#45;&gt;euphemismosG</title>
<path fill="none" stroke="black" d="M335.5,-582.99C335.5,-565.06 335.5,-536.56 335.5,-515.44"/>
<polygon fill="black" stroke="black" points="339,-515.17 335.5,-505.17 332,-515.17 339,-515.17"/>
</g>
<!-- euphemism -->
<g id="node22" class="node">
<title>euphemism</title>
<text text-anchor="start" x="311" y="-41.8" font-family="Times New Roman,serif" font-weight="bold" font-size="14.00">Modern</text>
<text text-anchor="start" x="312.5" y="-27.8" font-family="Times New Roman,serif" font-weight="bold" font-size="14.00">English</text>
<text text-anchor="start" x="303.5" y="-13.8" font-family="Times New Roman,serif" font-size="14.00" fill="red">euphemism</text>
</g>
<!-- euphemismosG&#45;&gt;euphemism -->
<g id="edge21" class="edge">
<title>euphemismosG&#45;&gt;euphemism</title>
<path fill="none" stroke="black" stroke-dasharray="1,5" d="M335.5,-468.66C335.5,-445.49 335.5,-403.15 335.5,-367 335.5,-367 335.5,-367 335.5,-142 335.5,-116.56 335.5,-87.81 335.5,-66.09"/>
<polygon fill="black" stroke="black" points="339,-66.03 335.5,-56.03 332,-66.03 339,-66.03"/>
</g>
<!-- confiteriL -->
<g id="node25" class="node">
<title>confiteriL</title>
<text text-anchor="start" x="636.5" y="-684.8" font-family="Times New Roman,serif" font-size="14.00" fill="red">cōnfitērī,</text>
<text text-anchor="start" x="638" y="-669.8" font-family="Times New Roman,serif" font-size="14.00" fill="red">cōnfess&#45;</text>
</g>
<!-- fateriL&#45;&gt;confiteriL -->
<g id="edge23" class="edge">
<title>fateriL&#45;&gt;confiteriL</title>
<path fill="none" stroke="black" d="M618.69,-749.57C626.79,-737.07 636.79,-721.65 645.19,-708.69"/>
<polygon fill="black" stroke="black" points="648.21,-710.48 650.71,-700.19 642.33,-706.67 648.21,-710.48"/>
</g>
<!-- profiteriL -->
<g id="node31" class="node">
<title>profiteriL</title>
<text text-anchor="start" x="501.5" y="-683.8" font-family="Times New Roman,serif" font-size="14.00" fill="red">profitērī</text>
<text text-anchor="start" x="489" y="-671.4" font-family="Times New Roman,serif" font-size="12.00">to affirm openly</text>
</g>
<!-- fateriL&#45;&gt;profiteriL -->
<g id="edge29" class="edge">
<title>fateriL&#45;&gt;profiteriL</title>
<path fill="none" stroke="black" d="M583.16,-749.57C571.8,-736.48 557.65,-720.19 546.1,-706.88"/>
<polygon fill="black" stroke="black" points="548.49,-704.29 539.29,-699.03 543.2,-708.88 548.49,-704.29"/>
</g>
<!-- com -->
<g id="node24" class="node">
<title>com</title>
<text text-anchor="start" x="678.5" y="-776.8" font-family="Times New Roman,serif" font-size="14.00" fill="red">com&#45;</text>
<text text-anchor="start" x="675" y="-764.4" font-family="Times New Roman,serif" font-size="12.00">together</text>
</g>
<!-- com&#45;&gt;confiteriL -->
<g id="edge24" class="edge">
<title>com&#45;&gt;confiteriL</title>
<path fill="none" stroke="black" d="M687.67,-755.88C683.28,-743 677.17,-725.06 672.07,-710.08"/>
<polygon fill="black" stroke="black" points="675.27,-708.63 668.73,-700.29 668.64,-710.88 675.27,-708.63"/>
</g>
<!-- confessareL -->
<g id="node26" class="node">
<title>confessareL</title>
<text text-anchor="start" x="632" y="-537.3" font-family="Times New Roman,serif" font-size="14.00" fill="red">cōnfessāre</text>
</g>
<!-- confiteriL&#45;&gt;confessareL -->
<g id="edge25" class="edge">
<title>confiteriL&#45;&gt;confessareL</title>
<path fill="none" stroke="black" d="M662.5,-661.96C662.5,-638.35 662.5,-596.77 662.5,-569.3"/>
<polygon fill="black" stroke="black" points="666,-569.18 662.5,-559.18 659,-569.18 666,-569.18"/>
</g>
<!-- confesserOF -->
<g id="node27" class="node">
<title>confesserOF</title>
<text text-anchor="start" x="627.5" y="-369.8" font-family="Times New Roman,serif" font-weight="bold" font-size="14.00">Old French</text>
<text text-anchor="start" x="635" y="-355.8" font-family="Times New Roman,serif" font-size="14.00" fill="red">confesser</text>
</g>
<!-- confessareL&#45;&gt;confesserOF -->
<g id="edge26" class="edge">
<title>confessareL&#45;&gt;confesserOF</title>
<path fill="none" stroke="black" d="M662.5,-522.78C662.5,-492.73 662.5,-430.48 662.5,-394.43"/>
<polygon fill="black" stroke="black" points="666,-394.15 662.5,-384.15 659,-394.15 666,-394.15"/>
</g>
<!-- confessenME -->
<g id="node28" class="node">
<title>confessenME</title>
<text text-anchor="start" x="641" y="-271.8" font-family="Times New Roman,serif" font-weight="bold" font-size="14.00">Middle</text>
<text text-anchor="start" x="639.5" y="-257.8" font-family="Times New Roman,serif" font-weight="bold" font-size="14.00">English</text>
<text text-anchor="start" x="634" y="-243.8" font-family="Times New Roman,serif" font-size="14.00" fill="red">confessen</text>
</g>
<!-- confesserOF&#45;&gt;confessenME -->
<g id="edge27" class="edge">
<title>confesserOF&#45;&gt;confessenME</title>
<path fill="none" stroke="black" stroke-dasharray="1,5" d="M662.5,-347.99C662.5,-334.08 662.5,-313.95 662.5,-296.67"/>
<polygon fill="black" stroke="black" points="666,-296.36 662.5,-286.36 659,-296.36 666,-296.36"/>
</g>
<!-- confess -->
<g id="node29" class="node">
<title>confess</title>
<text text-anchor="start" x="638" y="-41.8" font-family="Times New Roman,serif" font-weight="bold" font-size="14.00">Modern</text>
<text text-anchor="start" x="639.5" y="-27.8" font-family="Times New Roman,serif" font-weight="bold" font-size="14.00">English</text>
<text text-anchor="start" x="640.5" y="-13.8" font-family="Times New Roman,serif" font-size="14.00" fill="red">confess</text>
</g>
<!-- confessenME&#45;&gt;confess -->
<g id="edge28" class="edge">
<title>confessenME&#45;&gt;confess</title>
<path fill="none" stroke="black" d="M662.5,-235.6C662.5,-194.89 662.5,-112.99 662.5,-66.43"/>
<polygon fill="black" stroke="black" points="666,-66.22 662.5,-56.22 659,-66.22 666,-66.22"/>
</g>
<!-- pro -->
<g id="node30" class="node">
<title>pro</title>
<text text-anchor="start" x="501" y="-776.8" font-family="Times New Roman,serif" font-size="14.00" fill="red">pro&#45;</text>
<text text-anchor="start" x="502.5" y="-764.4" font-family="Times New Roman,serif" font-size="12.00">forth</text>
</g>
<!-- pro&#45;&gt;profiteriL -->
<g id="edge30" class="edge">
<title>pro&#45;&gt;profiteriL</title>
<path fill="none" stroke="black" d="M515.57,-755.88C517.15,-742.79 519.37,-724.48 521.19,-709.36"/>
<polygon fill="black" stroke="black" points="524.71,-709.39 522.44,-699.04 517.77,-708.55 524.71,-709.39"/>
</g>
<!-- professusL -->
<g id="node32" class="node">
<title>professusL</title>
<text text-anchor="start" x="497" y="-597.3" font-family="Times New Roman,serif" font-size="14.00" fill="red">professus</text>
</g>
<!-- profiteriL&#45;&gt;professusL -->
<g id="edge31" class="edge">
<title>profiteriL&#45;&gt;professusL</title>
<path fill="none" stroke="black" d="M524.5,-662.69C524.5,-652.89 524.5,-640.42 524.5,-629.33"/>
<polygon fill="black" stroke="black" points="528,-629.26 524.5,-619.26 521,-629.26 528,-629.26"/>
</g>
<!-- professareL -->
<g id="node33" class="node">
<title>professareL</title>
<text text-anchor="start" x="523" y="-489.8" font-family="Times New Roman,serif" font-size="14.00" fill="red">professāre</text>
<text text-anchor="start" x="508" y="-477.4" font-family="Times New Roman,serif" font-size="12.00">to administer a vow</text>
</g>
<!-- professusL&#45;&gt;professareL -->
<g id="edge32" class="edge">
<title>professusL&#45;&gt;professareL</title>
<path fill="none" stroke="black" d="M528.75,-582.99C533.25,-564.98 540.43,-536.29 545.71,-515.15"/>
<polygon fill="black" stroke="black" points="549.18,-515.72 548.21,-505.17 542.39,-514.02 549.18,-515.72"/>
</g>
<!-- professorL -->
<g id="node34" class="node">
<title>professorL</title>
<text text-anchor="start" x="419" y="-483.3" font-family="Times New Roman,serif" font-size="14.00" fill="red">professor</text>
</g>
<!-- professusL&#45;&gt;professorL -->
<g id="edge33" class="edge">
<title>professusL&#45;&gt;professorL</title>
<path fill="none" stroke="black" d="M512.65,-582.99C499.77,-564.49 479.03,-534.71 464.21,-513.43"/>
<polygon fill="black" stroke="black" points="467.05,-511.38 458.46,-505.17 461.3,-515.38 467.05,-511.38"/>
</g>
<!-- profesOF -->
<g id="node35" class="node">
<title>profesOF</title>
<text text-anchor="start" x="517.5" y="-381.8" font-family="Times New Roman,serif" font-weight="bold" font-size="14.00">Old French</text>
<text text-anchor="start" x="534" y="-367.8" font-family="Times New Roman,serif" font-size="14.00" fill="red">profes</text>
<text text-anchor="start" x="521" y="-355.4" font-family="Times New Roman,serif" font-size="12.00">that has taken</text>
<text text-anchor="start" x="518.5" y="-343.4" font-family="Times New Roman,serif" font-size="12.00">a religious vow</text>
</g>
<!-- professareL&#45;&gt;profesOF -->
<g id="edge34" class="edge">
<title>professareL&#45;&gt;profesOF</title>
<path fill="none" stroke="black" d="M552.5,-468.95C552.5,-452.71 552.5,-427.67 552.5,-406.48"/>
<polygon fill="black" stroke="black" points="556,-406.43 552.5,-396.43 549,-406.43 556,-406.43"/>
</g>
<!-- professeurOF -->
<g id="node38" class="node">
<title>professeurOF</title>
<text text-anchor="start" x="411.5" y="-369.8" font-family="Times New Roman,serif" font-weight="bold" font-size="14.00">Old French</text>
<text text-anchor="start" x="416.5" y="-355.8" font-family="Times New Roman,serif" font-size="14.00" fill="red">professeur</text>
</g>
<!-- professorL&#45;&gt;professeurOF -->
<g id="edge37" class="edge">
<title>professorL&#45;&gt;professeurOF</title>
<path fill="none" stroke="black" d="M446.5,-468.95C446.5,-449.42 446.5,-417.16 446.5,-394.16"/>
<polygon fill="black" stroke="black" points="450,-394.02 446.5,-384.02 443,-394.02 450,-394.02"/>
</g>
<!-- professenME -->
<g id="node36" class="node">
<title>professenME</title>
<text text-anchor="start" x="531" y="-277.8" font-family="Times New Roman,serif" font-weight="bold" font-size="14.00">Middle</text>
<text text-anchor="start" x="529.5" y="-263.8" font-family="Times New Roman,serif" font-weight="bold" font-size="14.00">English</text>
<text text-anchor="start" x="525" y="-249.8" font-family="Times New Roman,serif" font-size="14.00" fill="red">professen</text>
<text text-anchor="start" x="523" y="-237.4" font-family="Times New Roman,serif" font-size="12.00">to take vows</text>
</g>
<!-- profesOF&#45;&gt;professenME -->
<g id="edge35" class="edge">
<title>profesOF&#45;&gt;professenME</title>
<path fill="none" stroke="black" stroke-dasharray="1,5" d="M552.5,-335.76C552.5,-325.29 552.5,-313.29 552.5,-302.06"/>
<polygon fill="black" stroke="black" points="556,-302.03 552.5,-292.03 549,-302.03 556,-302.03"/>
</g>
<!-- profess -->
<g id="node37" class="node">
<title>profess</title>
<text text-anchor="start" x="528" y="-41.8" font-family="Times New Roman,serif" font-weight="bold" font-size="14.00">Modern</text>
<text text-anchor="start" x="529.5" y="-27.8" font-family="Times New Roman,serif" font-weight="bold" font-size="14.00">English</text>
<text text-anchor="start" x="531" y="-13.8" font-family="Times New Roman,serif" font-size="14.00" fill="red">profess</text>
</g>
<!-- professenME&#45;&gt;profess -->
<g id="edge36" class="edge">
<title>professenME&#45;&gt;profess</title>
<path fill="none" stroke="black" d="M552.5,-229.72C552.5,-187.33 552.5,-110.52 552.5,-66.15"/>
<polygon fill="black" stroke="black" points="556,-66.13 552.5,-56.13 549,-66.13 556,-66.13"/>
</g>
<!-- professourME -->
<g id="node39" class="node">
<title>professourME</title>
<text text-anchor="start" x="425" y="-271.8" font-family="Times New Roman,serif" font-weight="bold" font-size="14.00">Middle</text>
<text text-anchor="start" x="423.5" y="-257.8" font-family="Times New Roman,serif" font-weight="bold" font-size="14.00">English</text>
<text text-anchor="start" x="416" y="-243.8" font-family="Times New Roman,serif" font-size="14.00" fill="red">professour</text>
</g>
<!-- professeurOF&#45;&gt;professourME -->
<g id="edge38" class="edge">
<title>professeurOF&#45;&gt;professourME</title>
<path fill="none" stroke="black" stroke-dasharray="1,5" d="M446.5,-347.99C446.5,-334.08 446.5,-313.95 446.5,-296.67"/>
<polygon fill="black" stroke="black" points="450,-296.36 446.5,-286.36 443,-296.36 450,-296.36"/>
</g>
<!-- professor -->
<g id="node40" class="node">
<title>professor</title>
<text text-anchor="start" x="422" y="-41.8" font-family="Times New Roman,serif" font-weight="bold" font-size="14.00">Modern</text>
<text text-anchor="start" x="423.5" y="-27.8" font-family="Times New Roman,serif" font-weight="bold" font-size="14.00">English</text>
<text text-anchor="start" x="419" y="-13.8" font-family="Times New Roman,serif" font-size="14.00" fill="red">professor</text>
</g>
<!-- professourME&#45;&gt;professor -->
<g id="edge39" class="edge">
<title>professourME&#45;&gt;professor</title>
<path fill="none" stroke="black" d="M446.5,-235.6C446.5,-194.89 446.5,-112.99 446.5,-66.43"/>
<polygon fill="black" stroke="black" points="450,-66.22 446.5,-56.22 443,-66.22 450,-66.22"/>
</g>
<!-- blasphemeinG -->
<g id="node42" class="node">
<title>blasphemeinG</title>
<text text-anchor="start" x="745.5" y="-677.3" font-family="Times New Roman,serif" font-size="14.00" fill="red">blasphēmein</text>
</g>
<!-- blasphemosG&#45;&gt;blasphemeinG -->
<g id="edge41" class="edge">
<title>blasphemosG&#45;&gt;blasphemeinG</title>
<path fill="none" stroke="black" d="M780.5,-743.96C780.5,-732.88 780.5,-720.29 780.5,-709.37"/>
<polygon fill="black" stroke="black" points="784,-709.13 780.5,-699.13 777,-709.13 784,-709.13"/>
</g>
<!-- blasphemiaG -->
<g id="node43" class="node">
<title>blasphemiaG</title>
<text text-anchor="start" x="723" y="-597.3" font-family="Times New Roman,serif" font-size="14.00" fill="red">blasphēmiā</text>
</g>
<!-- blasphemeinG&#45;&gt;blasphemiaG -->
<g id="edge42" class="edge">
<title>blasphemeinG&#45;&gt;blasphemiaG</title>
<path fill="none" stroke="black" d="M774.73,-662.69C771.43,-652.79 767.22,-640.16 763.5,-628.99"/>
<polygon fill="black" stroke="black" points="766.74,-627.64 760.25,-619.26 760.1,-629.86 766.74,-627.64"/>
</g>
<!-- blasphemareL -->
<g id="node47" class="node">
<title>blasphemareL</title>
<text text-anchor="start" x="839" y="-610.8" font-family="Times New Roman,serif" font-weight="bold" font-size="14.00">Latin</text>
<text text-anchor="start" x="820.5" y="-596.8" font-family="Times New Roman,serif" font-size="14.00" fill="red">blasphēmāre</text>
<text text-anchor="start" x="829" y="-584.4" font-family="Times New Roman,serif" font-size="12.00">to reproach</text>
</g>
<!-- blasphemeinG&#45;&gt;blasphemareL -->
<g id="edge46" class="edge">
<title>blasphemeinG&#45;&gt;blasphemareL</title>
<path fill="none" stroke="black" stroke-dasharray="1,5" d="M797.14,-662.69C805.69,-653.8 816.35,-642.72 826.21,-632.46"/>
<polygon fill="black" stroke="black" points="828.8,-634.82 833.21,-625.18 823.76,-629.96 828.8,-634.82"/>
</g>
<!-- blasphemiaL -->
<g id="node44" class="node">
<title>blasphemiaL</title>
<text text-anchor="start" x="738" y="-436.8" font-family="Times New Roman,serif" font-weight="bold" font-size="14.00">Latin</text>
<text text-anchor="start" x="723" y="-422.8" font-family="Times New Roman,serif" font-size="14.00" fill="red">blasphēmia</text>
</g>
<!-- blasphemiaG&#45;&gt;blasphemiaL -->
<g id="edge43" class="edge">
<title>blasphemiaG&#45;&gt;blasphemiaL</title>
<path fill="none" stroke="black" stroke-dasharray="1,5" d="M754.5,-582.86C754.5,-554.16 754.5,-496.13 754.5,-461.61"/>
<polygon fill="black" stroke="black" points="758,-461.3 754.5,-451.3 751,-461.3 758,-461.3"/>
</g>
<!-- blasfemieME -->
<g id="node45" class="node">
<title>blasfemieME</title>
<text text-anchor="start" x="733" y="-271.8" font-family="Times New Roman,serif" font-weight="bold" font-size="14.00">Middle</text>
<text text-anchor="start" x="731.5" y="-257.8" font-family="Times New Roman,serif" font-weight="bold" font-size="14.00">English</text>
<text text-anchor="start" x="728" y="-243.8" font-family="Times New Roman,serif" font-size="14.00" fill="red">blasfemie</text>
</g>
<!-- blasphemiaL&#45;&gt;blasfemieME -->
<g id="edge44" class="edge">
<title>blasphemiaL&#45;&gt;blasfemieME</title>
<path fill="none" stroke="black" stroke-dasharray="1,5" d="M754.5,-414.76C754.5,-387.03 754.5,-331.98 754.5,-296.09"/>
<polygon fill="black" stroke="black" points="758,-296.07 754.5,-286.07 751,-296.07 758,-296.07"/>
</g>
<!-- blasphemy -->
<g id="node46" class="node">
<title>blasphemy</title>
<text text-anchor="start" x="730" y="-41.8" font-family="Times New Roman,serif" font-weight="bold" font-size="14.00">Modern</text>
<text text-anchor="start" x="731.5" y="-27.8" font-family="Times New Roman,serif" font-weight="bold" font-size="14.00">English</text>
<text text-anchor="start" x="724" y="-13.8" font-family="Times New Roman,serif" font-size="14.00" fill="red">blasphemy</text>
</g>
<!-- blasfemieME&#45;&gt;blasphemy -->
<g id="edge45" class="edge">
<title>blasfemieME&#45;&gt;blasphemy</title>
<path fill="none" stroke="black" d="M754.5,-235.6C754.5,-194.89 754.5,-112.99 754.5,-66.43"/>
<polygon fill="black" stroke="black" points="758,-66.22 754.5,-56.22 751,-66.22 758,-66.22"/>
</g>
<!-- blasfemerOF -->
<g id="node48" class="node">
<title>blasfemerOF</title>
<text text-anchor="start" x="817.5" y="-369.8" font-family="Times New Roman,serif" font-weight="bold" font-size="14.00">Old French</text>
<text text-anchor="start" x="825" y="-355.8" font-family="Times New Roman,serif" font-size="14.00" fill="red">blasfemer</text>
</g>
<!-- blasphemareL&#45;&gt;blasfemerOF -->
<g id="edge47" class="edge">
<title>blasphemareL&#45;&gt;blasfemerOF</title>
<path fill="none" stroke="black" d="M855.2,-576.81C854.64,-533.54 853.45,-440.73 852.85,-394.43"/>
<polygon fill="black" stroke="black" points="856.35,-394.2 852.72,-384.25 849.35,-394.29 856.35,-394.2"/>
</g>
<!-- blastemareL -->
<g id="node49" class="node">
<title>blastemareL</title>
<text text-anchor="start" x="908.5" y="-483.3" font-family="Times New Roman,serif" font-size="14.00" fill="red">blastēmāre</text>
</g>
<!-- blasphemareL&#45;&gt;blastemareL -->
<g id="edge48" class="edge">
<title>blasphemareL&#45;&gt;blastemareL</title>
<path fill="none" stroke="black" d="M872.7,-576.79C886.37,-558.35 905.47,-532.57 919.57,-513.54"/>
<polygon fill="black" stroke="black" points="922.52,-515.44 925.66,-505.32 916.9,-511.27 922.52,-515.44"/>
</g>
<!-- blasfemenME -->
<g id="node50" class="node">
<title>blasfemenME</title>
<text text-anchor="start" x="831" y="-271.8" font-family="Times New Roman,serif" font-weight="bold" font-size="14.00">Middle</text>
<text text-anchor="start" x="829.5" y="-257.8" font-family="Times New Roman,serif" font-weight="bold" font-size="14.00">English</text>
<text text-anchor="start" x="824" y="-243.8" font-family="Times New Roman,serif" font-size="14.00" fill="red">blasfemen</text>
</g>
<!-- blasfemerOF&#45;&gt;blasfemenME -->
<g id="edge49" class="edge">
<title>blasfemerOF&#45;&gt;blasfemenME</title>
<path fill="none" stroke="black" stroke-dasharray="1,5" d="M852.5,-347.99C852.5,-334.08 852.5,-313.95 852.5,-296.67"/>
<polygon fill="black" stroke="black" points="856,-296.36 852.5,-286.36 849,-296.36 856,-296.36"/>
</g>
<!-- blasmerOF -->
<g id="node52" class="node">
<title>blasmerOF</title>
<text text-anchor="start" x="921.5" y="-376.8" font-family="Times New Roman,serif" font-weight="bold" font-size="14.00">Old French</text>
<text text-anchor="start" x="932.5" y="-362.8" font-family="Times New Roman,serif" font-size="14.00" fill="red">blasmer,</text>
<text text-anchor="start" x="937.5" y="-348.8" font-family="Times New Roman,serif" font-size="14.00" fill="red">blamer</text>
</g>
<!-- blastemareL&#45;&gt;blasmerOF -->
<g id="edge51" class="edge">
<title>blastemareL&#45;&gt;blasmerOF</title>
<path fill="none" stroke="black" d="M941.08,-468.95C943.75,-451.31 947.99,-423.27 951.35,-401.07"/>
<polygon fill="black" stroke="black" points="954.83,-401.43 952.87,-391.02 947.91,-400.38 954.83,-401.43"/>
</g>
<!-- blaspheme -->
<g id="node51" class="node">
<title>blaspheme</title>
<text text-anchor="start" x="828" y="-41.8" font-family="Times New Roman,serif" font-weight="bold" font-size="14.00">Modern</text>
<text text-anchor="start" x="829.5" y="-27.8" font-family="Times New Roman,serif" font-weight="bold" font-size="14.00">English</text>
<text text-anchor="start" x="822.5" y="-13.8" font-family="Times New Roman,serif" font-size="14.00" fill="red">blaspheme</text>
</g>
<!-- blasfemenME&#45;&gt;blaspheme -->
<g id="edge50" class="edge">
<title>blasfemenME&#45;&gt;blaspheme</title>
<path fill="none" stroke="black" d="M852.5,-235.6C852.5,-194.89 852.5,-112.99 852.5,-66.43"/>
<polygon fill="black" stroke="black" points="856,-66.22 852.5,-56.22 849,-66.22 856,-66.22"/>
</g>
<!-- blamenME -->
<g id="node53" class="node">
<title>blamenME</title>
<text text-anchor="start" x="935" y="-271.8" font-family="Times New Roman,serif" font-weight="bold" font-size="14.00">Middle</text>
<text text-anchor="start" x="933.5" y="-257.8" font-family="Times New Roman,serif" font-weight="bold" font-size="14.00">English</text>
<text text-anchor="start" x="936.5" y="-243.8" font-family="Times New Roman,serif" font-size="14.00" fill="red">blamen</text>
</g>
<!-- blasmerOF&#45;&gt;blamenME -->
<g id="edge52" class="edge">
<title>blasmerOF&#45;&gt;blamenME</title>
<path fill="none" stroke="black" stroke-dasharray="1,5" d="M956.5,-340.85C956.5,-327.65 956.5,-311.06 956.5,-296.51"/>
<polygon fill="black" stroke="black" points="960,-296.35 956.5,-286.35 953,-296.35 960,-296.35"/>
</g>
<!-- blame -->
<g id="node54" class="node">
<title>blame</title>
<text text-anchor="start" x="932" y="-41.8" font-family="Times New Roman,serif" font-weight="bold" font-size="14.00">Modern</text>
<text text-anchor="start" x="933.5" y="-27.8" font-family="Times New Roman,serif" font-weight="bold" font-size="14.00">English</text>
<text text-anchor="start" x="939.5" y="-13.8" font-family="Times New Roman,serif" font-size="14.00" fill="red">blame</text>
</g>
<!-- blamenME&#45;&gt;blame -->
<g id="edge53" class="edge">
<title>blamenME&#45;&gt;blame</title>
<path fill="none" stroke="black" d="M956.5,-235.6C956.5,-194.89 956.5,-112.99 956.5,-66.43"/>
<polygon fill="black" stroke="black" points="960,-66.22 956.5,-56.22 953,-66.22 960,-66.22"/>
</g>
</g>
</svg>
