<?xml version="1.0" encoding="UTF-8" standalone="no"?>
<!DOCTYPE svg PUBLIC "-//W3C//DTD SVG 1.1//EN"
 "http://www.w3.org/Graphics/SVG/1.1/DTD/svg11.dtd">
<!-- Generated by graphviz version 2.49.0 (20210828.1703)
 -->
<!-- Title: bha_top Pages: 1 -->
<svg width="272pt" height="145pt"
 viewBox="0.00 0.00 271.50 145.00" xmlns="http://www.w3.org/2000/svg" xmlns:xlink="http://www.w3.org/1999/xlink">
<g id="graph0" class="graph" transform="scale(1 1) rotate(0) translate(4 141)">
<title>bha_top</title>
<polygon fill="white" stroke="transparent" points="-4,4 -4,-141 267.5,-141 267.5,4 -4,4"/>
<!-- bha -->
<g id="node1" class="node">
<title>bha</title>
<polygon fill="none" stroke="black" points="211,-137 102,-137 102,-89 211,-89 211,-137"/>
<text text-anchor="start" x="110" y="-122.8" font-family="Times New Roman,serif" font-weight="bold" font-size="14.00">Indo&#45;European</text>
<text text-anchor="start" x="124.5" y="-108.8" font-family="Times New Roman,serif" font-size="14.00" fill="red">bhaə&#45;, bhā&#45;</text>
<text text-anchor="start" x="136.5" y="-96.4" font-family="Times New Roman,serif" font-size="12.00">to speak</text>
</g>
<!-- banwan -->
<g id="node2" class="node">
<title>banwan</title>
<g id="a_node2"><a xlink:href="bha-speak1.svg" xlink:title="&lt;b&gt;Germanic&lt;/b&gt;&lt;br/&gt;&lt;font color=&quot;red&quot;&gt;ban&#45;wan, bannan&lt;/font&gt;&lt;br/&gt;&lt;font point&#45;size=&quot;12&quot;&gt;to speak publicly&lt;/font&gt;">
<path fill="none" stroke="black" stroke-dasharray="5,2" d="M99,-50.5C99,-50.5 12,-50.5 12,-50.5 6,-50.5 0,-44.5 0,-38.5 0,-38.5 0,-14.5 0,-14.5 0,-8.5 6,-2.5 12,-2.5 12,-2.5 99,-2.5 99,-2.5 105,-2.5 111,-8.5 111,-14.5 111,-14.5 111,-38.5 111,-38.5 111,-44.5 105,-50.5 99,-50.5"/>
<text text-anchor="start" x="25" y="-36.3" font-family="Times New Roman,serif" font-weight="bold" font-size="14.00">Germanic</text>
<text text-anchor="start" x="8" y="-22.3" font-family="Times New Roman,serif" font-size="14.00" fill="red">ban&#45;wan, bannan</text>
<text text-anchor="start" x="17" y="-9.9" font-family="Times New Roman,serif" font-size="12.00">to speak publicly</text>
</a>
</g>
</g>
<!-- bha&#45;&gt;banwan -->
<g id="edge1" class="edge">
<title>bha&#45;&gt;banwan</title>
<path fill="none" stroke="black" d="M128.9,-88.91C117.21,-79.13 103.44,-67.61 91.01,-57.21"/>
<polygon fill="black" stroke="black" points="92.98,-54.29 83.07,-50.56 88.49,-59.66 92.98,-54.29"/>
</g>
<!-- fari -->
<g id="node3" class="node">
<title>fari</title>
<g id="a_node3"><a xlink:href="bha-speak2.svg" xlink:title="&lt;b&gt;Latin&lt;/b&gt;&lt;br/&gt;&lt;font color=&quot;red&quot;&gt;fārī&lt;/font&gt;">
<path fill="none" stroke="black" stroke-dasharray="5,2" d="M171.5,-44.5C171.5,-44.5 141.5,-44.5 141.5,-44.5 135.5,-44.5 129.5,-38.5 129.5,-32.5 129.5,-32.5 129.5,-20.5 129.5,-20.5 129.5,-14.5 135.5,-8.5 141.5,-8.5 141.5,-8.5 171.5,-8.5 171.5,-8.5 177.5,-8.5 183.5,-14.5 183.5,-20.5 183.5,-20.5 183.5,-32.5 183.5,-32.5 183.5,-38.5 177.5,-44.5 171.5,-44.5"/>
<text text-anchor="start" x="140" y="-30.3" font-family="Times New Roman,serif" font-weight="bold" font-size="14.00">Latin</text>
<text text-anchor="start" x="146.5" y="-16.3" font-family="Times New Roman,serif" font-size="14.00" fill="red">fārī</text>
</a>
</g>
</g>
<!-- bha&#45;&gt;fari -->
<g id="edge2" class="edge">
<title>bha&#45;&gt;fari</title>
<path fill="none" stroke="black" d="M156.5,-88.91C156.5,-78.43 156.5,-65.95 156.5,-54.99"/>
<polygon fill="black" stroke="black" points="160,-54.66 156.5,-44.66 153,-54.66 160,-54.66"/>
</g>
<!-- suff -->
<g id="node4" class="node">
<title>suff</title>
<g id="a_node4"><a xlink:href="bha-speak3.svg" xlink:title="various&lt;br/&gt;suffixed&lt;br/&gt;forms">
<path fill="none" stroke="black" stroke-dasharray="5,2" d="M251.5,-53C251.5,-53 213.5,-53 213.5,-53 207.5,-53 201.5,-47 201.5,-41 201.5,-41 201.5,-12 201.5,-12 201.5,-6 207.5,0 213.5,0 213.5,0 251.5,0 251.5,0 257.5,0 263.5,-6 263.5,-12 263.5,-12 263.5,-41 263.5,-41 263.5,-47 257.5,-53 251.5,-53"/>
<text text-anchor="start" x="212" y="-37.8" font-family="Times New Roman,serif" font-size="14.00">various</text>
<text text-anchor="start" x="209.5" y="-22.8" font-family="Times New Roman,serif" font-size="14.00">suffixed</text>
<text text-anchor="start" x="215.5" y="-7.8" font-family="Times New Roman,serif" font-size="14.00">forms</text>
</a>
</g>
</g>
<!-- bha&#45;&gt;suff -->
<g id="edge3" class="edge">
<title>bha&#45;&gt;suff</title>
<path fill="none" stroke="black" d="M177.27,-88.91C185.03,-80.28 194,-70.3 202.43,-60.93"/>
<polygon fill="black" stroke="black" points="205.26,-63.02 209.35,-53.24 200.06,-58.33 205.26,-63.02"/>
</g>
</g>
</svg>
