<?xml version="1.0" encoding="UTF-8" standalone="no"?>
<!DOCTYPE svg PUBLIC "-//W3C//DTD SVG 1.1//EN"
 "http://www.w3.org/Graphics/SVG/1.1/DTD/svg11.dtd">
<!-- Generated by graphviz version 2.49.0 (20210828.1703)
 -->
<!-- Title: 4 Pages: 1 -->
<svg width="655pt" height="464pt"
 viewBox="0.00 0.00 655.00 464.00" xmlns="http://www.w3.org/2000/svg" xmlns:xlink="http://www.w3.org/1999/xlink">
<g id="graph0" class="graph" transform="scale(1 1) rotate(0) translate(4 460)">
<title>4</title>
<polygon fill="white" stroke="transparent" points="-4,4 -4,-460 651,-460 651,4 -4,4"/>
<!-- famaL -->
<g id="node1" class="node">
<title>famaL</title>
<g id="a_node1"><a xlink:href="bha-speak3.svg" xlink:title="&lt;b&gt;Latin&lt;/b&gt;&lt;br/&gt;&lt;font color=&quot;red&quot;&gt;fāma&lt;/font&gt;&lt;br/&gt;&lt;font point&#45;size=&quot;12&quot;&gt;talk, fame,&lt;br/&gt;reputation&lt;/font&gt;">
<path fill="none" stroke="black" stroke-dasharray="5,2" d="M265.5,-456C265.5,-456 225.5,-456 225.5,-456 219.5,-456 213.5,-450 213.5,-444 213.5,-444 213.5,-408 213.5,-408 213.5,-402 219.5,-396 225.5,-396 225.5,-396 265.5,-396 265.5,-396 271.5,-396 277.5,-402 277.5,-408 277.5,-408 277.5,-444 277.5,-444 277.5,-450 271.5,-456 265.5,-456"/>
<text text-anchor="start" x="229" y="-441.8" font-family="Times New Roman,serif" font-weight="bold" font-size="14.00">Latin</text>
<text text-anchor="start" x="231.5" y="-427.8" font-family="Times New Roman,serif" font-size="14.00" fill="red">fāma</text>
<text text-anchor="start" x="221.5" y="-415.4" font-family="Times New Roman,serif" font-size="12.00">talk, fame,</text>
<text text-anchor="start" x="222.5" y="-403.4" font-family="Times New Roman,serif" font-size="12.00">reputation</text>
</a>
</g>
</g>
<!-- fameOF -->
<g id="node2" class="node">
<title>fameOF</title>
<text text-anchor="start" x="46.5" y="-177.8" font-family="Times New Roman,serif" font-weight="bold" font-size="14.00">Old French</text>
<text text-anchor="start" x="67.5" y="-163.8" font-family="Times New Roman,serif" font-size="14.00" fill="red">fame</text>
</g>
<!-- famaL&#45;&gt;fameOF -->
<g id="edge1" class="edge">
<title>famaL&#45;&gt;fameOF</title>
<path fill="none" stroke="black" d="M226.37,-395.83C194.05,-346.57 129.17,-247.66 98.41,-200.78"/>
<polygon fill="black" stroke="black" points="101.15,-198.57 92.74,-192.13 95.29,-202.41 101.15,-198.57"/>
</g>
<!-- famosusL -->
<g id="node3" class="node">
<title>famosusL</title>
<text text-anchor="start" x="193.5" y="-242.3" font-family="Times New Roman,serif" font-size="14.00" fill="red">fāmōsus</text>
</g>
<!-- famaL&#45;&gt;famosusL -->
<g id="edge2" class="edge">
<title>famaL&#45;&gt;famosusL</title>
<path fill="none" stroke="black" d="M240.88,-395.61C235.57,-361.9 226.95,-307.07 221.79,-274.27"/>
<polygon fill="black" stroke="black" points="225.19,-273.39 220.18,-264.06 218.28,-274.48 225.19,-273.39"/>
</g>
<!-- infamisL -->
<g id="node4" class="node">
<title>infamisL</title>
<text text-anchor="start" x="302.5" y="-326.3" font-family="Times New Roman,serif" font-size="14.00" fill="red">īnfāmis</text>
</g>
<!-- famaL&#45;&gt;infamisL -->
<g id="edge3" class="edge">
<title>famaL&#45;&gt;infamisL</title>
<path fill="none" stroke="black" d="M269.75,-395.77C280.29,-383.07 292.51,-368.35 302.64,-356.14"/>
<polygon fill="black" stroke="black" points="305.57,-358.09 309.26,-348.16 300.18,-353.62 305.57,-358.09"/>
</g>
<!-- diffamare -->
<g id="node5" class="node">
<title>diffamare</title>
<text text-anchor="start" x="394" y="-345.8" font-family="Times New Roman,serif" font-size="14.00" fill="red">diffāmāre,</text>
<text text-anchor="start" x="396.5" y="-331.8" font-family="Times New Roman,serif" font-size="14.00" fill="red">dēfāmāre</text>
<text text-anchor="start" x="387.5" y="-319.4" font-family="Times New Roman,serif" font-size="12.00">to spread news</text>
<text text-anchor="start" x="400" y="-307.4" font-family="Times New Roman,serif" font-size="12.00">of slander</text>
</g>
<!-- famaL&#45;&gt;diffamare -->
<g id="edge4" class="edge">
<title>famaL&#45;&gt;diffamare</title>
<path fill="none" stroke="black" d="M277.73,-402.01C280.99,-399.91 284.28,-397.87 287.5,-396 291.56,-393.64 333.92,-373.3 370.12,-355.99"/>
<polygon fill="black" stroke="black" points="371.65,-359.14 379.17,-351.67 368.63,-352.82 371.65,-359.14"/>
</g>
<!-- fameME -->
<g id="node6" class="node">
<title>fameME</title>
<text text-anchor="start" x="17" y="-99.8" font-family="Times New Roman,serif" font-weight="bold" font-size="14.00">Middle English</text>
<text text-anchor="start" x="49.5" y="-85.8" font-family="Times New Roman,serif" font-size="14.00" fill="red">fame</text>
</g>
<!-- fameOF&#45;&gt;fameME -->
<g id="edge5" class="edge">
<title>fameOF&#45;&gt;fameME</title>
<path fill="none" stroke="black" stroke-dasharray="1,5" d="M77.42,-155.75C75.21,-146.43 72.43,-134.69 69.93,-124.17"/>
<polygon fill="black" stroke="black" points="73.28,-123.1 67.57,-114.18 66.47,-124.71 73.28,-123.1"/>
</g>
<!-- famousAN -->
<g id="node8" class="node">
<title>famousAN</title>
<text text-anchor="start" x="157" y="-177.8" font-family="Times New Roman,serif" font-weight="bold" font-size="14.00">Anglo&#45;Norman</text>
<text text-anchor="start" x="181.5" y="-163.8" font-family="Times New Roman,serif" font-size="14.00" fill="red">famous</text>
</g>
<!-- famosusL&#45;&gt;famousAN -->
<g id="edge7" class="edge">
<title>famosusL&#45;&gt;famousAN</title>
<path fill="none" stroke="black" d="M213.79,-227.7C212.14,-219.98 210.15,-210.71 208.31,-202.11"/>
<polygon fill="black" stroke="black" points="211.68,-201.15 206.17,-192.1 204.84,-202.62 211.68,-201.15"/>
</g>
<!-- infamisME -->
<g id="node12" class="node">
<title>infamisME</title>
<text text-anchor="start" x="407" y="-99.8" font-family="Times New Roman,serif" font-weight="bold" font-size="14.00">Middle English</text>
<text text-anchor="start" x="433.5" y="-85.8" font-family="Times New Roman,serif" font-size="14.00" fill="red">infamis</text>
</g>
<!-- infamisL&#45;&gt;infamisME -->
<g id="edge11" class="edge">
<title>infamisL&#45;&gt;infamisME</title>
<path fill="none" stroke="black" stroke-dasharray="1,5" d="M333.62,-311.96C341.35,-298.89 352.21,-280.37 361.5,-264 389.61,-214.48 421.48,-156.11 439.37,-123.14"/>
<polygon fill="black" stroke="black" points="442.55,-124.61 444.24,-114.15 436.4,-121.27 442.55,-124.61"/>
</g>
<!-- infamiaL -->
<g id="node14" class="node">
<title>infamiaL</title>
<text text-anchor="start" x="302.5" y="-242.3" font-family="Times New Roman,serif" font-size="14.00" fill="red">īnfāmia</text>
</g>
<!-- infamisL&#45;&gt;infamiaL -->
<g id="edge13" class="edge">
<title>infamisL&#45;&gt;infamiaL</title>
<path fill="none" stroke="black" d="M323.5,-311.61C323.5,-300.77 323.5,-286.6 323.5,-274.29"/>
<polygon fill="black" stroke="black" points="327,-274.08 323.5,-264.08 320,-274.08 327,-274.08"/>
</g>
<!-- defamerOF -->
<g id="node19" class="node">
<title>defamerOF</title>
<text text-anchor="start" x="500.5" y="-177.8" font-family="Times New Roman,serif" font-weight="bold" font-size="14.00">Old French</text>
<text text-anchor="start" x="512.5" y="-163.8" font-family="Times New Roman,serif" font-size="14.00" fill="red">defamer</text>
</g>
<!-- diffamare&#45;&gt;defamerOF -->
<g id="edge18" class="edge">
<title>diffamare&#45;&gt;defamerOF</title>
<path fill="none" stroke="black" d="M444.02,-299.67C465.05,-271.01 496.75,-227.81 516.77,-200.53"/>
<polygon fill="black" stroke="black" points="519.74,-202.4 522.83,-192.27 514.09,-198.26 519.74,-202.4"/>
</g>
<!-- fame -->
<g id="node7" class="node">
<title>fame</title>
<text text-anchor="start" x="8" y="-21.8" font-family="Times New Roman,serif" font-weight="bold" font-size="14.00">Modern English</text>
<text text-anchor="start" x="43.5" y="-7.8" font-family="Times New Roman,serif" font-size="14.00" fill="red">fame</text>
</g>
<!-- fameME&#45;&gt;fame -->
<g id="edge6" class="edge">
<title>fameME&#45;&gt;fame</title>
<path fill="none" stroke="black" d="M62.14,-77.75C61.4,-68.43 60.48,-56.69 59.64,-46.17"/>
<polygon fill="black" stroke="black" points="63.13,-45.87 58.86,-36.18 56.15,-46.42 63.13,-45.87"/>
</g>
<!-- famousME -->
<g id="node9" class="node">
<title>famousME</title>
<text text-anchor="start" x="147" y="-99.8" font-family="Times New Roman,serif" font-weight="bold" font-size="14.00">Middle English</text>
<text text-anchor="start" x="172.5" y="-85.8" font-family="Times New Roman,serif" font-size="14.00" fill="red">famous</text>
</g>
<!-- famousAN&#45;&gt;famousME -->
<g id="edge8" class="edge">
<title>famousAN&#45;&gt;famousME</title>
<path fill="none" stroke="black" stroke-dasharray="1,5" d="M200.46,-155.75C199.35,-146.43 197.96,-134.69 196.72,-124.17"/>
<polygon fill="black" stroke="black" points="200.19,-123.7 195.53,-114.18 193.23,-124.52 200.19,-123.7"/>
</g>
<!-- famous -->
<g id="node10" class="node">
<title>famous</title>
<text text-anchor="start" x="141" y="-21.8" font-family="Times New Roman,serif" font-weight="bold" font-size="14.00">Modern English</text>
<text text-anchor="start" x="169.5" y="-7.8" font-family="Times New Roman,serif" font-size="14.00" fill="red">famous</text>
</g>
<!-- famousME&#45;&gt;famous -->
<g id="edge9" class="edge">
<title>famousME&#45;&gt;famous</title>
<path fill="none" stroke="black" d="M192.82,-77.75C192.45,-68.52 192,-56.93 191.59,-46.49"/>
<polygon fill="black" stroke="black" points="195.07,-46.03 191.18,-36.18 188.08,-46.31 195.07,-46.03"/>
</g>
<!-- in -->
<g id="node11" class="node">
<title>in</title>
<text text-anchor="start" x="316" y="-428.8" font-family="Times New Roman,serif" font-size="14.00" fill="red">in&#45;</text>
<text text-anchor="start" x="316" y="-416.4" font-family="Times New Roman,serif" font-size="12.00">not</text>
</g>
<!-- in&#45;&gt;infamisL -->
<g id="edge10" class="edge">
<title>in&#45;&gt;infamisL</title>
<path fill="none" stroke="black" d="M323.5,-407.76C323.5,-393.98 323.5,-374.4 323.5,-358.47"/>
<polygon fill="black" stroke="black" points="327,-358.13 323.5,-348.13 320,-358.13 327,-358.13"/>
</g>
<!-- infamous -->
<g id="node13" class="node">
<title>infamous</title>
<text text-anchor="start" x="407" y="-21.8" font-family="Times New Roman,serif" font-weight="bold" font-size="14.00">Modern English</text>
<text text-anchor="start" x="430.5" y="-7.8" font-family="Times New Roman,serif" font-size="14.00" fill="red">infamous</text>
</g>
<!-- infamisME&#45;&gt;infamous -->
<g id="edge12" class="edge">
<title>infamisME&#45;&gt;infamous</title>
<path fill="none" stroke="black" d="M454.18,-77.75C454.55,-68.52 455,-56.93 455.41,-46.49"/>
<polygon fill="black" stroke="black" points="458.92,-46.31 455.82,-36.18 451.93,-46.03 458.92,-46.31"/>
</g>
<!-- infamieOF -->
<g id="node15" class="node">
<title>infamieOF</title>
<text text-anchor="start" x="288.5" y="-177.8" font-family="Times New Roman,serif" font-weight="bold" font-size="14.00">Old French</text>
<text text-anchor="start" x="303.5" y="-163.8" font-family="Times New Roman,serif" font-size="14.00" fill="red">infamie</text>
</g>
<!-- infamiaL&#45;&gt;infamieOF -->
<g id="edge14" class="edge">
<title>infamiaL&#45;&gt;infamieOF</title>
<path fill="none" stroke="black" d="M323.5,-227.7C323.5,-219.98 323.5,-210.71 323.5,-202.11"/>
<polygon fill="black" stroke="black" points="327,-202.1 323.5,-192.1 320,-202.1 327,-202.1"/>
</g>
<!-- infamieME -->
<g id="node16" class="node">
<title>infamieME</title>
<text text-anchor="start" x="277" y="-105.8" font-family="Times New Roman,serif" font-weight="bold" font-size="14.00">Middle English</text>
<text text-anchor="start" x="303.5" y="-91.8" font-family="Times New Roman,serif" font-size="14.00" fill="red">infamie</text>
<text text-anchor="start" x="303.5" y="-79.4" font-family="Times New Roman,serif" font-size="12.00">dishonor</text>
</g>
<!-- infamieOF&#45;&gt;infamieME -->
<g id="edge15" class="edge">
<title>infamieOF&#45;&gt;infamieME</title>
<path fill="none" stroke="black" stroke-dasharray="1,5" d="M323.5,-155.75C323.5,-148.2 323.5,-139.07 323.5,-130.28"/>
<polygon fill="black" stroke="black" points="327,-130.23 323.5,-120.23 320,-130.23 327,-130.23"/>
</g>
<!-- infamy -->
<g id="node17" class="node">
<title>infamy</title>
<text text-anchor="start" x="274" y="-21.8" font-family="Times New Roman,serif" font-weight="bold" font-size="14.00">Modern English</text>
<text text-anchor="start" x="304.5" y="-7.8" font-family="Times New Roman,serif" font-size="14.00" fill="red">infamy</text>
</g>
<!-- infamieME&#45;&gt;infamy -->
<g id="edge16" class="edge">
<title>infamieME&#45;&gt;infamy</title>
<path fill="none" stroke="black" d="M323.5,-71.78C323.5,-63.68 323.5,-54.52 323.5,-46.12"/>
<polygon fill="black" stroke="black" points="327,-46.04 323.5,-36.04 320,-46.04 327,-46.04"/>
</g>
<!-- dis -->
<g id="node18" class="node">
<title>dis</title>
<text text-anchor="start" x="411.5" y="-428.8" font-family="Times New Roman,serif" font-size="14.00" fill="red">dis&#45;</text>
<text text-anchor="start" x="410.5" y="-416.4" font-family="Times New Roman,serif" font-size="12.00">apart</text>
</g>
<!-- dis&#45;&gt;diffamare -->
<g id="edge17" class="edge">
<title>dis&#45;&gt;diffamare</title>
<path fill="none" stroke="black" d="M422.5,-407.76C422.5,-397.3 422.5,-383.51 422.5,-370.5"/>
<polygon fill="black" stroke="black" points="426,-370.32 422.5,-360.32 419,-370.32 426,-370.32"/>
</g>
<!-- defamenME -->
<g id="node20" class="node">
<title>defamenME</title>
<text text-anchor="start" x="538" y="-99.8" font-family="Times New Roman,serif" font-weight="bold" font-size="14.00">Middle English</text>
<text text-anchor="start" x="560.5" y="-85.8" font-family="Times New Roman,serif" font-size="14.00" fill="red">defamen</text>
</g>
<!-- defamerOF&#45;&gt;defamenME -->
<g id="edge19" class="edge">
<title>defamerOF&#45;&gt;defamenME</title>
<path fill="none" stroke="black" stroke-dasharray="1,5" d="M546.62,-155.75C552.88,-146.04 560.83,-133.71 567.83,-122.86"/>
<polygon fill="black" stroke="black" points="570.95,-124.48 573.43,-114.18 565.06,-120.69 570.95,-124.48"/>
</g>
<!-- defame -->
<g id="node21" class="node">
<title>defame</title>
<text text-anchor="start" x="540" y="-21.8" font-family="Times New Roman,serif" font-weight="bold" font-size="14.00">Modern English</text>
<text text-anchor="start" x="569" y="-7.8" font-family="Times New Roman,serif" font-size="14.00" fill="red">defame</text>
</g>
<!-- defamenME&#45;&gt;defame -->
<g id="edge20" class="edge">
<title>defamenME&#45;&gt;defame</title>
<path fill="none" stroke="black" d="M585.63,-77.75C586.25,-68.43 587.02,-56.69 587.71,-46.17"/>
<polygon fill="black" stroke="black" points="591.21,-46.39 588.37,-36.18 584.22,-45.93 591.21,-46.39"/>
</g>
</g>
</svg>
