<?xml version="1.0" encoding="UTF-8" standalone="no"?>
<!DOCTYPE svg PUBLIC "-//W3C//DTD SVG 1.1//EN"
 "http://www.w3.org/Graphics/SVG/1.1/DTD/svg11.dtd">
<!-- Generated by graphviz version 2.49.0 (20210828.1703)
 -->
<!-- Title: 2 Pages: 1 -->
<svg width="993pt" height="674pt"
 viewBox="0.00 0.00 992.50 674.00" xmlns="http://www.w3.org/2000/svg" xmlns:xlink="http://www.w3.org/1999/xlink">
<g id="graph0" class="graph" transform="scale(1 1) rotate(0) translate(4 670)">
<title>2</title>
<polygon fill="white" stroke="transparent" points="-4,4 -4,-670 988.5,-670 988.5,4 -4,4"/>
<!-- bha -->
<g id="node1" class="node">
<title>bha</title>
<g id="a_node1"><a xlink:href="bha-speak0.svg" xlink:title="&lt;b&gt;Indo&#45;European&lt;/b&gt;&lt;br/&gt;&lt;font color=&quot;red&quot;&gt;bhā&#45;&lt;/font&gt;&lt;br/&gt;&lt;font point&#45;size=&quot;12&quot;&gt;to speak&lt;/font&gt;">
<polygon fill="none" stroke="black" points="670,-666 561,-666 561,-618 670,-618 670,-666"/>
<text text-anchor="start" x="569" y="-651.8" font-family="Times New Roman,serif" font-weight="bold" font-size="14.00">Indo&#45;European</text>
<text text-anchor="start" x="603" y="-637.8" font-family="Times New Roman,serif" font-size="14.00" fill="red">bhā&#45;</text>
<text text-anchor="start" x="595.5" y="-625.4" font-family="Times New Roman,serif" font-size="12.00">to speak</text>
</a>
</g>
</g>
<!-- banwan -->
<g id="node2" class="node">
<title>banwan</title>
<text text-anchor="start" x="384" y="-567.8" font-family="Times New Roman,serif" font-weight="bold" font-size="14.00">Germanic</text>
<text text-anchor="start" x="367" y="-553.8" font-family="Times New Roman,serif" font-size="14.00" fill="red">ban&#45;wan, bannan</text>
<text text-anchor="start" x="376" y="-541.4" font-family="Times New Roman,serif" font-size="12.00">to speak publicly</text>
</g>
<!-- bha&#45;&gt;banwan -->
<g id="edge1" class="edge">
<title>bha&#45;&gt;banwan</title>
<path fill="none" stroke="black" d="M560.84,-618.7C535.79,-608.48 505.89,-596.28 479.67,-585.59"/>
<polygon fill="black" stroke="black" points="480.78,-582.26 470.2,-581.72 478.13,-588.74 480.78,-582.26"/>
</g>
<!-- phanai -->
<g id="node3" class="node">
<title>phanai</title>
<text text-anchor="start" x="762.5" y="-561.8" font-family="Times New Roman,serif" font-weight="bold" font-size="14.00">Greek</text>
<text text-anchor="start" x="764" y="-547.8" font-family="Times New Roman,serif" font-size="14.00" fill="red">phanai</text>
</g>
<!-- bha&#45;&gt;phanai -->
<g id="edge2" class="edge">
<title>bha&#45;&gt;phanai</title>
<path fill="none" stroke="black" d="M662.46,-617.94C688.52,-605.14 720.5,-589.44 744.9,-577.46"/>
<polygon fill="black" stroke="black" points="746.74,-580.46 754.18,-572.91 743.66,-574.17 746.74,-580.46"/>
</g>
<!-- bannanOE -->
<g id="node4" class="node">
<title>bannanOE</title>
<text text-anchor="start" x="39" y="-301.8" font-family="Times New Roman,serif" font-weight="bold" font-size="14.00">Old English</text>
<text text-anchor="start" x="55.5" y="-287.8" font-family="Times New Roman,serif" font-size="14.00" fill="red">bannan</text>
<text text-anchor="start" x="50.5" y="-275.4" font-family="Times New Roman,serif" font-size="12.00">to summon</text>
</g>
<!-- banwan&#45;&gt;bannanOE -->
<g id="edge3" class="edge">
<title>banwan&#45;&gt;bannanOE</title>
<path fill="none" stroke="black" d="M358.99,-541.16C327.33,-531 287.52,-516.3 254.5,-498 208.78,-472.66 196.86,-464.5 161.5,-426 133.09,-395.07 107.97,-353.71 92.32,-325.37"/>
<polygon fill="black" stroke="black" points="95.24,-323.4 87.39,-316.29 89.09,-326.75 95.24,-323.4"/>
</g>
<!-- bannaON -->
<g id="node5" class="node">
<title>bannaON</title>
<text text-anchor="start" x="178.5" y="-411.8" font-family="Times New Roman,serif" font-weight="bold" font-size="14.00">Old Norse</text>
<text text-anchor="start" x="193.5" y="-397.8" font-family="Times New Roman,serif" font-size="14.00" fill="red">banna</text>
<text text-anchor="start" x="185.5" y="-385.4" font-family="Times New Roman,serif" font-size="12.00">to prohibit,</text>
<text text-anchor="start" x="198" y="-373.4" font-family="Times New Roman,serif" font-size="12.00">curse</text>
</g>
<!-- banwan&#45;&gt;bannaON -->
<g id="edge4" class="edge">
<title>banwan&#45;&gt;bannaON</title>
<path fill="none" stroke="black" d="M358.79,-535.51C337.51,-525.84 313.74,-513.15 294.5,-498 271.82,-480.14 251.04,-455.26 235.81,-434.66"/>
<polygon fill="black" stroke="black" points="238.55,-432.46 229.85,-426.41 232.88,-436.57 238.55,-432.46"/>
</g>
<!-- banOF -->
<g id="node6" class="node">
<title>banOF</title>
<text text-anchor="start" x="189.5" y="-313.8" font-family="Times New Roman,serif" font-weight="bold" font-size="14.00">Old French</text>
<text text-anchor="start" x="214" y="-299.8" font-family="Times New Roman,serif" font-size="14.00" fill="red">ban</text>
<text text-anchor="start" x="197" y="-287.4" font-family="Times New Roman,serif" font-size="12.00">summons to</text>
<text text-anchor="start" x="189.5" y="-275.4" font-family="Times New Roman,serif" font-size="12.00">military service,</text>
<text text-anchor="start" x="185" y="-263.4" font-family="Times New Roman,serif" font-size="12.00">feudal jurisdiction</text>
</g>
<!-- banwan&#45;&gt;banOF -->
<g id="edge5" class="edge">
<title>banwan&#45;&gt;banOF</title>
<path fill="none" stroke="black" stroke-dasharray="1,5" d="M397.64,-533.57C365.85,-489.4 296.6,-393.19 255.97,-336.73"/>
<polygon fill="black" stroke="black" points="258.63,-334.44 249.95,-328.36 252.95,-338.53 258.63,-334.44"/>
</g>
<!-- bandonOF -->
<g id="node7" class="node">
<title>bandonOF</title>
<text text-anchor="start" x="298.5" y="-315.8" font-family="Times New Roman,serif" font-weight="bold" font-size="14.00">Old French</text>
<text text-anchor="start" x="312" y="-301.8" font-family="Times New Roman,serif" font-size="14.00" fill="red">bandon</text>
<text text-anchor="start" x="317.5" y="-289.4" font-family="Times New Roman,serif" font-size="12.00">control</text>
<text text-anchor="start" x="305.5" y="-275.8" font-family="Times New Roman,serif" font-size="14.00" fill="red">a bandon,</text>
<text text-anchor="start" x="300" y="-261.8" font-family="Times New Roman,serif" font-size="14.00" fill="red">abaondoner</text>
</g>
<!-- banwan&#45;&gt;bandonOF -->
<g id="edge6" class="edge">
<title>banwan&#45;&gt;bandonOF</title>
<path fill="none" stroke="black" stroke-dasharray="1,5" d="M407.31,-533.57C394.02,-490.24 365.35,-396.82 347.92,-339.99"/>
<polygon fill="black" stroke="black" points="351.18,-338.7 344.9,-330.17 344.49,-340.76 351.18,-338.7"/>
</g>
<!-- banir -->
<g id="node8" class="node">
<title>banir</title>
<text text-anchor="start" x="405.5" y="-295.8" font-family="Times New Roman,serif" font-weight="bold" font-size="14.00">Old French</text>
<text text-anchor="start" x="402.5" y="-281.8" font-family="Times New Roman,serif" font-size="14.00" fill="red">banir, baniss&#45;</text>
</g>
<!-- banwan&#45;&gt;banir -->
<g id="edge7" class="edge">
<title>banwan&#45;&gt;banir</title>
<path fill="none" stroke="black" stroke-dasharray="1,5" d="M416.81,-533.57C421.61,-484.8 432.66,-372.57 437.79,-320.48"/>
<polygon fill="black" stroke="black" points="441.3,-320.62 438.79,-310.32 434.33,-319.93 441.3,-320.62"/>
</g>
<!-- bannus -->
<g id="node9" class="node">
<title>bannus</title>
<text text-anchor="start" x="513" y="-405.8" font-family="Times New Roman,serif" font-weight="bold" font-size="14.00">Latin</text>
<text text-anchor="start" x="483.5" y="-391.8" font-family="Times New Roman,serif" font-size="14.00" fill="red">bannus, bannum</text>
<text text-anchor="start" x="502.5" y="-379.4" font-family="Times New Roman,serif" font-size="12.00">proclamtion</text>
</g>
<!-- banwan&#45;&gt;bannus -->
<g id="edge8" class="edge">
<title>banwan&#45;&gt;bannus</title>
<path fill="none" stroke="black" stroke-dasharray="1,5" d="M431.22,-533.73C451.21,-505.93 484.74,-459.28 506.99,-428.32"/>
<polygon fill="black" stroke="black" points="509.95,-430.2 512.94,-420.03 504.27,-426.11 509.95,-430.2"/>
</g>
<!-- bandire -->
<g id="node10" class="node">
<title>bandire</title>
<text text-anchor="start" x="719.5" y="-203.8" font-family="Times New Roman,serif" font-weight="bold" font-size="14.00">Italian</text>
<text text-anchor="start" x="718.5" y="-189.8" font-family="Times New Roman,serif" font-size="14.00" fill="red">bandire</text>
<text text-anchor="start" x="683" y="-177.4" font-family="Times New Roman,serif" font-size="12.00">to have been summoned,</text>
<text text-anchor="start" x="702" y="-165.4" font-family="Times New Roman,serif" font-size="12.00">to band together</text>
</g>
<!-- banwan&#45;&gt;bandire -->
<g id="edge9" class="edge">
<title>banwan&#45;&gt;bandire</title>
<path fill="none" stroke="black" stroke-dasharray="1,5" d="M454.33,-533.91C492.83,-510.25 551.23,-470.67 592.5,-426 649.75,-364.02 697.18,-276.6 721.62,-227.09"/>
<polygon fill="black" stroke="black" points="724.82,-228.53 726.06,-218.01 718.53,-225.46 724.82,-228.53"/>
</g>
<!-- phasisG -->
<g id="node25" class="node">
<title>phasisG</title>
<text text-anchor="start" x="764.5" y="-482.8" font-family="Times New Roman,serif" font-size="14.00" fill="red">phasis</text>
<text text-anchor="start" x="761.5" y="-470.4" font-family="Times New Roman,serif" font-size="12.00">utterance</text>
</g>
<!-- phanai&#45;&gt;phasisG -->
<g id="edge25" class="edge">
<title>phanai&#45;&gt;phasisG</title>
<path fill="none" stroke="black" d="M782.5,-539.75C782.5,-530.52 782.5,-518.93 782.5,-508.49"/>
<polygon fill="black" stroke="black" points="786,-508.18 782.5,-498.18 779,-508.18 786,-508.18"/>
</g>
<!-- phetesG -->
<g id="node28" class="node">
<title>phetesG</title>
<text text-anchor="start" x="838" y="-482.8" font-family="Times New Roman,serif" font-size="14.00" fill="red">&#45;phētēs</text>
<text text-anchor="start" x="840" y="-470.4" font-family="Times New Roman,serif" font-size="12.00">speaker</text>
</g>
<!-- phanai&#45;&gt;phetesG -->
<g id="edge28" class="edge">
<title>phanai&#45;&gt;phetesG</title>
<path fill="none" stroke="black" d="M799.75,-539.75C809.85,-529.65 822.78,-516.72 833.94,-505.56"/>
<polygon fill="black" stroke="black" points="836.73,-507.72 841.32,-498.18 831.78,-502.77 836.73,-507.72"/>
</g>
<!-- bannenME -->
<g id="node11" class="node">
<title>bannenME</title>
<text text-anchor="start" x="29" y="-203.8" font-family="Times New Roman,serif" font-weight="bold" font-size="14.00">Middle English</text>
<text text-anchor="start" x="55.5" y="-189.8" font-family="Times New Roman,serif" font-size="14.00" fill="red">bannen</text>
<text text-anchor="start" x="46.5" y="-177.4" font-family="Times New Roman,serif" font-size="12.00">to shummon,</text>
<text text-anchor="start" x="43" y="-165.4" font-family="Times New Roman,serif" font-size="12.00">prohibit, curse</text>
</g>
<!-- bannanOE&#45;&gt;bannenME -->
<g id="edge10" class="edge">
<title>bannanOE&#45;&gt;bannenME</title>
<path fill="none" stroke="black" d="M75.5,-267.85C75.5,-256.26 75.5,-241.89 75.5,-228.61"/>
<polygon fill="black" stroke="black" points="79,-228.27 75.5,-218.27 72,-228.27 79,-228.27"/>
</g>
<!-- bannaON&#45;&gt;bannenME -->
<g id="edge11" class="edge">
<title>bannaON&#45;&gt;bannenME</title>
<path fill="none" stroke="black" stroke-dasharray="1,5" d="M190.32,-365.99C182.87,-354.9 174.54,-342.03 167.5,-330 148.33,-297.23 149.28,-285.78 128.5,-254 122.34,-244.58 115.06,-234.91 107.91,-226.02"/>
<polygon fill="black" stroke="black" points="110.46,-223.61 101.41,-218.09 105.04,-228.05 110.46,-223.61"/>
</g>
<!-- banalF -->
<g id="node13" class="node">
<title>banalF</title>
<text text-anchor="start" x="175.5" y="-191.8" font-family="Times New Roman,serif" font-weight="bold" font-size="14.00">French</text>
<text text-anchor="start" x="182.5" y="-177.8" font-family="Times New Roman,serif" font-size="14.00" fill="red">banal</text>
</g>
<!-- banOF&#45;&gt;banalF -->
<g id="edge13" class="edge">
<title>banOF&#45;&gt;banalF</title>
<path fill="none" stroke="black" d="M215.21,-255.9C211.76,-242.88 207.91,-228.33 204.68,-216.14"/>
<polygon fill="black" stroke="black" points="207.97,-214.89 202.03,-206.12 201.21,-216.68 207.97,-214.89"/>
</g>
<!-- abandounen -->
<g id="node15" class="node">
<title>abandounen</title>
<text text-anchor="start" x="267" y="-191.8" font-family="Times New Roman,serif" font-weight="bold" font-size="14.00">Middle English</text>
<text text-anchor="start" x="279.5" y="-177.8" font-family="Times New Roman,serif" font-size="14.00" fill="red">abandounen</text>
</g>
<!-- bandonOF&#45;&gt;abandounen -->
<g id="edge15" class="edge">
<title>bandonOF&#45;&gt;abandounen</title>
<path fill="none" stroke="black" stroke-dasharray="1,5" d="M326.22,-253.89C323.78,-241.41 321.1,-227.74 318.83,-216.18"/>
<polygon fill="black" stroke="black" points="322.24,-215.38 316.88,-206.24 315.37,-216.73 322.24,-215.38"/>
</g>
<!-- banishen -->
<g id="node17" class="node">
<title>banishen</title>
<text text-anchor="start" x="394" y="-191.8" font-family="Times New Roman,serif" font-weight="bold" font-size="14.00">Middle English</text>
<text text-anchor="start" x="416" y="-177.8" font-family="Times New Roman,serif" font-size="14.00" fill="red">banishen</text>
</g>
<!-- banir&#45;&gt;banishen -->
<g id="edge17" class="edge">
<title>banir&#45;&gt;banishen</title>
<path fill="none" stroke="black" stroke-dasharray="1,5" d="M440.5,-273.7C440.5,-257.92 440.5,-234.36 440.5,-216.09"/>
<polygon fill="black" stroke="black" points="444,-216.05 440.5,-206.05 437,-216.05 444,-216.05"/>
</g>
<!-- bandoI -->
<g id="node19" class="node">
<title>bandoI</title>
<text text-anchor="start" x="527.5" y="-203.8" font-family="Times New Roman,serif" font-weight="bold" font-size="14.00">Italian</text>
<text text-anchor="start" x="529.5" y="-189.8" font-family="Times New Roman,serif" font-size="14.00" fill="red">bando</text>
<text text-anchor="start" x="537" y="-177.4" font-family="Times New Roman,serif" font-size="12.00">legal</text>
<text text-anchor="start" x="521" y="-165.4" font-family="Times New Roman,serif" font-size="12.00">proclamatin</text>
</g>
<!-- bannus&#45;&gt;bandoI -->
<g id="edge19" class="edge">
<title>bannus&#45;&gt;bandoI</title>
<path fill="none" stroke="black" d="M531.53,-371.77C534.58,-336.87 540.38,-270.5 544.09,-228.07"/>
<polygon fill="black" stroke="black" points="547.57,-228.36 544.96,-218.09 540.6,-227.75 547.57,-228.36"/>
</g>
<!-- banditoI -->
<g id="node23" class="node">
<title>banditoI</title>
<text text-anchor="start" x="714" y="-100.3" font-family="Times New Roman,serif" font-size="14.00" fill="red">bandito</text>
</g>
<!-- bandire&#45;&gt;banditoI -->
<g id="edge23" class="edge">
<title>bandire&#45;&gt;banditoI</title>
<path fill="none" stroke="black" d="M738.08,-157.86C737.67,-149.54 737.23,-140.5 736.83,-132.29"/>
<polygon fill="black" stroke="black" points="740.32,-131.93 736.33,-122.11 733.33,-132.27 740.32,-131.93"/>
</g>
<!-- ban -->
<g id="node12" class="node">
<title>ban</title>
<text text-anchor="start" x="8" y="-28.8" font-family="Times New Roman,serif" font-weight="bold" font-size="14.00">Modern English</text>
<text text-anchor="start" x="47" y="-14.8" font-family="Times New Roman,serif" font-size="14.00" fill="red">ban</text>
</g>
<!-- bannenME&#45;&gt;ban -->
<g id="edge12" class="edge">
<title>bannenME&#45;&gt;ban</title>
<path fill="none" stroke="black" d="M72.24,-157.84C68.92,-128.11 63.8,-82.35 60.55,-53.31"/>
<polygon fill="black" stroke="black" points="64,-52.61 59.41,-43.06 57.04,-53.39 64,-52.61"/>
</g>
<!-- banal -->
<g id="node14" class="node">
<title>banal</title>
<text text-anchor="start" x="141" y="-28.8" font-family="Times New Roman,serif" font-weight="bold" font-size="14.00">Modern English</text>
<text text-anchor="start" x="175.5" y="-14.8" font-family="Times New Roman,serif" font-size="14.00" fill="red">banal</text>
</g>
<!-- banalF&#45;&gt;banal -->
<g id="edge14" class="edge">
<title>banalF&#45;&gt;banal</title>
<path fill="none" stroke="black" stroke-dasharray="1,5" d="M196.75,-169.77C195.54,-141.93 193.14,-86.81 191.7,-53.5"/>
<polygon fill="black" stroke="black" points="195.17,-52.94 191.24,-43.11 188.18,-53.25 195.17,-52.94"/>
</g>
<!-- abandon -->
<g id="node16" class="node">
<title>abandon</title>
<text text-anchor="start" x="274" y="-28.8" font-family="Times New Roman,serif" font-weight="bold" font-size="14.00">Modern English</text>
<text text-anchor="start" x="299" y="-14.8" font-family="Times New Roman,serif" font-size="14.00" fill="red">abandon</text>
</g>
<!-- abandounen&#45;&gt;abandon -->
<g id="edge16" class="edge">
<title>abandounen&#45;&gt;abandon</title>
<path fill="none" stroke="black" d="M314.57,-169.77C316.3,-141.93 319.72,-86.81 321.79,-53.5"/>
<polygon fill="black" stroke="black" points="325.31,-53.3 322.44,-43.11 318.32,-52.87 325.31,-53.3"/>
</g>
<!-- banish -->
<g id="node18" class="node">
<title>banish</title>
<text text-anchor="start" x="407" y="-28.8" font-family="Times New Roman,serif" font-weight="bold" font-size="14.00">Modern English</text>
<text text-anchor="start" x="438" y="-14.8" font-family="Times New Roman,serif" font-size="14.00" fill="red">banish</text>
</g>
<!-- banishen&#45;&gt;banish -->
<g id="edge18" class="edge">
<title>banishen&#45;&gt;banish</title>
<path fill="none" stroke="black" d="M442.21,-169.77C444.99,-141.81 450.5,-86.33 453.81,-53.06"/>
<polygon fill="black" stroke="black" points="457.29,-53.4 454.8,-43.11 450.33,-52.71 457.29,-53.4"/>
</g>
<!-- contrabandoI -->
<g id="node21" class="node">
<title>contrabandoI</title>
<text text-anchor="start" x="560" y="-100.3" font-family="Times New Roman,serif" font-size="14.00" fill="red">contrabando</text>
</g>
<!-- bandoI&#45;&gt;contrabandoI -->
<g id="edge20" class="edge">
<title>bandoI&#45;&gt;contrabandoI</title>
<path fill="none" stroke="black" d="M564.56,-157.86C569.7,-149.07 575.31,-139.48 580.33,-130.92"/>
<polygon fill="black" stroke="black" points="583.45,-132.51 585.48,-122.11 577.41,-128.97 583.45,-132.51"/>
</g>
<!-- contra -->
<g id="node20" class="node">
<title>contra</title>
<text text-anchor="start" x="608.5" y="-190.8" font-family="Times New Roman,serif" font-size="14.00" fill="red">contra&#45;</text>
<text text-anchor="start" x="613" y="-178.4" font-family="Times New Roman,serif" font-size="12.00">against</text>
</g>
<!-- contra&#45;&gt;contrabandoI -->
<g id="edge21" class="edge">
<title>contra&#45;&gt;contrabandoI</title>
<path fill="none" stroke="black" d="M621.5,-169.61C617.05,-158.56 611.21,-144.03 606.18,-131.55"/>
<polygon fill="black" stroke="black" points="609.36,-130.05 602.38,-122.08 602.86,-132.67 609.36,-130.05"/>
</g>
<!-- contraband -->
<g id="node22" class="node">
<title>contraband</title>
<text text-anchor="start" x="546" y="-28.8" font-family="Times New Roman,serif" font-weight="bold" font-size="14.00">Modern English</text>
<text text-anchor="start" x="563.5" y="-14.8" font-family="Times New Roman,serif" font-size="14.00" fill="red">contraband</text>
</g>
<!-- contrabandoI&#45;&gt;contraband -->
<g id="edge22" class="edge">
<title>contrabandoI&#45;&gt;contraband</title>
<path fill="none" stroke="black" stroke-dasharray="1,5" d="M595.5,-85.91C595.5,-76.34 595.5,-64.18 595.5,-53.32"/>
<polygon fill="black" stroke="black" points="599,-53.04 595.5,-43.04 592,-53.04 599,-53.04"/>
</g>
<!-- bandit -->
<g id="node24" class="node">
<title>bandit</title>
<text text-anchor="start" x="682" y="-28.8" font-family="Times New Roman,serif" font-weight="bold" font-size="14.00">Modern English</text>
<text text-anchor="start" x="714" y="-14.8" font-family="Times New Roman,serif" font-size="14.00" fill="red">bandit</text>
</g>
<!-- banditoI&#45;&gt;bandit -->
<g id="edge24" class="edge">
<title>banditoI&#45;&gt;bandit</title>
<path fill="none" stroke="black" stroke-dasharray="1,5" d="M734.61,-85.91C734.12,-76.34 733.48,-64.18 732.92,-53.32"/>
<polygon fill="black" stroke="black" points="736.4,-52.85 732.39,-43.04 729.41,-53.21 736.4,-52.85"/>
</g>
<!-- phasiaG -->
<g id="node26" class="node">
<title>phasiaG</title>
<text text-anchor="start" x="781.5" y="-398.8" font-family="Times New Roman,serif" font-size="14.00" fill="red">&#45;phasiā</text>
<text text-anchor="start" x="785.5" y="-386.4" font-family="Times New Roman,serif" font-size="12.00">speech</text>
</g>
<!-- phasisG&#45;&gt;phasiaG -->
<g id="edge26" class="edge">
<title>phasisG&#45;&gt;phasiaG</title>
<path fill="none" stroke="black" d="M786.53,-461.61C789.07,-450.66 792.39,-436.31 795.26,-423.92"/>
<polygon fill="black" stroke="black" points="798.69,-424.62 797.54,-414.08 791.87,-423.04 798.69,-424.62"/>
</g>
<!-- phasiaE -->
<g id="node27" class="node">
<title>phasiaE</title>
<text text-anchor="start" x="815" y="-35.8" font-family="Times New Roman,serif" font-weight="bold" font-size="14.00">Modern</text>
<text text-anchor="start" x="816.5" y="-21.8" font-family="Times New Roman,serif" font-weight="bold" font-size="14.00">English</text>
<text text-anchor="start" x="819.5" y="-7.8" font-family="Times New Roman,serif" font-size="14.00" fill="red">&#45;phasia</text>
</g>
<!-- phasiaG&#45;&gt;phasiaE -->
<g id="edge27" class="edge">
<title>phasiaG&#45;&gt;phasiaE</title>
<path fill="none" stroke="black" stroke-dasharray="1,5" d="M803.28,-377.7C809.17,-320.54 828.06,-137.07 835.97,-60.29"/>
<polygon fill="black" stroke="black" points="839.47,-60.49 837.01,-50.19 832.5,-59.78 839.47,-60.49"/>
</g>
<!-- prophetesG -->
<g id="node29" class="node">
<title>prophetesG</title>
<text text-anchor="start" x="913.5" y="-476.3" font-family="Times New Roman,serif" font-size="14.00" fill="red">prophētēs</text>
</g>
<!-- phetesG&#45;&gt;prophetesG -->
<g id="edge29" class="edge">
<title>phetesG&#45;&gt;prophetesG</title>
<path fill="none" stroke="black" d="M887.03,-480C889.8,-480 892.56,-480 895.32,-480"/>
<polygon fill="black" stroke="black" points="895.33,-483.5 905.33,-480 895.33,-476.5 895.33,-483.5"/>
</g>
<!-- prophetaL -->
<g id="node30" class="node">
<title>prophetaL</title>
<text text-anchor="start" x="925" y="-399.8" font-family="Times New Roman,serif" font-weight="bold" font-size="14.00">Latin</text>
<text text-anchor="start" x="916.5" y="-385.8" font-family="Times New Roman,serif" font-size="14.00" fill="red">prophēta</text>
</g>
<!-- prophetesG&#45;&gt;prophetaL -->
<g id="edge30" class="edge">
<title>prophetesG&#45;&gt;prophetaL</title>
<path fill="none" stroke="black" stroke-dasharray="1,5" d="M941.5,-461.61C941.5,-450.77 941.5,-436.6 941.5,-424.29"/>
<polygon fill="black" stroke="black" points="945,-424.08 941.5,-414.08 938,-424.08 945,-424.08"/>
</g>
<!-- propheteOF -->
<g id="node31" class="node">
<title>propheteOF</title>
<text text-anchor="start" x="906.5" y="-295.8" font-family="Times New Roman,serif" font-weight="bold" font-size="14.00">Old French</text>
<text text-anchor="start" x="916.5" y="-281.8" font-family="Times New Roman,serif" font-size="14.00" fill="red">prophete</text>
</g>
<!-- prophetaL&#45;&gt;propheteOF -->
<g id="edge31" class="edge">
<title>prophetaL&#45;&gt;propheteOF</title>
<path fill="none" stroke="black" d="M941.5,-377.7C941.5,-361.92 941.5,-338.36 941.5,-320.09"/>
<polygon fill="black" stroke="black" points="945,-320.05 941.5,-310.05 938,-320.05 945,-320.05"/>
</g>
<!-- propheteME -->
<g id="node32" class="node">
<title>propheteME</title>
<text text-anchor="start" x="920" y="-198.8" font-family="Times New Roman,serif" font-weight="bold" font-size="14.00">Middle</text>
<text text-anchor="start" x="918.5" y="-184.8" font-family="Times New Roman,serif" font-weight="bold" font-size="14.00">English</text>
<text text-anchor="start" x="916.5" y="-170.8" font-family="Times New Roman,serif" font-size="14.00" fill="red">prophete</text>
</g>
<!-- propheteOF&#45;&gt;propheteME -->
<g id="edge32" class="edge">
<title>propheteOF&#45;&gt;propheteME</title>
<path fill="none" stroke="black" stroke-dasharray="1,5" d="M941.5,-273.7C941.5,-259.95 941.5,-240.3 941.5,-223.38"/>
<polygon fill="black" stroke="black" points="945,-223.28 941.5,-213.28 938,-223.28 945,-223.28"/>
</g>
<!-- prophet -->
<g id="node33" class="node">
<title>prophet</title>
<text text-anchor="start" x="917" y="-35.8" font-family="Times New Roman,serif" font-weight="bold" font-size="14.00">Modern</text>
<text text-anchor="start" x="918.5" y="-21.8" font-family="Times New Roman,serif" font-weight="bold" font-size="14.00">English</text>
<text text-anchor="start" x="919.5" y="-7.8" font-family="Times New Roman,serif" font-size="14.00" fill="red">prophet</text>
</g>
<!-- propheteME&#45;&gt;prophet -->
<g id="edge33" class="edge">
<title>propheteME&#45;&gt;prophet</title>
<path fill="none" stroke="black" d="M941.5,-162.9C941.5,-135.67 941.5,-91.14 941.5,-60.29"/>
<polygon fill="black" stroke="black" points="945,-60 941.5,-50 938,-60 945,-60"/>
</g>
<!-- per -->
<g id="node34" class="node">
<title>per</title>
<g id="a_node34"><a xlink:href="per-list.svg" xlink:title="&lt;font color=&quot;red&quot;&gt;per&lt;/font&gt;&lt;br/&gt;&lt;font point&#45;size=&quot;12&quot;&gt;forth&lt;/font&gt;">
<path fill="none" stroke="black" stroke-dasharray="5,2" d="M956.5,-660C956.5,-660 926.5,-660 926.5,-660 920.5,-660 914.5,-654 914.5,-648 914.5,-648 914.5,-636 914.5,-636 914.5,-630 920.5,-624 926.5,-624 926.5,-624 956.5,-624 956.5,-624 962.5,-624 968.5,-630 968.5,-636 968.5,-636 968.5,-648 968.5,-648 968.5,-654 962.5,-660 956.5,-660"/>
<text text-anchor="start" x="932" y="-644.8" font-family="Times New Roman,serif" font-size="14.00" fill="red">per</text>
<text text-anchor="start" x="930.5" y="-632.4" font-family="Times New Roman,serif" font-size="12.00">forth</text>
</a>
</g>
</g>
<!-- proG -->
<g id="node35" class="node">
<title>proG</title>
<text text-anchor="start" x="921.5" y="-561.8" font-family="Times New Roman,serif" font-weight="bold" font-size="14.00">Greek</text>
<text text-anchor="start" x="929" y="-547.8" font-family="Times New Roman,serif" font-size="14.00" fill="red">pro&#45;</text>
</g>
<!-- per&#45;&gt;proG -->
<g id="edge34" class="edge">
<title>per&#45;&gt;proG</title>
<path fill="none" stroke="black" d="M941.5,-623.61C941.5,-612.77 941.5,-598.6 941.5,-586.29"/>
<polygon fill="black" stroke="black" points="945,-586.08 941.5,-576.08 938,-586.08 945,-586.08"/>
</g>
<!-- proG&#45;&gt;prophetesG -->
<g id="edge35" class="edge">
<title>proG&#45;&gt;prophetesG</title>
<path fill="none" stroke="black" d="M941.5,-539.75C941.5,-530.52 941.5,-518.93 941.5,-508.49"/>
<polygon fill="black" stroke="black" points="945,-508.18 941.5,-498.18 938,-508.18 945,-508.18"/>
</g>
</g>
</svg>
