<?xml version="1.0" encoding="UTF-8" standalone="no"?>
<!DOCTYPE svg PUBLIC "-//W3C//DTD SVG 1.1//EN"
 "http://www.w3.org/Graphics/SVG/1.1/DTD/svg11.dtd">
<!-- Generated by graphviz version 2.49.0 (20210828.1703)
 -->
<!-- Title: 2 Pages: 1 -->
<svg width="1187pt" height="562pt"
 viewBox="0.00 0.00 1187.00 562.00" xmlns="http://www.w3.org/2000/svg" xmlns:xlink="http://www.w3.org/1999/xlink">
<g id="graph0" class="graph" transform="scale(1 1) rotate(0) translate(4 558)">
<title>2</title>
<polygon fill="white" stroke="transparent" points="-4,4 -4,-558 1183,-558 1183,4 -4,4"/>
<!-- bha -->
<g id="node1" class="node">
<title>bha</title>
<g id="a_node1"><a xlink:href="bha-speak0.svg" xlink:title="&lt;b&gt;Indo&#45;European&lt;/b&gt;&lt;br/&gt;&lt;font color=&quot;red&quot;&gt;bhā&#45;&lt;/font&gt;&lt;br/&gt;&lt;font point&#45;size=&quot;12&quot;&gt;to speak&lt;/font&gt;">
<polygon fill="none" stroke="black" points="708,-554 599,-554 599,-506 708,-506 708,-554"/>
<text text-anchor="start" x="607" y="-539.8" font-family="Times New Roman,serif" font-weight="bold" font-size="14.00">Indo&#45;European</text>
<text text-anchor="start" x="641" y="-525.8" font-family="Times New Roman,serif" font-size="14.00" fill="red">bhā&#45;</text>
<text text-anchor="start" x="633.5" y="-513.4" font-family="Times New Roman,serif" font-size="12.00">to speak</text>
</a>
</g>
</g>
<!-- fari -->
<g id="node2" class="node">
<title>fari</title>
<text text-anchor="start" x="637" y="-455.8" font-family="Times New Roman,serif" font-weight="bold" font-size="14.00">Latin</text>
<text text-anchor="start" x="643.5" y="-441.8" font-family="Times New Roman,serif" font-size="14.00" fill="red">fārī</text>
</g>
<!-- bha&#45;&gt;fari -->
<g id="edge1" class="edge">
<title>bha&#45;&gt;fari</title>
<path fill="none" stroke="black" d="M653.5,-505.78C653.5,-497.68 653.5,-488.52 653.5,-480.12"/>
<polygon fill="black" stroke="black" points="657,-480.04 653.5,-470.04 650,-480.04 657,-480.04"/>
</g>
<!-- fabula -->
<g id="node3" class="node">
<title>fabula</title>
<text text-anchor="start" x="695.5" y="-377.8" font-family="Times New Roman,serif" font-size="14.00" fill="red">fābula</text>
<text text-anchor="start" x="701.5" y="-365.4" font-family="Times New Roman,serif" font-size="12.00">fable</text>
</g>
<!-- fari&#45;&gt;fabula -->
<g id="edge2" class="edge">
<title>fari&#45;&gt;fabula</title>
<path fill="none" stroke="black" d="M666.89,-433.98C674.53,-424.27 684.25,-411.91 692.75,-401.1"/>
<polygon fill="black" stroke="black" points="695.53,-403.23 698.96,-393.21 690.03,-398.91 695.53,-403.23"/>
</g>
<!-- fatum -->
<g id="node4" class="node">
<title>fatum</title>
<text text-anchor="start" x="578.5" y="-377.8" font-family="Times New Roman,serif" font-size="14.00" fill="red">fātum</text>
<text text-anchor="start" x="561.5" y="-365.4" font-family="Times New Roman,serif" font-size="12.00">fate, prophecy</text>
</g>
<!-- fari&#45;&gt;fatum -->
<g id="edge3" class="edge">
<title>fari&#45;&gt;fatum</title>
<path fill="none" stroke="black" d="M640.11,-433.98C632.47,-424.27 622.75,-411.91 614.25,-401.1"/>
<polygon fill="black" stroke="black" points="616.97,-398.91 608.04,-393.21 611.47,-403.23 616.97,-398.91"/>
</g>
<!-- affari -->
<g id="node5" class="node">
<title>affari</title>
<text text-anchor="start" x="145" y="-377.8" font-family="Times New Roman,serif" font-size="14.00" fill="red">affārī</text>
<text text-anchor="start" x="134.5" y="-365.4" font-family="Times New Roman,serif" font-size="12.00">to speak to</text>
</g>
<!-- fari&#45;&gt;affari -->
<g id="edge4" class="edge">
<title>fari&#45;&gt;affari</title>
<path fill="none" stroke="black" d="M626.19,-447.91C562.8,-440.6 400.83,-421.11 266.5,-398 246.09,-394.49 223.61,-389.92 204.62,-385.86"/>
<polygon fill="black" stroke="black" points="205.27,-382.42 194.76,-383.73 203.79,-389.26 205.27,-382.42"/>
</g>
<!-- effari -->
<g id="node6" class="node">
<title>effari</title>
<text text-anchor="start" x="785" y="-377.8" font-family="Times New Roman,serif" font-size="14.00" fill="red">effārī</text>
<text text-anchor="start" x="784" y="-365.4" font-family="Times New Roman,serif" font-size="12.00">to utter</text>
</g>
<!-- fari&#45;&gt;effari -->
<g id="edge5" class="edge">
<title>fari&#45;&gt;effari</title>
<path fill="none" stroke="black" d="M680.81,-437.07C704.32,-425.07 738.45,-407.66 764.25,-394.5"/>
<polygon fill="black" stroke="black" points="766.02,-397.52 773.34,-389.86 762.84,-391.28 766.02,-397.52"/>
</g>
<!-- infans -->
<g id="node7" class="node">
<title>infans</title>
<text text-anchor="start" x="284" y="-383.8" font-family="Times New Roman,serif" font-size="14.00" fill="red">īnfāns, īnfant&#45;</text>
<text text-anchor="start" x="299" y="-371.4" font-family="Times New Roman,serif" font-size="12.00">not able to</text>
<text text-anchor="start" x="293" y="-359.4" font-family="Times New Roman,serif" font-size="12.00">speak, young</text>
</g>
<!-- fari&#45;&gt;infans -->
<g id="edge6" class="edge">
<title>fari&#45;&gt;infans</title>
<path fill="none" stroke="black" d="M626.49,-444.86C573.05,-432.72 452.78,-405.38 380.87,-389.04"/>
<polygon fill="black" stroke="black" points="381.59,-385.61 371.06,-386.81 380.04,-392.44 381.59,-385.61"/>
</g>
<!-- praefari -->
<g id="node8" class="node">
<title>praefari</title>
<text text-anchor="start" x="981.5" y="-377.8" font-family="Times New Roman,serif" font-size="14.00" fill="red">praefārī</text>
<text text-anchor="start" x="973.5" y="-365.4" font-family="Times New Roman,serif" font-size="12.00">to say before</text>
</g>
<!-- fari&#45;&gt;praefari -->
<g id="edge7" class="edge">
<title>fari&#45;&gt;praefari</title>
<path fill="none" stroke="black" d="M680.85,-445.94C728.76,-436.99 830.88,-417.44 916.5,-398 929.21,-395.11 942.9,-391.77 955.57,-388.57"/>
<polygon fill="black" stroke="black" points="956.66,-391.9 965.48,-386.04 954.93,-385.12 956.66,-391.9"/>
</g>
<!-- fableOF -->
<g id="node9" class="node">
<title>fableOF</title>
<text text-anchor="start" x="766.5" y="-184.8" font-family="Times New Roman,serif" font-weight="bold" font-size="14.00">Old French</text>
<text text-anchor="start" x="787.5" y="-170.8" font-family="Times New Roman,serif" font-size="14.00" fill="red">fable</text>
</g>
<!-- fabula&#45;&gt;fableOF -->
<g id="edge8" class="edge">
<title>fabula&#45;&gt;fableOF</title>
<path fill="none" stroke="black" d="M720.4,-356.96C736,-323.3 770.87,-248.09 789.39,-208.12"/>
<polygon fill="black" stroke="black" points="792.59,-209.55 793.62,-199 786.24,-206.6 792.59,-209.55"/>
</g>
<!-- fatOF -->
<g id="node12" class="node">
<title>fatOF</title>
<text text-anchor="start" x="442.5" y="-184.8" font-family="Times New Roman,serif" font-weight="bold" font-size="14.00">Old French</text>
<text text-anchor="start" x="470" y="-170.8" font-family="Times New Roman,serif" font-size="14.00" fill="red">fat</text>
</g>
<!-- fatum&#45;&gt;fatOF -->
<g id="edge11" class="edge">
<title>fatum&#45;&gt;fatOF</title>
<path fill="none" stroke="black" d="M576.72,-356.79C565.96,-345.78 552.45,-330.82 542.5,-316 519.14,-281.2 499.3,-236.75 487.89,-208.82"/>
<polygon fill="black" stroke="black" points="491.05,-207.3 484.08,-199.32 484.56,-209.91 491.05,-207.3"/>
</g>
<!-- fata -->
<g id="node13" class="node">
<title>fata</title>
<text text-anchor="start" x="582" y="-281.8" font-family="Times New Roman,serif" font-size="14.00" fill="red">Fāta</text>
<text text-anchor="start" x="559.5" y="-269.4" font-family="Times New Roman,serif" font-size="12.00">goddess of fate</text>
</g>
<!-- fatum&#45;&gt;fata -->
<g id="edge12" class="edge">
<title>fatum&#45;&gt;fata</title>
<path fill="none" stroke="black" d="M594.5,-356.76C594.5,-342.98 594.5,-323.4 594.5,-307.47"/>
<polygon fill="black" stroke="black" points="598,-307.13 594.5,-297.13 591,-307.13 598,-307.13"/>
</g>
<!-- affabilis -->
<g id="node22" class="node">
<title>affabilis</title>
<text text-anchor="start" x="75.5" y="-275.3" font-family="Times New Roman,serif" font-size="14.00" fill="red">affabilis</text>
</g>
<!-- affari&#45;&gt;affabilis -->
<g id="edge21" class="edge">
<title>affari&#45;&gt;affabilis</title>
<path fill="none" stroke="black" d="M148.94,-356.76C139.35,-342.45 125.57,-321.89 114.69,-305.64"/>
<polygon fill="black" stroke="black" points="117.46,-303.49 108.98,-297.13 111.64,-307.39 117.46,-303.49"/>
</g>
<!-- ineffabilis -->
<g id="node28" class="node">
<title>ineffabilis</title>
<text text-anchor="start" x="853.5" y="-281.8" font-family="Times New Roman,serif" font-size="14.00" fill="red">ineffābilis</text>
<text text-anchor="start" x="855.5" y="-269.4" font-family="Times New Roman,serif" font-size="12.00">unutterable</text>
</g>
<!-- effari&#45;&gt;ineffabilis -->
<g id="edge26" class="edge">
<title>effari&#45;&gt;ineffabilis</title>
<path fill="none" stroke="black" d="M815.17,-356.76C827.47,-342.32 845.18,-321.5 859.06,-305.19"/>
<polygon fill="black" stroke="black" points="862.1,-307.02 865.92,-297.13 856.77,-302.48 862.1,-307.02"/>
</g>
<!-- enfantOF -->
<g id="node32" class="node">
<title>enfantOF</title>
<text text-anchor="start" x="170.5" y="-184.8" font-family="Times New Roman,serif" font-weight="bold" font-size="14.00">Old French</text>
<text text-anchor="start" x="188.5" y="-170.8" font-family="Times New Roman,serif" font-size="14.00" fill="red">enfant</text>
</g>
<!-- infans&#45;&gt;enfantOF -->
<g id="edge31" class="edge">
<title>infans&#45;&gt;enfantOF</title>
<path fill="none" stroke="black" d="M301.71,-351.97C292.08,-341.57 281.04,-328.68 272.5,-316 248.96,-281.03 228.37,-236.62 216.43,-208.75"/>
<polygon fill="black" stroke="black" points="219.54,-207.13 212.43,-199.27 213.09,-209.85 219.54,-207.13"/>
</g>
<!-- infanteOI -->
<g id="node33" class="node">
<title>infanteOI</title>
<text text-anchor="start" x="290" y="-301.8" font-family="Times New Roman,serif" font-weight="bold" font-size="14.00">Old Italian</text>
<text text-anchor="start" x="305" y="-287.8" font-family="Times New Roman,serif" font-size="14.00" fill="red">infante</text>
<text text-anchor="start" x="297.5" y="-275.4" font-family="Times New Roman,serif" font-size="12.00">young man,</text>
<text text-anchor="start" x="297.5" y="-263.4" font-family="Times New Roman,serif" font-size="12.00">foot soldier</text>
<text text-anchor="start" x="298" y="-249.8" font-family="Times New Roman,serif" font-size="14.00" fill="red">infanteria</text>
</g>
<!-- infans&#45;&gt;infanteOI -->
<g id="edge32" class="edge">
<title>infans&#45;&gt;infanteOI</title>
<path fill="none" stroke="black" d="M323.5,-351.72C323.5,-344.08 323.5,-335.21 323.5,-326.37"/>
<polygon fill="black" stroke="black" points="327,-326.08 323.5,-316.08 320,-326.08 327,-326.08"/>
</g>
<!-- praefatus -->
<g id="node40" class="node">
<title>praefatus</title>
<text text-anchor="start" x="1016.5" y="-275.3" font-family="Times New Roman,serif" font-size="14.00" fill="red">praefātus</text>
</g>
<!-- praefari&#45;&gt;praefatus -->
<g id="edge39" class="edge">
<title>praefari&#45;&gt;praefatus</title>
<path fill="none" stroke="black" d="M1010.65,-356.76C1016.48,-342.71 1024.81,-322.64 1031.48,-306.55"/>
<polygon fill="black" stroke="black" points="1034.79,-307.71 1035.39,-297.13 1028.33,-305.03 1034.79,-307.71"/>
</g>
<!-- fableME -->
<g id="node10" class="node">
<title>fableME</title>
<text text-anchor="start" x="805" y="-105.8" font-family="Times New Roman,serif" font-weight="bold" font-size="14.00">Middle English</text>
<text text-anchor="start" x="837.5" y="-91.8" font-family="Times New Roman,serif" font-size="14.00" fill="red">fable</text>
</g>
<!-- fableOF&#45;&gt;fableME -->
<g id="edge9" class="edge">
<title>fableOF&#45;&gt;fableME</title>
<path fill="none" stroke="black" stroke-dasharray="1,5" d="M812.6,-162.91C819.13,-152.84 827.53,-139.91 834.85,-128.64"/>
<polygon fill="black" stroke="black" points="837.92,-130.33 840.43,-120.04 832.05,-126.52 837.92,-130.33"/>
</g>
<!-- fable -->
<g id="node11" class="node">
<title>fable</title>
<text text-anchor="start" x="806" y="-27.8" font-family="Times New Roman,serif" font-weight="bold" font-size="14.00">Modern English</text>
<text text-anchor="start" x="841.5" y="-13.8" font-family="Times New Roman,serif" font-size="14.00" fill="red">fable</text>
</g>
<!-- fableME&#45;&gt;fable -->
<g id="edge10" class="edge">
<title>fableME&#45;&gt;fable</title>
<path fill="none" stroke="black" d="M852.41,-83.75C852.9,-74.43 853.52,-62.69 854.07,-52.17"/>
<polygon fill="black" stroke="black" points="857.57,-52.35 854.6,-42.18 850.58,-51.98 857.57,-52.35"/>
</g>
<!-- fateME -->
<g id="node14" class="node">
<title>fateME</title>
<text text-anchor="start" x="414" y="-105.8" font-family="Times New Roman,serif" font-weight="bold" font-size="14.00">Middle English</text>
<text text-anchor="start" x="450" y="-91.8" font-family="Times New Roman,serif" font-size="14.00" fill="red">fate</text>
</g>
<!-- fatOF&#45;&gt;fateME -->
<g id="edge13" class="edge">
<title>fatOF&#45;&gt;fateME</title>
<path fill="none" stroke="black" stroke-dasharray="1,5" d="M473.73,-162.91C471.59,-153.24 468.87,-140.93 466.46,-129.98"/>
<polygon fill="black" stroke="black" points="469.84,-129.05 464.26,-120.04 463,-130.56 469.84,-129.05"/>
</g>
<!-- faeOF -->
<g id="node16" class="node">
<title>faeOF</title>
<text text-anchor="start" x="559.5" y="-191.8" font-family="Times New Roman,serif" font-weight="bold" font-size="14.00">Old French</text>
<text text-anchor="start" x="586" y="-177.8" font-family="Times New Roman,serif" font-size="14.00" fill="red">fae</text>
<text text-anchor="start" x="579" y="-163.8" font-family="Times New Roman,serif" font-size="14.00" fill="red">faerie</text>
</g>
<!-- fata&#45;&gt;faeOF -->
<g id="edge15" class="edge">
<title>fata&#45;&gt;faeOF</title>
<path fill="none" stroke="black" d="M594.5,-260.84C594.5,-248.48 594.5,-231.39 594.5,-216.29"/>
<polygon fill="black" stroke="black" points="598,-216.23 594.5,-206.23 591,-216.23 598,-216.23"/>
</g>
<!-- fate -->
<g id="node15" class="node">
<title>fate</title>
<text text-anchor="start" x="407" y="-27.8" font-family="Times New Roman,serif" font-weight="bold" font-size="14.00">Modern English</text>
<text text-anchor="start" x="446" y="-13.8" font-family="Times New Roman,serif" font-size="14.00" fill="red">fate</text>
</g>
<!-- fateME&#45;&gt;fate -->
<g id="edge14" class="edge">
<title>fateME&#45;&gt;fate</title>
<path fill="none" stroke="black" d="M459.59,-83.75C459.1,-74.43 458.48,-62.69 457.93,-52.17"/>
<polygon fill="black" stroke="black" points="461.42,-51.98 457.4,-42.18 454.43,-52.35 461.42,-51.98"/>
</g>
<!-- fairieME -->
<g id="node17" class="node">
<title>fairieME</title>
<text text-anchor="start" x="544" y="-105.8" font-family="Times New Roman,serif" font-weight="bold" font-size="14.00">Middle English</text>
<text text-anchor="start" x="576.5" y="-91.8" font-family="Times New Roman,serif" font-size="14.00" fill="red">fairie</text>
</g>
<!-- faeOF&#45;&gt;fairieME -->
<g id="edge16" class="edge">
<title>faeOF&#45;&gt;fairieME</title>
<path fill="none" stroke="black" d="M593.23,-155.64C592.82,-147.67 592.36,-138.77 591.93,-130.58"/>
<polygon fill="black" stroke="black" points="595.42,-130.18 591.4,-120.38 588.43,-130.54 595.42,-130.18"/>
</g>
<!-- faieME -->
<g id="node18" class="node">
<title>faieME</title>
<text text-anchor="start" x="673" y="-105.8" font-family="Times New Roman,serif" font-weight="bold" font-size="14.00">Middle English</text>
<text text-anchor="start" x="709.5" y="-91.8" font-family="Times New Roman,serif" font-size="14.00" fill="red">faie</text>
</g>
<!-- faeOF&#45;&gt;faieME -->
<g id="edge17" class="edge">
<title>faeOF&#45;&gt;faieME</title>
<path fill="none" stroke="black" d="M633.71,-155.85C649.39,-146.19 667.35,-135.12 682.78,-125.62"/>
<polygon fill="black" stroke="black" points="684.85,-128.45 691.53,-120.23 681.18,-122.49 684.85,-128.45"/>
</g>
<!-- fairy -->
<g id="node19" class="node">
<title>fairy</title>
<text text-anchor="start" x="540" y="-27.8" font-family="Times New Roman,serif" font-weight="bold" font-size="14.00">Modern English</text>
<text text-anchor="start" x="577" y="-13.8" font-family="Times New Roman,serif" font-size="14.00" fill="red">fairy</text>
</g>
<!-- fairieME&#45;&gt;fairy -->
<g id="edge18" class="edge">
<title>fairieME&#45;&gt;fairy</title>
<path fill="none" stroke="black" d="M590.27,-83.75C590.15,-74.52 590,-62.93 589.86,-52.49"/>
<polygon fill="black" stroke="black" points="593.36,-52.13 589.73,-42.18 586.36,-52.22 593.36,-52.13"/>
</g>
<!-- fay -->
<g id="node20" class="node">
<title>fay</title>
<text text-anchor="start" x="673" y="-33.8" font-family="Times New Roman,serif" font-weight="bold" font-size="14.00">Modern English</text>
<text text-anchor="start" x="713.5" y="-19.8" font-family="Times New Roman,serif" font-size="14.00" fill="red">fay</text>
<text text-anchor="start" x="704" y="-7.4" font-family="Times New Roman,serif" font-size="12.00">fairy, elf</text>
</g>
<!-- faieME&#45;&gt;fay -->
<g id="edge19" class="edge">
<title>faieME&#45;&gt;fay</title>
<path fill="none" stroke="black" d="M720.18,-83.75C720.48,-76.2 720.84,-67.07 721.19,-58.28"/>
<polygon fill="black" stroke="black" points="724.69,-58.36 721.58,-48.23 717.69,-58.08 724.69,-58.36"/>
</g>
<!-- ad -->
<g id="node21" class="node">
<title>ad</title>
<text text-anchor="start" x="151" y="-454.8" font-family="Times New Roman,serif" font-size="14.00" fill="red">ad&#45;</text>
<text text-anchor="start" x="155.5" y="-442.4" font-family="Times New Roman,serif" font-size="12.00">to</text>
</g>
<!-- ad&#45;&gt;affari -->
<g id="edge20" class="edge">
<title>ad&#45;&gt;affari</title>
<path fill="none" stroke="black" d="M160.5,-433.98C160.5,-424.94 160.5,-413.6 160.5,-403.35"/>
<polygon fill="black" stroke="black" points="164,-403.21 160.5,-393.21 157,-403.21 164,-403.21"/>
</g>
<!-- affableOF -->
<g id="node23" class="node">
<title>affableOF</title>
<text text-anchor="start" x="39.5" y="-184.8" font-family="Times New Roman,serif" font-weight="bold" font-size="14.00">Old French</text>
<text text-anchor="start" x="55.5" y="-170.8" font-family="Times New Roman,serif" font-size="14.00" fill="red">affable</text>
</g>
<!-- affabilis&#45;&gt;affableOF -->
<g id="edge22" class="edge">
<title>affabilis&#45;&gt;affableOF</title>
<path fill="none" stroke="black" d="M93.39,-260.84C89.92,-246.37 84.9,-225.41 80.91,-208.74"/>
<polygon fill="black" stroke="black" points="84.31,-207.92 78.58,-199.01 77.5,-209.55 84.31,-207.92"/>
</g>
<!-- affabil -->
<g id="node24" class="node">
<title>affabil</title>
<text text-anchor="start" x="21" y="-105.8" font-family="Times New Roman,serif" font-weight="bold" font-size="14.00">Middle English</text>
<text text-anchor="start" x="50" y="-91.8" font-family="Times New Roman,serif" font-size="14.00" fill="red">affabil</text>
</g>
<!-- affableOF&#45;&gt;affabil -->
<g id="edge23" class="edge">
<title>affableOF&#45;&gt;affabil</title>
<path fill="none" stroke="black" stroke-dasharray="1,5" d="M72.95,-162.91C72.08,-153.34 70.97,-141.18 69.98,-130.32"/>
<polygon fill="black" stroke="black" points="73.44,-129.68 69.05,-120.04 66.47,-130.32 73.44,-129.68"/>
</g>
<!-- affable -->
<g id="node25" class="node">
<title>affable</title>
<text text-anchor="start" x="8" y="-27.8" font-family="Times New Roman,serif" font-weight="bold" font-size="14.00">Modern English</text>
<text text-anchor="start" x="38.5" y="-13.8" font-family="Times New Roman,serif" font-size="14.00" fill="red">affable</text>
</g>
<!-- affabil&#45;&gt;affable -->
<g id="edge24" class="edge">
<title>affabil&#45;&gt;affable</title>
<path fill="none" stroke="black" d="M65.23,-83.75C64,-74.43 62.46,-62.69 61.07,-52.17"/>
<polygon fill="black" stroke="black" points="64.53,-51.64 59.76,-42.18 57.59,-52.55 64.53,-51.64"/>
</g>
<!-- ex -->
<g id="node26" class="node">
<title>ex</title>
<text text-anchor="start" x="791.5" y="-454.8" font-family="Times New Roman,serif" font-size="14.00" fill="red">ex&#45;</text>
<text text-anchor="start" x="793" y="-442.4" font-family="Times New Roman,serif" font-size="12.00">out</text>
</g>
<!-- ex&#45;&gt;effari -->
<g id="edge25" class="edge">
<title>ex&#45;&gt;effari</title>
<path fill="none" stroke="black" d="M800.5,-433.98C800.5,-424.94 800.5,-413.6 800.5,-403.35"/>
<polygon fill="black" stroke="black" points="804,-403.21 800.5,-393.21 797,-403.21 804,-403.21"/>
</g>
<!-- in -->
<g id="node27" class="node">
<title>in</title>
<text text-anchor="start" x="873" y="-377.8" font-family="Times New Roman,serif" font-size="14.00" fill="red">in&#45;</text>
<text text-anchor="start" x="873" y="-365.4" font-family="Times New Roman,serif" font-size="12.00">not</text>
</g>
<!-- in&#45;&gt;ineffabilis -->
<g id="edge27" class="edge">
<title>in&#45;&gt;ineffabilis</title>
<path fill="none" stroke="black" d="M880.5,-356.76C880.5,-342.98 880.5,-323.4 880.5,-307.47"/>
<polygon fill="black" stroke="black" points="884,-307.13 880.5,-297.13 877,-307.13 884,-307.13"/>
</g>
<!-- ineffableOF -->
<g id="node29" class="node">
<title>ineffableOF</title>
<text text-anchor="start" x="931.5" y="-184.8" font-family="Times New Roman,serif" font-weight="bold" font-size="14.00">Old French</text>
<text text-anchor="start" x="942.5" y="-170.8" font-family="Times New Roman,serif" font-size="14.00" fill="red">ineffable</text>
</g>
<!-- ineffabilis&#45;&gt;ineffableOF -->
<g id="edge28" class="edge">
<title>ineffabilis&#45;&gt;ineffableOF</title>
<path fill="none" stroke="black" d="M895.88,-260.84C909.33,-245.82 929.04,-223.82 944.22,-206.87"/>
<polygon fill="black" stroke="black" points="947.19,-208.8 951.26,-199.01 941.98,-204.13 947.19,-208.8"/>
</g>
<!-- ineffableME -->
<g id="node30" class="node">
<title>ineffableME</title>
<text text-anchor="start" x="937" y="-105.8" font-family="Times New Roman,serif" font-weight="bold" font-size="14.00">Middle English</text>
<text text-anchor="start" x="958" y="-91.8" font-family="Times New Roman,serif" font-size="14.00" fill="red">eneffable</text>
</g>
<!-- ineffableOF&#45;&gt;ineffableME -->
<g id="edge29" class="edge">
<title>ineffableOF&#45;&gt;ineffableME</title>
<path fill="none" stroke="black" d="M970.27,-162.91C972.41,-153.24 975.13,-140.93 977.54,-129.98"/>
<polygon fill="black" stroke="black" points="981,-130.56 979.74,-120.04 974.16,-129.05 981,-130.56"/>
</g>
<!-- ineffable -->
<g id="node31" class="node">
<title>ineffable</title>
<text text-anchor="start" x="939" y="-27.8" font-family="Times New Roman,serif" font-weight="bold" font-size="14.00">Modern English</text>
<text text-anchor="start" x="964.5" y="-13.8" font-family="Times New Roman,serif" font-size="14.00" fill="red">ineffable</text>
</g>
<!-- ineffableME&#45;&gt;ineffable -->
<g id="edge30" class="edge">
<title>ineffableME&#45;&gt;ineffable</title>
<path fill="none" stroke="black" d="M984.63,-83.75C985.25,-74.43 986.02,-62.69 986.71,-52.17"/>
<polygon fill="black" stroke="black" points="990.21,-52.39 987.37,-42.18 983.22,-51.93 990.21,-52.39"/>
</g>
<!-- infantME -->
<g id="node34" class="node">
<title>infantME</title>
<text text-anchor="start" x="151" y="-105.8" font-family="Times New Roman,serif" font-weight="bold" font-size="14.00">Middle English</text>
<text text-anchor="start" x="182" y="-91.8" font-family="Times New Roman,serif" font-size="14.00" fill="red">infant</text>
</g>
<!-- enfantOF&#45;&gt;infantME -->
<g id="edge33" class="edge">
<title>enfantOF&#45;&gt;infantME</title>
<path fill="none" stroke="black" stroke-dasharray="1,5" d="M203.72,-162.91C202.73,-153.34 201.47,-141.18 200.34,-130.32"/>
<polygon fill="black" stroke="black" points="203.79,-129.63 199.27,-120.04 196.82,-130.35 203.79,-129.63"/>
</g>
<!-- infanterie -->
<g id="node36" class="node">
<title>infanterie</title>
<text text-anchor="start" x="288.5" y="-184.8" font-family="Times New Roman,serif" font-weight="bold" font-size="14.00">Old French</text>
<text text-anchor="start" x="298" y="-170.8" font-family="Times New Roman,serif" font-size="14.00" fill="red">infanterie</text>
</g>
<!-- infanteOI&#45;&gt;infanterie -->
<g id="edge35" class="edge">
<title>infanteOI&#45;&gt;infanterie</title>
<path fill="none" stroke="black" stroke-dasharray="1,5" d="M323.5,-241.98C323.5,-231.2 323.5,-219.55 323.5,-209.42"/>
<polygon fill="black" stroke="black" points="327,-209.12 323.5,-199.12 320,-209.12 327,-209.12"/>
</g>
<!-- infant -->
<g id="node35" class="node">
<title>infant</title>
<text text-anchor="start" x="141" y="-27.8" font-family="Times New Roman,serif" font-weight="bold" font-size="14.00">Modern English</text>
<text text-anchor="start" x="175" y="-13.8" font-family="Times New Roman,serif" font-size="14.00" fill="red">infant</text>
</g>
<!-- infantME&#45;&gt;infant -->
<g id="edge34" class="edge">
<title>infantME&#45;&gt;infant</title>
<path fill="none" stroke="black" d="M195.91,-83.75C195.05,-74.43 193.97,-62.69 193,-52.17"/>
<polygon fill="black" stroke="black" points="196.48,-51.81 192.08,-42.18 189.51,-52.46 196.48,-51.81"/>
</g>
<!-- infantryF -->
<g id="node37" class="node">
<title>infantryF</title>
<text text-anchor="start" x="301.5" y="-105.8" font-family="Times New Roman,serif" font-weight="bold" font-size="14.00">French</text>
<text text-anchor="start" x="302" y="-91.8" font-family="Times New Roman,serif" font-size="14.00" fill="red">infantry</text>
</g>
<!-- infanterie&#45;&gt;infantryF -->
<g id="edge36" class="edge">
<title>infanterie&#45;&gt;infantryF</title>
<path fill="none" stroke="black" d="M323.5,-162.91C323.5,-153.34 323.5,-141.18 323.5,-130.32"/>
<polygon fill="black" stroke="black" points="327,-130.04 323.5,-120.04 320,-130.04 327,-130.04"/>
</g>
<!-- infantry -->
<g id="node38" class="node">
<title>infantry</title>
<text text-anchor="start" x="274" y="-27.8" font-family="Times New Roman,serif" font-weight="bold" font-size="14.00">Modern English</text>
<text text-anchor="start" x="302" y="-13.8" font-family="Times New Roman,serif" font-size="14.00" fill="red">infantry</text>
</g>
<!-- infantryF&#45;&gt;infantry -->
<g id="edge37" class="edge">
<title>infantryF&#45;&gt;infantry</title>
<path fill="none" stroke="black" stroke-dasharray="1,5" d="M323.5,-83.75C323.5,-74.52 323.5,-62.93 323.5,-52.49"/>
<polygon fill="black" stroke="black" points="327,-52.18 323.5,-42.18 320,-52.18 327,-52.18"/>
</g>
<!-- prae -->
<g id="node39" class="node">
<title>prae</title>
<text text-anchor="start" x="989" y="-454.8" font-family="Times New Roman,serif" font-size="14.00" fill="red">prae&#45;</text>
<text text-anchor="start" x="988.5" y="-442.4" font-family="Times New Roman,serif" font-size="12.00">before</text>
</g>
<!-- prae&#45;&gt;praefari -->
<g id="edge38" class="edge">
<title>prae&#45;&gt;praefari</title>
<path fill="none" stroke="black" d="M1003.5,-433.98C1003.5,-424.94 1003.5,-413.6 1003.5,-403.35"/>
<polygon fill="black" stroke="black" points="1007,-403.21 1003.5,-393.21 1000,-403.21 1007,-403.21"/>
</g>
<!-- prefaceOF -->
<g id="node41" class="node">
<title>prefaceOF</title>
<text text-anchor="start" x="1083.5" y="-184.8" font-family="Times New Roman,serif" font-weight="bold" font-size="14.00">Old French</text>
<text text-anchor="start" x="1097.5" y="-170.8" font-family="Times New Roman,serif" font-size="14.00" fill="red">preface</text>
</g>
<!-- praefatus&#45;&gt;prefaceOF -->
<g id="edge40" class="edge">
<title>praefatus&#45;&gt;prefaceOF</title>
<path fill="none" stroke="black" d="M1056.09,-260.84C1067.98,-245.82 1085.39,-223.82 1098.81,-206.87"/>
<polygon fill="black" stroke="black" points="1101.57,-209.03 1105.03,-199.01 1096.08,-204.68 1101.57,-209.03"/>
</g>
<!-- preface -->
<g id="node42" class="node">
<title>preface</title>
<text text-anchor="start" x="1072" y="-27.8" font-family="Times New Roman,serif" font-weight="bold" font-size="14.00">Modern English</text>
<text text-anchor="start" x="1100.5" y="-13.8" font-family="Times New Roman,serif" font-size="14.00" fill="red">preface</text>
</g>
<!-- prefaceOF&#45;&gt;preface -->
<g id="edge41" class="edge">
<title>prefaceOF&#45;&gt;preface</title>
<path fill="none" stroke="black" stroke-dasharray="1,5" d="M1118.83,-162.82C1119.35,-136.17 1120.35,-84.61 1120.96,-52.66"/>
<polygon fill="black" stroke="black" points="1124.47,-52.32 1121.17,-42.26 1117.47,-52.19 1124.47,-52.32"/>
</g>
</g>
</svg>
