<?xml version="1.0" encoding="UTF-8" standalone="no"?>
<!DOCTYPE svg PUBLIC "-//W3C//DTD SVG 1.1//EN"
 "http://www.w3.org/Graphics/SVG/1.1/DTD/svg11.dtd">
<!-- Generated by graphviz version 2.49.0 (20210828.1703)
 -->
<!-- Title: 5 Pages: 1 -->
<svg width="783pt" height="564pt"
 viewBox="0.00 0.00 782.50 564.00" xmlns="http://www.w3.org/2000/svg" xmlns:xlink="http://www.w3.org/1999/xlink">
<g id="graph0" class="graph" transform="scale(1 1) rotate(0) translate(4 560)">
<title>5</title>
<polygon fill="white" stroke="transparent" points="-4,4 -4,-560 778.5,-560 778.5,4 -4,4"/>
<!-- phoneG -->
<g id="node1" class="node">
<title>phoneG</title>
<g id="a_node1"><a xlink:href="bha-speak3.svg" xlink:title="&lt;b&gt;Greek&lt;/b&gt;&lt;br/&gt;&lt;font color=&quot;red&quot;&gt;phōnē&lt;/font&gt;&lt;br/&gt;&lt;font point&#45;size=&quot;12&quot;&gt;voice, sound&lt;/font&gt;&lt;br/&gt;&lt;font color=&quot;red&quot;&gt;phōnein&lt;/font&gt;&lt;br/&gt;&lt;font point&#45;size=&quot;12&quot;&gt;to speak&lt;/font&gt;">
<path fill="none" stroke="black" stroke-dasharray="5,2" d="M516,-556C516,-556 466,-556 466,-556 460,-556 454,-550 454,-544 454,-544 454,-494 454,-494 454,-488 460,-482 466,-482 466,-482 516,-482 516,-482 522,-482 528,-488 528,-494 528,-494 528,-544 528,-544 528,-550 522,-556 516,-556"/>
<text text-anchor="start" x="471" y="-541.8" font-family="Times New Roman,serif" font-weight="bold" font-size="14.00">Greek</text>
<text text-anchor="start" x="473.5" y="-527.8" font-family="Times New Roman,serif" font-size="14.00" fill="red">phōnē</text>
<text text-anchor="start" x="462" y="-515.4" font-family="Times New Roman,serif" font-size="12.00">voice, sound</text>
<text text-anchor="start" x="468.5" y="-501.8" font-family="Times New Roman,serif" font-size="14.00" fill="red">phōnein</text>
<text text-anchor="start" x="471" y="-489.4" font-family="Times New Roman,serif" font-size="12.00">to speak</text>
</a>
</g>
</g>
<!-- phonemaG -->
<g id="node2" class="node">
<title>phonemaG</title>
<text text-anchor="start" x="8" y="-430.8" font-family="Times New Roman,serif" font-size="14.00" fill="red">phōnēma, phōnēmat&#45;</text>
<text text-anchor="start" x="29.5" y="-418.4" font-family="Times New Roman,serif" font-size="12.00">utterance, sound</text>
</g>
<!-- phoneG&#45;&gt;phonemaG -->
<g id="edge1" class="edge">
<title>phoneG&#45;&gt;phonemaG</title>
<path fill="none" stroke="black" d="M453.74,-510.18C384.79,-495.71 235.98,-464.47 144.38,-445.24"/>
<polygon fill="black" stroke="black" points="144.83,-441.76 134.32,-443.13 143.39,-448.61 144.83,-441.76"/>
</g>
<!-- phonetosG -->
<g id="node3" class="node">
<title>phonetosG</title>
<text text-anchor="start" x="186" y="-430.8" font-family="Times New Roman,serif" font-size="14.00" fill="red">phōnētos</text>
<text text-anchor="start" x="182" y="-418.4" font-family="Times New Roman,serif" font-size="12.00">to be spoken</text>
</g>
<!-- phoneG&#45;&gt;phonetosG -->
<g id="edge2" class="edge">
<title>phoneG&#45;&gt;phonetosG</title>
<path fill="none" stroke="black" d="M453.95,-506.18C403.99,-490.25 314.97,-461.85 259.96,-444.3"/>
<polygon fill="black" stroke="black" points="260.69,-440.86 250.1,-441.15 258.56,-447.53 260.69,-440.86"/>
</g>
<!-- phonoG -->
<g id="node4" class="node">
<title>phonoG</title>
<text text-anchor="start" x="287.5" y="-424.3" font-family="Times New Roman,serif" font-size="14.00" fill="red">phōno&#45;</text>
</g>
<!-- phoneG&#45;&gt;phonoG -->
<g id="edge3" class="edge">
<title>phoneG&#45;&gt;phonoG</title>
<path fill="none" stroke="black" d="M453.97,-499.99C422.54,-484.71 377.65,-462.87 345.96,-447.46"/>
<polygon fill="black" stroke="black" points="347.1,-444.13 336.58,-442.9 344.04,-450.42 347.1,-444.13"/>
</g>
<!-- phoniaG -->
<g id="node5" class="node">
<title>phoniaG</title>
<text text-anchor="start" x="398.5" y="-424.3" font-family="Times New Roman,serif" font-size="14.00" fill="red">&#45;phōniā</text>
</g>
<!-- phoneG&#45;&gt;phoniaG -->
<g id="edge4" class="edge">
<title>phoneG&#45;&gt;phoniaG</title>
<path fill="none" stroke="black" d="M462.12,-481.8C454.67,-472.46 446.82,-462.62 439.94,-454"/>
<polygon fill="black" stroke="black" points="442.66,-451.79 433.69,-446.16 437.19,-456.16 442.66,-451.79"/>
</g>
<!-- phoneE -->
<g id="node6" class="node">
<title>phoneE</title>
<text text-anchor="start" x="466.5" y="-41.8" font-family="Times New Roman,serif" font-weight="bold" font-size="14.00">Modern</text>
<text text-anchor="start" x="468" y="-27.8" font-family="Times New Roman,serif" font-weight="bold" font-size="14.00">English</text>
<text text-anchor="start" x="471" y="-13.8" font-family="Times New Roman,serif" font-size="14.00" fill="red">&#45;phone</text>
</g>
<!-- phoneG&#45;&gt;phoneE -->
<g id="edge5" class="edge">
<title>phoneG&#45;&gt;phoneE</title>
<path fill="none" stroke="black" stroke-dasharray="1,5" d="M491,-481.87C491,-449.24 491,-399.91 491,-357 491,-357 491,-357 491,-187 491,-145.6 491,-97.97 491,-66.56"/>
<polygon fill="black" stroke="black" points="494.5,-66.16 491,-56.16 487.5,-66.16 494.5,-66.16"/>
</g>
<!-- phone -->
<g id="node7" class="node">
<title>phone</title>
<text text-anchor="start" x="550.5" y="-47.8" font-family="Times New Roman,serif" font-weight="bold" font-size="14.00">Modern</text>
<text text-anchor="start" x="552" y="-33.8" font-family="Times New Roman,serif" font-weight="bold" font-size="14.00">English</text>
<text text-anchor="start" x="557.5" y="-19.8" font-family="Times New Roman,serif" font-size="14.00" fill="red">phone</text>
<text text-anchor="start" x="550" y="-7.4" font-family="Times New Roman,serif" font-size="12.00">(linguistics)</text>
</g>
<!-- phoneG&#45;&gt;phone -->
<g id="edge6" class="edge">
<title>phoneG&#45;&gt;phone</title>
<path fill="none" stroke="black" stroke-dasharray="1,5" d="M504.61,-481.81C515.52,-449.55 529,-400.8 529,-357 529,-357 529,-357 529,-187 529,-146.47 543.63,-102.36 556.39,-71.59"/>
<polygon fill="black" stroke="black" points="559.74,-72.67 560.45,-62.1 553.3,-69.92 559.74,-72.67"/>
</g>
<!-- antiphonosG -->
<g id="node17" class="node">
<title>antiphonosG</title>
<text text-anchor="start" x="577" y="-430.8" font-family="Times New Roman,serif" font-size="14.00" fill="red">antiphōnos</text>
<text text-anchor="start" x="565" y="-418.4" font-family="Times New Roman,serif" font-size="12.00">sounding in answer</text>
</g>
<!-- phoneG&#45;&gt;antiphonosG -->
<g id="edge15" class="edge">
<title>phoneG&#45;&gt;antiphonosG</title>
<path fill="none" stroke="black" d="M528.02,-489.84C543.95,-477.72 562.35,-463.73 577.48,-452.22"/>
<polygon fill="black" stroke="black" points="579.67,-454.95 585.51,-446.11 575.43,-449.38 579.67,-454.95"/>
</g>
<!-- phonemeF -->
<g id="node11" class="node">
<title>phonemeF</title>
<text text-anchor="start" x="25" y="-191.8" font-family="Times New Roman,serif" font-weight="bold" font-size="14.00">French</text>
<text text-anchor="start" x="21" y="-177.8" font-family="Times New Roman,serif" font-size="14.00" fill="red">phonème</text>
</g>
<!-- phonemaG&#45;&gt;phonemeF -->
<g id="edge10" class="edge">
<title>phonemaG&#45;&gt;phonemeF</title>
<path fill="none" stroke="black" stroke-dasharray="1,5" d="M65.56,-409.88C62.13,-369.07 53.45,-265.76 49.29,-216.26"/>
<polygon fill="black" stroke="black" points="52.78,-215.95 48.45,-206.28 45.8,-216.54 52.78,-215.95"/>
</g>
<!-- phonetikosG -->
<g id="node13" class="node">
<title>phonetikosG</title>
<text text-anchor="start" x="100" y="-358.8" font-family="Times New Roman,serif" font-size="14.00" fill="red">phōnētikos</text>
<text text-anchor="start" x="118.5" y="-346.4" font-family="Times New Roman,serif" font-size="12.00">vocal</text>
</g>
<!-- phonetosG&#45;&gt;phonetikosG -->
<g id="edge12" class="edge">
<title>phonetosG&#45;&gt;phonetikosG</title>
<path fill="none" stroke="black" d="M191.98,-409.7C181.87,-400.97 169.46,-390.24 158.48,-380.75"/>
<polygon fill="black" stroke="black" points="160.65,-377.99 150.79,-374.1 156.07,-383.29 160.65,-377.99"/>
</g>
<!-- phonoE -->
<g id="node8" class="node">
<title>phonoE</title>
<text text-anchor="start" x="183.5" y="-41.8" font-family="Times New Roman,serif" font-weight="bold" font-size="14.00">Modern</text>
<text text-anchor="start" x="185" y="-27.8" font-family="Times New Roman,serif" font-weight="bold" font-size="14.00">English</text>
<text text-anchor="start" x="187.5" y="-13.8" font-family="Times New Roman,serif" font-size="14.00" fill="red">phono&#45;</text>
</g>
<!-- phonoG&#45;&gt;phonoE -->
<g id="edge7" class="edge">
<title>phonoG&#45;&gt;phonoE</title>
<path fill="none" stroke="black" stroke-dasharray="1,5" d="M287.28,-409.95C257.99,-383.79 208,-330.7 208,-273 208,-273 208,-273 208,-187 208,-145.6 208,-97.97 208,-66.56"/>
<polygon fill="black" stroke="black" points="211.5,-66.16 208,-56.16 204.5,-66.16 211.5,-66.16"/>
</g>
<!-- phonon -->
<g id="node9" class="node">
<title>phonon</title>
<text text-anchor="start" x="283.5" y="-47.8" font-family="Times New Roman,serif" font-weight="bold" font-size="14.00">Modern</text>
<text text-anchor="start" x="285" y="-33.8" font-family="Times New Roman,serif" font-weight="bold" font-size="14.00">English</text>
<text text-anchor="start" x="286.5" y="-19.8" font-family="Times New Roman,serif" font-size="14.00" fill="red">phonon</text>
<text text-anchor="start" x="267" y="-7.4" font-family="Times New Roman,serif" font-size="12.00">(quantum physics)</text>
</g>
<!-- phonoG&#45;&gt;phonon -->
<g id="edge8" class="edge">
<title>phonoG&#45;&gt;phonon</title>
<path fill="none" stroke="black" stroke-dasharray="1,5" d="M308,-409.91C308,-381.49 308,-322.73 308,-273 308,-273 308,-273 308,-187 308,-147.95 308,-103.38 308,-72.08"/>
<polygon fill="black" stroke="black" points="311.5,-72 308,-62 304.5,-72 311.5,-72"/>
</g>
<!-- phonyE -->
<g id="node10" class="node">
<title>phonyE</title>
<text text-anchor="start" x="383.5" y="-41.8" font-family="Times New Roman,serif" font-weight="bold" font-size="14.00">Modern</text>
<text text-anchor="start" x="385" y="-27.8" font-family="Times New Roman,serif" font-weight="bold" font-size="14.00">English</text>
<text text-anchor="start" x="388" y="-13.8" font-family="Times New Roman,serif" font-size="14.00" fill="red">&#45;phony</text>
</g>
<!-- phoniaG&#45;&gt;phonyE -->
<g id="edge9" class="edge">
<title>phoniaG&#45;&gt;phonyE</title>
<path fill="none" stroke="black" stroke-dasharray="1,5" d="M417.8,-409.94C414.33,-381.57 408,-322.88 408,-273 408,-273 408,-273 408,-187 408,-145.6 408,-97.97 408,-66.56"/>
<polygon fill="black" stroke="black" points="411.5,-66.16 408,-56.16 404.5,-66.16 411.5,-66.16"/>
</g>
<!-- phoneme -->
<g id="node12" class="node">
<title>phoneme</title>
<text text-anchor="start" x="15.5" y="-47.8" font-family="Times New Roman,serif" font-weight="bold" font-size="14.00">Modern</text>
<text text-anchor="start" x="17" y="-33.8" font-family="Times New Roman,serif" font-weight="bold" font-size="14.00">English</text>
<text text-anchor="start" x="14" y="-19.8" font-family="Times New Roman,serif" font-size="14.00" fill="red">phoneme</text>
<text text-anchor="start" x="15" y="-7.4" font-family="Times New Roman,serif" font-size="12.00">(linguistics)</text>
</g>
<!-- phonemeF&#45;&gt;phoneme -->
<g id="edge11" class="edge">
<title>phonemeF&#45;&gt;phoneme</title>
<path fill="none" stroke="black" stroke-dasharray="1,5" d="M46.22,-169.82C45.17,-146.45 43.25,-103.93 41.82,-72.28"/>
<polygon fill="black" stroke="black" points="45.3,-71.84 41.35,-62 38.31,-72.15 45.3,-71.84"/>
</g>
<!-- phoneticusNL -->
<g id="node14" class="node">
<title>phoneticusNL</title>
<text text-anchor="start" x="99" y="-287.8" font-family="Times New Roman,serif" font-weight="bold" font-size="14.00">New Latin</text>
<text text-anchor="start" x="100.5" y="-273.8" font-family="Times New Roman,serif" font-size="14.00" fill="red">phōnēticus</text>
<text text-anchor="start" x="103.5" y="-261.4" font-family="Times New Roman,serif" font-size="12.00">representing</text>
<text text-anchor="start" x="97.5" y="-249.4" font-family="Times New Roman,serif" font-size="12.00">speech sounds</text>
</g>
<!-- phonetikosG&#45;&gt;phoneticusNL -->
<g id="edge13" class="edge">
<title>phonetikosG&#45;&gt;phoneticusNL</title>
<path fill="none" stroke="black" stroke-dasharray="1,5" d="M131,-337.61C131,-330.24 131,-321.33 131,-312.52"/>
<polygon fill="black" stroke="black" points="134.5,-312.31 131,-302.31 127.5,-312.31 134.5,-312.31"/>
</g>
<!-- phonetic -->
<g id="node15" class="node">
<title>phonetic</title>
<text text-anchor="start" x="100.5" y="-41.8" font-family="Times New Roman,serif" font-weight="bold" font-size="14.00">Modern</text>
<text text-anchor="start" x="102" y="-27.8" font-family="Times New Roman,serif" font-weight="bold" font-size="14.00">English</text>
<text text-anchor="start" x="100.5" y="-13.8" font-family="Times New Roman,serif" font-size="14.00" fill="red">phonetic</text>
</g>
<!-- phoneticusNL&#45;&gt;phonetic -->
<g id="edge14" class="edge">
<title>phoneticusNL&#45;&gt;phonetic</title>
<path fill="none" stroke="black" stroke-dasharray="1,5" d="M130.26,-241.69C129.15,-197.31 127.04,-113.24 125.86,-66.15"/>
<polygon fill="black" stroke="black" points="129.36,-66.04 125.61,-56.13 122.36,-66.22 129.36,-66.04"/>
</g>
<!-- anti -->
<g id="node16" class="node">
<title>anti</title>
<text text-anchor="start" x="595.5" y="-521.8" font-family="Times New Roman,serif" font-size="14.00" fill="red">anti&#45;</text>
<text text-anchor="start" x="589.5" y="-509.4" font-family="Times New Roman,serif" font-size="12.00">in return</text>
</g>
<!-- anti&#45;&gt;antiphonosG -->
<g id="edge16" class="edge">
<title>anti&#45;&gt;antiphonosG</title>
<path fill="none" stroke="black" d="M608,-500.84C608,-488.28 608,-470.98 608,-456.5"/>
<polygon fill="black" stroke="black" points="611.5,-456.11 608,-446.11 604.5,-456.11 611.5,-456.11"/>
</g>
<!-- antiphonaG -->
<g id="node18" class="node">
<title>antiphonaG</title>
<text text-anchor="start" x="605.5" y="-352.3" font-family="Times New Roman,serif" font-size="14.00" fill="red">antiphōna</text>
</g>
<!-- antiphonosG&#45;&gt;antiphonaG -->
<g id="edge17" class="edge">
<title>antiphonosG&#45;&gt;antiphonaG</title>
<path fill="none" stroke="black" d="M614.18,-409.7C617,-401.81 620.39,-392.3 623.52,-383.55"/>
<polygon fill="black" stroke="black" points="626.82,-384.7 626.89,-374.1 620.23,-382.34 626.82,-384.7"/>
</g>
<!-- antiphonaL -->
<g id="node19" class="node">
<title>antiphonaL</title>
<text text-anchor="start" x="642.5" y="-275.8" font-family="Times New Roman,serif" font-weight="bold" font-size="14.00">Latin</text>
<text text-anchor="start" x="631.5" y="-261.8" font-family="Times New Roman,serif" font-size="14.00" fill="red">antiphōna</text>
</g>
<!-- antiphonaG&#45;&gt;antiphonaL -->
<g id="edge18" class="edge">
<title>antiphonaG&#45;&gt;antiphonaL</title>
<path fill="none" stroke="black" stroke-dasharray="1,5" d="M638.51,-337.61C641.98,-326.66 646.53,-312.31 650.46,-299.92"/>
<polygon fill="black" stroke="black" points="653.9,-300.67 653.58,-290.08 647.22,-298.56 653.9,-300.67"/>
</g>
<!-- antefnOE -->
<g id="node20" class="node">
<title>antefnOE</title>
<text text-anchor="start" x="622.5" y="-191.8" font-family="Times New Roman,serif" font-weight="bold" font-size="14.00">Old English</text>
<text text-anchor="start" x="642" y="-177.8" font-family="Times New Roman,serif" font-size="14.00" fill="red">antefn</text>
</g>
<!-- antiphonaL&#45;&gt;antefnOE -->
<g id="edge19" class="edge">
<title>antiphonaL&#45;&gt;antefnOE</title>
<path fill="none" stroke="black" stroke-dasharray="1,5" d="M659,-253.61C659,-242.77 659,-228.6 659,-216.29"/>
<polygon fill="black" stroke="black" points="662.5,-216.08 659,-206.08 655.5,-216.08 662.5,-216.08"/>
</g>
<!-- antiphon -->
<g id="node21" class="node">
<title>antiphon</title>
<text text-anchor="start" x="717.5" y="-41.8" font-family="Times New Roman,serif" font-weight="bold" font-size="14.00">Modern</text>
<text text-anchor="start" x="719" y="-27.8" font-family="Times New Roman,serif" font-weight="bold" font-size="14.00">English</text>
<text text-anchor="start" x="717.5" y="-13.8" font-family="Times New Roman,serif" font-size="14.00" fill="red">antiphon</text>
</g>
<!-- antiphonaL&#45;&gt;antiphon -->
<g id="edge20" class="edge">
<title>antiphonaL&#45;&gt;antiphon</title>
<path fill="none" stroke="black" stroke-dasharray="1,5" d="M677.09,-253.96C688.92,-241.75 703.67,-224.29 712,-206 732.7,-160.55 739.2,-102.48 741.2,-66.26"/>
<polygon fill="black" stroke="black" points="744.7,-66.35 741.66,-56.2 737.7,-66.03 744.7,-66.35"/>
</g>
<!-- antemeME -->
<g id="node22" class="node">
<title>antemeME</title>
<text text-anchor="start" x="612.5" y="-119.8" font-family="Times New Roman,serif" font-weight="bold" font-size="14.00">Middle English</text>
<text text-anchor="start" x="639" y="-105.8" font-family="Times New Roman,serif" font-size="14.00" fill="red">anteme</text>
</g>
<!-- antefnOE&#45;&gt;antemeME -->
<g id="edge21" class="edge">
<title>antefnOE&#45;&gt;antemeME</title>
<path fill="none" stroke="black" d="M659,-169.7C659,-161.98 659,-152.71 659,-144.11"/>
<polygon fill="black" stroke="black" points="662.5,-144.1 659,-134.1 655.5,-144.1 662.5,-144.1"/>
</g>
<!-- anthem -->
<g id="node23" class="node">
<title>anthem</title>
<text text-anchor="start" x="634.5" y="-41.8" font-family="Times New Roman,serif" font-weight="bold" font-size="14.00">Modern</text>
<text text-anchor="start" x="636" y="-27.8" font-family="Times New Roman,serif" font-weight="bold" font-size="14.00">English</text>
<text text-anchor="start" x="639" y="-13.8" font-family="Times New Roman,serif" font-size="14.00" fill="red">anthem</text>
</g>
<!-- antemeME&#45;&gt;anthem -->
<g id="edge22" class="edge">
<title>antemeME&#45;&gt;anthem</title>
<path fill="none" stroke="black" d="M659,-97.8C659,-88.66 659,-77.09 659,-66.22"/>
<polygon fill="black" stroke="black" points="662.5,-66.1 659,-56.1 655.5,-66.1 662.5,-66.1"/>
</g>
</g>
</svg>
