<?xml version="1.0" encoding="UTF-8" standalone="no"?>
<!DOCTYPE svg PUBLIC "-//W3C//DTD SVG 1.1//EN"
 "http://www.w3.org/Graphics/SVG/1.1/DTD/svg11.dtd">
<!-- Generated by graphviz version 2.44.1 (20200629.0846)
 -->
<!-- Pages: 1 -->
<svg width="2251pt" height="824pt"
 viewBox="0.00 0.00 2251.00 824.00" xmlns="http://www.w3.org/2000/svg" xmlns:xlink="http://www.w3.org/1999/xlink">
<g id="graph0" class="graph" transform="scale(1 1) rotate(0) translate(4 820)">
<polygon fill="white" stroke="transparent" points="-4,4 -4,-820 2247,-820 2247,4 -4,4"/>
<!-- bheu -->
<g id="node1" class="node">
<title>bheu</title>
<text text-anchor="start" x="1476" y="-801.8" font-family="Times New Roman,serif" font-weight="bold" font-size="14.00">Indo&#45;European</text>
<text text-anchor="start" x="1429.5" y="-787.8" font-family="Times New Roman,serif" font-size="14.00" fill="red">bheuə&#45;, bheu&#45;</text>
<text text-anchor="start" x="1506.5" y="-787.8" font-family="Times New Roman,serif" font-size="14.00"> &#160;&#160;to be, exist, grow</text>
</g>
<!-- bhw -->
<g id="node2" class="node">
<title>bhw</title>
<text text-anchor="start" x="1505.5" y="-722.3" font-family="Times New Roman,serif" font-size="14.00" fill="red">&#45;bhw&#45;</text>
</g>
<!-- bheu&#45;&gt;bhw -->
<g id="edge1" class="edge">
<title>bheu&#45;&gt;bhw</title>
<path fill="none" stroke="black" d="M1522.5,-779.7C1522.5,-771.98 1522.5,-762.71 1522.5,-754.11"/>
<polygon fill="black" stroke="black" points="1526,-754.1 1522.5,-744.1 1519,-754.1 1526,-754.1"/>
</g>
<!-- dubhwio -->
<g id="node3" class="node">
<title>dubhwio</title>
<text text-anchor="start" x="239" y="-645.3" font-family="Times New Roman,serif" font-size="14.00" fill="red">du&#45;bhw&#45;io&#45;</text>
</g>
<!-- bhw&#45;&gt;dubhwio -->
<g id="edge2" class="edge">
<title>bhw&#45;&gt;dubhwio</title>
<path fill="none" stroke="black" d="M1495.48,-723.38C1337.15,-713.9 529.6,-665.52 320.17,-652.98"/>
<polygon fill="black" stroke="black" points="320.27,-649.48 310.08,-652.37 319.85,-656.46 320.27,-649.48"/>
</g>
<!-- probhwo -->
<g id="node4" class="node">
<title>probhwo</title>
<text text-anchor="start" x="1490" y="-657.8" font-family="Times New Roman,serif" font-size="14.00" fill="red">pro&#45;bhw&#45;o&#45;</text>
<text text-anchor="start" x="1493.5" y="-645.4" font-family="Times New Roman,serif" font-size="12.00">growing well</text>
<text text-anchor="start" x="1499.5" y="-633.4" font-family="Times New Roman,serif" font-size="12.00">or straight</text>
</g>
<!-- bhw&#45;&gt;probhwo -->
<g id="edge3" class="edge">
<title>bhw&#45;&gt;probhwo</title>
<path fill="none" stroke="black" d="M1522.5,-707.98C1522.5,-700.34 1522.5,-691.06 1522.5,-682.19"/>
<polygon fill="black" stroke="black" points="1526,-682.08 1522.5,-672.08 1519,-682.08 1526,-682.08"/>
</g>
<!-- superbhwo -->
<g id="node5" class="node">
<title>superbhwo</title>
<text text-anchor="start" x="1757.5" y="-651.8" font-family="Times New Roman,serif" font-size="14.00" fill="red">super&#45;bhw&#45;o&#45;</text>
<text text-anchor="start" x="1764" y="-639.4" font-family="Times New Roman,serif" font-size="12.00">&quot;being above&quot;</text>
</g>
<!-- bhw&#45;&gt;superbhwo -->
<g id="edge4" class="edge">
<title>bhw&#45;&gt;superbhwo</title>
<path fill="none" stroke="black" d="M1549.67,-717.53C1593.79,-705.42 1681.86,-681.22 1739.72,-665.32"/>
<polygon fill="black" stroke="black" points="1740.73,-668.68 1749.45,-662.65 1738.88,-661.93 1740.73,-668.68"/>
</g>
<!-- dubiusL -->
<g id="node6" class="node">
<title>dubiusL</title>
<text text-anchor="start" x="94" y="-569.8" font-family="Times New Roman,serif" font-weight="bold" font-size="14.00">Latin</text>
<text text-anchor="start" x="91.5" y="-555.8" font-family="Times New Roman,serif" font-size="14.00" fill="red">dubius</text>
</g>
<!-- dubhwio&#45;&gt;dubiusL -->
<g id="edge5" class="edge">
<title>dubhwio&#45;&gt;dubiusL</title>
<path fill="none" stroke="black" d="M236.57,-630.82C210.23,-617.49 173.78,-599.04 146.85,-585.4"/>
<polygon fill="black" stroke="black" points="148.25,-582.19 137.75,-580.8 145.09,-588.43 148.25,-582.19"/>
</g>
<!-- dubitareL -->
<g id="node7" class="node">
<title>dubitareL</title>
<text text-anchor="start" x="254" y="-419.8" font-family="Times New Roman,serif" font-weight="bold" font-size="14.00">Latin</text>
<text text-anchor="start" x="247.5" y="-405.8" font-family="Times New Roman,serif" font-size="14.00" fill="red">dubitāre</text>
<text text-anchor="start" x="234" y="-393.4" font-family="Times New Roman,serif" font-size="12.00">to waver, doubt</text>
</g>
<!-- dubhwio&#45;&gt;dubitareL -->
<g id="edge6" class="edge">
<title>dubhwio&#45;&gt;dubitareL</title>
<path fill="none" stroke="black" d="M270.5,-630.96C270.5,-591.91 270.5,-495.44 270.5,-444.21"/>
<polygon fill="black" stroke="black" points="274,-444 270.5,-434 267,-444 274,-444"/>
</g>
<!-- probusL -->
<g id="node19" class="node">
<title>probusL</title>
<text text-anchor="start" x="1506" y="-575.8" font-family="Times New Roman,serif" font-weight="bold" font-size="14.00">Latin</text>
<text text-anchor="start" x="1502.5" y="-561.8" font-family="Times New Roman,serif" font-size="14.00" fill="red">probus</text>
<text text-anchor="start" x="1492" y="-549.4" font-family="Times New Roman,serif" font-size="12.00">upright, good</text>
</g>
<!-- probhwo&#45;&gt;probusL -->
<g id="edge18" class="edge">
<title>probhwo&#45;&gt;probusL</title>
<path fill="none" stroke="black" d="M1522.5,-625.87C1522.5,-618.01 1522.5,-608.98 1522.5,-600.39"/>
<polygon fill="black" stroke="black" points="1526,-600.24 1522.5,-590.24 1519,-600.24 1526,-600.24"/>
</g>
<!-- superbusL -->
<g id="node64" class="node">
<title>superbusL</title>
<text text-anchor="start" x="2115" y="-575.8" font-family="Times New Roman,serif" font-weight="bold" font-size="14.00">Latin</text>
<text text-anchor="start" x="2105.5" y="-561.8" font-family="Times New Roman,serif" font-size="14.00" fill="red">superbus</text>
<text text-anchor="start" x="2111.5" y="-549.4" font-family="Times New Roman,serif" font-size="12.00">excellent</text>
</g>
<!-- superbhwo&#45;&gt;superbusL -->
<g id="edge65" class="edge">
<title>superbhwo&#45;&gt;superbusL</title>
<path fill="none" stroke="black" d="M1841.51,-636.91C1906.34,-621.28 2023.75,-592.97 2087.48,-577.61"/>
<polygon fill="black" stroke="black" points="2088.33,-581.01 2097.23,-575.26 2086.69,-574.2 2088.33,-581.01"/>
</g>
<!-- dubious -->
<g id="node8" class="node">
<title>dubious</title>
<text text-anchor="start" x="8" y="-28.8" font-family="Times New Roman,serif" font-weight="bold" font-size="14.00">Modern English</text>
<text text-anchor="start" x="34.5" y="-14.8" font-family="Times New Roman,serif" font-size="14.00" fill="red">dubious</text>
</g>
<!-- dubiusL&#45;&gt;dubious -->
<g id="edge7" class="edge">
<title>dubiusL&#45;&gt;dubious</title>
<path fill="none" stroke="black" stroke-dasharray="1,5" d="M100.28,-547.65C84.88,-519.82 57.5,-463.03 57.5,-411 57.5,-411 57.5,-411 57.5,-175 57.5,-132.61 57.5,-83.43 57.5,-53.53"/>
<polygon fill="black" stroke="black" points="61,-53.43 57.5,-43.43 54,-53.43 61,-53.43"/>
</g>
<!-- dubitabilisL -->
<g id="node9" class="node">
<title>dubitabilisL</title>
<text text-anchor="start" x="179.5" y="-328.3" font-family="Times New Roman,serif" font-size="14.00" fill="red">dubitābilis</text>
</g>
<!-- dubitareL&#45;&gt;dubitabilisL -->
<g id="edge8" class="edge">
<title>dubitareL&#45;&gt;dubitabilisL</title>
<path fill="none" stroke="black" d="M251.56,-385.78C244.36,-376.96 236.14,-366.88 228.82,-357.9"/>
<polygon fill="black" stroke="black" points="231.44,-355.58 222.4,-350.04 226.01,-360.01 231.44,-355.58"/>
</g>
<!-- douterOF -->
<g id="node10" class="node">
<title>douterOF</title>
<text text-anchor="start" x="288.5" y="-335.8" font-family="Times New Roman,serif" font-weight="bold" font-size="14.00">Old French</text>
<text text-anchor="start" x="305" y="-321.8" font-family="Times New Roman,serif" font-size="14.00" fill="red">douter</text>
</g>
<!-- dubitareL&#45;&gt;douterOF -->
<g id="edge9" class="edge">
<title>dubitareL&#45;&gt;douterOF</title>
<path fill="none" stroke="black" d="M286.69,-385.78C292.72,-377.14 299.59,-367.29 305.75,-358.46"/>
<polygon fill="black" stroke="black" points="308.76,-360.25 311.61,-350.04 303.02,-356.24 308.76,-360.25"/>
</g>
<!-- dubitable -->
<g id="node11" class="node">
<title>dubitable</title>
<text text-anchor="start" x="141" y="-35.8" font-family="Times New Roman,serif" font-weight="bold" font-size="14.00">Modern English</text>
<text text-anchor="start" x="164.5" y="-21.8" font-family="Times New Roman,serif" font-size="14.00" fill="red">dubitable</text>
<text text-anchor="start" x="160" y="-7.8" font-family="Times New Roman,serif" font-size="14.00" fill="red">indubitable</text>
</g>
<!-- dubitabilisL&#45;&gt;dubitable -->
<g id="edge10" class="edge">
<title>dubitabilisL&#45;&gt;dubitable</title>
<path fill="none" stroke="black" stroke-dasharray="1,5" d="M207.48,-313.73C204.61,-265.02 196.4,-125.9 192.54,-60.62"/>
<polygon fill="black" stroke="black" points="196.02,-60.2 191.94,-50.43 189.04,-60.62 196.02,-60.2"/>
</g>
<!-- doutenME -->
<g id="node12" class="node">
<title>doutenME</title>
<text text-anchor="start" x="277" y="-257.8" font-family="Times New Roman,serif" font-weight="bold" font-size="14.00">Middle English</text>
<text text-anchor="start" x="304" y="-243.8" font-family="Times New Roman,serif" font-size="14.00" fill="red">douten</text>
</g>
<!-- douterOF&#45;&gt;doutenME -->
<g id="edge11" class="edge">
<title>douterOF&#45;&gt;doutenME</title>
<path fill="none" stroke="black" stroke-dasharray="1,5" d="M323.5,-313.75C323.5,-304.52 323.5,-292.93 323.5,-282.49"/>
<polygon fill="black" stroke="black" points="327,-282.18 323.5,-272.18 320,-282.18 327,-282.18"/>
</g>
<!-- redouterOF -->
<g id="node15" class="node">
<title>redouterOF</title>
<text text-anchor="start" x="433" y="-256.8" font-family="Times New Roman,serif" font-size="14.00" fill="red">redouter</text>
<text text-anchor="start" x="425.5" y="-244.4" font-family="Times New Roman,serif" font-size="12.00">to dread, fear</text>
</g>
<!-- douterOF&#45;&gt;redouterOF -->
<g id="edge13" class="edge">
<title>douterOF&#45;&gt;redouterOF</title>
<path fill="none" stroke="black" d="M353.35,-313.94C372.29,-303.12 397.01,-288.99 417.51,-277.28"/>
<polygon fill="black" stroke="black" points="419.35,-280.26 426.29,-272.26 415.87,-274.18 419.35,-280.26"/>
</g>
<!-- doubt -->
<g id="node13" class="node">
<title>doubt</title>
<text text-anchor="start" x="274" y="-28.8" font-family="Times New Roman,serif" font-weight="bold" font-size="14.00">Modern English</text>
<text text-anchor="start" x="306.5" y="-14.8" font-family="Times New Roman,serif" font-size="14.00" fill="red">doubt</text>
</g>
<!-- doutenME&#45;&gt;doubt -->
<g id="edge12" class="edge">
<title>doutenME&#45;&gt;doubt</title>
<path fill="none" stroke="black" d="M323.5,-235.94C323.5,-196.91 323.5,-100.85 323.5,-53.41"/>
<polygon fill="black" stroke="black" points="327,-53.26 323.5,-43.26 320,-53.26 327,-53.26"/>
</g>
<!-- re -->
<g id="node14" class="node">
<title>re</title>
<text text-anchor="start" x="564.5" y="-490.8" font-family="Times New Roman,serif" font-size="14.00" fill="red">re&#45;</text>
<text text-anchor="start" x="552.5" y="-478.4" font-family="Times New Roman,serif" font-size="12.00">opposite</text>
</g>
<!-- re&#45;&gt;redouterOF -->
<g id="edge14" class="edge">
<title>re&#45;&gt;redouterOF</title>
<path fill="none" stroke="black" d="M563.97,-469.94C543.9,-429.8 493.58,-329.17 469.6,-281.21"/>
<polygon fill="black" stroke="black" points="472.64,-279.46 465.04,-272.08 466.38,-282.59 472.64,-279.46"/>
</g>
<!-- reprobareL -->
<g id="node42" class="node">
<title>reprobareL</title>
<text text-anchor="start" x="631" y="-412.8" font-family="Times New Roman,serif" font-size="14.00" fill="red">reprobāre</text>
<text text-anchor="start" x="634.5" y="-400.4" font-family="Times New Roman,serif" font-size="12.00">to reprove</text>
</g>
<!-- re&#45;&gt;reprobareL -->
<g id="edge42" class="edge">
<title>re&#45;&gt;reprobareL</title>
<path fill="none" stroke="black" d="M592.01,-469.75C603.67,-459.45 618.65,-446.22 631.43,-434.92"/>
<polygon fill="black" stroke="black" points="633.89,-437.42 639.06,-428.18 629.25,-432.18 633.89,-437.42"/>
</g>
<!-- redoutableOF -->
<g id="node16" class="node">
<title>redoutableOF</title>
<text text-anchor="start" x="421.5" y="-179.8" font-family="Times New Roman,serif" font-weight="bold" font-size="14.00">Old French</text>
<text text-anchor="start" x="427" y="-165.8" font-family="Times New Roman,serif" font-size="14.00" fill="red">redoutable</text>
</g>
<!-- redouterOF&#45;&gt;redoutableOF -->
<g id="edge15" class="edge">
<title>redouterOF&#45;&gt;redoutableOF</title>
<path fill="none" stroke="black" d="M456.5,-235.75C456.5,-226.52 456.5,-214.93 456.5,-204.49"/>
<polygon fill="black" stroke="black" points="460,-204.18 456.5,-194.18 453,-204.18 460,-204.18"/>
</g>
<!-- redoubtabelME -->
<g id="node17" class="node">
<title>redoubtabelME</title>
<text text-anchor="start" x="410" y="-107.8" font-family="Times New Roman,serif" font-weight="bold" font-size="14.00">Middle English</text>
<text text-anchor="start" x="423" y="-93.8" font-family="Times New Roman,serif" font-size="14.00" fill="red">redoubtabel</text>
</g>
<!-- redoutableOF&#45;&gt;redoubtabelME -->
<g id="edge16" class="edge">
<title>redoutableOF&#45;&gt;redoubtabelME</title>
<path fill="none" stroke="black" stroke-dasharray="1,5" d="M456.5,-157.7C456.5,-149.98 456.5,-140.71 456.5,-132.11"/>
<polygon fill="black" stroke="black" points="460,-132.1 456.5,-122.1 453,-132.1 460,-132.1"/>
</g>
<!-- redoubtable -->
<g id="node18" class="node">
<title>redoubtable</title>
<text text-anchor="start" x="407" y="-28.8" font-family="Times New Roman,serif" font-weight="bold" font-size="14.00">Modern English</text>
<text text-anchor="start" x="423" y="-14.8" font-family="Times New Roman,serif" font-size="14.00" fill="red">redoubtable</text>
</g>
<!-- redoubtabelME&#45;&gt;redoubtable -->
<g id="edge17" class="edge">
<title>redoubtabelME&#45;&gt;redoubtable</title>
<path fill="none" stroke="black" d="M456.5,-85.91C456.5,-76.34 456.5,-64.18 456.5,-53.32"/>
<polygon fill="black" stroke="black" points="460,-53.04 456.5,-43.04 453,-53.04 460,-53.04"/>
</g>
<!-- probareL -->
<g id="node20" class="node">
<title>probareL</title>
<text text-anchor="start" x="1446.5" y="-490.8" font-family="Times New Roman,serif" font-size="14.00" fill="red">probāre</text>
<text text-anchor="start" x="1454.5" y="-478.4" font-family="Times New Roman,serif" font-size="12.00">to test</text>
</g>
<!-- probusL&#45;&gt;probareL -->
<g id="edge19" class="edge">
<title>probusL&#45;&gt;probareL</title>
<path fill="none" stroke="black" d="M1506,-541.78C1499.86,-533.14 1492.86,-523.29 1486.59,-514.46"/>
<polygon fill="black" stroke="black" points="1489.26,-512.17 1480.61,-506.04 1483.55,-516.22 1489.26,-512.17"/>
</g>
<!-- probitasL -->
<g id="node21" class="node">
<title>probitasL</title>
<text text-anchor="start" x="1665.5" y="-490.8" font-family="Times New Roman,serif" font-size="14.00" fill="red">probitās</text>
<text text-anchor="start" x="1643" y="-478.4" font-family="Times New Roman,serif" font-size="12.00">uprightness, honesty</text>
</g>
<!-- probusL&#45;&gt;probitasL -->
<g id="edge20" class="edge">
<title>probusL&#45;&gt;probitasL</title>
<path fill="none" stroke="black" d="M1561,-547.37C1585.23,-536.28 1616.63,-521.9 1642.21,-510.19"/>
<polygon fill="black" stroke="black" points="1643.71,-513.35 1651.35,-506.01 1640.8,-506.99 1643.71,-513.35"/>
</g>
<!-- probaL -->
<g id="node22" class="node">
<title>probaL</title>
<text text-anchor="start" x="1116.5" y="-256.8" font-family="Times New Roman,serif" font-size="14.00" fill="red">proba</text>
<text text-anchor="start" x="1121" y="-244.4" font-family="Times New Roman,serif" font-size="12.00">proof</text>
</g>
<!-- probareL&#45;&gt;probaL -->
<g id="edge21" class="edge">
<title>probareL&#45;&gt;probaL</title>
<path fill="none" stroke="black" d="M1443.87,-469.94C1384.58,-428.88 1233.88,-324.51 1166.7,-277.99"/>
<polygon fill="black" stroke="black" points="1168.38,-274.9 1158.17,-272.08 1164.4,-280.66 1168.38,-274.9"/>
</g>
<!-- probatioL -->
<g id="node23" class="node">
<title>probatioL</title>
<text text-anchor="start" x="1240.5" y="-256.8" font-family="Times New Roman,serif" font-size="14.00" fill="red">probātiō, probātiōn&#45;</text>
<text text-anchor="start" x="1279" y="-244.4" font-family="Times New Roman,serif" font-size="12.00">a testing</text>
</g>
<!-- probareL&#45;&gt;probatioL -->
<g id="edge22" class="edge">
<title>probareL&#45;&gt;probatioL</title>
<path fill="none" stroke="black" d="M1455.93,-469.94C1426.16,-429.55 1351.24,-327.91 1316.16,-280.31"/>
<polygon fill="black" stroke="black" points="1318.84,-278.06 1310.09,-272.08 1313.21,-282.21 1318.84,-278.06"/>
</g>
<!-- probatumL -->
<g id="node24" class="node">
<title>probatumL</title>
<text text-anchor="start" x="1400" y="-250.3" font-family="Times New Roman,serif" font-size="14.00" fill="red">probātum</text>
</g>
<!-- probareL&#45;&gt;probatumL -->
<g id="edge23" class="edge">
<title>probareL&#45;&gt;probatumL</title>
<path fill="none" stroke="black" d="M1465.49,-469.94C1458.44,-430.05 1440.83,-330.43 1432.29,-282.12"/>
<polygon fill="black" stroke="black" points="1435.71,-281.32 1430.52,-272.08 1428.81,-282.54 1435.71,-281.32"/>
</g>
<!-- probabilisL -->
<g id="node25" class="node">
<title>probabilisL</title>
<text text-anchor="start" x="1490.5" y="-250.3" font-family="Times New Roman,serif" font-size="14.00" fill="red">probābilis</text>
</g>
<!-- probareL&#45;&gt;probabilisL -->
<g id="edge24" class="edge">
<title>probareL&#45;&gt;probabilisL</title>
<path fill="none" stroke="black" d="M1472.18,-469.94C1480.77,-430.05 1502.24,-330.43 1512.66,-282.12"/>
<polygon fill="black" stroke="black" points="1516.13,-282.6 1514.82,-272.08 1509.29,-281.12 1516.13,-282.6"/>
</g>
<!-- proverOF -->
<g id="node26" class="node">
<title>proverOF</title>
<text text-anchor="start" x="1551.5" y="-413.8" font-family="Times New Roman,serif" font-weight="bold" font-size="14.00">Old French</text>
<text text-anchor="start" x="1568" y="-399.8" font-family="Times New Roman,serif" font-size="14.00" fill="red">prover</text>
</g>
<!-- probareL&#45;&gt;proverOF -->
<g id="edge25" class="edge">
<title>probareL&#45;&gt;proverOF</title>
<path fill="none" stroke="black" d="M1494.98,-469.94C1511.57,-459.26 1533.13,-445.37 1551.17,-433.76"/>
<polygon fill="black" stroke="black" points="1553.19,-436.62 1559.7,-428.26 1549.4,-430.73 1553.19,-436.62"/>
</g>
<!-- approbareL -->
<g id="node36" class="node">
<title>approbareL</title>
<text text-anchor="start" x="1757.5" y="-256.8" font-family="Times New Roman,serif" font-size="14.00" fill="red">approbāre</text>
<text text-anchor="start" x="1751.5" y="-244.4" font-family="Times New Roman,serif" font-size="12.00">approve, justify</text>
</g>
<!-- probareL&#45;&gt;approbareL -->
<g id="edge35" class="edge">
<title>probareL&#45;&gt;approbareL</title>
<path fill="none" stroke="black" d="M1498.71,-482.94C1534.57,-476.97 1594.99,-463.2 1638.5,-434 1670.28,-412.67 1736.32,-324.54 1768.32,-280.41"/>
<polygon fill="black" stroke="black" points="1771.23,-282.36 1774.25,-272.2 1765.56,-278.26 1771.23,-282.36"/>
</g>
<!-- probareL&#45;&gt;reprobareL -->
<g id="edge43" class="edge">
<title>probareL&#45;&gt;reprobareL</title>
<path fill="none" stroke="black" d="M1438.23,-484.16C1315.24,-472.62 852.54,-429.21 704.42,-415.31"/>
<polygon fill="black" stroke="black" points="704.59,-411.81 694.31,-414.36 703.94,-418.78 704.59,-411.81"/>
</g>
<!-- probiteOF -->
<g id="node61" class="node">
<title>probiteOF</title>
<text text-anchor="start" x="1890.5" y="-413.8" font-family="Times New Roman,serif" font-weight="bold" font-size="14.00">Old French</text>
<text text-anchor="start" x="1905.5" y="-399.8" font-family="Times New Roman,serif" font-size="14.00" fill="red">probite</text>
</g>
<!-- probitasL&#45;&gt;probiteOF -->
<g id="edge62" class="edge">
<title>probitasL&#45;&gt;probiteOF</title>
<path fill="none" stroke="black" d="M1741.69,-469.94C1780.82,-457.4 1833.76,-440.42 1872.78,-427.91"/>
<polygon fill="black" stroke="black" points="1873.93,-431.21 1882.38,-424.83 1871.79,-424.55 1873.93,-431.21"/>
</g>
<!-- probeME -->
<g id="node29" class="node">
<title>probeME</title>
<text text-anchor="start" x="942" y="-107.8" font-family="Times New Roman,serif" font-weight="bold" font-size="14.00">Middle English</text>
<text text-anchor="start" x="971.5" y="-93.8" font-family="Times New Roman,serif" font-size="14.00" fill="red">probe</text>
</g>
<!-- probaL&#45;&gt;probeME -->
<g id="edge28" class="edge">
<title>probaL&#45;&gt;probeME</title>
<path fill="none" stroke="black" stroke-dasharray="1,5" d="M1106.29,-246.79C1078.66,-239.07 1036.61,-223.19 1012.5,-194 998.21,-176.69 992.37,-151.64 990.02,-132.52"/>
<polygon fill="black" stroke="black" points="993.48,-131.93 989.02,-122.32 986.51,-132.61 993.48,-131.93"/>
</g>
<!-- proveAN -->
<g id="node31" class="node">
<title>proveAN</title>
<text text-anchor="start" x="1030" y="-179.8" font-family="Times New Roman,serif" font-weight="bold" font-size="14.00">Anglo&#45;Norman</text>
<text text-anchor="start" x="1059" y="-165.8" font-family="Times New Roman,serif" font-size="14.00" fill="red">prove</text>
</g>
<!-- probaL&#45;&gt;proveAN -->
<g id="edge30" class="edge">
<title>probaL&#45;&gt;proveAN</title>
<path fill="none" stroke="black" d="M1120.34,-235.75C1112.77,-225.84 1103.14,-213.21 1094.74,-202.21"/>
<polygon fill="black" stroke="black" points="1097.46,-200 1088.61,-194.18 1091.89,-204.25 1097.46,-200"/>
</g>
<!-- prueveOF -->
<g id="node32" class="node">
<title>prueveOF</title>
<text text-anchor="start" x="1155.5" y="-179.8" font-family="Times New Roman,serif" font-weight="bold" font-size="14.00">Old French</text>
<text text-anchor="start" x="1171.5" y="-165.8" font-family="Times New Roman,serif" font-size="14.00" fill="red">prueve</text>
</g>
<!-- probaL&#45;&gt;prueveOF -->
<g id="edge31" class="edge">
<title>probaL&#45;&gt;prueveOF</title>
<path fill="none" stroke="black" d="M1146.43,-235.75C1153.87,-225.84 1163.34,-213.21 1171.59,-202.21"/>
<polygon fill="black" stroke="black" points="1174.42,-204.28 1177.62,-194.18 1168.82,-200.08 1174.42,-204.28"/>
</g>
<!-- probationOF -->
<g id="node53" class="node">
<title>probationOF</title>
<text text-anchor="start" x="1262.5" y="-179.8" font-family="Times New Roman,serif" font-weight="bold" font-size="14.00">Old French</text>
<text text-anchor="start" x="1270" y="-165.8" font-family="Times New Roman,serif" font-size="14.00" fill="red">probation</text>
</g>
<!-- probatioL&#45;&gt;probationOF -->
<g id="edge54" class="edge">
<title>probatioL&#45;&gt;probationOF</title>
<path fill="none" stroke="black" d="M1297.5,-235.75C1297.5,-226.52 1297.5,-214.93 1297.5,-204.49"/>
<polygon fill="black" stroke="black" points="1301,-204.18 1297.5,-194.18 1294,-204.18 1301,-204.18"/>
</g>
<!-- probatME -->
<g id="node56" class="node">
<title>probatME</title>
<text text-anchor="start" x="1343" y="-107.8" font-family="Times New Roman,serif" font-weight="bold" font-size="14.00">Middle English</text>
<text text-anchor="start" x="1371" y="-93.8" font-family="Times New Roman,serif" font-size="14.00" fill="red">probat</text>
</g>
<!-- probatumL&#45;&gt;probatME -->
<g id="edge57" class="edge">
<title>probatumL&#45;&gt;probatME</title>
<path fill="none" stroke="black" stroke-dasharray="1,5" d="M1423.07,-235.73C1416.52,-210.22 1404.19,-162.23 1396.44,-132.03"/>
<polygon fill="black" stroke="black" points="1399.78,-130.97 1393.91,-122.16 1393,-132.71 1399.78,-130.97"/>
</g>
<!-- probableOF -->
<g id="node58" class="node">
<title>probableOF</title>
<text text-anchor="start" x="1483.5" y="-179.8" font-family="Times New Roman,serif" font-weight="bold" font-size="14.00">Old French</text>
<text text-anchor="start" x="1493.5" y="-165.8" font-family="Times New Roman,serif" font-size="14.00" fill="red">probable</text>
</g>
<!-- probabilisL&#45;&gt;probableOF -->
<g id="edge59" class="edge">
<title>probabilisL&#45;&gt;probableOF</title>
<path fill="none" stroke="black" d="M1518.5,-235.75C1518.5,-226.52 1518.5,-214.93 1518.5,-204.49"/>
<polygon fill="black" stroke="black" points="1522,-204.18 1518.5,-194.18 1515,-204.18 1522,-204.18"/>
</g>
<!-- provenME -->
<g id="node27" class="node">
<title>provenME</title>
<text text-anchor="start" x="1546" y="-335.8" font-family="Times New Roman,serif" font-weight="bold" font-size="14.00">Middle English</text>
<text text-anchor="start" x="1572.5" y="-321.8" font-family="Times New Roman,serif" font-size="14.00" fill="red">proven</text>
</g>
<!-- proverOF&#45;&gt;provenME -->
<g id="edge26" class="edge">
<title>proverOF&#45;&gt;provenME</title>
<path fill="none" stroke="black" stroke-dasharray="1,5" d="M1587.86,-391.75C1588.6,-382.43 1589.52,-370.69 1590.36,-360.17"/>
<polygon fill="black" stroke="black" points="1593.85,-360.42 1591.14,-350.18 1586.87,-359.87 1593.85,-360.42"/>
</g>
<!-- prove -->
<g id="node28" class="node">
<title>prove</title>
<text text-anchor="start" x="1604" y="-28.8" font-family="Times New Roman,serif" font-weight="bold" font-size="14.00">Modern English</text>
<text text-anchor="start" x="1637" y="-14.8" font-family="Times New Roman,serif" font-size="14.00" fill="red">prove</text>
</g>
<!-- provenME&#45;&gt;prove -->
<g id="edge27" class="edge">
<title>provenME&#45;&gt;prove</title>
<path fill="none" stroke="black" d="M1595.95,-313.73C1606.08,-263.09 1635.76,-114.68 1648.06,-53.18"/>
<polygon fill="black" stroke="black" points="1651.55,-53.57 1650.08,-43.08 1644.69,-52.2 1651.55,-53.57"/>
</g>
<!-- probe -->
<g id="node30" class="node">
<title>probe</title>
<text text-anchor="start" x="939" y="-28.8" font-family="Times New Roman,serif" font-weight="bold" font-size="14.00">Modern English</text>
<text text-anchor="start" x="971.5" y="-14.8" font-family="Times New Roman,serif" font-size="14.00" fill="red">probe</text>
</g>
<!-- probeME&#45;&gt;probe -->
<g id="edge29" class="edge">
<title>probeME&#45;&gt;probe</title>
<path fill="none" stroke="black" d="M988.5,-85.91C988.5,-76.34 988.5,-64.18 988.5,-53.32"/>
<polygon fill="black" stroke="black" points="992,-53.04 988.5,-43.04 985,-53.04 992,-53.04"/>
</g>
<!-- proveME -->
<g id="node33" class="node">
<title>proveME</title>
<text text-anchor="start" x="1075" y="-107.8" font-family="Times New Roman,serif" font-weight="bold" font-size="14.00">Middle English</text>
<text text-anchor="start" x="1086" y="-93.8" font-family="Times New Roman,serif" font-size="14.00" fill="red">prove, preve</text>
</g>
<!-- proveAN&#45;&gt;proveME -->
<g id="edge32" class="edge">
<title>proveAN&#45;&gt;proveME</title>
<path fill="none" stroke="black" stroke-dasharray="1,5" d="M1086.87,-157.7C1092.22,-149.56 1098.7,-139.69 1104.61,-130.7"/>
<polygon fill="black" stroke="black" points="1107.69,-132.38 1110.26,-122.1 1101.84,-128.54 1107.69,-132.38"/>
</g>
<!-- prueveOF&#45;&gt;proveME -->
<g id="edge33" class="edge">
<title>prueveOF&#45;&gt;proveME</title>
<path fill="none" stroke="black" stroke-dasharray="1,5" d="M1173.44,-157.7C1165,-149.14 1154.68,-138.66 1145.46,-129.3"/>
<polygon fill="black" stroke="black" points="1147.87,-126.77 1138.36,-122.1 1142.89,-131.68 1147.87,-126.77"/>
</g>
<!-- proof -->
<g id="node34" class="node">
<title>proof</title>
<text text-anchor="start" x="1072" y="-28.8" font-family="Times New Roman,serif" font-weight="bold" font-size="14.00">Modern English</text>
<text text-anchor="start" x="1105.5" y="-14.8" font-family="Times New Roman,serif" font-size="14.00" fill="red">proof</text>
</g>
<!-- proveME&#45;&gt;proof -->
<g id="edge34" class="edge">
<title>proveME&#45;&gt;proof</title>
<path fill="none" stroke="black" d="M1121.5,-85.91C1121.5,-76.34 1121.5,-64.18 1121.5,-53.32"/>
<polygon fill="black" stroke="black" points="1125,-53.04 1121.5,-43.04 1118,-53.04 1125,-53.04"/>
</g>
<!-- ad -->
<g id="node35" class="node">
<title>ad</title>
<text text-anchor="start" x="1777" y="-334.8" font-family="Times New Roman,serif" font-size="14.00" fill="red">ad&#45;</text>
<text text-anchor="start" x="1770" y="-322.4" font-family="Times New Roman,serif" font-size="12.00">toward</text>
</g>
<!-- ad&#45;&gt;approbareL -->
<g id="edge36" class="edge">
<title>ad&#45;&gt;approbareL</title>
<path fill="none" stroke="black" d="M1786.5,-313.75C1786.5,-304.52 1786.5,-292.93 1786.5,-282.49"/>
<polygon fill="black" stroke="black" points="1790,-282.18 1786.5,-272.18 1783,-282.18 1790,-282.18"/>
</g>
<!-- aproverOF -->
<g id="node37" class="node">
<title>aproverOF</title>
<text text-anchor="start" x="1751.5" y="-179.8" font-family="Times New Roman,serif" font-weight="bold" font-size="14.00">Old French</text>
<text text-anchor="start" x="1765" y="-165.8" font-family="Times New Roman,serif" font-size="14.00" fill="red">aprover</text>
</g>
<!-- approbareL&#45;&gt;aproverOF -->
<g id="edge37" class="edge">
<title>approbareL&#45;&gt;aproverOF</title>
<path fill="none" stroke="black" d="M1786.5,-235.75C1786.5,-226.52 1786.5,-214.93 1786.5,-204.49"/>
<polygon fill="black" stroke="black" points="1790,-204.18 1786.5,-194.18 1783,-204.18 1790,-204.18"/>
</g>
<!-- approbatenME -->
<g id="node40" class="node">
<title>approbatenME</title>
<text text-anchor="start" x="1864" y="-179.8" font-family="Times New Roman,serif" font-weight="bold" font-size="14.00">Middle English</text>
<text text-anchor="start" x="1878.5" y="-165.8" font-family="Times New Roman,serif" font-size="14.00" fill="red">approbaten</text>
</g>
<!-- approbareL&#45;&gt;approbatenME -->
<g id="edge40" class="edge">
<title>approbareL&#45;&gt;approbatenME</title>
<path fill="none" stroke="black" stroke-dasharray="1,5" d="M1814.33,-235.94C1831.83,-225.21 1854.63,-211.24 1873.63,-199.6"/>
<polygon fill="black" stroke="black" points="1875.64,-202.47 1882.34,-194.26 1871.98,-196.5 1875.64,-202.47"/>
</g>
<!-- approvenME -->
<g id="node38" class="node">
<title>approvenME</title>
<text text-anchor="start" x="1740" y="-107.8" font-family="Times New Roman,serif" font-weight="bold" font-size="14.00">Middle English</text>
<text text-anchor="start" x="1760" y="-93.8" font-family="Times New Roman,serif" font-size="14.00" fill="red">approven</text>
</g>
<!-- aproverOF&#45;&gt;approvenME -->
<g id="edge38" class="edge">
<title>aproverOF&#45;&gt;approvenME</title>
<path fill="none" stroke="black" stroke-dasharray="1,5" d="M1786.5,-157.7C1786.5,-149.98 1786.5,-140.71 1786.5,-132.11"/>
<polygon fill="black" stroke="black" points="1790,-132.1 1786.5,-122.1 1783,-132.1 1790,-132.1"/>
</g>
<!-- approve -->
<g id="node39" class="node">
<title>approve</title>
<text text-anchor="start" x="1737" y="-28.8" font-family="Times New Roman,serif" font-weight="bold" font-size="14.00">Modern English</text>
<text text-anchor="start" x="1767" y="-14.8" font-family="Times New Roman,serif" font-size="14.00" fill="red">aprove</text>
</g>
<!-- approvenME&#45;&gt;approve -->
<g id="edge39" class="edge">
<title>approvenME&#45;&gt;approve</title>
<path fill="none" stroke="black" d="M1786.5,-85.91C1786.5,-76.34 1786.5,-64.18 1786.5,-53.32"/>
<polygon fill="black" stroke="black" points="1790,-53.04 1786.5,-43.04 1783,-53.04 1790,-53.04"/>
</g>
<!-- approbate -->
<g id="node41" class="node">
<title>approbate</title>
<text text-anchor="start" x="1870" y="-28.8" font-family="Times New Roman,serif" font-weight="bold" font-size="14.00">Modern English</text>
<text text-anchor="start" x="1891" y="-14.8" font-family="Times New Roman,serif" font-size="14.00" fill="red">approbate</text>
</g>
<!-- approbatenME&#45;&gt;approbate -->
<g id="edge41" class="edge">
<title>approbatenME&#45;&gt;approbate</title>
<path fill="none" stroke="black" d="M1911.53,-157.91C1913.08,-132.33 1916.01,-83.86 1917.85,-53.33"/>
<polygon fill="black" stroke="black" points="1921.34,-53.54 1918.45,-43.35 1914.36,-53.12 1921.34,-53.54"/>
</g>
<!-- reprobatusL -->
<g id="node43" class="node">
<title>reprobatusL</title>
<text text-anchor="start" x="566" y="-328.3" font-family="Times New Roman,serif" font-size="14.00" fill="red">reprobātus</text>
</g>
<!-- reprobareL&#45;&gt;reprobatusL -->
<g id="edge44" class="edge">
<title>reprobareL&#45;&gt;reprobatusL</title>
<path fill="none" stroke="black" d="M644.43,-391.75C636.35,-381.84 626.04,-369.21 617.06,-358.21"/>
<polygon fill="black" stroke="black" points="619.55,-355.71 610.51,-350.18 614.12,-360.14 619.55,-355.71"/>
</g>
<!-- reproverOF -->
<g id="node44" class="node">
<title>reproverOF</title>
<text text-anchor="start" x="685.5" y="-335.8" font-family="Times New Roman,serif" font-weight="bold" font-size="14.00">Old French</text>
<text text-anchor="start" x="669" y="-321.8" font-family="Times New Roman,serif" font-size="14.00" fill="red">reprover, reprueve</text>
</g>
<!-- reprobareL&#45;&gt;reproverOF -->
<g id="edge45" class="edge">
<title>reprobareL&#45;&gt;reproverOF</title>
<path fill="none" stroke="black" d="M672.57,-391.75C680.65,-381.84 690.96,-369.21 699.94,-358.21"/>
<polygon fill="black" stroke="black" points="702.88,-360.14 706.49,-350.18 697.45,-355.71 702.88,-360.14"/>
</g>
<!-- reprobateME -->
<g id="node45" class="node">
<title>reprobateME</title>
<text text-anchor="start" x="545" y="-263.8" font-family="Times New Roman,serif" font-weight="bold" font-size="14.00">Middle English</text>
<text text-anchor="start" x="564.5" y="-249.8" font-family="Times New Roman,serif" font-size="14.00" fill="red">reprobate</text>
<text text-anchor="start" x="565" y="-237.4" font-family="Times New Roman,serif" font-size="12.00">condemned</text>
</g>
<!-- reprobatusL&#45;&gt;reprobateME -->
<g id="edge46" class="edge">
<title>reprobatusL&#45;&gt;reprobateME</title>
<path fill="none" stroke="black" stroke-dasharray="1,5" d="M595.37,-313.75C594.87,-306.2 594.27,-297.07 593.69,-288.28"/>
<polygon fill="black" stroke="black" points="597.18,-287.98 593.03,-278.23 590.19,-288.44 597.18,-287.98"/>
</g>
<!-- repruverAN -->
<g id="node47" class="node">
<title>repruverAN</title>
<text text-anchor="start" x="675" y="-257.8" font-family="Times New Roman,serif" font-weight="bold" font-size="14.00">Anglo&#45;Norman</text>
<text text-anchor="start" x="697" y="-243.8" font-family="Times New Roman,serif" font-size="14.00" fill="red">repruver</text>
</g>
<!-- reproverOF&#45;&gt;repruverAN -->
<g id="edge48" class="edge">
<title>reproverOF&#45;&gt;repruverAN</title>
<path fill="none" stroke="black" d="M720.5,-313.75C720.5,-304.52 720.5,-292.93 720.5,-282.49"/>
<polygon fill="black" stroke="black" points="724,-282.18 720.5,-272.18 717,-282.18 724,-282.18"/>
</g>
<!-- reproveME -->
<g id="node50" class="node">
<title>reproveME</title>
<text text-anchor="start" x="800" y="-257.8" font-family="Times New Roman,serif" font-weight="bold" font-size="14.00">Middle English</text>
<text text-anchor="start" x="800.5" y="-243.8" font-family="Times New Roman,serif" font-size="14.00" fill="red">reprove, repreve</text>
</g>
<!-- reproverOF&#45;&gt;reproveME -->
<g id="edge51" class="edge">
<title>reproverOF&#45;&gt;reproveME</title>
<path fill="none" stroke="black" stroke-dasharray="1,5" d="M748.78,-313.94C766.65,-303.17 789.94,-289.12 809.3,-277.44"/>
<polygon fill="black" stroke="black" points="811.13,-280.42 817.88,-272.26 807.51,-274.43 811.13,-280.42"/>
</g>
<!-- reprobate -->
<g id="node46" class="node">
<title>reprobate</title>
<text text-anchor="start" x="540" y="-28.8" font-family="Times New Roman,serif" font-weight="bold" font-size="14.00">Modern English</text>
<text text-anchor="start" x="562.5" y="-14.8" font-family="Times New Roman,serif" font-size="14.00" fill="red">reprobate</text>
</g>
<!-- reprobateME&#45;&gt;reprobate -->
<g id="edge47" class="edge">
<title>reprobateME&#45;&gt;reprobate</title>
<path fill="none" stroke="black" d="M591.3,-229.98C590.93,-187.81 590.14,-98.35 589.74,-53.23"/>
<polygon fill="black" stroke="black" points="593.24,-52.99 589.65,-43.02 586.24,-53.05 593.24,-52.99"/>
</g>
<!-- reprovenME -->
<g id="node48" class="node">
<title>reprovenME</title>
<text text-anchor="start" x="676" y="-179.8" font-family="Times New Roman,serif" font-weight="bold" font-size="14.00">Middle English</text>
<text text-anchor="start" x="697.5" y="-165.8" font-family="Times New Roman,serif" font-size="14.00" fill="red">reproven</text>
</g>
<!-- repruverAN&#45;&gt;reprovenME -->
<g id="edge49" class="edge">
<title>repruverAN&#45;&gt;reprovenME</title>
<path fill="none" stroke="black" stroke-dasharray="1,5" d="M720.95,-235.75C721.2,-226.52 721.5,-214.93 721.78,-204.49"/>
<polygon fill="black" stroke="black" points="725.28,-204.27 722.05,-194.18 718.29,-204.08 725.28,-204.27"/>
</g>
<!-- reprove -->
<g id="node49" class="node">
<title>reprove</title>
<text text-anchor="start" x="673" y="-28.8" font-family="Times New Roman,serif" font-weight="bold" font-size="14.00">Modern English</text>
<text text-anchor="start" x="701" y="-14.8" font-family="Times New Roman,serif" font-size="14.00" fill="red">reprove</text>
</g>
<!-- reprovenME&#45;&gt;reprove -->
<g id="edge50" class="edge">
<title>reprovenME&#45;&gt;reprove</title>
<path fill="none" stroke="black" d="M722.5,-157.91C722.5,-132.45 722.5,-84.28 722.5,-53.74"/>
<polygon fill="black" stroke="black" points="726,-53.35 722.5,-43.35 719,-53.35 726,-53.35"/>
</g>
<!-- reprofME -->
<g id="node51" class="node">
<title>reprofME</title>
<text text-anchor="start" x="799" y="-100.3" font-family="Times New Roman,serif" font-size="14.00" fill="red">reprof</text>
</g>
<!-- reprovenME&#45;&gt;reprofME -->
<g id="edge52" class="edge">
<title>reprovenME&#45;&gt;reprofME</title>
<path fill="none" stroke="black" d="M745.74,-157.7C757.69,-148.8 772.42,-137.82 785.35,-128.2"/>
<polygon fill="black" stroke="black" points="787.6,-130.88 793.53,-122.1 783.42,-125.27 787.6,-130.88"/>
</g>
<!-- reproof -->
<g id="node52" class="node">
<title>reproof</title>
<text text-anchor="start" x="806" y="-28.8" font-family="Times New Roman,serif" font-weight="bold" font-size="14.00">Modern English</text>
<text text-anchor="start" x="834" y="-14.8" font-family="Times New Roman,serif" font-size="14.00" fill="red">reproof</text>
</g>
<!-- reprofME&#45;&gt;reproof -->
<g id="edge53" class="edge">
<title>reprofME&#45;&gt;reproof</title>
<path fill="none" stroke="black" d="M825.16,-85.91C830.2,-75.94 836.68,-63.17 842.34,-51.97"/>
<polygon fill="black" stroke="black" points="845.47,-53.54 846.87,-43.04 839.23,-50.38 845.47,-53.54"/>
</g>
<!-- probacionME -->
<g id="node54" class="node">
<title>probacionME</title>
<text text-anchor="start" x="1211" y="-107.8" font-family="Times New Roman,serif" font-weight="bold" font-size="14.00">Middle English</text>
<text text-anchor="start" x="1228.5" y="-93.8" font-family="Times New Roman,serif" font-size="14.00" fill="red">probacion</text>
</g>
<!-- probationOF&#45;&gt;probacionME -->
<g id="edge55" class="edge">
<title>probationOF&#45;&gt;probacionME</title>
<path fill="none" stroke="black" stroke-dasharray="1,5" d="M1287.61,-157.7C1283.01,-149.64 1277.44,-139.89 1272.35,-130.98"/>
<polygon fill="black" stroke="black" points="1275.27,-129.05 1267.27,-122.1 1269.2,-132.52 1275.27,-129.05"/>
</g>
<!-- probation -->
<g id="node55" class="node">
<title>probation</title>
<text text-anchor="start" x="1205" y="-28.8" font-family="Times New Roman,serif" font-weight="bold" font-size="14.00">Modern English</text>
<text text-anchor="start" x="1227" y="-14.8" font-family="Times New Roman,serif" font-size="14.00" fill="red">probation</text>
</g>
<!-- probacionME&#45;&gt;probation -->
<g id="edge56" class="edge">
<title>probacionME&#45;&gt;probation</title>
<path fill="none" stroke="black" d="M1256.83,-85.91C1256.46,-76.34 1255.99,-64.18 1255.56,-53.32"/>
<polygon fill="black" stroke="black" points="1259.05,-52.9 1255.16,-43.04 1252.06,-53.17 1259.05,-52.9"/>
</g>
<!-- probate -->
<g id="node57" class="node">
<title>probate</title>
<text text-anchor="start" x="1338" y="-28.8" font-family="Times New Roman,serif" font-weight="bold" font-size="14.00">Modern English</text>
<text text-anchor="start" x="1366" y="-14.8" font-family="Times New Roman,serif" font-size="14.00" fill="red">probate</text>
</g>
<!-- probatME&#45;&gt;probate -->
<g id="edge58" class="edge">
<title>probatME&#45;&gt;probate</title>
<path fill="none" stroke="black" d="M1389.06,-85.91C1388.81,-76.34 1388.49,-64.18 1388.21,-53.32"/>
<polygon fill="black" stroke="black" points="1391.7,-52.95 1387.94,-43.04 1384.7,-53.13 1391.7,-52.95"/>
</g>
<!-- probableME -->
<g id="node59" class="node">
<title>probableME</title>
<text text-anchor="start" x="1473" y="-107.8" font-family="Times New Roman,serif" font-weight="bold" font-size="14.00">Middle English</text>
<text text-anchor="start" x="1494.5" y="-93.8" font-family="Times New Roman,serif" font-size="14.00" fill="red">probable</text>
</g>
<!-- probableOF&#45;&gt;probableME -->
<g id="edge60" class="edge">
<title>probableOF&#45;&gt;probableME</title>
<path fill="none" stroke="black" d="M1518.75,-157.7C1518.86,-149.98 1518.99,-140.71 1519.11,-132.11"/>
<polygon fill="black" stroke="black" points="1522.61,-132.15 1519.26,-122.1 1515.61,-132.05 1522.61,-132.15"/>
</g>
<!-- probable -->
<g id="node60" class="node">
<title>probable</title>
<text text-anchor="start" x="1471" y="-28.8" font-family="Times New Roman,serif" font-weight="bold" font-size="14.00">Modern English</text>
<text text-anchor="start" x="1495.5" y="-14.8" font-family="Times New Roman,serif" font-size="14.00" fill="red">probable</text>
</g>
<!-- probableME&#45;&gt;probable -->
<g id="edge61" class="edge">
<title>probableME&#45;&gt;probable</title>
<path fill="none" stroke="black" d="M1519.72,-85.91C1519.85,-76.34 1520,-64.18 1520.15,-53.32"/>
<polygon fill="black" stroke="black" points="1523.65,-53.09 1520.28,-43.04 1516.65,-52.99 1523.65,-53.09"/>
</g>
<!-- probiteME -->
<g id="node62" class="node">
<title>probiteME</title>
<text text-anchor="start" x="1991" y="-107.8" font-family="Times New Roman,serif" font-weight="bold" font-size="14.00">Middle English</text>
<text text-anchor="start" x="2017.5" y="-93.8" font-family="Times New Roman,serif" font-size="14.00" fill="red">probite</text>
</g>
<!-- probiteOF&#45;&gt;probiteME -->
<g id="edge63" class="edge">
<title>probiteOF&#45;&gt;probiteME</title>
<path fill="none" stroke="black" stroke-dasharray="1,5" d="M1931.84,-391.78C1950.48,-341.2 2005.16,-192.78 2027.66,-131.71"/>
<polygon fill="black" stroke="black" points="2031.05,-132.62 2031.23,-122.03 2024.49,-130.2 2031.05,-132.62"/>
</g>
<!-- probity -->
<g id="node63" class="node">
<title>probity</title>
<text text-anchor="start" x="2003" y="-28.8" font-family="Times New Roman,serif" font-weight="bold" font-size="14.00">Modern English</text>
<text text-anchor="start" x="2032" y="-14.8" font-family="Times New Roman,serif" font-size="14.00" fill="red">probity</text>
</g>
<!-- probiteME&#45;&gt;probity -->
<g id="edge64" class="edge">
<title>probiteME&#45;&gt;probity</title>
<path fill="none" stroke="black" d="M2040.83,-85.91C2042.71,-76.24 2045.11,-63.93 2047.24,-52.98"/>
<polygon fill="black" stroke="black" points="2050.7,-53.53 2049.18,-43.04 2043.83,-52.19 2050.7,-53.53"/>
</g>
<!-- superb -->
<g id="node65" class="node">
<title>superb</title>
<text text-anchor="start" x="2136" y="-28.8" font-family="Times New Roman,serif" font-weight="bold" font-size="14.00">Modern English</text>
<text text-anchor="start" x="2166" y="-14.8" font-family="Times New Roman,serif" font-size="14.00" fill="red">superb</text>
</g>
<!-- superbusL&#45;&gt;superb -->
<g id="edge66" class="edge">
<title>superbusL&#45;&gt;superb</title>
<path fill="none" stroke="black" stroke-dasharray="1,5" d="M2145.13,-541.88C2161.12,-512.5 2185.5,-459.73 2185.5,-411 2185.5,-411 2185.5,-411 2185.5,-175 2185.5,-132.61 2185.5,-83.43 2185.5,-53.53"/>
<polygon fill="black" stroke="black" points="2189,-53.43 2185.5,-43.43 2182,-53.43 2189,-53.43"/>
</g>
</g>
</svg>
