<?xml version="1.0" encoding="UTF-8" standalone="no"?>
<!DOCTYPE svg PUBLIC "-//W3C//DTD SVG 1.1//EN"
 "http://www.w3.org/Graphics/SVG/1.1/DTD/svg11.dtd">
<!-- Generated by graphviz version 2.49.0 (20210828.1703)
 -->
<!-- Pages: 1 -->
<svg width="983pt" height="904pt"
 viewBox="0.00 0.00 983.00 904.00" xmlns="http://www.w3.org/2000/svg" xmlns:xlink="http://www.w3.org/1999/xlink">
<g id="graph0" class="graph" transform="scale(1 1) rotate(0) translate(4 900)">
<polygon fill="white" stroke="transparent" points="-4,4 -4,-900 979,-900 979,4 -4,4"/>
<!-- bheu -->
<g id="node1" class="node">
<title>bheu</title>
<g id="a_node1"><a xlink:href="bheu-grow0.svg" xlink:title="&lt;font point&#45;size=&quot;24&quot;&gt;&lt;b&gt;Indo&#45;European&lt;/b&gt;&lt;/font&gt;&lt;br/&gt;&lt;font point&#45;size=&quot;18&quot; color=&quot;red&quot;&gt;bheuə&#45;, bheu&#45;&lt;/font&gt;&lt;font point&#45;size=&quot;16&quot;&gt;to be, exist, grow&lt;/font&gt;">
<path fill="none" stroke="black" stroke-dasharray="5,2" d="M398.5,-896C398.5,-896 198.5,-896 198.5,-896 192.5,-896 186.5,-890 186.5,-884 186.5,-884 186.5,-858 186.5,-858 186.5,-852 192.5,-846 198.5,-846 198.5,-846 398.5,-846 398.5,-846 404.5,-846 410.5,-852 410.5,-858 410.5,-858 410.5,-884 410.5,-884 410.5,-890 404.5,-896 398.5,-896"/>
<text text-anchor="start" x="220" y="-873.8" font-family="Times New Roman,serif" font-weight="bold" font-size="24.00">Indo&#45;European</text>
<text text-anchor="start" x="194.5" y="-854.6" font-family="Times New Roman,serif" font-size="18.00" fill="red">bheuə&#45;, bheu&#45;</text>
<text text-anchor="start" x="294.5" y="-854.6" font-family="Times New Roman,serif" font-size="16.00">to be, exist, grow</text>
</a>
</g>
</g>
<!-- bhwi -->
<g id="node2" class="node">
<title>bhwi</title>
<text text-anchor="start" x="200.5" y="-788.3" font-family="Times New Roman,serif" font-size="14.00" fill="red">bhwiy(o)&#45;, bhwī&#45;</text>
</g>
<!-- bheu&#45;&gt;bhwi -->
<g id="edge1" class="edge">
<title>bheu&#45;&gt;bhwi</title>
<path fill="none" stroke="black" d="M282.68,-845.64C277.16,-837.13 270.94,-827.56 265.34,-818.94"/>
<polygon fill="black" stroke="black" points="268.16,-816.86 259.78,-810.38 262.29,-820.67 268.16,-816.86"/>
</g>
<!-- bhow -->
<g id="node3" class="node">
<title>bhow</title>
<text text-anchor="start" x="456" y="-788.3" font-family="Times New Roman,serif" font-size="14.00" fill="red">bhōw&#45;</text>
</g>
<!-- bheu&#45;&gt;bhow -->
<g id="edge2" class="edge">
<title>bheu&#45;&gt;bhow</title>
<path fill="none" stroke="black" d="M353.7,-845.85C381.12,-833.86 413.48,-819.7 437.81,-809.05"/>
<polygon fill="black" stroke="black" points="439.28,-812.23 447.04,-805.01 436.47,-805.82 439.28,-812.23"/>
</g>
<!-- bijuGm -->
<g id="node4" class="node">
<title>bijuGm</title>
<text text-anchor="start" x="107" y="-723.8" font-family="Times New Roman,serif" font-weight="bold" font-size="14.00">Germanic</text>
<text text-anchor="start" x="127" y="-709.8" font-family="Times New Roman,serif" font-size="14.00" fill="red">biju</text>
<text text-anchor="start" x="109.5" y="-697.4" font-family="Times New Roman,serif" font-size="12.00">I am, will be</text>
</g>
<!-- bhwi&#45;&gt;bijuGm -->
<g id="edge3" class="edge">
<title>bhwi&#45;&gt;bijuGm</title>
<path fill="none" stroke="black" d="M223.59,-773.94C210.66,-765.09 194.51,-754.03 179.7,-743.89"/>
<polygon fill="black" stroke="black" points="181.4,-740.81 171.17,-738.05 177.44,-746.59 181.4,-740.81"/>
</g>
<!-- fieriL -->
<g id="node5" class="node">
<title>fieriL</title>
<text text-anchor="start" x="232" y="-723.8" font-family="Times New Roman,serif" font-weight="bold" font-size="14.00">Latin</text>
<text text-anchor="start" x="237" y="-709.8" font-family="Times New Roman,serif" font-size="14.00" fill="red">fierī</text>
<text text-anchor="start" x="224" y="-697.4" font-family="Times New Roman,serif" font-size="12.00">to become</text>
</g>
<!-- bhwi&#45;&gt;fieriL -->
<g id="edge4" class="edge">
<title>bhwi&#45;&gt;fieriL</title>
<path fill="none" stroke="black" d="M248.5,-773.75C248.5,-766.2 248.5,-757.07 248.5,-748.28"/>
<polygon fill="black" stroke="black" points="252,-748.23 248.5,-738.23 245,-748.23 252,-748.23"/>
</g>
<!-- bowanGm -->
<g id="node15" class="node">
<title>bowanGm</title>
<text text-anchor="start" x="654" y="-717.8" font-family="Times New Roman,serif" font-weight="bold" font-size="14.00">Germanic</text>
<text text-anchor="start" x="665.5" y="-703.8" font-family="Times New Roman,serif" font-size="14.00" fill="red">bōwan</text>
</g>
<!-- bhow&#45;&gt;bowanGm -->
<g id="edge14" class="edge">
<title>bhow&#45;&gt;bowanGm</title>
<path fill="none" stroke="black" d="M501.52,-781.22C535.54,-768.91 594.57,-747.54 636.38,-732.42"/>
<polygon fill="black" stroke="black" points="637.6,-735.7 645.81,-729 635.22,-729.11 637.6,-735.7"/>
</g>
<!-- beonOE -->
<g id="node6" class="node">
<title>beonOE</title>
<text text-anchor="start" x="85" y="-397.8" font-family="Times New Roman,serif" font-weight="bold" font-size="14.00">Old English</text>
<text text-anchor="start" x="107.5" y="-383.8" font-family="Times New Roman,serif" font-size="14.00" fill="red">bēon</text>
<text text-anchor="start" x="109.5" y="-371.4" font-family="Times New Roman,serif" font-size="12.00">to be</text>
</g>
<!-- bijuGm&#45;&gt;beonOE -->
<g id="edge5" class="edge">
<title>bijuGm&#45;&gt;beonOE</title>
<path fill="none" stroke="black" d="M136.36,-689.96C133.58,-633.54 126.4,-488.26 123.15,-422.38"/>
<polygon fill="black" stroke="black" points="126.63,-421.96 122.64,-412.14 119.64,-422.3 126.63,-421.96"/>
</g>
<!-- fiatL -->
<g id="node13" class="node">
<title>fiatL</title>
<text text-anchor="start" x="239.5" y="-468.8" font-family="Times New Roman,serif" font-size="14.00" fill="red">fiat</text>
<text text-anchor="start" x="219" y="-456.4" font-family="Times New Roman,serif" font-size="12.00">let it be done</text>
</g>
<!-- fieriL&#45;&gt;fiatL -->
<g id="edge12" class="edge">
<title>fieriL&#45;&gt;fiatL</title>
<path fill="none" stroke="black" d="M248.5,-689.86C248.5,-644.27 248.5,-543.04 248.5,-494.29"/>
<polygon fill="black" stroke="black" points="252,-494.17 248.5,-484.17 245,-494.17 252,-494.17"/>
</g>
<!-- benME -->
<g id="node7" class="node">
<title>benME</title>
<text text-anchor="start" x="83" y="-307.8" font-family="Times New Roman,serif" font-weight="bold" font-size="14.00">Middle</text>
<text text-anchor="start" x="81.5" y="-293.8" font-family="Times New Roman,serif" font-weight="bold" font-size="14.00">English</text>
<text text-anchor="start" x="94" y="-279.8" font-family="Times New Roman,serif" font-size="14.00" fill="red">ben</text>
</g>
<!-- beonOE&#45;&gt;benME -->
<g id="edge6" class="edge">
<title>beonOE&#45;&gt;benME</title>
<path fill="none" stroke="black" d="M117.03,-363.62C115.2,-354.04 113.05,-342.76 111.05,-332.28"/>
<polygon fill="black" stroke="black" points="114.43,-331.32 109.11,-322.16 107.55,-332.64 114.43,-331.32"/>
</g>
<!-- be -->
<g id="node8" class="node">
<title>be</title>
<text text-anchor="start" x="8" y="-41.8" font-family="Times New Roman,serif" font-weight="bold" font-size="14.00">Modern</text>
<text text-anchor="start" x="9.5" y="-27.8" font-family="Times New Roman,serif" font-weight="bold" font-size="14.00">English</text>
<text text-anchor="start" x="25.5" y="-13.8" font-family="Times New Roman,serif" font-size="14.00" fill="red">be</text>
</g>
<!-- benME&#45;&gt;be -->
<g id="edge7" class="edge">
<title>benME&#45;&gt;be</title>
<path fill="none" stroke="black" d="M85.73,-271.92C77.33,-259.94 68.08,-244.88 62.5,-230 41.95,-175.16 35.45,-106.76 33.42,-66.39"/>
<polygon fill="black" stroke="black" points="36.91,-66.11 32.97,-56.27 29.91,-66.42 36.91,-66.11"/>
</g>
<!-- beerME -->
<g id="node9" class="node">
<title>beerME</title>
<text text-anchor="start" x="92" y="-202.8" font-family="Times New Roman,serif" font-size="14.00" fill="red">beer</text>
<text text-anchor="start" x="80" y="-190.4" font-family="Times New Roman,serif" font-size="12.00">one who is</text>
</g>
<!-- benME&#45;&gt;beerME -->
<g id="edge8" class="edge">
<title>benME&#45;&gt;beerME</title>
<path fill="none" stroke="black" d="M104.5,-271.54C104.5,-258.35 104.5,-242.03 104.5,-228.42"/>
<polygon fill="black" stroke="black" points="108,-228.19 104.5,-218.19 101,-228.19 108,-228.19"/>
</g>
<!-- forbearME -->
<g id="node11" class="node">
<title>forbearME</title>
<text text-anchor="start" x="120" y="-112.3" font-family="Times New Roman,serif" font-size="14.00" fill="red">forbear</text>
</g>
<!-- beerME&#45;&gt;forbearME -->
<g id="edge9" class="edge">
<title>beerME&#45;&gt;forbearME</title>
<path fill="none" stroke="black" d="M112.13,-181.61C116.99,-170.56 123.37,-156.03 128.84,-143.55"/>
<polygon fill="black" stroke="black" points="132.18,-144.65 133,-134.08 125.78,-141.83 132.18,-144.65"/>
</g>
<!-- fore -->
<g id="node10" class="node">
<title>fore</title>
<text text-anchor="start" x="168.5" y="-202.8" font-family="Times New Roman,serif" font-size="14.00" fill="red">fore&#45;</text>
<text text-anchor="start" x="167.5" y="-190.4" font-family="Times New Roman,serif" font-size="12.00">before</text>
</g>
<!-- fore&#45;&gt;forbearME -->
<g id="edge10" class="edge">
<title>fore&#45;&gt;forbearME</title>
<path fill="none" stroke="black" d="M173.59,-181.61C167.87,-170.45 160.34,-155.74 153.91,-143.18"/>
<polygon fill="black" stroke="black" points="156.92,-141.39 149.25,-134.08 150.69,-144.58 156.92,-141.39"/>
</g>
<!-- forebear -->
<g id="node12" class="node">
<title>forebear</title>
<text text-anchor="start" x="91" y="-34.8" font-family="Times New Roman,serif" font-weight="bold" font-size="14.00">Modern English</text>
<text text-anchor="start" x="93" y="-20.8" font-family="Times New Roman,serif" font-size="14.00" fill="red">forebear, forbear</text>
</g>
<!-- forbearME&#45;&gt;forebear -->
<g id="edge11" class="edge">
<title>forbearME&#45;&gt;forebear</title>
<path fill="none" stroke="black" d="M140.5,-97.8C140.5,-86.67 140.5,-71.94 140.5,-59.24"/>
<polygon fill="black" stroke="black" points="144,-59.18 140.5,-49.18 137,-59.18 144,-59.18"/>
</g>
<!-- fiat -->
<g id="node14" class="node">
<title>fiat</title>
<text text-anchor="start" x="224" y="-41.8" font-family="Times New Roman,serif" font-weight="bold" font-size="14.00">Modern</text>
<text text-anchor="start" x="225.5" y="-27.8" font-family="Times New Roman,serif" font-weight="bold" font-size="14.00">English</text>
<text text-anchor="start" x="239.5" y="-13.8" font-family="Times New Roman,serif" font-size="14.00" fill="red">fiat</text>
</g>
<!-- fiatL&#45;&gt;fiat -->
<g id="edge13" class="edge">
<title>fiatL&#45;&gt;fiat</title>
<path fill="none" stroke="black" stroke-dasharray="5,2" d="M248.5,-447.93C248.5,-417.71 248.5,-352.8 248.5,-298 248.5,-298 248.5,-298 248.5,-199 248.5,-153.09 248.5,-100.07 248.5,-66.31"/>
<polygon fill="black" stroke="black" points="252,-66.06 248.5,-56.06 245,-66.06 252,-66.06"/>
</g>
<!-- buaON -->
<g id="node16" class="node">
<title>buaON</title>
<text text-anchor="start" x="596.5" y="-632.8" font-family="Times New Roman,serif" font-weight="bold" font-size="14.00">Old Norse</text>
<text text-anchor="start" x="618" y="-618.8" font-family="Times New Roman,serif" font-size="14.00" fill="red">būa</text>
<text text-anchor="start" x="594" y="-606.4" font-family="Times New Roman,serif" font-size="12.00">to live, prepare</text>
</g>
<!-- bowanGm&#45;&gt;buaON -->
<g id="edge15" class="edge">
<title>bowanGm&#45;&gt;buaON</title>
<path fill="none" stroke="black" d="M673.7,-695.84C666.56,-684.49 656.98,-669.26 648.47,-655.74"/>
<polygon fill="black" stroke="black" points="651.36,-653.77 643.08,-647.17 645.44,-657.49 651.36,-653.77"/>
</g>
<!-- buanOG -->
<g id="node17" class="node">
<title>buanOG</title>
<text text-anchor="start" x="713.5" y="-639.8" font-family="Times New Roman,serif" font-weight="bold" font-size="14.00">Old High</text>
<text text-anchor="start" x="716" y="-625.8" font-family="Times New Roman,serif" font-weight="bold" font-size="14.00">German</text>
<text text-anchor="start" x="727.5" y="-611.8" font-family="Times New Roman,serif" font-size="14.00" fill="red">būan</text>
<text text-anchor="start" x="723" y="-599.4" font-family="Times New Roman,serif" font-size="12.00">to dwell</text>
</g>
<!-- bowanGm&#45;&gt;buanOG -->
<g id="edge16" class="edge">
<title>bowanGm&#45;&gt;buanOG</title>
<path fill="none" stroke="black" d="M695.49,-695.84C701.52,-686.42 709.26,-674.33 716.67,-662.77"/>
<polygon fill="black" stroke="black" points="719.79,-664.39 722.23,-654.08 713.89,-660.62 719.79,-664.39"/>
</g>
<!-- bothOD -->
<g id="node18" class="node">
<title>bothOD</title>
<text text-anchor="start" x="811.5" y="-632.8" font-family="Times New Roman,serif" font-weight="bold" font-size="14.00">Old Danish</text>
<text text-anchor="start" x="833.5" y="-618.8" font-family="Times New Roman,serif" font-size="14.00" fill="red">bōth</text>
<text text-anchor="start" x="816" y="-606.4" font-family="Times New Roman,serif" font-size="12.00">dwelling, stall</text>
</g>
<!-- bowanGm&#45;&gt;bothOD -->
<g id="edge17" class="edge">
<title>bowanGm&#45;&gt;bothOD</title>
<path fill="none" stroke="black" d="M715.74,-695.84C738.27,-683.46 769.2,-666.47 795.32,-652.12"/>
<polygon fill="black" stroke="black" points="797.25,-655.05 804.33,-647.17 793.88,-648.91 797.25,-655.05"/>
</g>
<!-- bondiON -->
<g id="node19" class="node">
<title>bondiON</title>
<text text-anchor="start" x="378.5" y="-540.8" font-family="Times New Roman,serif" font-size="14.00" fill="red">būandi, bōndi</text>
<text text-anchor="start" x="390" y="-528.4" font-family="Times New Roman,serif" font-size="12.00">householder</text>
</g>
<!-- buaON&#45;&gt;bondiON -->
<g id="edge18" class="edge">
<title>buaON&#45;&gt;bondiON</title>
<path fill="none" stroke="black" d="M585.8,-605.2C552.56,-592.13 506.24,-573.91 470.61,-559.89"/>
<polygon fill="black" stroke="black" points="471.45,-556.46 460.86,-556.06 468.88,-562.97 471.45,-556.46"/>
</g>
<!-- buinnON -->
<g id="node20" class="node">
<title>buinnON</title>
<text text-anchor="start" x="585" y="-462.3" font-family="Times New Roman,serif" font-size="14.00" fill="red">būinn</text>
</g>
<!-- buaON&#45;&gt;buinnON -->
<g id="edge19" class="edge">
<title>buaON&#45;&gt;buinnON</title>
<path fill="none" stroke="black" d="M624.31,-598.79C619.25,-570.81 610.77,-523.86 605.41,-494.2"/>
<polygon fill="black" stroke="black" points="608.82,-493.34 603.59,-484.13 601.93,-494.59 608.82,-493.34"/>
</g>
<!-- buaskON -->
<g id="node21" class="node">
<title>buaskON</title>
<text text-anchor="start" x="670.5" y="-540.8" font-family="Times New Roman,serif" font-size="14.00" fill="red">būask</text>
<text text-anchor="start" x="637.5" y="-528.4" font-family="Times New Roman,serif" font-size="12.00">to make oneself ready</text>
</g>
<!-- buaON&#45;&gt;buaskON -->
<g id="edge20" class="edge">
<title>buaON&#45;&gt;buaskON</title>
<path fill="none" stroke="black" d="M644.93,-598.88C652.52,-588.21 661.55,-575.5 669.34,-564.54"/>
<polygon fill="black" stroke="black" points="672.33,-566.38 675.27,-556.21 666.62,-562.33 672.33,-566.38"/>
</g>
<!-- buOG -->
<g id="node38" class="node">
<title>buOG</title>
<text text-anchor="start" x="790" y="-390.8" font-family="Times New Roman,serif" font-size="14.00" fill="red">bū</text>
<text text-anchor="start" x="780" y="-378.4" font-family="Times New Roman,serif" font-size="12.00">building</text>
</g>
<!-- buanOG&#45;&gt;buOG -->
<g id="edge37" class="edge">
<title>buanOG&#45;&gt;buOG</title>
<path fill="none" stroke="black" d="M748.82,-591.54C759.83,-545.73 780.48,-459.81 790.99,-416.08"/>
<polygon fill="black" stroke="black" points="794.44,-416.7 793.38,-406.16 787.64,-415.07 794.44,-416.7"/>
</g>
<!-- botheME -->
<g id="node44" class="node">
<title>botheME</title>
<text text-anchor="start" x="898" y="-307.8" font-family="Times New Roman,serif" font-weight="bold" font-size="14.00">Middle</text>
<text text-anchor="start" x="896.5" y="-293.8" font-family="Times New Roman,serif" font-weight="bold" font-size="14.00">English</text>
<text text-anchor="start" x="903.5" y="-279.8" font-family="Times New Roman,serif" font-size="14.00" fill="red">bothe</text>
</g>
<!-- bothOD&#45;&gt;botheME -->
<g id="edge43" class="edge">
<title>bothOD&#45;&gt;botheME</title>
<path fill="none" stroke="black" stroke-dasharray="5,2" d="M851.69,-598.96C864.37,-542.69 896.95,-398.08 911.85,-331.93"/>
<polygon fill="black" stroke="black" points="915.31,-332.54 914.09,-322.02 908.48,-331 915.31,-332.54"/>
</g>
<!-- bondaOE -->
<g id="node22" class="node">
<title>bondaOE</title>
<text text-anchor="start" x="311" y="-397.8" font-family="Times New Roman,serif" font-weight="bold" font-size="14.00">Old English</text>
<text text-anchor="start" x="329.5" y="-383.8" font-family="Times New Roman,serif" font-size="14.00" fill="red">bōnda</text>
<text text-anchor="start" x="319" y="-371.4" font-family="Times New Roman,serif" font-size="12.00">husbandman</text>
</g>
<!-- bondiON&#45;&gt;bondaOE -->
<g id="edge21" class="edge">
<title>bondiON&#45;&gt;bondaOE</title>
<path fill="none" stroke="black" stroke-dasharray="5,2" d="M409.33,-519.73C397.98,-495.72 377.2,-451.79 362.88,-421.53"/>
<polygon fill="black" stroke="black" points="365.92,-419.77 358.48,-412.22 359.6,-422.76 365.92,-419.77"/>
</g>
<!-- husbondiON -->
<g id="node27" class="node">
<title>husbondiON</title>
<text text-anchor="start" x="430.5" y="-462.3" font-family="Times New Roman,serif" font-size="14.00" fill="red">hūsbōndi</text>
</g>
<!-- bondiON&#45;&gt;husbondiON -->
<g id="edge25" class="edge">
<title>bondiON&#45;&gt;husbondiON</title>
<path fill="none" stroke="black" d="M427.14,-519.7C431.63,-511.64 437.06,-501.89 442.02,-492.98"/>
<polygon fill="black" stroke="black" points="445.16,-494.54 446.97,-484.1 439.05,-491.14 445.16,-494.54"/>
</g>
<!-- bounME -->
<g id="node33" class="node">
<title>bounME</title>
<text text-anchor="start" x="554" y="-306.8" font-family="Times New Roman,serif" font-weight="bold" font-size="14.00">Middle English</text>
<text text-anchor="start" x="586" y="-292.8" font-family="Times New Roman,serif" font-size="14.00" fill="red">boun</text>
<text text-anchor="start" x="587.5" y="-280.4" font-family="Times New Roman,serif" font-size="12.00">ready</text>
</g>
<!-- buinnON&#45;&gt;bounME -->
<g id="edge32" class="edge">
<title>buinnON&#45;&gt;bounME</title>
<path fill="none" stroke="black" stroke-dasharray="5,2" d="M600.5,-447.76C600.5,-420.42 600.5,-366.63 600.5,-331.51"/>
<polygon fill="black" stroke="black" points="604,-331.26 600.5,-321.26 597,-331.26 604,-331.26"/>
</g>
<!-- buskE -->
<g id="node35" class="node">
<title>buskE</title>
<text text-anchor="start" x="636.5" y="-209.8" font-family="Times New Roman,serif" font-weight="bold" font-size="14.00">Modern? English</text>
<text text-anchor="start" x="675.5" y="-195.8" font-family="Times New Roman,serif" font-size="14.00" fill="red">busk</text>
<text text-anchor="start" x="648.5" y="-183.4" font-family="Times New Roman,serif" font-size="12.00">to prepare oneself</text>
</g>
<!-- buaskON&#45;&gt;buskE -->
<g id="edge34" class="edge">
<title>buaskON&#45;&gt;buskE</title>
<path fill="none" stroke="black" stroke-dasharray="5,2" d="M687.6,-519.88C687.92,-466.83 688.88,-304.6 689.3,-234.19"/>
<polygon fill="black" stroke="black" points="692.8,-234.12 689.36,-224.1 685.8,-234.08 692.8,-234.12"/>
</g>
<!-- bondeME -->
<g id="node23" class="node">
<title>bondeME</title>
<text text-anchor="start" x="322" y="-313.8" font-family="Times New Roman,serif" font-weight="bold" font-size="14.00">Middle</text>
<text text-anchor="start" x="320.5" y="-299.8" font-family="Times New Roman,serif" font-weight="bold" font-size="14.00">English</text>
<text text-anchor="start" x="325.5" y="-285.8" font-family="Times New Roman,serif" font-size="14.00" fill="red">bonde</text>
<text text-anchor="start" x="335" y="-273.4" font-family="Times New Roman,serif" font-size="12.00">serf</text>
</g>
<!-- bondaOE&#45;&gt;bondeME -->
<g id="edge22" class="edge">
<title>bondaOE&#45;&gt;bondeME</title>
<path fill="none" stroke="black" d="M346.45,-363.62C346.1,-355.84 345.7,-346.95 345.31,-338.27"/>
<polygon fill="black" stroke="black" points="348.81,-338.1 344.86,-328.27 341.81,-338.41 348.81,-338.1"/>
</g>
<!-- bondageME -->
<g id="node24" class="node">
<title>bondageME</title>
<text text-anchor="start" x="308" y="-112.3" font-family="Times New Roman,serif" font-size="14.00" fill="red">bondage</text>
</g>
<!-- bondeME&#45;&gt;bondageME -->
<g id="edge23" class="edge">
<title>bondeME&#45;&gt;bondageME</title>
<path fill="none" stroke="black" d="M341.63,-265.64C339.55,-231.76 336.21,-177.43 334.2,-144.68"/>
<polygon fill="black" stroke="black" points="337.68,-144.23 333.57,-134.47 330.69,-144.66 337.68,-144.23"/>
</g>
<!-- bondage -->
<g id="node25" class="node">
<title>bondage</title>
<text text-anchor="start" x="307" y="-41.8" font-family="Times New Roman,serif" font-weight="bold" font-size="14.00">Modern</text>
<text text-anchor="start" x="308.5" y="-27.8" font-family="Times New Roman,serif" font-weight="bold" font-size="14.00">English</text>
<text text-anchor="start" x="307" y="-13.8" font-family="Times New Roman,serif" font-size="14.00" fill="red">bondage</text>
</g>
<!-- bondageME&#45;&gt;bondage -->
<g id="edge24" class="edge">
<title>bondageME&#45;&gt;bondage</title>
<path fill="none" stroke="black" d="M332.29,-97.8C332.18,-88.66 332.04,-77.09 331.91,-66.22"/>
<polygon fill="black" stroke="black" points="335.41,-66.06 331.79,-56.1 328.41,-66.14 335.41,-66.06"/>
</g>
<!-- husON -->
<g id="node26" class="node">
<title>husON</title>
<text text-anchor="start" x="499.5" y="-540.8" font-family="Times New Roman,serif" font-size="14.00" fill="red">hūs</text>
<text text-anchor="start" x="496" y="-528.4" font-family="Times New Roman,serif" font-size="12.00">house</text>
</g>
<!-- husON&#45;&gt;husbondiON -->
<g id="edge26" class="edge">
<title>husON&#45;&gt;husbondiON</title>
<path fill="none" stroke="black" d="M496.4,-519.7C490.11,-511.39 482.45,-501.28 475.54,-492.14"/>
<polygon fill="black" stroke="black" points="478.28,-489.96 469.45,-484.1 472.7,-494.19 478.28,-489.96"/>
</g>
<!-- husbondaOE -->
<g id="node28" class="node">
<title>husbondaOE</title>
<text text-anchor="start" x="420" y="-391.8" font-family="Times New Roman,serif" font-weight="bold" font-size="14.00">Old English</text>
<text text-anchor="start" x="429" y="-377.8" font-family="Times New Roman,serif" font-size="14.00" fill="red">hūsbōnda</text>
</g>
<!-- husbondiON&#45;&gt;husbondaOE -->
<g id="edge27" class="edge">
<title>husbondiON&#45;&gt;husbondaOE</title>
<path fill="none" stroke="black" stroke-dasharray="5,2" d="M456.5,-447.75C456.5,-438.52 456.5,-426.93 456.5,-416.49"/>
<polygon fill="black" stroke="black" points="460,-416.18 456.5,-406.18 453,-416.18 460,-416.18"/>
</g>
<!-- husebandME -->
<g id="node29" class="node">
<title>husebandME</title>
<text text-anchor="start" x="410" y="-300.8" font-family="Times New Roman,serif" font-weight="bold" font-size="14.00">Middle English</text>
<text text-anchor="start" x="429.5" y="-286.8" font-family="Times New Roman,serif" font-size="14.00" fill="red">huseband</text>
</g>
<!-- husbondaOE&#45;&gt;husebandME -->
<g id="edge28" class="edge">
<title>husbondaOE&#45;&gt;husebandME</title>
<path fill="none" stroke="black" d="M456.5,-369.84C456.5,-357.28 456.5,-339.98 456.5,-325.5"/>
<polygon fill="black" stroke="black" points="460,-325.11 456.5,-315.11 453,-325.11 460,-325.11"/>
</g>
<!-- husband -->
<g id="node30" class="node">
<title>husband</title>
<text text-anchor="start" x="390" y="-41.8" font-family="Times New Roman,serif" font-weight="bold" font-size="14.00">Modern</text>
<text text-anchor="start" x="391.5" y="-27.8" font-family="Times New Roman,serif" font-weight="bold" font-size="14.00">English</text>
<text text-anchor="start" x="390.5" y="-13.8" font-family="Times New Roman,serif" font-size="14.00" fill="red">husband</text>
</g>
<!-- husebandME&#45;&gt;husband -->
<g id="edge29" class="edge">
<title>husebandME&#45;&gt;husband</title>
<path fill="none" stroke="black" d="M453.74,-278.68C446.89,-235.59 428.97,-122.96 419.91,-66.01"/>
<polygon fill="black" stroke="black" points="423.35,-65.38 418.33,-56.05 416.44,-66.48 423.35,-65.38"/>
</g>
<!-- husbondriME -->
<g id="node31" class="node">
<title>husbondriME</title>
<text text-anchor="start" x="463" y="-112.3" font-family="Times New Roman,serif" font-size="14.00" fill="red">husbondri</text>
</g>
<!-- husebandME&#45;&gt;husbondriME -->
<g id="edge30" class="edge">
<title>husebandME&#45;&gt;husbondriME</title>
<path fill="none" stroke="black" d="M459.86,-278.84C465.94,-247.7 478.86,-181.66 486.17,-144.28"/>
<polygon fill="black" stroke="black" points="489.67,-144.6 488.15,-134.11 482.8,-143.25 489.67,-144.6"/>
</g>
<!-- husbandry -->
<g id="node32" class="node">
<title>husbandry</title>
<text text-anchor="start" x="478" y="-41.8" font-family="Times New Roman,serif" font-weight="bold" font-size="14.00">Modern</text>
<text text-anchor="start" x="479.5" y="-27.8" font-family="Times New Roman,serif" font-weight="bold" font-size="14.00">English</text>
<text text-anchor="start" x="473" y="-13.8" font-family="Times New Roman,serif" font-size="14.00" fill="red">husbandry</text>
</g>
<!-- husbondriME&#45;&gt;husbandry -->
<g id="edge31" class="edge">
<title>husbondriME&#45;&gt;husbandry</title>
<path fill="none" stroke="black" d="M493.78,-97.8C494.99,-88.66 496.52,-77.09 497.97,-66.22"/>
<polygon fill="black" stroke="black" points="501.46,-66.47 499.31,-56.1 494.52,-65.55 501.46,-66.47"/>
</g>
<!-- bound -->
<g id="node34" class="node">
<title>bound</title>
<text text-anchor="start" x="576" y="-47.8" font-family="Times New Roman,serif" font-weight="bold" font-size="14.00">Modern</text>
<text text-anchor="start" x="577.5" y="-33.8" font-family="Times New Roman,serif" font-weight="bold" font-size="14.00">English</text>
<text text-anchor="start" x="582" y="-19.8" font-family="Times New Roman,serif" font-size="14.00" fill="red">bound</text>
<text text-anchor="start" x="566" y="-7.4" font-family="Times New Roman,serif" font-size="12.00">headed toward</text>
</g>
<!-- bounME&#45;&gt;bound -->
<g id="edge33" class="edge">
<title>bounME&#45;&gt;bound</title>
<path fill="none" stroke="black" d="M600.5,-272.57C600.5,-227.52 600.5,-128.34 600.5,-72.41"/>
<polygon fill="black" stroke="black" points="604,-72.16 600.5,-62.16 597,-72.16 604,-72.16"/>
</g>
<!-- buskleE -->
<g id="node36" class="node">
<title>buskleE</title>
<text text-anchor="start" x="678" y="-112.3" font-family="Times New Roman,serif" font-size="14.00" fill="red">buskle</text>
</g>
<!-- buskE&#45;&gt;buskleE -->
<g id="edge35" class="edge">
<title>buskE&#45;&gt;buskleE</title>
<path fill="none" stroke="black" d="M691.49,-175.72C692.33,-165.88 693.31,-154.36 694.18,-144.13"/>
<polygon fill="black" stroke="black" points="697.68,-144.34 695.04,-134.08 690.7,-143.74 697.68,-144.34"/>
</g>
<!-- bustle -->
<g id="node37" class="node">
<title>bustle</title>
<text text-anchor="start" x="685.5" y="-33.8" font-family="Times New Roman,serif" font-size="14.00" fill="red">bustle</text>
<text text-anchor="start" x="669.5" y="-21.4" font-family="Times New Roman,serif" font-size="12.00">to move busily</text>
</g>
<!-- buskleE&#45;&gt;bustle -->
<g id="edge36" class="edge">
<title>buskleE&#45;&gt;bustle</title>
<path fill="none" stroke="black" d="M697.74,-97.8C698.55,-86.67 699.61,-71.94 700.53,-59.24"/>
<polygon fill="black" stroke="black" points="704.03,-59.4 701.26,-49.18 697.05,-58.9 704.03,-59.4"/>
</g>
<!-- buMG -->
<g id="node39" class="node">
<title>buMG</title>
<text text-anchor="start" x="763.5" y="-307.8" font-family="Times New Roman,serif" font-weight="bold" font-size="14.00">Middle High</text>
<text text-anchor="start" x="776" y="-293.8" font-family="Times New Roman,serif" font-weight="bold" font-size="14.00">German</text>
<text text-anchor="start" x="794" y="-279.8" font-family="Times New Roman,serif" font-size="14.00" fill="red">bū</text>
</g>
<!-- buOG&#45;&gt;buMG -->
<g id="edge38" class="edge">
<title>buOG&#45;&gt;buMG</title>
<path fill="none" stroke="black" d="M798.27,-369.84C798.75,-359.26 799.37,-345.32 799.95,-332.54"/>
<polygon fill="black" stroke="black" points="803.46,-332.32 800.41,-322.17 796.47,-332.01 803.46,-332.32"/>
</g>
<!-- bauG -->
<g id="node40" class="node">
<title>bauG</title>
<text text-anchor="start" x="780" y="-215.8" font-family="Times New Roman,serif" font-weight="bold" font-size="14.00">German</text>
<text text-anchor="start" x="794.5" y="-201.8" font-family="Times New Roman,serif" font-size="14.00" fill="red">Bau</text>
<text text-anchor="start" x="776.5" y="-189.4" font-family="Times New Roman,serif" font-size="12.00">construction,</text>
<text text-anchor="start" x="779" y="-177.4" font-family="Times New Roman,serif" font-size="12.00">architecture</text>
</g>
<!-- buMG&#45;&gt;bauG -->
<g id="edge39" class="edge">
<title>buMG&#45;&gt;bauG</title>
<path fill="none" stroke="black" d="M802.53,-271.54C802.93,-262.05 803.4,-250.95 803.84,-240.4"/>
<polygon fill="black" stroke="black" points="807.35,-240.25 804.27,-230.11 800.36,-239.96 807.35,-240.25"/>
</g>
<!-- bauhausG -->
<g id="node42" class="node">
<title>bauhausG</title>
<text text-anchor="start" x="803.5" y="-118.8" font-family="Times New Roman,serif" font-size="14.00" fill="red">Bauhaus</text>
<text text-anchor="start" x="777" y="-106.4" font-family="Times New Roman,serif" font-size="12.00">an architectural school</text>
</g>
<!-- bauG&#45;&gt;bauhausG -->
<g id="edge40" class="edge">
<title>bauG&#45;&gt;bauhausG</title>
<path fill="none" stroke="black" d="M813.32,-169.86C815.58,-161.44 818.03,-152.3 820.25,-144.02"/>
<polygon fill="black" stroke="black" points="823.7,-144.68 822.91,-134.11 816.94,-142.86 823.7,-144.68"/>
</g>
<!-- hausG -->
<g id="node41" class="node">
<title>hausG</title>
<text text-anchor="start" x="873" y="-202.8" font-family="Times New Roman,serif" font-size="14.00" fill="red">Haus</text>
<text text-anchor="start" x="874" y="-190.4" font-family="Times New Roman,serif" font-size="12.00">house</text>
</g>
<!-- hausG&#45;&gt;bauhausG -->
<g id="edge41" class="edge">
<title>hausG&#45;&gt;bauhausG</title>
<path fill="none" stroke="black" d="M874.78,-181.61C866.45,-170.23 855.42,-155.16 846.12,-142.44"/>
<polygon fill="black" stroke="black" points="848.73,-140.09 840,-134.08 843.08,-144.22 848.73,-140.09"/>
</g>
<!-- bauhaus -->
<g id="node43" class="node">
<title>bauhaus</title>
<text text-anchor="start" x="778" y="-34.8" font-family="Times New Roman,serif" font-weight="bold" font-size="14.00">Modern English</text>
<text text-anchor="start" x="803.5" y="-20.8" font-family="Times New Roman,serif" font-size="14.00" fill="red">Bauhaus</text>
</g>
<!-- bauhausG&#45;&gt;bauhaus -->
<g id="edge42" class="edge">
<title>bauhausG&#45;&gt;bauhaus</title>
<path fill="none" stroke="black" stroke-dasharray="5,2" d="M827.5,-97.8C827.5,-86.67 827.5,-71.94 827.5,-59.24"/>
<polygon fill="black" stroke="black" points="831,-59.18 827.5,-49.18 824,-59.18 831,-59.18"/>
</g>
<!-- booth -->
<g id="node45" class="node">
<title>booth</title>
<text text-anchor="start" x="918" y="-41.8" font-family="Times New Roman,serif" font-weight="bold" font-size="14.00">Modern</text>
<text text-anchor="start" x="919.5" y="-27.8" font-family="Times New Roman,serif" font-weight="bold" font-size="14.00">English</text>
<text text-anchor="start" x="925.5" y="-13.8" font-family="Times New Roman,serif" font-size="14.00" fill="red">booth</text>
</g>
<!-- botheME&#45;&gt;booth -->
<g id="edge44" class="edge">
<title>botheME&#45;&gt;booth</title>
<path fill="none" stroke="black" d="M921.62,-271.64C925.73,-224.49 934.78,-120.64 939.5,-66.45"/>
<polygon fill="black" stroke="black" points="943,-66.57 940.38,-56.3 936.03,-65.96 943,-66.57"/>
</g>
</g>
</svg>
