<?xml version="1.0" encoding="UTF-8" standalone="no"?>
<!DOCTYPE svg PUBLIC "-//W3C//DTD SVG 1.1//EN"
 "http://www.w3.org/Graphics/SVG/1.1/DTD/svg11.dtd">
<!-- Generated by graphviz version 2.49.0 (20210828.1703)
 -->
<!-- Pages: 1 -->
<svg width="668pt" height="473pt"
 viewBox="0.00 0.00 668.00 473.00" xmlns="http://www.w3.org/2000/svg" xmlns:xlink="http://www.w3.org/1999/xlink">
<g id="graph0" class="graph" transform="scale(1 1) rotate(0) translate(4 469)">
<polygon fill="white" stroke="transparent" points="-4,4 -4,-469 664,-469 664,4 -4,4"/>
<!-- bheu -->
<g id="node1" class="node">
<title>bheu</title>
<g id="a_node1"><a xlink:title="Indo&#45;European &quot;bheuə&#45;, bheu&#45; &quot; to be, exist, grow">
<polygon fill="none" stroke="black" points="466,-461 200,-461 200,-357 466,-357 466,-461"/>
<polygon fill="none" stroke="black" points="470,-465 196,-465 196,-353 470,-353 470,-465"/>
<text text-anchor="start" x="254.5" y="-416.8" font-family="Times New Roman,serif" font-weight="bold" font-size="24.00">Indo&#45;European</text>
<text text-anchor="start" x="226" y="-388.6" font-family="Times New Roman,serif" font-size="18.00" fill="red">bheuə&#45;, bheu&#45;</text>
<text text-anchor="start" x="332" y="-389.2" font-family="Times New Roman,serif" font-size="16.00">to be, exist, grow</text>
</a>
</g>
</g>
<!-- link1 -->
<g id="node2" class="node">
<title>link1</title>
<g id="a_node2"><a xlink:href="bheu-grow1.svg" xlink:title="&lt;TABLE&gt;">
<path fill="none" stroke="black" stroke-dasharray="5,2" d="M132,-266.5C132,-266.5 12,-266.5 12,-266.5 6,-266.5 0,-260.5 0,-254.5 0,-254.5 0,-25.5 0,-25.5 0,-19.5 6,-13.5 12,-13.5 12,-13.5 132,-13.5 132,-13.5 138,-13.5 144,-19.5 144,-25.5 144,-25.5 144,-254.5 144,-254.5 144,-260.5 138,-266.5 132,-266.5"/>
<text text-anchor="start" x="65" y="-243.8" font-family="Times New Roman,serif" font-size="14.00" fill="red">be</text>
<text text-anchor="start" x="24.5" y="-216.8" font-family="Times New Roman,serif" font-size="14.00" fill="red">forbear, forebear</text>
<text text-anchor="start" x="63" y="-189.8" font-family="Times New Roman,serif" font-size="14.00" fill="red">fiat</text>
<text text-anchor="start" x="47.5" y="-162.8" font-family="Times New Roman,serif" font-size="14.00" fill="red">bondage</text>
<text text-anchor="start" x="15" y="-135.8" font-family="Times New Roman,serif" font-size="14.00" fill="red">husband, husbandry</text>
<text text-anchor="start" x="55" y="-108.8" font-family="Times New Roman,serif" font-size="14.00" fill="red">bustle</text>
<text text-anchor="start" x="55" y="-81.8" font-family="Times New Roman,serif" font-size="14.00" fill="red">booth</text>
<text text-anchor="start" x="47.5" y="-54.8" font-family="Times New Roman,serif" font-size="14.00" fill="red">Bauhous</text>
<text text-anchor="start" x="39" y="-27.8" font-family="Times New Roman,serif" font-size="14.00" fill="red">bound (for)</text>
</a>
</g>
</g>
<!-- bheu&#45;&gt;link1 -->
<g id="edge1" class="edge">
<title>bheu&#45;&gt;link1</title>
<path fill="none" stroke="black" d="M239.97,-352.99C210,-332.49 178.08,-307.46 153,-280 151.43,-278.28 149.88,-276.53 148.34,-274.75"/>
<polygon fill="black" stroke="black" points="150.79,-272.21 141.72,-266.74 145.4,-276.67 150.79,-272.21"/>
</g>
<!-- link2 -->
<g id="node3" class="node">
<title>link2</title>
<g id="a_node3"><a xlink:href="bheu-grow2.svg" xlink:title="&lt;TABLE&gt;">
<path fill="none" stroke="black" stroke-dasharray="5,2" d="M335.5,-280C335.5,-280 174.5,-280 174.5,-280 168.5,-280 162.5,-274 162.5,-268 162.5,-268 162.5,-12 162.5,-12 162.5,-6 168.5,0 174.5,0 174.5,0 335.5,0 335.5,0 341.5,0 347.5,-6 347.5,-12 347.5,-12 347.5,-268 347.5,-268 347.5,-274 341.5,-280 335.5,-280"/>
<text text-anchor="start" x="206" y="-257.8" font-family="Times New Roman,serif" font-size="14.00" fill="red">boodle, caboodle</text>
<text text-anchor="start" x="192" y="-230.8" font-family="Times New Roman,serif" font-size="14.00" fill="red">phyton, phyto&#45;, &#45;phyte</text>
<text text-anchor="start" x="229.5" y="-203.8" font-family="Times New Roman,serif" font-size="14.00" fill="red">neophyte</text>
<text text-anchor="start" x="244.5" y="-176.8" font-family="Times New Roman,serif" font-size="14.00" fill="red">imp</text>
<text text-anchor="start" x="223" y="-149.8" font-family="Times New Roman,serif" font-size="14.00" fill="red">diphyodont</text>
<text text-anchor="start" x="192.5" y="-122.8" font-family="Times New Roman,serif" font-size="14.00" fill="red">physio&#45;, physiognomy</text>
<text text-anchor="start" x="234" y="-95.8" font-family="Times New Roman,serif" font-size="14.00" fill="red">physics</text>
<text text-anchor="start" x="178" y="-68.8" font-family="Times New Roman,serif" font-size="14.00" fill="red">physic, physician, physique</text>
<text text-anchor="start" x="235" y="-41.8" font-family="Times New Roman,serif" font-size="14.00" fill="red">&#45;physis</text>
<text text-anchor="start" x="239" y="-14.8" font-family="Times New Roman,serif" font-size="14.00" fill="red">future</text>
</a>
</g>
</g>
<!-- bheu&#45;&gt;link2 -->
<g id="edge2" class="edge">
<title>bheu&#45;&gt;link2</title>
<path fill="none" stroke="black" d="M316.84,-352.68C311.39,-334.03 305.03,-312.25 298.49,-289.88"/>
<polygon fill="black" stroke="black" points="301.85,-288.88 295.68,-280.26 295.13,-290.84 301.85,-288.88"/>
</g>
<!-- link3 -->
<g id="node4" class="node">
<title>link3</title>
<g id="a_node4"><a xlink:href="bheu-grow3.svg" xlink:title="&lt;TABLE&gt;">
<path fill="none" stroke="black" stroke-dasharray="5,2" d="M446,-266.5C446,-266.5 378,-266.5 378,-266.5 372,-266.5 366,-260.5 366,-254.5 366,-254.5 366,-25.5 366,-25.5 366,-19.5 372,-13.5 378,-13.5 378,-13.5 446,-13.5 446,-13.5 452,-13.5 458,-19.5 458,-25.5 458,-25.5 458,-254.5 458,-254.5 458,-260.5 452,-266.5 446,-266.5"/>
<text text-anchor="start" x="395" y="-243.8" font-family="Times New Roman,serif" font-size="14.00" fill="red">bylaw</text>
<text text-anchor="start" x="391" y="-216.8" font-family="Times New Roman,serif" font-size="14.00" fill="red">phylum</text>
<text text-anchor="start" x="387.5" y="-189.8" font-family="Times New Roman,serif" font-size="14.00" fill="red">neighbor</text>
<text text-anchor="start" x="394" y="-162.8" font-family="Times New Roman,serif" font-size="14.00" fill="red">bower</text>
<text text-anchor="start" x="383" y="-135.8" font-family="Times New Roman,serif" font-size="14.00" fill="red">phylogeny</text>
<text text-anchor="start" x="381" y="-108.8" font-family="Times New Roman,serif" font-size="14.00" fill="red">boor, Boer</text>
<text text-anchor="start" x="387.5" y="-81.8" font-family="Times New Roman,serif" font-size="14.00" fill="red">bumpkin</text>
<text text-anchor="start" x="396.5" y="-54.8" font-family="Times New Roman,serif" font-size="14.00" fill="red">beam</text>
<text text-anchor="start" x="395" y="-27.8" font-family="Times New Roman,serif" font-size="14.00" fill="red">boom</text>
</a>
</g>
</g>
<!-- bheu&#45;&gt;link3 -->
<g id="edge3" class="edge">
<title>bheu&#45;&gt;link3</title>
<path fill="none" stroke="black" d="M349.37,-352.68C355.97,-330.37 363.9,-303.56 371.87,-276.63"/>
<polygon fill="black" stroke="black" points="375.32,-277.3 374.8,-266.72 368.61,-275.31 375.32,-277.3"/>
</g>
<!-- link4 -->
<g id="node5" class="node">
<title>link4</title>
<g id="a_node5"><a xlink:href="bheu-grow4.svg" xlink:title="&lt;TABLE&gt;">
<path fill="none" stroke="black" stroke-dasharray="5,2" d="M648,-266.5C648,-266.5 488,-266.5 488,-266.5 482,-266.5 476,-260.5 476,-254.5 476,-254.5 476,-25.5 476,-25.5 476,-19.5 482,-13.5 488,-13.5 488,-13.5 648,-13.5 648,-13.5 654,-13.5 660,-19.5 660,-25.5 660,-25.5 660,-254.5 660,-254.5 660,-260.5 654,-266.5 648,-266.5"/>
<text text-anchor="start" x="506.5" y="-243.8" font-family="Times New Roman,serif" font-size="14.00" fill="red">dubious, (in)dubitable</text>
<text text-anchor="start" x="514.5" y="-216.8" font-family="Times New Roman,serif" font-size="14.00" fill="red">doubt, redoubtable</text>
<text text-anchor="start" x="491" y="-189.8" font-family="Times New Roman,serif" font-size="14.00" fill="red">reprobate, reproof, reprove</text>
<text text-anchor="start" x="531.5" y="-162.8" font-family="Times New Roman,serif" font-size="14.00" fill="red">probe, proof</text>
<text text-anchor="start" x="515.5" y="-135.8" font-family="Times New Roman,serif" font-size="14.00" fill="red">probate, probation</text>
<text text-anchor="start" x="543" y="-108.8" font-family="Times New Roman,serif" font-size="14.00" fill="red">probable</text>
<text text-anchor="start" x="493" y="-81.8" font-family="Times New Roman,serif" font-size="14.00" fill="red">prove, approve, approbate</text>
<text text-anchor="start" x="547.5" y="-54.8" font-family="Times New Roman,serif" font-size="14.00" fill="red">probity</text>
<text text-anchor="start" x="548.5" y="-27.8" font-family="Times New Roman,serif" font-size="14.00" fill="red">superb</text>
</a>
</g>
</g>
<!-- bheu&#45;&gt;link4 -->
<g id="edge4" class="edge">
<title>bheu&#45;&gt;link4</title>
<path fill="none" stroke="black" d="M395.33,-352.85C418.74,-331.04 444.98,-305.19 467,-280 468.52,-278.27 470.03,-276.51 471.55,-274.74"/>
<polygon fill="black" stroke="black" points="474.42,-276.75 478.18,-266.84 469.06,-272.25 474.42,-276.75"/>
</g>
</g>
</svg>
