<?xml version="1.0" encoding="UTF-8" standalone="no"?>
<!DOCTYPE svg PUBLIC "-//W3C//DTD SVG 1.1//EN"
 "http://www.w3.org/Graphics/SVG/1.1/DTD/svg11.dtd">
<!-- Generated by graphviz version 2.44.1 (20200629.0846)
 -->
<!-- Pages: 1 -->
<svg width="1413pt" height="842pt"
 viewBox="0.00 0.00 1412.50 842.00" xmlns="http://www.w3.org/2000/svg" xmlns:xlink="http://www.w3.org/1999/xlink">
<g id="graph0" class="graph" transform="scale(1 1) rotate(0) translate(4 838)">
<polygon fill="white" stroke="transparent" points="-4,4 -4,-838 1408.5,-838 1408.5,4 -4,4"/>
<!-- bheu -->
<g id="node1" class="node">
<title>bheu</title>
<text text-anchor="start" x="389" y="-819.8" font-family="Times New Roman,serif" font-weight="bold" font-size="14.00">Indo&#45;European</text>
<text text-anchor="start" x="342.5" y="-805.8" font-family="Times New Roman,serif" font-size="14.00" fill="red">bheuə&#45;, bheu&#45;</text>
<text text-anchor="start" x="419.5" y="-805.8" font-family="Times New Roman,serif" font-size="14.00"> &#160;&#160;to be, exist, grow</text>
</g>
<!-- bhu -->
<g id="node2" class="node">
<title>bhu</title>
<text text-anchor="start" x="422.5" y="-740.3" font-family="Times New Roman,serif" font-size="14.00" fill="red">bhu&#45;</text>
</g>
<!-- bheu&#45;&gt;bhu -->
<g id="edge1" class="edge">
<title>bheu&#45;&gt;bhu</title>
<path fill="none" stroke="black" d="M435.5,-797.7C435.5,-789.98 435.5,-780.71 435.5,-772.11"/>
<polygon fill="black" stroke="black" points="439,-772.1 435.5,-762.1 432,-772.1 439,-772.1"/>
</g>
<!-- buthlamGm -->
<g id="node3" class="node">
<title>buthlamGm</title>
<text text-anchor="start" x="89" y="-597.8" font-family="Times New Roman,serif" font-weight="bold" font-size="14.00">Germanic</text>
<text text-anchor="start" x="71" y="-583.8" font-family="Times New Roman,serif" font-size="14.00" fill="red">buthlam, bōthlam</text>
</g>
<!-- bhu&#45;&gt;buthlamGm -->
<g id="edge2" class="edge">
<title>bhu&#45;&gt;buthlamGm</title>
<path fill="none" stroke="black" d="M408.28,-730.25C354.06,-704.86 232.04,-647.71 165.28,-616.44"/>
<polygon fill="black" stroke="black" points="166.38,-613.09 155.84,-612.02 163.41,-619.43 166.38,-613.09"/>
</g>
<!-- phueinG -->
<g id="node4" class="node">
<title>phueinG</title>
<text text-anchor="start" x="316.5" y="-603.8" font-family="Times New Roman,serif" font-weight="bold" font-size="14.00">Greek</text>
<text text-anchor="start" x="318" y="-589.8" font-family="Times New Roman,serif" font-size="14.00" fill="red">phuein</text>
<text text-anchor="start" x="304.5" y="-577.4" font-family="Times New Roman,serif" font-size="12.00">to make grow</text>
</g>
<!-- bhu&#45;&gt;phueinG -->
<g id="edge3" class="edge">
<title>bhu&#45;&gt;phueinG</title>
<path fill="none" stroke="black" d="M423.95,-725.73C407.75,-701.51 377.99,-657.03 357.73,-626.74"/>
<polygon fill="black" stroke="black" points="360.5,-624.59 352.03,-618.22 354.68,-628.48 360.5,-624.59"/>
</g>
<!-- phusisG -->
<g id="node5" class="node">
<title>phusisG</title>
<text text-anchor="start" x="822.5" y="-603.8" font-family="Times New Roman,serif" font-weight="bold" font-size="14.00">Greek</text>
<text text-anchor="start" x="824" y="-589.8" font-family="Times New Roman,serif" font-size="14.00" fill="red">phusis</text>
<text text-anchor="start" x="809.5" y="-577.4" font-family="Times New Roman,serif" font-size="12.00">growth, nature</text>
</g>
<!-- bhu&#45;&gt;phusisG -->
<g id="edge4" class="edge">
<title>bhu&#45;&gt;phusisG</title>
<path fill="none" stroke="black" d="M462.52,-733.17C529.69,-708.75 705.05,-644.98 792.05,-613.34"/>
<polygon fill="black" stroke="black" points="793.25,-616.63 801.45,-609.93 790.86,-610.05 793.25,-616.63"/>
</g>
<!-- bhutu -->
<g id="node6" class="node">
<title>bhutu</title>
<text text-anchor="start" x="751" y="-668.3" font-family="Times New Roman,serif" font-size="14.00" fill="red">bhu&#45;tu&#45;</text>
</g>
<!-- bhu&#45;&gt;bhutu -->
<g id="edge5" class="edge">
<title>bhu&#45;&gt;bhutu</title>
<path fill="none" stroke="black" d="M462.71,-737.33C522.15,-724.95 663.77,-695.44 732.6,-681.1"/>
<polygon fill="black" stroke="black" points="733.53,-684.49 742.61,-679.02 732.1,-677.63 733.53,-684.49"/>
</g>
<!-- boldOE -->
<g id="node8" class="node">
<title>boldOE</title>
<text text-anchor="start" x="8" y="-519.8" font-family="Times New Roman,serif" font-weight="bold" font-size="14.00">Old English</text>
<text text-anchor="start" x="31.5" y="-505.8" font-family="Times New Roman,serif" font-size="14.00" fill="red">bold</text>
<text text-anchor="start" x="26" y="-493.4" font-family="Times New Roman,serif" font-size="12.00">dwelling</text>
</g>
<!-- buthlamGm&#45;&gt;boldOE -->
<g id="edge7" class="edge">
<title>buthlamGm&#45;&gt;boldOE</title>
<path fill="none" stroke="black" d="M103.59,-575.61C94.65,-565.83 83.22,-553.33 72.8,-541.94"/>
<polygon fill="black" stroke="black" points="75.12,-539.3 65.79,-534.28 69.96,-544.02 75.12,-539.3"/>
</g>
<!-- bodelMD -->
<g id="node9" class="node">
<title>bodelMD</title>
<text text-anchor="start" x="98" y="-361.8" font-family="Times New Roman,serif" font-weight="bold" font-size="14.00">Middle</text>
<text text-anchor="start" x="101" y="-347.8" font-family="Times New Roman,serif" font-weight="bold" font-size="14.00">Dutch</text>
<text text-anchor="start" x="103.5" y="-333.8" font-family="Times New Roman,serif" font-size="14.00" fill="red">bōdel</text>
<text text-anchor="start" x="83.5" y="-321.4" font-family="Times New Roman,serif" font-size="12.00">riches, property</text>
</g>
<!-- buthlamGm&#45;&gt;bodelMD -->
<g id="edge8" class="edge">
<title>buthlamGm&#45;&gt;bodelMD</title>
<path fill="none" stroke="black" d="M119.5,-575.63C119.5,-536.53 119.5,-440.76 119.5,-386.05"/>
<polygon fill="black" stroke="black" points="123,-386.01 119.5,-376.01 116,-386.01 123,-386.01"/>
</g>
<!-- phutonG -->
<g id="node15" class="node">
<title>phutonG</title>
<text text-anchor="start" x="202.5" y="-512.8" font-family="Times New Roman,serif" font-size="14.00" fill="red">phuton</text>
<text text-anchor="start" x="211.5" y="-500.4" font-family="Times New Roman,serif" font-size="12.00">plant</text>
</g>
<!-- phueinG&#45;&gt;phutonG -->
<g id="edge14" class="edge">
<title>phueinG&#45;&gt;phutonG</title>
<path fill="none" stroke="black" d="M304.44,-569.94C288.88,-558.75 270.24,-545.34 254.66,-534.14"/>
<polygon fill="black" stroke="black" points="256.53,-531.17 246.37,-528.17 252.44,-536.85 256.53,-531.17"/>
</g>
<!-- phutosG -->
<g id="node16" class="node">
<title>phutosG</title>
<text text-anchor="start" x="277" y="-512.8" font-family="Times New Roman,serif" font-size="14.00" fill="red">phutos</text>
<text text-anchor="start" x="279.5" y="-500.4" font-family="Times New Roman,serif" font-size="12.00">planted</text>
</g>
<!-- phueinG&#45;&gt;phutosG -->
<g id="edge15" class="edge">
<title>phueinG&#45;&gt;phutosG</title>
<path fill="none" stroke="black" d="M325.14,-569.72C320.19,-559.57 314.37,-547.63 309.27,-537.17"/>
<polygon fill="black" stroke="black" points="312.36,-535.53 304.83,-528.08 306.07,-538.6 312.36,-535.53"/>
</g>
<!-- diphyodont -->
<g id="node44" class="node">
<title>diphyodont</title>
<text text-anchor="start" x="433" y="-68.8" font-family="Times New Roman,serif" font-weight="bold" font-size="14.00">Modern English</text>
<text text-anchor="start" x="450" y="-54.8" font-family="Times New Roman,serif" font-size="14.00" fill="red">diphyodont</text>
<text text-anchor="start" x="432.5" y="-42.4" font-family="Times New Roman,serif" font-size="12.00">having two successive</text>
<text text-anchor="start" x="455" y="-30.4" font-family="Times New Roman,serif" font-size="12.00">sets of teeth</text>
</g>
<!-- phueinG&#45;&gt;diphyodont -->
<g id="edge41" class="edge">
<title>phueinG&#45;&gt;diphyodont</title>
<path fill="none" stroke="black" stroke-dasharray="1,5" d="M372.64,-569.75C384.87,-560.12 397.46,-547.92 405.5,-534 428.56,-494.07 424.5,-478.11 424.5,-432 424.5,-432 424.5,-432 424.5,-259 424.5,-199.08 447.73,-132.89 464.79,-92.38"/>
<polygon fill="black" stroke="black" points="468.02,-93.71 468.75,-83.14 461.59,-90.95 468.02,-93.71"/>
</g>
<!-- phusioG -->
<g id="node17" class="node">
<title>phusioG</title>
<text text-anchor="start" x="673" y="-506.3" font-family="Times New Roman,serif" font-size="14.00" fill="red">phusio&#45;</text>
</g>
<!-- phusisG&#45;&gt;phusioG -->
<g id="edge16" class="edge">
<title>phusisG&#45;&gt;phusioG</title>
<path fill="none" stroke="black" d="M801.41,-571.22C780.91,-560.24 755.79,-546.6 733.5,-534 733.09,-533.77 732.68,-533.53 732.26,-533.3"/>
<polygon fill="black" stroke="black" points="733.81,-530.15 723.4,-528.2 730.32,-536.22 733.81,-530.15"/>
</g>
<!-- phusikosG -->
<g id="node18" class="node">
<title>phusikosG</title>
<text text-anchor="start" x="929" y="-512.8" font-family="Times New Roman,serif" font-size="14.00" fill="red">phusikos</text>
<text text-anchor="start" x="934.5" y="-500.4" font-family="Times New Roman,serif" font-size="12.00">of nature</text>
</g>
<!-- phusisG&#45;&gt;phusikosG -->
<g id="edge17" class="edge">
<title>phusisG&#45;&gt;phusikosG</title>
<path fill="none" stroke="black" d="M874,-569.94C889.28,-558.75 907.6,-545.34 922.9,-534.14"/>
<polygon fill="black" stroke="black" points="925.05,-536.9 931.05,-528.17 920.91,-531.25 925.05,-536.9"/>
</g>
<!-- physisE -->
<g id="node50" class="node">
<title>physisE</title>
<text text-anchor="start" x="1256" y="-91.8" font-family="Times New Roman,serif" font-weight="bold" font-size="14.00">Modern</text>
<text text-anchor="start" x="1257.5" y="-77.8" font-family="Times New Roman,serif" font-weight="bold" font-size="14.00">English</text>
<text text-anchor="start" x="1251.5" y="-63.8" font-family="Times New Roman,serif" font-size="14.00" fill="red">apophysis</text>
<text text-anchor="start" x="1254" y="-49.8" font-family="Times New Roman,serif" font-size="14.00" fill="red">diaphysis</text>
<text text-anchor="start" x="1254" y="-35.8" font-family="Times New Roman,serif" font-size="14.00" fill="red">epiphysis</text>
<text text-anchor="start" x="1248" y="-21.8" font-family="Times New Roman,serif" font-size="14.00" fill="red">hypophysis</text>
<text text-anchor="start" x="1250.5" y="-7.8" font-family="Times New Roman,serif" font-size="14.00" fill="red">symphysis</text>
</g>
<!-- phusisG&#45;&gt;physisE -->
<g id="edge49" class="edge">
<title>phusisG&#45;&gt;physisE</title>
<path fill="none" stroke="black" stroke-dasharray="1,5" d="M883.71,-586.9C992.74,-569.62 1280.5,-516.05 1280.5,-432 1280.5,-432 1280.5,-432 1280.5,-259 1280.5,-211.1 1280.5,-156.9 1280.5,-116.27"/>
<polygon fill="black" stroke="black" points="1284,-116.24 1280.5,-106.24 1277,-116.24 1284,-116.24"/>
</g>
<!-- futurusL -->
<g id="node7" class="node">
<title>futurusL</title>
<text text-anchor="start" x="1196" y="-603.8" font-family="Times New Roman,serif" font-weight="bold" font-size="14.00">Latin</text>
<text text-anchor="start" x="1192.5" y="-589.8" font-family="Times New Roman,serif" font-size="14.00" fill="red">futūrus</text>
<text text-anchor="start" x="1186" y="-577.4" font-family="Times New Roman,serif" font-size="12.00">that is to be</text>
</g>
<!-- bhutu&#45;&gt;futurusL -->
<g id="edge6" class="edge">
<title>bhutu&#45;&gt;futurusL</title>
<path fill="none" stroke="black" d="M800.1,-666.07C874.99,-653.17 1077.3,-618.3 1167.75,-602.71"/>
<polygon fill="black" stroke="black" points="1168.43,-606.15 1177.69,-601 1167.24,-599.25 1168.43,-606.15"/>
</g>
<!-- futurOF -->
<g id="node51" class="node">
<title>futurOF</title>
<text text-anchor="start" x="1326.5" y="-348.8" font-family="Times New Roman,serif" font-weight="bold" font-size="14.00">Old French</text>
<text text-anchor="start" x="1348" y="-334.8" font-family="Times New Roman,serif" font-size="14.00" fill="red">futur</text>
</g>
<!-- futurusL&#45;&gt;futurOF -->
<g id="edge50" class="edge">
<title>futurusL&#45;&gt;futurOF</title>
<path fill="none" stroke="black" d="M1247.04,-574.73C1263.36,-564.6 1281.96,-550.68 1294.5,-534 1331.81,-484.38 1349.71,-412.14 1357.1,-373.24"/>
<polygon fill="black" stroke="black" points="1360.58,-373.66 1358.91,-363.2 1353.69,-372.41 1360.58,-373.66"/>
</g>
<!-- byldanOE -->
<g id="node10" class="node">
<title>byldanOE</title>
<text text-anchor="start" x="25.5" y="-433.8" font-family="Times New Roman,serif" font-size="14.00" fill="red">byldan</text>
<text text-anchor="start" x="27.5" y="-421.4" font-family="Times New Roman,serif" font-size="12.00">to build</text>
</g>
<!-- boldOE&#45;&gt;byldanOE -->
<g id="edge9" class="edge">
<title>boldOE&#45;&gt;byldanOE</title>
<path fill="none" stroke="black" d="M44.5,-485.9C44.5,-477.58 44.5,-468.12 44.5,-459.47"/>
<polygon fill="black" stroke="black" points="48,-459.45 44.5,-449.45 41,-459.45 48,-459.45"/>
</g>
<!-- boedelD -->
<g id="node13" class="node">
<title>boedelD</title>
<text text-anchor="start" x="101" y="-183.8" font-family="Times New Roman,serif" font-weight="bold" font-size="14.00">Dutch</text>
<text text-anchor="start" x="100.5" y="-169.8" font-family="Times New Roman,serif" font-size="14.00" fill="red">boedel</text>
<text text-anchor="start" x="106" y="-157.4" font-family="Times New Roman,serif" font-size="12.00">estate</text>
</g>
<!-- bodelMD&#45;&gt;boedelD -->
<g id="edge12" class="edge">
<title>bodelMD&#45;&gt;boedelD</title>
<path fill="none" stroke="black" d="M119.5,-313.79C119.5,-284.15 119.5,-239.05 119.5,-208.37"/>
<polygon fill="black" stroke="black" points="123,-208.17 119.5,-198.17 116,-208.17 123,-208.17"/>
</g>
<!-- bildenME -->
<g id="node11" class="node">
<title>bildenME</title>
<text text-anchor="start" x="17" y="-184.8" font-family="Times New Roman,serif" font-weight="bold" font-size="14.00">Middle</text>
<text text-anchor="start" x="15.5" y="-170.8" font-family="Times New Roman,serif" font-weight="bold" font-size="14.00">English</text>
<text text-anchor="start" x="21.5" y="-156.8" font-family="Times New Roman,serif" font-size="14.00" fill="red">bilden</text>
</g>
<!-- byldanOE&#45;&gt;bildenME -->
<g id="edge10" class="edge">
<title>byldanOE&#45;&gt;bildenME</title>
<path fill="none" stroke="black" d="M44.1,-412.87C43.12,-371.33 40.61,-264.57 39.31,-209.3"/>
<polygon fill="black" stroke="black" points="42.81,-209.2 39.07,-199.29 35.81,-209.37 42.81,-209.2"/>
</g>
<!-- build -->
<g id="node12" class="node">
<title>build</title>
<text text-anchor="start" x="10" y="-63.8" font-family="Times New Roman,serif" font-weight="bold" font-size="14.00">Modern</text>
<text text-anchor="start" x="11.5" y="-49.8" font-family="Times New Roman,serif" font-weight="bold" font-size="14.00">English</text>
<text text-anchor="start" x="20.5" y="-35.8" font-family="Times New Roman,serif" font-size="14.00" fill="red">build</text>
</g>
<!-- bildenME&#45;&gt;build -->
<g id="edge11" class="edge">
<title>bildenME&#45;&gt;build</title>
<path fill="none" stroke="black" d="M37.69,-148.92C37.1,-131.5 36.31,-107.71 35.65,-88.31"/>
<polygon fill="black" stroke="black" points="39.14,-87.92 35.31,-78.05 32.15,-88.16 39.14,-87.92"/>
</g>
<!-- boodle -->
<g id="node14" class="node">
<title>boodle</title>
<text text-anchor="start" x="95" y="-70.8" font-family="Times New Roman,serif" font-weight="bold" font-size="14.00">Modern</text>
<text text-anchor="start" x="96.5" y="-56.8" font-family="Times New Roman,serif" font-weight="bold" font-size="14.00">English</text>
<text text-anchor="start" x="99.5" y="-42.8" font-family="Times New Roman,serif" font-size="14.00" fill="red">boodle</text>
<text text-anchor="start" x="93.5" y="-28.8" font-family="Times New Roman,serif" font-size="14.00" fill="red">caboodle</text>
</g>
<!-- boedelD&#45;&gt;boodle -->
<g id="edge13" class="edge">
<title>boedelD&#45;&gt;boodle</title>
<path fill="none" stroke="black" stroke-dasharray="1,5" d="M119.5,-149.77C119.5,-134.32 119.5,-113.59 119.5,-95.37"/>
<polygon fill="black" stroke="black" points="123,-95.28 119.5,-85.28 116,-95.28 123,-95.28"/>
</g>
<!-- phytonNL -->
<g id="node40" class="node">
<title>phytonNL</title>
<text text-anchor="start" x="195.5" y="-191.8" font-family="Times New Roman,serif" font-weight="bold" font-size="14.00">New Latin</text>
<text text-anchor="start" x="207.5" y="-177.8" font-family="Times New Roman,serif" font-size="14.00" fill="red">phyton</text>
<text text-anchor="start" x="209" y="-163.8" font-family="Times New Roman,serif" font-size="14.00" fill="red">phyto&#45;</text>
<text text-anchor="start" x="209.5" y="-149.8" font-family="Times New Roman,serif" font-size="14.00" fill="red">&#45;phyte</text>
</g>
<!-- phutonG&#45;&gt;phytonNL -->
<g id="edge39" class="edge">
<title>phutonG&#45;&gt;phytonNL</title>
<path fill="none" stroke="black" stroke-dasharray="1,5" d="M222.75,-491.98C223.51,-441.3 225.77,-290.34 226.88,-216.54"/>
<polygon fill="black" stroke="black" points="230.38,-216.29 227.03,-206.23 223.38,-216.18 230.38,-216.29"/>
</g>
<!-- neophutosG -->
<g id="node46" class="node">
<title>neophutosG</title>
<text text-anchor="start" x="316" y="-427.3" font-family="Times New Roman,serif" font-size="14.00" fill="red">neophutos</text>
</g>
<!-- phutosG&#45;&gt;neophutosG -->
<g id="edge44" class="edge">
<title>phutosG&#45;&gt;neophutosG</title>
<path fill="none" stroke="black" d="M307.37,-491.91C313.78,-481.84 322.01,-468.91 329.19,-457.64"/>
<polygon fill="black" stroke="black" points="332.24,-459.36 334.66,-449.04 326.33,-455.6 332.24,-459.36"/>
</g>
<!-- physioE -->
<g id="node21" class="node">
<title>physioE</title>
<text text-anchor="start" x="583" y="-63.8" font-family="Times New Roman,serif" font-weight="bold" font-size="14.00">Modern</text>
<text text-anchor="start" x="584.5" y="-49.8" font-family="Times New Roman,serif" font-weight="bold" font-size="14.00">English</text>
<text text-anchor="start" x="586" y="-35.8" font-family="Times New Roman,serif" font-size="14.00" fill="red">physio&#45;</text>
</g>
<!-- phusioG&#45;&gt;physioE -->
<g id="edge20" class="edge">
<title>phusioG&#45;&gt;physioE</title>
<path fill="none" stroke="black" stroke-dasharray="1,5" d="M687.71,-491.7C676.78,-462.27 656.5,-400.34 656.5,-346 656.5,-346 656.5,-346 656.5,-259 656.5,-197.27 635.22,-127.87 620.71,-87.72"/>
<polygon fill="black" stroke="black" points="623.93,-86.34 617.18,-78.17 617.36,-88.76 623.93,-86.34"/>
</g>
<!-- phusiognomiaG -->
<g id="node23" class="node">
<title>phusiognomiaG</title>
<text text-anchor="start" x="693" y="-434.8" font-family="Times New Roman,serif" font-size="14.00" fill="red">phusiognōmonia,</text>
<text text-anchor="start" x="695" y="-419.8" font-family="Times New Roman,serif" font-size="14.00" fill="red">phusiognōmoniā</text>
</g>
<!-- phusioG&#45;&gt;phusiognomiaG -->
<g id="edge21" class="edge">
<title>phusioG&#45;&gt;phusiognomiaG</title>
<path fill="none" stroke="black" d="M704.93,-491.91C710.85,-482.22 718.38,-469.87 725.07,-458.91"/>
<polygon fill="black" stroke="black" points="728.22,-460.47 730.44,-450.11 722.25,-456.83 728.22,-460.47"/>
</g>
<!-- phusikaG -->
<g id="node19" class="node">
<title>phusikaG</title>
<text text-anchor="start" x="870.5" y="-433.8" font-family="Times New Roman,serif" font-size="14.00" fill="red">(ta) phusika</text>
<text text-anchor="start" x="857" y="-421.4" font-family="Times New Roman,serif" font-size="12.00">(the things) of nature</text>
</g>
<!-- phusikosG&#45;&gt;phusikaG -->
<g id="edge18" class="edge">
<title>phusikosG&#45;&gt;phusikaG</title>
<path fill="none" stroke="black" d="M943.18,-491.91C936.51,-481.84 927.95,-468.91 920.48,-457.64"/>
<polygon fill="black" stroke="black" points="923.23,-455.45 914.79,-449.04 917.39,-459.31 923.23,-455.45"/>
</g>
<!-- phusikeG -->
<g id="node20" class="node">
<title>phusikeG</title>
<text text-anchor="start" x="984" y="-427.3" font-family="Times New Roman,serif" font-size="14.00" fill="red">phusikē</text>
</g>
<!-- phusikosG&#45;&gt;phusikeG -->
<g id="edge19" class="edge">
<title>phusikosG&#45;&gt;phusikeG</title>
<path fill="none" stroke="black" d="M965.82,-491.91C972.49,-481.84 981.05,-468.91 988.52,-457.64"/>
<polygon fill="black" stroke="black" points="991.61,-459.31 994.21,-449.04 985.77,-455.45 991.61,-459.31"/>
</g>
<!-- physicusL -->
<g id="node26" class="node">
<title>physicusL</title>
<text text-anchor="start" x="1088" y="-348.8" font-family="Times New Roman,serif" font-weight="bold" font-size="14.00">Latin</text>
<text text-anchor="start" x="1079.5" y="-334.8" font-family="Times New Roman,serif" font-size="14.00" fill="red">physicus</text>
</g>
<!-- phusikosG&#45;&gt;physicusL -->
<g id="edge25" class="edge">
<title>phusikosG&#45;&gt;physicusL</title>
<path fill="none" stroke="black" stroke-dasharray="1,5" d="M987.62,-491.93C1005.63,-481.52 1027.44,-466.96 1043.5,-450 1065.31,-426.96 1082.68,-394.74 1093.22,-372.3"/>
<polygon fill="black" stroke="black" points="1096.48,-373.58 1097.44,-363.03 1090.11,-370.68 1096.48,-373.58"/>
</g>
<!-- physicaL -->
<g id="node29" class="node">
<title>physicaL</title>
<text text-anchor="start" x="887" y="-348.8" font-family="Times New Roman,serif" font-weight="bold" font-size="14.00">Latin</text>
<text text-anchor="start" x="882" y="-334.8" font-family="Times New Roman,serif" font-size="14.00" fill="red">physica</text>
</g>
<!-- phusikaG&#45;&gt;physicaL -->
<g id="edge28" class="edge">
<title>phusikaG&#45;&gt;physicaL</title>
<path fill="none" stroke="black" stroke-dasharray="1,5" d="M903.5,-412.6C903.5,-401.26 903.5,-386.23 903.5,-373.32"/>
<polygon fill="black" stroke="black" points="907,-373.1 903.5,-363.1 900,-373.1 907,-373.1"/>
</g>
<!-- physiceL -->
<g id="node34" class="node">
<title>physiceL</title>
<text text-anchor="start" x="989" y="-348.8" font-family="Times New Roman,serif" font-weight="bold" font-size="14.00">Latin</text>
<text text-anchor="start" x="984" y="-334.8" font-family="Times New Roman,serif" font-size="14.00" fill="red">physice</text>
</g>
<!-- phusikeG&#45;&gt;physiceL -->
<g id="edge33" class="edge">
<title>phusikeG&#45;&gt;physiceL</title>
<path fill="none" stroke="black" stroke-dasharray="1,5" d="M1005.5,-412.6C1005.5,-401.26 1005.5,-386.23 1005.5,-373.32"/>
<polygon fill="black" stroke="black" points="1009,-373.1 1005.5,-363.1 1002,-373.1 1009,-373.1"/>
</g>
<!-- gnomonG -->
<g id="node22" class="node">
<title>gnomonG</title>
<text text-anchor="start" x="750.5" y="-512.8" font-family="Times New Roman,serif" font-size="14.00" fill="red">gnōmōn, gnōmon&#45;</text>
<text text-anchor="start" x="779" y="-500.4" font-family="Times New Roman,serif" font-size="12.00">interpreter</text>
</g>
<!-- gnomonG&#45;&gt;phusiognomiaG -->
<g id="edge22" class="edge">
<title>gnomonG&#45;&gt;phusiognomiaG</title>
<path fill="none" stroke="black" d="M788.96,-491.91C781.13,-482.03 771.11,-469.38 762.3,-458.25"/>
<polygon fill="black" stroke="black" points="764.8,-455.78 755.85,-450.11 759.32,-460.13 764.8,-455.78"/>
</g>
<!-- physiognomiaL -->
<g id="node24" class="node">
<title>physiognomiaL</title>
<text text-anchor="start" x="720" y="-348.8" font-family="Times New Roman,serif" font-weight="bold" font-size="14.00">Latin</text>
<text text-anchor="start" x="697" y="-334.8" font-family="Times New Roman,serif" font-size="14.00" fill="red">physiognōmia</text>
</g>
<!-- phusiognomiaG&#45;&gt;physiognomiaL -->
<g id="edge23" class="edge">
<title>phusiognomiaG&#45;&gt;physiognomiaL</title>
<path fill="none" stroke="black" stroke-dasharray="1,5" d="M740.42,-411.77C739.74,-400.46 738.86,-385.73 738.11,-373.07"/>
<polygon fill="black" stroke="black" points="741.6,-372.82 737.51,-363.05 734.62,-373.24 741.6,-372.82"/>
</g>
<!-- physiognomy -->
<g id="node25" class="node">
<title>physiognomy</title>
<text text-anchor="start" x="666" y="-56.8" font-family="Times New Roman,serif" font-weight="bold" font-size="14.00">Modern English</text>
<text text-anchor="start" x="677.5" y="-42.8" font-family="Times New Roman,serif" font-size="14.00" fill="red">physiognomy</text>
</g>
<!-- physiognomiaL&#45;&gt;physiognomy -->
<g id="edge24" class="edge">
<title>physiognomiaL&#45;&gt;physiognomy</title>
<path fill="none" stroke="black" stroke-dasharray="1,5" d="M735.25,-326.73C731.73,-278.17 721.74,-140.17 717.47,-81.23"/>
<polygon fill="black" stroke="black" points="720.96,-80.9 716.74,-71.18 713.98,-81.41 720.96,-80.9"/>
</g>
<!-- physiqueF -->
<g id="node27" class="node">
<title>physiqueF</title>
<text text-anchor="start" x="1160.5" y="-177.8" font-family="Times New Roman,serif" font-weight="bold" font-size="14.00">French</text>
<text text-anchor="start" x="1157" y="-163.8" font-family="Times New Roman,serif" font-size="14.00" fill="red">physique</text>
</g>
<!-- physicusL&#45;&gt;physiqueF -->
<g id="edge26" class="edge">
<title>physicusL&#45;&gt;physiqueF</title>
<path fill="none" stroke="black" d="M1112.41,-326.87C1126.07,-297.26 1154.19,-236.34 1170.35,-201.32"/>
<polygon fill="black" stroke="black" points="1173.56,-202.73 1174.57,-192.18 1167.2,-199.79 1173.56,-202.73"/>
</g>
<!-- physique -->
<g id="node28" class="node">
<title>physique</title>
<text text-anchor="start" x="1164" y="-63.8" font-family="Times New Roman,serif" font-weight="bold" font-size="14.00">Modern</text>
<text text-anchor="start" x="1165.5" y="-49.8" font-family="Times New Roman,serif" font-weight="bold" font-size="14.00">English</text>
<text text-anchor="start" x="1163" y="-35.8" font-family="Times New Roman,serif" font-size="14.00" fill="red">physique</text>
</g>
<!-- physiqueF&#45;&gt;physique -->
<g id="edge27" class="edge">
<title>physiqueF&#45;&gt;physique</title>
<path fill="none" stroke="black" stroke-dasharray="1,5" d="M1183.36,-155.95C1184.25,-138.31 1185.66,-110.27 1186.78,-88.07"/>
<polygon fill="black" stroke="black" points="1190.28,-88.18 1187.29,-78.02 1183.29,-87.83 1190.28,-88.18"/>
</g>
<!-- physics -->
<g id="node30" class="node">
<title>physics</title>
<text text-anchor="start" x="799" y="-63.8" font-family="Times New Roman,serif" font-weight="bold" font-size="14.00">Modern</text>
<text text-anchor="start" x="800.5" y="-49.8" font-family="Times New Roman,serif" font-weight="bold" font-size="14.00">English</text>
<text text-anchor="start" x="802" y="-35.8" font-family="Times New Roman,serif" font-size="14.00" fill="red">physics</text>
</g>
<!-- physicaL&#45;&gt;physics -->
<g id="edge29" class="edge">
<title>physicaL&#45;&gt;physics</title>
<path fill="none" stroke="black" stroke-dasharray="1,5" d="M888.55,-326.75C878.43,-314.1 865.64,-296.05 858.5,-278 833.23,-214.13 826.15,-133.25 824.2,-88.23"/>
<polygon fill="black" stroke="black" points="827.69,-87.98 823.82,-78.12 820.7,-88.24 827.69,-87.98"/>
</g>
<!-- physicalisL -->
<g id="node31" class="node">
<title>physicalisL</title>
<text text-anchor="start" x="876" y="-256.3" font-family="Times New Roman,serif" font-size="14.00" fill="red">physicālis</text>
</g>
<!-- physicaL&#45;&gt;physicalisL -->
<g id="edge30" class="edge">
<title>physicaL&#45;&gt;physicalisL</title>
<path fill="none" stroke="black" d="M903.5,-326.8C903.5,-315.67 903.5,-300.94 903.5,-288.24"/>
<polygon fill="black" stroke="black" points="907,-288.18 903.5,-278.18 900,-288.18 907,-288.18"/>
</g>
<!-- phisicalME -->
<g id="node32" class="node">
<title>phisicalME</title>
<text text-anchor="start" x="883" y="-190.8" font-family="Times New Roman,serif" font-weight="bold" font-size="14.00">Middle</text>
<text text-anchor="start" x="881.5" y="-176.8" font-family="Times New Roman,serif" font-weight="bold" font-size="14.00">English</text>
<text text-anchor="start" x="883" y="-162.8" font-family="Times New Roman,serif" font-size="14.00" fill="red">phisical</text>
<text text-anchor="start" x="887" y="-150.4" font-family="Times New Roman,serif" font-size="12.00">medical</text>
</g>
<!-- physicalisL&#45;&gt;phisicalME -->
<g id="edge31" class="edge">
<title>physicalisL&#45;&gt;phisicalME</title>
<path fill="none" stroke="black" stroke-dasharray="1,5" d="M903.71,-241.6C903.8,-233.98 903.91,-224.71 904.02,-215.53"/>
<polygon fill="black" stroke="black" points="907.52,-215.34 904.14,-205.29 900.52,-215.25 907.52,-215.34"/>
</g>
<!-- physical -->
<g id="node33" class="node">
<title>physical</title>
<text text-anchor="start" x="882" y="-63.8" font-family="Times New Roman,serif" font-weight="bold" font-size="14.00">Modern</text>
<text text-anchor="start" x="883.5" y="-49.8" font-family="Times New Roman,serif" font-weight="bold" font-size="14.00">English</text>
<text text-anchor="start" x="883.5" y="-35.8" font-family="Times New Roman,serif" font-size="14.00" fill="red">physical</text>
</g>
<!-- phisicalME&#45;&gt;physical -->
<g id="edge32" class="edge">
<title>phisicalME&#45;&gt;physical</title>
<path fill="none" stroke="black" d="M905,-142.97C905.28,-126.32 905.63,-105.55 905.92,-88.27"/>
<polygon fill="black" stroke="black" points="909.43,-88.09 906.1,-78.03 902.43,-87.97 909.43,-88.09"/>
</g>
<!-- fisiqueOF -->
<g id="node35" class="node">
<title>fisiqueOF</title>
<text text-anchor="start" x="970.5" y="-263.8" font-family="Times New Roman,serif" font-weight="bold" font-size="14.00">Old French</text>
<text text-anchor="start" x="987" y="-249.8" font-family="Times New Roman,serif" font-size="14.00" fill="red">fisique</text>
</g>
<!-- physiceL&#45;&gt;fisiqueOF -->
<g id="edge34" class="edge">
<title>physiceL&#45;&gt;fisiqueOF</title>
<path fill="none" stroke="black" d="M1005.5,-326.8C1005.5,-315.67 1005.5,-300.94 1005.5,-288.24"/>
<polygon fill="black" stroke="black" points="1009,-288.18 1005.5,-278.18 1002,-288.18 1009,-288.18"/>
</g>
<!-- phisikME -->
<g id="node36" class="node">
<title>phisikME</title>
<text text-anchor="start" x="983" y="-184.8" font-family="Times New Roman,serif" font-weight="bold" font-size="14.00">Middle</text>
<text text-anchor="start" x="981.5" y="-170.8" font-family="Times New Roman,serif" font-weight="bold" font-size="14.00">English</text>
<text text-anchor="start" x="987.5" y="-156.8" font-family="Times New Roman,serif" font-size="14.00" fill="red">phisik</text>
</g>
<!-- fisiqueOF&#45;&gt;phisikME -->
<g id="edge35" class="edge">
<title>fisiqueOF&#45;&gt;phisikME</title>
<path fill="none" stroke="black" stroke-dasharray="1,5" d="M1005.29,-241.6C1005.18,-232.27 1005.04,-220.45 1004.91,-209.37"/>
<polygon fill="black" stroke="black" points="1008.41,-209.03 1004.79,-199.07 1001.41,-209.11 1008.41,-209.03"/>
</g>
<!-- fisicienME -->
<g id="node37" class="node">
<title>fisicienME</title>
<text text-anchor="start" x="1072" y="-184.8" font-family="Times New Roman,serif" font-weight="bold" font-size="14.00">Middle</text>
<text text-anchor="start" x="1070.5" y="-170.8" font-family="Times New Roman,serif" font-weight="bold" font-size="14.00">English</text>
<text text-anchor="start" x="1073.5" y="-156.8" font-family="Times New Roman,serif" font-size="14.00" fill="red">fisicien</text>
</g>
<!-- fisiqueOF&#45;&gt;fisicienME -->
<g id="edge36" class="edge">
<title>fisiqueOF&#45;&gt;fisicienME</title>
<path fill="none" stroke="black" stroke-dasharray="1,5" d="M1023.73,-241.6C1034.41,-231.41 1048.2,-218.24 1060.7,-206.3"/>
<polygon fill="black" stroke="black" points="1063.47,-208.51 1068.28,-199.07 1058.63,-203.44 1063.47,-208.51"/>
</g>
<!-- physic -->
<g id="node38" class="node">
<title>physic</title>
<text text-anchor="start" x="979" y="-69.8" font-family="Times New Roman,serif" font-weight="bold" font-size="14.00">Modern</text>
<text text-anchor="start" x="980.5" y="-55.8" font-family="Times New Roman,serif" font-weight="bold" font-size="14.00">English</text>
<text text-anchor="start" x="985" y="-41.8" font-family="Times New Roman,serif" font-size="14.00" fill="red">physic</text>
<text text-anchor="start" x="965.5" y="-29.4" font-family="Times New Roman,serif" font-size="12.00">medicine, to heal</text>
</g>
<!-- phisikME&#45;&gt;physic -->
<g id="edge37" class="edge">
<title>phisikME&#45;&gt;physic</title>
<path fill="none" stroke="black" d="M1004.3,-148.92C1004.17,-133.29 1003.99,-112.54 1003.84,-94.42"/>
<polygon fill="black" stroke="black" points="1007.34,-94.37 1003.76,-84.4 1000.34,-94.43 1007.34,-94.37"/>
</g>
<!-- physician -->
<g id="node39" class="node">
<title>physician</title>
<text text-anchor="start" x="1078" y="-63.8" font-family="Times New Roman,serif" font-weight="bold" font-size="14.00">Modern</text>
<text text-anchor="start" x="1079.5" y="-49.8" font-family="Times New Roman,serif" font-weight="bold" font-size="14.00">English</text>
<text text-anchor="start" x="1076" y="-35.8" font-family="Times New Roman,serif" font-size="14.00" fill="red">physician</text>
</g>
<!-- fisicienME&#45;&gt;physician -->
<g id="edge38" class="edge">
<title>fisicienME&#45;&gt;physician</title>
<path fill="none" stroke="black" d="M1095.32,-148.92C1096.64,-131.42 1098.45,-107.49 1099.93,-88.04"/>
<polygon fill="black" stroke="black" points="1103.42,-88.28 1100.68,-78.05 1096.44,-87.75 1103.42,-88.28"/>
</g>
<!-- phyton -->
<g id="node41" class="node">
<title>phyton</title>
<text text-anchor="start" x="180" y="-70.8" font-family="Times New Roman,serif" font-weight="bold" font-size="14.00">Modern English</text>
<text text-anchor="start" x="209.5" y="-56.8" font-family="Times New Roman,serif" font-size="14.00" fill="red">phyton</text>
<text text-anchor="start" x="211" y="-42.8" font-family="Times New Roman,serif" font-size="14.00" fill="red">phyto&#45;</text>
<text text-anchor="start" x="211.5" y="-28.8" font-family="Times New Roman,serif" font-size="14.00" fill="red">&#45;phyte</text>
</g>
<!-- phytonNL&#45;&gt;phyton -->
<g id="edge40" class="edge">
<title>phytonNL&#45;&gt;phyton</title>
<path fill="none" stroke="black" stroke-dasharray="1,5" d="M228.03,-141.73C228.26,-127.52 228.55,-110.51 228.81,-95.27"/>
<polygon fill="black" stroke="black" points="232.31,-95.11 228.98,-85.06 225.31,-95 232.31,-95.11"/>
</g>
<!-- diphuesG -->
<g id="node42" class="node">
<title>diphuesG</title>
<text text-anchor="start" x="460.5" y="-433.8" font-family="Times New Roman,serif" font-size="14.00" fill="red">diphuēs</text>
<text text-anchor="start" x="467" y="-421.4" font-family="Times New Roman,serif" font-size="12.00">double</text>
</g>
<!-- diphuesG&#45;&gt;diphyodont -->
<g id="edge42" class="edge">
<title>diphuesG&#45;&gt;diphyodont</title>
<path fill="none" stroke="black" stroke-dasharray="1,5" d="M482.5,-412.87C482.5,-356.29 482.5,-174.43 482.5,-93.49"/>
<polygon fill="black" stroke="black" points="486,-93.22 482.5,-83.22 479,-93.22 486,-93.22"/>
</g>
<!-- odousG -->
<g id="node43" class="node">
<title>odousG</title>
<text text-anchor="start" x="539" y="-433.8" font-family="Times New Roman,serif" font-size="14.00" fill="red">odous, odont&#45;</text>
<text text-anchor="start" x="567.5" y="-421.4" font-family="Times New Roman,serif" font-size="12.00">tooth</text>
</g>
<!-- odousG&#45;&gt;diphyodont -->
<g id="edge43" class="edge">
<title>odousG&#45;&gt;diphyodont</title>
<path fill="none" stroke="black" stroke-dasharray="1,5" d="M575.08,-412.87C560.45,-356.17 513.38,-173.69 492.56,-93"/>
<polygon fill="black" stroke="black" points="495.93,-92.03 490.04,-83.22 489.15,-93.78 495.93,-92.03"/>
</g>
<!-- neoG -->
<g id="node45" class="node">
<title>neoG</title>
<text text-anchor="start" x="357" y="-512.8" font-family="Times New Roman,serif" font-size="14.00" fill="red">neo&#45;</text>
<text text-anchor="start" x="360" y="-500.4" font-family="Times New Roman,serif" font-size="12.00">new</text>
</g>
<!-- neoG&#45;&gt;neophutosG -->
<g id="edge45" class="edge">
<title>neoG&#45;&gt;neophutosG</title>
<path fill="none" stroke="black" d="M364.17,-491.91C361.13,-482.14 357.24,-469.68 353.81,-458.65"/>
<polygon fill="black" stroke="black" points="357.13,-457.55 350.81,-449.04 350.45,-459.63 357.13,-457.55"/>
</g>
<!-- neophytusL -->
<g id="node47" class="node">
<title>neophytusL</title>
<text text-anchor="start" x="329" y="-348.8" font-family="Times New Roman,serif" font-weight="bold" font-size="14.00">Latin</text>
<text text-anchor="start" x="316.5" y="-334.8" font-family="Times New Roman,serif" font-size="14.00" fill="red">neophytus</text>
</g>
<!-- neophutosG&#45;&gt;neophytusL -->
<g id="edge46" class="edge">
<title>neophutosG&#45;&gt;neophytusL</title>
<path fill="none" stroke="black" stroke-dasharray="1,5" d="M345.5,-412.6C345.5,-401.26 345.5,-386.23 345.5,-373.32"/>
<polygon fill="black" stroke="black" points="349,-373.1 345.5,-363.1 342,-373.1 349,-373.1"/>
</g>
<!-- neophyteME -->
<g id="node48" class="node">
<title>neophyteME</title>
<text text-anchor="start" x="324" y="-184.8" font-family="Times New Roman,serif" font-weight="bold" font-size="14.00">Middle</text>
<text text-anchor="start" x="322.5" y="-170.8" font-family="Times New Roman,serif" font-weight="bold" font-size="14.00">English</text>
<text text-anchor="start" x="319.5" y="-156.8" font-family="Times New Roman,serif" font-size="14.00" fill="red">neophyte</text>
</g>
<!-- neophytusL&#45;&gt;neophyteME -->
<g id="edge47" class="edge">
<title>neophytusL&#45;&gt;neophyteME</title>
<path fill="none" stroke="black" stroke-dasharray="1,5" d="M345.5,-326.87C345.5,-299.49 345.5,-245.34 345.5,-209.65"/>
<polygon fill="black" stroke="black" points="349,-209.22 345.5,-199.22 342,-209.22 349,-209.22"/>
</g>
<!-- neophyte -->
<g id="node49" class="node">
<title>neophyte</title>
<text text-anchor="start" x="321" y="-63.8" font-family="Times New Roman,serif" font-weight="bold" font-size="14.00">Modern</text>
<text text-anchor="start" x="322.5" y="-49.8" font-family="Times New Roman,serif" font-weight="bold" font-size="14.00">English</text>
<text text-anchor="start" x="319.5" y="-35.8" font-family="Times New Roman,serif" font-size="14.00" fill="red">neophyte</text>
</g>
<!-- neophyteME&#45;&gt;neophyte -->
<g id="edge48" class="edge">
<title>neophyteME&#45;&gt;neophyte</title>
<path fill="none" stroke="black" d="M345.5,-148.92C345.5,-131.5 345.5,-107.71 345.5,-88.31"/>
<polygon fill="black" stroke="black" points="349,-88.05 345.5,-78.05 342,-88.05 349,-88.05"/>
</g>
<!-- futureME -->
<g id="node52" class="node">
<title>futureME</title>
<text text-anchor="start" x="1347" y="-184.8" font-family="Times New Roman,serif" font-weight="bold" font-size="14.00">Middle</text>
<text text-anchor="start" x="1345.5" y="-170.8" font-family="Times New Roman,serif" font-weight="bold" font-size="14.00">English</text>
<text text-anchor="start" x="1352" y="-156.8" font-family="Times New Roman,serif" font-size="14.00" fill="red">future</text>
</g>
<!-- futurOF&#45;&gt;futureME -->
<g id="edge51" class="edge">
<title>futurOF&#45;&gt;futureME</title>
<path fill="none" stroke="black" stroke-dasharray="1,5" d="M1362.21,-326.87C1363.34,-299.49 1365.59,-245.34 1367.06,-209.65"/>
<polygon fill="black" stroke="black" points="1370.58,-209.36 1367.5,-199.22 1363.59,-209.07 1370.58,-209.36"/>
</g>
<!-- future -->
<g id="node53" class="node">
<title>future</title>
<text text-anchor="start" x="1347" y="-63.8" font-family="Times New Roman,serif" font-weight="bold" font-size="14.00">Modern</text>
<text text-anchor="start" x="1348.5" y="-49.8" font-family="Times New Roman,serif" font-weight="bold" font-size="14.00">English</text>
<text text-anchor="start" x="1355" y="-35.8" font-family="Times New Roman,serif" font-size="14.00" fill="red">future</text>
</g>
<!-- futureME&#45;&gt;future -->
<g id="edge52" class="edge">
<title>futureME&#45;&gt;future</title>
<path fill="none" stroke="black" d="M1369.11,-148.92C1369.55,-131.5 1370.15,-107.71 1370.64,-88.31"/>
<polygon fill="black" stroke="black" points="1374.14,-88.13 1370.89,-78.05 1367.14,-87.95 1374.14,-88.13"/>
</g>
</g>
</svg>
