<?xml version="1.0" encoding="UTF-8" standalone="no"?>
<!DOCTYPE svg PUBLIC "-//W3C//DTD SVG 1.1//EN"
 "http://www.w3.org/Graphics/SVG/1.1/DTD/svg11.dtd">
<!-- Generated by graphviz version 2.49.0 (20210828.1703)
 -->
<!-- Pages: 1 -->
<svg width="1506pt" height="902pt"
 viewBox="0.00 0.00 1505.50 902.00" xmlns="http://www.w3.org/2000/svg" xmlns:xlink="http://www.w3.org/1999/xlink">
<g id="graph0" class="graph" transform="scale(1 1) rotate(0) translate(4 898)">
<polygon fill="white" stroke="transparent" points="-4,4 -4,-898 1501.5,-898 1501.5,4 -4,4"/>
<!-- bheu -->
<g id="node1" class="node">
<title>bheu</title>
<g id="a_node1"><a xlink:href="bheu-grow0.svg" xlink:title="&lt;font point&#45;size=&quot;24&quot;&gt;&lt;b&gt;Indo&#45;European&lt;/b&gt;&lt;/font&gt;&lt;br/&gt;&lt;font point&#45;size=&quot;18&quot; color=&quot;red&quot;&gt;bheuə&#45;, bheu&#45;&lt;/font&gt;&lt;font point&#45;size=&quot;16&quot;&gt;to be, exist, grow&lt;/font&gt;">
<path fill="none" stroke="black" stroke-dasharray="5,2" d="M452.5,-888C452.5,-888 252.5,-888 252.5,-888 246.5,-888 240.5,-882 240.5,-876 240.5,-876 240.5,-850 240.5,-850 240.5,-844 246.5,-838 252.5,-838 252.5,-838 452.5,-838 452.5,-838 458.5,-838 464.5,-844 464.5,-850 464.5,-850 464.5,-876 464.5,-876 464.5,-882 458.5,-888 452.5,-888"/>
<text text-anchor="start" x="274" y="-865.8" font-family="Times New Roman,serif" font-weight="bold" font-size="24.00">Indo&#45;European</text>
<text text-anchor="start" x="248.5" y="-846.6" font-family="Times New Roman,serif" font-size="18.00" fill="red">bheuə&#45;, bheu&#45;</text>
<text text-anchor="start" x="348.5" y="-846.6" font-family="Times New Roman,serif" font-size="16.00">to be, exist, grow</text>
</a>
</g>
</g>
<!-- bhu -->
<g id="node2" class="node">
<title>bhu</title>
<text text-anchor="start" x="346.5" y="-774.3" font-family="Times New Roman,serif" font-size="14.00" fill="red">bhu&#45;</text>
</g>
<!-- bheu&#45;&gt;bhu -->
<g id="edge1" class="edge">
<title>bheu&#45;&gt;bhu</title>
<path fill="none" stroke="black" d="M354.52,-837.99C355.36,-828.04 356.34,-816.45 357.21,-806.19"/>
<polygon fill="black" stroke="black" points="360.7,-806.36 358.06,-796.1 353.73,-805.77 360.7,-806.36"/>
</g>
<!-- buthlamGm -->
<g id="node3" class="node">
<title>buthlamGm</title>
<text text-anchor="start" x="89" y="-631.8" font-family="Times New Roman,serif" font-weight="bold" font-size="14.00">Germanic</text>
<text text-anchor="start" x="71" y="-617.8" font-family="Times New Roman,serif" font-size="14.00" fill="red">buthlam, bōthlam</text>
</g>
<!-- bhu&#45;&gt;buthlamGm -->
<g id="edge2" class="edge">
<title>bhu&#45;&gt;buthlamGm</title>
<path fill="none" stroke="black" d="M332.44,-760.31C289.16,-733.62 204.33,-681.31 155.82,-651.4"/>
<polygon fill="black" stroke="black" points="157.55,-648.35 147.2,-646.08 153.88,-654.31 157.55,-648.35"/>
</g>
<!-- phueinG -->
<g id="node4" class="node">
<title>phueinG</title>
<text text-anchor="start" x="339.5" y="-637.8" font-family="Times New Roman,serif" font-weight="bold" font-size="14.00">Greek</text>
<text text-anchor="start" x="341" y="-623.8" font-family="Times New Roman,serif" font-size="14.00" fill="red">phuein</text>
<text text-anchor="start" x="327.5" y="-611.4" font-family="Times New Roman,serif" font-size="12.00">to make grow</text>
</g>
<!-- bhu&#45;&gt;phueinG -->
<g id="edge3" class="edge">
<title>bhu&#45;&gt;phueinG</title>
<path fill="none" stroke="black" d="M359.5,-759.73C359.5,-735.93 359.5,-692.55 359.5,-662.31"/>
<polygon fill="black" stroke="black" points="363,-662.22 359.5,-652.22 356,-662.22 363,-662.22"/>
</g>
<!-- phusisG -->
<g id="node5" class="node">
<title>phusisG</title>
<text text-anchor="start" x="924.5" y="-637.8" font-family="Times New Roman,serif" font-weight="bold" font-size="14.00">Greek</text>
<text text-anchor="start" x="926" y="-623.8" font-family="Times New Roman,serif" font-size="14.00" fill="red">phusis</text>
<text text-anchor="start" x="911.5" y="-611.4" font-family="Times New Roman,serif" font-size="12.00">growth, nature</text>
</g>
<!-- bhu&#45;&gt;phusisG -->
<g id="edge4" class="edge">
<title>bhu&#45;&gt;phusisG</title>
<path fill="none" stroke="black" d="M386.54,-770.16C477.48,-747.15 773.27,-672.32 893.24,-641.97"/>
<polygon fill="black" stroke="black" points="894.44,-645.28 903.27,-639.43 892.72,-638.49 894.44,-645.28"/>
</g>
<!-- bhutu -->
<g id="node6" class="node">
<title>bhutu</title>
<text text-anchor="start" x="802" y="-702.3" font-family="Times New Roman,serif" font-size="14.00" fill="red">bhu&#45;tu&#45;</text>
</g>
<!-- bhu&#45;&gt;bhutu -->
<g id="edge5" class="edge">
<title>bhu&#45;&gt;bhutu</title>
<path fill="none" stroke="black" d="M386.73,-772.88C465.31,-761 692.63,-726.63 783.9,-712.84"/>
<polygon fill="black" stroke="black" points="784.47,-716.29 793.83,-711.33 783.42,-709.37 784.47,-716.29"/>
</g>
<!-- boldOE -->
<g id="node8" class="node">
<title>boldOE</title>
<text text-anchor="start" x="8" y="-547.8" font-family="Times New Roman,serif" font-weight="bold" font-size="14.00">Old English</text>
<text text-anchor="start" x="31.5" y="-533.8" font-family="Times New Roman,serif" font-size="14.00" fill="red">bold</text>
<text text-anchor="start" x="26" y="-521.4" font-family="Times New Roman,serif" font-size="12.00">dwelling</text>
</g>
<!-- buthlamGm&#45;&gt;boldOE -->
<g id="edge7" class="edge">
<title>buthlamGm&#45;&gt;boldOE</title>
<path fill="none" stroke="black" d="M104.68,-609.61C94.98,-598.22 82.02,-583.03 70.62,-569.65"/>
<polygon fill="black" stroke="black" points="73.27,-567.36 64.12,-562.02 67.94,-571.9 73.27,-567.36"/>
</g>
<!-- bodelMD -->
<g id="node9" class="node">
<title>bodelMD</title>
<text text-anchor="start" x="98" y="-367.8" font-family="Times New Roman,serif" font-weight="bold" font-size="14.00">Middle</text>
<text text-anchor="start" x="101" y="-353.8" font-family="Times New Roman,serif" font-weight="bold" font-size="14.00">Dutch</text>
<text text-anchor="start" x="103.5" y="-339.8" font-family="Times New Roman,serif" font-size="14.00" fill="red">bōdel</text>
<text text-anchor="start" x="83.5" y="-327.4" font-family="Times New Roman,serif" font-size="12.00">riches, property</text>
</g>
<!-- buthlamGm&#45;&gt;bodelMD -->
<g id="edge8" class="edge">
<title>buthlamGm&#45;&gt;bodelMD</title>
<path fill="none" stroke="black" d="M119.5,-609.8C119.5,-566.67 119.5,-453.03 119.5,-392.04"/>
<polygon fill="black" stroke="black" points="123,-392.01 119.5,-382.01 116,-392.01 123,-392.01"/>
</g>
<!-- phutonG -->
<g id="node15" class="node">
<title>phutonG</title>
<text text-anchor="start" x="203.5" y="-540.8" font-family="Times New Roman,serif" font-size="14.00" fill="red">phuton</text>
<text text-anchor="start" x="212.5" y="-528.4" font-family="Times New Roman,serif" font-size="12.00">plant</text>
</g>
<!-- phueinG&#45;&gt;phutonG -->
<g id="edge14" class="edge">
<title>phueinG&#45;&gt;phutonG</title>
<path fill="none" stroke="black" d="M319.27,-604.59C301,-594.01 279.31,-580.9 260.5,-568 257.81,-566.15 255.05,-564.18 252.32,-562.15"/>
<polygon fill="black" stroke="black" points="254.36,-559.31 244.28,-556.04 250.12,-564.88 254.36,-559.31"/>
</g>
<!-- phutosG -->
<g id="node16" class="node">
<title>phutosG</title>
<text text-anchor="start" x="278" y="-540.8" font-family="Times New Roman,serif" font-size="14.00" fill="red">phutos</text>
<text text-anchor="start" x="280.5" y="-528.4" font-family="Times New Roman,serif" font-size="12.00">planted</text>
</g>
<!-- phueinG&#45;&gt;phutosG -->
<g id="edge15" class="edge">
<title>phueinG&#45;&gt;phutosG</title>
<path fill="none" stroke="black" d="M343.21,-603.88C334.64,-591.71 324.12,-576.78 315.33,-564.31"/>
<polygon fill="black" stroke="black" points="318.19,-562.29 309.57,-556.13 312.47,-566.32 318.19,-562.29"/>
</g>
<!-- emphueinG -->
<g id="node23" class="node">
<title>emphueinG</title>
<text text-anchor="start" x="424.5" y="-553.8" font-family="Times New Roman,serif" font-size="14.00" fill="red">emphuein</text>
<text text-anchor="start" x="429" y="-541.4" font-family="Times New Roman,serif" font-size="12.00">to implant</text>
<text text-anchor="start" x="424" y="-527.8" font-family="Times New Roman,serif" font-size="14.00" fill="red">emphutos</text>
<text text-anchor="start" x="435.5" y="-515.4" font-family="Times New Roman,serif" font-size="12.00">grafted</text>
</g>
<!-- phueinG&#45;&gt;emphueinG -->
<g id="edge21" class="edge">
<title>phueinG&#45;&gt;emphueinG</title>
<path fill="none" stroke="black" d="M383.67,-603.88C392.84,-595.11 403.51,-584.9 413.64,-575.21"/>
<polygon fill="black" stroke="black" points="416.09,-577.72 420.89,-568.28 411.25,-572.66 416.09,-577.72"/>
</g>
<!-- diphyodont -->
<g id="node51" class="node">
<title>diphyodont</title>
<text text-anchor="start" x="524" y="-68.8" font-family="Times New Roman,serif" font-weight="bold" font-size="14.00">Modern English</text>
<text text-anchor="start" x="541" y="-54.8" font-family="Times New Roman,serif" font-size="14.00" fill="red">diphyodont</text>
<text text-anchor="start" x="523.5" y="-42.4" font-family="Times New Roman,serif" font-size="12.00">having two successive</text>
<text text-anchor="start" x="546" y="-30.4" font-family="Times New Roman,serif" font-size="12.00">sets of teeth</text>
</g>
<!-- phueinG&#45;&gt;diphyodont -->
<g id="edge48" class="edge">
<title>phueinG&#45;&gt;diphyodont</title>
<path fill="none" stroke="black" stroke-dasharray="5,2" d="M399.79,-620.22C430.8,-612.83 472.18,-597.8 495.5,-568 528.55,-525.76 515.5,-502.63 515.5,-449 515.5,-449 515.5,-449 515.5,-259 515.5,-199.08 538.73,-132.89 555.79,-92.38"/>
<polygon fill="black" stroke="black" points="559.02,-93.71 559.75,-83.14 552.59,-90.95 559.02,-93.71"/>
</g>
<!-- phusioG -->
<g id="node17" class="node">
<title>phusioG</title>
<text text-anchor="start" x="768" y="-534.3" font-family="Times New Roman,serif" font-size="14.00" fill="red">phusio&#45;</text>
</g>
<!-- phusisG&#45;&gt;phusioG -->
<g id="edge16" class="edge">
<title>phusisG&#45;&gt;phusioG</title>
<path fill="none" stroke="black" d="M903.32,-608.15C880.72,-597.3 852.5,-582.88 828.5,-568 825.54,-566.17 822.52,-564.17 819.54,-562.11"/>
<polygon fill="black" stroke="black" points="821.49,-559.2 811.32,-556.23 817.42,-564.89 821.49,-559.2"/>
</g>
<!-- phusikosG -->
<g id="node18" class="node">
<title>phusikosG</title>
<text text-anchor="start" x="1028" y="-540.8" font-family="Times New Roman,serif" font-size="14.00" fill="red">phusikos</text>
<text text-anchor="start" x="1033.5" y="-528.4" font-family="Times New Roman,serif" font-size="12.00">of nature</text>
</g>
<!-- phusisG&#45;&gt;phusikosG -->
<g id="edge17" class="edge">
<title>phusisG&#45;&gt;phusikosG</title>
<path fill="none" stroke="black" d="M973.14,-603.88C988.93,-591.13 1008.49,-575.34 1024.36,-562.52"/>
<polygon fill="black" stroke="black" points="1026.7,-565.13 1032.29,-556.13 1022.31,-559.69 1026.7,-565.13"/>
</g>
<!-- physisE -->
<g id="node57" class="node">
<title>physisE</title>
<text text-anchor="start" x="1349" y="-91.8" font-family="Times New Roman,serif" font-weight="bold" font-size="14.00">Modern</text>
<text text-anchor="start" x="1350.5" y="-77.8" font-family="Times New Roman,serif" font-weight="bold" font-size="14.00">English</text>
<text text-anchor="start" x="1344.5" y="-63.8" font-family="Times New Roman,serif" font-size="14.00" fill="red">apophysis</text>
<text text-anchor="start" x="1347" y="-49.8" font-family="Times New Roman,serif" font-size="14.00" fill="red">diaphysis</text>
<text text-anchor="start" x="1347" y="-35.8" font-family="Times New Roman,serif" font-size="14.00" fill="red">epiphysis</text>
<text text-anchor="start" x="1341" y="-21.8" font-family="Times New Roman,serif" font-size="14.00" fill="red">hypophysis</text>
<text text-anchor="start" x="1343.5" y="-7.8" font-family="Times New Roman,serif" font-size="14.00" fill="red">symphysis</text>
</g>
<!-- phusisG&#45;&gt;physisE -->
<g id="edge56" class="edge">
<title>phusisG&#45;&gt;physisE</title>
<path fill="none" stroke="black" stroke-dasharray="5,2" d="M985.63,-619.11C1093.01,-597.33 1373.5,-532.46 1373.5,-449 1373.5,-449 1373.5,-449 1373.5,-259 1373.5,-211.1 1373.5,-156.9 1373.5,-116.27"/>
<polygon fill="black" stroke="black" points="1377,-116.24 1373.5,-106.24 1370,-116.24 1377,-116.24"/>
</g>
<!-- futurusL -->
<g id="node7" class="node">
<title>futurusL</title>
<text text-anchor="start" x="1298" y="-637.8" font-family="Times New Roman,serif" font-weight="bold" font-size="14.00">Latin</text>
<text text-anchor="start" x="1294.5" y="-623.8" font-family="Times New Roman,serif" font-size="14.00" fill="red">futūrus</text>
<text text-anchor="start" x="1288" y="-611.4" font-family="Times New Roman,serif" font-size="12.00">that is to be</text>
</g>
<!-- bhutu&#45;&gt;futurusL -->
<g id="edge6" class="edge">
<title>bhutu&#45;&gt;futurusL</title>
<path fill="none" stroke="black" d="M851.08,-700.59C933.18,-687.9 1170.21,-651.29 1269.7,-635.92"/>
<polygon fill="black" stroke="black" points="1270.38,-639.36 1279.73,-634.37 1269.32,-632.44 1270.38,-639.36"/>
</g>
<!-- futurOF -->
<g id="node58" class="node">
<title>futurOF</title>
<text text-anchor="start" x="1419.5" y="-354.8" font-family="Times New Roman,serif" font-weight="bold" font-size="14.00">Old French</text>
<text text-anchor="start" x="1441" y="-340.8" font-family="Times New Roman,serif" font-size="14.00" fill="red">futur</text>
</g>
<!-- futurusL&#45;&gt;futurOF -->
<g id="edge57" class="edge">
<title>futurusL&#45;&gt;futurOF</title>
<path fill="none" stroke="black" d="M1349.21,-605.52C1362.82,-595.58 1377.53,-582.7 1387.5,-568 1428.13,-508.09 1444.99,-422.43 1451.24,-379.19"/>
<polygon fill="black" stroke="black" points="1454.73,-379.54 1452.61,-369.16 1447.79,-378.59 1454.73,-379.54"/>
</g>
<!-- byldanOE -->
<g id="node10" class="node">
<title>byldanOE</title>
<text text-anchor="start" x="25.5" y="-450.8" font-family="Times New Roman,serif" font-size="14.00" fill="red">byldan</text>
<text text-anchor="start" x="27.5" y="-438.4" font-family="Times New Roman,serif" font-size="12.00">to build</text>
</g>
<!-- boldOE&#45;&gt;byldanOE -->
<g id="edge9" class="edge">
<title>boldOE&#45;&gt;byldanOE</title>
<path fill="none" stroke="black" d="M44.5,-513.88C44.5,-502.42 44.5,-488.49 44.5,-476.49"/>
<polygon fill="black" stroke="black" points="48,-476.13 44.5,-466.13 41,-476.13 48,-476.13"/>
</g>
<!-- boedelD -->
<g id="node13" class="node">
<title>boedelD</title>
<text text-anchor="start" x="101" y="-183.8" font-family="Times New Roman,serif" font-weight="bold" font-size="14.00">Dutch</text>
<text text-anchor="start" x="100.5" y="-169.8" font-family="Times New Roman,serif" font-size="14.00" fill="red">boedel</text>
<text text-anchor="start" x="106" y="-157.4" font-family="Times New Roman,serif" font-size="12.00">estate</text>
</g>
<!-- bodelMD&#45;&gt;boedelD -->
<g id="edge12" class="edge">
<title>bodelMD&#45;&gt;boedelD</title>
<path fill="none" stroke="black" d="M119.5,-319.92C119.5,-288.84 119.5,-240.45 119.5,-208.25"/>
<polygon fill="black" stroke="black" points="123,-208 119.5,-198 116,-208 123,-208"/>
</g>
<!-- bildenME -->
<g id="node11" class="node">
<title>bildenME</title>
<text text-anchor="start" x="17" y="-184.8" font-family="Times New Roman,serif" font-weight="bold" font-size="14.00">Middle</text>
<text text-anchor="start" x="15.5" y="-170.8" font-family="Times New Roman,serif" font-weight="bold" font-size="14.00">English</text>
<text text-anchor="start" x="21.5" y="-156.8" font-family="Times New Roman,serif" font-size="14.00" fill="red">bilden</text>
</g>
<!-- byldanOE&#45;&gt;bildenME -->
<g id="edge10" class="edge">
<title>byldanOE&#45;&gt;bildenME</title>
<path fill="none" stroke="black" d="M44.12,-429.99C43.16,-386.08 40.56,-268.3 39.26,-209.45"/>
<polygon fill="black" stroke="black" points="42.75,-209.1 39.03,-199.18 35.75,-209.26 42.75,-209.1"/>
</g>
<!-- build -->
<g id="node12" class="node">
<title>build</title>
<text text-anchor="start" x="10" y="-63.8" font-family="Times New Roman,serif" font-weight="bold" font-size="14.00">Modern</text>
<text text-anchor="start" x="11.5" y="-49.8" font-family="Times New Roman,serif" font-weight="bold" font-size="14.00">English</text>
<text text-anchor="start" x="20.5" y="-35.8" font-family="Times New Roman,serif" font-size="14.00" fill="red">build</text>
</g>
<!-- bildenME&#45;&gt;build -->
<g id="edge11" class="edge">
<title>bildenME&#45;&gt;build</title>
<path fill="none" stroke="black" d="M37.69,-148.92C37.1,-131.5 36.31,-107.71 35.65,-88.31"/>
<polygon fill="black" stroke="black" points="39.14,-87.92 35.31,-78.05 32.15,-88.16 39.14,-87.92"/>
</g>
<!-- boodle -->
<g id="node14" class="node">
<title>boodle</title>
<text text-anchor="start" x="95" y="-70.8" font-family="Times New Roman,serif" font-weight="bold" font-size="14.00">Modern</text>
<text text-anchor="start" x="96.5" y="-56.8" font-family="Times New Roman,serif" font-weight="bold" font-size="14.00">English</text>
<text text-anchor="start" x="99.5" y="-42.8" font-family="Times New Roman,serif" font-size="14.00" fill="red">boodle</text>
<text text-anchor="start" x="93.5" y="-28.8" font-family="Times New Roman,serif" font-size="14.00" fill="red">caboodle</text>
</g>
<!-- build&#45;&gt;boodle -->
<!-- boedelD&#45;&gt;boodle -->
<g id="edge13" class="edge">
<title>boedelD&#45;&gt;boodle</title>
<path fill="none" stroke="black" stroke-dasharray="5,2" d="M119.5,-149.77C119.5,-134.32 119.5,-113.59 119.5,-95.37"/>
<polygon fill="black" stroke="black" points="123,-95.28 119.5,-85.28 116,-95.28 123,-95.28"/>
</g>
<!-- phytonNL -->
<g id="node47" class="node">
<title>phytonNL</title>
<text text-anchor="start" x="196.5" y="-191.8" font-family="Times New Roman,serif" font-weight="bold" font-size="14.00">New Latin</text>
<text text-anchor="start" x="208.5" y="-177.8" font-family="Times New Roman,serif" font-size="14.00" fill="red">phyton</text>
<text text-anchor="start" x="210" y="-163.8" font-family="Times New Roman,serif" font-size="14.00" fill="red">phyto&#45;</text>
<text text-anchor="start" x="210.5" y="-149.8" font-family="Times New Roman,serif" font-size="14.00" fill="red">&#45;phyte</text>
</g>
<!-- phutonG&#45;&gt;phytonNL -->
<g id="edge46" class="edge">
<title>phutonG&#45;&gt;phytonNL</title>
<path fill="none" stroke="black" stroke-dasharray="5,2" d="M223.74,-519.54C224.5,-464.73 226.84,-295.07 227.93,-216.15"/>
<polygon fill="black" stroke="black" points="231.43,-216.13 228.07,-206.09 224.43,-216.04 231.43,-216.13"/>
</g>
<!-- neophutosG -->
<g id="node53" class="node">
<title>neophutosG</title>
<text text-anchor="start" x="311" y="-444.3" font-family="Times New Roman,serif" font-size="14.00" fill="red">neophutos</text>
</g>
<!-- phutosG&#45;&gt;neophutosG -->
<g id="edge51" class="edge">
<title>phutosG&#45;&gt;neophutosG</title>
<path fill="none" stroke="black" d="M306,-519.61C312.16,-507 320.61,-489.71 327.6,-475.39"/>
<polygon fill="black" stroke="black" points="330.92,-476.57 332.17,-466.05 324.63,-473.5 330.92,-476.57"/>
</g>
<!-- physioE -->
<g id="node28" class="node">
<title>physioE</title>
<text text-anchor="start" x="676" y="-63.8" font-family="Times New Roman,serif" font-weight="bold" font-size="14.00">Modern</text>
<text text-anchor="start" x="677.5" y="-49.8" font-family="Times New Roman,serif" font-weight="bold" font-size="14.00">English</text>
<text text-anchor="start" x="679" y="-35.8" font-family="Times New Roman,serif" font-size="14.00" fill="red">physio&#45;</text>
</g>
<!-- phusioG&#45;&gt;physioE -->
<g id="edge27" class="edge">
<title>phusioG&#45;&gt;physioE</title>
<path fill="none" stroke="black" stroke-dasharray="5,2" d="M782.47,-519.88C777.39,-506.93 770.71,-488.59 766.5,-472 753.22,-419.66 747.5,-406 747.5,-352 747.5,-352 747.5,-352 747.5,-259 747.5,-197.4 727.09,-127.96 713.17,-87.77"/>
<polygon fill="black" stroke="black" points="716.42,-86.46 709.79,-78.2 709.82,-88.8 716.42,-86.46"/>
</g>
<!-- phusiognomiaG -->
<g id="node30" class="node">
<title>phusiognomiaG</title>
<text text-anchor="start" x="784" y="-451.8" font-family="Times New Roman,serif" font-size="14.00" fill="red">phusiognōmonia,</text>
<text text-anchor="start" x="786" y="-436.8" font-family="Times New Roman,serif" font-size="14.00" fill="red">phusiognōmoniā</text>
</g>
<!-- phusioG&#45;&gt;phusiognomiaG -->
<g id="edge28" class="edge">
<title>phusioG&#45;&gt;phusiognomiaG</title>
<path fill="none" stroke="black" d="M798,-519.61C804,-507.32 812.18,-490.59 819.06,-476.5"/>
<polygon fill="black" stroke="black" points="822.33,-477.78 823.58,-467.26 816.04,-474.71 822.33,-477.78"/>
</g>
<!-- phusikaG -->
<g id="node19" class="node">
<title>phusikaG</title>
<text text-anchor="start" x="963.5" y="-450.8" font-family="Times New Roman,serif" font-size="14.00" fill="red">(ta) phusika</text>
<text text-anchor="start" x="950" y="-438.4" font-family="Times New Roman,serif" font-size="12.00">(the things) of nature</text>
</g>
<!-- phusikosG&#45;&gt;phusikaG -->
<g id="edge18" class="edge">
<title>phusikosG&#45;&gt;phusikaG</title>
<path fill="none" stroke="black" d="M1042.24,-519.61C1033.91,-506.76 1022.43,-489.04 1013.06,-474.57"/>
<polygon fill="black" stroke="black" points="1015.92,-472.54 1007.54,-466.05 1010.04,-476.35 1015.92,-472.54"/>
</g>
<!-- phusikeG -->
<g id="node20" class="node">
<title>phusikeG</title>
<text text-anchor="start" x="1077" y="-444.3" font-family="Times New Roman,serif" font-size="14.00" fill="red">phusikē</text>
</g>
<!-- phusikosG&#45;&gt;phusikeG -->
<g id="edge19" class="edge">
<title>phusikosG&#45;&gt;phusikeG</title>
<path fill="none" stroke="black" d="M1062.39,-519.61C1068.9,-506.88 1077.86,-489.37 1085.22,-474.98"/>
<polygon fill="black" stroke="black" points="1088.34,-476.55 1089.78,-466.05 1082.11,-473.36 1088.34,-476.55"/>
</g>
<!-- physicusL -->
<g id="node33" class="node">
<title>physicusL</title>
<text text-anchor="start" x="1185" y="-354.8" font-family="Times New Roman,serif" font-weight="bold" font-size="14.00">Latin</text>
<text text-anchor="start" x="1176.5" y="-340.8" font-family="Times New Roman,serif" font-size="14.00" fill="red">physicus</text>
</g>
<!-- phusikosG&#45;&gt;physicusL -->
<g id="edge32" class="edge">
<title>phusikosG&#45;&gt;physicusL</title>
<path fill="none" stroke="black" stroke-dasharray="5,2" d="M1080.91,-519.81C1098.35,-507.92 1120.56,-490.88 1136.5,-472 1160.66,-443.4 1179.76,-404.38 1190.84,-378.71"/>
<polygon fill="black" stroke="black" points="1194.17,-379.82 1194.82,-369.24 1187.72,-377.1 1194.17,-379.82"/>
</g>
<!-- physicaL -->
<g id="node36" class="node">
<title>physicaL</title>
<text text-anchor="start" x="980" y="-354.8" font-family="Times New Roman,serif" font-weight="bold" font-size="14.00">Latin</text>
<text text-anchor="start" x="975" y="-340.8" font-family="Times New Roman,serif" font-size="14.00" fill="red">physica</text>
</g>
<!-- phusikaG&#45;&gt;physicaL -->
<g id="edge35" class="edge">
<title>phusikaG&#45;&gt;physicaL</title>
<path fill="none" stroke="black" stroke-dasharray="5,2" d="M996.5,-429.58C996.5,-415.65 996.5,-395.86 996.5,-379.76"/>
<polygon fill="black" stroke="black" points="1000,-379.31 996.5,-369.31 993,-379.31 1000,-379.31"/>
</g>
<!-- physiceL -->
<g id="node41" class="node">
<title>physiceL</title>
<text text-anchor="start" x="1082" y="-354.8" font-family="Times New Roman,serif" font-weight="bold" font-size="14.00">Latin</text>
<text text-anchor="start" x="1077" y="-340.8" font-family="Times New Roman,serif" font-size="14.00" fill="red">physice</text>
</g>
<!-- phusikeG&#45;&gt;physiceL -->
<g id="edge40" class="edge">
<title>phusikeG&#45;&gt;physiceL</title>
<path fill="none" stroke="black" stroke-dasharray="5,2" d="M1098.5,-429.58C1098.5,-415.65 1098.5,-395.86 1098.5,-379.76"/>
<polygon fill="black" stroke="black" points="1102,-379.31 1098.5,-369.31 1095,-379.31 1102,-379.31"/>
</g>
<!-- enIE -->
<g id="node21" class="node">
<title>enIE</title>
<g id="a_node21"><a xlink:href="en-in1.svg" xlink:title="&lt;b&gt;Indo&#45;&lt;br/&gt;European&lt;/b&gt;&lt;br/&gt;&lt;font color=&quot;red&quot;&gt;en&lt;/font&gt;&lt;br/&gt;&lt;font point&#45;size=&quot;12&quot;&gt;in&lt;/font&gt;">
<path fill="none" stroke="black" stroke-dasharray="5,2" d="M548,-894C548,-894 495,-894 495,-894 489,-894 483,-888 483,-882 483,-882 483,-844 483,-844 483,-838 489,-832 495,-832 495,-832 548,-832 548,-832 554,-832 560,-838 560,-844 560,-844 560,-882 560,-882 560,-888 554,-894 548,-894"/>
<text text-anchor="start" x="505" y="-879.8" font-family="Times New Roman,serif" font-weight="bold" font-size="14.00">Indo&#45;</text>
<text text-anchor="start" x="491" y="-865.8" font-family="Times New Roman,serif" font-weight="bold" font-size="14.00">European</text>
<text text-anchor="start" x="515" y="-851.8" font-family="Times New Roman,serif" font-size="14.00" fill="red">en</text>
<text text-anchor="start" x="517.5" y="-839.4" font-family="Times New Roman,serif" font-size="12.00">in</text>
</a>
</g>
</g>
<!-- enG -->
<g id="node22" class="node">
<title>enG</title>
<text text-anchor="start" x="466.5" y="-631.8" font-family="Times New Roman,serif" font-weight="bold" font-size="14.00">Greek</text>
<text text-anchor="start" x="477.5" y="-617.8" font-family="Times New Roman,serif" font-size="14.00" fill="red">en&#45;</text>
</g>
<!-- enIE&#45;&gt;enG -->
<g id="edge20" class="edge">
<title>enIE&#45;&gt;enG</title>
<path fill="none" stroke="black" d="M516.92,-831.54C510.04,-785.73 497.14,-699.81 490.57,-656.08"/>
<polygon fill="black" stroke="black" points="494.02,-655.53 489.08,-646.16 487.1,-656.57 494.02,-655.53"/>
</g>
<!-- enG&#45;&gt;emphueinG -->
<g id="edge22" class="edge">
<title>enG&#45;&gt;emphueinG</title>
<path fill="none" stroke="black" d="M479.59,-609.61C475.95,-600.47 471.34,-588.87 466.9,-577.73"/>
<polygon fill="black" stroke="black" points="470.03,-576.13 463.09,-568.13 463.53,-578.72 470.03,-576.13"/>
</g>
<!-- impotusL -->
<g id="node24" class="node">
<title>impotusL</title>
<text text-anchor="start" x="430" y="-457.8" font-family="Times New Roman,serif" font-weight="bold" font-size="14.00">Latin</text>
<text text-anchor="start" x="423.5" y="-443.8" font-family="Times New Roman,serif" font-size="14.00" fill="red">impotus</text>
<text text-anchor="start" x="436" y="-431.4" font-family="Times New Roman,serif" font-size="12.00">graft</text>
</g>
<!-- emphueinG&#45;&gt;impotusL -->
<g id="edge23" class="edge">
<title>emphueinG&#45;&gt;impotusL</title>
<path fill="none" stroke="black" stroke-dasharray="5,2" d="M449.84,-507.7C449.37,-499.54 448.87,-490.62 448.39,-482.26"/>
<polygon fill="black" stroke="black" points="451.87,-481.84 447.81,-472.06 444.88,-482.24 451.87,-481.84"/>
</g>
<!-- impianOE -->
<g id="node25" class="node">
<title>impianOE</title>
<text text-anchor="start" x="406" y="-373.8" font-family="Times New Roman,serif" font-weight="bold" font-size="14.00">Old English</text>
<text text-anchor="start" x="424" y="-359.8" font-family="Times New Roman,serif" font-size="14.00" fill="red">impian</text>
<text text-anchor="start" x="426" y="-347.4" font-family="Times New Roman,serif" font-size="12.00">to graft</text>
<text text-anchor="start" x="428.5" y="-333.8" font-family="Times New Roman,serif" font-size="14.00" fill="red">impa</text>
<text text-anchor="start" x="415" y="-321.4" font-family="Times New Roman,serif" font-size="12.00">young shoot</text>
</g>
<!-- impotusL&#45;&gt;impianOE -->
<g id="edge24" class="edge">
<title>impotusL&#45;&gt;impianOE</title>
<path fill="none" stroke="black" stroke-dasharray="5,2" d="M445.51,-423.52C445.19,-415.86 444.82,-407.06 444.45,-398.32"/>
<polygon fill="black" stroke="black" points="447.94,-398 444.02,-388.16 440.95,-398.3 447.94,-398"/>
</g>
<!-- impeME -->
<g id="node26" class="node">
<title>impeME</title>
<text text-anchor="start" x="421" y="-190.8" font-family="Times New Roman,serif" font-weight="bold" font-size="14.00">Middle</text>
<text text-anchor="start" x="419.5" y="-176.8" font-family="Times New Roman,serif" font-weight="bold" font-size="14.00">English</text>
<text text-anchor="start" x="428.5" y="-162.8" font-family="Times New Roman,serif" font-size="14.00" fill="red">impe</text>
<text text-anchor="start" x="422.5" y="-150.4" font-family="Times New Roman,serif" font-size="12.00">offspring</text>
</g>
<!-- impianOE&#45;&gt;impeME -->
<g id="edge25" class="edge">
<title>impianOE&#45;&gt;impeME</title>
<path fill="none" stroke="black" d="M442.5,-313.74C442.5,-284.99 442.5,-244.85 442.5,-215.14"/>
<polygon fill="black" stroke="black" points="446,-215.1 442.5,-205.1 439,-215.1 446,-215.1"/>
</g>
<!-- imp -->
<g id="node27" class="node">
<title>imp</title>
<text text-anchor="start" x="418" y="-63.8" font-family="Times New Roman,serif" font-weight="bold" font-size="14.00">Modern</text>
<text text-anchor="start" x="419.5" y="-49.8" font-family="Times New Roman,serif" font-weight="bold" font-size="14.00">English</text>
<text text-anchor="start" x="431.5" y="-35.8" font-family="Times New Roman,serif" font-size="14.00" fill="red">imp</text>
</g>
<!-- impeME&#45;&gt;imp -->
<g id="edge26" class="edge">
<title>impeME&#45;&gt;imp</title>
<path fill="none" stroke="black" d="M442.5,-142.97C442.5,-126.32 442.5,-105.55 442.5,-88.27"/>
<polygon fill="black" stroke="black" points="446,-88.03 442.5,-78.03 439,-88.03 446,-88.03"/>
</g>
<!-- gnomonG -->
<g id="node29" class="node">
<title>gnomonG</title>
<text text-anchor="start" x="845.5" y="-540.8" font-family="Times New Roman,serif" font-size="14.00" fill="red">gnōmōn, gnōmon&#45;</text>
<text text-anchor="start" x="874" y="-528.4" font-family="Times New Roman,serif" font-size="12.00">interpreter</text>
</g>
<!-- gnomonG&#45;&gt;phusiognomiaG -->
<g id="edge29" class="edge">
<title>gnomonG&#45;&gt;phusiognomiaG</title>
<path fill="none" stroke="black" d="M884.66,-519.61C875.41,-507.09 862.75,-489.95 852.22,-475.69"/>
<polygon fill="black" stroke="black" points="854.74,-473.22 845.99,-467.26 849.11,-477.38 854.74,-473.22"/>
</g>
<!-- physiognomiaL -->
<g id="node31" class="node">
<title>physiognomiaL</title>
<text text-anchor="start" x="811" y="-354.8" font-family="Times New Roman,serif" font-weight="bold" font-size="14.00">Latin</text>
<text text-anchor="start" x="788" y="-340.8" font-family="Times New Roman,serif" font-size="14.00" fill="red">physiognōmia</text>
</g>
<!-- phusiognomiaG&#45;&gt;physiognomiaL -->
<g id="edge30" class="edge">
<title>phusiognomiaG&#45;&gt;physiognomiaL</title>
<path fill="none" stroke="black" stroke-dasharray="5,2" d="M831.54,-428.68C830.8,-414.75 829.78,-395.35 828.95,-379.55"/>
<polygon fill="black" stroke="black" points="832.43,-379.1 828.41,-369.3 825.44,-379.47 832.43,-379.1"/>
</g>
<!-- physiognomy -->
<g id="node32" class="node">
<title>physiognomy</title>
<text text-anchor="start" x="759" y="-56.8" font-family="Times New Roman,serif" font-weight="bold" font-size="14.00">Modern English</text>
<text text-anchor="start" x="770.5" y="-42.8" font-family="Times New Roman,serif" font-size="14.00" fill="red">physiognomy</text>
</g>
<!-- physiognomiaL&#45;&gt;physiognomy -->
<g id="edge31" class="edge">
<title>physiognomiaL&#45;&gt;physiognomy</title>
<path fill="none" stroke="black" stroke-dasharray="5,2" d="M826.4,-332.81C823.24,-283.56 814.13,-141.64 810.26,-81.48"/>
<polygon fill="black" stroke="black" points="813.74,-81 809.61,-71.24 806.75,-81.44 813.74,-81"/>
</g>
<!-- physiqueF -->
<g id="node34" class="node">
<title>physiqueF</title>
<text text-anchor="start" x="1254.5" y="-177.8" font-family="Times New Roman,serif" font-weight="bold" font-size="14.00">French</text>
<text text-anchor="start" x="1251" y="-163.8" font-family="Times New Roman,serif" font-size="14.00" fill="red">physique</text>
</g>
<!-- physicusL&#45;&gt;physiqueF -->
<g id="edge33" class="edge">
<title>physicusL&#45;&gt;physiqueF</title>
<path fill="none" stroke="black" d="M1208.83,-332.9C1221.93,-302.32 1249.47,-238.06 1265.08,-201.65"/>
<polygon fill="black" stroke="black" points="1268.42,-202.74 1269.14,-192.17 1261.99,-199.98 1268.42,-202.74"/>
</g>
<!-- physique -->
<g id="node35" class="node">
<title>physique</title>
<text text-anchor="start" x="1257" y="-63.8" font-family="Times New Roman,serif" font-weight="bold" font-size="14.00">Modern</text>
<text text-anchor="start" x="1258.5" y="-49.8" font-family="Times New Roman,serif" font-weight="bold" font-size="14.00">English</text>
<text text-anchor="start" x="1256" y="-35.8" font-family="Times New Roman,serif" font-size="14.00" fill="red">physique</text>
</g>
<!-- physiqueF&#45;&gt;physique -->
<g id="edge34" class="edge">
<title>physiqueF&#45;&gt;physique</title>
<path fill="none" stroke="black" stroke-dasharray="5,2" d="M1277.22,-155.95C1277.96,-138.31 1279.14,-110.27 1280.07,-88.07"/>
<polygon fill="black" stroke="black" points="1283.57,-88.15 1280.49,-78.02 1276.57,-87.86 1283.57,-88.15"/>
</g>
<!-- physics -->
<g id="node37" class="node">
<title>physics</title>
<text text-anchor="start" x="892" y="-63.8" font-family="Times New Roman,serif" font-weight="bold" font-size="14.00">Modern</text>
<text text-anchor="start" x="893.5" y="-49.8" font-family="Times New Roman,serif" font-weight="bold" font-size="14.00">English</text>
<text text-anchor="start" x="895" y="-35.8" font-family="Times New Roman,serif" font-size="14.00" fill="red">physics</text>
</g>
<!-- physicaL&#45;&gt;physics -->
<g id="edge36" class="edge">
<title>physicaL&#45;&gt;physics</title>
<path fill="none" stroke="black" stroke-dasharray="5,2" d="M983.09,-333C972.78,-319.03 959.07,-298.3 951.5,-278 927.51,-213.64 919.96,-132.93 917.59,-88.08"/>
<polygon fill="black" stroke="black" points="921.08,-87.83 917.11,-78.01 914.09,-88.16 921.08,-87.83"/>
</g>
<!-- physicalisL -->
<g id="node38" class="node">
<title>physicalisL</title>
<text text-anchor="start" x="969" y="-256.3" font-family="Times New Roman,serif" font-size="14.00" fill="red">physicālis</text>
</g>
<!-- physicaL&#45;&gt;physicalisL -->
<g id="edge37" class="edge">
<title>physicaL&#45;&gt;physicalisL</title>
<path fill="none" stroke="black" d="M996.5,-332.84C996.5,-320.28 996.5,-302.98 996.5,-288.5"/>
<polygon fill="black" stroke="black" points="1000,-288.11 996.5,-278.11 993,-288.11 1000,-288.11"/>
</g>
<!-- phisicalME -->
<g id="node39" class="node">
<title>phisicalME</title>
<text text-anchor="start" x="976" y="-190.8" font-family="Times New Roman,serif" font-weight="bold" font-size="14.00">Middle</text>
<text text-anchor="start" x="974.5" y="-176.8" font-family="Times New Roman,serif" font-weight="bold" font-size="14.00">English</text>
<text text-anchor="start" x="976" y="-162.8" font-family="Times New Roman,serif" font-size="14.00" fill="red">phisical</text>
<text text-anchor="start" x="980" y="-150.4" font-family="Times New Roman,serif" font-size="12.00">medical</text>
</g>
<!-- physicalisL&#45;&gt;phisicalME -->
<g id="edge38" class="edge">
<title>physicalisL&#45;&gt;phisicalME</title>
<path fill="none" stroke="black" stroke-dasharray="5,2" d="M996.71,-241.6C996.8,-233.98 996.91,-224.71 997.02,-215.53"/>
<polygon fill="black" stroke="black" points="1000.52,-215.34 997.14,-205.29 993.52,-215.25 1000.52,-215.34"/>
</g>
<!-- physical -->
<g id="node40" class="node">
<title>physical</title>
<text text-anchor="start" x="975" y="-63.8" font-family="Times New Roman,serif" font-weight="bold" font-size="14.00">Modern</text>
<text text-anchor="start" x="976.5" y="-49.8" font-family="Times New Roman,serif" font-weight="bold" font-size="14.00">English</text>
<text text-anchor="start" x="976.5" y="-35.8" font-family="Times New Roman,serif" font-size="14.00" fill="red">physical</text>
</g>
<!-- phisicalME&#45;&gt;physical -->
<g id="edge39" class="edge">
<title>phisicalME&#45;&gt;physical</title>
<path fill="none" stroke="black" d="M998,-142.97C998.28,-126.32 998.63,-105.55 998.92,-88.27"/>
<polygon fill="black" stroke="black" points="1002.43,-88.09 999.1,-78.03 995.43,-87.97 1002.43,-88.09"/>
</g>
<!-- fisiqueOF -->
<g id="node42" class="node">
<title>fisiqueOF</title>
<text text-anchor="start" x="1063.5" y="-263.8" font-family="Times New Roman,serif" font-weight="bold" font-size="14.00">Old French</text>
<text text-anchor="start" x="1080" y="-249.8" font-family="Times New Roman,serif" font-size="14.00" fill="red">fisique</text>
</g>
<!-- physiceL&#45;&gt;fisiqueOF -->
<g id="edge41" class="edge">
<title>physiceL&#45;&gt;fisiqueOF</title>
<path fill="none" stroke="black" d="M1098.5,-332.84C1098.5,-320.28 1098.5,-302.98 1098.5,-288.5"/>
<polygon fill="black" stroke="black" points="1102,-288.11 1098.5,-278.11 1095,-288.11 1102,-288.11"/>
</g>
<!-- phisikME -->
<g id="node43" class="node">
<title>phisikME</title>
<text text-anchor="start" x="1076" y="-184.8" font-family="Times New Roman,serif" font-weight="bold" font-size="14.00">Middle</text>
<text text-anchor="start" x="1074.5" y="-170.8" font-family="Times New Roman,serif" font-weight="bold" font-size="14.00">English</text>
<text text-anchor="start" x="1080.5" y="-156.8" font-family="Times New Roman,serif" font-size="14.00" fill="red">phisik</text>
</g>
<!-- fisiqueOF&#45;&gt;phisikME -->
<g id="edge42" class="edge">
<title>fisiqueOF&#45;&gt;phisikME</title>
<path fill="none" stroke="black" stroke-dasharray="5,2" d="M1098.29,-241.6C1098.18,-232.27 1098.04,-220.45 1097.91,-209.37"/>
<polygon fill="black" stroke="black" points="1101.41,-209.03 1097.79,-199.07 1094.41,-209.11 1101.41,-209.03"/>
</g>
<!-- fisicienME -->
<g id="node44" class="node">
<title>fisicienME</title>
<text text-anchor="start" x="1166" y="-184.8" font-family="Times New Roman,serif" font-weight="bold" font-size="14.00">Middle</text>
<text text-anchor="start" x="1164.5" y="-170.8" font-family="Times New Roman,serif" font-weight="bold" font-size="14.00">English</text>
<text text-anchor="start" x="1167.5" y="-156.8" font-family="Times New Roman,serif" font-size="14.00" fill="red">fisicien</text>
</g>
<!-- fisiqueOF&#45;&gt;fisicienME -->
<g id="edge43" class="edge">
<title>fisiqueOF&#45;&gt;fisicienME</title>
<path fill="none" stroke="black" stroke-dasharray="5,2" d="M1116.94,-241.6C1127.84,-231.31 1141.95,-217.99 1154.69,-205.97"/>
<polygon fill="black" stroke="black" points="1157.13,-208.48 1162,-199.07 1152.32,-203.39 1157.13,-208.48"/>
</g>
<!-- physic -->
<g id="node45" class="node">
<title>physic</title>
<text text-anchor="start" x="1072" y="-69.8" font-family="Times New Roman,serif" font-weight="bold" font-size="14.00">Modern</text>
<text text-anchor="start" x="1073.5" y="-55.8" font-family="Times New Roman,serif" font-weight="bold" font-size="14.00">English</text>
<text text-anchor="start" x="1078" y="-41.8" font-family="Times New Roman,serif" font-size="14.00" fill="red">physic</text>
<text text-anchor="start" x="1058.5" y="-29.4" font-family="Times New Roman,serif" font-size="12.00">medicine, to heal</text>
</g>
<!-- phisikME&#45;&gt;physic -->
<g id="edge44" class="edge">
<title>phisikME&#45;&gt;physic</title>
<path fill="none" stroke="black" d="M1097.3,-148.92C1097.17,-133.29 1096.99,-112.54 1096.84,-94.42"/>
<polygon fill="black" stroke="black" points="1100.34,-94.37 1096.76,-84.4 1093.34,-94.43 1100.34,-94.37"/>
</g>
<!-- physician -->
<g id="node46" class="node">
<title>physician</title>
<text text-anchor="start" x="1171" y="-63.8" font-family="Times New Roman,serif" font-weight="bold" font-size="14.00">Modern</text>
<text text-anchor="start" x="1172.5" y="-49.8" font-family="Times New Roman,serif" font-weight="bold" font-size="14.00">English</text>
<text text-anchor="start" x="1169" y="-35.8" font-family="Times New Roman,serif" font-size="14.00" fill="red">physician</text>
</g>
<!-- fisicienME&#45;&gt;physician -->
<g id="edge45" class="edge">
<title>fisicienME&#45;&gt;physician</title>
<path fill="none" stroke="black" d="M1189.12,-148.92C1190.3,-131.42 1191.9,-107.49 1193.21,-88.04"/>
<polygon fill="black" stroke="black" points="1196.7,-88.26 1193.88,-78.05 1189.72,-87.79 1196.7,-88.26"/>
</g>
<!-- phyton -->
<g id="node48" class="node">
<title>phyton</title>
<text text-anchor="start" x="180" y="-70.8" font-family="Times New Roman,serif" font-weight="bold" font-size="14.00">Modern English</text>
<text text-anchor="start" x="209.5" y="-56.8" font-family="Times New Roman,serif" font-size="14.00" fill="red">phyton</text>
<text text-anchor="start" x="211" y="-42.8" font-family="Times New Roman,serif" font-size="14.00" fill="red">phyto&#45;</text>
<text text-anchor="start" x="211.5" y="-28.8" font-family="Times New Roman,serif" font-size="14.00" fill="red">&#45;phyte</text>
</g>
<!-- phytonNL&#45;&gt;phyton -->
<g id="edge47" class="edge">
<title>phytonNL&#45;&gt;phyton</title>
<path fill="none" stroke="black" stroke-dasharray="5,2" d="M228.76,-141.73C228.88,-127.52 229.03,-110.51 229.15,-95.27"/>
<polygon fill="black" stroke="black" points="232.65,-95.09 229.24,-85.06 225.66,-95.03 232.65,-95.09"/>
</g>
<!-- diphuesG -->
<g id="node49" class="node">
<title>diphuesG</title>
<text text-anchor="start" x="551.5" y="-450.8" font-family="Times New Roman,serif" font-size="14.00" fill="red">diphuēs</text>
<text text-anchor="start" x="558" y="-438.4" font-family="Times New Roman,serif" font-size="12.00">double</text>
</g>
<!-- diphuesG&#45;&gt;diphyodont -->
<g id="edge49" class="edge">
<title>diphuesG&#45;&gt;diphyodont</title>
<path fill="none" stroke="black" stroke-dasharray="5,2" d="M573.5,-429.86C573.5,-371.14 573.5,-177.05 573.5,-93.17"/>
<polygon fill="black" stroke="black" points="577,-93.04 573.5,-83.04 570,-93.04 577,-93.04"/>
</g>
<!-- odousG -->
<g id="node50" class="node">
<title>odousG</title>
<text text-anchor="start" x="630" y="-450.8" font-family="Times New Roman,serif" font-size="14.00" fill="red">odous, odont&#45;</text>
<text text-anchor="start" x="658.5" y="-438.4" font-family="Times New Roman,serif" font-size="12.00">tooth</text>
</g>
<!-- odousG&#45;&gt;diphyodont -->
<g id="edge50" class="edge">
<title>odousG&#45;&gt;diphyodont</title>
<path fill="none" stroke="black" stroke-dasharray="5,2" d="M666.27,-429.86C651.76,-371.08 603.77,-176.65 583.11,-92.92"/>
<polygon fill="black" stroke="black" points="586.46,-91.91 580.67,-83.04 579.67,-93.58 586.46,-91.91"/>
</g>
<!-- neoG -->
<g id="node52" class="node">
<title>neoG</title>
<text text-anchor="start" x="358" y="-540.8" font-family="Times New Roman,serif" font-size="14.00" fill="red">neo&#45;</text>
<text text-anchor="start" x="361" y="-528.4" font-family="Times New Roman,serif" font-size="12.00">new</text>
</g>
<!-- neoG&#45;&gt;neophutosG -->
<g id="edge52" class="edge">
<title>neoG&#45;&gt;neophutosG</title>
<path fill="none" stroke="black" d="M364.57,-519.61C360.31,-507.12 354.49,-490.04 349.64,-475.8"/>
<polygon fill="black" stroke="black" points="352.85,-474.39 346.31,-466.05 346.23,-476.64 352.85,-474.39"/>
</g>
<!-- neophytusL -->
<g id="node54" class="node">
<title>neophytusL</title>
<text text-anchor="start" x="324" y="-354.8" font-family="Times New Roman,serif" font-weight="bold" font-size="14.00">Latin</text>
<text text-anchor="start" x="311.5" y="-340.8" font-family="Times New Roman,serif" font-size="14.00" fill="red">neophytus</text>
</g>
<!-- neophutosG&#45;&gt;neophytusL -->
<g id="edge53" class="edge">
<title>neophutosG&#45;&gt;neophytusL</title>
<path fill="none" stroke="black" stroke-dasharray="5,2" d="M340.5,-429.58C340.5,-415.65 340.5,-395.86 340.5,-379.76"/>
<polygon fill="black" stroke="black" points="344,-379.31 340.5,-369.31 337,-379.31 344,-379.31"/>
</g>
<!-- neophyteME -->
<g id="node55" class="node">
<title>neophyteME</title>
<text text-anchor="start" x="319" y="-184.8" font-family="Times New Roman,serif" font-weight="bold" font-size="14.00">Middle</text>
<text text-anchor="start" x="317.5" y="-170.8" font-family="Times New Roman,serif" font-weight="bold" font-size="14.00">English</text>
<text text-anchor="start" x="314.5" y="-156.8" font-family="Times New Roman,serif" font-size="14.00" fill="red">neophyte</text>
</g>
<!-- neophytusL&#45;&gt;neophyteME -->
<g id="edge54" class="edge">
<title>neophytusL&#45;&gt;neophyteME</title>
<path fill="none" stroke="black" stroke-dasharray="5,2" d="M340.5,-332.9C340.5,-304.41 340.5,-246.68 340.5,-209.48"/>
<polygon fill="black" stroke="black" points="344,-209.11 340.5,-199.11 337,-209.11 344,-209.11"/>
</g>
<!-- neophyte -->
<g id="node56" class="node">
<title>neophyte</title>
<text text-anchor="start" x="316" y="-63.8" font-family="Times New Roman,serif" font-weight="bold" font-size="14.00">Modern</text>
<text text-anchor="start" x="317.5" y="-49.8" font-family="Times New Roman,serif" font-weight="bold" font-size="14.00">English</text>
<text text-anchor="start" x="314.5" y="-35.8" font-family="Times New Roman,serif" font-size="14.00" fill="red">neophyte</text>
</g>
<!-- neophyteME&#45;&gt;neophyte -->
<g id="edge55" class="edge">
<title>neophyteME&#45;&gt;neophyte</title>
<path fill="none" stroke="black" d="M340.5,-148.92C340.5,-131.5 340.5,-107.71 340.5,-88.31"/>
<polygon fill="black" stroke="black" points="344,-88.05 340.5,-78.05 337,-88.05 344,-88.05"/>
</g>
<!-- futureME -->
<g id="node59" class="node">
<title>futureME</title>
<text text-anchor="start" x="1440" y="-184.8" font-family="Times New Roman,serif" font-weight="bold" font-size="14.00">Middle</text>
<text text-anchor="start" x="1438.5" y="-170.8" font-family="Times New Roman,serif" font-weight="bold" font-size="14.00">English</text>
<text text-anchor="start" x="1445" y="-156.8" font-family="Times New Roman,serif" font-size="14.00" fill="red">future</text>
</g>
<!-- futurOF&#45;&gt;futureME -->
<g id="edge58" class="edge">
<title>futurOF&#45;&gt;futureME</title>
<path fill="none" stroke="black" stroke-dasharray="5,2" d="M1455.18,-332.9C1456.32,-304.41 1458.63,-246.68 1460.12,-209.48"/>
<polygon fill="black" stroke="black" points="1463.63,-209.24 1460.54,-199.11 1456.64,-208.96 1463.63,-209.24"/>
</g>
<!-- future -->
<g id="node60" class="node">
<title>future</title>
<text text-anchor="start" x="1440" y="-63.8" font-family="Times New Roman,serif" font-weight="bold" font-size="14.00">Modern</text>
<text text-anchor="start" x="1441.5" y="-49.8" font-family="Times New Roman,serif" font-weight="bold" font-size="14.00">English</text>
<text text-anchor="start" x="1448" y="-35.8" font-family="Times New Roman,serif" font-size="14.00" fill="red">future</text>
</g>
<!-- futureME&#45;&gt;future -->
<g id="edge59" class="edge">
<title>futureME&#45;&gt;future</title>
<path fill="none" stroke="black" d="M1462.11,-148.92C1462.55,-131.5 1463.15,-107.71 1463.64,-88.31"/>
<polygon fill="black" stroke="black" points="1467.14,-88.13 1463.89,-78.05 1460.14,-87.95 1467.14,-88.13"/>
</g>
</g>
</svg>
