<?xml version="1.0" encoding="UTF-8" standalone="no"?>
<!DOCTYPE svg PUBLIC "-//W3C//DTD SVG 1.1//EN"
 "http://www.w3.org/Graphics/SVG/1.1/DTD/svg11.dtd">
<!-- Generated by graphviz version 2.44.1 (20200629.0846)
 -->
<!-- Pages: 1 -->
<svg width="1064pt" height="903pt"
 viewBox="0.00 0.00 1063.50 903.00" xmlns="http://www.w3.org/2000/svg" xmlns:xlink="http://www.w3.org/1999/xlink">
<g id="graph0" class="graph" transform="scale(1 1) rotate(0) translate(4 899)">
<polygon fill="white" stroke="transparent" points="-4,4 -4,-899 1059.5,-899 1059.5,4 -4,4"/>
<!-- bheu -->
<g id="node1" class="node">
<title>bheu</title>
<text text-anchor="start" x="464.5" y="-880.8" font-family="Times New Roman,serif" font-weight="bold" font-size="14.00">Indo&#45;European</text>
<text text-anchor="start" x="418" y="-866.8" font-family="Times New Roman,serif" font-size="14.00" fill="red">bheuə&#45;, bheu&#45;</text>
<text text-anchor="start" x="495" y="-866.8" font-family="Times New Roman,serif" font-size="14.00"> &#160;&#160;to be, exist, grow</text>
</g>
<!-- bhue -->
<g id="node2" class="node">
<title>bhue</title>
<text text-anchor="start" x="431.5" y="-800.3" font-family="Times New Roman,serif" font-size="14.00" fill="red">bhuə&#45;, bhū&#45;</text>
</g>
<!-- bheu&#45;&gt;bhue -->
<g id="edge1" class="edge">
<title>bheu&#45;&gt;bhue</title>
<path fill="none" stroke="black" d="M499.62,-858.81C494.02,-850.35 487.16,-839.98 480.95,-830.61"/>
<polygon fill="black" stroke="black" points="483.71,-828.44 475.27,-822.03 477.87,-832.3 483.71,-828.44"/>
</g>
<!-- baumazGm -->
<g id="node30" class="node">
<title>baumazGm</title>
<text text-anchor="start" x="794.5" y="-647.8" font-family="Times New Roman,serif" font-weight="bold" font-size="14.00">Germanic</text>
<text text-anchor="start" x="778" y="-633.8" font-family="Times New Roman,serif" font-size="14.00" fill="red">baumaz, bagmaz</text>
<text text-anchor="start" x="816" y="-621.4" font-family="Times New Roman,serif" font-size="12.00">tree</text>
</g>
<!-- bheu&#45;&gt;baumazGm -->
<g id="edge29" class="edge">
<title>bheu&#45;&gt;baumazGm</title>
<path fill="none" stroke="black" d="M533.58,-858.96C586.71,-818.85 720.13,-718.15 786.4,-668.13"/>
<polygon fill="black" stroke="black" points="788.65,-670.82 794.53,-662 784.44,-665.23 788.65,-670.82"/>
<text text-anchor="middle" x="677.5" y="-756.8" font-family="Times New Roman,serif" font-size="14.00">?</text>
</g>
<!-- buramGm -->
<g id="node3" class="node">
<title>buramGm</title>
<text text-anchor="start" x="460.5" y="-647.8" font-family="Times New Roman,serif" font-weight="bold" font-size="14.00">Germanic</text>
<text text-anchor="start" x="473" y="-633.8" font-family="Times New Roman,serif" font-size="14.00" fill="red">būram</text>
<text text-anchor="start" x="456.5" y="-621.4" font-family="Times New Roman,serif" font-size="12.00">dweller, farmer</text>
</g>
<!-- bhue&#45;&gt;buramGm -->
<g id="edge2" class="edge">
<title>bhue&#45;&gt;buramGm</title>
<path fill="none" stroke="black" d="M466.84,-785.76C471.27,-758.85 479.9,-706.41 485.56,-672.05"/>
<polygon fill="black" stroke="black" points="489.04,-672.45 487.21,-662.02 482.13,-671.32 489.04,-672.45"/>
</g>
<!-- buwiGm -->
<g id="node4" class="node">
<title>buwiGm</title>
<text text-anchor="start" x="190.5" y="-641.8" font-family="Times New Roman,serif" font-weight="bold" font-size="14.00">Germanic</text>
<text text-anchor="start" x="205" y="-627.8" font-family="Times New Roman,serif" font-size="14.00" fill="red">būwi&#45;</text>
</g>
<!-- bhue&#45;&gt;buwiGm -->
<g id="edge3" class="edge">
<title>bhue&#45;&gt;buwiGm</title>
<path fill="none" stroke="black" d="M438.45,-785.76C394.31,-755.97 303.78,-694.87 254.6,-661.67"/>
<polygon fill="black" stroke="black" points="256.45,-658.7 246.2,-656.01 252.53,-664.51 256.45,-658.7"/>
</g>
<!-- bhulo -->
<g id="node5" class="node">
<title>bhulo</title>
<text text-anchor="start" x="390.5" y="-713.3" font-family="Times New Roman,serif" font-size="14.00" fill="red">bhū&#45;lo&#45;</text>
</g>
<!-- bhue&#45;&gt;bhulo -->
<g id="edge4" class="edge">
<title>bhue&#45;&gt;bhulo</title>
<path fill="none" stroke="black" d="M453.27,-785.8C445.73,-773.7 435.51,-757.3 427,-743.67"/>
<polygon fill="black" stroke="black" points="429.97,-741.81 421.71,-735.18 424.03,-745.51 429.97,-741.81"/>
</g>
<!-- burOE -->
<g id="node6" class="node">
<title>burOE</title>
<text text-anchor="start" x="304.5" y="-562.8" font-family="Times New Roman,serif" font-weight="bold" font-size="14.00">Old English</text>
<text text-anchor="start" x="331.5" y="-548.8" font-family="Times New Roman,serif" font-size="14.00" fill="red">būr</text>
<text text-anchor="start" x="302.5" y="-536.4" font-family="Times New Roman,serif" font-size="12.00">&quot;dwelling space,&quot;</text>
<text text-anchor="start" x="311" y="-524.4" font-family="Times New Roman,serif" font-size="12.00">bower, room</text>
</g>
<!-- buramGm&#45;&gt;burOE -->
<g id="edge5" class="edge">
<title>buramGm&#45;&gt;burOE</title>
<path fill="none" stroke="black" d="M451.98,-613.85C434.97,-603.76 414.72,-591.74 396.21,-580.76"/>
<polygon fill="black" stroke="black" points="397.95,-577.72 387.56,-575.63 394.38,-583.74 397.95,-577.72"/>
</g>
<!-- gheboerMD -->
<g id="node7" class="node">
<title>gheboerMD</title>
<text text-anchor="start" x="485.5" y="-484.8" font-family="Times New Roman,serif" font-weight="bold" font-size="14.00">Middle</text>
<text text-anchor="start" x="488.5" y="-470.8" font-family="Times New Roman,serif" font-weight="bold" font-size="14.00">Dutch</text>
<text text-anchor="start" x="458.5" y="-456.8" font-family="Times New Roman,serif" font-size="14.00" fill="red">gheboer, ghebuer</text>
<text text-anchor="start" x="489.5" y="-444.4" font-family="Times New Roman,serif" font-size="12.00">peasant</text>
</g>
<!-- buramGm&#45;&gt;gheboerMD -->
<g id="edge6" class="edge">
<title>buramGm&#45;&gt;gheboerMD</title>
<path fill="none" stroke="black" d="M493.19,-613.99C495.76,-587.07 500.05,-542.01 503.17,-509.26"/>
<polygon fill="black" stroke="black" points="506.67,-509.39 504.13,-499.1 499.7,-508.72 506.67,-509.39"/>
</g>
<!-- byrON -->
<g id="node20" class="node">
<title>byrON</title>
<text text-anchor="start" x="8" y="-556.8" font-family="Times New Roman,serif" font-weight="bold" font-size="14.00">Old Norse</text>
<text text-anchor="start" x="30.5" y="-542.8" font-family="Times New Roman,serif" font-size="14.00" fill="red">bȳr</text>
<text text-anchor="start" x="17" y="-530.4" font-family="Times New Roman,serif" font-size="12.00">settlement</text>
</g>
<!-- buwiGm&#45;&gt;byrON -->
<g id="edge19" class="edge">
<title>buwiGm&#45;&gt;byrON</title>
<path fill="none" stroke="black" d="M182.35,-620.74C155.76,-609.24 119.8,-593.06 89,-577 88.33,-576.65 87.65,-576.29 86.97,-575.93"/>
<polygon fill="black" stroke="black" points="88.48,-572.77 78.03,-571.04 85.12,-578.91 88.48,-572.77"/>
</g>
<!-- phulonG -->
<g id="node25" class="node">
<title>phulonG</title>
<text text-anchor="start" x="378" y="-647.8" font-family="Times New Roman,serif" font-weight="bold" font-size="14.00">Greek</text>
<text text-anchor="start" x="378.5" y="-633.8" font-family="Times New Roman,serif" font-size="14.00" fill="red">phūlon</text>
<text text-anchor="start" x="374" y="-621.4" font-family="Times New Roman,serif" font-size="12.00">race, class</text>
</g>
<!-- bhulo&#45;&gt;phulonG -->
<g id="edge24" class="edge">
<title>bhulo&#45;&gt;phulonG</title>
<path fill="none" stroke="black" d="M408.11,-698.91C406.79,-691.06 405.17,-681.46 403.62,-672.27"/>
<polygon fill="black" stroke="black" points="407.03,-671.45 401.91,-662.17 400.13,-672.62 407.03,-671.45"/>
</g>
<!-- geburOE -->
<g id="node9" class="node">
<title>geburOE</title>
<text text-anchor="start" x="196.5" y="-404.8" font-family="Times New Roman,serif" font-weight="bold" font-size="14.00">Old English</text>
<text text-anchor="start" x="217" y="-390.8" font-family="Times New Roman,serif" font-size="14.00" fill="red">gebūr</text>
<text text-anchor="start" x="216" y="-378.4" font-family="Times New Roman,serif" font-size="12.00">dweller</text>
</g>
<!-- burOE&#45;&gt;geburOE -->
<g id="edge7" class="edge">
<title>burOE&#45;&gt;geburOE</title>
<path fill="none" stroke="black" d="M319.92,-516.72C301.42,-491.03 274.58,-453.75 255.63,-427.43"/>
<polygon fill="black" stroke="black" points="258.46,-425.37 249.78,-419.3 252.78,-429.46 258.46,-425.37"/>
</g>
<!-- bourME -->
<g id="node10" class="node">
<title>bourME</title>
<text text-anchor="start" x="342.5" y="-216.8" font-family="Times New Roman,serif" font-weight="bold" font-size="14.00">Middle</text>
<text text-anchor="start" x="341" y="-202.8" font-family="Times New Roman,serif" font-weight="bold" font-size="14.00">English</text>
<text text-anchor="start" x="350.5" y="-188.8" font-family="Times New Roman,serif" font-size="14.00" fill="red">bour</text>
</g>
<!-- burOE&#45;&gt;bourME -->
<g id="edge9" class="edge">
<title>burOE&#45;&gt;bourME</title>
<path fill="none" stroke="black" d="M346.12,-516.85C350.4,-491.18 356.22,-452.73 359,-419 364.14,-356.56 364.66,-283.44 364.43,-241.45"/>
<polygon fill="black" stroke="black" points="367.92,-241.19 364.35,-231.21 360.92,-241.24 367.92,-241.19"/>
</g>
<!-- boerD -->
<g id="node16" class="node">
<title>boerD</title>
<text text-anchor="start" x="515.5" y="-270.8" font-family="Times New Roman,serif" font-weight="bold" font-size="14.00">Dutch</text>
<text text-anchor="start" x="521" y="-256.8" font-family="Times New Roman,serif" font-size="14.00" fill="red">boer</text>
</g>
<!-- gheboerMD&#45;&gt;boerD -->
<g id="edge15" class="edge">
<title>gheboerMD&#45;&gt;boerD</title>
<path fill="none" stroke="black" d="M511.1,-436.78C516.32,-398.28 525.27,-332.32 530.3,-295.29"/>
<polygon fill="black" stroke="black" points="533.79,-295.6 531.66,-285.22 526.85,-294.66 533.79,-295.6"/>
</g>
<!-- geOE -->
<g id="node8" class="node">
<title>geOE</title>
<text text-anchor="start" x="229" y="-549.8" font-family="Times New Roman,serif" font-size="14.00" fill="red">ge&#45;</text>
<text text-anchor="start" x="216.5" y="-537.4" font-family="Times New Roman,serif" font-size="12.00">together?</text>
</g>
<!-- geOE&#45;&gt;geburOE -->
<g id="edge8" class="edge">
<title>geOE&#45;&gt;geburOE</title>
<path fill="none" stroke="black" d="M237.43,-528.79C236.62,-504.63 235.14,-460.16 234.11,-429.38"/>
<polygon fill="black" stroke="black" points="237.6,-429 233.77,-419.12 230.61,-429.23 237.6,-429"/>
</g>
<!-- neahgeburOE -->
<g id="node13" class="node">
<title>neahgeburOE</title>
<text text-anchor="start" x="230" y="-263.3" font-family="Times New Roman,serif" font-size="14.00" fill="red">nēahgebūr</text>
</g>
<!-- geburOE&#45;&gt;neahgeburOE -->
<g id="edge11" class="edge">
<title>geburOE&#45;&gt;neahgeburOE</title>
<path fill="none" stroke="black" d="M237.77,-370.89C242.17,-349.55 248.72,-317.83 253.38,-295.25"/>
<polygon fill="black" stroke="black" points="256.84,-295.8 255.43,-285.3 249.98,-294.38 256.84,-295.8"/>
</g>
<!-- bower -->
<g id="node11" class="node">
<title>bower</title>
<text text-anchor="start" x="333.5" y="-41.8" font-family="Times New Roman,serif" font-weight="bold" font-size="14.00">Modern</text>
<text text-anchor="start" x="335" y="-27.8" font-family="Times New Roman,serif" font-weight="bold" font-size="14.00">English</text>
<text text-anchor="start" x="340" y="-13.8" font-family="Times New Roman,serif" font-size="14.00" fill="red">bower</text>
</g>
<!-- bourME&#45;&gt;bower -->
<g id="edge10" class="edge">
<title>bourME&#45;&gt;bower</title>
<path fill="none" stroke="black" d="M363.17,-180.95C362.13,-151.2 360.37,-100.38 359.2,-66.49"/>
<polygon fill="black" stroke="black" points="362.68,-66 358.84,-56.13 355.69,-66.24 362.68,-66"/>
</g>
<!-- neahOE -->
<g id="node12" class="node">
<title>neahOE</title>
<text text-anchor="start" x="310" y="-397.8" font-family="Times New Roman,serif" font-size="14.00" fill="red">nēah</text>
<text text-anchor="start" x="313" y="-385.4" font-family="Times New Roman,serif" font-size="12.00">near</text>
</g>
<!-- neahOE&#45;&gt;neahgeburOE -->
<g id="edge12" class="edge">
<title>neahOE&#45;&gt;neahgeburOE</title>
<path fill="none" stroke="black" d="M314.24,-376.74C303.42,-355.44 284.91,-319 272.32,-294.23"/>
<polygon fill="black" stroke="black" points="275.31,-292.38 267.66,-285.05 269.07,-295.55 275.31,-292.38"/>
</g>
<!-- neigheborME -->
<g id="node14" class="node">
<title>neigheborME</title>
<text text-anchor="start" x="237.5" y="-148.8" font-family="Times New Roman,serif" font-weight="bold" font-size="14.00">Middle</text>
<text text-anchor="start" x="236" y="-134.8" font-family="Times New Roman,serif" font-weight="bold" font-size="14.00">English</text>
<text text-anchor="start" x="231.5" y="-120.8" font-family="Times New Roman,serif" font-size="14.00" fill="red">neighebor</text>
</g>
<!-- neahgeburOE&#45;&gt;neigheborME -->
<g id="edge13" class="edge">
<title>neahgeburOE&#45;&gt;neigheborME</title>
<path fill="none" stroke="black" d="M259,-248.87C259,-229.65 259,-197.95 259,-173.53"/>
<polygon fill="black" stroke="black" points="262.5,-173.23 259,-163.23 255.5,-173.23 262.5,-173.23"/>
</g>
<!-- neighbor -->
<g id="node15" class="node">
<title>neighbor</title>
<text text-anchor="start" x="234.5" y="-41.8" font-family="Times New Roman,serif" font-weight="bold" font-size="14.00">Modern</text>
<text text-anchor="start" x="236" y="-27.8" font-family="Times New Roman,serif" font-weight="bold" font-size="14.00">English</text>
<text text-anchor="start" x="234.5" y="-13.8" font-family="Times New Roman,serif" font-size="14.00" fill="red">neighbor</text>
</g>
<!-- neigheborME&#45;&gt;neighbor -->
<g id="edge14" class="edge">
<title>neigheborME&#45;&gt;neighbor</title>
<path fill="none" stroke="black" d="M259,-112.91C259,-99.14 259,-81.63 259,-66.42"/>
<polygon fill="black" stroke="black" points="262.5,-66.34 259,-56.34 255.5,-66.34 262.5,-66.34"/>
</g>
<!-- boor -->
<g id="node17" class="node">
<title>boor</title>
<text text-anchor="start" x="509.5" y="-41.8" font-family="Times New Roman,serif" font-weight="bold" font-size="14.00">Modern</text>
<text text-anchor="start" x="511" y="-27.8" font-family="Times New Roman,serif" font-weight="bold" font-size="14.00">English</text>
<text text-anchor="start" x="520" y="-13.8" font-family="Times New Roman,serif" font-size="14.00" fill="red">boor</text>
</g>
<!-- boerD&#45;&gt;boor -->
<g id="edge16" class="edge">
<title>boerD&#45;&gt;boor</title>
<path fill="none" stroke="black" stroke-dasharray="1,5" d="M534,-248.79C534,-210.36 534,-116.96 534,-66.2"/>
<polygon fill="black" stroke="black" points="537.5,-66.05 534,-56.05 530.5,-66.05 537.5,-66.05"/>
</g>
<!-- boerA -->
<g id="node18" class="node">
<title>boerA</title>
<text text-anchor="start" x="578.5" y="-141.8" font-family="Times New Roman,serif" font-weight="bold" font-size="14.00">Afrikaans</text>
<text text-anchor="start" x="595" y="-127.8" font-family="Times New Roman,serif" font-size="14.00" fill="red">Boer</text>
</g>
<!-- boerD&#45;&gt;boerA -->
<g id="edge17" class="edge">
<title>boerD&#45;&gt;boerA</title>
<path fill="none" stroke="black" d="M544.11,-248.87C556.86,-227.28 578.9,-189.97 593.71,-164.9"/>
<polygon fill="black" stroke="black" points="596.73,-166.65 598.81,-156.26 590.71,-163.09 596.73,-166.65"/>
</g>
<!-- boerE -->
<g id="node19" class="node">
<title>boerE</title>
<text text-anchor="start" x="592.5" y="-41.8" font-family="Times New Roman,serif" font-weight="bold" font-size="14.00">Modern</text>
<text text-anchor="start" x="594" y="-27.8" font-family="Times New Roman,serif" font-weight="bold" font-size="14.00">English</text>
<text text-anchor="start" x="603" y="-13.8" font-family="Times New Roman,serif" font-size="14.00" fill="red">Boer</text>
</g>
<!-- boerA&#45;&gt;boerE -->
<g id="edge18" class="edge">
<title>boerA&#45;&gt;boerE</title>
<path fill="none" stroke="black" stroke-dasharray="1,5" d="M610.32,-119.66C611.43,-105.15 613.04,-84.01 614.4,-66.12"/>
<polygon fill="black" stroke="black" points="617.9,-66.28 615.17,-56.04 610.92,-65.75 617.9,-66.28"/>
</g>
<!-- bylagD -->
<g id="node22" class="node">
<title>bylagD</title>
<text text-anchor="start" x="34.5" y="-404.8" font-family="Times New Roman,serif" font-weight="bold" font-size="14.00">Danish</text>
<text text-anchor="start" x="38.5" y="-390.8" font-family="Times New Roman,serif" font-size="14.00" fill="red">by&#45;lag</text>
<text text-anchor="start" x="12" y="-378.4" font-family="Times New Roman,serif" font-size="12.00">township ordinance</text>
</g>
<!-- byrON&#45;&gt;bylagD -->
<g id="edge20" class="edge">
<title>byrON&#45;&gt;bylagD</title>
<path fill="none" stroke="black" d="M42.46,-522.89C45.12,-497.97 49.38,-458.05 52.41,-429.65"/>
<polygon fill="black" stroke="black" points="55.93,-429.7 53.51,-419.38 48.96,-428.95 55.93,-429.7"/>
</g>
<!-- laguON -->
<g id="node21" class="node">
<title>laguON</title>
<text text-anchor="start" x="113.5" y="-549.8" font-family="Times New Roman,serif" font-size="14.00" fill="red">lagu</text>
<text text-anchor="start" x="117" y="-537.4" font-family="Times New Roman,serif" font-size="12.00">law</text>
</g>
<!-- laguON&#45;&gt;bylagD -->
<g id="edge21" class="edge">
<title>laguON&#45;&gt;bylagD</title>
<path fill="none" stroke="black" d="M117.08,-528.79C105.87,-504.42 85.16,-459.39 70.99,-428.58"/>
<polygon fill="black" stroke="black" points="73.99,-426.74 66.64,-419.12 67.64,-429.67 73.99,-426.74"/>
</g>
<!-- bilaweME -->
<g id="node23" class="node">
<title>bilaweME</title>
<text text-anchor="start" x="34.5" y="-216.8" font-family="Times New Roman,serif" font-weight="bold" font-size="14.00">Middle</text>
<text text-anchor="start" x="33" y="-202.8" font-family="Times New Roman,serif" font-weight="bold" font-size="14.00">English</text>
<text text-anchor="start" x="38" y="-188.8" font-family="Times New Roman,serif" font-size="14.00" fill="red">bilawe</text>
</g>
<!-- bylagD&#45;&gt;bilaweME -->
<g id="edge22" class="edge">
<title>bylagD&#45;&gt;bilaweME</title>
<path fill="none" stroke="black" stroke-dasharray="1,5" d="M56,-370.69C56,-338.26 56,-279.26 56,-241.66"/>
<polygon fill="black" stroke="black" points="59.5,-241.19 56,-231.19 52.5,-241.19 59.5,-241.19"/>
</g>
<!-- bylaw -->
<g id="node24" class="node">
<title>bylaw</title>
<text text-anchor="start" x="31.5" y="-41.8" font-family="Times New Roman,serif" font-weight="bold" font-size="14.00">Modern</text>
<text text-anchor="start" x="33" y="-27.8" font-family="Times New Roman,serif" font-weight="bold" font-size="14.00">English</text>
<text text-anchor="start" x="39" y="-13.8" font-family="Times New Roman,serif" font-size="14.00" fill="red">bylaw</text>
</g>
<!-- bilaweME&#45;&gt;bylaw -->
<g id="edge23" class="edge">
<title>bilaweME&#45;&gt;bylaw</title>
<path fill="none" stroke="black" d="M56,-180.95C56,-151.2 56,-100.38 56,-66.49"/>
<polygon fill="black" stroke="black" points="59.5,-66.13 56,-56.13 52.5,-66.13 59.5,-66.13"/>
</g>
<!-- phylumNL -->
<g id="node26" class="node">
<title>phylumNL</title>
<text text-anchor="start" x="148" y="-471.8" font-family="Times New Roman,serif" font-weight="bold" font-size="14.00">New Latin</text>
<text text-anchor="start" x="159" y="-457.8" font-family="Times New Roman,serif" font-size="14.00" fill="red">phȳlum</text>
</g>
<!-- phulonG&#45;&gt;phylumNL -->
<g id="edge25" class="edge">
<title>phulonG&#45;&gt;phylumNL</title>
<path fill="none" stroke="black" stroke-dasharray="1,5" d="M365.68,-631.47C315.22,-622.18 221.16,-601.96 199,-577 179.6,-555.15 176.63,-520.67 177.37,-496.57"/>
<polygon fill="black" stroke="black" points="180.88,-496.48 177.92,-486.31 173.89,-496.11 180.88,-496.48"/>
</g>
<!-- phylogeny -->
<g id="node27" class="node">
<title>phylogeny</title>
<text text-anchor="start" x="421.5" y="-41.8" font-family="Times New Roman,serif" font-weight="bold" font-size="14.00">Modern</text>
<text text-anchor="start" x="423" y="-27.8" font-family="Times New Roman,serif" font-weight="bold" font-size="14.00">English</text>
<text text-anchor="start" x="417" y="-13.8" font-family="Times New Roman,serif" font-size="14.00" fill="red">phylogeny</text>
</g>
<!-- phulonG&#45;&gt;phylogeny -->
<g id="edge26" class="edge">
<title>phulonG&#45;&gt;phylogeny</title>
<path fill="none" stroke="black" stroke-dasharray="1,5" d="M405.32,-613.84C410.3,-596.02 416,-570.7 416,-548 416,-548 416,-548 416,-137 416,-112.4 423.71,-85.76 431.31,-65.47"/>
<polygon fill="black" stroke="black" points="434.61,-66.64 435,-56.05 428.09,-64.09 434.61,-66.64"/>
</g>
<!-- phylum -->
<g id="node28" class="node">
<title>phylum</title>
<text text-anchor="start" x="135.5" y="-41.8" font-family="Times New Roman,serif" font-weight="bold" font-size="14.00">Modern</text>
<text text-anchor="start" x="137" y="-27.8" font-family="Times New Roman,serif" font-weight="bold" font-size="14.00">English</text>
<text text-anchor="start" x="139" y="-13.8" font-family="Times New Roman,serif" font-size="14.00" fill="red">phylum</text>
</g>
<!-- phylumNL&#45;&gt;phylum -->
<g id="edge27" class="edge">
<title>phylumNL&#45;&gt;phylum</title>
<path fill="none" stroke="black" d="M175.86,-449.69C170,-423.66 160,-372.82 160,-329 160,-329 160,-329 160,-137 160,-113.4 160,-86.83 160,-66.31"/>
<polygon fill="black" stroke="black" points="163.5,-66.19 160,-56.19 156.5,-66.19 163.5,-66.19"/>
</g>
<!-- genyE -->
<g id="node29" class="node">
<title>genyE</title>
<text text-anchor="start" x="452" y="-147.8" font-family="Times New Roman,serif" font-weight="bold" font-size="14.00">English</text>
<text text-anchor="start" x="459.5" y="-133.8" font-family="Times New Roman,serif" font-size="14.00" fill="red">&#45;geny</text>
<text text-anchor="start" x="462.5" y="-121.4" font-family="Times New Roman,serif" font-size="12.00">origin</text>
</g>
<!-- genyE&#45;&gt;phylogeny -->
<g id="edge28" class="edge">
<title>genyE&#45;&gt;phylogeny</title>
<path fill="none" stroke="black" d="M468.64,-113.96C464.75,-99.89 459.72,-81.66 455.38,-65.96"/>
<polygon fill="black" stroke="black" points="458.69,-64.79 452.65,-56.08 451.94,-66.65 458.69,-64.79"/>
</g>
<!-- beamOE -->
<g id="node31" class="node">
<title>beamOE</title>
<text text-anchor="start" x="845.5" y="-556.8" font-family="Times New Roman,serif" font-weight="bold" font-size="14.00">Old English</text>
<text text-anchor="start" x="866.5" y="-542.8" font-family="Times New Roman,serif" font-size="14.00" fill="red">bēam</text>
<text text-anchor="start" x="857.5" y="-530.4" font-family="Times New Roman,serif" font-size="12.00">tree, beam</text>
</g>
<!-- baumazGm&#45;&gt;beamOE -->
<g id="edge30" class="edge">
<title>baumazGm&#45;&gt;beamOE</title>
<path fill="none" stroke="black" d="M839.98,-613.62C846.59,-603.29 854.46,-591 861.6,-579.86"/>
<polygon fill="black" stroke="black" points="864.68,-581.54 867.12,-571.23 858.78,-577.76 864.68,-581.54"/>
</g>
<!-- boomMD -->
<g id="node32" class="node">
<title>boomMD</title>
<text text-anchor="start" x="971.5" y="-557.8" font-family="Times New Roman,serif" font-weight="bold" font-size="14.00">Middle</text>
<text text-anchor="start" x="974.5" y="-543.8" font-family="Times New Roman,serif" font-weight="bold" font-size="14.00">Dutch</text>
<text text-anchor="start" x="976" y="-529.8" font-family="Times New Roman,serif" font-size="14.00" fill="red">boom</text>
</g>
<!-- baumazGm&#45;&gt;boomMD -->
<g id="edge31" class="edge">
<title>baumazGm&#45;&gt;boomMD</title>
<path fill="none" stroke="black" d="M868.7,-613.85C895.2,-599.81 928.7,-582.06 954.25,-568.53"/>
<polygon fill="black" stroke="black" points="956.08,-571.52 963.27,-563.75 952.8,-565.34 956.08,-571.52"/>
</g>
<!-- boomFl -->
<g id="node33" class="node">
<title>boomFl</title>
<text text-anchor="start" x="773.5" y="-471.8" font-family="Times New Roman,serif" font-weight="bold" font-size="14.00">Flemish</text>
<text text-anchor="start" x="781" y="-457.8" font-family="Times New Roman,serif" font-size="14.00" fill="red">boom</text>
</g>
<!-- baumazGm&#45;&gt;boomFl -->
<g id="edge32" class="edge">
<title>baumazGm&#45;&gt;boomFl</title>
<path fill="none" stroke="black" d="M821.3,-613.99C816.37,-583.31 807.66,-529.08 802.39,-496.35"/>
<polygon fill="black" stroke="black" points="805.8,-495.45 800.75,-486.13 798.88,-496.56 805.8,-495.45"/>
</g>
<!-- bemME -->
<g id="node34" class="node">
<title>bemME</title>
<text text-anchor="start" x="862.5" y="-338.8" font-family="Times New Roman,serif" font-weight="bold" font-size="14.00">Middle</text>
<text text-anchor="start" x="861" y="-324.8" font-family="Times New Roman,serif" font-weight="bold" font-size="14.00">English</text>
<text text-anchor="start" x="871.5" y="-310.8" font-family="Times New Roman,serif" font-size="14.00" fill="red">bem</text>
</g>
<!-- beamOE&#45;&gt;bemME -->
<g id="edge33" class="edge">
<title>beamOE&#45;&gt;bemME</title>
<path fill="none" stroke="black" d="M882.21,-522.78C882.57,-484.41 883.28,-407.63 883.69,-363.1"/>
<polygon fill="black" stroke="black" points="887.19,-363.08 883.78,-353.05 880.19,-363.01 887.19,-363.08"/>
</g>
<!-- boomD -->
<g id="node36" class="node">
<title>boomD</title>
<text text-anchor="start" x="977.5" y="-337.8" font-family="Times New Roman,serif" font-weight="bold" font-size="14.00">Dutch</text>
<text text-anchor="start" x="979" y="-323.8" font-family="Times New Roman,serif" font-size="14.00" fill="red">boom</text>
<text text-anchor="start" x="974.5" y="-311.4" font-family="Times New Roman,serif" font-size="12.00">tree, pole</text>
</g>
<!-- boomMD&#45;&gt;boomD -->
<g id="edge35" class="edge">
<title>boomMD&#45;&gt;boomD</title>
<path fill="none" stroke="black" d="M993.33,-521.95C993.87,-483.11 994.93,-406.48 995.54,-362.38"/>
<polygon fill="black" stroke="black" points="999.04,-362.22 995.68,-352.17 992.04,-362.12 999.04,-362.22"/>
</g>
<!-- boomkenFl -->
<g id="node38" class="node">
<title>boomkenFl</title>
<text text-anchor="start" x="768.5" y="-140.8" font-family="Times New Roman,serif" font-size="14.00" fill="red">boomken</text>
<text text-anchor="start" x="782.5" y="-128.4" font-family="Times New Roman,serif" font-size="12.00">shrub</text>
</g>
<!-- boomFl&#45;&gt;boomkenFl -->
<g id="edge37" class="edge">
<title>boomFl&#45;&gt;boomkenFl</title>
<path fill="none" stroke="black" d="M797.84,-449.83C797.35,-396.25 795.85,-231.83 795.25,-166.34"/>
<polygon fill="black" stroke="black" points="798.75,-165.97 795.16,-156 791.75,-166.03 798.75,-165.97"/>
</g>
<!-- beam -->
<g id="node35" class="node">
<title>beam</title>
<text text-anchor="start" x="865.5" y="-41.8" font-family="Times New Roman,serif" font-weight="bold" font-size="14.00">Modern</text>
<text text-anchor="start" x="867" y="-27.8" font-family="Times New Roman,serif" font-weight="bold" font-size="14.00">English</text>
<text text-anchor="start" x="874.5" y="-13.8" font-family="Times New Roman,serif" font-size="14.00" fill="red">beam</text>
</g>
<!-- bemME&#45;&gt;beam -->
<g id="edge34" class="edge">
<title>bemME&#45;&gt;beam</title>
<path fill="none" stroke="black" d="M884.49,-302.86C885.56,-250.54 888.08,-126.58 889.3,-66.22"/>
<polygon fill="black" stroke="black" points="892.81,-66.13 889.51,-56.06 885.81,-65.99 892.81,-66.13"/>
</g>
<!-- boom -->
<g id="node37" class="node">
<title>boom</title>
<text text-anchor="start" x="948.5" y="-40.8" font-family="Times New Roman,serif" font-weight="bold" font-size="14.00">Modern English</text>
<text text-anchor="start" x="981" y="-26.8" font-family="Times New Roman,serif" font-size="14.00" fill="red">boom</text>
<text text-anchor="start" x="988" y="-14.4" font-family="Times New Roman,serif" font-size="12.00">pole</text>
</g>
<!-- boomD&#45;&gt;boom -->
<g id="edge36" class="edge">
<title>boomD&#45;&gt;boom</title>
<path fill="none" stroke="black" stroke-dasharray="1,5" d="M996.16,-303.85C996.51,-251.83 997.37,-125.51 997.78,-65.17"/>
<polygon fill="black" stroke="black" points="1001.28,-65.06 997.84,-55.04 994.28,-65.02 1001.28,-65.06"/>
</g>
<!-- bumpkin1 -->
<g id="node39" class="node">
<title>bumpkin1</title>
<text text-anchor="start" x="675.5" y="-47.8" font-family="Times New Roman,serif" font-weight="bold" font-size="14.00">Modern</text>
<text text-anchor="start" x="677" y="-33.8" font-family="Times New Roman,serif" font-weight="bold" font-size="14.00">English</text>
<text text-anchor="start" x="675.5" y="-19.8" font-family="Times New Roman,serif" font-size="14.00" fill="red">bumpkin</text>
<text text-anchor="start" x="687.5" y="-7.4" font-family="Times New Roman,serif" font-size="12.00">yokel</text>
</g>
<!-- boomkenFl&#45;&gt;bumpkin1 -->
<g id="edge38" class="edge">
<title>boomkenFl&#45;&gt;bumpkin1</title>
<path fill="none" stroke="black" stroke-dasharray="1,5" d="M779.31,-119.66C767.06,-106.12 749.59,-86.81 734.17,-69.76"/>
<polygon fill="black" stroke="black" points="736.55,-67.18 727.25,-62.12 731.36,-71.88 736.55,-67.18"/>
<text text-anchor="middle" x="760.5" y="-83.8" font-family="Times New Roman,serif" font-size="14.00">?</text>
</g>
<!-- bumpkin2 -->
<g id="node40" class="node">
<title>bumpkin2</title>
<text text-anchor="start" x="770.5" y="-47.8" font-family="Times New Roman,serif" font-weight="bold" font-size="14.00">Modern</text>
<text text-anchor="start" x="772" y="-33.8" font-family="Times New Roman,serif" font-weight="bold" font-size="14.00">English</text>
<text text-anchor="start" x="770.5" y="-19.8" font-family="Times New Roman,serif" font-size="14.00" fill="red">bumpkin</text>
<text text-anchor="start" x="759" y="-7.4" font-family="Times New Roman,serif" font-size="12.00">a spar on a ship</text>
</g>
<!-- boomkenFl&#45;&gt;bumpkin2 -->
<g id="edge39" class="edge">
<title>boomkenFl&#45;&gt;bumpkin2</title>
<path fill="none" stroke="black" stroke-dasharray="1,5" d="M795,-119.66C795,-106.86 795,-88.89 795,-72.55"/>
<polygon fill="black" stroke="black" points="798.5,-72.12 795,-62.12 791.5,-72.12 798.5,-72.12"/>
<text text-anchor="middle" x="798.5" y="-83.8" font-family="Times New Roman,serif" font-size="14.00">?</text>
</g>
</g>
</svg>
