<?xml version="1.0" encoding="UTF-8" standalone="no"?>
<!DOCTYPE svg PUBLIC "-//W3C//DTD SVG 1.1//EN"
 "http://www.w3.org/Graphics/SVG/1.1/DTD/svg11.dtd">
<!-- Generated by graphviz version 2.44.1 (20200629.0846)
 -->
<!-- Pages: 1 -->
<svg width="910pt" height="566pt"
 viewBox="0.00 0.00 910.00 566.00" xmlns="http://www.w3.org/2000/svg" xmlns:xlink="http://www.w3.org/1999/xlink">
<g id="graph0" class="graph" transform="scale(1 1) rotate(0) translate(4 562)">
<polygon fill="white" stroke="transparent" points="-4,4 -4,-562 906,-562 906,4 -4,4"/>
<!-- bhleg -->
<g id="node1" class="node">
<title>bhleg</title>
<text text-anchor="start" x="508" y="-537.8" font-family="Times New Roman,serif" font-weight="bold" font-size="14.00">Indo&#45;European</text>
<text text-anchor="start" x="509.5" y="-523.8" font-family="Times New Roman,serif" font-size="14.00" fill="red">bhleg&#45;</text>
<text text-anchor="start" x="544.5" y="-523.8" font-family="Times New Roman,serif" font-size="14.00"> &#160;&#160;to blaze</text>
</g>
<!-- flammaL -->
<g id="node2" class="node">
<title>flammaL</title>
<text text-anchor="start" x="538" y="-459.8" font-family="Times New Roman,serif" font-weight="bold" font-size="14.00">Latin</text>
<text text-anchor="start" x="534" y="-445.8" font-family="Times New Roman,serif" font-size="14.00" fill="red">flamma</text>
<text text-anchor="start" x="542" y="-433.4" font-family="Times New Roman,serif" font-size="12.00">flame</text>
</g>
<!-- bhleg&#45;&gt;flammaL -->
<g id="edge1" class="edge">
<title>bhleg&#45;&gt;flammaL</title>
<path fill="none" stroke="black" d="M554.5,-515.61C554.5,-506.58 554.5,-495.24 554.5,-484.59"/>
<polygon fill="black" stroke="black" points="558,-484.28 554.5,-474.28 551,-484.28 558,-484.28"/>
</g>
<!-- flagrareL -->
<g id="node23" class="node">
<title>flagrareL</title>
<text text-anchor="start" x="187" y="-459.8" font-family="Times New Roman,serif" font-weight="bold" font-size="14.00">Latin</text>
<text text-anchor="start" x="182.5" y="-445.8" font-family="Times New Roman,serif" font-size="14.00" fill="red">flagrāre</text>
<text text-anchor="start" x="187" y="-433.4" font-family="Times New Roman,serif" font-size="12.00">to burn</text>
</g>
<!-- bhleg&#45;&gt;flagrareL -->
<g id="edge22" class="edge">
<title>bhleg&#45;&gt;flagrareL</title>
<path fill="none" stroke="black" d="M499.66,-520.19C428.24,-503.5 305.17,-474.75 242.55,-460.12"/>
<polygon fill="black" stroke="black" points="243.21,-456.68 232.67,-457.82 241.61,-463.5 243.21,-456.68"/>
</g>
<!-- fulgereL -->
<g id="node33" class="node">
<title>fulgereL</title>
<text text-anchor="start" x="643" y="-459.8" font-family="Times New Roman,serif" font-weight="bold" font-size="14.00">Latin</text>
<text text-anchor="start" x="640.5" y="-445.8" font-family="Times New Roman,serif" font-size="14.00" fill="red">fulgēre</text>
<text text-anchor="start" x="642" y="-433.4" font-family="Times New Roman,serif" font-size="12.00">to shine</text>
</g>
<!-- bhleg&#45;&gt;fulgereL -->
<g id="edge32" class="edge">
<title>bhleg&#45;&gt;fulgereL</title>
<path fill="none" stroke="black" d="M576.51,-515.81C590.34,-505.01 608.48,-490.84 624.28,-478.51"/>
<polygon fill="black" stroke="black" points="626.56,-481.16 632.29,-472.25 622.25,-475.65 626.56,-481.16"/>
</g>
<!-- flameOF -->
<g id="node3" class="node">
<title>flameOF</title>
<text text-anchor="start" x="571.5" y="-291.8" font-family="Times New Roman,serif" font-weight="bold" font-size="14.00">Old French</text>
<text text-anchor="start" x="591" y="-277.8" font-family="Times New Roman,serif" font-size="14.00" fill="red">flame</text>
</g>
<!-- flammaL&#45;&gt;flameOF -->
<g id="edge2" class="edge">
<title>flammaL&#45;&gt;flameOF</title>
<path fill="none" stroke="black" d="M562.06,-425.73C571.53,-396.61 587.71,-346.82 597.71,-316.04"/>
<polygon fill="black" stroke="black" points="601.09,-316.97 600.85,-306.38 594.43,-314.81 601.09,-316.97"/>
</g>
<!-- flammulaL -->
<g id="node6" class="node">
<title>flammulaL</title>
<text text-anchor="start" x="633" y="-374.8" font-family="Times New Roman,serif" font-size="14.00" fill="red">flammula, flamble</text>
<text text-anchor="start" x="659.5" y="-362.4" font-family="Times New Roman,serif" font-size="12.00">little flame</text>
</g>
<!-- flammaL&#45;&gt;flammulaL -->
<g id="edge5" class="edge">
<title>flammaL&#45;&gt;flammulaL</title>
<path fill="none" stroke="black" d="M583.23,-431.94C601.38,-421.17 625.04,-407.12 644.71,-395.44"/>
<polygon fill="black" stroke="black" points="646.62,-398.38 653.43,-390.26 643.04,-392.36 646.62,-398.38"/>
</g>
<!-- flamencPr -->
<g id="node14" class="node">
<title>flamencPr</title>
<text text-anchor="start" x="472.5" y="-303.8" font-family="Times New Roman,serif" font-weight="bold" font-size="14.00">Provençal</text>
<text text-anchor="start" x="481.5" y="-289.8" font-family="Times New Roman,serif" font-size="14.00" fill="red">flamenc</text>
<text text-anchor="start" x="469.5" y="-277.4" font-family="Times New Roman,serif" font-size="12.00">&quot;of the flames,&quot;</text>
<text text-anchor="start" x="485" y="-265.4" font-family="Times New Roman,serif" font-size="12.00">fire&#45;bird</text>
</g>
<!-- flammaL&#45;&gt;flamencPr -->
<g id="edge13" class="edge">
<title>flammaL&#45;&gt;flamencPr</title>
<path fill="none" stroke="black" d="M547.08,-425.73C538.94,-400.19 525.74,-358.76 515.99,-328.18"/>
<polygon fill="black" stroke="black" points="519.2,-326.74 512.83,-318.27 512.53,-328.86 519.2,-326.74"/>
</g>
<!-- flammareL -->
<g id="node17" class="node">
<title>flammareL</title>
<text text-anchor="start" x="413" y="-374.8" font-family="Times New Roman,serif" font-size="14.00" fill="red">flamāre</text>
<text text-anchor="start" x="405" y="-362.4" font-family="Times New Roman,serif" font-size="12.00">to set on fire</text>
</g>
<!-- flammaL&#45;&gt;flammareL -->
<g id="edge16" class="edge">
<title>flammaL&#45;&gt;flammareL</title>
<path fill="none" stroke="black" d="M525.82,-430.99C508.89,-420.35 487.3,-406.79 469.26,-395.46"/>
<polygon fill="black" stroke="black" points="471.05,-392.45 460.72,-390.1 467.33,-398.38 471.05,-392.45"/>
</g>
<!-- flameME -->
<g id="node4" class="node">
<title>flameME</title>
<text text-anchor="start" x="585" y="-135.8" font-family="Times New Roman,serif" font-weight="bold" font-size="14.00">Middle</text>
<text text-anchor="start" x="583.5" y="-121.8" font-family="Times New Roman,serif" font-weight="bold" font-size="14.00">English</text>
<text text-anchor="start" x="591" y="-107.8" font-family="Times New Roman,serif" font-size="14.00" fill="red">flame</text>
</g>
<!-- flameOF&#45;&gt;flameME -->
<g id="edge3" class="edge">
<title>flameOF&#45;&gt;flameME</title>
<path fill="none" stroke="black" stroke-dasharray="1,5" d="M606.5,-269.77C606.5,-243.78 606.5,-194.04 606.5,-160.43"/>
<polygon fill="black" stroke="black" points="610,-160.14 606.5,-150.14 603,-160.14 610,-160.14"/>
</g>
<!-- flame -->
<g id="node5" class="node">
<title>flame</title>
<text text-anchor="start" x="581" y="-42.8" font-family="Times New Roman,serif" font-weight="bold" font-size="14.00">Modern</text>
<text text-anchor="start" x="582.5" y="-28.8" font-family="Times New Roman,serif" font-weight="bold" font-size="14.00">English</text>
<text text-anchor="start" x="590" y="-14.8" font-family="Times New Roman,serif" font-size="14.00" fill="red">flame</text>
</g>
<!-- flameME&#45;&gt;flame -->
<g id="edge4" class="edge">
<title>flameME&#45;&gt;flame</title>
<path fill="none" stroke="black" d="M606.23,-99.61C606.12,-89.74 606,-78.17 605.88,-67.46"/>
<polygon fill="black" stroke="black" points="609.38,-67.1 605.77,-57.14 602.38,-67.18 609.38,-67.1"/>
</g>
<!-- flambeOF -->
<g id="node7" class="node">
<title>flambeOF</title>
<text text-anchor="start" x="675.5" y="-291.8" font-family="Times New Roman,serif" font-weight="bold" font-size="14.00">Old French</text>
<text text-anchor="start" x="691.5" y="-277.8" font-family="Times New Roman,serif" font-size="14.00" fill="red">flambe</text>
</g>
<!-- flammulaL&#45;&gt;flambeOF -->
<g id="edge6" class="edge">
<title>flammulaL&#45;&gt;flambeOF</title>
<path fill="none" stroke="black" d="M688.44,-353.61C692.21,-342.56 697.17,-328.03 701.43,-315.55"/>
<polygon fill="black" stroke="black" points="704.75,-316.68 704.67,-306.08 698.12,-314.42 704.75,-316.68"/>
</g>
<!-- flamberOF -->
<g id="node8" class="node">
<title>flamberOF</title>
<text text-anchor="start" x="668" y="-206.8" font-family="Times New Roman,serif" font-size="14.00" fill="red">flamber</text>
<text text-anchor="start" x="671.5" y="-194.4" font-family="Times New Roman,serif" font-size="12.00">to blaze</text>
</g>
<!-- flambeOF&#45;&gt;flamberOF -->
<g id="edge7" class="edge">
<title>flambeOF&#45;&gt;flamberOF</title>
<path fill="none" stroke="black" d="M706.05,-269.61C703.24,-258.66 699.57,-244.31 696.39,-231.92"/>
<polygon fill="black" stroke="black" points="699.75,-230.9 693.88,-222.08 692.97,-232.64 699.75,-230.9"/>
</g>
<!-- flamboyerOF -->
<g id="node11" class="node">
<title>flamboyerOF</title>
<text text-anchor="start" x="750" y="-206.8" font-family="Times New Roman,serif" font-size="14.00" fill="red">flamboyer</text>
<text text-anchor="start" x="760.5" y="-194.4" font-family="Times New Roman,serif" font-size="12.00">to blaze</text>
</g>
<!-- flambeOF&#45;&gt;flamboyerOF -->
<g id="edge10" class="edge">
<title>flambeOF&#45;&gt;flamboyerOF</title>
<path fill="none" stroke="black" d="M724.92,-269.61C734.45,-258.12 747.09,-242.87 757.71,-230.07"/>
<polygon fill="black" stroke="black" points="760.64,-232.02 764.33,-222.08 755.26,-227.55 760.64,-232.02"/>
</g>
<!-- flambeF -->
<g id="node9" class="node">
<title>flambeF</title>
<text text-anchor="start" x="663.5" y="-128.8" font-family="Times New Roman,serif" font-weight="bold" font-size="14.00">French</text>
<text text-anchor="start" x="666.5" y="-114.8" font-family="Times New Roman,serif" font-size="14.00" fill="red">flambé</text>
</g>
<!-- flamberOF&#45;&gt;flambeF -->
<g id="edge8" class="edge">
<title>flamberOF&#45;&gt;flambeF</title>
<path fill="none" stroke="black" d="M688.61,-185.91C688.12,-176.34 687.48,-164.18 686.92,-153.32"/>
<polygon fill="black" stroke="black" points="690.4,-152.85 686.39,-143.04 683.41,-153.21 690.4,-152.85"/>
</g>
<!-- flambe -->
<g id="node10" class="node">
<title>flambe</title>
<text text-anchor="start" x="664" y="-42.8" font-family="Times New Roman,serif" font-weight="bold" font-size="14.00">Modern</text>
<text text-anchor="start" x="665.5" y="-28.8" font-family="Times New Roman,serif" font-weight="bold" font-size="14.00">English</text>
<text text-anchor="start" x="669.5" y="-14.8" font-family="Times New Roman,serif" font-size="14.00" fill="red">flambé</text>
</g>
<!-- flambeF&#45;&gt;flambe -->
<g id="edge9" class="edge">
<title>flambeF&#45;&gt;flambe</title>
<path fill="none" stroke="black" stroke-dasharray="1,5" d="M686.06,-106.88C686.43,-95.83 686.92,-81.06 687.36,-67.64"/>
<polygon fill="black" stroke="black" points="690.87,-67.36 687.7,-57.25 683.87,-67.13 690.87,-67.36"/>
</g>
<!-- flamboyantF -->
<g id="node12" class="node">
<title>flamboyantF</title>
<text text-anchor="start" x="765.5" y="-134.8" font-family="Times New Roman,serif" font-weight="bold" font-size="14.00">French</text>
<text text-anchor="start" x="756" y="-120.8" font-family="Times New Roman,serif" font-size="14.00" fill="red">flamboyant</text>
<text text-anchor="start" x="741.5" y="-108.4" font-family="Times New Roman,serif" font-size="12.00">an architectural style</text>
</g>
<!-- flamboyerOF&#45;&gt;flamboyantF -->
<g id="edge11" class="edge">
<title>flamboyerOF&#45;&gt;flamboyantF</title>
<path fill="none" stroke="black" d="M780.5,-185.91C781.42,-178.06 782.54,-168.46 783.61,-159.27"/>
<polygon fill="black" stroke="black" points="787.11,-159.51 784.79,-149.17 780.15,-158.7 787.11,-159.51"/>
</g>
<!-- flamboyant -->
<g id="node13" class="node">
<title>flamboyant</title>
<text text-anchor="start" x="755" y="-42.8" font-family="Times New Roman,serif" font-weight="bold" font-size="14.00">Modern</text>
<text text-anchor="start" x="756.5" y="-28.8" font-family="Times New Roman,serif" font-weight="bold" font-size="14.00">English</text>
<text text-anchor="start" x="748" y="-14.8" font-family="Times New Roman,serif" font-size="14.00" fill="red">flamboyant</text>
</g>
<!-- flamboyantF&#45;&gt;flamboyant -->
<g id="edge12" class="edge">
<title>flamboyantF&#45;&gt;flamboyant</title>
<path fill="none" stroke="black" stroke-dasharray="1,5" d="M785.44,-100.57C784.56,-90.51 783.5,-78.55 782.53,-67.52"/>
<polygon fill="black" stroke="black" points="786,-66.96 781.64,-57.31 779.03,-67.58 786,-66.96"/>
</g>
<!-- flamengoPt -->
<g id="node15" class="node">
<title>flamengoPt</title>
<text text-anchor="start" x="474.5" y="-128.8" font-family="Times New Roman,serif" font-weight="bold" font-size="14.00">Portuguese</text>
<text text-anchor="start" x="483.5" y="-114.8" font-family="Times New Roman,serif" font-size="14.00" fill="red">flamengo</text>
</g>
<!-- flamencPr&#45;&gt;flamengoPt -->
<g id="edge14" class="edge">
<title>flamencPr&#45;&gt;flamengoPt</title>
<path fill="none" stroke="black" stroke-dasharray="1,5" d="M504.59,-257.84C505.69,-228.11 507.4,-182.35 508.48,-153.31"/>
<polygon fill="black" stroke="black" points="511.99,-153.19 508.86,-143.06 504.99,-152.92 511.99,-153.19"/>
</g>
<!-- flamingo -->
<g id="node16" class="node">
<title>flamingo</title>
<text text-anchor="start" x="497" y="-42.8" font-family="Times New Roman,serif" font-weight="bold" font-size="14.00">Modern</text>
<text text-anchor="start" x="498.5" y="-28.8" font-family="Times New Roman,serif" font-weight="bold" font-size="14.00">English</text>
<text text-anchor="start" x="497" y="-14.8" font-family="Times New Roman,serif" font-size="14.00" fill="red">flamingo</text>
</g>
<!-- flamengoPt&#45;&gt;flamingo -->
<g id="edge15" class="edge">
<title>flamengoPt&#45;&gt;flamingo</title>
<path fill="none" stroke="black" stroke-dasharray="1,5" d="M511.76,-106.88C513.23,-95.72 515.2,-80.77 516.99,-67.24"/>
<polygon fill="black" stroke="black" points="520.46,-67.62 518.3,-57.25 513.52,-66.71 520.46,-67.62"/>
</g>
<!-- flammable -->
<g id="node18" class="node">
<title>flammable</title>
<text text-anchor="start" x="409" y="-42.8" font-family="Times New Roman,serif" font-weight="bold" font-size="14.00">Modern</text>
<text text-anchor="start" x="410.5" y="-28.8" font-family="Times New Roman,serif" font-weight="bold" font-size="14.00">English</text>
<text text-anchor="start" x="404.5" y="-14.8" font-family="Times New Roman,serif" font-size="14.00" fill="red">flammable</text>
</g>
<!-- flammareL&#45;&gt;flammable -->
<g id="edge19" class="edge">
<title>flammareL&#45;&gt;flammable</title>
<path fill="none" stroke="black" stroke-dasharray="1,5" d="M433.5,-353.77C433.5,-300.67 433.5,-138.78 433.5,-67.41"/>
<polygon fill="black" stroke="black" points="437,-67.17 433.5,-57.17 430,-67.17 437,-67.17"/>
</g>
<!-- inflammareL -->
<g id="node19" class="node">
<title>inflammareL</title>
<text text-anchor="start" x="327" y="-290.8" font-family="Times New Roman,serif" font-size="14.00" fill="red">inflamāre</text>
<text text-anchor="start" x="330.5" y="-278.4" font-family="Times New Roman,serif" font-size="12.00">to inflame</text>
</g>
<!-- flammareL&#45;&gt;inflammareL -->
<g id="edge17" class="edge">
<title>flammareL&#45;&gt;inflammareL</title>
<path fill="none" stroke="black" d="M416.32,-353.61C404.75,-341.9 389.33,-326.29 376.55,-313.35"/>
<polygon fill="black" stroke="black" points="378.89,-310.74 369.38,-306.08 373.91,-315.66 378.89,-310.74"/>
</g>
<!-- inflame -->
<g id="node20" class="node">
<title>inflame</title>
<text text-anchor="start" x="312" y="-49.8" font-family="Times New Roman,serif" font-weight="bold" font-size="14.00">Modern</text>
<text text-anchor="start" x="313.5" y="-35.8" font-family="Times New Roman,serif" font-weight="bold" font-size="14.00">English</text>
<text text-anchor="start" x="316.5" y="-21.8" font-family="Times New Roman,serif" font-size="14.00" fill="red">inflame</text>
<text text-anchor="start" x="303" y="-7.8" font-family="Times New Roman,serif" font-size="14.00" fill="red">inflammable</text>
</g>
<!-- inflammareL&#45;&gt;inflame -->
<g id="edge18" class="edge">
<title>inflammareL&#45;&gt;inflame</title>
<path fill="none" stroke="black" stroke-dasharray="1,5" d="M351.43,-269.94C348.93,-230.25 342.66,-130.82 339.09,-74.18"/>
<polygon fill="black" stroke="black" points="342.58,-73.88 338.46,-64.12 335.6,-74.32 342.58,-73.88"/>
</g>
<!-- enIE -->
<g id="node21" class="node">
<title>enIE</title>
<g id="a_node21"><a xlink:href="en-in.svg" xlink:title="&lt;b&gt;Indo&#45;European&lt;/b&gt;&lt;br/&gt;&lt;font color=&quot;red&quot;&gt;en&lt;/font&gt;&lt;br/&gt;&lt;font point&#45;size=&quot;12&quot;&gt;in, into&lt;/font&gt;">
<path fill="none" stroke="black" stroke-dasharray="5,2" d="M395,-558C395,-558 310,-558 310,-558 304,-558 298,-552 298,-546 298,-546 298,-522 298,-522 298,-516 304,-510 310,-510 310,-510 395,-510 395,-510 401,-510 407,-516 407,-522 407,-522 407,-546 407,-546 407,-552 401,-558 395,-558"/>
<text text-anchor="start" x="306" y="-543.8" font-family="Times New Roman,serif" font-weight="bold" font-size="14.00">Indo&#45;European</text>
<text text-anchor="start" x="346" y="-529.8" font-family="Times New Roman,serif" font-size="14.00" fill="red">en</text>
<text text-anchor="start" x="337" y="-517.4" font-family="Times New Roman,serif" font-size="12.00">in, into</text>
</a>
</g>
</g>
<!-- inL -->
<g id="node22" class="node">
<title>inL</title>
<text text-anchor="start" x="336" y="-453.8" font-family="Times New Roman,serif" font-weight="bold" font-size="14.00">Latin</text>
<text text-anchor="start" x="345" y="-439.8" font-family="Times New Roman,serif" font-size="14.00" fill="red">in&#45;</text>
</g>
<!-- enIE&#45;&gt;inL -->
<g id="edge20" class="edge">
<title>enIE&#45;&gt;inL</title>
<path fill="none" stroke="black" d="M352.5,-509.72C352.5,-499.88 352.5,-488.36 352.5,-478.13"/>
<polygon fill="black" stroke="black" points="356,-478.08 352.5,-468.08 349,-478.08 356,-478.08"/>
</g>
<!-- inL&#45;&gt;inflammareL -->
<g id="edge21" class="edge">
<title>inL&#45;&gt;inflammareL</title>
<path fill="none" stroke="black" d="M352.5,-431.88C352.5,-404.35 352.5,-350.01 352.5,-316.85"/>
<polygon fill="black" stroke="black" points="356,-316.48 352.5,-306.48 349,-316.48 356,-316.48"/>
</g>
<!-- flagransL -->
<g id="node24" class="node">
<title>flagransL</title>
<text text-anchor="start" x="155" y="-368.3" font-family="Times New Roman,serif" font-size="14.00" fill="red">flagrāns, flagrant&#45;</text>
</g>
<!-- flagrareL&#45;&gt;flagransL -->
<g id="edge23" class="edge">
<title>flagrareL&#45;&gt;flagransL</title>
<path fill="none" stroke="black" d="M203.5,-425.78C203.5,-417.68 203.5,-408.52 203.5,-400.12"/>
<polygon fill="black" stroke="black" points="207,-400.04 203.5,-390.04 200,-400.04 207,-400.04"/>
</g>
<!-- conflagrareL -->
<g id="node28" class="node">
<title>conflagrareL</title>
<text text-anchor="start" x="34" y="-374.8" font-family="Times New Roman,serif" font-size="14.00" fill="red">conflagrāre</text>
<text text-anchor="start" x="42" y="-362.4" font-family="Times New Roman,serif" font-size="12.00">to burn up</text>
</g>
<!-- flagrareL&#45;&gt;conflagrareL -->
<g id="edge27" class="edge">
<title>flagrareL&#45;&gt;conflagrareL</title>
<path fill="none" stroke="black" d="M174.23,-432.88C154.21,-421.85 127.41,-407.09 105.42,-394.99"/>
<polygon fill="black" stroke="black" points="107.09,-391.91 96.64,-390.15 103.71,-398.04 107.09,-391.91"/>
</g>
<!-- flagrantedeL -->
<g id="node25" class="node">
<title>flagrantedeL</title>
<text text-anchor="start" x="159" y="-296.8" font-family="Times New Roman,serif" font-size="14.00" fill="red">flagrante delicto</text>
<text text-anchor="start" x="170" y="-284.4" font-family="Times New Roman,serif" font-size="12.00">&quot;with the crime</text>
<text text-anchor="start" x="177.5" y="-272.4" font-family="Times New Roman,serif" font-size="12.00">still blazing&quot;</text>
</g>
<!-- flagransL&#45;&gt;flagrantedeL -->
<g id="edge24" class="edge">
<title>flagransL&#45;&gt;flagrantedeL</title>
<path fill="none" stroke="black" d="M203.5,-353.61C203.5,-344.2 203.5,-332.28 203.5,-321.25"/>
<polygon fill="black" stroke="black" points="207,-321.06 203.5,-311.06 200,-321.06 207,-321.06"/>
</g>
<!-- flagrantede -->
<g id="node26" class="node">
<title>flagrantede</title>
<text text-anchor="start" x="126" y="-49.8" font-family="Times New Roman,serif" font-weight="bold" font-size="14.00">Modern</text>
<text text-anchor="start" x="127.5" y="-35.8" font-family="Times New Roman,serif" font-weight="bold" font-size="14.00">English</text>
<text text-anchor="start" x="115.5" y="-21.8" font-family="Times New Roman,serif" font-size="14.00" fill="red">(in) flagrante</text>
<text text-anchor="start" x="131.5" y="-7.8" font-family="Times New Roman,serif" font-size="14.00" fill="red">delicto</text>
</g>
<!-- flagrantedeL&#45;&gt;flagrantede -->
<g id="edge25" class="edge">
<title>flagrantedeL&#45;&gt;flagrantede</title>
<path fill="none" stroke="black" stroke-dasharray="1,5" d="M198.89,-264.9C190.02,-222.38 170.44,-128.58 159.1,-74.2"/>
<polygon fill="black" stroke="black" points="162.48,-73.28 157.01,-64.2 155.63,-74.71 162.48,-73.28"/>
</g>
<!-- flagrant -->
<g id="node27" class="node">
<title>flagrant</title>
<text text-anchor="start" x="220" y="-48.8" font-family="Times New Roman,serif" font-weight="bold" font-size="14.00">Modern</text>
<text text-anchor="start" x="221.5" y="-34.8" font-family="Times New Roman,serif" font-weight="bold" font-size="14.00">English</text>
<text text-anchor="start" x="223.5" y="-20.8" font-family="Times New Roman,serif" font-size="14.00" fill="red">flagrant</text>
<text text-anchor="start" x="224.5" y="-8.4" font-family="Times New Roman,serif" font-size="12.00">shamless</text>
</g>
<!-- flagrantedeL&#45;&gt;flagrant -->
<g id="edge26" class="edge">
<title>flagrantedeL&#45;&gt;flagrant</title>
<path fill="none" stroke="black" stroke-dasharray="1,5" d="M207.07,-264.9C213.97,-222.16 229.23,-127.58 237.99,-73.34"/>
<polygon fill="black" stroke="black" points="241.46,-73.81 239.6,-63.38 234.55,-72.69 241.46,-73.81"/>
</g>
<!-- conflagratioL -->
<g id="node29" class="node">
<title>conflagratioL</title>
<text text-anchor="start" x="30.5" y="-291.8" font-family="Times New Roman,serif" font-size="14.00" fill="red">cōnflagrātiō,</text>
<text text-anchor="start" x="26.5" y="-276.8" font-family="Times New Roman,serif" font-size="14.00" fill="red">cōnflagrātiōn&#45;</text>
</g>
<!-- conflagrareL&#45;&gt;conflagratioL -->
<g id="edge28" class="edge">
<title>conflagrareL&#45;&gt;conflagratioL</title>
<path fill="none" stroke="black" d="M65.5,-353.61C65.5,-343.07 65.5,-329.36 65.5,-317.29"/>
<polygon fill="black" stroke="black" points="69,-317.22 65.5,-307.22 62,-317.22 69,-317.22"/>
</g>
<!-- conflagration -->
<g id="node30" class="node">
<title>conflagration</title>
<text text-anchor="start" x="20" y="-42.8" font-family="Times New Roman,serif" font-weight="bold" font-size="14.00">Modern</text>
<text text-anchor="start" x="21.5" y="-28.8" font-family="Times New Roman,serif" font-weight="bold" font-size="14.00">English</text>
<text text-anchor="start" x="8" y="-14.8" font-family="Times New Roman,serif" font-size="14.00" fill="red">conflagration</text>
</g>
<!-- conflagratioL&#45;&gt;conflagration -->
<g id="edge29" class="edge">
<title>conflagratioL&#45;&gt;conflagration</title>
<path fill="none" stroke="black" stroke-dasharray="1,5" d="M63.99,-268.73C60.51,-226.61 51.87,-122.1 47.35,-67.49"/>
<polygon fill="black" stroke="black" points="50.82,-66.94 46.51,-57.26 43.84,-67.52 50.82,-66.94"/>
</g>
<!-- kom -->
<g id="node31" class="node">
<title>kom</title>
<g id="a_node31"><a xlink:href="kom-with.svg" xlink:title="&lt;b&gt;Indo&#45;European&lt;/b&gt;&lt;br/&gt;&lt;font color=&quot;red&quot;&gt;kom&lt;/font&gt;&lt;br/&gt;&lt;font point&#45;size=&quot;12&quot;&gt;with, near&lt;/font&gt;">
<path fill="none" stroke="black" stroke-dasharray="5,2" d="M108,-558C108,-558 23,-558 23,-558 17,-558 11,-552 11,-546 11,-546 11,-522 11,-522 11,-516 17,-510 23,-510 23,-510 108,-510 108,-510 114,-510 120,-516 120,-522 120,-522 120,-546 120,-546 120,-552 114,-558 108,-558"/>
<text text-anchor="start" x="19" y="-543.8" font-family="Times New Roman,serif" font-weight="bold" font-size="14.00">Indo&#45;European</text>
<text text-anchor="start" x="53" y="-529.8" font-family="Times New Roman,serif" font-size="14.00" fill="red">kom</text>
<text text-anchor="start" x="43" y="-517.4" font-family="Times New Roman,serif" font-size="12.00">with, near</text>
</a>
</g>
</g>
<!-- comL -->
<g id="node32" class="node">
<title>comL</title>
<text text-anchor="start" x="49" y="-459.8" font-family="Times New Roman,serif" font-weight="bold" font-size="14.00">Latin</text>
<text text-anchor="start" x="50.5" y="-445.8" font-family="Times New Roman,serif" font-size="14.00" fill="red">com&#45;</text>
<text text-anchor="start" x="28" y="-433.4" font-family="Times New Roman,serif" font-size="12.00">(intensive prefix)</text>
</g>
<!-- kom&#45;&gt;comL -->
<g id="edge30" class="edge">
<title>kom&#45;&gt;comL</title>
<path fill="none" stroke="black" d="M65.5,-509.72C65.5,-501.78 65.5,-492.73 65.5,-484.16"/>
<polygon fill="black" stroke="black" points="69,-484.05 65.5,-474.05 62,-484.05 69,-484.05"/>
</g>
<!-- comL&#45;&gt;conflagrareL -->
<g id="edge31" class="edge">
<title>comL&#45;&gt;conflagrareL</title>
<path fill="none" stroke="black" d="M65.5,-425.78C65.5,-417.68 65.5,-408.52 65.5,-400.12"/>
<polygon fill="black" stroke="black" points="69,-400.04 65.5,-390.04 62,-400.04 69,-400.04"/>
</g>
<!-- effulgereL -->
<g id="node34" class="node">
<title>effulgereL</title>
<text text-anchor="start" x="789" y="-374.8" font-family="Times New Roman,serif" font-size="14.00" fill="red">effulgēre</text>
<text text-anchor="start" x="787.5" y="-362.4" font-family="Times New Roman,serif" font-size="12.00">to shine out</text>
</g>
<!-- fulgereL&#45;&gt;effulgereL -->
<g id="edge33" class="edge">
<title>fulgereL&#45;&gt;effulgereL</title>
<path fill="none" stroke="black" d="M686.68,-435.59C709.77,-424.19 743.35,-407.62 770.15,-394.39"/>
<polygon fill="black" stroke="black" points="771.9,-397.43 779.32,-389.87 768.8,-391.15 771.9,-397.43"/>
</g>
<!-- effulgensL -->
<g id="node35" class="node">
<title>effulgensL</title>
<text text-anchor="start" x="786" y="-291.8" font-family="Times New Roman,serif" font-size="14.00" fill="red">effulgēns,</text>
<text text-anchor="start" x="787" y="-276.8" font-family="Times New Roman,serif" font-size="14.00" fill="red">effulgent&#45;</text>
</g>
<!-- effulgereL&#45;&gt;effulgensL -->
<g id="edge34" class="edge">
<title>effulgereL&#45;&gt;effulgensL</title>
<path fill="none" stroke="black" d="M813.5,-353.61C813.5,-343.07 813.5,-329.36 813.5,-317.29"/>
<polygon fill="black" stroke="black" points="817,-317.22 813.5,-307.22 810,-317.22 817,-317.22"/>
</g>
<!-- effulgent -->
<g id="node36" class="node">
<title>effulgent</title>
<text text-anchor="start" x="845" y="-42.8" font-family="Times New Roman,serif" font-weight="bold" font-size="14.00">Modern</text>
<text text-anchor="start" x="846.5" y="-28.8" font-family="Times New Roman,serif" font-weight="bold" font-size="14.00">English</text>
<text text-anchor="start" x="845" y="-14.8" font-family="Times New Roman,serif" font-size="14.00" fill="red">effulgent</text>
</g>
<!-- effulgensL&#45;&gt;effulgent -->
<g id="edge35" class="edge">
<title>effulgensL&#45;&gt;effulgent</title>
<path fill="none" stroke="black" stroke-dasharray="1,5" d="M819.01,-268.97C826.82,-242.91 841.2,-193.11 850.5,-150 856.44,-122.44 861.47,-90.86 864.85,-67.47"/>
<polygon fill="black" stroke="black" points="868.35,-67.73 866.29,-57.34 861.42,-66.75 868.35,-67.73"/>
</g>
<!-- eghs -->
<g id="node37" class="node">
<title>eghs</title>
<g id="a_node37"><a xlink:href="eghs-out.svg" xlink:title="&lt;b&gt;Indo&#45;European&lt;/b&gt;&lt;br/&gt;&lt;font color=&quot;red&quot;&gt;eghs&lt;/font&gt;&lt;br/&gt;&lt;font point&#45;size=&quot;12&quot;&gt;out&lt;/font&gt;">
<path fill="none" stroke="black" stroke-dasharray="5,2" d="M856,-558C856,-558 771,-558 771,-558 765,-558 759,-552 759,-546 759,-546 759,-522 759,-522 759,-516 765,-510 771,-510 771,-510 856,-510 856,-510 862,-510 868,-516 868,-522 868,-522 868,-546 868,-546 868,-552 862,-558 856,-558"/>
<text text-anchor="start" x="767" y="-543.8" font-family="Times New Roman,serif" font-weight="bold" font-size="14.00">Indo&#45;European</text>
<text text-anchor="start" x="800.5" y="-529.8" font-family="Times New Roman,serif" font-size="14.00" fill="red">eghs</text>
<text text-anchor="start" x="806" y="-517.4" font-family="Times New Roman,serif" font-size="12.00">out</text>
</a>
</g>
</g>
<!-- exL -->
<g id="node38" class="node">
<title>exL</title>
<text text-anchor="start" x="797" y="-453.8" font-family="Times New Roman,serif" font-weight="bold" font-size="14.00">Latin</text>
<text text-anchor="start" x="804.5" y="-439.8" font-family="Times New Roman,serif" font-size="14.00" fill="red">ex&#45;</text>
</g>
<!-- eghs&#45;&gt;exL -->
<g id="edge36" class="edge">
<title>eghs&#45;&gt;exL</title>
<path fill="none" stroke="black" d="M813.5,-509.72C813.5,-499.88 813.5,-488.36 813.5,-478.13"/>
<polygon fill="black" stroke="black" points="817,-478.08 813.5,-468.08 810,-478.08 817,-478.08"/>
</g>
<!-- exL&#45;&gt;effulgereL -->
<g id="edge37" class="edge">
<title>exL&#45;&gt;effulgereL</title>
<path fill="none" stroke="black" d="M813.5,-431.75C813.5,-422.52 813.5,-410.93 813.5,-400.49"/>
<polygon fill="black" stroke="black" points="817,-400.18 813.5,-390.18 810,-400.18 817,-400.18"/>
</g>
</g>
</svg>
