<?xml version="1.0" encoding="UTF-8" standalone="no"?>
<!DOCTYPE svg PUBLIC "-//W3C//DTD SVG 1.1//EN"
 "http://www.w3.org/Graphics/SVG/1.1/DTD/svg11.dtd">
<!-- Generated by graphviz version 2.49.0 (20210828.1703)
 -->
<!-- Pages: 1 -->
<svg width="272pt" height="194pt"
 viewBox="0.00 0.00 272.00 194.00" xmlns="http://www.w3.org/2000/svg" xmlns:xlink="http://www.w3.org/1999/xlink">
<g id="graph0" class="graph" transform="scale(1 1) rotate(0) translate(4 190)">
<polygon fill="white" stroke="transparent" points="-4,4 -4,-190 268,-190 268,4 -4,4"/>
<!-- bhleg -->
<g id="node1" class="node">
<title>bhleg</title>
<g id="a_node1"><a xlink:title="Indo&#45;European &quot;*bhleg&#45;&quot; to blaze">
<polygon fill="none" stroke="black" points="237.5,-182 26.5,-182 26.5,-78 237.5,-78 237.5,-182"/>
<polygon fill="none" stroke="black" points="241.5,-186 22.5,-186 22.5,-74 241.5,-74 241.5,-186"/>
<text text-anchor="start" x="54" y="-137.8" font-family="Times New Roman,serif" font-weight="bold" font-size="24.00">Indo&#45;European</text>
<text text-anchor="start" x="65" y="-109.6" font-family="Times New Roman,serif" font-size="18.00" fill="red">*bhleg&#45;</text>
<text text-anchor="start" x="150.5" y="-110.2" font-family="Times New Roman,serif" font-size="16.00">to blaze</text>
</a>
</g>
</g>
<!-- germanic -->
<g id="node2" class="node">
<title>germanic</title>
<g id="a_node2"><a xlink:href="bhleg-burn1.svg" xlink:title="Germanic\nderivatives">
<path fill="none" stroke="black" stroke-dasharray="5,2" d="M64,-38C64,-38 12,-38 12,-38 6,-38 0,-32 0,-26 0,-26 0,-12 0,-12 0,-6 6,0 12,0 12,0 64,0 64,0 70,0 76,-6 76,-12 76,-12 76,-26 76,-26 76,-32 70,-38 64,-38"/>
<text text-anchor="middle" x="38" y="-22.8" font-family="Times New Roman,serif" font-size="14.00">Germanic</text>
<text text-anchor="middle" x="38" y="-7.8" font-family="Times New Roman,serif" font-size="14.00">derivatives</text>
</a>
</g>
</g>
<!-- bhleg&#45;&gt;germanic -->
<g id="edge1" class="edge">
<title>bhleg&#45;&gt;germanic</title>
<path fill="none" stroke="black" d="M84.45,-73.86C76.03,-64.1 67.63,-54.36 60.34,-45.91"/>
<polygon fill="black" stroke="black" points="62.9,-43.52 53.72,-38.23 57.6,-48.09 62.9,-43.52"/>
</g>
<!-- latin -->
<g id="node3" class="node">
<title>latin</title>
<g id="a_node3"><a xlink:href="bhleg-burn2.svg" xlink:title="Latin\nderivatives">
<path fill="none" stroke="black" stroke-dasharray="5,2" d="M158,-38C158,-38 106,-38 106,-38 100,-38 94,-32 94,-26 94,-26 94,-12 94,-12 94,-6 100,0 106,0 106,0 158,0 158,0 164,0 170,-6 170,-12 170,-12 170,-26 170,-26 170,-32 164,-38 158,-38"/>
<text text-anchor="middle" x="132" y="-22.8" font-family="Times New Roman,serif" font-size="14.00">Latin</text>
<text text-anchor="middle" x="132" y="-7.8" font-family="Times New Roman,serif" font-size="14.00">derivatives</text>
</a>
</g>
</g>
<!-- bhleg&#45;&gt;latin -->
<g id="edge2" class="edge">
<title>bhleg&#45;&gt;latin</title>
<path fill="none" stroke="black" d="M132,-73.86C132,-65 132,-56.17 132,-48.29"/>
<polygon fill="black" stroke="black" points="135.5,-48.23 132,-38.23 128.5,-48.23 135.5,-48.23"/>
</g>
<!-- greek -->
<g id="node4" class="node">
<title>greek</title>
<g id="a_node4"><a xlink:href="bhleg-burn3.svg" xlink:title="Greek\nderivatives">
<path fill="none" stroke="black" stroke-dasharray="5,2" d="M252,-38C252,-38 200,-38 200,-38 194,-38 188,-32 188,-26 188,-26 188,-12 188,-12 188,-6 194,0 200,0 200,0 252,0 252,0 258,0 264,-6 264,-12 264,-12 264,-26 264,-26 264,-32 258,-38 252,-38"/>
<text text-anchor="middle" x="226" y="-22.8" font-family="Times New Roman,serif" font-size="14.00">Greek</text>
<text text-anchor="middle" x="226" y="-7.8" font-family="Times New Roman,serif" font-size="14.00">derivatives</text>
</a>
</g>
</g>
<!-- bhleg&#45;&gt;greek -->
<g id="edge3" class="edge">
<title>bhleg&#45;&gt;greek</title>
<path fill="none" stroke="black" d="M179.55,-73.86C187.97,-64.1 196.37,-54.36 203.66,-45.91"/>
<polygon fill="black" stroke="black" points="206.4,-48.09 210.28,-38.23 201.1,-43.52 206.4,-48.09"/>
</g>
</g>
</svg>
