<?xml version="1.0" encoding="UTF-8" standalone="no"?>
<!DOCTYPE svg PUBLIC "-//W3C//DTD SVG 1.1//EN"
 "http://www.w3.org/Graphics/SVG/1.1/DTD/svg11.dtd">
<!-- Generated by graphviz version 2.49.0 (20210828.1703)
 -->
<!-- Pages: 1 -->
<svg width="524pt" height="624pt"
 viewBox="0.00 0.00 524.00 624.00" xmlns="http://www.w3.org/2000/svg" xmlns:xlink="http://www.w3.org/1999/xlink">
<g id="graph0" class="graph" transform="scale(1 1) rotate(0) translate(4 620)">
<polygon fill="white" stroke="transparent" points="-4,4 -4,-620 520,-620 520,4 -4,4"/>
<!-- bhleg -->
<g id="node1" class="node">
<title>bhleg</title>
<text text-anchor="start" x="296" y="-601.8" font-family="Times New Roman,serif" font-weight="bold" font-size="14.00">Indo&#45;European</text>
<text text-anchor="start" x="297.5" y="-587.8" font-family="Times New Roman,serif" font-size="14.00" fill="red">bhleg&#45;</text>
<text text-anchor="start" x="332.5" y="-587.8" font-family="Times New Roman,serif" font-size="14.00"> &#160;&#160;to blaze</text>
</g>
<!-- phlegeinG -->
<g id="node2" class="node">
<title>phlegeinG</title>
<text text-anchor="start" x="275.5" y="-529.8" font-family="Times New Roman,serif" font-weight="bold" font-size="14.00">Greek</text>
<text text-anchor="start" x="272.5" y="-515.8" font-family="Times New Roman,serif" font-size="14.00" fill="red">phlegein</text>
<text text-anchor="start" x="279" y="-503.4" font-family="Times New Roman,serif" font-size="12.00">to burn</text>
</g>
<!-- bhleg&#45;&gt;phlegeinG -->
<g id="edge1" class="edge">
<title>bhleg&#45;&gt;phlegeinG</title>
<path fill="none" stroke="black" d="M331.83,-579.75C326.91,-571.79 320.9,-562.07 315.19,-552.85"/>
<polygon fill="black" stroke="black" points="318.1,-550.89 309.86,-544.23 312.15,-554.57 318.1,-550.89"/>
</g>
<!-- phloxG -->
<g id="node16" class="node">
<title>phloxG</title>
<text text-anchor="start" x="400.5" y="-529.8" font-family="Times New Roman,serif" font-weight="bold" font-size="14.00">Greek</text>
<text text-anchor="start" x="382.5" y="-515.8" font-family="Times New Roman,serif" font-size="14.00" fill="red">phlox, phlog&#45;</text>
<text text-anchor="start" x="408" y="-503.4" font-family="Times New Roman,serif" font-size="12.00">flame</text>
</g>
<!-- bhleg&#45;&gt;phloxG -->
<g id="edge15" class="edge">
<title>bhleg&#45;&gt;phloxG</title>
<path fill="none" stroke="black" stroke-dasharray="1,5" d="M360.2,-579.75C368.8,-571.38 379.38,-561.06 389.28,-551.42"/>
<polygon fill="black" stroke="black" points="391.94,-553.71 396.66,-544.23 387.06,-548.7 391.94,-553.71"/>
</g>
<!-- phlegmaG -->
<g id="node3" class="node">
<title>phlegmaG</title>
<text text-anchor="start" x="109" y="-444.8" font-family="Times New Roman,serif" font-size="14.00" fill="red">phlegma, phlegmat&#45;</text>
<text text-anchor="start" x="110.5" y="-432.4" font-family="Times New Roman,serif" font-size="12.00">heat, the humor phlegm</text>
</g>
<!-- phlegeinG&#45;&gt;phlegmaG -->
<g id="edge2" class="edge">
<title>phlegeinG&#45;&gt;phlegmaG</title>
<path fill="none" stroke="black" d="M264.22,-500.99C245.57,-490.25 221.76,-476.55 201.97,-465.15"/>
<polygon fill="black" stroke="black" points="203.61,-462.06 193.2,-460.1 200.12,-468.12 203.61,-462.06"/>
</g>
<!-- phlegethein -->
<g id="node13" class="node">
<title>phlegethein</title>
<text text-anchor="start" x="264" y="-438.3" font-family="Times New Roman,serif" font-size="14.00" fill="red">phlegethein</text>
</g>
<!-- phlegeinG&#45;&gt;phlegethein -->
<g id="edge12" class="edge">
<title>phlegeinG&#45;&gt;phlegethein</title>
<path fill="none" stroke="black" d="M295.5,-495.78C295.5,-487.68 295.5,-478.52 295.5,-470.12"/>
<polygon fill="black" stroke="black" points="299,-470.04 295.5,-460.04 292,-470.04 299,-470.04"/>
</g>
<!-- phlegmaL -->
<g id="node4" class="node">
<title>phlegmaL</title>
<text text-anchor="start" x="37" y="-283.8" font-family="Times New Roman,serif" font-weight="bold" font-size="14.00">Latin</text>
<text text-anchor="start" x="8" y="-269.8" font-family="Times New Roman,serif" font-size="14.00" fill="red">phlegma, flegma</text>
</g>
<!-- phlegmaG&#45;&gt;phlegmaL -->
<g id="edge3" class="edge">
<title>phlegmaG&#45;&gt;phlegmaL</title>
<path fill="none" stroke="black" stroke-dasharray="1,5" d="M130.22,-423.9C115.63,-414.95 99.39,-402.75 88.5,-388 70.96,-364.24 61.94,-331.26 57.48,-308.22"/>
<polygon fill="black" stroke="black" points="60.88,-307.33 55.69,-298.09 53.99,-308.55 60.88,-307.33"/>
</g>
<!-- phlegmaticosG -->
<g id="node8" class="node">
<title>phlegmaticosG</title>
<text text-anchor="start" x="126.5" y="-366.8" font-family="Times New Roman,serif" font-size="14.00" fill="red">phlegmatikos</text>
<text text-anchor="start" x="105.5" y="-354.4" font-family="Times New Roman,serif" font-size="12.00">full of phlegm (the humor)</text>
</g>
<!-- phlegmaG&#45;&gt;phlegmaticosG -->
<g id="edge7" class="edge">
<title>phlegmaG&#45;&gt;phlegmaticosG</title>
<path fill="none" stroke="black" d="M163.5,-423.75C163.5,-414.52 163.5,-402.93 163.5,-392.49"/>
<polygon fill="black" stroke="black" points="167,-392.18 163.5,-382.18 160,-392.18 167,-392.18"/>
</g>
<!-- fleumeOF -->
<g id="node5" class="node">
<title>fleumeOF</title>
<text text-anchor="start" x="18.5" y="-205.8" font-family="Times New Roman,serif" font-weight="bold" font-size="14.00">Old French</text>
<text text-anchor="start" x="35" y="-191.8" font-family="Times New Roman,serif" font-size="14.00" fill="red">fleume</text>
</g>
<!-- phlegmaL&#45;&gt;fleumeOF -->
<g id="edge4" class="edge">
<title>phlegmaL&#45;&gt;fleumeOF</title>
<path fill="none" stroke="black" d="M53.5,-261.75C53.5,-252.52 53.5,-240.93 53.5,-230.49"/>
<polygon fill="black" stroke="black" points="57,-230.18 53.5,-220.18 50,-230.18 57,-230.18"/>
</g>
<!-- fleumeME -->
<g id="node6" class="node">
<title>fleumeME</title>
<text text-anchor="start" x="32" y="-133.8" font-family="Times New Roman,serif" font-weight="bold" font-size="14.00">Middle</text>
<text text-anchor="start" x="30.5" y="-119.8" font-family="Times New Roman,serif" font-weight="bold" font-size="14.00">English</text>
<text text-anchor="start" x="35" y="-105.8" font-family="Times New Roman,serif" font-size="14.00" fill="red">fleume</text>
</g>
<!-- fleumeOF&#45;&gt;fleumeME -->
<g id="edge5" class="edge">
<title>fleumeOF&#45;&gt;fleumeME</title>
<path fill="none" stroke="black" stroke-dasharray="1,5" d="M53.5,-183.91C53.5,-176.33 53.5,-167.13 53.5,-158.23"/>
<polygon fill="black" stroke="black" points="57,-158.05 53.5,-148.05 50,-158.05 57,-158.05"/>
</g>
<!-- phlegm -->
<g id="node7" class="node">
<title>phlegm</title>
<text text-anchor="start" x="29" y="-41.8" font-family="Times New Roman,serif" font-weight="bold" font-size="14.00">Modern</text>
<text text-anchor="start" x="30.5" y="-27.8" font-family="Times New Roman,serif" font-weight="bold" font-size="14.00">English</text>
<text text-anchor="start" x="33" y="-13.8" font-family="Times New Roman,serif" font-size="14.00" fill="red">phlegm</text>
</g>
<!-- fleumeME&#45;&gt;phlegm -->
<g id="edge6" class="edge">
<title>fleumeME&#45;&gt;phlegm</title>
<path fill="none" stroke="black" d="M53.5,-97.88C53.5,-88.2 53.5,-76.85 53.5,-66.34"/>
<polygon fill="black" stroke="black" points="57,-66.18 53.5,-56.18 50,-66.18 57,-66.18"/>
</g>
<!-- phlegmaticusL -->
<g id="node9" class="node">
<title>phlegmaticusL</title>
<text text-anchor="start" x="153" y="-283.8" font-family="Times New Roman,serif" font-weight="bold" font-size="14.00">Latin</text>
<text text-anchor="start" x="133" y="-269.8" font-family="Times New Roman,serif" font-size="14.00" fill="red">phlegmaticus</text>
</g>
<!-- phlegmaticosG&#45;&gt;phlegmaticusL -->
<g id="edge8" class="edge">
<title>phlegmaticosG&#45;&gt;phlegmaticusL</title>
<path fill="none" stroke="black" stroke-dasharray="1,5" d="M164.77,-345.61C165.57,-334.77 166.6,-320.6 167.5,-308.29"/>
<polygon fill="black" stroke="black" points="171.01,-308.31 168.25,-298.08 164.03,-307.8 171.01,-308.31"/>
</g>
<!-- fleumatiqueOF -->
<g id="node10" class="node">
<title>fleumatiqueOF</title>
<text text-anchor="start" x="134.5" y="-205.8" font-family="Times New Roman,serif" font-weight="bold" font-size="14.00">Old French</text>
<text text-anchor="start" x="137.5" y="-191.8" font-family="Times New Roman,serif" font-size="14.00" fill="red">fleumatique</text>
</g>
<!-- phlegmaticusL&#45;&gt;fleumatiqueOF -->
<g id="edge9" class="edge">
<title>phlegmaticusL&#45;&gt;fleumatiqueOF</title>
<path fill="none" stroke="black" d="M169.5,-261.75C169.5,-252.52 169.5,-240.93 169.5,-230.49"/>
<polygon fill="black" stroke="black" points="173,-230.18 169.5,-220.18 166,-230.18 173,-230.18"/>
</g>
<!-- fleumatikME -->
<g id="node11" class="node">
<title>fleumatikME</title>
<text text-anchor="start" x="148" y="-133.8" font-family="Times New Roman,serif" font-weight="bold" font-size="14.00">Middle</text>
<text text-anchor="start" x="146.5" y="-119.8" font-family="Times New Roman,serif" font-weight="bold" font-size="14.00">English</text>
<text text-anchor="start" x="144" y="-105.8" font-family="Times New Roman,serif" font-size="14.00" fill="red">fleumatik</text>
</g>
<!-- fleumatiqueOF&#45;&gt;fleumatikME -->
<g id="edge10" class="edge">
<title>fleumatiqueOF&#45;&gt;fleumatikME</title>
<path fill="none" stroke="black" stroke-dasharray="1,5" d="M169.5,-183.91C169.5,-176.33 169.5,-167.13 169.5,-158.23"/>
<polygon fill="black" stroke="black" points="173,-158.05 169.5,-148.05 166,-158.05 173,-158.05"/>
</g>
<!-- phlegmatic -->
<g id="node12" class="node">
<title>phlegmatic</title>
<text text-anchor="start" x="145" y="-47.8" font-family="Times New Roman,serif" font-weight="bold" font-size="14.00">Modern</text>
<text text-anchor="start" x="146.5" y="-33.8" font-family="Times New Roman,serif" font-weight="bold" font-size="14.00">English</text>
<text text-anchor="start" x="139" y="-19.8" font-family="Times New Roman,serif" font-size="14.00" fill="red">phlegmatic</text>
<text text-anchor="start" x="142" y="-7.4" font-family="Times New Roman,serif" font-size="12.00">unemotional</text>
</g>
<!-- fleumatikME&#45;&gt;phlegmatic -->
<g id="edge11" class="edge">
<title>fleumatikME&#45;&gt;phlegmatic</title>
<path fill="none" stroke="black" d="M169.5,-97.88C169.5,-90.02 169.5,-81.07 169.5,-72.36"/>
<polygon fill="black" stroke="black" points="173,-72.31 169.5,-62.31 166,-72.31 173,-72.31"/>
</g>
<!-- phlegethonG -->
<g id="node14" class="node">
<title>phlegethonG</title>
<text text-anchor="start" x="264.5" y="-372.8" font-family="Times New Roman,serif" font-size="14.00" fill="red">Phlegethōn</text>
<text text-anchor="start" x="266.5" y="-360.4" font-family="Times New Roman,serif" font-size="12.00">a river of fire</text>
<text text-anchor="start" x="256" y="-348.4" font-family="Times New Roman,serif" font-size="12.00">in the underworld</text>
</g>
<!-- phlegethein&#45;&gt;phlegethonG -->
<g id="edge13" class="edge">
<title>phlegethein&#45;&gt;phlegethonG</title>
<path fill="none" stroke="black" d="M295.5,-423.75C295.5,-415.86 295.5,-406.25 295.5,-397.1"/>
<polygon fill="black" stroke="black" points="299,-397.09 295.5,-387.09 292,-397.09 299,-397.09"/>
</g>
<!-- phlegethon -->
<g id="node15" class="node">
<title>phlegethon</title>
<text text-anchor="start" x="264" y="-41.8" font-family="Times New Roman,serif" font-weight="bold" font-size="14.00">Modern</text>
<text text-anchor="start" x="265.5" y="-27.8" font-family="Times New Roman,serif" font-weight="bold" font-size="14.00">English</text>
<text text-anchor="start" x="257.5" y="-13.8" font-family="Times New Roman,serif" font-size="14.00" fill="red">Phlegethon</text>
</g>
<!-- phlegethonG&#45;&gt;phlegethon -->
<g id="edge14" class="edge">
<title>phlegethonG&#45;&gt;phlegethon</title>
<path fill="none" stroke="black" stroke-dasharray="1,5" d="M295.03,-340.77C293.83,-284.22 290.67,-134.58 289.23,-66.54"/>
<polygon fill="black" stroke="black" points="292.73,-66.27 289.01,-56.35 285.73,-66.42 292.73,-66.27"/>
</g>
<!-- phloxL -->
<g id="node17" class="node">
<title>phloxL</title>
<text text-anchor="start" x="362" y="-289.8" font-family="Times New Roman,serif" font-weight="bold" font-size="14.00">Latin</text>
<text text-anchor="start" x="362.5" y="-275.8" font-family="Times New Roman,serif" font-size="14.00" fill="red">phlox</text>
<text text-anchor="start" x="360" y="-263.4" font-family="Times New Roman,serif" font-size="12.00">a flower</text>
</g>
<!-- phloxG&#45;&gt;phloxL -->
<g id="edge16" class="edge">
<title>phloxG&#45;&gt;phloxL</title>
<path fill="none" stroke="black" stroke-dasharray="1,5" d="M414.56,-495.83C411.9,-484.99 408.83,-471.88 406.5,-460 396.56,-409.44 387.88,-350.28 382.91,-314.24"/>
<polygon fill="black" stroke="black" points="386.37,-313.71 381.55,-304.27 379.43,-314.65 386.37,-313.71"/>
</g>
<!-- phlogizeinG -->
<g id="node19" class="node">
<title>phlogizeinG</title>
<text text-anchor="start" x="424" y="-444.8" font-family="Times New Roman,serif" font-size="14.00" fill="red">phlogizein</text>
<text text-anchor="start" x="424" y="-432.4" font-family="Times New Roman,serif" font-size="12.00">to set on fire</text>
</g>
<!-- phloxG&#45;&gt;phlogizeinG -->
<g id="edge18" class="edge">
<title>phloxG&#45;&gt;phlogizeinG</title>
<path fill="none" stroke="black" d="M430.27,-495.78C433.8,-487.41 437.8,-477.9 441.43,-469.29"/>
<polygon fill="black" stroke="black" points="444.67,-470.62 445.32,-460.04 438.22,-467.9 444.67,-470.62"/>
</g>
<!-- phlox -->
<g id="node18" class="node">
<title>phlox</title>
<text text-anchor="start" x="354" y="-41.8" font-family="Times New Roman,serif" font-weight="bold" font-size="14.00">Modern</text>
<text text-anchor="start" x="355.5" y="-27.8" font-family="Times New Roman,serif" font-weight="bold" font-size="14.00">English</text>
<text text-anchor="start" x="362.5" y="-13.8" font-family="Times New Roman,serif" font-size="14.00" fill="red">phlox</text>
</g>
<!-- phloxL&#45;&gt;phlox -->
<g id="edge17" class="edge">
<title>phloxL&#45;&gt;phlox</title>
<path fill="none" stroke="black" stroke-dasharray="1,5" d="M378.5,-255.76C378.5,-212.04 378.5,-117.34 378.5,-66.28"/>
<polygon fill="black" stroke="black" points="382,-66.08 378.5,-56.08 375,-66.08 382,-66.08"/>
</g>
<!-- phlogistosG -->
<g id="node20" class="node">
<title>phlogistosG</title>
<text text-anchor="start" x="430.5" y="-373.8" font-family="Times New Roman,serif" font-size="14.00" fill="red">phlogistos,</text>
<text text-anchor="start" x="432" y="-359.8" font-family="Times New Roman,serif" font-size="14.00" fill="red">phlogiston</text>
<text text-anchor="start" x="415" y="-347.4" font-family="Times New Roman,serif" font-size="12.00">able to be set on fire</text>
</g>
<!-- phlogizeinG&#45;&gt;phlogistosG -->
<g id="edge19" class="edge">
<title>phlogizeinG&#45;&gt;phlogistosG</title>
<path fill="none" stroke="black" d="M454.54,-423.75C455.44,-416.2 456.52,-407.07 457.56,-398.28"/>
<polygon fill="black" stroke="black" points="461.05,-398.57 458.75,-388.23 454.1,-397.75 461.05,-398.57"/>
</g>
<!-- phlogiston -->
<g id="node21" class="node">
<title>phlogiston</title>
<text text-anchor="start" x="442" y="-41.8" font-family="Times New Roman,serif" font-weight="bold" font-size="14.00">Modern</text>
<text text-anchor="start" x="443.5" y="-27.8" font-family="Times New Roman,serif" font-weight="bold" font-size="14.00">English</text>
<text text-anchor="start" x="437" y="-13.8" font-family="Times New Roman,serif" font-size="14.00" fill="red">phlogiston</text>
</g>
<!-- phlogistosG&#45;&gt;phlogiston -->
<g id="edge20" class="edge">
<title>phlogistosG&#45;&gt;phlogiston</title>
<path fill="none" stroke="black" stroke-dasharray="1,5" d="M461.85,-339.99C462.71,-282.79 464.96,-133.94 465.98,-66.32"/>
<polygon fill="black" stroke="black" points="469.48,-66.24 466.13,-56.19 462.48,-66.14 469.48,-66.24"/>
</g>
</g>
</svg>
