<?xml version="1.0" encoding="UTF-8" standalone="no"?>
<!DOCTYPE svg PUBLIC "-//W3C//DTD SVG 1.1//EN"
 "http://www.w3.org/Graphics/SVG/1.1/DTD/svg11.dtd">
<!-- Generated by graphviz version 2.49.0 (20210828.1703)
 -->
<!-- Pages: 1 -->
<svg width="172pt" height="812pt"
 viewBox="0.00 0.00 172.00 812.00" xmlns="http://www.w3.org/2000/svg" xmlns:xlink="http://www.w3.org/1999/xlink">
<g id="graph0" class="graph" transform="scale(1 1) rotate(0) translate(4 808)">
<polygon fill="white" stroke="transparent" points="-4,4 -4,-808 168,-808 168,4 -4,4"/>
<!-- kwetwer -->
<g id="node1" class="node">
<title>kwetwer</title>
<g id="a_node1"><a xlink:href="kwetwer-four1.svg" xlink:title="&lt;b&gt;Indo&#45;&lt;br/&gt;European&lt;/b&gt;&lt;br/&gt;&lt;font color=&quot;red&quot;&gt;kʷetwer&#45;&lt;/font&gt;&lt;br/&gt;&lt;font point&#45;size=&quot;12&quot;&gt;four&lt;/font&gt;">
<path fill="none" stroke="black" stroke-dasharray="5,2" d="M70.5,-804C70.5,-804 17.5,-804 17.5,-804 11.5,-804 5.5,-798 5.5,-792 5.5,-792 5.5,-754 5.5,-754 5.5,-748 11.5,-742 17.5,-742 17.5,-742 70.5,-742 70.5,-742 76.5,-742 82.5,-748 82.5,-754 82.5,-754 82.5,-792 82.5,-792 82.5,-798 76.5,-804 70.5,-804"/>
<text text-anchor="start" x="27.5" y="-789.8" font-family="Times New Roman,serif" font-weight="bold" font-size="14.00">Indo&#45;</text>
<text text-anchor="start" x="13.5" y="-775.8" font-family="Times New Roman,serif" font-weight="bold" font-size="14.00">European</text>
<text text-anchor="start" x="20" y="-761.8" font-family="Times New Roman,serif" font-size="14.00" fill="red">kʷetwer&#45;</text>
<text text-anchor="start" x="34.5" y="-749.4" font-family="Times New Roman,serif" font-size="12.00">four</text>
</a>
</g>
</g>
<!-- cathwaroOI -->
<g id="node2" class="node">
<title>cathwaroOI</title>
<text text-anchor="start" x="8" y="-685.8" font-family="Times New Roman,serif" font-weight="bold" font-size="14.00">Old Iranian</text>
<text text-anchor="start" x="18" y="-671.8" font-family="Times New Roman,serif" font-size="14.00" fill="red">cathwārō</text>
</g>
<!-- kwetwer&#45;&gt;cathwaroOI -->
<g id="edge1" class="edge">
<title>kwetwer&#45;&gt;cathwaroOI</title>
<path fill="none" stroke="black" d="M44,-741.87C44,-731.65 44,-720.29 44,-710.3"/>
<polygon fill="black" stroke="black" points="47.5,-710.12 44,-700.12 40.5,-710.12 47.5,-710.12"/>
</g>
<!-- taqAr -->
<g id="node3" class="node">
<title>taqAr</title>
<text text-anchor="start" x="114" y="-691.8" font-family="Times New Roman,serif" font-weight="bold" font-size="14.00" fill="green">Arabic</text>
<text text-anchor="start" x="126" y="-677.8" font-family="Times New Roman,serif" font-size="14.00" fill="red">ṭāq</text>
<text text-anchor="start" x="125" y="-665.4" font-family="Times New Roman,serif" font-size="12.00">arch</text>
</g>
<!-- cathwaroOI&#45;&gt;taqAr -->
<!-- chaharP -->
<g id="node5" class="node">
<title>chaharP</title>
<text text-anchor="start" x="22.5" y="-601.8" font-family="Times New Roman,serif" font-weight="bold" font-size="14.00">Persian</text>
<text text-anchor="start" x="27.5" y="-587.8" font-family="Times New Roman,serif" font-size="14.00" fill="red">chahār</text>
</g>
<!-- cathwaroOI&#45;&gt;chaharP -->
<g id="edge2" class="edge">
<title>cathwaroOI&#45;&gt;chaharP</title>
<path fill="none" stroke="black" d="M44.42,-663.61C44.69,-652.77 45.03,-638.6 45.33,-626.29"/>
<polygon fill="black" stroke="black" points="48.84,-626.17 45.58,-616.08 41.84,-626 48.84,-626.17"/>
</g>
<!-- taqP -->
<g id="node4" class="node">
<title>taqP</title>
<text text-anchor="start" x="108.5" y="-607.8" font-family="Times New Roman,serif" font-weight="bold" font-size="14.00">Persian</text>
<text text-anchor="start" x="123" y="-593.8" font-family="Times New Roman,serif" font-size="14.00" fill="red">ṭāq</text>
<text text-anchor="start" x="121" y="-581.4" font-family="Times New Roman,serif" font-size="12.00">vault</text>
</g>
<!-- taqAr&#45;&gt;taqP -->
<g id="edge3" class="edge">
<title>taqAr&#45;&gt;taqP</title>
<path fill="none" stroke="black" stroke-dasharray="5,2" d="M134.15,-657.72C133.86,-649.78 133.53,-640.73 133.21,-632.16"/>
<polygon fill="black" stroke="black" points="136.71,-631.92 132.84,-622.05 129.71,-632.17 136.71,-631.92"/>
</g>
<!-- chahartaqP -->
<g id="node6" class="node">
<title>chahartaqP</title>
<text text-anchor="start" x="60" y="-523.8" font-family="Times New Roman,serif" font-size="14.00" fill="red">chahār ṭāq</text>
<text text-anchor="start" x="63" y="-511.4" font-family="Times New Roman,serif" font-size="12.00">4&#45;cornered</text>
<text text-anchor="start" x="78" y="-499.4" font-family="Times New Roman,serif" font-size="12.00">vault</text>
</g>
<!-- taqP&#45;&gt;chahartaqP -->
<g id="edge4" class="edge">
<title>taqP&#45;&gt;chahartaqP</title>
<path fill="none" stroke="black" d="M114.76,-573.74C107.75,-564.29 100.11,-553.99 94.99,-547.07"/>
<polygon fill="black" stroke="black" points="97.77,-544.95 89,-539 92.14,-549.12 97.77,-544.95"/>
</g>
<!-- chaharP&#45;&gt;chahartaqP -->
<g id="edge5" class="edge">
<title>chaharP&#45;&gt;chahartaqP</title>
<path fill="none" stroke="black" d="M58.67,-579.91C66.7,-569.09 76.71,-555.58 82.98,-547.12"/>
<polygon fill="black" stroke="black" points="85.86,-549.12 89,-539 80.23,-544.95 85.86,-549.12"/>
</g>
<!-- chartaqP -->
<g id="node7" class="node">
<title>chartaqP</title>
<text text-anchor="start" x="66" y="-434.3" font-family="Times New Roman,serif" font-size="14.00" fill="red">chār ṭāq</text>
</g>
<!-- chahartaqP&#45;&gt;chartaqP -->
<g id="edge6" class="edge">
<title>chahartaqP&#45;&gt;chartaqP</title>
<path fill="none" stroke="black" d="M89,-491.9C89,-483.88 89,-474.72 89,-466.31"/>
<polygon fill="black" stroke="black" points="92.5,-466.18 89,-456.18 85.5,-466.18 92.5,-466.18"/>
</g>
<!-- cardakT -->
<g id="node8" class="node">
<title>cardakT</title>
<text text-anchor="start" x="64.5" y="-369.8" font-family="Times New Roman,serif" font-weight="bold" font-size="14.00" fill="green">Turkish</text>
<text text-anchor="start" x="70" y="-355.8" font-family="Times New Roman,serif" font-size="14.00" fill="red">çardak</text>
<text text-anchor="start" x="67.5" y="-343.4" font-family="Times New Roman,serif" font-size="12.00">hut, trellis</text>
</g>
<!-- chartaqP&#45;&gt;cardakT -->
<g id="edge7" class="edge">
<title>chartaqP&#45;&gt;cardakT</title>
<path fill="none" stroke="black" stroke-dasharray="5,2" d="M89,-419.75C89,-412.2 89,-403.07 89,-394.28"/>
<polygon fill="black" stroke="black" points="92.5,-394.23 89,-384.23 85.5,-394.23 92.5,-394.23"/>
</g>
<!-- cardakSC -->
<g id="node9" class="node">
<title>cardakSC</title>
<text text-anchor="start" x="41" y="-285.8" font-family="Times New Roman,serif" font-weight="bold" font-size="14.00">Serbo&#45;Croatian</text>
<text text-anchor="start" x="70" y="-271.8" font-family="Times New Roman,serif" font-size="14.00" fill="red">čardāk</text>
<text text-anchor="start" x="62" y="-259.4" font-family="Times New Roman,serif" font-size="12.00">watchtower</text>
</g>
<!-- cardakT&#45;&gt;cardakSC -->
<g id="edge8" class="edge">
<title>cardakT&#45;&gt;cardakSC</title>
<path fill="none" stroke="black" stroke-dasharray="5,2" d="M89,-335.72C89,-327.78 89,-318.73 89,-310.16"/>
<polygon fill="black" stroke="black" points="92.5,-310.05 89,-300.05 85.5,-310.05 92.5,-310.05"/>
</g>
<!-- csardaH -->
<g id="node10" class="node">
<title>csardaH</title>
<text text-anchor="start" x="56" y="-201.8" font-family="Times New Roman,serif" font-weight="bold" font-size="14.00" fill="green">Hungarian</text>
<text text-anchor="start" x="70.5" y="-187.8" font-family="Times New Roman,serif" font-size="14.00" fill="red">csárda</text>
<text text-anchor="start" x="55" y="-175.4" font-family="Times New Roman,serif" font-size="12.00">wayside tavern</text>
</g>
<!-- cardakSC&#45;&gt;csardaH -->
<g id="edge9" class="edge">
<title>cardakSC&#45;&gt;csardaH</title>
<path fill="none" stroke="black" stroke-dasharray="5,2" d="M89,-251.72C89,-243.78 89,-234.73 89,-226.16"/>
<polygon fill="black" stroke="black" points="92.5,-226.05 89,-216.05 85.5,-226.05 92.5,-226.05"/>
</g>
<!-- csardasH -->
<g id="node11" class="node">
<title>csardasH</title>
<text text-anchor="start" x="67.5" y="-117.8" font-family="Times New Roman,serif" font-size="14.00" fill="red">csárdás</text>
<text text-anchor="start" x="57.5" y="-105.4" font-family="Times New Roman,serif" font-size="12.00">style of dance</text>
<text text-anchor="start" x="66" y="-93.4" font-family="Times New Roman,serif" font-size="12.00">and music</text>
</g>
<!-- csardaH&#45;&gt;csardasH -->
<g id="edge10" class="edge">
<title>csardaH&#45;&gt;csardasH</title>
<path fill="none" stroke="black" d="M89,-167.57C89,-159.75 89,-150.89 89,-142.51"/>
<polygon fill="black" stroke="black" points="92.5,-142.26 89,-132.26 85.5,-142.26 92.5,-142.26"/>
</g>
<!-- czardas -->
<g id="node12" class="node">
<title>czardas</title>
<text text-anchor="start" x="64.5" y="-35.8" font-family="Times New Roman,serif" font-weight="bold" font-size="14.00">Modern</text>
<text text-anchor="start" x="66" y="-21.8" font-family="Times New Roman,serif" font-weight="bold" font-size="14.00">English</text>
<text text-anchor="start" x="67.5" y="-7.8" font-family="Times New Roman,serif" font-size="14.00" fill="red">czardas</text>
</g>
<!-- csardasH&#45;&gt;czardas -->
<g id="edge11" class="edge">
<title>csardasH&#45;&gt;czardas</title>
<path fill="none" stroke="black" stroke-dasharray="5,2" d="M89,-85.59C89,-77.77 89,-68.81 89,-60.24"/>
<polygon fill="black" stroke="black" points="92.5,-60.1 89,-50.1 85.5,-60.1 92.5,-60.1"/>
</g>
</g>
</svg>
