<?xml version="1.0" encoding="UTF-8" standalone="no"?>
<!DOCTYPE svg PUBLIC "-//W3C//DTD SVG 1.1//EN"
 "http://www.w3.org/Graphics/SVG/1.1/DTD/svg11.dtd">
<!-- Generated by graphviz version 2.49.0 (20210828.1703)
 -->
<!-- Pages: 1 -->
<svg width="1341pt" height="732pt"
 viewBox="0.00 0.00 1341.00 732.00" xmlns="http://www.w3.org/2000/svg" xmlns:xlink="http://www.w3.org/1999/xlink">
<g id="graph0" class="graph" transform="scale(1 1) rotate(0) translate(4 728)">
<polygon fill="white" stroke="transparent" points="-4,4 -4,-728 1337,-728 1337,4 -4,4"/>
<!-- deik -->
<g id="node1" class="node">
<title>deik</title>
<g id="a_node1"><a xlink:href="deik-show0.svg" xlink:title="Indo&#45;European &quot;deik&#45;, deig&#45;&quot; to show">
<path fill="none" stroke="black" stroke-dasharray="5,2" d="M707,-724C707,-724 558,-724 558,-724 552,-724 546,-718 546,-712 546,-712 546,-686 546,-686 546,-680 552,-674 558,-674 558,-674 707,-674 707,-674 713,-674 719,-680 719,-686 719,-686 719,-712 719,-712 719,-718 713,-724 707,-724"/>
<text text-anchor="start" x="554" y="-701.8" font-family="Times New Roman,serif" font-weight="bold" font-size="24.00">Indo&#45;European</text>
<text text-anchor="start" x="586.5" y="-682.6" font-family="Times New Roman,serif" font-size="18.00" fill="red">deik&#45; </text>
<text text-anchor="start" x="628.5" y="-682.6" font-family="Times New Roman,serif" font-size="16.00">to show</text>
</a>
</g>
</g>
<!-- dicereL -->
<g id="node2" class="node">
<title>dicereL</title>
<text text-anchor="start" x="616" y="-525.8" font-family="Times New Roman,serif" font-weight="bold" font-size="14.00">Latin</text>
<text text-anchor="start" x="614.5" y="-511.8" font-family="Times New Roman,serif" font-size="14.00" fill="red">dīcere</text>
<text text-anchor="start" x="618.5" y="-499.4" font-family="Times New Roman,serif" font-size="12.00">to say</text>
</g>
<!-- deik&#45;&gt;dicereL -->
<g id="edge1" class="edge">
<title>deik&#45;&gt;dicereL</title>
<path fill="none" stroke="black" d="M632.5,-673.96C632.5,-642.33 632.5,-586.55 632.5,-550.71"/>
<polygon fill="black" stroke="black" points="636,-550.27 632.5,-540.27 629,-550.27 636,-550.27"/>
</g>
<!-- dictumL -->
<g id="node3" class="node">
<title>dictumL</title>
<text text-anchor="start" x="331" y="-434.8" font-family="Times New Roman,serif" font-size="14.00" fill="red">dictum</text>
<text text-anchor="start" x="329" y="-422.4" font-family="Times New Roman,serif" font-size="12.00">thing said</text>
</g>
<!-- dicereL&#45;&gt;dictumL -->
<g id="edge2" class="edge">
<title>dicereL&#45;&gt;dictumL</title>
<path fill="none" stroke="black" d="M605.46,-507.14C555.52,-492.62 448.62,-461.53 390.36,-444.59"/>
<polygon fill="black" stroke="black" points="390.99,-441.13 380.41,-441.7 389.04,-447.85 390.99,-441.13"/>
</g>
<!-- dictioL -->
<g id="node5" class="node">
<title>dictioL</title>
<text text-anchor="start" x="918.5" y="-441.8" font-family="Times New Roman,serif" font-size="14.00" fill="red">dictiō,</text>
<text text-anchor="start" x="915" y="-427.8" font-family="Times New Roman,serif" font-size="14.00" fill="red">dictiōn&#45;</text>
<text text-anchor="start" x="924" y="-415.4" font-family="Times New Roman,serif" font-size="12.00">word</text>
</g>
<!-- dicereL&#45;&gt;dictioL -->
<g id="edge4" class="edge">
<title>dicereL&#45;&gt;dictioL</title>
<path fill="none" stroke="black" d="M659.75,-507.65C713.72,-493.09 834.43,-460.53 897.08,-443.63"/>
<polygon fill="black" stroke="black" points="898.24,-446.95 906.98,-440.96 896.42,-440.19 898.24,-446.95"/>
</g>
<!-- direI -->
<g id="node10" class="node">
<title>direI</title>
<text text-anchor="start" x="547.5" y="-252.8" font-family="Times New Roman,serif" font-weight="bold" font-size="14.00">Italian</text>
<text text-anchor="start" x="556.5" y="-238.8" font-family="Times New Roman,serif" font-size="14.00" fill="red">dire</text>
</g>
<!-- dicereL&#45;&gt;direI -->
<g id="edge9" class="edge">
<title>dicereL&#45;&gt;direI</title>
<path fill="none" stroke="black" d="M625.52,-491.82C622.33,-480.97 618.59,-467.86 615.5,-456 598.89,-392.2 581.97,-316.57 573.34,-277.08"/>
<polygon fill="black" stroke="black" points="576.73,-276.19 571.19,-267.17 569.89,-277.68 576.73,-276.19"/>
</g>
<!-- direAN -->
<g id="node19" class="node">
<title>direAN</title>
<text text-anchor="start" x="98" y="-357.8" font-family="Times New Roman,serif" font-weight="bold" font-size="14.00">Anglo&#45;</text>
<text text-anchor="start" x="93" y="-343.8" font-family="Times New Roman,serif" font-weight="bold" font-size="14.00">Norman</text>
<text text-anchor="start" x="107.5" y="-329.8" font-family="Times New Roman,serif" font-size="14.00" fill="red">dire</text>
<text text-anchor="start" x="98.5" y="-317.4" font-family="Times New Roman,serif" font-size="12.00">to speak</text>
</g>
<!-- dicereL&#45;&gt;direAN -->
<g id="edge19" class="edge">
<title>dicereL&#45;&gt;direAN</title>
<path fill="none" stroke="black" d="M605.3,-510.03C528.13,-495.93 313.25,-456.63 311.5,-456 255.66,-435.95 197.87,-399.34 160.27,-373.02"/>
<polygon fill="black" stroke="black" points="162.27,-370.15 152.09,-367.23 158.23,-375.86 162.27,-370.15"/>
</g>
<!-- benedicereL -->
<g id="node29" class="node">
<title>benedicereL</title>
<text text-anchor="start" x="1080.5" y="-434.8" font-family="Times New Roman,serif" font-size="14.00" fill="red">benedīcere</text>
<text text-anchor="start" x="1094" y="-422.4" font-family="Times New Roman,serif" font-size="12.00">to bless</text>
</g>
<!-- dicereL&#45;&gt;benedicereL -->
<g id="edge29" class="edge">
<title>dicereL&#45;&gt;benedicereL</title>
<path fill="none" stroke="black" d="M659.79,-511.24C748.96,-498.94 1029.23,-460.28 1086.3,-452.41"/>
<polygon fill="black" stroke="black" points="1087.07,-455.83 1096.5,-451 1086.12,-448.9 1087.07,-455.83"/>
</g>
<!-- maledicereL -->
<g id="node36" class="node">
<title>maledicereL</title>
<text text-anchor="start" x="1225" y="-434.8" font-family="Times New Roman,serif" font-size="14.00" fill="red">maledīcere</text>
<text text-anchor="start" x="1237" y="-422.4" font-family="Times New Roman,serif" font-size="12.00">to curse</text>
</g>
<!-- dicereL&#45;&gt;maledicereL -->
<g id="edge36" class="edge">
<title>dicereL&#45;&gt;maledicereL</title>
<path fill="none" stroke="black" d="M659.76,-512.13C767.49,-500.77 1161.01,-459.28 1229.35,-452.07"/>
<polygon fill="black" stroke="black" points="1229.92,-455.53 1239.5,-451 1229.19,-448.57 1229.92,-455.53"/>
</g>
<!-- valedicereL -->
<g id="node40" class="node">
<title>valedicereL</title>
<text text-anchor="start" x="638.5" y="-434.8" font-family="Times New Roman,serif" font-size="14.00" fill="red">valedīcere</text>
<text text-anchor="start" x="632.5" y="-422.4" font-family="Times New Roman,serif" font-size="12.00">to say goodbye</text>
</g>
<!-- dicereL&#45;&gt;valedicereL -->
<g id="edge41" class="edge">
<title>dicereL&#45;&gt;valedicereL</title>
<path fill="none" stroke="black" d="M642.44,-491.72C646.72,-481.67 651.76,-469.87 656.19,-459.49"/>
<polygon fill="black" stroke="black" points="659.5,-460.65 660.21,-450.08 653.07,-457.9 659.5,-460.65"/>
</g>
<!-- dictareL -->
<g id="node43" class="node">
<title>dictareL</title>
<text text-anchor="start" x="514.5" y="-434.8" font-family="Times New Roman,serif" font-size="14.00" fill="red">dictāre</text>
<text text-anchor="start" x="507" y="-422.4" font-family="Times New Roman,serif" font-size="12.00">to say often</text>
</g>
<!-- dicereL&#45;&gt;dictareL -->
<g id="edge44" class="edge">
<title>dicereL&#45;&gt;dictareL</title>
<path fill="none" stroke="black" d="M605.45,-492.59C591.95,-481.41 575.63,-467.9 561.95,-456.56"/>
<polygon fill="black" stroke="black" points="564.17,-453.86 554.24,-450.18 559.71,-459.25 564.17,-453.86"/>
</g>
<!-- dictum -->
<g id="node4" class="node">
<title>dictum</title>
<text text-anchor="start" x="294" y="-49.8" font-family="Times New Roman,serif" font-weight="bold" font-size="14.00">Modern</text>
<text text-anchor="start" x="295.5" y="-35.8" font-family="Times New Roman,serif" font-weight="bold" font-size="14.00">English</text>
<text text-anchor="start" x="299" y="-21.8" font-family="Times New Roman,serif" font-size="14.00" fill="red">dictum</text>
</g>
<!-- dictumL&#45;&gt;dictum -->
<g id="edge3" class="edge">
<title>dictumL&#45;&gt;dictum</title>
<path fill="none" stroke="black" stroke-dasharray="1,5" d="M349.1,-413.95C344.23,-354.37 327.89,-154.79 321.3,-74.19"/>
<polygon fill="black" stroke="black" points="324.77,-73.76 320.47,-64.08 317.8,-74.33 324.77,-73.76"/>
</g>
<!-- ditAN -->
<g id="node13" class="node">
<title>ditAN</title>
<text text-anchor="start" x="268" y="-357.8" font-family="Times New Roman,serif" font-weight="bold" font-size="14.00">Anglo&#45;</text>
<text text-anchor="start" x="263" y="-343.8" font-family="Times New Roman,serif" font-weight="bold" font-size="14.00">Norman</text>
<text text-anchor="start" x="281" y="-329.8" font-family="Times New Roman,serif" font-size="14.00" fill="red">dit</text>
<text text-anchor="start" x="272.5" y="-317.4" font-family="Times New Roman,serif" font-size="12.00">speech</text>
</g>
<!-- dictumL&#45;&gt;ditAN -->
<g id="edge12" class="edge">
<title>dictumL&#45;&gt;ditAN</title>
<path fill="none" stroke="black" d="M338.55,-413.84C331.92,-404.33 323.4,-392.1 315.27,-380.43"/>
<polygon fill="black" stroke="black" points="318.05,-378.29 309.46,-372.08 312.3,-382.29 318.05,-378.29"/>
</g>
<!-- dictionMF -->
<g id="node6" class="node">
<title>dictionMF</title>
<text text-anchor="start" x="1085" y="-161.8" font-family="Times New Roman,serif" font-weight="bold" font-size="14.00">Middle</text>
<text text-anchor="start" x="1084.5" y="-147.8" font-family="Times New Roman,serif" font-weight="bold" font-size="14.00">French</text>
<text text-anchor="start" x="1087" y="-133.8" font-family="Times New Roman,serif" font-size="14.00" fill="red">diction</text>
</g>
<!-- dictioL&#45;&gt;dictionMF -->
<g id="edge5" class="edge">
<title>dictioL&#45;&gt;dictionMF</title>
<path fill="none" stroke="black" d="M966.19,-426.91C998.24,-420.83 1048.21,-406.18 1074.5,-372 1116.28,-317.67 1115.5,-232.86 1111.09,-186"/>
<polygon fill="black" stroke="black" points="1114.58,-185.63 1110.05,-176.05 1107.61,-186.36 1114.58,-185.63"/>
</g>
<!-- dictionarium -->
<g id="node8" class="node">
<title>dictionarium</title>
<text text-anchor="start" x="877.5" y="-343.8" font-family="Times New Roman,serif" font-size="14.00" fill="red">dictionarium</text>
<text text-anchor="start" x="869" y="-331.4" font-family="Times New Roman,serif" font-size="12.00">collection of words</text>
</g>
<!-- dictioL&#45;&gt;dictionarium -->
<g id="edge7" class="edge">
<title>dictioL&#45;&gt;dictionarium</title>
<path fill="none" stroke="black" d="M930.19,-407.62C926.98,-395.71 923.06,-381.17 919.73,-368.81"/>
<polygon fill="black" stroke="black" points="923.08,-367.79 917.1,-359.04 916.32,-369.61 923.08,-367.79"/>
</g>
<!-- iurisdictioL -->
<g id="node23" class="node">
<title>iurisdictioL</title>
<text text-anchor="start" x="994" y="-356.8" font-family="Times New Roman,serif" font-size="14.00" fill="red">iūrisdictiō,</text>
<text text-anchor="start" x="990" y="-342.8" font-family="Times New Roman,serif" font-size="14.00" fill="red">iūrisdictiōn&#45;</text>
<text text-anchor="start" x="998.5" y="-330.4" font-family="Times New Roman,serif" font-size="12.00">declaration</text>
<text text-anchor="start" x="1001" y="-318.4" font-family="Times New Roman,serif" font-size="12.00">of the law</text>
</g>
<!-- dictioL&#45;&gt;iurisdictioL -->
<g id="edge24" class="edge">
<title>dictioL&#45;&gt;iurisdictioL</title>
<path fill="none" stroke="black" d="M959.36,-407.62C968.02,-398.75 978.11,-388.43 987.69,-378.64"/>
<polygon fill="black" stroke="black" points="990.39,-380.88 994.88,-371.28 985.38,-375.98 990.39,-380.88"/>
</g>
<!-- diction -->
<g id="node7" class="node">
<title>diction</title>
<text text-anchor="start" x="1084" y="-49.8" font-family="Times New Roman,serif" font-weight="bold" font-size="14.00">Modern</text>
<text text-anchor="start" x="1085.5" y="-35.8" font-family="Times New Roman,serif" font-weight="bold" font-size="14.00">English</text>
<text text-anchor="start" x="1089" y="-21.8" font-family="Times New Roman,serif" font-size="14.00" fill="red">diction</text>
</g>
<!-- dictionMF&#45;&gt;diction -->
<g id="edge6" class="edge">
<title>dictionMF&#45;&gt;diction</title>
<path fill="none" stroke="black" stroke-dasharray="1,5" d="M1106.94,-125.86C1107.21,-110.82 1107.57,-91.22 1107.87,-74.54"/>
<polygon fill="black" stroke="black" points="1111.38,-74.15 1108.06,-64.08 1104.38,-74.02 1111.38,-74.15"/>
</g>
<!-- dictionary -->
<g id="node9" class="node">
<title>dictionary</title>
<text text-anchor="start" x="901" y="-49.8" font-family="Times New Roman,serif" font-weight="bold" font-size="14.00">Modern</text>
<text text-anchor="start" x="902.5" y="-35.8" font-family="Times New Roman,serif" font-weight="bold" font-size="14.00">English</text>
<text text-anchor="start" x="897.5" y="-21.8" font-family="Times New Roman,serif" font-size="14.00" fill="red">dictionary</text>
</g>
<!-- dictionarium&#45;&gt;dictionary -->
<g id="edge8" class="edge">
<title>dictionarium&#45;&gt;dictionary</title>
<path fill="none" stroke="black" stroke-dasharray="1,5" d="M913.26,-322.57C915.34,-274.36 921.23,-138.53 924.01,-74.38"/>
<polygon fill="black" stroke="black" points="927.51,-74.5 924.44,-64.36 920.51,-74.2 927.51,-74.5"/>
</g>
<!-- dittoI -->
<g id="node11" class="node">
<title>dittoI</title>
<text text-anchor="start" x="535.5" y="-160.8" font-family="Times New Roman,serif" font-size="14.00">(dialectical)</text>
<text text-anchor="start" x="554.5" y="-146.8" font-family="Times New Roman,serif" font-size="14.00" fill="red">ditto</text>
<text text-anchor="start" x="532.5" y="-134.4" font-family="Times New Roman,serif" font-size="12.00">aforementioned</text>
</g>
<!-- direI&#45;&gt;dittoI -->
<g id="edge10" class="edge">
<title>direI&#45;&gt;dittoI</title>
<path fill="none" stroke="black" d="M567.5,-230.84C567.5,-218.22 567.5,-200.67 567.5,-185.33"/>
<polygon fill="black" stroke="black" points="571,-185.15 567.5,-175.15 564,-185.15 571,-185.15"/>
</g>
<!-- ditto -->
<g id="node12" class="node">
<title>ditto</title>
<text text-anchor="start" x="543" y="-49.8" font-family="Times New Roman,serif" font-weight="bold" font-size="14.00">Modern</text>
<text text-anchor="start" x="544.5" y="-35.8" font-family="Times New Roman,serif" font-weight="bold" font-size="14.00">English</text>
<text text-anchor="start" x="554.5" y="-21.8" font-family="Times New Roman,serif" font-size="14.00" fill="red">ditto</text>
</g>
<!-- dittoI&#45;&gt;ditto -->
<g id="edge11" class="edge">
<title>dittoI&#45;&gt;ditto</title>
<path fill="none" stroke="black" stroke-dasharray="1,5" d="M567.5,-126.94C567.5,-111.71 567.5,-91.47 567.5,-74.35"/>
<polygon fill="black" stroke="black" points="571,-74.17 567.5,-64.17 564,-74.17 571,-74.17"/>
</g>
<!-- verditME -->
<g id="node14" class="node">
<title>verditME</title>
<text text-anchor="start" x="198" y="-259.8" font-family="Times New Roman,serif" font-weight="bold" font-size="14.00">Middle</text>
<text text-anchor="start" x="196.5" y="-245.8" font-family="Times New Roman,serif" font-weight="bold" font-size="14.00">English</text>
<text text-anchor="start" x="203.5" y="-231.8" font-family="Times New Roman,serif" font-size="14.00" fill="red">verdit</text>
</g>
<!-- ditAN&#45;&gt;verditME -->
<g id="edge15" class="edge">
<title>ditAN&#45;&gt;verditME</title>
<path fill="none" stroke="black" stroke-dasharray="1,5" d="M259.21,-309.78C249.32,-299.57 239.13,-289.06 232.58,-282.3"/>
<polygon fill="black" stroke="black" points="234.97,-279.74 225.5,-275 229.95,-284.62 234.97,-279.74"/>
</g>
<!-- verdict -->
<g id="node15" class="node">
<title>verdict</title>
<text text-anchor="start" x="195" y="-49.8" font-family="Times New Roman,serif" font-weight="bold" font-size="14.00">Modern</text>
<text text-anchor="start" x="196.5" y="-35.8" font-family="Times New Roman,serif" font-weight="bold" font-size="14.00">English</text>
<text text-anchor="start" x="200" y="-21.8" font-family="Times New Roman,serif" font-size="14.00" fill="red">verdict</text>
</g>
<!-- verditME&#45;&gt;verdict -->
<g id="edge17" class="edge">
<title>verditME&#45;&gt;verdict</title>
<path fill="none" stroke="black" d="M219.5,-223.73C219.5,-186.78 219.5,-116.28 219.5,-74.17"/>
<polygon fill="black" stroke="black" points="223,-74.11 219.5,-64.11 216,-74.11 223,-74.11"/>
</g>
<!-- wereo -->
<g id="node16" class="node">
<title>wereo</title>
<g id="a_node16"><a xlink:href="wereo-true.svg" xlink:title="&lt;b&gt;Indo&#45;&lt;br/&gt;European&lt;/b&gt;&lt;br/&gt;&lt;font color=&quot;red&quot;&gt;wērə&#45;o&#45;&lt;/font&gt;&lt;br/&gt;&lt;font point&#45;size=&quot;12&quot;&gt;true&lt;/font&gt;">
<path fill="none" stroke="black" stroke-dasharray="5,2" d="M145,-638C145,-638 92,-638 92,-638 86,-638 80,-632 80,-626 80,-626 80,-588 80,-588 80,-582 86,-576 92,-576 92,-576 145,-576 145,-576 151,-576 157,-582 157,-588 157,-588 157,-626 157,-626 157,-632 151,-638 145,-638"/>
<text text-anchor="start" x="102" y="-623.8" font-family="Times New Roman,serif" font-weight="bold" font-size="14.00">Indo&#45;</text>
<text text-anchor="start" x="88" y="-609.8" font-family="Times New Roman,serif" font-weight="bold" font-size="14.00">European</text>
<text text-anchor="start" x="97" y="-595.8" font-family="Times New Roman,serif" font-size="14.00" fill="red">wērə&#45;o&#45;</text>
<text text-anchor="start" x="109.5" y="-583.4" font-family="Times New Roman,serif" font-size="12.00">true</text>
</a>
</g>
</g>
<!-- verusL -->
<g id="node17" class="node">
<title>verusL</title>
<text text-anchor="start" x="102" y="-435.8" font-family="Times New Roman,serif" font-weight="bold" font-size="14.00">Latin</text>
<text text-anchor="start" x="103" y="-421.8" font-family="Times New Roman,serif" font-size="14.00" fill="red">vērus</text>
</g>
<!-- wereo&#45;&gt;verusL -->
<g id="edge13" class="edge">
<title>wereo&#45;&gt;verusL</title>
<path fill="none" stroke="black" d="M118.5,-575.87C118.5,-543.3 118.5,-491.87 118.5,-460.41"/>
<polygon fill="black" stroke="black" points="122,-460.18 118.5,-450.18 115,-460.18 122,-460.18"/>
</g>
<!-- verAN -->
<g id="node18" class="node">
<title>verAN</title>
<text text-anchor="start" x="183" y="-357.8" font-family="Times New Roman,serif" font-weight="bold" font-size="14.00">Anglo&#45;</text>
<text text-anchor="start" x="178" y="-343.8" font-family="Times New Roman,serif" font-weight="bold" font-size="14.00">Norman</text>
<text text-anchor="start" x="194.5" y="-329.8" font-family="Times New Roman,serif" font-size="14.00" fill="red">ver</text>
<text text-anchor="start" x="194.5" y="-317.4" font-family="Times New Roman,serif" font-size="12.00">true</text>
</g>
<!-- verusL&#45;&gt;verAN -->
<g id="edge14" class="edge">
<title>verusL&#45;&gt;verAN</title>
<path fill="none" stroke="black" d="M118.5,-413C118.5,-413 140.43,-394.68 162.01,-376.66"/>
<polygon fill="black" stroke="black" points="164.47,-379.16 169.91,-370.06 159.99,-373.79 164.47,-379.16"/>
</g>
<!-- voirAN -->
<g id="node20" class="node">
<title>voirAN</title>
<text text-anchor="start" x="13" y="-357.8" font-family="Times New Roman,serif" font-weight="bold" font-size="14.00">Anglo&#45;</text>
<text text-anchor="start" x="8" y="-343.8" font-family="Times New Roman,serif" font-weight="bold" font-size="14.00">Norman</text>
<text text-anchor="start" x="22.5" y="-329.8" font-family="Times New Roman,serif" font-size="14.00" fill="red">voir</text>
<text text-anchor="start" x="15" y="-317.4" font-family="Times New Roman,serif" font-size="12.00">the truth</text>
</g>
<!-- verusL&#45;&gt;voirAN -->
<g id="edge18" class="edge">
<title>verusL&#45;&gt;voirAN</title>
<path fill="none" stroke="black" d="M118.5,-413C118.5,-413 96.57,-394.68 74.99,-376.66"/>
<polygon fill="black" stroke="black" points="77.01,-373.79 67.09,-370.06 72.53,-379.16 77.01,-373.79"/>
</g>
<!-- verAN&#45;&gt;ditAN -->
<!-- verAN&#45;&gt;verditME -->
<g id="edge16" class="edge">
<title>verAN&#45;&gt;verditME</title>
<path fill="none" stroke="black" stroke-dasharray="1,5" d="M213.73,-309.78C216.82,-300.63 220,-291.24 222.28,-284.53"/>
<polygon fill="black" stroke="black" points="225.61,-285.59 225.5,-275 218.98,-283.35 225.61,-285.59"/>
</g>
<!-- direAN&#45;&gt;verAN -->
<!-- voirdireAN -->
<g id="node21" class="node">
<title>voirdireAN</title>
<text text-anchor="start" x="52" y="-245.3" font-family="Times New Roman,serif" font-size="14.00" fill="red">voir dire</text>
</g>
<!-- direAN&#45;&gt;voirdireAN -->
<g id="edge20" class="edge">
<title>direAN&#45;&gt;voirdireAN</title>
<path fill="none" stroke="black" d="M100.51,-309.88C93.33,-297.86 85.62,-284.94 80.68,-276.68"/>
<polygon fill="black" stroke="black" points="83.63,-274.79 75.5,-268 77.62,-278.38 83.63,-274.79"/>
</g>
<!-- voirAN&#45;&gt;direAN -->
<!-- voirAN&#45;&gt;voirdireAN -->
<g id="edge21" class="edge">
<title>voirAN&#45;&gt;voirdireAN</title>
<path fill="none" stroke="black" d="M51.07,-309.88C58.08,-297.86 65.62,-284.94 70.44,-276.68"/>
<polygon fill="black" stroke="black" points="73.48,-278.4 75.5,-268 67.44,-274.87 73.48,-278.4"/>
</g>
<!-- voirdire -->
<g id="node22" class="node">
<title>voirdire</title>
<text text-anchor="start" x="51" y="-49.8" font-family="Times New Roman,serif" font-weight="bold" font-size="14.00">Modern</text>
<text text-anchor="start" x="52.5" y="-35.8" font-family="Times New Roman,serif" font-weight="bold" font-size="14.00">English</text>
<text text-anchor="start" x="52" y="-21.8" font-family="Times New Roman,serif" font-size="14.00" fill="red">voir dire</text>
</g>
<!-- voirdireAN&#45;&gt;voirdire -->
<g id="edge22" class="edge">
<title>voirdireAN&#45;&gt;voirdire</title>
<path fill="none" stroke="black" stroke-dasharray="1,5" d="M75.5,-230.98C75.5,-196.85 75.5,-119.46 75.5,-74.37"/>
<polygon fill="black" stroke="black" points="79,-74.18 75.5,-64.18 72,-74.18 79,-74.18"/>
</g>
<!-- jurisdicionOF -->
<g id="node24" class="node">
<title>jurisdicionOF</title>
<text text-anchor="start" x="986.5" y="-252.8" font-family="Times New Roman,serif" font-weight="bold" font-size="14.00">Old French</text>
<text text-anchor="start" x="992.5" y="-238.8" font-family="Times New Roman,serif" font-size="14.00" fill="red">jurisdicion</text>
</g>
<!-- iurisdictioL&#45;&gt;jurisdicionOF -->
<g id="edge25" class="edge">
<title>iurisdictioL&#45;&gt;jurisdicionOF</title>
<path fill="none" stroke="black" d="M1022.85,-310.53C1022.61,-299.88 1022.34,-287.9 1022.11,-277.43"/>
<polygon fill="black" stroke="black" points="1025.6,-277.1 1021.88,-267.18 1018.6,-277.26 1025.6,-277.1"/>
</g>
<!-- jurisdicciounME -->
<g id="node25" class="node">
<title>jurisdicciounME</title>
<text text-anchor="start" x="993" y="-161.8" font-family="Times New Roman,serif" font-weight="bold" font-size="14.00">Middle</text>
<text text-anchor="start" x="991.5" y="-147.8" font-family="Times New Roman,serif" font-weight="bold" font-size="14.00">English</text>
<text text-anchor="start" x="978.5" y="-133.8" font-family="Times New Roman,serif" font-size="14.00" fill="red">jurisdiccioun</text>
</g>
<!-- jurisdicionOF&#45;&gt;jurisdicciounME -->
<g id="edge26" class="edge">
<title>jurisdicionOF&#45;&gt;jurisdicciounME</title>
<path fill="none" stroke="black" stroke-dasharray="1,5" d="M1020.25,-230.84C1019.35,-218.48 1018.1,-201.39 1017,-186.29"/>
<polygon fill="black" stroke="black" points="1020.48,-185.95 1016.27,-176.23 1013.5,-186.45 1020.48,-185.95"/>
</g>
<!-- jurisdiction -->
<g id="node26" class="node">
<title>jurisdiction</title>
<text text-anchor="start" x="994" y="-49.8" font-family="Times New Roman,serif" font-weight="bold" font-size="14.00">Modern</text>
<text text-anchor="start" x="995.5" y="-35.8" font-family="Times New Roman,serif" font-weight="bold" font-size="14.00">English</text>
<text text-anchor="start" x="987.5" y="-21.8" font-family="Times New Roman,serif" font-size="14.00" fill="red">jurisdiction</text>
</g>
<!-- jurisdicciounME&#45;&gt;jurisdiction -->
<g id="edge27" class="edge">
<title>jurisdicciounME&#45;&gt;jurisdiction</title>
<path fill="none" stroke="black" d="M1015.38,-125.86C1015.92,-110.82 1016.64,-91.22 1017.24,-74.54"/>
<polygon fill="black" stroke="black" points="1020.76,-74.2 1017.62,-64.08 1013.76,-73.95 1020.76,-74.2"/>
</g>
<!-- deuIE -->
<g id="node27" class="node">
<title>deuIE</title>
<g id="a_node27"><a xlink:href="deu-do.svg" xlink:title="&lt;b&gt;Indo&#45;&lt;br/&gt;European&lt;/b&gt;&lt;br/&gt;&lt;font color=&quot;red&quot;&gt;deu&#45;&lt;/font&gt;&lt;br/&gt;&lt;font point&#45;size=&quot;12&quot;&gt;to do&lt;/font&gt;">
<path fill="none" stroke="black" stroke-dasharray="5,2" d="M1138,-638C1138,-638 1085,-638 1085,-638 1079,-638 1073,-632 1073,-626 1073,-626 1073,-588 1073,-588 1073,-582 1079,-576 1085,-576 1085,-576 1138,-576 1138,-576 1144,-576 1150,-582 1150,-588 1150,-588 1150,-626 1150,-626 1150,-632 1144,-638 1138,-638"/>
<text text-anchor="start" x="1095" y="-623.8" font-family="Times New Roman,serif" font-weight="bold" font-size="14.00">Indo&#45;</text>
<text text-anchor="start" x="1081" y="-609.8" font-family="Times New Roman,serif" font-weight="bold" font-size="14.00">European</text>
<text text-anchor="start" x="1099" y="-595.8" font-family="Times New Roman,serif" font-size="14.00" fill="red">deu&#45;</text>
<text text-anchor="start" x="1099" y="-583.4" font-family="Times New Roman,serif" font-size="12.00">to do</text>
</a>
</g>
</g>
<!-- beneL -->
<g id="node28" class="node">
<title>beneL</title>
<text text-anchor="start" x="1095" y="-525.8" font-family="Times New Roman,serif" font-weight="bold" font-size="14.00">Latin</text>
<text text-anchor="start" x="1098" y="-511.8" font-family="Times New Roman,serif" font-size="14.00" fill="red">bene</text>
<text text-anchor="start" x="1102" y="-499.4" font-family="Times New Roman,serif" font-size="12.00">well</text>
</g>
<!-- deuIE&#45;&gt;beneL -->
<g id="edge28" class="edge">
<title>deuIE&#45;&gt;beneL</title>
<path fill="none" stroke="black" d="M1111.5,-575.87C1111.5,-567.64 1111.5,-558.68 1111.5,-550.29"/>
<polygon fill="black" stroke="black" points="1115,-550.06 1111.5,-540.06 1108,-550.06 1115,-550.06"/>
</g>
<!-- beneL&#45;&gt;benedicereL -->
<g id="edge30" class="edge">
<title>beneL&#45;&gt;benedicereL</title>
<path fill="none" stroke="black" d="M1106.08,-491.89C1103.6,-481.3 1100.79,-469.28 1098.85,-461.04"/>
<polygon fill="black" stroke="black" points="1102.19,-459.94 1096.5,-451 1095.37,-461.53 1102.19,-459.94"/>
</g>
<!-- benedictioL -->
<g id="node30" class="node">
<title>benedictioL</title>
<text text-anchor="start" x="1145.5" y="-344.8" font-family="Times New Roman,serif" font-size="14.00" fill="red">benedictiō,</text>
<text text-anchor="start" x="1141.5" y="-329.8" font-family="Times New Roman,serif" font-size="14.00" fill="red">benedictiōn&#45;</text>
</g>
<!-- benedicereL&#45;&gt;benedictioL -->
<g id="edge31" class="edge">
<title>benedicereL&#45;&gt;benedictioL</title>
<path fill="none" stroke="black" d="M1124.03,-413.84C1133.47,-400.92 1146.57,-382.98 1157.32,-368.26"/>
<polygon fill="black" stroke="black" points="1160.27,-370.16 1163.34,-360.02 1154.61,-366.04 1160.27,-370.16"/>
</g>
<!-- benedicionOF -->
<g id="node31" class="node">
<title>benedicionOF</title>
<text text-anchor="start" x="1162.5" y="-252.8" font-family="Times New Roman,serif" font-weight="bold" font-size="14.00">Old French</text>
<text text-anchor="start" x="1167" y="-238.8" font-family="Times New Roman,serif" font-size="14.00" fill="red">benedicion</text>
</g>
<!-- benedictioL&#45;&gt;benedicionOF -->
<g id="edge32" class="edge">
<title>benedictioL&#45;&gt;benedicionOF</title>
<path fill="none" stroke="black" d="M1180.75,-321.79C1183.74,-308.97 1187.79,-291.61 1191.16,-277.16"/>
<polygon fill="black" stroke="black" points="1194.61,-277.8 1193.47,-267.27 1187.79,-276.21 1194.61,-277.8"/>
</g>
<!-- benedicciounME -->
<g id="node32" class="node">
<title>benedicciounME</title>
<text text-anchor="start" x="1179" y="-161.8" font-family="Times New Roman,serif" font-weight="bold" font-size="14.00">Middle</text>
<text text-anchor="start" x="1177.5" y="-147.8" font-family="Times New Roman,serif" font-weight="bold" font-size="14.00">English</text>
<text text-anchor="start" x="1163" y="-133.8" font-family="Times New Roman,serif" font-size="14.00" fill="red">benediccioun</text>
</g>
<!-- benedicionOF&#45;&gt;benedicciounME -->
<g id="edge33" class="edge">
<title>benedicionOF&#45;&gt;benedicciounME</title>
<path fill="none" stroke="black" stroke-dasharray="1,5" d="M1198.04,-230.84C1198.42,-218.48 1198.96,-201.39 1199.43,-186.29"/>
<polygon fill="black" stroke="black" points="1202.93,-186.33 1199.74,-176.23 1195.93,-186.11 1202.93,-186.33"/>
</g>
<!-- benediction -->
<g id="node33" class="node">
<title>benediction</title>
<text text-anchor="start" x="1176" y="-49.8" font-family="Times New Roman,serif" font-weight="bold" font-size="14.00">Modern</text>
<text text-anchor="start" x="1177.5" y="-35.8" font-family="Times New Roman,serif" font-weight="bold" font-size="14.00">English</text>
<text text-anchor="start" x="1168" y="-21.8" font-family="Times New Roman,serif" font-size="14.00" fill="red">benediction</text>
</g>
<!-- benedicciounME&#45;&gt;benediction -->
<g id="edge34" class="edge">
<title>benedicciounME&#45;&gt;benediction</title>
<path fill="none" stroke="black" d="M1200.5,-125.86C1200.5,-110.82 1200.5,-91.22 1200.5,-74.54"/>
<polygon fill="black" stroke="black" points="1204,-74.08 1200.5,-64.08 1197,-74.08 1204,-74.08"/>
</g>
<!-- melIE -->
<g id="node34" class="node">
<title>melIE</title>
<g id="a_node34"><a xlink:href="mel-bad.svg" xlink:title="&lt;b&gt;Indo&#45;&lt;br/&gt;European&lt;/b&gt;&lt;br/&gt;&lt;font color=&quot;red&quot;&gt;mel&#45;&lt;/font&gt;&lt;br/&gt;&lt;font point&#45;size=&quot;12&quot;&gt;bad&lt;/font&gt;">
<path fill="none" stroke="black" stroke-dasharray="5,2" d="M1282,-638C1282,-638 1229,-638 1229,-638 1223,-638 1217,-632 1217,-626 1217,-626 1217,-588 1217,-588 1217,-582 1223,-576 1229,-576 1229,-576 1282,-576 1282,-576 1288,-576 1294,-582 1294,-588 1294,-588 1294,-626 1294,-626 1294,-632 1288,-638 1282,-638"/>
<text text-anchor="start" x="1239" y="-623.8" font-family="Times New Roman,serif" font-weight="bold" font-size="14.00">Indo&#45;</text>
<text text-anchor="start" x="1225" y="-609.8" font-family="Times New Roman,serif" font-weight="bold" font-size="14.00">European</text>
<text text-anchor="start" x="1243" y="-595.8" font-family="Times New Roman,serif" font-size="14.00" fill="red">mel&#45;</text>
<text text-anchor="start" x="1246.5" y="-583.4" font-family="Times New Roman,serif" font-size="12.00">bad</text>
</a>
</g>
</g>
<!-- maleL -->
<g id="node35" class="node">
<title>maleL</title>
<text text-anchor="start" x="1239" y="-525.8" font-family="Times New Roman,serif" font-weight="bold" font-size="14.00">Latin</text>
<text text-anchor="start" x="1242.5" y="-511.8" font-family="Times New Roman,serif" font-size="14.00" fill="red">male</text>
<text text-anchor="start" x="1237" y="-499.4" font-family="Times New Roman,serif" font-size="12.00">ill (adv.)</text>
</g>
<!-- melIE&#45;&gt;maleL -->
<g id="edge35" class="edge">
<title>melIE&#45;&gt;maleL</title>
<path fill="none" stroke="black" d="M1255.5,-575.87C1255.5,-567.64 1255.5,-558.68 1255.5,-550.29"/>
<polygon fill="black" stroke="black" points="1259,-550.06 1255.5,-540.06 1252,-550.06 1259,-550.06"/>
</g>
<!-- maleL&#45;&gt;maledicereL -->
<g id="edge37" class="edge">
<title>maleL&#45;&gt;maledicereL</title>
<path fill="none" stroke="black" d="M1249.72,-491.89C1247.04,-481.15 1243.99,-468.96 1241.93,-460.7"/>
<polygon fill="black" stroke="black" points="1245.32,-459.85 1239.5,-451 1238.53,-461.55 1245.32,-459.85"/>
</g>
<!-- maledictusL -->
<g id="node37" class="node">
<title>maledictusL</title>
<text text-anchor="start" x="1250" y="-337.3" font-family="Times New Roman,serif" font-size="14.00" fill="red">maledīctus</text>
</g>
<!-- maledicereL&#45;&gt;maledictusL -->
<g id="edge38" class="edge">
<title>maledicereL&#45;&gt;maledictusL</title>
<path fill="none" stroke="black" d="M1260.32,-413.84C1263.88,-401.16 1268.8,-383.64 1272.89,-369.08"/>
<polygon fill="black" stroke="black" points="1276.36,-369.68 1275.69,-359.11 1269.62,-367.79 1276.36,-369.68"/>
</g>
<!-- maledicteME -->
<g id="node38" class="node">
<title>maledicteME</title>
<text text-anchor="start" x="1277" y="-161.8" font-family="Times New Roman,serif" font-weight="bold" font-size="14.00">Middle</text>
<text text-anchor="start" x="1275.5" y="-147.8" font-family="Times New Roman,serif" font-weight="bold" font-size="14.00">English</text>
<text text-anchor="start" x="1272" y="-133.8" font-family="Times New Roman,serif" font-size="14.00" fill="red">maledicte</text>
</g>
<!-- maledictusL&#45;&gt;maledicteME -->
<g id="edge39" class="edge">
<title>maledictusL&#45;&gt;maledicteME</title>
<path fill="none" stroke="black" stroke-dasharray="1,5" d="M1282.13,-322.98C1285.08,-292.2 1291.35,-226.72 1295.21,-186.32"/>
<polygon fill="black" stroke="black" points="1298.72,-186.42 1296.19,-176.13 1291.75,-185.75 1298.72,-186.42"/>
</g>
<!-- maledict -->
<g id="node39" class="node">
<title>maledict</title>
<text text-anchor="start" x="1274" y="-49.8" font-family="Times New Roman,serif" font-weight="bold" font-size="14.00">Modern</text>
<text text-anchor="start" x="1275.5" y="-35.8" font-family="Times New Roman,serif" font-weight="bold" font-size="14.00">English</text>
<text text-anchor="start" x="1275" y="-21.8" font-family="Times New Roman,serif" font-size="14.00" fill="red">maledict</text>
</g>
<!-- maledicteME&#45;&gt;maledict -->
<g id="edge40" class="edge">
<title>maledicteME&#45;&gt;maledict</title>
<path fill="none" stroke="black" d="M1298.5,-125.86C1298.5,-110.82 1298.5,-91.22 1298.5,-74.54"/>
<polygon fill="black" stroke="black" points="1302,-74.08 1298.5,-64.08 1295,-74.08 1302,-74.08"/>
</g>
<!-- valedictusL -->
<g id="node41" class="node">
<title>valedictusL</title>
<text text-anchor="start" x="637.5" y="-147.3" font-family="Times New Roman,serif" font-size="14.00" fill="red">valedictus</text>
</g>
<!-- valedicereL&#45;&gt;valedictusL -->
<g id="edge42" class="edge">
<title>valedicereL&#45;&gt;valedictusL</title>
<path fill="none" stroke="black" d="M667.38,-413.97C667.04,-367.17 666.1,-236.35 665.7,-179.24"/>
<polygon fill="black" stroke="black" points="669.19,-179.14 665.62,-169.16 662.19,-179.19 669.19,-179.14"/>
</g>
<!-- valediction -->
<g id="node42" class="node">
<title>valediction</title>
<text text-anchor="start" x="637" y="-63.8" font-family="Times New Roman,serif" font-weight="bold" font-size="14.00">Modern</text>
<text text-anchor="start" x="638.5" y="-49.8" font-family="Times New Roman,serif" font-weight="bold" font-size="14.00">English</text>
<text text-anchor="start" x="631" y="-35.8" font-family="Times New Roman,serif" font-size="14.00" fill="red">valediction</text>
<text text-anchor="start" x="630.5" y="-21.8" font-family="Times New Roman,serif" font-size="14.00" fill="red">valedictory</text>
<text text-anchor="start" x="626" y="-7.8" font-family="Times New Roman,serif" font-size="14.00" fill="red">valedictorian</text>
</g>
<!-- valedictusL&#45;&gt;valediction -->
<g id="edge43" class="edge">
<title>valedictusL&#45;&gt;valediction</title>
<path fill="none" stroke="black" stroke-dasharray="1,5" d="M664.88,-132.81C664.44,-120.82 663.83,-104.17 663.26,-88.28"/>
<polygon fill="black" stroke="black" points="666.74,-87.88 662.88,-78.01 659.75,-88.13 666.74,-87.88"/>
</g>
<!-- dictatusL -->
<g id="node44" class="node">
<title>dictatusL</title>
<text text-anchor="start" x="733.5" y="-337.3" font-family="Times New Roman,serif" font-size="14.00" fill="red">dictātus</text>
</g>
<!-- dictareL&#45;&gt;dictatusL -->
<g id="edge45" class="edge">
<title>dictareL&#45;&gt;dictatusL</title>
<path fill="none" stroke="black" d="M568.19,-417.09C608.24,-401.04 673.98,-374.68 715.97,-357.85"/>
<polygon fill="black" stroke="black" points="717.35,-361.07 725.33,-354.1 714.74,-354.57 717.35,-361.07"/>
</g>
<!-- indictareL -->
<g id="node49" class="node">
<title>indictareL</title>
<text text-anchor="start" x="447.5" y="-343.8" font-family="Times New Roman,serif" font-size="14.00" fill="red">indictāre</text>
<text text-anchor="start" x="468.5" y="-331.4" font-family="Times New Roman,serif" font-size="12.00">?</text>
</g>
<!-- dictareL&#45;&gt;indictareL -->
<g id="edge50" class="edge">
<title>dictareL&#45;&gt;indictareL</title>
<path fill="none" stroke="black" d="M521.55,-413.84C512.37,-400.67 499.55,-382.27 489.19,-367.39"/>
<polygon fill="black" stroke="black" points="492.01,-365.31 483.42,-359.11 486.26,-369.31 492.01,-365.31"/>
</g>
<!-- dictate -->
<g id="node45" class="node">
<title>dictate</title>
<text text-anchor="start" x="731" y="-49.8" font-family="Times New Roman,serif" font-weight="bold" font-size="14.00">Modern</text>
<text text-anchor="start" x="732.5" y="-35.8" font-family="Times New Roman,serif" font-weight="bold" font-size="14.00">English</text>
<text text-anchor="start" x="737" y="-21.8" font-family="Times New Roman,serif" font-size="14.00" fill="red">dictate</text>
</g>
<!-- dictatusL&#45;&gt;dictate -->
<g id="edge46" class="edge">
<title>dictatusL&#45;&gt;dictate</title>
<path fill="none" stroke="black" stroke-dasharray="1,5" d="M755.5,-322.57C755.5,-274.36 755.5,-138.53 755.5,-74.38"/>
<polygon fill="black" stroke="black" points="759,-74.36 755.5,-64.36 752,-74.36 759,-74.36"/>
</g>
<!-- diteOF -->
<g id="node46" class="node">
<title>diteOF</title>
<text text-anchor="start" x="794.5" y="-252.8" font-family="Times New Roman,serif" font-weight="bold" font-size="14.00">Old French</text>
<text text-anchor="start" x="819" y="-238.8" font-family="Times New Roman,serif" font-size="14.00" fill="red">dite</text>
</g>
<!-- dictatusL&#45;&gt;diteOF -->
<g id="edge47" class="edge">
<title>dictatusL&#45;&gt;diteOF</title>
<path fill="none" stroke="black" d="M769.77,-322.65C780.82,-309.2 796.3,-290.38 808.73,-275.26"/>
<polygon fill="black" stroke="black" points="811.63,-277.25 815.28,-267.3 806.22,-272.8 811.63,-277.25"/>
</g>
<!-- diteME -->
<g id="node47" class="node">
<title>diteME</title>
<text text-anchor="start" x="814" y="-173.8" font-family="Times New Roman,serif" font-weight="bold" font-size="14.00">Middle</text>
<text text-anchor="start" x="812.5" y="-159.8" font-family="Times New Roman,serif" font-weight="bold" font-size="14.00">English</text>
<text text-anchor="start" x="825" y="-145.8" font-family="Times New Roman,serif" font-size="14.00" fill="red">dite</text>
<text text-anchor="start" x="820" y="-133.4" font-family="Times New Roman,serif" font-size="12.00">literary</text>
<text text-anchor="start" x="808" y="-121.4" font-family="Times New Roman,serif" font-size="12.00">composition</text>
</g>
<!-- diteOF&#45;&gt;diteME -->
<g id="edge48" class="edge">
<title>diteOF&#45;&gt;diteME</title>
<path fill="none" stroke="black" stroke-dasharray="1,5" d="M830.57,-230.84C831.15,-221.66 831.88,-209.88 832.61,-198.23"/>
<polygon fill="black" stroke="black" points="836.11,-198.3 833.24,-188.1 829.13,-197.86 836.11,-198.3"/>
</g>
<!-- ditty -->
<g id="node48" class="node">
<title>ditty</title>
<text text-anchor="start" x="814" y="-49.8" font-family="Times New Roman,serif" font-weight="bold" font-size="14.00">Modern</text>
<text text-anchor="start" x="815.5" y="-35.8" font-family="Times New Roman,serif" font-weight="bold" font-size="14.00">English</text>
<text text-anchor="start" x="826" y="-21.8" font-family="Times New Roman,serif" font-size="14.00" fill="red">ditty</text>
</g>
<!-- diteME&#45;&gt;ditty -->
<g id="edge49" class="edge">
<title>diteME&#45;&gt;ditty</title>
<path fill="none" stroke="black" d="M836.48,-113.98C836.83,-101.25 837.22,-86.98 837.56,-74.39"/>
<polygon fill="black" stroke="black" points="841.06,-74.38 837.84,-64.28 834.07,-74.19 841.06,-74.38"/>
</g>
<!-- enditerOF -->
<g id="node50" class="node">
<title>enditerOF</title>
<text text-anchor="start" x="436.5" y="-252.8" font-family="Times New Roman,serif" font-weight="bold" font-size="14.00">Old French</text>
<text text-anchor="start" x="452.5" y="-238.8" font-family="Times New Roman,serif" font-size="14.00" fill="red">enditer</text>
</g>
<!-- indictareL&#45;&gt;enditerOF -->
<g id="edge51" class="edge">
<title>indictareL&#45;&gt;enditerOF</title>
<path fill="none" stroke="black" d="M471.5,-322.65C471.5,-309.82 471.5,-292.11 471.5,-277.38"/>
<polygon fill="black" stroke="black" points="475,-277.3 471.5,-267.3 468,-277.3 475,-277.3"/>
</g>
<!-- enditenME -->
<g id="node51" class="node">
<title>enditenME</title>
<text text-anchor="start" x="450" y="-161.8" font-family="Times New Roman,serif" font-weight="bold" font-size="14.00">Middle</text>
<text text-anchor="start" x="448.5" y="-147.8" font-family="Times New Roman,serif" font-weight="bold" font-size="14.00">English</text>
<text text-anchor="start" x="451.5" y="-133.8" font-family="Times New Roman,serif" font-size="14.00" fill="red">enditen</text>
</g>
<!-- enditerOF&#45;&gt;enditenME -->
<g id="edge52" class="edge">
<title>enditerOF&#45;&gt;enditenME</title>
<path fill="none" stroke="black" stroke-dasharray="1,5" d="M471.5,-230.84C471.5,-218.48 471.5,-201.39 471.5,-186.29"/>
<polygon fill="black" stroke="black" points="475,-186.23 471.5,-176.23 468,-186.23 475,-186.23"/>
</g>
<!-- indite -->
<g id="node52" class="node">
<title>indite</title>
<text text-anchor="start" x="460" y="-49.8" font-family="Times New Roman,serif" font-weight="bold" font-size="14.00">Modern</text>
<text text-anchor="start" x="461.5" y="-35.8" font-family="Times New Roman,serif" font-weight="bold" font-size="14.00">English</text>
<text text-anchor="start" x="469" y="-21.8" font-family="Times New Roman,serif" font-size="14.00" fill="red">indite</text>
</g>
<!-- enditenME&#45;&gt;indite -->
<g id="edge53" class="edge">
<title>enditenME&#45;&gt;indite</title>
<path fill="none" stroke="black" d="M474.35,-125.86C476.15,-110.67 478.49,-90.84 480.47,-74.07"/>
<polygon fill="black" stroke="black" points="483.96,-74.43 481.65,-64.08 477,-73.6 483.96,-74.43"/>
</g>
<!-- indict -->
<g id="node53" class="node">
<title>indict</title>
<text text-anchor="start" x="377" y="-49.8" font-family="Times New Roman,serif" font-weight="bold" font-size="14.00">Modern</text>
<text text-anchor="start" x="378.5" y="-35.8" font-family="Times New Roman,serif" font-weight="bold" font-size="14.00">English</text>
<text text-anchor="start" x="386" y="-21.8" font-family="Times New Roman,serif" font-size="14.00" fill="red">indict</text>
</g>
<!-- enditenME&#45;&gt;indict -->
<g id="edge54" class="edge">
<title>enditenME&#45;&gt;indict</title>
<path fill="none" stroke="black" d="M456.14,-125.86C446.2,-110.24 433.14,-89.72 422.28,-72.65"/>
<polygon fill="black" stroke="black" points="425.15,-70.64 416.83,-64.08 419.24,-74.4 425.15,-70.64"/>
</g>
<!-- enIE -->
<g id="node54" class="node">
<title>enIE</title>
<g id="a_node54"><a xlink:href="en-in.svg" xlink:title="&lt;b&gt;Indo&#45;&lt;br/&gt;European&lt;/b&gt;&lt;br/&gt;&lt;font color=&quot;red&quot;&gt;en&lt;/font&gt;&lt;br/&gt;&lt;font point&#45;size=&quot;12&quot;&gt;in&lt;/font&gt;">
<path fill="none" stroke="black" stroke-dasharray="5,2" d="M497,-638C497,-638 444,-638 444,-638 438,-638 432,-632 432,-626 432,-626 432,-588 432,-588 432,-582 438,-576 444,-576 444,-576 497,-576 497,-576 503,-576 509,-582 509,-588 509,-588 509,-626 509,-626 509,-632 503,-638 497,-638"/>
<text text-anchor="start" x="454" y="-623.8" font-family="Times New Roman,serif" font-weight="bold" font-size="14.00">Indo&#45;</text>
<text text-anchor="start" x="440" y="-609.8" font-family="Times New Roman,serif" font-weight="bold" font-size="14.00">European</text>
<text text-anchor="start" x="464" y="-595.8" font-family="Times New Roman,serif" font-size="14.00" fill="red">en</text>
<text text-anchor="start" x="466.5" y="-583.4" font-family="Times New Roman,serif" font-size="12.00">in</text>
</a>
</g>
</g>
<!-- inL -->
<g id="node55" class="node">
<title>inL</title>
<text text-anchor="start" x="454" y="-519.8" font-family="Times New Roman,serif" font-weight="bold" font-size="14.00">Latin</text>
<text text-anchor="start" x="463" y="-505.8" font-family="Times New Roman,serif" font-size="14.00" fill="red">in&#45;</text>
</g>
<!-- enIE&#45;&gt;inL -->
<g id="edge55" class="edge">
<title>enIE&#45;&gt;inL</title>
<path fill="none" stroke="black" d="M470.5,-575.87C470.5,-565.65 470.5,-554.29 470.5,-544.3"/>
<polygon fill="black" stroke="black" points="474,-544.12 470.5,-534.12 467,-544.12 474,-544.12"/>
</g>
<!-- inL&#45;&gt;indictareL -->
<g id="edge56" class="edge">
<title>inL&#45;&gt;indictareL</title>
<path fill="none" stroke="black" d="M470.6,-497.78C470.77,-467.73 471.13,-405.48 471.34,-369.43"/>
<polygon fill="black" stroke="black" points="474.84,-369.17 471.4,-359.15 467.84,-369.13 474.84,-369.17"/>
</g>
</g>
</svg>
