<?xml version="1.0" encoding="UTF-8" standalone="no"?>
<!DOCTYPE svg PUBLIC "-//W3C//DTD SVG 1.1//EN"
 "http://www.w3.org/Graphics/SVG/1.1/DTD/svg11.dtd">
<!-- Generated by graphviz version 2.49.0 (20210828.1703)
 -->
<!-- Pages: 1 -->
<svg width="442pt" height="194pt"
 viewBox="0.00 0.00 441.50 194.00" xmlns="http://www.w3.org/2000/svg" xmlns:xlink="http://www.w3.org/1999/xlink">
<g id="graph0" class="graph" transform="scale(1 1) rotate(0) translate(4 190)">
<polygon fill="white" stroke="transparent" points="-4,4 -4,-190 437.5,-190 437.5,4 -4,4"/>
<!-- deik -->
<g id="node1" class="node">
<title>deik</title>
<g id="a_node1"><a xlink:title="Indo&#45;European &quot;deik&#45;, deig&#45;&quot; to show">
<polygon fill="none" stroke="black" points="328.5,-182 132.5,-182 132.5,-78 328.5,-78 328.5,-182"/>
<polygon fill="none" stroke="black" points="332.5,-186 128.5,-186 128.5,-74 332.5,-74 332.5,-186"/>
<text text-anchor="start" x="159.5" y="-136.8" font-family="Times New Roman,serif" font-size="24.00">Indo&#45;European</text>
<text text-anchor="start" x="171" y="-109.6" font-family="Times New Roman,serif" font-size="18.00" fill="red">deik&#45;</text>
<text text-anchor="start" x="239.5" y="-110.2" font-family="Times New Roman,serif" font-size="16.00">to show</text>
</a>
</g>
</g>
<!-- gmcgk -->
<g id="node2" class="node">
<title>gmcgk</title>
<g id="a_node2"><a xlink:href="deik-show1.svg" xlink:title="various Germanic and&lt;br/&gt;Greek derivatives">
<path fill="none" stroke="black" stroke-dasharray="5,2" d="M127,-38C127,-38 12,-38 12,-38 6,-38 0,-32 0,-26 0,-26 0,-12 0,-12 0,-6 6,0 12,0 12,0 127,0 127,0 133,0 139,-6 139,-12 139,-12 139,-26 139,-26 139,-32 133,-38 127,-38"/>
<text text-anchor="start" x="8" y="-22.8" font-family="Times New Roman,serif" font-size="14.00">various Germanic and</text>
<text text-anchor="start" x="21" y="-7.8" font-family="Times New Roman,serif" font-size="14.00">Greek derivatives</text>
</a>
</g>
</g>
<!-- deik&#45;&gt;gmcgk -->
<g id="edge1" class="edge">
<title>deik&#45;&gt;gmcgk</title>
<path fill="none" stroke="black" d="M230.5,-73C230.5,-73 178.94,-56.03 134.18,-41.29"/>
<polygon fill="black" stroke="black" points="135.05,-37.89 124.46,-38.09 132.86,-44.54 135.05,-37.89"/>
</g>
<!-- dicereL -->
<g id="node3" class="node">
<title>dicereL</title>
<g id="a_node3"><a xlink:href="deik-show2.svg" xlink:title="&lt;b&gt;Latin&lt;/b&gt;&lt;br/&gt;&lt;font color=&quot;red&quot;&gt;dīcere&lt;/font&gt;">
<path fill="none" stroke="black" stroke-dasharray="5,2" d="M199.5,-37C199.5,-37 169.5,-37 169.5,-37 163.5,-37 157.5,-31 157.5,-25 157.5,-25 157.5,-13 157.5,-13 157.5,-7 163.5,-1 169.5,-1 169.5,-1 199.5,-1 199.5,-1 205.5,-1 211.5,-7 211.5,-13 211.5,-13 211.5,-25 211.5,-25 211.5,-31 205.5,-37 199.5,-37"/>
<text text-anchor="start" x="168" y="-22.8" font-family="Times New Roman,serif" font-weight="bold" font-size="14.00">Latin</text>
<text text-anchor="start" x="166.5" y="-8.8" font-family="Times New Roman,serif" font-size="14.00" fill="red">dīcere</text>
</a>
</g>
</g>
<!-- deik&#45;&gt;dicereL -->
<g id="edge2" class="edge">
<title>deik&#45;&gt;dicereL</title>
<path fill="none" stroke="black" d="M230.5,-73C230.5,-73 218.1,-58.71 206.18,-44.97"/>
<polygon fill="black" stroke="black" points="208.51,-42.32 199.31,-37.06 203.22,-46.91 208.51,-42.32"/>
</g>
<!-- dicareL -->
<g id="node4" class="node">
<title>dicareL</title>
<g id="a_node4"><a xlink:href="deik-show3.svg" xlink:title="&lt;b&gt;Latin&lt;/b&gt;&lt;br/&gt;&lt;font color=&quot;red&quot;&gt;dīcere, dicāre&lt;/font&gt;">
<path fill="none" stroke="black" stroke-dasharray="5,2" d="M311,-37C311,-37 242,-37 242,-37 236,-37 230,-31 230,-25 230,-25 230,-13 230,-13 230,-7 236,-1 242,-1 242,-1 311,-1 311,-1 317,-1 323,-7 323,-13 323,-13 323,-25 323,-25 323,-31 317,-37 311,-37"/>
<text text-anchor="start" x="260" y="-22.8" font-family="Times New Roman,serif" font-weight="bold" font-size="14.00">Latin</text>
<text text-anchor="start" x="238" y="-8.8" font-family="Times New Roman,serif" font-size="14.00" fill="red">dīcere, dicāre</text>
</a>
</g>
</g>
<!-- deik&#45;&gt;dicareL -->
<g id="edge3" class="edge">
<title>deik&#45;&gt;dicareL</title>
<path fill="none" stroke="black" d="M230.5,-73C230.5,-73 242.9,-58.71 254.82,-44.97"/>
<polygon fill="black" stroke="black" points="257.78,-46.91 261.69,-37.06 252.49,-42.32 257.78,-46.91"/>
</g>
<!-- other -->
<g id="node5" class="node">
<title>other</title>
<g id="a_node5"><a xlink:href="deik-show4.svg" xlink:title="all other Latin&lt;br/&gt;derivatives">
<path fill="none" stroke="black" stroke-dasharray="5,2" d="M421.5,-38C421.5,-38 353.5,-38 353.5,-38 347.5,-38 341.5,-32 341.5,-26 341.5,-26 341.5,-12 341.5,-12 341.5,-6 347.5,0 353.5,0 353.5,0 421.5,0 421.5,0 427.5,0 433.5,-6 433.5,-12 433.5,-12 433.5,-26 433.5,-26 433.5,-32 427.5,-38 421.5,-38"/>
<text text-anchor="start" x="349.5" y="-22.8" font-family="Times New Roman,serif" font-size="14.00">all other Latin</text>
<text text-anchor="start" x="357.5" y="-7.8" font-family="Times New Roman,serif" font-size="14.00">derivatives</text>
</a>
</g>
</g>
<!-- deik&#45;&gt;other -->
<g id="edge4" class="edge">
<title>deik&#45;&gt;other</title>
<path fill="none" stroke="black" d="M230.5,-73C230.5,-73 286.42,-54.12 331.52,-38.9"/>
<polygon fill="black" stroke="black" points="332.89,-42.13 341.24,-35.62 330.65,-35.5 332.89,-42.13"/>
</g>
</g>
</svg>
