<?xml version="1.0" encoding="UTF-8" standalone="no"?>
<!DOCTYPE svg PUBLIC "-//W3C//DTD SVG 1.1//EN"
 "http://www.w3.org/Graphics/SVG/1.1/DTD/svg11.dtd">
<!-- Generated by graphviz version 2.49.0 (20210828.1703)
 -->
<!-- Pages: 1 -->
<svg width="330pt" height="194pt"
 viewBox="0.00 0.00 329.50 194.00" xmlns="http://www.w3.org/2000/svg" xmlns:xlink="http://www.w3.org/1999/xlink">
<g id="graph0" class="graph" transform="scale(1 1) rotate(0) translate(4 190)">
<polygon fill="white" stroke="transparent" points="-4,4 -4,-190 325.5,-190 325.5,4 -4,4"/>
<!-- deik -->
<g id="node1" class="node">
<title>deik</title>
<g id="a_node1"><a xlink:title="Indo&#45;European &quot;deik&#45;, deig&#45;&quot; to show">
<polygon fill="none" stroke="black" points="282.5,-182 86.5,-182 86.5,-78 282.5,-78 282.5,-182"/>
<polygon fill="none" stroke="black" points="286.5,-186 82.5,-186 82.5,-74 286.5,-74 286.5,-186"/>
<text text-anchor="start" x="113.5" y="-136.8" font-family="Times New Roman,serif" font-size="24.00">Indo&#45;European</text>
<text text-anchor="start" x="125" y="-109.6" font-family="Times New Roman,serif" font-size="18.00" fill="red">deik&#45;</text>
<text text-anchor="start" x="193.5" y="-110.2" font-family="Times New Roman,serif" font-size="16.00">to show</text>
</a>
</g>
</g>
<!-- gmcgk -->
<g id="node2" class="node">
<title>gmcgk</title>
<g id="a_node2"><a xlink:href="deik-show1.svg" xlink:title="various Germanic and&lt;br/&gt;Greek derivatives">
<path fill="none" stroke="black" stroke-dasharray="5,2" d="M127,-38C127,-38 12,-38 12,-38 6,-38 0,-32 0,-26 0,-26 0,-12 0,-12 0,-6 6,0 12,0 12,0 127,0 127,0 133,0 139,-6 139,-12 139,-12 139,-26 139,-26 139,-32 133,-38 127,-38"/>
<text text-anchor="start" x="8" y="-22.8" font-family="Times New Roman,serif" font-size="14.00">various Germanic and</text>
<text text-anchor="start" x="21" y="-7.8" font-family="Times New Roman,serif" font-size="14.00">Greek derivatives</text>
</a>
</g>
</g>
<!-- deik&#45;&gt;gmcgk -->
<g id="edge1" class="edge">
<title>deik&#45;&gt;gmcgk</title>
<path fill="none" stroke="black" d="M182.5,-73C182.5,-73 148.26,-56.94 117.47,-42.5"/>
<polygon fill="black" stroke="black" points="118.61,-39.17 108.07,-38.09 115.64,-45.51 118.61,-39.17"/>
</g>
<!-- dicereL -->
<g id="node3" class="node">
<title>dicereL</title>
<g id="a_node3"><a xlink:href="deik-show2.svg" xlink:title="&lt;b&gt;Latin&lt;/b&gt;&lt;br/&gt;&lt;font color=&quot;red&quot;&gt;dīcere&lt;/font&gt;">
<path fill="none" stroke="black" stroke-dasharray="5,2" d="M199.5,-37C199.5,-37 169.5,-37 169.5,-37 163.5,-37 157.5,-31 157.5,-25 157.5,-25 157.5,-13 157.5,-13 157.5,-7 163.5,-1 169.5,-1 169.5,-1 199.5,-1 199.5,-1 205.5,-1 211.5,-7 211.5,-13 211.5,-13 211.5,-25 211.5,-25 211.5,-31 205.5,-37 199.5,-37"/>
<text text-anchor="start" x="168" y="-22.8" font-family="Times New Roman,serif" font-weight="bold" font-size="14.00">Latin</text>
<text text-anchor="start" x="166.5" y="-8.8" font-family="Times New Roman,serif" font-size="14.00" fill="red">dīcere</text>
</a>
</g>
</g>
<!-- deik&#45;&gt;dicereL -->
<g id="edge2" class="edge">
<title>deik&#45;&gt;dicereL</title>
<path fill="none" stroke="black" d="M182.5,-73C182.5,-73 182.98,-60.27 183.47,-47.29"/>
<polygon fill="black" stroke="black" points="186.98,-47.19 183.86,-37.06 179.98,-46.92 186.98,-47.19"/>
</g>
<!-- other -->
<g id="node4" class="node">
<title>other</title>
<g id="a_node4"><a xlink:href="deik-show3.svg" xlink:title="all other Latin&lt;br/&gt;derivatives">
<path fill="none" stroke="black" stroke-dasharray="5,2" d="M309.5,-38C309.5,-38 241.5,-38 241.5,-38 235.5,-38 229.5,-32 229.5,-26 229.5,-26 229.5,-12 229.5,-12 229.5,-6 235.5,0 241.5,0 241.5,0 309.5,0 309.5,0 315.5,0 321.5,-6 321.5,-12 321.5,-12 321.5,-26 321.5,-26 321.5,-32 315.5,-38 309.5,-38"/>
<text text-anchor="start" x="237.5" y="-22.8" font-family="Times New Roman,serif" font-size="14.00">all other Latin</text>
<text text-anchor="start" x="245.5" y="-7.8" font-family="Times New Roman,serif" font-size="14.00">derivatives</text>
</a>
</g>
</g>
<!-- deik&#45;&gt;other -->
<g id="edge3" class="edge">
<title>deik&#45;&gt;other</title>
<path fill="none" stroke="black" d="M182.5,-73C182.5,-73 209.96,-57.35 235.03,-43.06"/>
<polygon fill="black" stroke="black" points="236.8,-46.08 243.75,-38.09 233.33,-40 236.8,-46.08"/>
</g>
</g>
</svg>
