<?xml version="1.0" encoding="UTF-8" standalone="no"?>
<!DOCTYPE svg PUBLIC "-//W3C//DTD SVG 1.1//EN"
 "http://www.w3.org/Graphics/SVG/1.1/DTD/svg11.dtd">
<!-- Generated by graphviz version 2.49.0 (20210828.1703)
 -->
<!-- Pages: 1 -->
<svg width="290pt" height="192pt"
 viewBox="0.00 0.00 290.00 192.00" xmlns="http://www.w3.org/2000/svg" xmlns:xlink="http://www.w3.org/1999/xlink">
<g id="graph0" class="graph" transform="scale(1 1) rotate(0) translate(4 188)">
<polygon fill="white" stroke="transparent" points="-4,4 -4,-188 286,-188 286,4 -4,4"/>
<!-- dekmIE -->
<g id="node1" class="node">
<title>dekmIE</title>
<g id="a_node1"><a xlink:title="Indo&#45;European &quot;*dekm̥&quot; ten">
<polygon fill="none" stroke="black" points="242.5,-180 31.5,-180 31.5,-76 242.5,-76 242.5,-180"/>
<polygon fill="none" stroke="black" points="246.5,-184 27.5,-184 27.5,-72 246.5,-72 246.5,-184"/>
<text text-anchor="start" x="59" y="-135.8" font-family="Times New Roman,serif" font-weight="bold" font-size="24.00">Indo&#45;European</text>
<text text-anchor="start" x="79" y="-107.6" font-family="Times New Roman,serif" font-size="18.00" fill="red">*dekm̥</text>
<text text-anchor="start" x="176.5" y="-108.2" font-family="Times New Roman,serif" font-size="16.00">ten</text>
</a>
</g>
</g>
<!-- dekm1 -->
<g id="node2" class="node">
<title>dekm1</title>
<g id="a_node2"><a xlink:href="dekm-ten1.svg" xlink:title="ten">
<path fill="none" stroke="black" stroke-dasharray="5,2" d="M42,-36C42,-36 12,-36 12,-36 6,-36 0,-30 0,-24 0,-24 0,-12 0,-12 0,-6 6,0 12,0 12,0 42,0 42,0 48,0 54,-6 54,-12 54,-12 54,-24 54,-24 54,-30 48,-36 42,-36"/>
<text text-anchor="start" x="18.5" y="-14.3" font-family="Times New Roman,serif" font-size="14.00">ten</text>
</a>
</g>
</g>
<!-- dekmIE&#45;&gt;dekm1 -->
<g id="edge1" class="edge">
<title>dekmIE&#45;&gt;dekm1</title>
<path fill="none" stroke="black" d="M137,-71C137,-71 95.39,-51.33 63.35,-36.18"/>
<polygon fill="black" stroke="black" points="64.73,-32.96 54.19,-31.85 61.74,-39.29 64.73,-32.96"/>
</g>
<!-- dekm2 -->
<g id="node3" class="node">
<title>dekm2</title>
<g id="a_node3"><a xlink:href="dekm-ten2.svg" xlink:title="compound numbers">
<path fill="none" stroke="black" stroke-dasharray="5,2" d="M189.5,-36C189.5,-36 84.5,-36 84.5,-36 78.5,-36 72.5,-30 72.5,-24 72.5,-24 72.5,-12 72.5,-12 72.5,-6 78.5,0 84.5,0 84.5,0 189.5,0 189.5,0 195.5,0 201.5,-6 201.5,-12 201.5,-12 201.5,-24 201.5,-24 201.5,-30 195.5,-36 189.5,-36"/>
<text text-anchor="start" x="80.5" y="-14.3" font-family="Times New Roman,serif" font-size="14.00">compound numbers</text>
</a>
</g>
</g>
<!-- dekmIE&#45;&gt;dekm2 -->
<g id="edge2" class="edge">
<title>dekmIE&#45;&gt;dekm2</title>
<path fill="none" stroke="black" d="M137,-71C137,-71 137,-58.91 137,-46.39"/>
<polygon fill="black" stroke="black" points="140.5,-46.03 137,-36.03 133.5,-46.03 140.5,-46.03"/>
</g>
<!-- dekm3 -->
<g id="node4" class="node">
<title>dekm3</title>
<g id="a_node4"><a xlink:href="dekm-ten3.svg" xlink:title="hundred">
<path fill="none" stroke="black" stroke-dasharray="5,2" d="M270,-36C270,-36 232,-36 232,-36 226,-36 220,-30 220,-24 220,-24 220,-12 220,-12 220,-6 226,0 232,0 232,0 270,0 270,0 276,0 282,-6 282,-12 282,-12 282,-24 282,-24 282,-30 276,-36 270,-36"/>
<text text-anchor="start" x="228" y="-14.3" font-family="Times New Roman,serif" font-size="14.00">hundred</text>
</a>
</g>
</g>
<!-- dekmIE&#45;&gt;dekm3 -->
<g id="edge3" class="edge">
<title>dekmIE&#45;&gt;dekm3</title>
<path fill="none" stroke="black" d="M137,-71C137,-71 177.67,-52.45 210.43,-37.51"/>
<polygon fill="black" stroke="black" points="212.2,-40.54 219.85,-33.21 209.3,-34.17 212.2,-40.54"/>
</g>
</g>
</svg>
