<?xml version="1.0" encoding="UTF-8" standalone="no"?>
<!DOCTYPE svg PUBLIC "-//W3C//DTD SVG 1.1//EN"
 "http://www.w3.org/Graphics/SVG/1.1/DTD/svg11.dtd">
<!-- Generated by graphviz version 2.49.0 (20210828.1703)
 -->
<!-- Pages: 1 -->
<svg width="1240pt" height="732pt"
 viewBox="0.00 0.00 1239.50 732.00" xmlns="http://www.w3.org/2000/svg" xmlns:xlink="http://www.w3.org/1999/xlink">
<g id="graph0" class="graph" transform="scale(1 1) rotate(0) translate(4 728)">
<polygon fill="white" stroke="transparent" points="-4,4 -4,-728 1235.5,-728 1235.5,4 -4,4"/>
<!-- del -->
<g id="node1" class="node">
<title>del</title>
<g id="a_node1"><a xlink:href="del-long0.svg" xlink:title="Indo&#45;European &quot;*del&#45;&quot; long">
<polygon fill="none" stroke="black" stroke-dasharray="5,2" points="722,-724 511,-724 511,-620 722,-620 722,-724"/>
<text text-anchor="start" x="538.5" y="-679.8" font-family="Times New Roman,serif" font-weight="bold" font-size="24.00">Indo&#45;European</text>
<text text-anchor="start" x="559.5" y="-651.6" font-family="Times New Roman,serif" font-size="18.00" fill="red">*del&#45;</text>
<text text-anchor="start" x="646.5" y="-652.2" font-family="Times New Roman,serif" font-size="16.00">long</text>
</a>
</g>
</g>
<!-- dlongho -->
<g id="node2" class="node">
<title>dlongho</title>
<text text-anchor="start" x="585.5" y="-543.3" font-family="Times New Roman,serif" font-size="14.00" fill="red">*dlon&#45;gho&#45;</text>
</g>
<!-- del&#45;&gt;dlongho -->
<g id="edge1" class="edge">
<title>del&#45;&gt;dlongho</title>
<path fill="none" stroke="black" d="M616.5,-619.91C616.5,-604.64 616.5,-588.5 616.5,-575.38"/>
<polygon fill="black" stroke="black" points="620,-575.16 616.5,-565.16 613,-575.16 620,-575.16"/>
</g>
<!-- longusL -->
<g id="node3" class="node">
<title>longusL</title>
<text text-anchor="start" x="600" y="-453.8" font-family="Times New Roman,serif" font-weight="bold" font-size="14.00">Latin</text>
<text text-anchor="start" x="598" y="-439.8" font-family="Times New Roman,serif" font-size="14.00" fill="red">longus</text>
</g>
<!-- dlongho&#45;&gt;longusL -->
<g id="edge2" class="edge">
<title>dlongho&#45;&gt;longusL</title>
<path fill="none" stroke="black" d="M616.5,-528.58C616.5,-514.65 616.5,-494.86 616.5,-478.76"/>
<polygon fill="black" stroke="black" points="620,-478.31 616.5,-468.31 613,-478.31 620,-478.31"/>
</g>
<!-- longaoL -->
<g id="node4" class="node">
<title>longaoL</title>
<text text-anchor="start" x="528.5" y="-375.8" font-family="Times New Roman,serif" font-weight="bold" font-size="14.00">Late Latin</text>
<text text-anchor="start" x="541.5" y="-361.8" font-family="Times New Roman,serif" font-size="14.00" fill="red">longao</text>
<text text-anchor="start" x="530" y="-349.4" font-family="Times New Roman,serif" font-size="12.00">large intestine</text>
</g>
<!-- longusL&#45;&gt;longaoL -->
<g id="edge3" class="edge">
<title>longusL&#45;&gt;longaoL</title>
<path fill="none" stroke="black" d="M604.62,-431.61C598.07,-422.02 589.74,-409.81 582.08,-398.6"/>
<polygon fill="black" stroke="black" points="584.93,-396.56 576.4,-390.28 579.15,-400.51 584.93,-396.56"/>
</g>
<!-- longOF -->
<g id="node7" class="node">
<title>longOF</title>
<text text-anchor="start" x="270.5" y="-369.8" font-family="Times New Roman,serif" font-weight="bold" font-size="14.00">Old French</text>
<text text-anchor="start" x="293" y="-355.8" font-family="Times New Roman,serif" font-size="14.00" fill="red">long</text>
</g>
<!-- longusL&#45;&gt;longOF -->
<g id="edge6" class="edge">
<title>longusL&#45;&gt;longOF</title>
<path fill="none" stroke="black" d="M589.19,-444.56C541.44,-436.42 440.01,-417.36 357.5,-390 355.41,-389.31 353.28,-388.56 351.15,-387.77"/>
<polygon fill="black" stroke="black" points="352.39,-384.5 341.8,-384.11 349.84,-391.01 352.39,-384.5"/>
</g>
<!-- longitudoL -->
<g id="node11" class="node">
<title>longitudoL</title>
<text text-anchor="start" x="374.5" y="-368.8" font-family="Times New Roman,serif" font-size="14.00" fill="red">longitūdō, longitūdin&#45;</text>
<text text-anchor="start" x="421" y="-356.4" font-family="Times New Roman,serif" font-size="12.00">length</text>
</g>
<!-- longusL&#45;&gt;longitudoL -->
<g id="edge10" class="edge">
<title>longusL&#45;&gt;longitudoL</title>
<path fill="none" stroke="black" d="M589.25,-436.72C560.88,-423.94 515.9,-403.67 481.72,-388.28"/>
<polygon fill="black" stroke="black" points="482.95,-384.99 472.39,-384.07 480.07,-391.37 482.95,-384.99"/>
</g>
<!-- longicorniaNL -->
<g id="node17" class="node">
<title>longicorniaNL</title>
<text text-anchor="start" x="20.5" y="-369.8" font-family="Times New Roman,serif" font-weight="bold" font-size="14.00">New Latin</text>
<text text-anchor="start" x="19" y="-355.8" font-family="Times New Roman,serif" font-size="14.00" fill="red">Longicornia</text>
</g>
<!-- longusL&#45;&gt;longicorniaNL -->
<g id="edge15" class="edge">
<title>longusL&#45;&gt;longicorniaNL</title>
<path fill="none" stroke="black" stroke-dasharray="5,2" d="M589.49,-447.81C514.2,-444.06 295.91,-430.27 119.5,-390 114.46,-388.85 109.27,-387.46 104.11,-385.93"/>
<polygon fill="black" stroke="black" points="104.87,-382.5 94.28,-382.87 102.78,-389.18 104.87,-382.5"/>
</g>
<!-- elongareL -->
<g id="node21" class="node">
<title>elongareL</title>
<text text-anchor="start" x="154.5" y="-369.8" font-family="Times New Roman,serif" font-weight="bold" font-size="14.00">Late Latin</text>
<text text-anchor="start" x="137" y="-355.8" font-family="Times New Roman,serif" font-size="14.00" fill="red">ēlongāre, ēlongāt&#45;</text>
</g>
<!-- longusL&#45;&gt;elongareL -->
<g id="edge19" class="edge">
<title>longusL&#45;&gt;elongareL</title>
<path fill="none" stroke="black" d="M589.31,-446.18C528.48,-439.52 377.04,-421.01 253.5,-390 249.95,-389.11 246.32,-388.12 242.68,-387.05"/>
<polygon fill="black" stroke="black" points="243.64,-383.69 233.05,-384.11 241.59,-390.38 243.64,-383.69"/>
</g>
<!-- longaevusL -->
<g id="node28" class="node">
<title>longaevusL</title>
<text text-anchor="start" x="752.5" y="-368.8" font-family="Times New Roman,serif" font-size="14.00" fill="red">longaevus</text>
<text text-anchor="start" x="764.5" y="-356.4" font-family="Times New Roman,serif" font-size="12.00">ancient</text>
</g>
<!-- longusL&#45;&gt;longaevusL -->
<g id="edge26" class="edge">
<title>longusL&#45;&gt;longaevusL</title>
<path fill="none" stroke="black" d="M643.58,-435.46C668.95,-422.78 707.29,-403.6 736.96,-388.77"/>
<polygon fill="black" stroke="black" points="738.88,-391.73 746.25,-384.12 735.74,-385.46 738.88,-391.73"/>
</g>
<!-- oblongusL -->
<g id="node37" class="node">
<title>oblongusL</title>
<text text-anchor="start" x="1066.5" y="-368.8" font-family="Times New Roman,serif" font-size="14.00" fill="red">oblongus</text>
<text text-anchor="start" x="1077" y="-356.4" font-family="Times New Roman,serif" font-size="12.00">oblong</text>
</g>
<!-- longusL&#45;&gt;oblongusL -->
<g id="edge35" class="edge">
<title>longusL&#45;&gt;oblongusL</title>
<path fill="none" stroke="black" d="M643.89,-443.59C669.75,-438.59 709.66,-431.19 744.5,-426 879.07,-405.96 918.51,-430.18 1048.5,-390 1050.35,-389.43 1052.22,-388.78 1054.08,-388.07"/>
<polygon fill="black" stroke="black" points="1055.49,-391.27 1063.31,-384.12 1052.74,-384.84 1055.49,-391.27"/>
</g>
<!-- prolongareL -->
<g id="node42" class="node">
<title>prolongareL</title>
<text text-anchor="start" x="842.5" y="-369.8" font-family="Times New Roman,serif" font-weight="bold" font-size="14.00">Late Latin</text>
<text text-anchor="start" x="844" y="-355.8" font-family="Times New Roman,serif" font-size="14.00" fill="red">prōlongāre</text>
</g>
<!-- longusL&#45;&gt;prolongareL -->
<g id="edge40" class="edge">
<title>longusL&#45;&gt;prolongareL</title>
<path fill="none" stroke="black" d="M643.68,-442.84C683.99,-433.36 761.74,-413.78 825.5,-390 827.13,-389.39 828.79,-388.75 830.45,-388.08"/>
<polygon fill="black" stroke="black" points="832.15,-391.16 840,-384.05 829.43,-384.72 832.15,-391.16"/>
</g>
<!-- loignAN -->
<g id="node44" class="node">
<title>loignAN</title>
<text text-anchor="start" x="627" y="-375.8" font-family="Times New Roman,serif" font-weight="bold" font-size="14.00">Anglo&#45;Norman</text>
<text text-anchor="start" x="658.5" y="-361.8" font-family="Times New Roman,serif" font-size="14.00" fill="red">loign</text>
<text text-anchor="start" x="666" y="-349.4" font-family="Times New Roman,serif" font-size="12.00">far</text>
</g>
<!-- longusL&#45;&gt;loignAN -->
<g id="edge43" class="edge">
<title>longusL&#45;&gt;loignAN</title>
<path fill="none" stroke="black" d="M628.38,-431.61C634.93,-422.02 643.26,-409.81 650.92,-398.6"/>
<polygon fill="black" stroke="black" points="653.85,-400.51 656.6,-390.28 648.07,-396.56 653.85,-400.51"/>
</g>
<!-- longanimisL -->
<g id="node51" class="node">
<title>longanimisL</title>
<text text-anchor="start" x="1158.5" y="-368.8" font-family="Times New Roman,serif" font-size="14.00" fill="red">longanimis</text>
<text text-anchor="start" x="1173" y="-356.4" font-family="Times New Roman,serif" font-size="12.00">patient</text>
</g>
<!-- longusL&#45;&gt;longanimisL -->
<g id="edge50" class="edge">
<title>longusL&#45;&gt;longanimisL</title>
<path fill="none" stroke="black" d="M643.86,-443.38C669.7,-438.24 709.6,-430.73 744.5,-426 917.43,-402.55 966.44,-433.28 1135.5,-390 1138.28,-389.29 1141.1,-388.45 1143.91,-387.52"/>
<polygon fill="black" stroke="black" points="1145.21,-390.77 1153.41,-384.06 1142.82,-384.19 1145.21,-390.77"/>
</g>
<!-- linguicaP -->
<g id="node5" class="node">
<title>linguicaP</title>
<text text-anchor="start" x="525.5" y="-120.8" font-family="Times New Roman,serif" font-weight="bold" font-size="14.00">Portuguese</text>
<text text-anchor="start" x="539" y="-106.8" font-family="Times New Roman,serif" font-size="14.00" fill="red">linguiça</text>
</g>
<!-- longaoL&#45;&gt;linguicaP -->
<g id="edge4" class="edge">
<title>longaoL&#45;&gt;linguicaP</title>
<path fill="none" stroke="black" d="M560.5,-341.76C560.5,-295.99 560.5,-194.35 560.5,-145.4"/>
<polygon fill="black" stroke="black" points="564,-145.24 560.5,-135.24 557,-145.24 564,-145.24"/>
</g>
<!-- linguica -->
<g id="node6" class="node">
<title>linguica</title>
<text text-anchor="start" x="536" y="-35.8" font-family="Times New Roman,serif" font-weight="bold" font-size="14.00">Modern</text>
<text text-anchor="start" x="537.5" y="-21.8" font-family="Times New Roman,serif" font-weight="bold" font-size="14.00">English</text>
<text text-anchor="start" x="539" y="-7.8" font-family="Times New Roman,serif" font-size="14.00" fill="red">linguiça</text>
</g>
<!-- linguicaP&#45;&gt;linguica -->
<g id="edge5" class="edge">
<title>linguicaP&#45;&gt;linguica</title>
<path fill="none" stroke="black" stroke-dasharray="5,2" d="M560.5,-98.65C560.5,-87.76 560.5,-73.36 560.5,-60.25"/>
<polygon fill="black" stroke="black" points="564,-60.1 560.5,-50.1 557,-60.1 564,-60.1"/>
</g>
<!-- longeronOF -->
<g id="node8" class="node">
<title>longeronOF</title>
<text text-anchor="start" x="343" y="-290.8" font-family="Times New Roman,serif" font-size="14.00" fill="red">longeron</text>
<text text-anchor="start" x="355" y="-278.4" font-family="Times New Roman,serif" font-size="12.00">beam</text>
</g>
<!-- longOF&#45;&gt;longeronOF -->
<g id="edge7" class="edge">
<title>longOF&#45;&gt;longeronOF</title>
<path fill="none" stroke="black" d="M319.57,-347.75C327.65,-337.84 337.96,-325.21 346.94,-314.21"/>
<polygon fill="black" stroke="black" points="349.88,-316.14 353.49,-306.18 344.45,-311.71 349.88,-316.14"/>
</g>
<!-- alongierOF -->
<g id="node31" class="node">
<title>alongierOF</title>
<text text-anchor="start" x="262.5" y="-290.8" font-family="Times New Roman,serif" font-size="14.00" fill="red">alongier</text>
<text text-anchor="start" x="260" y="-278.4" font-family="Times New Roman,serif" font-size="12.00">to lengthen</text>
</g>
<!-- longOF&#45;&gt;alongierOF -->
<g id="edge30" class="edge">
<title>longOF&#45;&gt;alongierOF</title>
<path fill="none" stroke="black" d="M300.73,-347.75C298.13,-338.33 294.85,-326.45 291.92,-315.84"/>
<polygon fill="black" stroke="black" points="295.28,-314.88 289.25,-306.18 288.54,-316.75 295.28,-314.88"/>
</g>
<!-- longeronF -->
<g id="node9" class="node">
<title>longeronF</title>
<text text-anchor="start" x="345.5" y="-212.8" font-family="Times New Roman,serif" font-weight="bold" font-size="14.00">French</text>
<text text-anchor="start" x="343" y="-198.8" font-family="Times New Roman,serif" font-size="14.00" fill="red">longeron</text>
</g>
<!-- longeronOF&#45;&gt;longeronF -->
<g id="edge8" class="edge">
<title>longeronOF&#45;&gt;longeronF</title>
<path fill="none" stroke="black" d="M367.5,-269.91C367.5,-260.34 367.5,-248.18 367.5,-237.32"/>
<polygon fill="black" stroke="black" points="371,-237.04 367.5,-227.04 364,-237.04 371,-237.04"/>
</g>
<!-- longeron -->
<g id="node10" class="node">
<title>longeron</title>
<text text-anchor="start" x="343" y="-35.8" font-family="Times New Roman,serif" font-weight="bold" font-size="14.00">Modern</text>
<text text-anchor="start" x="344.5" y="-21.8" font-family="Times New Roman,serif" font-weight="bold" font-size="14.00">English</text>
<text text-anchor="start" x="343" y="-7.8" font-family="Times New Roman,serif" font-size="14.00" fill="red">longeron</text>
</g>
<!-- longeronF&#45;&gt;longeron -->
<g id="edge9" class="edge">
<title>longeronF&#45;&gt;longeron</title>
<path fill="none" stroke="black" stroke-dasharray="5,2" d="M367.5,-190.88C367.5,-161.11 367.5,-99.29 367.5,-60.38"/>
<polygon fill="black" stroke="black" points="371,-60.06 367.5,-50.06 364,-60.06 371,-60.06"/>
</g>
<!-- longitudeOF -->
<g id="node12" class="node">
<title>longitudeOF</title>
<text text-anchor="start" x="426.5" y="-291.8" font-family="Times New Roman,serif" font-weight="bold" font-size="14.00">Old French</text>
<text text-anchor="start" x="435.5" y="-277.8" font-family="Times New Roman,serif" font-size="14.00" fill="red">longitude</text>
</g>
<!-- longitudoL&#45;&gt;longitudeOF -->
<g id="edge11" class="edge">
<title>longitudoL&#45;&gt;longitudeOF</title>
<path fill="none" stroke="black" d="M440.63,-347.75C443.98,-338.33 448.2,-326.45 451.97,-315.84"/>
<polygon fill="black" stroke="black" points="455.35,-316.77 455.4,-306.18 448.75,-314.43 455.35,-316.77"/>
</g>
<!-- longitudeME -->
<g id="node13" class="node">
<title>longitudeME</title>
<text text-anchor="start" x="440" y="-127.8" font-family="Times New Roman,serif" font-weight="bold" font-size="14.00">Middle</text>
<text text-anchor="start" x="438.5" y="-113.8" font-family="Times New Roman,serif" font-weight="bold" font-size="14.00">English</text>
<text text-anchor="start" x="435.5" y="-99.8" font-family="Times New Roman,serif" font-size="14.00" fill="red">longitude</text>
</g>
<!-- longitudeOF&#45;&gt;longitudeME -->
<g id="edge12" class="edge">
<title>longitudeOF&#45;&gt;longitudeME</title>
<path fill="none" stroke="black" stroke-dasharray="5,2" d="M461.5,-269.87C461.5,-242.49 461.5,-188.34 461.5,-152.65"/>
<polygon fill="black" stroke="black" points="465,-152.22 461.5,-142.22 458,-152.22 465,-152.22"/>
</g>
<!-- longitude -->
<g id="node14" class="node">
<title>longitude</title>
<text text-anchor="start" x="437" y="-35.8" font-family="Times New Roman,serif" font-weight="bold" font-size="14.00">Modern</text>
<text text-anchor="start" x="438.5" y="-21.8" font-family="Times New Roman,serif" font-weight="bold" font-size="14.00">English</text>
<text text-anchor="start" x="435.5" y="-7.8" font-family="Times New Roman,serif" font-size="14.00" fill="red">longitude</text>
</g>
<!-- longitudeME&#45;&gt;longitude -->
<g id="edge13" class="edge">
<title>longitudeME&#45;&gt;longitude</title>
<path fill="none" stroke="black" d="M461.5,-91.88C461.5,-82.2 461.5,-70.85 461.5,-60.34"/>
<polygon fill="black" stroke="black" points="465,-60.18 461.5,-50.18 458,-60.18 465,-60.18"/>
</g>
<!-- kerIE -->
<g id="node15" class="node">
<title>kerIE</title>
<g id="a_node15"><a xlink:href="ker-horn2.svg" xlink:title="&lt;b&gt;Indo&#45;&lt;br/&gt;European&lt;/b&gt;&lt;br/&gt;&lt;font color=&quot;red&quot;&gt;*ker&#45;&lt;/font&gt;&lt;br/&gt;&lt;font point&#45;size=&quot;12&quot;&gt;horn, head&lt;/font&gt;">
<path fill="none" stroke="black" stroke-dasharray="5,2" d="M79,-578C79,-578 26,-578 26,-578 20,-578 14,-572 14,-566 14,-566 14,-528 14,-528 14,-522 20,-516 26,-516 26,-516 79,-516 79,-516 85,-516 91,-522 91,-528 91,-528 91,-566 91,-566 91,-572 85,-578 79,-578"/>
<text text-anchor="start" x="36" y="-563.8" font-family="Times New Roman,serif" font-weight="bold" font-size="14.00">Indo&#45;</text>
<text text-anchor="start" x="22" y="-549.8" font-family="Times New Roman,serif" font-weight="bold" font-size="14.00">European</text>
<text text-anchor="start" x="38" y="-535.8" font-family="Times New Roman,serif" font-size="14.00" fill="red">*ker&#45;</text>
<text text-anchor="start" x="28" y="-523.4" font-family="Times New Roman,serif" font-size="12.00">horn, head</text>
</a>
</g>
</g>
<!-- cornuL -->
<g id="node16" class="node">
<title>cornuL</title>
<text text-anchor="start" x="36" y="-459.8" font-family="Times New Roman,serif" font-weight="bold" font-size="14.00">Latin</text>
<text text-anchor="start" x="36" y="-445.8" font-family="Times New Roman,serif" font-size="14.00" fill="red">cornū</text>
<text text-anchor="start" x="42" y="-433.4" font-family="Times New Roman,serif" font-size="12.00">horn</text>
</g>
<!-- kerIE&#45;&gt;cornuL -->
<g id="edge14" class="edge">
<title>kerIE&#45;&gt;cornuL</title>
<path fill="none" stroke="black" d="M52.5,-515.94C52.5,-505.94 52.5,-494.73 52.5,-484.48"/>
<polygon fill="black" stroke="black" points="56,-484.24 52.5,-474.24 49,-484.24 56,-484.24"/>
</g>
<!-- cornuL&#45;&gt;longicorniaNL -->
<g id="edge16" class="edge">
<title>cornuL&#45;&gt;longicorniaNL</title>
<path fill="none" stroke="black" stroke-dasharray="5,2" d="M52.5,-425.72C52.5,-415.88 52.5,-404.36 52.5,-394.13"/>
<polygon fill="black" stroke="black" points="56,-394.08 52.5,-384.08 49,-394.08 56,-394.08"/>
</g>
<!-- longicorn -->
<g id="node18" class="node">
<title>longicorn</title>
<text text-anchor="start" x="10" y="-35.8" font-family="Times New Roman,serif" font-weight="bold" font-size="14.00">Modern</text>
<text text-anchor="start" x="11.5" y="-21.8" font-family="Times New Roman,serif" font-weight="bold" font-size="14.00">English</text>
<text text-anchor="start" x="8" y="-7.8" font-family="Times New Roman,serif" font-size="14.00" fill="red">longicorn</text>
</g>
<!-- longicorniaNL&#45;&gt;longicorn -->
<g id="edge17" class="edge">
<title>longicorniaNL&#45;&gt;longicorn</title>
<path fill="none" stroke="black" stroke-dasharray="5,2" d="M51.58,-347.72C48.75,-294.46 40.13,-132.1 36.33,-60.52"/>
<polygon fill="black" stroke="black" points="39.81,-60.04 35.79,-50.24 32.82,-60.41 39.81,-60.04"/>
</g>
<!-- eghsIE -->
<g id="node19" class="node">
<title>eghsIE</title>
<g id="a_node19"><a xlink:href="eghs-out.svg" xlink:title="&lt;b&gt;Indo&#45;&lt;br/&gt;European&lt;/b&gt;&lt;br/&gt;&lt;font color=&quot;red&quot;&gt;*eghs&lt;/font&gt;&lt;br/&gt;&lt;font point&#45;size=&quot;12&quot;&gt;out&lt;/font&gt;">
<path fill="none" stroke="black" stroke-dasharray="5,2" d="M213,-578C213,-578 160,-578 160,-578 154,-578 148,-572 148,-566 148,-566 148,-528 148,-528 148,-522 154,-516 160,-516 160,-516 213,-516 213,-516 219,-516 225,-522 225,-528 225,-528 225,-566 225,-566 225,-572 219,-578 213,-578"/>
<text text-anchor="start" x="170" y="-563.8" font-family="Times New Roman,serif" font-weight="bold" font-size="14.00">Indo&#45;</text>
<text text-anchor="start" x="156" y="-549.8" font-family="Times New Roman,serif" font-weight="bold" font-size="14.00">European</text>
<text text-anchor="start" x="170" y="-535.8" font-family="Times New Roman,serif" font-size="14.00" fill="red">*eghs</text>
<text text-anchor="start" x="179" y="-523.4" font-family="Times New Roman,serif" font-size="12.00">out</text>
</a>
</g>
</g>
<!-- exL -->
<g id="node20" class="node">
<title>exL</title>
<text text-anchor="start" x="170" y="-453.8" font-family="Times New Roman,serif" font-weight="bold" font-size="14.00">Latin</text>
<text text-anchor="start" x="168.5" y="-439.8" font-family="Times New Roman,serif" font-size="14.00" fill="red">ex&#45;, ē&#45;</text>
</g>
<!-- eghsIE&#45;&gt;exL -->
<g id="edge18" class="edge">
<title>eghsIE&#45;&gt;exL</title>
<path fill="none" stroke="black" d="M186.5,-515.94C186.5,-503.87 186.5,-490.06 186.5,-478.28"/>
<polygon fill="black" stroke="black" points="190,-478.15 186.5,-468.15 183,-478.15 190,-478.15"/>
</g>
<!-- exL&#45;&gt;elongareL -->
<g id="edge20" class="edge">
<title>exL&#45;&gt;elongareL</title>
<path fill="none" stroke="black" d="M186.5,-431.61C186.5,-420.77 186.5,-406.6 186.5,-394.29"/>
<polygon fill="black" stroke="black" points="190,-394.08 186.5,-384.08 183,-394.08 190,-394.08"/>
</g>
<!-- elongate -->
<g id="node22" class="node">
<title>elongate</title>
<text text-anchor="start" x="95" y="-35.8" font-family="Times New Roman,serif" font-weight="bold" font-size="14.00">Modern</text>
<text text-anchor="start" x="96.5" y="-21.8" font-family="Times New Roman,serif" font-weight="bold" font-size="14.00">English</text>
<text text-anchor="start" x="96.5" y="-7.8" font-family="Times New Roman,serif" font-size="14.00" fill="red">elongate</text>
</g>
<!-- elongareL&#45;&gt;elongate -->
<g id="edge21" class="edge">
<title>elongareL&#45;&gt;elongate</title>
<path fill="none" stroke="black" stroke-dasharray="5,2" d="M167.64,-347.8C157.07,-336.94 144.79,-321.97 138.5,-306 105.68,-222.7 110.19,-114.73 115.34,-60.41"/>
<polygon fill="black" stroke="black" points="118.84,-60.59 116.37,-50.29 111.88,-59.89 118.84,-60.59"/>
</g>
<!-- esloignerOF -->
<g id="node23" class="node">
<title>esloignerOF</title>
<text text-anchor="start" x="155.5" y="-291.8" font-family="Times New Roman,serif" font-weight="bold" font-size="14.00">Old French</text>
<text text-anchor="start" x="165.5" y="-277.8" font-family="Times New Roman,serif" font-size="14.00" fill="red">esloigner</text>
</g>
<!-- elongareL&#45;&gt;esloignerOF -->
<g id="edge22" class="edge">
<title>elongareL&#45;&gt;esloignerOF</title>
<path fill="none" stroke="black" d="M187.41,-347.75C187.9,-338.43 188.52,-326.69 189.07,-316.17"/>
<polygon fill="black" stroke="black" points="192.57,-316.35 189.6,-306.18 185.58,-315.98 192.57,-316.35"/>
</g>
<!-- elongenME -->
<g id="node24" class="node">
<title>elongenME</title>
<text text-anchor="start" x="175" y="-219.8" font-family="Times New Roman,serif" font-weight="bold" font-size="14.00">Middle</text>
<text text-anchor="start" x="173.5" y="-205.8" font-family="Times New Roman,serif" font-weight="bold" font-size="14.00">English</text>
<text text-anchor="start" x="175" y="-191.8" font-family="Times New Roman,serif" font-size="14.00" fill="red">elongen</text>
</g>
<!-- esloignerOF&#45;&gt;elongenME -->
<g id="edge23" class="edge">
<title>esloignerOF&#45;&gt;elongenME</title>
<path fill="none" stroke="black" stroke-dasharray="5,2" d="M191.83,-269.91C192.42,-262.33 193.14,-253.13 193.83,-244.23"/>
<polygon fill="black" stroke="black" points="197.34,-244.29 194.63,-234.05 190.36,-243.75 197.34,-244.29"/>
</g>
<!-- eloign -->
<g id="node25" class="node">
<title>eloign</title>
<text text-anchor="start" x="178" y="-35.8" font-family="Times New Roman,serif" font-weight="bold" font-size="14.00">Modern</text>
<text text-anchor="start" x="179.5" y="-21.8" font-family="Times New Roman,serif" font-weight="bold" font-size="14.00">English</text>
<text text-anchor="start" x="185.5" y="-7.8" font-family="Times New Roman,serif" font-size="14.00" fill="red">eloign</text>
</g>
<!-- elongenME&#45;&gt;eloign -->
<g id="edge24" class="edge">
<title>elongenME&#45;&gt;eloign</title>
<path fill="none" stroke="black" d="M197.3,-183.83C198.34,-152.15 200.18,-96.38 201.37,-60.33"/>
<polygon fill="black" stroke="black" points="204.87,-60.38 201.7,-50.27 197.87,-60.15 204.87,-60.38"/>
</g>
<!-- aiwIE -->
<g id="node26" class="node">
<title>aiwIE</title>
<g id="a_node26"><a xlink:href="aiw-life2.svg" xlink:title="&lt;b&gt;Indo&#45;&lt;br/&gt;European&lt;/b&gt;&lt;br/&gt;&lt;font color=&quot;red&quot;&gt;*aiw&#45;&lt;/font&gt;&lt;br/&gt;&lt;font point&#45;size=&quot;12&quot;&gt;vital force, life,&lt;br/&gt;eternity&lt;/font&gt;">
<path fill="none" stroke="black" stroke-dasharray="5,2" d="M810,-584C810,-584 751,-584 751,-584 745,-584 739,-578 739,-572 739,-572 739,-522 739,-522 739,-516 745,-510 751,-510 751,-510 810,-510 810,-510 816,-510 822,-516 822,-522 822,-522 822,-572 822,-572 822,-578 816,-584 810,-584"/>
<text text-anchor="start" x="764" y="-569.8" font-family="Times New Roman,serif" font-weight="bold" font-size="14.00">Indo&#45;</text>
<text text-anchor="start" x="750" y="-555.8" font-family="Times New Roman,serif" font-weight="bold" font-size="14.00">European</text>
<text text-anchor="start" x="765" y="-541.8" font-family="Times New Roman,serif" font-size="14.00" fill="red">*aiw&#45;</text>
<text text-anchor="start" x="747" y="-529.4" font-family="Times New Roman,serif" font-size="12.00">vital force, life,</text>
<text text-anchor="start" x="763.5" y="-517.4" font-family="Times New Roman,serif" font-size="12.00">eternity</text>
</a>
</g>
</g>
<!-- aevumL -->
<g id="node27" class="node">
<title>aevumL</title>
<text text-anchor="start" x="764" y="-459.8" font-family="Times New Roman,serif" font-weight="bold" font-size="14.00">Latin</text>
<text text-anchor="start" x="762" y="-445.8" font-family="Times New Roman,serif" font-size="14.00" fill="red">aevum</text>
<text text-anchor="start" x="772.5" y="-433.4" font-family="Times New Roman,serif" font-size="12.00">age</text>
</g>
<!-- aiwIE&#45;&gt;aevumL -->
<g id="edge25" class="edge">
<title>aiwIE&#45;&gt;aevumL</title>
<path fill="none" stroke="black" d="M780.5,-509.81C780.5,-501.41 780.5,-492.5 780.5,-484.23"/>
<polygon fill="black" stroke="black" points="784,-484.18 780.5,-474.18 777,-484.18 784,-484.18"/>
</g>
<!-- aevumL&#45;&gt;longaevusL -->
<g id="edge27" class="edge">
<title>aevumL&#45;&gt;longaevusL</title>
<path fill="none" stroke="black" d="M780.5,-425.72C780.5,-415.88 780.5,-404.36 780.5,-394.13"/>
<polygon fill="black" stroke="black" points="784,-394.08 780.5,-384.08 777,-394.08 784,-394.08"/>
</g>
<!-- longaevitasL -->
<g id="node29" class="node">
<title>longaevitasL</title>
<text text-anchor="start" x="713.5" y="-120.8" font-family="Times New Roman,serif" font-weight="bold" font-size="14.00">Late Latin</text>
<text text-anchor="start" x="714.5" y="-106.8" font-family="Times New Roman,serif" font-size="14.00" fill="red">longaevitās</text>
</g>
<!-- longaevusL&#45;&gt;longaevitasL -->
<g id="edge28" class="edge">
<title>longaevusL&#45;&gt;longaevitasL</title>
<path fill="none" stroke="black" d="M778.04,-347.63C772.02,-305.19 756.55,-195.97 749.32,-144.97"/>
<polygon fill="black" stroke="black" points="752.78,-144.43 747.91,-135.02 745.85,-145.41 752.78,-144.43"/>
</g>
<!-- longevity -->
<g id="node30" class="node">
<title>longevity</title>
<text text-anchor="start" x="713" y="-35.8" font-family="Times New Roman,serif" font-weight="bold" font-size="14.00">Modern</text>
<text text-anchor="start" x="714.5" y="-21.8" font-family="Times New Roman,serif" font-weight="bold" font-size="14.00">English</text>
<text text-anchor="start" x="712" y="-7.8" font-family="Times New Roman,serif" font-size="14.00" fill="red">longevity</text>
</g>
<!-- longaevitasL&#45;&gt;longevity -->
<g id="edge29" class="edge">
<title>longaevitasL&#45;&gt;longevity</title>
<path fill="none" stroke="black" stroke-dasharray="5,2" d="M743.96,-98.65C742.99,-87.76 741.71,-73.36 740.54,-60.25"/>
<polygon fill="black" stroke="black" points="744.01,-59.75 739.64,-50.1 737.04,-60.37 744.01,-59.75"/>
</g>
<!-- allongerF -->
<g id="node32" class="node">
<title>allongerF</title>
<text text-anchor="start" x="262.5" y="-212.8" font-family="Times New Roman,serif" font-weight="bold" font-size="14.00">French</text>
<text text-anchor="start" x="262.5" y="-198.8" font-family="Times New Roman,serif" font-size="14.00" fill="red">allonger</text>
</g>
<!-- alongierOF&#45;&gt;allongerF -->
<g id="edge31" class="edge">
<title>alongierOF&#45;&gt;allongerF</title>
<path fill="none" stroke="black" d="M284.5,-269.91C284.5,-260.34 284.5,-248.18 284.5,-237.32"/>
<polygon fill="black" stroke="black" points="288,-237.04 284.5,-227.04 281,-237.04 288,-237.04"/>
</g>
<!-- allonge -->
<g id="node33" class="node">
<title>allonge</title>
<text text-anchor="start" x="260" y="-133.8" font-family="Times New Roman,serif" font-weight="bold" font-size="14.00">Modern</text>
<text text-anchor="start" x="261.5" y="-119.8" font-family="Times New Roman,serif" font-weight="bold" font-size="14.00">English</text>
<text text-anchor="start" x="264.5" y="-105.8" font-family="Times New Roman,serif" font-size="14.00" fill="red">allonge</text>
<text text-anchor="start" x="261.5" y="-93.4" font-family="Times New Roman,serif" font-size="12.00">(obsolete)</text>
</g>
<!-- allongerF&#45;&gt;allonge -->
<g id="edge32" class="edge">
<title>allongerF&#45;&gt;allonge</title>
<path fill="none" stroke="black" stroke-dasharray="5,2" d="M284.5,-190.65C284.5,-181.42 284.5,-169.65 284.5,-158.3"/>
<polygon fill="black" stroke="black" points="288,-158.06 284.5,-148.06 281,-158.06 288,-158.06"/>
</g>
<!-- lunge -->
<g id="node34" class="node">
<title>lunge</title>
<text text-anchor="start" x="269.5" y="-21.3" font-family="Times New Roman,serif" font-size="14.00" fill="red">lunge</text>
</g>
<!-- allonge&#45;&gt;lunge -->
<g id="edge33" class="edge">
<title>allonge&#45;&gt;lunge</title>
<path fill="none" stroke="black" d="M284.5,-85.53C284.5,-75.01 284.5,-63.3 284.5,-53.07"/>
<polygon fill="black" stroke="black" points="288,-53.05 284.5,-43.05 281,-53.05 288,-53.05"/>
</g>
<!-- epiIE -->
<g id="node35" class="node">
<title>epiIE</title>
<g id="a_node35"><a xlink:href="epi-near.svg" xlink:title="&lt;b&gt;Indo&#45;&lt;br/&gt;European&lt;/b&gt;&lt;br/&gt;&lt;font color=&quot;red&quot;&gt;*epi, *opi&lt;/font&gt;&lt;br/&gt;&lt;font point&#45;size=&quot;12&quot;&gt;near, at, against&lt;/font&gt;">
<path fill="none" stroke="black" stroke-dasharray="5,2" d="M1121,-578C1121,-578 1058,-578 1058,-578 1052,-578 1046,-572 1046,-566 1046,-566 1046,-528 1046,-528 1046,-522 1052,-516 1058,-516 1058,-516 1121,-516 1121,-516 1127,-516 1133,-522 1133,-528 1133,-528 1133,-566 1133,-566 1133,-572 1127,-578 1121,-578"/>
<text text-anchor="start" x="1073" y="-563.8" font-family="Times New Roman,serif" font-weight="bold" font-size="14.00">Indo&#45;</text>
<text text-anchor="start" x="1059" y="-549.8" font-family="Times New Roman,serif" font-weight="bold" font-size="14.00">European</text>
<text text-anchor="start" x="1061.5" y="-535.8" font-family="Times New Roman,serif" font-size="14.00" fill="red">*epi, *opi</text>
<text text-anchor="start" x="1054" y="-523.4" font-family="Times New Roman,serif" font-size="12.00">near, at, against</text>
</a>
</g>
</g>
<!-- obL -->
<g id="node36" class="node">
<title>obL</title>
<text text-anchor="start" x="1073" y="-459.8" font-family="Times New Roman,serif" font-weight="bold" font-size="14.00">Latin</text>
<text text-anchor="start" x="1079.5" y="-445.8" font-family="Times New Roman,serif" font-size="14.00" fill="red">ob&#45;</text>
<text text-anchor="start" x="1051.5" y="-433.4" font-family="Times New Roman,serif" font-size="12.00">(sense uncertain)</text>
</g>
<!-- epiIE&#45;&gt;obL -->
<g id="edge34" class="edge">
<title>epiIE&#45;&gt;obL</title>
<path fill="none" stroke="black" d="M1089.5,-515.94C1089.5,-505.94 1089.5,-494.73 1089.5,-484.48"/>
<polygon fill="black" stroke="black" points="1093,-484.24 1089.5,-474.24 1086,-484.24 1093,-484.24"/>
</g>
<!-- obL&#45;&gt;oblongusL -->
<g id="edge36" class="edge">
<title>obL&#45;&gt;oblongusL</title>
<path fill="none" stroke="black" d="M1090.35,-425.72C1090.71,-415.88 1091.13,-404.36 1091.51,-394.13"/>
<polygon fill="black" stroke="black" points="1095.01,-394.2 1091.88,-384.08 1088.01,-393.94 1095.01,-394.2"/>
</g>
<!-- oblongME -->
<g id="node38" class="node">
<title>oblongME</title>
<text text-anchor="start" x="1071" y="-127.8" font-family="Times New Roman,serif" font-weight="bold" font-size="14.00">Middle</text>
<text text-anchor="start" x="1069.5" y="-113.8" font-family="Times New Roman,serif" font-weight="bold" font-size="14.00">English</text>
<text text-anchor="start" x="1072.5" y="-99.8" font-family="Times New Roman,serif" font-size="14.00" fill="red">oblong</text>
</g>
<!-- oblongusL&#45;&gt;oblongME -->
<g id="edge37" class="edge">
<title>oblongusL&#45;&gt;oblongME</title>
<path fill="none" stroke="black" stroke-dasharray="5,2" d="M1092.5,-347.63C1092.5,-307.07 1092.5,-205.52 1092.5,-152.09"/>
<polygon fill="black" stroke="black" points="1096,-152.07 1092.5,-142.07 1089,-152.07 1096,-152.07"/>
</g>
<!-- oblong -->
<g id="node39" class="node">
<title>oblong</title>
<text text-anchor="start" x="1068" y="-35.8" font-family="Times New Roman,serif" font-weight="bold" font-size="14.00">Modern</text>
<text text-anchor="start" x="1069.5" y="-21.8" font-family="Times New Roman,serif" font-weight="bold" font-size="14.00">English</text>
<text text-anchor="start" x="1072.5" y="-7.8" font-family="Times New Roman,serif" font-size="14.00" fill="red">oblong</text>
</g>
<!-- oblongME&#45;&gt;oblong -->
<g id="edge38" class="edge">
<title>oblongME&#45;&gt;oblong</title>
<path fill="none" stroke="black" d="M1092.5,-91.88C1092.5,-82.2 1092.5,-70.85 1092.5,-60.34"/>
<polygon fill="black" stroke="black" points="1096,-60.18 1092.5,-50.18 1089,-60.18 1096,-60.18"/>
</g>
<!-- perIE -->
<g id="node40" class="node">
<title>perIE</title>
<g id="a_node40"><a xlink:href="per-pro2.svg" xlink:title="&lt;b&gt;Indo&#45;&lt;br/&gt;European&lt;/b&gt;&lt;br/&gt;&lt;font color=&quot;red&quot;&gt;*per&lt;/font&gt;&lt;br/&gt;&lt;font point&#45;size=&quot;12&quot;&gt;(various&lt;br/&gt;prepositions)&lt;/font&gt;">
<path fill="none" stroke="black" stroke-dasharray="5,2" d="M964,-584C964,-584 911,-584 911,-584 905,-584 899,-578 899,-572 899,-572 899,-522 899,-522 899,-516 905,-510 911,-510 911,-510 964,-510 964,-510 970,-510 976,-516 976,-522 976,-522 976,-572 976,-572 976,-578 970,-584 964,-584"/>
<text text-anchor="start" x="921" y="-569.8" font-family="Times New Roman,serif" font-weight="bold" font-size="14.00">Indo&#45;</text>
<text text-anchor="start" x="907" y="-555.8" font-family="Times New Roman,serif" font-weight="bold" font-size="14.00">European</text>
<text text-anchor="start" x="925" y="-541.8" font-family="Times New Roman,serif" font-size="14.00" fill="red">*per</text>
<text text-anchor="start" x="919" y="-529.4" font-family="Times New Roman,serif" font-size="12.00">(various</text>
<text text-anchor="start" x="908" y="-517.4" font-family="Times New Roman,serif" font-size="12.00">prepositions)</text>
</a>
</g>
</g>
<!-- proL -->
<g id="node41" class="node">
<title>proL</title>
<text text-anchor="start" x="921" y="-459.8" font-family="Times New Roman,serif" font-weight="bold" font-size="14.00">Latin</text>
<text text-anchor="start" x="925" y="-445.8" font-family="Times New Roman,serif" font-size="14.00" fill="red">prō&#45;</text>
<text text-anchor="start" x="926.5" y="-433.4" font-family="Times New Roman,serif" font-size="12.00">forth</text>
</g>
<!-- perIE&#45;&gt;proL -->
<g id="edge39" class="edge">
<title>perIE&#45;&gt;proL</title>
<path fill="none" stroke="black" d="M937.5,-509.81C937.5,-501.41 937.5,-492.5 937.5,-484.23"/>
<polygon fill="black" stroke="black" points="941,-484.18 937.5,-474.18 934,-484.18 941,-484.18"/>
</g>
<!-- proL&#45;&gt;prolongareL -->
<g id="edge41" class="edge">
<title>proL&#45;&gt;prolongareL</title>
<path fill="none" stroke="black" d="M919.62,-425.72C911.58,-415.26 902.08,-402.89 893.87,-392.21"/>
<polygon fill="black" stroke="black" points="896.49,-389.88 887.62,-384.08 890.94,-394.14 896.49,-389.88"/>
</g>
<!-- purAN -->
<g id="node45" class="node">
<title>purAN</title>
<text text-anchor="start" x="941" y="-375.8" font-family="Times New Roman,serif" font-weight="bold" font-size="14.00">Anglo&#45;Norman</text>
<text text-anchor="start" x="974.5" y="-361.8" font-family="Times New Roman,serif" font-size="14.00" fill="red">pur&#45;</text>
<text text-anchor="start" x="974" y="-349.4" font-family="Times New Roman,serif" font-size="12.00">away</text>
</g>
<!-- proL&#45;&gt;purAN -->
<g id="edge44" class="edge">
<title>proL&#45;&gt;purAN</title>
<path fill="none" stroke="black" d="M951.41,-425.72C956.42,-417.34 962.16,-407.74 967.52,-398.76"/>
<polygon fill="black" stroke="black" points="970.6,-400.43 972.72,-390.05 964.59,-396.84 970.6,-400.43"/>
</g>
<!-- prolong -->
<g id="node43" class="node">
<title>prolong</title>
<text text-anchor="start" x="880" y="-35.8" font-family="Times New Roman,serif" font-weight="bold" font-size="14.00">Modern</text>
<text text-anchor="start" x="881.5" y="-21.8" font-family="Times New Roman,serif" font-weight="bold" font-size="14.00">English</text>
<text text-anchor="start" x="882.5" y="-7.8" font-family="Times New Roman,serif" font-size="14.00" fill="red">prolong</text>
</g>
<!-- prolongareL&#45;&gt;prolong -->
<g id="edge42" class="edge">
<title>prolongareL&#45;&gt;prolong</title>
<path fill="none" stroke="black" stroke-dasharray="5,2" d="M876.03,-347.72C880.74,-294.46 895.11,-132.1 901.45,-60.52"/>
<polygon fill="black" stroke="black" points="904.96,-60.51 902.36,-50.24 897.99,-59.89 904.96,-60.51"/>
</g>
<!-- purloignerAN -->
<g id="node46" class="node">
<title>purloignerAN</title>
<text text-anchor="start" x="793" y="-290.8" font-family="Times New Roman,serif" font-size="14.00" fill="red">purloigner</text>
<text text-anchor="start" x="798.5" y="-278.4" font-family="Times New Roman,serif" font-size="12.00">to remove</text>
</g>
<!-- loignAN&#45;&gt;purloignerAN -->
<g id="edge45" class="edge">
<title>loignAN&#45;&gt;purloignerAN</title>
<path fill="none" stroke="black" d="M717.61,-341.99C737.04,-332.08 759.65,-320.55 778.81,-310.78"/>
<polygon fill="black" stroke="black" points="780.59,-313.8 787.9,-306.14 777.41,-307.56 780.59,-313.8"/>
</g>
<!-- purAN&#45;&gt;purloignerAN -->
<g id="edge46" class="edge">
<title>purAN&#45;&gt;purloignerAN</title>
<path fill="none" stroke="black" d="M936.55,-341.99C914.57,-331.87 888.92,-320.05 867.43,-310.15"/>
<polygon fill="black" stroke="black" points="868.73,-306.9 858.18,-305.9 865.8,-313.26 868.73,-306.9"/>
</g>
<!-- purloinenME -->
<g id="node47" class="node">
<title>purloinenME</title>
<text text-anchor="start" x="800" y="-219.8" font-family="Times New Roman,serif" font-weight="bold" font-size="14.00">Middle</text>
<text text-anchor="start" x="798.5" y="-205.8" font-family="Times New Roman,serif" font-weight="bold" font-size="14.00">English</text>
<text text-anchor="start" x="795.5" y="-191.8" font-family="Times New Roman,serif" font-size="14.00" fill="red">purloinen</text>
</g>
<!-- purloignerAN&#45;&gt;purloinenME -->
<g id="edge47" class="edge">
<title>purloignerAN&#45;&gt;purloinenME</title>
<path fill="none" stroke="black" stroke-dasharray="5,2" d="M821.5,-269.91C821.5,-262.33 821.5,-253.13 821.5,-244.23"/>
<polygon fill="black" stroke="black" points="825,-244.05 821.5,-234.05 818,-244.05 825,-244.05"/>
</g>
<!-- purloin -->
<g id="node48" class="node">
<title>purloin</title>
<text text-anchor="start" x="797" y="-35.8" font-family="Times New Roman,serif" font-weight="bold" font-size="14.00">Modern</text>
<text text-anchor="start" x="798.5" y="-21.8" font-family="Times New Roman,serif" font-weight="bold" font-size="14.00">English</text>
<text text-anchor="start" x="801.5" y="-7.8" font-family="Times New Roman,serif" font-size="14.00" fill="red">purloin</text>
</g>
<!-- purloinenME&#45;&gt;purloin -->
<g id="edge48" class="edge">
<title>purloinenME&#45;&gt;purloin</title>
<path fill="none" stroke="black" d="M821.5,-183.83C821.5,-152.15 821.5,-96.38 821.5,-60.33"/>
<polygon fill="black" stroke="black" points="825,-60.27 821.5,-50.27 818,-60.27 825,-60.27"/>
</g>
<!-- aneIE -->
<g id="node49" class="node">
<title>aneIE</title>
<g id="a_node49"><a xlink:href="ane-breathe.svg" xlink:title="&lt;b&gt;Indo&#45;&lt;br/&gt;European&lt;/b&gt;&lt;br/&gt;&lt;font color=&quot;red&quot;&gt;*anə&#45;&lt;/font&gt;&lt;br/&gt;&lt;font point&#45;size=&quot;12&quot;&gt;to breathe&lt;/font&gt;">
<path fill="none" stroke="black" stroke-dasharray="5,2" d="M1217,-578C1217,-578 1164,-578 1164,-578 1158,-578 1152,-572 1152,-566 1152,-566 1152,-528 1152,-528 1152,-522 1158,-516 1164,-516 1164,-516 1217,-516 1217,-516 1223,-516 1229,-522 1229,-528 1229,-528 1229,-566 1229,-566 1229,-572 1223,-578 1217,-578"/>
<text text-anchor="start" x="1174" y="-563.8" font-family="Times New Roman,serif" font-weight="bold" font-size="14.00">Indo&#45;</text>
<text text-anchor="start" x="1160" y="-549.8" font-family="Times New Roman,serif" font-weight="bold" font-size="14.00">European</text>
<text text-anchor="start" x="1175" y="-535.8" font-family="Times New Roman,serif" font-size="14.00" fill="red">*anə&#45;</text>
<text text-anchor="start" x="1167.5" y="-523.4" font-family="Times New Roman,serif" font-size="12.00">to breathe</text>
</a>
</g>
</g>
<!-- animusL -->
<g id="node50" class="node">
<title>animusL</title>
<text text-anchor="start" x="1174" y="-459.8" font-family="Times New Roman,serif" font-weight="bold" font-size="14.00">Latin</text>
<text text-anchor="start" x="1170.5" y="-445.8" font-family="Times New Roman,serif" font-size="14.00" fill="red">animus</text>
<text text-anchor="start" x="1161.5" y="-433.4" font-family="Times New Roman,serif" font-size="12.00">mind, reason</text>
</g>
<!-- aneIE&#45;&gt;animusL -->
<g id="edge49" class="edge">
<title>aneIE&#45;&gt;animusL</title>
<path fill="none" stroke="black" d="M1190.5,-515.94C1190.5,-505.94 1190.5,-494.73 1190.5,-484.48"/>
<polygon fill="black" stroke="black" points="1194,-484.24 1190.5,-474.24 1187,-484.24 1194,-484.24"/>
</g>
<!-- animusL&#45;&gt;longanimisL -->
<g id="edge51" class="edge">
<title>animusL&#45;&gt;longanimisL</title>
<path fill="none" stroke="black" d="M1189.93,-425.72C1189.69,-415.88 1189.41,-404.36 1189.16,-394.13"/>
<polygon fill="black" stroke="black" points="1192.66,-393.99 1188.92,-384.08 1185.66,-394.16 1192.66,-393.99"/>
</g>
<!-- longanimitasL -->
<g id="node52" class="node">
<title>longanimitasL</title>
<text text-anchor="start" x="1156.5" y="-291.8" font-family="Times New Roman,serif" font-weight="bold" font-size="14.00">Late Latin</text>
<text text-anchor="start" x="1156" y="-277.8" font-family="Times New Roman,serif" font-size="14.00" fill="red">anganimitās</text>
</g>
<!-- longanimisL&#45;&gt;longanimitasL -->
<g id="edge52" class="edge">
<title>longanimisL&#45;&gt;longanimitasL</title>
<path fill="none" stroke="black" d="M1188.5,-347.75C1188.5,-338.52 1188.5,-326.93 1188.5,-316.49"/>
<polygon fill="black" stroke="black" points="1192,-316.18 1188.5,-306.18 1185,-316.18 1192,-316.18"/>
</g>
<!-- longanimiteOF -->
<g id="node53" class="node">
<title>longanimiteOF</title>
<text text-anchor="start" x="1153.5" y="-212.8" font-family="Times New Roman,serif" font-weight="bold" font-size="14.00">Old French</text>
<text text-anchor="start" x="1156.5" y="-198.8" font-family="Times New Roman,serif" font-size="14.00" fill="red">longanimite</text>
</g>
<!-- longanimitasL&#45;&gt;longanimiteOF -->
<g id="edge53" class="edge">
<title>longanimitasL&#45;&gt;longanimiteOF</title>
<path fill="none" stroke="black" d="M1188.5,-269.91C1188.5,-260.34 1188.5,-248.18 1188.5,-237.32"/>
<polygon fill="black" stroke="black" points="1192,-237.04 1188.5,-227.04 1185,-237.04 1192,-237.04"/>
</g>
<!-- longanimiteME -->
<g id="node54" class="node">
<title>longanimiteME</title>
<text text-anchor="start" x="1167" y="-127.8" font-family="Times New Roman,serif" font-weight="bold" font-size="14.00">Middle</text>
<text text-anchor="start" x="1165.5" y="-113.8" font-family="Times New Roman,serif" font-weight="bold" font-size="14.00">English</text>
<text text-anchor="start" x="1156.5" y="-99.8" font-family="Times New Roman,serif" font-size="14.00" fill="red">longanimite</text>
</g>
<!-- longanimiteOF&#45;&gt;longanimiteME -->
<g id="edge54" class="edge">
<title>longanimiteOF&#45;&gt;longanimiteME</title>
<path fill="none" stroke="black" stroke-dasharray="5,2" d="M1188.5,-190.65C1188.5,-179.76 1188.5,-165.36 1188.5,-152.25"/>
<polygon fill="black" stroke="black" points="1192,-152.1 1188.5,-142.1 1185,-152.1 1192,-152.1"/>
</g>
<!-- longanimity -->
<g id="node55" class="node">
<title>longanimity</title>
<text text-anchor="start" x="1164" y="-35.8" font-family="Times New Roman,serif" font-weight="bold" font-size="14.00">Modern</text>
<text text-anchor="start" x="1165.5" y="-21.8" font-family="Times New Roman,serif" font-weight="bold" font-size="14.00">English</text>
<text text-anchor="start" x="1156.5" y="-7.8" font-family="Times New Roman,serif" font-size="14.00" fill="red">longanimity</text>
</g>
<!-- longanimiteME&#45;&gt;longanimity -->
<g id="edge55" class="edge">
<title>longanimiteME&#45;&gt;longanimity</title>
<path fill="none" stroke="black" d="M1188.5,-91.88C1188.5,-82.2 1188.5,-70.85 1188.5,-60.34"/>
<polygon fill="black" stroke="black" points="1192,-60.18 1188.5,-50.18 1185,-60.18 1192,-60.18"/>
</g>
</g>
</svg>
