<?xml version="1.0" encoding="UTF-8" standalone="no"?>
<!DOCTYPE svg PUBLIC "-//W3C//DTD SVG 1.1//EN"
 "http://www.w3.org/Graphics/SVG/1.1/DTD/svg11.dtd">
<!-- Generated by graphviz version 2.49.0 (20210828.1703)
 -->
<!-- Pages: 1 -->
<svg width="878pt" height="670pt"
 viewBox="0.00 0.00 878.00 670.00" xmlns="http://www.w3.org/2000/svg" xmlns:xlink="http://www.w3.org/1999/xlink">
<g id="graph0" class="graph" transform="scale(1 1) rotate(0) translate(4 666)">
<polygon fill="white" stroke="transparent" points="-4,4 -4,-666 874,-666 874,4 -4,4"/>
<!-- del -->
<g id="node1" class="node">
<title>del</title>
<g id="a_node1"><a xlink:title="Indo&#45;European &quot;*del&#45;&quot; long">
<polygon fill="none" stroke="black" points="731,-658 520,-658 520,-554 731,-554 731,-658"/>
<polygon fill="none" stroke="black" points="735,-662 516,-662 516,-550 735,-550 735,-662"/>
<text text-anchor="start" x="547.5" y="-613.8" font-family="Times New Roman,serif" font-weight="bold" font-size="24.00">Indo&#45;European</text>
<text text-anchor="start" x="568.5" y="-585.6" font-family="Times New Roman,serif" font-size="18.00" fill="red">*del&#45;</text>
<text text-anchor="start" x="655.5" y="-586.2" font-family="Times New Roman,serif" font-size="16.00">long</text>
</a>
</g>
</g>
<!-- dlongho -->
<g id="node2" class="node">
<title>dlongho</title>
<text text-anchor="start" x="498.5" y="-479.3" font-family="Times New Roman,serif" font-size="14.00" fill="red">*dlon&#45;gho&#45;</text>
</g>
<!-- del&#45;&gt;dlongho -->
<g id="edge1" class="edge">
<title>del&#45;&gt;dlongho</title>
<path fill="none" stroke="black" d="M581.71,-549.81C570.49,-535.67 558.96,-521.13 549.6,-509.33"/>
<polygon fill="black" stroke="black" points="552.16,-506.93 543.2,-501.27 546.67,-511.28 552.16,-506.93"/>
</g>
<!-- dlegho -->
<g id="node29" class="node">
<title>dlegho</title>
<text text-anchor="start" x="602" y="-479.3" font-family="Times New Roman,serif" font-size="14.00" fill="red">dl̥ə&#45;gho&#45;</text>
</g>
<!-- del&#45;&gt;dlegho -->
<g id="edge28" class="edge">
<title>del&#45;&gt;dlegho</title>
<path fill="none" stroke="black" d="M625.5,-549.81C625.5,-536.49 625.5,-522.83 625.5,-511.42"/>
<polygon fill="black" stroke="black" points="629,-511.27 625.5,-501.27 622,-511.27 629,-511.27"/>
</g>
<!-- langazGc -->
<g id="node3" class="node">
<title>langazGc</title>
<text text-anchor="start" x="269" y="-395.8" font-family="Times New Roman,serif" font-weight="bold" font-size="14.00">Germanic</text>
<text text-anchor="start" x="278.5" y="-381.8" font-family="Times New Roman,serif" font-size="14.00" fill="red">*langaz</text>
</g>
<!-- dlongho&#45;&gt;langazGc -->
<g id="edge2" class="edge">
<title>dlongho&#45;&gt;langazGc</title>
<path fill="none" stroke="black" d="M490.48,-466.9C451.13,-451.67 390.28,-428.13 347.88,-411.72"/>
<polygon fill="black" stroke="black" points="348.91,-408.37 338.32,-408.02 346.39,-414.9 348.91,-408.37"/>
</g>
<!-- langithoGc -->
<g id="node21" class="node">
<title>langithoGc</title>
<text text-anchor="start" x="453" y="-310.8" font-family="Times New Roman,serif" font-weight="bold" font-size="14.00">Germanic</text>
<text text-anchor="start" x="458" y="-296.8" font-family="Times New Roman,serif" font-size="14.00" fill="red">*langithō</text>
</g>
<!-- dlongho&#45;&gt;langithoGc -->
<g id="edge20" class="edge">
<title>dlongho&#45;&gt;langithoGc</title>
<path fill="none" stroke="black" d="M521.36,-464.99C515.37,-451.87 507.45,-433.13 502.5,-416 494.69,-388.97 489.56,-357.14 486.63,-335.08"/>
<polygon fill="black" stroke="black" points="490.09,-334.57 485.36,-325.09 483.15,-335.45 490.09,-334.57"/>
</g>
<!-- longusL -->
<g id="node28" class="node">
<title>longusL</title>
<g id="a_node28"><a xlink:href="del-long1.svg" xlink:title="&lt;b&gt;Latin&lt;/b&gt;&lt;br/&gt;&lt;font color=&quot;red&quot;&gt;longus&lt;/font&gt;">
<path fill="none" stroke="black" stroke-dasharray="5,2" d="M553.5,-410C553.5,-410 523.5,-410 523.5,-410 517.5,-410 511.5,-404 511.5,-398 511.5,-398 511.5,-386 511.5,-386 511.5,-380 517.5,-374 523.5,-374 523.5,-374 553.5,-374 553.5,-374 559.5,-374 565.5,-380 565.5,-386 565.5,-386 565.5,-398 565.5,-398 565.5,-404 559.5,-410 553.5,-410"/>
<text text-anchor="start" x="522" y="-395.8" font-family="Times New Roman,serif" font-weight="bold" font-size="14.00">Latin</text>
<text text-anchor="start" x="520" y="-381.8" font-family="Times New Roman,serif" font-size="14.00" fill="red">longus</text>
</a>
</g>
</g>
<!-- dlongho&#45;&gt;longusL -->
<g id="edge27" class="edge">
<title>dlongho&#45;&gt;longusL</title>
<path fill="none" stroke="black" d="M531.24,-464.84C532.52,-452.16 534.29,-434.64 535.76,-420.08"/>
<polygon fill="black" stroke="black" points="539.25,-420.41 536.77,-410.11 532.28,-419.7 539.25,-420.41"/>
</g>
<!-- langOE -->
<g id="node4" class="node">
<title>langOE</title>
<text text-anchor="start" x="14" y="-310.8" font-family="Times New Roman,serif" font-weight="bold" font-size="14.00">Old English</text>
<text text-anchor="start" x="39" y="-296.8" font-family="Times New Roman,serif" font-size="14.00" fill="red">lang</text>
</g>
<!-- langazGc&#45;&gt;langOE -->
<g id="edge3" class="edge">
<title>langazGc&#45;&gt;langOE</title>
<path fill="none" stroke="black" d="M260.96,-380.06C212.59,-366.21 132.45,-342.86 103.5,-332 100.97,-331.05 98.39,-330.04 95.8,-328.99"/>
<polygon fill="black" stroke="black" points="97.01,-325.7 86.44,-325.05 94.3,-332.15 97.01,-325.7"/>
</g>
<!-- langonGc -->
<g id="node13" class="node">
<title>langonGc</title>
<text text-anchor="start" x="230.5" y="-303.3" font-family="Times New Roman,serif" font-size="14.00" fill="red">*langōn</text>
</g>
<!-- langazGc&#45;&gt;langonGc -->
<g id="edge12" class="edge">
<title>langazGc&#45;&gt;langonGc</title>
<path fill="none" stroke="black" d="M289.76,-373.8C283.27,-362.34 274.62,-347.06 267.28,-334.11"/>
<polygon fill="black" stroke="black" points="270.2,-332.15 262.23,-325.18 264.11,-335.6 270.2,-332.15"/>
</g>
<!-- langjanGc -->
<g id="node17" class="node">
<title>langjanGc</title>
<text text-anchor="start" x="318.5" y="-309.8" font-family="Times New Roman,serif" font-size="14.00" fill="red">*langjan</text>
<text text-anchor="start" x="312" y="-297.4" font-family="Times New Roman,serif" font-size="12.00">to make long</text>
</g>
<!-- langazGc&#45;&gt;langjanGc -->
<g id="edge16" class="edge">
<title>langazGc&#45;&gt;langjanGc</title>
<path fill="none" stroke="black" d="M308.2,-373.8C314,-362.34 321.74,-347.06 328.29,-334.11"/>
<polygon fill="black" stroke="black" points="331.42,-335.68 332.81,-325.18 325.17,-332.52 331.42,-335.68"/>
</g>
<!-- longME -->
<g id="node5" class="node">
<title>longME</title>
<text text-anchor="start" x="23" y="-139.8" font-family="Times New Roman,serif" font-weight="bold" font-size="14.00">Middle</text>
<text text-anchor="start" x="21.5" y="-125.8" font-family="Times New Roman,serif" font-weight="bold" font-size="14.00">English</text>
<text text-anchor="start" x="32" y="-111.8" font-family="Times New Roman,serif" font-size="14.00" fill="red">long</text>
</g>
<!-- langOE&#45;&gt;longME -->
<g id="edge4" class="edge">
<title>langOE&#45;&gt;longME</title>
<path fill="none" stroke="black" d="M49.91,-288.8C48.94,-260.15 46.96,-202.09 45.68,-164.67"/>
<polygon fill="black" stroke="black" points="49.17,-164.12 45.33,-154.24 42.17,-164.36 49.17,-164.12"/>
</g>
<!-- andlangOE -->
<g id="node10" class="node">
<title>andlangOE</title>
<text text-anchor="start" x="106" y="-223.8" font-family="Times New Roman,serif" font-size="14.00" fill="red">andlang</text>
<text text-anchor="start" x="85" y="-211.4" font-family="Times New Roman,serif" font-size="12.00">extending opposite</text>
</g>
<!-- langOE&#45;&gt;andlangOE -->
<g id="edge8" class="edge">
<title>langOE&#45;&gt;andlangOE</title>
<path fill="none" stroke="black" d="M66.45,-288.6C77.58,-276.46 92.57,-260.1 104.92,-246.64"/>
<polygon fill="black" stroke="black" points="107.65,-248.83 111.83,-239.1 102.49,-244.1 107.65,-248.83"/>
</g>
<!-- long1 -->
<g id="node6" class="node">
<title>long1</title>
<text text-anchor="start" x="15" y="-47.8" font-family="Times New Roman,serif" font-weight="bold" font-size="14.00">Modern</text>
<text text-anchor="start" x="16.5" y="-33.8" font-family="Times New Roman,serif" font-weight="bold" font-size="14.00">English</text>
<text text-anchor="start" x="27" y="-19.8" font-family="Times New Roman,serif" font-size="14.00" fill="red">long</text>
<text text-anchor="start" x="8" y="-7.4" font-family="Times New Roman,serif" font-size="12.00">great in length</text>
</g>
<!-- longME&#45;&gt;long1 -->
<g id="edge5" class="edge">
<title>longME&#45;&gt;long1</title>
<path fill="none" stroke="black" d="M43.24,-103.78C42.74,-94.18 42.15,-82.88 41.59,-72.13"/>
<polygon fill="black" stroke="black" points="45.08,-71.87 41.07,-62.06 38.09,-72.23 45.08,-71.87"/>
</g>
<!-- antIE -->
<g id="node7" class="node">
<title>antIE</title>
<g id="a_node7"><a xlink:href="ant-front.svg" xlink:title="&lt;b&gt;Indo&#45;&lt;br/&gt;European&lt;/b&gt;&lt;br/&gt;&lt;font color=&quot;red&quot;&gt;*ant&#45;&lt;/font&gt;&lt;br/&gt;&lt;font point&#45;size=&quot;12&quot;&gt;front, forehead&lt;/font&gt;">
<path fill="none" stroke="black" stroke-dasharray="5,2" d="M187,-514C187,-514 128,-514 128,-514 122,-514 116,-508 116,-502 116,-502 116,-464 116,-464 116,-458 122,-452 128,-452 128,-452 187,-452 187,-452 193,-452 199,-458 199,-464 199,-464 199,-502 199,-502 199,-508 193,-514 187,-514"/>
<text text-anchor="start" x="141" y="-499.8" font-family="Times New Roman,serif" font-weight="bold" font-size="14.00">Indo&#45;</text>
<text text-anchor="start" x="127" y="-485.8" font-family="Times New Roman,serif" font-weight="bold" font-size="14.00">European</text>
<text text-anchor="start" x="143.5" y="-471.8" font-family="Times New Roman,serif" font-size="14.00" fill="red">*ant&#45;</text>
<text text-anchor="start" x="124" y="-459.4" font-family="Times New Roman,serif" font-size="12.00">front, forehead</text>
</a>
</g>
</g>
<!-- andiGc -->
<g id="node8" class="node">
<title>andiGc</title>
<text text-anchor="start" x="127" y="-395.8" font-family="Times New Roman,serif" font-weight="bold" font-size="14.00">Germanic</text>
<text text-anchor="start" x="117.5" y="-381.8" font-family="Times New Roman,serif" font-size="14.00" fill="red">*andi&#45;, *anda&#45;</text>
</g>
<!-- antIE&#45;&gt;andiGc -->
<g id="edge6" class="edge">
<title>antIE&#45;&gt;andiGc</title>
<path fill="none" stroke="black" d="M157.5,-451.87C157.5,-441.65 157.5,-430.29 157.5,-420.3"/>
<polygon fill="black" stroke="black" points="161,-420.12 157.5,-410.12 154,-420.12 161,-420.12"/>
</g>
<!-- andOE -->
<g id="node9" class="node">
<title>andOE</title>
<text text-anchor="start" x="121" y="-316.8" font-family="Times New Roman,serif" font-weight="bold" font-size="14.00">Old English</text>
<text text-anchor="start" x="145" y="-302.8" font-family="Times New Roman,serif" font-size="14.00" fill="red">and&#45;</text>
<text text-anchor="start" x="144" y="-290.4" font-family="Times New Roman,serif" font-size="12.00">facing</text>
</g>
<!-- andiGc&#45;&gt;andOE -->
<g id="edge7" class="edge">
<title>andiGc&#45;&gt;andOE</title>
<path fill="none" stroke="black" d="M157.5,-373.8C157.5,-364.45 157.5,-352.55 157.5,-341.45"/>
<polygon fill="black" stroke="black" points="161,-341.16 157.5,-331.16 154,-341.16 161,-341.16"/>
</g>
<!-- andOE&#45;&gt;andlangOE -->
<g id="edge9" class="edge">
<title>andOE&#45;&gt;andlangOE</title>
<path fill="none" stroke="black" d="M149.14,-282.6C145.37,-272.05 140.9,-259.53 137.01,-248.61"/>
<polygon fill="black" stroke="black" points="140.28,-247.39 133.62,-239.15 133.69,-249.74 140.28,-247.39"/>
</g>
<!-- alongME -->
<g id="node11" class="node">
<title>alongME</title>
<text text-anchor="start" x="107" y="-139.8" font-family="Times New Roman,serif" font-weight="bold" font-size="14.00">Middle</text>
<text text-anchor="start" x="105.5" y="-125.8" font-family="Times New Roman,serif" font-weight="bold" font-size="14.00">English</text>
<text text-anchor="start" x="113" y="-111.8" font-family="Times New Roman,serif" font-size="14.00" fill="red">along</text>
</g>
<!-- andlangOE&#45;&gt;alongME -->
<g id="edge10" class="edge">
<title>andlangOE&#45;&gt;alongME</title>
<path fill="none" stroke="black" d="M127.69,-202.65C127.81,-191.76 127.97,-177.36 128.12,-164.25"/>
<polygon fill="black" stroke="black" points="131.62,-164.14 128.23,-154.1 124.62,-164.06 131.62,-164.14"/>
</g>
<!-- along -->
<g id="node12" class="node">
<title>along</title>
<text text-anchor="start" x="105" y="-41.8" font-family="Times New Roman,serif" font-weight="bold" font-size="14.00">Modern</text>
<text text-anchor="start" x="106.5" y="-27.8" font-family="Times New Roman,serif" font-weight="bold" font-size="14.00">English</text>
<text text-anchor="start" x="114" y="-13.8" font-family="Times New Roman,serif" font-size="14.00" fill="red">along</text>
</g>
<!-- alongME&#45;&gt;along -->
<g id="edge11" class="edge">
<title>alongME&#45;&gt;along</title>
<path fill="none" stroke="black" d="M128.75,-103.78C128.87,-92.41 129.01,-78.66 129.14,-66.25"/>
<polygon fill="black" stroke="black" points="132.64,-66.25 129.25,-56.22 125.64,-66.18 132.64,-66.25"/>
</g>
<!-- langianOE -->
<g id="node14" class="node">
<title>langianOE</title>
<text text-anchor="start" x="204" y="-224.8" font-family="Times New Roman,serif" font-weight="bold" font-size="14.00">Old English</text>
<text text-anchor="start" x="221" y="-210.8" font-family="Times New Roman,serif" font-size="14.00" fill="red">langian</text>
</g>
<!-- langonGc&#45;&gt;langianOE -->
<g id="edge13" class="edge">
<title>langonGc&#45;&gt;langianOE</title>
<path fill="none" stroke="black" d="M250.01,-288.6C248.39,-277.26 246.25,-262.23 244.4,-249.32"/>
<polygon fill="black" stroke="black" points="247.82,-248.5 242.94,-239.1 240.89,-249.49 247.82,-248.5"/>
</g>
<!-- longenME -->
<g id="node15" class="node">
<title>longenME</title>
<text text-anchor="start" x="219" y="-139.8" font-family="Times New Roman,serif" font-weight="bold" font-size="14.00">Middle</text>
<text text-anchor="start" x="217.5" y="-125.8" font-family="Times New Roman,serif" font-weight="bold" font-size="14.00">English</text>
<text text-anchor="start" x="222" y="-111.8" font-family="Times New Roman,serif" font-size="14.00" fill="red">longen</text>
</g>
<!-- langianOE&#45;&gt;longenME -->
<g id="edge14" class="edge">
<title>langianOE&#45;&gt;longenME</title>
<path fill="none" stroke="black" d="M240.5,-202.65C240.5,-191.76 240.5,-177.36 240.5,-164.25"/>
<polygon fill="black" stroke="black" points="244,-164.1 240.5,-154.1 237,-164.1 244,-164.1"/>
</g>
<!-- long2 -->
<g id="node16" class="node">
<title>long2</title>
<text text-anchor="start" x="216" y="-47.8" font-family="Times New Roman,serif" font-weight="bold" font-size="14.00">Modern</text>
<text text-anchor="start" x="217.5" y="-33.8" font-family="Times New Roman,serif" font-weight="bold" font-size="14.00">English</text>
<text text-anchor="start" x="228" y="-19.8" font-family="Times New Roman,serif" font-size="14.00" fill="red">long</text>
<text text-anchor="start" x="228" y="-7.4" font-family="Times New Roman,serif" font-size="12.00">yearn</text>
</g>
<!-- longenME&#45;&gt;long2 -->
<g id="edge15" class="edge">
<title>longenME&#45;&gt;long2</title>
<path fill="none" stroke="black" d="M240.5,-103.78C240.5,-94.18 240.5,-82.88 240.5,-72.13"/>
<polygon fill="black" stroke="black" points="244,-72.06 240.5,-62.06 237,-72.06 244,-72.06"/>
</g>
<!-- lenganOE -->
<g id="node18" class="node">
<title>lenganOE</title>
<text text-anchor="start" x="311" y="-224.8" font-family="Times New Roman,serif" font-weight="bold" font-size="14.00">Old English</text>
<text text-anchor="start" x="329.5" y="-210.8" font-family="Times New Roman,serif" font-size="14.00" fill="red">lengen</text>
</g>
<!-- langjanGc&#45;&gt;lenganOE -->
<g id="edge17" class="edge">
<title>langjanGc&#45;&gt;lenganOE</title>
<path fill="none" stroke="black" d="M342.74,-288.6C343.55,-277.26 344.63,-262.23 345.55,-249.32"/>
<polygon fill="black" stroke="black" points="349.06,-249.32 346.28,-239.1 342.08,-248.82 349.06,-249.32"/>
</g>
<!-- lengenME -->
<g id="node19" class="node">
<title>lengenME</title>
<text text-anchor="start" x="326" y="-139.8" font-family="Times New Roman,serif" font-weight="bold" font-size="14.00">Middle</text>
<text text-anchor="start" x="324.5" y="-125.8" font-family="Times New Roman,serif" font-weight="bold" font-size="14.00">English</text>
<text text-anchor="start" x="303" y="-111.8" font-family="Times New Roman,serif" font-size="14.00" fill="red">lengen, lengeren</text>
</g>
<!-- lenganOE&#45;&gt;lengenME -->
<g id="edge18" class="edge">
<title>lenganOE&#45;&gt;lengenME</title>
<path fill="none" stroke="black" d="M347.5,-202.65C347.5,-191.76 347.5,-177.36 347.5,-164.25"/>
<polygon fill="black" stroke="black" points="351,-164.1 347.5,-154.1 344,-164.1 351,-164.1"/>
</g>
<!-- linger -->
<g id="node20" class="node">
<title>linger</title>
<text text-anchor="start" x="323" y="-41.8" font-family="Times New Roman,serif" font-weight="bold" font-size="14.00">Modern</text>
<text text-anchor="start" x="324.5" y="-27.8" font-family="Times New Roman,serif" font-weight="bold" font-size="14.00">English</text>
<text text-anchor="start" x="332" y="-13.8" font-family="Times New Roman,serif" font-size="14.00" fill="red">linger</text>
</g>
<!-- lengenME&#45;&gt;linger -->
<g id="edge19" class="edge">
<title>lengenME&#45;&gt;linger</title>
<path fill="none" stroke="black" d="M347.5,-103.78C347.5,-92.41 347.5,-78.66 347.5,-66.25"/>
<polygon fill="black" stroke="black" points="351,-66.22 347.5,-56.22 344,-66.22 351,-66.22"/>
</g>
<!-- lengthuOE -->
<g id="node22" class="node">
<title>lengthuOE</title>
<text text-anchor="start" x="418" y="-224.8" font-family="Times New Roman,serif" font-weight="bold" font-size="14.00">Old English</text>
<text text-anchor="start" x="434.5" y="-210.8" font-family="Times New Roman,serif" font-size="14.00" fill="red">lengthu</text>
</g>
<!-- langithoGc&#45;&gt;lengthuOE -->
<g id="edge21" class="edge">
<title>langithoGc&#45;&gt;lengthuOE</title>
<path fill="none" stroke="black" d="M477.49,-288.6C473.54,-277.14 468.28,-261.93 463.8,-248.93"/>
<polygon fill="black" stroke="black" points="466.97,-247.41 460.4,-239.1 460.36,-249.69 466.97,-247.41"/>
</g>
<!-- lenctenOE -->
<g id="node25" class="node">
<title>lenctenOE</title>
<text text-anchor="start" x="525" y="-224.8" font-family="Times New Roman,serif" font-weight="bold" font-size="14.00">Old English</text>
<text text-anchor="start" x="541.5" y="-210.8" font-family="Times New Roman,serif" font-size="14.00" fill="red">lencten</text>
</g>
<!-- langithoGc&#45;&gt;lenctenOE -->
<g id="edge24" class="edge">
<title>langithoGc&#45;&gt;lenctenOE</title>
<path fill="none" stroke="black" d="M499.66,-288.6C510.93,-276.46 526.12,-260.1 538.62,-246.64"/>
<polygon fill="black" stroke="black" points="541.39,-248.8 545.63,-239.1 536.26,-244.04 541.39,-248.8"/>
</g>
<!-- lengthME -->
<g id="node23" class="node">
<title>lengthME</title>
<text text-anchor="start" x="433" y="-139.8" font-family="Times New Roman,serif" font-weight="bold" font-size="14.00">Middle</text>
<text text-anchor="start" x="431.5" y="-125.8" font-family="Times New Roman,serif" font-weight="bold" font-size="14.00">English</text>
<text text-anchor="start" x="437.5" y="-111.8" font-family="Times New Roman,serif" font-size="14.00" fill="red">length</text>
</g>
<!-- lengthuOE&#45;&gt;lengthME -->
<g id="edge22" class="edge">
<title>lengthuOE&#45;&gt;lengthME</title>
<path fill="none" stroke="black" d="M454.5,-202.65C454.5,-191.76 454.5,-177.36 454.5,-164.25"/>
<polygon fill="black" stroke="black" points="458,-164.1 454.5,-154.1 451,-164.1 458,-164.1"/>
</g>
<!-- length -->
<g id="node24" class="node">
<title>length</title>
<text text-anchor="start" x="430" y="-41.8" font-family="Times New Roman,serif" font-weight="bold" font-size="14.00">Modern</text>
<text text-anchor="start" x="431.5" y="-27.8" font-family="Times New Roman,serif" font-weight="bold" font-size="14.00">English</text>
<text text-anchor="start" x="437.5" y="-13.8" font-family="Times New Roman,serif" font-size="14.00" fill="red">length</text>
</g>
<!-- lengthME&#45;&gt;length -->
<g id="edge23" class="edge">
<title>lengthME&#45;&gt;length</title>
<path fill="none" stroke="black" d="M454.5,-103.78C454.5,-92.41 454.5,-78.66 454.5,-66.25"/>
<polygon fill="black" stroke="black" points="458,-66.22 454.5,-56.22 451,-66.22 458,-66.22"/>
</g>
<!-- lenteME -->
<g id="node26" class="node">
<title>lenteME</title>
<text text-anchor="start" x="540" y="-145.8" font-family="Times New Roman,serif" font-weight="bold" font-size="14.00">Middle</text>
<text text-anchor="start" x="538.5" y="-131.8" font-family="Times New Roman,serif" font-weight="bold" font-size="14.00">English</text>
<text text-anchor="start" x="548.5" y="-117.8" font-family="Times New Roman,serif" font-size="14.00" fill="red">lente</text>
<text text-anchor="start" x="535.5" y="-105.4" font-family="Times New Roman,serif" font-size="12.00">sprint, Lent</text>
</g>
<!-- lenctenOE&#45;&gt;lenteME -->
<g id="edge25" class="edge">
<title>lenctenOE&#45;&gt;lenteME</title>
<path fill="none" stroke="black" d="M561.5,-202.65C561.5,-193.42 561.5,-181.65 561.5,-170.3"/>
<polygon fill="black" stroke="black" points="565,-170.06 561.5,-160.06 558,-170.06 565,-170.06"/>
</g>
<!-- lent -->
<g id="node27" class="node">
<title>lent</title>
<text text-anchor="start" x="537" y="-41.8" font-family="Times New Roman,serif" font-weight="bold" font-size="14.00">Modern</text>
<text text-anchor="start" x="538.5" y="-27.8" font-family="Times New Roman,serif" font-weight="bold" font-size="14.00">English</text>
<text text-anchor="start" x="549" y="-13.8" font-family="Times New Roman,serif" font-size="14.00" fill="red">Lent</text>
</g>
<!-- lenteME&#45;&gt;lent -->
<g id="edge26" class="edge">
<title>lenteME&#45;&gt;lent</title>
<path fill="none" stroke="black" d="M561.5,-97.89C561.5,-87.93 561.5,-76.77 561.5,-66.51"/>
<polygon fill="black" stroke="black" points="565,-66.23 561.5,-56.23 558,-66.23 565,-66.23"/>
</g>
<!-- dolikhosG -->
<g id="node30" class="node">
<title>dolikhosG</title>
<text text-anchor="start" x="605.5" y="-401.8" font-family="Times New Roman,serif" font-weight="bold" font-size="14.00">Greek</text>
<text text-anchor="start" x="601" y="-387.8" font-family="Times New Roman,serif" font-size="14.00" fill="red">dolikhos</text>
<text text-anchor="start" x="616" y="-375.4" font-family="Times New Roman,serif" font-size="12.00">long</text>
</g>
<!-- dlegho&#45;&gt;dolikhosG -->
<g id="edge29" class="edge">
<title>dlegho&#45;&gt;dolikhosG</title>
<path fill="none" stroke="black" d="M625.5,-464.84C625.5,-453.92 625.5,-439.41 625.5,-426.29"/>
<polygon fill="black" stroke="black" points="629,-426.17 625.5,-416.17 622,-426.17 629,-426.17"/>
</g>
<!-- dolichocephalic -->
<g id="node31" class="node">
<title>dolichocephalic</title>
<text text-anchor="start" x="657" y="-41.8" font-family="Times New Roman,serif" font-weight="bold" font-size="14.00">Modern</text>
<text text-anchor="start" x="658.5" y="-27.8" font-family="Times New Roman,serif" font-weight="bold" font-size="14.00">English</text>
<text text-anchor="start" x="637.5" y="-13.8" font-family="Times New Roman,serif" font-size="14.00" fill="red">dolichocephalic</text>
</g>
<!-- dolikhosG&#45;&gt;dolichocephalic -->
<g id="edge30" class="edge">
<title>dolikhosG&#45;&gt;dolichocephalic</title>
<path fill="none" stroke="black" stroke-dasharray="5,2" d="M625.74,-367.84C626.71,-317.85 631.57,-196.38 655.5,-98 658.13,-87.21 662.13,-75.83 666.21,-65.62"/>
<polygon fill="black" stroke="black" points="669.5,-66.82 670.11,-56.24 663.04,-64.13 669.5,-66.82"/>
</g>
<!-- dolichocranial -->
<g id="node32" class="node">
<title>dolichocranial</title>
<text text-anchor="start" x="790" y="-41.8" font-family="Times New Roman,serif" font-weight="bold" font-size="14.00">Modern</text>
<text text-anchor="start" x="791.5" y="-27.8" font-family="Times New Roman,serif" font-weight="bold" font-size="14.00">English</text>
<text text-anchor="start" x="775" y="-13.8" font-family="Times New Roman,serif" font-size="14.00" fill="red">dolichocranial</text>
</g>
<!-- dolikhosG&#45;&gt;dolichocranial -->
<g id="edge31" class="edge">
<title>dolikhosG&#45;&gt;dolichocranial</title>
<path fill="none" stroke="black" stroke-dasharray="5,2" d="M658.38,-374.05C662.45,-372 666.56,-369.94 670.5,-368 704.03,-351.49 723.85,-361.73 746.5,-332 810.48,-248.01 758.23,-199.45 787.5,-98 790.62,-87.18 794.93,-75.72 799.19,-65.44"/>
<polygon fill="black" stroke="black" points="802.51,-66.58 803.22,-56 796.08,-63.83 802.51,-66.58"/>
</g>
<!-- ghebhelIE -->
<g id="node33" class="node">
<title>ghebhelIE</title>
<g id="a_node33"><a xlink:href="ghebhel-head.svg" xlink:title="&lt;b&gt;Indo&#45;&lt;br/&gt;European&lt;/b&gt;&lt;br/&gt;&lt;font color=&quot;red&quot;&gt;*ghebh&#45;el&#45;&lt;/font&gt;&lt;br/&gt;&lt;font point&#45;size=&quot;12&quot;&gt;head&lt;/font&gt;">
<path fill="none" stroke="black" stroke-dasharray="5,2" d="M740,-514C740,-514 687,-514 687,-514 681,-514 675,-508 675,-502 675,-502 675,-464 675,-464 675,-458 681,-452 687,-452 687,-452 740,-452 740,-452 746,-452 752,-458 752,-464 752,-464 752,-502 752,-502 752,-508 746,-514 740,-514"/>
<text text-anchor="start" x="697" y="-499.8" font-family="Times New Roman,serif" font-weight="bold" font-size="14.00">Indo&#45;</text>
<text text-anchor="start" x="683" y="-485.8" font-family="Times New Roman,serif" font-weight="bold" font-size="14.00">European</text>
<text text-anchor="start" x="684" y="-471.8" font-family="Times New Roman,serif" font-size="14.00" fill="red">*ghebh&#45;el&#45;</text>
<text text-anchor="start" x="702.5" y="-459.4" font-family="Times New Roman,serif" font-size="12.00">head</text>
</a>
</g>
</g>
<!-- kephaleG -->
<g id="node34" class="node">
<title>kephaleG</title>
<text text-anchor="start" x="689.5" y="-395.8" font-family="Times New Roman,serif" font-weight="bold" font-size="14.00">Greek</text>
<text text-anchor="start" x="688" y="-381.8" font-family="Times New Roman,serif" font-size="14.00" fill="red">kephalē</text>
</g>
<!-- ghebhelIE&#45;&gt;kephaleG -->
<g id="edge32" class="edge">
<title>ghebhelIE&#45;&gt;kephaleG</title>
<path fill="none" stroke="black" d="M712.15,-451.87C711.69,-441.65 711.18,-430.29 710.73,-420.3"/>
<polygon fill="black" stroke="black" points="714.22,-419.95 710.27,-410.12 707.22,-420.27 714.22,-419.95"/>
</g>
<!-- cephalicusL -->
<g id="node35" class="node">
<title>cephalicusL</title>
<text text-anchor="start" x="684" y="-310.8" font-family="Times New Roman,serif" font-weight="bold" font-size="14.00">Latin</text>
<text text-anchor="start" x="671" y="-296.8" font-family="Times New Roman,serif" font-size="14.00" fill="red">cephalicus</text>
</g>
<!-- kephaleG&#45;&gt;cephalicusL -->
<g id="edge33" class="edge">
<title>kephaleG&#45;&gt;cephalicusL</title>
<path fill="none" stroke="black" stroke-dasharray="5,2" d="M707.64,-373.8C706.43,-362.67 704.83,-347.94 703.45,-335.24"/>
<polygon fill="black" stroke="black" points="706.92,-334.74 702.36,-325.18 699.96,-335.49 706.92,-334.74"/>
</g>
<!-- cephaliqueF -->
<g id="node36" class="node">
<title>cephaliqueF</title>
<text text-anchor="start" x="678.5" y="-224.8" font-family="Times New Roman,serif" font-weight="bold" font-size="14.00">French</text>
<text text-anchor="start" x="670.5" y="-210.8" font-family="Times New Roman,serif" font-size="14.00" fill="red">céphalique</text>
</g>
<!-- cephalicusL&#45;&gt;cephaliqueF -->
<g id="edge34" class="edge">
<title>cephalicusL&#45;&gt;cephaliqueF</title>
<path fill="none" stroke="black" d="M700.5,-288.6C700.5,-277.26 700.5,-262.23 700.5,-249.32"/>
<polygon fill="black" stroke="black" points="704,-249.1 700.5,-239.1 697,-249.1 704,-249.1"/>
</g>
<!-- cephalic -->
<g id="node37" class="node">
<title>cephalic</title>
<text text-anchor="start" x="674" y="-139.8" font-family="Times New Roman,serif" font-weight="bold" font-size="14.00">Modern</text>
<text text-anchor="start" x="675.5" y="-125.8" font-family="Times New Roman,serif" font-weight="bold" font-size="14.00">English</text>
<text text-anchor="start" x="673" y="-111.8" font-family="Times New Roman,serif" font-size="14.00" fill="red">&#45;cephalic</text>
</g>
<!-- cephaliqueF&#45;&gt;cephalic -->
<g id="edge35" class="edge">
<title>cephaliqueF&#45;&gt;cephalic</title>
<path fill="none" stroke="black" stroke-dasharray="5,2" d="M700.11,-202.65C699.87,-191.76 699.55,-177.36 699.26,-164.25"/>
<polygon fill="black" stroke="black" points="702.76,-164.02 699.04,-154.1 695.76,-164.18 702.76,-164.02"/>
</g>
<!-- cephalic&#45;&gt;dolichocephalic -->
<g id="edge36" class="edge">
<title>cephalic&#45;&gt;dolichocephalic</title>
<path fill="none" stroke="black" d="M694.21,-103.78C692.2,-92.41 689.76,-78.66 687.56,-66.25"/>
<polygon fill="black" stroke="black" points="690.98,-65.45 685.79,-56.22 684.09,-66.67 690.98,-65.45"/>
</g>
<!-- kerIE -->
<g id="node38" class="node">
<title>kerIE</title>
<g id="a_node38"><a xlink:href="ker-horn.svg" xlink:title="&lt;b&gt;Indo&#45;&lt;br/&gt;European&lt;/b&gt;&lt;br/&gt;&lt;font color=&quot;red&quot;&gt;*ker&#45;&lt;/font&gt;&lt;br/&gt;&lt;font point&#45;size=&quot;12&quot;&gt;horn, head&lt;/font&gt;">
<path fill="none" stroke="black" stroke-dasharray="5,2" d="M858,-514C858,-514 805,-514 805,-514 799,-514 793,-508 793,-502 793,-502 793,-464 793,-464 793,-458 799,-452 805,-452 805,-452 858,-452 858,-452 864,-452 870,-458 870,-464 870,-464 870,-502 870,-502 870,-508 864,-514 858,-514"/>
<text text-anchor="start" x="815" y="-499.8" font-family="Times New Roman,serif" font-weight="bold" font-size="14.00">Indo&#45;</text>
<text text-anchor="start" x="801" y="-485.8" font-family="Times New Roman,serif" font-weight="bold" font-size="14.00">European</text>
<text text-anchor="start" x="817" y="-471.8" font-family="Times New Roman,serif" font-size="14.00" fill="red">*ker&#45;</text>
<text text-anchor="start" x="807" y="-459.4" font-family="Times New Roman,serif" font-size="12.00">horn, head</text>
</a>
</g>
</g>
<!-- kranionG -->
<g id="node39" class="node">
<title>kranionG</title>
<text text-anchor="start" x="811.5" y="-401.8" font-family="Times New Roman,serif" font-weight="bold" font-size="14.00">Greek</text>
<text text-anchor="start" x="810.5" y="-387.8" font-family="Times New Roman,serif" font-size="14.00" fill="red">krānion</text>
<text text-anchor="start" x="821" y="-375.4" font-family="Times New Roman,serif" font-size="12.00">skull</text>
</g>
<!-- kerIE&#45;&gt;kranionG -->
<g id="edge37" class="edge">
<title>kerIE&#45;&gt;kranionG</title>
<path fill="none" stroke="black" d="M831.5,-451.87C831.5,-443.64 831.5,-434.68 831.5,-426.29"/>
<polygon fill="black" stroke="black" points="835,-426.06 831.5,-416.06 828,-426.06 835,-426.06"/>
</g>
<!-- craniumL -->
<g id="node40" class="node">
<title>craniumL</title>
<text text-anchor="start" x="803" y="-317.8" font-family="Times New Roman,serif" font-weight="bold" font-size="14.00">Medieval</text>
<text text-anchor="start" x="815" y="-303.8" font-family="Times New Roman,serif" font-weight="bold" font-size="14.00">Latin</text>
<text text-anchor="start" x="809" y="-289.8" font-family="Times New Roman,serif" font-size="14.00" fill="red">crānium</text>
</g>
<!-- kranionG&#45;&gt;craniumL -->
<g id="edge38" class="edge">
<title>kranionG&#45;&gt;craniumL</title>
<path fill="none" stroke="black" stroke-dasharray="5,2" d="M831.5,-367.88C831.5,-359.97 831.5,-350.94 831.5,-342.34"/>
<polygon fill="black" stroke="black" points="835,-342.15 831.5,-332.15 828,-342.15 835,-342.15"/>
</g>
<!-- craneumME -->
<g id="node41" class="node">
<title>craneumME</title>
<text text-anchor="start" x="809" y="-231.8" font-family="Times New Roman,serif" font-weight="bold" font-size="14.00">Middle</text>
<text text-anchor="start" x="807.5" y="-217.8" font-family="Times New Roman,serif" font-weight="bold" font-size="14.00">English</text>
<text text-anchor="start" x="806.5" y="-203.8" font-family="Times New Roman,serif" font-size="14.00" fill="red">craneum</text>
</g>
<!-- craniumL&#45;&gt;craneumME -->
<g id="edge39" class="edge">
<title>craniumL&#45;&gt;craneumME</title>
<path fill="none" stroke="black" stroke-dasharray="5,2" d="M831.21,-281.7C831.12,-273.78 831.01,-264.83 830.91,-256.31"/>
<polygon fill="black" stroke="black" points="834.41,-256.2 830.79,-246.24 827.41,-256.28 834.41,-256.2"/>
</g>
<!-- cranium -->
<g id="node42" class="node">
<title>cranium</title>
<text text-anchor="start" x="805" y="-139.8" font-family="Times New Roman,serif" font-weight="bold" font-size="14.00">Modern</text>
<text text-anchor="start" x="806.5" y="-125.8" font-family="Times New Roman,serif" font-weight="bold" font-size="14.00">English</text>
<text text-anchor="start" x="807" y="-111.8" font-family="Times New Roman,serif" font-size="14.00" fill="red">cranium</text>
</g>
<!-- craneumME&#45;&gt;cranium -->
<g id="edge40" class="edge">
<title>craneumME&#45;&gt;cranium</title>
<path fill="none" stroke="black" d="M830.23,-195.88C830.12,-186.2 830,-174.85 829.88,-164.34"/>
<polygon fill="black" stroke="black" points="833.38,-164.15 829.77,-154.18 826.38,-164.22 833.38,-164.15"/>
</g>
<!-- cranium&#45;&gt;dolichocranial -->
<g id="edge41" class="edge">
<title>cranium&#45;&gt;dolichocranial</title>
<path fill="none" stroke="black" d="M825.71,-103.78C823.94,-92.41 821.79,-78.66 819.85,-66.25"/>
<polygon fill="black" stroke="black" points="823.29,-65.56 818.28,-56.22 816.37,-66.64 823.29,-65.56"/>
</g>
</g>
</svg>
