<?xml version="1.0" encoding="UTF-8" standalone="no"?>
<!DOCTYPE svg PUBLIC "-//W3C//DTD SVG 1.1//EN"
 "http://www.w3.org/Graphics/SVG/1.1/DTD/svg11.dtd">
<!-- Generated by graphviz version 2.44.1 (20200629.0846)
 -->
<!-- Pages: 1 -->
<svg width="620pt" height="791pt"
 viewBox="0.00 0.00 620.00 791.00" xmlns="http://www.w3.org/2000/svg" xmlns:xlink="http://www.w3.org/1999/xlink">
<g id="graph0" class="graph" transform="scale(1 1) rotate(0) translate(4 787)">
<polygon fill="white" stroke="transparent" points="-4,4 -4,-787 616,-787 616,4 -4,4"/>
<!-- dok -->
<g id="node1" class="node">
<title>dok</title>
<g id="a_node1"><a xlink:href="dok-learn0.svg" xlink:title="Indo&#45;European &quot;dok&#45;, dek&#45;&quot; to learn">
<polygon fill="none" stroke="black" points="536,-779 340,-779 340,-675 536,-675 536,-779"/>
<polygon fill="none" stroke="black" points="540,-783 336,-783 336,-671 540,-671 540,-783"/>
<text text-anchor="start" x="367" y="-733.8" font-family="Times New Roman,serif" font-size="24.00">Indo&#45;European</text>
<text text-anchor="start" x="377.5" y="-706.6" font-family="Times New Roman,serif" font-size="18.00" fill="red">dok&#45;</text>
<text text-anchor="start" x="441" y="-707.2" font-family="Times New Roman,serif" font-size="16.00">to teach?</text>
</a>
</g>
</g>
<!-- dokeinG -->
<g id="node2" class="node">
<title>dokeinG</title>
<text text-anchor="start" x="275" y="-478.8" font-family="Times New Roman,serif" font-weight="bold" font-size="14.00">Greek</text>
<text text-anchor="start" x="276" y="-464.8" font-family="Times New Roman,serif" font-size="14.00" fill="red">dokein</text>
<text text-anchor="start" x="263" y="-452.4" font-family="Times New Roman,serif" font-size="12.00">to think, seem</text>
</g>
<!-- dok&#45;&gt;dokeinG -->
<g id="edge1" class="edge">
<title>dok&#45;&gt;dokeinG</title>
<path fill="none" stroke="black" d="M437,-670C437,-670 368.51,-642.52 336,-598 315.38,-569.76 304.85,-530.72 299.66,-503.2"/>
<polygon fill="black" stroke="black" points="303.1,-502.52 297.93,-493.27 296.2,-503.72 303.1,-502.52"/>
</g>
<!-- didaskeinG -->
<g id="node3" class="node">
<title>didaskeinG</title>
<text text-anchor="start" x="551" y="-478.8" font-family="Times New Roman,serif" font-weight="bold" font-size="14.00">Greek</text>
<text text-anchor="start" x="544.5" y="-464.8" font-family="Times New Roman,serif" font-size="14.00" fill="red">didaskein</text>
<text text-anchor="start" x="552.5" y="-452.4" font-family="Times New Roman,serif" font-size="12.00">to teach</text>
</g>
<!-- dok&#45;&gt;didaskeinG -->
<g id="edge2" class="edge">
<title>dok&#45;&gt;didaskeinG</title>
<path fill="none" stroke="black" d="M437,-670C437,-670 498.34,-640.19 528,-598 548.2,-569.26 559.49,-530.31 565.37,-502.95"/>
<polygon fill="black" stroke="black" points="568.82,-503.57 567.37,-493.07 561.96,-502.18 568.82,-503.57"/>
</g>
<!-- dogmaG -->
<g id="node4" class="node">
<title>dogmaG</title>
<text text-anchor="start" x="144.5" y="-374.8" font-family="Times New Roman,serif" font-size="14.00" fill="red">dogma, dogmat&#45;</text>
<text text-anchor="start" x="174" y="-362.4" font-family="Times New Roman,serif" font-size="12.00">opinion</text>
</g>
<!-- dokeinG&#45;&gt;dogmaG -->
<g id="edge3" class="edge">
<title>dokeinG&#45;&gt;dogmaG</title>
<path fill="none" stroke="black" d="M286,-444C286,-444 249.96,-417.06 222.27,-396.37"/>
<polygon fill="black" stroke="black" points="224.1,-393.37 214,-390.19 219.91,-398.98 224.1,-393.37"/>
</g>
<!-- doxaG -->
<g id="node6" class="node">
<title>doxaG</title>
<text text-anchor="start" x="291" y="-374.8" font-family="Times New Roman,serif" font-size="14.00" fill="red">doxa</text>
<text text-anchor="start" x="271.5" y="-362.4" font-family="Times New Roman,serif" font-size="12.00">opinion, praise</text>
</g>
<!-- dokeinG&#45;&gt;doxaG -->
<g id="edge5" class="edge">
<title>dokeinG&#45;&gt;doxaG</title>
<path fill="none" stroke="black" d="M286,-444C286,-444 292.42,-420 297.8,-399.9"/>
<polygon fill="black" stroke="black" points="301.2,-400.75 300.4,-390.19 294.43,-398.94 301.2,-400.75"/>
</g>
<!-- didaktosG -->
<g id="node26" class="node">
<title>didaktosG</title>
<text text-anchor="start" x="546.5" y="-387.8" font-family="Times New Roman,serif" font-size="14.00" fill="red">didaktos</text>
<text text-anchor="start" x="557" y="-375.4" font-family="Times New Roman,serif" font-size="12.00">taught</text>
<text text-anchor="start" x="542" y="-361.8" font-family="Times New Roman,serif" font-size="14.00" fill="red">didaktikos</text>
<text text-anchor="start" x="538" y="-349.4" font-family="Times New Roman,serif" font-size="12.00">apt at teaching</text>
</g>
<!-- didaskeinG&#45;&gt;didaktosG -->
<g id="edge25" class="edge">
<title>didaskeinG&#45;&gt;didaktosG</title>
<path fill="none" stroke="black" d="M571,-444.52C571,-434.86 571,-423.4 571,-412.52"/>
<polygon fill="black" stroke="black" points="574.5,-412.33 571,-402.34 567.5,-412.34 574.5,-412.33"/>
</g>
<!-- dogma -->
<g id="node5" class="node">
<title>dogma</title>
<text text-anchor="start" x="9.5" y="-49.8" font-family="Times New Roman,serif" font-weight="bold" font-size="14.00">Modern</text>
<text text-anchor="start" x="11" y="-35.8" font-family="Times New Roman,serif" font-weight="bold" font-size="14.00">English</text>
<text text-anchor="start" x="14.5" y="-21.8" font-family="Times New Roman,serif" font-size="14.00" fill="red">dogma</text>
<text text-anchor="start" x="8" y="-7.8" font-family="Times New Roman,serif" font-size="14.00" fill="red">dogmatic</text>
</g>
<!-- dogmaG&#45;&gt;dogma -->
<g id="edge4" class="edge">
<title>dogmaG&#45;&gt;dogma</title>
<path fill="none" stroke="black" stroke-dasharray="1,5" d="M136.36,-359.48C106.64,-350.23 72.14,-333.98 53,-306 5.27,-236.23 14.71,-131.57 24.9,-74.22"/>
<polygon fill="black" stroke="black" points="28.4,-74.56 26.8,-64.08 21.52,-73.27 28.4,-74.56"/>
</g>
<!-- paradoxonG -->
<g id="node7" class="node">
<title>paradoxonG</title>
<text text-anchor="start" x="92.5" y="-284.8" font-family="Times New Roman,serif" font-size="14.00" fill="red">paradoxon</text>
<text text-anchor="start" x="70.5" y="-272.4" font-family="Times New Roman,serif" font-size="12.00">contrary to expectation</text>
</g>
<!-- doxaG&#45;&gt;paradoxonG -->
<g id="edge6" class="edge">
<title>doxaG&#45;&gt;paradoxonG</title>
<path fill="none" stroke="black" d="M307,-353C307,-353 179.08,-314.77 142.6,-303.87"/>
<polygon fill="black" stroke="black" points="143.58,-300.51 133,-301 141.58,-307.22 143.58,-300.51"/>
</g>
<!-- orthodoxosG -->
<g id="node13" class="node">
<title>orthodoxosG</title>
<text text-anchor="start" x="229" y="-284.8" font-family="Times New Roman,serif" font-size="14.00" fill="red">orthodoxos</text>
<text text-anchor="start" x="210" y="-272.4" font-family="Times New Roman,serif" font-size="12.00">having the right opinion</text>
</g>
<!-- doxaG&#45;&gt;orthodoxosG -->
<g id="edge12" class="edge">
<title>doxaG&#45;&gt;orthodoxosG</title>
<path fill="none" stroke="black" d="M307,-353C307,-353 291.41,-328.74 278.58,-308.79"/>
<polygon fill="black" stroke="black" points="281.48,-306.82 273.12,-300.3 275.59,-310.61 281.48,-306.82"/>
</g>
<!-- heterodoxosG -->
<g id="node17" class="node">
<title>heterodoxosG</title>
<text text-anchor="start" x="348" y="-278.3" font-family="Times New Roman,serif" font-size="14.00" fill="red">heterodoxos</text>
</g>
<!-- doxaG&#45;&gt;heterodoxosG -->
<g id="edge16" class="edge">
<title>doxaG&#45;&gt;heterodoxosG</title>
<path fill="none" stroke="black" d="M307,-353C307,-353 349.54,-320.94 367.81,-307.17"/>
<polygon fill="black" stroke="black" points="370.12,-309.81 376,-301 365.91,-304.22 370.12,-309.81"/>
</g>
<!-- doxologosG -->
<g id="node21" class="node">
<title>doxologosG</title>
<text text-anchor="start" x="452.5" y="-291.8" font-family="Times New Roman,serif" font-size="14.00" fill="red">doxologos</text>
<text text-anchor="start" x="465.5" y="-279.4" font-family="Times New Roman,serif" font-size="12.00">praising</text>
<text text-anchor="start" x="455" y="-265.8" font-family="Times New Roman,serif" font-size="14.00" fill="red">doxologiā</text>
</g>
<!-- doxaG&#45;&gt;doxologosG -->
<g id="edge20" class="edge">
<title>doxaG&#45;&gt;doxologosG</title>
<path fill="none" stroke="black" d="M307,-353C307,-353 422.68,-319.95 457.93,-309.88"/>
<polygon fill="black" stroke="black" points="459.35,-313.11 468,-307 457.42,-306.38 459.35,-313.11"/>
</g>
<!-- paradoxumL -->
<g id="node8" class="node">
<title>paradoxumL</title>
<text text-anchor="start" x="106.5" y="-207.8" font-family="Times New Roman,serif" font-weight="bold" font-size="14.00">Latin</text>
<text text-anchor="start" x="91" y="-193.8" font-family="Times New Roman,serif" font-size="14.00" fill="red">paradoxum</text>
</g>
<!-- paradoxonG&#45;&gt;paradoxumL -->
<g id="edge7" class="edge">
<title>paradoxonG&#45;&gt;paradoxumL</title>
<path fill="none" stroke="black" stroke-dasharray="1,5" d="M123,-263.75C123,-254.52 123,-242.93 123,-232.49"/>
<polygon fill="black" stroke="black" points="126.5,-232.18 123,-222.18 119.5,-232.18 126.5,-232.18"/>
</g>
<!-- paradoxeMF -->
<g id="node9" class="node">
<title>paradoxeMF</title>
<text text-anchor="start" x="101.5" y="-135.8" font-family="Times New Roman,serif" font-weight="bold" font-size="14.00">Middle</text>
<text text-anchor="start" x="101" y="-121.8" font-family="Times New Roman,serif" font-weight="bold" font-size="14.00">French</text>
<text text-anchor="start" x="97" y="-107.8" font-family="Times New Roman,serif" font-size="14.00" fill="red">paradoxe</text>
</g>
<!-- paradoxumL&#45;&gt;paradoxeMF -->
<g id="edge8" class="edge">
<title>paradoxumL&#45;&gt;paradoxeMF</title>
<path fill="none" stroke="black" d="M123,-185.91C123,-178.33 123,-169.13 123,-160.23"/>
<polygon fill="black" stroke="black" points="126.5,-160.05 123,-150.05 119.5,-160.05 126.5,-160.05"/>
</g>
<!-- paradox -->
<g id="node10" class="node">
<title>paradox</title>
<text text-anchor="start" x="98.5" y="-42.8" font-family="Times New Roman,serif" font-weight="bold" font-size="14.00">Modern</text>
<text text-anchor="start" x="100" y="-28.8" font-family="Times New Roman,serif" font-weight="bold" font-size="14.00">English</text>
<text text-anchor="start" x="100" y="-14.8" font-family="Times New Roman,serif" font-size="14.00" fill="red">paradox</text>
</g>
<!-- paradoxeMF&#45;&gt;paradox -->
<g id="edge9" class="edge">
<title>paradoxeMF&#45;&gt;paradox</title>
<path fill="none" stroke="black" stroke-dasharray="1,5" d="M123,-99.61C123,-89.74 123,-78.17 123,-67.46"/>
<polygon fill="black" stroke="black" points="126.5,-67.14 123,-57.14 119.5,-67.14 126.5,-67.14"/>
</g>
<!-- perIE -->
<g id="node11" class="node">
<title>perIE</title>
<g id="a_node11"><a xlink:href="per.svg" xlink:title="&lt;b&gt;Indo&#45;&lt;br/&gt;European&lt;/b&gt;&lt;br/&gt;&lt;font color=&quot;red&quot;&gt;per&lt;/font&gt;&lt;br/&gt;&lt;font point&#45;size=&quot;12&quot;&gt;by, near&lt;/font&gt;">
<path fill="none" stroke="black" stroke-dasharray="5,2" d="M134.5,-598C134.5,-598 81.5,-598 81.5,-598 75.5,-598 69.5,-592 69.5,-586 69.5,-586 69.5,-548 69.5,-548 69.5,-542 75.5,-536 81.5,-536 81.5,-536 134.5,-536 134.5,-536 140.5,-536 146.5,-542 146.5,-548 146.5,-548 146.5,-586 146.5,-586 146.5,-592 140.5,-598 134.5,-598"/>
<text text-anchor="start" x="91.5" y="-583.8" font-family="Times New Roman,serif" font-weight="bold" font-size="14.00">Indo&#45;</text>
<text text-anchor="start" x="77.5" y="-569.8" font-family="Times New Roman,serif" font-weight="bold" font-size="14.00">European</text>
<text text-anchor="start" x="98.5" y="-555.8" font-family="Times New Roman,serif" font-size="14.00" fill="red">per</text>
<text text-anchor="start" x="89.5" y="-543.4" font-family="Times New Roman,serif" font-size="12.00">by, near</text>
</a>
</g>
</g>
<!-- paraG -->
<g id="node12" class="node">
<title>paraG</title>
<text text-anchor="start" x="88" y="-472.8" font-family="Times New Roman,serif" font-weight="bold" font-size="14.00">Greek</text>
<text text-anchor="start" x="95.5" y="-458.8" font-family="Times New Roman,serif" font-size="14.00" fill="red">para</text>
</g>
<!-- perIE&#45;&gt;paraG -->
<g id="edge10" class="edge">
<title>perIE&#45;&gt;paraG</title>
<path fill="none" stroke="black" d="M108,-535.89C108,-523.6 108,-509.48 108,-497.47"/>
<polygon fill="black" stroke="black" points="111.5,-497.15 108,-487.15 104.5,-497.15 111.5,-497.15"/>
</g>
<!-- paraG&#45;&gt;paradoxonG -->
<g id="edge11" class="edge">
<title>paraG&#45;&gt;paradoxonG</title>
<path fill="none" stroke="black" d="M110.58,-450.76C115.77,-416.09 127.33,-338.89 131.48,-311.16"/>
<polygon fill="black" stroke="black" points="134.98,-311.41 133,-301 128.06,-310.37 134.98,-311.41"/>
</g>
<!-- orthodoxusL -->
<g id="node14" class="node">
<title>orthodoxusL</title>
<text text-anchor="start" x="245.5" y="-207.8" font-family="Times New Roman,serif" font-weight="bold" font-size="14.00">Latin</text>
<text text-anchor="start" x="229.5" y="-193.8" font-family="Times New Roman,serif" font-size="14.00" fill="red">orthodoxus</text>
</g>
<!-- orthodoxosG&#45;&gt;orthodoxusL -->
<g id="edge13" class="edge">
<title>orthodoxosG&#45;&gt;orthodoxusL</title>
<path fill="none" stroke="black" stroke-dasharray="1,5" d="M262,-263.75C262,-254.52 262,-242.93 262,-232.49"/>
<polygon fill="black" stroke="black" points="265.5,-232.18 262,-222.18 258.5,-232.18 265.5,-232.18"/>
</g>
<!-- orthodoxeMF -->
<g id="node15" class="node">
<title>orthodoxeMF</title>
<text text-anchor="start" x="240.5" y="-135.8" font-family="Times New Roman,serif" font-weight="bold" font-size="14.00">Middle</text>
<text text-anchor="start" x="240" y="-121.8" font-family="Times New Roman,serif" font-weight="bold" font-size="14.00">French</text>
<text text-anchor="start" x="233" y="-107.8" font-family="Times New Roman,serif" font-size="14.00" fill="red">orthodoxe</text>
</g>
<!-- orthodoxusL&#45;&gt;orthodoxeMF -->
<g id="edge14" class="edge">
<title>orthodoxusL&#45;&gt;orthodoxeMF</title>
<path fill="none" stroke="black" d="M262,-185.91C262,-178.33 262,-169.13 262,-160.23"/>
<polygon fill="black" stroke="black" points="265.5,-160.05 262,-150.05 258.5,-160.05 265.5,-160.05"/>
</g>
<!-- orthodox -->
<g id="node16" class="node">
<title>orthodox</title>
<text text-anchor="start" x="237.5" y="-42.8" font-family="Times New Roman,serif" font-weight="bold" font-size="14.00">Modern</text>
<text text-anchor="start" x="239" y="-28.8" font-family="Times New Roman,serif" font-weight="bold" font-size="14.00">English</text>
<text text-anchor="start" x="236" y="-14.8" font-family="Times New Roman,serif" font-size="14.00" fill="red">orthodox</text>
</g>
<!-- orthodoxeMF&#45;&gt;orthodox -->
<g id="edge15" class="edge">
<title>orthodoxeMF&#45;&gt;orthodox</title>
<path fill="none" stroke="black" stroke-dasharray="1,5" d="M262,-99.61C262,-89.74 262,-78.17 262,-67.46"/>
<polygon fill="black" stroke="black" points="265.5,-67.14 262,-57.14 258.5,-67.14 265.5,-67.14"/>
</g>
<!-- heterodox -->
<g id="node18" class="node">
<title>heterodox</title>
<text text-anchor="start" x="358.5" y="-42.8" font-family="Times New Roman,serif" font-weight="bold" font-size="14.00">Modern</text>
<text text-anchor="start" x="360" y="-28.8" font-family="Times New Roman,serif" font-weight="bold" font-size="14.00">English</text>
<text text-anchor="start" x="354.5" y="-14.8" font-family="Times New Roman,serif" font-size="14.00" fill="red">heterodox</text>
</g>
<!-- heterodoxosG&#45;&gt;heterodox -->
<g id="edge17" class="edge">
<title>heterodoxosG&#45;&gt;heterodox</title>
<path fill="none" stroke="black" stroke-dasharray="1,5" d="M383,-263.95C383,-223.53 383,-121.23 383,-67.37"/>
<polygon fill="black" stroke="black" points="386.5,-67.28 383,-57.28 379.5,-67.28 386.5,-67.28"/>
</g>
<!-- semIE -->
<g id="node19" class="node">
<title>semIE</title>
<g id="a_node19"><a xlink:href="sem-one.svg" xlink:title="&lt;b&gt;Indo&#45;&lt;br/&gt;European&lt;/b&gt;&lt;br/&gt;&lt;font color=&quot;red&quot;&gt;sem&#45;&lt;/font&gt;&lt;br/&gt;&lt;font point&#45;size=&quot;12&quot;&gt;one, as one&lt;/font&gt;">
<path fill="none" stroke="black" stroke-dasharray="5,2" d="M410.5,-598C410.5,-598 357.5,-598 357.5,-598 351.5,-598 345.5,-592 345.5,-586 345.5,-586 345.5,-548 345.5,-548 345.5,-542 351.5,-536 357.5,-536 357.5,-536 410.5,-536 410.5,-536 416.5,-536 422.5,-542 422.5,-548 422.5,-548 422.5,-586 422.5,-586 422.5,-592 416.5,-598 410.5,-598"/>
<text text-anchor="start" x="367.5" y="-583.8" font-family="Times New Roman,serif" font-weight="bold" font-size="14.00">Indo&#45;</text>
<text text-anchor="start" x="353.5" y="-569.8" font-family="Times New Roman,serif" font-weight="bold" font-size="14.00">European</text>
<text text-anchor="start" x="370" y="-555.8" font-family="Times New Roman,serif" font-size="14.00" fill="red">sem&#45;</text>
<text text-anchor="start" x="358" y="-543.4" font-family="Times New Roman,serif" font-size="12.00">one, as one</text>
</a>
</g>
</g>
<!-- heterosG -->
<g id="node20" class="node">
<title>heterosG</title>
<text text-anchor="start" x="364" y="-485.8" font-family="Times New Roman,serif" font-weight="bold" font-size="14.00">Greek</text>
<text text-anchor="start" x="361.5" y="-471.8" font-family="Times New Roman,serif" font-size="14.00" fill="red">heteros,</text>
<text text-anchor="start" x="364" y="-457.8" font-family="Times New Roman,serif" font-size="14.00" fill="red">hetero&#45;</text>
<text text-anchor="start" x="372" y="-445.4" font-family="Times New Roman,serif" font-size="12.00">other</text>
</g>
<!-- semIE&#45;&gt;heterosG -->
<g id="edge18" class="edge">
<title>semIE&#45;&gt;heterosG</title>
<path fill="none" stroke="black" d="M384,-535.89C384,-527.76 384,-518.83 384,-510.24"/>
<polygon fill="black" stroke="black" points="387.5,-510 384,-500 380.5,-510 387.5,-510"/>
</g>
<!-- heterosG&#45;&gt;heterodoxosG -->
<g id="edge19" class="edge">
<title>heterosG&#45;&gt;heterodoxosG</title>
<path fill="none" stroke="black" d="M382.55,-437.76C380.72,-399.6 377.67,-335.96 376.49,-311.25"/>
<polygon fill="black" stroke="black" points="379.97,-310.82 376,-301 372.98,-311.16 379.97,-310.82"/>
</g>
<!-- doxologiaL -->
<g id="node22" class="node">
<title>doxologiaL</title>
<text text-anchor="start" x="466.5" y="-207.8" font-family="Times New Roman,serif" font-weight="bold" font-size="14.00">Latin</text>
<text text-anchor="start" x="455" y="-193.8" font-family="Times New Roman,serif" font-size="14.00" fill="red">doxologia</text>
</g>
<!-- doxologosG&#45;&gt;doxologiaL -->
<g id="edge21" class="edge">
<title>doxologosG&#45;&gt;doxologiaL</title>
<path fill="none" stroke="black" stroke-dasharray="1,5" d="M483,-257.78C483,-249.68 483,-240.52 483,-232.12"/>
<polygon fill="black" stroke="black" points="486.5,-232.04 483,-222.04 479.5,-232.04 486.5,-232.04"/>
</g>
<!-- doxology -->
<g id="node23" class="node">
<title>doxology</title>
<text text-anchor="start" x="458.5" y="-42.8" font-family="Times New Roman,serif" font-weight="bold" font-size="14.00">Modern</text>
<text text-anchor="start" x="460" y="-28.8" font-family="Times New Roman,serif" font-weight="bold" font-size="14.00">English</text>
<text text-anchor="start" x="456" y="-14.8" font-family="Times New Roman,serif" font-size="14.00" fill="red">doxology</text>
</g>
<!-- doxologiaL&#45;&gt;doxology -->
<g id="edge22" class="edge">
<title>doxologiaL&#45;&gt;doxology</title>
<path fill="none" stroke="black" stroke-dasharray="1,5" d="M483,-185.76C483,-158.03 483,-102.98 483,-67.09"/>
<polygon fill="black" stroke="black" points="486.5,-67.07 483,-57.07 479.5,-67.07 486.5,-67.07"/>
</g>
<!-- legIE -->
<g id="node24" class="node">
<title>legIE</title>
<g id="a_node24"><a xlink:href="leg-speak.svg" xlink:title="&lt;b&gt;Indo&#45;&lt;br/&gt;European&lt;/b&gt;&lt;br/&gt;&lt;font color=&quot;red&quot;&gt;leg&#45;&lt;/font&gt;&lt;br/&gt;&lt;font point&#45;size=&quot;12&quot;&gt;to speak&lt;/font&gt;">
<path fill="none" stroke="black" stroke-dasharray="5,2" d="M507.5,-598C507.5,-598 454.5,-598 454.5,-598 448.5,-598 442.5,-592 442.5,-586 442.5,-586 442.5,-548 442.5,-548 442.5,-542 448.5,-536 454.5,-536 454.5,-536 507.5,-536 507.5,-536 513.5,-536 519.5,-542 519.5,-548 519.5,-548 519.5,-586 519.5,-586 519.5,-592 513.5,-598 507.5,-598"/>
<text text-anchor="start" x="464.5" y="-583.8" font-family="Times New Roman,serif" font-weight="bold" font-size="14.00">Indo&#45;</text>
<text text-anchor="start" x="450.5" y="-569.8" font-family="Times New Roman,serif" font-weight="bold" font-size="14.00">European</text>
<text text-anchor="start" x="470.5" y="-555.8" font-family="Times New Roman,serif" font-size="14.00" fill="red">leg&#45;</text>
<text text-anchor="start" x="461" y="-543.4" font-family="Times New Roman,serif" font-size="12.00">to speak</text>
</a>
</g>
</g>
<!-- logosG -->
<g id="node25" class="node">
<title>logosG</title>
<text text-anchor="start" x="461" y="-478.8" font-family="Times New Roman,serif" font-weight="bold" font-size="14.00">Greek</text>
<text text-anchor="start" x="465.5" y="-464.8" font-family="Times New Roman,serif" font-size="14.00" fill="red">logos</text>
<text text-anchor="start" x="452" y="-452.4" font-family="Times New Roman,serif" font-size="12.00">word, saying</text>
</g>
<!-- legIE&#45;&gt;logosG -->
<g id="edge23" class="edge">
<title>legIE&#45;&gt;logosG</title>
<path fill="none" stroke="black" d="M481,-535.89C481,-525.58 481,-513.98 481,-503.43"/>
<polygon fill="black" stroke="black" points="484.5,-503.3 481,-493.3 477.5,-503.3 484.5,-503.3"/>
</g>
<!-- logosG&#45;&gt;doxologosG -->
<g id="edge24" class="edge">
<title>logosG&#45;&gt;doxologosG</title>
<path fill="none" stroke="black" d="M479.14,-444.93C476.26,-409.28 470.85,-342.28 468.81,-317"/>
<polygon fill="black" stroke="black" points="472.29,-316.69 468,-307 465.32,-317.25 472.29,-316.69"/>
</g>
<!-- didactic -->
<g id="node27" class="node">
<title>didactic</title>
<text text-anchor="start" x="546.5" y="-42.8" font-family="Times New Roman,serif" font-weight="bold" font-size="14.00">Modern</text>
<text text-anchor="start" x="548" y="-28.8" font-family="Times New Roman,serif" font-weight="bold" font-size="14.00">English</text>
<text text-anchor="start" x="548.5" y="-14.8" font-family="Times New Roman,serif" font-size="14.00" fill="red">didactic</text>
</g>
<!-- didaktosG&#45;&gt;didactic -->
<g id="edge26" class="edge">
<title>didaktosG&#45;&gt;didactic</title>
<path fill="none" stroke="black" stroke-dasharray="1,5" d="M571,-341.89C571,-279.7 571,-134.12 571,-67.45"/>
<polygon fill="black" stroke="black" points="574.5,-67.08 571,-57.08 567.5,-67.08 574.5,-67.08"/>
</g>
</g>
</svg>
