<?xml version="1.0" encoding="UTF-8" standalone="no"?>
<!DOCTYPE svg PUBLIC "-//W3C//DTD SVG 1.1//EN"
 "http://www.w3.org/Graphics/SVG/1.1/DTD/svg11.dtd">
<!-- Generated by graphviz version 2.44.1 (20200629.0846)
 -->
<!-- Pages: 1 -->
<svg width="803pt" height="889pt"
 viewBox="0.00 0.00 803.00 889.00" xmlns="http://www.w3.org/2000/svg" xmlns:xlink="http://www.w3.org/1999/xlink">
<g id="graph0" class="graph" transform="scale(1 1) rotate(0) translate(4 885)">
<polygon fill="white" stroke="transparent" points="-4,4 -4,-885 799,-885 799,4 -4,4"/>
<!-- dok -->
<g id="node1" class="node">
<title>dok</title>
<g id="a_node1"><a xlink:href="dok-learn0.svg" xlink:title="Indo&#45;European &quot;dok&#45;, dek&#45;&quot; to learn">
<polygon fill="none" stroke="black" points="349.5,-877 153.5,-877 153.5,-773 349.5,-773 349.5,-877"/>
<polygon fill="none" stroke="black" points="353.5,-881 149.5,-881 149.5,-769 353.5,-769 353.5,-881"/>
<text text-anchor="start" x="180.5" y="-831.8" font-family="Times New Roman,serif" font-size="24.00">Indo&#45;European</text>
<text text-anchor="start" x="191" y="-804.6" font-family="Times New Roman,serif" font-size="18.00" fill="red">dok&#45;</text>
<text text-anchor="start" x="254.5" y="-805.2" font-family="Times New Roman,serif" font-size="16.00">to teach?</text>
</a>
</g>
</g>
<!-- decereL -->
<g id="node2" class="node">
<title>decereL</title>
<text text-anchor="start" x="97" y="-570.8" font-family="Times New Roman,serif" font-weight="bold" font-size="14.00">Latin</text>
<text text-anchor="start" x="95" y="-556.8" font-family="Times New Roman,serif" font-size="14.00" fill="red">decēre</text>
<text text-anchor="start" x="88" y="-544.4" font-family="Times New Roman,serif" font-size="12.00">to be fitting</text>
</g>
<!-- dok&#45;&gt;decereL -->
<g id="edge1" class="edge">
<title>dok&#45;&gt;decereL</title>
<path fill="none" stroke="black" d="M255.5,-768C255.5,-768 175.11,-651.38 135.31,-593.63"/>
<polygon fill="black" stroke="black" points="138.07,-591.48 129.51,-585.23 132.31,-595.45 138.07,-591.48"/>
</g>
<!-- decusL -->
<g id="node3" class="node">
<title>decusL</title>
<text text-anchor="start" x="235" y="-583.8" font-family="Times New Roman,serif" font-weight="bold" font-size="14.00">Latin</text>
<text text-anchor="start" x="233" y="-569.8" font-family="Times New Roman,serif" font-size="14.00" fill="red">decus,</text>
<text text-anchor="start" x="233" y="-555.8" font-family="Times New Roman,serif" font-size="14.00" fill="red">decor&#45;</text>
<text text-anchor="start" x="234.5" y="-543.4" font-family="Times New Roman,serif" font-size="12.00">beauty,</text>
<text text-anchor="start" x="227.5" y="-531.4" font-family="Times New Roman,serif" font-size="12.00">seemliness</text>
</g>
<!-- dok&#45;&gt;decusL -->
<g id="edge2" class="edge">
<title>dok&#45;&gt;decusL</title>
<path fill="none" stroke="black" d="M255.5,-768C255.5,-768 253.58,-669.25 252.4,-608.49"/>
<polygon fill="black" stroke="black" points="255.9,-608.28 252.21,-598.35 248.9,-608.42 255.9,-608.28"/>
</g>
<!-- dignusL -->
<g id="node4" class="node">
<title>dignusL</title>
<text text-anchor="start" x="468" y="-570.8" font-family="Times New Roman,serif" font-weight="bold" font-size="14.00">Latin</text>
<text text-anchor="start" x="466" y="-556.8" font-family="Times New Roman,serif" font-size="14.00" fill="red">dignus</text>
<text text-anchor="start" x="468.5" y="-544.4" font-family="Times New Roman,serif" font-size="12.00">worthy</text>
</g>
<!-- dok&#45;&gt;dignusL -->
<g id="edge3" class="edge">
<title>dok&#45;&gt;dignusL</title>
<path fill="none" stroke="black" d="M255.5,-768C255.5,-768 387.27,-649.46 450.9,-592.22"/>
<polygon fill="black" stroke="black" points="453.58,-594.52 458.68,-585.23 448.9,-589.32 453.58,-594.52"/>
</g>
<!-- decensL -->
<g id="node5" class="node">
<title>decensL</title>
<text text-anchor="start" x="38.5" y="-460.3" font-family="Times New Roman,serif" font-size="14.00" fill="red">decēns, decent&#45;</text>
</g>
<!-- decereL&#45;&gt;decensL -->
<g id="edge4" class="edge">
<title>decereL&#45;&gt;decensL</title>
<path fill="none" stroke="black" d="M105.84,-536.52C101.42,-522.99 95.86,-505.93 91.27,-491.87"/>
<polygon fill="black" stroke="black" points="94.56,-490.67 88.13,-482.25 87.9,-492.84 94.56,-490.67"/>
</g>
<!-- decorumL -->
<g id="node8" class="node">
<title>decorumL</title>
<text text-anchor="start" x="257.5" y="-472.8" font-family="Times New Roman,serif" font-size="14.00" fill="red">decōrum</text>
<text text-anchor="start" x="259.5" y="-460.4" font-family="Times New Roman,serif" font-size="12.00">that which</text>
<text text-anchor="start" x="262" y="-448.4" font-family="Times New Roman,serif" font-size="12.00">is seemly</text>
</g>
<!-- decusL&#45;&gt;decorumL -->
<g id="edge7" class="edge">
<title>decusL&#45;&gt;decorumL</title>
<path fill="none" stroke="black" d="M263.31,-523.81C266.21,-514.92 269.3,-505.46 272.13,-496.79"/>
<polygon fill="black" stroke="black" points="275.53,-497.65 275.3,-487.06 268.87,-495.48 275.53,-497.65"/>
</g>
<!-- decorareL -->
<g id="node10" class="node">
<title>decorareL</title>
<text text-anchor="start" x="171" y="-473.8" font-family="Times New Roman,serif" font-size="14.00" fill="red">decorāre</text>
<text text-anchor="start" x="168" y="-461.4" font-family="Times New Roman,serif" font-size="12.00">to ornament</text>
<text text-anchor="start" x="168" y="-447.8" font-family="Times New Roman,serif" font-size="14.00" fill="red">decorātus</text>
</g>
<!-- decusL&#45;&gt;decorareL -->
<g id="edge9" class="edge">
<title>decusL&#45;&gt;decorareL</title>
<path fill="none" stroke="black" d="M230.17,-523.81C224.94,-514.94 219.38,-505.51 214.28,-496.86"/>
<polygon fill="black" stroke="black" points="217.26,-495.01 209.16,-488.18 211.23,-498.57 217.26,-495.01"/>
</g>
<!-- dignitas -->
<g id="node16" class="node">
<title>dignitas</title>
<text text-anchor="start" x="461" y="-467.8" font-family="Times New Roman,serif" font-size="14.00" fill="red">dignitās,</text>
<text text-anchor="start" x="461.5" y="-452.8" font-family="Times New Roman,serif" font-size="14.00" fill="red">dignitāt&#45;</text>
</g>
<!-- dignusL&#45;&gt;dignitas -->
<g id="edge15" class="edge">
<title>dignusL&#45;&gt;dignitas</title>
<path fill="none" stroke="black" d="M492.5,-536C492.5,-536 489.94,-513.24 487.71,-493.49"/>
<polygon fill="black" stroke="black" points="491.16,-492.83 486.56,-483.28 484.2,-493.61 491.16,-492.83"/>
</g>
<!-- dignificare -->
<g id="node20" class="node">
<title>dignificare</title>
<text text-anchor="start" x="357.5" y="-466.8" font-family="Times New Roman,serif" font-size="14.00" fill="red">dignificāre</text>
<text text-anchor="start" x="350.5" y="-454.4" font-family="Times New Roman,serif" font-size="12.00">to make worthy</text>
</g>
<!-- dignusL&#45;&gt;dignificare -->
<g id="edge19" class="edge">
<title>dignusL&#45;&gt;dignificare</title>
<path fill="none" stroke="black" d="M492.5,-536C492.5,-536 451.35,-508.44 420.33,-487.66"/>
<polygon fill="black" stroke="black" points="422.15,-484.66 411.89,-482.01 418.25,-490.48 422.15,-484.66"/>
</g>
<!-- indignariL -->
<g id="node28" class="node">
<title>indignariL</title>
<text text-anchor="start" x="677" y="-472.8" font-family="Times New Roman,serif" font-size="14.00" fill="red">indignārī</text>
<text text-anchor="start" x="656" y="-460.4" font-family="Times New Roman,serif" font-size="12.00">regard as unworthy,</text>
<text text-anchor="start" x="665" y="-448.4" font-family="Times New Roman,serif" font-size="12.00">be displeased at</text>
</g>
<!-- dignusL&#45;&gt;indignariL -->
<g id="edge27" class="edge">
<title>dignusL&#45;&gt;indignariL</title>
<path fill="none" stroke="black" d="M492.5,-536C492.5,-536 637.08,-500.23 676.61,-490.45"/>
<polygon fill="black" stroke="black" points="677.63,-493.8 686.5,-488 675.95,-487 677.63,-493.8"/>
</g>
<!-- dignariL -->
<g id="node34" class="node">
<title>dignariL</title>
<text text-anchor="start" x="562.5" y="-466.8" font-family="Times New Roman,serif" font-size="14.00" fill="red">dignārī</text>
<text text-anchor="start" x="544" y="-454.4" font-family="Times New Roman,serif" font-size="12.00">regard as worthy</text>
</g>
<!-- dignusL&#45;&gt;dignariL -->
<g id="edge33" class="edge">
<title>dignusL&#45;&gt;dignariL</title>
<path fill="none" stroke="black" d="M492.5,-536C492.5,-536 526.35,-509.29 552.54,-488.64"/>
<polygon fill="black" stroke="black" points="555.03,-491.13 560.71,-482.19 550.69,-485.63 555.03,-491.13"/>
</g>
<!-- decentMF -->
<g id="node6" class="node">
<title>decentMF</title>
<text text-anchor="start" x="19" y="-305.8" font-family="Times New Roman,serif" font-weight="bold" font-size="14.00">Middle</text>
<text text-anchor="start" x="18.5" y="-291.8" font-family="Times New Roman,serif" font-weight="bold" font-size="14.00">French</text>
<text text-anchor="start" x="22" y="-277.8" font-family="Times New Roman,serif" font-size="14.00" fill="red">décent</text>
</g>
<!-- decensL&#45;&gt;decentMF -->
<g id="edge5" class="edge">
<title>decensL&#45;&gt;decentMF</title>
<path fill="none" stroke="black" d="M78.16,-445.76C71.32,-418.53 57.87,-365.06 49.03,-329.93"/>
<polygon fill="black" stroke="black" points="52.4,-328.96 46.56,-320.11 45.61,-330.66 52.4,-328.96"/>
</g>
<!-- decent -->
<g id="node7" class="node">
<title>decent</title>
<text text-anchor="start" x="8" y="-35.8" font-family="Times New Roman,serif" font-weight="bold" font-size="14.00">Modern</text>
<text text-anchor="start" x="9.5" y="-21.8" font-family="Times New Roman,serif" font-weight="bold" font-size="14.00">English</text>
<text text-anchor="start" x="14" y="-7.8" font-family="Times New Roman,serif" font-size="14.00" fill="red">decent</text>
</g>
<!-- decentMF&#45;&gt;decent -->
<g id="edge6" class="edge">
<title>decentMF&#45;&gt;decent</title>
<path fill="none" stroke="black" stroke-dasharray="1,5" d="M39.78,-269.74C38.35,-221.91 35.17,-115.29 33.52,-60.29"/>
<polygon fill="black" stroke="black" points="37.01,-59.9 33.22,-50.01 30.02,-60.11 37.01,-59.9"/>
</g>
<!-- decorum -->
<g id="node9" class="node">
<title>decorum</title>
<text text-anchor="start" x="258" y="-35.8" font-family="Times New Roman,serif" font-weight="bold" font-size="14.00">Modern</text>
<text text-anchor="start" x="259.5" y="-21.8" font-family="Times New Roman,serif" font-weight="bold" font-size="14.00">English</text>
<text text-anchor="start" x="257.5" y="-7.8" font-family="Times New Roman,serif" font-size="14.00" fill="red">decorum</text>
</g>
<!-- decorumL&#45;&gt;decorum -->
<g id="edge8" class="edge">
<title>decorumL&#45;&gt;decorum</title>
<path fill="none" stroke="black" stroke-dasharray="1,5" d="M282.5,-440.85C282.5,-408.87 282.5,-347.9 282.5,-296 282.5,-296 282.5,-296 282.5,-208 282.5,-156.52 282.5,-96.85 282.5,-60.27"/>
<polygon fill="black" stroke="black" points="286,-60.14 282.5,-50.14 279,-60.14 286,-60.14"/>
</g>
<!-- decoratME -->
<g id="node11" class="node">
<title>decoratME</title>
<text text-anchor="start" x="95" y="-219.8" font-family="Times New Roman,serif" font-weight="bold" font-size="14.00">Middle</text>
<text text-anchor="start" x="93.5" y="-205.8" font-family="Times New Roman,serif" font-weight="bold" font-size="14.00">English</text>
<text text-anchor="start" x="95" y="-191.8" font-family="Times New Roman,serif" font-size="14.00" fill="red">decorat</text>
</g>
<!-- decorareL&#45;&gt;decoratME -->
<g id="edge10" class="edge">
<title>decorareL&#45;&gt;decoratME</title>
<path fill="none" stroke="black" stroke-dasharray="1,5" d="M188.21,-439.65C174.17,-394.7 143.34,-295.96 127.06,-243.81"/>
<polygon fill="black" stroke="black" points="130.32,-242.53 124,-234.03 123.64,-244.62 130.32,-242.53"/>
</g>
<!-- decorerF -->
<g id="node13" class="node">
<title>decorerF</title>
<text text-anchor="start" x="175.5" y="-212.8" font-family="Times New Roman,serif" font-weight="bold" font-size="14.00">French</text>
<text text-anchor="start" x="176" y="-198.8" font-family="Times New Roman,serif" font-size="14.00" fill="red">décorer</text>
</g>
<!-- decorareL&#45;&gt;decorerF -->
<g id="edge12" class="edge">
<title>decorareL&#45;&gt;decorerF</title>
<path fill="none" stroke="black" d="M195.68,-439.65C196.06,-392.7 196.89,-287.08 197.29,-237.14"/>
<polygon fill="black" stroke="black" points="200.79,-237.12 197.36,-227.09 193.79,-237.06 200.79,-237.12"/>
</g>
<!-- decorate -->
<g id="node12" class="node">
<title>decorate</title>
<text text-anchor="start" x="91" y="-35.8" font-family="Times New Roman,serif" font-weight="bold" font-size="14.00">Modern</text>
<text text-anchor="start" x="92.5" y="-21.8" font-family="Times New Roman,serif" font-weight="bold" font-size="14.00">English</text>
<text text-anchor="start" x="91" y="-7.8" font-family="Times New Roman,serif" font-size="14.00" fill="red">decorate</text>
</g>
<!-- decoratME&#45;&gt;decorate -->
<g id="edge11" class="edge">
<title>decoratME&#45;&gt;decorate</title>
<path fill="none" stroke="black" d="M116.37,-183.83C116.19,-152.15 115.89,-96.38 115.69,-60.33"/>
<polygon fill="black" stroke="black" points="119.19,-60.25 115.63,-50.27 112.19,-60.29 119.19,-60.25"/>
</g>
<!-- decorF -->
<g id="node14" class="node">
<title>decorF</title>
<text text-anchor="start" x="182" y="-113.3" font-family="Times New Roman,serif" font-size="14.00" fill="red">décor</text>
</g>
<!-- decorerF&#45;&gt;decorF -->
<g id="edge13" class="edge">
<title>decorerF&#45;&gt;decorF</title>
<path fill="none" stroke="black" d="M197.69,-190.65C197.84,-177.82 198.03,-160.11 198.2,-145.38"/>
<polygon fill="black" stroke="black" points="201.7,-145.34 198.31,-135.3 194.7,-145.26 201.7,-145.34"/>
</g>
<!-- decor -->
<g id="node15" class="node">
<title>decor</title>
<text text-anchor="start" x="174" y="-35.8" font-family="Times New Roman,serif" font-weight="bold" font-size="14.00">Modern</text>
<text text-anchor="start" x="175.5" y="-21.8" font-family="Times New Roman,serif" font-weight="bold" font-size="14.00">English</text>
<text text-anchor="start" x="182" y="-7.8" font-family="Times New Roman,serif" font-size="14.00" fill="red">decor</text>
</g>
<!-- decorF&#45;&gt;decor -->
<g id="edge14" class="edge">
<title>decorF&#45;&gt;decor</title>
<path fill="none" stroke="black" stroke-dasharray="1,5" d="M198.5,-98.65C198.5,-87.76 198.5,-73.36 198.5,-60.25"/>
<polygon fill="black" stroke="black" points="202,-60.1 198.5,-50.1 195,-60.1 202,-60.1"/>
</g>
<!-- digneteOF -->
<g id="node17" class="node">
<title>digneteOF</title>
<text text-anchor="start" x="500.5" y="-383.8" font-family="Times New Roman,serif" font-weight="bold" font-size="14.00">Old French</text>
<text text-anchor="start" x="515.5" y="-369.8" font-family="Times New Roman,serif" font-size="14.00" fill="red">digneté</text>
</g>
<!-- dignitas&#45;&gt;digneteOF -->
<g id="edge16" class="edge">
<title>dignitas&#45;&gt;digneteOF</title>
<path fill="none" stroke="black" stroke-dasharray="1,5" d="M495.82,-444.8C502.81,-433.56 511.88,-418.97 519.59,-406.58"/>
<polygon fill="black" stroke="black" points="522.6,-408.37 524.91,-398.03 516.66,-404.67 522.6,-408.37"/>
</g>
<!-- daintieOF -->
<g id="node24" class="node">
<title>daintieOF</title>
<text text-anchor="start" x="396.5" y="-389.8" font-family="Times New Roman,serif" font-weight="bold" font-size="14.00">Old French</text>
<text text-anchor="start" x="413" y="-375.8" font-family="Times New Roman,serif" font-size="14.00" fill="red">daintie</text>
<text text-anchor="start" x="419.5" y="-363.4" font-family="Times New Roman,serif" font-size="12.00">value</text>
</g>
<!-- dignitas&#45;&gt;daintieOF -->
<g id="edge23" class="edge">
<title>dignitas&#45;&gt;daintieOF</title>
<path fill="none" stroke="black" d="M472.74,-444.8C466.63,-435.34 458.98,-423.52 451.94,-412.62"/>
<polygon fill="black" stroke="black" points="454.83,-410.64 446.46,-404.15 448.95,-414.44 454.83,-410.64"/>
</g>
<!-- digneteME -->
<g id="node18" class="node">
<title>digneteME</title>
<text text-anchor="start" x="515" y="-219.8" font-family="Times New Roman,serif" font-weight="bold" font-size="14.00">Middle</text>
<text text-anchor="start" x="513.5" y="-205.8" font-family="Times New Roman,serif" font-weight="bold" font-size="14.00">English</text>
<text text-anchor="start" x="516.5" y="-191.8" font-family="Times New Roman,serif" font-size="14.00" fill="red">dignete</text>
</g>
<!-- digneteOF&#45;&gt;digneteME -->
<g id="edge17" class="edge">
<title>digneteOF&#45;&gt;digneteME</title>
<path fill="none" stroke="black" stroke-dasharray="1,5" d="M535.6,-361.87C535.76,-334.49 536.08,-280.34 536.29,-244.65"/>
<polygon fill="black" stroke="black" points="539.8,-244.24 536.36,-234.22 532.8,-244.2 539.8,-244.24"/>
</g>
<!-- dignity -->
<g id="node19" class="node">
<title>dignity</title>
<text text-anchor="start" x="513" y="-35.8" font-family="Times New Roman,serif" font-weight="bold" font-size="14.00">Modern</text>
<text text-anchor="start" x="514.5" y="-21.8" font-family="Times New Roman,serif" font-weight="bold" font-size="14.00">English</text>
<text text-anchor="start" x="518.5" y="-7.8" font-family="Times New Roman,serif" font-size="14.00" fill="red">dignity</text>
</g>
<!-- digneteME&#45;&gt;dignity -->
<g id="edge18" class="edge">
<title>digneteME&#45;&gt;dignity</title>
<path fill="none" stroke="black" d="M536.63,-183.83C536.81,-152.15 537.11,-96.38 537.31,-60.33"/>
<polygon fill="black" stroke="black" points="540.81,-60.29 537.37,-50.27 533.81,-60.25 540.81,-60.29"/>
</g>
<!-- dignifierMF -->
<g id="node21" class="node">
<title>dignifierMF</title>
<text text-anchor="start" x="330" y="-305.8" font-family="Times New Roman,serif" font-weight="bold" font-size="14.00">Middle</text>
<text text-anchor="start" x="329.5" y="-291.8" font-family="Times New Roman,serif" font-weight="bold" font-size="14.00">French</text>
<text text-anchor="start" x="328.5" y="-277.8" font-family="Times New Roman,serif" font-size="14.00" fill="red">dignifier</text>
</g>
<!-- dignificare&#45;&gt;dignifierMF -->
<g id="edge20" class="edge">
<title>dignificare&#45;&gt;dignifierMF</title>
<path fill="none" stroke="black" d="M382.89,-445.76C377.18,-418.53 365.97,-365.06 358.61,-329.93"/>
<polygon fill="black" stroke="black" points="362.03,-329.18 356.55,-320.11 355.18,-330.62 362.03,-329.18"/>
</g>
<!-- dignifienME -->
<g id="node22" class="node">
<title>dignifienME</title>
<text text-anchor="start" x="335" y="-219.8" font-family="Times New Roman,serif" font-weight="bold" font-size="14.00">Middle</text>
<text text-anchor="start" x="333.5" y="-205.8" font-family="Times New Roman,serif" font-weight="bold" font-size="14.00">English</text>
<text text-anchor="start" x="332.5" y="-191.8" font-family="Times New Roman,serif" font-size="14.00" fill="red">dignifien</text>
</g>
<!-- dignifierMF&#45;&gt;dignifienME -->
<g id="edge21" class="edge">
<title>dignifierMF&#45;&gt;dignifienME</title>
<path fill="none" stroke="black" stroke-dasharray="1,5" d="M352.95,-269.7C353.42,-261.78 353.95,-252.83 354.46,-244.31"/>
<polygon fill="black" stroke="black" points="357.96,-244.43 355.06,-234.24 350.97,-244.02 357.96,-244.43"/>
</g>
<!-- dignify -->
<g id="node23" class="node">
<title>dignify</title>
<text text-anchor="start" x="342" y="-35.8" font-family="Times New Roman,serif" font-weight="bold" font-size="14.00">Modern</text>
<text text-anchor="start" x="343.5" y="-21.8" font-family="Times New Roman,serif" font-weight="bold" font-size="14.00">English</text>
<text text-anchor="start" x="347" y="-7.8" font-family="Times New Roman,serif" font-size="14.00" fill="red">dignify</text>
</g>
<!-- dignifienME&#45;&gt;dignify -->
<g id="edge22" class="edge">
<title>dignifienME&#45;&gt;dignify</title>
<path fill="none" stroke="black" d="M357.83,-183.83C359.57,-152.15 362.63,-96.38 364.61,-60.33"/>
<polygon fill="black" stroke="black" points="368.11,-60.45 365.17,-50.27 361.12,-60.06 368.11,-60.45"/>
</g>
<!-- dainteAN -->
<g id="node25" class="node">
<title>dainteAN</title>
<text text-anchor="start" x="409" y="-298.8" font-family="Times New Roman,serif" font-weight="bold" font-size="14.00">Anglo&#45;Norman</text>
<text text-anchor="start" x="417.5" y="-284.8" font-family="Times New Roman,serif" font-size="14.00" fill="red">dainte, deinte</text>
</g>
<!-- daintieOF&#45;&gt;dainteAN -->
<g id="edge24" class="edge">
<title>daintieOF&#45;&gt;dainteAN</title>
<path fill="none" stroke="black" d="M437.91,-355.88C440.75,-345.63 444.11,-333.5 447.06,-322.85"/>
<polygon fill="black" stroke="black" points="450.43,-323.78 449.73,-313.21 443.69,-321.91 450.43,-323.78"/>
</g>
<!-- deinteME -->
<g id="node26" class="node">
<title>deinteME</title>
<text text-anchor="start" x="433" y="-133.8" font-family="Times New Roman,serif" font-weight="bold" font-size="14.00">Middle</text>
<text text-anchor="start" x="431.5" y="-119.8" font-family="Times New Roman,serif" font-weight="bold" font-size="14.00">English</text>
<text text-anchor="start" x="437.5" y="-105.8" font-family="Times New Roman,serif" font-size="14.00" fill="red">deinte</text>
<text text-anchor="start" x="436" y="-93.4" font-family="Times New Roman,serif" font-size="12.00">pleasing</text>
</g>
<!-- dainteAN&#45;&gt;deinteME -->
<g id="edge25" class="edge">
<title>dainteAN&#45;&gt;deinteME</title>
<path fill="none" stroke="black" stroke-dasharray="1,5" d="M454.5,-276.8C454.5,-249.53 454.5,-195.61 454.5,-158.21"/>
<polygon fill="black" stroke="black" points="458,-158.14 454.5,-148.14 451,-158.14 458,-158.14"/>
</g>
<!-- dainty -->
<g id="node27" class="node">
<title>dainty</title>
<text text-anchor="start" x="430" y="-35.8" font-family="Times New Roman,serif" font-weight="bold" font-size="14.00">Modern</text>
<text text-anchor="start" x="431.5" y="-21.8" font-family="Times New Roman,serif" font-weight="bold" font-size="14.00">English</text>
<text text-anchor="start" x="437.5" y="-7.8" font-family="Times New Roman,serif" font-size="14.00" fill="red">dainty</text>
</g>
<!-- deinteME&#45;&gt;dainty -->
<g id="edge26" class="edge">
<title>deinteME&#45;&gt;dainty</title>
<path fill="none" stroke="black" d="M454.5,-85.53C454.5,-77.43 454.5,-68.62 454.5,-60.32"/>
<polygon fill="black" stroke="black" points="458,-60.18 454.5,-50.18 451,-60.18 458,-60.18"/>
</g>
<!-- indignatioL -->
<g id="node29" class="node">
<title>indignatioL</title>
<text text-anchor="start" x="712.5" y="-298.8" font-family="Times New Roman,serif" font-size="14.00" fill="red">indignātiō,</text>
<text text-anchor="start" x="708.5" y="-283.8" font-family="Times New Roman,serif" font-size="14.00" fill="red">indignātiōn&#45;</text>
</g>
<!-- indignariL&#45;&gt;indignatioL -->
<g id="edge28" class="edge">
<title>indignariL&#45;&gt;indignatioL</title>
<path fill="none" stroke="black" d="M706.81,-440.82C714.02,-410.72 726.91,-356.92 734.78,-324.05"/>
<polygon fill="black" stroke="black" points="738.22,-324.71 737.15,-314.16 731.42,-323.07 738.22,-324.71"/>
</g>
<!-- indignaciounME -->
<g id="node30" class="node">
<title>indignaciounME</title>
<text text-anchor="start" x="730" y="-219.8" font-family="Times New Roman,serif" font-weight="bold" font-size="14.00">Middle</text>
<text text-anchor="start" x="728.5" y="-205.8" font-family="Times New Roman,serif" font-weight="bold" font-size="14.00">English</text>
<text text-anchor="start" x="716" y="-191.8" font-family="Times New Roman,serif" font-size="14.00" fill="red">indignacioun</text>
</g>
<!-- indignatioL&#45;&gt;indignaciounME -->
<g id="edge29" class="edge">
<title>indignatioL&#45;&gt;indignaciounME</title>
<path fill="none" stroke="black" stroke-dasharray="1,5" d="M743.67,-275.77C744.77,-266.56 746.13,-255.07 747.42,-244.28"/>
<polygon fill="black" stroke="black" points="750.91,-244.59 748.61,-234.25 743.96,-243.77 750.91,-244.59"/>
</g>
<!-- indignation -->
<g id="node31" class="node">
<title>indignation</title>
<text text-anchor="start" x="727" y="-35.8" font-family="Times New Roman,serif" font-weight="bold" font-size="14.00">Modern</text>
<text text-anchor="start" x="728.5" y="-21.8" font-family="Times New Roman,serif" font-weight="bold" font-size="14.00">English</text>
<text text-anchor="start" x="721" y="-7.8" font-family="Times New Roman,serif" font-size="14.00" fill="red">indignation</text>
</g>
<!-- indignaciounME&#45;&gt;indignation -->
<g id="edge30" class="edge">
<title>indignaciounME&#45;&gt;indignation</title>
<path fill="none" stroke="black" d="M751.5,-183.83C751.5,-152.15 751.5,-96.38 751.5,-60.33"/>
<polygon fill="black" stroke="black" points="755,-60.27 751.5,-50.27 748,-60.27 755,-60.27"/>
</g>
<!-- neIE -->
<g id="node32" class="node">
<title>neIE</title>
<g id="a_node32"><a xlink:href="ne-not.svg" xlink:title="&lt;b&gt;Indo&#45;&lt;br/&gt;European&lt;/b&gt;&lt;br/&gt;&lt;font color=&quot;red&quot;&gt;ne&lt;/font&gt;&lt;br/&gt;&lt;font point&#45;size=&quot;12&quot;&gt;not&lt;/font&gt;">
<path fill="none" stroke="black" stroke-dasharray="5,2" d="M728,-696C728,-696 675,-696 675,-696 669,-696 663,-690 663,-684 663,-684 663,-646 663,-646 663,-640 669,-634 675,-634 675,-634 728,-634 728,-634 734,-634 740,-640 740,-646 740,-646 740,-684 740,-684 740,-690 734,-696 728,-696"/>
<text text-anchor="start" x="685" y="-681.8" font-family="Times New Roman,serif" font-weight="bold" font-size="14.00">Indo&#45;</text>
<text text-anchor="start" x="671" y="-667.8" font-family="Times New Roman,serif" font-weight="bold" font-size="14.00">European</text>
<text text-anchor="start" x="695" y="-653.8" font-family="Times New Roman,serif" font-size="14.00" fill="red">ne</text>
<text text-anchor="start" x="694" y="-641.4" font-family="Times New Roman,serif" font-size="12.00">not</text>
</a>
</g>
</g>
<!-- inL -->
<g id="node33" class="node">
<title>inL</title>
<text text-anchor="start" x="685" y="-564.8" font-family="Times New Roman,serif" font-weight="bold" font-size="14.00">Latin</text>
<text text-anchor="start" x="694" y="-550.8" font-family="Times New Roman,serif" font-size="14.00" fill="red">in&#45;</text>
</g>
<!-- neIE&#45;&gt;inL -->
<g id="edge31" class="edge">
<title>neIE&#45;&gt;inL</title>
<path fill="none" stroke="black" d="M701.5,-633.95C701.5,-619.85 701.5,-603.17 701.5,-589.42"/>
<polygon fill="black" stroke="black" points="705,-589.13 701.5,-579.13 698,-589.13 705,-589.13"/>
</g>
<!-- inL&#45;&gt;indignariL -->
<g id="edge32" class="edge">
<title>inL&#45;&gt;indignariL</title>
<path fill="none" stroke="black" d="M697.95,-542.94C695.03,-528.96 691.01,-509.67 688.6,-498.06"/>
<polygon fill="black" stroke="black" points="691.97,-497.08 686.5,-488 685.11,-498.5 691.97,-497.08"/>
</g>
<!-- deignierOF -->
<g id="node35" class="node">
<title>deignierOF</title>
<text text-anchor="start" x="604.5" y="-383.8" font-family="Times New Roman,serif" font-weight="bold" font-size="14.00">Old French</text>
<text text-anchor="start" x="617.5" y="-369.8" font-family="Times New Roman,serif" font-size="14.00" fill="red">deignier</text>
</g>
<!-- dignariL&#45;&gt;deignierOF -->
<g id="edge34" class="edge">
<title>dignariL&#45;&gt;deignierOF</title>
<path fill="none" stroke="black" d="M594.59,-445.61C602.5,-434.23 612.97,-419.16 621.82,-406.44"/>
<polygon fill="black" stroke="black" points="624.79,-408.29 627.62,-398.08 619.04,-404.3 624.79,-408.29"/>
</g>
<!-- deignenME -->
<g id="node36" class="node">
<title>deignenME</title>
<text text-anchor="start" x="617" y="-219.8" font-family="Times New Roman,serif" font-weight="bold" font-size="14.00">Middle</text>
<text text-anchor="start" x="615.5" y="-205.8" font-family="Times New Roman,serif" font-weight="bold" font-size="14.00">English</text>
<text text-anchor="start" x="595" y="-191.8" font-family="Times New Roman,serif" font-size="14.00" fill="red">deignen, deinen</text>
</g>
<!-- deignierOF&#45;&gt;deignenME -->
<g id="edge35" class="edge">
<title>deignierOF&#45;&gt;deignenME</title>
<path fill="none" stroke="black" stroke-dasharray="1,5" d="M639.4,-361.87C639.24,-334.49 638.92,-280.34 638.71,-244.65"/>
<polygon fill="black" stroke="black" points="642.2,-244.2 638.64,-234.22 635.2,-244.24 642.2,-244.2"/>
</g>
<!-- deign -->
<g id="node37" class="node">
<title>deign</title>
<text text-anchor="start" x="614" y="-35.8" font-family="Times New Roman,serif" font-weight="bold" font-size="14.00">Modern</text>
<text text-anchor="start" x="615.5" y="-21.8" font-family="Times New Roman,serif" font-weight="bold" font-size="14.00">English</text>
<text text-anchor="start" x="623" y="-7.8" font-family="Times New Roman,serif" font-size="14.00" fill="red">deign</text>
</g>
<!-- deignenME&#45;&gt;deign -->
<g id="edge36" class="edge">
<title>deignenME&#45;&gt;deign</title>
<path fill="none" stroke="black" d="M638.5,-183.83C638.5,-152.15 638.5,-96.38 638.5,-60.33"/>
<polygon fill="black" stroke="black" points="642,-60.27 638.5,-50.27 635,-60.27 642,-60.27"/>
</g>
</g>
</svg>
