<?xml version="1.0" encoding="UTF-8" standalone="no"?>
<!DOCTYPE svg PUBLIC "-//W3C//DTD SVG 1.1//EN"
 "http://www.w3.org/Graphics/SVG/1.1/DTD/svg11.dtd">
<!-- Generated by graphviz version 2.49.0 (20210828.1703)
 -->
<!-- Pages: 1 -->
<svg width="1581pt" height="528pt"
 viewBox="0.00 0.00 1581.00 528.00" xmlns="http://www.w3.org/2000/svg" xmlns:xlink="http://www.w3.org/1999/xlink">
<g id="graph0" class="graph" transform="scale(1 1) rotate(0) translate(4 524)">
<polygon fill="white" stroke="transparent" points="-4,4 -4,-524 1577,-524 1577,4 -4,4"/>
<!-- dominusL -->
<g id="node1" class="node">
<title>dominusL</title>
<g id="a_node1"><a xlink:href="dom-build0.svg" xlink:title="&lt;font color=&quot;red&quot;&gt;dominus&lt;/font&gt;&lt;br/&gt;&lt;font point&#45;size=&quot;12&quot;&gt;lord, master&lt;/font&gt;">
<path fill="none" stroke="black" stroke-dasharray="5,2" d="M528,-520C528,-520 481,-520 481,-520 475,-520 469,-514 469,-508 469,-508 469,-496 469,-496 469,-490 475,-484 481,-484 481,-484 528,-484 528,-484 534,-484 540,-490 540,-496 540,-496 540,-508 540,-508 540,-514 534,-520 528,-520"/>
<text text-anchor="start" x="480" y="-504.8" font-family="Times New Roman,serif" font-size="14.00" fill="red">dominus</text>
<text text-anchor="start" x="477" y="-492.4" font-family="Times New Roman,serif" font-size="12.00">lord, master</text>
</a>
</g>
</g>
<!-- dominiumL -->
<g id="node2" class="node">
<title>dominiumL</title>
<text text-anchor="start" x="113.5" y="-425.8" font-family="Times New Roman,serif" font-size="14.00" fill="red">dominium</text>
<text text-anchor="start" x="121.5" y="-413.4" font-family="Times New Roman,serif" font-size="12.00">property</text>
</g>
<!-- dominusL&#45;&gt;dominiumL -->
<g id="edge1" class="edge">
<title>dominusL&#45;&gt;dominiumL</title>
<path fill="none" stroke="black" d="M468.85,-495.86C414.29,-487.68 306.98,-470.3 217.5,-448 207.63,-445.54 197.17,-442.52 187.26,-439.45"/>
<polygon fill="black" stroke="black" points="188.17,-436.07 177.58,-436.39 186.06,-442.74 188.17,-436.07"/>
</g>
<!-- dominic -->
<g id="node9" class="node">
<title>dominic</title>
<text text-anchor="start" x="207" y="-77.8" font-family="Times New Roman,serif" font-weight="bold" font-size="14.00">Modern</text>
<text text-anchor="start" x="208.5" y="-63.8" font-family="Times New Roman,serif" font-weight="bold" font-size="14.00">English</text>
<text text-anchor="start" x="207.5" y="-49.8" font-family="Times New Roman,serif" font-size="14.00" fill="red">Dominic</text>
<text text-anchor="start" x="183" y="-35.8" font-family="Times New Roman,serif" font-size="14.00" fill="red">Dominican Order</text>
<text text-anchor="start" x="204.5" y="-21.8" font-family="Times New Roman,serif" font-size="14.00" fill="red">Dominica</text>
<text text-anchor="start" x="174" y="-7.8" font-family="Times New Roman,serif" font-size="14.00" fill="red">Dominican Republic</text>
</g>
<!-- dominusL&#45;&gt;dominic -->
<g id="edge8" class="edge">
<title>dominusL&#45;&gt;dominic</title>
<path fill="none" stroke="black" d="M468.59,-496.55C412.38,-488.95 307.08,-471.93 278.5,-448 238.05,-414.13 231.5,-391.76 231.5,-339 231.5,-339 231.5,-339 231.5,-252 231.5,-201.31 231.5,-143.57 231.5,-102.31"/>
<polygon fill="black" stroke="black" points="235,-102.19 231.5,-92.19 228,-102.19 235,-102.19"/>
</g>
<!-- dominariL -->
<g id="node10" class="node">
<title>dominariL</title>
<text text-anchor="start" x="295.5" y="-425.8" font-family="Times New Roman,serif" font-size="14.00" fill="red">dominārī, domināt&#45;</text>
<text text-anchor="start" x="335" y="-413.4" font-family="Times New Roman,serif" font-size="12.00">to rule</text>
</g>
<!-- dominusL&#45;&gt;dominariL -->
<g id="edge9" class="edge">
<title>dominusL&#45;&gt;dominariL</title>
<path fill="none" stroke="black" d="M470.1,-483.91C447.32,-472.6 417.27,-457.66 392.86,-445.54"/>
<polygon fill="black" stroke="black" points="394.32,-442.36 383.8,-441.04 391.2,-448.62 394.32,-442.36"/>
</g>
<!-- dominoL -->
<g id="node16" class="node">
<title>dominoL</title>
<text text-anchor="start" x="438" y="-431.8" font-family="Times New Roman,serif" font-size="14.00" fill="red">(benedīcāmus) Dominō</text>
<text text-anchor="start" x="474" y="-419.4" font-family="Times New Roman,serif" font-size="12.00">(let us praise)</text>
<text text-anchor="start" x="484.5" y="-407.4" font-family="Times New Roman,serif" font-size="12.00">the Lord</text>
</g>
<!-- dominusL&#45;&gt;dominoL -->
<g id="edge14" class="edge">
<title>dominusL&#45;&gt;dominoL</title>
<path fill="none" stroke="black" d="M504.5,-483.91C504.5,-475.71 504.5,-465.61 504.5,-456.06"/>
<polygon fill="black" stroke="black" points="508,-456.02 504.5,-446.02 501,-456.02 508,-456.02"/>
</g>
<!-- dominaL -->
<g id="node20" class="node">
<title>dominaL</title>
<text text-anchor="start" x="654.5" y="-425.8" font-family="Times New Roman,serif" font-size="14.00" fill="red">domina</text>
<text text-anchor="start" x="649.5" y="-413.4" font-family="Times New Roman,serif" font-size="12.00">(fem. form)</text>
</g>
<!-- dominusL&#45;&gt;dominaL -->
<g id="edge19" class="edge">
<title>dominusL&#45;&gt;dominaL</title>
<path fill="none" stroke="black" d="M540.35,-484.86C567.1,-472.81 603.77,-456.3 632.16,-443.52"/>
<polygon fill="black" stroke="black" points="633.77,-446.63 641.45,-439.33 630.89,-440.25 633.77,-446.63"/>
</g>
<!-- donS -->
<g id="node21" class="node">
<title>donS</title>
<text text-anchor="start" x="896.5" y="-433.8" font-family="Times New Roman,serif" font-weight="bold" font-size="14.00">Spanish/</text>
<text text-anchor="start" x="902.5" y="-419.8" font-family="Times New Roman,serif" font-weight="bold" font-size="14.00">Italian</text>
<text text-anchor="start" x="910" y="-405.8" font-family="Times New Roman,serif" font-size="14.00" fill="red">Don</text>
</g>
<!-- dominusL&#45;&gt;donS -->
<g id="edge18" class="edge">
<title>dominusL&#45;&gt;donS</title>
<path fill="none" stroke="black" d="M540.15,-486.79C543.29,-485.77 546.43,-484.82 549.5,-484 666,-452.97 807.5,-435.56 878.04,-428.22"/>
<polygon fill="black" stroke="black" points="878.74,-431.67 888.33,-427.17 878.03,-424.7 878.74,-431.67"/>
</g>
<!-- domP -->
<g id="node25" class="node">
<title>domP</title>
<text text-anchor="start" x="1057.5" y="-426.8" font-family="Times New Roman,serif" font-weight="bold" font-size="14.00">Portuguese</text>
<text text-anchor="start" x="1078.5" y="-412.8" font-family="Times New Roman,serif" font-size="14.00" fill="red">Dom</text>
</g>
<!-- dominusL&#45;&gt;domP -->
<g id="edge23" class="edge">
<title>dominusL&#45;&gt;domP</title>
<path fill="none" stroke="black" d="M540.09,-486.54C543.24,-485.57 546.41,-484.7 549.5,-484 730.45,-442.82 781.65,-473.26 965.5,-448 989.89,-444.65 1016.69,-439.76 1039.37,-435.27"/>
<polygon fill="black" stroke="black" points="1040.36,-438.64 1049.47,-433.24 1038.98,-431.78 1040.36,-438.64"/>
</g>
<!-- demaineOF -->
<g id="node3" class="node">
<title>demaineOF</title>
<text text-anchor="start" x="80.5" y="-341.8" font-family="Times New Roman,serif" font-weight="bold" font-size="14.00">Old French</text>
<text text-anchor="start" x="65.5" y="-327.8" font-family="Times New Roman,serif" font-size="14.00" fill="red">demaine, demeine</text>
</g>
<!-- dominiumL&#45;&gt;demaineOF -->
<g id="edge2" class="edge">
<title>dominiumL&#45;&gt;demaineOF</title>
<path fill="none" stroke="black" d="M136.11,-404.8C132.59,-393.56 127.92,-378.65 123.92,-365.86"/>
<polygon fill="black" stroke="black" points="127.21,-364.67 120.88,-356.18 120.53,-366.76 127.21,-364.67"/>
</g>
<!-- domaineMF -->
<g id="node4" class="node">
<title>domaineMF</title>
<text text-anchor="start" x="23" y="-263.8" font-family="Times New Roman,serif" font-weight="bold" font-size="14.00">Middle</text>
<text text-anchor="start" x="22.5" y="-249.8" font-family="Times New Roman,serif" font-weight="bold" font-size="14.00">French</text>
<text text-anchor="start" x="20.5" y="-235.8" font-family="Times New Roman,serif" font-size="14.00" fill="red">domaine</text>
</g>
<!-- demaineOF&#45;&gt;domaineMF -->
<g id="edge3" class="edge">
<title>demaineOF&#45;&gt;domaineMF</title>
<path fill="none" stroke="black" d="M100.79,-319.8C92.41,-310 81.64,-297.41 71.76,-285.87"/>
<polygon fill="black" stroke="black" points="74.28,-283.42 65.12,-278.1 68.96,-287.97 74.28,-283.42"/>
</g>
<!-- demeyneME -->
<g id="node7" class="node">
<title>demeyneME</title>
<text text-anchor="start" x="94" y="-170.8" font-family="Times New Roman,serif" font-weight="bold" font-size="14.00">Middle</text>
<text text-anchor="start" x="92.5" y="-156.8" font-family="Times New Roman,serif" font-weight="bold" font-size="14.00">English</text>
<text text-anchor="start" x="90.5" y="-142.8" font-family="Times New Roman,serif" font-size="14.00" fill="red">demeyne</text>
</g>
<!-- demaineOF&#45;&gt;demeyneME -->
<g id="edge6" class="edge">
<title>demaineOF&#45;&gt;demeyneME</title>
<path fill="none" stroke="black" stroke-dasharray="1,5" d="M115.5,-319.8C115.5,-291.15 115.5,-233.09 115.5,-195.67"/>
<polygon fill="black" stroke="black" points="119,-195.24 115.5,-185.24 112,-195.24 119,-195.24"/>
</g>
<!-- domainME -->
<g id="node5" class="node">
<title>domainME</title>
<text text-anchor="start" x="12" y="-170.8" font-family="Times New Roman,serif" font-weight="bold" font-size="14.00">Middle</text>
<text text-anchor="start" x="10.5" y="-156.8" font-family="Times New Roman,serif" font-weight="bold" font-size="14.00">English</text>
<text text-anchor="start" x="12.5" y="-142.8" font-family="Times New Roman,serif" font-size="14.00" fill="red">domain</text>
</g>
<!-- domaineMF&#45;&gt;domainME -->
<g id="edge4" class="edge">
<title>domaineMF&#45;&gt;domainME</title>
<path fill="none" stroke="black" stroke-dasharray="1,5" d="M41.55,-227.61C40.35,-217.64 38.93,-205.93 37.63,-195.13"/>
<polygon fill="black" stroke="black" points="41.09,-194.65 36.42,-185.14 34.14,-195.49 41.09,-194.65"/>
</g>
<!-- domain -->
<g id="node6" class="node">
<title>domain</title>
<text text-anchor="start" x="8" y="-56.8" font-family="Times New Roman,serif" font-weight="bold" font-size="14.00">Modern</text>
<text text-anchor="start" x="9.5" y="-42.8" font-family="Times New Roman,serif" font-weight="bold" font-size="14.00">English</text>
<text text-anchor="start" x="11.5" y="-28.8" font-family="Times New Roman,serif" font-size="14.00" fill="red">domain</text>
</g>
<!-- domainME&#45;&gt;domain -->
<g id="edge5" class="edge">
<title>domainME&#45;&gt;domain</title>
<path fill="none" stroke="black" d="M33.29,-134.97C33.15,-119.43 32.96,-98.95 32.81,-81.65"/>
<polygon fill="black" stroke="black" points="36.31,-81.34 32.72,-71.37 29.31,-81.4 36.31,-81.34"/>
</g>
<!-- demesne -->
<g id="node8" class="node">
<title>demesne</title>
<text text-anchor="start" x="91" y="-56.8" font-family="Times New Roman,serif" font-weight="bold" font-size="14.00">Modern</text>
<text text-anchor="start" x="92.5" y="-42.8" font-family="Times New Roman,serif" font-weight="bold" font-size="14.00">English</text>
<text text-anchor="start" x="91" y="-28.8" font-family="Times New Roman,serif" font-size="14.00" fill="red">demesne</text>
</g>
<!-- demeyneME&#45;&gt;demesne -->
<g id="edge7" class="edge">
<title>demeyneME&#45;&gt;demesne</title>
<path fill="none" stroke="black" d="M115.5,-134.97C115.5,-119.43 115.5,-98.95 115.5,-81.65"/>
<polygon fill="black" stroke="black" points="119,-81.37 115.5,-71.37 112,-81.37 119,-81.37"/>
</g>
<!-- dominate -->
<g id="node11" class="node">
<title>dominate</title>
<text text-anchor="start" x="325" y="-56.8" font-family="Times New Roman,serif" font-weight="bold" font-size="14.00">Modern</text>
<text text-anchor="start" x="326.5" y="-42.8" font-family="Times New Roman,serif" font-weight="bold" font-size="14.00">English</text>
<text text-anchor="start" x="323.5" y="-28.8" font-family="Times New Roman,serif" font-size="14.00" fill="red">dominate</text>
</g>
<!-- dominariL&#45;&gt;dominate -->
<g id="edge10" class="edge">
<title>dominariL&#45;&gt;dominate</title>
<path fill="none" stroke="black" stroke-dasharray="1,5" d="M349.5,-404.91C349.5,-347.3 349.5,-159.44 349.5,-81.44"/>
<polygon fill="black" stroke="black" points="353,-81.18 349.5,-71.18 346,-81.18 353,-81.18"/>
</g>
<!-- dominerF -->
<g id="node12" class="node">
<title>dominerF</title>
<text text-anchor="start" x="1235.5" y="-256.8" font-family="Times New Roman,serif" font-weight="bold" font-size="14.00">French</text>
<text text-anchor="start" x="1234.5" y="-242.8" font-family="Times New Roman,serif" font-size="14.00" fill="red">dominer</text>
</g>
<!-- dominerenD -->
<g id="node13" class="node">
<title>dominerenD</title>
<text text-anchor="start" x="1239" y="-163.8" font-family="Times New Roman,serif" font-weight="bold" font-size="14.00">Dutch</text>
<text text-anchor="start" x="1228" y="-149.8" font-family="Times New Roman,serif" font-size="14.00" fill="red">domineren</text>
</g>
<!-- dominerF&#45;&gt;dominerenD -->
<g id="edge12" class="edge">
<title>dominerF&#45;&gt;dominerenD</title>
<path fill="none" stroke="black" d="M1257.5,-234.88C1257.5,-221.79 1257.5,-203.48 1257.5,-188.36"/>
<polygon fill="black" stroke="black" points="1261,-188.04 1257.5,-178.04 1254,-188.04 1261,-188.04"/>
</g>
<!-- domineer -->
<g id="node14" class="node">
<title>domineer</title>
<text text-anchor="start" x="1233" y="-56.8" font-family="Times New Roman,serif" font-weight="bold" font-size="14.00">Modern</text>
<text text-anchor="start" x="1234.5" y="-42.8" font-family="Times New Roman,serif" font-weight="bold" font-size="14.00">English</text>
<text text-anchor="start" x="1231.5" y="-28.8" font-family="Times New Roman,serif" font-size="14.00" fill="red">domineer</text>
</g>
<!-- dominerenD&#45;&gt;domineer -->
<g id="edge13" class="edge">
<title>dominerenD&#45;&gt;domineer</title>
<path fill="none" stroke="black" d="M1257.5,-141.99C1257.5,-125.94 1257.5,-101.41 1257.5,-81.29"/>
<polygon fill="black" stroke="black" points="1261,-81.25 1257.5,-71.25 1254,-81.25 1261,-81.25"/>
</g>
<!-- dominari -->
<g id="node15" class="node">
<title>dominari</title>
<text text-anchor="middle" x="1257.5" y="-334.3" font-family="Times New Roman,serif" font-size="14.00">dominari</text>
</g>
<!-- dominari&#45;&gt;dominerF -->
<g id="edge11" class="edge">
<title>dominari&#45;&gt;dominerF</title>
<path fill="none" stroke="black" d="M1257.5,-319.8C1257.5,-308.67 1257.5,-293.94 1257.5,-281.24"/>
<polygon fill="black" stroke="black" points="1261,-281.18 1257.5,-271.18 1254,-281.18 1261,-281.18"/>
</g>
<!-- dominoF -->
<g id="node17" class="node">
<title>dominoF</title>
<text text-anchor="start" x="466.5" y="-347.8" font-family="Times New Roman,serif" font-weight="bold" font-size="14.00">French</text>
<text text-anchor="start" x="467" y="-333.8" font-family="Times New Roman,serif" font-size="14.00" fill="red">domino</text>
<text text-anchor="start" x="440.5" y="-321.4" font-family="Times New Roman,serif" font-size="12.00">masquerade costume</text>
</g>
<!-- dominoL&#45;&gt;dominoF -->
<g id="edge15" class="edge">
<title>dominoL&#45;&gt;dominoF</title>
<path fill="none" stroke="black" d="M500.21,-399.76C498.58,-391.31 496.69,-381.51 494.91,-372.26"/>
<polygon fill="black" stroke="black" points="498.3,-371.33 492.97,-362.17 491.42,-372.66 498.3,-371.33"/>
</g>
<!-- domino1 -->
<g id="node18" class="node">
<title>domino1</title>
<text text-anchor="start" x="418" y="-62.8" font-family="Times New Roman,serif" font-weight="bold" font-size="14.00">Modern</text>
<text text-anchor="start" x="419.5" y="-48.8" font-family="Times New Roman,serif" font-weight="bold" font-size="14.00">English</text>
<text text-anchor="start" x="421" y="-34.8" font-family="Times New Roman,serif" font-size="14.00" fill="red">domino</text>
<text text-anchor="start" x="410" y="-22.4" font-family="Times New Roman,serif" font-size="12.00">costume/mask</text>
</g>
<!-- dominoF&#45;&gt;domino1 -->
<g id="edge16" class="edge">
<title>dominoF&#45;&gt;domino1</title>
<path fill="none" stroke="black" stroke-dasharray="1,5" d="M484.81,-313.76C476.99,-264.46 458.66,-148.9 448.89,-87.31"/>
<polygon fill="black" stroke="black" points="452.31,-86.51 447.29,-77.18 445.4,-87.61 452.31,-86.51"/>
</g>
<!-- domino2 -->
<g id="node19" class="node">
<title>domino2</title>
<text text-anchor="start" x="511" y="-62.8" font-family="Times New Roman,serif" font-weight="bold" font-size="14.00">Modern</text>
<text text-anchor="start" x="512.5" y="-48.8" font-family="Times New Roman,serif" font-weight="bold" font-size="14.00">English</text>
<text text-anchor="start" x="514" y="-34.8" font-family="Times New Roman,serif" font-size="14.00" fill="red">domino</text>
<text text-anchor="start" x="509.5" y="-22.4" font-family="Times New Roman,serif" font-size="12.00">game piece</text>
</g>
<!-- domino1&#45;&gt;domino2 -->
<g id="edge17" class="edge">
<title>domino1&#45;&gt;domino2</title>
<path fill="none" stroke="black" d="M483.19,-46C485.81,-46 488.43,-46 491.05,-46"/>
<polygon fill="black" stroke="black" points="491.17,-49.5 501.17,-46 491.17,-42.5 491.17,-49.5"/>
</g>
<!-- donyaS -->
<g id="node22" class="node">
<title>donyaS</title>
<text text-anchor="start" x="608" y="-163.8" font-family="Times New Roman,serif" font-weight="bold" font-size="14.00">Spanish</text>
<text text-anchor="start" x="617" y="-149.8" font-family="Times New Roman,serif" font-size="14.00" fill="red">Doña</text>
</g>
<!-- dominaL&#45;&gt;donyaS -->
<g id="edge20" class="edge">
<title>dominaL&#45;&gt;donyaS</title>
<path fill="none" stroke="black" d="M672.68,-404.88C665.39,-360.63 645.88,-242.22 637.01,-188.36"/>
<polygon fill="black" stroke="black" points="640.41,-187.49 635.33,-178.19 633.5,-188.62 640.41,-187.49"/>
</g>
<!-- dameOF -->
<g id="node27" class="node">
<title>dameOF</title>
<text text-anchor="start" x="683.5" y="-341.8" font-family="Times New Roman,serif" font-weight="bold" font-size="14.00">Old French</text>
<text text-anchor="start" x="703" y="-327.8" font-family="Times New Roman,serif" font-size="14.00" fill="red">dame</text>
</g>
<!-- dominaL&#45;&gt;dameOF -->
<g id="edge25" class="edge">
<title>dominaL&#45;&gt;dameOF</title>
<path fill="none" stroke="black" d="M684.41,-404.8C690.35,-393.34 698.27,-378.06 704.97,-365.11"/>
<polygon fill="black" stroke="black" points="708.11,-366.66 709.6,-356.18 701.89,-363.44 708.11,-366.66"/>
</g>
<!-- dominicella -->
<g id="node39" class="node">
<title>dominicella</title>
<text text-anchor="middle" x="858.5" y="-334.3" font-family="Times New Roman,serif" font-size="14.00">dominicella</text>
</g>
<!-- dominaL&#45;&gt;dominicella -->
<g id="edge33" class="edge">
<title>dominaL&#45;&gt;dominicella</title>
<path fill="none" stroke="black" d="M709.92,-406.39C738.54,-393.41 779.56,-374.8 811.25,-360.43"/>
<polygon fill="black" stroke="black" points="813.1,-363.43 820.76,-356.12 810.21,-357.06 813.1,-363.43"/>
</g>
<!-- don -->
<g id="node23" class="node">
<title>don</title>
<text text-anchor="start" x="1015" y="-63.8" font-family="Times New Roman,serif" font-weight="bold" font-size="14.00">Modern</text>
<text text-anchor="start" x="1016.5" y="-49.8" font-family="Times New Roman,serif" font-weight="bold" font-size="14.00">English</text>
<text text-anchor="start" x="1010.5" y="-35.8" font-family="Times New Roman,serif" font-size="14.00" fill="red">Don ____</text>
<text text-anchor="start" x="977.5" y="-21.8" font-family="Times New Roman,serif" font-size="14.00" fill="red">(college or mafia) don</text>
</g>
<!-- donS&#45;&gt;don -->
<g id="edge21" class="edge">
<title>donS&#45;&gt;don</title>
<path fill="none" stroke="black" stroke-dasharray="1,5" d="M930,-397.97C949.55,-335.32 1002.25,-166.39 1026.71,-87.99"/>
<polygon fill="black" stroke="black" points="1030.19,-88.59 1029.83,-78 1023.51,-86.5 1030.19,-88.59"/>
</g>
<!-- donya -->
<g id="node24" class="node">
<title>donya</title>
<text text-anchor="start" x="603" y="-56.8" font-family="Times New Roman,serif" font-weight="bold" font-size="14.00">Modern</text>
<text text-anchor="start" x="604.5" y="-42.8" font-family="Times New Roman,serif" font-weight="bold" font-size="14.00">English</text>
<text text-anchor="start" x="595.5" y="-28.8" font-family="Times New Roman,serif" font-size="14.00" fill="red">Doña ____</text>
</g>
<!-- donyaS&#45;&gt;donya -->
<g id="edge22" class="edge">
<title>donyaS&#45;&gt;donya</title>
<path fill="none" stroke="black" stroke-dasharray="1,5" d="M631.74,-141.99C631.02,-125.94 629.93,-101.41 629.03,-81.29"/>
<polygon fill="black" stroke="black" points="632.53,-81.08 628.58,-71.25 625.53,-81.39 632.53,-81.08"/>
</g>
<!-- dom -->
<g id="node26" class="node">
<title>dom</title>
<text text-anchor="start" x="1142" y="-56.8" font-family="Times New Roman,serif" font-weight="bold" font-size="14.00">Modern</text>
<text text-anchor="start" x="1143.5" y="-42.8" font-family="Times New Roman,serif" font-weight="bold" font-size="14.00">English</text>
<text text-anchor="start" x="1135.5" y="-28.8" font-family="Times New Roman,serif" font-size="14.00" fill="red">Dom ____</text>
</g>
<!-- domP&#45;&gt;dom -->
<g id="edge24" class="edge">
<title>domP&#45;&gt;dom</title>
<path fill="none" stroke="black" stroke-dasharray="1,5" d="M1095.87,-404.91C1107.24,-347.3 1144.31,-159.44 1159.7,-81.44"/>
<polygon fill="black" stroke="black" points="1163.23,-81.67 1161.73,-71.18 1156.36,-80.32 1163.23,-81.67"/>
</g>
<!-- dameME -->
<g id="node28" class="node">
<title>dameME</title>
<text text-anchor="start" x="697" y="-263.8" font-family="Times New Roman,serif" font-weight="bold" font-size="14.00">Middle</text>
<text text-anchor="start" x="695.5" y="-249.8" font-family="Times New Roman,serif" font-weight="bold" font-size="14.00">English</text>
<text text-anchor="start" x="703" y="-235.8" font-family="Times New Roman,serif" font-size="14.00" fill="red">dame</text>
</g>
<!-- dameOF&#45;&gt;dameME -->
<g id="edge26" class="edge">
<title>dameOF&#45;&gt;dameME</title>
<path fill="none" stroke="black" stroke-dasharray="1,5" d="M718.5,-319.8C718.5,-310.66 718.5,-299.09 718.5,-288.22"/>
<polygon fill="black" stroke="black" points="722,-288.1 718.5,-278.1 715,-288.1 722,-288.1"/>
</g>
<!-- madameOF -->
<g id="node30" class="node">
<title>madameOF</title>
<text text-anchor="start" x="778" y="-255.8" font-family="Times New Roman,serif" font-size="14.00" fill="red">ma dame</text>
<text text-anchor="start" x="785.5" y="-243.4" font-family="Times New Roman,serif" font-size="12.00">my lady</text>
</g>
<!-- dameOF&#45;&gt;madameOF -->
<g id="edge28" class="edge">
<title>dameOF&#45;&gt;madameOF</title>
<path fill="none" stroke="black" d="M736.11,-319.8C748.42,-307.78 765.03,-291.57 778.68,-278.24"/>
<polygon fill="black" stroke="black" points="781.2,-280.67 785.91,-271.18 776.31,-275.66 781.2,-280.67"/>
</g>
<!-- dame -->
<g id="node29" class="node">
<title>dame</title>
<text text-anchor="start" x="694" y="-56.8" font-family="Times New Roman,serif" font-weight="bold" font-size="14.00">Modern</text>
<text text-anchor="start" x="695.5" y="-42.8" font-family="Times New Roman,serif" font-weight="bold" font-size="14.00">English</text>
<text text-anchor="start" x="703" y="-28.8" font-family="Times New Roman,serif" font-size="14.00" fill="red">dame</text>
</g>
<!-- dameME&#45;&gt;dame -->
<g id="edge27" class="edge">
<title>dameME&#45;&gt;dame</title>
<path fill="none" stroke="black" d="M718.5,-227.68C718.5,-191.38 718.5,-122.89 718.5,-81.46"/>
<polygon fill="black" stroke="black" points="722,-81.29 718.5,-71.29 715,-81.29 722,-81.29"/>
</g>
<!-- madameF -->
<g id="node31" class="node">
<title>madameF</title>
<text text-anchor="start" x="783.5" y="-170.8" font-family="Times New Roman,serif" font-weight="bold" font-size="14.00">French</text>
<text text-anchor="start" x="781" y="-156.8" font-family="Times New Roman,serif" font-size="14.00" fill="red">Madame</text>
<text text-anchor="start" x="761.5" y="-142.8" font-family="Times New Roman,serif" font-size="14.00" fill="red">(pl.) Mesdames</text>
</g>
<!-- madameOF&#45;&gt;madameF -->
<g id="edge29" class="edge">
<title>madameOF&#45;&gt;madameF</title>
<path fill="none" stroke="black" d="M803.88,-234.88C804.12,-223.83 804.44,-209.06 804.74,-195.64"/>
<polygon fill="black" stroke="black" points="808.25,-195.33 804.97,-185.25 801.25,-195.17 808.25,-195.33"/>
</g>
<!-- madameME -->
<g id="node33" class="node">
<title>madameME</title>
<text text-anchor="start" x="890" y="-170.8" font-family="Times New Roman,serif" font-weight="bold" font-size="14.00">Middle</text>
<text text-anchor="start" x="888.5" y="-156.8" font-family="Times New Roman,serif" font-weight="bold" font-size="14.00">English</text>
<text text-anchor="start" x="888" y="-142.8" font-family="Times New Roman,serif" font-size="14.00" fill="red">madame</text>
</g>
<!-- madameOF&#45;&gt;madameME -->
<g id="edge31" class="edge">
<title>madameOF&#45;&gt;madameME</title>
<path fill="none" stroke="black" stroke-dasharray="1,5" d="M823.81,-234.88C838.1,-222.85 857.61,-206.4 874.61,-192.08"/>
<polygon fill="black" stroke="black" points="877.33,-194.37 882.72,-185.25 872.82,-189.02 877.33,-194.37"/>
</g>
<!-- madame -->
<g id="node32" class="node">
<title>madame</title>
<text text-anchor="start" x="794" y="-56.8" font-family="Times New Roman,serif" font-weight="bold" font-size="14.00">Modern</text>
<text text-anchor="start" x="795.5" y="-42.8" font-family="Times New Roman,serif" font-weight="bold" font-size="14.00">English</text>
<text text-anchor="start" x="777.5" y="-28.8" font-family="Times New Roman,serif" font-size="14.00" fill="red">Madame ____</text>
</g>
<!-- madameF&#45;&gt;madame -->
<g id="edge30" class="edge">
<title>madameF&#45;&gt;madame</title>
<path fill="none" stroke="black" stroke-dasharray="1,5" d="M808.29,-134.97C810.09,-119.43 812.47,-98.95 814.48,-81.65"/>
<polygon fill="black" stroke="black" points="817.99,-81.71 815.67,-71.37 811.04,-80.9 817.99,-81.71"/>
</g>
<!-- madam -->
<g id="node34" class="node">
<title>madam</title>
<text text-anchor="start" x="894" y="-56.8" font-family="Times New Roman,serif" font-weight="bold" font-size="14.00">Modern</text>
<text text-anchor="start" x="895.5" y="-42.8" font-family="Times New Roman,serif" font-weight="bold" font-size="14.00">English</text>
<text text-anchor="start" x="898" y="-28.8" font-family="Times New Roman,serif" font-size="14.00" fill="red">madam</text>
</g>
<!-- madameME&#45;&gt;madam -->
<g id="edge32" class="edge">
<title>madameME&#45;&gt;madam</title>
<path fill="none" stroke="black" d="M913,-134.97C913.97,-119.43 915.25,-98.95 916.33,-81.65"/>
<polygon fill="black" stroke="black" points="919.85,-81.57 916.98,-71.37 912.86,-81.14 919.85,-81.57"/>
</g>
<!-- dominicellaL -->
<g id="node35" class="node">
<title>dominicellaL</title>
<text text-anchor="start" x="566.5" y="-498.3" font-family="Times New Roman,serif" font-size="14.00" fill="red">dominicella</text>
</g>
<!-- dameiseleOF -->
<g id="node36" class="node">
<title>dameiseleOF</title>
<text text-anchor="start" x="1340.5" y="-256.8" font-family="Times New Roman,serif" font-weight="bold" font-size="14.00">Old French</text>
<text text-anchor="start" x="1315" y="-242.8" font-family="Times New Roman,serif" font-size="14.00" fill="red">dameisele, damoiselle</text>
</g>
<!-- damiseleME -->
<g id="node37" class="node">
<title>damiseleME</title>
<text text-anchor="start" x="1354" y="-170.8" font-family="Times New Roman,serif" font-weight="bold" font-size="14.00">Middle</text>
<text text-anchor="start" x="1352.5" y="-156.8" font-family="Times New Roman,serif" font-weight="bold" font-size="14.00">English</text>
<text text-anchor="start" x="1351" y="-142.8" font-family="Times New Roman,serif" font-size="14.00" fill="red">damisele</text>
</g>
<!-- dameiseleOF&#45;&gt;damiseleME -->
<g id="edge35" class="edge">
<title>dameiseleOF&#45;&gt;damiseleME</title>
<path fill="none" stroke="black" stroke-dasharray="1,5" d="M1375.5,-234.88C1375.5,-223.83 1375.5,-209.06 1375.5,-195.64"/>
<polygon fill="black" stroke="black" points="1379,-195.25 1375.5,-185.25 1372,-195.25 1379,-195.25"/>
</g>
<!-- damsel -->
<g id="node38" class="node">
<title>damsel</title>
<text text-anchor="start" x="1351" y="-56.8" font-family="Times New Roman,serif" font-weight="bold" font-size="14.00">Modern</text>
<text text-anchor="start" x="1352.5" y="-42.8" font-family="Times New Roman,serif" font-weight="bold" font-size="14.00">English</text>
<text text-anchor="start" x="1355.5" y="-28.8" font-family="Times New Roman,serif" font-size="14.00" fill="red">damsel</text>
</g>
<!-- damiseleME&#45;&gt;damsel -->
<g id="edge36" class="edge">
<title>damiseleME&#45;&gt;damsel</title>
<path fill="none" stroke="black" d="M1375.5,-134.97C1375.5,-119.43 1375.5,-98.95 1375.5,-81.65"/>
<polygon fill="black" stroke="black" points="1379,-81.37 1375.5,-71.37 1372,-81.37 1379,-81.37"/>
</g>
<!-- dameiselOF -->
<g id="node40" class="node">
<title>dameiselOF</title>
<text text-anchor="middle" x="896.5" y="-249.3" font-family="Times New Roman,serif" font-size="14.00">dameiselOF</text>
</g>
<!-- dominicella&#45;&gt;dameiselOF -->
<g id="edge34" class="edge">
<title>dominicella&#45;&gt;dameiselOF</title>
<path fill="none" stroke="black" d="M866.37,-319.8C871.57,-308.45 878.48,-293.35 884.37,-280.48"/>
<polygon fill="black" stroke="black" points="887.66,-281.72 888.64,-271.18 881.29,-278.81 887.66,-281.72"/>
</g>
<!-- mademoiselleOF -->
<g id="node41" class="node">
<title>mademoiselleOF</title>
<text text-anchor="start" x="1470" y="-255.8" font-family="Times New Roman,serif" font-size="14.00" fill="red">ma demoiselle</text>
<text text-anchor="start" x="1476.5" y="-243.4" font-family="Times New Roman,serif" font-size="12.00">my young lady</text>
</g>
<!-- mademoiselleF -->
<g id="node42" class="node">
<title>mademoiselleF</title>
<text text-anchor="start" x="1487.5" y="-177.8" font-family="Times New Roman,serif" font-weight="bold" font-size="14.00">French</text>
<text text-anchor="start" x="1471" y="-163.8" font-family="Times New Roman,serif" font-size="14.00" fill="red">Mademoiselle</text>
<text text-anchor="start" x="1455.5" y="-149.8" font-family="Times New Roman,serif" font-size="14.00" fill="red">(pl.) Madmoiselles,</text>
<text text-anchor="start" x="1465" y="-135.8" font-family="Times New Roman,serif" font-size="14.00" fill="red">Mesdemoiselles</text>
</g>
<!-- mademoiselleOF&#45;&gt;mademoiselleF -->
<g id="edge38" class="edge">
<title>mademoiselleOF&#45;&gt;mademoiselleF</title>
<path fill="none" stroke="black" d="M1509.5,-234.88C1509.5,-225.66 1509.5,-213.84 1509.5,-202.38"/>
<polygon fill="black" stroke="black" points="1513,-202.04 1509.5,-192.04 1506,-202.04 1513,-202.04"/>
</g>
<!-- mademoiselle -->
<g id="node43" class="node">
<title>mademoiselle</title>
<text text-anchor="start" x="1485" y="-56.8" font-family="Times New Roman,serif" font-weight="bold" font-size="14.00">Modern</text>
<text text-anchor="start" x="1486.5" y="-42.8" font-family="Times New Roman,serif" font-weight="bold" font-size="14.00">English</text>
<text text-anchor="start" x="1454" y="-28.8" font-family="Times New Roman,serif" font-size="14.00" fill="red">Mademoiselle ____</text>
</g>
<!-- mademoiselleF&#45;&gt;mademoiselle -->
<g id="edge39" class="edge">
<title>mademoiselleF&#45;&gt;mademoiselle</title>
<path fill="none" stroke="black" stroke-dasharray="1,5" d="M1509.5,-127.8C1509.5,-113.43 1509.5,-96.32 1509.5,-81.55"/>
<polygon fill="black" stroke="black" points="1513,-81.29 1509.5,-71.29 1506,-81.29 1513,-81.29"/>
</g>
<!-- demeiselOF -->
<g id="node44" class="node">
<title>demeiselOF</title>
<text text-anchor="middle" x="1509.5" y="-334.3" font-family="Times New Roman,serif" font-size="14.00">demeiselOF</text>
</g>
<!-- demeiselOF&#45;&gt;mademoiselleOF -->
<g id="edge37" class="edge">
<title>demeiselOF&#45;&gt;mademoiselleOF</title>
<path fill="none" stroke="black" d="M1509.5,-319.8C1509.5,-308.67 1509.5,-293.94 1509.5,-281.24"/>
<polygon fill="black" stroke="black" points="1513,-281.18 1509.5,-271.18 1506,-281.18 1513,-281.18"/>
</g>
</g>
</svg>
