<?xml version="1.0" encoding="UTF-8" standalone="no"?>
<!DOCTYPE svg PUBLIC "-//W3C//DTD SVG 1.1//EN"
 "http://www.w3.org/Graphics/SVG/1.1/DTD/svg11.dtd">
<!-- Generated by graphviz version 2.44.1 (20200629.0846)
 -->
<!-- Pages: 1 -->
<svg width="1124pt" height="886pt"
 viewBox="0.00 0.00 1124.00 886.00" xmlns="http://www.w3.org/2000/svg" xmlns:xlink="http://www.w3.org/1999/xlink">
<g id="graph0" class="graph" transform="scale(1 1) rotate(0) translate(4 882)">
<polygon fill="white" stroke="transparent" points="-4,4 -4,-882 1120,-882 1120,4 -4,4"/>
<!-- dam -->
<g id="node1" class="node">
<title>dam</title>
<text text-anchor="start" x="180" y="-856.8" font-family="Times New Roman,serif" font-weight="bold" font-size="14.00">Indo&#45;European</text>
<text text-anchor="start" x="147.5" y="-842.8" font-family="Times New Roman,serif" font-size="14.00" fill="red">dom&#45;, dem&#45;, dam&#45;</text>
<text text-anchor="start" x="250.5" y="-842.8" font-family="Times New Roman,serif" font-size="14.00"> &#160;&#160;to build</text>
</g>
<!-- tamazGmc -->
<g id="node2" class="node">
<title>tamazGmc</title>
<text text-anchor="start" x="43" y="-750.8" font-family="Times New Roman,serif" font-weight="bold" font-size="14.00">Germanic</text>
<text text-anchor="start" x="57" y="-736.8" font-family="Times New Roman,serif" font-size="14.00" fill="red">tamaz</text>
</g>
<!-- dam&#45;&gt;tamazGmc -->
<g id="edge1" class="edge">
<title>dam&#45;&gt;tamazGmc</title>
<path fill="none" stroke="black" d="M201.24,-834.83C175.47,-817.31 135.35,-790.04 106.95,-770.74"/>
<polygon fill="black" stroke="black" points="108.79,-767.75 98.55,-765.03 104.85,-773.54 108.79,-767.75"/>
</g>
<!-- demrom -->
<g id="node6" class="node">
<title>demrom</title>
<text text-anchor="start" x="144" y="-743.3" font-family="Times New Roman,serif" font-size="14.00" fill="red">demrom</text>
</g>
<!-- dam&#45;&gt;demrom -->
<g id="edge5" class="edge">
<title>dam&#45;&gt;demrom</title>
<path fill="none" stroke="black" d="M216.76,-834.83C207.36,-818.27 193.02,-792.99 182.23,-773.97"/>
<polygon fill="black" stroke="black" points="185.24,-772.17 177.26,-765.2 179.15,-775.62 185.24,-772.17"/>
</g>
<!-- domareL -->
<g id="node11" class="node">
<title>domareL</title>
<text text-anchor="start" x="215" y="-444.8" font-family="Times New Roman,serif" font-weight="bold" font-size="14.00">Latin</text>
<text text-anchor="start" x="210" y="-430.8" font-family="Times New Roman,serif" font-size="14.00" fill="red">domāre</text>
<text text-anchor="start" x="207" y="-416.8" font-family="Times New Roman,serif" font-size="14.00" fill="red">domitāre</text>
<text text-anchor="start" x="214.5" y="-404.4" font-family="Times New Roman,serif" font-size="12.00">to tame</text>
</g>
<!-- dam&#45;&gt;domareL -->
<g id="edge10" class="edge">
<title>dam&#45;&gt;domareL</title>
<path fill="none" stroke="black" d="M227.84,-834.71C229.32,-814.09 231.5,-778.55 231.5,-748 231.5,-748 231.5,-748 231.5,-569 231.5,-535.38 231.5,-497.22 231.5,-469.24"/>
<polygon fill="black" stroke="black" points="235,-469.04 231.5,-459.04 228,-469.04 235,-469.04"/>
</g>
<!-- damanG -->
<g id="node38" class="node">
<title>damanG</title>
<text text-anchor="start" x="284.5" y="-762.8" font-family="Times New Roman,serif" font-weight="bold" font-size="14.00">Greek</text>
<text text-anchor="start" x="286" y="-748.8" font-family="Times New Roman,serif" font-size="14.00" fill="red">daman</text>
<text text-anchor="start" x="286.5" y="-736.4" font-family="Times New Roman,serif" font-size="12.00">subdue,</text>
<text text-anchor="start" x="277" y="-724.4" font-family="Times New Roman,serif" font-size="12.00">break down</text>
</g>
<!-- dam&#45;&gt;damanG -->
<g id="edge28" class="edge">
<title>dam&#45;&gt;damanG</title>
<path fill="none" stroke="black" d="M239.38,-834.83C249.49,-821.34 263.95,-802.07 276.67,-785.11"/>
<polygon fill="black" stroke="black" points="279.55,-787.1 282.75,-777 273.95,-782.9 279.55,-787.1"/>
<text text-anchor="middle" x="272" y="-798.8" font-family="Times New Roman,serif" font-size="14.00">?</text>
<polyline fill="none" stroke="black" points="275.5,-795 268.5,-795 266.59,-798.55 "/>
</g>
<!-- tamOE -->
<g id="node3" class="node">
<title>tamOE</title>
<text text-anchor="start" x="8" y="-659.8" font-family="Times New Roman,serif" font-weight="bold" font-size="14.00">Old English</text>
<text text-anchor="start" x="19.5" y="-645.8" font-family="Times New Roman,serif" font-size="14.00" fill="red">tam, tom</text>
</g>
<!-- tamazGmc&#45;&gt;tamOE -->
<g id="edge2" class="edge">
<title>tamazGmc&#45;&gt;tamOE</title>
<path fill="none" stroke="black" d="M67.91,-728.84C63.74,-716.04 57.96,-698.3 53.18,-683.65"/>
<polygon fill="black" stroke="black" points="56.5,-682.53 50.07,-674.11 49.84,-684.7 56.5,-682.53"/>
</g>
<!-- tameME -->
<g id="node4" class="node">
<title>tameME</title>
<text text-anchor="start" x="23" y="-512.8" font-family="Times New Roman,serif" font-weight="bold" font-size="14.00">Middle</text>
<text text-anchor="start" x="21.5" y="-498.8" font-family="Times New Roman,serif" font-weight="bold" font-size="14.00">English</text>
<text text-anchor="start" x="16.5" y="-484.8" font-family="Times New Roman,serif" font-size="14.00" fill="red">tame, tom</text>
</g>
<!-- tamOE&#45;&gt;tameME -->
<g id="edge3" class="edge">
<title>tamOE&#45;&gt;tameME</title>
<path fill="none" stroke="black" d="M44.5,-637.86C44.5,-613.51 44.5,-568.41 44.5,-537.1"/>
<polygon fill="black" stroke="black" points="48,-537.06 44.5,-527.06 41,-537.06 48,-537.06"/>
</g>
<!-- tame -->
<g id="node5" class="node">
<title>tame</title>
<text text-anchor="start" x="20" y="-48.8" font-family="Times New Roman,serif" font-weight="bold" font-size="14.00">Modern</text>
<text text-anchor="start" x="21.5" y="-34.8" font-family="Times New Roman,serif" font-weight="bold" font-size="14.00">English</text>
<text text-anchor="start" x="31" y="-20.8" font-family="Times New Roman,serif" font-size="14.00" fill="red">tame</text>
</g>
<!-- tameME&#45;&gt;tame -->
<g id="edge4" class="edge">
<title>tameME&#45;&gt;tame</title>
<path fill="none" stroke="black" d="M44.5,-476.97C44.5,-448.04 44.5,-397.96 44.5,-355 44.5,-355 44.5,-355 44.5,-137 44.5,-115.85 44.5,-92.14 44.5,-73.33"/>
<polygon fill="black" stroke="black" points="48,-73.16 44.5,-63.16 41,-73.16 48,-73.16"/>
</g>
<!-- timramGmc -->
<g id="node7" class="node">
<title>timramGmc</title>
<text text-anchor="start" x="125" y="-665.8" font-family="Times New Roman,serif" font-weight="bold" font-size="14.00">Germanic</text>
<text text-anchor="start" x="115.5" y="-651.8" font-family="Times New Roman,serif" font-size="14.00" fill="red">timram/temran</text>
<text text-anchor="start" x="138" y="-639.4" font-family="Times New Roman,serif" font-size="12.00">building</text>
</g>
<!-- demrom&#45;&gt;timramGmc -->
<g id="edge6" class="edge">
<title>demrom&#45;&gt;timramGmc</title>
<path fill="none" stroke="black" d="M165.19,-728.84C163.71,-717.92 161.76,-703.41 159.99,-690.29"/>
<polygon fill="black" stroke="black" points="163.43,-689.61 158.62,-680.17 156.49,-690.54 163.43,-689.61"/>
</g>
<!-- timberOE -->
<g id="node8" class="node">
<title>timberOE</title>
<text text-anchor="start" x="111" y="-573.8" font-family="Times New Roman,serif" font-weight="bold" font-size="14.00">Old English</text>
<text text-anchor="start" x="129.5" y="-559.8" font-family="Times New Roman,serif" font-size="14.00" fill="red">timber</text>
</g>
<!-- timramGmc&#45;&gt;timberOE -->
<g id="edge7" class="edge">
<title>timramGmc&#45;&gt;timberOE</title>
<path fill="none" stroke="black" d="M153.27,-631.6C152.29,-621.26 151.12,-609.04 150.1,-598.28"/>
<polygon fill="black" stroke="black" points="153.57,-597.77 149.13,-588.15 146.6,-598.43 153.57,-597.77"/>
</g>
<!-- timberME -->
<g id="node9" class="node">
<title>timberME</title>
<text text-anchor="start" x="118" y="-364.8" font-family="Times New Roman,serif" font-weight="bold" font-size="14.00">Middle</text>
<text text-anchor="start" x="116.5" y="-350.8" font-family="Times New Roman,serif" font-weight="bold" font-size="14.00">English</text>
<text text-anchor="start" x="121.5" y="-336.8" font-family="Times New Roman,serif" font-size="14.00" fill="red">timber</text>
</g>
<!-- timberOE&#45;&gt;timberME -->
<g id="edge8" class="edge">
<title>timberOE&#45;&gt;timberME</title>
<path fill="none" stroke="black" d="M146.86,-551.85C145.54,-516.7 142.52,-435.9 140.79,-389.48"/>
<polygon fill="black" stroke="black" points="144.28,-389.16 140.41,-379.3 137.28,-389.42 144.28,-389.16"/>
</g>
<!-- timber -->
<g id="node10" class="node">
<title>timber</title>
<text text-anchor="start" x="114" y="-48.8" font-family="Times New Roman,serif" font-weight="bold" font-size="14.00">Modern</text>
<text text-anchor="start" x="115.5" y="-34.8" font-family="Times New Roman,serif" font-weight="bold" font-size="14.00">English</text>
<text text-anchor="start" x="120.5" y="-20.8" font-family="Times New Roman,serif" font-size="14.00" fill="red">timber</text>
</g>
<!-- timberME&#45;&gt;timber -->
<g id="edge9" class="edge">
<title>timberME&#45;&gt;timber</title>
<path fill="none" stroke="black" d="M139.42,-328.88C139.25,-273.63 138.81,-137.73 138.61,-73.58"/>
<polygon fill="black" stroke="black" points="142.11,-73.19 138.58,-63.2 135.11,-73.21 142.11,-73.19"/>
</g>
<!-- danterOF -->
<g id="node12" class="node">
<title>danterOF</title>
<text text-anchor="start" x="190.5" y="-289.8" font-family="Times New Roman,serif" font-weight="bold" font-size="14.00">Old French</text>
<text text-anchor="start" x="208" y="-275.8" font-family="Times New Roman,serif" font-size="14.00" fill="red">danter</text>
</g>
<!-- domareL&#45;&gt;danterOF -->
<g id="edge11" class="edge">
<title>domareL&#45;&gt;danterOF</title>
<path fill="none" stroke="black" d="M230.21,-396.97C229.16,-372.44 227.69,-338.07 226.67,-314.31"/>
<polygon fill="black" stroke="black" points="230.16,-314.06 226.24,-304.22 223.17,-314.36 230.16,-314.06"/>
</g>
<!-- indomitabilis -->
<g id="node15" class="node">
<title>indomitabilis</title>
<text text-anchor="start" x="263" y="-214.8" font-family="Times New Roman,serif" font-size="14.00" fill="red">indomitābilis</text>
<text text-anchor="start" x="275.5" y="-202.4" font-family="Times New Roman,serif" font-size="12.00">untamable</text>
</g>
<!-- domareL&#45;&gt;indomitabilis -->
<g id="edge14" class="edge">
<title>domareL&#45;&gt;indomitabilis</title>
<path fill="none" stroke="black" d="M245.01,-396.96C255.03,-373.83 268.45,-340.86 277.5,-311 284.65,-287.43 290.31,-259.96 293.95,-240.11"/>
<polygon fill="black" stroke="black" points="297.4,-240.67 295.71,-230.22 290.51,-239.45 297.4,-240.67"/>
</g>
<!-- dauntenME -->
<g id="node13" class="node">
<title>dauntenME</title>
<text text-anchor="start" x="200" y="-148.8" font-family="Times New Roman,serif" font-weight="bold" font-size="14.00">Middle</text>
<text text-anchor="start" x="198.5" y="-134.8" font-family="Times New Roman,serif" font-weight="bold" font-size="14.00">English</text>
<text text-anchor="start" x="199.5" y="-120.8" font-family="Times New Roman,serif" font-size="14.00" fill="red">daunten</text>
</g>
<!-- danterOF&#45;&gt;dauntenME -->
<g id="edge12" class="edge">
<title>danterOF&#45;&gt;dauntenME</title>
<path fill="none" stroke="black" stroke-dasharray="1,5" d="M225.03,-267.97C224.4,-244.92 223.26,-203.28 222.45,-173.54"/>
<polygon fill="black" stroke="black" points="225.94,-173.09 222.16,-163.19 218.94,-173.28 225.94,-173.09"/>
</g>
<!-- daunt -->
<g id="node14" class="node">
<title>daunt</title>
<text text-anchor="start" x="197" y="-48.8" font-family="Times New Roman,serif" font-weight="bold" font-size="14.00">Modern</text>
<text text-anchor="start" x="198.5" y="-34.8" font-family="Times New Roman,serif" font-weight="bold" font-size="14.00">English</text>
<text text-anchor="start" x="206" y="-20.8" font-family="Times New Roman,serif" font-size="14.00" fill="red">daunt</text>
</g>
<!-- dauntenME&#45;&gt;daunt -->
<g id="edge13" class="edge">
<title>dauntenME&#45;&gt;daunt</title>
<path fill="none" stroke="black" d="M221.5,-112.78C221.5,-100.88 221.5,-86.34 221.5,-73.32"/>
<polygon fill="black" stroke="black" points="225,-73.29 221.5,-63.29 218,-73.29 225,-73.29"/>
</g>
<!-- indomitable -->
<g id="node16" class="node">
<title>indomitable</title>
<text text-anchor="start" x="288" y="-48.8" font-family="Times New Roman,serif" font-weight="bold" font-size="14.00">Modern</text>
<text text-anchor="start" x="289.5" y="-34.8" font-family="Times New Roman,serif" font-weight="bold" font-size="14.00">English</text>
<text text-anchor="start" x="280" y="-20.8" font-family="Times New Roman,serif" font-size="14.00" fill="red">indomitable</text>
</g>
<!-- indomitabilis&#45;&gt;indomitable -->
<g id="edge15" class="edge">
<title>indomitabilis&#45;&gt;indomitable</title>
<path fill="none" stroke="black" stroke-dasharray="1,5" d="M299.89,-193.88C302.17,-165.88 306.74,-109.78 309.7,-73.34"/>
<polygon fill="black" stroke="black" points="313.21,-73.42 310.53,-63.17 306.23,-72.85 313.21,-73.42"/>
</g>
<!-- domusL -->
<g id="node17" class="node">
<title>domusL</title>
<text text-anchor="start" x="639" y="-437.8" font-family="Times New Roman,serif" font-weight="bold" font-size="14.00">Latin</text>
<text text-anchor="start" x="636" y="-423.8" font-family="Times New Roman,serif" font-size="14.00" fill="red">domus</text>
<text text-anchor="start" x="642" y="-411.4" font-family="Times New Roman,serif" font-size="12.00">house</text>
</g>
<!-- dominusL -->
<g id="node22" class="node">
<title>dominusL</title>
<g id="a_node22"><a xlink:href="dom-build1.svg" xlink:title="&lt;font color=&quot;red&quot;&gt;dominus&lt;/font&gt;&lt;br/&gt;&lt;font point&#45;size=&quot;12&quot;&gt;lord, master&lt;/font&gt;">
<path fill="none" stroke="black" stroke-dasharray="5,2" d="M615,-304C615,-304 568,-304 568,-304 562,-304 556,-298 556,-292 556,-292 556,-280 556,-280 556,-274 562,-268 568,-268 568,-268 615,-268 615,-268 621,-268 627,-274 627,-280 627,-280 627,-292 627,-292 627,-298 621,-304 615,-304"/>
<text text-anchor="start" x="567" y="-288.8" font-family="Times New Roman,serif" font-size="14.00" fill="red">dominus</text>
<text text-anchor="start" x="564" y="-276.4" font-family="Times New Roman,serif" font-size="12.00">lord, master</text>
</a>
</g>
</g>
<!-- domusL&#45;&gt;dominusL -->
<g id="edge16" class="edge">
<title>domusL&#45;&gt;dominusL</title>
<path fill="none" stroke="black" d="M644.93,-403.88C633.6,-379.09 615.63,-339.78 603.7,-313.69"/>
<polygon fill="black" stroke="black" points="606.79,-312.03 599.45,-304.4 600.43,-314.95 606.79,-312.03"/>
</g>
<!-- dome2 -->
<g id="node32" class="node">
<title>dome2</title>
<text text-anchor="start" x="631" y="-61.8" font-family="Times New Roman,serif" font-weight="bold" font-size="14.00">Modern</text>
<text text-anchor="start" x="632.5" y="-47.8" font-family="Times New Roman,serif" font-weight="bold" font-size="14.00">English</text>
<text text-anchor="start" x="624" y="-33.8" font-family="Times New Roman,serif" font-size="14.00">(obsolete?)</text>
<text text-anchor="start" x="639.5" y="-19.8" font-family="Times New Roman,serif" font-size="14.00" fill="red">dome</text>
<text text-anchor="start" x="642" y="-7.4" font-family="Times New Roman,serif" font-size="12.00">house</text>
</g>
<!-- domusL&#45;&gt;dome2 -->
<g id="edge24" class="edge">
<title>domusL&#45;&gt;dome2</title>
<path fill="none" stroke="black" stroke-dasharray="1,5" d="M655.5,-403.89C655.5,-341.72 655.5,-169.93 655.5,-86.16"/>
<polygon fill="black" stroke="black" points="659,-86.15 655.5,-76.15 652,-86.15 659,-86.15"/>
</g>
<!-- duomoI -->
<g id="node33" class="node">
<title>duomoI</title>
<text text-anchor="start" x="699.5" y="-295.8" font-family="Times New Roman,serif" font-weight="bold" font-size="14.00">Italian</text>
<text text-anchor="start" x="699.5" y="-281.8" font-family="Times New Roman,serif" font-size="14.00" fill="red">duomo</text>
<text text-anchor="start" x="698.5" y="-269.4" font-family="Times New Roman,serif" font-size="12.00">cathedral</text>
</g>
<!-- domusL&#45;&gt;duomoI -->
<g id="edge25" class="edge">
<title>domusL&#45;&gt;duomoI</title>
<path fill="none" stroke="black" d="M666.07,-403.88C676.58,-380.88 692.81,-345.38 704.63,-319.54"/>
<polygon fill="black" stroke="black" points="707.94,-320.7 708.92,-310.15 701.58,-317.79 707.94,-320.7"/>
</g>
<!-- domesticusL -->
<g id="node18" class="node">
<title>domesticusL</title>
<text text-anchor="start" x="472.5" y="-861.8" font-family="Times New Roman,serif" font-size="14.00" fill="red">domesticus</text>
<text text-anchor="start" x="477" y="-849.4" font-family="Times New Roman,serif" font-size="12.00">belonging to</text>
<text text-anchor="start" x="473" y="-837.4" font-family="Times New Roman,serif" font-size="12.00">the household</text>
</g>
<!-- domestiqueMF -->
<g id="node19" class="node">
<title>domestiqueMF</title>
<text text-anchor="start" x="582" y="-863.8" font-family="Times New Roman,serif" font-weight="bold" font-size="14.00">Middle</text>
<text text-anchor="start" x="581.5" y="-849.8" font-family="Times New Roman,serif" font-weight="bold" font-size="14.00">French</text>
<text text-anchor="start" x="571" y="-835.8" font-family="Times New Roman,serif" font-size="14.00" fill="red">domestique</text>
</g>
<!-- domesticME -->
<g id="node20" class="node">
<title>domesticME</title>
<text text-anchor="start" x="675" y="-863.8" font-family="Times New Roman,serif" font-weight="bold" font-size="14.00">Middle</text>
<text text-anchor="start" x="673.5" y="-849.8" font-family="Times New Roman,serif" font-weight="bold" font-size="14.00">English</text>
<text text-anchor="start" x="670.5" y="-835.8" font-family="Times New Roman,serif" font-size="14.00" fill="red">domestic</text>
</g>
<!-- domestic -->
<g id="node21" class="node">
<title>domestic</title>
<text text-anchor="start" x="796" y="-48.8" font-family="Times New Roman,serif" font-weight="bold" font-size="14.00">Modern</text>
<text text-anchor="start" x="797.5" y="-34.8" font-family="Times New Roman,serif" font-weight="bold" font-size="14.00">English</text>
<text text-anchor="start" x="794.5" y="-20.8" font-family="Times New Roman,serif" font-size="14.00" fill="red">domestic</text>
</g>
<!-- domocolyon -->
<g id="node23" class="node">
<title>domocolyon</title>
<text text-anchor="start" x="865.5" y="-572.8" font-family="Times New Roman,serif" font-size="14.00" fill="red">domo&#45;colyom</text>
<text text-anchor="start" x="871.5" y="-560.4" font-family="Times New Roman,serif" font-size="12.00">house&#45;dwelling</text>
</g>
<!-- domiciliumL -->
<g id="node24" class="node">
<title>domiciliumL</title>
<text text-anchor="start" x="889" y="-431.8" font-family="Times New Roman,serif" font-weight="bold" font-size="14.00">Latin</text>
<text text-anchor="start" x="874.5" y="-417.8" font-family="Times New Roman,serif" font-size="14.00" fill="red">domicilium</text>
</g>
<!-- domocolyon&#45;&gt;domiciliumL -->
<g id="edge17" class="edge">
<title>domocolyon&#45;&gt;domiciliumL</title>
<path fill="none" stroke="black" d="M905.5,-551.83C905.5,-528.01 905.5,-484.66 905.5,-456.35"/>
<polygon fill="black" stroke="black" points="909,-456.31 905.5,-446.31 902,-456.31 909,-456.31"/>
</g>
<!-- domicileMF -->
<g id="node25" class="node">
<title>domicileMF</title>
<text text-anchor="start" x="884" y="-296.8" font-family="Times New Roman,serif" font-weight="bold" font-size="14.00">Middle</text>
<text text-anchor="start" x="883.5" y="-282.8" font-family="Times New Roman,serif" font-weight="bold" font-size="14.00">French</text>
<text text-anchor="start" x="881.5" y="-268.8" font-family="Times New Roman,serif" font-size="14.00" fill="red">domicile</text>
</g>
<!-- domiciliumL&#45;&gt;domicileMF -->
<g id="edge18" class="edge">
<title>domiciliumL&#45;&gt;domicileMF</title>
<path fill="none" stroke="black" d="M905.5,-409.83C905.5,-387.95 905.5,-349.6 905.5,-321.55"/>
<polygon fill="black" stroke="black" points="909,-321.37 905.5,-311.37 902,-321.37 909,-321.37"/>
</g>
<!-- domicylieME -->
<g id="node26" class="node">
<title>domicylieME</title>
<text text-anchor="start" x="884" y="-148.8" font-family="Times New Roman,serif" font-weight="bold" font-size="14.00">Middle</text>
<text text-anchor="start" x="882.5" y="-134.8" font-family="Times New Roman,serif" font-weight="bold" font-size="14.00">English</text>
<text text-anchor="start" x="878" y="-120.8" font-family="Times New Roman,serif" font-size="14.00" fill="red">domicylie</text>
</g>
<!-- domicileMF&#45;&gt;domicylieME -->
<g id="edge19" class="edge">
<title>domicileMF&#45;&gt;domicylieME</title>
<path fill="none" stroke="black" stroke-dasharray="1,5" d="M905.5,-260.89C905.5,-237.01 905.5,-200.21 905.5,-173.29"/>
<polygon fill="black" stroke="black" points="909,-173.14 905.5,-163.14 902,-173.14 909,-173.14"/>
</g>
<!-- domicile -->
<g id="node27" class="node">
<title>domicile</title>
<text text-anchor="start" x="881" y="-48.8" font-family="Times New Roman,serif" font-weight="bold" font-size="14.00">Modern</text>
<text text-anchor="start" x="882.5" y="-34.8" font-family="Times New Roman,serif" font-weight="bold" font-size="14.00">English</text>
<text text-anchor="start" x="881.5" y="-20.8" font-family="Times New Roman,serif" font-size="14.00" fill="red">domicile</text>
</g>
<!-- domicylieME&#45;&gt;domicile -->
<g id="edge20" class="edge">
<title>domicylieME&#45;&gt;domicile</title>
<path fill="none" stroke="black" d="M905.5,-112.78C905.5,-100.88 905.5,-86.34 905.5,-73.32"/>
<polygon fill="black" stroke="black" points="909,-73.29 905.5,-63.29 902,-73.29 909,-73.29"/>
</g>
<!-- domaG -->
<g id="node28" class="node">
<title>domaG</title>
<text text-anchor="start" x="974.5" y="-437.8" font-family="Times New Roman,serif" font-weight="bold" font-size="14.00">Greek</text>
<text text-anchor="start" x="978.5" y="-423.8" font-family="Times New Roman,serif" font-size="14.00" fill="red">dōma</text>
<text text-anchor="start" x="981" y="-411.4" font-family="Times New Roman,serif" font-size="12.00">house</text>
</g>
<!-- domaP -->
<g id="node29" class="node">
<title>domaP</title>
<text text-anchor="start" x="963.5" y="-295.8" font-family="Times New Roman,serif" font-weight="bold" font-size="14.00">Provençal</text>
<text text-anchor="start" x="978.5" y="-281.8" font-family="Times New Roman,serif" font-size="14.00" fill="red">doma</text>
<text text-anchor="start" x="964.5" y="-269.4" font-family="Times New Roman,serif" font-size="12.00">rounded roof</text>
</g>
<!-- domaG&#45;&gt;domaP -->
<g id="edge21" class="edge">
<title>domaG&#45;&gt;domaP</title>
<path fill="none" stroke="black" d="M994.5,-403.88C994.5,-381.08 994.5,-346.01 994.5,-320.22"/>
<polygon fill="black" stroke="black" points="998,-320.15 994.5,-310.15 991,-320.15 998,-320.15"/>
</g>
<!-- dome1F -->
<g id="node30" class="node">
<title>dome1F</title>
<text text-anchor="start" x="972.5" y="-141.8" font-family="Times New Roman,serif" font-weight="bold" font-size="14.00">French</text>
<text text-anchor="start" x="978.5" y="-127.8" font-family="Times New Roman,serif" font-size="14.00" fill="red">dôme</text>
</g>
<!-- domaP&#45;&gt;dome1F -->
<g id="edge22" class="edge">
<title>domaP&#45;&gt;dome1F</title>
<path fill="none" stroke="black" d="M994.5,-261.87C994.5,-235.89 994.5,-193.76 994.5,-166.22"/>
<polygon fill="black" stroke="black" points="998,-166.1 994.5,-156.1 991,-166.1 998,-166.1"/>
</g>
<!-- dome1 -->
<g id="node31" class="node">
<title>dome1</title>
<text text-anchor="start" x="970" y="-54.8" font-family="Times New Roman,serif" font-weight="bold" font-size="14.00">Modern</text>
<text text-anchor="start" x="971.5" y="-40.8" font-family="Times New Roman,serif" font-weight="bold" font-size="14.00">English</text>
<text text-anchor="start" x="978.5" y="-26.8" font-family="Times New Roman,serif" font-size="14.00" fill="red">dome</text>
<text text-anchor="start" x="964.5" y="-14.4" font-family="Times New Roman,serif" font-size="12.00">rounded roof</text>
</g>
<!-- dome1F&#45;&gt;dome1 -->
<g id="edge23" class="edge">
<title>dome1F&#45;&gt;dome1</title>
<path fill="none" stroke="black" stroke-dasharray="1,5" d="M994.5,-119.93C994.5,-108.72 994.5,-93.56 994.5,-79.4"/>
<polygon fill="black" stroke="black" points="998,-79.33 994.5,-69.33 991,-79.33 998,-79.33"/>
</g>
<!-- dome3F -->
<g id="node36" class="node">
<title>dome3F</title>
<text text-anchor="middle" x="727.5" y="-134.3" font-family="Times New Roman,serif" font-size="14.00">dome3F</text>
</g>
<!-- duomoI&#45;&gt;dome3F -->
<g id="edge26" class="edge">
<title>duomoI&#45;&gt;dome3F</title>
<path fill="none" stroke="black" stroke-dasharray="1,5" d="M720.77,-261.87C722.19,-235.89 724.5,-193.76 726.01,-166.22"/>
<polygon fill="black" stroke="black" points="729.51,-166.27 726.56,-156.1 722.52,-165.89 729.51,-166.27"/>
</g>
<!-- domeF -->
<g id="node34" class="node">
<title>domeF</title>
<text text-anchor="start" x="756.5" y="-856.8" font-family="Times New Roman,serif" font-weight="bold" font-size="14.00">French</text>
<text text-anchor="start" x="762.5" y="-842.8" font-family="Times New Roman,serif" font-size="14.00" fill="red">dôme</text>
</g>
<!-- dome -->
<g id="node35" class="node">
<title>dome</title>
<text text-anchor="start" x="1059" y="-54.8" font-family="Times New Roman,serif" font-weight="bold" font-size="14.00">Modern</text>
<text text-anchor="start" x="1060.5" y="-40.8" font-family="Times New Roman,serif" font-weight="bold" font-size="14.00">English</text>
<text text-anchor="start" x="1067.5" y="-26.8" font-family="Times New Roman,serif" font-size="14.00" fill="red">dome</text>
<text text-anchor="start" x="1062.5" y="-14.4" font-family="Times New Roman,serif" font-size="12.00">cathedral</text>
</g>
<!-- dome3 -->
<g id="node37" class="node">
<title>dome3</title>
<text text-anchor="middle" x="740.5" y="-34.3" font-family="Times New Roman,serif" font-size="14.00">dome3</text>
</g>
<!-- dome3F&#45;&gt;dome3 -->
<g id="edge27" class="edge">
<title>dome3F&#45;&gt;dome3</title>
<path fill="none" stroke="black" stroke-dasharray="1,5" d="M729.76,-119.93C731.73,-105.12 734.61,-83.43 736.89,-66.23"/>
<polygon fill="black" stroke="black" points="740.37,-66.58 738.22,-56.2 733.43,-65.66 740.37,-66.58"/>
</g>
<!-- adamasG -->
<g id="node39" class="node">
<title>adamasG</title>
<text text-anchor="start" x="370" y="-664.8" font-family="Times New Roman,serif" font-size="14.00" fill="red">adamas</text>
<text text-anchor="start" x="362" y="-652.4" font-family="Times New Roman,serif" font-size="12.00">unbreakable,</text>
<text text-anchor="start" x="357.5" y="-640.4" font-family="Times New Roman,serif" font-size="12.00">hard substance</text>
</g>
<!-- damanG&#45;&gt;adamasG -->
<g id="edge29" class="edge">
<title>damanG&#45;&gt;adamasG</title>
<path fill="none" stroke="black" d="M332.99,-716.86C342.54,-707.08 353.2,-696.18 362.78,-686.38"/>
<polygon fill="black" stroke="black" points="365.36,-688.74 369.85,-679.15 360.36,-683.85 365.36,-688.74"/>
</g>
<!-- adamansL -->
<g id="node40" class="node">
<title>adamansL</title>
<text text-anchor="start" x="378" y="-580.8" font-family="Times New Roman,serif" font-weight="bold" font-size="14.00">Latin</text>
<text text-anchor="start" x="368" y="-566.8" font-family="Times New Roman,serif" font-size="14.00" fill="red">adamāns,</text>
<text text-anchor="start" x="368.5" y="-552.8" font-family="Times New Roman,serif" font-size="14.00" fill="red">adamant&#45;</text>
</g>
<!-- adamasG&#45;&gt;adamansL -->
<g id="edge30" class="edge">
<title>adamasG&#45;&gt;adamansL</title>
<path fill="none" stroke="black" stroke-dasharray="1,5" d="M392.29,-632.93C392.59,-624.52 392.94,-614.73 393.27,-605.45"/>
<polygon fill="black" stroke="black" points="396.77,-605.4 393.63,-595.29 389.78,-605.15 396.77,-605.4"/>
</g>
<!-- adamauntOF -->
<g id="node41" class="node">
<title>adamauntOF</title>
<text text-anchor="start" x="359.5" y="-443.8" font-family="Times New Roman,serif" font-weight="bold" font-size="14.00">Old French</text>
<text text-anchor="start" x="367.5" y="-429.8" font-family="Times New Roman,serif" font-size="14.00" fill="red">adamaunt</text>
<text text-anchor="start" x="373" y="-417.4" font-family="Times New Roman,serif" font-size="12.00">diamond,</text>
<text text-anchor="start" x="370.5" y="-405.4" font-family="Times New Roman,serif" font-size="12.00">hard metal</text>
</g>
<!-- adamansL&#45;&gt;adamauntOF -->
<g id="edge31" class="edge">
<title>adamansL&#45;&gt;adamauntOF</title>
<path fill="none" stroke="black" d="M394.5,-544.93C394.5,-523.86 394.5,-492.85 394.5,-468.21"/>
<polygon fill="black" stroke="black" points="398,-468.08 394.5,-458.08 391,-468.08 398,-468.08"/>
</g>
<!-- diamantemL -->
<g id="node46" class="node">
<title>diamantemL</title>
<text text-anchor="start" x="464" y="-431.8" font-family="Times New Roman,serif" font-size="14.00" fill="red">adimantem</text>
<text text-anchor="start" x="464" y="-416.8" font-family="Times New Roman,serif" font-size="14.00" fill="red">diamantem</text>
</g>
<!-- adamansL&#45;&gt;diamantemL -->
<g id="edge36" class="edge">
<title>adamansL&#45;&gt;diamantemL</title>
<path fill="none" stroke="black" d="M411.69,-544.93C429.45,-520.07 457.1,-481.36 475.5,-455.6"/>
<polygon fill="black" stroke="black" points="478.39,-457.57 481.36,-447.4 472.7,-453.5 478.39,-457.57"/>
</g>
<!-- adamantME -->
<g id="node42" class="node">
<title>adamantME</title>
<text text-anchor="start" x="381" y="-228.8" font-family="Times New Roman,serif" font-weight="bold" font-size="14.00">Middle</text>
<text text-anchor="start" x="379.5" y="-214.8" font-family="Times New Roman,serif" font-weight="bold" font-size="14.00">English</text>
<text text-anchor="start" x="379" y="-200.8" font-family="Times New Roman,serif" font-size="14.00" fill="red">adamant</text>
<text text-anchor="start" x="360.5" y="-188.4" font-family="Times New Roman,serif" font-size="12.00">hard precious gem</text>
</g>
<!-- adamauntOF&#45;&gt;adamantME -->
<g id="edge32" class="edge">
<title>adamauntOF&#45;&gt;adamantME</title>
<path fill="none" stroke="black" stroke-dasharray="1,5" d="M395.6,-397.69C396.99,-360.34 399.41,-295.57 400.99,-253.51"/>
<polygon fill="black" stroke="black" points="404.49,-253.46 401.37,-243.33 397.49,-253.19 404.49,-253.46"/>
</g>
<!-- adamant -->
<g id="node43" class="node">
<title>adamant</title>
<text text-anchor="start" x="379" y="-48.8" font-family="Times New Roman,serif" font-weight="bold" font-size="14.00">Modern</text>
<text text-anchor="start" x="380.5" y="-34.8" font-family="Times New Roman,serif" font-weight="bold" font-size="14.00">English</text>
<text text-anchor="start" x="380" y="-20.8" font-family="Times New Roman,serif" font-size="14.00" fill="red">adamant</text>
</g>
<!-- adamantME&#45;&gt;adamant -->
<g id="edge33" class="edge">
<title>adamantME&#45;&gt;adamant</title>
<path fill="none" stroke="black" d="M402.68,-180.65C402.85,-150.58 403.12,-104.61 403.3,-73.25"/>
<polygon fill="black" stroke="black" points="406.8,-73.24 403.36,-63.22 399.8,-73.2 406.8,-73.24"/>
</g>
<!-- nIE -->
<g id="node44" class="node">
<title>nIE</title>
<g id="a_node44"><a xlink:href="ne-not.svg" xlink:title="&lt;b&gt;Indo&#45;European&lt;/b&gt;&lt;br/&gt;&lt;font color=&quot;red&quot;&gt;n̥&#45;&lt;/font&gt;&lt;br/&gt;&lt;font point&#45;size=&quot;12&quot;&gt;not&lt;/font&gt;">
<path fill="none" stroke="black" stroke-dasharray="5,2" d="M434,-877C434,-877 349,-877 349,-877 343,-877 337,-871 337,-865 337,-865 337,-841 337,-841 337,-835 343,-829 349,-829 349,-829 434,-829 434,-829 440,-829 446,-835 446,-841 446,-841 446,-865 446,-865 446,-871 440,-877 434,-877"/>
<text text-anchor="start" x="345" y="-862.8" font-family="Times New Roman,serif" font-weight="bold" font-size="14.00">Indo&#45;European</text>
<text text-anchor="start" x="385.5" y="-848.8" font-family="Times New Roman,serif" font-size="14.00" fill="red">n̥&#45;</text>
<text text-anchor="start" x="384" y="-836.4" font-family="Times New Roman,serif" font-size="12.00">not</text>
</a>
</g>
</g>
<!-- anG -->
<g id="node45" class="node">
<title>anG</title>
<text text-anchor="start" x="371.5" y="-750.8" font-family="Times New Roman,serif" font-weight="bold" font-size="14.00">Greek</text>
<text text-anchor="start" x="373.5" y="-736.8" font-family="Times New Roman,serif" font-size="14.00" fill="red">a&#45;, an&#45;</text>
</g>
<!-- nIE&#45;&gt;anG -->
<g id="edge34" class="edge">
<title>nIE&#45;&gt;anG</title>
<path fill="none" stroke="black" d="M391.5,-828.92C391.5,-813.11 391.5,-792.08 391.5,-775.42"/>
<polygon fill="black" stroke="black" points="395,-775.2 391.5,-765.2 388,-775.2 395,-775.2"/>
</g>
<!-- anG&#45;&gt;adamasG -->
<g id="edge35" class="edge">
<title>anG&#45;&gt;adamasG</title>
<path fill="none" stroke="black" d="M391.5,-728.84C391.5,-717.68 391.5,-702.77 391.5,-689.43"/>
<polygon fill="black" stroke="black" points="395,-689.17 391.5,-679.17 388,-689.17 395,-689.17"/>
</g>
<!-- diamantOF -->
<g id="node47" class="node">
<title>diamantOF</title>
<text text-anchor="start" x="459.5" y="-289.8" font-family="Times New Roman,serif" font-weight="bold" font-size="14.00">Old French</text>
<text text-anchor="start" x="472.5" y="-275.8" font-family="Times New Roman,serif" font-size="14.00" fill="red">diamant</text>
</g>
<!-- diamantemL&#45;&gt;diamantOF -->
<g id="edge37" class="edge">
<title>diamantemL&#45;&gt;diamantOF</title>
<path fill="none" stroke="black" d="M494.5,-408.98C494.5,-384.99 494.5,-342.33 494.5,-314.36"/>
<polygon fill="black" stroke="black" points="498,-314.07 494.5,-304.07 491,-314.07 498,-314.07"/>
</g>
<!-- diamauntME -->
<g id="node48" class="node">
<title>diamauntME</title>
<text text-anchor="start" x="473" y="-148.8" font-family="Times New Roman,serif" font-weight="bold" font-size="14.00">Middle</text>
<text text-anchor="start" x="471.5" y="-134.8" font-family="Times New Roman,serif" font-weight="bold" font-size="14.00">English</text>
<text text-anchor="start" x="469" y="-120.8" font-family="Times New Roman,serif" font-size="14.00" fill="red">diamaunt</text>
</g>
<!-- diamantOF&#45;&gt;diamauntME -->
<g id="edge38" class="edge">
<title>diamantOF&#45;&gt;diamauntME</title>
<path fill="none" stroke="black" stroke-dasharray="1,5" d="M494.5,-267.97C494.5,-244.92 494.5,-203.28 494.5,-173.54"/>
<polygon fill="black" stroke="black" points="498,-173.19 494.5,-163.19 491,-173.19 498,-173.19"/>
</g>
<!-- diamond -->
<g id="node49" class="node">
<title>diamond</title>
<text text-anchor="start" x="470" y="-48.8" font-family="Times New Roman,serif" font-weight="bold" font-size="14.00">Modern</text>
<text text-anchor="start" x="471.5" y="-34.8" font-family="Times New Roman,serif" font-weight="bold" font-size="14.00">English</text>
<text text-anchor="start" x="470" y="-20.8" font-family="Times New Roman,serif" font-size="14.00" fill="red">diamond</text>
</g>
<!-- diamauntME&#45;&gt;diamond -->
<g id="edge39" class="edge">
<title>diamauntME&#45;&gt;diamond</title>
<path fill="none" stroke="black" d="M494.5,-112.78C494.5,-100.88 494.5,-86.34 494.5,-73.32"/>
<polygon fill="black" stroke="black" points="498,-73.29 494.5,-63.29 491,-73.29 498,-73.29"/>
</g>
</g>
</svg>
