<?xml version="1.0" encoding="UTF-8" standalone="no"?>
<!DOCTYPE svg PUBLIC "-//W3C//DTD SVG 1.1//EN"
 "http://www.w3.org/Graphics/SVG/1.1/DTD/svg11.dtd">
<!-- Generated by graphviz version 2.49.0 (20210828.1703)
 -->
<!-- Pages: 1 -->
<svg width="976pt" height="924pt"
 viewBox="0.00 0.00 975.50 924.00" xmlns="http://www.w3.org/2000/svg" xmlns:xlink="http://www.w3.org/1999/xlink">
<g id="graph0" class="graph" transform="scale(1 1) rotate(0) translate(4 920)">
<polygon fill="white" stroke="transparent" points="-4,4 -4,-920 971.5,-920 971.5,4 -4,4"/>
<!-- dam -->
<g id="node1" class="node">
<title>dam</title>
<g id="a_node1"><a xlink:title="Indo&#45;European &quot;dom&#45;/dem&#45;/dam&#45;&quot; build/tame">
<polygon fill="none" stroke="black" points="604.5,-912 313.5,-912 313.5,-808 604.5,-808 604.5,-912"/>
<polygon fill="none" stroke="black" points="608.5,-916 309.5,-916 309.5,-804 608.5,-804 608.5,-916"/>
<text text-anchor="start" x="381" y="-867.8" font-family="Times New Roman,serif" font-weight="bold" font-size="24.00">Indo&#45;European</text>
<text text-anchor="start" x="340" y="-839.6" font-family="Times New Roman,serif" font-size="18.00" fill="red">dom&#45;, dem&#45;, dam&#45;</text>
<text text-anchor="start" x="476" y="-840.2" font-family="Times New Roman,serif" font-size="16.00">to build, to tame</text>
</a>
</g>
</g>
<!-- tamazGmc -->
<g id="node2" class="node">
<title>tamazGmc</title>
<text text-anchor="start" x="42.5" y="-510.8" font-family="Times New Roman,serif" font-weight="bold" font-size="14.00">Germanic</text>
<text text-anchor="start" x="56.5" y="-496.8" font-family="Times New Roman,serif" font-size="14.00" fill="red">tamaz</text>
</g>
<!-- dam&#45;&gt;tamazGmc -->
<g id="edge1" class="edge">
<title>dam&#45;&gt;tamazGmc</title>
<path fill="none" stroke="black" d="M372.93,-803.94C350.46,-788.35 326.74,-770.76 306,-753 220.62,-679.88 132.59,-579.06 93.66,-532.9"/>
<polygon fill="black" stroke="black" points="96.3,-530.6 87.19,-525.19 90.94,-535.1 96.3,-530.6"/>
</g>
<!-- demrom -->
<g id="node6" class="node">
<title>demrom</title>
<text text-anchor="start" x="263.5" y="-653.3" font-family="Times New Roman,serif" font-size="14.00" fill="red">demrom</text>
</g>
<!-- dam&#45;&gt;demrom -->
<g id="edge5" class="edge">
<title>dam&#45;&gt;demrom</title>
<path fill="none" stroke="black" d="M394.91,-803.7C389.02,-797.89 383.29,-791.94 378,-786 348.64,-753.03 320.02,-710.57 302.94,-683.8"/>
<polygon fill="black" stroke="black" points="305.7,-681.62 297.4,-675.03 299.78,-685.36 305.7,-681.62"/>
</g>
<!-- domareL -->
<g id="node11" class="node">
<title>domareL</title>
<text text-anchor="start" x="265.5" y="-523.8" font-family="Times New Roman,serif" font-weight="bold" font-size="14.00">Latin</text>
<text text-anchor="start" x="260.5" y="-509.8" font-family="Times New Roman,serif" font-size="14.00" fill="red">domāre</text>
<text text-anchor="start" x="257.5" y="-495.8" font-family="Times New Roman,serif" font-size="14.00" fill="red">domitāre</text>
<text text-anchor="start" x="265" y="-483.4" font-family="Times New Roman,serif" font-size="12.00">to tame</text>
</g>
<!-- dam&#45;&gt;domareL -->
<g id="edge10" class="edge">
<title>dam&#45;&gt;domareL</title>
<path fill="none" stroke="black" d="M431.15,-803.77C395.13,-732.34 333.28,-609.68 301.74,-547.15"/>
<polygon fill="black" stroke="black" points="304.76,-545.36 297.13,-538 298.51,-548.51 304.76,-545.36"/>
</g>
<!-- domusL -->
<g id="node17" class="node">
<title>domusL</title>
<text text-anchor="start" x="442.5" y="-516.8" font-family="Times New Roman,serif" font-weight="bold" font-size="14.00">Latin</text>
<text text-anchor="start" x="439.5" y="-502.8" font-family="Times New Roman,serif" font-size="14.00" fill="red">domus</text>
<text text-anchor="start" x="445.5" y="-490.4" font-family="Times New Roman,serif" font-size="12.00">house</text>
</g>
<!-- dam&#45;&gt;domusL -->
<g id="edge16" class="edge">
<title>dam&#45;&gt;domusL</title>
<path fill="none" stroke="black" d="M459,-803.77C459,-730.01 459,-601.64 459,-541.23"/>
<polygon fill="black" stroke="black" points="462.5,-541.11 459,-531.11 455.5,-541.11 462.5,-541.11"/>
</g>
<!-- domocolyon -->
<g id="node23" class="node">
<title>domocolyon</title>
<text text-anchor="start" x="507" y="-659.8" font-family="Times New Roman,serif" font-size="14.00" fill="red">domo&#45;colyom</text>
<text text-anchor="start" x="513" y="-647.4" font-family="Times New Roman,serif" font-size="12.00">house&#45;dwelling</text>
</g>
<!-- dam&#45;&gt;domocolyon -->
<g id="edge22" class="edge">
<title>dam&#45;&gt;domocolyon</title>
<path fill="none" stroke="black" d="M483.16,-803.81C500.17,-764.97 522.17,-714.7 535.41,-684.48"/>
<polygon fill="black" stroke="black" points="538.73,-685.61 539.54,-675.05 532.32,-682.8 538.73,-685.61"/>
</g>
<!-- domn -->
<g id="node28" class="node">
<title>domn</title>
<text text-anchor="start" x="552.5" y="-719.3" font-family="Times New Roman,serif" font-size="14.00" fill="red">dōm&#45;n̥</text>
</g>
<!-- dam&#45;&gt;domn -->
<g id="edge27" class="edge">
<title>dam&#45;&gt;domn</title>
<path fill="none" stroke="black" d="M504.88,-803.7C520.58,-784.78 537.37,-764.53 550.11,-749.18"/>
<polygon fill="black" stroke="black" points="553.04,-751.13 556.74,-741.19 547.66,-746.66 553.04,-751.13"/>
</g>
<!-- damanG -->
<g id="node37" class="node">
<title>damanG</title>
<text text-anchor="start" x="640" y="-738.8" font-family="Times New Roman,serif" font-weight="bold" font-size="14.00">Greek</text>
<text text-anchor="start" x="641.5" y="-724.8" font-family="Times New Roman,serif" font-size="14.00" fill="red">daman</text>
<text text-anchor="start" x="642" y="-712.4" font-family="Times New Roman,serif" font-size="12.00">subdue,</text>
<text text-anchor="start" x="632.5" y="-700.4" font-family="Times New Roman,serif" font-size="12.00">break down</text>
</g>
<!-- dam&#45;&gt;damanG -->
<g id="edge36" class="edge">
<title>dam&#45;&gt;damanG</title>
<path fill="none" stroke="black" d="M541.04,-803.9C566.63,-786.71 593.87,-768.42 615.82,-753.67"/>
<polygon fill="black" stroke="black" points="617.91,-756.48 624.26,-748 614.01,-750.67 617.91,-756.48"/>
<text text-anchor="middle" x="593.5" y="-774.8" font-family="Times New Roman,serif" font-size="14.00">?</text>
<polyline fill="none" stroke="black" points="597,-771 590,-771 588.68,-771.9 "/>
</g>
<!-- tamOE -->
<g id="node3" class="node">
<title>tamOE</title>
<text text-anchor="start" x="12.5" y="-275.8" font-family="Times New Roman,serif" font-weight="bold" font-size="14.00">Old English</text>
<text text-anchor="start" x="24" y="-261.8" font-family="Times New Roman,serif" font-size="14.00" fill="red">tam, tom</text>
</g>
<!-- tamazGmc&#45;&gt;tamOE -->
<g id="edge2" class="edge">
<title>tamazGmc&#45;&gt;tamOE</title>
<path fill="none" stroke="black" d="M71.24,-488.87C67.11,-448.81 56.8,-348.75 51.81,-300.23"/>
<polygon fill="black" stroke="black" points="55.27,-299.75 50.77,-290.16 48.31,-300.46 55.27,-299.75"/>
</g>
<!-- tameME -->
<g id="node4" class="node">
<title>tameME</title>
<text text-anchor="start" x="14.5" y="-154.8" font-family="Times New Roman,serif" font-weight="bold" font-size="14.00">Middle</text>
<text text-anchor="start" x="13" y="-140.8" font-family="Times New Roman,serif" font-weight="bold" font-size="14.00">English</text>
<text text-anchor="start" x="8" y="-126.8" font-family="Times New Roman,serif" font-size="14.00" fill="red">tame, tom</text>
</g>
<!-- tamOE&#45;&gt;tameME -->
<g id="edge3" class="edge">
<title>tamOE&#45;&gt;tameME</title>
<path fill="none" stroke="black" d="M47.22,-253.74C45.26,-234.72 42.05,-203.63 39.56,-179.55"/>
<polygon fill="black" stroke="black" points="43.02,-178.97 38.52,-169.39 36.06,-179.69 43.02,-178.97"/>
</g>
<!-- tame -->
<g id="node5" class="node">
<title>tame</title>
<text text-anchor="start" x="10.5" y="-48.8" font-family="Times New Roman,serif" font-weight="bold" font-size="14.00">Modern</text>
<text text-anchor="start" x="12" y="-34.8" font-family="Times New Roman,serif" font-weight="bold" font-size="14.00">English</text>
<text text-anchor="start" x="21.5" y="-20.8" font-family="Times New Roman,serif" font-size="14.00" fill="red">tame</text>
</g>
<!-- tameME&#45;&gt;tame -->
<g id="edge4" class="edge">
<title>tameME&#45;&gt;tame</title>
<path fill="none" stroke="black" d="M35.77,-118.88C35.64,-105.46 35.48,-88.51 35.33,-73.69"/>
<polygon fill="black" stroke="black" points="38.83,-73.32 35.23,-63.35 31.83,-73.38 38.83,-73.32"/>
</g>
<!-- timramGmc -->
<g id="node7" class="node">
<title>timramGmc</title>
<text text-anchor="start" x="150.5" y="-516.8" font-family="Times New Roman,serif" font-weight="bold" font-size="14.00">Germanic</text>
<text text-anchor="start" x="141" y="-502.8" font-family="Times New Roman,serif" font-size="14.00" fill="red">timram/temran</text>
<text text-anchor="start" x="163.5" y="-490.4" font-family="Times New Roman,serif" font-size="12.00">building</text>
</g>
<!-- demrom&#45;&gt;timramGmc -->
<g id="edge6" class="edge">
<title>demrom&#45;&gt;timramGmc</title>
<path fill="none" stroke="black" d="M274.63,-638.73C257.21,-614.41 225.15,-569.64 203.46,-539.35"/>
<polygon fill="black" stroke="black" points="206.3,-537.31 197.63,-531.22 200.61,-541.39 206.3,-537.31"/>
</g>
<!-- timberOE -->
<g id="node8" class="node">
<title>timberOE</title>
<text text-anchor="start" x="89.5" y="-348.8" font-family="Times New Roman,serif" font-weight="bold" font-size="14.00">Old English</text>
<text text-anchor="start" x="108" y="-334.8" font-family="Times New Roman,serif" font-size="14.00" fill="red">timber</text>
</g>
<!-- timramGmc&#45;&gt;timberOE -->
<g id="edge7" class="edge">
<title>timramGmc&#45;&gt;timberOE</title>
<path fill="none" stroke="black" d="M173,-482.73C162.99,-453.61 145.88,-403.82 135.29,-373.04"/>
<polygon fill="black" stroke="black" points="138.54,-371.7 131.97,-363.38 131.92,-373.98 138.54,-371.7"/>
</g>
<!-- timberME -->
<g id="node9" class="node">
<title>timberME</title>
<text text-anchor="start" x="102.5" y="-154.8" font-family="Times New Roman,serif" font-weight="bold" font-size="14.00">Middle</text>
<text text-anchor="start" x="101" y="-140.8" font-family="Times New Roman,serif" font-weight="bold" font-size="14.00">English</text>
<text text-anchor="start" x="106" y="-126.8" font-family="Times New Roman,serif" font-size="14.00" fill="red">timber</text>
</g>
<!-- timberOE&#45;&gt;timberME -->
<g id="edge8" class="edge">
<title>timberOE&#45;&gt;timberME</title>
<path fill="none" stroke="black" d="M125.83,-326.69C125.5,-293.91 124.78,-222.24 124.35,-179.36"/>
<polygon fill="black" stroke="black" points="127.84,-179.09 124.24,-169.12 120.84,-179.16 127.84,-179.09"/>
</g>
<!-- timber -->
<g id="node10" class="node">
<title>timber</title>
<text text-anchor="start" x="93.5" y="-48.8" font-family="Times New Roman,serif" font-weight="bold" font-size="14.00">Modern</text>
<text text-anchor="start" x="95" y="-34.8" font-family="Times New Roman,serif" font-weight="bold" font-size="14.00">English</text>
<text text-anchor="start" x="100" y="-20.8" font-family="Times New Roman,serif" font-size="14.00" fill="red">timber</text>
</g>
<!-- timberME&#45;&gt;timber -->
<g id="edge9" class="edge">
<title>timberME&#45;&gt;timber</title>
<path fill="none" stroke="black" d="M122.61,-118.88C121.83,-105.46 120.86,-88.51 120,-73.69"/>
<polygon fill="black" stroke="black" points="123.48,-73.13 119.4,-63.35 116.49,-73.54 123.48,-73.13"/>
</g>
<!-- danterOF -->
<g id="node12" class="node">
<title>danterOF</title>
<text text-anchor="start" x="189" y="-348.8" font-family="Times New Roman,serif" font-weight="bold" font-size="14.00">Old French</text>
<text text-anchor="start" x="206.5" y="-334.8" font-family="Times New Roman,serif" font-size="14.00" fill="red">danter</text>
</g>
<!-- domareL&#45;&gt;danterOF -->
<g id="edge11" class="edge">
<title>domareL&#45;&gt;danterOF</title>
<path fill="none" stroke="black" d="M271.09,-475.91C260.34,-446.24 244.05,-401.32 233.73,-372.83"/>
<polygon fill="black" stroke="black" points="236.91,-371.35 230.21,-363.14 230.33,-373.74 236.91,-371.35"/>
</g>
<!-- indomitabilis -->
<g id="node15" class="node">
<title>indomitabilis</title>
<text text-anchor="start" x="249.5" y="-213.8" font-family="Times New Roman,serif" font-size="14.00" fill="red">indomitābilis</text>
<text text-anchor="start" x="262" y="-201.4" font-family="Times New Roman,serif" font-size="12.00">untamable</text>
</g>
<!-- domareL&#45;&gt;indomitabilis -->
<g id="edge14" class="edge">
<title>domareL&#45;&gt;indomitabilis</title>
<path fill="none" stroke="black" d="M282.31,-475.92C282.89,-418.57 284.16,-294.4 284.72,-239.3"/>
<polygon fill="black" stroke="black" points="288.22,-239.27 284.82,-229.24 281.22,-239.2 288.22,-239.27"/>
</g>
<!-- dauntenME -->
<g id="node13" class="node">
<title>dauntenME</title>
<text text-anchor="start" x="191.5" y="-154.8" font-family="Times New Roman,serif" font-weight="bold" font-size="14.00">Middle</text>
<text text-anchor="start" x="190" y="-140.8" font-family="Times New Roman,serif" font-weight="bold" font-size="14.00">English</text>
<text text-anchor="start" x="191" y="-126.8" font-family="Times New Roman,serif" font-size="14.00" fill="red">daunten</text>
</g>
<!-- danterOF&#45;&gt;dauntenME -->
<g id="edge12" class="edge">
<title>danterOF&#45;&gt;dauntenME</title>
<path fill="none" stroke="black" stroke-dasharray="5,2" d="M223.04,-326.69C221.23,-293.91 217.27,-222.24 214.9,-179.36"/>
<polygon fill="black" stroke="black" points="218.38,-178.91 214.33,-169.12 211.39,-179.3 218.38,-178.91"/>
</g>
<!-- daunt -->
<g id="node14" class="node">
<title>daunt</title>
<text text-anchor="start" x="176.5" y="-48.8" font-family="Times New Roman,serif" font-weight="bold" font-size="14.00">Modern</text>
<text text-anchor="start" x="178" y="-34.8" font-family="Times New Roman,serif" font-weight="bold" font-size="14.00">English</text>
<text text-anchor="start" x="185.5" y="-20.8" font-family="Times New Roman,serif" font-size="14.00" fill="red">daunt</text>
</g>
<!-- dauntenME&#45;&gt;daunt -->
<g id="edge13" class="edge">
<title>dauntenME&#45;&gt;daunt</title>
<path fill="none" stroke="black" d="M210.22,-118.88C208.67,-105.46 206.71,-88.51 205,-73.69"/>
<polygon fill="black" stroke="black" points="208.43,-72.88 203.81,-63.35 201.48,-73.69 208.43,-72.88"/>
</g>
<!-- indomitable -->
<g id="node16" class="node">
<title>indomitable</title>
<text text-anchor="start" x="267.5" y="-48.8" font-family="Times New Roman,serif" font-weight="bold" font-size="14.00">Modern</text>
<text text-anchor="start" x="269" y="-34.8" font-family="Times New Roman,serif" font-weight="bold" font-size="14.00">English</text>
<text text-anchor="start" x="259.5" y="-20.8" font-family="Times New Roman,serif" font-size="14.00" fill="red">indomitable</text>
</g>
<!-- indomitabilis&#45;&gt;indomitable -->
<g id="edge15" class="edge">
<title>indomitabilis&#45;&gt;indomitable</title>
<path fill="none" stroke="black" stroke-dasharray="5,2" d="M285.7,-192.98C286.84,-165.15 289.12,-109.37 290.6,-73.14"/>
<polygon fill="black" stroke="black" points="294.1,-73.16 291.02,-63.03 287.11,-72.88 294.1,-73.16"/>
</g>
<!-- domesticusL -->
<g id="node18" class="node">
<title>domesticusL</title>
<text text-anchor="start" x="318" y="-424.8" font-family="Times New Roman,serif" font-size="14.00" fill="red">domesticus</text>
<text text-anchor="start" x="322.5" y="-412.4" font-family="Times New Roman,serif" font-size="12.00">belonging to</text>
<text text-anchor="start" x="318.5" y="-400.4" font-family="Times New Roman,serif" font-size="12.00">the household</text>
</g>
<!-- domusL&#45;&gt;domesticusL -->
<g id="edge17" class="edge">
<title>domusL&#45;&gt;domesticusL</title>
<path fill="none" stroke="black" d="M431.49,-483.54C417.45,-472.07 400.2,-457.99 385.19,-445.73"/>
<polygon fill="black" stroke="black" points="387.08,-442.76 377.12,-439.14 382.65,-448.18 387.08,-442.76"/>
</g>
<!-- dominusL -->
<g id="node22" class="node">
<title>dominusL</title>
<g id="a_node22"><a xlink:href="dom-build1.svg" xlink:title="&lt;font color=&quot;red&quot;&gt;dominus&lt;/font&gt;&lt;br/&gt;&lt;font point&#45;size=&quot;12&quot;&gt;lord, master&lt;/font&gt;">
<path fill="none" stroke="black" stroke-dasharray="5,2" d="M467.5,-434C467.5,-434 420.5,-434 420.5,-434 414.5,-434 408.5,-428 408.5,-422 408.5,-422 408.5,-410 408.5,-410 408.5,-404 414.5,-398 420.5,-398 420.5,-398 467.5,-398 467.5,-398 473.5,-398 479.5,-404 479.5,-410 479.5,-410 479.5,-422 479.5,-422 479.5,-428 473.5,-434 467.5,-434"/>
<text text-anchor="start" x="419.5" y="-418.8" font-family="Times New Roman,serif" font-size="14.00" fill="red">dominus</text>
<text text-anchor="start" x="416.5" y="-406.4" font-family="Times New Roman,serif" font-size="12.00">lord, master</text>
</a>
</g>
</g>
<!-- domusL&#45;&gt;dominusL -->
<g id="edge21" class="edge">
<title>domusL&#45;&gt;dominusL</title>
<path fill="none" stroke="black" d="M455.06,-482.62C453.07,-470.83 450.65,-456.46 448.58,-444.18"/>
<polygon fill="black" stroke="black" points="451.99,-443.32 446.87,-434.04 445.08,-444.48 451.99,-443.32"/>
</g>
<!-- dome2 -->
<g id="node33" class="node">
<title>dome2</title>
<text text-anchor="start" x="452.5" y="-61.8" font-family="Times New Roman,serif" font-weight="bold" font-size="14.00">Modern</text>
<text text-anchor="start" x="454" y="-47.8" font-family="Times New Roman,serif" font-weight="bold" font-size="14.00">English</text>
<text text-anchor="start" x="445.5" y="-33.8" font-family="Times New Roman,serif" font-size="14.00">(obsolete?)</text>
<text text-anchor="start" x="461" y="-19.8" font-family="Times New Roman,serif" font-size="14.00" fill="red">dome</text>
<text text-anchor="start" x="463.5" y="-7.4" font-family="Times New Roman,serif" font-size="12.00">house</text>
</g>
<!-- domusL&#45;&gt;dome2 -->
<g id="edge32" class="edge">
<title>domusL&#45;&gt;dome2</title>
<path fill="none" stroke="black" stroke-dasharray="5,2" d="M480.06,-482.95C493.35,-466 508,-441.69 508,-417 508,-417 508,-417 508,-143 508,-123.76 503.07,-103.33 497.14,-85.71"/>
<polygon fill="black" stroke="black" points="500.42,-84.49 493.77,-76.24 493.83,-86.84 500.42,-84.49"/>
</g>
<!-- duomoI -->
<g id="node34" class="node">
<title>duomoI</title>
<text text-anchor="start" x="546" y="-281.8" font-family="Times New Roman,serif" font-weight="bold" font-size="14.00">Italian</text>
<text text-anchor="start" x="546" y="-267.8" font-family="Times New Roman,serif" font-size="14.00" fill="red">duomo</text>
<text text-anchor="start" x="545" y="-255.4" font-family="Times New Roman,serif" font-size="12.00">cathedral</text>
</g>
<!-- domusL&#45;&gt;duomoI -->
<g id="edge33" class="edge">
<title>domusL&#45;&gt;duomoI</title>
<path fill="none" stroke="black" d="M486.79,-490.84C499.32,-482.67 513.23,-471.49 522,-458 552.42,-411.23 561.85,-345.58 564.75,-306.37"/>
<polygon fill="black" stroke="black" points="568.25,-306.49 565.39,-296.28 561.26,-306.04 568.25,-306.49"/>
</g>
<!-- domestiqueMF -->
<g id="node19" class="node">
<title>domestiqueMF</title>
<text text-anchor="start" x="334.5" y="-282.8" font-family="Times New Roman,serif" font-weight="bold" font-size="14.00">Middle</text>
<text text-anchor="start" x="334" y="-268.8" font-family="Times New Roman,serif" font-weight="bold" font-size="14.00">French</text>
<text text-anchor="start" x="323.5" y="-254.8" font-family="Times New Roman,serif" font-size="14.00" fill="red">domestique</text>
</g>
<!-- domesticusL&#45;&gt;domestiqueMF -->
<g id="edge18" class="edge">
<title>domesticusL&#45;&gt;domestiqueMF</title>
<path fill="none" stroke="black" d="M350.94,-392.81C351.9,-369.95 353.42,-334 354.54,-307.44"/>
<polygon fill="black" stroke="black" points="358.04,-307.55 354.97,-297.41 351.05,-307.25 358.04,-307.55"/>
</g>
<!-- domesticME -->
<g id="node20" class="node">
<title>domesticME</title>
<text text-anchor="start" x="348.5" y="-154.8" font-family="Times New Roman,serif" font-weight="bold" font-size="14.00">Middle</text>
<text text-anchor="start" x="347" y="-140.8" font-family="Times New Roman,serif" font-weight="bold" font-size="14.00">English</text>
<text text-anchor="start" x="344" y="-126.8" font-family="Times New Roman,serif" font-size="14.00" fill="red">domestic</text>
</g>
<!-- domestiqueMF&#45;&gt;domesticME -->
<g id="edge19" class="edge">
<title>domestiqueMF&#45;&gt;domesticME</title>
<path fill="none" stroke="black" stroke-dasharray="5,2" d="M358.7,-246.71C360.83,-227.53 363.83,-200.55 366.2,-179.19"/>
<polygon fill="black" stroke="black" points="369.68,-179.54 367.31,-169.22 362.73,-178.77 369.68,-179.54"/>
</g>
<!-- domestic -->
<g id="node21" class="node">
<title>domestic</title>
<text text-anchor="start" x="360.5" y="-48.8" font-family="Times New Roman,serif" font-weight="bold" font-size="14.00">Modern</text>
<text text-anchor="start" x="362" y="-34.8" font-family="Times New Roman,serif" font-weight="bold" font-size="14.00">English</text>
<text text-anchor="start" x="359" y="-20.8" font-family="Times New Roman,serif" font-size="14.00" fill="red">domestic</text>
</g>
<!-- domesticME&#45;&gt;domestic -->
<g id="edge20" class="edge">
<title>domesticME&#45;&gt;domestic</title>
<path fill="none" stroke="black" d="M373.48,-118.88C375.43,-105.33 377.91,-88.18 380.06,-73.26"/>
<polygon fill="black" stroke="black" points="383.52,-73.75 381.49,-63.35 376.6,-72.75 383.52,-73.75"/>
</g>
<!-- domiciliumL -->
<g id="node24" class="node">
<title>domiciliumL</title>
<text text-anchor="start" x="566.5" y="-510.8" font-family="Times New Roman,serif" font-weight="bold" font-size="14.00">Latin</text>
<text text-anchor="start" x="552" y="-496.8" font-family="Times New Roman,serif" font-size="14.00" fill="red">domicilium</text>
</g>
<!-- domocolyon&#45;&gt;domiciliumL -->
<g id="edge23" class="edge">
<title>domocolyon&#45;&gt;domiciliumL</title>
<path fill="none" stroke="black" d="M551.2,-638.73C557.41,-613.22 569.08,-565.23 576.42,-535.03"/>
<polygon fill="black" stroke="black" points="579.86,-535.7 578.83,-525.16 573.06,-534.05 579.86,-535.7"/>
</g>
<!-- domicileMF -->
<g id="node25" class="node">
<title>domicileMF</title>
<text text-anchor="start" x="603.5" y="-355.8" font-family="Times New Roman,serif" font-weight="bold" font-size="14.00">Middle</text>
<text text-anchor="start" x="603" y="-341.8" font-family="Times New Roman,serif" font-weight="bold" font-size="14.00">French</text>
<text text-anchor="start" x="601" y="-327.8" font-family="Times New Roman,serif" font-size="14.00" fill="red">domicile</text>
</g>
<!-- domiciliumL&#45;&gt;domicileMF -->
<g id="edge24" class="edge">
<title>domiciliumL&#45;&gt;domicileMF</title>
<path fill="none" stroke="black" d="M587.49,-488.88C594.28,-463.01 607.29,-413.47 616.06,-380.07"/>
<polygon fill="black" stroke="black" points="619.48,-380.83 618.63,-370.27 612.71,-379.05 619.48,-380.83"/>
</g>
<!-- domicylieME -->
<g id="node26" class="node">
<title>domicylieME</title>
<text text-anchor="start" x="628.5" y="-154.8" font-family="Times New Roman,serif" font-weight="bold" font-size="14.00">Middle</text>
<text text-anchor="start" x="627" y="-140.8" font-family="Times New Roman,serif" font-weight="bold" font-size="14.00">English</text>
<text text-anchor="start" x="622.5" y="-126.8" font-family="Times New Roman,serif" font-size="14.00" fill="red">domicylie</text>
</g>
<!-- domicileMF&#45;&gt;domicylieME -->
<g id="edge25" class="edge">
<title>domicileMF&#45;&gt;domicylieME</title>
<path fill="none" stroke="black" stroke-dasharray="5,2" d="M628.02,-320C632.43,-284.88 640.66,-219.35 645.7,-179.2"/>
<polygon fill="black" stroke="black" points="649.2,-179.45 646.97,-169.09 642.25,-178.57 649.2,-179.45"/>
</g>
<!-- domicile -->
<g id="node27" class="node">
<title>domicile</title>
<text text-anchor="start" x="625.5" y="-48.8" font-family="Times New Roman,serif" font-weight="bold" font-size="14.00">Modern</text>
<text text-anchor="start" x="627" y="-34.8" font-family="Times New Roman,serif" font-weight="bold" font-size="14.00">English</text>
<text text-anchor="start" x="626" y="-20.8" font-family="Times New Roman,serif" font-size="14.00" fill="red">domicile</text>
</g>
<!-- domicylieME&#45;&gt;domicile -->
<g id="edge26" class="edge">
<title>domicylieME&#45;&gt;domicile</title>
<path fill="none" stroke="black" d="M650,-118.88C650,-105.46 650,-88.51 650,-73.69"/>
<polygon fill="black" stroke="black" points="653.5,-73.35 650,-63.35 646.5,-73.35 653.5,-73.35"/>
</g>
<!-- domaG -->
<g id="node29" class="node">
<title>domaG</title>
<text text-anchor="start" x="678" y="-516.8" font-family="Times New Roman,serif" font-weight="bold" font-size="14.00">Greek</text>
<text text-anchor="start" x="682" y="-502.8" font-family="Times New Roman,serif" font-size="14.00" fill="red">dōma</text>
<text text-anchor="start" x="684.5" y="-490.4" font-family="Times New Roman,serif" font-size="12.00">house</text>
</g>
<!-- domn&#45;&gt;domaG -->
<g id="edge28" class="edge">
<title>domn&#45;&gt;domaG</title>
<path fill="none" stroke="black" d="M583.64,-704.87C589.97,-696.08 597.62,-685.12 604,-675 632.86,-629.21 663.01,-574.16 681.15,-540.13"/>
<polygon fill="black" stroke="black" points="684.34,-541.58 685.93,-531.11 678.15,-538.3 684.34,-541.58"/>
</g>
<!-- domaP -->
<g id="node30" class="node">
<title>domaP</title>
<text text-anchor="start" x="694" y="-354.8" font-family="Times New Roman,serif" font-weight="bold" font-size="14.00">Provençal</text>
<text text-anchor="start" x="709" y="-340.8" font-family="Times New Roman,serif" font-size="14.00" fill="red">doma</text>
<text text-anchor="start" x="695" y="-328.4" font-family="Times New Roman,serif" font-size="12.00">rounded roof</text>
</g>
<!-- domaG&#45;&gt;domaP -->
<g id="edge29" class="edge">
<title>domaG&#45;&gt;domaP</title>
<path fill="none" stroke="black" stroke-dasharray="5,2" d="M701.93,-482.73C706.54,-455.4 714.22,-409.87 719.44,-378.92"/>
<polygon fill="black" stroke="black" points="722.9,-379.48 721.11,-369.03 716,-378.31 722.9,-379.48"/>
</g>
<!-- dome1F -->
<g id="node31" class="node">
<title>dome1F</title>
<text text-anchor="start" x="712" y="-147.8" font-family="Times New Roman,serif" font-weight="bold" font-size="14.00">French</text>
<text text-anchor="start" x="718" y="-133.8" font-family="Times New Roman,serif" font-size="14.00" fill="red">dôme</text>
</g>
<!-- domaP&#45;&gt;dome1F -->
<g id="edge30" class="edge">
<title>domaP&#45;&gt;dome1F</title>
<path fill="none" stroke="black" stroke-dasharray="5,2" d="M726.05,-320.78C727.72,-283.86 730.97,-211.91 732.76,-172.47"/>
<polygon fill="black" stroke="black" points="736.26,-172.42 733.22,-162.27 729.27,-172.1 736.26,-172.42"/>
</g>
<!-- dome1 -->
<g id="node32" class="node">
<title>dome1</title>
<text text-anchor="start" x="714.5" y="-54.8" font-family="Times New Roman,serif" font-weight="bold" font-size="14.00">Modern</text>
<text text-anchor="start" x="716" y="-40.8" font-family="Times New Roman,serif" font-weight="bold" font-size="14.00">English</text>
<text text-anchor="start" x="723" y="-26.8" font-family="Times New Roman,serif" font-size="14.00" fill="red">dome</text>
<text text-anchor="start" x="709" y="-14.4" font-family="Times New Roman,serif" font-size="12.00">rounded roof</text>
</g>
<!-- dome1F&#45;&gt;dome1 -->
<g id="edge31" class="edge">
<title>dome1F&#45;&gt;dome1</title>
<path fill="none" stroke="black" stroke-dasharray="5,2" d="M734.83,-125.83C735.43,-113.24 736.28,-95.61 737.05,-79.52"/>
<polygon fill="black" stroke="black" points="740.56,-79.4 737.55,-69.24 733.57,-79.06 740.56,-79.4"/>
</g>
<!-- dome3F -->
<g id="node35" class="node">
<title>dome3F</title>
<text text-anchor="start" x="544" y="-147.8" font-family="Times New Roman,serif" font-weight="bold" font-size="14.00">French</text>
<text text-anchor="start" x="550" y="-133.8" font-family="Times New Roman,serif" font-size="14.00" fill="red">dôme</text>
</g>
<!-- duomoI&#45;&gt;dome3F -->
<g id="edge34" class="edge">
<title>duomoI&#45;&gt;dome3F</title>
<path fill="none" stroke="black" stroke-dasharray="5,2" d="M566,-247.89C566,-226.64 566,-195.11 566,-172.56"/>
<polygon fill="black" stroke="black" points="569.5,-172.3 566,-162.3 562.5,-172.3 569.5,-172.3"/>
</g>
<!-- dome3 -->
<g id="node36" class="node">
<title>dome3</title>
<text text-anchor="start" x="542.5" y="-54.8" font-family="Times New Roman,serif" font-weight="bold" font-size="14.00">Modern</text>
<text text-anchor="start" x="544" y="-40.8" font-family="Times New Roman,serif" font-weight="bold" font-size="14.00">English</text>
<text text-anchor="start" x="551" y="-26.8" font-family="Times New Roman,serif" font-size="14.00" fill="red">dome</text>
<text text-anchor="start" x="546" y="-14.4" font-family="Times New Roman,serif" font-size="12.00">cathedral</text>
</g>
<!-- dome3F&#45;&gt;dome3 -->
<g id="edge35" class="edge">
<title>dome3F&#45;&gt;dome3</title>
<path fill="none" stroke="black" stroke-dasharray="5,2" d="M566.17,-125.83C566.29,-113.24 566.46,-95.61 566.61,-79.52"/>
<polygon fill="black" stroke="black" points="570.11,-79.28 566.71,-69.24 563.11,-79.21 570.11,-79.28"/>
</g>
<!-- adamasG -->
<g id="node38" class="node">
<title>adamasG</title>
<text text-anchor="start" x="724.5" y="-606.8" font-family="Times New Roman,serif" font-size="14.00" fill="red">adamas</text>
<text text-anchor="start" x="716.5" y="-594.4" font-family="Times New Roman,serif" font-size="12.00">unbreakable,</text>
<text text-anchor="start" x="712" y="-582.4" font-family="Times New Roman,serif" font-size="12.00">hard substance</text>
</g>
<!-- damanG&#45;&gt;adamasG -->
<g id="edge37" class="edge">
<title>damanG&#45;&gt;adamasG</title>
<path fill="none" stroke="black" d="M680.38,-692.85C693.79,-673.67 711.31,-648.61 724.87,-629.22"/>
<polygon fill="black" stroke="black" points="727.75,-631.22 730.61,-621.01 722.01,-627.2 727.75,-631.22"/>
</g>
<!-- adamansL -->
<g id="node39" class="node">
<title>adamansL</title>
<text text-anchor="start" x="815.5" y="-517.8" font-family="Times New Roman,serif" font-weight="bold" font-size="14.00">Latin</text>
<text text-anchor="start" x="805.5" y="-503.8" font-family="Times New Roman,serif" font-size="14.00" fill="red">adamāns,</text>
<text text-anchor="start" x="806" y="-489.8" font-family="Times New Roman,serif" font-size="14.00" fill="red">adamant&#45;</text>
</g>
<!-- adamasG&#45;&gt;adamansL -->
<g id="edge38" class="edge">
<title>adamasG&#45;&gt;adamansL</title>
<path fill="none" stroke="black" stroke-dasharray="5,2" d="M767.26,-575C777.54,-564.36 790.07,-551.39 801.36,-539.7"/>
<polygon fill="black" stroke="black" points="804.14,-541.87 808.57,-532.25 799.1,-537.01 804.14,-541.87"/>
</g>
<!-- adamauntOF -->
<g id="node40" class="node">
<title>adamauntOF</title>
<text text-anchor="start" x="797" y="-360.8" font-family="Times New Roman,serif" font-weight="bold" font-size="14.00">Old French</text>
<text text-anchor="start" x="805" y="-346.8" font-family="Times New Roman,serif" font-size="14.00" fill="red">adamaunt</text>
<text text-anchor="start" x="810.5" y="-334.4" font-family="Times New Roman,serif" font-size="12.00">diamond,</text>
<text text-anchor="start" x="808" y="-322.4" font-family="Times New Roman,serif" font-size="12.00">hard metal</text>
</g>
<!-- adamansL&#45;&gt;adamauntOF -->
<g id="edge39" class="edge">
<title>adamansL&#45;&gt;adamauntOF</title>
<path fill="none" stroke="black" d="M832,-481.7C832,-456.13 832,-415.48 832,-385.33"/>
<polygon fill="black" stroke="black" points="835.5,-385.15 832,-375.15 828.5,-385.15 835.5,-385.15"/>
</g>
<!-- diamantemL -->
<g id="node45" class="node">
<title>diamantemL</title>
<text text-anchor="start" x="873.5" y="-419.8" font-family="Times New Roman,serif" font-size="14.00" fill="red">adimantem</text>
<text text-anchor="start" x="873.5" y="-404.8" font-family="Times New Roman,serif" font-size="14.00" fill="red">diamantem</text>
</g>
<!-- adamansL&#45;&gt;diamantemL -->
<g id="edge44" class="edge">
<title>adamansL&#45;&gt;diamantemL</title>
<path fill="none" stroke="black" d="M851.67,-481.68C861.35,-469.72 873.02,-455.29 882.88,-443.1"/>
<polygon fill="black" stroke="black" points="885.81,-445.05 889.38,-435.08 880.36,-440.65 885.81,-445.05"/>
</g>
<!-- adamantME -->
<g id="node41" class="node">
<title>adamantME</title>
<text text-anchor="start" x="810.5" y="-160.8" font-family="Times New Roman,serif" font-weight="bold" font-size="14.00">Middle</text>
<text text-anchor="start" x="809" y="-146.8" font-family="Times New Roman,serif" font-weight="bold" font-size="14.00">English</text>
<text text-anchor="start" x="808.5" y="-132.8" font-family="Times New Roman,serif" font-size="14.00" fill="red">adamant</text>
<text text-anchor="start" x="790" y="-120.4" font-family="Times New Roman,serif" font-size="12.00">hard precious gem</text>
</g>
<!-- adamauntOF&#45;&gt;adamantME -->
<g id="edge40" class="edge">
<title>adamauntOF&#45;&gt;adamantME</title>
<path fill="none" stroke="black" stroke-dasharray="5,2" d="M832,-314.64C832,-280.44 832,-223.77 832,-185.43"/>
<polygon fill="black" stroke="black" points="835.5,-185.14 832,-175.14 828.5,-185.14 835.5,-185.14"/>
</g>
<!-- adamant -->
<g id="node42" class="node">
<title>adamant</title>
<text text-anchor="start" x="807.5" y="-48.8" font-family="Times New Roman,serif" font-weight="bold" font-size="14.00">Modern</text>
<text text-anchor="start" x="809" y="-34.8" font-family="Times New Roman,serif" font-weight="bold" font-size="14.00">English</text>
<text text-anchor="start" x="808.5" y="-20.8" font-family="Times New Roman,serif" font-size="14.00" fill="red">adamant</text>
</g>
<!-- adamantME&#45;&gt;adamant -->
<g id="edge41" class="edge">
<title>adamantME&#45;&gt;adamant</title>
<path fill="none" stroke="black" d="M832,-112.92C832,-100.55 832,-86.15 832,-73.36"/>
<polygon fill="black" stroke="black" points="835.5,-73.08 832,-63.08 828.5,-73.08 835.5,-73.08"/>
</g>
<!-- nIE -->
<g id="node43" class="node">
<title>nIE</title>
<g id="a_node43"><a xlink:href="ne-not.svg" xlink:title="&lt;b&gt;Indo&#45;European&lt;/b&gt;&lt;br/&gt;&lt;font color=&quot;red&quot;&gt;n̥&#45;&lt;/font&gt;&lt;br/&gt;&lt;font point&#45;size=&quot;12&quot;&gt;not&lt;/font&gt;">
<path fill="none" stroke="black" stroke-dasharray="5,2" d="M788.5,-884C788.5,-884 703.5,-884 703.5,-884 697.5,-884 691.5,-878 691.5,-872 691.5,-872 691.5,-848 691.5,-848 691.5,-842 697.5,-836 703.5,-836 703.5,-836 788.5,-836 788.5,-836 794.5,-836 800.5,-842 800.5,-848 800.5,-848 800.5,-872 800.5,-872 800.5,-878 794.5,-884 788.5,-884"/>
<text text-anchor="start" x="699.5" y="-869.8" font-family="Times New Roman,serif" font-weight="bold" font-size="14.00">Indo&#45;European</text>
<text text-anchor="start" x="740" y="-855.8" font-family="Times New Roman,serif" font-size="14.00" fill="red">n̥&#45;</text>
<text text-anchor="start" x="738.5" y="-843.4" font-family="Times New Roman,serif" font-size="12.00">not</text>
</a>
</g>
</g>
<!-- anG -->
<g id="node44" class="node">
<title>anG</title>
<text text-anchor="start" x="726" y="-726.8" font-family="Times New Roman,serif" font-weight="bold" font-size="14.00">Greek</text>
<text text-anchor="start" x="728" y="-712.8" font-family="Times New Roman,serif" font-size="14.00" fill="red">a&#45;, an&#45;</text>
</g>
<!-- nIE&#45;&gt;anG -->
<g id="edge42" class="edge">
<title>nIE&#45;&gt;anG</title>
<path fill="none" stroke="black" d="M746,-835.79C746,-812.41 746,-776.34 746,-751.53"/>
<polygon fill="black" stroke="black" points="749.5,-751.34 746,-741.34 742.5,-751.34 749.5,-751.34"/>
</g>
<!-- anG&#45;&gt;adamasG -->
<g id="edge43" class="edge">
<title>anG&#45;&gt;adamasG</title>
<path fill="none" stroke="black" d="M746,-704.9C746,-686.01 746,-655.15 746,-631.61"/>
<polygon fill="black" stroke="black" points="749.5,-631.37 746,-621.37 742.5,-631.37 749.5,-631.37"/>
</g>
<!-- diamantOF -->
<g id="node46" class="node">
<title>diamantOF</title>
<text text-anchor="start" x="883" y="-275.8" font-family="Times New Roman,serif" font-weight="bold" font-size="14.00">Old French</text>
<text text-anchor="start" x="896" y="-261.8" font-family="Times New Roman,serif" font-size="14.00" fill="red">diamant</text>
</g>
<!-- diamantemL&#45;&gt;diamantOF -->
<g id="edge45" class="edge">
<title>diamantemL&#45;&gt;diamantOF</title>
<path fill="none" stroke="black" d="M905.8,-396.73C908.21,-372.28 912.5,-328.74 915.3,-300.37"/>
<polygon fill="black" stroke="black" points="918.79,-300.61 916.29,-290.31 911.83,-299.92 918.79,-300.61"/>
</g>
<!-- diamauntME -->
<g id="node47" class="node">
<title>diamauntME</title>
<text text-anchor="start" x="912.5" y="-154.8" font-family="Times New Roman,serif" font-weight="bold" font-size="14.00">Middle</text>
<text text-anchor="start" x="911" y="-140.8" font-family="Times New Roman,serif" font-weight="bold" font-size="14.00">English</text>
<text text-anchor="start" x="908.5" y="-126.8" font-family="Times New Roman,serif" font-size="14.00" fill="red">diamaunt</text>
</g>
<!-- diamantOF&#45;&gt;diamauntME -->
<g id="edge46" class="edge">
<title>diamantOF&#45;&gt;diamauntME</title>
<path fill="none" stroke="black" stroke-dasharray="5,2" d="M920.19,-253.74C922.61,-234.72 926.56,-203.63 929.61,-179.55"/>
<polygon fill="black" stroke="black" points="933.12,-179.75 930.9,-169.39 926.17,-178.86 933.12,-179.75"/>
</g>
<!-- diamond -->
<g id="node48" class="node">
<title>diamond</title>
<text text-anchor="start" x="909.5" y="-48.8" font-family="Times New Roman,serif" font-weight="bold" font-size="14.00">Modern</text>
<text text-anchor="start" x="911" y="-34.8" font-family="Times New Roman,serif" font-weight="bold" font-size="14.00">English</text>
<text text-anchor="start" x="909.5" y="-20.8" font-family="Times New Roman,serif" font-size="14.00" fill="red">diamond</text>
</g>
<!-- diamauntME&#45;&gt;diamond -->
<g id="edge47" class="edge">
<title>diamauntME&#45;&gt;diamond</title>
<path fill="none" stroke="black" d="M934,-118.88C934,-105.46 934,-88.51 934,-73.69"/>
<polygon fill="black" stroke="black" points="937.5,-73.35 934,-63.35 930.5,-73.35 937.5,-73.35"/>
</g>
</g>
</svg>
