<?xml version="1.0" encoding="UTF-8" standalone="no"?>
<!DOCTYPE svg PUBLIC "-//W3C//DTD SVG 1.1//EN"
 "http://www.w3.org/Graphics/SVG/1.1/DTD/svg11.dtd">
<!-- Generated by graphviz version 2.49.0 (20210828.1703)
 -->
<!-- Pages: 1 -->
<svg width="951pt" height="999pt"
 viewBox="0.00 0.00 951.00 999.00" xmlns="http://www.w3.org/2000/svg" xmlns:xlink="http://www.w3.org/1999/xlink">
<g id="graph0" class="graph" transform="scale(1 1) rotate(0) translate(4 995)">
<polygon fill="white" stroke="transparent" points="-4,4 -4,-995 947,-995 947,4 -4,4"/>
<!-- dam -->
<g id="node1" class="node">
<title>dam</title>
<g id="a_node1"><a xlink:title="Indo&#45;European &quot;dom&#45;/dem&#45;/dam&#45;&quot; build/tame">
<polygon fill="none" stroke="black" points="656.5,-987 365.5,-987 365.5,-883 656.5,-883 656.5,-987"/>
<polygon fill="none" stroke="black" points="660.5,-991 361.5,-991 361.5,-879 660.5,-879 660.5,-991"/>
<text text-anchor="start" x="433" y="-942.8" font-family="Times New Roman,serif" font-weight="bold" font-size="24.00">Indo&#45;European</text>
<text text-anchor="start" x="392" y="-914.6" font-family="Times New Roman,serif" font-size="18.00" fill="red">dom&#45;, dem&#45;, dam&#45;</text>
<text text-anchor="start" x="528" y="-915.2" font-family="Times New Roman,serif" font-size="16.00">to build, to tame</text>
</a>
</g>
</g>
<!-- tamazGmc -->
<g id="node2" class="node">
<title>tamazGmc</title>
<text text-anchor="start" x="40.5" y="-729.8" font-family="Times New Roman,serif" font-weight="bold" font-size="14.00">Germanic</text>
<text text-anchor="start" x="54.5" y="-715.8" font-family="Times New Roman,serif" font-size="14.00" fill="red">tamaz</text>
</g>
<!-- dam&#45;&gt;tamazGmc -->
<g id="edge1" class="edge">
<title>dam&#45;&gt;tamazGmc</title>
<path fill="none" stroke="black" d="M361.14,-904.25C307.87,-890 248.8,-869.81 199,-842 156.22,-818.11 115.71,-777.62 92.13,-751.61"/>
<polygon fill="black" stroke="black" points="94.64,-749.17 85.37,-744.04 89.41,-753.83 94.64,-749.17"/>
</g>
<!-- demrom -->
<g id="node6" class="node">
<title>demrom</title>
<text text-anchor="start" x="216.5" y="-814.3" font-family="Times New Roman,serif" font-size="14.00" fill="red">demrom</text>
</g>
<!-- dam&#45;&gt;demrom -->
<g id="edge5" class="edge">
<title>dam&#45;&gt;demrom</title>
<path fill="none" stroke="black" d="M361.37,-894.28C336.12,-885 310.75,-873.95 288,-861 279.52,-856.17 271.19,-849.69 263.91,-843.27"/>
<polygon fill="black" stroke="black" points="266.19,-840.61 256.47,-836.4 261.45,-845.75 266.19,-840.61"/>
</g>
<!-- domareL -->
<g id="node11" class="node">
<title>domareL</title>
<text text-anchor="start" x="261.5" y="-742.8" font-family="Times New Roman,serif" font-weight="bold" font-size="14.00">Latin</text>
<text text-anchor="start" x="256.5" y="-728.8" font-family="Times New Roman,serif" font-size="14.00" fill="red">domāre</text>
<text text-anchor="start" x="253.5" y="-714.8" font-family="Times New Roman,serif" font-size="14.00" fill="red">domitāre</text>
<text text-anchor="start" x="261" y="-702.4" font-family="Times New Roman,serif" font-size="12.00">to tame</text>
</g>
<!-- dam&#45;&gt;domareL -->
<g id="edge10" class="edge">
<title>dam&#45;&gt;domareL</title>
<path fill="none" stroke="black" d="M393.72,-878.95C376.64,-868.09 360.09,-855.74 346,-842 323.93,-820.49 306.46,-790.33 294.75,-766.29"/>
<polygon fill="black" stroke="black" points="297.83,-764.62 290.39,-757.08 291.5,-767.62 297.83,-764.62"/>
</g>
<!-- domusL -->
<g id="node19" class="node">
<title>domusL</title>
<text text-anchor="start" x="576.5" y="-735.8" font-family="Times New Roman,serif" font-weight="bold" font-size="14.00">Latin</text>
<text text-anchor="start" x="573.5" y="-721.8" font-family="Times New Roman,serif" font-size="14.00" fill="red">domus</text>
<text text-anchor="start" x="579.5" y="-709.4" font-family="Times New Roman,serif" font-size="12.00">house</text>
</g>
<!-- dam&#45;&gt;domusL -->
<g id="edge18" class="edge">
<title>dam&#45;&gt;domusL</title>
<path fill="none" stroke="black" d="M532.87,-878.8C547.96,-840.7 567.51,-791.35 580.15,-759.43"/>
<polygon fill="black" stroke="black" points="583.41,-760.71 583.84,-750.12 576.9,-758.13 583.41,-760.71"/>
</g>
<!-- domocolyon -->
<g id="node25" class="node">
<title>domocolyon</title>
<text text-anchor="start" x="634" y="-820.8" font-family="Times New Roman,serif" font-size="14.00" fill="red">domo&#45;colyom</text>
<text text-anchor="start" x="640" y="-808.4" font-family="Times New Roman,serif" font-size="12.00">house&#45;dwelling</text>
</g>
<!-- dam&#45;&gt;domocolyon -->
<g id="edge24" class="edge">
<title>dam&#45;&gt;domocolyon</title>
<path fill="none" stroke="black" d="M589.16,-878.86C607.6,-865.85 626.27,-852.68 641.38,-842.01"/>
<polygon fill="black" stroke="black" points="643.69,-844.67 649.84,-836.05 639.65,-838.95 643.69,-844.67"/>
</g>
<!-- domn -->
<g id="node30" class="node">
<title>domn</title>
<text text-anchor="start" x="762.5" y="-814.3" font-family="Times New Roman,serif" font-size="14.00" fill="red">dōm&#45;n̥</text>
</g>
<!-- dam&#45;&gt;domn -->
<g id="edge29" class="edge">
<title>dam&#45;&gt;domn</title>
<path fill="none" stroke="black" d="M644.82,-878.92C673.34,-866.93 703.23,-854.19 731,-842 735.42,-840.06 740.03,-837.99 744.6,-835.92"/>
<polygon fill="black" stroke="black" points="746.19,-839.05 753.83,-831.71 743.28,-832.68 746.19,-839.05"/>
</g>
<!-- damanG -->
<g id="node39" class="node">
<title>damanG</title>
<text text-anchor="start" x="491" y="-741.8" font-family="Times New Roman,serif" font-weight="bold" font-size="14.00">Greek</text>
<text text-anchor="start" x="492.5" y="-727.8" font-family="Times New Roman,serif" font-size="14.00" fill="red">daman</text>
<text text-anchor="start" x="493" y="-715.4" font-family="Times New Roman,serif" font-size="12.00">subdue,</text>
<text text-anchor="start" x="483.5" y="-703.4" font-family="Times New Roman,serif" font-size="12.00">break down</text>
</g>
<!-- dam&#45;&gt;damanG -->
<g id="edge38" class="edge">
<title>dam&#45;&gt;damanG</title>
<path fill="none" stroke="black" d="M511,-878.8C511,-843.4 511,-798.28 511,-766.46"/>
<polygon fill="black" stroke="black" points="514.5,-766.21 511,-756.21 507.5,-766.21 514.5,-766.21"/>
<text text-anchor="middle" x="514.5" y="-814.3" font-family="Times New Roman,serif" font-size="14.00">?</text>
<polyline fill="none" stroke="black" points="518,-810.5 511,-810.5 511,-818.06 "/>
</g>
<!-- tamOE -->
<g id="node3" class="node">
<title>tamOE</title>
<text text-anchor="start" x="22.5" y="-579.8" font-family="Times New Roman,serif" font-weight="bold" font-size="14.00">Old English</text>
<text text-anchor="start" x="34" y="-565.8" font-family="Times New Roman,serif" font-size="14.00" fill="red">tam, tom</text>
</g>
<!-- tamazGmc&#45;&gt;tamOE -->
<g id="edge2" class="edge">
<title>tamazGmc&#45;&gt;tamOE</title>
<path fill="none" stroke="black" d="M69.6,-707.73C67.54,-682.33 63.67,-634.65 61.22,-604.43"/>
<polygon fill="black" stroke="black" points="64.69,-603.84 60.39,-594.16 57.71,-604.41 64.69,-603.84"/>
</g>
<!-- tameME -->
<g id="node4" class="node">
<title>tameME</title>
<text text-anchor="start" x="14.5" y="-154.8" font-family="Times New Roman,serif" font-weight="bold" font-size="14.00">Middle</text>
<text text-anchor="start" x="13" y="-140.8" font-family="Times New Roman,serif" font-weight="bold" font-size="14.00">English</text>
<text text-anchor="start" x="8" y="-126.8" font-family="Times New Roman,serif" font-size="14.00" fill="red">tame, tom</text>
</g>
<!-- tamOE&#45;&gt;tameME -->
<g id="edge3" class="edge">
<title>tamOE&#45;&gt;tameME</title>
<path fill="none" stroke="black" d="M55.67,-557.96C51.25,-533.81 44,-488.21 44,-449 44,-449 44,-449 44,-235 44,-216.6 42.32,-196.16 40.5,-179.42"/>
<polygon fill="black" stroke="black" points="43.92,-178.55 39.3,-169.01 36.97,-179.35 43.92,-178.55"/>
</g>
<!-- tame -->
<g id="node5" class="node">
<title>tame</title>
<text text-anchor="start" x="9.5" y="-48.8" font-family="Times New Roman,serif" font-weight="bold" font-size="14.00">Modern</text>
<text text-anchor="start" x="11" y="-34.8" font-family="Times New Roman,serif" font-weight="bold" font-size="14.00">English</text>
<text text-anchor="start" x="20.5" y="-20.8" font-family="Times New Roman,serif" font-size="14.00" fill="red">tame</text>
</g>
<!-- tameME&#45;&gt;tame -->
<g id="edge4" class="edge">
<title>tameME&#45;&gt;tame</title>
<path fill="none" stroke="black" d="M35.54,-118.88C35.28,-105.46 34.95,-88.51 34.67,-73.69"/>
<polygon fill="black" stroke="black" points="38.16,-73.28 34.47,-63.35 31.16,-73.42 38.16,-73.28"/>
</g>
<!-- timramGmc -->
<g id="node7" class="node">
<title>timramGmc</title>
<text text-anchor="start" x="147.5" y="-735.8" font-family="Times New Roman,serif" font-weight="bold" font-size="14.00">Germanic</text>
<text text-anchor="start" x="138" y="-721.8" font-family="Times New Roman,serif" font-size="14.00" fill="red">timram/temran</text>
<text text-anchor="start" x="160.5" y="-709.4" font-family="Times New Roman,serif" font-size="12.00">building</text>
</g>
<!-- demrom&#45;&gt;timramGmc -->
<g id="edge6" class="edge">
<title>demrom&#45;&gt;timramGmc</title>
<path fill="none" stroke="black" d="M228.05,-799.65C220,-787.97 209.17,-772.24 199.64,-758.41"/>
<polygon fill="black" stroke="black" points="202.46,-756.34 193.91,-750.09 196.7,-760.31 202.46,-756.34"/>
</g>
<!-- timberOE -->
<g id="node8" class="node">
<title>timberOE</title>
<text text-anchor="start" x="119.5" y="-579.8" font-family="Times New Roman,serif" font-weight="bold" font-size="14.00">Old English</text>
<text text-anchor="start" x="138" y="-565.8" font-family="Times New Roman,serif" font-size="14.00" fill="red">timber</text>
</g>
<!-- timramGmc&#45;&gt;timberOE -->
<g id="edge7" class="edge">
<title>timramGmc&#45;&gt;timberOE</title>
<path fill="none" stroke="black" d="M174.56,-701.88C170.64,-675.49 164.23,-632.38 160.07,-604.35"/>
<polygon fill="black" stroke="black" points="163.52,-603.79 158.59,-594.41 156.6,-604.82 163.52,-603.79"/>
</g>
<!-- timberME -->
<g id="node9" class="node">
<title>timberME</title>
<text text-anchor="start" x="103.5" y="-154.8" font-family="Times New Roman,serif" font-weight="bold" font-size="14.00">Middle</text>
<text text-anchor="start" x="102" y="-140.8" font-family="Times New Roman,serif" font-weight="bold" font-size="14.00">English</text>
<text text-anchor="start" x="107" y="-126.8" font-family="Times New Roman,serif" font-size="14.00" fill="red">timber</text>
</g>
<!-- timberOE&#45;&gt;timberME -->
<g id="edge8" class="edge">
<title>timberOE&#45;&gt;timberME</title>
<path fill="none" stroke="black" d="M152.23,-557.98C147.22,-533.86 139,-488.29 139,-449 139,-449 139,-449 139,-235 139,-216.41 136.05,-195.9 132.85,-179.17"/>
<polygon fill="black" stroke="black" points="136.27,-178.4 130.86,-169.29 129.41,-179.78 136.27,-178.4"/>
</g>
<!-- timber -->
<g id="node10" class="node">
<title>timber</title>
<text text-anchor="start" x="92.5" y="-48.8" font-family="Times New Roman,serif" font-weight="bold" font-size="14.00">Modern</text>
<text text-anchor="start" x="94" y="-34.8" font-family="Times New Roman,serif" font-weight="bold" font-size="14.00">English</text>
<text text-anchor="start" x="99" y="-20.8" font-family="Times New Roman,serif" font-size="14.00" fill="red">timber</text>
</g>
<!-- timberME&#45;&gt;timber -->
<g id="edge9" class="edge">
<title>timberME&#45;&gt;timber</title>
<path fill="none" stroke="black" d="M123.14,-118.88C122.11,-105.46 120.81,-88.51 119.67,-73.69"/>
<polygon fill="black" stroke="black" points="123.13,-73.05 118.87,-63.35 116.15,-73.59 123.13,-73.05"/>
</g>
<!-- danterOF -->
<g id="node12" class="node">
<title>danterOF</title>
<text text-anchor="start" x="180" y="-451.8" font-family="Times New Roman,serif" font-weight="bold" font-size="14.00">Old French</text>
<text text-anchor="start" x="197.5" y="-437.8" font-family="Times New Roman,serif" font-size="14.00" fill="red">danter</text>
</g>
<!-- domareL&#45;&gt;danterOF -->
<g id="edge11" class="edge">
<title>domareL&#45;&gt;danterOF</title>
<path fill="none" stroke="black" d="M256.35,-694.99C249.36,-683.88 242.31,-670.84 238,-658 216.98,-595.39 214.18,-516.9 214.35,-476.24"/>
<polygon fill="black" stroke="black" points="217.85,-476.08 214.46,-466.05 210.85,-476.01 217.85,-476.08"/>
</g>
<!-- indomitabilis -->
<g id="node15" class="node">
<title>indomitabilis</title>
<text text-anchor="start" x="255.5" y="-637.8" font-family="Times New Roman,serif" font-size="14.00" fill="red">indomitābilis</text>
<text text-anchor="start" x="268" y="-625.4" font-family="Times New Roman,serif" font-size="12.00">untamable</text>
</g>
<!-- domareL&#45;&gt;indomitabilis -->
<g id="edge14" class="edge">
<title>domareL&#45;&gt;indomitabilis</title>
<path fill="none" stroke="black" d="M282.4,-694.87C283.89,-684.65 285.55,-673.29 287.01,-663.3"/>
<polygon fill="black" stroke="black" points="290.52,-663.52 288.5,-653.12 283.59,-662.51 290.52,-663.52"/>
</g>
<!-- dauntenME -->
<g id="node13" class="node">
<title>dauntenME</title>
<text text-anchor="start" x="185.5" y="-154.8" font-family="Times New Roman,serif" font-weight="bold" font-size="14.00">Middle</text>
<text text-anchor="start" x="184" y="-140.8" font-family="Times New Roman,serif" font-weight="bold" font-size="14.00">English</text>
<text text-anchor="start" x="185" y="-126.8" font-family="Times New Roman,serif" font-size="14.00" fill="red">daunten</text>
</g>
<!-- danterOF&#45;&gt;dauntenME -->
<g id="edge12" class="edge">
<title>danterOF&#45;&gt;dauntenME</title>
<path fill="none" stroke="black" stroke-dasharray="5,2" d="M214.55,-429.9C213.27,-381.67 209.62,-243.92 207.91,-179.28"/>
<polygon fill="black" stroke="black" points="211.4,-179.09 207.64,-169.19 204.41,-179.28 211.4,-179.09"/>
</g>
<!-- daunt -->
<g id="node14" class="node">
<title>daunt</title>
<text text-anchor="start" x="175.5" y="-48.8" font-family="Times New Roman,serif" font-weight="bold" font-size="14.00">Modern</text>
<text text-anchor="start" x="177" y="-34.8" font-family="Times New Roman,serif" font-weight="bold" font-size="14.00">English</text>
<text text-anchor="start" x="184.5" y="-20.8" font-family="Times New Roman,serif" font-size="14.00" fill="red">daunt</text>
</g>
<!-- dauntenME&#45;&gt;daunt -->
<g id="edge13" class="edge">
<title>dauntenME&#45;&gt;daunt</title>
<path fill="none" stroke="black" d="M205.38,-118.88C204.47,-105.46 203.33,-88.51 202.33,-73.69"/>
<polygon fill="black" stroke="black" points="205.8,-73.09 201.64,-63.35 198.82,-73.56 205.8,-73.09"/>
</g>
<!-- indomitable -->
<g id="node16" class="node">
<title>indomitable</title>
<text text-anchor="start" x="266.5" y="-48.8" font-family="Times New Roman,serif" font-weight="bold" font-size="14.00">Modern</text>
<text text-anchor="start" x="268" y="-34.8" font-family="Times New Roman,serif" font-weight="bold" font-size="14.00">English</text>
<text text-anchor="start" x="258.5" y="-20.8" font-family="Times New Roman,serif" font-size="14.00" fill="red">indomitable</text>
</g>
<!-- indomitabilis&#45;&gt;indomitable -->
<g id="edge15" class="edge">
<title>indomitabilis&#45;&gt;indomitable</title>
<path fill="none" stroke="black" stroke-dasharray="5,2" d="M291,-616.8C291,-593.83 291,-551.85 291,-516 291,-516 291,-516 291,-143 291,-119.78 291,-93.65 291,-73.39"/>
<polygon fill="black" stroke="black" points="294.5,-73.38 291,-63.38 287.5,-73.38 294.5,-73.38"/>
</g>
<!-- inL -->
<g id="node17" class="node">
<title>inL</title>
<text text-anchor="start" x="339.5" y="-735.8" font-family="Times New Roman,serif" font-weight="bold" font-size="14.00">Latin</text>
<text text-anchor="start" x="348.5" y="-721.8" font-family="Times New Roman,serif" font-size="14.00" fill="red">in&#45;</text>
<text text-anchor="start" x="348.5" y="-709.4" font-family="Times New Roman,serif" font-size="12.00">not</text>
</g>
<!-- inL&#45;&gt;indomitabilis -->
<g id="edge17" class="edge">
<title>inL&#45;&gt;indomitabilis</title>
<path fill="none" stroke="black" d="M338.92,-701.62C329.88,-689.23 318.75,-674 309.5,-661.34"/>
<polygon fill="black" stroke="black" points="312.17,-659.05 303.45,-653.04 306.52,-663.18 312.17,-659.05"/>
</g>
<!-- nIE -->
<g id="node18" class="node">
<title>nIE</title>
<g id="a_node18"><a xlink:href="ne-not3.svg" xlink:title="&lt;b&gt;Indo&#45;European&lt;/b&gt;&lt;br/&gt;&lt;font color=&quot;red&quot;&gt;n̥&#45;&lt;/font&gt;&lt;br/&gt;&lt;font point&#45;size=&quot;12&quot;&gt;not&lt;/font&gt;">
<path fill="none" stroke="black" stroke-dasharray="5,2" d="M452.5,-842C452.5,-842 367.5,-842 367.5,-842 361.5,-842 355.5,-836 355.5,-830 355.5,-830 355.5,-806 355.5,-806 355.5,-800 361.5,-794 367.5,-794 367.5,-794 452.5,-794 452.5,-794 458.5,-794 464.5,-800 464.5,-806 464.5,-806 464.5,-830 464.5,-830 464.5,-836 458.5,-842 452.5,-842"/>
<text text-anchor="start" x="363.5" y="-827.8" font-family="Times New Roman,serif" font-weight="bold" font-size="14.00">Indo&#45;European</text>
<text text-anchor="start" x="404" y="-813.8" font-family="Times New Roman,serif" font-size="14.00" fill="red">n̥&#45;</text>
<text text-anchor="start" x="402.5" y="-801.4" font-family="Times New Roman,serif" font-size="12.00">not</text>
</a>
</g>
</g>
<!-- nIE&#45;&gt;inL -->
<g id="edge16" class="edge">
<title>nIE&#45;&gt;inL</title>
<path fill="none" stroke="black" d="M396.09,-793.82C389.73,-783.22 382.09,-770.48 375.19,-758.99"/>
<polygon fill="black" stroke="black" points="378.01,-756.87 369.86,-750.1 372,-760.47 378.01,-756.87"/>
</g>
<!-- anG -->
<g id="node45" class="node">
<title>anG</title>
<text text-anchor="start" x="409" y="-729.8" font-family="Times New Roman,serif" font-weight="bold" font-size="14.00">Greek</text>
<text text-anchor="start" x="411" y="-715.8" font-family="Times New Roman,serif" font-size="14.00" fill="red">a&#45;, an&#45;</text>
</g>
<!-- nIE&#45;&gt;anG -->
<g id="edge44" class="edge">
<title>nIE&#45;&gt;anG</title>
<path fill="none" stroke="black" d="M414.89,-793.82C417.45,-781.7 420.6,-766.78 423.27,-754.12"/>
<polygon fill="black" stroke="black" points="426.74,-754.64 425.38,-744.13 419.89,-753.19 426.74,-754.64"/>
</g>
<!-- domesticusL -->
<g id="node20" class="node">
<title>domesticusL</title>
<text text-anchor="start" x="629" y="-643.8" font-family="Times New Roman,serif" font-size="14.00" fill="red">domesticus</text>
<text text-anchor="start" x="633.5" y="-631.4" font-family="Times New Roman,serif" font-size="12.00">belonging to</text>
<text text-anchor="start" x="629.5" y="-619.4" font-family="Times New Roman,serif" font-size="12.00">the household</text>
</g>
<!-- domusL&#45;&gt;domesticusL -->
<g id="edge19" class="edge">
<title>domusL&#45;&gt;domesticusL</title>
<path fill="none" stroke="black" d="M610.87,-701.62C619.16,-690.76 629.13,-677.72 637.98,-666.13"/>
<polygon fill="black" stroke="black" points="640.9,-668.07 644.19,-658 635.34,-663.82 640.9,-668.07"/>
</g>
<!-- dominusL -->
<g id="node24" class="node">
<title>dominusL</title>
<g id="a_node24"><a xlink:href="dom-build1.svg" xlink:title="&lt;font color=&quot;red&quot;&gt;dominus&lt;/font&gt;&lt;br/&gt;&lt;font point&#45;size=&quot;12&quot;&gt;lord, master&lt;/font&gt;">
<path fill="none" stroke="black" stroke-dasharray="5,2" d="M778.5,-653C778.5,-653 731.5,-653 731.5,-653 725.5,-653 719.5,-647 719.5,-641 719.5,-641 719.5,-629 719.5,-629 719.5,-623 725.5,-617 731.5,-617 731.5,-617 778.5,-617 778.5,-617 784.5,-617 790.5,-623 790.5,-629 790.5,-629 790.5,-641 790.5,-641 790.5,-647 784.5,-653 778.5,-653"/>
<text text-anchor="start" x="730.5" y="-637.8" font-family="Times New Roman,serif" font-size="14.00" fill="red">dominus</text>
<text text-anchor="start" x="727.5" y="-625.4" font-family="Times New Roman,serif" font-size="12.00">lord, master</text>
</a>
</g>
</g>
<!-- domusL&#45;&gt;dominusL -->
<g id="edge23" class="edge">
<title>domusL&#45;&gt;dominusL</title>
<path fill="none" stroke="black" d="M620.85,-709.7C646.73,-695.48 685.56,-674.15 714.8,-658.09"/>
<polygon fill="black" stroke="black" points="716.85,-660.96 723.92,-653.07 713.47,-654.82 716.85,-660.96"/>
</g>
<!-- dome2 -->
<g id="node35" class="node">
<title>dome2</title>
<text text-anchor="start" x="530.5" y="-61.8" font-family="Times New Roman,serif" font-weight="bold" font-size="14.00">Modern</text>
<text text-anchor="start" x="532" y="-47.8" font-family="Times New Roman,serif" font-weight="bold" font-size="14.00">English</text>
<text text-anchor="start" x="523.5" y="-33.8" font-family="Times New Roman,serif" font-size="14.00">(obsolete?)</text>
<text text-anchor="start" x="539" y="-19.8" font-family="Times New Roman,serif" font-size="14.00" fill="red">dome</text>
<text text-anchor="start" x="541.5" y="-7.4" font-family="Times New Roman,serif" font-size="12.00">house</text>
</g>
<!-- domusL&#45;&gt;dome2 -->
<g id="edge34" class="edge">
<title>domusL&#45;&gt;dome2</title>
<path fill="none" stroke="black" stroke-dasharray="5,2" d="M577.1,-701.96C566.69,-684.63 555,-659.86 555,-636 555,-636 555,-636 555,-143 555,-124.44 555,-104.01 555,-86.21"/>
<polygon fill="black" stroke="black" points="558.5,-86.06 555,-76.06 551.5,-86.06 558.5,-86.06"/>
</g>
<!-- duomoI -->
<g id="node36" class="node">
<title>duomoI</title>
<text text-anchor="start" x="625" y="-245.8" font-family="Times New Roman,serif" font-weight="bold" font-size="14.00">Italian</text>
<text text-anchor="start" x="625" y="-231.8" font-family="Times New Roman,serif" font-size="14.00" fill="red">duomo</text>
<text text-anchor="start" x="624" y="-219.4" font-family="Times New Roman,serif" font-size="12.00">cathedral</text>
</g>
<!-- domusL&#45;&gt;duomoI -->
<g id="edge35" class="edge">
<title>domusL&#45;&gt;duomoI</title>
<path fill="none" stroke="black" d="M593,-701.95C593,-683.98 593,-658.4 593,-636 593,-636 593,-636 593,-375 593,-336.98 610.5,-296.64 625.19,-269.46"/>
<polygon fill="black" stroke="black" points="628.42,-270.85 630.24,-260.42 622.31,-267.44 628.42,-270.85"/>
</g>
<!-- domestiqueMF -->
<g id="node21" class="node">
<title>domestiqueMF</title>
<text text-anchor="start" x="680.5" y="-313.8" font-family="Times New Roman,serif" font-weight="bold" font-size="14.00">Middle</text>
<text text-anchor="start" x="680" y="-299.8" font-family="Times New Roman,serif" font-weight="bold" font-size="14.00">French</text>
<text text-anchor="start" x="669.5" y="-285.8" font-family="Times New Roman,serif" font-size="14.00" fill="red">domestique</text>
</g>
<!-- domesticusL&#45;&gt;domestiqueMF -->
<g id="edge20" class="edge">
<title>domesticusL&#45;&gt;domestiqueMF</title>
<path fill="none" stroke="black" d="M663.75,-611.84C670.76,-555.46 689.29,-406.27 697.72,-338.44"/>
<polygon fill="black" stroke="black" points="701.22,-338.63 698.98,-328.28 694.28,-337.77 701.22,-338.63"/>
</g>
<!-- domesticME -->
<g id="node22" class="node">
<title>domesticME</title>
<text text-anchor="start" x="707.5" y="-154.8" font-family="Times New Roman,serif" font-weight="bold" font-size="14.00">Middle</text>
<text text-anchor="start" x="706" y="-140.8" font-family="Times New Roman,serif" font-weight="bold" font-size="14.00">English</text>
<text text-anchor="start" x="703" y="-126.8" font-family="Times New Roman,serif" font-size="14.00" fill="red">domestic</text>
</g>
<!-- domestiqueMF&#45;&gt;domesticME -->
<g id="edge21" class="edge">
<title>domestiqueMF&#45;&gt;domesticME</title>
<path fill="none" stroke="black" stroke-dasharray="5,2" d="M706.16,-277.81C710.7,-251.42 718,-208.97 723.12,-179.18"/>
<polygon fill="black" stroke="black" points="726.59,-179.66 724.84,-169.21 719.69,-178.48 726.59,-179.66"/>
</g>
<!-- domestic -->
<g id="node23" class="node">
<title>domestic</title>
<text text-anchor="start" x="705.5" y="-48.8" font-family="Times New Roman,serif" font-weight="bold" font-size="14.00">Modern</text>
<text text-anchor="start" x="707" y="-34.8" font-family="Times New Roman,serif" font-weight="bold" font-size="14.00">English</text>
<text text-anchor="start" x="704" y="-20.8" font-family="Times New Roman,serif" font-size="14.00" fill="red">domestic</text>
</g>
<!-- domesticME&#45;&gt;domestic -->
<g id="edge22" class="edge">
<title>domesticME&#45;&gt;domestic</title>
<path fill="none" stroke="black" d="M729.23,-118.88C729.36,-105.46 729.52,-88.51 729.67,-73.69"/>
<polygon fill="black" stroke="black" points="733.17,-73.38 729.77,-63.35 726.17,-73.32 733.17,-73.38"/>
</g>
<!-- domiciliumL -->
<g id="node26" class="node">
<title>domiciliumL</title>
<text text-anchor="start" x="726.5" y="-729.8" font-family="Times New Roman,serif" font-weight="bold" font-size="14.00">Latin</text>
<text text-anchor="start" x="712" y="-715.8" font-family="Times New Roman,serif" font-size="14.00" fill="red">domicilium</text>
</g>
<!-- domocolyon&#45;&gt;domiciliumL -->
<g id="edge25" class="edge">
<title>domocolyon&#45;&gt;domiciliumL</title>
<path fill="none" stroke="black" d="M687.3,-799.65C697.61,-786.2 712.05,-767.38 723.63,-752.26"/>
<polygon fill="black" stroke="black" points="726.43,-754.37 729.74,-744.3 720.87,-750.11 726.43,-754.37"/>
</g>
<!-- domicileMF -->
<g id="node27" class="node">
<title>domicileMF</title>
<text text-anchor="start" x="797.5" y="-313.8" font-family="Times New Roman,serif" font-weight="bold" font-size="14.00">Middle</text>
<text text-anchor="start" x="797" y="-299.8" font-family="Times New Roman,serif" font-weight="bold" font-size="14.00">French</text>
<text text-anchor="start" x="795" y="-285.8" font-family="Times New Roman,serif" font-size="14.00" fill="red">domicile</text>
</g>
<!-- domiciliumL&#45;&gt;domicileMF -->
<g id="edge26" class="edge">
<title>domiciliumL&#45;&gt;domicileMF</title>
<path fill="none" stroke="black" d="M770.87,-707.85C792.56,-692.13 819,-666.68 819,-636 819,-636 819,-636 819,-447 819,-409.74 819,-367.03 819,-338.05"/>
<polygon fill="black" stroke="black" points="822.5,-338.04 819,-328.04 815.5,-338.04 822.5,-338.04"/>
</g>
<!-- domicylieME -->
<g id="node28" class="node">
<title>domicylieME</title>
<text text-anchor="start" x="795.5" y="-154.8" font-family="Times New Roman,serif" font-weight="bold" font-size="14.00">Middle</text>
<text text-anchor="start" x="794" y="-140.8" font-family="Times New Roman,serif" font-weight="bold" font-size="14.00">English</text>
<text text-anchor="start" x="789.5" y="-126.8" font-family="Times New Roman,serif" font-size="14.00" fill="red">domicylie</text>
</g>
<!-- domicileMF&#45;&gt;domicylieME -->
<g id="edge27" class="edge">
<title>domicileMF&#45;&gt;domicylieME</title>
<path fill="none" stroke="black" stroke-dasharray="5,2" d="M818.69,-277.81C818.36,-251.54 817.82,-209.34 817.44,-179.57"/>
<polygon fill="black" stroke="black" points="820.94,-179.17 817.31,-169.21 813.94,-179.26 820.94,-179.17"/>
</g>
<!-- domicile -->
<g id="node29" class="node">
<title>domicile</title>
<text text-anchor="start" x="791.5" y="-48.8" font-family="Times New Roman,serif" font-weight="bold" font-size="14.00">Modern</text>
<text text-anchor="start" x="793" y="-34.8" font-family="Times New Roman,serif" font-weight="bold" font-size="14.00">English</text>
<text text-anchor="start" x="792" y="-20.8" font-family="Times New Roman,serif" font-size="14.00" fill="red">domicile</text>
</g>
<!-- domicylieME&#45;&gt;domicile -->
<g id="edge28" class="edge">
<title>domicylieME&#45;&gt;domicile</title>
<path fill="none" stroke="black" d="M816.77,-118.88C816.64,-105.46 816.48,-88.51 816.33,-73.69"/>
<polygon fill="black" stroke="black" points="819.83,-73.32 816.23,-63.35 812.83,-73.38 819.83,-73.32"/>
</g>
<!-- domaG -->
<g id="node31" class="node">
<title>domaG</title>
<text text-anchor="start" x="836" y="-735.8" font-family="Times New Roman,serif" font-weight="bold" font-size="14.00">Greek</text>
<text text-anchor="start" x="840" y="-721.8" font-family="Times New Roman,serif" font-size="14.00" fill="red">dōma</text>
<text text-anchor="start" x="842.5" y="-709.4" font-family="Times New Roman,serif" font-size="12.00">house</text>
</g>
<!-- domn&#45;&gt;domaG -->
<g id="edge30" class="edge">
<title>domn&#45;&gt;domaG</title>
<path fill="none" stroke="black" d="M795.46,-799.65C805.28,-787.86 818.54,-771.95 830.15,-758.02"/>
<polygon fill="black" stroke="black" points="833.05,-760.01 836.76,-750.09 827.67,-755.53 833.05,-760.01"/>
</g>
<!-- domaP -->
<g id="node32" class="node">
<title>domaP</title>
<text text-anchor="start" x="856" y="-457.8" font-family="Times New Roman,serif" font-weight="bold" font-size="14.00">Provençal</text>
<text text-anchor="start" x="871" y="-443.8" font-family="Times New Roman,serif" font-size="14.00" fill="red">doma</text>
<text text-anchor="start" x="857" y="-431.4" font-family="Times New Roman,serif" font-size="12.00">rounded roof</text>
</g>
<!-- domaG&#45;&gt;domaP -->
<g id="edge31" class="edge">
<title>domaG&#45;&gt;domaP</title>
<path fill="none" stroke="black" stroke-dasharray="5,2" d="M858.59,-701.94C864.07,-653.14 876.87,-539.21 883.25,-482.42"/>
<polygon fill="black" stroke="black" points="886.76,-482.51 884.4,-472.19 879.8,-481.73 886.76,-482.51"/>
</g>
<!-- dome1F -->
<g id="node33" class="node">
<title>dome1F</title>
<text text-anchor="start" x="880" y="-147.8" font-family="Times New Roman,serif" font-weight="bold" font-size="14.00">French</text>
<text text-anchor="start" x="886" y="-133.8" font-family="Times New Roman,serif" font-size="14.00" fill="red">dôme</text>
</g>
<!-- domaP&#45;&gt;dome1F -->
<g id="edge32" class="edge">
<title>domaP&#45;&gt;dome1F</title>
<path fill="none" stroke="black" stroke-dasharray="5,2" d="M888.15,-423.8C890.88,-368.8 897.74,-230.7 900.66,-172.04"/>
<polygon fill="black" stroke="black" points="904.15,-172.21 901.15,-162.05 897.16,-171.86 904.15,-172.21"/>
</g>
<!-- dome1 -->
<g id="node34" class="node">
<title>dome1</title>
<text text-anchor="start" x="880.5" y="-54.8" font-family="Times New Roman,serif" font-weight="bold" font-size="14.00">Modern</text>
<text text-anchor="start" x="882" y="-40.8" font-family="Times New Roman,serif" font-weight="bold" font-size="14.00">English</text>
<text text-anchor="start" x="889" y="-26.8" font-family="Times New Roman,serif" font-size="14.00" fill="red">dome</text>
<text text-anchor="start" x="875" y="-14.4" font-family="Times New Roman,serif" font-size="12.00">rounded roof</text>
</g>
<!-- dome1F&#45;&gt;dome1 -->
<g id="edge33" class="edge">
<title>dome1F&#45;&gt;dome1</title>
<path fill="none" stroke="black" stroke-dasharray="5,2" d="M902.5,-125.83C902.86,-113.24 903.37,-95.61 903.83,-79.52"/>
<polygon fill="black" stroke="black" points="907.34,-79.34 904.13,-69.24 900.34,-79.14 907.34,-79.34"/>
</g>
<!-- dome3F -->
<g id="node37" class="node">
<title>dome3F</title>
<text text-anchor="start" x="623" y="-147.8" font-family="Times New Roman,serif" font-weight="bold" font-size="14.00">French</text>
<text text-anchor="start" x="629" y="-133.8" font-family="Times New Roman,serif" font-size="14.00" fill="red">dôme</text>
</g>
<!-- duomoI&#45;&gt;dome3F -->
<g id="edge36" class="edge">
<title>duomoI&#45;&gt;dome3F</title>
<path fill="none" stroke="black" stroke-dasharray="5,2" d="M645,-211.82C645,-199.82 645,-185.08 645,-172.5"/>
<polygon fill="black" stroke="black" points="648.5,-172.13 645,-162.13 641.5,-172.13 648.5,-172.13"/>
</g>
<!-- dome3 -->
<g id="node38" class="node">
<title>dome3</title>
<text text-anchor="start" x="620.5" y="-54.8" font-family="Times New Roman,serif" font-weight="bold" font-size="14.00">Modern</text>
<text text-anchor="start" x="622" y="-40.8" font-family="Times New Roman,serif" font-weight="bold" font-size="14.00">English</text>
<text text-anchor="start" x="629" y="-26.8" font-family="Times New Roman,serif" font-size="14.00" fill="red">dome</text>
<text text-anchor="start" x="624" y="-14.4" font-family="Times New Roman,serif" font-size="12.00">cathedral</text>
</g>
<!-- dome3F&#45;&gt;dome3 -->
<g id="edge37" class="edge">
<title>dome3F&#45;&gt;dome3</title>
<path fill="none" stroke="black" stroke-dasharray="5,2" d="M645,-125.83C645,-113.24 645,-95.61 645,-79.52"/>
<polygon fill="black" stroke="black" points="648.5,-79.24 645,-69.24 641.5,-79.24 648.5,-79.24"/>
</g>
<!-- adamasG -->
<g id="node40" class="node">
<title>adamasG</title>
<text text-anchor="start" x="430.5" y="-643.8" font-family="Times New Roman,serif" font-size="14.00" fill="red">adamas</text>
<text text-anchor="start" x="422.5" y="-631.4" font-family="Times New Roman,serif" font-size="12.00">unbreakable,</text>
<text text-anchor="start" x="418" y="-619.4" font-family="Times New Roman,serif" font-size="12.00">hard substance</text>
</g>
<!-- damanG&#45;&gt;adamasG -->
<g id="edge39" class="edge">
<title>damanG&#45;&gt;adamasG</title>
<path fill="none" stroke="black" d="M491.68,-695.86C485.45,-686.47 478.54,-676.03 472.25,-666.54"/>
<polygon fill="black" stroke="black" points="475.12,-664.55 466.68,-658.15 469.29,-668.42 475.12,-664.55"/>
</g>
<!-- adamansL -->
<g id="node41" class="node">
<title>adamansL</title>
<text text-anchor="start" x="435.5" y="-525.8" font-family="Times New Roman,serif" font-weight="bold" font-size="14.00">Latin</text>
<text text-anchor="start" x="425.5" y="-511.8" font-family="Times New Roman,serif" font-size="14.00" fill="red">adamāns,</text>
<text text-anchor="start" x="426" y="-497.8" font-family="Times New Roman,serif" font-size="14.00" fill="red">adamant&#45;</text>
</g>
<!-- adamasG&#45;&gt;adamansL -->
<g id="edge40" class="edge">
<title>adamasG&#45;&gt;adamansL</title>
<path fill="none" stroke="black" stroke-dasharray="5,2" d="M452,-611.81C452,-594.49 452,-570.13 452,-550.31"/>
<polygon fill="black" stroke="black" points="455.5,-550.13 452,-540.13 448.5,-550.13 455.5,-550.13"/>
</g>
<!-- adamauntOF -->
<g id="node42" class="node">
<title>adamauntOF</title>
<text text-anchor="start" x="348" y="-391.8" font-family="Times New Roman,serif" font-weight="bold" font-size="14.00">Old French</text>
<text text-anchor="start" x="356" y="-377.8" font-family="Times New Roman,serif" font-size="14.00" fill="red">adamaunt</text>
<text text-anchor="start" x="361.5" y="-365.4" font-family="Times New Roman,serif" font-size="12.00">diamond,</text>
<text text-anchor="start" x="359" y="-353.4" font-family="Times New Roman,serif" font-size="12.00">hard metal</text>
</g>
<!-- adamansL&#45;&gt;adamauntOF -->
<g id="edge41" class="edge">
<title>adamansL&#45;&gt;adamauntOF</title>
<path fill="none" stroke="black" d="M439.82,-489.82C429.44,-469.21 414.33,-439.21 402.3,-415.32"/>
<polygon fill="black" stroke="black" points="405.32,-413.53 397.69,-406.17 399.06,-416.68 405.32,-413.53"/>
</g>
<!-- diamantemL -->
<g id="node46" class="node">
<title>diamantemL</title>
<text text-anchor="start" x="452.5" y="-379.8" font-family="Times New Roman,serif" font-size="14.00" fill="red">adimantem</text>
<text text-anchor="start" x="452.5" y="-364.8" font-family="Times New Roman,serif" font-size="14.00" fill="red">diamantem</text>
</g>
<!-- adamansL&#45;&gt;diamantemL -->
<g id="edge46" class="edge">
<title>adamansL&#45;&gt;diamantemL</title>
<path fill="none" stroke="black" d="M457.47,-489.82C462.82,-466.16 470.98,-430.14 476.62,-405.19"/>
<polygon fill="black" stroke="black" points="480.08,-405.77 478.87,-395.25 473.25,-404.23 480.08,-405.77"/>
</g>
<!-- adamantME -->
<g id="node43" class="node">
<title>adamantME</title>
<text text-anchor="start" x="360.5" y="-160.8" font-family="Times New Roman,serif" font-weight="bold" font-size="14.00">Middle</text>
<text text-anchor="start" x="359" y="-146.8" font-family="Times New Roman,serif" font-weight="bold" font-size="14.00">English</text>
<text text-anchor="start" x="358.5" y="-132.8" font-family="Times New Roman,serif" font-size="14.00" fill="red">adamant</text>
<text text-anchor="start" x="340" y="-120.4" font-family="Times New Roman,serif" font-size="12.00">hard precious gem</text>
</g>
<!-- adamauntOF&#45;&gt;adamantME -->
<g id="edge42" class="edge">
<title>adamauntOF&#45;&gt;adamantME</title>
<path fill="none" stroke="black" stroke-dasharray="5,2" d="M382.87,-345.87C382.7,-305.27 382.38,-231.51 382.18,-185.56"/>
<polygon fill="black" stroke="black" points="385.68,-185.34 382.13,-175.35 378.68,-185.37 385.68,-185.34"/>
</g>
<!-- adamant -->
<g id="node44" class="node">
<title>adamant</title>
<text text-anchor="start" x="357.5" y="-48.8" font-family="Times New Roman,serif" font-weight="bold" font-size="14.00">Modern</text>
<text text-anchor="start" x="359" y="-34.8" font-family="Times New Roman,serif" font-weight="bold" font-size="14.00">English</text>
<text text-anchor="start" x="358.5" y="-20.8" font-family="Times New Roman,serif" font-size="14.00" fill="red">adamant</text>
</g>
<!-- adamantME&#45;&gt;adamant -->
<g id="edge43" class="edge">
<title>adamantME&#45;&gt;adamant</title>
<path fill="none" stroke="black" d="M382,-112.92C382,-100.55 382,-86.15 382,-73.36"/>
<polygon fill="black" stroke="black" points="385.5,-73.08 382,-63.08 378.5,-73.08 385.5,-73.08"/>
</g>
<!-- anG&#45;&gt;adamasG -->
<g id="edge45" class="edge">
<title>anG&#45;&gt;adamasG</title>
<path fill="none" stroke="black" d="M433.43,-707.84C436.35,-696.57 440.25,-681.48 443.72,-668.04"/>
<polygon fill="black" stroke="black" points="447.16,-668.73 446.27,-658.17 440.38,-666.98 447.16,-668.73"/>
</g>
<!-- diamantOF -->
<g id="node47" class="node">
<title>diamantOF</title>
<text text-anchor="start" x="449" y="-239.8" font-family="Times New Roman,serif" font-weight="bold" font-size="14.00">Old French</text>
<text text-anchor="start" x="462" y="-225.8" font-family="Times New Roman,serif" font-size="14.00" fill="red">diamant</text>
</g>
<!-- diamantemL&#45;&gt;diamantOF -->
<g id="edge47" class="edge">
<title>diamantemL&#45;&gt;diamantOF</title>
<path fill="none" stroke="black" d="M483.13,-356.96C483.3,-333.35 483.6,-291.77 483.8,-264.3"/>
<polygon fill="black" stroke="black" points="487.3,-264.2 483.88,-254.18 480.3,-264.15 487.3,-264.2"/>
</g>
<!-- diamauntME -->
<g id="node48" class="node">
<title>diamauntME</title>
<text text-anchor="start" x="462.5" y="-154.8" font-family="Times New Roman,serif" font-weight="bold" font-size="14.00">Middle</text>
<text text-anchor="start" x="461" y="-140.8" font-family="Times New Roman,serif" font-weight="bold" font-size="14.00">English</text>
<text text-anchor="start" x="458.5" y="-126.8" font-family="Times New Roman,serif" font-size="14.00" fill="red">diamaunt</text>
</g>
<!-- diamantOF&#45;&gt;diamauntME -->
<g id="edge48" class="edge">
<title>diamantOF&#45;&gt;diamauntME</title>
<path fill="none" stroke="black" stroke-dasharray="5,2" d="M484,-217.65C484,-206.76 484,-192.36 484,-179.25"/>
<polygon fill="black" stroke="black" points="487.5,-179.1 484,-169.1 480.5,-179.1 487.5,-179.1"/>
</g>
<!-- diamond -->
<g id="node49" class="node">
<title>diamond</title>
<text text-anchor="start" x="440.5" y="-48.8" font-family="Times New Roman,serif" font-weight="bold" font-size="14.00">Modern</text>
<text text-anchor="start" x="442" y="-34.8" font-family="Times New Roman,serif" font-weight="bold" font-size="14.00">English</text>
<text text-anchor="start" x="440.5" y="-20.8" font-family="Times New Roman,serif" font-size="14.00" fill="red">diamond</text>
</g>
<!-- diamauntME&#45;&gt;diamond -->
<g id="edge49" class="edge">
<title>diamauntME&#45;&gt;diamond</title>
<path fill="none" stroke="black" d="M479.59,-118.88C477.12,-105.33 473.99,-88.18 471.26,-73.26"/>
<polygon fill="black" stroke="black" points="474.69,-72.56 469.45,-63.35 467.8,-73.82 474.69,-72.56"/>
</g>
</g>
</svg>
