<?xml version="1.0" encoding="UTF-8" standalone="no"?>
<!DOCTYPE svg PUBLIC "-//W3C//DTD SVG 1.1//EN"
 "http://www.w3.org/Graphics/SVG/1.1/DTD/svg11.dtd">
<!-- Generated by graphviz version 2.49.0 (20210828.1703)
 -->
<!-- Pages: 1 -->
<svg width="1064pt" height="717pt"
 viewBox="0.00 0.00 1064.00 717.00" xmlns="http://www.w3.org/2000/svg" xmlns:xlink="http://www.w3.org/1999/xlink">
<g id="graph0" class="graph" transform="scale(1 1) rotate(0) translate(4 713)">
<polygon fill="white" stroke="transparent" points="-4,4 -4,-713 1060,-713 1060,4 -4,4"/>
<!-- dwo -->
<g id="node1" class="node">
<title>dwo</title>
<g id="a_node1"><a xlink:href="dwo-two0.svg" xlink:title="&lt;font point&#45;size=&quot;24&quot;&gt;&lt;b&gt;Indo&#45;European&lt;/b&gt;&lt;/font&gt;&lt;br/&gt;&lt;font point&#45;size=&quot;18&quot; color=&quot;red&quot;&gt;*dwo&#45;&lt;/font&gt;&lt;br/&gt;&lt;font point&#45;size=&quot;16&quot;&gt;two&lt;/font&gt;">
<path fill="none" stroke="black" stroke-dasharray="5,2" d="M428,-709C428,-709 279,-709 279,-709 273,-709 267,-703 267,-697 267,-697 267,-655 267,-655 267,-649 273,-643 279,-643 279,-643 428,-643 428,-643 434,-643 440,-649 440,-655 440,-655 440,-697 440,-697 440,-703 434,-709 428,-709"/>
<text text-anchor="start" x="275" y="-686.8" font-family="Times New Roman,serif" font-weight="bold" font-size="24.00">Indo&#45;European</text>
<text text-anchor="start" x="330.5" y="-667.6" font-family="Times New Roman,serif" font-size="18.00" fill="red">*dwo&#45;</text>
<text text-anchor="start" x="341" y="-651.2" font-family="Times New Roman,serif" font-size="16.00">two</text>
</a>
</g>
</g>
<!-- duwo -->
<g id="node2" class="node">
<title>duwo</title>
<text text-anchor="start" x="188" y="-533.3" font-family="Times New Roman,serif" font-size="14.00" fill="red">*duwo</text>
</g>
<!-- dwo&#45;&gt;duwo -->
<g id="edge1" class="edge">
<title>dwo&#45;&gt;duwo</title>
<path fill="none" stroke="black" d="M357.5,-642C357.5,-642 284.88,-591.65 240.7,-561.02"/>
<polygon fill="black" stroke="black" points="242.48,-558 232.27,-555.17 238.49,-563.75 242.48,-558"/>
</g>
<!-- duwoo -->
<g id="node3" class="node">
<title>duwoo</title>
<text text-anchor="start" x="592" y="-533.3" font-family="Times New Roman,serif" font-size="14.00" fill="red">*duwō</text>
</g>
<!-- dwo&#45;&gt;duwoo -->
<g id="edge2" class="edge">
<title>dwo&#45;&gt;duwoo</title>
<path fill="none" stroke="black" d="M357.5,-642C357.5,-642 486.25,-618.04 575.5,-568 578.82,-566.14 582.12,-563.96 585.31,-561.64"/>
<polygon fill="black" stroke="black" points="587.7,-564.21 593.41,-555.28 583.38,-558.7 587.7,-564.21"/>
</g>
<!-- twaGm -->
<g id="node4" class="node">
<title>twaGm</title>
<text text-anchor="start" x="169" y="-448.8" font-family="Times New Roman,serif" font-weight="bold" font-size="14.00">Germanic</text>
<text text-anchor="start" x="186" y="-434.8" font-family="Times New Roman,serif" font-size="14.00" fill="red">*twa</text>
</g>
<!-- duwo&#45;&gt;twaGm -->
<g id="edge3" class="edge">
<title>duwo&#45;&gt;twaGm</title>
<path fill="none" stroke="black" d="M205.96,-518.65C204.82,-505.82 203.24,-488.11 201.93,-473.38"/>
<polygon fill="black" stroke="black" points="205.41,-472.95 201.04,-463.3 198.44,-473.57 205.41,-472.95"/>
</g>
<!-- duoL -->
<g id="node24" class="node">
<title>duoL</title>
<text text-anchor="start" x="744" y="-448.8" font-family="Times New Roman,serif" font-weight="bold" font-size="14.00">Latin</text>
<text text-anchor="start" x="749.5" y="-434.8" font-family="Times New Roman,serif" font-size="14.00" fill="red">duo</text>
</g>
<!-- duwoo&#45;&gt;duoL -->
<g id="edge24" class="edge">
<title>duwoo&#45;&gt;duoL</title>
<path fill="none" stroke="black" d="M613.5,-518C613.5,-518 680.49,-485.19 724.03,-463.86"/>
<polygon fill="black" stroke="black" points="725.75,-466.92 733.19,-459.37 722.67,-460.63 725.75,-466.92"/>
</g>
<!-- duoG -->
<g id="node42" class="node">
<title>duoG</title>
<text text-anchor="start" x="505.5" y="-448.8" font-family="Times New Roman,serif" font-weight="bold" font-size="14.00">Greek</text>
<text text-anchor="start" x="499.5" y="-434.8" font-family="Times New Roman,serif" font-size="14.00" fill="red">duo, duō</text>
</g>
<!-- duwoo&#45;&gt;duoG -->
<g id="edge41" class="edge">
<title>duwoo&#45;&gt;duoG</title>
<path fill="none" stroke="black" d="M613.5,-518C613.5,-518 580.02,-490.6 554.36,-469.61"/>
<polygon fill="black" stroke="black" points="556.31,-466.69 546.35,-463.06 551.88,-472.1 556.31,-466.69"/>
</g>
<!-- twaOE -->
<g id="node5" class="node">
<title>twaOE</title>
<text text-anchor="start" x="8" y="-364.8" font-family="Times New Roman,serif" font-weight="bold" font-size="14.00">Old English</text>
<text text-anchor="start" x="34.5" y="-350.8" font-family="Times New Roman,serif" font-size="14.00" fill="red">twā</text>
</g>
<!-- twaGm&#45;&gt;twaOE -->
<g id="edge4" class="edge">
<title>twaGm&#45;&gt;twaOE</title>
<path fill="none" stroke="black" d="M194.5,-426C194.5,-426 137.76,-401.79 94.08,-383.15"/>
<polygon fill="black" stroke="black" points="95.27,-379.86 84.7,-379.15 92.52,-386.29 95.27,-379.86"/>
</g>
<!-- twegenOE -->
<g id="node8" class="node">
<title>twegenOE</title>
<text text-anchor="start" x="116" y="-364.8" font-family="Times New Roman,serif" font-weight="bold" font-size="14.00">Old English</text>
<text text-anchor="start" x="132.5" y="-350.8" font-family="Times New Roman,serif" font-size="14.00" fill="red">twēgen</text>
</g>
<!-- twaGm&#45;&gt;twegenOE -->
<g id="edge7" class="edge">
<title>twaGm&#45;&gt;twegenOE</title>
<path fill="none" stroke="black" d="M194.5,-426C194.5,-426 180.98,-405.4 169.28,-387.58"/>
<polygon fill="black" stroke="black" points="172.17,-385.59 163.76,-379.15 166.32,-389.43 172.17,-385.59"/>
</g>
<!-- twalifGm -->
<g id="node15" class="node">
<title>twalifGm</title>
<text text-anchor="start" x="317.5" y="-369.8" font-family="Times New Roman,serif" font-size="14.00" fill="red">*twa&#45;lif&#45;</text>
<text text-anchor="start" x="296" y="-357.4" font-family="Times New Roman,serif" font-size="12.00">&quot;two left&quot; (after ten)</text>
<text text-anchor="start" x="325.5" y="-345.4" font-family="Times New Roman,serif" font-size="12.00">twelve</text>
</g>
<!-- twaGm&#45;&gt;twalifGm -->
<g id="edge14" class="edge">
<title>twaGm&#45;&gt;twalifGm</title>
<path fill="none" stroke="black" d="M194.5,-426C194.5,-426 287.44,-397.35 317.93,-387.95"/>
<polygon fill="black" stroke="black" points="318.97,-391.29 327.5,-385 316.91,-384.6 318.97,-391.29"/>
</g>
<!-- twoME -->
<g id="node6" class="node">
<title>twoME</title>
<text text-anchor="start" x="17" y="-204.8" font-family="Times New Roman,serif" font-weight="bold" font-size="14.00">Middle</text>
<text text-anchor="start" x="15.5" y="-190.8" font-family="Times New Roman,serif" font-weight="bold" font-size="14.00">English</text>
<text text-anchor="start" x="27.5" y="-176.8" font-family="Times New Roman,serif" font-size="14.00" fill="red">two</text>
</g>
<!-- twaOE&#45;&gt;twoME -->
<g id="edge5" class="edge">
<title>twaOE&#45;&gt;twoME</title>
<path fill="none" stroke="black" d="M43.88,-342.96C42.91,-316.25 41.01,-263.98 39.75,-229.27"/>
<polygon fill="black" stroke="black" points="43.24,-228.97 39.38,-219.11 36.24,-229.23 43.24,-228.97"/>
</g>
<!-- two -->
<g id="node7" class="node">
<title>two</title>
<text text-anchor="start" x="9" y="-42.8" font-family="Times New Roman,serif" font-weight="bold" font-size="14.00">Modern</text>
<text text-anchor="start" x="10.5" y="-28.8" font-family="Times New Roman,serif" font-weight="bold" font-size="14.00">English</text>
<text text-anchor="start" x="22.5" y="-14.8" font-family="Times New Roman,serif" font-size="14.00" fill="red">two</text>
</g>
<!-- twoME&#45;&gt;two -->
<g id="edge6" class="edge">
<title>twoME&#45;&gt;two</title>
<path fill="none" stroke="black" d="M37.74,-168.7C36.9,-141.64 35.52,-97.71 34.57,-67.19"/>
<polygon fill="black" stroke="black" points="38.06,-66.89 34.25,-57 31.06,-67.11 38.06,-66.89"/>
</g>
<!-- tweienME -->
<g id="node9" class="node">
<title>tweienME</title>
<text text-anchor="start" x="131" y="-286.8" font-family="Times New Roman,serif" font-weight="bold" font-size="14.00">Middle</text>
<text text-anchor="start" x="129.5" y="-272.8" font-family="Times New Roman,serif" font-weight="bold" font-size="14.00">English</text>
<text text-anchor="start" x="134.5" y="-258.8" font-family="Times New Roman,serif" font-size="14.00" fill="red">tweien</text>
<text text-anchor="start" x="134.5" y="-244.8" font-family="Times New Roman,serif" font-size="14.00" fill="red">twaine</text>
</g>
<!-- twegenOE&#45;&gt;tweienME -->
<g id="edge8" class="edge">
<title>twegenOE&#45;&gt;tweienME</title>
<path fill="none" stroke="black" d="M152.5,-342.65C152.5,-333.65 152.5,-322.25 152.5,-311.16"/>
<polygon fill="black" stroke="black" points="156,-311.15 152.5,-301.15 149,-311.15 156,-311.15"/>
</g>
<!-- twain -->
<g id="node10" class="node">
<title>twain</title>
<text text-anchor="start" x="92" y="-42.8" font-family="Times New Roman,serif" font-weight="bold" font-size="14.00">Modern</text>
<text text-anchor="start" x="93.5" y="-28.8" font-family="Times New Roman,serif" font-weight="bold" font-size="14.00">English</text>
<text text-anchor="start" x="101.5" y="-14.8" font-family="Times New Roman,serif" font-size="14.00" fill="red">twain</text>
</g>
<!-- tweienME&#45;&gt;twain -->
<g id="edge9" class="edge">
<title>tweienME&#45;&gt;twain</title>
<path fill="none" stroke="black" d="M152.5,-236C152.5,-236 142.34,-188.91 135.5,-151 130.42,-122.84 125.3,-90.79 121.66,-67.2"/>
<polygon fill="black" stroke="black" points="125.07,-66.35 120.09,-57 118.15,-67.42 125.07,-66.35"/>
</g>
<!-- tway -->
<g id="node11" class="node">
<title>tway</title>
<text text-anchor="start" x="153" y="-136.8" font-family="Times New Roman,serif" font-weight="bold" font-size="14.00">Modern</text>
<text text-anchor="start" x="154.5" y="-122.8" font-family="Times New Roman,serif" font-weight="bold" font-size="14.00">English</text>
<text text-anchor="start" x="164" y="-108.8" font-family="Times New Roman,serif" font-size="14.00" fill="red">tway</text>
</g>
<!-- tweienME&#45;&gt;tway -->
<g id="edge10" class="edge">
<title>tweienME&#45;&gt;tway</title>
<path fill="none" stroke="black" d="M152.5,-236C152.5,-236 162.34,-193.09 169.67,-161.12"/>
<polygon fill="black" stroke="black" points="173.13,-161.72 171.95,-151.19 166.3,-160.16 173.13,-161.72"/>
</g>
<!-- twayblade -->
<g id="node12" class="node">
<title>twayblade</title>
<text text-anchor="start" x="217" y="-34.8" font-family="Times New Roman,serif" font-size="14.00" fill="red">twayblade</text>
<text text-anchor="start" x="213.5" y="-22.4" font-family="Times New Roman,serif" font-size="12.00">type of orchid</text>
</g>
<!-- tway&#45;&gt;twayblade -->
<g id="edge11" class="edge">
<title>tway&#45;&gt;twayblade</title>
<path fill="none" stroke="black" d="M197.8,-100.77C209.95,-86.27 224.6,-68.79 232.9,-58.88"/>
<polygon fill="black" stroke="black" points="235.76,-60.91 239.5,-51 230.39,-56.42 235.76,-60.91"/>
</g>
<!-- biL -->
<g id="node13" class="node">
<title>biL</title>
<g id="a_node13"><a xlink:href="dwo-two2.svg" xlink:title="&lt;b&gt;Latin&lt;/b&gt;&lt;br/&gt;&lt;font color=&quot;red&quot;&gt;bi&#45;&lt;/font&gt;">
<path fill="none" stroke="black" stroke-dasharray="5,2" d="M257.5,-379C257.5,-379 227.5,-379 227.5,-379 221.5,-379 215.5,-373 215.5,-367 215.5,-367 215.5,-355 215.5,-355 215.5,-349 221.5,-343 227.5,-343 227.5,-343 257.5,-343 257.5,-343 263.5,-343 269.5,-349 269.5,-355 269.5,-355 269.5,-367 269.5,-367 269.5,-373 263.5,-379 257.5,-379"/>
<text text-anchor="start" x="226" y="-364.8" font-family="Times New Roman,serif" font-weight="bold" font-size="14.00">Latin</text>
<text text-anchor="start" x="234.5" y="-350.8" font-family="Times New Roman,serif" font-size="14.00" fill="red">bi&#45;</text>
</a>
</g>
</g>
<!-- bifoliumL -->
<g id="node14" class="node">
<title>bifoliumL</title>
<text text-anchor="start" x="213" y="-285.8" font-family="Times New Roman,serif" font-weight="bold" font-size="14.00">Medieval</text>
<text text-anchor="start" x="225" y="-271.8" font-family="Times New Roman,serif" font-weight="bold" font-size="14.00">Latin</text>
<text text-anchor="start" x="218.5" y="-257.8" font-family="Times New Roman,serif" font-size="14.00" fill="red">bifolium</text>
<text text-anchor="start" x="218.5" y="-245.4" font-family="Times New Roman,serif" font-size="12.00">&quot;two&#45;leaf&quot;</text>
</g>
<!-- biL&#45;&gt;bifoliumL -->
<g id="edge12" class="edge">
<title>biL&#45;&gt;bifoliumL</title>
<path fill="none" stroke="black" d="M242.31,-342.65C242.2,-333.42 242.07,-321.65 241.95,-310.3"/>
<polygon fill="black" stroke="black" points="245.45,-310.02 241.83,-300.06 238.45,-310.1 245.45,-310.02"/>
</g>
<!-- bifoliumL&#45;&gt;twayblade -->
<g id="edge13" class="edge">
<title>bifoliumL&#45;&gt;twayblade</title>
<path fill="none" stroke="black" stroke-dasharray="1,5" d="M241.22,-237.83C240.77,-188.45 239.88,-92.73 239.59,-61.28"/>
<polygon fill="none" stroke="black" points="243.09,-60.97 239.5,-51 236.09,-61.03 243.09,-60.97"/>
<text text-anchor="middle" x="257.5" y="-122.3" font-family="Times New Roman,serif" font-size="14.00">transl.</text>
</g>
<!-- twelfOE -->
<g id="node18" class="node">
<title>twelfOE</title>
<text text-anchor="start" x="304" y="-272.8" font-family="Times New Roman,serif" font-weight="bold" font-size="14.00">Old English</text>
<text text-anchor="start" x="326.5" y="-258.8" font-family="Times New Roman,serif" font-size="14.00" fill="red">twelf</text>
</g>
<!-- twalifGm&#45;&gt;twelfOE -->
<g id="edge17" class="edge">
<title>twalifGm&#45;&gt;twelfOE</title>
<path fill="none" stroke="black" d="M340.5,-337.75C340.5,-325.55 340.5,-310.32 340.5,-297.4"/>
<polygon fill="black" stroke="black" points="344,-297.2 340.5,-287.2 337,-297.2 344,-297.2"/>
</g>
<!-- twelftaOE -->
<g id="node21" class="node">
<title>twelftaOE</title>
<text text-anchor="start" x="411" y="-272.8" font-family="Times New Roman,serif" font-weight="bold" font-size="14.00">Old English</text>
<text text-anchor="start" x="429" y="-258.8" font-family="Times New Roman,serif" font-size="14.00" fill="red">twelfta</text>
</g>
<!-- twalifGm&#45;&gt;twelftaOE -->
<g id="edge18" class="edge">
<title>twalifGm&#45;&gt;twelftaOE</title>
<path fill="none" stroke="black" d="M366.68,-337.98C382.48,-324.69 402.64,-307.74 418.87,-294.09"/>
<polygon fill="black" stroke="black" points="421.55,-296.4 426.95,-287.28 417.04,-291.04 421.55,-296.4"/>
</g>
<!-- leikw -->
<g id="node16" class="node">
<title>leikw</title>
<g id="a_node16"><a xlink:href="leikw-leave.svg" xlink:title="&lt;b&gt;Indo&#45;&lt;br/&gt;European&lt;/b&gt;&lt;br/&gt;&lt;font color=&quot;red&quot;&gt;*leikʷ&#45;&lt;/font&gt;&lt;br/&gt;&lt;font point&#45;size=&quot;12&quot;&gt;to leave&lt;/font&gt;">
<path fill="none" stroke="black" stroke-dasharray="5,2" d="M367,-568C367,-568 314,-568 314,-568 308,-568 302,-562 302,-556 302,-556 302,-518 302,-518 302,-512 308,-506 314,-506 314,-506 367,-506 367,-506 373,-506 379,-512 379,-518 379,-518 379,-556 379,-556 379,-562 373,-568 367,-568"/>
<text text-anchor="start" x="324" y="-553.8" font-family="Times New Roman,serif" font-weight="bold" font-size="14.00">Indo&#45;</text>
<text text-anchor="start" x="310" y="-539.8" font-family="Times New Roman,serif" font-weight="bold" font-size="14.00">European</text>
<text text-anchor="start" x="322" y="-525.8" font-family="Times New Roman,serif" font-size="14.00" fill="red">*leikʷ&#45;</text>
<text text-anchor="start" x="322.5" y="-513.4" font-family="Times New Roman,serif" font-size="12.00">to leave</text>
</a>
</g>
</g>
<!-- lifGm -->
<g id="node17" class="node">
<title>lifGm</title>
<text text-anchor="start" x="310" y="-454.8" font-family="Times New Roman,serif" font-weight="bold" font-size="14.00">Germanic</text>
<text text-anchor="start" x="327" y="-440.8" font-family="Times New Roman,serif" font-size="14.00" fill="red">*&#45;lif&#45;</text>
<text text-anchor="start" x="318" y="-428.4" font-family="Times New Roman,serif" font-size="12.00">left (over)</text>
</g>
<!-- leikw&#45;&gt;lifGm -->
<g id="edge15" class="edge">
<title>leikw&#45;&gt;lifGm</title>
<path fill="none" stroke="black" d="M340.5,-505.53C340.5,-497.05 340.5,-487.79 340.5,-479.16"/>
<polygon fill="black" stroke="black" points="344,-479.04 340.5,-469.04 337,-479.04 344,-479.04"/>
</g>
<!-- lifGm&#45;&gt;twalifGm -->
<g id="edge16" class="edge">
<title>lifGm&#45;&gt;twalifGm</title>
<path fill="none" stroke="black" d="M335.36,-420.68C333.37,-411.66 331.21,-401.84 329.66,-394.78"/>
<polygon fill="black" stroke="black" points="333.07,-394.01 327.5,-385 326.23,-395.52 333.07,-394.01"/>
</g>
<!-- twelveME -->
<g id="node19" class="node">
<title>twelveME</title>
<text text-anchor="start" x="319" y="-136.8" font-family="Times New Roman,serif" font-weight="bold" font-size="14.00">Middle</text>
<text text-anchor="start" x="317.5" y="-122.8" font-family="Times New Roman,serif" font-weight="bold" font-size="14.00">English</text>
<text text-anchor="start" x="322.5" y="-108.8" font-family="Times New Roman,serif" font-size="14.00" fill="red">twelve</text>
</g>
<!-- twelfOE&#45;&gt;twelveME -->
<g id="edge19" class="edge">
<title>twelfOE&#45;&gt;twelveME</title>
<path fill="none" stroke="black" d="M340.5,-250.99C340.5,-228.91 340.5,-189.84 340.5,-161.45"/>
<polygon fill="black" stroke="black" points="344,-161.15 340.5,-151.15 337,-161.15 344,-161.15"/>
</g>
<!-- twelve -->
<g id="node20" class="node">
<title>twelve</title>
<text text-anchor="start" x="316" y="-42.8" font-family="Times New Roman,serif" font-weight="bold" font-size="14.00">Modern</text>
<text text-anchor="start" x="317.5" y="-28.8" font-family="Times New Roman,serif" font-weight="bold" font-size="14.00">English</text>
<text text-anchor="start" x="322.5" y="-14.8" font-family="Times New Roman,serif" font-size="14.00" fill="red">twelve</text>
</g>
<!-- twelveME&#45;&gt;twelve -->
<g id="edge20" class="edge">
<title>twelveME&#45;&gt;twelve</title>
<path fill="none" stroke="black" d="M340.5,-100.83C340.5,-90.58 340.5,-78.45 340.5,-67.3"/>
<polygon fill="black" stroke="black" points="344,-67.01 340.5,-57.01 337,-67.01 344,-67.01"/>
</g>
<!-- twelftheME -->
<g id="node22" class="node">
<title>twelftheME</title>
<text text-anchor="start" x="423" y="-136.8" font-family="Times New Roman,serif" font-weight="bold" font-size="14.00">Middle</text>
<text text-anchor="start" x="421.5" y="-122.8" font-family="Times New Roman,serif" font-weight="bold" font-size="14.00">English</text>
<text text-anchor="start" x="422.5" y="-108.8" font-family="Times New Roman,serif" font-size="14.00" fill="red">twelfthe</text>
</g>
<!-- twelftaOE&#45;&gt;twelftheME -->
<g id="edge21" class="edge">
<title>twelftaOE&#45;&gt;twelftheME</title>
<path fill="none" stroke="black" d="M447.14,-250.99C446.67,-228.91 445.84,-189.84 445.23,-161.45"/>
<polygon fill="black" stroke="black" points="448.73,-161.07 445.01,-151.15 441.73,-161.22 448.73,-161.07"/>
</g>
<!-- twelfth -->
<g id="node23" class="node">
<title>twelfth</title>
<text text-anchor="start" x="418" y="-42.8" font-family="Times New Roman,serif" font-weight="bold" font-size="14.00">Modern</text>
<text text-anchor="start" x="419.5" y="-28.8" font-family="Times New Roman,serif" font-weight="bold" font-size="14.00">English</text>
<text text-anchor="start" x="423.5" y="-14.8" font-family="Times New Roman,serif" font-size="14.00" fill="red">twelfth</text>
</g>
<!-- twelftheME&#45;&gt;twelfth -->
<g id="edge22" class="edge">
<title>twelftheME&#45;&gt;twelfth</title>
<path fill="none" stroke="black" d="M443.97,-100.83C443.75,-90.58 443.49,-78.45 443.25,-67.3"/>
<polygon fill="black" stroke="black" points="446.74,-66.93 443.02,-57.01 439.74,-67.08 446.74,-66.93"/>
</g>
<!-- duoE -->
<g id="node25" class="node">
<title>duoE</title>
<text text-anchor="start" x="667" y="-42.8" font-family="Times New Roman,serif" font-weight="bold" font-size="14.00">Modern</text>
<text text-anchor="start" x="668.5" y="-28.8" font-family="Times New Roman,serif" font-weight="bold" font-size="14.00">English</text>
<text text-anchor="start" x="678" y="-14.8" font-family="Times New Roman,serif" font-size="14.00" fill="red">duo&#45;</text>
</g>
<!-- duoL&#45;&gt;duoE -->
<g id="edge23" class="edge">
<title>duoL&#45;&gt;duoE</title>
<path fill="none" stroke="black" stroke-dasharray="5,2" d="M762.5,-426C762.5,-426 691.5,-404.48 691.5,-362 691.5,-362 691.5,-362 691.5,-125 691.5,-105.95 691.5,-84.69 691.5,-67.4"/>
<polygon fill="black" stroke="black" points="695,-67.21 691.5,-57.21 688,-67.21 695,-67.21"/>
</g>
<!-- duosL -->
<g id="node26" class="node">
<title>duosL</title>
<text text-anchor="start" x="904.5" y="-357.3" font-family="Times New Roman,serif" font-size="14.00" fill="red">duōs</text>
</g>
<!-- duoL&#45;&gt;duosL -->
<g id="edge25" class="edge">
<title>duoL&#45;&gt;duosL</title>
<path fill="none" stroke="black" d="M762.5,-426C762.5,-426 813.25,-418.71 850.5,-403 862.31,-398.02 874.51,-391.25 885.26,-384.65"/>
<polygon fill="black" stroke="black" points="887.32,-387.48 893.91,-379.18 883.58,-381.56 887.32,-387.48"/>
</g>
<!-- duodecimL -->
<g id="node32" class="node">
<title>duodecimL</title>
<text text-anchor="start" x="593.5" y="-363.8" font-family="Times New Roman,serif" font-size="14.00" fill="red">duodecim</text>
<text text-anchor="start" x="606.5" y="-351.4" font-family="Times New Roman,serif" font-size="12.00">twelve</text>
</g>
<!-- duoL&#45;&gt;duodecimL -->
<g id="edge31" class="edge">
<title>duoL&#45;&gt;duodecimL</title>
<path fill="none" stroke="black" d="M762.5,-426C762.5,-426 714.13,-416.78 677.5,-403 663.73,-397.82 648.56,-389.99 639.29,-384.93"/>
<polygon fill="black" stroke="black" points="640.93,-381.84 630.5,-380 637.51,-387.95 640.93,-381.84"/>
</g>
<!-- dualisL -->
<g id="node36" class="node">
<title>dualisL</title>
<text text-anchor="start" x="744" y="-357.3" font-family="Times New Roman,serif" font-size="14.00" fill="red">duālis</text>
</g>
<!-- duoL&#45;&gt;dualisL -->
<g id="edge35" class="edge">
<title>duoL&#45;&gt;dualisL</title>
<path fill="none" stroke="black" d="M762.5,-426C762.5,-426 761.9,-406.87 761.36,-389.53"/>
<polygon fill="black" stroke="black" points="764.85,-389.04 761.04,-379.15 757.85,-389.26 764.85,-389.04"/>
</g>
<!-- duoI -->
<g id="node38" class="node">
<title>duoI</title>
<text text-anchor="start" x="837.5" y="-272.8" font-family="Times New Roman,serif" font-weight="bold" font-size="14.00">Italian</text>
<text text-anchor="start" x="846.5" y="-258.8" font-family="Times New Roman,serif" font-size="14.00" fill="red">duo</text>
</g>
<!-- duoL&#45;&gt;duoI -->
<g id="edge37" class="edge">
<title>duoL&#45;&gt;duoI</title>
<path fill="none" stroke="black" d="M762.5,-426C762.5,-426 783.22,-404.01 796.5,-384 815.59,-355.23 833.76,-319.88 845.23,-296.24"/>
<polygon fill="black" stroke="black" points="848.4,-297.72 849.57,-287.19 842.09,-294.69 848.4,-297.72"/>
</g>
<!-- deuceOF -->
<g id="node27" class="node">
<title>deuceOF</title>
<text text-anchor="start" x="920.5" y="-272.8" font-family="Times New Roman,serif" font-weight="bold" font-size="14.00">Old French</text>
<text text-anchor="start" x="938.5" y="-258.8" font-family="Times New Roman,serif" font-size="14.00" fill="red">deuce</text>
</g>
<!-- duosL&#45;&gt;deuceOF -->
<g id="edge26" class="edge">
<title>duosL&#45;&gt;deuceOF</title>
<path fill="none" stroke="black" d="M925.63,-342.65C930.96,-329.7 938.33,-311.76 944.42,-296.95"/>
<polygon fill="black" stroke="black" points="947.82,-297.88 948.39,-287.3 941.35,-295.22 947.82,-297.88"/>
</g>
<!-- deusME -->
<g id="node28" class="node">
<title>deusME</title>
<text text-anchor="start" x="997" y="-136.8" font-family="Times New Roman,serif" font-weight="bold" font-size="14.00">Middle</text>
<text text-anchor="start" x="995.5" y="-122.8" font-family="Times New Roman,serif" font-weight="bold" font-size="14.00">English</text>
<text text-anchor="start" x="1005" y="-108.8" font-family="Times New Roman,serif" font-size="14.00" fill="red">deus</text>
</g>
<!-- deuceOF&#45;&gt;deusME -->
<g id="edge27" class="edge">
<title>deuceOF&#45;&gt;deusME</title>
<path fill="none" stroke="black" stroke-dasharray="5,2" d="M963.1,-250.99C973.1,-228.62 990.88,-188.81 1003.61,-160.33"/>
<polygon fill="black" stroke="black" points="1006.83,-161.7 1007.71,-151.15 1000.44,-158.85 1006.83,-161.7"/>
</g>
<!-- deuce -->
<g id="node29" class="node">
<title>deuce</title>
<text text-anchor="start" x="999" y="-42.8" font-family="Times New Roman,serif" font-weight="bold" font-size="14.00">Modern</text>
<text text-anchor="start" x="1000.5" y="-28.8" font-family="Times New Roman,serif" font-weight="bold" font-size="14.00">English</text>
<text text-anchor="start" x="1006.5" y="-14.8" font-family="Times New Roman,serif" font-size="14.00" fill="red">deuce</text>
</g>
<!-- deusME&#45;&gt;deuce -->
<g id="edge28" class="edge">
<title>deusME&#45;&gt;deuce</title>
<path fill="none" stroke="black" d="M1019.81,-100.83C1020.37,-90.58 1021.03,-78.45 1021.64,-67.3"/>
<polygon fill="black" stroke="black" points="1025.15,-67.19 1022.2,-57.01 1018.16,-66.81 1025.15,-67.19"/>
</g>
<!-- dekm -->
<g id="node30" class="node">
<title>dekm</title>
<g id="a_node30"><a xlink:href="dekm-ten.svg" xlink:title="&lt;b&gt;Indo&#45;&lt;br/&gt;European&lt;/b&gt;&lt;br/&gt;&lt;font color=&quot;red&quot;&gt;*dekm̥&lt;/font&gt;&lt;br/&gt;&lt;font point&#45;size=&quot;12&quot;&gt;ten&lt;/font&gt;">
<path fill="none" stroke="black" stroke-dasharray="5,2" d="M554,-568C554,-568 501,-568 501,-568 495,-568 489,-562 489,-556 489,-556 489,-518 489,-518 489,-512 495,-506 501,-506 501,-506 554,-506 554,-506 560,-506 566,-512 566,-518 566,-518 566,-556 566,-556 566,-562 560,-568 554,-568"/>
<text text-anchor="start" x="511" y="-553.8" font-family="Times New Roman,serif" font-weight="bold" font-size="14.00">Indo&#45;</text>
<text text-anchor="start" x="497" y="-539.8" font-family="Times New Roman,serif" font-weight="bold" font-size="14.00">European</text>
<text text-anchor="start" x="508.5" y="-525.8" font-family="Times New Roman,serif" font-size="14.00" fill="red">*dekm̥</text>
<text text-anchor="start" x="520.5" y="-513.4" font-family="Times New Roman,serif" font-size="12.00">ten</text>
</a>
</g>
</g>
<!-- decemL -->
<g id="node31" class="node">
<title>decemL</title>
<text text-anchor="start" x="593" y="-448.8" font-family="Times New Roman,serif" font-weight="bold" font-size="14.00">Latin</text>
<text text-anchor="start" x="591" y="-434.8" font-family="Times New Roman,serif" font-size="14.00" fill="red">decem</text>
</g>
<!-- dekm&#45;&gt;decemL -->
<g id="edge29" class="edge">
<title>dekm&#45;&gt;decemL</title>
<path fill="none" stroke="black" d="M555.26,-505.53C565.66,-494.12 577.32,-481.32 587.16,-470.52"/>
<polygon fill="black" stroke="black" points="589.81,-472.8 593.96,-463.05 584.64,-468.09 589.81,-472.8"/>
</g>
<!-- decemL&#45;&gt;duodecimL -->
<g id="edge30" class="edge">
<title>decemL&#45;&gt;duodecimL</title>
<path fill="none" stroke="black" d="M615.13,-426.85C619.02,-415 624.05,-399.66 627.28,-389.82"/>
<polygon fill="black" stroke="black" points="630.71,-390.59 630.5,-380 624.06,-388.41 630.71,-390.59"/>
</g>
<!-- dozeOF -->
<g id="node33" class="node">
<title>dozeOF</title>
<text text-anchor="start" x="579.5" y="-279.8" font-family="Times New Roman,serif" font-weight="bold" font-size="14.00">Old French</text>
<text text-anchor="start" x="600.5" y="-265.8" font-family="Times New Roman,serif" font-size="14.00" fill="red">doze</text>
<text text-anchor="start" x="593" y="-251.8" font-family="Times New Roman,serif" font-size="14.00" fill="red">dozaine</text>
</g>
<!-- duodecimL&#45;&gt;dozeOF -->
<g id="edge32" class="edge">
<title>duodecimL&#45;&gt;dozeOF</title>
<path fill="none" stroke="black" d="M620.15,-342.65C619.3,-331.76 618.18,-317.36 617.16,-304.25"/>
<polygon fill="black" stroke="black" points="620.64,-303.8 616.37,-294.1 613.66,-304.34 620.64,-303.8"/>
</g>
<!-- dozeineME -->
<g id="node34" class="node">
<title>dozeineME</title>
<text text-anchor="start" x="590" y="-136.8" font-family="Times New Roman,serif" font-weight="bold" font-size="14.00">Middle</text>
<text text-anchor="start" x="588.5" y="-122.8" font-family="Times New Roman,serif" font-weight="bold" font-size="14.00">English</text>
<text text-anchor="start" x="590" y="-108.8" font-family="Times New Roman,serif" font-size="14.00" fill="red">dozeine</text>
</g>
<!-- dozeOF&#45;&gt;dozeineME -->
<g id="edge33" class="edge">
<title>dozeOF&#45;&gt;dozeineME</title>
<path fill="none" stroke="black" stroke-dasharray="5,2" d="M613.98,-243.76C613.5,-221.06 612.77,-186.91 612.23,-161.4"/>
<polygon fill="black" stroke="black" points="615.73,-161.32 612.02,-151.39 608.73,-161.47 615.73,-161.32"/>
</g>
<!-- dozen -->
<g id="node35" class="node">
<title>dozen</title>
<text text-anchor="start" x="584" y="-42.8" font-family="Times New Roman,serif" font-weight="bold" font-size="14.00">Modern</text>
<text text-anchor="start" x="585.5" y="-28.8" font-family="Times New Roman,serif" font-weight="bold" font-size="14.00">English</text>
<text text-anchor="start" x="591.5" y="-14.8" font-family="Times New Roman,serif" font-size="14.00" fill="red">dozen</text>
</g>
<!-- dozeineME&#45;&gt;dozen -->
<g id="edge34" class="edge">
<title>dozeineME&#45;&gt;dozen</title>
<path fill="none" stroke="black" d="M610.71,-100.83C610.38,-90.58 609.98,-78.45 609.62,-67.3"/>
<polygon fill="black" stroke="black" points="613.11,-66.89 609.28,-57.01 606.11,-67.12 613.11,-66.89"/>
</g>
<!-- dual -->
<g id="node37" class="node">
<title>dual</title>
<text text-anchor="start" x="750" y="-42.8" font-family="Times New Roman,serif" font-weight="bold" font-size="14.00">Modern</text>
<text text-anchor="start" x="751.5" y="-28.8" font-family="Times New Roman,serif" font-weight="bold" font-size="14.00">English</text>
<text text-anchor="start" x="762.5" y="-14.8" font-family="Times New Roman,serif" font-size="14.00" fill="red">dual</text>
</g>
<!-- dualisL&#45;&gt;dual -->
<g id="edge36" class="edge">
<title>dualisL&#45;&gt;dual</title>
<path fill="none" stroke="black" stroke-dasharray="5,2" d="M761.23,-342.88C763.44,-291.36 770.04,-137.07 773.02,-67.58"/>
<polygon fill="black" stroke="black" points="776.53,-67.33 773.46,-57.19 769.54,-67.03 776.53,-67.33"/>
</g>
<!-- duettoI -->
<g id="node39" class="node">
<title>duettoI</title>
<text text-anchor="start" x="907.5" y="-128.8" font-family="Times New Roman,serif" font-size="14.00" fill="red">duetto</text>
<text text-anchor="start" x="899" y="-116.4" font-family="Times New Roman,serif" font-size="12.00">(diminutive)</text>
</g>
<!-- duoI&#45;&gt;duettoI -->
<g id="edge38" class="edge">
<title>duoI&#45;&gt;duettoI</title>
<path fill="none" stroke="black" d="M861.5,-250C861.5,-250 893.11,-189.24 911.9,-153.13"/>
<polygon fill="black" stroke="black" points="915.09,-154.59 916.6,-144.1 908.88,-151.36 915.09,-154.59"/>
</g>
<!-- duo -->
<g id="node41" class="node">
<title>duo</title>
<text text-anchor="start" x="833" y="-42.8" font-family="Times New Roman,serif" font-weight="bold" font-size="14.00">Modern</text>
<text text-anchor="start" x="834.5" y="-28.8" font-family="Times New Roman,serif" font-weight="bold" font-size="14.00">English</text>
<text text-anchor="start" x="846.5" y="-14.8" font-family="Times New Roman,serif" font-size="14.00" fill="red">duo</text>
</g>
<!-- duoI&#45;&gt;duo -->
<g id="edge40" class="edge">
<title>duoI&#45;&gt;duo</title>
<path fill="none" stroke="black" stroke-dasharray="5,2" d="M861.5,-250C861.5,-250 859.26,-128.57 858.13,-67.38"/>
<polygon fill="black" stroke="black" points="861.63,-66.99 857.94,-57.05 854.63,-67.11 861.63,-66.99"/>
</g>
<!-- duet -->
<g id="node40" class="node">
<title>duet</title>
<text text-anchor="start" x="916" y="-42.8" font-family="Times New Roman,serif" font-weight="bold" font-size="14.00">Modern</text>
<text text-anchor="start" x="917.5" y="-28.8" font-family="Times New Roman,serif" font-weight="bold" font-size="14.00">English</text>
<text text-anchor="start" x="928" y="-14.8" font-family="Times New Roman,serif" font-size="14.00" fill="red">duet</text>
</g>
<!-- duettoI&#45;&gt;duet -->
<g id="edge39" class="edge">
<title>duettoI&#45;&gt;duet</title>
<path fill="none" stroke="black" stroke-dasharray="5,2" d="M928.32,-107.7C930.17,-96.33 932.66,-81.07 934.91,-67.31"/>
<polygon fill="black" stroke="black" points="938.4,-67.6 936.56,-57.17 931.5,-66.48 938.4,-67.6"/>
</g>
<!-- duasG -->
<g id="node43" class="node">
<title>duasG</title>
<text text-anchor="start" x="492" y="-357.3" font-family="Times New Roman,serif" font-size="14.00" fill="red">duas, duad&#45;</text>
</g>
<!-- duoG&#45;&gt;duasG -->
<g id="edge42" class="edge">
<title>duoG&#45;&gt;duasG</title>
<path fill="none" stroke="black" d="M525.5,-426.61C525.5,-415.77 525.5,-401.6 525.5,-389.29"/>
<polygon fill="black" stroke="black" points="529,-389.08 525.5,-379.08 522,-389.08 529,-389.08"/>
</g>
<!-- duad -->
<g id="node44" class="node">
<title>duad</title>
<text text-anchor="start" x="501" y="-49.8" font-family="Times New Roman,serif" font-weight="bold" font-size="14.00">Modern</text>
<text text-anchor="start" x="502.5" y="-35.8" font-family="Times New Roman,serif" font-weight="bold" font-size="14.00">English</text>
<text text-anchor="start" x="511.5" y="-21.8" font-family="Times New Roman,serif" font-size="14.00" fill="red">duad</text>
<text text-anchor="start" x="511.5" y="-7.8" font-family="Times New Roman,serif" font-size="14.00" fill="red">dyad</text>
</g>
<!-- duasG&#45;&gt;duad -->
<g id="edge43" class="edge">
<title>duasG&#45;&gt;duad</title>
<path fill="none" stroke="black" stroke-dasharray="5,2" d="M525.5,-342.88C525.5,-292.97 525.5,-146.57 525.5,-74.32"/>
<polygon fill="black" stroke="black" points="529,-74.21 525.5,-64.21 522,-74.21 529,-74.21"/>
</g>
</g>
</svg>
