<?xml version="1.0" encoding="UTF-8" standalone="no"?>
<!DOCTYPE svg PUBLIC "-//W3C//DTD SVG 1.1//EN"
 "http://www.w3.org/Graphics/SVG/1.1/DTD/svg11.dtd">
<!-- Generated by graphviz version 2.49.0 (20210828.1703)
 -->
<!-- Pages: 1 -->
<svg width="1396pt" height="864pt"
 viewBox="0.00 0.00 1395.50 864.00" xmlns="http://www.w3.org/2000/svg" xmlns:xlink="http://www.w3.org/1999/xlink">
<g id="graph0" class="graph" transform="scale(1 1) rotate(0) translate(4 860)">
<polygon fill="white" stroke="transparent" points="-4,4 -4,-860 1391.5,-860 1391.5,4 -4,4"/>
<!-- dwo -->
<g id="node1" class="node">
<title>dwo</title>
<g id="a_node1"><a xlink:href="dwo-two0.svg" xlink:title="&lt;font point&#45;size=&quot;24&quot;&gt;&lt;b&gt;Indo&#45;European&lt;/b&gt;&lt;/font&gt;&lt;br/&gt;&lt;font point&#45;size=&quot;18&quot; color=&quot;red&quot;&gt;*dwo&#45;&lt;/font&gt;&lt;br/&gt;&lt;font point&#45;size=&quot;16&quot;&gt;two&lt;/font&gt;">
<path fill="none" stroke="black" stroke-dasharray="5,2" d="M793,-856C793,-856 644,-856 644,-856 638,-856 632,-850 632,-844 632,-844 632,-802 632,-802 632,-796 638,-790 644,-790 644,-790 793,-790 793,-790 799,-790 805,-796 805,-802 805,-802 805,-844 805,-844 805,-850 799,-856 793,-856"/>
<text text-anchor="start" x="640" y="-833.8" font-family="Times New Roman,serif" font-weight="bold" font-size="24.00">Indo&#45;European</text>
<text text-anchor="start" x="695.5" y="-814.6" font-family="Times New Roman,serif" font-size="18.00" fill="red">*dwo&#45;</text>
<text text-anchor="start" x="706" y="-798.2" font-family="Times New Roman,serif" font-size="16.00">two</text>
</a>
</g>
</g>
<!-- du -->
<g id="node2" class="node">
<title>du</title>
<text text-anchor="start" x="755.5" y="-719.3" font-family="Times New Roman,serif" font-size="14.00" fill="red">*du</text>
</g>
<!-- dwo&#45;&gt;du -->
<g id="edge1" class="edge">
<title>dwo&#45;&gt;du</title>
<path fill="none" stroke="black" d="M704.5,-789C704.5,-789 725.43,-767.05 742.97,-748.67"/>
<polygon fill="black" stroke="black" points="745.84,-750.73 750.21,-741.08 740.78,-745.9 745.84,-750.73"/>
</g>
<!-- dwis -->
<g id="node3" class="node">
<title>dwis</title>
<text text-anchor="start" x="175.5" y="-635.8" font-family="Times New Roman,serif" font-size="14.00" fill="red">*dwis</text>
<text text-anchor="start" x="180" y="-623.4" font-family="Times New Roman,serif" font-size="12.00">twice</text>
</g>
<!-- dwo&#45;&gt;dwis -->
<g id="edge2" class="edge">
<title>dwo&#45;&gt;dwis</title>
<path fill="none" stroke="black" d="M704.5,-789C704.5,-789 619.24,-772.76 552.5,-754 433,-720.41 294.39,-671.26 229.53,-647.65"/>
<polygon fill="black" stroke="black" points="230.37,-644.23 219.77,-644.09 227.97,-650.8 230.37,-644.23"/>
</g>
<!-- duplo -->
<g id="node4" class="node">
<title>duplo</title>
<text text-anchor="start" x="743" y="-635.8" font-family="Times New Roman,serif" font-size="14.00" fill="red">*du&#45;plo&#45;</text>
<text text-anchor="start" x="750" y="-623.4" font-family="Times New Roman,serif" font-size="12.00">twofold</text>
</g>
<!-- du&#45;&gt;duplo -->
<g id="edge3" class="edge">
<title>du&#45;&gt;duplo</title>
<path fill="none" stroke="black" d="M766.5,-704C766.5,-704 766.83,-681.03 767.11,-661.41"/>
<polygon fill="black" stroke="black" points="770.61,-661.35 767.25,-651.3 763.61,-661.25 770.61,-661.35"/>
</g>
<!-- duplek -->
<g id="node17" class="node">
<title>duplek</title>
<text text-anchor="start" x="572.5" y="-635.8" font-family="Times New Roman,serif" font-size="14.00" fill="red">*du&#45;plek&#45;</text>
<text text-anchor="start" x="582" y="-623.4" font-family="Times New Roman,serif" font-size="12.00">twofold</text>
</g>
<!-- du&#45;&gt;duplek -->
<g id="edge15" class="edge">
<title>du&#45;&gt;duplek</title>
<path fill="none" stroke="black" d="M766.5,-704C766.5,-704 654.41,-666.64 620.26,-655.25"/>
<polygon fill="black" stroke="black" points="621.09,-651.84 610.5,-652 618.88,-658.48 621.09,-651.84"/>
</g>
<!-- dubhwio -->
<g id="node29" class="node">
<title>dubhwio</title>
<text text-anchor="start" x="882.5" y="-641.8" font-family="Times New Roman,serif" font-size="14.00" fill="red">*du&#45;bhw&#45;io&#45;</text>
<text text-anchor="start" x="874" y="-629.4" font-family="Times New Roman,serif" font-size="12.00">&quot;hesitating between</text>
<text text-anchor="start" x="880" y="-617.4" font-family="Times New Roman,serif" font-size="12.00">two alternatives&quot;</text>
</g>
<!-- du&#45;&gt;dubhwio -->
<g id="edge26" class="edge">
<title>du&#45;&gt;dubhwio</title>
<path fill="none" stroke="black" d="M766.5,-704C766.5,-704 863.84,-670.85 895.01,-660.23"/>
<polygon fill="black" stroke="black" points="896.16,-663.54 904.5,-657 893.91,-656.91 896.16,-663.54"/>
</g>
<!-- twisGm -->
<g id="node41" class="node">
<title>twisGm</title>
<text text-anchor="start" x="20" y="-437.8" font-family="Times New Roman,serif" font-weight="bold" font-size="14.00">Germanic</text>
<text text-anchor="start" x="35.5" y="-423.8" font-family="Times New Roman,serif" font-size="14.00" fill="red">*twis</text>
</g>
<!-- dwis&#45;&gt;twisGm -->
<g id="edge40" class="edge">
<title>dwis&#45;&gt;twisGm</title>
<path fill="none" stroke="black" d="M188.5,-614C188.5,-614 133.39,-603.98 105.5,-574 75.93,-542.21 61.52,-492.62 55.09,-462.06"/>
<polygon fill="black" stroke="black" points="58.49,-461.24 53.13,-452.11 51.62,-462.59 58.49,-461.24"/>
</g>
<!-- dwisno -->
<g id="node45" class="node">
<title>dwisno</title>
<text text-anchor="start" x="123" y="-533.3" font-family="Times New Roman,serif" font-size="14.00" fill="red">*dwis&#45;no&#45;</text>
</g>
<!-- dwis&#45;&gt;dwisno -->
<g id="edge44" class="edge">
<title>dwis&#45;&gt;dwisno</title>
<path fill="none" stroke="black" d="M188.5,-614C188.5,-614 175.08,-586.43 164.4,-564.5"/>
<polygon fill="black" stroke="black" points="167.42,-562.7 159.9,-555.25 161.13,-565.77 167.42,-562.7"/>
</g>
<!-- bisL -->
<g id="node50" class="node">
<title>bisL</title>
<text text-anchor="start" x="217" y="-540.8" font-family="Times New Roman,serif" font-weight="bold" font-size="14.00">Latin</text>
<text text-anchor="start" x="225" y="-526.8" font-family="Times New Roman,serif" font-size="14.00" fill="red">bis</text>
</g>
<!-- dwis&#45;&gt;bisL -->
<g id="edge49" class="edge">
<title>dwis&#45;&gt;bisL</title>
<path fill="none" stroke="black" d="M188.5,-614C188.5,-614 205.12,-585.93 218.16,-563.91"/>
<polygon fill="black" stroke="black" points="221.21,-565.63 223.29,-555.25 215.18,-562.07 221.21,-565.63"/>
</g>
<!-- duplusL -->
<g id="node5" class="node">
<title>duplusL</title>
<text text-anchor="start" x="759" y="-540.8" font-family="Times New Roman,serif" font-weight="bold" font-size="14.00">Latin</text>
<text text-anchor="start" x="737.5" y="-526.8" font-family="Times New Roman,serif" font-size="14.00" fill="red">duplus, dupla</text>
</g>
<!-- duplo&#45;&gt;duplusL -->
<g id="edge4" class="edge">
<title>duplo&#45;&gt;duplusL</title>
<path fill="none" stroke="black" d="M768.97,-614.76C770.14,-600.98 771.81,-581.4 773.16,-565.47"/>
<polygon fill="black" stroke="black" points="776.68,-565.39 774.04,-555.13 769.71,-564.8 776.68,-565.39"/>
</g>
<!-- duple -->
<g id="node6" class="node">
<title>duple</title>
<text text-anchor="start" x="722" y="-42.8" font-family="Times New Roman,serif" font-weight="bold" font-size="14.00">Modern</text>
<text text-anchor="start" x="723.5" y="-28.8" font-family="Times New Roman,serif" font-weight="bold" font-size="14.00">English</text>
<text text-anchor="start" x="731" y="-14.8" font-family="Times New Roman,serif" font-size="14.00" fill="red">duple</text>
</g>
<!-- duplusL&#45;&gt;duple -->
<g id="edge5" class="edge">
<title>duplusL&#45;&gt;duple</title>
<path fill="none" stroke="black" stroke-dasharray="5,2" d="M771.28,-519C763.24,-485.02 746.5,-406.24 746.5,-339 746.5,-339 746.5,-339 746.5,-240 746.5,-179.17 746.5,-108.29 746.5,-67.24"/>
<polygon fill="black" stroke="black" points="750,-67.22 746.5,-57.22 743,-67.22 750,-67.22"/>
</g>
<!-- doubleOF -->
<g id="node7" class="node">
<title>doubleOF</title>
<text text-anchor="start" x="788.5" y="-341.8" font-family="Times New Roman,serif" font-weight="bold" font-size="14.00">Old French</text>
<text text-anchor="start" x="804" y="-327.8" font-family="Times New Roman,serif" font-size="14.00" fill="red">double</text>
</g>
<!-- duplusL&#45;&gt;doubleOF -->
<g id="edge6" class="edge">
<title>duplusL&#45;&gt;doubleOF</title>
<path fill="none" stroke="black" d="M779.68,-518.86C788.03,-484.59 806.84,-407.36 816.89,-366.13"/>
<polygon fill="black" stroke="black" points="820.33,-366.78 819.3,-356.24 813.53,-365.13 820.33,-366.78"/>
</g>
<!-- doblaS -->
<g id="node13" class="node">
<title>doblaS</title>
<text text-anchor="start" x="974" y="-250.8" font-family="Times New Roman,serif" font-weight="bold" font-size="14.00">Spanish</text>
<text text-anchor="start" x="982.5" y="-236.8" font-family="Times New Roman,serif" font-size="14.00" fill="red">dobla</text>
<text text-anchor="start" x="984.5" y="-224.4" font-family="Times New Roman,serif" font-size="12.00">a coin</text>
</g>
<!-- duplusL&#45;&gt;doblaS -->
<g id="edge12" class="edge">
<title>duplusL&#45;&gt;doblaS</title>
<path fill="none" stroke="black" d="M788.45,-518.92C824.76,-471.05 927.93,-335.03 974.81,-273.24"/>
<polygon fill="black" stroke="black" points="977.78,-275.11 981.03,-265.03 972.2,-270.88 977.78,-275.11"/>
</g>
<!-- doubleME -->
<g id="node8" class="node">
<title>doubleME</title>
<text text-anchor="start" x="802" y="-251.8" font-family="Times New Roman,serif" font-weight="bold" font-size="14.00">Middle</text>
<text text-anchor="start" x="800.5" y="-237.8" font-family="Times New Roman,serif" font-weight="bold" font-size="14.00">English</text>
<text text-anchor="start" x="804" y="-223.8" font-family="Times New Roman,serif" font-size="14.00" fill="red">double</text>
</g>
<!-- doubleOF&#45;&gt;doubleME -->
<g id="edge7" class="edge">
<title>doubleOF&#45;&gt;doubleME</title>
<path fill="none" stroke="black" stroke-dasharray="5,2" d="M830.5,-319C830.5,-319 828.5,-296.99 826.64,-276.5"/>
<polygon fill="black" stroke="black" points="830.11,-276.01 825.71,-266.36 823.13,-276.64 830.11,-276.01"/>
</g>
<!-- doubletOF -->
<g id="node10" class="node">
<title>doubletOF</title>
<text text-anchor="start" x="886" y="-243.8" font-family="Times New Roman,serif" font-size="14.00" fill="red">doublet</text>
<text text-anchor="start" x="881" y="-231.4" font-family="Times New Roman,serif" font-size="12.00">(diminutive)</text>
</g>
<!-- doubleOF&#45;&gt;doubletOF -->
<g id="edge9" class="edge">
<title>doubleOF&#45;&gt;doubletOF</title>
<path fill="none" stroke="black" d="M830.5,-319C830.5,-319 860.55,-288.95 883.1,-266.4"/>
<polygon fill="black" stroke="black" points="885.81,-268.63 890.41,-259.09 880.87,-263.69 885.81,-268.63"/>
</g>
<!-- double -->
<g id="node9" class="node">
<title>double</title>
<text text-anchor="start" x="805" y="-42.8" font-family="Times New Roman,serif" font-weight="bold" font-size="14.00">Modern</text>
<text text-anchor="start" x="806.5" y="-28.8" font-family="Times New Roman,serif" font-weight="bold" font-size="14.00">English</text>
<text text-anchor="start" x="810" y="-14.8" font-family="Times New Roman,serif" font-size="14.00" fill="red">double</text>
</g>
<!-- doubleME&#45;&gt;double -->
<g id="edge8" class="edge">
<title>doubleME&#45;&gt;double</title>
<path fill="none" stroke="black" d="M824.2,-215.85C825.26,-179.18 827.29,-109.29 828.5,-67.34"/>
<polygon fill="black" stroke="black" points="832,-67.41 828.8,-57.32 825.01,-67.21 832,-67.41"/>
</g>
<!-- doubletME -->
<g id="node11" class="node">
<title>doubletME</title>
<text text-anchor="start" x="886" y="-147.8" font-family="Times New Roman,serif" font-weight="bold" font-size="14.00">Middle</text>
<text text-anchor="start" x="884.5" y="-133.8" font-family="Times New Roman,serif" font-weight="bold" font-size="14.00">English</text>
<text text-anchor="start" x="886" y="-119.8" font-family="Times New Roman,serif" font-size="14.00" fill="red">doublet</text>
</g>
<!-- doubletOF&#45;&gt;doubletME -->
<g id="edge10" class="edge">
<title>doubletOF&#45;&gt;doubletME</title>
<path fill="none" stroke="black" stroke-dasharray="5,2" d="M907.5,-222.7C907.5,-208.95 907.5,-189.3 907.5,-172.38"/>
<polygon fill="black" stroke="black" points="911,-172.28 907.5,-162.28 904,-172.28 911,-172.28"/>
</g>
<!-- doublet -->
<g id="node12" class="node">
<title>doublet</title>
<text text-anchor="start" x="888" y="-42.8" font-family="Times New Roman,serif" font-weight="bold" font-size="14.00">Modern</text>
<text text-anchor="start" x="889.5" y="-28.8" font-family="Times New Roman,serif" font-weight="bold" font-size="14.00">English</text>
<text text-anchor="start" x="891" y="-14.8" font-family="Times New Roman,serif" font-size="14.00" fill="red">doublet</text>
</g>
<!-- doubletME&#45;&gt;doublet -->
<g id="edge11" class="edge">
<title>doubletME&#45;&gt;doublet</title>
<path fill="none" stroke="black" d="M908.67,-111.85C909.31,-98.65 910.12,-82.06 910.82,-67.51"/>
<polygon fill="black" stroke="black" points="914.33,-67.51 911.32,-57.35 907.34,-67.17 914.33,-67.51"/>
</g>
<!-- doblonS -->
<g id="node14" class="node">
<title>doblonS</title>
<text text-anchor="start" x="978.5" y="-139.8" font-family="Times New Roman,serif" font-size="14.00" fill="red">doblón</text>
<text text-anchor="start" x="965" y="-127.4" font-family="Times New Roman,serif" font-size="12.00">(augmentative)</text>
</g>
<!-- doblaS&#45;&gt;doblonS -->
<g id="edge13" class="edge">
<title>doblaS&#45;&gt;doblonS</title>
<path fill="none" stroke="black" d="M998.5,-216.85C998.5,-201.57 998.5,-181.48 998.5,-165.4"/>
<polygon fill="black" stroke="black" points="1002,-165.02 998.5,-155.02 995,-165.02 1002,-165.02"/>
</g>
<!-- doubloon -->
<g id="node15" class="node">
<title>doubloon</title>
<text text-anchor="start" x="974" y="-42.8" font-family="Times New Roman,serif" font-weight="bold" font-size="14.00">Modern</text>
<text text-anchor="start" x="975.5" y="-28.8" font-family="Times New Roman,serif" font-weight="bold" font-size="14.00">English</text>
<text text-anchor="start" x="971" y="-14.8" font-family="Times New Roman,serif" font-size="14.00" fill="red">doubloon</text>
</g>
<!-- doblonS&#45;&gt;doubloon -->
<g id="edge14" class="edge">
<title>doblonS&#45;&gt;doubloon</title>
<path fill="none" stroke="black" stroke-dasharray="5,2" d="M998.5,-118.99C998.5,-105.08 998.5,-84.95 998.5,-67.67"/>
<polygon fill="black" stroke="black" points="1002,-67.36 998.5,-57.36 995,-67.36 1002,-67.36"/>
</g>
<!-- plek -->
<g id="node16" class="node">
<title>plek</title>
<g id="a_node16"><a xlink:href=".svg" xlink:title="&lt;b&gt;Indo&#45;&lt;br/&gt;European&lt;/b&gt;&lt;br/&gt;&lt;font color=&quot;red&quot;&gt;*plek&#45;&lt;/font&gt;&lt;br/&gt;&lt;font point&#45;size=&quot;12&quot;&gt;to pleat&lt;/font&gt;">
<path fill="none" stroke="black" stroke-dasharray="5,2" d="M626,-754C626,-754 573,-754 573,-754 567,-754 561,-748 561,-742 561,-742 561,-704 561,-704 561,-698 567,-692 573,-692 573,-692 626,-692 626,-692 632,-692 638,-698 638,-704 638,-704 638,-742 638,-742 638,-748 632,-754 626,-754"/>
<text text-anchor="start" x="583" y="-739.8" font-family="Times New Roman,serif" font-weight="bold" font-size="14.00">Indo&#45;</text>
<text text-anchor="start" x="569" y="-725.8" font-family="Times New Roman,serif" font-weight="bold" font-size="14.00">European</text>
<text text-anchor="start" x="582" y="-711.8" font-family="Times New Roman,serif" font-size="14.00" fill="red">*plek&#45;</text>
<text text-anchor="start" x="582.5" y="-699.4" font-family="Times New Roman,serif" font-size="12.00">to pleat</text>
</a>
</g>
</g>
<!-- plek&#45;&gt;duplek -->
<g id="edge16" class="edge">
<title>plek&#45;&gt;duplek</title>
<path fill="none" stroke="black" d="M604.23,-691.91C605.91,-681.24 607.68,-669.94 608.91,-662.1"/>
<polygon fill="black" stroke="black" points="612.41,-662.42 610.5,-652 605.49,-661.34 612.41,-662.42"/>
</g>
<!-- duplexL -->
<g id="node18" class="node">
<title>duplexL</title>
<text text-anchor="start" x="568" y="-540.8" font-family="Times New Roman,serif" font-weight="bold" font-size="14.00">Latin</text>
<text text-anchor="start" x="542" y="-526.8" font-family="Times New Roman,serif" font-size="14.00" fill="red">duplex, duplic&#45;</text>
</g>
<!-- duplek&#45;&gt;duplexL -->
<g id="edge17" class="edge">
<title>duplek&#45;&gt;duplexL</title>
<path fill="none" stroke="black" d="M596.75,-614.76C594.55,-600.98 591.43,-581.4 588.88,-565.47"/>
<polygon fill="black" stroke="black" points="592.27,-564.46 587.23,-555.13 585.35,-565.56 592.27,-564.46"/>
</g>
<!-- duplex -->
<g id="node19" class="node">
<title>duplex</title>
<text text-anchor="start" x="471" y="-42.8" font-family="Times New Roman,serif" font-weight="bold" font-size="14.00">Modern</text>
<text text-anchor="start" x="472.5" y="-28.8" font-family="Times New Roman,serif" font-weight="bold" font-size="14.00">English</text>
<text text-anchor="start" x="476.5" y="-14.8" font-family="Times New Roman,serif" font-size="14.00" fill="red">duplex</text>
</g>
<!-- duplexL&#45;&gt;duplex -->
<g id="edge18" class="edge">
<title>duplexL&#45;&gt;duplex</title>
<path fill="none" stroke="black" stroke-dasharray="5,2" d="M587.5,-518C587.5,-518 549.34,-493.62 531.5,-464 501.68,-414.47 495.5,-396.81 495.5,-339 495.5,-339 495.5,-339 495.5,-240 495.5,-179.17 495.5,-108.29 495.5,-67.24"/>
<polygon fill="black" stroke="black" points="499,-67.22 495.5,-57.22 492,-67.22 499,-67.22"/>
</g>
<!-- duplicareL -->
<g id="node20" class="node">
<title>duplicareL</title>
<text text-anchor="start" x="551.5" y="-449.8" font-family="Times New Roman,serif" font-size="14.00" fill="red">duplicāre</text>
<text text-anchor="start" x="556" y="-437.4" font-family="Times New Roman,serif" font-size="12.00">to double</text>
<text text-anchor="start" x="548.5" y="-423.8" font-family="Times New Roman,serif" font-size="14.00" fill="red">duplicātus</text>
<text text-anchor="start" x="559" y="-411.4" font-family="Times New Roman,serif" font-size="12.00">doubled</text>
</g>
<!-- duplexL&#45;&gt;duplicareL -->
<g id="edge19" class="edge">
<title>duplexL&#45;&gt;duplicareL</title>
<path fill="none" stroke="black" d="M587.5,-518C587.5,-518 584.8,-495.62 582.21,-474.1"/>
<polygon fill="black" stroke="black" points="585.67,-473.54 581,-464.03 578.72,-474.38 585.67,-473.54"/>
</g>
<!-- duplicitasL -->
<g id="node23" class="node">
<title>duplicitasL</title>
<text text-anchor="start" x="640.5" y="-436.8" font-family="Times New Roman,serif" font-size="14.00" fill="red">duplicitās</text>
<text text-anchor="start" x="642" y="-424.4" font-family="Times New Roman,serif" font-size="12.00">doubleness</text>
</g>
<!-- duplexL&#45;&gt;duplicitasL -->
<g id="edge22" class="edge">
<title>duplexL&#45;&gt;duplicitasL</title>
<path fill="none" stroke="black" d="M587.5,-518C587.5,-518 620.34,-483.92 643.94,-459.44"/>
<polygon fill="black" stroke="black" points="646.5,-461.83 650.92,-452.2 641.46,-456.97 646.5,-461.83"/>
</g>
<!-- duplicateME -->
<g id="node21" class="node">
<title>duplicateME</title>
<text text-anchor="start" x="557" y="-147.8" font-family="Times New Roman,serif" font-weight="bold" font-size="14.00">Middle</text>
<text text-anchor="start" x="555.5" y="-133.8" font-family="Times New Roman,serif" font-weight="bold" font-size="14.00">English</text>
<text text-anchor="start" x="553" y="-119.8" font-family="Times New Roman,serif" font-size="14.00" fill="red">duplicate</text>
</g>
<!-- duplicareL&#45;&gt;duplicateME -->
<g id="edge20" class="edge">
<title>duplicareL&#45;&gt;duplicateME</title>
<path fill="none" stroke="black" stroke-dasharray="5,2" d="M577.6,-403.91C577.78,-349.17 578.18,-231.11 578.38,-172.49"/>
<polygon fill="black" stroke="black" points="581.88,-172.27 578.42,-162.26 574.88,-172.25 581.88,-172.27"/>
</g>
<!-- duplicate -->
<g id="node22" class="node">
<title>duplicate</title>
<text text-anchor="start" x="555" y="-42.8" font-family="Times New Roman,serif" font-weight="bold" font-size="14.00">Modern</text>
<text text-anchor="start" x="556.5" y="-28.8" font-family="Times New Roman,serif" font-weight="bold" font-size="14.00">English</text>
<text text-anchor="start" x="554" y="-14.8" font-family="Times New Roman,serif" font-size="14.00" fill="red">duplicate</text>
</g>
<!-- duplicateME&#45;&gt;duplicate -->
<g id="edge21" class="edge">
<title>duplicateME&#45;&gt;duplicate</title>
<path fill="none" stroke="black" d="M578.73,-111.85C578.86,-98.65 579.02,-82.06 579.16,-67.51"/>
<polygon fill="black" stroke="black" points="582.67,-67.39 579.26,-57.35 575.67,-67.32 582.67,-67.39"/>
</g>
<!-- dupliciteOF -->
<g id="node24" class="node">
<title>dupliciteOF</title>
<text text-anchor="start" x="629.5" y="-341.8" font-family="Times New Roman,serif" font-weight="bold" font-size="14.00">Old French</text>
<text text-anchor="start" x="640.5" y="-327.8" font-family="Times New Roman,serif" font-size="14.00" fill="red">duplicite</text>
</g>
<!-- duplicitasL&#45;&gt;dupliciteOF -->
<g id="edge23" class="edge">
<title>duplicitasL&#45;&gt;dupliciteOF</title>
<path fill="none" stroke="black" d="M666.95,-415.76C666.51,-401.98 665.89,-382.4 665.38,-366.47"/>
<polygon fill="black" stroke="black" points="668.86,-366.01 665.05,-356.13 661.87,-366.24 668.86,-366.01"/>
</g>
<!-- dupliciteME -->
<g id="node25" class="node">
<title>dupliciteME</title>
<text text-anchor="start" x="642" y="-251.8" font-family="Times New Roman,serif" font-weight="bold" font-size="14.00">Middle</text>
<text text-anchor="start" x="640.5" y="-237.8" font-family="Times New Roman,serif" font-weight="bold" font-size="14.00">English</text>
<text text-anchor="start" x="639.5" y="-223.8" font-family="Times New Roman,serif" font-size="14.00" fill="red">duplicite</text>
</g>
<!-- dupliciteOF&#45;&gt;dupliciteME -->
<g id="edge24" class="edge">
<title>dupliciteOF&#45;&gt;dupliciteME</title>
<path fill="none" stroke="black" stroke-dasharray="5,2" d="M664.32,-319.58C664.19,-307.51 664.02,-291.04 663.86,-276.38"/>
<polygon fill="black" stroke="black" points="667.36,-276.07 663.75,-266.11 660.36,-276.15 667.36,-276.07"/>
</g>
<!-- duplicity -->
<g id="node26" class="node">
<title>duplicity</title>
<text text-anchor="start" x="639" y="-42.8" font-family="Times New Roman,serif" font-weight="bold" font-size="14.00">Modern</text>
<text text-anchor="start" x="640.5" y="-28.8" font-family="Times New Roman,serif" font-weight="bold" font-size="14.00">English</text>
<text text-anchor="start" x="639" y="-14.8" font-family="Times New Roman,serif" font-size="14.00" fill="red">duplicity</text>
</g>
<!-- dupliciteME&#45;&gt;duplicity -->
<g id="edge25" class="edge">
<title>dupliciteME&#45;&gt;duplicity</title>
<path fill="none" stroke="black" d="M663.5,-215.85C663.5,-179.18 663.5,-109.29 663.5,-67.34"/>
<polygon fill="black" stroke="black" points="667,-67.32 663.5,-57.32 660,-67.32 667,-67.32"/>
</g>
<!-- bheu -->
<g id="node27" class="node">
<title>bheu</title>
<g id="a_node27"><a xlink:href="bheu-grow4.svg" xlink:title="&lt;b&gt;Indo&#45;&lt;br/&gt;European&lt;/b&gt;&lt;br/&gt;&lt;font color=&quot;red&quot;&gt;*bheu(ə)&#45;&lt;/font&gt;&lt;br/&gt;&lt;font point&#45;size=&quot;12&quot;&gt;to be, grow&lt;/font&gt;">
<path fill="none" stroke="black" stroke-dasharray="5,2" d="M944,-854C944,-854 891,-854 891,-854 885,-854 879,-848 879,-842 879,-842 879,-804 879,-804 879,-798 885,-792 891,-792 891,-792 944,-792 944,-792 950,-792 956,-798 956,-804 956,-804 956,-842 956,-842 956,-848 950,-854 944,-854"/>
<text text-anchor="start" x="901" y="-839.8" font-family="Times New Roman,serif" font-weight="bold" font-size="14.00">Indo&#45;</text>
<text text-anchor="start" x="887" y="-825.8" font-family="Times New Roman,serif" font-weight="bold" font-size="14.00">European</text>
<text text-anchor="start" x="890.5" y="-811.8" font-family="Times New Roman,serif" font-size="14.00" fill="red">*bheu(ə)&#45;</text>
<text text-anchor="start" x="891" y="-799.4" font-family="Times New Roman,serif" font-size="12.00">to be, grow</text>
</a>
</g>
</g>
<!-- bhw -->
<g id="node28" class="node">
<title>bhw</title>
<text text-anchor="start" x="897.5" y="-725.8" font-family="Times New Roman,serif" font-size="14.00" fill="red">*&#45;bhw&#45;</text>
<text text-anchor="start" x="905" y="-713.4" font-family="Times New Roman,serif" font-size="12.00">being</text>
</g>
<!-- bheu&#45;&gt;bhw -->
<g id="edge27" class="edge">
<title>bheu&#45;&gt;bhw</title>
<path fill="none" stroke="black" d="M917.5,-791.8C917.5,-778.92 917.5,-764.01 917.5,-751.45"/>
<polygon fill="black" stroke="black" points="921,-751.13 917.5,-741.13 914,-751.13 921,-751.13"/>
</g>
<!-- bhw&#45;&gt;dubhwio -->
<g id="edge28" class="edge">
<title>bhw&#45;&gt;dubhwio</title>
<path fill="none" stroke="black" d="M914.08,-704.92C911.68,-692.89 908.54,-677.18 906.52,-667.08"/>
<polygon fill="black" stroke="black" points="909.89,-666.12 904.5,-657 903.03,-667.49 909.89,-666.12"/>
</g>
<!-- dubiusL -->
<g id="node30" class="node">
<title>dubiusL</title>
<text text-anchor="start" x="1068" y="-546.8" font-family="Times New Roman,serif" font-weight="bold" font-size="14.00">Latin</text>
<text text-anchor="start" x="1065.5" y="-532.8" font-family="Times New Roman,serif" font-size="14.00" fill="red">dubius</text>
<text text-anchor="start" x="1066" y="-520.4" font-family="Times New Roman,serif" font-size="12.00">doubtful</text>
</g>
<!-- dubhwio&#45;&gt;dubiusL -->
<g id="edge29" class="edge">
<title>dubhwio&#45;&gt;dubiusL</title>
<path fill="none" stroke="black" d="M956.65,-609.96C984.46,-594.31 1021.5,-573.46 1048.56,-558.23"/>
<polygon fill="black" stroke="black" points="1050.32,-561.25 1057.32,-553.3 1046.89,-555.15 1050.32,-561.25"/>
</g>
<!-- dubious -->
<g id="node31" class="node">
<title>dubious</title>
<text text-anchor="start" x="1060" y="-42.8" font-family="Times New Roman,serif" font-weight="bold" font-size="14.00">Modern</text>
<text text-anchor="start" x="1061.5" y="-28.8" font-family="Times New Roman,serif" font-weight="bold" font-size="14.00">English</text>
<text text-anchor="start" x="1061.5" y="-14.8" font-family="Times New Roman,serif" font-size="14.00" fill="red">dubious</text>
</g>
<!-- dubiusL&#45;&gt;dubious -->
<g id="edge30" class="edge">
<title>dubiusL&#45;&gt;dubious</title>
<path fill="none" stroke="black" stroke-dasharray="5,2" d="M1098.5,-512C1098.5,-512 1084.5,-416.14 1084.5,-339 1084.5,-339 1084.5,-339 1084.5,-240 1084.5,-179.17 1084.5,-108.29 1084.5,-67.24"/>
<polygon fill="black" stroke="black" points="1088,-67.22 1084.5,-57.22 1081,-67.22 1088,-67.22"/>
</g>
<!-- dubitareL -->
<g id="node32" class="node">
<title>dubitareL</title>
<text text-anchor="start" x="1238.5" y="-436.8" font-family="Times New Roman,serif" font-size="14.00" fill="red">dubitāre</text>
<text text-anchor="start" x="1229.5" y="-424.4" font-family="Times New Roman,serif" font-size="12.00">to be in doubt</text>
</g>
<!-- dubiusL&#45;&gt;dubitareL -->
<g id="edge31" class="edge">
<title>dubiusL&#45;&gt;dubitareL</title>
<path fill="none" stroke="black" d="M1098.5,-512C1098.5,-512 1167.76,-479.28 1215.99,-456.5"/>
<polygon fill="black" stroke="black" points="1217.78,-459.52 1225.33,-452.09 1214.79,-453.2 1217.78,-459.52"/>
</g>
<!-- douterOF -->
<g id="node33" class="node">
<title>douterOF</title>
<text text-anchor="start" x="1177.5" y="-341.8" font-family="Times New Roman,serif" font-weight="bold" font-size="14.00">Old French</text>
<text text-anchor="start" x="1194" y="-327.8" font-family="Times New Roman,serif" font-size="14.00" fill="red">douter</text>
</g>
<!-- dubitareL&#45;&gt;douterOF -->
<g id="edge32" class="edge">
<title>dubitareL&#45;&gt;douterOF</title>
<path fill="none" stroke="black" d="M1261.5,-415C1261.5,-415 1243.41,-386.93 1229.21,-364.91"/>
<polygon fill="black" stroke="black" points="1231.98,-362.75 1223.62,-356.25 1226.1,-366.55 1231.98,-362.75"/>
</g>
<!-- dubitabilisL -->
<g id="node36" class="node">
<title>dubitabilisL</title>
<text text-anchor="start" x="1281.5" y="-334.3" font-family="Times New Roman,serif" font-size="14.00" fill="red">dubitābilis</text>
</g>
<!-- dubitareL&#45;&gt;dubitabilisL -->
<g id="edge35" class="edge">
<title>dubitareL&#45;&gt;dubitabilisL</title>
<path fill="none" stroke="black" d="M1261.5,-415C1261.5,-415 1279.59,-386.93 1293.79,-364.91"/>
<polygon fill="black" stroke="black" points="1296.9,-366.55 1299.38,-356.25 1291.02,-362.75 1296.9,-366.55"/>
</g>
<!-- doutenME -->
<g id="node34" class="node">
<title>doutenME</title>
<text text-anchor="start" x="1147" y="-251.8" font-family="Times New Roman,serif" font-weight="bold" font-size="14.00">Middle</text>
<text text-anchor="start" x="1145.5" y="-237.8" font-family="Times New Roman,serif" font-weight="bold" font-size="14.00">English</text>
<text text-anchor="start" x="1149" y="-223.8" font-family="Times New Roman,serif" font-size="14.00" fill="red">douten</text>
</g>
<!-- douterOF&#45;&gt;doutenME -->
<g id="edge33" class="edge">
<title>douterOF&#45;&gt;doutenME</title>
<path fill="none" stroke="black" stroke-dasharray="5,2" d="M1212.5,-319C1212.5,-319 1199.34,-295.97 1187.42,-275.1"/>
<polygon fill="black" stroke="black" points="1190.42,-273.31 1182.42,-266.36 1184.34,-276.78 1190.42,-273.31"/>
</g>
<!-- redouterOF -->
<g id="node38" class="node">
<title>redouterOF</title>
<text text-anchor="start" x="1233" y="-250.8" font-family="Times New Roman,serif" font-size="14.00" fill="red">redouter</text>
<text text-anchor="start" x="1237" y="-238.4" font-family="Times New Roman,serif" font-size="12.00">to dread</text>
<text text-anchor="start" x="1227" y="-224.8" font-family="Times New Roman,serif" font-size="14.00" fill="red">redoutable</text>
</g>
<!-- douterOF&#45;&gt;redouterOF -->
<g id="edge37" class="edge">
<title>douterOF&#45;&gt;redouterOF</title>
<path fill="none" stroke="black" d="M1212.5,-319C1212.5,-319 1226.16,-295.1 1238.25,-273.93"/>
<polygon fill="black" stroke="black" points="1241.38,-275.52 1243.3,-265.1 1235.3,-272.05 1241.38,-275.52"/>
</g>
<!-- doubt -->
<g id="node35" class="node">
<title>doubt</title>
<text text-anchor="start" x="1143" y="-42.8" font-family="Times New Roman,serif" font-weight="bold" font-size="14.00">Modern</text>
<text text-anchor="start" x="1144.5" y="-28.8" font-family="Times New Roman,serif" font-weight="bold" font-size="14.00">English</text>
<text text-anchor="start" x="1150.5" y="-14.8" font-family="Times New Roman,serif" font-size="14.00" fill="red">doubt</text>
</g>
<!-- doutenME&#45;&gt;doubt -->
<g id="edge34" class="edge">
<title>doutenME&#45;&gt;doubt</title>
<path fill="none" stroke="black" d="M1168.38,-215.85C1168.21,-179.18 1167.87,-109.29 1167.67,-67.34"/>
<polygon fill="black" stroke="black" points="1171.17,-67.3 1167.62,-57.32 1164.17,-67.33 1171.17,-67.3"/>
</g>
<!-- dubitable -->
<g id="node37" class="node">
<title>dubitable</title>
<text text-anchor="start" x="1329" y="-42.8" font-family="Times New Roman,serif" font-weight="bold" font-size="14.00">Modern</text>
<text text-anchor="start" x="1330.5" y="-28.8" font-family="Times New Roman,serif" font-weight="bold" font-size="14.00">English</text>
<text text-anchor="start" x="1327.5" y="-14.8" font-family="Times New Roman,serif" font-size="14.00" fill="red">dubitable</text>
</g>
<!-- dubitabilisL&#45;&gt;dubitable -->
<g id="edge36" class="edge">
<title>dubitabilisL&#45;&gt;dubitable</title>
<path fill="none" stroke="black" stroke-dasharray="5,2" d="M1312.94,-319.78C1319.8,-271.24 1339.42,-132.57 1348.62,-67.5"/>
<polygon fill="black" stroke="black" points="1352.12,-67.74 1350.06,-57.35 1345.19,-66.76 1352.12,-67.74"/>
</g>
<!-- redoubtabelME -->
<g id="node39" class="node">
<title>redoubtabelME</title>
<text text-anchor="start" x="1236" y="-147.8" font-family="Times New Roman,serif" font-weight="bold" font-size="14.00">Middle</text>
<text text-anchor="start" x="1234.5" y="-133.8" font-family="Times New Roman,serif" font-weight="bold" font-size="14.00">English</text>
<text text-anchor="start" x="1224" y="-119.8" font-family="Times New Roman,serif" font-size="14.00" fill="red">redoubtabel</text>
</g>
<!-- redouterOF&#45;&gt;redoubtabelME -->
<g id="edge38" class="edge">
<title>redouterOF&#45;&gt;redoubtabelME</title>
<path fill="none" stroke="black" stroke-dasharray="5,2" d="M1256.73,-216.85C1256.86,-203.71 1257.02,-186.99 1257.16,-172.34"/>
<polygon fill="black" stroke="black" points="1260.67,-172.15 1257.26,-162.12 1253.67,-172.08 1260.67,-172.15"/>
</g>
<!-- redoubtable -->
<g id="node40" class="node">
<title>redoubtable</title>
<text text-anchor="start" x="1235" y="-42.8" font-family="Times New Roman,serif" font-weight="bold" font-size="14.00">Modern</text>
<text text-anchor="start" x="1236.5" y="-28.8" font-family="Times New Roman,serif" font-weight="bold" font-size="14.00">English</text>
<text text-anchor="start" x="1226" y="-14.8" font-family="Times New Roman,serif" font-size="14.00" fill="red">redoubtable</text>
</g>
<!-- redoubtabelME&#45;&gt;redoubtable -->
<g id="edge39" class="edge">
<title>redoubtabelME&#45;&gt;redoubtable</title>
<path fill="none" stroke="black" d="M1257.97,-111.85C1258.23,-98.65 1258.55,-82.06 1258.83,-67.51"/>
<polygon fill="black" stroke="black" points="1262.33,-67.42 1259.03,-57.35 1255.33,-67.28 1262.33,-67.42"/>
</g>
<!-- twistOE -->
<g id="node42" class="node">
<title>twistOE</title>
<text text-anchor="start" x="8" y="-353.8" font-family="Times New Roman,serif" font-weight="bold" font-size="14.00">Old English</text>
<text text-anchor="start" x="29" y="-339.8" font-family="Times New Roman,serif" font-size="14.00" fill="red">&#45;twist</text>
<text text-anchor="start" x="10.5" y="-327.4" font-family="Times New Roman,serif" font-size="12.00">divided object,</text>
<text text-anchor="start" x="21.5" y="-315.4" font-family="Times New Roman,serif" font-size="12.00">fork, rope</text>
</g>
<!-- twisGm&#45;&gt;twistOE -->
<g id="edge41" class="edge">
<title>twisGm&#45;&gt;twistOE</title>
<path fill="none" stroke="black" d="M49.4,-415.76C48.73,-405.3 47.85,-391.51 47.02,-378.5"/>
<polygon fill="black" stroke="black" points="50.5,-378.08 46.37,-368.32 43.52,-378.52 50.5,-378.08"/>
</g>
<!-- twistenME -->
<g id="node43" class="node">
<title>twistenME</title>
<text text-anchor="start" x="23" y="-159.8" font-family="Times New Roman,serif" font-weight="bold" font-size="14.00">Middle</text>
<text text-anchor="start" x="21.5" y="-145.8" font-family="Times New Roman,serif" font-weight="bold" font-size="14.00">English</text>
<text text-anchor="start" x="24.5" y="-131.8" font-family="Times New Roman,serif" font-size="14.00" fill="red">twisten</text>
<text text-anchor="start" x="18.5" y="-119.4" font-family="Times New Roman,serif" font-size="12.00">to squeeze,</text>
<text text-anchor="start" x="20.5" y="-107.4" font-family="Times New Roman,serif" font-size="12.00">be divided</text>
</g>
<!-- twistOE&#45;&gt;twistenME -->
<g id="edge42" class="edge">
<title>twistOE&#45;&gt;twistenME</title>
<path fill="none" stroke="black" d="M44.5,-307.64C44.5,-275.22 44.5,-222.6 44.5,-184.56"/>
<polygon fill="black" stroke="black" points="48,-184.24 44.5,-174.24 41,-184.24 48,-184.24"/>
</g>
<!-- twist -->
<g id="node44" class="node">
<title>twist</title>
<text text-anchor="start" x="20" y="-42.8" font-family="Times New Roman,serif" font-weight="bold" font-size="14.00">Modern</text>
<text text-anchor="start" x="21.5" y="-28.8" font-family="Times New Roman,serif" font-weight="bold" font-size="14.00">English</text>
<text text-anchor="start" x="31" y="-14.8" font-family="Times New Roman,serif" font-size="14.00" fill="red">twist</text>
</g>
<!-- twistenME&#45;&gt;twist -->
<g id="edge43" class="edge">
<title>twistenME&#45;&gt;twist</title>
<path fill="none" stroke="black" d="M44.5,-99.98C44.5,-89.36 44.5,-77.78 44.5,-67.27"/>
<polygon fill="black" stroke="black" points="48,-67.21 44.5,-57.21 41,-67.21 48,-67.21"/>
</g>
<!-- twisnazGm -->
<g id="node46" class="node">
<title>twisnazGm</title>
<text text-anchor="start" x="121" y="-443.8" font-family="Times New Roman,serif" font-weight="bold" font-size="14.00">Germanic</text>
<text text-anchor="start" x="127" y="-429.8" font-family="Times New Roman,serif" font-size="14.00" fill="red">*twisnaz</text>
<text text-anchor="start" x="136" y="-417.4" font-family="Times New Roman,serif" font-size="12.00">double</text>
</g>
<!-- dwisno&#45;&gt;twisnazGm -->
<g id="edge45" class="edge">
<title>dwisno&#45;&gt;twisnazGm</title>
<path fill="none" stroke="black" d="M151.5,-518.87C151.5,-505.07 151.5,-485.26 151.5,-468.36"/>
<polygon fill="black" stroke="black" points="155,-468.29 151.5,-458.29 148,-468.29 155,-468.29"/>
</g>
<!-- twinnOE -->
<g id="node47" class="node">
<title>twinnOE</title>
<text text-anchor="start" x="115" y="-341.8" font-family="Times New Roman,serif" font-weight="bold" font-size="14.00">Old English</text>
<text text-anchor="start" x="136" y="-327.8" font-family="Times New Roman,serif" font-size="14.00" fill="red">twinn</text>
</g>
<!-- twisnazGm&#45;&gt;twinnOE -->
<g id="edge46" class="edge">
<title>twisnazGm&#45;&gt;twinnOE</title>
<path fill="none" stroke="black" d="M151.5,-409.76C151.5,-396.64 151.5,-380.15 151.5,-366.4"/>
<polygon fill="black" stroke="black" points="155,-366.07 151.5,-356.07 148,-366.07 155,-366.07"/>
</g>
<!-- twinME -->
<g id="node48" class="node">
<title>twinME</title>
<text text-anchor="start" x="122" y="-257.8" font-family="Times New Roman,serif" font-weight="bold" font-size="14.00">Middle</text>
<text text-anchor="start" x="120.5" y="-243.8" font-family="Times New Roman,serif" font-weight="bold" font-size="14.00">English</text>
<text text-anchor="start" x="131.5" y="-229.8" font-family="Times New Roman,serif" font-size="14.00" fill="red">twin</text>
<text text-anchor="start" x="134" y="-217.4" font-family="Times New Roman,serif" font-size="12.00">twin</text>
</g>
<!-- twinnOE&#45;&gt;twinME -->
<g id="edge47" class="edge">
<title>twinnOE&#45;&gt;twinME</title>
<path fill="none" stroke="black" d="M150.03,-319.58C149.15,-309.09 147.99,-295.29 146.89,-282.24"/>
<polygon fill="black" stroke="black" points="150.35,-281.68 146.03,-272.01 143.38,-282.27 150.35,-281.68"/>
</g>
<!-- twin -->
<g id="node49" class="node">
<title>twin</title>
<text text-anchor="start" x="112" y="-42.8" font-family="Times New Roman,serif" font-weight="bold" font-size="14.00">Modern</text>
<text text-anchor="start" x="113.5" y="-28.8" font-family="Times New Roman,serif" font-weight="bold" font-size="14.00">English</text>
<text text-anchor="start" x="124.5" y="-14.8" font-family="Times New Roman,serif" font-size="14.00" fill="red">twin</text>
</g>
<!-- twinME&#45;&gt;twin -->
<g id="edge48" class="edge">
<title>twinME&#45;&gt;twin</title>
<path fill="none" stroke="black" d="M142.48,-209.9C141.2,-171.92 138.99,-106.76 137.65,-67.02"/>
<polygon fill="black" stroke="black" points="141.15,-66.88 137.31,-57.01 134.15,-67.12 141.15,-66.88"/>
</g>
<!-- biseauF -->
<g id="node51" class="node">
<title>biseauF</title>
<text text-anchor="start" x="197.5" y="-147.8" font-family="Times New Roman,serif" font-weight="bold" font-size="14.00">French</text>
<text text-anchor="start" x="184.5" y="-133.8" font-family="Times New Roman,serif" font-size="14.00">dial. form of</text>
<text text-anchor="start" x="201.5" y="-119.8" font-family="Times New Roman,serif" font-size="14.00" fill="red">biseau</text>
</g>
<!-- bisL&#45;&gt;biseauF -->
<g id="edge50" class="edge">
<title>bisL&#45;&gt;biseauF</title>
<path fill="none" stroke="black" d="M239.5,-518C239.5,-518 226.21,-265.43 221.3,-172.12"/>
<polygon fill="black" stroke="black" points="224.79,-171.86 220.77,-162.06 217.8,-172.23 224.79,-171.86"/>
</g>
<!-- biscoctusL -->
<g id="node54" class="node">
<title>biscoctusL</title>
<text text-anchor="start" x="294.5" y="-430.3" font-family="Times New Roman,serif" font-size="14.00" fill="red">bis coctus</text>
</g>
<!-- bisL&#45;&gt;biscoctusL -->
<g id="edge52" class="edge">
<title>bisL&#45;&gt;biscoctusL</title>
<path fill="none" stroke="black" d="M239.5,-518C239.5,-518 289.36,-475.91 308.84,-459.47"/>
<polygon fill="black" stroke="black" points="311.12,-462.13 316.5,-453 306.6,-456.78 311.12,-462.13"/>
</g>
<!-- bezel -->
<g id="node52" class="node">
<title>bezel</title>
<text text-anchor="start" x="195" y="-42.8" font-family="Times New Roman,serif" font-weight="bold" font-size="14.00">Modern</text>
<text text-anchor="start" x="196.5" y="-28.8" font-family="Times New Roman,serif" font-weight="bold" font-size="14.00">English</text>
<text text-anchor="start" x="205" y="-14.8" font-family="Times New Roman,serif" font-size="14.00" fill="red">bezel</text>
</g>
<!-- biseauF&#45;&gt;bezel -->
<g id="edge51" class="edge">
<title>biseauF&#45;&gt;bezel</title>
<path fill="none" stroke="black" stroke-dasharray="5,2" d="M219.5,-111.85C219.5,-98.65 219.5,-82.06 219.5,-67.51"/>
<polygon fill="black" stroke="black" points="223,-67.35 219.5,-57.35 216,-67.35 223,-67.35"/>
</g>
<!-- coctusL -->
<g id="node53" class="node">
<title>coctusL</title>
<g id="a_node53"><a xlink:href=".svg" xlink:title="PIE *pekʷ&#45;, to cook or ripen">
<path fill="none" stroke="black" stroke-dasharray="5,2" d="M342.5,-574C342.5,-574 304.5,-574 304.5,-574 298.5,-574 292.5,-568 292.5,-562 292.5,-562 292.5,-512 292.5,-512 292.5,-506 298.5,-500 304.5,-500 304.5,-500 342.5,-500 342.5,-500 348.5,-500 354.5,-506 354.5,-512 354.5,-512 354.5,-562 354.5,-562 354.5,-568 348.5,-574 342.5,-574"/>
<text text-anchor="start" x="307" y="-559.8" font-family="Times New Roman,serif" font-weight="bold" font-size="14.00">Latin</text>
<text text-anchor="start" x="300.5" y="-545.8" font-family="Times New Roman,serif" font-size="14.00" fill="red">coquere</text>
<text text-anchor="start" x="305.5" y="-533.4" font-family="Times New Roman,serif" font-size="12.00">to cook</text>
<text text-anchor="start" x="304.5" y="-519.8" font-family="Times New Roman,serif" font-size="14.00" fill="red">coctus</text>
<text text-anchor="start" x="306" y="-507.4" font-family="Times New Roman,serif" font-size="12.00">cooked</text>
</a>
</g>
</g>
<!-- coctusL&#45;&gt;biscoctusL -->
<g id="edge53" class="edge">
<title>coctusL&#45;&gt;biscoctusL</title>
<path fill="none" stroke="black" d="M320.45,-499.84C319.32,-486.38 318.12,-472.17 317.34,-462.97"/>
<polygon fill="black" stroke="black" points="320.83,-462.67 316.5,-453 313.85,-463.26 320.83,-462.67"/>
</g>
<!-- biscuitOF -->
<g id="node55" class="node">
<title>biscuitOF</title>
<text text-anchor="start" x="365.5" y="-341.8" font-family="Times New Roman,serif" font-weight="bold" font-size="14.00">Old French</text>
<text text-anchor="start" x="382" y="-327.8" font-family="Times New Roman,serif" font-size="14.00" fill="red">biscuit</text>
</g>
<!-- biscoctusL&#45;&gt;biscuitOF -->
<g id="edge54" class="edge">
<title>biscoctusL&#45;&gt;biscuitOF</title>
<path fill="none" stroke="black" d="M329.5,-415C329.5,-415 356.66,-385.93 377.38,-363.75"/>
<polygon fill="black" stroke="black" points="380.12,-365.94 384.39,-356.25 375,-361.16 380.12,-365.94"/>
</g>
<!-- biscottoI -->
<g id="node58" class="node">
<title>biscottoI</title>
<text text-anchor="start" x="303.5" y="-147.8" font-family="Times New Roman,serif" font-weight="bold" font-size="14.00">Italian</text>
<text text-anchor="start" x="300.5" y="-133.8" font-family="Times New Roman,serif" font-size="14.00" fill="red">biscotto</text>
<text text-anchor="start" x="288.5" y="-119.8" font-family="Times New Roman,serif" font-size="14.00" fill="red">biscotti </text>
<text text-anchor="start" x="334.5" y="-119.8" font-family="Times New Roman,serif" font-size="14.00">(pl.)</text>
</g>
<!-- biscoctusL&#45;&gt;biscottoI -->
<g id="edge57" class="edge">
<title>biscoctusL&#45;&gt;biscottoI</title>
<path fill="none" stroke="black" d="M329.5,-415C329.5,-415 325.85,-246.47 324.24,-172.32"/>
<polygon fill="black" stroke="black" points="327.74,-172.02 324.02,-162.1 320.74,-172.17 327.74,-172.02"/>
</g>
<!-- bisquitME -->
<g id="node56" class="node">
<title>bisquitME</title>
<text text-anchor="start" x="385" y="-251.8" font-family="Times New Roman,serif" font-weight="bold" font-size="14.00">Middle</text>
<text text-anchor="start" x="383.5" y="-237.8" font-family="Times New Roman,serif" font-weight="bold" font-size="14.00">English</text>
<text text-anchor="start" x="387.5" y="-223.8" font-family="Times New Roman,serif" font-size="14.00" fill="red">bisquit</text>
</g>
<!-- biscuitOF&#45;&gt;bisquitME -->
<g id="edge55" class="edge">
<title>biscuitOF&#45;&gt;bisquitME</title>
<path fill="none" stroke="black" stroke-dasharray="5,2" d="M401.6,-319.58C402.36,-307.51 403.4,-291.04 404.33,-276.38"/>
<polygon fill="black" stroke="black" points="407.84,-276.31 404.98,-266.11 400.85,-275.87 407.84,-276.31"/>
</g>
<!-- biscuit -->
<g id="node57" class="node">
<title>biscuit</title>
<text text-anchor="start" x="388" y="-42.8" font-family="Times New Roman,serif" font-weight="bold" font-size="14.00">Modern</text>
<text text-anchor="start" x="389.5" y="-28.8" font-family="Times New Roman,serif" font-weight="bold" font-size="14.00">English</text>
<text text-anchor="start" x="394" y="-14.8" font-family="Times New Roman,serif" font-size="14.00" fill="red">biscuit</text>
</g>
<!-- bisquitME&#45;&gt;biscuit -->
<g id="edge56" class="edge">
<title>bisquitME&#45;&gt;biscuit</title>
<path fill="none" stroke="black" d="M407.2,-215.85C408.26,-179.18 410.29,-109.29 411.5,-67.34"/>
<polygon fill="black" stroke="black" points="415,-67.41 411.8,-57.32 408.01,-67.21 415,-67.41"/>
</g>
<!-- biscotto -->
<g id="node59" class="node">
<title>biscotto</title>
<text text-anchor="start" x="294" y="-49.8" font-family="Times New Roman,serif" font-weight="bold" font-size="14.00">Modern</text>
<text text-anchor="start" x="295.5" y="-35.8" font-family="Times New Roman,serif" font-weight="bold" font-size="14.00">English</text>
<text text-anchor="start" x="295.5" y="-21.8" font-family="Times New Roman,serif" font-size="14.00" fill="red">biscotto</text>
<text text-anchor="start" x="283.5" y="-7.8" font-family="Times New Roman,serif" font-size="14.00" fill="red">biscotti </text>
<text text-anchor="start" x="329.5" y="-7.8" font-family="Times New Roman,serif" font-size="14.00">(pl.)</text>
</g>
<!-- biscottoI&#45;&gt;biscotto -->
<g id="edge58" class="edge">
<title>biscottoI&#45;&gt;biscotto</title>
<path fill="none" stroke="black" stroke-dasharray="5,2" d="M322.33,-111.85C321.78,-100.59 321.12,-86.87 320.49,-74.06"/>
<polygon fill="black" stroke="black" points="323.99,-73.85 320.01,-64.03 317,-74.19 323.99,-73.85"/>
</g>
</g>
</svg>
