<?xml version="1.0" encoding="UTF-8" standalone="no"?>
<!DOCTYPE svg PUBLIC "-//W3C//DTD SVG 1.1//EN"
 "http://www.w3.org/Graphics/SVG/1.1/DTD/svg11.dtd">
<!-- Generated by graphviz version 2.49.0 (20210828.1703)
 -->
<!-- Pages: 1 -->
<svg width="1058pt" height="665pt"
 viewBox="0.00 0.00 1057.50 665.00" xmlns="http://www.w3.org/2000/svg" xmlns:xlink="http://www.w3.org/1999/xlink">
<g id="graph0" class="graph" transform="scale(1 1) rotate(0) translate(4 661)">
<polygon fill="white" stroke="transparent" points="-4,4 -4,-661 1053.5,-661 1053.5,4 -4,4"/>
<!-- eiIE -->
<g id="node1" class="node">
<title>eiIE</title>
<g id="a_node1"><a xlink:href="ei-go0.svg" xlink:title="Indo&#45;European &quot;*ei&#45;&quot; to go">
<polygon fill="none" stroke="black" stroke-dasharray="5,2" points="606.5,-657 395.5,-657 395.5,-553 606.5,-553 606.5,-657"/>
<text text-anchor="start" x="423" y="-612.8" font-family="Times New Roman,serif" font-weight="bold" font-size="24.00">Indo&#45;European</text>
<text text-anchor="start" x="445" y="-584.6" font-family="Times New Roman,serif" font-size="18.00" fill="red">*ei&#45;</text>
<text text-anchor="start" x="525" y="-585.2" font-family="Times New Roman,serif" font-size="16.00">to go</text>
</a>
</g>
</g>
<!-- ireL -->
<g id="node2" class="node">
<title>ireL</title>
<text text-anchor="start" x="484.5" y="-502.8" font-family="Times New Roman,serif" font-weight="bold" font-size="14.00">Latin</text>
<text text-anchor="start" x="493" y="-488.8" font-family="Times New Roman,serif" font-size="14.00" fill="red">īre</text>
<text text-anchor="start" x="489" y="-476.4" font-family="Times New Roman,serif" font-size="12.00">to go</text>
</g>
<!-- eiIE&#45;&gt;ireL -->
<g id="edge1" class="edge">
<title>eiIE&#45;&gt;ireL</title>
<path fill="none" stroke="black" d="M501,-552.86C501,-544.2 501,-535.42 501,-527.36"/>
<polygon fill="black" stroke="black" points="504.5,-527.27 501,-517.27 497.5,-527.27 504.5,-527.27"/>
</g>
<!-- ambireL -->
<g id="node5" class="node">
<title>ambireL</title>
<text text-anchor="start" x="30" y="-412.8" font-family="Times New Roman,serif" font-size="14.00" fill="red">ambīre</text>
<text text-anchor="start" x="24" y="-400.4" font-family="Times New Roman,serif" font-size="12.00">to surround</text>
</g>
<!-- ireL&#45;&gt;ambireL -->
<g id="edge3" class="edge">
<title>ireL&#45;&gt;ambireL</title>
<path fill="none" stroke="black" d="M473.9,-486.21C450.04,-481.24 414.32,-474.08 383,-469 260.46,-449.11 226.23,-463.93 106,-433 101.96,-431.96 97.82,-430.71 93.7,-429.34"/>
<polygon fill="black" stroke="black" points="94.81,-426.02 84.21,-425.97 92.46,-432.61 94.81,-426.02"/>
</g>
<!-- circumireL -->
<g id="node8" class="node">
<title>circumireL</title>
<text text-anchor="start" x="532" y="-412.8" font-family="Times New Roman,serif" font-size="14.00" fill="red">circumīre</text>
<text text-anchor="start" x="530" y="-400.4" font-family="Times New Roman,serif" font-size="12.00">to go around</text>
</g>
<!-- ireL&#45;&gt;circumireL -->
<g id="edge7" class="edge">
<title>ireL&#45;&gt;circumireL</title>
<path fill="none" stroke="black" d="M517.78,-468.57C524.99,-458.5 533.44,-446.7 540.8,-436.41"/>
<polygon fill="black" stroke="black" points="543.71,-438.37 546.68,-428.2 538.02,-434.29 543.71,-438.37"/>
</g>
<!-- coireL -->
<g id="node15" class="node">
<title>coireL</title>
<text text-anchor="start" x="134" y="-412.8" font-family="Times New Roman,serif" font-size="14.00" fill="red">coīre</text>
<text text-anchor="start" x="123.5" y="-400.4" font-family="Times New Roman,serif" font-size="12.00">to copulate</text>
</g>
<!-- ireL&#45;&gt;coireL -->
<g id="edge13" class="edge">
<title>ireL&#45;&gt;coireL</title>
<path fill="none" stroke="black" d="M473.86,-486.22C425.81,-475.94 322.67,-453.6 236,-433 221.85,-429.64 206.45,-425.8 192.6,-422.29"/>
<polygon fill="black" stroke="black" points="193.38,-418.87 182.82,-419.79 191.65,-425.65 193.38,-418.87"/>
</g>
<!-- exireL -->
<g id="node20" class="node">
<title>exireL</title>
<text text-anchor="start" x="260" y="-412.8" font-family="Times New Roman,serif" font-size="14.00" fill="red">exīre</text>
<text text-anchor="start" x="253.5" y="-400.4" font-family="Times New Roman,serif" font-size="12.00">to go out</text>
</g>
<!-- ireL&#45;&gt;exireL -->
<g id="edge18" class="edge">
<title>ireL&#45;&gt;exireL</title>
<path fill="none" stroke="black" d="M473.62,-482.23C433.3,-467.84 357.81,-440.91 312.1,-424.6"/>
<polygon fill="black" stroke="black" points="313.14,-421.25 302.55,-421.19 310.79,-427.84 313.14,-421.25"/>
</g>
<!-- obireL -->
<g id="node29" class="node">
<title>obireL</title>
<text text-anchor="start" x="651.5" y="-412.8" font-family="Times New Roman,serif" font-size="14.00" fill="red">obīre</text>
<text text-anchor="start" x="623" y="-400.4" font-family="Times New Roman,serif" font-size="12.00">to meet one&#39;s death</text>
</g>
<!-- ireL&#45;&gt;obireL -->
<g id="edge27" class="edge">
<title>ireL&#45;&gt;obireL</title>
<path fill="none" stroke="black" d="M528.04,-478.81C553.68,-466.29 592.67,-447.27 622.82,-432.56"/>
<polygon fill="black" stroke="black" points="624.42,-435.67 631.87,-428.14 621.35,-429.38 624.42,-435.67"/>
</g>
<!-- perireL -->
<g id="node35" class="node">
<title>perireL</title>
<text text-anchor="start" x="748" y="-412.8" font-family="Times New Roman,serif" font-size="14.00" fill="red">perīre</text>
<text text-anchor="start" x="745" y="-400.4" font-family="Times New Roman,serif" font-size="12.00">to perish</text>
</g>
<!-- ireL&#45;&gt;perireL -->
<g id="edge33" class="edge">
<title>ireL&#45;&gt;perireL</title>
<path fill="none" stroke="black" d="M528.01,-487.53C571.37,-479.81 658.67,-461.93 728,-433 728.43,-432.82 728.86,-432.64 729.3,-432.45"/>
<polygon fill="black" stroke="black" points="730.93,-435.55 738.38,-428.01 727.86,-429.25 730.93,-435.55"/>
</g>
<!-- subireL -->
<g id="node41" class="node">
<title>subireL</title>
<text text-anchor="start" x="848" y="-418.8" font-family="Times New Roman,serif" font-size="14.00" fill="red">subīre</text>
<text text-anchor="start" x="838.5" y="-406.4" font-family="Times New Roman,serif" font-size="12.00">to approach</text>
<text text-anchor="start" x="846.5" y="-394.4" font-family="Times New Roman,serif" font-size="12.00">stealthily</text>
</g>
<!-- ireL&#45;&gt;subireL -->
<g id="edge39" class="edge">
<title>ireL&#45;&gt;subireL</title>
<path fill="none" stroke="black" d="M528.12,-487.18C591.9,-475.76 749.93,-446.98 802,-433 808.11,-431.36 814.47,-429.44 820.72,-427.42"/>
<polygon fill="black" stroke="black" points="822,-430.69 830.39,-424.21 819.79,-424.04 822,-430.69"/>
</g>
<!-- transireL -->
<g id="node50" class="node">
<title>transireL</title>
<text text-anchor="start" x="974.5" y="-412.8" font-family="Times New Roman,serif" font-size="14.00" fill="red">transīre</text>
<text text-anchor="start" x="972.5" y="-400.4" font-family="Times New Roman,serif" font-size="12.00">to go over</text>
</g>
<!-- ireL&#45;&gt;transireL -->
<g id="edge48" class="edge">
<title>ireL&#45;&gt;transireL</title>
<path fill="none" stroke="black" d="M528.04,-486.88C554.48,-481.96 595.93,-474.49 632,-469 755.6,-450.18 788.24,-456.71 911,-433 925.33,-430.23 940.83,-426.46 954.63,-422.81"/>
<polygon fill="black" stroke="black" points="955.58,-426.18 964.33,-420.2 953.76,-419.42 955.58,-426.18"/>
</g>
<!-- adireL -->
<g id="node52" class="node">
<title>adireL</title>
<text text-anchor="start" x="368.5" y="-147.8" font-family="Times New Roman,serif" font-size="14.00" fill="red">adīre</text>
<text text-anchor="start" x="355.5" y="-135.4" font-family="Times New Roman,serif" font-size="12.00">to approach</text>
</g>
<!-- ireL&#45;&gt;adireL -->
<g id="edge51" class="edge">
<title>ireL&#45;&gt;adireL</title>
<path fill="none" stroke="black" d="M473.68,-477.4C456.95,-467.11 436.44,-451.83 424,-433 370.01,-351.28 374.41,-227.97 379.63,-173.51"/>
<polygon fill="black" stroke="black" points="383.14,-173.58 380.7,-163.27 376.18,-172.85 383.14,-173.58"/>
</g>
<!-- itioL -->
<g id="node54" class="node">
<title>itioL</title>
<text text-anchor="start" x="458" y="-412.8" font-family="Times New Roman,serif" font-size="14.00" fill="red">itiō</text>
<text text-anchor="start" x="440.5" y="-400.4" font-family="Times New Roman,serif" font-size="12.00">act of going</text>
</g>
<!-- ireL&#45;&gt;itioL -->
<g id="edge53" class="edge">
<title>ireL&#45;&gt;itioL</title>
<path fill="none" stroke="black" d="M491.17,-468.57C487.11,-458.9 482.38,-447.64 478.19,-437.65"/>
<polygon fill="black" stroke="black" points="481.32,-436.07 474.22,-428.2 474.86,-438.77 481.32,-436.07"/>
</g>
<!-- ambiIE -->
<g id="node3" class="node">
<title>ambiIE</title>
<g id="a_node3"><a xlink:href="ambi-around.svg" xlink:title="&lt;b&gt;Indo&#45;&lt;br/&gt;European&lt;/b&gt;&lt;br/&gt;&lt;font color=&quot;red&quot;&gt;*ambi, *m̥bhi&lt;/font&gt;&lt;br/&gt;&lt;font point&#45;size=&quot;12&quot;&gt;around&lt;/font&gt;">
<path fill="none" stroke="black" stroke-dasharray="5,2" d="M80,-636C80,-636 12,-636 12,-636 6,-636 0,-630 0,-624 0,-624 0,-586 0,-586 0,-580 6,-574 12,-574 12,-574 80,-574 80,-574 86,-574 92,-580 92,-586 92,-586 92,-624 92,-624 92,-630 86,-636 80,-636"/>
<text text-anchor="start" x="29.5" y="-621.8" font-family="Times New Roman,serif" font-weight="bold" font-size="14.00">Indo&#45;</text>
<text text-anchor="start" x="15.5" y="-607.8" font-family="Times New Roman,serif" font-weight="bold" font-size="14.00">European</text>
<text text-anchor="start" x="8" y="-593.8" font-family="Times New Roman,serif" font-size="14.00" fill="red">*ambi, *m̥bhi</text>
<text text-anchor="start" x="30" y="-581.4" font-family="Times New Roman,serif" font-size="12.00">around</text>
</a>
</g>
</g>
<!-- ambiL -->
<g id="node4" class="node">
<title>ambiL</title>
<text text-anchor="start" x="30.5" y="-496.8" font-family="Times New Roman,serif" font-weight="bold" font-size="14.00">Latin</text>
<text text-anchor="start" x="31" y="-482.8" font-family="Times New Roman,serif" font-size="14.00" fill="red">ambi&#45;</text>
</g>
<!-- ambiIE&#45;&gt;ambiL -->
<g id="edge2" class="edge">
<title>ambiIE&#45;&gt;ambiL</title>
<path fill="none" stroke="black" d="M46.27,-573.94C46.42,-557.51 46.61,-537.3 46.75,-521.32"/>
<polygon fill="black" stroke="black" points="50.25,-521.05 46.85,-511.02 43.25,-520.99 50.25,-521.05"/>
</g>
<!-- ambiL&#45;&gt;ambireL -->
<g id="edge4" class="edge">
<title>ambiL&#45;&gt;ambireL</title>
<path fill="none" stroke="black" d="M47.64,-474.82C48.03,-464.19 48.54,-450.31 48.99,-438.2"/>
<polygon fill="black" stroke="black" points="52.49,-438.28 49.36,-428.15 45.5,-438.02 52.49,-438.28"/>
</g>
<!-- ambientL -->
<g id="node6" class="node">
<title>ambientL</title>
<text text-anchor="start" x="27.5" y="-240.8" font-family="Times New Roman,serif" font-size="14.00" fill="red">anbient&#45;</text>
<text text-anchor="start" x="23.5" y="-225.8" font-family="Times New Roman,serif" font-size="14.00" fill="red">ambitiōn&#45;</text>
</g>
<!-- ambireL&#45;&gt;ambientL -->
<g id="edge5" class="edge">
<title>ambireL&#45;&gt;ambientL</title>
<path fill="none" stroke="black" d="M50,-391.98C50,-362.66 50,-302.33 50,-266.51"/>
<polygon fill="black" stroke="black" points="53.5,-266.24 50,-256.24 46.5,-266.24 53.5,-266.24"/>
</g>
<!-- ambient -->
<g id="node7" class="node">
<title>ambient</title>
<text text-anchor="start" x="25.5" y="-56.8" font-family="Times New Roman,serif" font-weight="bold" font-size="14.00">Modern</text>
<text text-anchor="start" x="27" y="-42.8" font-family="Times New Roman,serif" font-weight="bold" font-size="14.00">English</text>
<text text-anchor="start" x="28" y="-28.8" font-family="Times New Roman,serif" font-size="14.00" fill="red">ambient</text>
<text text-anchor="start" x="25.5" y="-14.8" font-family="Times New Roman,serif" font-size="14.00" fill="red">ambition</text>
</g>
<!-- ambientL&#45;&gt;ambient -->
<g id="edge6" class="edge">
<title>ambientL&#45;&gt;ambient</title>
<path fill="none" stroke="black" stroke-dasharray="5,2" d="M50,-217.91C50,-187.07 50,-123.56 50,-81.37"/>
<polygon fill="black" stroke="black" points="53.5,-81.14 50,-71.14 46.5,-81.14 53.5,-81.14"/>
</g>
<!-- circuitusL -->
<g id="node9" class="node">
<title>circuitusL</title>
<text text-anchor="start" x="556" y="-327.3" font-family="Times New Roman,serif" font-size="14.00" fill="red">circuitus</text>
<text text-anchor="start" x="546.5" y="-314.9" font-family="Times New Roman,serif" font-size="12.00">a going around</text>
</g>
<!-- circumireL&#45;&gt;circuitusL -->
<g id="edge8" class="edge">
<title>circumireL&#45;&gt;circuitusL</title>
<path fill="none" stroke="black" d="M563.35,-391.7C566.2,-380.39 569.97,-365.39 573.2,-352.53"/>
<polygon fill="black" stroke="black" points="576.61,-353.33 575.65,-342.78 569.82,-351.62 576.61,-353.33"/>
</g>
<!-- circuitOF -->
<g id="node10" class="node">
<title>circuitOF</title>
<text text-anchor="start" x="545" y="-240.8" font-family="Times New Roman,serif" font-weight="bold" font-size="14.00">Old French</text>
<text text-anchor="start" x="562.5" y="-226.8" font-family="Times New Roman,serif" font-size="14.00" fill="red">circuit</text>
</g>
<!-- circuitusL&#45;&gt;circuitOF -->
<g id="edge9" class="edge">
<title>circuitusL&#45;&gt;circuitOF</title>
<path fill="none" stroke="black" d="M580,-306.2C580,-294.49 580,-278.79 580,-265.4"/>
<polygon fill="black" stroke="black" points="583.5,-265.28 580,-255.28 576.5,-265.28 583.5,-265.28"/>
</g>
<!-- circuitME -->
<g id="node11" class="node">
<title>circuitME</title>
<text text-anchor="start" x="558.5" y="-155.8" font-family="Times New Roman,serif" font-weight="bold" font-size="14.00">Middle</text>
<text text-anchor="start" x="557" y="-141.8" font-family="Times New Roman,serif" font-weight="bold" font-size="14.00">English</text>
<text text-anchor="start" x="562.5" y="-127.8" font-family="Times New Roman,serif" font-size="14.00" fill="red">circuit</text>
</g>
<!-- circuitOF&#45;&gt;circuitME -->
<g id="edge10" class="edge">
<title>circuitOF&#45;&gt;circuitME</title>
<path fill="none" stroke="black" stroke-dasharray="5,2" d="M580,-218.65C580,-207.76 580,-193.36 580,-180.25"/>
<polygon fill="black" stroke="black" points="583.5,-180.1 580,-170.1 576.5,-180.1 583.5,-180.1"/>
</g>
<!-- circuit -->
<g id="node12" class="node">
<title>circuit</title>
<text text-anchor="start" x="555.5" y="-49.8" font-family="Times New Roman,serif" font-weight="bold" font-size="14.00">Modern</text>
<text text-anchor="start" x="557" y="-35.8" font-family="Times New Roman,serif" font-weight="bold" font-size="14.00">English</text>
<text text-anchor="start" x="562.5" y="-21.8" font-family="Times New Roman,serif" font-size="14.00" fill="red">circuit</text>
</g>
<!-- circuitME&#45;&gt;circuit -->
<g id="edge11" class="edge">
<title>circuitME&#45;&gt;circuit</title>
<path fill="none" stroke="black" d="M580,-119.88C580,-106.46 580,-89.51 580,-74.69"/>
<polygon fill="black" stroke="black" points="583.5,-74.35 580,-64.35 576.5,-74.35 583.5,-74.35"/>
</g>
<!-- komIE -->
<g id="node13" class="node">
<title>komIE</title>
<g id="a_node13"><a xlink:href="kom-with.svg" xlink:title="&lt;b&gt;Indo&#45;&lt;br/&gt;European&lt;/b&gt;&lt;br/&gt;&lt;font color=&quot;red&quot;&gt;*kom&lt;/font&gt;&lt;br/&gt;&lt;font point&#45;size=&quot;12&quot;&gt;near, with&lt;/font&gt;">
<path fill="none" stroke="black" stroke-dasharray="5,2" d="M175.5,-636C175.5,-636 122.5,-636 122.5,-636 116.5,-636 110.5,-630 110.5,-624 110.5,-624 110.5,-586 110.5,-586 110.5,-580 116.5,-574 122.5,-574 122.5,-574 175.5,-574 175.5,-574 181.5,-574 187.5,-580 187.5,-586 187.5,-586 187.5,-624 187.5,-624 187.5,-630 181.5,-636 175.5,-636"/>
<text text-anchor="start" x="132.5" y="-621.8" font-family="Times New Roman,serif" font-weight="bold" font-size="14.00">Indo&#45;</text>
<text text-anchor="start" x="118.5" y="-607.8" font-family="Times New Roman,serif" font-weight="bold" font-size="14.00">European</text>
<text text-anchor="start" x="133" y="-593.8" font-family="Times New Roman,serif" font-size="14.00" fill="red">*kom</text>
<text text-anchor="start" x="126.5" y="-581.4" font-family="Times New Roman,serif" font-size="12.00">near, with</text>
</a>
</g>
</g>
<!-- coL -->
<g id="node14" class="node">
<title>coL</title>
<text text-anchor="start" x="132.5" y="-502.8" font-family="Times New Roman,serif" font-weight="bold" font-size="14.00">Latin</text>
<text text-anchor="start" x="121" y="-488.8" font-family="Times New Roman,serif" font-size="14.00" fill="red">com&#45;, co&#45;</text>
<text text-anchor="start" x="118" y="-476.4" font-family="Times New Roman,serif" font-size="12.00">together, with</text>
</g>
<!-- komIE&#45;&gt;coL -->
<g id="edge12" class="edge">
<title>komIE&#45;&gt;coL</title>
<path fill="none" stroke="black" d="M149,-573.94C149,-559.51 149,-542.16 149,-527.33"/>
<polygon fill="black" stroke="black" points="152.5,-527.04 149,-517.04 145.5,-527.04 152.5,-527.04"/>
</g>
<!-- coL&#45;&gt;coireL -->
<g id="edge14" class="edge">
<title>coL&#45;&gt;coireL</title>
<path fill="none" stroke="black" d="M149,-468.57C149,-459.1 149,-448.11 149,-438.28"/>
<polygon fill="black" stroke="black" points="152.5,-438.2 149,-428.2 145.5,-438.2 152.5,-438.2"/>
</g>
<!-- coitusL -->
<g id="node16" class="node">
<title>coitusL</title>
<text text-anchor="start" x="122" y="-141.3" font-family="Times New Roman,serif" font-size="14.00" fill="red">coitus</text>
</g>
<!-- coireL&#45;&gt;coitusL -->
<g id="edge15" class="edge">
<title>coireL&#45;&gt;coitusL</title>
<path fill="none" stroke="black" d="M148.34,-391.74C146.65,-347.16 142.11,-227.84 140.05,-173.57"/>
<polygon fill="black" stroke="black" points="143.54,-173.18 139.66,-163.32 136.54,-173.45 143.54,-173.18"/>
</g>
<!-- coitus -->
<g id="node17" class="node">
<title>coitus</title>
<text text-anchor="start" x="109.5" y="-49.8" font-family="Times New Roman,serif" font-weight="bold" font-size="14.00">Modern</text>
<text text-anchor="start" x="111" y="-35.8" font-family="Times New Roman,serif" font-weight="bold" font-size="14.00">English</text>
<text text-anchor="start" x="117" y="-21.8" font-family="Times New Roman,serif" font-size="14.00" fill="red">coitus</text>
</g>
<!-- coitusL&#45;&gt;coitus -->
<g id="edge16" class="edge">
<title>coitusL&#45;&gt;coitus</title>
<path fill="none" stroke="black" stroke-dasharray="5,2" d="M138.17,-126.83C137.49,-112.68 136.51,-92.18 135.67,-74.65"/>
<polygon fill="black" stroke="black" points="139.14,-74.02 135.16,-64.2 132.15,-74.36 139.14,-74.02"/>
</g>
<!-- eghsIE -->
<g id="node18" class="node">
<title>eghsIE</title>
<g id="a_node18"><a xlink:href="eghs-out.svg" xlink:title="&lt;b&gt;Indo&#45;&lt;br/&gt;European&lt;/b&gt;&lt;br/&gt;&lt;font color=&quot;red&quot;&gt;*eghs&lt;/font&gt;&lt;br/&gt;&lt;font point&#45;size=&quot;12&quot;&gt;out&lt;/font&gt;">
<path fill="none" stroke="black" stroke-dasharray="5,2" d="M270.5,-636C270.5,-636 217.5,-636 217.5,-636 211.5,-636 205.5,-630 205.5,-624 205.5,-624 205.5,-586 205.5,-586 205.5,-580 211.5,-574 217.5,-574 217.5,-574 270.5,-574 270.5,-574 276.5,-574 282.5,-580 282.5,-586 282.5,-586 282.5,-624 282.5,-624 282.5,-630 276.5,-636 270.5,-636"/>
<text text-anchor="start" x="227.5" y="-621.8" font-family="Times New Roman,serif" font-weight="bold" font-size="14.00">Indo&#45;</text>
<text text-anchor="start" x="213.5" y="-607.8" font-family="Times New Roman,serif" font-weight="bold" font-size="14.00">European</text>
<text text-anchor="start" x="227.5" y="-593.8" font-family="Times New Roman,serif" font-size="14.00" fill="red">*eghs</text>
<text text-anchor="start" x="236.5" y="-581.4" font-family="Times New Roman,serif" font-size="12.00">out</text>
</a>
</g>
</g>
<!-- exL -->
<g id="node19" class="node">
<title>exL</title>
<text text-anchor="start" x="236.5" y="-496.8" font-family="Times New Roman,serif" font-weight="bold" font-size="14.00">Latin</text>
<text text-anchor="start" x="244" y="-482.8" font-family="Times New Roman,serif" font-size="14.00" fill="red">ex&#45;</text>
</g>
<!-- eghsIE&#45;&gt;exL -->
<g id="edge17" class="edge">
<title>eghsIE&#45;&gt;exL</title>
<path fill="none" stroke="black" d="M246.46,-573.94C247.8,-557.51 249.46,-537.3 250.77,-521.32"/>
<polygon fill="black" stroke="black" points="254.28,-521.27 251.61,-511.02 247.3,-520.7 254.28,-521.27"/>
</g>
<!-- exL&#45;&gt;exireL -->
<g id="edge19" class="edge">
<title>exL&#45;&gt;exireL</title>
<path fill="none" stroke="black" d="M257.45,-474.82C260.24,-464.08 263.88,-450.03 267.04,-437.84"/>
<polygon fill="black" stroke="black" points="270.43,-438.71 269.55,-428.15 263.66,-436.95 270.43,-438.71"/>
</g>
<!-- exitL -->
<g id="node21" class="node">
<title>exitL</title>
<text text-anchor="start" x="208" y="-141.3" font-family="Times New Roman,serif" font-size="14.00" fill="red">exit</text>
</g>
<!-- exireL&#45;&gt;exitL -->
<g id="edge20" class="edge">
<title>exireL&#45;&gt;exitL</title>
<path fill="none" stroke="black" d="M265.25,-391.92C259.8,-380.58 253.07,-365.23 249,-351 231.22,-288.84 223.13,-212.99 219.89,-173.26"/>
<polygon fill="black" stroke="black" points="223.36,-172.75 219.09,-163.05 216.38,-173.29 223.36,-172.75"/>
</g>
<!-- exutaL -->
<g id="node23" class="node">
<title>exutaL</title>
<text text-anchor="start" x="270" y="-320.8" font-family="Times New Roman,serif" font-size="14.00" fill="red">exūta</text>
</g>
<!-- exireL&#45;&gt;exutaL -->
<g id="edge22" class="edge">
<title>exireL&#45;&gt;exutaL</title>
<path fill="none" stroke="black" d="M276.28,-391.7C277.75,-380.5 279.71,-365.69 281.39,-352.91"/>
<polygon fill="black" stroke="black" points="284.89,-353.15 282.72,-342.78 277.95,-352.24 284.89,-353.15"/>
</g>
<!-- exit -->
<g id="node22" class="node">
<title>exit</title>
<text text-anchor="start" x="192.5" y="-49.8" font-family="Times New Roman,serif" font-weight="bold" font-size="14.00">Modern</text>
<text text-anchor="start" x="194" y="-35.8" font-family="Times New Roman,serif" font-weight="bold" font-size="14.00">English</text>
<text text-anchor="start" x="207" y="-21.8" font-family="Times New Roman,serif" font-size="14.00" fill="red">exit</text>
</g>
<!-- exitL&#45;&gt;exit -->
<g id="edge21" class="edge">
<title>exitL&#45;&gt;exit</title>
<path fill="none" stroke="black" stroke-dasharray="5,2" d="M217.83,-126.83C217.7,-112.68 217.5,-92.18 217.33,-74.65"/>
<polygon fill="black" stroke="black" points="220.83,-74.17 217.23,-64.2 213.83,-74.24 220.83,-74.17"/>
</g>
<!-- issueOF -->
<g id="node24" class="node">
<title>issueOF</title>
<text text-anchor="start" x="259" y="-247.8" font-family="Times New Roman,serif" font-weight="bold" font-size="14.00">Old French</text>
<text text-anchor="start" x="277" y="-233.8" font-family="Times New Roman,serif" font-size="14.00" fill="red">eissue</text>
<text text-anchor="start" x="280" y="-219.8" font-family="Times New Roman,serif" font-size="14.00" fill="red">issue</text>
</g>
<!-- exutaL&#45;&gt;issueOF -->
<g id="edge23" class="edge">
<title>exutaL&#45;&gt;issueOF</title>
<path fill="none" stroke="black" d="M286.82,-306.2C287.85,-296.39 289.18,-283.76 290.42,-272.05"/>
<polygon fill="black" stroke="black" points="293.9,-272.39 291.47,-262.08 286.94,-271.66 293.9,-272.39"/>
</g>
<!-- issueME -->
<g id="node25" class="node">
<title>issueME</title>
<text text-anchor="start" x="274.5" y="-155.8" font-family="Times New Roman,serif" font-weight="bold" font-size="14.00">Middle</text>
<text text-anchor="start" x="273" y="-141.8" font-family="Times New Roman,serif" font-weight="bold" font-size="14.00">English</text>
<text text-anchor="start" x="282" y="-127.8" font-family="Times New Roman,serif" font-size="14.00" fill="red">issue</text>
</g>
<!-- issueOF&#45;&gt;issueME -->
<g id="edge24" class="edge">
<title>issueOF&#45;&gt;issueME</title>
<path fill="none" stroke="black" stroke-dasharray="5,2" d="M294.54,-211.88C294.75,-202.2 295,-190.85 295.24,-180.34"/>
<polygon fill="black" stroke="black" points="298.74,-180.26 295.46,-170.18 291.74,-180.1 298.74,-180.26"/>
</g>
<!-- issue -->
<g id="node26" class="node">
<title>issue</title>
<text text-anchor="start" x="275.5" y="-49.8" font-family="Times New Roman,serif" font-weight="bold" font-size="14.00">Modern</text>
<text text-anchor="start" x="277" y="-35.8" font-family="Times New Roman,serif" font-weight="bold" font-size="14.00">English</text>
<text text-anchor="start" x="286" y="-21.8" font-family="Times New Roman,serif" font-size="14.00" fill="red">issue</text>
</g>
<!-- issueME&#45;&gt;issue -->
<g id="edge25" class="edge">
<title>issueME&#45;&gt;issue</title>
<path fill="none" stroke="black" d="M296.93,-119.88C297.44,-106.46 298.1,-89.51 298.67,-74.69"/>
<polygon fill="black" stroke="black" points="302.18,-74.48 299.06,-64.35 295.18,-74.21 302.18,-74.48"/>
</g>
<!-- epiIE -->
<g id="node27" class="node">
<title>epiIE</title>
<g id="a_node27"><a xlink:href="epi-near.svg" xlink:title="&lt;b&gt;Indo&#45;&lt;br/&gt;European&lt;/b&gt;&lt;br/&gt;&lt;font color=&quot;red&quot;&gt;*epi, *opi&lt;/font&gt;&lt;br/&gt;&lt;font point&#45;size=&quot;12&quot;&gt;near, at, against&lt;/font&gt;">
<path fill="none" stroke="black" stroke-dasharray="5,2" d="M699.5,-636C699.5,-636 636.5,-636 636.5,-636 630.5,-636 624.5,-630 624.5,-624 624.5,-624 624.5,-586 624.5,-586 624.5,-580 630.5,-574 636.5,-574 636.5,-574 699.5,-574 699.5,-574 705.5,-574 711.5,-580 711.5,-586 711.5,-586 711.5,-624 711.5,-624 711.5,-630 705.5,-636 699.5,-636"/>
<text text-anchor="start" x="651.5" y="-621.8" font-family="Times New Roman,serif" font-weight="bold" font-size="14.00">Indo&#45;</text>
<text text-anchor="start" x="637.5" y="-607.8" font-family="Times New Roman,serif" font-weight="bold" font-size="14.00">European</text>
<text text-anchor="start" x="640" y="-593.8" font-family="Times New Roman,serif" font-size="14.00" fill="red">*epi, *opi</text>
<text text-anchor="start" x="632.5" y="-581.4" font-family="Times New Roman,serif" font-size="12.00">near, at, against</text>
</a>
</g>
</g>
<!-- obL -->
<g id="node28" class="node">
<title>obL</title>
<text text-anchor="start" x="651.5" y="-502.8" font-family="Times New Roman,serif" font-weight="bold" font-size="14.00">Latin</text>
<text text-anchor="start" x="658" y="-488.8" font-family="Times New Roman,serif" font-size="14.00" fill="red">ob&#45;</text>
<text text-anchor="start" x="651.5" y="-476.4" font-family="Times New Roman,serif" font-size="12.00">toward</text>
</g>
<!-- epiIE&#45;&gt;obL -->
<g id="edge26" class="edge">
<title>epiIE&#45;&gt;obL</title>
<path fill="none" stroke="black" d="M668,-573.94C668,-559.51 668,-542.16 668,-527.33"/>
<polygon fill="black" stroke="black" points="671.5,-527.04 668,-517.04 664.5,-527.04 671.5,-527.04"/>
</g>
<!-- obL&#45;&gt;obireL -->
<g id="edge28" class="edge">
<title>obL&#45;&gt;obireL</title>
<path fill="none" stroke="black" d="M667.71,-468.57C667.59,-459.1 667.46,-448.11 667.34,-438.28"/>
<polygon fill="black" stroke="black" points="670.84,-438.16 667.21,-428.2 663.84,-438.24 670.84,-438.16"/>
</g>
<!-- obitusL -->
<g id="node30" class="node">
<title>obitusL</title>
<text text-anchor="start" x="649.5" y="-327.3" font-family="Times New Roman,serif" font-size="14.00" fill="red">obitus</text>
<text text-anchor="start" x="654.5" y="-314.9" font-family="Times New Roman,serif" font-size="12.00">death</text>
</g>
<!-- obireL&#45;&gt;obitusL -->
<g id="edge29" class="edge">
<title>obireL&#45;&gt;obitusL</title>
<path fill="none" stroke="black" d="M667,-391.7C667,-380.5 667,-365.69 667,-352.91"/>
<polygon fill="black" stroke="black" points="670.5,-352.78 667,-342.78 663.5,-352.78 670.5,-352.78"/>
</g>
<!-- obituarisL -->
<g id="node31" class="node">
<title>obituarisL</title>
<text text-anchor="start" x="638.5" y="-161.8" font-family="Times New Roman,serif" font-weight="bold" font-size="14.00">Medieval</text>
<text text-anchor="start" x="650.5" y="-147.8" font-family="Times New Roman,serif" font-weight="bold" font-size="14.00">Latin</text>
<text text-anchor="start" x="642.5" y="-133.8" font-family="Times New Roman,serif" font-size="14.00" fill="red">obitūaris</text>
<text text-anchor="start" x="648.5" y="-121.4" font-family="Times New Roman,serif" font-size="12.00">of death</text>
</g>
<!-- obitusL&#45;&gt;obituarisL -->
<g id="edge30" class="edge">
<title>obitusL&#45;&gt;obituarisL</title>
<path fill="none" stroke="black" d="M667,-306.48C667,-279.04 667,-224.27 667,-186.4"/>
<polygon fill="black" stroke="black" points="670.5,-186.2 667,-176.2 663.5,-186.2 670.5,-186.2"/>
</g>
<!-- obituary -->
<g id="node32" class="node">
<title>obituary</title>
<text text-anchor="start" x="642.5" y="-49.8" font-family="Times New Roman,serif" font-weight="bold" font-size="14.00">Modern</text>
<text text-anchor="start" x="644" y="-35.8" font-family="Times New Roman,serif" font-weight="bold" font-size="14.00">English</text>
<text text-anchor="start" x="644" y="-21.8" font-family="Times New Roman,serif" font-size="14.00" fill="red">obituary</text>
</g>
<!-- obituarisL&#45;&gt;obituary -->
<g id="edge31" class="edge">
<title>obituarisL&#45;&gt;obituary</title>
<path fill="none" stroke="black" stroke-dasharray="5,2" d="M667,-113.92C667,-101.55 667,-87.15 667,-74.36"/>
<polygon fill="black" stroke="black" points="670.5,-74.08 667,-64.08 663.5,-74.08 670.5,-74.08"/>
</g>
<!-- perIE -->
<g id="node33" class="node">
<title>perIE</title>
<g id="a_node33"><a xlink:href="per-peri.svg" xlink:title="&lt;b&gt;Indo&#45;&lt;br/&gt;European&lt;/b&gt;&lt;br/&gt;&lt;font color=&quot;red&quot;&gt;*per&lt;/font&gt;&lt;br/&gt;&lt;font point&#45;size=&quot;12&quot;&gt;forward, through&lt;/font&gt;">
<path fill="none" stroke="black" stroke-dasharray="5,2" d="M810,-636C810,-636 742,-636 742,-636 736,-636 730,-630 730,-624 730,-624 730,-586 730,-586 730,-580 736,-574 742,-574 742,-574 810,-574 810,-574 816,-574 822,-580 822,-586 822,-586 822,-624 822,-624 822,-630 816,-636 810,-636"/>
<text text-anchor="start" x="759.5" y="-621.8" font-family="Times New Roman,serif" font-weight="bold" font-size="14.00">Indo&#45;</text>
<text text-anchor="start" x="745.5" y="-607.8" font-family="Times New Roman,serif" font-weight="bold" font-size="14.00">European</text>
<text text-anchor="start" x="763.5" y="-593.8" font-family="Times New Roman,serif" font-size="14.00" fill="red">*per</text>
<text text-anchor="start" x="738" y="-581.4" font-family="Times New Roman,serif" font-size="12.00">forward, through</text>
</a>
</g>
</g>
<!-- perL -->
<g id="node34" class="node">
<title>perL</title>
<text text-anchor="start" x="753.5" y="-502.8" font-family="Times New Roman,serif" font-weight="bold" font-size="14.00">Latin</text>
<text text-anchor="start" x="758.5" y="-488.8" font-family="Times New Roman,serif" font-size="14.00" fill="red">per&#45;</text>
<text text-anchor="start" x="753" y="-476.4" font-family="Times New Roman,serif" font-size="12.00">through</text>
</g>
<!-- perIE&#45;&gt;perL -->
<g id="edge32" class="edge">
<title>perIE&#45;&gt;perL</title>
<path fill="none" stroke="black" d="M774.36,-573.94C773.57,-559.51 772.63,-542.16 771.82,-527.33"/>
<polygon fill="black" stroke="black" points="775.3,-526.84 771.26,-517.04 768.31,-527.22 775.3,-526.84"/>
</g>
<!-- perL&#45;&gt;perireL -->
<g id="edge34" class="edge">
<title>perL&#45;&gt;perireL</title>
<path fill="none" stroke="black" d="M768.55,-468.57C767.97,-459.1 767.29,-448.11 766.68,-438.28"/>
<polygon fill="black" stroke="black" points="770.17,-437.97 766.06,-428.2 763.18,-438.4 770.17,-437.97"/>
</g>
<!-- perirOF -->
<g id="node36" class="node">
<title>perirOF</title>
<text text-anchor="start" x="726" y="-328.3" font-family="Times New Roman,serif" font-weight="bold" font-size="14.00">Old French</text>
<text text-anchor="start" x="725.5" y="-314.3" font-family="Times New Roman,serif" font-size="14.00" fill="red">perir, periss&#45;</text>
</g>
<!-- perireL&#45;&gt;perirOF -->
<g id="edge35" class="edge">
<title>perireL&#45;&gt;perirOF</title>
<path fill="none" stroke="black" d="M764.17,-391.7C763.63,-380.5 762.93,-365.69 762.31,-352.91"/>
<polygon fill="black" stroke="black" points="765.8,-352.6 761.83,-342.78 758.81,-352.94 765.8,-352.6"/>
</g>
<!-- perishenME -->
<g id="node37" class="node">
<title>perishenME</title>
<text text-anchor="start" x="733.5" y="-247.8" font-family="Times New Roman,serif" font-weight="bold" font-size="14.00">Middle</text>
<text text-anchor="start" x="732" y="-233.8" font-family="Times New Roman,serif" font-weight="bold" font-size="14.00">English</text>
<text text-anchor="start" x="731.5" y="-219.8" font-family="Times New Roman,serif" font-size="14.00" fill="red">perishen</text>
</g>
<!-- perirOF&#45;&gt;perishenME -->
<g id="edge36" class="edge">
<title>perirOF&#45;&gt;perishenME</title>
<path fill="none" stroke="black" stroke-dasharray="5,2" d="M759.79,-306.2C759.1,-296.48 758.23,-284.02 757.41,-272.4"/>
<polygon fill="black" stroke="black" points="760.88,-271.81 756.69,-262.08 753.9,-272.3 760.88,-271.81"/>
</g>
<!-- perish -->
<g id="node38" class="node">
<title>perish</title>
<text text-anchor="start" x="730.5" y="-49.8" font-family="Times New Roman,serif" font-weight="bold" font-size="14.00">Modern</text>
<text text-anchor="start" x="732" y="-35.8" font-family="Times New Roman,serif" font-weight="bold" font-size="14.00">English</text>
<text text-anchor="start" x="738" y="-21.8" font-family="Times New Roman,serif" font-size="14.00" fill="red">perish</text>
</g>
<!-- perishenME&#45;&gt;perish -->
<g id="edge37" class="edge">
<title>perishenME&#45;&gt;perish</title>
<path fill="none" stroke="black" d="M755,-211.97C755,-177.51 755,-113.88 755,-74.43"/>
<polygon fill="black" stroke="black" points="758.5,-74.23 755,-64.23 751.5,-74.23 758.5,-74.23"/>
</g>
<!-- upoIE -->
<g id="node39" class="node">
<title>upoIE</title>
<g id="a_node39"><a xlink:href="upo-under.svg" xlink:title="&lt;b&gt;Indo&#45;&lt;br/&gt;European&lt;/b&gt;&lt;br/&gt;&lt;font color=&quot;red&quot;&gt;*upo&lt;/font&gt;&lt;br/&gt;&lt;font point&#45;size=&quot;12&quot;&gt;under&lt;/font&gt;">
<path fill="none" stroke="black" stroke-dasharray="5,2" d="M905.5,-636C905.5,-636 852.5,-636 852.5,-636 846.5,-636 840.5,-630 840.5,-624 840.5,-624 840.5,-586 840.5,-586 840.5,-580 846.5,-574 852.5,-574 852.5,-574 905.5,-574 905.5,-574 911.5,-574 917.5,-580 917.5,-586 917.5,-586 917.5,-624 917.5,-624 917.5,-630 911.5,-636 905.5,-636"/>
<text text-anchor="start" x="862.5" y="-621.8" font-family="Times New Roman,serif" font-weight="bold" font-size="14.00">Indo&#45;</text>
<text text-anchor="start" x="848.5" y="-607.8" font-family="Times New Roman,serif" font-weight="bold" font-size="14.00">European</text>
<text text-anchor="start" x="864.5" y="-593.8" font-family="Times New Roman,serif" font-size="14.00" fill="red">*upo</text>
<text text-anchor="start" x="866" y="-581.4" font-family="Times New Roman,serif" font-size="12.00">under</text>
</a>
</g>
</g>
<!-- subL -->
<g id="node40" class="node">
<title>subL</title>
<text text-anchor="start" x="854.5" y="-496.8" font-family="Times New Roman,serif" font-weight="bold" font-size="14.00">Latin</text>
<text text-anchor="start" x="858.5" y="-482.8" font-family="Times New Roman,serif" font-size="14.00" fill="red">sub&#45;</text>
</g>
<!-- upoIE&#45;&gt;subL -->
<g id="edge38" class="edge">
<title>upoIE&#45;&gt;subL</title>
<path fill="none" stroke="black" d="M876.81,-573.94C875.62,-557.51 874.15,-537.3 872.99,-521.32"/>
<polygon fill="black" stroke="black" points="876.45,-520.74 872.24,-511.02 869.47,-521.25 876.45,-520.74"/>
</g>
<!-- subL&#45;&gt;subireL -->
<g id="edge40" class="edge">
<title>subL&#45;&gt;subireL</title>
<path fill="none" stroke="black" d="M869.94,-474.82C869.37,-465.6 868.65,-453.93 867.98,-443.11"/>
<polygon fill="black" stroke="black" points="871.47,-442.85 867.36,-433.09 864.49,-443.28 871.47,-442.85"/>
</g>
<!-- subitusL -->
<g id="node42" class="node">
<title>subitusL</title>
<text text-anchor="start" x="846" y="-335.8" font-family="Times New Roman,serif" font-size="14.00" fill="red">subitus</text>
<text text-anchor="start" x="836.5" y="-320.8" font-family="Times New Roman,serif" font-size="14.00" fill="red">subitāneus</text>
<text text-anchor="start" x="836" y="-305.8" font-family="Times New Roman,serif" font-size="14.00" fill="red">*subitānus</text>
</g>
<!-- subireL&#45;&gt;subitusL -->
<g id="edge41" class="edge">
<title>subireL&#45;&gt;subitusL</title>
<path fill="none" stroke="black" d="M866,-386.62C866,-378.86 866,-369.95 866,-361.38"/>
<polygon fill="black" stroke="black" points="869.5,-361.19 866,-351.19 862.5,-361.19 869.5,-361.19"/>
</g>
<!-- sodainOF -->
<g id="node43" class="node">
<title>sodainOF</title>
<text text-anchor="start" x="813" y="-246.8" font-family="Times New Roman,serif" font-weight="bold" font-size="14.00">Old French</text>
<text text-anchor="start" x="829.5" y="-232.8" font-family="Times New Roman,serif" font-size="14.00" fill="red">sodain</text>
<text text-anchor="start" x="831.5" y="-220.4" font-family="Times New Roman,serif" font-size="12.00">sudden</text>
</g>
<!-- subitusL&#45;&gt;sodainOF -->
<g id="edge42" class="edge">
<title>subitusL&#45;&gt;sodainOF</title>
<path fill="none" stroke="black" d="M860.6,-297.85C858.83,-289.43 856.83,-279.96 854.96,-271.08"/>
<polygon fill="black" stroke="black" points="858.33,-270.08 852.85,-261.02 851.48,-271.52 858.33,-270.08"/>
</g>
<!-- subitoI -->
<g id="node46" class="node">
<title>subitoI</title>
<text text-anchor="start" x="917" y="-246.8" font-family="Times New Roman,serif" font-weight="bold" font-size="14.00">Italian</text>
<text text-anchor="start" x="919.5" y="-232.8" font-family="Times New Roman,serif" font-size="14.00" fill="red">subito</text>
<text text-anchor="start" x="920.5" y="-220.4" font-family="Times New Roman,serif" font-size="12.00">sudden</text>
</g>
<!-- subitusL&#45;&gt;subitoI -->
<g id="edge45" class="edge">
<title>subitusL&#45;&gt;subitoI</title>
<path fill="none" stroke="black" d="M887.3,-297.85C894.9,-288.7 903.53,-278.31 911.45,-268.77"/>
<polygon fill="black" stroke="black" points="914.19,-270.95 917.89,-261.02 908.81,-266.47 914.19,-270.95"/>
</g>
<!-- sodainME -->
<g id="node44" class="node">
<title>sodainME</title>
<text text-anchor="start" x="826.5" y="-155.8" font-family="Times New Roman,serif" font-weight="bold" font-size="14.00">Middle</text>
<text text-anchor="start" x="825" y="-141.8" font-family="Times New Roman,serif" font-weight="bold" font-size="14.00">English</text>
<text text-anchor="start" x="829.5" y="-127.8" font-family="Times New Roman,serif" font-size="14.00" fill="red">sodain</text>
</g>
<!-- sodainOF&#45;&gt;sodainME -->
<g id="edge43" class="edge">
<title>sodainOF&#45;&gt;sodainME</title>
<path fill="none" stroke="black" stroke-dasharray="5,2" d="M848,-212.82C848,-202.88 848,-191.05 848,-180.14"/>
<polygon fill="black" stroke="black" points="851.5,-180.04 848,-170.04 844.5,-180.04 851.5,-180.04"/>
</g>
<!-- sudden -->
<g id="node45" class="node">
<title>sudden</title>
<text text-anchor="start" x="823.5" y="-49.8" font-family="Times New Roman,serif" font-weight="bold" font-size="14.00">Modern</text>
<text text-anchor="start" x="825" y="-35.8" font-family="Times New Roman,serif" font-weight="bold" font-size="14.00">English</text>
<text text-anchor="start" x="827.5" y="-21.8" font-family="Times New Roman,serif" font-size="14.00" fill="red">sudden</text>
</g>
<!-- sodainME&#45;&gt;sudden -->
<g id="edge44" class="edge">
<title>sodainME&#45;&gt;sudden</title>
<path fill="none" stroke="black" d="M848,-119.88C848,-106.46 848,-89.51 848,-74.69"/>
<polygon fill="black" stroke="black" points="851.5,-74.35 848,-64.35 844.5,-74.35 851.5,-74.35"/>
</g>
<!-- subito -->
<g id="node47" class="node">
<title>subito</title>
<text text-anchor="start" x="909.5" y="-49.8" font-family="Times New Roman,serif" font-weight="bold" font-size="14.00">Modern</text>
<text text-anchor="start" x="911" y="-35.8" font-family="Times New Roman,serif" font-weight="bold" font-size="14.00">English</text>
<text text-anchor="start" x="916.5" y="-21.8" font-family="Times New Roman,serif" font-size="14.00" fill="red">subito</text>
</g>
<!-- subitoI&#45;&gt;subito -->
<g id="edge46" class="edge">
<title>subitoI&#45;&gt;subito</title>
<path fill="none" stroke="black" stroke-dasharray="5,2" d="M936.64,-212.75C936.12,-178.4 935.13,-113.89 934.52,-74.16"/>
<polygon fill="black" stroke="black" points="938.02,-74.09 934.37,-64.14 931.02,-74.19 938.02,-74.09"/>
</g>
<!-- tereIE -->
<g id="node48" class="node">
<title>tereIE</title>
<g id="a_node48"><a xlink:href="tere-cross.svg" xlink:title="&lt;b&gt;Indo&#45;&lt;br/&gt;European&lt;/b&gt;&lt;br/&gt;&lt;font color=&quot;red&quot;&gt;*terə&#45;&lt;/font&gt;&lt;br/&gt;&lt;font point&#45;size=&quot;12&quot;&gt;to cross over&lt;/font&gt;">
<path fill="none" stroke="black" stroke-dasharray="5,2" d="M1022.5,-636C1022.5,-636 969.5,-636 969.5,-636 963.5,-636 957.5,-630 957.5,-624 957.5,-624 957.5,-586 957.5,-586 957.5,-580 963.5,-574 969.5,-574 969.5,-574 1022.5,-574 1022.5,-574 1028.5,-574 1034.5,-580 1034.5,-586 1034.5,-586 1034.5,-624 1034.5,-624 1034.5,-630 1028.5,-636 1022.5,-636"/>
<text text-anchor="start" x="979.5" y="-621.8" font-family="Times New Roman,serif" font-weight="bold" font-size="14.00">Indo&#45;</text>
<text text-anchor="start" x="965.5" y="-607.8" font-family="Times New Roman,serif" font-weight="bold" font-size="14.00">European</text>
<text text-anchor="start" x="980" y="-593.8" font-family="Times New Roman,serif" font-size="14.00" fill="red">*terə&#45;</text>
<text text-anchor="start" x="966" y="-581.4" font-family="Times New Roman,serif" font-size="12.00">to cross over</text>
</a>
</g>
</g>
<!-- transL -->
<g id="node49" class="node">
<title>transL</title>
<text text-anchor="start" x="979.5" y="-502.8" font-family="Times New Roman,serif" font-weight="bold" font-size="14.00">Latin</text>
<text text-anchor="start" x="980" y="-488.8" font-family="Times New Roman,serif" font-size="14.00" fill="red">trans&#45;</text>
<text text-anchor="start" x="981" y="-476.4" font-family="Times New Roman,serif" font-size="12.00">across</text>
</g>
<!-- tereIE&#45;&gt;transL -->
<g id="edge47" class="edge">
<title>tereIE&#45;&gt;transL</title>
<path fill="none" stroke="black" d="M996,-573.94C996,-559.51 996,-542.16 996,-527.33"/>
<polygon fill="black" stroke="black" points="999.5,-527.04 996,-517.04 992.5,-527.04 999.5,-527.04"/>
</g>
<!-- transL&#45;&gt;transireL -->
<g id="edge49" class="edge">
<title>transL&#45;&gt;transireL</title>
<path fill="none" stroke="black" d="M996,-468.57C996,-459.1 996,-448.11 996,-438.28"/>
<polygon fill="black" stroke="black" points="999.5,-438.2 996,-428.2 992.5,-438.2 999.5,-438.2"/>
</g>
<!-- trance -->
<g id="node51" class="node">
<title>trance</title>
<text text-anchor="start" x="992.5" y="-63.8" font-family="Times New Roman,serif" font-weight="bold" font-size="14.00">Modern</text>
<text text-anchor="start" x="994" y="-49.8" font-family="Times New Roman,serif" font-weight="bold" font-size="14.00">English</text>
<text text-anchor="start" x="1000" y="-35.8" font-family="Times New Roman,serif" font-size="14.00" fill="red">trance</text>
<text text-anchor="start" x="993.5" y="-21.8" font-family="Times New Roman,serif" font-size="14.00" fill="red">transient</text>
<text text-anchor="start" x="1000" y="-7.8" font-family="Times New Roman,serif" font-size="14.00" fill="red">transit</text>
</g>
<!-- transireL&#45;&gt;trance -->
<g id="edge50" class="edge">
<title>transireL&#45;&gt;trance</title>
<path fill="none" stroke="black" stroke-dasharray="5,2" d="M996.98,-391.7C1000.05,-337.79 1009.51,-171.53 1014.25,-88.38"/>
<polygon fill="black" stroke="black" points="1017.75,-88.37 1014.83,-78.19 1010.76,-87.97 1017.75,-88.37"/>
</g>
<!-- adit -->
<g id="node53" class="node">
<title>adit</title>
<text text-anchor="start" x="358.5" y="-49.8" font-family="Times New Roman,serif" font-weight="bold" font-size="14.00">Modern</text>
<text text-anchor="start" x="360" y="-35.8" font-family="Times New Roman,serif" font-weight="bold" font-size="14.00">English</text>
<text text-anchor="start" x="372.5" y="-21.8" font-family="Times New Roman,serif" font-size="14.00" fill="red">adit</text>
</g>
<!-- adireL&#45;&gt;adit -->
<g id="edge52" class="edge">
<title>adireL&#45;&gt;adit</title>
<path fill="none" stroke="black" stroke-dasharray="5,2" d="M383,-126.83C383,-112.68 383,-92.18 383,-74.65"/>
<polygon fill="black" stroke="black" points="386.5,-74.2 383,-64.2 379.5,-74.2 386.5,-74.2"/>
</g>
<!-- seditioL -->
<g id="node57" class="node">
<title>seditioL</title>
<text text-anchor="start" x="419.5" y="-327.3" font-family="Times New Roman,serif" font-size="14.00" fill="red">sēditiō, sēditiōn&#45;</text>
<text text-anchor="start" x="441.5" y="-314.9" font-family="Times New Roman,serif" font-size="12.00">party strife</text>
</g>
<!-- itioL&#45;&gt;seditioL -->
<g id="edge55" class="edge">
<title>itioL&#45;&gt;seditioL</title>
<path fill="none" stroke="black" d="M466.79,-391.7C466.66,-380.5 466.48,-365.69 466.33,-352.91"/>
<polygon fill="black" stroke="black" points="469.83,-352.74 466.21,-342.78 462.83,-352.82 469.83,-352.74"/>
</g>
<!-- sweIE -->
<g id="node55" class="node">
<title>sweIE</title>
<g id="a_node55"><a xlink:href="swe-self.svg" xlink:title="&lt;b&gt;Indo&#45;&lt;br/&gt;European&lt;/b&gt;&lt;br/&gt;&lt;font color=&quot;red&quot;&gt;*s(w)e&#45;&lt;/font&gt;&lt;br/&gt;&lt;font point&#45;size=&quot;12&quot;&gt;self&lt;/font&gt;">
<path fill="none" stroke="black" stroke-dasharray="5,2" d="M365.5,-636C365.5,-636 312.5,-636 312.5,-636 306.5,-636 300.5,-630 300.5,-624 300.5,-624 300.5,-586 300.5,-586 300.5,-580 306.5,-574 312.5,-574 312.5,-574 365.5,-574 365.5,-574 371.5,-574 377.5,-580 377.5,-586 377.5,-586 377.5,-624 377.5,-624 377.5,-630 371.5,-636 365.5,-636"/>
<text text-anchor="start" x="322.5" y="-621.8" font-family="Times New Roman,serif" font-weight="bold" font-size="14.00">Indo&#45;</text>
<text text-anchor="start" x="308.5" y="-607.8" font-family="Times New Roman,serif" font-weight="bold" font-size="14.00">European</text>
<text text-anchor="start" x="317.5" y="-593.8" font-family="Times New Roman,serif" font-size="14.00" fill="red">*s(w)e&#45;</text>
<text text-anchor="start" x="331" y="-581.4" font-family="Times New Roman,serif" font-size="12.00">self</text>
</a>
</g>
</g>
<!-- sedL -->
<g id="node56" class="node">
<title>sedL</title>
<text text-anchor="start" x="324.5" y="-502.8" font-family="Times New Roman,serif" font-weight="bold" font-size="14.00">Latin</text>
<text text-anchor="start" x="316.5" y="-488.8" font-family="Times New Roman,serif" font-size="14.00" fill="red">sēd&#45;, sē&#45;</text>
<text text-anchor="start" x="329" y="-476.4" font-family="Times New Roman,serif" font-size="12.00">apart</text>
</g>
<!-- sweIE&#45;&gt;sedL -->
<g id="edge54" class="edge">
<title>sweIE&#45;&gt;sedL</title>
<path fill="none" stroke="black" d="M339.55,-573.94C339.81,-559.51 340.12,-542.16 340.39,-527.33"/>
<polygon fill="black" stroke="black" points="343.9,-527.1 340.58,-517.04 336.9,-526.98 343.9,-527.1"/>
</g>
<!-- sedL&#45;&gt;seditioL -->
<g id="edge56" class="edge">
<title>sedL&#45;&gt;seditioL</title>
<path fill="none" stroke="black" d="M358.38,-468.85C381.66,-437.84 422.81,-383.02 446.92,-350.91"/>
<polygon fill="black" stroke="black" points="449.75,-352.98 452.95,-342.88 444.15,-348.77 449.75,-352.98"/>
</g>
<!-- sedition -->
<g id="node58" class="node">
<title>sedition</title>
<text text-anchor="start" x="441.5" y="-49.8" font-family="Times New Roman,serif" font-weight="bold" font-size="14.00">Modern</text>
<text text-anchor="start" x="443" y="-35.8" font-family="Times New Roman,serif" font-weight="bold" font-size="14.00">English</text>
<text text-anchor="start" x="444" y="-21.8" font-family="Times New Roman,serif" font-size="14.00" fill="red">sedition</text>
</g>
<!-- seditioL&#45;&gt;sedition -->
<g id="edge57" class="edge">
<title>seditioL&#45;&gt;sedition</title>
<path fill="none" stroke="black" stroke-dasharray="5,2" d="M466,-306.19C466,-260.38 466,-135.27 466,-74.31"/>
<polygon fill="black" stroke="black" points="469.5,-74.05 466,-64.05 462.5,-74.05 469.5,-74.05"/>
</g>
</g>
</svg>
