<?xml version="1.0" encoding="UTF-8" standalone="no"?>
<!DOCTYPE svg PUBLIC "-//W3C//DTD SVG 1.1//EN"
 "http://www.w3.org/Graphics/SVG/1.1/DTD/svg11.dtd">
<!-- Generated by graphviz version 2.49.0 (20210828.1703)
 -->
<!-- Pages: 1 -->
<svg width="227pt" height="192pt"
 viewBox="0.00 0.00 227.00 192.00" xmlns="http://www.w3.org/2000/svg" xmlns:xlink="http://www.w3.org/1999/xlink">
<g id="graph0" class="graph" transform="scale(1 1) rotate(0) translate(4 188)">
<polygon fill="white" stroke="transparent" points="-4,4 -4,-188 223,-188 223,4 -4,4"/>
<!-- eiIE -->
<g id="node1" class="node">
<title>eiIE</title>
<g id="a_node1"><a xlink:title="Indo&#45;European &quot;*ei&#45;&quot; to go">
<polygon fill="none" stroke="black" points="215,-180 4,-180 4,-76 215,-76 215,-180"/>
<polygon fill="none" stroke="black" points="219,-184 0,-184 0,-72 219,-72 219,-184"/>
<text text-anchor="start" x="31.5" y="-135.8" font-family="Times New Roman,serif" font-weight="bold" font-size="24.00">Indo&#45;European</text>
<text text-anchor="start" x="53.5" y="-107.6" font-family="Times New Roman,serif" font-size="18.00" fill="red">*ei&#45;</text>
<text text-anchor="start" x="133.5" y="-108.2" font-family="Times New Roman,serif" font-size="16.00">to go</text>
</a>
</g>
</g>
<!-- ei1 -->
<g id="node2" class="node">
<title>ei1</title>
<g id="a_node2"><a xlink:href="ei-go1.svg" xlink:title="Latin īre">
<path fill="none" stroke="black" stroke-dasharray="5,2" d="M80.5,-36C80.5,-36 40.5,-36 40.5,-36 34.5,-36 28.5,-30 28.5,-24 28.5,-24 28.5,-12 28.5,-12 28.5,-6 34.5,0 40.5,0 40.5,0 80.5,0 80.5,0 86.5,0 92.5,-6 92.5,-12 92.5,-12 92.5,-24 92.5,-24 92.5,-30 86.5,-36 80.5,-36"/>
<text text-anchor="start" x="36.5" y="-15.3" font-family="Times New Roman,serif" font-size="14.00">Latin </text>
<text text-anchor="start" x="68.5" y="-15.3" font-family="Times New Roman,serif" font-size="14.00" fill="red">īre</text>
</a>
</g>
</g>
<!-- eiIE&#45;&gt;ei1 -->
<g id="edge1" class="edge">
<title>eiIE&#45;&gt;ei1</title>
<path fill="none" stroke="black" d="M84.43,-71.73C80.27,-62.58 76.14,-53.48 72.51,-45.48"/>
<polygon fill="black" stroke="black" points="75.68,-44 68.37,-36.34 69.31,-46.89 75.68,-44"/>
</g>
<!-- ei2 -->
<g id="node3" class="node">
<title>ei2</title>
<g id="a_node3"><a xlink:href="ei-go2.svg" xlink:title="everything else">
<path fill="none" stroke="black" stroke-dasharray="5,2" d="M196.5,-36C196.5,-36 122.5,-36 122.5,-36 116.5,-36 110.5,-30 110.5,-24 110.5,-24 110.5,-12 110.5,-12 110.5,-6 116.5,0 122.5,0 122.5,0 196.5,0 196.5,0 202.5,0 208.5,-6 208.5,-12 208.5,-12 208.5,-24 208.5,-24 208.5,-30 202.5,-36 196.5,-36"/>
<text text-anchor="start" x="118.5" y="-14.3" font-family="Times New Roman,serif" font-size="14.00">everything else</text>
</a>
</g>
</g>
<!-- eiIE&#45;&gt;ei2 -->
<g id="edge2" class="edge">
<title>eiIE&#45;&gt;ei2</title>
<path fill="none" stroke="black" d="M135.09,-71.73C139.32,-62.58 143.54,-53.48 147.24,-45.48"/>
<polygon fill="black" stroke="black" points="150.45,-46.88 151.47,-36.34 144.1,-43.94 150.45,-46.88"/>
</g>
</g>
</svg>
