<?xml version="1.0" encoding="UTF-8" standalone="no"?>
<!DOCTYPE svg PUBLIC "-//W3C//DTD SVG 1.1//EN"
 "http://www.w3.org/Graphics/SVG/1.1/DTD/svg11.dtd">
<!-- Generated by graphviz version 2.49.0 (20210828.1703)
 -->
<!-- Pages: 1 -->
<svg width="818pt" height="632pt"
 viewBox="0.00 0.00 818.00 632.00" xmlns="http://www.w3.org/2000/svg" xmlns:xlink="http://www.w3.org/1999/xlink">
<g id="graph0" class="graph" transform="scale(1 1) rotate(0) translate(4 628)">
<polygon fill="white" stroke="transparent" points="-4,4 -4,-628 814,-628 814,4 -4,4"/>
<!-- enIE -->
<g id="node1" class="node">
<title>enIE</title>
<g id="a_node1"><a xlink:href="en-in0.svg" xlink:title="Indo&#45;European &quot;en&quot; in">
<path fill="none" stroke="black" stroke-dasharray="5,2" d="M503,-624C503,-624 354,-624 354,-624 348,-624 342,-618 342,-612 342,-612 342,-586 342,-586 342,-580 348,-574 354,-574 354,-574 503,-574 503,-574 509,-574 515,-580 515,-586 515,-586 515,-612 515,-612 515,-618 509,-624 503,-624"/>
<text text-anchor="start" x="350" y="-601.8" font-family="Times New Roman,serif" font-weight="bold" font-size="24.00">Indo&#45;European</text>
<text text-anchor="start" x="406.5" y="-582.6" font-family="Times New Roman,serif" font-size="18.00" fill="red">*en </text>
<text text-anchor="start" x="437.5" y="-582.6" font-family="Times New Roman,serif" font-size="16.00">in</text>
</a>
</g>
</g>
<!-- inGm -->
<g id="node2" class="node">
<title>inGm</title>
<text text-anchor="start" x="210" y="-438.8" font-family="Times New Roman,serif" font-weight="bold" font-size="14.00">Germanic</text>
<text text-anchor="start" x="232" y="-424.8" font-family="Times New Roman,serif" font-size="14.00" fill="red">*in</text>
</g>
<!-- enIE&#45;&gt;inGm -->
<g id="edge1" class="edge">
<title>enIE&#45;&gt;inGm</title>
<path fill="none" stroke="black" d="M395.72,-573.84C381.57,-563.15 364.98,-550.24 350.5,-538 320.25,-512.43 287.12,-481.25 265.21,-460.14"/>
<polygon fill="black" stroke="black" points="267.57,-457.56 257.95,-453.12 262.71,-462.59 267.57,-457.56"/>
</g>
<!-- inneraGm -->
<g id="node12" class="node">
<title>inneraGm</title>
<text text-anchor="start" x="441" y="-523.8" font-family="Times New Roman,serif" font-weight="bold" font-size="14.00">Germanic</text>
<text text-anchor="start" x="450" y="-509.8" font-family="Times New Roman,serif" font-size="14.00" fill="red">inn(e)ra</text>
</g>
<!-- enIE&#45;&gt;inneraGm -->
<g id="edge12" class="edge">
<title>enIE&#45;&gt;inneraGm</title>
<path fill="none" stroke="black" d="M442.11,-573.64C446.8,-565.22 452.09,-555.77 456.86,-547.21"/>
<polygon fill="black" stroke="black" points="459.98,-548.81 461.8,-538.38 453.86,-545.4 459.98,-548.81"/>
</g>
<!-- inL -->
<g id="node19" class="node">
<title>inL</title>
<text text-anchor="start" x="370" y="-523.8" font-family="Times New Roman,serif" font-weight="bold" font-size="14.00">Latin</text>
<text text-anchor="start" x="381.5" y="-509.8" font-family="Times New Roman,serif" font-size="14.00" fill="red">in</text>
</g>
<!-- enIE&#45;&gt;inL -->
<g id="edge19" class="edge">
<title>enIE&#45;&gt;inL</title>
<path fill="none" stroke="black" d="M415.21,-573.64C410.62,-565.22 405.46,-555.77 400.8,-547.21"/>
<polygon fill="black" stroke="black" points="403.84,-545.48 395.98,-538.38 397.69,-548.83 403.84,-545.48"/>
</g>
<!-- enG -->
<g id="node25" class="node">
<title>enG</title>
<text text-anchor="start" x="536.5" y="-523.8" font-family="Times New Roman,serif" font-weight="bold" font-size="14.00">Greek</text>
<text text-anchor="start" x="550" y="-509.8" font-family="Times New Roman,serif" font-size="14.00" fill="red">en</text>
</g>
<!-- enIE&#45;&gt;enG -->
<g id="edge26" class="edge">
<title>enIE&#45;&gt;enG</title>
<path fill="none" stroke="black" d="M468.65,-573.85C484.83,-564.11 503.38,-552.95 519.26,-543.4"/>
<polygon fill="black" stroke="black" points="521.49,-546.14 528.26,-537.99 517.88,-540.15 521.49,-546.14"/>
</g>
<!-- inOE -->
<g id="node3" class="node">
<title>inOE</title>
<text text-anchor="start" x="257" y="-340.8" font-family="Times New Roman,serif" font-weight="bold" font-size="14.00">Old English</text>
<text text-anchor="start" x="288.5" y="-326.8" font-family="Times New Roman,serif" font-size="14.00" fill="red">in</text>
<text text-anchor="start" x="277.5" y="-314.4" font-family="Times New Roman,serif" font-size="12.00">(prep.)</text>
</g>
<!-- inGm&#45;&gt;inOE -->
<g id="edge2" class="edge">
<title>inGm&#45;&gt;inOE</title>
<path fill="none" stroke="black" d="M249.49,-416.7C256.92,-402.41 267.66,-381.72 276.68,-364.38"/>
<polygon fill="black" stroke="black" points="279.97,-365.63 281.47,-355.14 273.76,-362.4 279.97,-365.63"/>
</g>
<!-- inneOE -->
<g id="node4" class="node">
<title>inneOE</title>
<text text-anchor="start" x="43" y="-353.8" font-family="Times New Roman,serif" font-weight="bold" font-size="14.00">Old English</text>
<text text-anchor="start" x="71" y="-339.8" font-family="Times New Roman,serif" font-size="14.00" fill="red">inn</text>
<text text-anchor="start" x="71" y="-327.4" font-family="Times New Roman,serif" font-size="12.00">into</text>
<text text-anchor="start" x="68" y="-313.8" font-family="Times New Roman,serif" font-size="14.00" fill="red">inne</text>
<text text-anchor="start" x="66.5" y="-301.4" font-family="Times New Roman,serif" font-size="12.00">inside</text>
</g>
<!-- inGm&#45;&gt;inneOE -->
<g id="edge3" class="edge">
<title>inGm&#45;&gt;inneOE</title>
<path fill="none" stroke="black" d="M211.39,-416.73C191.31,-404.7 163.87,-388.04 132.67,-368.04"/>
<polygon fill="black" stroke="black" points="134.52,-365.07 124.22,-362.6 130.73,-370.95 134.52,-365.07"/>
</g>
<!-- innOE -->
<g id="node9" class="node">
<title>innOE</title>
<text text-anchor="start" x="150" y="-340.8" font-family="Times New Roman,serif" font-weight="bold" font-size="14.00">Old English</text>
<text text-anchor="start" x="178" y="-326.8" font-family="Times New Roman,serif" font-size="14.00" fill="red">inn</text>
<text text-anchor="start" x="155" y="-314.4" font-family="Times New Roman,serif" font-size="12.00">habitation, inn</text>
</g>
<!-- inGm&#45;&gt;innOE -->
<g id="edge9" class="edge">
<title>inGm&#45;&gt;innOE</title>
<path fill="none" stroke="black" d="M231.34,-416.7C223.77,-402.41 212.82,-381.72 203.64,-364.38"/>
<polygon fill="black" stroke="black" points="206.52,-362.34 198.75,-355.14 200.34,-365.62 206.52,-362.34"/>
</g>
<!-- inME -->
<g id="node5" class="node">
<title>inME</title>
<text text-anchor="start" x="94" y="-243.8" font-family="Times New Roman,serif" font-weight="bold" font-size="14.00">Middle</text>
<text text-anchor="start" x="92.5" y="-229.8" font-family="Times New Roman,serif" font-weight="bold" font-size="14.00">English</text>
<text text-anchor="start" x="110.5" y="-215.8" font-family="Times New Roman,serif" font-size="14.00" fill="red">in</text>
</g>
<!-- inOE&#45;&gt;inME -->
<g id="edge4" class="edge">
<title>inOE&#45;&gt;inME</title>
<path fill="none" stroke="black" d="M260.94,-306.98C254,-302.45 246.62,-297.9 239.5,-294 204.59,-274.89 193.05,-275.9 157.5,-258 156.96,-257.73 156.42,-257.45 155.87,-257.18"/>
<polygon fill="black" stroke="black" points="157.43,-254.04 146.95,-252.45 154.15,-260.22 157.43,-254.04"/>
</g>
<!-- inweardOE -->
<g id="node16" class="node">
<title>inweardOE</title>
<text text-anchor="start" x="271.5" y="-235.8" font-family="Times New Roman,serif" font-size="14.00" fill="red">inweard</text>
<text text-anchor="start" x="278" y="-223.4" font-family="Times New Roman,serif" font-size="12.00">inward</text>
</g>
<!-- inOE&#45;&gt;inweardOE -->
<g id="edge16" class="edge">
<title>inOE&#45;&gt;inweardOE</title>
<path fill="none" stroke="black" d="M293.5,-306.76C293.5,-293.05 293.5,-275.63 293.5,-261.28"/>
<polygon fill="black" stroke="black" points="297,-261.01 293.5,-251.01 290,-261.01 297,-261.01"/>
</g>
<!-- p_inOE -->
<g id="node22" class="node">
<title>p_inOE</title>
<text text-anchor="start" x="379" y="-229.3" font-family="Times New Roman,serif" font-size="14.00" fill="red">in&#45;</text>
</g>
<!-- inOE&#45;&gt;p_inOE -->
<g id="edge22" class="edge">
<title>inOE&#45;&gt;p_inOE</title>
<path fill="none" stroke="black" d="M316.01,-306.76C330.2,-292.11 348.5,-273.23 362.89,-258.37"/>
<polygon fill="black" stroke="black" points="365.58,-260.63 370.02,-251.01 360.55,-255.75 365.58,-260.63"/>
</g>
<!-- inneOE&#45;&gt;inME -->
<g id="edge5" class="edge">
<title>inneOE&#45;&gt;inME</title>
<path fill="none" stroke="black" d="M93.01,-293.98C96.22,-285.41 99.64,-276.3 102.81,-267.84"/>
<polygon fill="black" stroke="black" points="106.16,-268.86 106.4,-258.27 99.61,-266.41 106.16,-268.86"/>
</g>
<!-- inntoOE -->
<g id="node7" class="node">
<title>inntoOE</title>
<text text-anchor="start" x="22.5" y="-125.7" font-family="Times New Roman,serif" font-size="14.00" fill="red">inn tō</text>
</g>
<!-- inneOE&#45;&gt;inntoOE -->
<g id="edge7" class="edge">
<title>inneOE&#45;&gt;inntoOE</title>
<path fill="none" stroke="black" d="M71.79,-293.7C63.9,-256.59 51.82,-199.71 44.59,-165.65"/>
<polygon fill="black" stroke="black" points="48.01,-164.91 42.51,-155.86 41.16,-166.37 48.01,-164.91"/>
</g>
<!-- in -->
<g id="node6" class="node">
<title>in</title>
<text text-anchor="start" x="91" y="-42.8" font-family="Times New Roman,serif" font-weight="bold" font-size="14.00">Modern</text>
<text text-anchor="start" x="92.5" y="-28.8" font-family="Times New Roman,serif" font-weight="bold" font-size="14.00">English</text>
<text text-anchor="start" x="110.5" y="-14.8" font-family="Times New Roman,serif" font-size="14.00" fill="red">in</text>
</g>
<!-- inME&#45;&gt;in -->
<g id="edge6" class="edge">
<title>inME&#45;&gt;in</title>
<path fill="none" stroke="black" d="M115.5,-208C115.5,-172.88 115.5,-107.35 115.5,-67.2"/>
<polygon fill="black" stroke="black" points="119,-67.09 115.5,-57.09 112,-67.09 119,-67.09"/>
</g>
<!-- into -->
<g id="node8" class="node">
<title>into</title>
<text text-anchor="start" x="8" y="-42.8" font-family="Times New Roman,serif" font-weight="bold" font-size="14.00">Modern</text>
<text text-anchor="start" x="9.5" y="-28.8" font-family="Times New Roman,serif" font-weight="bold" font-size="14.00">English</text>
<text text-anchor="start" x="21.5" y="-14.8" font-family="Times New Roman,serif" font-size="14.00" fill="red">into</text>
</g>
<!-- inntoOE&#45;&gt;into -->
<g id="edge8" class="edge">
<title>inntoOE&#45;&gt;into</title>
<path fill="none" stroke="black" d="M37.37,-115.81C36.57,-102.18 35.47,-83.5 34.52,-67.33"/>
<polygon fill="black" stroke="black" points="38,-66.92 33.92,-57.14 31.01,-67.33 38,-66.92"/>
</g>
<!-- innME -->
<g id="node10" class="node">
<title>innME</title>
<text text-anchor="start" x="176" y="-243.8" font-family="Times New Roman,serif" font-weight="bold" font-size="14.00">Middle</text>
<text text-anchor="start" x="174.5" y="-229.8" font-family="Times New Roman,serif" font-weight="bold" font-size="14.00">English</text>
<text text-anchor="start" x="189" y="-215.8" font-family="Times New Roman,serif" font-size="14.00" fill="red">inn</text>
</g>
<!-- innOE&#45;&gt;innME -->
<g id="edge10" class="edge">
<title>innOE&#45;&gt;innME</title>
<path fill="none" stroke="black" d="M189.16,-306.76C190.48,-295.23 192.11,-281.07 193.57,-268.32"/>
<polygon fill="black" stroke="black" points="197.09,-268.36 194.75,-258.03 190.13,-267.56 197.09,-268.36"/>
</g>
<!-- inn -->
<g id="node11" class="node">
<title>inn</title>
<text text-anchor="start" x="174" y="-42.8" font-family="Times New Roman,serif" font-weight="bold" font-size="14.00">Modern</text>
<text text-anchor="start" x="175.5" y="-28.8" font-family="Times New Roman,serif" font-weight="bold" font-size="14.00">English</text>
<text text-anchor="start" x="190" y="-14.8" font-family="Times New Roman,serif" font-size="14.00" fill="red">inn</text>
</g>
<!-- innME&#45;&gt;inn -->
<g id="edge11" class="edge">
<title>innME&#45;&gt;inn</title>
<path fill="none" stroke="black" d="M197.62,-208C197.8,-172.88 198.13,-107.35 198.33,-67.2"/>
<polygon fill="black" stroke="black" points="201.83,-67.11 198.38,-57.09 194.83,-67.07 201.83,-67.11"/>
</g>
<!-- inneraOE -->
<g id="node13" class="node">
<title>inneraOE</title>
<text text-anchor="start" x="440" y="-438.8" font-family="Times New Roman,serif" font-weight="bold" font-size="14.00">Old English</text>
<text text-anchor="start" x="459.5" y="-424.8" font-family="Times New Roman,serif" font-size="14.00" fill="red">innera</text>
</g>
<!-- inneraGm&#45;&gt;inneraOE -->
<g id="edge13" class="edge">
<title>inneraGm&#45;&gt;inneraOE</title>
<path fill="none" stroke="black" d="M472.54,-501.8C473.21,-490.67 474.09,-475.94 474.86,-463.24"/>
<polygon fill="black" stroke="black" points="478.36,-463.37 475.47,-453.18 471.37,-462.95 478.36,-463.37"/>
</g>
<!-- innerME -->
<g id="node14" class="node">
<title>innerME</title>
<text text-anchor="start" x="455" y="-146.8" font-family="Times New Roman,serif" font-weight="bold" font-size="14.00">Middle</text>
<text text-anchor="start" x="453.5" y="-132.8" font-family="Times New Roman,serif" font-weight="bold" font-size="14.00">English</text>
<text text-anchor="start" x="462.5" y="-118.8" font-family="Times New Roman,serif" font-size="14.00" fill="red">inner</text>
</g>
<!-- inneraOE&#45;&gt;innerME -->
<g id="edge14" class="edge">
<title>inneraOE&#45;&gt;innerME</title>
<path fill="none" stroke="black" d="M476.5,-416.75C476.5,-369.12 476.5,-235.1 476.5,-171.43"/>
<polygon fill="black" stroke="black" points="480,-171.11 476.5,-161.11 473,-171.11 480,-171.11"/>
</g>
<!-- inner -->
<g id="node15" class="node">
<title>inner</title>
<text text-anchor="start" x="452" y="-42.8" font-family="Times New Roman,serif" font-weight="bold" font-size="14.00">Modern</text>
<text text-anchor="start" x="453.5" y="-28.8" font-family="Times New Roman,serif" font-weight="bold" font-size="14.00">English</text>
<text text-anchor="start" x="462.5" y="-14.8" font-family="Times New Roman,serif" font-size="14.00" fill="red">inner</text>
</g>
<!-- innerME&#45;&gt;inner -->
<g id="edge15" class="edge">
<title>innerME&#45;&gt;inner</title>
<path fill="none" stroke="black" d="M476.5,-110.83C476.5,-97.96 476.5,-81.92 476.5,-67.74"/>
<polygon fill="black" stroke="black" points="480,-67.35 476.5,-57.35 473,-67.35 480,-67.35"/>
</g>
<!-- inwardME -->
<g id="node17" class="node">
<title>inwardME</title>
<text text-anchor="start" x="272" y="-153.8" font-family="Times New Roman,serif" font-weight="bold" font-size="14.00">Middle</text>
<text text-anchor="start" x="270.5" y="-139.8" font-family="Times New Roman,serif" font-weight="bold" font-size="14.00">English</text>
<text text-anchor="start" x="274.5" y="-125.8" font-family="Times New Roman,serif" font-size="14.00" fill="red">inward</text>
<text text-anchor="start" x="271.5" y="-111.8" font-family="Times New Roman,serif" font-size="14.00" fill="red">inwards</text>
</g>
<!-- inweardOE&#45;&gt;inwardME -->
<g id="edge17" class="edge">
<title>inweardOE&#45;&gt;inwardME</title>
<path fill="none" stroke="black" d="M293.5,-214.58C293.5,-204.35 293.5,-190.96 293.5,-178.19"/>
<polygon fill="black" stroke="black" points="297,-178.15 293.5,-168.15 290,-178.15 297,-178.15"/>
</g>
<!-- inward -->
<g id="node18" class="node">
<title>inward</title>
<text text-anchor="start" x="269" y="-49.8" font-family="Times New Roman,serif" font-weight="bold" font-size="14.00">Modern</text>
<text text-anchor="start" x="270.5" y="-35.8" font-family="Times New Roman,serif" font-weight="bold" font-size="14.00">English</text>
<text text-anchor="start" x="267" y="-21.8" font-family="Times New Roman,serif" font-size="14.00" fill="red">inward(s)</text>
<text text-anchor="start" x="273" y="-7.8" font-family="Times New Roman,serif" font-size="14.00" fill="red">innards</text>
</g>
<!-- inwardME&#45;&gt;inward -->
<g id="edge18" class="edge">
<title>inwardME&#45;&gt;inward</title>
<path fill="none" stroke="black" d="M293.5,-103.84C293.5,-94.54 293.5,-84.19 293.5,-74.34"/>
<polygon fill="black" stroke="black" points="297,-74.32 293.5,-64.32 290,-74.32 297,-74.32"/>
</g>
<!-- p_inL -->
<g id="node20" class="node">
<title>p_inL</title>
<text text-anchor="start" x="379" y="-431.3" font-family="Times New Roman,serif" font-size="14.00" fill="red">in&#45;</text>
</g>
<!-- inL&#45;&gt;p_inL -->
<g id="edge20" class="edge">
<title>inL&#45;&gt;p_inL</title>
<path fill="none" stroke="black" d="M386.5,-501.8C386.5,-490.67 386.5,-475.94 386.5,-463.24"/>
<polygon fill="black" stroke="black" points="390,-463.18 386.5,-453.18 383,-463.18 390,-463.18"/>
</g>
<!-- p_inOF -->
<g id="node21" class="node">
<title>p_inOF</title>
<text text-anchor="start" x="364.5" y="-341.8" font-family="Times New Roman,serif" font-weight="bold" font-size="14.00">Old French</text>
<text text-anchor="start" x="392" y="-327.8" font-family="Times New Roman,serif" font-size="14.00" fill="red">in&#45;</text>
<text text-anchor="start" x="390.5" y="-313.8" font-family="Times New Roman,serif" font-size="14.00" fill="red">en&#45;</text>
</g>
<!-- p_inL&#45;&gt;p_inOF -->
<g id="edge21" class="edge">
<title>p_inL&#45;&gt;p_inOF</title>
<path fill="none" stroke="black" d="M388.71,-416.7C390.46,-402.95 392.96,-383.3 395.12,-366.38"/>
<polygon fill="black" stroke="black" points="398.61,-366.64 396.41,-356.28 391.67,-365.76 398.61,-366.64"/>
</g>
<!-- p_inOF&#45;&gt;p_inOE -->
<g id="edge23" class="edge">
<title>p_inOF&#45;&gt;p_inOE</title>
<path fill="none" stroke="black" stroke-dasharray="5,2" d="M396.22,-305.78C394.39,-292.23 392.09,-275.31 390.2,-261.3"/>
<polygon fill="black" stroke="black" points="393.65,-260.69 388.84,-251.25 386.71,-261.63 393.65,-260.69"/>
</g>
<!-- p_inME -->
<g id="node23" class="node">
<title>p_inME</title>
<text text-anchor="start" x="365" y="-153.8" font-family="Times New Roman,serif" font-weight="bold" font-size="14.00">Middle</text>
<text text-anchor="start" x="363.5" y="-139.8" font-family="Times New Roman,serif" font-weight="bold" font-size="14.00">English</text>
<text text-anchor="start" x="379" y="-125.8" font-family="Times New Roman,serif" font-size="14.00" fill="red">in&#45;</text>
<text text-anchor="start" x="377.5" y="-111.8" font-family="Times New Roman,serif" font-size="14.00" fill="red">en&#45;</text>
</g>
<!-- p_inOE&#45;&gt;p_inME -->
<g id="edge24" class="edge">
<title>p_inOE&#45;&gt;p_inME</title>
<path fill="none" stroke="black" d="M386.5,-214.58C386.5,-204.35 386.5,-190.96 386.5,-178.19"/>
<polygon fill="black" stroke="black" points="390,-178.15 386.5,-168.15 383,-178.15 390,-178.15"/>
</g>
<!-- p_in -->
<g id="node24" class="node">
<title>p_in</title>
<text text-anchor="start" x="362" y="-49.8" font-family="Times New Roman,serif" font-weight="bold" font-size="14.00">Modern</text>
<text text-anchor="start" x="363.5" y="-35.8" font-family="Times New Roman,serif" font-weight="bold" font-size="14.00">English</text>
<text text-anchor="start" x="379" y="-21.8" font-family="Times New Roman,serif" font-size="14.00" fill="red">in&#45;</text>
<text text-anchor="start" x="377.5" y="-7.8" font-family="Times New Roman,serif" font-size="14.00" fill="red">en&#45;</text>
</g>
<!-- p_inME&#45;&gt;p_in -->
<g id="edge25" class="edge">
<title>p_inME&#45;&gt;p_in</title>
<path fill="none" stroke="black" d="M386.5,-103.84C386.5,-94.54 386.5,-84.19 386.5,-74.34"/>
<polygon fill="black" stroke="black" points="390,-74.32 386.5,-64.32 383,-74.32 390,-74.32"/>
</g>
<!-- p_enG -->
<g id="node26" class="node">
<title>p_enG</title>
<text text-anchor="start" x="549.5" y="-327.3" font-family="Times New Roman,serif" font-size="14.00" fill="red">en&#45;</text>
</g>
<!-- enG&#45;&gt;p_enG -->
<g id="edge27" class="edge">
<title>enG&#45;&gt;p_enG</title>
<path fill="none" stroke="black" d="M556.68,-501.74C557.03,-469.18 557.79,-398.44 558.21,-359.35"/>
<polygon fill="black" stroke="black" points="561.71,-359.25 558.32,-349.22 554.71,-359.18 561.71,-359.25"/>
</g>
<!-- p_enL -->
<g id="node27" class="node">
<title>p_enL</title>
<text text-anchor="start" x="543" y="-236.8" font-family="Times New Roman,serif" font-weight="bold" font-size="14.00">Latin</text>
<text text-anchor="start" x="550.5" y="-222.8" font-family="Times New Roman,serif" font-size="14.00" fill="red">en&#45;</text>
</g>
<!-- p_enG&#45;&gt;p_enL -->
<g id="edge28" class="edge">
<title>p_enG&#45;&gt;p_enL</title>
<path fill="none" stroke="black" stroke-dasharray="5,2" d="M558.68,-312.84C558.83,-298.5 559.04,-277.81 559.22,-261.22"/>
<polygon fill="black" stroke="black" points="562.72,-261.05 559.32,-251.01 555.72,-260.98 562.72,-261.05"/>
</g>
<!-- parentithenai -->
<g id="node34" class="node">
<title>parentithenai</title>
<text text-anchor="start" x="625.5" y="-242.8" font-family="Times New Roman,serif" font-size="14.00" fill="red">parentithenai</text>
<text text-anchor="start" x="642" y="-230.4" font-family="Times New Roman,serif" font-size="12.00">to insert</text>
<text text-anchor="start" x="629" y="-216.8" font-family="Times New Roman,serif" font-size="14.00" fill="red">parenthesis</text>
</g>
<!-- p_enG&#45;&gt;parentithenai -->
<g id="edge33" class="edge">
<title>p_enG&#45;&gt;parentithenai</title>
<path fill="none" stroke="black" d="M575.19,-312.98C581.21,-306.93 588.1,-300.1 594.5,-294 604.96,-284.03 616.57,-273.35 627.1,-263.81"/>
<polygon fill="black" stroke="black" points="629.46,-266.38 634.54,-257.08 624.77,-261.19 629.46,-266.38"/>
</g>
<!-- p_enME -->
<g id="node28" class="node">
<title>p_enME</title>
<text text-anchor="start" x="538" y="-146.8" font-family="Times New Roman,serif" font-weight="bold" font-size="14.00">Middle</text>
<text text-anchor="start" x="536.5" y="-132.8" font-family="Times New Roman,serif" font-weight="bold" font-size="14.00">English</text>
<text text-anchor="start" x="550.5" y="-118.8" font-family="Times New Roman,serif" font-size="14.00" fill="red">en&#45;</text>
</g>
<!-- p_enL&#45;&gt;p_enME -->
<g id="edge29" class="edge">
<title>p_enL&#45;&gt;p_enME</title>
<path fill="none" stroke="black" stroke-dasharray="5,2" d="M559.5,-214.58C559.5,-202.51 559.5,-186.04 559.5,-171.38"/>
<polygon fill="black" stroke="black" points="563,-171.11 559.5,-161.11 556,-171.11 563,-171.11"/>
</g>
<!-- p_en -->
<g id="node29" class="node">
<title>p_en</title>
<text text-anchor="start" x="535" y="-42.8" font-family="Times New Roman,serif" font-weight="bold" font-size="14.00">Modern</text>
<text text-anchor="start" x="536.5" y="-28.8" font-family="Times New Roman,serif" font-weight="bold" font-size="14.00">English</text>
<text text-anchor="start" x="550.5" y="-14.8" font-family="Times New Roman,serif" font-size="14.00" fill="red">en&#45;</text>
</g>
<!-- p_enME&#45;&gt;p_en -->
<g id="edge30" class="edge">
<title>p_enME&#45;&gt;p_en</title>
<path fill="none" stroke="black" d="M559.5,-110.83C559.5,-97.96 559.5,-81.92 559.5,-67.74"/>
<polygon fill="black" stroke="black" points="563,-67.35 559.5,-57.35 556,-67.35 563,-67.35"/>
</g>
<!-- perIE -->
<g id="node30" class="node">
<title>perIE</title>
<g id="a_node30"><a xlink:href="per-prea.svg" xlink:title="&lt;b&gt;Indo&#45;&lt;br/&gt;European&lt;/b&gt;&lt;br/&gt;&lt;font color=&quot;red&quot;&gt;*per&lt;/font&gt;&lt;br/&gt;&lt;font point&#45;size=&quot;12&quot;&gt;(various prepositions)&lt;/font&gt;">
<path fill="none" stroke="black" stroke-dasharray="5,2" d="M702.5,-466C702.5,-466 612.5,-466 612.5,-466 606.5,-466 600.5,-460 600.5,-454 600.5,-454 600.5,-416 600.5,-416 600.5,-410 606.5,-404 612.5,-404 612.5,-404 702.5,-404 702.5,-404 708.5,-404 714.5,-410 714.5,-416 714.5,-416 714.5,-454 714.5,-454 714.5,-460 708.5,-466 702.5,-466"/>
<text text-anchor="start" x="641" y="-451.8" font-family="Times New Roman,serif" font-weight="bold" font-size="14.00">Indo&#45;</text>
<text text-anchor="start" x="627" y="-437.8" font-family="Times New Roman,serif" font-weight="bold" font-size="14.00">European</text>
<text text-anchor="start" x="645" y="-423.8" font-family="Times New Roman,serif" font-size="14.00" fill="red">*per</text>
<text text-anchor="start" x="608.5" y="-411.4" font-family="Times New Roman,serif" font-size="12.00">(various prepositions)</text>
</a>
</g>
</g>
<!-- paraG -->
<g id="node31" class="node">
<title>paraG</title>
<text text-anchor="start" x="640.5" y="-340.8" font-family="Times New Roman,serif" font-weight="bold" font-size="14.00">Greek</text>
<text text-anchor="start" x="646" y="-326.8" font-family="Times New Roman,serif" font-size="14.00" fill="red">para&#45;</text>
<text text-anchor="start" x="611.5" y="-314.4" font-family="Times New Roman,serif" font-size="12.00">beside, beyond, extra</text>
</g>
<!-- perIE&#45;&gt;paraG -->
<g id="edge31" class="edge">
<title>perIE&#45;&gt;paraG</title>
<path fill="none" stroke="black" d="M658.38,-403.95C658.74,-391.74 659.16,-377.58 659.53,-365.08"/>
<polygon fill="black" stroke="black" points="663.03,-365.14 659.82,-355.04 656.03,-364.93 663.03,-365.14"/>
</g>
<!-- paraG&#45;&gt;parentithenai -->
<g id="edge34" class="edge">
<title>paraG&#45;&gt;parentithenai</title>
<path fill="none" stroke="black" d="M660.5,-306.76C660.5,-294.85 660.5,-280.14 660.5,-267.07"/>
<polygon fill="black" stroke="black" points="664,-267.02 660.5,-257.02 657,-267.02 664,-267.02"/>
</g>
<!-- dheIE -->
<g id="node32" class="node">
<title>dheIE</title>
<g id="a_node32"><a xlink:href="dhe-put.svg" xlink:title="&lt;b&gt;Indo&#45;&lt;br/&gt;European&lt;/b&gt;&lt;br/&gt;&lt;font color=&quot;red&quot;&gt;*dhē&#45;&lt;/font&gt;&lt;br/&gt;&lt;font point&#45;size=&quot;12&quot;&gt;to put&lt;/font&gt;">
<path fill="none" stroke="black" stroke-dasharray="5,2" d="M798,-466C798,-466 745,-466 745,-466 739,-466 733,-460 733,-454 733,-454 733,-416 733,-416 733,-410 739,-404 745,-404 745,-404 798,-404 798,-404 804,-404 810,-410 810,-416 810,-416 810,-454 810,-454 810,-460 804,-466 798,-466"/>
<text text-anchor="start" x="755" y="-451.8" font-family="Times New Roman,serif" font-weight="bold" font-size="14.00">Indo&#45;</text>
<text text-anchor="start" x="741" y="-437.8" font-family="Times New Roman,serif" font-weight="bold" font-size="14.00">European</text>
<text text-anchor="start" x="755.5" y="-423.8" font-family="Times New Roman,serif" font-size="14.00" fill="red">*dhē&#45;</text>
<text text-anchor="start" x="758" y="-411.4" font-family="Times New Roman,serif" font-size="12.00">to put</text>
</a>
</g>
</g>
<!-- tithenai -->
<g id="node33" class="node">
<title>tithenai</title>
<text text-anchor="start" x="748.5" y="-334.8" font-family="Times New Roman,serif" font-weight="bold" font-size="14.00">Greek</text>
<text text-anchor="start" x="748.5" y="-320.8" font-family="Times New Roman,serif" font-size="14.00" fill="red">tithenai</text>
</g>
<!-- dheIE&#45;&gt;tithenai -->
<g id="edge32" class="edge">
<title>dheIE&#45;&gt;tithenai</title>
<path fill="none" stroke="black" d="M770.62,-403.95C770.2,-389.85 769.71,-373.17 769.31,-359.42"/>
<polygon fill="black" stroke="black" points="772.8,-359.02 769,-349.13 765.8,-359.23 772.8,-359.02"/>
</g>
<!-- tithenai&#45;&gt;parentithenai -->
<g id="edge35" class="edge">
<title>tithenai&#45;&gt;parentithenai</title>
<path fill="none" stroke="black" d="M749.19,-312.84C733.9,-299.25 712.18,-279.94 694.06,-263.83"/>
<polygon fill="black" stroke="black" points="696.34,-261.17 686.54,-257.15 691.69,-266.41 696.34,-261.17"/>
</g>
<!-- parenthesisL -->
<g id="node35" class="node">
<title>parenthesisL</title>
<text text-anchor="start" x="644" y="-157.8" font-family="Times New Roman,serif" font-weight="bold" font-size="14.00">Latin</text>
<text text-anchor="start" x="629" y="-143.8" font-family="Times New Roman,serif" font-size="14.00" fill="red">parenthesis</text>
<text text-anchor="start" x="631.5" y="-131.4" font-family="Times New Roman,serif" font-size="12.00">insertion of a</text>
<text text-anchor="start" x="624.5" y="-119.4" font-family="Times New Roman,serif" font-size="12.00">letter or syllable</text>
<text text-anchor="start" x="639" y="-107.4" font-family="Times New Roman,serif" font-size="12.00">in a word</text>
</g>
<!-- parentithenai&#45;&gt;parenthesisL -->
<g id="edge36" class="edge">
<title>parentithenai&#45;&gt;parenthesisL</title>
<path fill="none" stroke="black" stroke-dasharray="5,2" d="M660.5,-208.52C660.5,-200.53 660.5,-191.32 660.5,-182.22"/>
<polygon fill="black" stroke="black" points="664,-182.06 660.5,-172.06 657,-182.06 664,-182.06"/>
</g>
<!-- parenthesis -->
<g id="node36" class="node">
<title>parenthesis</title>
<text text-anchor="start" x="636" y="-49.8" font-family="Times New Roman,serif" font-weight="bold" font-size="14.00">Modern</text>
<text text-anchor="start" x="637.5" y="-35.8" font-family="Times New Roman,serif" font-weight="bold" font-size="14.00">English</text>
<text text-anchor="start" x="629" y="-21.8" font-family="Times New Roman,serif" font-size="14.00" fill="red">parenthesis</text>
<text text-anchor="start" x="627.5" y="-7.8" font-family="Times New Roman,serif" font-size="14.00" fill="red">parentheses</text>
</g>
<!-- parenthesisL&#45;&gt;parenthesis -->
<g id="edge37" class="edge">
<title>parenthesisL&#45;&gt;parenthesis</title>
<path fill="none" stroke="black" stroke-dasharray="5,2" d="M660.5,-99.9C660.5,-91.62 660.5,-82.73 660.5,-74.21"/>
<polygon fill="black" stroke="black" points="664,-74.07 660.5,-64.07 657,-74.07 664,-74.07"/>
</g>
</g>
</svg>
