<?xml version="1.0" encoding="UTF-8" standalone="no"?>
<!DOCTYPE svg PUBLIC "-//W3C//DTD SVG 1.1//EN"
 "http://www.w3.org/Graphics/SVG/1.1/DTD/svg11.dtd">
<!-- Generated by graphviz version 2.49.0 (20210828.1703)
 -->
<!-- Pages: 1 -->
<svg width="342pt" height="224pt"
 viewBox="0.00 0.00 342.00 224.00" xmlns="http://www.w3.org/2000/svg" xmlns:xlink="http://www.w3.org/1999/xlink">
<g id="graph0" class="graph" transform="scale(1 1) rotate(0) translate(4 220)">
<polygon fill="white" stroke="transparent" points="-4,4 -4,-220 338,-220 338,4 -4,4"/>
<!-- enIE -->
<g id="node1" class="node">
<title>enIE</title>
<g id="a_node1"><a xlink:title="Indo&#45;European &quot;en&quot; in">
<polygon fill="none" stroke="black" points="274.5,-212 78.5,-212 78.5,-108 274.5,-108 274.5,-212"/>
<polygon fill="none" stroke="black" points="278.5,-216 74.5,-216 74.5,-104 278.5,-104 278.5,-216"/>
<text text-anchor="start" x="105.5" y="-166.8" font-family="Times New Roman,serif" font-size="24.00">Indo&#45;European</text>
<text text-anchor="start" x="131" y="-139.6" font-family="Times New Roman,serif" font-size="18.00" fill="red">en</text>
<text text-anchor="start" x="208.5" y="-140.2" font-family="Times New Roman,serif" font-size="16.00">in</text>
</a>
</g>
</g>
<!-- en1 -->
<g id="node2" class="node">
<title>en1</title>
<g id="a_node2"><a xlink:href="en-in1.svg" xlink:title="basic form">
<path fill="none" stroke="black" stroke-dasharray="5,2" d="M65,-52C65,-52 12,-52 12,-52 6,-52 0,-46 0,-40 0,-40 0,-28 0,-28 0,-22 6,-16 12,-16 12,-16 65,-16 65,-16 71,-16 77,-22 77,-28 77,-28 77,-40 77,-40 77,-46 71,-52 65,-52"/>
<text text-anchor="start" x="8" y="-30.3" font-family="Times New Roman,serif" font-size="14.00">basic form</text>
</a>
</g>
</g>
<!-- enIE&#45;&gt;en1 -->
<g id="edge1" class="edge">
<title>enIE&#45;&gt;en1</title>
<path fill="none" stroke="black" d="M115.17,-103.89C97.55,-88.06 79.26,-71.63 64.97,-58.78"/>
<polygon fill="black" stroke="black" points="67.25,-56.12 57.47,-52.04 62.57,-61.33 67.25,-56.12"/>
</g>
<!-- en2 -->
<g id="node3" class="node">
<title>en2</title>
<g id="a_node3"><a xlink:href="en-in2.svg" xlink:title="&lt;font color=&quot;red&quot;&gt;*en&#45;t(e)ro&#45;&lt;/font&gt;">
<path fill="none" stroke="black" stroke-dasharray="5,2" d="M159.5,-52C159.5,-52 107.5,-52 107.5,-52 101.5,-52 95.5,-46 95.5,-40 95.5,-40 95.5,-28 95.5,-28 95.5,-22 101.5,-16 107.5,-16 107.5,-16 159.5,-16 159.5,-16 165.5,-16 171.5,-22 171.5,-28 171.5,-28 171.5,-40 171.5,-40 171.5,-46 165.5,-52 159.5,-52"/>
<text text-anchor="start" x="103.5" y="-30.3" font-family="Times New Roman,serif" font-size="14.00" fill="red">*en&#45;t(e)ro&#45;</text>
</a>
</g>
</g>
<!-- enIE&#45;&gt;en2 -->
<g id="edge2" class="edge">
<title>enIE&#45;&gt;en2</title>
<path fill="none" stroke="black" d="M157.39,-103.89C152.31,-89.24 147.05,-74.06 142.76,-61.7"/>
<polygon fill="black" stroke="black" points="145.99,-60.34 139.41,-52.04 139.38,-62.64 145.99,-60.34"/>
</g>
<!-- en3 -->
<g id="node4" class="node">
<title>en3</title>
<g id="a_node4"><a xlink:href="en-in3.svg" xlink:title="&lt;font color=&quot;red&quot;&gt;*en&#45;ter&lt;br/&gt;*en&#45;mo&lt;br/&gt;*en&#45;do&lt;/font&gt;">
<path fill="none" stroke="black" stroke-dasharray="5,2" d="M237,-60.5C237,-60.5 202,-60.5 202,-60.5 196,-60.5 190,-54.5 190,-48.5 190,-48.5 190,-19.5 190,-19.5 190,-13.5 196,-7.5 202,-7.5 202,-7.5 237,-7.5 237,-7.5 243,-7.5 249,-13.5 249,-19.5 249,-19.5 249,-48.5 249,-48.5 249,-54.5 243,-60.5 237,-60.5"/>
<text text-anchor="start" x="200" y="-45.3" font-family="Times New Roman,serif" font-size="14.00" fill="red">*en&#45;ter</text>
<text text-anchor="start" x="198" y="-30.3" font-family="Times New Roman,serif" font-size="14.00" fill="red">*en&#45;mo</text>
<text text-anchor="start" x="199.5" y="-15.3" font-family="Times New Roman,serif" font-size="14.00" fill="red">*en&#45;do</text>
</a>
</g>
</g>
<!-- enIE&#45;&gt;en3 -->
<g id="edge3" class="edge">
<title>enIE&#45;&gt;en3</title>
<path fill="none" stroke="black" d="M195.61,-103.89C199.55,-92.52 203.61,-80.83 207.23,-70.39"/>
<polygon fill="black" stroke="black" points="210.58,-71.41 210.55,-60.81 203.97,-69.11 210.58,-71.41"/>
</g>
<!-- en4 -->
<g id="node5" class="node">
<title>en4</title>
<g id="a_node5"><a xlink:href="en-in4.svg" xlink:title="&lt;font color=&quot;red&quot;&gt;*en&#45;tos&lt;br/&gt;*en&#45;tero&#45;&lt;br/&gt;*ens&lt;br/&gt;n̥&#45;dha&lt;/font&gt;">
<path fill="none" stroke="black" stroke-dasharray="5,2" d="M322,-68C322,-68 279,-68 279,-68 273,-68 267,-62 267,-56 267,-56 267,-12 267,-12 267,-6 273,0 279,0 279,0 322,0 322,0 328,0 334,-6 334,-12 334,-12 334,-56 334,-56 334,-62 328,-68 322,-68"/>
<text text-anchor="start" x="279.5" y="-52.8" font-family="Times New Roman,serif" font-size="14.00" fill="red">*en&#45;tos</text>
<text text-anchor="start" x="275" y="-37.8" font-family="Times New Roman,serif" font-size="14.00" fill="red">*en&#45;tero&#45;</text>
<text text-anchor="start" x="287.5" y="-22.8" font-family="Times New Roman,serif" font-size="14.00" fill="red">*ens</text>
<text text-anchor="start" x="284.5" y="-7.8" font-family="Times New Roman,serif" font-size="14.00" fill="red">n̥&#45;dha</text>
</a>
</g>
</g>
<!-- enIE&#45;&gt;en4 -->
<g id="edge4" class="edge">
<title>enIE&#45;&gt;en4</title>
<path fill="none" stroke="black" d="M231.61,-103.89C241.21,-94.29 251.02,-84.48 260.13,-75.37"/>
<polygon fill="black" stroke="black" points="262.67,-77.78 267.26,-68.24 257.72,-72.83 262.67,-77.78"/>
</g>
</g>
</svg>
