<?xml version="1.0" encoding="UTF-8" standalone="no"?>
<!DOCTYPE svg PUBLIC "-//W3C//DTD SVG 1.1//EN"
 "http://www.w3.org/Graphics/SVG/1.1/DTD/svg11.dtd">
<!-- Generated by graphviz version 2.49.0 (20210828.1703)
 -->
<!-- Pages: 1 -->
<svg width="1033pt" height="869pt"
 viewBox="0.00 0.00 1032.50 869.00" xmlns="http://www.w3.org/2000/svg" xmlns:xlink="http://www.w3.org/1999/xlink">
<g id="graph0" class="graph" transform="scale(1 1) rotate(0) translate(4 865)">
<polygon fill="white" stroke="transparent" points="-4,4 -4,-865 1028.5,-865 1028.5,4 -4,4"/>
<!-- enIE -->
<g id="node1" class="node">
<title>enIE</title>
<g id="a_node1"><a xlink:href="en-in0.svg" xlink:title="Indo&#45;European &quot;en&quot; in">
<path fill="none" stroke="black" stroke-dasharray="5,2" d="M703.5,-861C703.5,-861 554.5,-861 554.5,-861 548.5,-861 542.5,-855 542.5,-849 542.5,-849 542.5,-823 542.5,-823 542.5,-817 548.5,-811 554.5,-811 554.5,-811 703.5,-811 703.5,-811 709.5,-811 715.5,-817 715.5,-823 715.5,-823 715.5,-849 715.5,-849 715.5,-855 709.5,-861 703.5,-861"/>
<text text-anchor="start" x="550.5" y="-838.8" font-family="Times New Roman,serif" font-weight="bold" font-size="24.00">Indo&#45;European</text>
<text text-anchor="start" x="607" y="-819.6" font-family="Times New Roman,serif" font-size="18.00" fill="red">*en </text>
<text text-anchor="start" x="638" y="-819.6" font-family="Times New Roman,serif" font-size="16.00">in</text>
</a>
</g>
</g>
<!-- entosIE -->
<g id="node2" class="node">
<title>entosIE</title>
<text text-anchor="start" x="76" y="-725.3" font-family="Times New Roman,serif" font-size="14.00" fill="red">*en&#45;tos</text>
</g>
<!-- enIE&#45;&gt;entosIE -->
<g id="edge1" class="edge">
<title>enIE&#45;&gt;entosIE</title>
<path fill="none" stroke="black" d="M542.31,-835.1C440.68,-832.27 269.08,-818.19 135,-760 130.81,-758.18 126.69,-755.78 122.79,-753.13"/>
<polygon fill="black" stroke="black" points="124.79,-750.25 114.69,-747.06 120.59,-755.86 124.79,-750.25"/>
</g>
<!-- enteroIE -->
<g id="node3" class="node">
<title>enteroIE</title>
<text text-anchor="start" x="578.5" y="-725.3" font-family="Times New Roman,serif" font-size="14.00" fill="red">*en&#45;tero&#45;</text>
</g>
<!-- enIE&#45;&gt;enteroIE -->
<g id="edge2" class="edge">
<title>enIE&#45;&gt;enteroIE</title>
<path fill="none" stroke="black" d="M623.26,-810.91C619.46,-794.92 614.45,-773.89 610.5,-757.28"/>
<polygon fill="black" stroke="black" points="613.79,-756.02 608.07,-747.1 606.98,-757.64 613.79,-756.02"/>
</g>
<!-- ensIE -->
<g id="node4" class="node">
<title>ensIE</title>
<text text-anchor="start" x="670" y="-725.3" font-family="Times New Roman,serif" font-size="14.00" fill="red">*ens</text>
</g>
<!-- enIE&#45;&gt;ensIE -->
<g id="edge3" class="edge">
<title>enIE&#45;&gt;ensIE</title>
<path fill="none" stroke="black" d="M641.39,-810.91C649.77,-794.61 660.84,-773.09 669.45,-756.34"/>
<polygon fill="black" stroke="black" points="672.74,-757.6 674.2,-747.1 666.52,-754.39 672.74,-757.6"/>
</g>
<!-- ndhaIE -->
<g id="node53" class="node">
<title>ndhaIE</title>
<text text-anchor="start" x="924" y="-725.3" font-family="Times New Roman,serif" font-size="14.00" fill="red">n̥&#45;dha</text>
</g>
<!-- enIE&#45;&gt;ndhaIE -->
<g id="edge52" class="edge">
<title>enIE&#45;&gt;ndhaIE</title>
<path fill="none" stroke="black" d="M708.85,-810.97C754.53,-796.86 812.77,-778.26 864,-760 876.86,-755.41 890.8,-750.04 903.18,-745.11"/>
<polygon fill="black" stroke="black" points="904.75,-748.25 912.73,-741.28 902.14,-741.75 904.75,-748.25"/>
<text text-anchor="middle" x="810.5" y="-781.8" font-family="Times New Roman,serif" font-size="14.00">?</text>
<polyline fill="none" stroke="black" points="814,-778 807,-778 808.22,-779.18 "/>
</g>
<!-- intusL -->
<g id="node6" class="node">
<title>intusL</title>
<text text-anchor="start" x="28.5" y="-633.8" font-family="Times New Roman,serif" font-weight="bold" font-size="14.00">Latin</text>
<text text-anchor="start" x="31.5" y="-619.8" font-family="Times New Roman,serif" font-size="14.00" fill="red">intus</text>
</g>
<!-- entosIE&#45;&gt;intusL -->
<g id="edge5" class="edge">
<title>entosIE&#45;&gt;intusL</title>
<path fill="none" stroke="black" d="M87.7,-710.66C79.72,-695.76 68.09,-674.06 58.98,-657.07"/>
<polygon fill="black" stroke="black" points="62.03,-655.35 54.22,-648.19 55.86,-658.66 62.03,-655.35"/>
</g>
<!-- entosG -->
<g id="node12" class="node">
<title>entosG</title>
<text text-anchor="start" x="99" y="-633.8" font-family="Times New Roman,serif" font-weight="bold" font-size="14.00">Greek</text>
<text text-anchor="start" x="103.5" y="-619.8" font-family="Times New Roman,serif" font-size="14.00" fill="red">entos</text>
</g>
<!-- entosIE&#45;&gt;entosG -->
<g id="edge11" class="edge">
<title>entosIE&#45;&gt;entosG</title>
<path fill="none" stroke="black" d="M100.93,-710.66C104.25,-696.04 109.05,-674.86 112.87,-658.02"/>
<polygon fill="black" stroke="black" points="116.3,-658.72 115.1,-648.19 109.48,-657.17 116.3,-658.72"/>
</g>
<!-- enteronG -->
<g id="node15" class="node">
<title>enteronG</title>
<text text-anchor="start" x="498" y="-639.8" font-family="Times New Roman,serif" font-weight="bold" font-size="14.00">Greek</text>
<text text-anchor="start" x="497" y="-625.8" font-family="Times New Roman,serif" font-size="14.00" fill="red">enteron</text>
<text text-anchor="start" x="499.5" y="-613.4" font-family="Times New Roman,serif" font-size="12.00">intestine</text>
</g>
<!-- enteroIE&#45;&gt;enteronG -->
<g id="edge14" class="edge">
<title>enteroIE&#45;&gt;enteronG</title>
<path fill="none" stroke="black" d="M588.62,-710.66C576.58,-697.08 559.53,-677.84 545.2,-661.68"/>
<polygon fill="black" stroke="black" points="547.67,-659.19 538.42,-654.03 542.43,-663.83 547.67,-659.19"/>
</g>
<!-- antaraS -->
<g id="node36" class="node">
<title>antaraS</title>
<text text-anchor="start" x="578" y="-646.8" font-family="Times New Roman,serif" font-weight="bold" font-size="14.00">Sanskrit</text>
<text text-anchor="start" x="585" y="-632.8" font-family="Times New Roman,serif" font-size="14.00" fill="red">antara&#45;</text>
<text text-anchor="start" x="585.5" y="-618.8" font-family="Times New Roman,serif" font-size="14.00" fill="red">antala&#45;</text>
<text text-anchor="start" x="588" y="-606.4" font-family="Times New Roman,serif" font-size="12.00">interior</text>
</g>
<!-- enteroIE&#45;&gt;antaraS -->
<g id="edge35" class="edge">
<title>enteroIE&#45;&gt;antaraS</title>
<path fill="none" stroke="black" d="M604,-710.66C604,-699.72 604,-685.1 604,-671.38"/>
<polygon fill="black" stroke="black" points="607.5,-671.14 604,-661.14 600.5,-671.14 607.5,-671.14"/>
</g>
<!-- ensoIE -->
<g id="node5" class="node">
<title>ensoIE</title>
<text text-anchor="start" x="664" y="-626.3" font-family="Times New Roman,serif" font-size="14.00" fill="red">*ens&#45;ō</text>
</g>
<!-- ensIE&#45;&gt;ensoIE -->
<g id="edge4" class="edge">
<title>ensIE&#45;&gt;ensoIE</title>
<path fill="none" stroke="black" d="M683,-710.66C683,-696.18 683,-675.26 683,-658.5"/>
<polygon fill="black" stroke="black" points="686.5,-658.19 683,-648.19 679.5,-658.19 686.5,-658.19"/>
</g>
<!-- eisG -->
<g id="node40" class="node">
<title>eisG</title>
<text text-anchor="start" x="736" y="-639.8" font-family="Times New Roman,serif" font-weight="bold" font-size="14.00">Greek</text>
<text text-anchor="start" x="748" y="-625.8" font-family="Times New Roman,serif" font-size="14.00" fill="red">eis</text>
<text text-anchor="start" x="747.5" y="-613.4" font-family="Times New Roman,serif" font-size="12.00">into</text>
</g>
<!-- ensIE&#45;&gt;eisG -->
<g id="edge39" class="edge">
<title>ensIE&#45;&gt;eisG</title>
<path fill="none" stroke="black" d="M696.05,-710.66C706.18,-697.2 720.48,-678.19 732.58,-662.12"/>
<polygon fill="black" stroke="black" points="735.45,-664.12 738.67,-654.03 729.86,-659.91 735.45,-664.12"/>
</g>
<!-- esoG -->
<g id="node49" class="node">
<title>esoG</title>
<text text-anchor="start" x="723" y="-500.8" font-family="Times New Roman,serif" font-weight="bold" font-size="14.00">Greek</text>
<text text-anchor="start" x="733" y="-486.8" font-family="Times New Roman,serif" font-size="14.00" fill="red">esō</text>
<text text-anchor="start" x="729.5" y="-474.4" font-family="Times New Roman,serif" font-size="12.00">within</text>
</g>
<!-- ensoIE&#45;&gt;esoG -->
<g id="edge48" class="edge">
<title>ensoIE&#45;&gt;esoG</title>
<path fill="none" stroke="black" d="M690.48,-611.93C700.03,-590.11 716.77,-551.89 728.78,-524.46"/>
<polygon fill="black" stroke="black" points="732.01,-525.82 732.82,-515.25 725.6,-523.01 732.01,-525.82"/>
</g>
<!-- intestinusL -->
<g id="node7" class="node">
<title>intestinusL</title>
<text text-anchor="start" x="18" y="-493.8" font-family="Times New Roman,serif" font-size="14.00" fill="red">intestīnus</text>
<text text-anchor="start" x="28.5" y="-481.4" font-family="Times New Roman,serif" font-size="12.00">internal</text>
</g>
<!-- intusL&#45;&gt;intestinusL -->
<g id="edge6" class="edge">
<title>intusL&#45;&gt;intestinusL</title>
<path fill="none" stroke="black" d="M45,-611.93C45,-588.75 45,-547.06 45,-519.46"/>
<polygon fill="black" stroke="black" points="48.5,-519.29 45,-509.29 41.5,-519.29 48.5,-519.29"/>
</g>
<!-- intestinaL -->
<g id="node8" class="node">
<title>intestinaL</title>
<text text-anchor="start" x="21.5" y="-379.8" font-family="Times New Roman,serif" font-size="14.00" fill="red">intestīna</text>
<text text-anchor="start" x="24.5" y="-367.4" font-family="Times New Roman,serif" font-size="12.00">intestines</text>
</g>
<!-- intestinusL&#45;&gt;intestinaL -->
<g id="edge7" class="edge">
<title>intestinusL&#45;&gt;intestinaL</title>
<path fill="none" stroke="black" d="M45,-472.99C45,-455.06 45,-426.56 45,-405.44"/>
<polygon fill="black" stroke="black" points="48.5,-405.17 45,-395.17 41.5,-405.17 48.5,-405.17"/>
</g>
<!-- intestinOF -->
<g id="node9" class="node">
<title>intestinOF</title>
<text text-anchor="start" x="8" y="-265.8" font-family="Times New Roman,serif" font-weight="bold" font-size="14.00">Old French</text>
<text text-anchor="start" x="23" y="-251.8" font-family="Times New Roman,serif" font-size="14.00" fill="red">intestin</text>
</g>
<!-- intestinaL&#45;&gt;intestinOF -->
<g id="edge8" class="edge">
<title>intestinaL&#45;&gt;intestinOF</title>
<path fill="none" stroke="black" d="M44.7,-358.84C44.37,-340.67 43.86,-311.72 43.48,-290.39"/>
<polygon fill="black" stroke="black" points="46.98,-290.26 43.31,-280.32 39.98,-290.38 46.98,-290.26"/>
</g>
<!-- intestineME -->
<g id="node10" class="node">
<title>intestineME</title>
<text text-anchor="start" x="14.5" y="-136.8" font-family="Times New Roman,serif" font-weight="bold" font-size="14.00">Middle</text>
<text text-anchor="start" x="13" y="-122.8" font-family="Times New Roman,serif" font-weight="bold" font-size="14.00">English</text>
<text text-anchor="start" x="13" y="-108.8" font-family="Times New Roman,serif" font-size="14.00" fill="red">intestine</text>
</g>
<!-- intestinOF&#45;&gt;intestineME -->
<g id="edge9" class="edge">
<title>intestinOF&#45;&gt;intestineME</title>
<path fill="none" stroke="black" stroke-dasharray="5,2" d="M42.1,-243.76C41.02,-223.13 39.19,-188.09 37.82,-161.77"/>
<polygon fill="black" stroke="black" points="41.29,-161.25 37.28,-151.44 34.3,-161.61 41.29,-161.25"/>
</g>
<!-- intestine -->
<g id="node11" class="node">
<title>intestine</title>
<text text-anchor="start" x="11.5" y="-42.8" font-family="Times New Roman,serif" font-weight="bold" font-size="14.00">Modern</text>
<text text-anchor="start" x="13" y="-28.8" font-family="Times New Roman,serif" font-weight="bold" font-size="14.00">English</text>
<text text-anchor="start" x="13" y="-14.8" font-family="Times New Roman,serif" font-size="14.00" fill="red">intestine</text>
</g>
<!-- intestineME&#45;&gt;intestine -->
<g id="edge10" class="edge">
<title>intestineME&#45;&gt;intestine</title>
<path fill="none" stroke="black" d="M36,-100.83C36,-90.58 36,-78.45 36,-67.3"/>
<polygon fill="black" stroke="black" points="39.5,-67.01 36,-57.01 32.5,-67.01 39.5,-67.01"/>
</g>
<!-- entoNL -->
<g id="node13" class="node">
<title>entoNL</title>
<text text-anchor="start" x="87" y="-326.8" font-family="Times New Roman,serif" font-weight="bold" font-size="14.00">New Latin</text>
<text text-anchor="start" x="104.5" y="-312.8" font-family="Times New Roman,serif" font-size="14.00" fill="red">ento&#45;</text>
</g>
<!-- entosG&#45;&gt;entoNL -->
<g id="edge12" class="edge">
<title>entosG&#45;&gt;entoNL</title>
<path fill="none" stroke="black" stroke-dasharray="5,2" d="M119,-611.73C119,-561.09 119,-412.68 119,-351.18"/>
<polygon fill="black" stroke="black" points="122.5,-351.08 119,-341.08 115.5,-351.08 122.5,-351.08"/>
</g>
<!-- ento -->
<g id="node14" class="node">
<title>ento</title>
<text text-anchor="start" x="94.5" y="-49.8" font-family="Times New Roman,serif" font-weight="bold" font-size="14.00">Modern</text>
<text text-anchor="start" x="96" y="-35.8" font-family="Times New Roman,serif" font-weight="bold" font-size="14.00">English</text>
<text text-anchor="start" x="104.5" y="-21.8" font-family="Times New Roman,serif" font-size="14.00" fill="red">ento&#45;</text>
<text text-anchor="start" x="108" y="-7.8" font-family="Times New Roman,serif" font-size="14.00" fill="red">ent&#45;</text>
</g>
<!-- entoNL&#45;&gt;ento -->
<g id="edge13" class="edge">
<title>entoNL&#45;&gt;ento</title>
<path fill="none" stroke="black" stroke-dasharray="5,2" d="M119,-304.79C119,-260.01 119,-138.91 119,-74.54"/>
<polygon fill="black" stroke="black" points="122.5,-74.34 119,-64.34 115.5,-74.34 122.5,-74.34"/>
</g>
<!-- enteroNL -->
<g id="node16" class="node">
<title>enteroNL</title>
<text text-anchor="start" x="570" y="-434.8" font-family="Times New Roman,serif" font-weight="bold" font-size="14.00">New Latin</text>
<text text-anchor="start" x="582" y="-420.8" font-family="Times New Roman,serif" font-size="14.00" fill="red">entero&#45;</text>
</g>
<!-- enteronG&#45;&gt;enteroNL -->
<g id="edge15" class="edge">
<title>enteronG&#45;&gt;enteroNL</title>
<path fill="none" stroke="black" stroke-dasharray="5,2" d="M535.79,-605.86C541.14,-598.22 546.73,-589.49 551,-581 571.44,-540.36 586.85,-489.61 595.14,-459.05"/>
<polygon fill="black" stroke="black" points="598.59,-459.7 597.77,-449.14 591.82,-457.91 598.59,-459.7"/>
</g>
<!-- enteron -->
<g id="node18" class="node">
<title>enteron</title>
<text text-anchor="start" x="503.5" y="-42.8" font-family="Times New Roman,serif" font-weight="bold" font-size="14.00">Modern</text>
<text text-anchor="start" x="505" y="-28.8" font-family="Times New Roman,serif" font-weight="bold" font-size="14.00">English</text>
<text text-anchor="start" x="507" y="-14.8" font-family="Times New Roman,serif" font-size="14.00" fill="red">enteron</text>
</g>
<!-- enteronG&#45;&gt;enteron -->
<g id="edge17" class="edge">
<title>enteronG&#45;&gt;enteron</title>
<path fill="none" stroke="black" stroke-dasharray="5,2" d="M523.19,-605.86C528.82,-578.74 537,-532.34 537,-492 537,-492 537,-492 537,-125 537,-105.86 535.05,-84.59 532.96,-67.33"/>
<polygon fill="black" stroke="black" points="536.4,-66.63 531.66,-57.15 529.46,-67.51 536.4,-66.63"/>
</g>
<!-- dusenteriaG -->
<g id="node20" class="node">
<title>dusenteriaG</title>
<text text-anchor="start" x="291.5" y="-487.3" font-family="Times New Roman,serif" font-size="14.00" fill="red">dusenteriā</text>
</g>
<!-- enteronG&#45;&gt;dusenteriaG -->
<g id="edge18" class="edge">
<title>enteronG&#45;&gt;dusenteriaG</title>
<path fill="none" stroke="black" d="M491.11,-605.94C466.8,-585.61 429.63,-555.77 395,-533 384.83,-526.31 373.47,-519.7 362.74,-513.8"/>
<polygon fill="black" stroke="black" points="364.37,-510.71 353.91,-509.03 361.04,-516.87 364.37,-510.71"/>
</g>
<!-- exenterareL -->
<g id="node27" class="node">
<title>exenterareL</title>
<text text-anchor="start" x="425.5" y="-500.8" font-family="Times New Roman,serif" font-weight="bold" font-size="14.00">Latin</text>
<text text-anchor="start" x="383" y="-486.8" font-family="Times New Roman,serif" font-size="14.00" fill="red">exenterāre, exenterāt&#45;</text>
<text text-anchor="start" x="408.5" y="-474.4" font-family="Times New Roman,serif" font-size="12.00">to disembowel</text>
</g>
<!-- enteronG&#45;&gt;exenterareL -->
<g id="edge26" class="edge">
<title>enteronG&#45;&gt;exenterareL</title>
<path fill="none" stroke="black" stroke-dasharray="5,2" d="M515.39,-605.69C512.22,-585.19 505.39,-555.24 491,-533 488.56,-529.23 485.67,-525.63 482.53,-522.24"/>
<polygon fill="black" stroke="black" points="484.92,-519.67 475.33,-515.15 480.01,-524.66 484.92,-519.67"/>
</g>
<!-- enterionG -->
<g id="node31" class="node">
<title>enterionG</title>
<text text-anchor="start" x="208.5" y="-493.8" font-family="Times New Roman,serif" font-size="14.00" fill="red">enterion</text>
<text text-anchor="start" x="204.5" y="-481.4" font-family="Times New Roman,serif" font-size="12.00">(diminutive)</text>
</g>
<!-- enteronG&#45;&gt;enterionG -->
<g id="edge29" class="edge">
<title>enteronG&#45;&gt;enterionG</title>
<path fill="none" stroke="black" d="M490.1,-605.78C486.19,-603.23 482.11,-600.88 478,-599 443.67,-583.32 430.39,-594.13 395,-581 347.95,-563.54 297.78,-534.61 265.5,-514.5"/>
<polygon fill="black" stroke="black" points="267.21,-511.44 256.89,-509.07 263.48,-517.36 267.21,-511.44"/>
</g>
<!-- entero -->
<g id="node17" class="node">
<title>entero</title>
<text text-anchor="start" x="586.5" y="-49.8" font-family="Times New Roman,serif" font-weight="bold" font-size="14.00">Modern</text>
<text text-anchor="start" x="588" y="-35.8" font-family="Times New Roman,serif" font-weight="bold" font-size="14.00">English</text>
<text text-anchor="start" x="591" y="-21.8" font-family="Times New Roman,serif" font-size="14.00" fill="red">entero&#45;</text>
<text text-anchor="start" x="595" y="-7.8" font-family="Times New Roman,serif" font-size="14.00" fill="red">enter&#45;</text>
</g>
<!-- enteroNL&#45;&gt;entero -->
<g id="edge16" class="edge">
<title>enteroNL&#45;&gt;entero</title>
<path fill="none" stroke="black" stroke-dasharray="5,2" d="M604.36,-412.78C607.03,-391.84 611,-355.4 611,-324 611,-324 611,-324 611,-125 611,-108.36 611,-90.03 611,-74.14"/>
<polygon fill="black" stroke="black" points="614.5,-74.09 611,-64.09 607.5,-74.09 614.5,-74.09"/>
</g>
<!-- dusG -->
<g id="node19" class="node">
<title>dusG</title>
<text text-anchor="start" x="300" y="-639.8" font-family="Times New Roman,serif" font-weight="bold" font-size="14.00">Greek</text>
<text text-anchor="start" x="307.5" y="-625.8" font-family="Times New Roman,serif" font-size="14.00" fill="red">dus&#45;</text>
<text text-anchor="start" x="287" y="-613.4" font-family="Times New Roman,serif" font-size="12.00">bad, abnormal</text>
</g>
<!-- dusG&#45;&gt;dusenteriaG -->
<g id="edge19" class="edge">
<title>dusG&#45;&gt;dusenteriaG</title>
<path fill="none" stroke="black" d="M320,-605.76C320,-581.85 320,-544.61 320,-519.31"/>
<polygon fill="black" stroke="black" points="323.5,-519.27 320,-509.27 316.5,-519.27 323.5,-519.27"/>
</g>
<!-- dysenteriaL -->
<g id="node21" class="node">
<title>dysenteriaL</title>
<text text-anchor="start" x="303.5" y="-380.8" font-family="Times New Roman,serif" font-weight="bold" font-size="14.00">Latin</text>
<text text-anchor="start" x="291.5" y="-366.8" font-family="Times New Roman,serif" font-size="14.00" fill="red">dysenteria</text>
</g>
<!-- dusenteriaG&#45;&gt;dysenteriaL -->
<g id="edge20" class="edge">
<title>dusenteriaG&#45;&gt;dysenteriaL</title>
<path fill="none" stroke="black" stroke-dasharray="5,2" d="M320,-472.99C320,-455.06 320,-426.56 320,-405.44"/>
<polygon fill="black" stroke="black" points="323.5,-405.17 320,-395.17 316.5,-405.17 323.5,-405.17"/>
</g>
<!-- disenterieOF -->
<g id="node22" class="node">
<title>disenterieOF</title>
<text text-anchor="start" x="285" y="-265.8" font-family="Times New Roman,serif" font-weight="bold" font-size="14.00">Old French</text>
<text text-anchor="start" x="293.5" y="-251.8" font-family="Times New Roman,serif" font-size="14.00" fill="red">disenterie</text>
</g>
<!-- dysenteriaL&#45;&gt;disenterieOF -->
<g id="edge21" class="edge">
<title>dysenteriaL&#45;&gt;disenterieOF</title>
<path fill="none" stroke="black" d="M320,-358.84C320,-340.67 320,-311.72 320,-290.39"/>
<polygon fill="black" stroke="black" points="323.5,-290.32 320,-280.32 316.5,-290.32 323.5,-290.32"/>
</g>
<!-- disenterieME -->
<g id="node23" class="node">
<title>disenterieME</title>
<text text-anchor="start" x="298.5" y="-136.8" font-family="Times New Roman,serif" font-weight="bold" font-size="14.00">Middle</text>
<text text-anchor="start" x="297" y="-122.8" font-family="Times New Roman,serif" font-weight="bold" font-size="14.00">English</text>
<text text-anchor="start" x="293.5" y="-108.8" font-family="Times New Roman,serif" font-size="14.00" fill="red">disenterie</text>
</g>
<!-- disenterieOF&#45;&gt;disenterieME -->
<g id="edge22" class="edge">
<title>disenterieOF&#45;&gt;disenterieME</title>
<path fill="none" stroke="black" stroke-dasharray="5,2" d="M320,-243.76C320,-223.13 320,-188.09 320,-161.77"/>
<polygon fill="black" stroke="black" points="323.5,-161.44 320,-151.44 316.5,-161.44 323.5,-161.44"/>
</g>
<!-- dysentery -->
<g id="node24" class="node">
<title>dysentery</title>
<text text-anchor="start" x="295.5" y="-42.8" font-family="Times New Roman,serif" font-weight="bold" font-size="14.00">Modern</text>
<text text-anchor="start" x="297" y="-28.8" font-family="Times New Roman,serif" font-weight="bold" font-size="14.00">English</text>
<text text-anchor="start" x="292.5" y="-14.8" font-family="Times New Roman,serif" font-size="14.00" fill="red">dysentery</text>
</g>
<!-- disenterieME&#45;&gt;dysentery -->
<g id="edge23" class="edge">
<title>disenterieME&#45;&gt;dysentery</title>
<path fill="none" stroke="black" d="M320,-100.83C320,-90.58 320,-78.45 320,-67.3"/>
<polygon fill="black" stroke="black" points="323.5,-67.01 320,-57.01 316.5,-67.01 323.5,-67.01"/>
</g>
<!-- eghsIE -->
<g id="node25" class="node">
<title>eghsIE</title>
<g id="a_node25"><a xlink:href="eghs-out.svg" xlink:title="&lt;b&gt;Indo&#45;&lt;br/&gt;European&lt;/b&gt;&lt;br/&gt;&lt;font color=&quot;red&quot;&gt;*eghs&lt;/font&gt;&lt;br/&gt;&lt;font point&#45;size=&quot;12&quot;&gt;out&lt;/font&gt;">
<path fill="none" stroke="black" stroke-dasharray="5,2" d="M468.5,-760C468.5,-760 415.5,-760 415.5,-760 409.5,-760 403.5,-754 403.5,-748 403.5,-748 403.5,-710 403.5,-710 403.5,-704 409.5,-698 415.5,-698 415.5,-698 468.5,-698 468.5,-698 474.5,-698 480.5,-704 480.5,-710 480.5,-710 480.5,-748 480.5,-748 480.5,-754 474.5,-760 468.5,-760"/>
<text text-anchor="start" x="425.5" y="-745.8" font-family="Times New Roman,serif" font-weight="bold" font-size="14.00">Indo&#45;</text>
<text text-anchor="start" x="411.5" y="-731.8" font-family="Times New Roman,serif" font-weight="bold" font-size="14.00">European</text>
<text text-anchor="start" x="425.5" y="-717.8" font-family="Times New Roman,serif" font-size="14.00" fill="red">*eghs</text>
<text text-anchor="start" x="434.5" y="-705.4" font-family="Times New Roman,serif" font-size="12.00">out</text>
</a>
</g>
</g>
<!-- exL -->
<g id="node26" class="node">
<title>exL</title>
<text text-anchor="start" x="425.5" y="-633.8" font-family="Times New Roman,serif" font-weight="bold" font-size="14.00">Latin</text>
<text text-anchor="start" x="433" y="-619.8" font-family="Times New Roman,serif" font-size="14.00" fill="red">ex&#45;</text>
</g>
<!-- eghsIE&#45;&gt;exL -->
<g id="edge24" class="edge">
<title>eghsIE&#45;&gt;exL</title>
<path fill="none" stroke="black" d="M442,-697.84C442,-685.19 442,-670.6 442,-658.28"/>
<polygon fill="black" stroke="black" points="445.5,-658.14 442,-648.14 438.5,-658.14 445.5,-658.14"/>
</g>
<!-- exL&#45;&gt;exenterareL -->
<g id="edge25" class="edge">
<title>exL&#45;&gt;exenterareL</title>
<path fill="none" stroke="black" d="M442,-611.93C442,-590.4 442,-552.89 442,-525.55"/>
<polygon fill="black" stroke="black" points="445.5,-525.25 442,-515.25 438.5,-525.25 445.5,-525.25"/>
</g>
<!-- exenterate -->
<g id="node28" class="node">
<title>exenterate</title>
<text text-anchor="start" x="416.5" y="-42.8" font-family="Times New Roman,serif" font-weight="bold" font-size="14.00">Modern</text>
<text text-anchor="start" x="418" y="-28.8" font-family="Times New Roman,serif" font-weight="bold" font-size="14.00">English</text>
<text text-anchor="start" x="413" y="-14.8" font-family="Times New Roman,serif" font-size="14.00" fill="red">exenterate</text>
</g>
<!-- exenterareL&#45;&gt;exenterate -->
<g id="edge27" class="edge">
<title>exenterareL&#45;&gt;exenterate</title>
<path fill="none" stroke="black" stroke-dasharray="5,2" d="M441.67,-466.83C441.38,-444.19 441,-408.72 441,-378 441,-378 441,-378 441,-125 441,-105.95 441,-84.69 441,-67.4"/>
<polygon fill="black" stroke="black" points="444.5,-67.21 441,-57.21 437.5,-67.21 444.5,-67.21"/>
</g>
<!-- medhyoIE -->
<g id="node29" class="node">
<title>medhyoIE</title>
<g id="a_node29"><a xlink:href="medhyo-middle.svg" xlink:title="&lt;b&gt;Indo&#45;&lt;br/&gt;European&lt;/b&gt;&lt;br/&gt;&lt;font color=&quot;red&quot;&gt;*medhyo&#45;&lt;/font&gt;&lt;br/&gt;&lt;font point&#45;size=&quot;12&quot;&gt;middle&lt;/font&gt;">
<path fill="none" stroke="black" stroke-dasharray="5,2" d="M209.5,-760C209.5,-760 156.5,-760 156.5,-760 150.5,-760 144.5,-754 144.5,-748 144.5,-748 144.5,-710 144.5,-710 144.5,-704 150.5,-698 156.5,-698 156.5,-698 209.5,-698 209.5,-698 215.5,-698 221.5,-704 221.5,-710 221.5,-710 221.5,-748 221.5,-748 221.5,-754 215.5,-760 209.5,-760"/>
<text text-anchor="start" x="166.5" y="-745.8" font-family="Times New Roman,serif" font-weight="bold" font-size="14.00">Indo&#45;</text>
<text text-anchor="start" x="152.5" y="-731.8" font-family="Times New Roman,serif" font-weight="bold" font-size="14.00">European</text>
<text text-anchor="start" x="154.5" y="-717.8" font-family="Times New Roman,serif" font-size="14.00" fill="red">*medhyo&#45;</text>
<text text-anchor="start" x="167.5" y="-705.4" font-family="Times New Roman,serif" font-size="12.00">middle</text>
</a>
</g>
</g>
<!-- mesoG -->
<g id="node30" class="node">
<title>mesoG</title>
<text text-anchor="start" x="152" y="-560.8" font-family="Times New Roman,serif" font-weight="bold" font-size="14.00">Greek</text>
<text text-anchor="start" x="154.5" y="-546.8" font-family="Times New Roman,serif" font-size="14.00" fill="red">meso&#45;</text>
</g>
<!-- medhyoIE&#45;&gt;mesoG -->
<g id="edge28" class="edge">
<title>medhyoIE&#45;&gt;mesoG</title>
<path fill="none" stroke="black" d="M181.06,-698C179,-666.11 175.76,-616.12 173.77,-585.3"/>
<polygon fill="black" stroke="black" points="177.26,-585.01 173.12,-575.26 170.27,-585.46 177.26,-585.01"/>
</g>
<!-- mesenterionG -->
<g id="node32" class="node">
<title>mesenterionG</title>
<text text-anchor="start" x="175.5" y="-373.3" font-family="Times New Roman,serif" font-size="14.00" fill="red">mesenterion</text>
</g>
<!-- mesoG&#45;&gt;mesenterionG -->
<g id="edge30" class="edge">
<title>mesoG&#45;&gt;mesenterionG</title>
<path fill="none" stroke="black" d="M174.5,-538.87C177.2,-520.89 181.84,-491.85 187,-467 191.31,-446.22 197.1,-422.95 201.66,-405.41"/>
<polygon fill="black" stroke="black" points="205.16,-405.87 204.31,-395.31 198.39,-404.09 205.16,-405.87"/>
</g>
<!-- enterionG&#45;&gt;mesenterionG -->
<g id="edge31" class="edge">
<title>enterionG&#45;&gt;mesenterionG</title>
<path fill="none" stroke="black" d="M227.66,-472.99C224.12,-454.98 218.49,-426.29 214.33,-405.15"/>
<polygon fill="black" stroke="black" points="217.73,-404.31 212.37,-395.17 210.87,-405.66 217.73,-404.31"/>
</g>
<!-- mesenteriumL -->
<g id="node33" class="node">
<title>mesenteriumL</title>
<text text-anchor="start" x="180.5" y="-272.8" font-family="Times New Roman,serif" font-weight="bold" font-size="14.00">Medieval</text>
<text text-anchor="start" x="192.5" y="-258.8" font-family="Times New Roman,serif" font-weight="bold" font-size="14.00">Latin</text>
<text text-anchor="start" x="174" y="-244.8" font-family="Times New Roman,serif" font-size="14.00" fill="red">mesenterium</text>
</g>
<!-- mesenterionG&#45;&gt;mesenteriumL -->
<g id="edge32" class="edge">
<title>mesenterionG&#45;&gt;mesenteriumL</title>
<path fill="none" stroke="black" stroke-dasharray="5,2" d="M209,-358.84C209,-342.54 209,-317.57 209,-297.2"/>
<polygon fill="black" stroke="black" points="212.5,-297.04 209,-287.04 205.5,-297.04 212.5,-297.04"/>
</g>
<!-- mesenterieME -->
<g id="node34" class="node">
<title>mesenterieME</title>
<text text-anchor="start" x="187.5" y="-136.8" font-family="Times New Roman,serif" font-weight="bold" font-size="14.00">Middle</text>
<text text-anchor="start" x="186" y="-122.8" font-family="Times New Roman,serif" font-weight="bold" font-size="14.00">English</text>
<text text-anchor="start" x="179.5" y="-108.8" font-family="Times New Roman,serif" font-size="14.00" fill="red">mesenterie</text>
</g>
<!-- mesenteriumL&#45;&gt;mesenterieME -->
<g id="edge33" class="edge">
<title>mesenteriumL&#45;&gt;mesenterieME</title>
<path fill="none" stroke="black" stroke-dasharray="5,2" d="M209,-236.73C209,-215.67 209,-184.95 209,-161.36"/>
<polygon fill="black" stroke="black" points="212.5,-161.09 209,-151.09 205.5,-161.09 212.5,-161.09"/>
</g>
<!-- mesentery -->
<g id="node35" class="node">
<title>mesentery</title>
<text text-anchor="start" x="184.5" y="-42.8" font-family="Times New Roman,serif" font-weight="bold" font-size="14.00">Modern</text>
<text text-anchor="start" x="186" y="-28.8" font-family="Times New Roman,serif" font-weight="bold" font-size="14.00">English</text>
<text text-anchor="start" x="180.5" y="-14.8" font-family="Times New Roman,serif" font-size="14.00" fill="red">mesentery</text>
</g>
<!-- mesenterieME&#45;&gt;mesentery -->
<g id="edge34" class="edge">
<title>mesenterieME&#45;&gt;mesentery</title>
<path fill="none" stroke="black" d="M209,-100.83C209,-90.58 209,-78.45 209,-67.3"/>
<polygon fill="black" stroke="black" points="212.5,-67.01 209,-57.01 205.5,-67.01 212.5,-67.01"/>
</g>
<!-- atulSin -->
<g id="node37" class="node">
<title>atulSin</title>
<text text-anchor="start" x="625" y="-494.8" font-family="Times New Roman,serif" font-weight="bold" font-size="14.00">Sinhalese</text>
<text text-anchor="start" x="644" y="-480.8" font-family="Times New Roman,serif" font-size="14.00" fill="red">ātul</text>
</g>
<!-- antaraS&#45;&gt;atulSin -->
<g id="edge36" class="edge">
<title>antaraS&#45;&gt;atulSin</title>
<path fill="none" stroke="black" d="M614.97,-598.93C623.74,-574.92 635.9,-541.59 644.31,-518.55"/>
<polygon fill="black" stroke="black" points="647.63,-519.66 647.77,-509.06 641.06,-517.26 647.63,-519.66"/>
<text text-anchor="middle" x="641.5" y="-553.3" font-family="Times New Roman,serif" font-size="14.00">?</text>
<polyline fill="none" stroke="black" points="645,-549.5 638,-549.5 631.6,-553.39 "/>
</g>
<!-- atoluM -->
<g id="node38" class="node">
<title>atoluM</title>
<text text-anchor="start" x="658" y="-326.8" font-family="Times New Roman,serif" font-weight="bold" font-size="14.00">Maldivian</text>
<text text-anchor="start" x="675" y="-312.8" font-family="Times New Roman,serif" font-size="14.00" fill="red">atolu</text>
</g>
<!-- atulSin&#45;&gt;atoluM -->
<g id="edge37" class="edge">
<title>atulSin&#45;&gt;atoluM</title>
<path fill="none" stroke="black" stroke-dasharray="5,2" d="M657.61,-472.86C663.69,-444.03 676.01,-385.62 683.27,-351.16"/>
<polygon fill="black" stroke="black" points="686.71,-351.8 685.35,-341.3 679.87,-350.36 686.71,-351.8"/>
<text text-anchor="middle" x="674.5" y="-427.3" font-family="Times New Roman,serif" font-size="14.00">?</text>
<polyline fill="none" stroke="black" points="678,-423.5 671,-423.5 666.81,-429.24 "/>
</g>
<!-- atoll -->
<g id="node39" class="node">
<title>atoll</title>
<text text-anchor="start" x="669.5" y="-42.8" font-family="Times New Roman,serif" font-weight="bold" font-size="14.00">Modern</text>
<text text-anchor="start" x="671" y="-28.8" font-family="Times New Roman,serif" font-weight="bold" font-size="14.00">English</text>
<text text-anchor="start" x="682" y="-14.8" font-family="Times New Roman,serif" font-size="14.00" fill="red">atoll</text>
</g>
<!-- atoluM&#45;&gt;atoll -->
<g id="edge38" class="edge">
<title>atoluM&#45;&gt;atoll</title>
<path fill="none" stroke="black" stroke-dasharray="5,2" d="M689.3,-304.79C690.1,-258.26 692.33,-129.35 693.41,-67.27"/>
<polygon fill="black" stroke="black" points="696.91,-67.26 693.58,-57.2 689.91,-67.14 696.91,-67.26"/>
</g>
<!-- eisodiosG -->
<g id="node44" class="node">
<title>eisodiosG</title>
<text text-anchor="start" x="848.5" y="-493.8" font-family="Times New Roman,serif" font-size="14.00" fill="red">eisodios</text>
<text text-anchor="start" x="854" y="-481.4" font-family="Times New Roman,serif" font-size="12.00">entering</text>
</g>
<!-- eisG&#45;&gt;eisodiosG -->
<g id="edge40" class="edge">
<title>eisG&#45;&gt;eisodiosG</title>
<path fill="none" stroke="black" d="M755.36,-605.9C755.98,-584.69 760.07,-553.54 777,-533 790.43,-516.71 811.55,-506.74 830.46,-500.71"/>
<polygon fill="black" stroke="black" points="831.48,-504.06 840.11,-497.91 829.53,-497.34 831.48,-504.06"/>
</g>
<!-- hodosG -->
<g id="node41" class="node">
<title>hodosG</title>
<text text-anchor="start" x="858" y="-639.8" font-family="Times New Roman,serif" font-weight="bold" font-size="14.00">Greek</text>
<text text-anchor="start" x="860" y="-625.8" font-family="Times New Roman,serif" font-size="14.00" fill="red">hodos</text>
<text text-anchor="start" x="848.5" y="-613.4" font-family="Times New Roman,serif" font-size="12.00">way, journey</text>
</g>
<!-- hodosG&#45;&gt;eisodiosG -->
<g id="edge41" class="edge">
<title>hodosG&#45;&gt;eisodiosG</title>
<path fill="none" stroke="black" d="M876.98,-605.76C875.93,-581.85 874.3,-544.61 873.2,-519.31"/>
<polygon fill="black" stroke="black" points="876.69,-519.1 872.76,-509.27 869.7,-519.41 876.69,-519.1"/>
</g>
<!-- epiIE -->
<g id="node42" class="node">
<title>epiIE</title>
<g id="a_node42"><a xlink:href="epi-near.svg" xlink:title="&lt;b&gt;Indo&#45;&lt;br/&gt;European&lt;/b&gt;&lt;br/&gt;&lt;font color=&quot;red&quot;&gt;*epi&lt;/font&gt;&lt;br/&gt;&lt;font point&#45;size=&quot;12&quot;&gt;near, at, against&lt;/font&gt;">
<path fill="none" stroke="black" stroke-dasharray="5,2" d="M843.5,-760C843.5,-760 780.5,-760 780.5,-760 774.5,-760 768.5,-754 768.5,-748 768.5,-748 768.5,-710 768.5,-710 768.5,-704 774.5,-698 780.5,-698 780.5,-698 843.5,-698 843.5,-698 849.5,-698 855.5,-704 855.5,-710 855.5,-710 855.5,-748 855.5,-748 855.5,-754 849.5,-760 843.5,-760"/>
<text text-anchor="start" x="795.5" y="-745.8" font-family="Times New Roman,serif" font-weight="bold" font-size="14.00">Indo&#45;</text>
<text text-anchor="start" x="781.5" y="-731.8" font-family="Times New Roman,serif" font-weight="bold" font-size="14.00">European</text>
<text text-anchor="start" x="800" y="-717.8" font-family="Times New Roman,serif" font-size="14.00" fill="red">*epi</text>
<text text-anchor="start" x="776.5" y="-705.4" font-family="Times New Roman,serif" font-size="12.00">near, at, against</text>
</a>
</g>
</g>
<!-- epiG -->
<g id="node43" class="node">
<title>epiG</title>
<text text-anchor="start" x="792" y="-566.8" font-family="Times New Roman,serif" font-weight="bold" font-size="14.00">Greek</text>
<text text-anchor="start" x="801" y="-552.8" font-family="Times New Roman,serif" font-size="14.00" fill="red">epi&#45;</text>
<text text-anchor="start" x="800.5" y="-540.4" font-family="Times New Roman,serif" font-size="12.00">upon</text>
</g>
<!-- epiIE&#45;&gt;epiG -->
<g id="edge42" class="edge">
<title>epiIE&#45;&gt;epiG</title>
<path fill="none" stroke="black" d="M812,-698C812,-668.16 812,-622.46 812,-591.46"/>
<polygon fill="black" stroke="black" points="815.5,-591.16 812,-581.16 808.5,-591.16 815.5,-591.16"/>
</g>
<!-- epeisodiosG -->
<g id="node45" class="node">
<title>epeisodiosG</title>
<text text-anchor="start" x="832.5" y="-379.8" font-family="Times New Roman,serif" font-size="14.00" fill="red">epeisodios</text>
<text text-anchor="start" x="823" y="-367.4" font-family="Times New Roman,serif" font-size="12.00">coming in besides</text>
</g>
<!-- epiG&#45;&gt;epeisodiosG -->
<g id="edge43" class="edge">
<title>epiG&#45;&gt;epeisodiosG</title>
<path fill="none" stroke="black" d="M816.08,-532.74C819.46,-514.66 824.72,-489.03 831,-467 837.06,-445.75 845.59,-422.24 852.32,-404.73"/>
<polygon fill="black" stroke="black" points="855.68,-405.76 856.04,-395.17 849.15,-403.22 855.68,-405.76"/>
</g>
<!-- eisodiosG&#45;&gt;epeisodiosG -->
<g id="edge44" class="edge">
<title>eisodiosG&#45;&gt;epeisodiosG</title>
<path fill="none" stroke="black" d="M870.63,-472.99C869.19,-454.98 866.88,-426.29 865.18,-405.15"/>
<polygon fill="black" stroke="black" points="868.67,-404.86 864.38,-395.17 861.69,-405.42 868.67,-404.86"/>
</g>
<!-- epeisodionG -->
<g id="node46" class="node">
<title>epeisodionG</title>
<text text-anchor="start" x="832.5" y="-264.8" font-family="Times New Roman,serif" font-size="14.00" fill="red">epeisodion</text>
<text text-anchor="start" x="817" y="-252.4" font-family="Times New Roman,serif" font-size="12.00">parenthetic narrative</text>
</g>
<!-- epeisodiosG&#45;&gt;epeisodionG -->
<g id="edge45" class="edge">
<title>epeisodiosG&#45;&gt;epeisodionG</title>
<path fill="none" stroke="black" d="M863,-358.84C863,-340.67 863,-311.72 863,-290.39"/>
<polygon fill="black" stroke="black" points="866.5,-290.32 863,-280.32 859.5,-290.32 866.5,-290.32"/>
</g>
<!-- episodeF -->
<g id="node47" class="node">
<title>episodeF</title>
<text text-anchor="start" x="841" y="-129.8" font-family="Times New Roman,serif" font-weight="bold" font-size="14.00">French</text>
<text text-anchor="start" x="841" y="-115.8" font-family="Times New Roman,serif" font-size="14.00" fill="red">épisode</text>
</g>
<!-- epeisodionG&#45;&gt;episodeF -->
<g id="edge46" class="edge">
<title>epeisodionG&#45;&gt;episodeF</title>
<path fill="none" stroke="black" stroke-dasharray="5,2" d="M863,-243.76C863,-221.14 863,-181.2 863,-154.42"/>
<polygon fill="black" stroke="black" points="866.5,-154.18 863,-144.18 859.5,-154.18 866.5,-154.18"/>
</g>
<!-- episode -->
<g id="node48" class="node">
<title>episode</title>
<text text-anchor="start" x="838.5" y="-42.8" font-family="Times New Roman,serif" font-weight="bold" font-size="14.00">Modern</text>
<text text-anchor="start" x="840" y="-28.8" font-family="Times New Roman,serif" font-weight="bold" font-size="14.00">English</text>
<text text-anchor="start" x="841" y="-14.8" font-family="Times New Roman,serif" font-size="14.00" fill="red">episode</text>
</g>
<!-- episodeF&#45;&gt;episode -->
<g id="edge47" class="edge">
<title>episodeF&#45;&gt;episode</title>
<path fill="none" stroke="black" stroke-dasharray="5,2" d="M863,-107.7C863,-96.33 863,-81.07 863,-67.31"/>
<polygon fill="black" stroke="black" points="866.5,-67.17 863,-57.17 859.5,-67.17 866.5,-67.17"/>
</g>
<!-- esoteroG -->
<g id="node50" class="node">
<title>esoteroG</title>
<text text-anchor="start" x="725" y="-373.3" font-family="Times New Roman,serif" font-size="14.00" fill="red">esōterō</text>
</g>
<!-- esoG&#45;&gt;esoteroG -->
<g id="edge49" class="edge">
<title>esoG&#45;&gt;esoteroG</title>
<path fill="none" stroke="black" d="M743.62,-466.79C744.1,-448.93 744.76,-424.19 745.27,-405.36"/>
<polygon fill="black" stroke="black" points="748.77,-405.41 745.54,-395.32 741.77,-405.22 748.77,-405.41"/>
</g>
<!-- esoterikosG -->
<g id="node51" class="node">
<title>esoterikosG</title>
<text text-anchor="start" x="721" y="-190.3" font-family="Times New Roman,serif" font-size="14.00" fill="red">esōterikos</text>
</g>
<!-- esoteroG&#45;&gt;esoterikosG -->
<g id="edge50" class="edge">
<title>esoteroG&#45;&gt;esoterikosG</title>
<path fill="none" stroke="black" d="M746.38,-358.97C747.07,-327.57 748.56,-260.31 749.39,-222.42"/>
<polygon fill="black" stroke="black" points="752.9,-222.19 749.62,-212.11 745.9,-222.03 752.9,-222.19"/>
</g>
<!-- esoteric -->
<g id="node52" class="node">
<title>esoteric</title>
<text text-anchor="start" x="752.5" y="-42.8" font-family="Times New Roman,serif" font-weight="bold" font-size="14.00">Modern</text>
<text text-anchor="start" x="754" y="-28.8" font-family="Times New Roman,serif" font-weight="bold" font-size="14.00">English</text>
<text text-anchor="start" x="755" y="-14.8" font-family="Times New Roman,serif" font-size="14.00" fill="red">esoteric</text>
</g>
<!-- esoterikosG&#45;&gt;esoteric -->
<g id="edge51" class="edge">
<title>esoterikosG&#45;&gt;esoteric</title>
<path fill="none" stroke="black" stroke-dasharray="5,2" d="M752.89,-175.88C757.24,-150.13 765.54,-100.89 771.18,-67.5"/>
<polygon fill="black" stroke="black" points="774.69,-67.71 772.9,-57.27 767.79,-66.55 774.69,-67.71"/>
</g>
<!-- andaGm -->
<g id="node54" class="node">
<title>andaGm</title>
<text text-anchor="start" x="948.5" y="-639.8" font-family="Times New Roman,serif" font-weight="bold" font-size="14.00">Germanic</text>
<text text-anchor="start" x="941.5" y="-625.8" font-family="Times New Roman,serif" font-size="14.00" fill="red">*anda, *unda</text>
<text text-anchor="start" x="970.5" y="-613.4" font-family="Times New Roman,serif" font-size="12.00">and</text>
</g>
<!-- ndhaIE&#45;&gt;andaGm -->
<g id="edge53" class="edge">
<title>ndhaIE&#45;&gt;andaGm</title>
<path fill="none" stroke="black" d="M946.97,-710.66C952.23,-697.57 959.61,-679.24 965.95,-663.45"/>
<polygon fill="black" stroke="black" points="969.26,-664.61 969.74,-654.03 962.76,-662 969.26,-664.61"/>
</g>
<!-- andOE -->
<g id="node55" class="node">
<title>andOE</title>
<text text-anchor="start" x="942.5" y="-494.8" font-family="Times New Roman,serif" font-weight="bold" font-size="14.00">Old English</text>
<text text-anchor="start" x="968.5" y="-480.8" font-family="Times New Roman,serif" font-size="14.00" fill="red">and</text>
</g>
<!-- andaGm&#45;&gt;andOE -->
<g id="edge54" class="edge">
<title>andaGm&#45;&gt;andOE</title>
<path fill="none" stroke="black" d="M979,-605.76C979,-581.85 979,-544.61 979,-519.31"/>
<polygon fill="black" stroke="black" points="982.5,-519.27 979,-509.27 975.5,-519.27 982.5,-519.27"/>
</g>
<!-- andME -->
<g id="node56" class="node">
<title>andME</title>
<text text-anchor="start" x="957.5" y="-204.8" font-family="Times New Roman,serif" font-weight="bold" font-size="14.00">Middle</text>
<text text-anchor="start" x="956" y="-190.8" font-family="Times New Roman,serif" font-weight="bold" font-size="14.00">English</text>
<text text-anchor="start" x="968.5" y="-176.8" font-family="Times New Roman,serif" font-size="14.00" fill="red">and</text>
</g>
<!-- andOE&#45;&gt;andME -->
<g id="edge55" class="edge">
<title>andOE&#45;&gt;andME</title>
<path fill="none" stroke="black" d="M979,-472.86C979,-425.67 979,-293.1 979,-229.66"/>
<polygon fill="black" stroke="black" points="982.5,-229.38 979,-219.38 975.5,-229.38 982.5,-229.38"/>
</g>
<!-- and -->
<g id="node57" class="node">
<title>and</title>
<text text-anchor="start" x="954.5" y="-42.8" font-family="Times New Roman,serif" font-weight="bold" font-size="14.00">Modern</text>
<text text-anchor="start" x="956" y="-28.8" font-family="Times New Roman,serif" font-weight="bold" font-size="14.00">English</text>
<text text-anchor="start" x="968.5" y="-14.8" font-family="Times New Roman,serif" font-size="14.00" fill="red">and</text>
</g>
<!-- andME&#45;&gt;and -->
<g id="edge56" class="edge">
<title>andME&#45;&gt;and</title>
<path fill="none" stroke="black" d="M979,-168.7C979,-141.64 979,-97.71 979,-67.19"/>
<polygon fill="black" stroke="black" points="982.5,-67 979,-57 975.5,-67.01 982.5,-67"/>
</g>
</g>
</svg>
