<?xml version="1.0" encoding="UTF-8" standalone="no"?>
<!DOCTYPE svg PUBLIC "-//W3C//DTD SVG 1.1//EN"
 "http://www.w3.org/Graphics/SVG/1.1/DTD/svg11.dtd">
<!-- Generated by graphviz version 2.49.0 (20210828.1703)
 -->
<!-- Pages: 1 -->
<svg width="871pt" height="744pt"
 viewBox="0.00 0.00 870.50 744.00" xmlns="http://www.w3.org/2000/svg" xmlns:xlink="http://www.w3.org/1999/xlink">
<g id="graph0" class="graph" transform="scale(1 1) rotate(0) translate(4 740)">
<polygon fill="white" stroke="transparent" points="-4,4 -4,-740 866.5,-740 866.5,4 -4,4"/>
<!-- enIE -->
<g id="node1" class="node">
<title>enIE</title>
<g id="a_node1"><a xlink:href="en-in0.svg" xlink:title="Indo&#45;European &quot;en&quot; in">
<path fill="none" stroke="black" stroke-dasharray="5,2" d="M558.5,-736C558.5,-736 409.5,-736 409.5,-736 403.5,-736 397.5,-730 397.5,-724 397.5,-724 397.5,-698 397.5,-698 397.5,-692 403.5,-686 409.5,-686 409.5,-686 558.5,-686 558.5,-686 564.5,-686 570.5,-692 570.5,-698 570.5,-698 570.5,-724 570.5,-724 570.5,-730 564.5,-736 558.5,-736"/>
<text text-anchor="start" x="405.5" y="-713.8" font-family="Times New Roman,serif" font-weight="bold" font-size="24.00">Indo&#45;European</text>
<text text-anchor="start" x="462" y="-694.6" font-family="Times New Roman,serif" font-size="18.00" fill="red">*en </text>
<text text-anchor="start" x="493" y="-694.6" font-family="Times New Roman,serif" font-size="16.00">in</text>
</a>
</g>
</g>
<!-- enterIE -->
<g id="node2" class="node">
<title>enterIE</title>
<text text-anchor="start" x="302.5" y="-628.3" font-family="Times New Roman,serif" font-size="14.00" fill="red">*en&#45;ter</text>
</g>
<!-- enIE&#45;&gt;enterIE -->
<g id="edge1" class="edge">
<title>enIE&#45;&gt;enterIE</title>
<path fill="none" stroke="black" d="M433.19,-685.85C409.1,-674.4 380.86,-660.97 358.86,-650.52"/>
<polygon fill="black" stroke="black" points="360.08,-647.22 349.54,-646.09 357.07,-653.55 360.08,-647.22"/>
</g>
<!-- enmoIE -->
<g id="node3" class="node">
<title>enmoIE</title>
<text text-anchor="start" x="462.5" y="-634.8" font-family="Times New Roman,serif" font-size="14.00" fill="red">*en&#45;mo</text>
<text text-anchor="start" x="462" y="-622.4" font-family="Times New Roman,serif" font-size="12.00">innermost</text>
</g>
<!-- enIE&#45;&gt;enmoIE -->
<g id="edge2" class="edge">
<title>enIE&#45;&gt;enmoIE</title>
<path fill="none" stroke="black" d="M484,-685.64C484,-677.67 484,-668.77 484,-660.58"/>
<polygon fill="black" stroke="black" points="487.5,-660.38 484,-650.38 480.5,-660.38 487.5,-660.38"/>
</g>
<!-- endoIE -->
<g id="node4" class="node">
<title>endoIE</title>
<text text-anchor="start" x="695" y="-628.3" font-family="Times New Roman,serif" font-size="14.00" fill="red">*en&#45;do</text>
</g>
<!-- enIE&#45;&gt;endoIE -->
<g id="edge3" class="edge">
<title>enIE&#45;&gt;endoIE</title>
<path fill="none" stroke="black" d="M556.14,-685.95C596.21,-672.6 644.42,-656.53 677.15,-645.62"/>
<polygon fill="black" stroke="black" points="678.4,-648.89 686.78,-642.41 676.19,-642.25 678.4,-648.89"/>
</g>
<!-- interL -->
<g id="node5" class="node">
<title>interL</title>
<text text-anchor="start" x="188.5" y="-563.8" font-family="Times New Roman,serif" font-weight="bold" font-size="14.00">Latin</text>
<text text-anchor="start" x="192.5" y="-549.8" font-family="Times New Roman,serif" font-size="14.00" fill="red">inter</text>
<text text-anchor="start" x="190.5" y="-535.8" font-family="Times New Roman,serif" font-size="14.00" fill="red">inter&#45;</text>
<text text-anchor="start" x="167.5" y="-523.4" font-family="Times New Roman,serif" font-size="12.00">between, among</text>
</g>
<!-- enterIE&#45;&gt;interL -->
<g id="edge4" class="edge">
<title>enterIE&#45;&gt;interL</title>
<path fill="none" stroke="black" d="M297.76,-613.8C285.67,-605.23 270.57,-594.52 256.09,-584.24"/>
<polygon fill="black" stroke="black" points="257.85,-581.2 247.66,-578.27 253.79,-586.91 257.85,-581.2"/>
</g>
<!-- intimusL -->
<g id="node24" class="node">
<title>intimusL</title>
<text text-anchor="start" x="467.5" y="-550.8" font-family="Times New Roman,serif" font-weight="bold" font-size="14.00">Latin</text>
<text text-anchor="start" x="464" y="-536.8" font-family="Times New Roman,serif" font-size="14.00" fill="red">intimus</text>
</g>
<!-- enmoIE&#45;&gt;intimusL -->
<g id="edge23" class="edge">
<title>enmoIE&#45;&gt;intimusL</title>
<path fill="none" stroke="black" d="M484,-613.8C484,-602.67 484,-587.94 484,-575.24"/>
<polygon fill="black" stroke="black" points="487.5,-575.18 484,-565.18 480.5,-575.18 487.5,-575.18"/>
</g>
<!-- induL -->
<g id="node29" class="node">
<title>induL</title>
<text text-anchor="start" x="698.5" y="-556.8" font-family="Times New Roman,serif" font-weight="bold" font-size="14.00">Latin</text>
<text text-anchor="start" x="700.5" y="-542.8" font-family="Times New Roman,serif" font-size="14.00" fill="red">indu&#45;</text>
<text text-anchor="start" x="701.5" y="-530.4" font-family="Times New Roman,serif" font-size="12.00">within</text>
</g>
<!-- endoIE&#45;&gt;induL -->
<g id="edge28" class="edge">
<title>endoIE&#45;&gt;induL</title>
<path fill="none" stroke="black" d="M715,-613.8C715,-604.45 715,-592.55 715,-581.45"/>
<polygon fill="black" stroke="black" points="718.5,-581.16 715,-571.16 711.5,-581.16 718.5,-581.16"/>
</g>
<!-- endonG -->
<g id="node41" class="node">
<title>endonG</title>
<text text-anchor="start" x="797" y="-556.8" font-family="Times New Roman,serif" font-weight="bold" font-size="14.00">Greek</text>
<text text-anchor="start" x="779.5" y="-542.8" font-family="Times New Roman,serif" font-size="14.00" fill="red">endon, endo&#45;</text>
<text text-anchor="start" x="803.5" y="-530.4" font-family="Times New Roman,serif" font-size="12.00">within</text>
</g>
<!-- endoIE&#45;&gt;endonG -->
<g id="edge40" class="edge">
<title>endoIE&#45;&gt;endonG</title>
<path fill="none" stroke="black" d="M736.13,-613.8C748.94,-603.39 765.61,-589.82 780.49,-577.71"/>
<polygon fill="black" stroke="black" points="782.99,-580.18 788.54,-571.16 778.58,-574.75 782.99,-580.18"/>
</g>
<!-- entreOF -->
<g id="node6" class="node">
<title>entreOF</title>
<text text-anchor="start" x="8" y="-465.8" font-family="Times New Roman,serif" font-weight="bold" font-size="14.00">Old French</text>
<text text-anchor="start" x="27" y="-451.8" font-family="Times New Roman,serif" font-size="14.00" fill="red">entre&#45;</text>
</g>
<!-- interL&#45;&gt;entreOF -->
<g id="edge5" class="edge">
<title>interL&#45;&gt;entreOF</title>
<path fill="none" stroke="black" d="M159.44,-522.66C136.25,-510.78 108.22,-496.42 85.48,-484.76"/>
<polygon fill="black" stroke="black" points="86.9,-481.56 76.41,-480.12 83.71,-487.79 86.9,-481.56"/>
</g>
<!-- interaneusL -->
<g id="node9" class="node">
<title>interaneusL</title>
<text text-anchor="start" x="113" y="-464.8" font-family="Times New Roman,serif" font-size="14.00" fill="red">interāneus</text>
<text text-anchor="start" x="124.5" y="-452.4" font-family="Times New Roman,serif" font-size="12.00">internal</text>
</g>
<!-- interL&#45;&gt;interaneusL -->
<g id="edge8" class="edge">
<title>interL&#45;&gt;interaneusL</title>
<path fill="none" stroke="black" d="M181.53,-515.57C174.68,-506.68 167.27,-497.07 160.68,-488.52"/>
<polygon fill="black" stroke="black" points="163.29,-486.18 154.42,-480.4 157.75,-490.46 163.29,-486.18"/>
</g>
<!-- interiorL -->
<g id="node15" class="node">
<title>interiorL</title>
<text text-anchor="start" x="185" y="-128.3" font-family="Times New Roman,serif" font-size="14.00" fill="red">interior</text>
</g>
<!-- interL&#45;&gt;interiorL -->
<g id="edge14" class="edge">
<title>interL&#45;&gt;interiorL</title>
<path fill="none" stroke="black" d="M205,-516C205,-484.77 205,-434.46 205,-391 205,-391 205,-391 205,-310 205,-257.04 205,-195.16 205,-160.38"/>
<polygon fill="black" stroke="black" points="208.5,-160.09 205,-150.09 201.5,-160.09 208.5,-160.09"/>
</g>
<!-- internusL -->
<g id="node17" class="node">
<title>internusL</title>
<text text-anchor="start" x="264" y="-386.3" font-family="Times New Roman,serif" font-size="14.00" fill="red">internus</text>
</g>
<!-- interL&#45;&gt;internusL -->
<g id="edge16" class="edge">
<title>interL&#45;&gt;internusL</title>
<path fill="none" stroke="black" d="M220.81,-515.75C235.8,-487.06 258.09,-444.41 272.33,-417.15"/>
<polygon fill="black" stroke="black" points="275.48,-418.69 277.01,-408.21 269.28,-415.45 275.48,-418.69"/>
</g>
<!-- entreME -->
<g id="node7" class="node">
<title>entreME</title>
<text text-anchor="start" x="18.5" y="-149.8" font-family="Times New Roman,serif" font-weight="bold" font-size="14.00">Middle</text>
<text text-anchor="start" x="17" y="-135.8" font-family="Times New Roman,serif" font-weight="bold" font-size="14.00">English</text>
<text text-anchor="start" x="24" y="-121.8" font-family="Times New Roman,serif" font-size="14.00" fill="red">entre&#45;</text>
<text text-anchor="start" x="25.5" y="-107.8" font-family="Times New Roman,serif" font-size="14.00" fill="red">inter&#45;</text>
</g>
<!-- entreOF&#45;&gt;entreME -->
<g id="edge6" class="edge">
<title>entreOF&#45;&gt;entreME</title>
<path fill="none" stroke="black" stroke-dasharray="5,2" d="M42.84,-443.83C42.38,-393.7 41.04,-246.55 40.38,-174.17"/>
<polygon fill="black" stroke="black" points="43.88,-174.02 40.28,-164.05 36.88,-174.08 43.88,-174.02"/>
</g>
<!-- inter -->
<g id="node8" class="node">
<title>inter</title>
<text text-anchor="start" x="14.5" y="-42.8" font-family="Times New Roman,serif" font-weight="bold" font-size="14.00">Modern</text>
<text text-anchor="start" x="16" y="-28.8" font-family="Times New Roman,serif" font-weight="bold" font-size="14.00">English</text>
<text text-anchor="start" x="24.5" y="-14.8" font-family="Times New Roman,serif" font-size="14.00" fill="red">inter&#45;</text>
</g>
<!-- entreME&#45;&gt;inter -->
<g id="edge7" class="edge">
<title>entreME&#45;&gt;inter</title>
<path fill="none" stroke="black" d="M39.68,-99.99C39.58,-89.65 39.46,-78.06 39.35,-67.46"/>
<polygon fill="black" stroke="black" points="42.85,-67.25 39.25,-57.29 35.85,-67.32 42.85,-67.25"/>
</g>
<!-- interaneaL -->
<g id="node10" class="node">
<title>interaneaL</title>
<text text-anchor="start" x="113.5" y="-386.3" font-family="Times New Roman,serif" font-size="14.00" fill="red">interānea</text>
</g>
<!-- interaneusL&#45;&gt;interaneaL -->
<g id="edge9" class="edge">
<title>interaneusL&#45;&gt;interaneaL</title>
<path fill="none" stroke="black" d="M140.26,-443.7C139.93,-435.98 139.53,-426.71 139.16,-418.11"/>
<polygon fill="black" stroke="black" points="142.66,-417.95 138.73,-408.1 135.66,-418.25 142.66,-417.95"/>
</g>
<!-- intraliaL -->
<g id="node11" class="node">
<title>intraliaL</title>
<text text-anchor="start" x="104.5" y="-321.8" font-family="Times New Roman,serif" font-weight="bold" font-size="14.00">Medieval</text>
<text text-anchor="start" x="116.5" y="-307.8" font-family="Times New Roman,serif" font-weight="bold" font-size="14.00">Latin</text>
<text text-anchor="start" x="114.5" y="-293.8" font-family="Times New Roman,serif" font-size="14.00" fill="red">intrālia</text>
</g>
<!-- interaneaL&#45;&gt;intraliaL -->
<g id="edge10" class="edge">
<title>interaneaL&#45;&gt;intraliaL</title>
<path fill="none" stroke="black" d="M136.89,-371.91C136.4,-364.33 135.8,-355.13 135.22,-346.23"/>
<polygon fill="black" stroke="black" points="138.7,-345.8 134.56,-336.05 131.72,-346.26 138.7,-345.8"/>
</g>
<!-- entrailleOF -->
<g id="node12" class="node">
<title>entrailleOF</title>
<text text-anchor="start" x="93" y="-228.8" font-family="Times New Roman,serif" font-weight="bold" font-size="14.00">Old French</text>
<text text-anchor="start" x="106.5" y="-214.8" font-family="Times New Roman,serif" font-size="14.00" fill="red">entraille</text>
</g>
<!-- intraliaL&#45;&gt;entrailleOF -->
<g id="edge11" class="edge">
<title>intraliaL&#45;&gt;entrailleOF</title>
<path fill="none" stroke="black" d="M131.55,-285.7C130.95,-275.56 130.25,-263.74 129.62,-253.3"/>
<polygon fill="black" stroke="black" points="133.1,-252.82 129.01,-243.05 126.12,-253.24 133.1,-252.82"/>
</g>
<!-- entrailleME -->
<g id="node13" class="node">
<title>entrailleME</title>
<text text-anchor="start" x="103.5" y="-142.8" font-family="Times New Roman,serif" font-weight="bold" font-size="14.00">Middle</text>
<text text-anchor="start" x="102" y="-128.8" font-family="Times New Roman,serif" font-weight="bold" font-size="14.00">English</text>
<text text-anchor="start" x="103.5" y="-114.8" font-family="Times New Roman,serif" font-size="14.00" fill="red">entraille</text>
</g>
<!-- entrailleOF&#45;&gt;entrailleME -->
<g id="edge12" class="edge">
<title>entrailleOF&#45;&gt;entrailleME</title>
<path fill="none" stroke="black" stroke-dasharray="5,2" d="M127.44,-206.88C127.07,-195.83 126.58,-181.06 126.14,-167.64"/>
<polygon fill="black" stroke="black" points="129.63,-167.13 125.8,-157.25 122.63,-167.36 129.63,-167.13"/>
</g>
<!-- entrails -->
<g id="node14" class="node">
<title>entrails</title>
<text text-anchor="start" x="97.5" y="-42.8" font-family="Times New Roman,serif" font-weight="bold" font-size="14.00">Modern</text>
<text text-anchor="start" x="99" y="-28.8" font-family="Times New Roman,serif" font-weight="bold" font-size="14.00">English</text>
<text text-anchor="start" x="102" y="-14.8" font-family="Times New Roman,serif" font-size="14.00" fill="red">entrails</text>
</g>
<!-- entrailleME&#45;&gt;entrails -->
<g id="edge13" class="edge">
<title>entrailleME&#45;&gt;entrails</title>
<path fill="none" stroke="black" d="M124.26,-106.78C123.89,-94.88 123.45,-80.34 123.05,-67.32"/>
<polygon fill="black" stroke="black" points="126.55,-67.17 122.74,-57.29 119.55,-67.39 126.55,-67.17"/>
</g>
<!-- interior -->
<g id="node16" class="node">
<title>interior</title>
<text text-anchor="start" x="180.5" y="-42.8" font-family="Times New Roman,serif" font-weight="bold" font-size="14.00">Modern</text>
<text text-anchor="start" x="182" y="-28.8" font-family="Times New Roman,serif" font-weight="bold" font-size="14.00">English</text>
<text text-anchor="start" x="185" y="-14.8" font-family="Times New Roman,serif" font-size="14.00" fill="red">interior</text>
</g>
<!-- interiorL&#45;&gt;interior -->
<g id="edge15" class="edge">
<title>interiorL&#45;&gt;interior</title>
<path fill="none" stroke="black" stroke-dasharray="5,2" d="M205,-113.93C205,-101.19 205,-83.34 205,-67.65"/>
<polygon fill="black" stroke="black" points="208.5,-67.22 205,-57.22 201.5,-67.22 208.5,-67.22"/>
</g>
<!-- interneF -->
<g id="node18" class="node">
<title>interneF</title>
<text text-anchor="start" x="264" y="-314.8" font-family="Times New Roman,serif" font-weight="bold" font-size="14.00">French</text>
<text text-anchor="start" x="267.5" y="-300.8" font-family="Times New Roman,serif" font-size="14.00" fill="red">interne</text>
</g>
<!-- internusL&#45;&gt;interneF -->
<g id="edge17" class="edge">
<title>internusL&#45;&gt;interneF</title>
<path fill="none" stroke="black" d="M286,-371.91C286,-362.34 286,-350.18 286,-339.32"/>
<polygon fill="black" stroke="black" points="289.5,-339.04 286,-329.04 282.5,-339.04 289.5,-339.04"/>
</g>
<!-- internalisL -->
<g id="node20" class="node">
<title>internalisL</title>
<text text-anchor="start" x="342.5" y="-321.8" font-family="Times New Roman,serif" font-weight="bold" font-size="14.00">Medieval</text>
<text text-anchor="start" x="354.5" y="-307.8" font-family="Times New Roman,serif" font-weight="bold" font-size="14.00">Latin</text>
<text text-anchor="start" x="346.5" y="-293.8" font-family="Times New Roman,serif" font-size="14.00" fill="red">internālis</text>
</g>
<!-- internusL&#45;&gt;internalisL -->
<g id="edge19" class="edge">
<title>internusL&#45;&gt;internalisL</title>
<path fill="none" stroke="black" d="M304.86,-371.91C314.32,-363.34 326.07,-352.7 337.03,-342.77"/>
<polygon fill="black" stroke="black" points="339.39,-345.36 344.45,-336.05 334.69,-340.17 339.39,-345.36"/>
</g>
<!-- intern -->
<g id="node19" class="node">
<title>intern</title>
<text text-anchor="start" x="263.5" y="-42.8" font-family="Times New Roman,serif" font-weight="bold" font-size="14.00">Modern</text>
<text text-anchor="start" x="265" y="-28.8" font-family="Times New Roman,serif" font-weight="bold" font-size="14.00">English</text>
<text text-anchor="start" x="272.5" y="-14.8" font-family="Times New Roman,serif" font-size="14.00" fill="red">intern</text>
</g>
<!-- interneF&#45;&gt;intern -->
<g id="edge18" class="edge">
<title>interneF&#45;&gt;intern</title>
<path fill="none" stroke="black" stroke-dasharray="5,2" d="M286.13,-292.67C286.45,-247.76 287.32,-126.92 287.75,-67.27"/>
<polygon fill="black" stroke="black" points="291.25,-67.24 287.83,-57.21 284.25,-67.19 291.25,-67.24"/>
</g>
<!-- internelOF -->
<g id="node21" class="node">
<title>internelOF</title>
<text text-anchor="start" x="336" y="-228.8" font-family="Times New Roman,serif" font-weight="bold" font-size="14.00">Old French</text>
<text text-anchor="start" x="351" y="-214.8" font-family="Times New Roman,serif" font-size="14.00" fill="red">internel</text>
</g>
<!-- internalisL&#45;&gt;internelOF -->
<g id="edge20" class="edge">
<title>internalisL&#45;&gt;internelOF</title>
<path fill="none" stroke="black" d="M371,-285.7C371,-275.56 371,-263.74 371,-253.3"/>
<polygon fill="black" stroke="black" points="374.5,-253.05 371,-243.05 367.5,-253.05 374.5,-253.05"/>
</g>
<!-- internallME -->
<g id="node22" class="node">
<title>internallME</title>
<text text-anchor="start" x="349.5" y="-142.8" font-family="Times New Roman,serif" font-weight="bold" font-size="14.00">Middle</text>
<text text-anchor="start" x="348" y="-128.8" font-family="Times New Roman,serif" font-weight="bold" font-size="14.00">English</text>
<text text-anchor="start" x="349.5" y="-114.8" font-family="Times New Roman,serif" font-size="14.00" fill="red">internall</text>
</g>
<!-- internelOF&#45;&gt;internallME -->
<g id="edge21" class="edge">
<title>internelOF&#45;&gt;internallME</title>
<path fill="none" stroke="black" stroke-dasharray="5,2" d="M371,-206.88C371,-195.83 371,-181.06 371,-167.64"/>
<polygon fill="black" stroke="black" points="374.5,-167.25 371,-157.25 367.5,-167.25 374.5,-167.25"/>
</g>
<!-- internal -->
<g id="node23" class="node">
<title>internal</title>
<text text-anchor="start" x="346.5" y="-42.8" font-family="Times New Roman,serif" font-weight="bold" font-size="14.00">Modern</text>
<text text-anchor="start" x="348" y="-28.8" font-family="Times New Roman,serif" font-weight="bold" font-size="14.00">English</text>
<text text-anchor="start" x="351" y="-14.8" font-family="Times New Roman,serif" font-size="14.00" fill="red">internal</text>
</g>
<!-- internallME&#45;&gt;internal -->
<g id="edge22" class="edge">
<title>internallME&#45;&gt;internal</title>
<path fill="none" stroke="black" d="M371,-106.78C371,-94.88 371,-80.34 371,-67.32"/>
<polygon fill="black" stroke="black" points="374.5,-67.29 371,-57.29 367.5,-67.29 374.5,-67.29"/>
</g>
<!-- intimaL -->
<g id="node25" class="node">
<title>intimaL</title>
<text text-anchor="start" x="437" y="-128.3" font-family="Times New Roman,serif" font-size="14.00" fill="red">intima</text>
</g>
<!-- intimusL&#45;&gt;intimaL -->
<g id="edge24" class="edge">
<title>intimusL&#45;&gt;intimaL</title>
<path fill="none" stroke="black" d="M478.36,-528.55C469.67,-500.07 454,-441.71 454,-391 454,-391 454,-391 454,-310 454,-257.04 454,-195.16 454,-160.38"/>
<polygon fill="black" stroke="black" points="457.5,-160.09 454,-150.09 450.5,-160.09 457.5,-160.09"/>
</g>
<!-- intimareL -->
<g id="node27" class="node">
<title>intimareL</title>
<text text-anchor="start" x="490.5" y="-227.8" font-family="Times New Roman,serif" font-size="14.00" fill="red">intimāre, intimāt&#45;</text>
<text text-anchor="start" x="501.5" y="-215.4" font-family="Times New Roman,serif" font-size="12.00">to make known</text>
</g>
<!-- intimusL&#45;&gt;intimareL -->
<g id="edge26" class="edge">
<title>intimusL&#45;&gt;intimareL</title>
<path fill="none" stroke="black" d="M486.85,-528.8C495.55,-476.27 521.82,-317.68 532.45,-253.45"/>
<polygon fill="black" stroke="black" points="535.96,-253.73 534.14,-243.29 529.05,-252.58 535.96,-253.73"/>
</g>
<!-- intima -->
<g id="node26" class="node">
<title>intima</title>
<text text-anchor="start" x="429.5" y="-42.8" font-family="Times New Roman,serif" font-weight="bold" font-size="14.00">Modern</text>
<text text-anchor="start" x="431" y="-28.8" font-family="Times New Roman,serif" font-weight="bold" font-size="14.00">English</text>
<text text-anchor="start" x="437" y="-14.8" font-family="Times New Roman,serif" font-size="14.00" fill="red">intima</text>
</g>
<!-- intimaL&#45;&gt;intima -->
<g id="edge25" class="edge">
<title>intimaL&#45;&gt;intima</title>
<path fill="none" stroke="black" stroke-dasharray="5,2" d="M454,-113.93C454,-101.19 454,-83.34 454,-67.65"/>
<polygon fill="black" stroke="black" points="457.5,-67.22 454,-57.22 450.5,-67.22 457.5,-67.22"/>
</g>
<!-- intimate -->
<g id="node28" class="node">
<title>intimate</title>
<text text-anchor="start" x="512.5" y="-42.8" font-family="Times New Roman,serif" font-weight="bold" font-size="14.00">Modern</text>
<text text-anchor="start" x="514" y="-28.8" font-family="Times New Roman,serif" font-weight="bold" font-size="14.00">English</text>
<text text-anchor="start" x="515.5" y="-14.8" font-family="Times New Roman,serif" font-size="14.00" fill="red">intimate</text>
</g>
<!-- intimareL&#45;&gt;intimate -->
<g id="edge27" class="edge">
<title>intimareL&#45;&gt;intimate</title>
<path fill="none" stroke="black" stroke-dasharray="5,2" d="M537,-206.71C537,-175.29 537,-108.27 537,-67.27"/>
<polygon fill="black" stroke="black" points="540.5,-67.2 537,-57.2 533.5,-67.2 540.5,-67.2"/>
</g>
<!-- industriusL -->
<g id="node31" class="node">
<title>industriusL</title>
<text text-anchor="start" x="605.5" y="-464.8" font-family="Times New Roman,serif" font-size="14.00" fill="red">industrius</text>
<text text-anchor="start" x="617" y="-452.4" font-family="Times New Roman,serif" font-size="12.00">diligent</text>
</g>
<!-- induL&#45;&gt;industriusL -->
<g id="edge29" class="edge">
<title>induL&#45;&gt;industriusL</title>
<path fill="none" stroke="black" d="M692.16,-522.88C681.3,-511.89 668.31,-498.74 657.28,-487.57"/>
<polygon fill="black" stroke="black" points="659.52,-484.86 650,-480.21 654.54,-489.78 659.52,-484.86"/>
</g>
<!-- indigereL -->
<g id="node36" class="node">
<title>indigereL</title>
<text text-anchor="start" x="707" y="-464.8" font-family="Times New Roman,serif" font-size="14.00" fill="red">indigēre</text>
<text text-anchor="start" x="712" y="-452.4" font-family="Times New Roman,serif" font-size="12.00">to need</text>
</g>
<!-- induL&#45;&gt;indigereL -->
<g id="edge35" class="edge">
<title>induL&#45;&gt;indigereL</title>
<path fill="none" stroke="black" d="M718.9,-522.88C720.61,-512.73 722.63,-500.75 724.41,-490.18"/>
<polygon fill="black" stroke="black" points="727.89,-490.65 726.1,-480.21 720.98,-489.48 727.89,-490.65"/>
</g>
<!-- struL -->
<g id="node30" class="node">
<title>struL</title>
<text text-anchor="start" x="616.5" y="-556.8" font-family="Times New Roman,serif" font-weight="bold" font-size="14.00">Latin</text>
<text text-anchor="start" x="616.5" y="-542.8" font-family="Times New Roman,serif" font-size="14.00" fill="red">*stru&#45;</text>
<text text-anchor="start" x="606" y="-530.4" font-family="Times New Roman,serif" font-size="12.00">to construct</text>
</g>
<!-- struL&#45;&gt;industriusL -->
<g id="edge30" class="edge">
<title>struL&#45;&gt;industriusL</title>
<path fill="none" stroke="black" d="M633,-522.88C633,-512.84 633,-501 633,-490.51"/>
<polygon fill="black" stroke="black" points="636.5,-490.21 633,-480.21 629.5,-490.21 636.5,-490.21"/>
</g>
<!-- industriaL -->
<g id="node32" class="node">
<title>industriaL</title>
<text text-anchor="start" x="603" y="-392.8" font-family="Times New Roman,serif" font-size="14.00" fill="red">industria</text>
<text text-anchor="start" x="607" y="-380.4" font-family="Times New Roman,serif" font-size="12.00">diligence</text>
</g>
<!-- industriusL&#45;&gt;industriaL -->
<g id="edge31" class="edge">
<title>industriusL&#45;&gt;industriaL</title>
<path fill="none" stroke="black" d="M631.52,-443.7C630.86,-435.98 630.06,-426.71 629.32,-418.11"/>
<polygon fill="black" stroke="black" points="632.81,-417.77 628.47,-408.1 625.83,-418.37 632.81,-417.77"/>
</g>
<!-- industrieOF -->
<g id="node33" class="node">
<title>industrieOF</title>
<text text-anchor="start" x="595" y="-314.8" font-family="Times New Roman,serif" font-weight="bold" font-size="14.00">Old French</text>
<text text-anchor="start" x="606" y="-300.8" font-family="Times New Roman,serif" font-size="14.00" fill="red">industrie</text>
</g>
<!-- industriaL&#45;&gt;industrieOF -->
<g id="edge32" class="edge">
<title>industriaL&#45;&gt;industrieOF</title>
<path fill="none" stroke="black" d="M627.67,-371.91C628.04,-362.34 628.51,-350.18 628.94,-339.32"/>
<polygon fill="black" stroke="black" points="632.44,-339.17 629.34,-329.04 625.45,-338.9 632.44,-339.17"/>
</g>
<!-- industrieME -->
<g id="node34" class="node">
<title>industrieME</title>
<text text-anchor="start" x="620.5" y="-235.8" font-family="Times New Roman,serif" font-weight="bold" font-size="14.00">Middle</text>
<text text-anchor="start" x="619" y="-221.8" font-family="Times New Roman,serif" font-weight="bold" font-size="14.00">English</text>
<text text-anchor="start" x="618" y="-207.8" font-family="Times New Roman,serif" font-size="14.00" fill="red">industrie</text>
</g>
<!-- industrieOF&#45;&gt;industrieME -->
<g id="edge33" class="edge">
<title>industrieOF&#45;&gt;industrieME</title>
<path fill="none" stroke="black" stroke-dasharray="5,2" d="M632.49,-292.6C633.83,-283.18 635.54,-271.21 637.14,-260.03"/>
<polygon fill="black" stroke="black" points="640.61,-260.47 638.56,-250.07 633.68,-259.48 640.61,-260.47"/>
</g>
<!-- industry -->
<g id="node35" class="node">
<title>industry</title>
<text text-anchor="start" x="617.5" y="-42.8" font-family="Times New Roman,serif" font-weight="bold" font-size="14.00">Modern</text>
<text text-anchor="start" x="619" y="-28.8" font-family="Times New Roman,serif" font-weight="bold" font-size="14.00">English</text>
<text text-anchor="start" x="619" y="-14.8" font-family="Times New Roman,serif" font-size="14.00" fill="red">industry</text>
</g>
<!-- industrieME&#45;&gt;industry -->
<g id="edge34" class="edge">
<title>industrieME&#45;&gt;industry</title>
<path fill="none" stroke="black" d="M642,-199.81C642,-166.32 642,-105.64 642,-67.43"/>
<polygon fill="black" stroke="black" points="645.5,-67.29 642,-57.29 638.5,-67.29 645.5,-67.29"/>
</g>
<!-- indigensL -->
<g id="node37" class="node">
<title>indigensL</title>
<text text-anchor="start" x="685" y="-386.3" font-family="Times New Roman,serif" font-size="14.00" fill="red">indigēns, indigent&#45;</text>
</g>
<!-- indigereL&#45;&gt;indigensL -->
<g id="edge36" class="edge">
<title>indigereL&#45;&gt;indigensL</title>
<path fill="none" stroke="black" d="M730.73,-443.7C731.5,-435.98 732.43,-426.71 733.29,-418.11"/>
<polygon fill="black" stroke="black" points="736.78,-418.4 734.29,-408.1 729.81,-417.71 736.78,-418.4"/>
</g>
<!-- indigentOF -->
<g id="node38" class="node">
<title>indigentOF</title>
<text text-anchor="start" x="701" y="-314.8" font-family="Times New Roman,serif" font-weight="bold" font-size="14.00">Old French</text>
<text text-anchor="start" x="714" y="-300.8" font-family="Times New Roman,serif" font-size="14.00" fill="red">indigent</text>
</g>
<!-- indigensL&#45;&gt;indigentOF -->
<g id="edge37" class="edge">
<title>indigensL&#45;&gt;indigentOF</title>
<path fill="none" stroke="black" d="M736,-371.91C736,-362.34 736,-350.18 736,-339.32"/>
<polygon fill="black" stroke="black" points="739.5,-339.04 736,-329.04 732.5,-339.04 739.5,-339.04"/>
</g>
<!-- indigentME -->
<g id="node39" class="node">
<title>indigentME</title>
<text text-anchor="start" x="714.5" y="-235.8" font-family="Times New Roman,serif" font-weight="bold" font-size="14.00">Middle</text>
<text text-anchor="start" x="713" y="-221.8" font-family="Times New Roman,serif" font-weight="bold" font-size="14.00">English</text>
<text text-anchor="start" x="714" y="-207.8" font-family="Times New Roman,serif" font-size="14.00" fill="red">indigent</text>
</g>
<!-- indigentOF&#45;&gt;indigentME -->
<g id="edge38" class="edge">
<title>indigentOF&#45;&gt;indigentME</title>
<path fill="none" stroke="black" stroke-dasharray="5,2" d="M736,-292.6C736,-283.27 736,-271.45 736,-260.37"/>
<polygon fill="black" stroke="black" points="739.5,-260.07 736,-250.07 732.5,-260.07 739.5,-260.07"/>
</g>
<!-- indigent -->
<g id="node40" class="node">
<title>indigent</title>
<text text-anchor="start" x="711.5" y="-42.8" font-family="Times New Roman,serif" font-weight="bold" font-size="14.00">Modern</text>
<text text-anchor="start" x="713" y="-28.8" font-family="Times New Roman,serif" font-weight="bold" font-size="14.00">English</text>
<text text-anchor="start" x="714" y="-14.8" font-family="Times New Roman,serif" font-size="14.00" fill="red">indigent</text>
</g>
<!-- indigentME&#45;&gt;indigent -->
<g id="edge39" class="edge">
<title>indigentME&#45;&gt;indigent</title>
<path fill="none" stroke="black" d="M736,-199.81C736,-166.32 736,-105.64 736,-67.43"/>
<polygon fill="black" stroke="black" points="739.5,-67.29 736,-57.29 732.5,-67.29 739.5,-67.29"/>
</g>
<!-- endo -->
<g id="node42" class="node">
<title>endo</title>
<text text-anchor="start" x="798.5" y="-49.8" font-family="Times New Roman,serif" font-weight="bold" font-size="14.00">Modern</text>
<text text-anchor="start" x="800" y="-35.8" font-family="Times New Roman,serif" font-weight="bold" font-size="14.00">English</text>
<text text-anchor="start" x="806.5" y="-21.8" font-family="Times New Roman,serif" font-size="14.00" fill="red">endo&#45;</text>
<text text-anchor="start" x="810.5" y="-7.8" font-family="Times New Roman,serif" font-size="14.00" fill="red">end&#45;</text>
</g>
<!-- endonG&#45;&gt;endo -->
<g id="edge41" class="edge">
<title>endonG&#45;&gt;endo</title>
<path fill="none" stroke="black" stroke-dasharray="5,2" d="M818.45,-522.9C820.23,-492.62 823,-437.86 823,-391 823,-391 823,-391 823,-224 823,-172.47 823,-113.13 823,-74.44"/>
<polygon fill="black" stroke="black" points="826.5,-74.1 823,-64.1 819.5,-74.1 826.5,-74.1"/>
</g>
</g>
</svg>
