<?xml version="1.0" encoding="UTF-8" standalone="no"?>
<!DOCTYPE svg PUBLIC "-//W3C//DTD SVG 1.1//EN"
 "http://www.w3.org/Graphics/SVG/1.1/DTD/svg11.dtd">
<!-- Generated by graphviz version 2.49.0 (20210828.1703)
 -->
<!-- Pages: 1 -->
<svg width="1310pt" height="944pt"
 viewBox="0.00 0.00 1309.50 944.00" xmlns="http://www.w3.org/2000/svg" xmlns:xlink="http://www.w3.org/1999/xlink">
<g id="graph0" class="graph" transform="scale(1 1) rotate(0) translate(4 940)">
<polygon fill="white" stroke="transparent" points="-4,4 -4,-940 1305.5,-940 1305.5,4 -4,4"/>
<!-- genIE -->
<g id="node1" class="node">
<title>genIE</title>
<g id="a_node1"><a xlink:href="gen-birth0.svg" xlink:title="&lt;font point&#45;size=&quot;24&quot;&gt;&lt;b&gt;Indo&#45;European&lt;/b&gt;&lt;/font&gt;&lt;br/&gt;&lt;font point&#45;size=&quot;18&quot; color=&quot;red&quot;&gt;gen(ə)&#45;, gon&#45;, gn̥&#45;&lt;/font&gt;&lt;br/&gt;&lt;font point&#45;size=&quot;16&quot;&gt;to beget, give birth, be born&lt;/font&gt;">
<path fill="none" stroke="black" stroke-dasharray="5,2" d="M874.5,-936C874.5,-936 711.5,-936 711.5,-936 705.5,-936 699.5,-930 699.5,-924 699.5,-924 699.5,-882 699.5,-882 699.5,-876 705.5,-870 711.5,-870 711.5,-870 874.5,-870 874.5,-870 880.5,-870 886.5,-876 886.5,-882 886.5,-882 886.5,-924 886.5,-924 886.5,-930 880.5,-936 874.5,-936"/>
<text text-anchor="start" x="714.5" y="-913.8" font-family="Times New Roman,serif" font-weight="bold" font-size="24.00">Indo&#45;European</text>
<text text-anchor="start" x="730" y="-894.6" font-family="Times New Roman,serif" font-size="18.00" fill="red">gen(ə)&#45;, gon&#45;, gn̥&#45;</text>
<text text-anchor="start" x="707.5" y="-878.2" font-family="Times New Roman,serif" font-size="16.00">to beget, give birth, be born</text>
</a>
</g>
</g>
<!-- geneIE -->
<g id="node2" class="node">
<title>geneIE</title>
<text text-anchor="start" x="777.5" y="-811.3" font-family="Times New Roman,serif" font-size="14.00" fill="red">genə&#45;</text>
</g>
<!-- genIE&#45;&gt;geneIE -->
<g id="edge1" class="edge">
<title>genIE&#45;&gt;geneIE</title>
<path fill="none" stroke="black" d="M793,-869.98C793,-861.25 793,-851.87 793,-843.42"/>
<polygon fill="black" stroke="black" points="796.5,-843.33 793,-833.33 789.5,-843.33 796.5,-843.33"/>
</g>
<!-- genees -->
<g id="node3" class="node">
<title>genees</title>
<text text-anchor="start" x="154.5" y="-738.3" font-family="Times New Roman,serif" font-size="14.00" fill="red">genə&#45;es&#45;</text>
</g>
<!-- geneIE&#45;&gt;genees -->
<g id="edge2" class="edge">
<title>geneIE&#45;&gt;genees</title>
<path fill="none" stroke="black" d="M765.78,-810.86C668.41,-799.62 336.98,-761.35 219.61,-747.8"/>
<polygon fill="black" stroke="black" points="219.92,-744.32 209.58,-746.65 219.11,-751.27 219.92,-744.32"/>
</g>
<!-- geneyo -->
<g id="node4" class="node">
<title>geneyo</title>
<text text-anchor="start" x="585" y="-738.3" font-family="Times New Roman,serif" font-size="14.00" fill="red">gen(ə)&#45;yo&#45;</text>
</g>
<!-- geneIE&#45;&gt;geneyo -->
<g id="edge3" class="edge">
<title>geneIE&#45;&gt;geneyo</title>
<path fill="none" stroke="black" d="M765.81,-803.22C737.95,-792.17 694.1,-774.77 660.67,-761.51"/>
<polygon fill="black" stroke="black" points="661.69,-758.15 651.1,-757.72 659.11,-764.66 661.69,-758.15"/>
</g>
<!-- genea -->
<g id="node5" class="node">
<title>genea</title>
<text text-anchor="start" x="772.5" y="-738.3" font-family="Times New Roman,serif" font-size="14.00" fill="red">genə&#45;ā&#45;</text>
</g>
<!-- geneIE&#45;&gt;genea -->
<g id="edge4" class="edge">
<title>geneIE&#45;&gt;genea</title>
<path fill="none" stroke="black" d="M793,-796.81C793,-788.79 793,-779.05 793,-770.07"/>
<polygon fill="black" stroke="black" points="796.5,-770.03 793,-760.03 789.5,-770.03 796.5,-770.03"/>
</g>
<!-- genemen -->
<g id="node6" class="node">
<title>genemen</title>
<text text-anchor="start" x="859" y="-738.3" font-family="Times New Roman,serif" font-size="14.00" fill="red">genə&#45;men&#45;</text>
</g>
<!-- geneIE&#45;&gt;genemen -->
<g id="edge5" class="edge">
<title>geneIE&#45;&gt;genemen</title>
<path fill="none" stroke="black" d="M816,-796.81C828.37,-787.57 843.79,-776.04 857.18,-766.03"/>
<polygon fill="black" stroke="black" points="859.3,-768.82 865.21,-760.03 855.11,-763.21 859.3,-768.82"/>
</g>
<!-- genewo -->
<g id="node7" class="node">
<title>genewo</title>
<text text-anchor="start" x="1005" y="-738.3" font-family="Times New Roman,serif" font-size="14.00" fill="red">genə&#45;wo&#45;</text>
</g>
<!-- geneIE&#45;&gt;genewo -->
<g id="edge6" class="edge">
<title>geneIE&#45;&gt;genewo</title>
<path fill="none" stroke="black" d="M820.3,-805.86C861.08,-793.69 938.32,-770.65 987.09,-756.1"/>
<polygon fill="black" stroke="black" points="988.16,-759.43 996.75,-753.22 986.16,-752.72 988.16,-759.43"/>
</g>
<!-- genusL -->
<g id="node8" class="node">
<title>genusL</title>
<text text-anchor="start" x="83.5" y="-618.8" font-family="Times New Roman,serif" font-weight="bold" font-size="14.00">Latin</text>
<text text-anchor="start" x="83.5" y="-604.8" font-family="Times New Roman,serif" font-size="14.00" fill="red">genus</text>
<text text-anchor="start" x="77" y="-592.4" font-family="Times New Roman,serif" font-size="12.00">race, kind</text>
</g>
<!-- genees&#45;&gt;genusL -->
<g id="edge7" class="edge">
<title>genees&#45;&gt;genusL</title>
<path fill="none" stroke="black" d="M167.8,-723.87C155.47,-703.15 134.44,-667.84 119.06,-642.02"/>
<polygon fill="black" stroke="black" points="122.01,-640.12 113.89,-633.32 115.99,-643.7 122.01,-640.12"/>
</g>
<!-- genosG -->
<g id="node10" class="node">
<title>genosG</title>
<text text-anchor="start" x="158" y="-418.8" font-family="Times New Roman,serif" font-weight="bold" font-size="14.00">Greek</text>
<text text-anchor="start" x="141.5" y="-404.8" font-family="Times New Roman,serif" font-size="14.00" fill="red">genos, geneā</text>
<text text-anchor="start" x="152" y="-392.4" font-family="Times New Roman,serif" font-size="12.00">race, family</text>
</g>
<!-- genees&#45;&gt;genosG -->
<g id="edge9" class="edge">
<title>genees&#45;&gt;genosG</title>
<path fill="none" stroke="black" d="M178,-723.67C178,-671.14 178,-513.06 178,-443.49"/>
<polygon fill="black" stroke="black" points="181.5,-443.11 178,-433.11 174.5,-443.11 181.5,-443.11"/>
</g>
<!-- geniusL -->
<g id="node14" class="node">
<title>geniusL</title>
<text text-anchor="start" x="597.5" y="-418.8" font-family="Times New Roman,serif" font-weight="bold" font-size="14.00">Latin</text>
<text text-anchor="start" x="596" y="-404.8" font-family="Times New Roman,serif" font-size="14.00" fill="red">genius</text>
<text text-anchor="start" x="584.5" y="-392.4" font-family="Times New Roman,serif" font-size="12.00">innate quality</text>
</g>
<!-- geneyo&#45;&gt;geniusL -->
<g id="edge13" class="edge">
<title>geneyo&#45;&gt;geniusL</title>
<path fill="none" stroke="black" d="M614,-723.67C614,-671.14 614,-513.06 614,-443.49"/>
<polygon fill="black" stroke="black" points="617.5,-443.11 614,-433.11 610.5,-443.11 617.5,-443.11"/>
</g>
<!-- ingeniumL -->
<g id="node15" class="node">
<title>ingeniumL</title>
<text text-anchor="start" x="435.5" y="-672.8" font-family="Times New Roman,serif" font-weight="bold" font-size="14.00">Latin</text>
<text text-anchor="start" x="427" y="-658.8" font-family="Times New Roman,serif" font-size="14.00" fill="red">ingenium</text>
</g>
<!-- geneyo&#45;&gt;ingeniumL -->
<g id="edge14" class="edge">
<title>geneyo&#45;&gt;ingeniumL</title>
<path fill="none" stroke="black" d="M576.83,-724.71C552.32,-713.97 520.13,-699.86 494.58,-688.66"/>
<polygon fill="black" stroke="black" points="495.71,-685.33 485.14,-684.53 492.9,-691.75 495.71,-685.33"/>
</g>
<!-- indigenaL -->
<g id="node40" class="node">
<title>indigenaL</title>
<text text-anchor="start" x="771.5" y="-484.8" font-family="Times New Roman,serif" font-weight="bold" font-size="14.00">Latin</text>
<text text-anchor="start" x="765" y="-470.8" font-family="Times New Roman,serif" font-size="14.00" fill="red">indigena</text>
<text text-anchor="start" x="770.5" y="-458.4" font-family="Times New Roman,serif" font-size="12.00">a native</text>
</g>
<!-- genea&#45;&gt;indigenaL -->
<g id="edge39" class="edge">
<title>genea&#45;&gt;indigenaL</title>
<path fill="none" stroke="black" d="M792.67,-723.61C791.85,-680.23 789.71,-566.64 788.63,-509.64"/>
<polygon fill="black" stroke="black" points="792.13,-509.29 788.44,-499.36 785.13,-509.42 792.13,-509.29"/>
</g>
<!-- germenL -->
<g id="node42" class="node">
<title>germenL</title>
<text text-anchor="start" x="876.5" y="-345.8" font-family="Times New Roman,serif" font-weight="bold" font-size="14.00">Latin</text>
<text text-anchor="start" x="872.5" y="-331.8" font-family="Times New Roman,serif" font-size="14.00" fill="red">germen</text>
<text text-anchor="start" x="864" y="-319.4" font-family="Times New Roman,serif" font-size="12.00">bud, embryo</text>
</g>
<!-- genemen&#45;&gt;germenL -->
<g id="edge41" class="edge">
<title>genemen&#45;&gt;germenL</title>
<path fill="none" stroke="black" d="M889.13,-723.79C889.98,-709.42 891,-688.38 891,-670 891,-670 891,-670 891,-474 891,-438.72 891.67,-398.34 892.24,-370.6"/>
<polygon fill="black" stroke="black" points="895.74,-370.34 892.45,-360.27 888.74,-370.19 895.74,-370.34"/>
</g>
<!-- ingenuusL -->
<g id="node32" class="node">
<title>ingenuusL</title>
<text text-anchor="start" x="1064.5" y="-418.8" font-family="Times New Roman,serif" font-weight="bold" font-size="14.00">Latin</text>
<text text-anchor="start" x="1056.5" y="-404.8" font-family="Times New Roman,serif" font-size="14.00" fill="red">ingenuus</text>
<text text-anchor="start" x="1044" y="-392.4" font-family="Times New Roman,serif" font-size="12.00">freeborn, honest</text>
</g>
<!-- genewo&#45;&gt;ingenuusL -->
<g id="edge31" class="edge">
<title>genewo&#45;&gt;ingenuusL</title>
<path fill="none" stroke="black" d="M1033.62,-723.67C1041.57,-671.04 1065.53,-512.41 1076.01,-443.06"/>
<polygon fill="black" stroke="black" points="1079.48,-443.52 1077.51,-433.11 1072.55,-442.48 1079.48,-443.52"/>
</g>
<!-- genus -->
<g id="node9" class="node">
<title>genus</title>
<g id="a_node9"><a xlink:href="gen-genus.svg" xlink:title="&lt;font color=&quot;red&quot;&gt;genus&lt;br/&gt;general&lt;br/&gt;generate&lt;br/&gt;generation&lt;br/&gt;generic&lt;br/&gt;generous&lt;br/&gt;gender&lt;br/&gt;genre&lt;br/&gt;congenere&lt;br/&gt;degenerate&lt;br/&gt;engender&lt;br/&gt;miscegination&lt;/font&gt;">
<path fill="none" stroke="black" stroke-dasharray="5,2" d="M80,-188C80,-188 12,-188 12,-188 6,-188 0,-182 0,-176 0,-176 0,-12 0,-12 0,-6 6,0 12,0 12,0 80,0 80,0 86,0 92,-6 92,-12 92,-12 92,-176 92,-176 92,-182 86,-188 80,-188"/>
<text text-anchor="start" x="29.5" y="-172.8" font-family="Times New Roman,serif" font-size="14.00" fill="red">genus</text>
<text text-anchor="start" x="26" y="-157.8" font-family="Times New Roman,serif" font-size="14.00" fill="red">general</text>
<text text-anchor="start" x="23" y="-142.8" font-family="Times New Roman,serif" font-size="14.00" fill="red">generate</text>
<text text-anchor="start" x="17" y="-127.8" font-family="Times New Roman,serif" font-size="14.00" fill="red">generation</text>
<text text-anchor="start" x="26" y="-112.8" font-family="Times New Roman,serif" font-size="14.00" fill="red">generic</text>
<text text-anchor="start" x="20.5" y="-97.8" font-family="Times New Roman,serif" font-size="14.00" fill="red">generous</text>
<text text-anchor="start" x="27" y="-82.8" font-family="Times New Roman,serif" font-size="14.00" fill="red">gender</text>
<text text-anchor="start" x="30.5" y="-67.8" font-family="Times New Roman,serif" font-size="14.00" fill="red">genre</text>
<text text-anchor="start" x="17" y="-52.8" font-family="Times New Roman,serif" font-size="14.00" fill="red">congenere</text>
<text text-anchor="start" x="16" y="-37.8" font-family="Times New Roman,serif" font-size="14.00" fill="red">degenerate</text>
<text text-anchor="start" x="20.5" y="-22.8" font-family="Times New Roman,serif" font-size="14.00" fill="red">engender</text>
<text text-anchor="start" x="8" y="-7.8" font-family="Times New Roman,serif" font-size="14.00" fill="red">miscegination</text>
</a>
</g>
</g>
<!-- genusL&#45;&gt;genus -->
<g id="edge8" class="edge">
<title>genusL&#45;&gt;genus</title>
<path fill="none" stroke="black" stroke-dasharray="1,5" d="M84.09,-584.84C68.16,-559.36 46,-516.61 46,-476 46,-476 46,-476 46,-255 46,-236.63 46,-217.08 46,-198.18"/>
<polygon fill="black" stroke="black" points="49.5,-198.07 46,-188.07 42.5,-198.07 49.5,-198.07"/>
</g>
<!-- genesG -->
<g id="node11" class="node">
<title>genesG</title>
<text text-anchor="start" x="221" y="-265.8" font-family="Times New Roman,serif" font-weight="bold" font-size="14.00">Greek</text>
<text text-anchor="start" x="225" y="-251.8" font-family="Times New Roman,serif" font-size="14.00" fill="red">genēs</text>
<text text-anchor="start" x="228" y="-239.4" font-family="Times New Roman,serif" font-size="12.00">&#45;born</text>
</g>
<!-- genosG&#45;&gt;genesG -->
<g id="edge10" class="edge">
<title>genosG&#45;&gt;genesG</title>
<path fill="none" stroke="black" d="M187.71,-384.74C198.33,-359.28 215.43,-318.28 227.39,-289.62"/>
<polygon fill="black" stroke="black" points="230.77,-290.62 231.39,-280.04 224.31,-287.92 230.77,-290.62"/>
</g>
<!-- genetic -->
<g id="node13" class="node">
<title>genetic</title>
<g id="a_node13"><a xlink:href="gen-gene.svg" xlink:title="&lt;font color=&quot;red&quot;&gt;gene&lt;br/&gt;genealogy&lt;br/&gt;genocide&lt;br/&gt;genotype&lt;br/&gt;allogeneic&lt;br/&gt;heterogenous&lt;/font&gt;">
<path fill="none" stroke="black" stroke-dasharray="5,2" d="M189.5,-143C189.5,-143 122.5,-143 122.5,-143 116.5,-143 110.5,-137 110.5,-131 110.5,-131 110.5,-57 110.5,-57 110.5,-51 116.5,-45 122.5,-45 122.5,-45 189.5,-45 189.5,-45 195.5,-45 201.5,-51 201.5,-57 201.5,-57 201.5,-131 201.5,-131 201.5,-137 195.5,-143 189.5,-143"/>
<text text-anchor="start" x="143" y="-127.8" font-family="Times New Roman,serif" font-size="14.00" fill="red">gene</text>
<text text-anchor="start" x="128" y="-112.8" font-family="Times New Roman,serif" font-size="14.00" fill="red">genealogy</text>
<text text-anchor="start" x="130.5" y="-97.8" font-family="Times New Roman,serif" font-size="14.00" fill="red">genocide</text>
<text text-anchor="start" x="130" y="-82.8" font-family="Times New Roman,serif" font-size="14.00" fill="red">genotype</text>
<text text-anchor="start" x="128.5" y="-67.8" font-family="Times New Roman,serif" font-size="14.00" fill="red">allogeneic</text>
<text text-anchor="start" x="118.5" y="-52.8" font-family="Times New Roman,serif" font-size="14.00" fill="red">heterogenous</text>
</a>
</g>
</g>
<!-- genosG&#45;&gt;genetic -->
<g id="edge12" class="edge">
<title>genosG&#45;&gt;genetic</title>
<path fill="none" stroke="black" stroke-dasharray="1,5" d="M176.38,-384.98C172.98,-336.64 165.01,-223.26 160.11,-153.45"/>
<polygon fill="black" stroke="black" points="163.57,-152.79 159.38,-143.06 156.59,-153.28 163.57,-152.79"/>
</g>
<!-- geny -->
<g id="node12" class="node">
<title>geny</title>
<g id="a_node12"><a xlink:href="gen-gen.svg" xlink:title="&lt;font color=&quot;red&quot;&gt;&#45;gen, &#45;genic&lt;br/&gt;&#45;geny&lt;br/&gt;epigene&lt;/font&gt;">
<path fill="none" stroke="black" stroke-dasharray="5,2" d="M290,-120.5C290,-120.5 232,-120.5 232,-120.5 226,-120.5 220,-114.5 220,-108.5 220,-108.5 220,-79.5 220,-79.5 220,-73.5 226,-67.5 232,-67.5 232,-67.5 290,-67.5 290,-67.5 296,-67.5 302,-73.5 302,-79.5 302,-79.5 302,-108.5 302,-108.5 302,-114.5 296,-120.5 290,-120.5"/>
<text text-anchor="start" x="228" y="-105.3" font-family="Times New Roman,serif" font-size="14.00" fill="red">&#45;gen, &#45;genic</text>
<text text-anchor="start" x="245.5" y="-90.3" font-family="Times New Roman,serif" font-size="14.00" fill="red">&#45;geny</text>
<text text-anchor="start" x="239.5" y="-75.3" font-family="Times New Roman,serif" font-size="14.00" fill="red">epigene</text>
</a>
</g>
</g>
<!-- genesG&#45;&gt;geny -->
<g id="edge11" class="edge">
<title>genesG&#45;&gt;geny</title>
<path fill="none" stroke="black" stroke-dasharray="1,5" d="M243.91,-231.73C247.23,-205.18 252.69,-161.45 256.55,-130.6"/>
<polygon fill="black" stroke="black" points="260.02,-131.04 257.79,-120.68 253.08,-130.17 260.02,-131.04"/>
</g>
<!-- geniusME -->
<g id="node16" class="node">
<title>geniusME</title>
<text text-anchor="start" x="505.5" y="-272.8" font-family="Times New Roman,serif" font-weight="bold" font-size="14.00">Middle</text>
<text text-anchor="start" x="504" y="-258.8" font-family="Times New Roman,serif" font-weight="bold" font-size="14.00">English</text>
<text text-anchor="start" x="509" y="-244.8" font-family="Times New Roman,serif" font-size="14.00" fill="red">genius</text>
<text text-anchor="start" x="495" y="-232.4" font-family="Times New Roman,serif" font-size="12.00">guardian spirit</text>
</g>
<!-- geniusL&#45;&gt;geniusME -->
<g id="edge15" class="edge">
<title>geniusL&#45;&gt;geniusME</title>
<path fill="none" stroke="black" stroke-dasharray="1,5" d="M600.6,-384.74C586.96,-361.07 565.59,-323.98 549.38,-295.85"/>
<polygon fill="black" stroke="black" points="552.34,-293.98 544.32,-287.06 546.28,-297.47 552.34,-293.98"/>
</g>
<!-- genialisL -->
<g id="node18" class="node">
<title>genialisL</title>
<text text-anchor="start" x="593.5" y="-258.8" font-family="Times New Roman,serif" font-size="14.00" fill="red">geniālis</text>
<text text-anchor="start" x="599.5" y="-246.4" font-family="Times New Roman,serif" font-size="12.00">festive</text>
</g>
<!-- geniusL&#45;&gt;genialisL -->
<g id="edge17" class="edge">
<title>geniusL&#45;&gt;genialisL</title>
<path fill="none" stroke="black" d="M614,-384.74C614,-357.74 614,-313.27 614,-284.57"/>
<polygon fill="black" stroke="black" points="617.5,-284.4 614,-274.4 610.5,-284.4 617.5,-284.4"/>
</g>
<!-- congenial -->
<g id="node24" class="node">
<title>congenial</title>
<text text-anchor="start" x="672.5" y="-104.8" font-family="Times New Roman,serif" font-weight="bold" font-size="14.00">Modern</text>
<text text-anchor="start" x="674" y="-90.8" font-family="Times New Roman,serif" font-weight="bold" font-size="14.00">English</text>
<text text-anchor="start" x="670.5" y="-76.8" font-family="Times New Roman,serif" font-size="14.00" fill="red">congenial</text>
</g>
<!-- geniusL&#45;&gt;congenial -->
<g id="edge23" class="edge">
<title>geniusL&#45;&gt;congenial</title>
<path fill="none" stroke="black" stroke-dasharray="1,5" d="M622.19,-384.65C624.15,-378.9 626.2,-372.74 628,-367 654.51,-282.65 678.11,-181.18 689.61,-129.27"/>
<polygon fill="black" stroke="black" points="693.08,-129.79 691.81,-119.27 686.24,-128.28 693.08,-129.79"/>
</g>
<!-- ingeniosus -->
<g id="node25" class="node">
<title>ingeniosus</title>
<text text-anchor="start" x="422.5" y="-538.3" font-family="Times New Roman,serif" font-size="14.00" fill="red">ingeniōsus</text>
</g>
<!-- ingeniumL&#45;&gt;ingeniosus -->
<g id="edge24" class="edge">
<title>ingeniumL&#45;&gt;ingeniosus</title>
<path fill="none" stroke="black" d="M452,-650.88C452,-630.15 452,-594.95 452,-570.42"/>
<polygon fill="black" stroke="black" points="455.5,-570.31 452,-560.31 448.5,-570.31 455.5,-570.31"/>
</g>
<!-- enginOF -->
<g id="node29" class="node">
<title>enginOF</title>
<text text-anchor="start" x="318" y="-551.8" font-family="Times New Roman,serif" font-weight="bold" font-size="14.00">Old French</text>
<text text-anchor="start" x="338" y="-537.8" font-family="Times New Roman,serif" font-size="14.00" fill="red">engin</text>
<text text-anchor="start" x="325" y="-525.4" font-family="Times New Roman,serif" font-size="12.00">innate ability</text>
</g>
<!-- ingeniumL&#45;&gt;enginOF -->
<g id="edge28" class="edge">
<title>ingeniumL&#45;&gt;enginOF</title>
<path fill="none" stroke="black" d="M438.44,-650.88C422.84,-631.18 396.89,-598.42 377.68,-574.16"/>
<polygon fill="black" stroke="black" points="380.4,-571.95 371.44,-566.29 374.91,-576.3 380.4,-571.95"/>
</g>
<!-- genius -->
<g id="node17" class="node">
<title>genius</title>
<text text-anchor="start" x="502.5" y="-104.8" font-family="Times New Roman,serif" font-weight="bold" font-size="14.00">Modern</text>
<text text-anchor="start" x="504" y="-90.8" font-family="Times New Roman,serif" font-weight="bold" font-size="14.00">English</text>
<text text-anchor="start" x="509" y="-76.8" font-family="Times New Roman,serif" font-size="14.00" fill="red">genius</text>
</g>
<!-- geniusME&#45;&gt;genius -->
<g id="edge16" class="edge">
<title>geniusME&#45;&gt;genius</title>
<path fill="none" stroke="black" d="M527,-224.91C527,-197.77 527,-157.89 527,-129.49"/>
<polygon fill="black" stroke="black" points="530.5,-129.21 527,-119.21 523.5,-129.21 530.5,-129.21"/>
</g>
<!-- genial -->
<g id="node19" class="node">
<title>genial</title>
<text text-anchor="start" x="587.5" y="-104.8" font-family="Times New Roman,serif" font-weight="bold" font-size="14.00">Modern</text>
<text text-anchor="start" x="589" y="-90.8" font-family="Times New Roman,serif" font-weight="bold" font-size="14.00">English</text>
<text text-anchor="start" x="596" y="-76.8" font-family="Times New Roman,serif" font-size="14.00" fill="red">genial</text>
</g>
<!-- genialisL&#45;&gt;genial -->
<g id="edge18" class="edge">
<title>genialisL&#45;&gt;genial</title>
<path fill="none" stroke="black" stroke-dasharray="1,5" d="M613.79,-237.88C613.46,-212.13 612.85,-162.89 612.43,-129.5"/>
<polygon fill="black" stroke="black" points="615.93,-129.22 612.3,-119.27 608.93,-129.31 615.93,-129.22"/>
</g>
<!-- komIE -->
<g id="node20" class="node">
<title>komIE</title>
<g id="a_node20"><a xlink:href="kom-with.svg" xlink:title="&lt;font color=&quot;red&quot;&gt;kom&lt;/font&gt;&lt;br/&gt;&lt;font point&#45;size=&quot;12&quot;&gt;with, near&lt;/font&gt;">
<path fill="none" stroke="black" stroke-dasharray="5,2" d="M734.5,-760C734.5,-760 697.5,-760 697.5,-760 691.5,-760 685.5,-754 685.5,-748 685.5,-748 685.5,-736 685.5,-736 685.5,-730 691.5,-724 697.5,-724 697.5,-724 734.5,-724 734.5,-724 740.5,-724 746.5,-730 746.5,-736 746.5,-736 746.5,-748 746.5,-748 746.5,-754 740.5,-760 734.5,-760"/>
<text text-anchor="start" x="703.5" y="-744.8" font-family="Times New Roman,serif" font-size="14.00" fill="red">kom</text>
<text text-anchor="start" x="693.5" y="-732.4" font-family="Times New Roman,serif" font-size="12.00">with, near</text>
</a>
</g>
</g>
<!-- comL -->
<g id="node21" class="node">
<title>comL</title>
<text text-anchor="start" x="701.5" y="-672.8" font-family="Times New Roman,serif" font-weight="bold" font-size="14.00">Latin</text>
<text text-anchor="start" x="703" y="-658.8" font-family="Times New Roman,serif" font-size="14.00" fill="red">com&#45;</text>
</g>
<!-- komIE&#45;&gt;comL -->
<g id="edge19" class="edge">
<title>komIE&#45;&gt;comL</title>
<path fill="none" stroke="black" d="M716.48,-723.81C716.71,-715.79 716.98,-706.05 717.24,-697.07"/>
<polygon fill="black" stroke="black" points="720.74,-697.12 717.52,-687.03 713.74,-696.93 720.74,-697.12"/>
</g>
<!-- comME -->
<g id="node22" class="node">
<title>comME</title>
<text text-anchor="start" x="701.5" y="-552.8" font-family="Times New Roman,serif" font-weight="bold" font-size="14.00">Middle</text>
<text text-anchor="start" x="700" y="-538.8" font-family="Times New Roman,serif" font-weight="bold" font-size="14.00">English</text>
<text text-anchor="start" x="708" y="-524.8" font-family="Times New Roman,serif" font-size="14.00" fill="red">com&#45;</text>
</g>
<!-- comL&#45;&gt;comME -->
<g id="edge20" class="edge">
<title>comL&#45;&gt;comME</title>
<path fill="none" stroke="black" stroke-dasharray="1,5" d="M718.68,-650.88C719.44,-632.01 720.67,-601.16 721.63,-577.28"/>
<polygon fill="black" stroke="black" points="725.13,-577.32 722.03,-567.19 718.14,-577.04 725.13,-577.32"/>
</g>
<!-- comE -->
<g id="node23" class="node">
<title>comE</title>
<text text-anchor="start" x="701.5" y="-346.8" font-family="Times New Roman,serif" font-weight="bold" font-size="14.00">Modern</text>
<text text-anchor="start" x="703" y="-332.8" font-family="Times New Roman,serif" font-weight="bold" font-size="14.00">English</text>
<text text-anchor="start" x="694.5" y="-318.8" font-family="Times New Roman,serif" font-size="14.00" fill="red">com&#45;, con&#45;</text>
</g>
<!-- comME&#45;&gt;comE -->
<g id="edge21" class="edge">
<title>comME&#45;&gt;comE</title>
<path fill="none" stroke="black" d="M723.36,-516.8C723.89,-480.68 724.89,-412.52 725.5,-371.29"/>
<polygon fill="black" stroke="black" points="729,-371.22 725.64,-361.17 722,-371.12 729,-371.22"/>
</g>
<!-- comE&#45;&gt;congenial -->
<g id="edge22" class="edge">
<title>comE&#45;&gt;congenial</title>
<path fill="none" stroke="black" d="M723.06,-310.67C717.87,-267.7 707.07,-178.3 701.13,-129.17"/>
<polygon fill="black" stroke="black" points="704.58,-128.55 699.9,-119.04 697.63,-129.39 704.58,-128.55"/>
</g>
<!-- ingeniosOF -->
<g id="node26" class="node">
<title>ingeniosOF</title>
<text text-anchor="start" x="403" y="-412.8" font-family="Times New Roman,serif" font-weight="bold" font-size="14.00">Old French</text>
<text text-anchor="start" x="415" y="-398.8" font-family="Times New Roman,serif" font-size="14.00" fill="red">ingenios</text>
</g>
<!-- ingeniosus&#45;&gt;ingeniosOF -->
<g id="edge25" class="edge">
<title>ingeniosus&#45;&gt;ingeniosOF</title>
<path fill="none" stroke="black" d="M450.17,-523.87C447.81,-501.81 443.68,-463.19 440.9,-437.12"/>
<polygon fill="black" stroke="black" points="444.37,-436.7 439.83,-427.13 437.41,-437.45 444.37,-436.7"/>
</g>
<!-- ingeniousME -->
<g id="node27" class="node">
<title>ingeniousME</title>
<text text-anchor="start" x="412.5" y="-266.8" font-family="Times New Roman,serif" font-weight="bold" font-size="14.00">Middle</text>
<text text-anchor="start" x="411" y="-252.8" font-family="Times New Roman,serif" font-weight="bold" font-size="14.00">English</text>
<text text-anchor="start" x="407.5" y="-238.8" font-family="Times New Roman,serif" font-size="14.00" fill="red">ingenious</text>
</g>
<!-- ingeniosOF&#45;&gt;ingeniousME -->
<g id="edge26" class="edge">
<title>ingeniosOF&#45;&gt;ingeniousME</title>
<path fill="none" stroke="black" stroke-dasharray="1,5" d="M437.55,-390.97C436.91,-366.96 435.74,-322.62 434.92,-291.55"/>
<polygon fill="black" stroke="black" points="438.4,-291.07 434.64,-281.17 431.41,-291.26 438.4,-291.07"/>
</g>
<!-- ingenious -->
<g id="node28" class="node">
<title>ingenious</title>
<text text-anchor="start" x="413.5" y="-104.8" font-family="Times New Roman,serif" font-weight="bold" font-size="14.00">Modern</text>
<text text-anchor="start" x="415" y="-90.8" font-family="Times New Roman,serif" font-weight="bold" font-size="14.00">English</text>
<text text-anchor="start" x="411.5" y="-76.8" font-family="Times New Roman,serif" font-size="14.00" fill="red">ingenious</text>
</g>
<!-- ingeniousME&#45;&gt;ingenious -->
<g id="edge27" class="edge">
<title>ingeniousME&#45;&gt;ingenious</title>
<path fill="none" stroke="black" d="M434.61,-230.7C435.28,-203.64 436.38,-159.71 437.15,-129.19"/>
<polygon fill="black" stroke="black" points="440.65,-129.09 437.4,-119 433.65,-128.91 440.65,-129.09"/>
</g>
<!-- enginME -->
<g id="node30" class="node">
<title>enginME</title>
<text text-anchor="start" x="331.5" y="-352.8" font-family="Times New Roman,serif" font-weight="bold" font-size="14.00">Middle</text>
<text text-anchor="start" x="330" y="-338.8" font-family="Times New Roman,serif" font-weight="bold" font-size="14.00">English</text>
<text text-anchor="start" x="338" y="-324.8" font-family="Times New Roman,serif" font-size="14.00" fill="red">engin</text>
<text text-anchor="start" x="322.5" y="-312.4" font-family="Times New Roman,serif" font-size="12.00">skill, machine</text>
</g>
<!-- enginOF&#45;&gt;enginME -->
<g id="edge29" class="edge">
<title>enginOF&#45;&gt;enginME</title>
<path fill="none" stroke="black" stroke-dasharray="1,5" d="M353,-518C353,-483.89 353,-419.44 353,-377.37"/>
<polygon fill="black" stroke="black" points="356.5,-377.18 353,-367.18 349.5,-377.18 356.5,-377.18"/>
</g>
<!-- engine -->
<g id="node31" class="node">
<title>engine</title>
<text text-anchor="start" x="328.5" y="-104.8" font-family="Times New Roman,serif" font-weight="bold" font-size="14.00">Modern</text>
<text text-anchor="start" x="330" y="-90.8" font-family="Times New Roman,serif" font-weight="bold" font-size="14.00">English</text>
<text text-anchor="start" x="335" y="-76.8" font-family="Times New Roman,serif" font-size="14.00" fill="red">engine</text>
</g>
<!-- enginME&#45;&gt;engine -->
<g id="edge30" class="edge">
<title>enginME&#45;&gt;engine</title>
<path fill="none" stroke="black" d="M353,-304.6C353,-259.79 353,-176.22 353,-129.28"/>
<polygon fill="black" stroke="black" points="356.5,-129.01 353,-119.01 349.5,-129.01 356.5,-129.01"/>
</g>
<!-- ingenuitasL -->
<g id="node33" class="node">
<title>ingenuitasL</title>
<text text-anchor="start" x="1053.5" y="-258.8" font-family="Times New Roman,serif" font-size="14.00" fill="red">ingenuitās</text>
<text text-anchor="start" x="1059.5" y="-246.4" font-family="Times New Roman,serif" font-size="12.00">frankness</text>
</g>
<!-- ingenuusL&#45;&gt;ingenuitasL -->
<g id="edge32" class="edge">
<title>ingenuusL&#45;&gt;ingenuitasL</title>
<path fill="none" stroke="black" d="M1081,-384.74C1081,-357.74 1081,-313.27 1081,-284.57"/>
<polygon fill="black" stroke="black" points="1084.5,-284.4 1081,-274.4 1077.5,-284.4 1084.5,-284.4"/>
</g>
<!-- ingenuous -->
<g id="node34" class="node">
<title>ingenuous</title>
<text text-anchor="start" x="1149.5" y="-111.8" font-family="Times New Roman,serif" font-weight="bold" font-size="14.00">Modern</text>
<text text-anchor="start" x="1151" y="-97.8" font-family="Times New Roman,serif" font-weight="bold" font-size="14.00">English</text>
<text text-anchor="start" x="1145.5" y="-83.8" font-family="Times New Roman,serif" font-size="14.00" fill="red">ingenuous</text>
<text text-anchor="start" x="1137.5" y="-69.8" font-family="Times New Roman,serif" font-size="14.00" fill="red">disingenuous</text>
</g>
<!-- ingenuusL&#45;&gt;ingenuous -->
<g id="edge33" class="edge">
<title>ingenuusL&#45;&gt;ingenuous</title>
<path fill="none" stroke="black" stroke-dasharray="1,5" d="M1090.58,-384.62C1100.27,-360.44 1115.32,-321.47 1126,-287 1141.92,-235.63 1156.31,-175.31 1165.1,-136.18"/>
<polygon fill="black" stroke="black" points="1168.56,-136.74 1167.32,-126.22 1161.73,-135.22 1168.56,-136.74"/>
</g>
<!-- ingenuF -->
<g id="node36" class="node">
<title>ingenuF</title>
<text text-anchor="start" x="1230" y="-272.8" font-family="Times New Roman,serif" font-weight="bold" font-size="14.00">French</text>
<text text-anchor="start" x="1232" y="-258.8" font-family="Times New Roman,serif" font-size="14.00" fill="red">ingénu,</text>
<text text-anchor="start" x="1230.5" y="-244.8" font-family="Times New Roman,serif" font-size="14.00" fill="red">ingénue</text>
<text text-anchor="start" x="1233.5" y="-232.4" font-family="Times New Roman,serif" font-size="12.00">guileless</text>
</g>
<!-- ingenuusL&#45;&gt;ingenuF -->
<g id="edge35" class="edge">
<title>ingenuusL&#45;&gt;ingenuF</title>
<path fill="none" stroke="black" d="M1126.23,-398.04C1146.81,-391.77 1170.42,-381.95 1188,-367 1210.04,-348.25 1226.28,-319.9 1236.88,-296.68"/>
<polygon fill="black" stroke="black" points="1240.14,-297.97 1240.95,-287.41 1233.73,-295.16 1240.14,-297.97"/>
</g>
<!-- genuinusL -->
<g id="node38" class="node">
<title>genuinusL</title>
<text text-anchor="start" x="968.5" y="-258.8" font-family="Times New Roman,serif" font-size="14.00" fill="red">genuīnus</text>
<text text-anchor="start" x="978.5" y="-246.4" font-family="Times New Roman,serif" font-size="12.00">natural</text>
</g>
<!-- ingenuusL&#45;&gt;genuinusL -->
<g id="edge37" class="edge">
<title>ingenuusL&#45;&gt;genuinusL</title>
<path fill="none" stroke="black" d="M1067.6,-384.74C1051.84,-357.39 1025.74,-312.09 1009.23,-283.44"/>
<polygon fill="black" stroke="black" points="1012.05,-281.32 1004.03,-274.4 1005.99,-284.82 1012.05,-281.32"/>
<text text-anchor="middle" x="1058.5" y="-332.3" font-family="Times New Roman,serif" font-size="14.00">?</text>
<polyline fill="none" stroke="black" points="1062,-328.5 1055,-328.5 1044.36,-344.41 "/>
</g>
<!-- ingenuity -->
<g id="node35" class="node">
<title>ingenuity</title>
<text text-anchor="start" x="1053.5" y="-104.8" font-family="Times New Roman,serif" font-weight="bold" font-size="14.00">Modern</text>
<text text-anchor="start" x="1055" y="-90.8" font-family="Times New Roman,serif" font-weight="bold" font-size="14.00">English</text>
<text text-anchor="start" x="1053" y="-76.8" font-family="Times New Roman,serif" font-size="14.00" fill="red">ingenuity</text>
</g>
<!-- ingenuitasL&#45;&gt;ingenuity -->
<g id="edge34" class="edge">
<title>ingenuitasL&#45;&gt;ingenuity</title>
<path fill="none" stroke="black" stroke-dasharray="1,5" d="M1080.68,-237.88C1080.2,-212.13 1079.27,-162.89 1078.65,-129.5"/>
<polygon fill="black" stroke="black" points="1082.14,-129.2 1078.46,-119.27 1075.14,-129.33 1082.14,-129.2"/>
</g>
<!-- ingenue -->
<g id="node37" class="node">
<title>ingenue</title>
<text text-anchor="start" x="1244.5" y="-104.8" font-family="Times New Roman,serif" font-weight="bold" font-size="14.00">Modern</text>
<text text-anchor="start" x="1246" y="-90.8" font-family="Times New Roman,serif" font-weight="bold" font-size="14.00">English</text>
<text text-anchor="start" x="1247.5" y="-76.8" font-family="Times New Roman,serif" font-size="14.00" fill="red">ingenue</text>
</g>
<!-- ingenuF&#45;&gt;ingenue -->
<g id="edge36" class="edge">
<title>ingenuF&#45;&gt;ingenue</title>
<path fill="none" stroke="black" stroke-dasharray="1,5" d="M1255.2,-224.91C1258.08,-197.77 1262.32,-157.89 1265.34,-129.49"/>
<polygon fill="black" stroke="black" points="1268.85,-129.52 1266.43,-119.21 1261.89,-128.79 1268.85,-129.52"/>
</g>
<!-- genuine -->
<g id="node39" class="node">
<title>genuine</title>
<text text-anchor="start" x="969.5" y="-104.8" font-family="Times New Roman,serif" font-weight="bold" font-size="14.00">Modern</text>
<text text-anchor="start" x="971" y="-90.8" font-family="Times New Roman,serif" font-weight="bold" font-size="14.00">English</text>
<text text-anchor="start" x="972.5" y="-76.8" font-family="Times New Roman,serif" font-size="14.00" fill="red">genuine</text>
</g>
<!-- genuinusL&#45;&gt;genuine -->
<g id="edge38" class="edge">
<title>genuinusL&#45;&gt;genuine</title>
<path fill="none" stroke="black" d="M994,-237.88C994,-212.13 994,-162.89 994,-129.5"/>
<polygon fill="black" stroke="black" points="997.5,-129.27 994,-119.27 990.5,-129.27 997.5,-129.27"/>
</g>
<!-- indigenous -->
<g id="node41" class="node">
<title>indigenous</title>
<text text-anchor="start" x="763.5" y="-104.8" font-family="Times New Roman,serif" font-weight="bold" font-size="14.00">Modern</text>
<text text-anchor="start" x="765" y="-90.8" font-family="Times New Roman,serif" font-weight="bold" font-size="14.00">English</text>
<text text-anchor="start" x="757.5" y="-76.8" font-family="Times New Roman,serif" font-size="14.00" fill="red">indigenous</text>
</g>
<!-- indigenaL&#45;&gt;indigenous -->
<g id="edge40" class="edge">
<title>indigenaL&#45;&gt;indigenous</title>
<path fill="none" stroke="black" stroke-dasharray="1,5" d="M788,-450.86C788,-386.55 788,-205.38 788,-129.31"/>
<polygon fill="black" stroke="black" points="791.5,-129.29 788,-119.29 784.5,-129.29 791.5,-129.29"/>
</g>
<!-- germ -->
<g id="node43" class="node">
<title>germ</title>
<g id="a_node43"><a xlink:href="gen-gnasci.svg" xlink:title="&lt;font color=&quot;red&quot;&gt;germ&lt;br/&gt;germane&lt;br/&gt;germinal&lt;br/&gt;germinate&lt;br/&gt;cousin&#45;german&lt;/font&gt;">
<path fill="none" stroke="black" stroke-dasharray="5,2" d="M931,-135.5C931,-135.5 857,-135.5 857,-135.5 851,-135.5 845,-129.5 845,-123.5 845,-123.5 845,-64.5 845,-64.5 845,-58.5 851,-52.5 857,-52.5 857,-52.5 931,-52.5 931,-52.5 937,-52.5 943,-58.5 943,-64.5 943,-64.5 943,-123.5 943,-123.5 943,-129.5 937,-135.5 931,-135.5"/>
<text text-anchor="start" x="880" y="-120.3" font-family="Times New Roman,serif" font-size="14.00" fill="red">germ</text>
<text text-anchor="start" x="870.5" y="-105.3" font-family="Times New Roman,serif" font-size="14.00" fill="red">germane</text>
<text text-anchor="start" x="870.5" y="-90.3" font-family="Times New Roman,serif" font-size="14.00" fill="red">germinal</text>
<text text-anchor="start" x="867" y="-75.3" font-family="Times New Roman,serif" font-size="14.00" fill="red">germinate</text>
<text text-anchor="start" x="853" y="-60.3" font-family="Times New Roman,serif" font-size="14.00" fill="red">cousin&#45;german</text>
</a>
</g>
</g>
<!-- germenL&#45;&gt;germ -->
<g id="edge42" class="edge">
<title>germenL&#45;&gt;germ</title>
<path fill="none" stroke="black" stroke-dasharray="1,5" d="M893.1,-311.99C893.25,-274.01 893.57,-197.32 893.79,-146.05"/>
<polygon fill="black" stroke="black" points="897.29,-145.85 893.83,-135.84 890.29,-145.82 897.29,-145.85"/>
</g>
</g>
</svg>
