<?xml version="1.0" encoding="UTF-8" standalone="no"?>
<!DOCTYPE svg PUBLIC "-//W3C//DTD SVG 1.1//EN"
 "http://www.w3.org/Graphics/SVG/1.1/DTD/svg11.dtd">
<!-- Generated by graphviz version 2.49.0 (20210828.1703)
 -->
<!-- Pages: 1 -->
<svg width="648pt" height="833pt"
 viewBox="0.00 0.00 647.50 833.00" xmlns="http://www.w3.org/2000/svg" xmlns:xlink="http://www.w3.org/1999/xlink">
<g id="graph0" class="graph" transform="scale(1 1) rotate(0) translate(4 829)">
<polygon fill="white" stroke="transparent" points="-4,4 -4,-829 643.5,-829 643.5,4 -4,4"/>
<!-- genIE -->
<g id="node1" class="node">
<title>genIE</title>
<g id="a_node1"><a xlink:href="gen-birth3.svg" xlink:title="&lt;font point&#45;size=&quot;24&quot;&gt;&lt;b&gt;Indo&#45;European&lt;/b&gt;&lt;/font&gt;&lt;br/&gt;&lt;font point&#45;size=&quot;18&quot; color=&quot;red&quot;&gt;gen(ə)&#45;, gon&#45;, gn̥&#45;&lt;/font&gt;&lt;br/&gt;&lt;font point&#45;size=&quot;16&quot;&gt;to beget, give birth, be born&lt;/font&gt;">
<path fill="none" stroke="black" stroke-dasharray="5,2" d="M434,-825C434,-825 271,-825 271,-825 265,-825 259,-819 259,-813 259,-813 259,-771 259,-771 259,-765 265,-759 271,-759 271,-759 434,-759 434,-759 440,-759 446,-765 446,-771 446,-771 446,-813 446,-813 446,-819 440,-825 434,-825"/>
<text text-anchor="start" x="274" y="-802.8" font-family="Times New Roman,serif" font-weight="bold" font-size="24.00">Indo&#45;European</text>
<text text-anchor="start" x="289.5" y="-783.6" font-family="Times New Roman,serif" font-size="18.00" fill="red">gen(ə)&#45;, gon&#45;, gn̥&#45;</text>
<text text-anchor="start" x="267" y="-767.2" font-family="Times New Roman,serif" font-size="16.00">to beget, give birth, be born</text>
</a>
</g>
</g>
<!-- gigne -->
<g id="node2" class="node">
<title>gigne</title>
<text text-anchor="start" x="331" y="-687.3" font-family="Times New Roman,serif" font-size="14.00" fill="red">gi&#45;gn(ə)</text>
</g>
<!-- genIE&#45;&gt;gigne -->
<g id="edge1" class="edge">
<title>genIE&#45;&gt;gigne</title>
<path fill="none" stroke="black" d="M352.5,-758.86C352.5,-746.02 352.5,-731.4 352.5,-719.11"/>
<polygon fill="black" stroke="black" points="356,-719.01 352.5,-709.01 349,-719.01 356,-719.01"/>
</g>
<!-- gignereL -->
<g id="node3" class="node">
<title>gignereL</title>
<text text-anchor="start" x="336" y="-608.8" font-family="Times New Roman,serif" font-weight="bold" font-size="14.00">Latin</text>
<text text-anchor="start" x="332.5" y="-594.8" font-family="Times New Roman,serif" font-size="14.00" fill="red">gignere</text>
<text text-anchor="start" x="334" y="-582.4" font-family="Times New Roman,serif" font-size="12.00">to beget</text>
</g>
<!-- gigne&#45;&gt;gignereL -->
<g id="edge2" class="edge">
<title>gigne&#45;&gt;gignereL</title>
<path fill="none" stroke="black" d="M352.5,-672.65C352.5,-661.52 352.5,-646.72 352.5,-633.38"/>
<polygon fill="black" stroke="black" points="356,-633.09 352.5,-623.09 349,-633.09 356,-633.09"/>
</g>
<!-- genitusL -->
<g id="node4" class="node">
<title>genitusL</title>
<text text-anchor="start" x="286.5" y="-481.3" font-family="Times New Roman,serif" font-size="14.00" fill="red">genitus</text>
</g>
<!-- gignereL&#45;&gt;genitusL -->
<g id="edge3" class="edge">
<title>gignereL&#45;&gt;genitusL</title>
<path fill="none" stroke="black" d="M342.97,-574.79C335.53,-556.68 325.19,-531.5 317.41,-512.57"/>
<polygon fill="black" stroke="black" points="320.65,-511.24 313.61,-503.32 314.18,-513.9 320.65,-511.24"/>
</g>
<!-- progignereL -->
<g id="node13" class="node">
<title>progignereL</title>
<text text-anchor="start" x="435.5" y="-487.8" font-family="Times New Roman,serif" font-size="14.00" fill="red">prōgignere</text>
<text text-anchor="start" x="447" y="-475.4" font-family="Times New Roman,serif" font-size="12.00">to beget</text>
</g>
<!-- gignereL&#45;&gt;progignereL -->
<g id="edge11" class="edge">
<title>gignereL&#45;&gt;progignereL</title>
<path fill="none" stroke="black" d="M375.91,-574.79C394.86,-556.01 421.47,-529.64 440.76,-510.52"/>
<polygon fill="black" stroke="black" points="443.39,-512.85 448.03,-503.32 438.46,-507.87 443.39,-512.85"/>
</g>
<!-- genitalisL -->
<g id="node5" class="node">
<title>genitalisL</title>
<text text-anchor="start" x="324" y="-367.3" font-family="Times New Roman,serif" font-size="14.00" fill="red">genitālis</text>
</g>
<!-- genitusL&#45;&gt;genitalisL -->
<g id="edge4" class="edge">
<title>genitusL&#45;&gt;genitalisL</title>
<path fill="none" stroke="black" d="M312.58,-466.99C319.04,-448.9 329.35,-420.03 336.91,-398.86"/>
<polygon fill="black" stroke="black" points="340.3,-399.77 340.37,-389.17 333.71,-397.41 340.3,-399.77"/>
</g>
<!-- genetivusL -->
<g id="node8" class="node">
<title>genetivusL</title>
<text text-anchor="start" x="403.5" y="-367.3" font-family="Times New Roman,serif" font-size="14.00" fill="red">genetīvus</text>
</g>
<!-- genitusL&#45;&gt;genetivusL -->
<g id="edge7" class="edge">
<title>genitusL&#45;&gt;genetivusL</title>
<path fill="none" stroke="black" d="M325.33,-466.99C346.27,-448.08 380.25,-417.38 403.9,-396.03"/>
<polygon fill="black" stroke="black" points="406.41,-398.47 411.49,-389.17 401.72,-393.28 406.41,-398.47"/>
</g>
<!-- genituraL -->
<g id="node22" class="node">
<title>genituraL</title>
<text text-anchor="start" x="245.5" y="-367.3" font-family="Times New Roman,serif" font-size="14.00" fill="red">genitūra</text>
</g>
<!-- genitusL&#45;&gt;genituraL -->
<g id="edge21" class="edge">
<title>genitusL&#45;&gt;genituraL</title>
<path fill="none" stroke="black" d="M300.58,-466.99C294.28,-448.9 284.23,-420.03 276.85,-398.86"/>
<polygon fill="black" stroke="black" points="280.07,-397.46 273.48,-389.17 273.46,-399.77 280.07,-397.46"/>
</g>
<!-- congenitusL -->
<g id="node27" class="node">
<title>congenitusL</title>
<text text-anchor="start" x="8" y="-367.3" font-family="Times New Roman,serif" font-size="14.00" fill="red">congenitus</text>
</g>
<!-- genitusL&#45;&gt;congenitusL -->
<g id="edge26" class="edge">
<title>genitusL&#45;&gt;congenitusL</title>
<path fill="none" stroke="black" d="M278.41,-484.07C239.41,-483.06 167.67,-477.1 114.5,-449 91.09,-436.63 70.43,-414.54 56.57,-397.19"/>
<polygon fill="black" stroke="black" points="59.22,-394.89 50.34,-389.11 53.68,-399.16 59.22,-394.89"/>
</g>
<!-- gentOF -->
<g id="node29" class="node">
<title>gentOF</title>
<text text-anchor="start" x="141.5" y="-380.8" font-family="Times New Roman,serif" font-weight="bold" font-size="14.00">Old French</text>
<text text-anchor="start" x="164.5" y="-366.8" font-family="Times New Roman,serif" font-size="14.00" fill="red">gent</text>
<text text-anchor="start" x="154.5" y="-354.4" font-family="Times New Roman,serif" font-size="12.00">well&#45;born</text>
</g>
<!-- genitusL&#45;&gt;gentOF -->
<g id="edge29" class="edge">
<title>genitusL&#45;&gt;gentOF</title>
<path fill="none" stroke="black" d="M286.76,-466.99C266.63,-449.65 235.01,-422.41 210.79,-401.54"/>
<polygon fill="black" stroke="black" points="213.07,-398.88 203.21,-395.01 208.5,-404.19 213.07,-398.88"/>
</g>
<!-- genitalME -->
<g id="node6" class="node">
<title>genitalME</title>
<text text-anchor="start" x="325" y="-204.8" font-family="Times New Roman,serif" font-weight="bold" font-size="14.00">Middle</text>
<text text-anchor="start" x="323.5" y="-190.8" font-family="Times New Roman,serif" font-weight="bold" font-size="14.00">English</text>
<text text-anchor="start" x="328.5" y="-176.8" font-family="Times New Roman,serif" font-size="14.00" fill="red">genital</text>
</g>
<!-- genitalisL&#45;&gt;genitalME -->
<g id="edge5" class="edge">
<title>genitalisL&#45;&gt;genitalME</title>
<path fill="none" stroke="black" stroke-dasharray="5,2" d="M346.5,-352.9C346.5,-324.41 346.5,-266.68 346.5,-229.48"/>
<polygon fill="black" stroke="black" points="350,-229.11 346.5,-219.11 343,-229.11 350,-229.11"/>
</g>
<!-- genital -->
<g id="node7" class="node">
<title>genital</title>
<text text-anchor="start" x="322" y="-35.8" font-family="Times New Roman,serif" font-weight="bold" font-size="14.00">Modern</text>
<text text-anchor="start" x="323.5" y="-21.8" font-family="Times New Roman,serif" font-weight="bold" font-size="14.00">English</text>
<text text-anchor="start" x="328.5" y="-7.8" font-family="Times New Roman,serif" font-size="14.00" fill="red">genital</text>
</g>
<!-- genitalME&#45;&gt;genital -->
<g id="edge6" class="edge">
<title>genitalME&#45;&gt;genital</title>
<path fill="none" stroke="black" d="M346.5,-168.72C346.5,-140.19 346.5,-92.66 346.5,-60.36"/>
<polygon fill="black" stroke="black" points="350,-60.04 346.5,-50.04 343,-60.04 350,-60.04"/>
</g>
<!-- genetifME -->
<g id="node9" class="node">
<title>genetifME</title>
<text text-anchor="start" x="408" y="-204.8" font-family="Times New Roman,serif" font-weight="bold" font-size="14.00">Middle</text>
<text text-anchor="start" x="406.5" y="-190.8" font-family="Times New Roman,serif" font-weight="bold" font-size="14.00">English</text>
<text text-anchor="start" x="411" y="-176.8" font-family="Times New Roman,serif" font-size="14.00" fill="red">genetif</text>
</g>
<!-- genetivusL&#45;&gt;genetifME -->
<g id="edge8" class="edge">
<title>genetivusL&#45;&gt;genetifME</title>
<path fill="none" stroke="black" stroke-dasharray="5,2" d="M430.4,-352.9C430.24,-324.41 429.91,-266.68 429.7,-229.48"/>
<polygon fill="black" stroke="black" points="433.19,-229.09 429.64,-219.11 426.2,-229.13 433.19,-229.09"/>
</g>
<!-- genitive -->
<g id="node10" class="node">
<title>genitive</title>
<text text-anchor="start" x="405" y="-35.8" font-family="Times New Roman,serif" font-weight="bold" font-size="14.00">Modern</text>
<text text-anchor="start" x="406.5" y="-21.8" font-family="Times New Roman,serif" font-weight="bold" font-size="14.00">English</text>
<text text-anchor="start" x="408" y="-7.8" font-family="Times New Roman,serif" font-size="14.00" fill="red">genitive</text>
</g>
<!-- genetifME&#45;&gt;genitive -->
<g id="edge9" class="edge">
<title>genetifME&#45;&gt;genitive</title>
<path fill="none" stroke="black" d="M429.5,-168.72C429.5,-140.19 429.5,-92.66 429.5,-60.36"/>
<polygon fill="black" stroke="black" points="433,-60.04 429.5,-50.04 426,-60.04 433,-60.04"/>
</g>
<!-- perIE -->
<g id="node11" class="node">
<title>perIE</title>
<g id="a_node11"><a xlink:href="per-list.svg" xlink:title="&lt;b&gt;Indo&#45;&lt;br/&gt;European&lt;/b&gt;&lt;br/&gt;&lt;font color=&quot;red&quot;&gt;*per&lt;/font&gt;&lt;br/&gt;&lt;font point&#45;size=&quot;12&quot;&gt;through&lt;/font&gt;">
<path fill="none" stroke="black" stroke-dasharray="5,2" d="M275,-722C275,-722 222,-722 222,-722 216,-722 210,-716 210,-710 210,-710 210,-672 210,-672 210,-666 216,-660 222,-660 222,-660 275,-660 275,-660 281,-660 287,-666 287,-672 287,-672 287,-710 287,-710 287,-716 281,-722 275,-722"/>
<text text-anchor="start" x="232" y="-707.8" font-family="Times New Roman,serif" font-weight="bold" font-size="14.00">Indo&#45;</text>
<text text-anchor="start" x="218" y="-693.8" font-family="Times New Roman,serif" font-weight="bold" font-size="14.00">European</text>
<text text-anchor="start" x="236" y="-679.8" font-family="Times New Roman,serif" font-size="14.00" fill="red">*per</text>
<text text-anchor="start" x="231.5" y="-667.4" font-family="Times New Roman,serif" font-size="12.00">through</text>
</a>
</g>
</g>
<!-- proL -->
<g id="node12" class="node">
<title>proL</title>
<text text-anchor="start" x="261" y="-608.8" font-family="Times New Roman,serif" font-weight="bold" font-size="14.00">Latin</text>
<text text-anchor="start" x="265" y="-594.8" font-family="Times New Roman,serif" font-size="14.00" fill="red">prō&#45;</text>
<text text-anchor="start" x="259" y="-582.4" font-family="Times New Roman,serif" font-size="12.00">forward</text>
</g>
<!-- perIE&#45;&gt;proL -->
<g id="edge10" class="edge">
<title>perIE&#45;&gt;proL</title>
<path fill="none" stroke="black" d="M258.32,-659.53C261.11,-650.86 264.17,-641.38 267,-632.59"/>
<polygon fill="black" stroke="black" points="270.34,-633.63 270.08,-623.04 263.68,-631.48 270.34,-633.63"/>
</g>
<!-- primusL -->
<g id="node20" class="node">
<title>primusL</title>
<text text-anchor="start" x="184" y="-608.8" font-family="Times New Roman,serif" font-weight="bold" font-size="14.00">Latin</text>
<text text-anchor="start" x="180.5" y="-594.8" font-family="Times New Roman,serif" font-size="14.00" fill="red">prīmus</text>
<text text-anchor="start" x="192" y="-582.4" font-family="Times New Roman,serif" font-size="12.00">first</text>
</g>
<!-- perIE&#45;&gt;primusL -->
<g id="edge19" class="edge">
<title>perIE&#45;&gt;primusL</title>
<path fill="none" stroke="black" d="M232.25,-659.53C227.53,-650.67 222.35,-640.98 217.58,-632.03"/>
<polygon fill="black" stroke="black" points="220.58,-630.21 212.79,-623.04 214.4,-633.51 220.58,-630.21"/>
</g>
<!-- proL&#45;&gt;progignereL -->
<g id="edge12" class="edge">
<title>proL&#45;&gt;progignereL</title>
<path fill="none" stroke="black" d="M304.85,-577.79C327.49,-561.5 360.79,-538.5 391.5,-521 399.93,-516.2 409.13,-511.46 418.09,-507.11"/>
<polygon fill="black" stroke="black" points="419.77,-510.18 427.29,-502.72 416.76,-503.87 419.77,-510.18"/>
</g>
<!-- progenitorL -->
<g id="node14" class="node">
<title>progenitorL</title>
<text text-anchor="start" x="485" y="-313.8" font-family="Times New Roman,serif" font-size="14.00" fill="red">prōgenitus</text>
<text text-anchor="start" x="485.5" y="-298.8" font-family="Times New Roman,serif" font-size="14.00" fill="red">prōgenitor</text>
</g>
<!-- progignereL&#45;&gt;progenitorL -->
<g id="edge13" class="edge">
<title>progignereL&#45;&gt;progenitorL</title>
<path fill="none" stroke="black" d="M470.38,-466.78C478.84,-436.91 496.31,-375.23 506.54,-339.09"/>
<polygon fill="black" stroke="black" points="509.99,-339.76 509.35,-329.19 503.26,-337.85 509.99,-339.76"/>
</g>
<!-- progeniesL -->
<g id="node16" class="node">
<title>progeniesL</title>
<text text-anchor="start" x="543" y="-367.3" font-family="Times New Roman,serif" font-size="14.00" fill="red">prōgeniēs</text>
</g>
<!-- progignereL&#45;&gt;progeniesL -->
<g id="edge15" class="edge">
<title>progignereL&#45;&gt;progeniesL</title>
<path fill="none" stroke="black" d="M494.15,-466.97C501.84,-461.72 509.86,-455.57 516.5,-449 531.83,-433.83 545.71,-413.82 555.56,-398"/>
<polygon fill="black" stroke="black" points="558.68,-399.6 560.88,-389.23 552.7,-395.97 558.68,-399.6"/>
</g>
<!-- progenitor -->
<g id="node15" class="node">
<title>progenitor</title>
<text text-anchor="start" x="493" y="-35.8" font-family="Times New Roman,serif" font-weight="bold" font-size="14.00">Modern</text>
<text text-anchor="start" x="494.5" y="-21.8" font-family="Times New Roman,serif" font-weight="bold" font-size="14.00">English</text>
<text text-anchor="start" x="488.5" y="-7.8" font-family="Times New Roman,serif" font-size="14.00" fill="red">progenitor</text>
</g>
<!-- progenitorL&#45;&gt;progenitor -->
<g id="edge14" class="edge">
<title>progenitorL&#45;&gt;progenitor</title>
<path fill="none" stroke="black" stroke-dasharray="5,2" d="M514.69,-290.87C515.18,-244.49 516.49,-120.95 517.14,-60.41"/>
<polygon fill="black" stroke="black" points="520.64,-60.25 517.24,-50.22 513.64,-60.18 520.64,-60.25"/>
</g>
<!-- progenieOF -->
<g id="node17" class="node">
<title>progenieOF</title>
<text text-anchor="start" x="561.5" y="-258.8" font-family="Times New Roman,serif" font-weight="bold" font-size="14.00">Old French</text>
<text text-anchor="start" x="572" y="-244.8" font-family="Times New Roman,serif" font-size="14.00" fill="red">progenie</text>
</g>
<!-- progeniesL&#45;&gt;progenieOF -->
<g id="edge16" class="edge">
<title>progeniesL&#45;&gt;progenieOF</title>
<path fill="none" stroke="black" d="M574.45,-352.69C578.67,-334.17 585.43,-304.55 590.35,-282.97"/>
<polygon fill="black" stroke="black" points="593.79,-283.63 592.6,-273.1 586.96,-282.07 593.79,-283.63"/>
</g>
<!-- progeniME -->
<g id="node18" class="node">
<title>progeniME</title>
<text text-anchor="start" x="582" y="-136.8" font-family="Times New Roman,serif" font-weight="bold" font-size="14.00">Middle</text>
<text text-anchor="start" x="580.5" y="-122.8" font-family="Times New Roman,serif" font-weight="bold" font-size="14.00">English</text>
<text text-anchor="start" x="582" y="-108.8" font-family="Times New Roman,serif" font-size="14.00" fill="red">progeni</text>
</g>
<!-- progenieOF&#45;&gt;progeniME -->
<g id="edge17" class="edge">
<title>progenieOF&#45;&gt;progeniME</title>
<path fill="none" stroke="black" stroke-dasharray="5,2" d="M597.44,-236.87C598.5,-217.65 600.25,-185.95 601.6,-161.53"/>
<polygon fill="black" stroke="black" points="605.11,-161.4 602.16,-151.23 598.12,-161.02 605.11,-161.4"/>
</g>
<!-- progeny -->
<g id="node19" class="node">
<title>progeny</title>
<text text-anchor="start" x="581" y="-35.8" font-family="Times New Roman,serif" font-weight="bold" font-size="14.00">Modern</text>
<text text-anchor="start" x="582.5" y="-21.8" font-family="Times New Roman,serif" font-weight="bold" font-size="14.00">English</text>
<text text-anchor="start" x="582.5" y="-7.8" font-family="Times New Roman,serif" font-size="14.00" fill="red">progeny</text>
</g>
<!-- progeniME&#45;&gt;progeny -->
<g id="edge18" class="edge">
<title>progeniME&#45;&gt;progeny</title>
<path fill="none" stroke="black" d="M603.99,-100.78C604.23,-88.68 604.53,-73.81 604.8,-60.54"/>
<polygon fill="black" stroke="black" points="608.31,-60.38 605.01,-50.31 601.31,-60.24 608.31,-60.38"/>
</g>
<!-- primoL -->
<g id="node21" class="node">
<title>primoL</title>
<text text-anchor="start" x="125" y="-433.8" font-family="Times New Roman,serif" font-size="14.00" fill="red">prīmō</text>
<text text-anchor="start" x="128.5" y="-421.4" font-family="Times New Roman,serif" font-size="12.00">at first</text>
</g>
<!-- primusL&#45;&gt;primoL -->
<g id="edge20" class="edge">
<title>primusL&#45;&gt;primoL</title>
<path fill="none" stroke="black" d="M192.44,-574.92C181.82,-544.53 163.19,-491.2 151.93,-458.99"/>
<polygon fill="black" stroke="black" points="155.16,-457.61 148.55,-449.32 148.55,-459.92 155.16,-457.61"/>
</g>
<!-- primogenituraL -->
<g id="node23" class="node">
<title>primogenituraL</title>
<text text-anchor="start" x="210" y="-251.3" font-family="Times New Roman,serif" font-size="14.00" fill="red">prīmōgenitūra</text>
</g>
<!-- primoL&#45;&gt;primogenituraL -->
<g id="edge22" class="edge">
<title>primoL&#45;&gt;primogenituraL</title>
<path fill="none" stroke="black" d="M131.62,-412.83C128.72,-407.35 125.98,-401.11 124.5,-395 119.48,-374.27 114.82,-366.01 124.5,-347 140.31,-315.94 172.23,-292.98 199.86,-277.89"/>
<polygon fill="black" stroke="black" points="201.8,-280.82 209.03,-273.08 198.55,-274.63 201.8,-280.82"/>
</g>
<!-- genituraL&#45;&gt;primogenituraL -->
<g id="edge23" class="edge">
<title>genituraL&#45;&gt;primogenituraL</title>
<path fill="none" stroke="black" d="M264.77,-352.69C261.86,-334.25 257.21,-304.82 253.8,-283.26"/>
<polygon fill="black" stroke="black" points="257.22,-282.44 252.2,-273.1 250.3,-283.53 257.22,-282.44"/>
</g>
<!-- primogeniture -->
<g id="node24" class="node">
<title>primogeniture</title>
<text text-anchor="start" x="225" y="-35.8" font-family="Times New Roman,serif" font-weight="bold" font-size="14.00">Modern</text>
<text text-anchor="start" x="226.5" y="-21.8" font-family="Times New Roman,serif" font-weight="bold" font-size="14.00">English</text>
<text text-anchor="start" x="211" y="-7.8" font-family="Times New Roman,serif" font-size="14.00" fill="red">primogeniture</text>
</g>
<!-- primogenituraL&#45;&gt;primogeniture -->
<g id="edge24" class="edge">
<title>primogenituraL&#45;&gt;primogeniture</title>
<path fill="none" stroke="black" stroke-dasharray="5,2" d="M249.5,-236.86C249.5,-199.43 249.5,-109.75 249.5,-60.25"/>
<polygon fill="black" stroke="black" points="253,-60.04 249.5,-50.04 246,-60.04 253,-60.04"/>
</g>
<!-- komIE -->
<g id="node25" class="node">
<title>komIE</title>
<g id="a_node25"><a xlink:href="kom-with.svg" xlink:title="&lt;b&gt;Indo&#45;&lt;br/&gt;European&lt;/b&gt;&lt;br/&gt;&lt;font color=&quot;red&quot;&gt;*kom&lt;/font&gt;&lt;br/&gt;&lt;font point&#45;size=&quot;12&quot;&gt;with&lt;/font&gt;">
<path fill="none" stroke="black" stroke-dasharray="5,2" d="M65,-722C65,-722 12,-722 12,-722 6,-722 0,-716 0,-710 0,-710 0,-672 0,-672 0,-666 6,-660 12,-660 12,-660 65,-660 65,-660 71,-660 77,-666 77,-672 77,-672 77,-710 77,-710 77,-716 71,-722 65,-722"/>
<text text-anchor="start" x="22" y="-707.8" font-family="Times New Roman,serif" font-weight="bold" font-size="14.00">Indo&#45;</text>
<text text-anchor="start" x="8" y="-693.8" font-family="Times New Roman,serif" font-weight="bold" font-size="14.00">European</text>
<text text-anchor="start" x="22.5" y="-679.8" font-family="Times New Roman,serif" font-size="14.00" fill="red">*kom</text>
<text text-anchor="start" x="29" y="-667.4" font-family="Times New Roman,serif" font-size="12.00">with</text>
</a>
</g>
</g>
<!-- comL -->
<g id="node26" class="node">
<title>comL</title>
<text text-anchor="start" x="22" y="-542.8" font-family="Times New Roman,serif" font-weight="bold" font-size="14.00">Latin</text>
<text text-anchor="start" x="23.5" y="-528.8" font-family="Times New Roman,serif" font-size="14.00" fill="red">com&#45;</text>
</g>
<!-- komIE&#45;&gt;comL -->
<g id="edge25" class="edge">
<title>komIE&#45;&gt;comL</title>
<path fill="none" stroke="black" d="M38.5,-659.65C38.5,-632.68 38.5,-593.61 38.5,-567.53"/>
<polygon fill="black" stroke="black" points="42,-567.23 38.5,-557.23 35,-567.23 42,-567.23"/>
</g>
<!-- comL&#45;&gt;congenitusL -->
<g id="edge27" class="edge">
<title>comL&#45;&gt;congenitusL</title>
<path fill="none" stroke="black" d="M38.5,-520.86C38.5,-492.16 38.5,-434.13 38.5,-399.61"/>
<polygon fill="black" stroke="black" points="42,-399.3 38.5,-389.3 35,-399.3 42,-399.3"/>
</g>
<!-- congenital -->
<g id="node28" class="node">
<title>congenital</title>
<text text-anchor="start" x="14" y="-35.8" font-family="Times New Roman,serif" font-weight="bold" font-size="14.00">Modern</text>
<text text-anchor="start" x="15.5" y="-21.8" font-family="Times New Roman,serif" font-weight="bold" font-size="14.00">English</text>
<text text-anchor="start" x="10" y="-7.8" font-family="Times New Roman,serif" font-size="14.00" fill="red">congenital</text>
</g>
<!-- congenitusL&#45;&gt;congenital -->
<g id="edge28" class="edge">
<title>congenitusL&#45;&gt;congenital</title>
<path fill="none" stroke="black" stroke-dasharray="5,2" d="M38.5,-352.94C38.5,-299.3 38.5,-133.3 38.5,-60.65"/>
<polygon fill="black" stroke="black" points="42,-60.22 38.5,-50.22 35,-60.22 42,-60.22"/>
</g>
<!-- gensorOF -->
<g id="node30" class="node">
<title>gensorOF</title>
<text text-anchor="start" x="137.5" y="-257.8" font-family="Times New Roman,serif" font-size="14.00" fill="red">gensor</text>
<text text-anchor="start" x="139" y="-245.4" font-family="Times New Roman,serif" font-size="12.00">delicate</text>
</g>
<!-- gentOF&#45;&gt;gensorOF -->
<g id="edge30" class="edge">
<title>gentOF&#45;&gt;gensorOF</title>
<path fill="none" stroke="black" d="M172.45,-346.93C169.22,-328.49 164.67,-302.59 161.26,-283.15"/>
<polygon fill="black" stroke="black" points="164.68,-282.34 159.5,-273.1 157.78,-283.55 164.68,-282.34"/>
</g>
<!-- gensorF -->
<g id="node31" class="node">
<title>gensorF</title>
<text text-anchor="start" x="132.5" y="-136.8" font-family="Times New Roman,serif" font-weight="bold" font-size="14.00">French</text>
<text text-anchor="start" x="126" y="-122.8" font-family="Times New Roman,serif" font-size="14.00">(obsolete)</text>
<text text-anchor="start" x="135.5" y="-108.8" font-family="Times New Roman,serif" font-size="14.00" fill="red">gensor</text>
</g>
<!-- gensorOF&#45;&gt;gensorF -->
<g id="edge31" class="edge">
<title>gensorOF&#45;&gt;gensorF</title>
<path fill="none" stroke="black" d="M156.23,-236.87C155.93,-217.65 155.43,-185.95 155.04,-161.53"/>
<polygon fill="black" stroke="black" points="158.54,-161.17 154.88,-151.23 151.54,-161.28 158.54,-161.17"/>
</g>
<!-- gingerly -->
<g id="node32" class="node">
<title>gingerly</title>
<text text-anchor="start" x="128" y="-35.8" font-family="Times New Roman,serif" font-weight="bold" font-size="14.00">Modern</text>
<text text-anchor="start" x="129.5" y="-21.8" font-family="Times New Roman,serif" font-weight="bold" font-size="14.00">English</text>
<text text-anchor="start" x="130.5" y="-7.8" font-family="Times New Roman,serif" font-size="14.00" fill="red">gingerly</text>
</g>
<!-- gensorF&#45;&gt;gingerly -->
<g id="edge32" class="edge">
<title>gensorF&#45;&gt;gingerly</title>
<path fill="none" stroke="black" stroke-dasharray="5,2" d="M154.01,-100.78C153.77,-88.68 153.47,-73.81 153.2,-60.54"/>
<polygon fill="black" stroke="black" points="156.69,-60.24 152.99,-50.31 149.69,-60.38 156.69,-60.24"/>
<text text-anchor="middle" x="157" y="-71.8" font-family="Times New Roman,serif" font-size="14.00">?</text>
<polyline fill="none" stroke="black" points="160.5,-68 153.5,-68 153.5,-75.26 "/>
</g>
</g>
</svg>
