<?xml version="1.0" encoding="UTF-8" standalone="no"?>
<!DOCTYPE svg PUBLIC "-//W3C//DTD SVG 1.1//EN"
 "http://www.w3.org/Graphics/SVG/1.1/DTD/svg11.dtd">
<!-- Generated by graphviz version 2.49.0 (20210828.1703)
 -->
<!-- Pages: 1 -->
<svg width="964pt" height="756pt"
 viewBox="0.00 0.00 963.50 756.00" xmlns="http://www.w3.org/2000/svg" xmlns:xlink="http://www.w3.org/1999/xlink">
<g id="graph0" class="graph" transform="scale(1 1) rotate(0) translate(4 752)">
<polygon fill="white" stroke="transparent" points="-4,4 -4,-752 959.5,-752 959.5,4 -4,4"/>
<!-- genIE -->
<g id="node1" class="node">
<title>genIE</title>
<g id="a_node1"><a xlink:href="gen-birth0.svg" xlink:title="&lt;font point&#45;size=&quot;24&quot;&gt;&lt;b&gt;Indo&#45;European&lt;/b&gt;&lt;/font&gt;&lt;br/&gt;&lt;font point&#45;size=&quot;18&quot; color=&quot;red&quot;&gt;gen(ə)&#45;, gon&#45;, gn̥&#45;&lt;/font&gt;&lt;br/&gt;&lt;font point&#45;size=&quot;16&quot;&gt;to beget, give birth, be born&lt;/font&gt;">
<path fill="none" stroke="black" stroke-dasharray="5,2" d="M618,-748C618,-748 455,-748 455,-748 449,-748 443,-742 443,-736 443,-736 443,-694 443,-694 443,-688 449,-682 455,-682 455,-682 618,-682 618,-682 624,-682 630,-688 630,-694 630,-694 630,-736 630,-736 630,-742 624,-748 618,-748"/>
<text text-anchor="start" x="458" y="-725.8" font-family="Times New Roman,serif" font-weight="bold" font-size="24.00">Indo&#45;European</text>
<text text-anchor="start" x="473.5" y="-706.6" font-family="Times New Roman,serif" font-size="18.00" fill="red">gen(ə)&#45;, gon&#45;, gn̥&#45;</text>
<text text-anchor="start" x="451" y="-690.2" font-family="Times New Roman,serif" font-size="16.00">to beget, give birth, be born</text>
</a>
</g>
</g>
<!-- gen -->
<g id="node2" class="node">
<title>gen</title>
<text text-anchor="start" x="315" y="-618.3" font-family="Times New Roman,serif" font-size="14.00" fill="red">gen&#45;</text>
</g>
<!-- genIE&#45;&gt;gen -->
<g id="edge1" class="edge">
<title>genIE&#45;&gt;gen</title>
<path fill="none" stroke="black" d="M462.81,-681.92C429.42,-667.38 391.43,-650.83 364.21,-638.99"/>
<polygon fill="black" stroke="black" points="365.27,-635.63 354.71,-634.85 362.48,-642.05 365.27,-635.63"/>
</g>
<!-- gon -->
<g id="node3" class="node">
<title>gon</title>
<text text-anchor="start" x="692.5" y="-618.3" font-family="Times New Roman,serif" font-size="14.00" fill="red">gon&#45;, gonə&#45;, gon&#45;o&#45;</text>
</g>
<!-- genIE&#45;&gt;gon -->
<g id="edge2" class="edge">
<title>genIE&#45;&gt;gon</title>
<path fill="none" stroke="black" d="M610.89,-681.92C640.06,-669.34 672.7,-655.26 698.77,-644.02"/>
<polygon fill="black" stroke="black" points="700.26,-647.19 708.06,-640.01 697.49,-640.76 700.26,-647.19"/>
</g>
<!-- kundizGm -->
<g id="node4" class="node">
<title>kundizGm</title>
<text text-anchor="start" x="297" y="-547.8" font-family="Times New Roman,serif" font-weight="bold" font-size="14.00">Germanic</text>
<text text-anchor="start" x="309" y="-533.8" font-family="Times New Roman,serif" font-size="14.00" fill="red">kundiz</text>
<text text-anchor="start" x="300" y="-519.8" font-family="Times New Roman,serif" font-size="14.00" fill="red">ga&#45;kundiz</text>
<text text-anchor="start" x="314" y="-507.4" font-family="Times New Roman,serif" font-size="12.00">family</text>
</g>
<!-- gen&#45;&gt;kundizGm -->
<g id="edge3" class="edge">
<title>gen&#45;&gt;kundizGm</title>
<path fill="none" stroke="black" d="M327.5,-603.84C327.5,-594.79 327.5,-583.28 327.5,-572.13"/>
<polygon fill="black" stroke="black" points="331,-572.08 327.5,-562.08 324,-572.08 331,-572.08"/>
</g>
<!-- kundjazGm -->
<g id="node8" class="node">
<title>kundjazGm</title>
<text text-anchor="start" x="104" y="-547.8" font-family="Times New Roman,serif" font-weight="bold" font-size="14.00">Germanic</text>
<text text-anchor="start" x="113" y="-533.8" font-family="Times New Roman,serif" font-size="14.00" fill="red">kundjaz</text>
<text text-anchor="start" x="104" y="-519.8" font-family="Times New Roman,serif" font-size="14.00" fill="red">ga&#45;kundjaz</text>
<text text-anchor="start" x="113" y="-507.4" font-family="Times New Roman,serif" font-size="12.00">true&#45;born</text>
</g>
<!-- gen&#45;&gt;kundjazGm -->
<g id="edge7" class="edge">
<title>gen&#45;&gt;kundjazGm</title>
<path fill="none" stroke="black" d="M300.39,-611.38C271,-600.61 223.02,-582.03 183.5,-562 183.08,-561.79 182.65,-561.57 182.23,-561.35"/>
<polygon fill="black" stroke="black" points="183.69,-558.16 173.23,-556.49 180.36,-564.32 183.69,-558.16"/>
</g>
<!-- kenthamGm -->
<g id="node12" class="node">
<title>kenthamGm</title>
<text text-anchor="start" x="201" y="-534.8" font-family="Times New Roman,serif" font-weight="bold" font-size="14.00">Germanic</text>
<text text-anchor="start" x="208" y="-520.8" font-family="Times New Roman,serif" font-size="14.00" fill="red">kentham</text>
</g>
<!-- gen&#45;&gt;kenthamGm -->
<g id="edge11" class="edge">
<title>gen&#45;&gt;kenthamGm</title>
<path fill="none" stroke="black" d="M308.99,-603.84C294.38,-590.3 273.82,-571.24 257.55,-556.15"/>
<polygon fill="black" stroke="black" points="259.67,-553.34 249.95,-549.11 254.91,-558.47 259.67,-553.34"/>
</g>
<!-- jaS -->
<g id="node26" class="node">
<title>jaS</title>
<text text-anchor="start" x="392.5" y="-540.8" font-family="Times New Roman,serif" font-weight="bold" font-size="14.00">Sanskrit</text>
<text text-anchor="start" x="409" y="-526.8" font-family="Times New Roman,serif" font-size="14.00" fill="red">&#45;ja&#45;</text>
<text text-anchor="start" x="396.5" y="-514.4" font-family="Times New Roman,serif" font-size="12.00">produced</text>
</g>
<!-- gen&#45;&gt;jaS -->
<g id="edge25" class="edge">
<title>gen&#45;&gt;jaS</title>
<path fill="none" stroke="black" d="M345.05,-603.84C357.1,-592.05 373.42,-576.09 387.62,-562.2"/>
<polygon fill="black" stroke="black" points="390.11,-564.66 394.81,-555.17 385.22,-559.66 390.11,-564.66"/>
</g>
<!-- gonosG -->
<g id="node40" class="node">
<title>gonosG</title>
<g id="a_node40"><a xlink:href="gen-gonos.svg" xlink:title="&lt;b&gt;Greek&lt;/b&gt;&lt;br/&gt;&lt;font color=&quot;red&quot;&gt;gonos&lt;/font&gt;&lt;br/&gt;&lt;font point&#45;size=&quot;12&quot;&gt;procreation,&lt;br/&gt;genitals&lt;/font&gt;">
<path fill="none" stroke="black" stroke-dasharray="5,2" d="M835,-561C835,-561 788,-561 788,-561 782,-561 776,-555 776,-549 776,-549 776,-513 776,-513 776,-507 782,-501 788,-501 788,-501 835,-501 835,-501 841,-501 847,-507 847,-513 847,-513 847,-549 847,-549 847,-555 841,-561 835,-561"/>
<text text-anchor="start" x="791.5" y="-546.8" font-family="Times New Roman,serif" font-weight="bold" font-size="14.00">Greek</text>
<text text-anchor="start" x="794" y="-532.8" font-family="Times New Roman,serif" font-size="14.00" fill="red">gonos</text>
<text text-anchor="start" x="784" y="-520.4" font-family="Times New Roman,serif" font-size="12.00">procreation,</text>
<text text-anchor="start" x="794.5" y="-508.4" font-family="Times New Roman,serif" font-size="12.00">genitals</text>
</a>
</g>
</g>
<!-- gon&#45;&gt;gonosG -->
<g id="edge39" class="edge">
<title>gon&#45;&gt;gonosG</title>
<path fill="none" stroke="black" d="M759.84,-603.84C766.92,-593.99 776.1,-581.22 784.76,-569.19"/>
<polygon fill="black" stroke="black" points="787.64,-571.18 790.63,-561.02 781.95,-567.09 787.64,-571.18"/>
</g>
<!-- janah -->
<g id="node41" class="node">
<title>janah</title>
<text text-anchor="start" x="759.5" y="-253.8" font-family="Times New Roman,serif" font-weight="bold" font-size="14.00">Sanskrit</text>
<text text-anchor="start" x="771" y="-239.8" font-family="Times New Roman,serif" font-size="14.00" fill="red">janaḥ</text>
<text text-anchor="start" x="764" y="-227.4" font-family="Times New Roman,serif" font-size="12.00">offspring,</text>
<text text-anchor="start" x="756.5" y="-215.4" font-family="Times New Roman,serif" font-size="12.00">child, person</text>
</g>
<!-- gon&#45;&gt;janah -->
<g id="edge40" class="edge">
<title>gon&#45;&gt;janah</title>
<path fill="none" stroke="black" d="M749.23,-603.59C754.97,-545.91 773.46,-360.07 781.59,-278.27"/>
<polygon fill="black" stroke="black" points="785.09,-278.43 782.6,-268.13 778.13,-277.74 785.09,-278.43"/>
</g>
<!-- gecynd1OE -->
<g id="node5" class="node">
<title>gecynd1OE</title>
<text text-anchor="start" x="293" y="-448.8" font-family="Times New Roman,serif" font-weight="bold" font-size="14.00">Old English</text>
<text text-anchor="start" x="309" y="-434.8" font-family="Times New Roman,serif" font-size="14.00" fill="red">gecynd</text>
<text text-anchor="start" x="308" y="-422.4" font-family="Times New Roman,serif" font-size="12.00">offspring,</text>
<text text-anchor="start" x="306.5" y="-410.4" font-family="Times New Roman,serif" font-size="12.00">race, kind</text>
</g>
<!-- kundizGm&#45;&gt;gecynd1OE -->
<g id="edge4" class="edge">
<title>kundizGm&#45;&gt;gecynd1OE</title>
<path fill="none" stroke="black" d="M328.13,-499.89C328.3,-491.43 328.5,-482.11 328.68,-473.2"/>
<polygon fill="black" stroke="black" points="332.19,-473.09 328.9,-463.02 325.19,-472.94 332.19,-473.09"/>
</g>
<!-- kind1ME -->
<g id="node6" class="node">
<title>kind1ME</title>
<text text-anchor="start" x="308" y="-157.8" font-family="Times New Roman,serif" font-weight="bold" font-size="14.00">Middle</text>
<text text-anchor="start" x="306.5" y="-143.8" font-family="Times New Roman,serif" font-weight="bold" font-size="14.00">English</text>
<text text-anchor="start" x="317" y="-129.8" font-family="Times New Roman,serif" font-size="14.00" fill="red">kind</text>
</g>
<!-- gecynd1OE&#45;&gt;kind1ME -->
<g id="edge5" class="edge">
<title>gecynd1OE&#45;&gt;kind1ME</title>
<path fill="none" stroke="black" d="M329.5,-402.94C329.5,-350.22 329.5,-239.03 329.5,-182.53"/>
<polygon fill="black" stroke="black" points="333,-182.31 329.5,-172.31 326,-182.31 333,-182.31"/>
</g>
<!-- kind1 -->
<g id="node7" class="node">
<title>kind1</title>
<text text-anchor="start" x="305" y="-59.8" font-family="Times New Roman,serif" font-weight="bold" font-size="14.00">Modern</text>
<text text-anchor="start" x="306.5" y="-45.8" font-family="Times New Roman,serif" font-weight="bold" font-size="14.00">English</text>
<text text-anchor="start" x="317" y="-31.8" font-family="Times New Roman,serif" font-size="14.00" fill="red">kind</text>
<text text-anchor="start" x="319.5" y="-19.4" font-family="Times New Roman,serif" font-size="12.00">type</text>
</g>
<!-- kind1ME&#45;&gt;kind1 -->
<g id="edge6" class="edge">
<title>kind1ME&#45;&gt;kind1</title>
<path fill="none" stroke="black" d="M329.5,-121.83C329.5,-110.69 329.5,-97.16 329.5,-84.54"/>
<polygon fill="black" stroke="black" points="333,-84.21 329.5,-74.21 326,-84.21 333,-84.21"/>
</g>
<!-- gecynde2OE -->
<g id="node9" class="node">
<title>gecynde2OE</title>
<text text-anchor="start" x="95" y="-442.8" font-family="Times New Roman,serif" font-weight="bold" font-size="14.00">Old English</text>
<text text-anchor="start" x="108" y="-428.8" font-family="Times New Roman,serif" font-size="14.00" fill="red">gecynde</text>
<text text-anchor="start" x="116" y="-416.4" font-family="Times New Roman,serif" font-size="12.00">natural</text>
</g>
<!-- kundjazGm&#45;&gt;gecynde2OE -->
<g id="edge8" class="edge">
<title>kundjazGm&#45;&gt;gecynde2OE</title>
<path fill="none" stroke="black" d="M133.56,-499.89C133.24,-489.58 132.87,-477.98 132.54,-467.43"/>
<polygon fill="black" stroke="black" points="136.04,-467.19 132.23,-457.3 129.04,-467.41 136.04,-467.19"/>
</g>
<!-- kinde2ME -->
<g id="node10" class="node">
<title>kinde2ME</title>
<text text-anchor="start" x="62" y="-351.8" font-family="Times New Roman,serif" font-weight="bold" font-size="14.00">Middle</text>
<text text-anchor="start" x="60.5" y="-337.8" font-family="Times New Roman,serif" font-weight="bold" font-size="14.00">English</text>
<text text-anchor="start" x="68" y="-323.8" font-family="Times New Roman,serif" font-size="14.00" fill="red">kinde</text>
<text text-anchor="start" x="55.5" y="-311.4" font-family="Times New Roman,serif" font-size="12.00">natural, kind</text>
</g>
<!-- gecynde2OE&#45;&gt;kinde2ME -->
<g id="edge9" class="edge">
<title>gecynde2OE&#45;&gt;kinde2ME</title>
<path fill="none" stroke="black" d="M119.88,-408.76C114.9,-398.79 108.93,-386.86 103.28,-375.56"/>
<polygon fill="black" stroke="black" points="106.25,-373.67 98.64,-366.29 99.99,-376.8 106.25,-373.67"/>
</g>
<!-- kind2 -->
<g id="node11" class="node">
<title>kind2</title>
<text text-anchor="start" x="8" y="-65.8" font-family="Times New Roman,serif" font-weight="bold" font-size="14.00">Modern</text>
<text text-anchor="start" x="9.5" y="-51.8" font-family="Times New Roman,serif" font-weight="bold" font-size="14.00">English</text>
<text text-anchor="start" x="20" y="-37.8" font-family="Times New Roman,serif" font-size="14.00" fill="red">kind</text>
<text text-anchor="start" x="18.5" y="-25.4" font-family="Times New Roman,serif" font-size="12.00">good&#45;</text>
<text text-anchor="start" x="15.5" y="-13.4" font-family="Times New Roman,serif" font-size="12.00">natured</text>
</g>
<!-- kinde2ME&#45;&gt;kind2 -->
<g id="edge10" class="edge">
<title>kinde2ME&#45;&gt;kind2</title>
<path fill="none" stroke="black" d="M78.19,-303.79C69.24,-252.91 51.11,-149.84 40.58,-89.95"/>
<polygon fill="black" stroke="black" points="44.01,-89.25 38.83,-80.01 37.12,-90.46 44.01,-89.25"/>
</g>
<!-- kindOG -->
<g id="node13" class="node">
<title>kindOG</title>
<text text-anchor="start" x="202.5" y="-449.8" font-family="Times New Roman,serif" font-weight="bold" font-size="14.00">Old High</text>
<text text-anchor="start" x="205" y="-435.8" font-family="Times New Roman,serif" font-weight="bold" font-size="14.00">German</text>
<text text-anchor="start" x="218" y="-421.8" font-family="Times New Roman,serif" font-size="14.00" fill="red">kind</text>
<text text-anchor="start" x="219.5" y="-409.4" font-family="Times New Roman,serif" font-size="12.00">child</text>
</g>
<!-- kenthamGm&#45;&gt;kindOG -->
<g id="edge12" class="edge">
<title>kenthamGm&#45;&gt;kindOG</title>
<path fill="none" stroke="black" d="M231.32,-512.84C231.21,-502.09 231.06,-487.77 230.92,-474.29"/>
<polygon fill="black" stroke="black" points="234.42,-474.18 230.81,-464.21 227.42,-474.25 234.42,-474.18"/>
</g>
<!-- kintMG -->
<g id="node14" class="node">
<title>kintMG</title>
<text text-anchor="start" x="193.5" y="-345.8" font-family="Times New Roman,serif" font-weight="bold" font-size="14.00">Middle High</text>
<text text-anchor="start" x="206" y="-331.8" font-family="Times New Roman,serif" font-weight="bold" font-size="14.00">German</text>
<text text-anchor="start" x="221" y="-317.8" font-family="Times New Roman,serif" font-size="14.00" fill="red">kint</text>
</g>
<!-- kindOG&#45;&gt;kintMG -->
<g id="edge13" class="edge">
<title>kindOG&#45;&gt;kintMG</title>
<path fill="none" stroke="black" d="M230.81,-401.89C230.92,-391.93 231.03,-380.77 231.14,-370.51"/>
<polygon fill="black" stroke="black" points="234.64,-370.27 231.25,-360.23 227.64,-370.19 234.64,-370.27"/>
</g>
<!-- kindG -->
<g id="node15" class="node">
<title>kindG</title>
<text text-anchor="start" x="206" y="-241.8" font-family="Times New Roman,serif" font-weight="bold" font-size="14.00">German</text>
<text text-anchor="start" x="217.5" y="-227.8" font-family="Times New Roman,serif" font-size="14.00" fill="red">Kind</text>
</g>
<!-- kintMG&#45;&gt;kindG -->
<g id="edge14" class="edge">
<title>kintMG&#45;&gt;kindG</title>
<path fill="none" stroke="black" d="M231.5,-309.54C231.5,-296.35 231.5,-280.03 231.5,-266.42"/>
<polygon fill="black" stroke="black" points="235,-266.19 231.5,-256.19 228,-266.19 235,-266.19"/>
</g>
<!-- kindergartenG -->
<g id="node16" class="node">
<title>kindergartenG</title>
<text text-anchor="start" x="388.5" y="-150.8" font-family="Times New Roman,serif" font-size="14.00" fill="red">Kindergarten</text>
<text text-anchor="start" x="386.5" y="-135.8" font-family="Times New Roman,serif" font-size="14.00" fill="red">Kindergärtner</text>
</g>
<!-- kindG&#45;&gt;kindergartenG -->
<g id="edge15" class="edge">
<title>kindG&#45;&gt;kindergartenG</title>
<path fill="none" stroke="black" d="M265.12,-221.5C295.72,-207.39 341.27,-186.38 375.84,-170.44"/>
<polygon fill="black" stroke="black" points="377.67,-173.45 385.28,-166.08 374.74,-167.09 377.67,-173.45"/>
</g>
<!-- christkindl -->
<g id="node22" class="node">
<title>christkindl</title>
<text text-anchor="start" x="201" y="-149.8" font-family="Times New Roman,serif" font-size="14.00" fill="red">Christkindl</text>
<text text-anchor="start" x="190.5" y="-137.4" font-family="Times New Roman,serif" font-size="12.00">Christmas present</text>
</g>
<!-- kindG&#45;&gt;christkindl -->
<g id="edge21" class="edge">
<title>kindG&#45;&gt;christkindl</title>
<path fill="none" stroke="black" d="M231.5,-219.84C231.5,-207.28 231.5,-189.98 231.5,-175.5"/>
<polygon fill="black" stroke="black" points="235,-175.11 231.5,-165.11 228,-175.11 235,-175.11"/>
</g>
<!-- wunderkindG -->
<g id="node24" class="node">
<title>wunderkindG</title>
<text text-anchor="start" x="86.5" y="-149.8" font-family="Times New Roman,serif" font-size="14.00" fill="red">Wunderkind</text>
<text text-anchor="start" x="92" y="-137.4" font-family="Times New Roman,serif" font-size="12.00">child prodigy</text>
</g>
<!-- kindG&#45;&gt;wunderkindG -->
<g id="edge23" class="edge">
<title>kindG&#45;&gt;wunderkindG</title>
<path fill="none" stroke="black" d="M210.29,-219.84C193.32,-206.11 169.35,-186.72 150.59,-171.54"/>
<polygon fill="black" stroke="black" points="152.62,-168.68 142.64,-165.11 148.22,-174.12 152.62,-168.68"/>
</g>
<!-- kindergarten -->
<g id="node21" class="node">
<title>kindergarten</title>
<text text-anchor="start" x="400" y="-60.8" font-family="Times New Roman,serif" font-weight="bold" font-size="14.00">Modern</text>
<text text-anchor="start" x="401.5" y="-46.8" font-family="Times New Roman,serif" font-weight="bold" font-size="14.00">English</text>
<text text-anchor="start" x="390" y="-32.8" font-family="Times New Roman,serif" font-size="14.00" fill="red">kindergarten</text>
<text text-anchor="start" x="388" y="-18.8" font-family="Times New Roman,serif" font-size="14.00" fill="red">kindergartner</text>
</g>
<!-- kindergartenG&#45;&gt;kindergarten -->
<g id="edge20" class="edge">
<title>kindergartenG&#45;&gt;kindergarten</title>
<path fill="none" stroke="black" stroke-dasharray="5,2" d="M424.5,-127.76C424.5,-116.05 424.5,-100.34 424.5,-85.69"/>
<polygon fill="black" stroke="black" points="428,-85.29 424.5,-75.29 421,-85.29 428,-85.29"/>
</g>
<!-- gher -->
<g id="node17" class="node">
<title>gher</title>
<g id="a_node17"><a xlink:href="gher-grasp1.svg" xlink:title="&lt;font color=&quot;red&quot;&gt;gher&#45;&lt;/font&gt;&lt;br/&gt;&lt;font point&#45;size=&quot;12&quot;&gt;to grasp,&lt;br/&gt;enclose&lt;/font&gt;">
<path fill="none" stroke="black" stroke-dasharray="5,2" d="M522.5,-645C522.5,-645 490.5,-645 490.5,-645 484.5,-645 478.5,-639 478.5,-633 478.5,-633 478.5,-611 478.5,-611 478.5,-605 484.5,-599 490.5,-599 490.5,-599 522.5,-599 522.5,-599 528.5,-599 534.5,-605 534.5,-611 534.5,-611 534.5,-633 534.5,-633 534.5,-639 528.5,-645 522.5,-645"/>
<text text-anchor="start" x="492" y="-630.8" font-family="Times New Roman,serif" font-size="14.00" fill="red">gher&#45;</text>
<text text-anchor="start" x="486.5" y="-618.4" font-family="Times New Roman,serif" font-size="12.00">to grasp,</text>
<text text-anchor="start" x="489.5" y="-606.4" font-family="Times New Roman,serif" font-size="12.00">enclose</text>
</a>
</g>
</g>
<!-- gartoOG -->
<g id="node18" class="node">
<title>gartoOG</title>
<text text-anchor="start" x="478.5" y="-547.8" font-family="Times New Roman,serif" font-weight="bold" font-size="14.00">Old High</text>
<text text-anchor="start" x="481" y="-533.8" font-family="Times New Roman,serif" font-weight="bold" font-size="14.00">German</text>
<text text-anchor="start" x="492" y="-519.8" font-family="Times New Roman,serif" font-size="14.00" fill="red">garto</text>
<text text-anchor="start" x="491" y="-507.4" font-family="Times New Roman,serif" font-size="12.00">garden</text>
</g>
<!-- gher&#45;&gt;gartoOG -->
<g id="edge16" class="edge">
<title>gher&#45;&gt;gartoOG</title>
<path fill="none" stroke="black" d="M506.5,-599C506.5,-590.92 506.5,-581.5 506.5,-572.32"/>
<polygon fill="black" stroke="black" points="510,-572.14 506.5,-562.14 503,-572.14 510,-572.14"/>
</g>
<!-- garteMG -->
<g id="node19" class="node">
<title>garteMG</title>
<text text-anchor="start" x="417.5" y="-443.8" font-family="Times New Roman,serif" font-weight="bold" font-size="14.00">Middle High</text>
<text text-anchor="start" x="430" y="-429.8" font-family="Times New Roman,serif" font-weight="bold" font-size="14.00">German</text>
<text text-anchor="start" x="441.5" y="-415.8" font-family="Times New Roman,serif" font-size="14.00" fill="red">garte</text>
</g>
<!-- gartoOG&#45;&gt;garteMG -->
<g id="edge17" class="edge">
<title>gartoOG&#45;&gt;garteMG</title>
<path fill="none" stroke="black" d="M490.5,-499.89C484.99,-489.51 478.79,-477.83 473.15,-467.22"/>
<polygon fill="black" stroke="black" points="476.16,-465.42 468.37,-458.23 469.97,-468.7 476.16,-465.42"/>
</g>
<!-- gartenG -->
<g id="node20" class="node">
<title>gartenG</title>
<text text-anchor="start" x="413" y="-338.8" font-family="Times New Roman,serif" font-weight="bold" font-size="14.00">German</text>
<text text-anchor="start" x="419.5" y="-324.8" font-family="Times New Roman,serif" font-size="14.00" fill="red">Garten</text>
</g>
<!-- garteMG&#45;&gt;gartenG -->
<g id="edge18" class="edge">
<title>garteMG&#45;&gt;gartenG</title>
<path fill="none" stroke="black" d="M451.21,-407.78C448.81,-394.23 445.81,-377.31 443.33,-363.3"/>
<polygon fill="black" stroke="black" points="446.75,-362.49 441.56,-353.25 439.85,-363.71 446.75,-362.49"/>
</g>
<!-- gartenG&#45;&gt;kindergartenG -->
<g id="edge19" class="edge">
<title>gartenG&#45;&gt;kindergartenG</title>
<path fill="none" stroke="black" d="M437.21,-316.83C434.79,-284.78 429.58,-215.51 426.64,-176.39"/>
<polygon fill="black" stroke="black" points="430.11,-175.92 425.87,-166.22 423.13,-176.45 430.11,-175.92"/>
</g>
<!-- krisskringle -->
<g id="node23" class="node">
<title>krisskringle</title>
<text text-anchor="start" x="207" y="-53.8" font-family="Times New Roman,serif" font-weight="bold" font-size="14.00">Modern</text>
<text text-anchor="start" x="208.5" y="-39.8" font-family="Times New Roman,serif" font-weight="bold" font-size="14.00">English</text>
<text text-anchor="start" x="195" y="-25.8" font-family="Times New Roman,serif" font-size="14.00" fill="red">Kriss Kringle</text>
</g>
<!-- christkindl&#45;&gt;krisskringle -->
<g id="edge22" class="edge">
<title>christkindl&#45;&gt;krisskringle</title>
<path fill="none" stroke="black" stroke-dasharray="5,2" d="M231.5,-128.7C231.5,-114.95 231.5,-95.3 231.5,-78.38"/>
<polygon fill="black" stroke="black" points="235,-78.28 231.5,-68.28 228,-78.28 235,-78.28"/>
</g>
<!-- wunderkind -->
<g id="node25" class="node">
<title>wunderkind</title>
<text text-anchor="start" x="100" y="-53.8" font-family="Times New Roman,serif" font-weight="bold" font-size="14.00">Modern</text>
<text text-anchor="start" x="101.5" y="-39.8" font-family="Times New Roman,serif" font-weight="bold" font-size="14.00">English</text>
<text text-anchor="start" x="91.5" y="-25.8" font-family="Times New Roman,serif" font-size="14.00" fill="red">wunderkind</text>
</g>
<!-- wunderkindG&#45;&gt;wunderkind -->
<g id="edge24" class="edge">
<title>wunderkindG&#45;&gt;wunderkind</title>
<path fill="none" stroke="black" stroke-dasharray="5,2" d="M122.01,-128.7C122.41,-114.95 122.99,-95.3 123.49,-78.38"/>
<polygon fill="black" stroke="black" points="126.99,-78.38 123.79,-68.28 119.99,-78.17 126.99,-78.38"/>
</g>
<!-- krmija -->
<g id="node27" class="node">
<title>krmija</title>
<text text-anchor="start" x="575" y="-441.8" font-family="Times New Roman,serif" font-size="14.00" fill="red">kṛmi&#45;ja&#45;</text>
<text text-anchor="start" x="573.5" y="-429.4" font-family="Times New Roman,serif" font-size="12.00">&quot;(red dye)</text>
<text text-anchor="start" x="548.5" y="-417.4" font-family="Times New Roman,serif" font-size="12.00">produced by worms&quot;</text>
</g>
<!-- jaS&#45;&gt;krmija -->
<g id="edge26" class="edge">
<title>jaS&#45;&gt;krmija</title>
<path fill="none" stroke="black" d="M450.55,-506.85C454.19,-504.45 457.89,-502.12 461.5,-500 485.72,-485.75 513.45,-471.81 537.46,-460.44"/>
<polygon fill="black" stroke="black" points="539.24,-463.47 546.8,-456.05 536.26,-457.13 539.24,-463.47"/>
</g>
<!-- qirmizA -->
<g id="node28" class="node">
<title>qirmizA</title>
<text text-anchor="start" x="578.5" y="-351.8" font-family="Times New Roman,serif" font-weight="bold" font-size="14.00" fill="green">Arabic</text>
<text text-anchor="start" x="582" y="-337.8" font-family="Times New Roman,serif" font-size="14.00" fill="red">qirmiz</text>
<text text-anchor="start" x="575" y="-323.8" font-family="Times New Roman,serif" font-size="14.00" fill="red">al&#45;qirmiz</text>
<text text-anchor="start" x="568.5" y="-311.4" font-family="Times New Roman,serif" font-size="12.00">kermes insect</text>
</g>
<!-- krmija&#45;&gt;qirmizA -->
<g id="edge27" class="edge">
<title>krmija&#45;&gt;qirmizA</title>
<path fill="none" stroke="black" stroke-dasharray="5,2" d="M597.2,-409.73C597.51,-399.81 597.88,-387.8 598.24,-376.39"/>
<polygon fill="black" stroke="black" points="601.74,-376.25 598.56,-366.14 594.75,-376.03 601.74,-376.25"/>
</g>
<!-- alkermesF -->
<g id="node29" class="node">
<title>alkermesF</title>
<text text-anchor="start" x="578.5" y="-248.8" font-family="Times New Roman,serif" font-weight="bold" font-size="14.00">French</text>
<text text-anchor="start" x="576" y="-234.8" font-family="Times New Roman,serif" font-size="14.00" fill="red">alkermès</text>
<text text-anchor="start" x="580.5" y="-220.8" font-family="Times New Roman,serif" font-size="14.00" fill="red">kermès</text>
</g>
<!-- qirmizA&#45;&gt;alkermesF -->
<g id="edge28" class="edge">
<title>qirmizA&#45;&gt;alkermesF</title>
<path fill="none" stroke="black" stroke-dasharray="5,2" d="M599.82,-303.94C599.92,-294.18 600.03,-283.27 600.14,-273.23"/>
<polygon fill="black" stroke="black" points="603.64,-273.19 600.25,-263.16 596.64,-273.12 603.64,-273.19"/>
</g>
<!-- qirmizi -->
<g id="node33" class="node">
<title>qirmizi</title>
<text text-anchor="start" x="501.5" y="-234.3" font-family="Times New Roman,serif" font-size="14.00" fill="red">qirmizī</text>
</g>
<!-- qirmizA&#45;&gt;qirmizi -->
<g id="edge32" class="edge">
<title>qirmizA&#45;&gt;qirmizi</title>
<path fill="none" stroke="black" d="M574.82,-303.94C564.3,-291.13 552.17,-276.36 542.14,-264.14"/>
<polygon fill="black" stroke="black" points="544.63,-261.66 535.58,-256.15 539.22,-266.1 544.63,-261.66"/>
</g>
<!-- carminiumL -->
<g id="node36" class="node">
<title>carminiumL</title>
<text text-anchor="start" x="672" y="-241.8" font-family="Times New Roman,serif" font-weight="bold" font-size="14.00">Latin</text>
<text text-anchor="start" x="659.5" y="-227.8" font-family="Times New Roman,serif" font-size="14.00" fill="red">carminium</text>
</g>
<!-- qirmizA&#45;&gt;carminiumL -->
<g id="edge35" class="edge">
<title>qirmizA&#45;&gt;carminiumL</title>
<path fill="none" stroke="black" stroke-dasharray="5,2" d="M627.66,-303.94C639.78,-291.01 653.77,-276.08 665.27,-263.79"/>
<polygon fill="black" stroke="black" points="668.15,-265.84 672.43,-256.15 663.04,-261.05 668.15,-265.84"/>
</g>
<!-- kermes -->
<g id="node30" class="node">
<title>kermes</title>
<text text-anchor="start" x="603" y="-71.8" font-family="Times New Roman,serif" font-weight="bold" font-size="14.00">Modern</text>
<text text-anchor="start" x="604.5" y="-57.8" font-family="Times New Roman,serif" font-weight="bold" font-size="14.00">English</text>
<text text-anchor="start" x="607.5" y="-43.8" font-family="Times New Roman,serif" font-size="14.00" fill="red">kermes</text>
<text text-anchor="start" x="606" y="-31.4" font-family="Times New Roman,serif" font-size="12.00">a red dye</text>
<text text-anchor="start" x="588" y="-19.4" font-family="Times New Roman,serif" font-size="12.00">(and the insects it</text>
<text text-anchor="start" x="578" y="-7.4" font-family="Times New Roman,serif" font-size="12.00">was once made from)</text>
</g>
<!-- alkermesF&#45;&gt;kermes -->
<g id="edge29" class="edge">
<title>alkermesF&#45;&gt;kermes</title>
<path fill="none" stroke="black" stroke-dasharray="5,2" d="M603.86,-212.95C607.92,-183.94 614.86,-134.37 620.17,-96.4"/>
<polygon fill="black" stroke="black" points="623.7,-96.41 621.62,-86.02 616.77,-95.44 623.7,-96.41"/>
</g>
<!-- kwrmi -->
<g id="node31" class="node">
<title>kwrmi</title>
<g id="a_node31"><a xlink:href=".svg" xlink:title="&lt;font color=&quot;red&quot;&gt;kʷr̥mi&#45;&lt;/font&gt;&lt;br/&gt;&lt;font point&#45;size=&quot;12&quot;&gt;worm&lt;/font&gt;&lt;br/&gt;&lt;font point&#45;size=&quot;12&quot;&gt;see &lt;/font&gt;&lt;font color=&quot;red&quot;&gt;wr̥mi&#45;&lt;/font&gt;">
<path fill="none" stroke="black" stroke-dasharray="5,2" d="M618.5,-646C618.5,-646 574.5,-646 574.5,-646 568.5,-646 562.5,-640 562.5,-634 562.5,-634 562.5,-610 562.5,-610 562.5,-604 568.5,-598 574.5,-598 574.5,-598 618.5,-598 618.5,-598 624.5,-598 630.5,-604 630.5,-610 630.5,-610 630.5,-634 630.5,-634 630.5,-640 624.5,-646 618.5,-646"/>
<text text-anchor="start" x="578.5" y="-631.8" font-family="Times New Roman,serif" font-size="14.00" fill="red">kʷr̥mi&#45;</text>
<text text-anchor="start" x="583" y="-619.4" font-family="Times New Roman,serif" font-size="12.00">worm</text>
<text text-anchor="start" x="570.5" y="-605.8" font-family="Times New Roman,serif" font-size="12.00">see </text>
<text text-anchor="start" x="589.5" y="-605.8" font-family="Times New Roman,serif" font-size="14.00" fill="red">wr̥mi&#45;</text>
</a>
</g>
</g>
<!-- krmiS -->
<g id="node32" class="node">
<title>krmiS</title>
<text text-anchor="start" x="570.5" y="-534.8" font-family="Times New Roman,serif" font-weight="bold" font-size="14.00">Sanskrit</text>
<text text-anchor="start" x="581.5" y="-520.8" font-family="Times New Roman,serif" font-size="14.00" fill="red">kṛmi&#45;</text>
</g>
<!-- kwrmi&#45;&gt;krmiS -->
<g id="edge30" class="edge">
<title>kwrmi&#45;&gt;krmiS</title>
<path fill="none" stroke="black" d="M596.5,-597.62C596.5,-585.83 596.5,-571.46 596.5,-559.18"/>
<polygon fill="black" stroke="black" points="600,-559.04 596.5,-549.04 593,-559.04 600,-559.04"/>
</g>
<!-- krmiS&#45;&gt;krmija -->
<g id="edge31" class="edge">
<title>krmiS&#45;&gt;krmija</title>
<path fill="none" stroke="black" d="M596.5,-512.84C596.5,-499.95 596.5,-481.93 596.5,-466.37"/>
<polygon fill="black" stroke="black" points="600,-466.08 596.5,-456.08 593,-466.08 600,-466.08"/>
</g>
<!-- cremesinME -->
<g id="node34" class="node">
<title>cremesinME</title>
<text text-anchor="start" x="500" y="-157.8" font-family="Times New Roman,serif" font-weight="bold" font-size="14.00">Middle</text>
<text text-anchor="start" x="498.5" y="-143.8" font-family="Times New Roman,serif" font-weight="bold" font-size="14.00">English</text>
<text text-anchor="start" x="496.5" y="-129.8" font-family="Times New Roman,serif" font-size="14.00" fill="red">cremesin</text>
</g>
<!-- qirmizi&#45;&gt;cremesinME -->
<g id="edge33" class="edge">
<title>qirmizi&#45;&gt;cremesinME</title>
<path fill="none" stroke="black" stroke-dasharray="5,2" d="M521.5,-219.84C521.5,-209.26 521.5,-195.32 521.5,-182.54"/>
<polygon fill="black" stroke="black" points="525,-182.17 521.5,-172.17 518,-182.17 525,-182.17"/>
</g>
<!-- crimson -->
<g id="node35" class="node">
<title>crimson</title>
<text text-anchor="start" x="495" y="-53.8" font-family="Times New Roman,serif" font-weight="bold" font-size="14.00">Modern</text>
<text text-anchor="start" x="496.5" y="-39.8" font-family="Times New Roman,serif" font-weight="bold" font-size="14.00">English</text>
<text text-anchor="start" x="496.5" y="-25.8" font-family="Times New Roman,serif" font-size="14.00" fill="red">crimson</text>
</g>
<!-- cremesinME&#45;&gt;crimson -->
<g id="edge34" class="edge">
<title>cremesinME&#45;&gt;crimson</title>
<path fill="none" stroke="black" d="M521.03,-121.83C520.77,-108.96 520.46,-92.92 520.18,-78.74"/>
<polygon fill="black" stroke="black" points="523.67,-78.28 519.98,-68.35 516.67,-78.42 523.67,-78.28"/>
</g>
<!-- carminF -->
<g id="node38" class="node">
<title>carminF</title>
<text text-anchor="start" x="690.5" y="-150.8" font-family="Times New Roman,serif" font-weight="bold" font-size="14.00">French</text>
<text text-anchor="start" x="693.5" y="-136.8" font-family="Times New Roman,serif" font-size="14.00" fill="red">carmin</text>
</g>
<!-- carminiumL&#45;&gt;carminF -->
<g id="edge37" class="edge">
<title>carminiumL&#45;&gt;carminF</title>
<path fill="none" stroke="black" d="M693.13,-219.84C696.55,-207.16 701.27,-189.64 705.2,-175.08"/>
<polygon fill="black" stroke="black" points="708.66,-175.67 707.89,-165.11 701.9,-173.85 708.66,-175.67"/>
</g>
<!-- minium -->
<g id="node37" class="node">
<title>minium</title>
<text text-anchor="start" x="672" y="-350.8" font-family="Times New Roman,serif" font-weight="bold" font-size="14.00">Latin</text>
<text text-anchor="start" x="668" y="-336.8" font-family="Times New Roman,serif" font-size="14.00" fill="red">minium</text>
<text text-anchor="start" x="669" y="-324.4" font-family="Times New Roman,serif" font-size="12.00">cinnabar</text>
<text text-anchor="start" x="666" y="-312.4" font-family="Times New Roman,serif" font-size="12.00">(red lead)</text>
</g>
<!-- minium&#45;&gt;carminiumL -->
<g id="edge36" class="edge">
<title>minium&#45;&gt;carminiumL</title>
<path fill="none" stroke="black" d="M688.5,-304.98C688.5,-292.78 688.5,-278.66 688.5,-266.61"/>
<polygon fill="black" stroke="black" points="692,-266.25 688.5,-256.25 685,-266.25 692,-266.25"/>
</g>
<!-- carmine -->
<g id="node39" class="node">
<title>carmine</title>
<text text-anchor="start" x="711" y="-53.8" font-family="Times New Roman,serif" font-weight="bold" font-size="14.00">Modern</text>
<text text-anchor="start" x="712.5" y="-39.8" font-family="Times New Roman,serif" font-weight="bold" font-size="14.00">English</text>
<text text-anchor="start" x="713.5" y="-25.8" font-family="Times New Roman,serif" font-size="14.00" fill="red">carmine</text>
</g>
<!-- carminF&#45;&gt;carmine -->
<g id="edge38" class="edge">
<title>carminF&#45;&gt;carmine</title>
<path fill="none" stroke="black" stroke-dasharray="5,2" d="M716.4,-128.7C719.5,-114.95 723.93,-95.3 727.75,-78.38"/>
<polygon fill="black" stroke="black" points="731.24,-78.81 730.02,-68.28 724.41,-77.27 731.24,-78.81"/>
</g>
<!-- harijanahS -->
<g id="node42" class="node">
<title>harijanahS</title>
<text text-anchor="start" x="835" y="-155.8" font-family="Times New Roman,serif" font-size="14.00" fill="red">harijanaḥ</text>
<text text-anchor="start" x="827.5" y="-143.4" font-family="Times New Roman,serif" font-size="12.00">&quot;child of god,&quot;</text>
<text text-anchor="start" x="830.5" y="-131.4" font-family="Times New Roman,serif" font-size="12.00">Untouchable</text>
</g>
<!-- janah&#45;&gt;harijanahS -->
<g id="edge41" class="edge">
<title>janah&#45;&gt;harijanahS</title>
<path fill="none" stroke="black" d="M809.73,-207.86C817.7,-198.27 826.57,-187.61 834.59,-177.96"/>
<polygon fill="black" stroke="black" points="837.38,-180.07 841.09,-170.15 832,-175.6 837.38,-180.07"/>
</g>
<!-- harijan -->
<g id="node46" class="node">
<title>harijan</title>
<text text-anchor="start" x="835" y="-53.8" font-family="Times New Roman,serif" font-weight="bold" font-size="14.00">Modern</text>
<text text-anchor="start" x="836.5" y="-39.8" font-family="Times New Roman,serif" font-weight="bold" font-size="14.00">English</text>
<text text-anchor="start" x="839.5" y="-25.8" font-family="Times New Roman,serif" font-size="14.00" fill="red">Harijan</text>
</g>
<!-- harijanahS&#45;&gt;harijan -->
<g id="edge45" class="edge">
<title>harijanahS&#45;&gt;harijan</title>
<path fill="none" stroke="black" stroke-dasharray="5,2" d="M859.5,-123.87C859.5,-110.67 859.5,-93.62 859.5,-78.66"/>
<polygon fill="black" stroke="black" points="863,-78.23 859.5,-68.23 856,-78.23 863,-78.23"/>
</g>
<!-- gheli -->
<g id="node43" class="node">
<title>gheli</title>
<g id="a_node43"><a xlink:href="ghel-shine2.svg" xlink:title="&lt;font color=&quot;red&quot;&gt;ghel&#45;i&#45;&lt;/font&gt;&lt;br/&gt;&lt;font point&#45;size=&quot;12&quot;&gt;to shine&lt;/font&gt;">
<path fill="none" stroke="black" stroke-dasharray="5,2" d="M917.5,-640C917.5,-640 887.5,-640 887.5,-640 881.5,-640 875.5,-634 875.5,-628 875.5,-628 875.5,-616 875.5,-616 875.5,-610 881.5,-604 887.5,-604 887.5,-604 917.5,-604 917.5,-604 923.5,-604 929.5,-610 929.5,-616 929.5,-616 929.5,-628 929.5,-628 929.5,-634 923.5,-640 917.5,-640"/>
<text text-anchor="start" x="885" y="-624.8" font-family="Times New Roman,serif" font-size="14.00" fill="red">ghel&#45;i&#45;</text>
<text text-anchor="start" x="885" y="-612.4" font-family="Times New Roman,serif" font-size="12.00">to shine</text>
</a>
</g>
</g>
<!-- hariS -->
<g id="node44" class="node">
<title>hariS</title>
<text text-anchor="start" x="876.5" y="-540.8" font-family="Times New Roman,serif" font-weight="bold" font-size="14.00">Sanskrit</text>
<text text-anchor="start" x="890" y="-526.8" font-family="Times New Roman,serif" font-size="14.00" fill="red">hari&#45;</text>
<text text-anchor="start" x="873" y="-514.4" font-family="Times New Roman,serif" font-size="12.00">yellow&#45;green</text>
</g>
<!-- gheli&#45;&gt;hariS -->
<g id="edge42" class="edge">
<title>gheli&#45;&gt;hariS</title>
<path fill="none" stroke="black" d="M902.5,-603.84C902.5,-592.92 902.5,-578.41 902.5,-565.29"/>
<polygon fill="black" stroke="black" points="906,-565.17 902.5,-555.17 899,-565.17 906,-565.17"/>
</g>
<!-- harih -->
<g id="node45" class="node">
<title>harih</title>
<text text-anchor="start" x="884" y="-253.8" font-family="Times New Roman,serif" font-size="14.00" fill="red">Hariḥ</text>
<text text-anchor="start" x="860" y="-241.4" font-family="Times New Roman,serif" font-size="12.00">a name of Vishnu</text>
<text text-anchor="start" x="886" y="-227.8" font-family="Times New Roman,serif" font-size="14.00" fill="red">Hare</text>
<text text-anchor="start" x="851.5" y="-215.4" font-family="Times New Roman,serif" font-size="12.00">(direct address form)</text>
</g>
<!-- hariS&#45;&gt;harih -->
<g id="edge43" class="edge">
<title>hariS&#45;&gt;harih</title>
<path fill="none" stroke="black" d="M902.26,-506.68C901.75,-456.96 900.54,-340.05 899.91,-278.5"/>
<polygon fill="black" stroke="black" points="903.41,-278.36 899.8,-268.39 896.41,-278.43 903.41,-278.36"/>
</g>
<!-- harih&#45;&gt;harijanahS -->
<g id="edge44" class="edge">
<title>harih&#45;&gt;harijanahS</title>
<path fill="none" stroke="black" d="M886.4,-207.86C882.31,-198.75 877.78,-188.67 873.62,-179.41"/>
<polygon fill="black" stroke="black" points="876.75,-177.83 869.45,-170.15 870.36,-180.7 876.75,-177.83"/>
</g>
</g>
</svg>
