<?xml version="1.0" encoding="UTF-8" standalone="no"?>
<!DOCTYPE svg PUBLIC "-//W3C//DTD SVG 1.1//EN"
 "http://www.w3.org/Graphics/SVG/1.1/DTD/svg11.dtd">
<!-- Generated by graphviz version 2.49.0 (20210828.1703)
 -->
<!-- Pages: 1 -->
<svg width="1249pt" height="846pt"
 viewBox="0.00 0.00 1248.50 846.00" xmlns="http://www.w3.org/2000/svg" xmlns:xlink="http://www.w3.org/1999/xlink">
<g id="graph0" class="graph" transform="scale(1 1) rotate(0) translate(4 842)">
<polygon fill="white" stroke="transparent" points="-4,4 -4,-842 1244.5,-842 1244.5,4 -4,4"/>
<!-- genIE -->
<g id="node1" class="node">
<title>genIE</title>
<g id="a_node1"><a xlink:href="gen-birth0.svg" xlink:title="&lt;font point&#45;size=&quot;24&quot;&gt;&lt;b&gt;Indo&#45;European&lt;/b&gt;&lt;/font&gt;&lt;br/&gt;&lt;font point&#45;size=&quot;18&quot; color=&quot;red&quot;&gt;gen(ə)&#45;, gon&#45;, gn̥&#45;&lt;/font&gt;&lt;br/&gt;&lt;font point&#45;size=&quot;16&quot;&gt;to beget, give birth, be born&lt;/font&gt;">
<path fill="none" stroke="black" stroke-dasharray="5,2" d="M552.5,-838C552.5,-838 389.5,-838 389.5,-838 383.5,-838 377.5,-832 377.5,-826 377.5,-826 377.5,-784 377.5,-784 377.5,-778 383.5,-772 389.5,-772 389.5,-772 552.5,-772 552.5,-772 558.5,-772 564.5,-778 564.5,-784 564.5,-784 564.5,-826 564.5,-826 564.5,-832 558.5,-838 552.5,-838"/>
<text text-anchor="start" x="392.5" y="-815.8" font-family="Times New Roman,serif" font-weight="bold" font-size="24.00">Indo&#45;European</text>
<text text-anchor="start" x="408" y="-796.6" font-family="Times New Roman,serif" font-size="18.00" fill="red">gen(ə)&#45;, gon&#45;, gn̥&#45;</text>
<text text-anchor="start" x="385.5" y="-780.2" font-family="Times New Roman,serif" font-size="16.00">to beget, give birth, be born</text>
</a>
</g>
</g>
<!-- geneIE -->
<g id="node2" class="node">
<title>geneIE</title>
<text text-anchor="start" x="455.5" y="-713.3" font-family="Times New Roman,serif" font-size="14.00" fill="red">genə&#45;</text>
</g>
<!-- genIE&#45;&gt;geneIE -->
<g id="edge1" class="edge">
<title>genIE&#45;&gt;geneIE</title>
<path fill="none" stroke="black" d="M471,-771.98C471,-763.25 471,-753.87 471,-745.42"/>
<polygon fill="black" stroke="black" points="474.5,-745.33 471,-735.33 467.5,-745.33 474.5,-745.33"/>
</g>
<!-- genees -->
<g id="node3" class="node">
<title>genees</title>
<text text-anchor="start" x="101.5" y="-627.3" font-family="Times New Roman,serif" font-size="14.00" fill="red">genə&#45;es&#45;</text>
</g>
<!-- geneIE&#45;&gt;genees -->
<g id="edge2" class="edge">
<title>geneIE&#45;&gt;genees</title>
<path fill="none" stroke="black" d="M443.82,-709.77C400.88,-699.89 314.78,-679.91 242,-662 216.93,-655.83 188.9,-648.65 166.57,-642.87"/>
<polygon fill="black" stroke="black" points="167.3,-639.44 156.74,-640.32 165.54,-646.22 167.3,-639.44"/>
</g>
<!-- geneyo -->
<g id="node4" class="node">
<title>geneyo</title>
<text text-anchor="start" x="259" y="-627.3" font-family="Times New Roman,serif" font-size="14.00" fill="red">gen(ə)&#45;yo&#45;</text>
</g>
<!-- geneIE&#45;&gt;geneyo -->
<g id="edge3" class="edge">
<title>geneIE&#45;&gt;geneyo</title>
<path fill="none" stroke="black" d="M443.97,-706.43C416.71,-696.45 373.67,-679.81 338,-662 333.31,-659.66 328.47,-657.04 323.73,-654.34"/>
<polygon fill="black" stroke="black" points="325.22,-651.16 314.82,-649.13 321.68,-657.2 325.22,-651.16"/>
</g>
<!-- genea -->
<g id="node5" class="node">
<title>genea</title>
<text text-anchor="start" x="450.5" y="-627.3" font-family="Times New Roman,serif" font-size="14.00" fill="red">genə&#45;ā&#45;</text>
</g>
<!-- geneIE&#45;&gt;genea -->
<g id="edge4" class="edge">
<title>geneIE&#45;&gt;genea</title>
<path fill="none" stroke="black" d="M471,-698.6C471,-687.26 471,-672.23 471,-659.32"/>
<polygon fill="black" stroke="black" points="474.5,-659.1 471,-649.1 467.5,-659.1 474.5,-659.1"/>
</g>
<!-- genemen -->
<g id="node6" class="node">
<title>genemen</title>
<text text-anchor="start" x="551" y="-627.3" font-family="Times New Roman,serif" font-size="14.00" fill="red">genə&#45;men&#45;</text>
</g>
<!-- geneIE&#45;&gt;genemen -->
<g id="edge5" class="edge">
<title>geneIE&#45;&gt;genemen</title>
<path fill="none" stroke="black" d="M493.32,-698.8C509.49,-686.34 531.53,-669.35 549.35,-655.62"/>
<polygon fill="black" stroke="black" points="551.92,-658.05 557.71,-649.18 547.65,-652.51 551.92,-658.05"/>
</g>
<!-- genewo -->
<g id="node7" class="node">
<title>genewo</title>
<text text-anchor="start" x="824" y="-627.3" font-family="Times New Roman,serif" font-size="14.00" fill="red">genə&#45;wo&#45;</text>
</g>
<!-- geneIE&#45;&gt;genewo -->
<g id="edge6" class="edge">
<title>geneIE&#45;&gt;genewo</title>
<path fill="none" stroke="black" d="M498.26,-709.96C562.99,-695.61 726.45,-659.38 805.64,-641.83"/>
<polygon fill="black" stroke="black" points="806.77,-645.17 815.78,-639.58 805.26,-638.33 806.77,-645.17"/>
</g>
<!-- genusL -->
<g id="node8" class="node">
<title>genusL</title>
<g id="a_node8"><a xlink:href="gen-genus.svg" xlink:title="&lt;b&gt;Latin&lt;/b&gt;&lt;br/&gt;&lt;font color=&quot;red&quot;&gt;genus&lt;/font&gt;&lt;br/&gt;&lt;font point&#45;size=&quot;12&quot;&gt;race, kind&lt;/font&gt;">
<path fill="none" stroke="black" stroke-dasharray="5,2" d="M50,-563C50,-563 12,-563 12,-563 6,-563 0,-557 0,-551 0,-551 0,-527 0,-527 0,-521 6,-515 12,-515 12,-515 50,-515 50,-515 56,-515 62,-521 62,-527 62,-527 62,-551 62,-551 62,-557 56,-563 50,-563"/>
<text text-anchor="start" x="14.5" y="-548.8" font-family="Times New Roman,serif" font-weight="bold" font-size="14.00">Latin</text>
<text text-anchor="start" x="14.5" y="-534.8" font-family="Times New Roman,serif" font-size="14.00" fill="red">genus</text>
<text text-anchor="start" x="8" y="-522.4" font-family="Times New Roman,serif" font-size="12.00">race, kind</text>
</a>
</g>
</g>
<!-- genees&#45;&gt;genusL -->
<g id="edge7" class="edge">
<title>genees&#45;&gt;genusL</title>
<path fill="none" stroke="black" d="M106.88,-612.65C94.34,-600.64 77.32,-584.35 62.58,-570.24"/>
<polygon fill="black" stroke="black" points="64.76,-567.48 55.12,-563.09 59.92,-572.53 64.76,-567.48"/>
</g>
<!-- genosG -->
<g id="node9" class="node">
<title>genosG</title>
<g id="a_node9"><a xlink:href="gen-genos.svg" xlink:title="&lt;b&gt;Greek&lt;/b&gt;&lt;br/&gt;&lt;font color=&quot;red&quot;&gt;genos, geneā&lt;/font&gt;&lt;br/&gt;&lt;font point&#45;size=&quot;12&quot;&gt;race, family&lt;/font&gt;">
<path fill="none" stroke="black" stroke-dasharray="5,2" d="M157.5,-563C157.5,-563 92.5,-563 92.5,-563 86.5,-563 80.5,-557 80.5,-551 80.5,-551 80.5,-527 80.5,-527 80.5,-521 86.5,-515 92.5,-515 92.5,-515 157.5,-515 157.5,-515 163.5,-515 169.5,-521 169.5,-527 169.5,-527 169.5,-551 169.5,-551 169.5,-557 163.5,-563 157.5,-563"/>
<text text-anchor="start" x="105" y="-548.8" font-family="Times New Roman,serif" font-weight="bold" font-size="14.00">Greek</text>
<text text-anchor="start" x="88.5" y="-534.8" font-family="Times New Roman,serif" font-size="14.00" fill="red">genos, geneā</text>
<text text-anchor="start" x="99" y="-522.4" font-family="Times New Roman,serif" font-size="12.00">race, family</text>
</a>
</g>
</g>
<!-- genees&#45;&gt;genosG -->
<g id="edge8" class="edge">
<title>genees&#45;&gt;genosG</title>
<path fill="none" stroke="black" d="M125,-612.65C125,-601.52 125,-586.72 125,-573.38"/>
<polygon fill="black" stroke="black" points="128.5,-573.09 125,-563.09 121.5,-573.09 128.5,-573.09"/>
</g>
<!-- geniusL -->
<g id="node10" class="node">
<title>geniusL</title>
<text text-anchor="start" x="271.5" y="-294.8" font-family="Times New Roman,serif" font-weight="bold" font-size="14.00">Latin</text>
<text text-anchor="start" x="270" y="-280.8" font-family="Times New Roman,serif" font-size="14.00" fill="red">genius</text>
<text text-anchor="start" x="258.5" y="-268.4" font-family="Times New Roman,serif" font-size="12.00">innate quality</text>
</g>
<!-- geneyo&#45;&gt;geniusL -->
<g id="edge9" class="edge">
<title>geneyo&#45;&gt;geniusL</title>
<path fill="none" stroke="black" d="M288,-612.94C288,-559.04 288,-391.7 288,-319.61"/>
<polygon fill="black" stroke="black" points="291.5,-319.28 288,-309.28 284.5,-319.28 291.5,-319.28"/>
</g>
<!-- ingeniumL -->
<g id="node11" class="node">
<title>ingeniumL</title>
<text text-anchor="start" x="204.5" y="-542.8" font-family="Times New Roman,serif" font-weight="bold" font-size="14.00">Latin</text>
<text text-anchor="start" x="196" y="-528.8" font-family="Times New Roman,serif" font-size="14.00" fill="red">ingenium</text>
</g>
<!-- geneyo&#45;&gt;ingeniumL -->
<g id="edge10" class="edge">
<title>geneyo&#45;&gt;ingeniumL</title>
<path fill="none" stroke="black" d="M275.08,-612.65C265.16,-599.32 251.32,-580.72 240.12,-565.68"/>
<polygon fill="black" stroke="black" points="242.66,-563.23 233.88,-557.3 237.04,-567.41 242.66,-563.23"/>
</g>
<!-- indigenaL -->
<g id="node36" class="node">
<title>indigenaL</title>
<text text-anchor="start" x="449.5" y="-482.8" font-family="Times New Roman,serif" font-weight="bold" font-size="14.00">Latin</text>
<text text-anchor="start" x="443" y="-468.8" font-family="Times New Roman,serif" font-size="14.00" fill="red">indigena</text>
<text text-anchor="start" x="448.5" y="-456.4" font-family="Times New Roman,serif" font-size="12.00">a native</text>
</g>
<!-- genea&#45;&gt;indigenaL -->
<g id="edge35" class="edge">
<title>genea&#45;&gt;indigenaL</title>
<path fill="none" stroke="black" d="M470.45,-612.71C469.63,-587.41 468.11,-539.8 467.07,-507.5"/>
<polygon fill="black" stroke="black" points="470.56,-507.07 466.74,-497.19 463.57,-507.29 470.56,-507.07"/>
</g>
<!-- germenL -->
<g id="node38" class="node">
<title>germenL</title>
<text text-anchor="start" x="602.5" y="-548.8" font-family="Times New Roman,serif" font-weight="bold" font-size="14.00">Latin</text>
<text text-anchor="start" x="598.5" y="-534.8" font-family="Times New Roman,serif" font-size="14.00" fill="red">germen</text>
<text text-anchor="start" x="590" y="-522.4" font-family="Times New Roman,serif" font-size="12.00">bud, embryo</text>
</g>
<!-- genemen&#45;&gt;germenL -->
<g id="edge37" class="edge">
<title>genemen&#45;&gt;germenL</title>
<path fill="none" stroke="black" d="M587.52,-612.65C592.44,-601.3 599.01,-586.13 604.88,-572.59"/>
<polygon fill="black" stroke="black" points="608.23,-573.66 608.99,-563.09 601.81,-570.87 608.23,-573.66"/>
</g>
<!-- ingenuusL -->
<g id="node28" class="node">
<title>ingenuusL</title>
<text text-anchor="start" x="1013.5" y="-294.8" font-family="Times New Roman,serif" font-weight="bold" font-size="14.00">Latin</text>
<text text-anchor="start" x="1005.5" y="-280.8" font-family="Times New Roman,serif" font-size="14.00" fill="red">ingenuus</text>
<text text-anchor="start" x="993" y="-268.4" font-family="Times New Roman,serif" font-size="12.00">freeborn, honest</text>
</g>
<!-- genewo&#45;&gt;ingenuusL -->
<g id="edge27" class="edge">
<title>genewo&#45;&gt;ingenuusL</title>
<path fill="none" stroke="black" d="M858.93,-612.94C887.3,-558.71 975.77,-389.63 1013.11,-318.28"/>
<polygon fill="black" stroke="black" points="1016.28,-319.77 1017.82,-309.28 1010.08,-316.52 1016.28,-319.77"/>
</g>
<!-- geniusME -->
<g id="node12" class="node">
<title>geniusME</title>
<text text-anchor="start" x="266.5" y="-148.8" font-family="Times New Roman,serif" font-weight="bold" font-size="14.00">Middle</text>
<text text-anchor="start" x="265" y="-134.8" font-family="Times New Roman,serif" font-weight="bold" font-size="14.00">English</text>
<text text-anchor="start" x="270" y="-120.8" font-family="Times New Roman,serif" font-size="14.00" fill="red">genius</text>
<text text-anchor="start" x="256" y="-108.4" font-family="Times New Roman,serif" font-size="12.00">guardian spirit</text>
</g>
<!-- geniusL&#45;&gt;geniusME -->
<g id="edge11" class="edge">
<title>geniusL&#45;&gt;geniusME</title>
<path fill="none" stroke="black" stroke-dasharray="5,2" d="M288,-260.74C288,-237.48 288,-201.26 288,-173.32"/>
<polygon fill="black" stroke="black" points="291.5,-173.06 288,-163.06 284.5,-173.06 291.5,-173.06"/>
</g>
<!-- genialisL -->
<g id="node14" class="node">
<title>genialisL</title>
<text text-anchor="start" x="180.5" y="-134.8" font-family="Times New Roman,serif" font-size="14.00" fill="red">geniālis</text>
<text text-anchor="start" x="186.5" y="-122.4" font-family="Times New Roman,serif" font-size="12.00">festive</text>
</g>
<!-- geniusL&#45;&gt;genialisL -->
<g id="edge13" class="edge">
<title>geniusL&#45;&gt;genialisL</title>
<path fill="none" stroke="black" d="M274.6,-260.74C258.84,-233.39 232.74,-188.09 216.23,-159.44"/>
<polygon fill="black" stroke="black" points="219.05,-157.32 211.03,-150.4 212.99,-160.82 219.05,-157.32"/>
</g>
<!-- congenial -->
<g id="node20" class="node">
<title>congenial</title>
<text text-anchor="start" x="349.5" y="-42.8" font-family="Times New Roman,serif" font-weight="bold" font-size="14.00">Modern</text>
<text text-anchor="start" x="351" y="-28.8" font-family="Times New Roman,serif" font-weight="bold" font-size="14.00">English</text>
<text text-anchor="start" x="347.5" y="-14.8" font-family="Times New Roman,serif" font-size="14.00" fill="red">congenial</text>
</g>
<!-- geniusL&#45;&gt;congenial -->
<g id="edge19" class="edge">
<title>geniusL&#45;&gt;congenial</title>
<path fill="none" stroke="black" stroke-dasharray="5,2" d="M298.34,-260.63C308.82,-236.47 325.14,-197.51 337,-163 348.04,-130.87 358.43,-93.5 365.37,-67.1"/>
<polygon fill="black" stroke="black" points="368.81,-67.76 367.95,-57.2 362.04,-66 368.81,-67.76"/>
</g>
<!-- ingeniosus -->
<g id="node21" class="node">
<title>ingeniosus</title>
<text text-anchor="start" x="82.5" y="-402.3" font-family="Times New Roman,serif" font-size="14.00" fill="red">ingeniōsus</text>
</g>
<!-- ingeniumL&#45;&gt;ingeniosus -->
<g id="edge20" class="edge">
<title>ingeniumL&#45;&gt;ingeniosus</title>
<path fill="none" stroke="black" d="M206.75,-520.87C187.9,-498.22 154.54,-458.12 132.85,-432.06"/>
<polygon fill="black" stroke="black" points="135.34,-429.58 126.25,-424.13 129.96,-434.06 135.34,-429.58"/>
</g>
<!-- enginOF -->
<g id="node25" class="node">
<title>enginOF</title>
<text text-anchor="start" x="180" y="-415.8" font-family="Times New Roman,serif" font-weight="bold" font-size="14.00">Old French</text>
<text text-anchor="start" x="200" y="-401.8" font-family="Times New Roman,serif" font-size="14.00" fill="red">engin</text>
<text text-anchor="start" x="187" y="-389.4" font-family="Times New Roman,serif" font-size="12.00">innate ability</text>
</g>
<!-- ingeniumL&#45;&gt;enginOF -->
<g id="edge24" class="edge">
<title>ingeniumL&#45;&gt;enginOF</title>
<path fill="none" stroke="black" d="M220.22,-520.87C219.28,-500.51 217.71,-466.07 216.53,-440.38"/>
<polygon fill="black" stroke="black" points="220.02,-440.15 216.07,-430.32 213.03,-440.47 220.02,-440.15"/>
</g>
<!-- genius -->
<g id="node13" class="node">
<title>genius</title>
<text text-anchor="start" x="263.5" y="-42.8" font-family="Times New Roman,serif" font-weight="bold" font-size="14.00">Modern</text>
<text text-anchor="start" x="265" y="-28.8" font-family="Times New Roman,serif" font-weight="bold" font-size="14.00">English</text>
<text text-anchor="start" x="270" y="-14.8" font-family="Times New Roman,serif" font-size="14.00" fill="red">genius</text>
</g>
<!-- geniusME&#45;&gt;genius -->
<g id="edge12" class="edge">
<title>geniusME&#45;&gt;genius</title>
<path fill="none" stroke="black" d="M288,-100.8C288,-90.14 288,-78.09 288,-67.13"/>
<polygon fill="black" stroke="black" points="291.5,-67.05 288,-57.05 284.5,-67.05 291.5,-67.05"/>
</g>
<!-- genial -->
<g id="node15" class="node">
<title>genial</title>
<text text-anchor="start" x="180.5" y="-42.8" font-family="Times New Roman,serif" font-weight="bold" font-size="14.00">Modern</text>
<text text-anchor="start" x="182" y="-28.8" font-family="Times New Roman,serif" font-weight="bold" font-size="14.00">English</text>
<text text-anchor="start" x="189" y="-14.8" font-family="Times New Roman,serif" font-size="14.00" fill="red">genial</text>
</g>
<!-- genialisL&#45;&gt;genial -->
<g id="edge14" class="edge">
<title>genialisL&#45;&gt;genial</title>
<path fill="none" stroke="black" stroke-dasharray="5,2" d="M201.7,-113.93C202.22,-101.19 202.95,-83.34 203.59,-67.65"/>
<polygon fill="black" stroke="black" points="207.1,-67.35 204.01,-57.22 200.11,-67.07 207.1,-67.35"/>
</g>
<!-- komIE -->
<g id="node16" class="node">
<title>komIE</title>
<g id="a_node16"><a xlink:href="kom-with.svg" xlink:title="&lt;b&gt;Indo&#45;&lt;br/&gt;European&lt;/b&gt;&lt;br/&gt;&lt;font color=&quot;red&quot;&gt;kom&lt;/font&gt;&lt;br/&gt;&lt;font point&#45;size=&quot;12&quot;&gt;with, near&lt;/font&gt;">
<path fill="none" stroke="black" stroke-dasharray="5,2" d="M412.5,-662C412.5,-662 359.5,-662 359.5,-662 353.5,-662 347.5,-656 347.5,-650 347.5,-650 347.5,-612 347.5,-612 347.5,-606 353.5,-600 359.5,-600 359.5,-600 412.5,-600 412.5,-600 418.5,-600 424.5,-606 424.5,-612 424.5,-612 424.5,-650 424.5,-650 424.5,-656 418.5,-662 412.5,-662"/>
<text text-anchor="start" x="369.5" y="-647.8" font-family="Times New Roman,serif" font-weight="bold" font-size="14.00">Indo&#45;</text>
<text text-anchor="start" x="355.5" y="-633.8" font-family="Times New Roman,serif" font-weight="bold" font-size="14.00">European</text>
<text text-anchor="start" x="373.5" y="-619.8" font-family="Times New Roman,serif" font-size="14.00" fill="red">kom</text>
<text text-anchor="start" x="363.5" y="-607.4" font-family="Times New Roman,serif" font-size="12.00">with, near</text>
</a>
</g>
</g>
<!-- comL -->
<g id="node17" class="node">
<title>comL</title>
<text text-anchor="start" x="371.5" y="-542.8" font-family="Times New Roman,serif" font-weight="bold" font-size="14.00">Latin</text>
<text text-anchor="start" x="373" y="-528.8" font-family="Times New Roman,serif" font-size="14.00" fill="red">com&#45;</text>
</g>
<!-- komIE&#45;&gt;comL -->
<g id="edge15" class="edge">
<title>komIE&#45;&gt;comL</title>
<path fill="none" stroke="black" d="M386.68,-599.53C386.91,-589.01 387.17,-577.3 387.4,-567.07"/>
<polygon fill="black" stroke="black" points="390.9,-567.13 387.62,-557.05 383.9,-566.97 390.9,-567.13"/>
</g>
<!-- comME -->
<g id="node18" class="node">
<title>comME</title>
<text text-anchor="start" x="378.5" y="-416.8" font-family="Times New Roman,serif" font-weight="bold" font-size="14.00">Middle</text>
<text text-anchor="start" x="377" y="-402.8" font-family="Times New Roman,serif" font-weight="bold" font-size="14.00">English</text>
<text text-anchor="start" x="385" y="-388.8" font-family="Times New Roman,serif" font-size="14.00" fill="red">com&#45;</text>
</g>
<!-- comL&#45;&gt;comME -->
<g id="edge16" class="edge">
<title>comL&#45;&gt;comME</title>
<path fill="none" stroke="black" stroke-dasharray="5,2" d="M389.57,-520.87C391.41,-500.76 394.51,-466.89 396.86,-441.31"/>
<polygon fill="black" stroke="black" points="400.35,-441.54 397.78,-431.26 393.38,-440.9 400.35,-441.54"/>
</g>
<!-- comE -->
<g id="node19" class="node">
<title>comE</title>
<text text-anchor="start" x="385.5" y="-222.8" font-family="Times New Roman,serif" font-weight="bold" font-size="14.00">Modern</text>
<text text-anchor="start" x="387" y="-208.8" font-family="Times New Roman,serif" font-weight="bold" font-size="14.00">English</text>
<text text-anchor="start" x="378.5" y="-194.8" font-family="Times New Roman,serif" font-size="14.00" fill="red">com&#45;, con&#45;</text>
</g>
<!-- comME&#45;&gt;comE -->
<g id="edge17" class="edge">
<title>comME&#45;&gt;comE</title>
<path fill="none" stroke="black" d="M401.27,-380.68C403.02,-346.92 406.21,-285.69 408.21,-247.3"/>
<polygon fill="black" stroke="black" points="411.72,-247.29 408.74,-237.12 404.73,-246.92 411.72,-247.29"/>
</g>
<!-- comE&#45;&gt;congenial -->
<g id="edge18" class="edge">
<title>comE&#45;&gt;congenial</title>
<path fill="none" stroke="black" d="M405.14,-186.99C398.89,-156.07 387.98,-102.14 380.88,-67.01"/>
<polygon fill="black" stroke="black" points="384.31,-66.3 378.89,-57.19 377.45,-67.69 384.31,-66.3"/>
</g>
<!-- ingeniosOF -->
<g id="node22" class="node">
<title>ingeniosOF</title>
<text text-anchor="start" x="55" y="-288.8" font-family="Times New Roman,serif" font-weight="bold" font-size="14.00">Old French</text>
<text text-anchor="start" x="67" y="-274.8" font-family="Times New Roman,serif" font-size="14.00" fill="red">ingenios</text>
</g>
<!-- ingeniosus&#45;&gt;ingeniosOF -->
<g id="edge21" class="edge">
<title>ingeniosus&#45;&gt;ingeniosOF</title>
<path fill="none" stroke="black" d="M108.85,-387.95C105.24,-368.42 99.27,-336.16 95.02,-313.16"/>
<polygon fill="black" stroke="black" points="98.41,-312.22 93.15,-303.02 91.52,-313.49 98.41,-312.22"/>
</g>
<!-- ingeniousME -->
<g id="node23" class="node">
<title>ingeniousME</title>
<text text-anchor="start" x="26.5" y="-142.8" font-family="Times New Roman,serif" font-weight="bold" font-size="14.00">Middle</text>
<text text-anchor="start" x="25" y="-128.8" font-family="Times New Roman,serif" font-weight="bold" font-size="14.00">English</text>
<text text-anchor="start" x="21.5" y="-114.8" font-family="Times New Roman,serif" font-size="14.00" fill="red">ingenious</text>
</g>
<!-- ingeniosOF&#45;&gt;ingeniousME -->
<g id="edge22" class="edge">
<title>ingeniosOF&#45;&gt;ingeniousME</title>
<path fill="none" stroke="black" stroke-dasharray="5,2" d="M85.26,-266.97C78.56,-242.86 66.14,-198.24 57.5,-167.15"/>
<polygon fill="black" stroke="black" points="60.77,-165.87 54.72,-157.17 54.03,-167.74 60.77,-165.87"/>
</g>
<!-- ingenious -->
<g id="node24" class="node">
<title>ingenious</title>
<text text-anchor="start" x="12.5" y="-42.8" font-family="Times New Roman,serif" font-weight="bold" font-size="14.00">Modern</text>
<text text-anchor="start" x="14" y="-28.8" font-family="Times New Roman,serif" font-weight="bold" font-size="14.00">English</text>
<text text-anchor="start" x="10.5" y="-14.8" font-family="Times New Roman,serif" font-size="14.00" fill="red">ingenious</text>
</g>
<!-- ingeniousME&#45;&gt;ingenious -->
<g id="edge23" class="edge">
<title>ingeniousME&#45;&gt;ingenious</title>
<path fill="none" stroke="black" d="M45.28,-106.78C43.95,-94.88 42.31,-80.34 40.85,-67.32"/>
<polygon fill="black" stroke="black" points="44.32,-66.83 39.73,-57.29 37.36,-67.61 44.32,-66.83"/>
</g>
<!-- enginME -->
<g id="node26" class="node">
<title>enginME</title>
<text text-anchor="start" x="111.5" y="-228.8" font-family="Times New Roman,serif" font-weight="bold" font-size="14.00">Middle</text>
<text text-anchor="start" x="110" y="-214.8" font-family="Times New Roman,serif" font-weight="bold" font-size="14.00">English</text>
<text text-anchor="start" x="118" y="-200.8" font-family="Times New Roman,serif" font-size="14.00" fill="red">engin</text>
<text text-anchor="start" x="102.5" y="-188.4" font-family="Times New Roman,serif" font-size="12.00">skill, machine</text>
</g>
<!-- enginOF&#45;&gt;enginME -->
<g id="edge25" class="edge">
<title>enginOF&#45;&gt;enginME</title>
<path fill="none" stroke="black" stroke-dasharray="5,2" d="M205.11,-381.84C191.44,-349.84 166.59,-291.66 149.94,-252.66"/>
<polygon fill="black" stroke="black" points="153.04,-251.01 145.89,-243.19 146.6,-253.76 153.04,-251.01"/>
</g>
<!-- engine -->
<g id="node27" class="node">
<title>engine</title>
<text text-anchor="start" x="97.5" y="-42.8" font-family="Times New Roman,serif" font-weight="bold" font-size="14.00">Modern</text>
<text text-anchor="start" x="99" y="-28.8" font-family="Times New Roman,serif" font-weight="bold" font-size="14.00">English</text>
<text text-anchor="start" x="104" y="-14.8" font-family="Times New Roman,serif" font-size="14.00" fill="red">engine</text>
</g>
<!-- enginME&#45;&gt;engine -->
<g id="edge26" class="edge">
<title>enginME&#45;&gt;engine</title>
<path fill="none" stroke="black" d="M131.13,-180.8C129.19,-149.3 126.14,-100 124.11,-67.11"/>
<polygon fill="black" stroke="black" points="127.6,-66.82 123.49,-57.05 120.61,-67.25 127.6,-66.82"/>
</g>
<!-- ingenuitasL -->
<g id="node29" class="node">
<title>ingenuitasL</title>
<text text-anchor="start" x="922.5" y="-134.8" font-family="Times New Roman,serif" font-size="14.00" fill="red">ingenuitās</text>
<text text-anchor="start" x="928.5" y="-122.4" font-family="Times New Roman,serif" font-size="12.00">frankness</text>
</g>
<!-- ingenuusL&#45;&gt;ingenuitasL -->
<g id="edge28" class="edge">
<title>ingenuusL&#45;&gt;ingenuitasL</title>
<path fill="none" stroke="black" d="M1017.68,-260.74C1003.18,-233.39 979.19,-188.09 964.01,-159.44"/>
<polygon fill="black" stroke="black" points="967,-157.6 959.22,-150.4 960.81,-160.88 967,-157.6"/>
</g>
<!-- ingenuous -->
<g id="node30" class="node">
<title>ingenuous</title>
<text text-anchor="start" x="1005.5" y="-49.8" font-family="Times New Roman,serif" font-weight="bold" font-size="14.00">Modern</text>
<text text-anchor="start" x="1007" y="-35.8" font-family="Times New Roman,serif" font-weight="bold" font-size="14.00">English</text>
<text text-anchor="start" x="1001.5" y="-21.8" font-family="Times New Roman,serif" font-size="14.00" fill="red">ingenuous</text>
<text text-anchor="start" x="993.5" y="-7.8" font-family="Times New Roman,serif" font-size="14.00" fill="red">disingenuous</text>
</g>
<!-- ingenuusL&#45;&gt;ingenuous -->
<g id="edge29" class="edge">
<title>ingenuusL&#45;&gt;ingenuous</title>
<path fill="none" stroke="black" stroke-dasharray="5,2" d="M1030,-260.84C1030,-218.4 1030,-127.65 1030,-74.38"/>
<polygon fill="black" stroke="black" points="1033.5,-74.25 1030,-64.25 1026.5,-74.25 1033.5,-74.25"/>
</g>
<!-- ingenuF -->
<g id="node32" class="node">
<title>ingenuF</title>
<text text-anchor="start" x="1086" y="-148.8" font-family="Times New Roman,serif" font-weight="bold" font-size="14.00">French</text>
<text text-anchor="start" x="1088" y="-134.8" font-family="Times New Roman,serif" font-size="14.00" fill="red">ingénu,</text>
<text text-anchor="start" x="1086.5" y="-120.8" font-family="Times New Roman,serif" font-size="14.00" fill="red">ingénue</text>
<text text-anchor="start" x="1089.5" y="-108.4" font-family="Times New Roman,serif" font-size="12.00">guileless</text>
</g>
<!-- ingenuusL&#45;&gt;ingenuF -->
<g id="edge31" class="edge">
<title>ingenuusL&#45;&gt;ingenuF</title>
<path fill="none" stroke="black" d="M1042.02,-260.74C1054.19,-237.18 1073.23,-200.3 1087.74,-172.22"/>
<polygon fill="black" stroke="black" points="1090.99,-173.55 1092.47,-163.06 1084.77,-170.34 1090.99,-173.55"/>
</g>
<!-- genuinusL -->
<g id="node34" class="node">
<title>genuinusL</title>
<text text-anchor="start" x="1173.5" y="-134.8" font-family="Times New Roman,serif" font-size="14.00" fill="red">genuīnus</text>
<text text-anchor="start" x="1183.5" y="-122.4" font-family="Times New Roman,serif" font-size="12.00">natural</text>
</g>
<!-- ingenuusL&#45;&gt;genuinusL -->
<g id="edge33" class="edge">
<title>ingenuusL&#45;&gt;genuinusL</title>
<path fill="none" stroke="black" d="M1060.33,-260.8C1067.53,-255.1 1075.12,-248.93 1082,-243 1114.83,-214.72 1150.93,-180.23 1174.22,-157.5"/>
<polygon fill="black" stroke="black" points="1176.91,-159.76 1181.6,-150.26 1172.01,-154.76 1176.91,-159.76"/>
<text text-anchor="middle" x="1153.5" y="-208.3" font-family="Times New Roman,serif" font-size="14.00">?</text>
<polyline fill="none" stroke="black" points="1157,-204.5 1150,-204.5 1136.53,-193.62 "/>
</g>
<!-- ingenuity -->
<g id="node31" class="node">
<title>ingenuity</title>
<text text-anchor="start" x="909.5" y="-42.8" font-family="Times New Roman,serif" font-weight="bold" font-size="14.00">Modern</text>
<text text-anchor="start" x="911" y="-28.8" font-family="Times New Roman,serif" font-weight="bold" font-size="14.00">English</text>
<text text-anchor="start" x="909" y="-14.8" font-family="Times New Roman,serif" font-size="14.00" fill="red">ingenuity</text>
</g>
<!-- ingenuitasL&#45;&gt;ingenuity -->
<g id="edge30" class="edge">
<title>ingenuitasL&#45;&gt;ingenuity</title>
<path fill="none" stroke="black" stroke-dasharray="5,2" d="M947.21,-113.93C945.11,-101.06 942.16,-83 939.58,-67.2"/>
<polygon fill="black" stroke="black" points="943.02,-66.52 937.95,-57.22 936.11,-67.65 943.02,-66.52"/>
</g>
<!-- ingenue -->
<g id="node33" class="node">
<title>ingenue</title>
<text text-anchor="start" x="1100.5" y="-42.8" font-family="Times New Roman,serif" font-weight="bold" font-size="14.00">Modern</text>
<text text-anchor="start" x="1102" y="-28.8" font-family="Times New Roman,serif" font-weight="bold" font-size="14.00">English</text>
<text text-anchor="start" x="1103.5" y="-14.8" font-family="Times New Roman,serif" font-size="14.00" fill="red">ingenue</text>
</g>
<!-- ingenuF&#45;&gt;ingenue -->
<g id="edge32" class="edge">
<title>ingenuF&#45;&gt;ingenue</title>
<path fill="none" stroke="black" stroke-dasharray="5,2" d="M1113.24,-100.8C1115.09,-90.14 1117.18,-78.09 1119.08,-67.13"/>
<polygon fill="black" stroke="black" points="1122.57,-67.5 1120.83,-57.05 1115.67,-66.3 1122.57,-67.5"/>
</g>
<!-- genuine -->
<g id="node35" class="node">
<title>genuine</title>
<text text-anchor="start" x="1183.5" y="-42.8" font-family="Times New Roman,serif" font-weight="bold" font-size="14.00">Modern</text>
<text text-anchor="start" x="1185" y="-28.8" font-family="Times New Roman,serif" font-weight="bold" font-size="14.00">English</text>
<text text-anchor="start" x="1186.5" y="-14.8" font-family="Times New Roman,serif" font-size="14.00" fill="red">genuine</text>
</g>
<!-- genuinusL&#45;&gt;genuine -->
<g id="edge34" class="edge">
<title>genuinusL&#45;&gt;genuine</title>
<path fill="none" stroke="black" d="M1200.57,-113.93C1201.75,-101.06 1203.41,-83 1204.86,-67.2"/>
<polygon fill="black" stroke="black" points="1208.35,-67.5 1205.78,-57.22 1201.38,-66.85 1208.35,-67.5"/>
</g>
<!-- indigenous -->
<g id="node37" class="node">
<title>indigenous</title>
<text text-anchor="start" x="440.5" y="-42.8" font-family="Times New Roman,serif" font-weight="bold" font-size="14.00">Modern</text>
<text text-anchor="start" x="442" y="-28.8" font-family="Times New Roman,serif" font-weight="bold" font-size="14.00">English</text>
<text text-anchor="start" x="434.5" y="-14.8" font-family="Times New Roman,serif" font-size="14.00" fill="red">indigenous</text>
</g>
<!-- indigenaL&#45;&gt;indigenous -->
<g id="edge36" class="edge">
<title>indigenaL&#45;&gt;indigenous</title>
<path fill="none" stroke="black" stroke-dasharray="5,2" d="M465.71,-448.78C465.41,-423.5 465,-381.88 465,-346 465,-346 465,-346 465,-131 465,-109.85 465,-86.14 465,-67.33"/>
<polygon fill="black" stroke="black" points="468.5,-67.16 465,-57.16 461.5,-67.16 468.5,-67.16"/>
</g>
<!-- germeOF -->
<g id="node39" class="node">
<title>germeOF</title>
<text text-anchor="start" x="520" y="-409.8" font-family="Times New Roman,serif" font-weight="bold" font-size="14.00">Old French</text>
<text text-anchor="start" x="538" y="-395.8" font-family="Times New Roman,serif" font-size="14.00" fill="red">germe</text>
</g>
<!-- germenL&#45;&gt;germeOF -->
<g id="edge38" class="edge">
<title>germenL&#45;&gt;germeOF</title>
<path fill="none" stroke="black" d="M607.71,-514.88C596.54,-492.03 579.48,-457.11 567.82,-433.23"/>
<polygon fill="black" stroke="black" points="570.86,-431.5 563.33,-424.05 564.58,-434.57 570.86,-431.5"/>
</g>
<!-- germanusL -->
<g id="node42" class="node">
<title>germanusL</title>
<text text-anchor="start" x="628" y="-402.3" font-family="Times New Roman,serif" font-size="14.00" fill="red">germānus</text>
</g>
<!-- germenL&#45;&gt;germanusL -->
<g id="edge41" class="edge">
<title>germenL&#45;&gt;germanusL</title>
<path fill="none" stroke="black" d="M625.35,-514.88C631.58,-492.23 641.06,-457.73 647.62,-433.87"/>
<polygon fill="black" stroke="black" points="651.04,-434.62 650.31,-424.05 644.29,-432.77 651.04,-434.62"/>
</g>
<!-- germinareL -->
<g id="node47" class="node">
<title>germinareL</title>
<text text-anchor="start" x="735" y="-341.3" font-family="Times New Roman,serif" font-size="14.00" fill="red">germināre, germināt&#45;</text>
</g>
<!-- germenL&#45;&gt;germinareL -->
<g id="edge46" class="edge">
<title>germenL&#45;&gt;germinareL</title>
<path fill="none" stroke="black" d="M639.87,-514.84C672.62,-478.49 735.82,-408.35 769.54,-370.93"/>
<polygon fill="black" stroke="black" points="772.56,-372.81 776.65,-363.03 767.36,-368.12 772.56,-372.81"/>
</g>
<!-- germME -->
<g id="node40" class="node">
<title>germME</title>
<text text-anchor="start" x="532.5" y="-228.8" font-family="Times New Roman,serif" font-weight="bold" font-size="14.00">Middle</text>
<text text-anchor="start" x="531" y="-214.8" font-family="Times New Roman,serif" font-weight="bold" font-size="14.00">English</text>
<text text-anchor="start" x="540" y="-200.8" font-family="Times New Roman,serif" font-size="14.00" fill="red">germ</text>
<text text-anchor="start" x="545" y="-188.4" font-family="Times New Roman,serif" font-size="12.00">bud</text>
</g>
<!-- germeOF&#45;&gt;germME -->
<g id="edge39" class="edge">
<title>germeOF&#45;&gt;germME</title>
<path fill="none" stroke="black" stroke-dasharray="5,2" d="M554.91,-387.96C554.75,-357.93 554.43,-294.8 554.21,-253.16"/>
<polygon fill="black" stroke="black" points="557.71,-253.06 554.16,-243.07 550.71,-253.09 557.71,-253.06"/>
</g>
<!-- germ -->
<g id="node41" class="node">
<title>germ</title>
<text text-anchor="start" x="529.5" y="-42.8" font-family="Times New Roman,serif" font-weight="bold" font-size="14.00">Modern</text>
<text text-anchor="start" x="531" y="-28.8" font-family="Times New Roman,serif" font-weight="bold" font-size="14.00">English</text>
<text text-anchor="start" x="540" y="-14.8" font-family="Times New Roman,serif" font-size="14.00" fill="red">germ</text>
</g>
<!-- germME&#45;&gt;germ -->
<g id="edge40" class="edge">
<title>germME&#45;&gt;germ</title>
<path fill="none" stroke="black" d="M554,-180.8C554,-149.3 554,-100 554,-67.11"/>
<polygon fill="black" stroke="black" points="557.5,-67.05 554,-57.05 550.5,-67.05 557.5,-67.05"/>
</g>
<!-- germainOF -->
<g id="node43" class="node">
<title>germainOF</title>
<text text-anchor="start" x="621" y="-288.8" font-family="Times New Roman,serif" font-weight="bold" font-size="14.00">Old French</text>
<text text-anchor="start" x="634" y="-274.8" font-family="Times New Roman,serif" font-size="14.00" fill="red">germain</text>
</g>
<!-- germanusL&#45;&gt;germainOF -->
<g id="edge42" class="edge">
<title>germanusL&#45;&gt;germainOF</title>
<path fill="none" stroke="black" d="M655.14,-387.95C655.31,-368.42 655.58,-336.16 655.77,-313.16"/>
<polygon fill="black" stroke="black" points="659.27,-313.05 655.86,-303.02 652.27,-312.99 659.27,-313.05"/>
</g>
<!-- germainME -->
<g id="node44" class="node">
<title>germainME</title>
<text text-anchor="start" x="636.5" y="-142.8" font-family="Times New Roman,serif" font-weight="bold" font-size="14.00">Middle</text>
<text text-anchor="start" x="635" y="-128.8" font-family="Times New Roman,serif" font-weight="bold" font-size="14.00">English</text>
<text text-anchor="start" x="636" y="-114.8" font-family="Times New Roman,serif" font-size="14.00" fill="red">germain</text>
</g>
<!-- germainOF&#45;&gt;germainME -->
<g id="edge43" class="edge">
<title>germainOF&#45;&gt;germainME</title>
<path fill="none" stroke="black" stroke-dasharray="5,2" d="M656.23,-266.97C656.54,-242.96 657.13,-198.62 657.54,-167.55"/>
<polygon fill="black" stroke="black" points="661.05,-167.21 657.68,-157.17 654.05,-167.12 661.05,-167.21"/>
</g>
<!-- german -->
<g id="node45" class="node">
<title>german</title>
<text text-anchor="start" x="633.5" y="-42.8" font-family="Times New Roman,serif" font-weight="bold" font-size="14.00">Modern</text>
<text text-anchor="start" x="635" y="-28.8" font-family="Times New Roman,serif" font-weight="bold" font-size="14.00">English</text>
<text text-anchor="start" x="612.5" y="-14.8" font-family="Times New Roman,serif" font-size="14.00" fill="red">(cousin&#45;)german</text>
</g>
<!-- germainME&#45;&gt;german -->
<g id="edge44" class="edge">
<title>germainME&#45;&gt;german</title>
<path fill="none" stroke="black" d="M658,-106.78C658,-94.88 658,-80.34 658,-67.32"/>
<polygon fill="black" stroke="black" points="661.5,-67.29 658,-57.29 654.5,-67.29 661.5,-67.29"/>
</g>
<!-- germane -->
<g id="node46" class="node">
<title>germane</title>
<text text-anchor="start" x="737.5" y="-42.8" font-family="Times New Roman,serif" font-weight="bold" font-size="14.00">Modern</text>
<text text-anchor="start" x="739" y="-28.8" font-family="Times New Roman,serif" font-weight="bold" font-size="14.00">English</text>
<text text-anchor="start" x="738.5" y="-14.8" font-family="Times New Roman,serif" font-size="14.00" fill="red">germane</text>
</g>
<!-- germainME&#45;&gt;germane -->
<g id="edge45" class="edge">
<title>germainME&#45;&gt;germane</title>
<path fill="none" stroke="black" d="M683.71,-106.78C697.33,-93.94 714.23,-78.02 728.83,-64.26"/>
<polygon fill="black" stroke="black" points="731.35,-66.69 736.23,-57.29 726.55,-61.6 731.35,-66.69"/>
</g>
<!-- germinate -->
<g id="node48" class="node">
<title>germinate</title>
<text text-anchor="start" x="823.5" y="-42.8" font-family="Times New Roman,serif" font-weight="bold" font-size="14.00">Modern</text>
<text text-anchor="start" x="825" y="-28.8" font-family="Times New Roman,serif" font-weight="bold" font-size="14.00">English</text>
<text text-anchor="start" x="821" y="-14.8" font-family="Times New Roman,serif" font-size="14.00" fill="red">germinate</text>
</g>
<!-- germinareL&#45;&gt;germinate -->
<g id="edge47" class="edge">
<title>germinareL&#45;&gt;germinate</title>
<path fill="none" stroke="black" stroke-dasharray="5,2" d="M795.09,-326.84C804.01,-277.28 829.94,-133.29 841.87,-67.06"/>
<polygon fill="black" stroke="black" points="845.33,-67.58 843.66,-57.12 838.44,-66.34 845.33,-67.58"/>
</g>
</g>
</svg>
