<?xml version="1.0" encoding="UTF-8" standalone="no"?>
<!DOCTYPE svg PUBLIC "-//W3C//DTD SVG 1.1//EN"
 "http://www.w3.org/Graphics/SVG/1.1/DTD/svg11.dtd">
<!-- Generated by graphviz version 2.49.0 (20210828.1703)
 -->
<!-- Pages: 1 -->
<svg width="561pt" height="548pt"
 viewBox="0.00 0.00 561.00 548.00" xmlns="http://www.w3.org/2000/svg" xmlns:xlink="http://www.w3.org/1999/xlink">
<g id="graph0" class="graph" transform="scale(1 1) rotate(0) translate(4 544)">
<polygon fill="white" stroke="transparent" points="-4,4 -4,-544 557,-544 557,4 -4,4"/>
<!-- genIE -->
<g id="node1" class="node">
<title>genIE</title>
<g id="a_node1"><a xlink:href="gen-birth1.svg" xlink:title="&lt;font point&#45;size=&quot;24&quot;&gt;&lt;b&gt;Indo&#45;European&lt;/b&gt;&lt;/font&gt;&lt;br/&gt;&lt;font point&#45;size=&quot;18&quot; color=&quot;red&quot;&gt;gen(ə)&#45;, gon&#45;, gn̥&#45;&lt;/font&gt;&lt;br/&gt;&lt;font point&#45;size=&quot;16&quot;&gt;to beget, give birth, be born&lt;/font&gt;">
<path fill="none" stroke="black" stroke-dasharray="5,2" d="M318.5,-540C318.5,-540 155.5,-540 155.5,-540 149.5,-540 143.5,-534 143.5,-528 143.5,-528 143.5,-486 143.5,-486 143.5,-480 149.5,-474 155.5,-474 155.5,-474 318.5,-474 318.5,-474 324.5,-474 330.5,-480 330.5,-486 330.5,-486 330.5,-528 330.5,-528 330.5,-534 324.5,-540 318.5,-540"/>
<text text-anchor="start" x="158.5" y="-517.8" font-family="Times New Roman,serif" font-weight="bold" font-size="24.00">Indo&#45;European</text>
<text text-anchor="start" x="174" y="-498.6" font-family="Times New Roman,serif" font-size="18.00" fill="red">gen(ə)&#45;, gon&#45;, gn̥&#45;</text>
<text text-anchor="start" x="151.5" y="-482.2" font-family="Times New Roman,serif" font-size="16.00">to beget, give birth, be born</text>
</a>
</g>
</g>
<!-- gon -->
<g id="node2" class="node">
<title>gon</title>
<text text-anchor="start" x="182" y="-403.3" font-family="Times New Roman,serif" font-size="14.00" fill="red">gon&#45;, gonə&#45;, gon&#45;o&#45;</text>
</g>
<!-- genIE&#45;&gt;gon -->
<g id="edge1" class="edge">
<title>genIE&#45;&gt;gon</title>
<path fill="none" stroke="black" d="M237,-473.91C237,-461.43 237,-447.28 237,-435.3"/>
<polygon fill="black" stroke="black" points="240.5,-435.02 237,-425.02 233.5,-435.02 240.5,-435.02"/>
</g>
<!-- gonosG -->
<g id="node3" class="node">
<title>gonosG</title>
<text text-anchor="start" x="217" y="-324.8" font-family="Times New Roman,serif" font-weight="bold" font-size="14.00">Greek</text>
<text text-anchor="start" x="219.5" y="-310.8" font-family="Times New Roman,serif" font-size="14.00" fill="red">gonos</text>
<text text-anchor="start" x="209.5" y="-298.4" font-family="Times New Roman,serif" font-size="12.00">procreation,</text>
<text text-anchor="start" x="220" y="-286.4" font-family="Times New Roman,serif" font-size="12.00">genitals</text>
</g>
<!-- gon&#45;&gt;gonosG -->
<g id="edge2" class="edge">
<title>gon&#45;&gt;gonosG</title>
<path fill="none" stroke="black" d="M237,-388.84C237,-377.84 237,-363.08 237,-349.32"/>
<polygon fill="black" stroke="black" points="240.5,-349.06 237,-339.06 233.5,-349.06 240.5,-349.06"/>
</g>
<!-- gonasL -->
<g id="node4" class="node">
<title>gonasL</title>
<text text-anchor="start" x="221.5" y="-138.8" font-family="Times New Roman,serif" font-weight="bold" font-size="14.00">Latin</text>
<text text-anchor="start" x="198" y="-124.8" font-family="Times New Roman,serif" font-size="14.00" fill="red">gonas, gonad&#45;</text>
</g>
<!-- gonosG&#45;&gt;gonasL -->
<g id="edge3" class="edge">
<title>gonosG&#45;&gt;gonasL</title>
<path fill="none" stroke="black" stroke-dasharray="1,5" d="M237.17,-278.82C237.36,-246.59 237.66,-195.07 237.84,-163.51"/>
<polygon fill="black" stroke="black" points="241.34,-163.27 237.9,-153.25 234.34,-163.23 241.34,-163.27"/>
</g>
<!-- epigonoiG -->
<g id="node8" class="node">
<title>epigonoiG</title>
<text text-anchor="start" x="31.5" y="-227.8" font-family="Times New Roman,serif" font-size="14.00" fill="red">Epigonoi</text>
<text text-anchor="start" x="32.5" y="-215.4" font-family="Times New Roman,serif" font-size="12.00">sons of the</text>
<text text-anchor="start" x="8" y="-203.4" font-family="Times New Roman,serif" font-size="12.00">Seven against Thebes</text>
</g>
<!-- gonosG&#45;&gt;epigonoiG -->
<g id="edge6" class="edge">
<title>gonosG&#45;&gt;epigonoiG</title>
<path fill="none" stroke="black" d="M201.44,-290.61C175.74,-278.05 140.55,-260.85 111.34,-246.57"/>
<polygon fill="black" stroke="black" points="112.61,-243.29 102.08,-242.04 109.53,-249.58 112.61,-243.29"/>
</g>
<!-- gonoG -->
<g id="node11" class="node">
<title>gonoG</title>
<text text-anchor="start" x="273.5" y="-215.3" font-family="Times New Roman,serif" font-size="14.00" fill="red">gono&#45;, gon&#45;</text>
</g>
<!-- gonosG&#45;&gt;gonoG -->
<g id="edge10" class="edge">
<title>gonosG&#45;&gt;gonoG</title>
<path fill="none" stroke="black" d="M260.31,-278.7C268.97,-267.81 278.71,-255.56 287.05,-245.09"/>
<polygon fill="black" stroke="black" points="289.9,-247.13 293.38,-237.12 284.42,-242.77 289.9,-247.13"/>
</g>
<!-- goneiaG -->
<g id="node13" class="node">
<title>goneiaG</title>
<text text-anchor="start" x="153.5" y="-215.3" font-family="Times New Roman,serif" font-size="14.00" fill="red">&#45;goneia</text>
</g>
<!-- gonosG&#45;&gt;goneiaG -->
<g id="edge12" class="edge">
<title>gonosG&#45;&gt;goneiaG</title>
<path fill="none" stroke="black" d="M216.02,-278.7C208.3,-267.92 199.63,-255.81 192.18,-245.4"/>
<polygon fill="black" stroke="black" points="194.92,-243.21 186.26,-237.12 189.23,-247.29 194.92,-243.21"/>
</g>
<!-- arkhegonosG -->
<g id="node22" class="node">
<title>arkhegonosG</title>
<text text-anchor="start" x="475.5" y="-215.3" font-family="Times New Roman,serif" font-size="14.00" fill="red">arkhegonos</text>
</g>
<!-- gonosG&#45;&gt;arkhegonosG -->
<g id="edge20" class="edge">
<title>gonosG&#45;&gt;arkhegonosG</title>
<path fill="none" stroke="black" d="M272.66,-298.82C316.72,-287.14 393.73,-265.63 458,-242 459.02,-241.62 460.06,-241.24 461.09,-240.84"/>
<polygon fill="black" stroke="black" points="462.53,-244.04 470.53,-237.08 459.94,-237.53 462.53,-244.04"/>
</g>
<!-- gonad -->
<g id="node5" class="node">
<title>gonad</title>
<text text-anchor="start" x="208.5" y="-47.8" font-family="Times New Roman,serif" font-weight="bold" font-size="14.00">Modern</text>
<text text-anchor="start" x="210" y="-33.8" font-family="Times New Roman,serif" font-weight="bold" font-size="14.00">English</text>
<text text-anchor="start" x="215.5" y="-19.8" font-family="Times New Roman,serif" font-size="14.00" fill="red">gonad</text>
</g>
<!-- gonasL&#45;&gt;gonad -->
<g id="edge4" class="edge">
<title>gonasL&#45;&gt;gonad</title>
<path fill="none" stroke="black" stroke-dasharray="1,5" d="M237.11,-116.84C236.46,-104.48 235.57,-87.39 234.79,-72.29"/>
<polygon fill="black" stroke="black" points="238.28,-72.03 234.26,-62.23 231.29,-72.4 238.28,-72.03"/>
</g>
<!-- epiIE -->
<g id="node6" class="node">
<title>epiIE</title>
<g id="a_node6"><a xlink:href="epi-near.svg" xlink:title="&lt;b&gt;Indo&#45;&lt;br/&gt;European&lt;/b&gt;&lt;br/&gt;&lt;font color=&quot;red&quot;&gt;epi&lt;/font&gt;&lt;br/&gt;&lt;font point&#45;size=&quot;12&quot;&gt;near, at&lt;/font&gt;">
<path fill="none" stroke="black" stroke-dasharray="5,2" d="M83.5,-438C83.5,-438 30.5,-438 30.5,-438 24.5,-438 18.5,-432 18.5,-426 18.5,-426 18.5,-388 18.5,-388 18.5,-382 24.5,-376 30.5,-376 30.5,-376 83.5,-376 83.5,-376 89.5,-376 95.5,-382 95.5,-388 95.5,-388 95.5,-426 95.5,-426 95.5,-432 89.5,-438 83.5,-438"/>
<text text-anchor="start" x="40.5" y="-423.8" font-family="Times New Roman,serif" font-weight="bold" font-size="14.00">Indo&#45;</text>
<text text-anchor="start" x="26.5" y="-409.8" font-family="Times New Roman,serif" font-weight="bold" font-size="14.00">European</text>
<text text-anchor="start" x="48.5" y="-395.8" font-family="Times New Roman,serif" font-size="14.00" fill="red">epi</text>
<text text-anchor="start" x="40" y="-383.4" font-family="Times New Roman,serif" font-size="12.00">near, at</text>
</a>
</g>
</g>
<!-- epiG -->
<g id="node7" class="node">
<title>epiG</title>
<text text-anchor="start" x="37" y="-325.8" font-family="Times New Roman,serif" font-weight="bold" font-size="14.00">Greek</text>
<text text-anchor="start" x="48.5" y="-311.8" font-family="Times New Roman,serif" font-size="14.00" fill="red">epi</text>
<text text-anchor="start" x="45.5" y="-299.4" font-family="Times New Roman,serif" font-size="12.00">upon</text>
<text text-anchor="start" x="46" y="-285.8" font-family="Times New Roman,serif" font-size="14.00" fill="red">epi&#45;</text>
</g>
<!-- epiIE&#45;&gt;epiG -->
<g id="edge5" class="edge">
<title>epiIE&#45;&gt;epiG</title>
<path fill="none" stroke="black" d="M57,-375.89C57,-367.76 57,-358.83 57,-350.24"/>
<polygon fill="black" stroke="black" points="60.5,-350 57,-340 53.5,-350 60.5,-350"/>
</g>
<!-- epiG&#45;&gt;epigonoiG -->
<g id="edge7" class="edge">
<title>epiG&#45;&gt;epigonoiG</title>
<path fill="none" stroke="black" d="M57,-277.72C57,-269.47 57,-260.5 57,-252.15"/>
<polygon fill="black" stroke="black" points="60.5,-252 57,-242 53.5,-252 60.5,-252"/>
</g>
<!-- epigoneF -->
<g id="node9" class="node">
<title>epigoneF</title>
<text text-anchor="start" x="28" y="-145.8" font-family="Times New Roman,serif" font-weight="bold" font-size="14.00">French</text>
<text text-anchor="start" x="11" y="-131.8" font-family="Times New Roman,serif" font-size="14.00" fill="red">épigones </text>
<text text-anchor="start" x="65" y="-131.8" font-family="Times New Roman,serif" font-size="14.00">(pl.)</text>
<text text-anchor="start" x="8" y="-117.8" font-family="Times New Roman,serif" font-size="14.00" fill="red">épigone </text>
<text text-anchor="start" x="56" y="-117.8" font-family="Times New Roman,serif" font-size="14.00">(sing.)</text>
</g>
<!-- epigonoiG&#45;&gt;epigoneF -->
<g id="edge8" class="edge">
<title>epigonoiG&#45;&gt;epigoneF</title>
<path fill="none" stroke="black" stroke-dasharray="1,5" d="M55.09,-195.59C54.42,-187.77 53.65,-178.81 52.92,-170.24"/>
<polygon fill="black" stroke="black" points="56.4,-169.77 52.06,-160.1 49.42,-170.37 56.4,-169.77"/>
</g>
<!-- epigone -->
<g id="node10" class="node">
<title>epigone</title>
<text text-anchor="start" x="25.5" y="-59.8" font-family="Times New Roman,serif" font-weight="bold" font-size="14.00">Modern</text>
<text text-anchor="start" x="27" y="-45.8" font-family="Times New Roman,serif" font-weight="bold" font-size="14.00">English</text>
<text text-anchor="start" x="28" y="-31.8" font-family="Times New Roman,serif" font-size="14.00" fill="red">epigone</text>
<text text-anchor="start" x="22.5" y="-19.4" font-family="Times New Roman,serif" font-size="12.00">second&#45;rate</text>
<text text-anchor="start" x="33" y="-7.4" font-family="Times New Roman,serif" font-size="12.00">imitator</text>
</g>
<!-- epigoneF&#45;&gt;epigone -->
<g id="edge9" class="edge">
<title>epigoneF&#45;&gt;epigone</title>
<path fill="none" stroke="black" stroke-dasharray="1,5" d="M50,-109.78C50,-102.03 50,-93.18 50,-84.4"/>
<polygon fill="black" stroke="black" points="53.5,-84.2 50,-74.2 46.5,-84.2 53.5,-84.2"/>
</g>
<!-- gono -->
<g id="node12" class="node">
<title>gono</title>
<text text-anchor="start" x="291.5" y="-54.8" font-family="Times New Roman,serif" font-weight="bold" font-size="14.00">Modern</text>
<text text-anchor="start" x="293" y="-40.8" font-family="Times New Roman,serif" font-weight="bold" font-size="14.00">English</text>
<text text-anchor="start" x="299" y="-26.8" font-family="Times New Roman,serif" font-size="14.00" fill="red">gono&#45;</text>
<text text-anchor="start" x="303" y="-12.8" font-family="Times New Roman,serif" font-size="14.00" fill="red">gon&#45;</text>
</g>
<!-- gonoG&#45;&gt;gono -->
<g id="edge11" class="edge">
<title>gonoG&#45;&gt;gono</title>
<path fill="none" stroke="black" stroke-dasharray="1,5" d="M307.86,-200.74C309.25,-173.07 312,-118.01 313.92,-79.63"/>
<polygon fill="black" stroke="black" points="317.43,-79.45 314.44,-69.29 310.44,-79.1 317.43,-79.45"/>
</g>
<!-- gonorrhoiaG -->
<g id="node19" class="node">
<title>gonorrhoiaG</title>
<text text-anchor="start" x="375.5" y="-131.3" font-family="Times New Roman,serif" font-size="14.00" fill="red">gonorrhoia</text>
</g>
<!-- gonoG&#45;&gt;gonorrhoiaG -->
<g id="edge17" class="edge">
<title>gonoG&#45;&gt;gonorrhoiaG</title>
<path fill="none" stroke="black" d="M328,-200.61C342.4,-188.68 361.69,-172.7 377.48,-159.62"/>
<polygon fill="black" stroke="black" points="379.91,-162.16 385.37,-153.08 375.44,-156.77 379.91,-162.16"/>
</g>
<!-- goniaL -->
<g id="node14" class="node">
<title>goniaL</title>
<text text-anchor="start" x="128.5" y="-138.8" font-family="Times New Roman,serif" font-weight="bold" font-size="14.00">Latin</text>
<text text-anchor="start" x="127.5" y="-124.8" font-family="Times New Roman,serif" font-size="14.00" fill="red">&#45;gonia</text>
</g>
<!-- goneiaG&#45;&gt;goniaL -->
<g id="edge13" class="edge">
<title>goneiaG&#45;&gt;goniaL</title>
<path fill="none" stroke="black" stroke-dasharray="1,5" d="M167.85,-200.61C163.94,-189.56 158.8,-175.03 154.39,-162.55"/>
<polygon fill="black" stroke="black" points="157.68,-161.34 151.04,-153.08 151.08,-163.68 157.68,-161.34"/>
</g>
<!-- gony -->
<g id="node15" class="node">
<title>gony</title>
<text text-anchor="start" x="120.5" y="-47.8" font-family="Times New Roman,serif" font-weight="bold" font-size="14.00">Modern</text>
<text text-anchor="start" x="122" y="-33.8" font-family="Times New Roman,serif" font-weight="bold" font-size="14.00">English</text>
<text text-anchor="start" x="128.5" y="-19.8" font-family="Times New Roman,serif" font-size="14.00" fill="red">&#45;gony</text>
</g>
<!-- goniaL&#45;&gt;gony -->
<g id="edge14" class="edge">
<title>goniaL&#45;&gt;gony</title>
<path fill="none" stroke="black" stroke-dasharray="1,5" d="M145,-116.84C145,-104.48 145,-87.39 145,-72.29"/>
<polygon fill="black" stroke="black" points="148.5,-72.23 145,-62.23 141.5,-72.23 148.5,-72.23"/>
</g>
<!-- sreuIE -->
<g id="node16" class="node">
<title>sreuIE</title>
<g id="a_node16"><a xlink:href="sreu-flow.svg" xlink:title="&lt;b&gt;Indo&#45;&lt;br/&gt;European&lt;/b&gt;&lt;br/&gt;&lt;font color=&quot;red&quot;&gt;sreu&#45;&lt;/font&gt;&lt;br/&gt;&lt;font point&#45;size=&quot;12&quot;&gt;to flow&lt;/font&gt;">
<path fill="none" stroke="black" stroke-dasharray="5,2" d="M434.5,-438C434.5,-438 381.5,-438 381.5,-438 375.5,-438 369.5,-432 369.5,-426 369.5,-426 369.5,-388 369.5,-388 369.5,-382 375.5,-376 381.5,-376 381.5,-376 434.5,-376 434.5,-376 440.5,-376 446.5,-382 446.5,-388 446.5,-388 446.5,-426 446.5,-426 446.5,-432 440.5,-438 434.5,-438"/>
<text text-anchor="start" x="391.5" y="-423.8" font-family="Times New Roman,serif" font-weight="bold" font-size="14.00">Indo&#45;</text>
<text text-anchor="start" x="377.5" y="-409.8" font-family="Times New Roman,serif" font-weight="bold" font-size="14.00">European</text>
<text text-anchor="start" x="394" y="-395.8" font-family="Times New Roman,serif" font-size="14.00" fill="red">sreu&#45;</text>
<text text-anchor="start" x="392" y="-383.4" font-family="Times New Roman,serif" font-size="12.00">to flow</text>
</a>
</g>
</g>
<!-- rheinG -->
<g id="node17" class="node">
<title>rheinG</title>
<text text-anchor="start" x="388" y="-312.8" font-family="Times New Roman,serif" font-weight="bold" font-size="14.00">Greek</text>
<text text-anchor="start" x="394" y="-298.8" font-family="Times New Roman,serif" font-size="14.00" fill="red">rhein</text>
</g>
<!-- sreuIE&#45;&gt;rheinG -->
<g id="edge15" class="edge">
<title>sreuIE&#45;&gt;rheinG</title>
<path fill="none" stroke="black" d="M408,-375.89C408,-363.6 408,-349.48 408,-337.47"/>
<polygon fill="black" stroke="black" points="411.5,-337.15 408,-327.15 404.5,-337.15 411.5,-337.15"/>
</g>
<!-- rhoiaG -->
<g id="node18" class="node">
<title>rhoiaG</title>
<text text-anchor="start" x="375" y="-221.8" font-family="Times New Roman,serif" font-size="14.00" fill="red">rhoia, &#45;rroia</text>
<text text-anchor="start" x="387.5" y="-209.4" font-family="Times New Roman,serif" font-size="12.00">a flowing</text>
</g>
<!-- rheinG&#45;&gt;rhoiaG -->
<g id="edge16" class="edge">
<title>rheinG&#45;&gt;rhoiaG</title>
<path fill="none" stroke="black" d="M408,-290.61C408,-278.24 408,-261.37 408,-247.22"/>
<polygon fill="black" stroke="black" points="411.5,-247.05 408,-237.05 404.5,-247.05 411.5,-247.05"/>
</g>
<!-- rhoiaG&#45;&gt;gonorrhoiaG -->
<g id="edge18" class="edge">
<title>rhoiaG&#45;&gt;gonorrhoiaG</title>
<path fill="none" stroke="black" d="M407.58,-200.61C407.31,-189.77 406.97,-175.6 406.67,-163.29"/>
<polygon fill="black" stroke="black" points="410.16,-163 406.42,-153.08 403.16,-163.17 410.16,-163"/>
</g>
<!-- gonorrhea -->
<g id="node20" class="node">
<title>gonorrhea</title>
<text text-anchor="start" x="381.5" y="-47.8" font-family="Times New Roman,serif" font-weight="bold" font-size="14.00">Modern</text>
<text text-anchor="start" x="383" y="-33.8" font-family="Times New Roman,serif" font-weight="bold" font-size="14.00">English</text>
<text text-anchor="start" x="377.5" y="-19.8" font-family="Times New Roman,serif" font-size="14.00" fill="red">gonorrhea</text>
</g>
<!-- gonorrhoiaG&#45;&gt;gonorrhea -->
<g id="edge19" class="edge">
<title>gonorrhoiaG&#45;&gt;gonorrhea</title>
<path fill="none" stroke="black" stroke-dasharray="1,5" d="M406,-116.84C406,-104.48 406,-87.39 406,-72.29"/>
<polygon fill="black" stroke="black" points="409.5,-72.23 406,-62.23 402.5,-72.23 409.5,-72.23"/>
</g>
<!-- arkheG -->
<g id="node21" class="node">
<title>arkheG</title>
<text text-anchor="start" x="488" y="-318.8" font-family="Times New Roman,serif" font-weight="bold" font-size="14.00">Greek</text>
<text text-anchor="start" x="471" y="-304.8" font-family="Times New Roman,serif" font-size="14.00" fill="red">arkhe&#45;, arkhi&#45;</text>
<text text-anchor="start" x="488.5" y="-292.4" font-family="Times New Roman,serif" font-size="12.00">primitive</text>
</g>
<!-- arkheG&#45;&gt;arkhegonosG -->
<g id="edge21" class="edge">
<title>arkheG&#45;&gt;arkhegonosG</title>
<path fill="none" stroke="black" d="M508,-284.88C508,-273.42 508,-259.49 508,-247.49"/>
<polygon fill="black" stroke="black" points="511.5,-247.13 508,-237.13 504.5,-247.13 511.5,-247.13"/>
</g>
<!-- archegoniumNL -->
<g id="node23" class="node">
<title>archegoniumNL</title>
<text text-anchor="start" x="476" y="-138.8" font-family="Times New Roman,serif" font-weight="bold" font-size="14.00">New Latin</text>
<text text-anchor="start" x="472" y="-124.8" font-family="Times New Roman,serif" font-size="14.00" fill="red">archegonium</text>
</g>
<!-- arkhegonosG&#45;&gt;archegoniumNL -->
<g id="edge22" class="edge">
<title>arkhegonosG&#45;&gt;archegoniumNL</title>
<path fill="none" stroke="black" stroke-dasharray="1,5" d="M508,-200.61C508,-189.77 508,-175.6 508,-163.29"/>
<polygon fill="black" stroke="black" points="511.5,-163.08 508,-153.08 504.5,-163.08 511.5,-163.08"/>
</g>
<!-- archegonium -->
<g id="node24" class="node">
<title>archegonium</title>
<text text-anchor="start" x="483.5" y="-47.8" font-family="Times New Roman,serif" font-weight="bold" font-size="14.00">Modern</text>
<text text-anchor="start" x="485" y="-33.8" font-family="Times New Roman,serif" font-weight="bold" font-size="14.00">English</text>
<text text-anchor="start" x="472" y="-19.8" font-family="Times New Roman,serif" font-size="14.00" fill="red">archegonium</text>
</g>
<!-- archegoniumNL&#45;&gt;archegonium -->
<g id="edge23" class="edge">
<title>archegoniumNL&#45;&gt;archegonium</title>
<path fill="none" stroke="black" stroke-dasharray="1,5" d="M508,-116.84C508,-104.48 508,-87.39 508,-72.29"/>
<polygon fill="black" stroke="black" points="511.5,-72.23 508,-62.23 504.5,-72.23 511.5,-72.23"/>
</g>
</g>
</svg>
