<?xml version="1.0" encoding="UTF-8" standalone="no"?>
<!DOCTYPE svg PUBLIC "-//W3C//DTD SVG 1.1//EN"
 "http://www.w3.org/Graphics/SVG/1.1/DTD/svg11.dtd">
<!-- Generated by graphviz version 2.49.0 (20210828.1703)
 -->
<!-- Pages: 1 -->
<svg width="968pt" height="768pt"
 viewBox="0.00 0.00 968.00 768.00" xmlns="http://www.w3.org/2000/svg" xmlns:xlink="http://www.w3.org/1999/xlink">
<g id="graph0" class="graph" transform="scale(1 1) rotate(0) translate(4 764)">
<polygon fill="white" stroke="transparent" points="-4,4 -4,-764 964,-764 964,4 -4,4"/>
<!-- genIE -->
<g id="node1" class="node">
<title>genIE</title>
<g id="a_node1"><a xlink:href="gen-birth2.svg" xlink:title="&lt;font point&#45;size=&quot;24&quot;&gt;&lt;b&gt;Indo&#45;European&lt;/b&gt;&lt;/font&gt;&lt;br/&gt;&lt;font point&#45;size=&quot;18&quot; color=&quot;red&quot;&gt;gen(ə)&#45;, gon&#45;, gn̥&#45;&lt;/font&gt;&lt;br/&gt;&lt;font point&#45;size=&quot;16&quot;&gt;to beget, give birth, be born&lt;/font&gt;">
<path fill="none" stroke="black" stroke-dasharray="5,2" d="M640,-760C640,-760 477,-760 477,-760 471,-760 465,-754 465,-748 465,-748 465,-706 465,-706 465,-700 471,-694 477,-694 477,-694 640,-694 640,-694 646,-694 652,-700 652,-706 652,-706 652,-748 652,-748 652,-754 646,-760 640,-760"/>
<text text-anchor="start" x="480" y="-737.8" font-family="Times New Roman,serif" font-weight="bold" font-size="24.00">Indo&#45;European</text>
<text text-anchor="start" x="495.5" y="-718.6" font-family="Times New Roman,serif" font-size="18.00" fill="red">gen(ə)&#45;, gon&#45;, gn̥&#45;</text>
<text text-anchor="start" x="473" y="-702.2" font-family="Times New Roman,serif" font-size="16.00">to beget, give birth, be born</text>
</a>
</g>
</g>
<!-- geneIE -->
<g id="node2" class="node">
<title>geneIE</title>
<text text-anchor="start" x="543" y="-636.3" font-family="Times New Roman,serif" font-size="14.00" fill="red">genə&#45;</text>
</g>
<!-- genIE&#45;&gt;geneIE -->
<g id="edge1" class="edge">
<title>genIE&#45;&gt;geneIE</title>
<path fill="none" stroke="black" d="M558.5,-693.87C558.5,-685.5 558.5,-676.56 558.5,-668.46"/>
<polygon fill="black" stroke="black" points="562,-668.41 558.5,-658.41 555,-668.41 562,-668.41"/>
</g>
<!-- genees -->
<g id="node3" class="node">
<title>genees</title>
<text text-anchor="start" x="535" y="-551.3" font-family="Times New Roman,serif" font-size="14.00" fill="red">genə&#45;es&#45;</text>
</g>
<!-- geneIE&#45;&gt;genees -->
<g id="edge2" class="edge">
<title>geneIE&#45;&gt;genees</title>
<path fill="none" stroke="black" d="M558.5,-621.8C558.5,-610.67 558.5,-595.94 558.5,-583.24"/>
<polygon fill="black" stroke="black" points="562,-583.18 558.5,-573.18 555,-583.18 562,-583.18"/>
</g>
<!-- genosG -->
<g id="node4" class="node">
<title>genosG</title>
<text text-anchor="start" x="538.5" y="-473.8" font-family="Times New Roman,serif" font-weight="bold" font-size="14.00">Greek</text>
<text text-anchor="start" x="522" y="-459.8" font-family="Times New Roman,serif" font-size="14.00" fill="red">genos, geneā</text>
<text text-anchor="start" x="532.5" y="-447.4" font-family="Times New Roman,serif" font-size="12.00">race, family</text>
</g>
<!-- genees&#45;&gt;genosG -->
<g id="edge3" class="edge">
<title>genees&#45;&gt;genosG</title>
<path fill="none" stroke="black" d="M558.5,-536.84C558.5,-525.92 558.5,-511.41 558.5,-498.29"/>
<polygon fill="black" stroke="black" points="562,-498.17 558.5,-488.17 555,-498.17 562,-498.17"/>
</g>
<!-- genesG -->
<g id="node5" class="node">
<title>genesG</title>
<text text-anchor="start" x="254.5" y="-297.8" font-family="Times New Roman,serif" font-size="14.00" fill="red">genēs</text>
<text text-anchor="start" x="257.5" y="-285.4" font-family="Times New Roman,serif" font-size="12.00">&#45;born</text>
</g>
<!-- genosG&#45;&gt;genesG -->
<g id="edge4" class="edge">
<title>genosG&#45;&gt;genesG</title>
<path fill="none" stroke="black" d="M513.71,-444.72C488.46,-433.87 456.65,-419.28 429.5,-404 383.12,-377.89 332.81,-342.39 301.47,-319.34"/>
<polygon fill="black" stroke="black" points="303.28,-316.32 293.16,-313.18 299.11,-321.94 303.28,-316.32"/>
</g>
<!-- genGm -->
<g id="node6" class="node">
<title>genGm</title>
<text text-anchor="start" x="396" y="-219.8" font-family="Times New Roman,serif" font-weight="bold" font-size="14.00">German</text>
<text text-anchor="start" x="394" y="-205.8" font-family="Times New Roman,serif" font-size="14.00" fill="red">gen&#45;, Gen</text>
</g>
<!-- genosG&#45;&gt;genGm -->
<g id="edge5" class="edge">
<title>genosG&#45;&gt;genGm</title>
<path fill="none" stroke="black" stroke-dasharray="5,2" d="M524.64,-439.83C512.23,-429.97 498.93,-417.6 489.5,-404 454.34,-353.26 435.13,-282.24 426.74,-243.98"/>
<polygon fill="black" stroke="black" points="430.14,-243.16 424.65,-234.1 423.29,-244.6 430.14,-243.16"/>
</g>
<!-- genealogiaG -->
<g id="node10" class="node">
<title>genealogiaG</title>
<text text-anchor="start" x="22.5" y="-376.3" font-family="Times New Roman,serif" font-size="14.00" fill="red">geneālogiā</text>
</g>
<!-- genosG&#45;&gt;genealogiaG -->
<g id="edge8" class="edge">
<title>genosG&#45;&gt;genealogiaG</title>
<path fill="none" stroke="black" d="M513.87,-460.49C432.85,-455.18 256.62,-440.19 112.5,-404 107.87,-402.84 103.11,-401.43 98.4,-399.9"/>
<polygon fill="black" stroke="black" points="99.41,-396.55 88.82,-396.61 97.13,-403.17 99.41,-396.55"/>
</g>
<!-- genocide -->
<g id="node15" class="node">
<title>genocide</title>
<text text-anchor="start" x="471" y="-42.8" font-family="Times New Roman,serif" font-weight="bold" font-size="14.00">Modern</text>
<text text-anchor="start" x="472.5" y="-28.8" font-family="Times New Roman,serif" font-weight="bold" font-size="14.00">English</text>
<text text-anchor="start" x="470" y="-14.8" font-family="Times New Roman,serif" font-size="14.00" fill="red">genocide</text>
</g>
<!-- genosG&#45;&gt;genocide -->
<g id="edge14" class="edge">
<title>genosG&#45;&gt;genocide</title>
<path fill="none" stroke="black" stroke-dasharray="5,2" d="M545.6,-439.74C529.35,-408.18 503.5,-349.57 503.5,-296 503.5,-296 503.5,-296 503.5,-215 503.5,-163.47 500.26,-103.82 497.9,-67.25"/>
<polygon fill="black" stroke="black" points="501.39,-66.87 497.24,-57.13 494.4,-67.33 501.39,-66.87"/>
</g>
<!-- genotype -->
<g id="node18" class="node">
<title>genotype</title>
<text text-anchor="start" x="565" y="-42.8" font-family="Times New Roman,serif" font-weight="bold" font-size="14.00">Modern</text>
<text text-anchor="start" x="566.5" y="-28.8" font-family="Times New Roman,serif" font-weight="bold" font-size="14.00">English</text>
<text text-anchor="start" x="563.5" y="-14.8" font-family="Times New Roman,serif" font-size="14.00" fill="red">genotype</text>
</g>
<!-- genosG&#45;&gt;genotype -->
<g id="edge16" class="edge">
<title>genosG&#45;&gt;genotype</title>
<path fill="none" stroke="black" stroke-dasharray="5,2" d="M571.4,-439.74C587.65,-408.18 613.5,-349.57 613.5,-296 613.5,-296 613.5,-296 613.5,-215 613.5,-163.08 603.78,-103.53 596.71,-67.09"/>
<polygon fill="black" stroke="black" points="600.09,-66.13 594.71,-57.01 593.22,-67.5 600.09,-66.13"/>
</g>
<!-- allogenetic -->
<g id="node21" class="node">
<title>allogenetic</title>
<text text-anchor="start" x="660" y="-42.8" font-family="Times New Roman,serif" font-weight="bold" font-size="14.00">Modern</text>
<text text-anchor="start" x="661.5" y="-28.8" font-family="Times New Roman,serif" font-weight="bold" font-size="14.00">English</text>
<text text-anchor="start" x="655" y="-14.8" font-family="Times New Roman,serif" font-size="14.00" fill="red">allogenetic</text>
</g>
<!-- genosG&#45;&gt;allogenetic -->
<g id="edge19" class="edge">
<title>genosG&#45;&gt;allogenetic</title>
<path fill="none" stroke="black" stroke-dasharray="5,2" d="M582.91,-439.97C592.78,-429.68 603.67,-416.97 611.5,-404 637.96,-360.18 651.5,-347.19 651.5,-296 651.5,-296 651.5,-296 651.5,-215 651.5,-162.83 664.79,-103.58 674.5,-67.24"/>
<polygon fill="black" stroke="black" points="677.99,-67.75 677.26,-57.18 671.24,-65.9 677.99,-67.75"/>
</g>
<!-- heterogenesG -->
<g id="node24" class="node">
<title>heterogenesG</title>
<text text-anchor="start" x="755" y="-376.3" font-family="Times New Roman,serif" font-size="14.00" fill="red">heterogenēs</text>
</g>
<!-- genosG&#45;&gt;heterogenesG -->
<g id="edge22" class="edge">
<title>genosG&#45;&gt;heterogenesG</title>
<path fill="none" stroke="black" d="M603.12,-447.09C641.5,-433.41 696.87,-413.67 737.09,-399.33"/>
<polygon fill="black" stroke="black" points="738.47,-402.55 746.72,-395.9 736.12,-395.96 738.47,-402.55"/>
</g>
<!-- homogenesG -->
<g id="node28" class="node">
<title>homogenesG</title>
<text text-anchor="start" x="876.5" y="-376.3" font-family="Times New Roman,serif" font-size="14.00" fill="red">homogenēs</text>
</g>
<!-- genosG&#45;&gt;homogenesG -->
<g id="edge27" class="edge">
<title>genosG&#45;&gt;homogenesG</title>
<path fill="none" stroke="black" d="M603.47,-455.1C659.09,-444.97 756.46,-426.05 838.5,-404 845.06,-402.24 851.9,-400.22 858.64,-398.12"/>
<polygon fill="black" stroke="black" points="859.91,-401.39 868.38,-395.02 857.79,-394.72 859.91,-401.39"/>
</g>
<!-- geneF -->
<g id="node31" class="node">
<title>geneF</title>
<text text-anchor="start" x="289.5" y="-219.8" font-family="Times New Roman,serif" font-weight="bold" font-size="14.00">French</text>
<text text-anchor="start" x="296" y="-205.8" font-family="Times New Roman,serif" font-size="14.00" fill="red">&#45;gène</text>
</g>
<!-- genesG&#45;&gt;geneF -->
<g id="edge31" class="edge">
<title>genesG&#45;&gt;geneF</title>
<path fill="none" stroke="black" stroke-dasharray="5,2" d="M279.6,-276.91C284.91,-266.94 291.71,-254.17 297.67,-242.97"/>
<polygon fill="black" stroke="black" points="300.82,-244.51 302.43,-234.04 294.64,-241.22 300.82,-244.51"/>
</g>
<!-- geneiaG -->
<g id="node33" class="node">
<title>geneiaG</title>
<text text-anchor="start" x="215.5" y="-212.3" font-family="Times New Roman,serif" font-size="14.00" fill="red">&#45;geneia</text>
</g>
<!-- genesG&#45;&gt;geneiaG -->
<g id="edge33" class="edge">
<title>genesG&#45;&gt;geneiaG</title>
<path fill="none" stroke="black" d="M262.73,-276.91C258.25,-267.04 252.51,-254.42 247.46,-243.31"/>
<polygon fill="black" stroke="black" points="250.57,-241.7 243.25,-234.04 244.2,-244.59 250.57,-241.7"/>
</g>
<!-- epigenesG -->
<g id="node37" class="node">
<title>epigenesG</title>
<text text-anchor="start" x="127" y="-218.8" font-family="Times New Roman,serif" font-size="14.00" fill="red">epigenēs</text>
<text text-anchor="start" x="121.5" y="-206.4" font-family="Times New Roman,serif" font-size="12.00">growing after</text>
</g>
<!-- genesG&#45;&gt;epigenesG -->
<g id="edge36" class="edge">
<title>genesG&#45;&gt;epigenesG</title>
<path fill="none" stroke="black" d="M244.09,-276.91C227.07,-265.9 204.74,-251.45 186.28,-239.51"/>
<polygon fill="black" stroke="black" points="188.13,-236.54 177.84,-234.04 184.33,-242.41 188.13,-236.54"/>
</g>
<!-- gene -->
<g id="node7" class="node">
<title>gene</title>
<text text-anchor="start" x="370" y="-42.8" font-family="Times New Roman,serif" font-weight="bold" font-size="14.00">Modern</text>
<text text-anchor="start" x="371.5" y="-28.8" font-family="Times New Roman,serif" font-weight="bold" font-size="14.00">English</text>
<text text-anchor="start" x="381.5" y="-14.8" font-family="Times New Roman,serif" font-size="14.00" fill="red">gene</text>
</g>
<!-- genGm&#45;&gt;gene -->
<g id="edge6" class="edge">
<title>genGm&#45;&gt;gene</title>
<path fill="none" stroke="black" stroke-dasharray="5,2" d="M414.79,-197.6C411.13,-187.39 406.88,-174.14 404.5,-162 398.26,-130.23 395.88,-93.34 394.99,-67.17"/>
<polygon fill="black" stroke="black" points="398.48,-66.9 394.7,-57 391.48,-67.1 398.48,-66.9"/>
</g>
<!-- legIE -->
<g id="node8" class="node">
<title>legIE</title>
<g id="a_node8"><a xlink:href="leg-speak4.svg" xlink:title="&lt;b&gt;Indo&#45;&lt;br/&gt;European&lt;/b&gt;&lt;br/&gt;&lt;font color=&quot;red&quot;&gt;*leg&#45;&lt;/font&gt;&lt;br/&gt;&lt;font point&#45;size=&quot;12&quot;&gt;to collect, speak&lt;/font&gt;">
<path fill="none" stroke="black" stroke-dasharray="5,2" d="M79,-586C79,-586 12,-586 12,-586 6,-586 0,-580 0,-574 0,-574 0,-536 0,-536 0,-530 6,-524 12,-524 12,-524 79,-524 79,-524 85,-524 91,-530 91,-536 91,-536 91,-574 91,-574 91,-580 85,-586 79,-586"/>
<text text-anchor="start" x="29" y="-571.8" font-family="Times New Roman,serif" font-weight="bold" font-size="14.00">Indo&#45;</text>
<text text-anchor="start" x="15" y="-557.8" font-family="Times New Roman,serif" font-weight="bold" font-size="14.00">European</text>
<text text-anchor="start" x="31.5" y="-543.8" font-family="Times New Roman,serif" font-size="14.00" fill="red">*leg&#45;</text>
<text text-anchor="start" x="8" y="-531.4" font-family="Times New Roman,serif" font-size="12.00">to collect, speak</text>
</a>
</g>
</g>
<!-- logiaG -->
<g id="node9" class="node">
<title>logiaG</title>
<text text-anchor="start" x="29.5" y="-473.8" font-family="Times New Roman,serif" font-weight="bold" font-size="14.00">Greek</text>
<text text-anchor="start" x="34" y="-459.8" font-family="Times New Roman,serif" font-size="14.00" fill="red">&#45;logiā</text>
<text text-anchor="start" x="31" y="-447.4" font-family="Times New Roman,serif" font-size="12.00">study of</text>
</g>
<!-- legIE&#45;&gt;logiaG -->
<g id="edge7" class="edge">
<title>legIE&#45;&gt;logiaG</title>
<path fill="none" stroke="black" d="M46.85,-523.87C47.22,-515.64 47.63,-506.68 48,-498.29"/>
<polygon fill="black" stroke="black" points="51.51,-498.21 48.46,-488.06 44.52,-497.9 51.51,-498.21"/>
</g>
<!-- logiaG&#45;&gt;genealogiaG -->
<g id="edge9" class="edge">
<title>logiaG&#45;&gt;genealogiaG</title>
<path fill="none" stroke="black" d="M50.07,-439.72C50.31,-429.88 50.59,-418.36 50.84,-408.13"/>
<polygon fill="black" stroke="black" points="54.34,-408.16 51.08,-398.08 47.34,-407.99 54.34,-408.16"/>
</g>
<!-- genealogiaL -->
<g id="node11" class="node">
<title>genealogiaL</title>
<text text-anchor="start" x="35" y="-298.8" font-family="Times New Roman,serif" font-weight="bold" font-size="14.00">Latin</text>
<text text-anchor="start" x="22.5" y="-284.8" font-family="Times New Roman,serif" font-size="14.00" fill="red">geneālogia</text>
</g>
<!-- genealogiaG&#45;&gt;genealogiaL -->
<g id="edge10" class="edge">
<title>genealogiaG&#45;&gt;genealogiaL</title>
<path fill="none" stroke="black" stroke-dasharray="5,2" d="M51.5,-361.8C51.5,-350.67 51.5,-335.94 51.5,-323.24"/>
<polygon fill="black" stroke="black" points="55,-323.18 51.5,-313.18 48,-323.18 55,-323.18"/>
</g>
<!-- genealogieOF -->
<g id="node12" class="node">
<title>genealogieOF</title>
<text text-anchor="start" x="16.5" y="-219.8" font-family="Times New Roman,serif" font-weight="bold" font-size="14.00">Old French</text>
<text text-anchor="start" x="22.5" y="-205.8" font-family="Times New Roman,serif" font-size="14.00" fill="red">genealogie</text>
</g>
<!-- genealogiaL&#45;&gt;genealogieOF -->
<g id="edge11" class="edge">
<title>genealogiaL&#45;&gt;genealogieOF</title>
<path fill="none" stroke="black" d="M51.5,-276.91C51.5,-267.34 51.5,-255.18 51.5,-244.32"/>
<polygon fill="black" stroke="black" points="55,-244.04 51.5,-234.04 48,-244.04 55,-244.04"/>
</g>
<!-- genealogieME -->
<g id="node13" class="node">
<title>genealogieME</title>
<text text-anchor="start" x="30" y="-141.8" font-family="Times New Roman,serif" font-weight="bold" font-size="14.00">Middle</text>
<text text-anchor="start" x="28.5" y="-127.8" font-family="Times New Roman,serif" font-weight="bold" font-size="14.00">English</text>
<text text-anchor="start" x="22.5" y="-113.8" font-family="Times New Roman,serif" font-size="14.00" fill="red">genealogie</text>
</g>
<!-- genealogieOF&#45;&gt;genealogieME -->
<g id="edge12" class="edge">
<title>genealogieOF&#45;&gt;genealogieME</title>
<path fill="none" stroke="black" stroke-dasharray="5,2" d="M51.5,-197.8C51.5,-188.66 51.5,-177.09 51.5,-166.22"/>
<polygon fill="black" stroke="black" points="55,-166.1 51.5,-156.1 48,-166.1 55,-166.1"/>
</g>
<!-- genealogy -->
<g id="node14" class="node">
<title>genealogy</title>
<text text-anchor="start" x="27" y="-42.8" font-family="Times New Roman,serif" font-weight="bold" font-size="14.00">Modern</text>
<text text-anchor="start" x="28.5" y="-28.8" font-family="Times New Roman,serif" font-weight="bold" font-size="14.00">English</text>
<text text-anchor="start" x="23.5" y="-14.8" font-family="Times New Roman,serif" font-size="14.00" fill="red">genealogy</text>
</g>
<!-- genealogieME&#45;&gt;genealogy -->
<g id="edge13" class="edge">
<title>genealogieME&#45;&gt;genealogy</title>
<path fill="none" stroke="black" d="M51.5,-105.52C51.5,-93.95 51.5,-79.93 51.5,-67.31"/>
<polygon fill="black" stroke="black" points="55,-67.13 51.5,-57.13 48,-67.13 55,-67.13"/>
</g>
<!-- cideME -->
<g id="node16" class="node">
<title>cideME</title>
<text text-anchor="start" x="423" y="-147.8" font-family="Times New Roman,serif" font-weight="bold" font-size="14.00">Middle</text>
<text text-anchor="start" x="421.5" y="-133.8" font-family="Times New Roman,serif" font-weight="bold" font-size="14.00">English</text>
<text text-anchor="start" x="430.5" y="-119.8" font-family="Times New Roman,serif" font-size="14.00" fill="red">&#45;cide</text>
<text text-anchor="start" x="431.5" y="-107.4" font-family="Times New Roman,serif" font-size="12.00">killing</text>
</g>
<!-- cideME&#45;&gt;genocide -->
<g id="edge15" class="edge">
<title>cideME&#45;&gt;genocide</title>
<path fill="none" stroke="black" d="M460.36,-99.84C465.92,-89.26 472.2,-77.31 477.9,-66.47"/>
<polygon fill="black" stroke="black" points="481.17,-67.78 482.72,-57.3 474.97,-64.52 481.17,-67.78"/>
</g>
<!-- typusL -->
<g id="node17" class="node">
<title>typusL</title>
<text text-anchor="start" x="542" y="-140.8" font-family="Times New Roman,serif" font-weight="bold" font-size="14.00">Latin</text>
<text text-anchor="start" x="543" y="-126.8" font-family="Times New Roman,serif" font-size="14.00" fill="red">typus</text>
<text text-anchor="start" x="548.5" y="-114.4" font-family="Times New Roman,serif" font-size="12.00">type</text>
</g>
<!-- typusL&#45;&gt;genotype -->
<g id="edge17" class="edge">
<title>typusL&#45;&gt;genotype</title>
<path fill="none" stroke="black" stroke-dasharray="5,2" d="M566,-106.52C569.8,-94.63 574.48,-79.99 578.66,-66.91"/>
<polygon fill="black" stroke="black" points="582.03,-67.87 581.74,-57.28 575.36,-65.74 582.03,-67.87"/>
</g>
<!-- alIE -->
<g id="node19" class="node">
<title>alIE</title>
<g id="a_node19"><a xlink:href="al-beyond.svg" xlink:title="&lt;b&gt;Indo&#45;&lt;br/&gt;European&lt;/b&gt;&lt;br/&gt;&lt;font color=&quot;red&quot;&gt;*al&#45;&lt;/font&gt;&lt;br/&gt;&lt;font point&#45;size=&quot;12&quot;&gt;beyond&lt;/font&gt;">
<path fill="none" stroke="black" stroke-dasharray="5,2" d="M734,-586C734,-586 681,-586 681,-586 675,-586 669,-580 669,-574 669,-574 669,-536 669,-536 669,-530 675,-524 681,-524 681,-524 734,-524 734,-524 740,-524 746,-530 746,-536 746,-536 746,-574 746,-574 746,-580 740,-586 734,-586"/>
<text text-anchor="start" x="691" y="-571.8" font-family="Times New Roman,serif" font-weight="bold" font-size="14.00">Indo&#45;</text>
<text text-anchor="start" x="677" y="-557.8" font-family="Times New Roman,serif" font-weight="bold" font-size="14.00">European</text>
<text text-anchor="start" x="697" y="-543.8" font-family="Times New Roman,serif" font-size="14.00" fill="red">*al&#45;</text>
<text text-anchor="start" x="690.5" y="-531.4" font-family="Times New Roman,serif" font-size="12.00">beyond</text>
</a>
</g>
</g>
<!-- allosG -->
<g id="node20" class="node">
<title>allosG</title>
<text text-anchor="start" x="687.5" y="-304.8" font-family="Times New Roman,serif" font-weight="bold" font-size="14.00">Greek</text>
<text text-anchor="start" x="694.5" y="-290.8" font-family="Times New Roman,serif" font-size="14.00" fill="red">allos</text>
<text text-anchor="start" x="695.5" y="-278.4" font-family="Times New Roman,serif" font-size="12.00">other</text>
</g>
<!-- alIE&#45;&gt;allosG -->
<g id="edge18" class="edge">
<title>alIE&#45;&gt;allosG</title>
<path fill="none" stroke="black" d="M707.5,-523.9C707.5,-475.25 707.5,-379.71 707.5,-329.17"/>
<polygon fill="black" stroke="black" points="711,-329.1 707.5,-319.1 704,-329.1 711,-329.1"/>
</g>
<!-- allosG&#45;&gt;allogenetic -->
<g id="edge20" class="edge">
<title>allosG&#45;&gt;allogenetic</title>
<path fill="none" stroke="black" stroke-dasharray="5,2" d="M705.46,-270.84C701.4,-224.76 692.29,-121.38 687.53,-67.36"/>
<polygon fill="black" stroke="black" points="691,-66.9 686.64,-57.24 684.03,-67.51 691,-66.9"/>
</g>
<!-- semIE -->
<g id="node22" class="node">
<title>semIE</title>
<g id="a_node22"><a xlink:href="sem-one.svg" xlink:title="&lt;b&gt;Indo&#45;&lt;br/&gt;European&lt;/b&gt;&lt;br/&gt;&lt;font color=&quot;red&quot;&gt;*sem&#45;&lt;/font&gt;&lt;br/&gt;&lt;font point&#45;size=&quot;12&quot;&gt;one, as one&lt;/font&gt;">
<path fill="none" stroke="black" stroke-dasharray="5,2" d="M881,-586C881,-586 828,-586 828,-586 822,-586 816,-580 816,-574 816,-574 816,-536 816,-536 816,-530 822,-524 828,-524 828,-524 881,-524 881,-524 887,-524 893,-530 893,-536 893,-536 893,-574 893,-574 893,-580 887,-586 881,-586"/>
<text text-anchor="start" x="838" y="-571.8" font-family="Times New Roman,serif" font-weight="bold" font-size="14.00">Indo&#45;</text>
<text text-anchor="start" x="824" y="-557.8" font-family="Times New Roman,serif" font-weight="bold" font-size="14.00">European</text>
<text text-anchor="start" x="837.5" y="-543.8" font-family="Times New Roman,serif" font-size="14.00" fill="red">*sem&#45;</text>
<text text-anchor="start" x="828.5" y="-531.4" font-family="Times New Roman,serif" font-size="12.00">one, as one</text>
</a>
</g>
</g>
<!-- heterosG -->
<g id="node23" class="node">
<title>heterosG</title>
<text text-anchor="start" x="768.5" y="-473.8" font-family="Times New Roman,serif" font-weight="bold" font-size="14.00">Greek</text>
<text text-anchor="start" x="744.5" y="-459.8" font-family="Times New Roman,serif" font-size="14.00" fill="red">heteros, hetero&#45;</text>
<text text-anchor="start" x="776.5" y="-447.4" font-family="Times New Roman,serif" font-size="12.00">other</text>
</g>
<!-- semIE&#45;&gt;heterosG -->
<g id="edge21" class="edge">
<title>semIE&#45;&gt;heterosG</title>
<path fill="none" stroke="black" d="M832.16,-523.87C825.58,-515 818.37,-505.28 811.74,-496.34"/>
<polygon fill="black" stroke="black" points="814.37,-494.01 805.6,-488.06 808.75,-498.18 814.37,-494.01"/>
</g>
<!-- homosG -->
<g id="node27" class="node">
<title>homosG</title>
<text text-anchor="start" x="888.5" y="-473.8" font-family="Times New Roman,serif" font-weight="bold" font-size="14.00">Greek</text>
<text text-anchor="start" x="867" y="-459.8" font-family="Times New Roman,serif" font-size="14.00" fill="red">homos, homo&#45;</text>
<text text-anchor="start" x="896.5" y="-447.4" font-family="Times New Roman,serif" font-size="12.00">same</text>
</g>
<!-- semIE&#45;&gt;homosG -->
<g id="edge26" class="edge">
<title>semIE&#45;&gt;homosG</title>
<path fill="none" stroke="black" d="M872.78,-523.87C878.11,-515.09 883.94,-505.48 889.31,-496.62"/>
<polygon fill="black" stroke="black" points="892.31,-498.43 894.51,-488.06 886.33,-494.8 892.31,-498.43"/>
</g>
<!-- heterosG&#45;&gt;heterogenesG -->
<g id="edge23" class="edge">
<title>heterosG&#45;&gt;heterogenesG</title>
<path fill="none" stroke="black" d="M788.5,-439.72C788.5,-429.88 788.5,-418.36 788.5,-408.13"/>
<polygon fill="black" stroke="black" points="792,-408.08 788.5,-398.08 785,-408.08 792,-408.08"/>
</g>
<!-- heterogeneusL -->
<g id="node25" class="node">
<title>heterogeneusL</title>
<text text-anchor="start" x="770" y="-305.8" font-family="Times New Roman,serif" font-weight="bold" font-size="14.00">Medieval</text>
<text text-anchor="start" x="782" y="-291.8" font-family="Times New Roman,serif" font-weight="bold" font-size="14.00">Latin</text>
<text text-anchor="start" x="762" y="-277.8" font-family="Times New Roman,serif" font-size="14.00" fill="red">heterogeneus</text>
</g>
<!-- heterogenesG&#45;&gt;heterogeneusL -->
<g id="edge24" class="edge">
<title>heterogenesG&#45;&gt;heterogeneusL</title>
<path fill="none" stroke="black" stroke-dasharray="5,2" d="M790.57,-361.8C791.67,-352.66 793.07,-341.09 794.38,-330.22"/>
<polygon fill="black" stroke="black" points="797.88,-330.45 795.6,-320.1 790.93,-329.61 797.88,-330.45"/>
</g>
<!-- heterogeneous -->
<g id="node26" class="node">
<title>heterogeneous</title>
<text text-anchor="start" x="774" y="-42.8" font-family="Times New Roman,serif" font-weight="bold" font-size="14.00">Modern</text>
<text text-anchor="start" x="775.5" y="-28.8" font-family="Times New Roman,serif" font-weight="bold" font-size="14.00">English</text>
<text text-anchor="start" x="758" y="-14.8" font-family="Times New Roman,serif" font-size="14.00" fill="red">heterogeneous</text>
</g>
<!-- heterogeneusL&#45;&gt;heterogeneous -->
<g id="edge25" class="edge">
<title>heterogeneusL&#45;&gt;heterogeneous</title>
<path fill="none" stroke="black" stroke-dasharray="5,2" d="M798.5,-269.91C798.5,-223.3 798.5,-120.64 798.5,-67.06"/>
<polygon fill="black" stroke="black" points="802,-67.03 798.5,-57.03 795,-67.03 802,-67.03"/>
</g>
<!-- homosG&#45;&gt;homogenesG -->
<g id="edge28" class="edge">
<title>homosG&#45;&gt;homogenesG</title>
<path fill="none" stroke="black" d="M908.5,-439.72C908.5,-429.88 908.5,-418.36 908.5,-408.13"/>
<polygon fill="black" stroke="black" points="912,-408.08 908.5,-398.08 905,-408.08 912,-408.08"/>
</g>
<!-- homogeneusL -->
<g id="node29" class="node">
<title>homogeneusL</title>
<text text-anchor="start" x="883" y="-141.8" font-family="Times New Roman,serif" font-weight="bold" font-size="14.00">Medieval</text>
<text text-anchor="start" x="895" y="-127.8" font-family="Times New Roman,serif" font-weight="bold" font-size="14.00">Latin</text>
<text text-anchor="start" x="876" y="-113.8" font-family="Times New Roman,serif" font-size="14.00" fill="red">homogeneus</text>
</g>
<!-- homogenesG&#45;&gt;homogeneusL -->
<g id="edge29" class="edge">
<title>homogenesG&#45;&gt;homogeneusL</title>
<path fill="none" stroke="black" stroke-dasharray="5,2" d="M908.71,-361.63C909.2,-321.07 910.44,-219.52 911.09,-166.09"/>
<polygon fill="black" stroke="black" points="914.59,-166.12 911.21,-156.07 907.59,-166.03 914.59,-166.12"/>
</g>
<!-- homogeneous -->
<g id="node30" class="node">
<title>homogeneous</title>
<text text-anchor="start" x="888" y="-42.8" font-family="Times New Roman,serif" font-weight="bold" font-size="14.00">Modern</text>
<text text-anchor="start" x="889.5" y="-28.8" font-family="Times New Roman,serif" font-weight="bold" font-size="14.00">English</text>
<text text-anchor="start" x="873" y="-14.8" font-family="Times New Roman,serif" font-size="14.00" fill="red">homogeneous</text>
</g>
<!-- homogeneusL&#45;&gt;homogeneous -->
<g id="edge30" class="edge">
<title>homogeneusL&#45;&gt;homogeneous</title>
<path fill="none" stroke="black" stroke-dasharray="5,2" d="M911.75,-105.52C911.87,-93.95 912.02,-79.93 912.15,-67.31"/>
<polygon fill="black" stroke="black" points="915.65,-67.17 912.25,-57.13 908.65,-67.1 915.65,-67.17"/>
</g>
<!-- gen -->
<g id="node32" class="node">
<title>gen</title>
<text text-anchor="start" x="287" y="-49.8" font-family="Times New Roman,serif" font-weight="bold" font-size="14.00">Modern</text>
<text text-anchor="start" x="288.5" y="-35.8" font-family="Times New Roman,serif" font-weight="bold" font-size="14.00">English</text>
<text text-anchor="start" x="299" y="-21.8" font-family="Times New Roman,serif" font-size="14.00" fill="red">&#45;gen</text>
<text text-anchor="start" x="296" y="-7.8" font-family="Times New Roman,serif" font-size="14.00" fill="red">&#45;gene</text>
</g>
<!-- geneF&#45;&gt;gen -->
<g id="edge32" class="edge">
<title>geneF&#45;&gt;gen</title>
<path fill="none" stroke="black" stroke-dasharray="5,2" d="M311.5,-197.88C311.5,-169.89 311.5,-113.57 311.5,-74.6"/>
<polygon fill="black" stroke="black" points="315,-74.1 311.5,-64.1 308,-74.1 315,-74.1"/>
</g>
<!-- geny -->
<g id="node34" class="node">
<title>geny</title>
<text text-anchor="start" x="204" y="-42.8" font-family="Times New Roman,serif" font-weight="bold" font-size="14.00">Modern</text>
<text text-anchor="start" x="205.5" y="-28.8" font-family="Times New Roman,serif" font-weight="bold" font-size="14.00">English</text>
<text text-anchor="start" x="213" y="-14.8" font-family="Times New Roman,serif" font-size="14.00" fill="red">&#45;geny</text>
</g>
<!-- geneiaG&#45;&gt;geny -->
<g id="edge34" class="edge">
<title>geneiaG&#45;&gt;geny</title>
<path fill="none" stroke="black" stroke-dasharray="5,2" d="M234.84,-197.88C233.7,-168.11 231.32,-106.29 229.82,-67.38"/>
<polygon fill="black" stroke="black" points="233.31,-66.92 229.43,-57.06 226.31,-67.19 233.31,-66.92"/>
</g>
<!-- epiIE -->
<g id="node35" class="node">
<title>epiIE</title>
<g id="a_node35"><a xlink:href="epi-near.svg" xlink:title="&lt;b&gt;Indo&#45;&lt;br/&gt;European&lt;/b&gt;&lt;br/&gt;&lt;font color=&quot;red&quot;&gt;*epi&lt;/font&gt;&lt;br/&gt;&lt;font point&#45;size=&quot;12&quot;&gt;near, at, against&lt;/font&gt;">
<path fill="none" stroke="black" stroke-dasharray="5,2" d="M184,-586C184,-586 121,-586 121,-586 115,-586 109,-580 109,-574 109,-574 109,-536 109,-536 109,-530 115,-524 121,-524 121,-524 184,-524 184,-524 190,-524 196,-530 196,-536 196,-536 196,-574 196,-574 196,-580 190,-586 184,-586"/>
<text text-anchor="start" x="136" y="-571.8" font-family="Times New Roman,serif" font-weight="bold" font-size="14.00">Indo&#45;</text>
<text text-anchor="start" x="122" y="-557.8" font-family="Times New Roman,serif" font-weight="bold" font-size="14.00">European</text>
<text text-anchor="start" x="140.5" y="-543.8" font-family="Times New Roman,serif" font-size="14.00" fill="red">*epi</text>
<text text-anchor="start" x="117" y="-531.4" font-family="Times New Roman,serif" font-size="12.00">near, at, against</text>
</a>
</g>
</g>
<!-- epiG -->
<g id="node36" class="node">
<title>epiG</title>
<text text-anchor="start" x="132.5" y="-389.8" font-family="Times New Roman,serif" font-weight="bold" font-size="14.00">Greek</text>
<text text-anchor="start" x="129.5" y="-375.8" font-family="Times New Roman,serif" font-size="14.00" fill="red">epi, epi&#45;</text>
<text text-anchor="start" x="141" y="-363.4" font-family="Times New Roman,serif" font-size="12.00">upon</text>
</g>
<!-- epiIE&#45;&gt;epiG -->
<g id="edge35" class="edge">
<title>epiIE&#45;&gt;epiG</title>
<path fill="none" stroke="black" d="M152.5,-523.87C152.5,-493.25 152.5,-445.95 152.5,-414.26"/>
<polygon fill="black" stroke="black" points="156,-414.15 152.5,-404.15 149,-414.15 156,-414.15"/>
</g>
<!-- epiG&#45;&gt;epigenesG -->
<g id="edge37" class="edge">
<title>epiG&#45;&gt;epigenesG</title>
<path fill="none" stroke="black" d="M152.36,-355.79C152.18,-326.36 151.86,-275.7 151.67,-244.41"/>
<polygon fill="black" stroke="black" points="155.17,-244.19 151.61,-234.21 148.17,-244.23 155.17,-244.19"/>
</g>
<!-- epigeneF -->
<g id="node38" class="node">
<title>epigeneF</title>
<text text-anchor="start" x="126.5" y="-134.8" font-family="Times New Roman,serif" font-weight="bold" font-size="14.00">French</text>
<text text-anchor="start" x="127" y="-120.8" font-family="Times New Roman,serif" font-size="14.00" fill="red">épigène</text>
</g>
<!-- epigenesG&#45;&gt;epigeneF -->
<g id="edge38" class="edge">
<title>epigenesG&#45;&gt;epigeneF</title>
<path fill="none" stroke="black" stroke-dasharray="5,2" d="M150.88,-197.8C150.48,-186.67 149.94,-171.94 149.48,-159.24"/>
<polygon fill="black" stroke="black" points="152.98,-159.04 149.12,-149.18 145.98,-159.3 152.98,-159.04"/>
</g>
<!-- epigene -->
<g id="node39" class="node">
<title>epigene</title>
<text text-anchor="start" x="121" y="-42.8" font-family="Times New Roman,serif" font-weight="bold" font-size="14.00">Modern</text>
<text text-anchor="start" x="122.5" y="-28.8" font-family="Times New Roman,serif" font-weight="bold" font-size="14.00">English</text>
<text text-anchor="start" x="124" y="-14.8" font-family="Times New Roman,serif" font-size="14.00" fill="red">epigene</text>
</g>
<!-- epigeneF&#45;&gt;epigene -->
<g id="edge39" class="edge">
<title>epigeneF&#45;&gt;epigene</title>
<path fill="none" stroke="black" stroke-dasharray="5,2" d="M147.96,-112.66C147.57,-100.08 147.04,-82.66 146.56,-67.32"/>
<polygon fill="black" stroke="black" points="150.05,-67 146.25,-57.11 143.06,-67.22 150.05,-67"/>
</g>
</g>
</svg>
