<?xml version="1.0" encoding="UTF-8" standalone="no"?>
<!DOCTYPE svg PUBLIC "-//W3C//DTD SVG 1.1//EN"
 "http://www.w3.org/Graphics/SVG/1.1/DTD/svg11.dtd">
<!-- Generated by graphviz version 2.49.0 (20210828.1703)
 -->
<!-- Pages: 1 -->
<svg width="577pt" height="570pt"
 viewBox="0.00 0.00 577.00 570.00" xmlns="http://www.w3.org/2000/svg" xmlns:xlink="http://www.w3.org/1999/xlink">
<g id="graph0" class="graph" transform="scale(1 1) rotate(0) translate(4 566)">
<polygon fill="white" stroke="transparent" points="-4,4 -4,-566 573,-566 573,4 -4,4"/>
<!-- genIE -->
<g id="node1" class="node">
<title>genIE</title>
<g id="a_node1"><a xlink:href="gen-birth3.svg" xlink:title="&lt;font point&#45;size=&quot;24&quot;&gt;&lt;b&gt;Indo&#45;European&lt;/b&gt;&lt;/font&gt;&lt;br/&gt;&lt;font point&#45;size=&quot;18&quot; color=&quot;red&quot;&gt;gen(ə)&#45;, gon&#45;, gn̥&#45;&lt;/font&gt;&lt;br/&gt;&lt;font point&#45;size=&quot;16&quot;&gt;to beget, give birth, be born&lt;/font&gt;">
<path fill="none" stroke="black" stroke-dasharray="5,2" d="M374,-562C374,-562 211,-562 211,-562 205,-562 199,-556 199,-550 199,-550 199,-508 199,-508 199,-502 205,-496 211,-496 211,-496 374,-496 374,-496 380,-496 386,-502 386,-508 386,-508 386,-550 386,-550 386,-556 380,-562 374,-562"/>
<text text-anchor="start" x="214" y="-539.8" font-family="Times New Roman,serif" font-weight="bold" font-size="24.00">Indo&#45;European</text>
<text text-anchor="start" x="229.5" y="-520.6" font-family="Times New Roman,serif" font-size="18.00" fill="red">gen(ə)&#45;, gon&#45;, gn̥&#45;</text>
<text text-anchor="start" x="207" y="-504.2" font-family="Times New Roman,serif" font-size="16.00">to beget, give birth, be born</text>
</a>
</g>
</g>
<!-- gensL -->
<g id="node2" class="node">
<title>gensL</title>
<text text-anchor="start" x="276" y="-445.8" font-family="Times New Roman,serif" font-weight="bold" font-size="14.00">Latin</text>
<text text-anchor="start" x="260.5" y="-431.8" font-family="Times New Roman,serif" font-size="14.00" fill="red">gēns, genti&#45;</text>
<text text-anchor="start" x="283" y="-419.4" font-family="Times New Roman,serif" font-size="12.00">clan</text>
</g>
<!-- genIE&#45;&gt;gensL -->
<g id="edge1" class="edge">
<title>genIE&#45;&gt;gensL</title>
<path fill="none" stroke="black" d="M292.5,-495.92C292.5,-487.64 292.5,-478.72 292.5,-470.38"/>
<polygon fill="black" stroke="black" points="296,-470.22 292.5,-460.22 289,-470.22 296,-470.22"/>
</g>
<!-- gens -->
<g id="node3" class="node">
<title>gens</title>
<text text-anchor="start" x="8" y="-35.8" font-family="Times New Roman,serif" font-weight="bold" font-size="14.00">Modern</text>
<text text-anchor="start" x="9.5" y="-21.8" font-family="Times New Roman,serif" font-weight="bold" font-size="14.00">English</text>
<text text-anchor="start" x="19.5" y="-7.8" font-family="Times New Roman,serif" font-size="14.00" fill="red">gens</text>
</g>
<!-- gensL&#45;&gt;gens -->
<g id="edge2" class="edge">
<title>gensL&#45;&gt;gens</title>
<path fill="none" stroke="black" stroke-dasharray="5,2" d="M252.44,-428.7C179.51,-414.7 32.5,-373.73 32.5,-271 32.5,-271 32.5,-271 32.5,-190 32.5,-145.17 32.5,-93.44 32.5,-60.26"/>
<polygon fill="black" stroke="black" points="36,-60.18 32.5,-50.18 29,-60.18 36,-60.18"/>
</g>
<!-- gentilisL -->
<g id="node4" class="node">
<title>gentilisL</title>
<text text-anchor="start" x="272.5" y="-361.8" font-family="Times New Roman,serif" font-size="14.00" fill="red">gentīlis</text>
<text text-anchor="start" x="271" y="-349.4" font-family="Times New Roman,serif" font-size="12.00">belonging</text>
<text text-anchor="start" x="273" y="-337.4" font-family="Times New Roman,serif" font-size="12.00">to a clan</text>
</g>
<!-- gensL&#45;&gt;gentilisL -->
<g id="edge3" class="edge">
<title>gensL&#45;&gt;gentilisL</title>
<path fill="none" stroke="black" d="M292.5,-411.57C292.5,-403.75 292.5,-394.89 292.5,-386.51"/>
<polygon fill="black" stroke="black" points="296,-386.26 292.5,-376.26 289,-386.26 296,-386.26"/>
</g>
<!-- gentesL -->
<g id="node15" class="node">
<title>gentesL</title>
<text text-anchor="start" x="367" y="-356.8" font-family="Times New Roman,serif" font-weight="bold" font-size="14.00">Latin</text>
<text text-anchor="start" x="365.5" y="-342.8" font-family="Times New Roman,serif" font-size="14.00" fill="red">gentēs</text>
</g>
<!-- gensL&#45;&gt;gentesL -->
<g id="edge14" class="edge">
<title>gensL&#45;&gt;gentesL</title>
<path fill="none" stroke="black" d="M318.82,-411.57C330.71,-400.99 344.73,-388.51 356.67,-377.88"/>
<polygon fill="black" stroke="black" points="359.03,-380.46 364.18,-371.2 354.38,-375.23 359.03,-380.46"/>
</g>
<!-- gentilOF -->
<g id="node5" class="node">
<title>gentilOF</title>
<text text-anchor="start" x="257.5" y="-273.8" font-family="Times New Roman,serif" font-weight="bold" font-size="14.00">Old French</text>
<text text-anchor="start" x="277.5" y="-259.8" font-family="Times New Roman,serif" font-size="14.00" fill="red">gentil</text>
</g>
<!-- gentilisL&#45;&gt;gentilOF -->
<g id="edge4" class="edge">
<title>gentilisL&#45;&gt;gentilOF</title>
<path fill="none" stroke="black" d="M292.5,-329.87C292.5,-320.13 292.5,-308.6 292.5,-298.34"/>
<polygon fill="black" stroke="black" points="296,-298.23 292.5,-288.23 289,-298.23 296,-298.23"/>
</g>
<!-- gentilME -->
<g id="node6" class="node">
<title>gentilME</title>
<text text-anchor="start" x="177" y="-121.8" font-family="Times New Roman,serif" font-weight="bold" font-size="14.00">Middle</text>
<text text-anchor="start" x="175.5" y="-107.8" font-family="Times New Roman,serif" font-weight="bold" font-size="14.00">English</text>
<text text-anchor="start" x="183.5" y="-93.8" font-family="Times New Roman,serif" font-size="14.00" fill="red">gentil</text>
</g>
<!-- gentilOF&#45;&gt;gentilME -->
<g id="edge5" class="edge">
<title>gentilOF&#45;&gt;gentilME</title>
<path fill="none" stroke="black" stroke-dasharray="5,2" d="M282.26,-251.9C266.95,-226.33 237.81,-177.65 218.26,-145"/>
<polygon fill="black" stroke="black" points="221.16,-143.03 213.02,-136.25 215.15,-146.63 221.16,-143.03"/>
</g>
<!-- gentilF -->
<g id="node8" class="node">
<title>gentilF</title>
<text text-anchor="start" x="270.5" y="-120.8" font-family="Times New Roman,serif" font-weight="bold" font-size="14.00">French</text>
<text text-anchor="start" x="277.5" y="-106.8" font-family="Times New Roman,serif" font-size="14.00" fill="red">gentil</text>
<text text-anchor="start" x="283" y="-94.4" font-family="Times New Roman,serif" font-size="12.00">nice</text>
</g>
<!-- gentilOF&#45;&gt;gentilF -->
<g id="edge7" class="edge">
<title>gentilOF&#45;&gt;gentilF</title>
<path fill="none" stroke="black" d="M292.5,-251.9C292.5,-226.48 292.5,-178.22 292.5,-145.58"/>
<polygon fill="black" stroke="black" points="296,-145.17 292.5,-135.17 289,-145.17 296,-145.17"/>
</g>
<!-- genterieOF -->
<g id="node12" class="node">
<title>genterieOF</title>
<text text-anchor="start" x="336" y="-187.3" font-family="Times New Roman,serif" font-size="14.00" fill="red">genterie</text>
</g>
<!-- gentilOF&#45;&gt;genterieOF -->
<g id="edge11" class="edge">
<title>gentilOF&#45;&gt;genterieOF</title>
<path fill="none" stroke="black" d="M306.93,-251.91C315.59,-241.64 326.78,-228.4 336.42,-216.97"/>
<polygon fill="black" stroke="black" points="339.34,-218.94 343.11,-209.04 333.99,-214.42 339.34,-218.94"/>
</g>
<!-- gentle -->
<g id="node7" class="node">
<title>gentle</title>
<text text-anchor="start" x="91" y="-35.8" font-family="Times New Roman,serif" font-weight="bold" font-size="14.00">Modern</text>
<text text-anchor="start" x="92.5" y="-21.8" font-family="Times New Roman,serif" font-weight="bold" font-size="14.00">English</text>
<text text-anchor="start" x="99" y="-7.8" font-family="Times New Roman,serif" font-size="14.00" fill="red">gentle</text>
</g>
<!-- gentilME&#45;&gt;gentle -->
<g id="edge6" class="edge">
<title>gentilME&#45;&gt;gentle</title>
<path fill="none" stroke="black" d="M174.49,-85.7C165.8,-76.91 155.86,-66.85 146.65,-57.52"/>
<polygon fill="black" stroke="black" points="148.97,-54.89 139.45,-50.24 143.99,-59.82 148.97,-54.89"/>
</g>
<!-- gentile -->
<g id="node11" class="node">
<title>gentile</title>
<text text-anchor="start" x="174" y="-35.8" font-family="Times New Roman,serif" font-weight="bold" font-size="14.00">Modern</text>
<text text-anchor="start" x="175.5" y="-21.8" font-family="Times New Roman,serif" font-weight="bold" font-size="14.00">English</text>
<text text-anchor="start" x="180.5" y="-7.8" font-family="Times New Roman,serif" font-size="14.00" fill="red">gentile</text>
</g>
<!-- gentilME&#45;&gt;gentile -->
<g id="edge10" class="edge">
<title>gentilME&#45;&gt;gentile</title>
<path fill="none" stroke="black" d="M198.5,-85.7C198.5,-77.78 198.5,-68.83 198.5,-60.31"/>
<polygon fill="black" stroke="black" points="202,-60.24 198.5,-50.24 195,-60.24 202,-60.24"/>
</g>
<!-- genteel -->
<g id="node9" class="node">
<title>genteel</title>
<text text-anchor="start" x="257" y="-35.8" font-family="Times New Roman,serif" font-weight="bold" font-size="14.00">Modern</text>
<text text-anchor="start" x="258.5" y="-21.8" font-family="Times New Roman,serif" font-weight="bold" font-size="14.00">English</text>
<text text-anchor="start" x="262" y="-7.8" font-family="Times New Roman,serif" font-size="14.00" fill="red">genteel</text>
</g>
<!-- gentilF&#45;&gt;genteel -->
<g id="edge8" class="edge">
<title>gentilF&#45;&gt;genteel</title>
<path fill="none" stroke="black" stroke-dasharray="5,2" d="M289.44,-86.6C288.37,-78.44 287.14,-69.1 285.98,-60.23"/>
<polygon fill="black" stroke="black" points="289.43,-59.61 284.66,-50.15 282.49,-60.52 289.43,-59.61"/>
</g>
<!-- jaunty -->
<g id="node10" class="node">
<title>jaunty</title>
<text text-anchor="start" x="340" y="-35.8" font-family="Times New Roman,serif" font-weight="bold" font-size="14.00">Modern</text>
<text text-anchor="start" x="341.5" y="-21.8" font-family="Times New Roman,serif" font-weight="bold" font-size="14.00">English</text>
<text text-anchor="start" x="347.5" y="-7.8" font-family="Times New Roman,serif" font-size="14.00" fill="red">jaunty</text>
</g>
<!-- gentilF&#45;&gt;jaunty -->
<g id="edge9" class="edge">
<title>gentilF&#45;&gt;jaunty</title>
<path fill="none" stroke="black" stroke-dasharray="5,2" d="M312.56,-86.6C320.16,-77.73 328.96,-67.46 337.13,-57.93"/>
<polygon fill="black" stroke="black" points="339.95,-60.02 343.8,-50.15 334.63,-55.46 339.95,-60.02"/>
</g>
<!-- gentriME -->
<g id="node13" class="node">
<title>gentriME</title>
<text text-anchor="start" x="393" y="-121.8" font-family="Times New Roman,serif" font-weight="bold" font-size="14.00">Middle</text>
<text text-anchor="start" x="391.5" y="-107.8" font-family="Times New Roman,serif" font-weight="bold" font-size="14.00">English</text>
<text text-anchor="start" x="399" y="-93.8" font-family="Times New Roman,serif" font-size="14.00" fill="red">gentri</text>
</g>
<!-- genterieOF&#45;&gt;gentriME -->
<g id="edge12" class="edge">
<title>genterieOF&#45;&gt;gentriME</title>
<path fill="none" stroke="black" stroke-dasharray="5,2" d="M370.15,-172.69C376.24,-164.36 383.74,-154.09 390.83,-144.39"/>
<polygon fill="black" stroke="black" points="393.84,-146.2 396.91,-136.07 388.19,-142.07 393.84,-146.2"/>
</g>
<!-- gentry -->
<g id="node14" class="node">
<title>gentry</title>
<text text-anchor="start" x="423" y="-35.8" font-family="Times New Roman,serif" font-weight="bold" font-size="14.00">Modern</text>
<text text-anchor="start" x="424.5" y="-21.8" font-family="Times New Roman,serif" font-weight="bold" font-size="14.00">English</text>
<text text-anchor="start" x="430" y="-7.8" font-family="Times New Roman,serif" font-size="14.00" fill="red">gentry</text>
</g>
<!-- gentriME&#45;&gt;gentry -->
<g id="edge13" class="edge">
<title>gentriME&#45;&gt;gentry</title>
<path fill="none" stroke="black" d="M424.04,-85.7C427.23,-77.61 430.83,-68.43 434.24,-59.75"/>
<polygon fill="black" stroke="black" points="437.58,-60.83 437.98,-50.24 431.06,-58.27 437.58,-60.83"/>
</g>
<!-- gensdarmesOF -->
<g id="node16" class="node">
<title>gensdarmesOF</title>
<text text-anchor="start" x="385.5" y="-279.8" font-family="Times New Roman,serif" font-weight="bold" font-size="14.00">Old French</text>
<text text-anchor="start" x="384" y="-265.8" font-family="Times New Roman,serif" font-size="14.00" fill="red">gens d&#39;armes</text>
<text text-anchor="start" x="382" y="-253.4" font-family="Times New Roman,serif" font-size="12.00">mounted soldiers</text>
</g>
<!-- gentesL&#45;&gt;gensdarmesOF -->
<g id="edge15" class="edge">
<title>gentesL&#45;&gt;gensdarmesOF</title>
<path fill="none" stroke="black" d="M391.35,-334.82C395.51,-325.7 400.78,-314.18 405.68,-303.45"/>
<polygon fill="black" stroke="black" points="408.89,-304.85 409.86,-294.3 402.52,-301.94 408.89,-304.85"/>
</g>
<!-- gendarmeOF -->
<g id="node17" class="node">
<title>gendarmeOF</title>
<text text-anchor="start" x="417" y="-194.8" font-family="Times New Roman,serif" font-size="14.00" fill="red">gent d&#39;armes</text>
<text text-anchor="start" x="425" y="-179.8" font-family="Times New Roman,serif" font-size="14.00" fill="red">gendarme</text>
</g>
<!-- gensdarmesOF&#45;&gt;gendarmeOF -->
<g id="edge16" class="edge">
<title>gensdarmesOF&#45;&gt;gendarmeOF</title>
<path fill="none" stroke="black" d="M430.1,-245.9C433.53,-237.66 437.42,-228.29 440.99,-219.71"/>
<polygon fill="black" stroke="black" points="444.23,-221.02 444.84,-210.44 437.77,-218.33 444.23,-221.02"/>
</g>
<!-- gendarmeF -->
<g id="node18" class="node">
<title>gendarmeF</title>
<text text-anchor="start" x="499.5" y="-114.8" font-family="Times New Roman,serif" font-weight="bold" font-size="14.00">French</text>
<text text-anchor="start" x="494" y="-100.8" font-family="Times New Roman,serif" font-size="14.00" fill="red">gendarme</text>
</g>
<!-- gendarmeOF&#45;&gt;gendarmeF -->
<g id="edge17" class="edge">
<title>gendarmeOF&#45;&gt;gendarmeF</title>
<path fill="none" stroke="black" d="M468.5,-171.91C477.75,-161.45 489.52,-148.15 499.62,-136.73"/>
<polygon fill="black" stroke="black" points="502.29,-139 506.29,-129.19 497.05,-134.36 502.29,-139"/>
</g>
<!-- gendarme -->
<g id="node19" class="node">
<title>gendarme</title>
<text text-anchor="start" x="509" y="-35.8" font-family="Times New Roman,serif" font-weight="bold" font-size="14.00">Modern</text>
<text text-anchor="start" x="510.5" y="-21.8" font-family="Times New Roman,serif" font-weight="bold" font-size="14.00">English</text>
<text text-anchor="start" x="506" y="-7.8" font-family="Times New Roman,serif" font-size="14.00" fill="red">gendarme</text>
</g>
<!-- gendarmeF&#45;&gt;gendarme -->
<g id="edge18" class="edge">
<title>gendarmeF&#45;&gt;gendarme</title>
<path fill="none" stroke="black" stroke-dasharray="5,2" d="M523.99,-92.6C525.33,-83.18 527.04,-71.21 528.64,-60.03"/>
<polygon fill="black" stroke="black" points="532.11,-60.47 530.06,-50.07 525.18,-59.48 532.11,-60.47"/>
</g>
</g>
</svg>
