<?xml version="1.0" encoding="UTF-8" standalone="no"?>
<!DOCTYPE svg PUBLIC "-//W3C//DTD SVG 1.1//EN"
 "http://www.w3.org/Graphics/SVG/1.1/DTD/svg11.dtd">
<!-- Generated by graphviz version 2.49.0 (20210828.1703)
 -->
<!-- Pages: 1 -->
<svg width="1013pt" height="1060pt"
 viewBox="0.00 0.00 1012.50 1060.00" xmlns="http://www.w3.org/2000/svg" xmlns:xlink="http://www.w3.org/1999/xlink">
<g id="graph0" class="graph" transform="scale(1 1) rotate(0) translate(4 1056)">
<polygon fill="white" stroke="transparent" points="-4,4 -4,-1056 1008.5,-1056 1008.5,4 -4,4"/>
<!-- genIE -->
<g id="node1" class="node">
<title>genIE</title>
<g id="a_node1"><a xlink:href="gen-birth0.svg" xlink:title="&lt;font point&#45;size=&quot;24&quot;&gt;&lt;b&gt;Indo&#45;European&lt;/b&gt;&lt;/font&gt;&lt;br/&gt;&lt;font point&#45;size=&quot;18&quot; color=&quot;red&quot;&gt;gen(ə)&#45;, gon&#45;, gn̥&#45;&lt;/font&gt;&lt;br/&gt;&lt;font point&#45;size=&quot;16&quot;&gt;to beget, give birth, be born&lt;/font&gt;">
<path fill="none" stroke="black" stroke-dasharray="5,2" d="M612,-1052C612,-1052 449,-1052 449,-1052 443,-1052 437,-1046 437,-1040 437,-1040 437,-998 437,-998 437,-992 443,-986 449,-986 449,-986 612,-986 612,-986 618,-986 624,-992 624,-998 624,-998 624,-1040 624,-1040 624,-1046 618,-1052 612,-1052"/>
<text text-anchor="start" x="452" y="-1029.8" font-family="Times New Roman,serif" font-weight="bold" font-size="24.00">Indo&#45;European</text>
<text text-anchor="start" x="467.5" y="-1010.6" font-family="Times New Roman,serif" font-size="18.00" fill="red">gen(ə)&#45;, gon&#45;, gn̥&#45;</text>
<text text-anchor="start" x="445" y="-994.2" font-family="Times New Roman,serif" font-size="16.00">to beget, give birth, be born</text>
</a>
</g>
</g>
<!-- gne -->
<g id="node2" class="node">
<title>gne</title>
<text text-anchor="start" x="518" y="-927.3" font-family="Times New Roman,serif" font-size="14.00" fill="red">gn̥ə&#45;</text>
</g>
<!-- genIE&#45;&gt;gne -->
<g id="edge1" class="edge">
<title>genIE&#45;&gt;gne</title>
<path fill="none" stroke="black" d="M530.5,-985.98C530.5,-977.25 530.5,-967.87 530.5,-959.42"/>
<polygon fill="black" stroke="black" points="534,-959.33 530.5,-949.33 527,-959.33 534,-959.33"/>
</g>
<!-- gneyo -->
<g id="node3" class="node">
<title>gneyo</title>
<text text-anchor="start" x="130" y="-853.3" font-family="Times New Roman,serif" font-size="14.00" fill="red">gn̥ə&#45;yo&#45;</text>
</g>
<!-- gne&#45;&gt;gneyo -->
<g id="edge2" class="edge">
<title>gne&#45;&gt;gneyo</title>
<path fill="none" stroke="black" d="M503.24,-924.82C437.27,-912.29 268.72,-880.27 191.38,-865.58"/>
<polygon fill="black" stroke="black" points="191.57,-862.05 181.1,-863.62 190.27,-868.93 191.57,-862.05"/>
</g>
<!-- gneti -->
<g id="node4" class="node">
<title>gneti</title>
<text text-anchor="start" x="284.5" y="-853.3" font-family="Times New Roman,serif" font-size="14.00" fill="red">gn̥ə&#45;ti&#45;</text>
</g>
<!-- gne&#45;&gt;gneti -->
<g id="edge3" class="edge">
<title>gne&#45;&gt;gneti</title>
<path fill="none" stroke="black" d="M503.45,-921.46C462.57,-908.55 384.96,-884.04 339.08,-869.55"/>
<polygon fill="black" stroke="black" points="340.1,-866.2 329.51,-866.53 338,-872.88 340.1,-866.2"/>
</g>
<!-- gigne -->
<g id="node5" class="node">
<title>gigne</title>
<text text-anchor="start" x="482" y="-853.3" font-family="Times New Roman,serif" font-size="14.00" fill="red">gi&#45;gn(ə)</text>
</g>
<!-- gne&#45;&gt;gigne -->
<g id="edge4" class="edge">
<title>gne&#45;&gt;gigne</title>
<path fill="none" stroke="black" d="M524.1,-912.94C520.95,-904.54 517.08,-894.23 513.55,-884.81"/>
<polygon fill="black" stroke="black" points="516.83,-883.58 510.04,-875.44 510.27,-886.03 516.83,-883.58"/>
</g>
<!-- gno -->
<g id="node6" class="node">
<title>gno</title>
<text text-anchor="start" x="573" y="-853.3" font-family="Times New Roman,serif" font-size="14.00" fill="red">&#45;gn&#45;o&#45;</text>
</g>
<!-- gne&#45;&gt;gno -->
<g id="edge5" class="edge">
<title>gne&#45;&gt;gno</title>
<path fill="none" stroke="black" d="M544.72,-912.94C552.08,-904.1 561.22,-893.14 569.39,-883.33"/>
<polygon fill="black" stroke="black" points="572.25,-885.36 575.97,-875.44 566.88,-880.88 572.25,-885.36"/>
</g>
<!-- gna -->
<g id="node7" class="node">
<title>gna</title>
<text text-anchor="start" x="779" y="-853.3" font-family="Times New Roman,serif" font-size="14.00" fill="red">gnā&#45;</text>
</g>
<!-- gne&#45;&gt;gna -->
<g id="edge6" class="edge">
<title>gne&#45;&gt;gna</title>
<path fill="none" stroke="black" d="M557.67,-924.13C598.41,-915.09 677.61,-896.64 743.5,-876 747.11,-874.87 750.84,-873.62 754.56,-872.32"/>
<polygon fill="black" stroke="black" points="756.05,-875.5 764.27,-868.81 753.67,-868.92 756.05,-875.5"/>
</g>
<!-- gnesko -->
<g id="node8" class="node">
<title>gnesko</title>
<text text-anchor="start" x="674" y="-860.8" font-family="Times New Roman,serif" font-size="14.00" fill="red">gn̥ə&#45;sko&#45;,</text>
<text text-anchor="start" x="676" y="-845.8" font-family="Times New Roman,serif" font-size="14.00" fill="red">gnā&#45;sko&#45;</text>
</g>
<!-- gne&#45;&gt;gnesko -->
<g id="edge7" class="edge">
<title>gne&#45;&gt;gnesko</title>
<path fill="none" stroke="black" d="M557.81,-918.43C584.44,-907.16 625.36,-889.83 656.56,-876.61"/>
<polygon fill="black" stroke="black" points="658.06,-879.78 665.9,-872.65 655.33,-873.33 658.06,-879.78"/>
</g>
<!-- kunjamGm -->
<g id="node9" class="node">
<title>kunjamGm</title>
<text text-anchor="start" x="121" y="-766.8" font-family="Times New Roman,serif" font-weight="bold" font-size="14.00">Germanic</text>
<text text-anchor="start" x="131.5" y="-752.8" font-family="Times New Roman,serif" font-size="14.00" fill="red">kunjam</text>
</g>
<!-- gneyo&#45;&gt;kunjamGm -->
<g id="edge8" class="edge">
<title>gneyo&#45;&gt;kunjamGm</title>
<path fill="none" stroke="black" d="M151.5,-838.7C151.5,-825.46 151.5,-806.95 151.5,-791.66"/>
<polygon fill="black" stroke="black" points="155,-791.23 151.5,-781.23 148,-791.23 155,-791.23"/>
<text text-anchor="middle" x="155" y="-808.8" font-family="Times New Roman,serif" font-size="14.00">?</text>
</g>
<!-- kuningazGm -->
<g id="node13" class="node">
<title>kuningazGm</title>
<text text-anchor="start" x="23" y="-766.8" font-family="Times New Roman,serif" font-weight="bold" font-size="14.00">Germanic</text>
<text text-anchor="start" x="29" y="-752.8" font-family="Times New Roman,serif" font-size="14.00" fill="red">kuningaz</text>
</g>
<!-- gneyo&#45;&gt;kuningazGm -->
<g id="edge12" class="edge">
<title>gneyo&#45;&gt;kuningazGm</title>
<path fill="none" stroke="black" d="M133.07,-838.7C117.87,-824.43 96.15,-804.04 79.24,-788.16"/>
<polygon fill="black" stroke="black" points="81.54,-785.52 71.85,-781.23 76.75,-790.62 81.54,-785.52"/>
<text text-anchor="middle" x="115" y="-808.8" font-family="Times New Roman,serif" font-size="14.00">?</text>
</g>
<!-- gensL -->
<g id="node17" class="node">
<title>gensL</title>
<text text-anchor="start" x="286" y="-706.8" font-family="Times New Roman,serif" font-weight="bold" font-size="14.00">Latin</text>
<text text-anchor="start" x="270.5" y="-692.8" font-family="Times New Roman,serif" font-size="14.00" fill="red">gēns, genti&#45;</text>
<text text-anchor="start" x="280.5" y="-680.4" font-family="Times New Roman,serif" font-size="12.00">race, clan</text>
</g>
<!-- gneti&#45;&gt;gensL -->
<g id="edge16" class="edge">
<title>gneti&#45;&gt;gensL</title>
<path fill="none" stroke="black" d="M302.5,-838.79C302.5,-813.03 302.5,-763.95 302.5,-731.09"/>
<polygon fill="black" stroke="black" points="306,-731.05 302.5,-721.05 299,-731.05 306,-731.05"/>
</g>
<!-- genesisG -->
<g id="node19" class="node">
<title>genesisG</title>
<text text-anchor="start" x="204.5" y="-578.8" font-family="Times New Roman,serif" font-weight="bold" font-size="14.00">Greek</text>
<text text-anchor="start" x="204" y="-564.8" font-family="Times New Roman,serif" font-size="14.00" fill="red">genesis</text>
<text text-anchor="start" x="212" y="-552.4" font-family="Times New Roman,serif" font-size="12.00">origin</text>
</g>
<!-- gneti&#45;&gt;genesisG -->
<g id="edge18" class="edge">
<title>gneti&#45;&gt;genesisG</title>
<path fill="none" stroke="black" d="M295.26,-838.81C284.81,-813.43 265.43,-764.27 253.5,-721 242.49,-681.06 234.17,-634.05 229.33,-603.22"/>
<polygon fill="black" stroke="black" points="232.74,-602.38 227.76,-593.03 225.82,-603.44 232.74,-602.38"/>
</g>
<!-- gnosisG -->
<g id="node21" class="node">
<title>gnosisG</title>
<text text-anchor="start" x="483.5" y="-446.8" font-family="Times New Roman,serif" font-weight="bold" font-size="14.00">Greek</text>
<text text-anchor="start" x="485" y="-432.8" font-family="Times New Roman,serif" font-size="14.00" fill="red">gnōsis</text>
<text text-anchor="start" x="478.5" y="-420.4" font-family="Times New Roman,serif" font-size="12.00">knowledge</text>
</g>
<!-- gigne&#45;&gt;gnosisG -->
<g id="edge20" class="edge">
<title>gigne&#45;&gt;gnosisG</title>
<path fill="none" stroke="black" d="M503.5,-838.7C503.5,-820.21 503.5,-790.03 503.5,-764 503.5,-764 503.5,-764 503.5,-568 503.5,-535.07 503.5,-497.45 503.5,-471.18"/>
<polygon fill="black" stroke="black" points="507,-471.01 503.5,-461.01 500,-471.01 507,-471.01"/>
</g>
<!-- gignereL -->
<g id="node23" class="node">
<title>gignereL</title>
<text text-anchor="start" x="419" y="-772.8" font-family="Times New Roman,serif" font-weight="bold" font-size="14.00">Latin</text>
<text text-anchor="start" x="415.5" y="-758.8" font-family="Times New Roman,serif" font-size="14.00" fill="red">gignere</text>
<text text-anchor="start" x="417" y="-746.4" font-family="Times New Roman,serif" font-size="12.00">to beget</text>
</g>
<!-- gigne&#45;&gt;gignereL -->
<g id="edge22" class="edge">
<title>gigne&#45;&gt;gignereL</title>
<path fill="none" stroke="black" d="M490.71,-838.7C481.7,-826.51 469.39,-809.86 458.68,-795.37"/>
<polygon fill="black" stroke="black" points="461.36,-793.1 452.6,-787.13 455.73,-797.26 461.36,-793.1"/>
</g>
<!-- benignusL -->
<g id="node26" class="node">
<title>benignusL</title>
<text text-anchor="start" x="641" y="-452.8" font-family="Times New Roman,serif" font-weight="bold" font-size="14.00">Latin</text>
<text text-anchor="start" x="632.5" y="-438.8" font-family="Times New Roman,serif" font-size="14.00" fill="red">benignus</text>
<text text-anchor="start" x="643.5" y="-426.4" font-family="Times New Roman,serif" font-size="12.00">good&#45;</text>
<text text-anchor="start" x="640.5" y="-414.4" font-family="Times New Roman,serif" font-size="12.00">natured</text>
</g>
<!-- gno&#45;&gt;benignusL -->
<g id="edge25" class="edge">
<title>gno&#45;&gt;benignusL</title>
<path fill="none" stroke="black" d="M606.92,-838.89C621.83,-821.49 641.5,-793.04 641.5,-764 641.5,-764 641.5,-764 641.5,-568 641.5,-537.32 645.94,-502.87 650.15,-477.15"/>
<polygon fill="black" stroke="black" points="653.64,-477.49 651.86,-467.05 646.74,-476.32 653.64,-477.49"/>
</g>
<!-- malignusL -->
<g id="node27" class="node">
<title>malignusL</title>
<text text-anchor="start" x="574" y="-584.8" font-family="Times New Roman,serif" font-weight="bold" font-size="14.00">Latin</text>
<text text-anchor="start" x="566" y="-570.8" font-family="Times New Roman,serif" font-size="14.00" fill="red">malignus</text>
<text text-anchor="start" x="580.5" y="-558.4" font-family="Times New Roman,serif" font-size="12.00">evil&#45;</text>
<text text-anchor="start" x="573.5" y="-546.4" font-family="Times New Roman,serif" font-size="12.00">natured</text>
</g>
<!-- gno&#45;&gt;malignusL -->
<g id="edge26" class="edge">
<title>gno&#45;&gt;malignusL</title>
<path fill="none" stroke="black" d="M590.5,-838.97C590.5,-794.29 590.5,-672.84 590.5,-609.55"/>
<polygon fill="black" stroke="black" points="594,-609.18 590.5,-599.18 587,-609.18 594,-609.18"/>
</g>
<!-- praegnasL -->
<g id="node30" class="node">
<title>praegnasL</title>
<text text-anchor="start" x="788" y="-772.8" font-family="Times New Roman,serif" font-weight="bold" font-size="14.00">Latin</text>
<text text-anchor="start" x="779.5" y="-758.8" font-family="Times New Roman,serif" font-size="14.00" fill="red">praegnās</text>
<text text-anchor="start" x="784.5" y="-746.4" font-family="Times New Roman,serif" font-size="12.00">pregnant</text>
</g>
<!-- gna&#45;&gt;praegnasL -->
<g id="edge29" class="edge">
<title>gna&#45;&gt;praegnasL</title>
<path fill="none" stroke="black" d="M793.95,-838.7C795.59,-827.08 797.8,-811.4 799.78,-797.41"/>
<polygon fill="black" stroke="black" points="803.3,-797.53 801.23,-787.13 796.37,-796.55 803.3,-797.53"/>
</g>
<!-- gnasciL -->
<g id="node40" class="node">
<title>gnasciL</title>
<text text-anchor="start" x="733" y="-374.8" font-family="Times New Roman,serif" font-weight="bold" font-size="14.00">Latin</text>
<text text-anchor="start" x="726.5" y="-360.8" font-family="Times New Roman,serif" font-size="14.00" fill="red">(g)nāscī</text>
<text text-anchor="start" x="725.5" y="-348.4" font-family="Times New Roman,serif" font-size="12.00">to be born</text>
<text text-anchor="start" x="726.5" y="-334.8" font-family="Times New Roman,serif" font-size="14.00" fill="red">(g)nātus</text>
<text text-anchor="start" x="738.5" y="-322.4" font-family="Times New Roman,serif" font-size="12.00">born</text>
</g>
<!-- gnesko&#45;&gt;gnasciL -->
<g id="edge39" class="edge">
<title>gnesko&#45;&gt;gnasciL</title>
<path fill="none" stroke="black" d="M702.4,-837.69C704.16,-819.14 706.5,-789.61 706.5,-764 706.5,-764 706.5,-764 706.5,-502 706.5,-466.32 718.02,-427.65 729.14,-398.65"/>
<polygon fill="black" stroke="black" points="732.45,-399.79 732.88,-389.21 725.94,-397.22 732.45,-399.79"/>
</g>
<!-- cynOE -->
<g id="node10" class="node">
<title>cynOE</title>
<text text-anchor="start" x="115" y="-639.8" font-family="Times New Roman,serif" font-weight="bold" font-size="14.00">Old English</text>
<text text-anchor="start" x="141" y="-625.8" font-family="Times New Roman,serif" font-size="14.00" fill="red">cyn</text>
</g>
<!-- kunjamGm&#45;&gt;cynOE -->
<g id="edge9" class="edge">
<title>kunjamGm&#45;&gt;cynOE</title>
<path fill="none" stroke="black" d="M151.5,-744.88C151.5,-724.15 151.5,-688.95 151.5,-664.42"/>
<polygon fill="black" stroke="black" points="155,-664.31 151.5,-654.31 148,-664.31 155,-664.31"/>
</g>
<!-- kinME -->
<g id="node11" class="node">
<title>kinME</title>
<text text-anchor="start" x="124" y="-447.8" font-family="Times New Roman,serif" font-weight="bold" font-size="14.00">Middle</text>
<text text-anchor="start" x="122.5" y="-433.8" font-family="Times New Roman,serif" font-weight="bold" font-size="14.00">English</text>
<text text-anchor="start" x="137" y="-419.8" font-family="Times New Roman,serif" font-size="14.00" fill="red">kin</text>
</g>
<!-- cynOE&#45;&gt;kinME -->
<g id="edge10" class="edge">
<title>cynOE&#45;&gt;kinME</title>
<path fill="none" stroke="black" d="M150.98,-617.86C149.99,-585.5 147.84,-514.84 146.55,-472.36"/>
<polygon fill="black" stroke="black" points="150.04,-472.09 146.24,-462.2 143.04,-472.3 150.04,-472.09"/>
</g>
<!-- kin -->
<g id="node12" class="node">
<title>kin</title>
<text text-anchor="start" x="109" y="-149.8" font-family="Times New Roman,serif" font-weight="bold" font-size="14.00">Modern</text>
<text text-anchor="start" x="110.5" y="-135.8" font-family="Times New Roman,serif" font-weight="bold" font-size="14.00">English</text>
<text text-anchor="start" x="125" y="-121.8" font-family="Times New Roman,serif" font-size="14.00" fill="red">kin</text>
</g>
<!-- kinME&#45;&gt;kin -->
<g id="edge11" class="edge">
<title>kinME&#45;&gt;kin</title>
<path fill="none" stroke="black" d="M144.52,-411.78C142.39,-359.29 137.35,-234.9 134.89,-174.33"/>
<polygon fill="black" stroke="black" points="138.38,-173.99 134.48,-164.14 131.39,-174.28 138.38,-173.99"/>
</g>
<!-- cyningOE -->
<g id="node14" class="node">
<title>cyningOE</title>
<text text-anchor="start" x="8" y="-639.8" font-family="Times New Roman,serif" font-weight="bold" font-size="14.00">Old English</text>
<text text-anchor="start" x="26" y="-625.8" font-family="Times New Roman,serif" font-size="14.00" fill="red">cyning</text>
</g>
<!-- kuningazGm&#45;&gt;cyningOE -->
<g id="edge13" class="edge">
<title>kuningazGm&#45;&gt;cyningOE</title>
<path fill="none" stroke="black" d="M52.27,-744.88C50.77,-724.15 48.24,-688.95 46.47,-664.42"/>
<polygon fill="black" stroke="black" points="49.96,-664.04 45.75,-654.31 42.97,-664.54 49.96,-664.04"/>
</g>
<!-- kingME -->
<g id="node15" class="node">
<title>kingME</title>
<text text-anchor="start" x="23" y="-362.8" font-family="Times New Roman,serif" font-weight="bold" font-size="14.00">Middle</text>
<text text-anchor="start" x="21.5" y="-348.8" font-family="Times New Roman,serif" font-weight="bold" font-size="14.00">English</text>
<text text-anchor="start" x="32.5" y="-334.8" font-family="Times New Roman,serif" font-size="14.00" fill="red">king</text>
</g>
<!-- cyningOE&#45;&gt;kingME -->
<g id="edge14" class="edge">
<title>cyningOE&#45;&gt;kingME</title>
<path fill="none" stroke="black" d="M44.5,-617.78C44.5,-572.32 44.5,-448.39 44.5,-387.58"/>
<polygon fill="black" stroke="black" points="48,-387.34 44.5,-377.34 41,-387.34 48,-387.34"/>
</g>
<!-- king -->
<g id="node16" class="node">
<title>king</title>
<text text-anchor="start" x="20" y="-149.8" font-family="Times New Roman,serif" font-weight="bold" font-size="14.00">Modern</text>
<text text-anchor="start" x="21.5" y="-135.8" font-family="Times New Roman,serif" font-weight="bold" font-size="14.00">English</text>
<text text-anchor="start" x="32.5" y="-121.8" font-family="Times New Roman,serif" font-size="14.00" fill="red">king</text>
</g>
<!-- kingME&#45;&gt;king -->
<g id="edge15" class="edge">
<title>kingME&#45;&gt;king</title>
<path fill="none" stroke="black" d="M44.5,-326.8C44.5,-289.37 44.5,-217.33 44.5,-174.47"/>
<polygon fill="black" stroke="black" points="48,-174.25 44.5,-164.25 41,-174.25 48,-174.25"/>
</g>
<!-- gensE -->
<g id="node18" class="node">
<title>gensE</title>
<g id="a_node18"><a xlink:href="gen-gens.svg" xlink:title="&lt;font color=&quot;red&quot;&gt;gens&lt;br/&gt;gentle&lt;br/&gt;genteel&lt;br/&gt;gentile&lt;br/&gt;gentry&lt;br/&gt;jaunty&lt;br/&gt;gendarme&lt;/font&gt;">
<path fill="none" stroke="black" stroke-dasharray="5,2" d="M326,-195.5C326,-195.5 279,-195.5 279,-195.5 273,-195.5 267,-189.5 267,-183.5 267,-183.5 267,-94.5 267,-94.5 267,-88.5 273,-82.5 279,-82.5 279,-82.5 326,-82.5 326,-82.5 332,-82.5 338,-88.5 338,-94.5 338,-94.5 338,-183.5 338,-183.5 338,-189.5 332,-195.5 326,-195.5"/>
<text text-anchor="start" x="289.5" y="-180.3" font-family="Times New Roman,serif" font-size="14.00" fill="red">gens</text>
<text text-anchor="start" x="286" y="-165.3" font-family="Times New Roman,serif" font-size="14.00" fill="red">gentle</text>
<text text-anchor="start" x="283" y="-150.3" font-family="Times New Roman,serif" font-size="14.00" fill="red">genteel</text>
<text text-anchor="start" x="284.5" y="-135.3" font-family="Times New Roman,serif" font-size="14.00" fill="red">gentile</text>
<text text-anchor="start" x="285" y="-120.3" font-family="Times New Roman,serif" font-size="14.00" fill="red">gentry</text>
<text text-anchor="start" x="285.5" y="-105.3" font-family="Times New Roman,serif" font-size="14.00" fill="red">jaunty</text>
<text text-anchor="start" x="275" y="-90.3" font-family="Times New Roman,serif" font-size="14.00" fill="red">gendarme</text>
</a>
</g>
</g>
<!-- gensL&#45;&gt;gensE -->
<g id="edge17" class="edge">
<title>gensL&#45;&gt;gensE</title>
<path fill="none" stroke="black" stroke-dasharray="1,5" d="M302.5,-672.78C302.5,-647.5 302.5,-605.88 302.5,-570 302.5,-570 302.5,-570 302.5,-351 302.5,-302.27 302.5,-247.21 302.5,-205.55"/>
<polygon fill="black" stroke="black" points="306,-205.53 302.5,-195.53 299,-205.53 306,-205.53"/>
</g>
<!-- genesis -->
<g id="node20" class="node">
<title>genesis</title>
<text text-anchor="start" x="192" y="-156.8" font-family="Times New Roman,serif" font-weight="bold" font-size="14.00">Modern</text>
<text text-anchor="start" x="193.5" y="-142.8" font-family="Times New Roman,serif" font-weight="bold" font-size="14.00">English</text>
<text text-anchor="start" x="196" y="-128.8" font-family="Times New Roman,serif" font-size="14.00" fill="red">genesis</text>
<text text-anchor="start" x="193.5" y="-114.8" font-family="Times New Roman,serif" font-size="14.00" fill="red">&#45;genesis</text>
</g>
<!-- genesisG&#45;&gt;genesis -->
<g id="edge19" class="edge">
<title>genesisG&#45;&gt;genesis</title>
<path fill="none" stroke="black" stroke-dasharray="1,5" d="M224.07,-544.99C222.78,-476 218.93,-270.17 217.27,-181.45"/>
<polygon fill="black" stroke="black" points="220.77,-181.16 217.08,-171.23 213.77,-181.29 220.77,-181.16"/>
</g>
<!-- gnosis -->
<g id="node22" class="node">
<title>gnosis</title>
<g id="a_node22"><a xlink:href="gen-gnosis.svg" xlink:title="&lt;font color=&quot;red&quot;&gt;cognition&lt;br/&gt;prognosis&lt;br/&gt;agnostic&lt;br/&gt;etc.&lt;/font&gt;">
<path fill="none" stroke="black" stroke-dasharray="5,2" d="M527.5,-173C527.5,-173 479.5,-173 479.5,-173 473.5,-173 467.5,-167 467.5,-161 467.5,-161 467.5,-117 467.5,-117 467.5,-111 473.5,-105 479.5,-105 479.5,-105 527.5,-105 527.5,-105 533.5,-105 539.5,-111 539.5,-117 539.5,-117 539.5,-161 539.5,-161 539.5,-167 533.5,-173 527.5,-173"/>
<text text-anchor="start" x="477.5" y="-157.8" font-family="Times New Roman,serif" font-size="14.00" fill="red">cognition</text>
<text text-anchor="start" x="475.5" y="-142.8" font-family="Times New Roman,serif" font-size="14.00" fill="red">prognosis</text>
<text text-anchor="start" x="480" y="-127.8" font-family="Times New Roman,serif" font-size="14.00" fill="red">agnostic</text>
<text text-anchor="start" x="493" y="-112.8" font-family="Times New Roman,serif" font-size="14.00" fill="red">etc.</text>
</a>
</g>
</g>
<!-- gnosisG&#45;&gt;gnosis -->
<g id="edge21" class="edge">
<title>gnosisG&#45;&gt;gnosis</title>
<path fill="none" stroke="black" stroke-dasharray="1,5" d="M503.5,-412.77C503.5,-363.33 503.5,-246.99 503.5,-183.39"/>
<polygon fill="black" stroke="black" points="507,-183.28 503.5,-173.28 500,-183.28 507,-183.28"/>
</g>
<!-- genitusL -->
<g id="node24" class="node">
<title>genitusL</title>
<text text-anchor="start" x="401.5" y="-565.3" font-family="Times New Roman,serif" font-size="14.00" fill="red">genitus</text>
</g>
<!-- gignereL&#45;&gt;genitusL -->
<g id="edge23" class="edge">
<title>gignereL&#45;&gt;genitusL</title>
<path fill="none" stroke="black" d="M433.81,-738.84C431.22,-703.26 426.26,-635.28 423.49,-597.33"/>
<polygon fill="black" stroke="black" points="426.96,-596.75 422.74,-587.03 419.98,-597.26 426.96,-596.75"/>
</g>
<!-- genital -->
<g id="node25" class="node">
<title>genital</title>
<g id="a_node25"><a xlink:href="gen-genus.svg" xlink:title="&lt;font color=&quot;red&quot;&gt;genital&lt;br/&gt;genitive&lt;br/&gt;progeny&lt;br/&gt;progenitor&lt;br/&gt;primogeniture&lt;br/&gt;congenital&lt;br/&gt;gingerly&lt;/font&gt;">
<path fill="none" stroke="black" stroke-dasharray="5,2" d="M437,-195.5C437,-195.5 368,-195.5 368,-195.5 362,-195.5 356,-189.5 356,-183.5 356,-183.5 356,-94.5 356,-94.5 356,-88.5 362,-82.5 368,-82.5 368,-82.5 437,-82.5 437,-82.5 443,-82.5 449,-88.5 449,-94.5 449,-94.5 449,-183.5 449,-183.5 449,-189.5 443,-195.5 437,-195.5"/>
<text text-anchor="start" x="384.5" y="-180.3" font-family="Times New Roman,serif" font-size="14.00" fill="red">genital</text>
<text text-anchor="start" x="381" y="-165.3" font-family="Times New Roman,serif" font-size="14.00" fill="red">genitive</text>
<text text-anchor="start" x="379.5" y="-150.3" font-family="Times New Roman,serif" font-size="14.00" fill="red">progeny</text>
<text text-anchor="start" x="373.5" y="-135.3" font-family="Times New Roman,serif" font-size="14.00" fill="red">progenitor</text>
<text text-anchor="start" x="364" y="-120.3" font-family="Times New Roman,serif" font-size="14.00" fill="red">primogeniture</text>
<text text-anchor="start" x="374" y="-105.3" font-family="Times New Roman,serif" font-size="14.00" fill="red">congenital</text>
<text text-anchor="start" x="380.5" y="-90.3" font-family="Times New Roman,serif" font-size="14.00" fill="red">gingerly</text>
</a>
</g>
</g>
<!-- genitusL&#45;&gt;genital -->
<g id="edge24" class="edge">
<title>genitusL&#45;&gt;genital</title>
<path fill="none" stroke="black" stroke-dasharray="1,5" d="M420.74,-550.96C418.2,-493.76 409.9,-306.61 405.42,-205.77"/>
<polygon fill="black" stroke="black" points="408.91,-205.53 404.97,-195.69 401.92,-205.84 408.91,-205.53"/>
</g>
<!-- benign -->
<g id="node28" class="node">
<title>benign</title>
<text text-anchor="start" x="649" y="-149.8" font-family="Times New Roman,serif" font-weight="bold" font-size="14.00">Modern</text>
<text text-anchor="start" x="650.5" y="-135.8" font-family="Times New Roman,serif" font-weight="bold" font-size="14.00">English</text>
<text text-anchor="start" x="655" y="-121.8" font-family="Times New Roman,serif" font-size="14.00" fill="red">benign</text>
</g>
<!-- benignusL&#45;&gt;benign -->
<g id="edge27" class="edge">
<title>benignusL&#45;&gt;benign</title>
<path fill="none" stroke="black" stroke-dasharray="1,5" d="M659.08,-406.81C662.05,-351.89 668.45,-233.43 671.63,-174.6"/>
<polygon fill="black" stroke="black" points="675.14,-174.52 672.18,-164.34 668.15,-174.14 675.14,-174.52"/>
</g>
<!-- malign -->
<g id="node29" class="node">
<title>malign</title>
<text text-anchor="start" x="566" y="-149.8" font-family="Times New Roman,serif" font-weight="bold" font-size="14.00">Modern</text>
<text text-anchor="start" x="567.5" y="-135.8" font-family="Times New Roman,serif" font-weight="bold" font-size="14.00">English</text>
<text text-anchor="start" x="572" y="-121.8" font-family="Times New Roman,serif" font-size="14.00" fill="red">malign</text>
</g>
<!-- malignusL&#45;&gt;malign -->
<g id="edge28" class="edge">
<title>malignusL&#45;&gt;malign</title>
<path fill="none" stroke="black" stroke-dasharray="1,5" d="M590.5,-538.92C590.5,-462.49 590.5,-256.25 590.5,-174.27"/>
<polygon fill="black" stroke="black" points="594,-174.23 590.5,-164.23 587,-174.23 594,-174.23"/>
</g>
<!-- praegnantL -->
<g id="node31" class="node">
<title>praegnantL</title>
<text text-anchor="start" x="774" y="-639.8" font-family="Times New Roman,serif" font-size="14.00" fill="red">praegnāns,</text>
<text text-anchor="start" x="778" y="-624.8" font-family="Times New Roman,serif" font-size="14.00" fill="red">pragnant&#45;</text>
</g>
<!-- praegnasL&#45;&gt;praegnantL -->
<g id="edge30" class="edge">
<title>praegnasL&#45;&gt;praegnantL</title>
<path fill="none" stroke="black" d="M804.5,-738.78C804.5,-718.03 804.5,-687.56 804.5,-665.37"/>
<polygon fill="black" stroke="black" points="808,-665.23 804.5,-655.23 801,-665.23 808,-665.23"/>
</g>
<!-- praegnatusL -->
<g id="node35" class="node">
<title>praegnatusL</title>
<text text-anchor="start" x="869" y="-632.3" font-family="Times New Roman,serif" font-size="14.00" fill="red">praegnātus</text>
</g>
<!-- praegnasL&#45;&gt;praegnatusL -->
<g id="edge34" class="edge">
<title>praegnasL&#45;&gt;praegnatusL</title>
<path fill="none" stroke="black" d="M822.15,-738.78C838.7,-716.99 863.4,-684.5 880.41,-662.12"/>
<polygon fill="black" stroke="black" points="883.26,-664.16 886.52,-654.08 877.68,-659.92 883.26,-664.16"/>
</g>
<!-- pregnantOF -->
<g id="node32" class="node">
<title>pregnantOF</title>
<text text-anchor="start" x="790.5" y="-506.8" font-family="Times New Roman,serif" font-weight="bold" font-size="14.00">Old French</text>
<text text-anchor="start" x="801" y="-492.8" font-family="Times New Roman,serif" font-size="14.00" fill="red">pregnant</text>
</g>
<!-- praegnantL&#45;&gt;pregnantOF -->
<g id="edge31" class="edge">
<title>praegnantL&#45;&gt;pregnantOF</title>
<path fill="none" stroke="black" d="M807.42,-616.79C810.97,-594.64 817,-557.05 821.11,-531.41"/>
<polygon fill="black" stroke="black" points="824.61,-531.65 822.74,-521.23 817.7,-530.55 824.61,-531.65"/>
</g>
<!-- pregnantME -->
<g id="node33" class="node">
<title>pregnantME</title>
<text text-anchor="start" x="830" y="-362.8" font-family="Times New Roman,serif" font-weight="bold" font-size="14.00">Middle</text>
<text text-anchor="start" x="828.5" y="-348.8" font-family="Times New Roman,serif" font-weight="bold" font-size="14.00">English</text>
<text text-anchor="start" x="827" y="-334.8" font-family="Times New Roman,serif" font-size="14.00" fill="red">pregnant</text>
</g>
<!-- pregnantOF&#45;&gt;pregnantME -->
<g id="edge32" class="edge">
<title>pregnantOF&#45;&gt;pregnantME</title>
<path fill="none" stroke="black" stroke-dasharray="1,5" d="M828.48,-484.91C832.62,-461.18 840.2,-417.74 845.53,-387.21"/>
<polygon fill="black" stroke="black" points="849.04,-387.46 847.31,-377 842.14,-386.25 849.04,-387.46"/>
</g>
<!-- pregnant -->
<g id="node34" class="node">
<title>pregnant</title>
<text text-anchor="start" x="831" y="-149.8" font-family="Times New Roman,serif" font-weight="bold" font-size="14.00">Modern</text>
<text text-anchor="start" x="832.5" y="-135.8" font-family="Times New Roman,serif" font-weight="bold" font-size="14.00">English</text>
<text text-anchor="start" x="831" y="-121.8" font-family="Times New Roman,serif" font-size="14.00" fill="red">pregnant</text>
</g>
<!-- pregnantME&#45;&gt;pregnant -->
<g id="edge33" class="edge">
<title>pregnantME&#45;&gt;pregnant</title>
<path fill="none" stroke="black" d="M851.96,-326.8C852.67,-289.37 854.03,-217.33 854.85,-174.47"/>
<polygon fill="black" stroke="black" points="858.35,-174.31 855.04,-164.25 851.35,-174.18 858.35,-174.31"/>
</g>
<!-- impraegnatusL -->
<g id="node36" class="node">
<title>impraegnatusL</title>
<text text-anchor="start" x="922.5" y="-505.8" font-family="Times New Roman,serif" font-size="14.00" fill="red">impraegnātus</text>
<text text-anchor="start" x="939.5" y="-493.4" font-family="Times New Roman,serif" font-size="12.00">pregnant</text>
</g>
<!-- praegnatusL&#45;&gt;impraegnatusL -->
<g id="edge35" class="edge">
<title>praegnatusL&#45;&gt;impraegnatusL</title>
<path fill="none" stroke="black" d="M907.34,-617.87C917.54,-595.61 935.45,-556.51 947.4,-530.43"/>
<polygon fill="black" stroke="black" points="950.67,-531.68 951.65,-521.13 944.31,-528.76 950.67,-531.68"/>
</g>
<!-- impregnate -->
<g id="node37" class="node">
<title>impregnate</title>
<text text-anchor="start" x="935" y="-149.8" font-family="Times New Roman,serif" font-weight="bold" font-size="14.00">Modern</text>
<text text-anchor="start" x="936.5" y="-135.8" font-family="Times New Roman,serif" font-weight="bold" font-size="14.00">English</text>
<text text-anchor="start" x="929" y="-121.8" font-family="Times New Roman,serif" font-size="14.00" fill="red">impregnate</text>
</g>
<!-- impraegnatusL&#45;&gt;impregnate -->
<g id="edge36" class="edge">
<title>impraegnatusL&#45;&gt;impregnate</title>
<path fill="none" stroke="black" stroke-dasharray="1,5" d="M959.5,-484.54C959.5,-428.14 959.5,-250.11 959.5,-174.5"/>
<polygon fill="black" stroke="black" points="963,-174.12 959.5,-164.12 956,-174.12 963,-174.12"/>
</g>
<!-- enIE -->
<g id="node38" class="node">
<title>enIE</title>
<g id="a_node38"><a xlink:href="en-in.svg" xlink:title="&lt;font color=&quot;red&quot;&gt;en&#45;&lt;/font&gt;&lt;br/&gt;&lt;font point&#45;size=&quot;12&quot;&gt;in&lt;/font&gt;">
<path fill="none" stroke="black" stroke-dasharray="5,2" d="M981.5,-875C981.5,-875 951.5,-875 951.5,-875 945.5,-875 939.5,-869 939.5,-863 939.5,-863 939.5,-851 939.5,-851 939.5,-845 945.5,-839 951.5,-839 951.5,-839 981.5,-839 981.5,-839 987.5,-839 993.5,-845 993.5,-851 993.5,-851 993.5,-863 993.5,-863 993.5,-869 987.5,-875 981.5,-875"/>
<text text-anchor="start" x="957.5" y="-859.8" font-family="Times New Roman,serif" font-size="14.00" fill="red">en&#45;</text>
<text text-anchor="start" x="962.5" y="-847.4" font-family="Times New Roman,serif" font-size="12.00">in</text>
</a>
</g>
</g>
<!-- inL -->
<g id="node39" class="node">
<title>inL</title>
<text text-anchor="start" x="950" y="-700.8" font-family="Times New Roman,serif" font-weight="bold" font-size="14.00">Latin</text>
<text text-anchor="start" x="959" y="-686.8" font-family="Times New Roman,serif" font-size="14.00" fill="red">in&#45;</text>
</g>
<!-- enIE&#45;&gt;inL -->
<g id="edge37" class="edge">
<title>enIE&#45;&gt;inL</title>
<path fill="none" stroke="black" d="M966.5,-838.79C966.5,-811.48 966.5,-757.99 966.5,-725.38"/>
<polygon fill="black" stroke="black" points="970,-725.19 966.5,-715.19 963,-725.19 970,-725.19"/>
</g>
<!-- inL&#45;&gt;impraegnatusL -->
<g id="edge38" class="edge">
<title>inL&#45;&gt;impraegnatusL</title>
<path fill="none" stroke="black" d="M965.88,-678.96C964.66,-645.59 961.96,-571.36 960.49,-531.15"/>
<polygon fill="black" stroke="black" points="963.98,-530.87 960.12,-521 956.99,-531.12 963.98,-530.87"/>
</g>
<!-- native -->
<g id="node41" class="node">
<title>native</title>
<g id="a_node41"><a xlink:href="gen-gnasci.svg" xlink:title="&lt;font color=&quot;red&quot;&gt;native&lt;br/&gt;nature&lt;br/&gt;nascent&lt;br/&gt;naive&lt;br/&gt;nation&lt;br/&gt;natal&lt;br/&gt;née&lt;br/&gt;Noël&lt;br/&gt;adnate&lt;br/&gt;agnate&lt;br/&gt;cognate&lt;br/&gt;connate&lt;br/&gt;enate&lt;br/&gt;innate&lt;br/&gt;neonate&lt;br/&gt;renaissance&lt;br/&gt;puisne&lt;br/&gt;puny&lt;/font&gt;">
<path fill="none" stroke="black" stroke-dasharray="5,2" d="M792.5,-278C792.5,-278 736.5,-278 736.5,-278 730.5,-278 724.5,-272 724.5,-266 724.5,-266 724.5,-12 724.5,-12 724.5,-6 730.5,0 736.5,0 736.5,0 792.5,0 792.5,0 798.5,0 804.5,-6 804.5,-12 804.5,-12 804.5,-266 804.5,-266 804.5,-272 798.5,-278 792.5,-278"/>
<text text-anchor="start" x="748" y="-262.8" font-family="Times New Roman,serif" font-size="14.00" fill="red">native</text>
<text text-anchor="start" x="747.5" y="-247.8" font-family="Times New Roman,serif" font-size="14.00" fill="red">nature</text>
<text text-anchor="start" x="743" y="-232.8" font-family="Times New Roman,serif" font-size="14.00" fill="red">nascent</text>
<text text-anchor="start" x="750" y="-217.8" font-family="Times New Roman,serif" font-size="14.00" fill="red">naive</text>
<text text-anchor="start" x="747.5" y="-202.8" font-family="Times New Roman,serif" font-size="14.00" fill="red">nation</text>
<text text-anchor="start" x="751.5" y="-187.8" font-family="Times New Roman,serif" font-size="14.00" fill="red">natal</text>
<text text-anchor="start" x="755" y="-172.8" font-family="Times New Roman,serif" font-size="14.00" fill="red">née</text>
<text text-anchor="start" x="751" y="-157.8" font-family="Times New Roman,serif" font-size="14.00" fill="red">Noël</text>
<text text-anchor="start" x="746" y="-142.8" font-family="Times New Roman,serif" font-size="14.00" fill="red">adnate</text>
<text text-anchor="start" x="746.5" y="-127.8" font-family="Times New Roman,serif" font-size="14.00" fill="red">agnate</text>
<text text-anchor="start" x="742.5" y="-112.8" font-family="Times New Roman,serif" font-size="14.00" fill="red">cognate</text>
<text text-anchor="start" x="742.5" y="-97.8" font-family="Times New Roman,serif" font-size="14.00" fill="red">connate</text>
<text text-anchor="start" x="750" y="-82.8" font-family="Times New Roman,serif" font-size="14.00" fill="red">enate</text>
<text text-anchor="start" x="748" y="-67.8" font-family="Times New Roman,serif" font-size="14.00" fill="red">innate</text>
<text text-anchor="start" x="743" y="-52.8" font-family="Times New Roman,serif" font-size="14.00" fill="red">neonate</text>
<text text-anchor="start" x="732.5" y="-37.8" font-family="Times New Roman,serif" font-size="14.00" fill="red">renaissance</text>
<text text-anchor="start" x="746" y="-22.8" font-family="Times New Roman,serif" font-size="14.00" fill="red">puisne</text>
<text text-anchor="start" x="750.5" y="-7.8" font-family="Times New Roman,serif" font-size="14.00" fill="red">puny</text>
</a>
</g>
</g>
<!-- gnasciL&#45;&gt;native -->
<g id="edge40" class="edge">
<title>gnasciL&#45;&gt;native</title>
<path fill="none" stroke="black" stroke-dasharray="1,5" d="M752.08,-314.73C752.64,-306.77 753.28,-297.87 753.95,-288.42"/>
<polygon fill="black" stroke="black" points="757.44,-288.61 754.66,-278.38 750.46,-288.11 757.44,-288.61"/>
</g>
</g>
</svg>
