<?xml version="1.0" encoding="UTF-8" standalone="no"?>
<!DOCTYPE svg PUBLIC "-//W3C//DTD SVG 1.1//EN"
 "http://www.w3.org/Graphics/SVG/1.1/DTD/svg11.dtd">
<!-- Generated by graphviz version 2.49.0 (20210828.1703)
 -->
<!-- Pages: 1 -->
<svg width="237pt" height="232pt"
 viewBox="0.00 0.00 236.50 232.00" xmlns="http://www.w3.org/2000/svg" xmlns:xlink="http://www.w3.org/1999/xlink">
<g id="graph0" class="graph" transform="scale(1 1) rotate(0) translate(4 228)">
<polygon fill="white" stroke="transparent" points="-4,4 -4,-228 232.5,-228 232.5,4 -4,4"/>
<!-- genIE -->
<g id="node1" class="node">
<title>genIE</title>
<g id="a_node1"><a xlink:title="Indo&#45;European &quot;gen(ə)&#45;, gon&#45;, gn̥&#45;&quot; to beget, give birth to, be born">
<polygon fill="none" stroke="black" points="224.5,-220 13.5,-220 13.5,-76 224.5,-76 224.5,-220"/>
<polygon fill="none" stroke="black" points="228.5,-224 9.5,-224 9.5,-72 228.5,-72 228.5,-224"/>
<text text-anchor="start" x="41" y="-175.8" font-family="Times New Roman,serif" font-weight="bold" font-size="24.00">Indo&#45;European</text>
<text text-anchor="start" x="45" y="-147.6" font-family="Times New Roman,serif" font-size="18.00" fill="red">gen(ə)&#45;</text>
<text text-anchor="start" x="54.5" y="-127.6" font-family="Times New Roman,serif" font-size="18.00" fill="red">gon&#45;</text>
<text text-anchor="start" x="59" y="-107.6" font-family="Times New Roman,serif" font-size="18.00" fill="red">gn̥&#45;</text>
<text text-anchor="start" x="126.5" y="-146.2" font-family="Times New Roman,serif" font-size="16.00">to beget,</text>
<text text-anchor="start" x="113.5" y="-128.2" font-family="Times New Roman,serif" font-size="16.00">give birth to,</text>
<text text-anchor="start" x="130" y="-110.2" font-family="Times New Roman,serif" font-size="16.00">be born</text>
</a>
</g>
</g>
<!-- gonIE -->
<g id="node2" class="node">
<title>gonIE</title>
<g id="a_node2"><a xlink:href="gen-birth1.svg" xlink:title="gen&#45;, gon&#45;">
<path fill="none" stroke="black" stroke-dasharray="5,2" d="M62,-36C62,-36 12,-36 12,-36 6,-36 0,-30 0,-24 0,-24 0,-12 0,-12 0,-6 6,0 12,0 12,0 62,0 62,0 68,0 74,-6 74,-12 74,-12 74,-24 74,-24 74,-30 68,-36 62,-36"/>
<text text-anchor="start" x="8" y="-14.3" font-family="Times New Roman,serif" font-size="14.00" fill="red">gen&#45;, gon&#45;</text>
</a>
</g>
</g>
<!-- genIE&#45;&gt;gonIE -->
<g id="edge1" class="edge">
<title>genIE&#45;&gt;gonIE</title>
<path fill="none" stroke="black" d="M70.83,-71.8C64.65,-62.15 58.69,-52.86 53.54,-44.82"/>
<polygon fill="black" stroke="black" points="56.45,-42.87 48.11,-36.34 50.56,-46.65 56.45,-42.87"/>
</g>
<!-- geneIE -->
<g id="node3" class="node">
<title>geneIE</title>
<g id="a_node3"><a xlink:href="gen-birth2.svg" xlink:title="genə&#45;">
<path fill="none" stroke="black" stroke-dasharray="5,2" d="M134,-36C134,-36 104,-36 104,-36 98,-36 92,-30 92,-24 92,-24 92,-12 92,-12 92,-6 98,0 104,0 104,0 134,0 134,0 140,0 146,-6 146,-12 146,-12 146,-24 146,-24 146,-30 140,-36 134,-36"/>
<text text-anchor="start" x="103.5" y="-14.3" font-family="Times New Roman,serif" font-size="14.00" fill="red">genə&#45;</text>
</a>
</g>
</g>
<!-- genIE&#45;&gt;geneIE -->
<g id="edge2" class="edge">
<title>genIE&#45;&gt;geneIE</title>
<path fill="none" stroke="black" d="M119,-71.8C119,-62.78 119,-54.06 119,-46.39"/>
<polygon fill="black" stroke="black" points="122.5,-46.34 119,-36.34 115.5,-46.34 122.5,-46.34"/>
</g>
<!-- gneIE -->
<g id="node4" class="node">
<title>gneIE</title>
<g id="a_node4"><a xlink:href="gen-birth3.svg" xlink:title="gn̥ə&#45;">
<path fill="none" stroke="black" stroke-dasharray="5,2" d="M206,-36C206,-36 176,-36 176,-36 170,-36 164,-30 164,-24 164,-24 164,-12 164,-12 164,-6 170,0 176,0 176,0 206,0 206,0 212,0 218,-6 218,-12 218,-12 218,-24 218,-24 218,-30 212,-36 206,-36"/>
<text text-anchor="start" x="178.5" y="-14.3" font-family="Times New Roman,serif" font-size="14.00" fill="red">gn̥ə&#45;</text>
</a>
</g>
</g>
<!-- genIE&#45;&gt;gneIE -->
<g id="edge3" class="edge">
<title>genIE&#45;&gt;gneIE</title>
<path fill="none" stroke="black" d="M161.3,-71.8C166.67,-62.26 171.84,-53.06 176.33,-45.08"/>
<polygon fill="black" stroke="black" points="179.39,-46.77 181.25,-36.34 173.29,-43.34 179.39,-46.77"/>
</g>
</g>
</svg>
