<?xml version="1.0" encoding="UTF-8" standalone="no"?>
<!DOCTYPE svg PUBLIC "-//W3C//DTD SVG 1.1//EN"
 "http://www.w3.org/Graphics/SVG/1.1/DTD/svg11.dtd">
<!-- Generated by graphviz version 2.49.0 (20210828.1703)
 -->
<!-- Pages: 1 -->
<svg width="1082pt" height="742pt"
 viewBox="0.00 0.00 1082.00 742.00" xmlns="http://www.w3.org/2000/svg" xmlns:xlink="http://www.w3.org/1999/xlink">
<g id="graph0" class="graph" transform="scale(1 1) rotate(0) translate(4 738)">
<polygon fill="white" stroke="transparent" points="-4,4 -4,-738 1078,-738 1078,4 -4,4"/>
<!-- ghel -->
<g id="node1" class="node">
<title>ghel</title>
<text text-anchor="start" x="741.5" y="-715.8" font-family="Times New Roman,serif" font-weight="bold" font-size="14.00">Indo&#45;European</text>
<text text-anchor="start" x="730.5" y="-684.7" font-family="Times New Roman,serif" font-size="16.00" fill="red">ghel&#45;</text>
<text text-anchor="start" x="789.5" y="-697" font-family="Times New Roman,serif" font-size="10.00">to shine,</text>
<text text-anchor="start" x="768.5" y="-686" font-family="Times New Roman,serif" font-size="10.00">(something) bright,</text>
<text text-anchor="start" x="793.5" y="-675" font-family="Times New Roman,serif" font-size="10.00">yellow</text>
</g>
<!-- glGm -->
<g id="node2" class="node">
<title>glGm</title>
<text text-anchor="middle" x="748.5" y="-591.3" font-family="Times New Roman,serif" font-size="14.00">glGm</text>
</g>
<!-- ghel&#45;&gt;glGm -->
<g id="edge1" class="edge">
<title>ghel&#45;&gt;glGm</title>
<path fill="none" stroke="black" d="M774.41,-663.75C769.27,-650.33 763.47,-635.16 758.66,-622.58"/>
<polygon fill="black" stroke="black" points="761.89,-621.23 755.05,-613.13 755.35,-623.73 761.89,-621.23"/>
</g>
<!-- glaukosG -->
<g id="node35" class="node">
<title>glaukosG</title>
<text text-anchor="middle" x="932.5" y="-591.3" font-family="Times New Roman,serif" font-size="14.00">glaukosG</text>
</g>
<!-- ghel&#45;&gt;glaukosG -->
<g id="edge34" class="edge">
<title>ghel&#45;&gt;glaukosG</title>
<path fill="none" stroke="black" d="M836.19,-663.75C857.16,-649 881.13,-632.14 899.91,-618.93"/>
<polygon fill="black" stroke="black" points="901.98,-621.75 908.14,-613.13 897.95,-616.03 901.98,-621.75"/>
<text text-anchor="middle" x="891" y="-634.8" font-family="Times New Roman,serif" font-size="14.00">???</text>
<polyline fill="none" stroke="black" points="900.5,-631 881.5,-631 885.22,-629.26 "/>
</g>
<!-- gladdaGm -->
<g id="node3" class="node">
<title>gladdaGm</title>
<text text-anchor="start" x="359.5" y="-497.3" font-family="Times New Roman,serif" font-size="14.00" fill="red">glathaz, gladda&#45;</text>
</g>
<!-- glGm&#45;&gt;gladdaGm -->
<g id="edge2" class="edge">
<title>glGm&#45;&gt;gladdaGm</title>
<path fill="none" stroke="black" d="M721.35,-590.61C672.87,-584.09 568.65,-567.9 484.5,-540 471.22,-535.6 457.27,-529.59 444.75,-523.65"/>
<polygon fill="black" stroke="black" points="446.02,-520.38 435.49,-519.15 442.95,-526.67 446.02,-520.38"/>
</g>
<!-- glasamGm -->
<g id="node9" class="node">
<title>glasamGm</title>
<text text-anchor="start" x="516.5" y="-517.8" font-family="Times New Roman,serif" font-weight="bold" font-size="14.00">West</text>
<text text-anchor="start" x="502" y="-503.8" font-family="Times New Roman,serif" font-weight="bold" font-size="14.00">Germanic</text>
<text text-anchor="start" x="513" y="-489.8" font-family="Times New Roman,serif" font-size="14.00" fill="red">glasam</text>
<text text-anchor="start" x="506.5" y="-477.4" font-family="Times New Roman,serif" font-size="12.00">blue/green?</text>
</g>
<!-- glGm&#45;&gt;glasamGm -->
<g id="edge8" class="edge">
<title>glGm&#45;&gt;glasamGm</title>
<path fill="none" stroke="black" d="M721.41,-586.98C689.27,-578.16 634.51,-561.51 590.5,-540 586.95,-538.27 583.36,-536.35 579.79,-534.33"/>
<polygon fill="black" stroke="black" points="581.41,-531.22 571.02,-529.14 577.84,-537.25 581.41,-531.22"/>
</g>
<!-- glaimGm -->
<g id="node15" class="node">
<title>glaimGm</title>
<text text-anchor="start" x="612" y="-504.8" font-family="Times New Roman,serif" font-weight="bold" font-size="14.00">Germanic</text>
<text text-anchor="start" x="607.5" y="-490.8" font-family="Times New Roman,serif" font-size="14.00" fill="red">glaim&#45;, glim&#45;</text>
</g>
<!-- glGm&#45;&gt;glaimGm -->
<g id="edge14" class="edge">
<title>glGm&#45;&gt;glaimGm</title>
<path fill="none" stroke="black" d="M728.56,-576.7C712.13,-562.43 688.63,-542.04 670.34,-526.16"/>
<polygon fill="black" stroke="black" points="672.19,-523.14 662.35,-519.23 667.61,-528.42 672.19,-523.14"/>
</g>
<!-- glisnianOE -->
<g id="node24" class="node">
<title>glisnianOE</title>
<text text-anchor="start" x="712" y="-504.8" font-family="Times New Roman,serif" font-weight="bold" font-size="14.00">Old English</text>
<text text-anchor="start" x="727.5" y="-490.8" font-family="Times New Roman,serif" font-size="14.00" fill="red">glisnian</text>
</g>
<!-- glGm&#45;&gt;glisnianOE -->
<g id="edge23" class="edge">
<title>glGm&#45;&gt;glisnianOE</title>
<path fill="none" stroke="black" d="M748.5,-576.7C748.5,-563.46 748.5,-544.95 748.5,-529.66"/>
<polygon fill="black" stroke="black" points="752,-529.23 748.5,-519.23 745,-529.23 752,-529.23"/>
</g>
<!-- gliujamGm -->
<g id="node27" class="node">
<title>gliujamGm</title>
<text text-anchor="start" x="819" y="-504.8" font-family="Times New Roman,serif" font-weight="bold" font-size="14.00">Germanic</text>
<text text-anchor="start" x="829.5" y="-490.8" font-family="Times New Roman,serif" font-size="14.00" fill="red">gliujam</text>
</g>
<!-- glGm&#45;&gt;gliujamGm -->
<g id="edge26" class="edge">
<title>glGm&#45;&gt;gliujamGm</title>
<path fill="none" stroke="black" d="M767.5,-576.7C783.16,-562.43 805.54,-542.04 822.97,-526.16"/>
<polygon fill="black" stroke="black" points="825.55,-528.55 830.59,-519.23 820.84,-523.37 825.55,-528.55"/>
</g>
<!-- glazGm -->
<g id="node31" class="node">
<title>glazGm</title>
<text text-anchor="start" x="914" y="-504.8" font-family="Times New Roman,serif" font-weight="bold" font-size="14.00">Germanic</text>
<text text-anchor="start" x="931" y="-490.8" font-family="Times New Roman,serif" font-size="14.00" fill="red">glaz&#45;</text>
</g>
<!-- glGm&#45;&gt;glazGm -->
<g id="edge30" class="edge">
<title>glGm&#45;&gt;glazGm</title>
<path fill="none" stroke="black" d="M775.54,-586.96C806.1,-578.38 856.75,-562.22 896.5,-540 903.81,-535.92 911.16,-530.75 917.84,-525.55"/>
<polygon fill="black" stroke="black" points="920.32,-528.05 925.89,-519.03 915.91,-522.61 920.32,-528.05"/>
</g>
<!-- glaedOE -->
<g id="node4" class="node">
<title>glaedOE</title>
<text text-anchor="middle" x="307.5" y="-376.3" font-family="Times New Roman,serif" font-size="14.00">glaedOE</text>
</g>
<!-- gladdaGm&#45;&gt;glaedOE -->
<g id="edge3" class="edge">
<title>gladdaGm&#45;&gt;glaedOE</title>
<path fill="none" stroke="black" d="M389.75,-482.95C373.49,-462.8 346.31,-429.11 327.67,-406"/>
<polygon fill="black" stroke="black" points="330.23,-403.6 321.23,-398.02 324.78,-408 330.23,-403.6"/>
</g>
<!-- gladME -->
<g id="node5" class="node">
<title>gladME</title>
<text text-anchor="start" x="138" y="-271.8" font-family="Times New Roman,serif" font-weight="bold" font-size="14.00">Middle</text>
<text text-anchor="start" x="136.5" y="-257.8" font-family="Times New Roman,serif" font-weight="bold" font-size="14.00">English</text>
<text text-anchor="start" x="147.5" y="-243.8" font-family="Times New Roman,serif" font-size="14.00" fill="red">glad</text>
</g>
<!-- glaedOE&#45;&gt;gladME -->
<g id="edge4" class="edge">
<title>glaedOE&#45;&gt;gladME</title>
<path fill="none" stroke="black" d="M285.98,-361.99C262.99,-343.82 226.09,-314.64 198.07,-292.49"/>
<polygon fill="black" stroke="black" points="200.06,-289.61 190.05,-286.15 195.72,-295.1 200.06,-289.61"/>
</g>
<!-- glad -->
<g id="node6" class="node">
<title>glad</title>
<text text-anchor="start" x="8" y="-140.8" font-family="Times New Roman,serif" font-weight="bold" font-size="14.00">Modern</text>
<text text-anchor="start" x="9.5" y="-126.8" font-family="Times New Roman,serif" font-weight="bold" font-size="14.00">English</text>
<text text-anchor="start" x="20.5" y="-112.8" font-family="Times New Roman,serif" font-size="14.00" fill="red">glad</text>
</g>
<!-- gladME&#45;&gt;glad -->
<g id="edge5" class="edge">
<title>gladME&#45;&gt;glad</title>
<path fill="none" stroke="black" d="M135.36,-235.66C118.1,-218.24 94.34,-194.21 73.5,-173 70.11,-169.55 66.56,-165.93 63.04,-162.33"/>
<polygon fill="black" stroke="black" points="65.38,-159.72 55.89,-155.01 60.38,-164.61 65.38,-159.72"/>
</g>
<!-- gladeME -->
<g id="node7" class="node">
<title>gladeME</title>
<text text-anchor="start" x="94" y="-158.8" font-family="Times New Roman,serif" font-weight="bold" font-size="14.00">Middle</text>
<text text-anchor="start" x="92.5" y="-144.8" font-family="Times New Roman,serif" font-weight="bold" font-size="14.00">English</text>
<text text-anchor="start" x="100.5" y="-130.8" font-family="Times New Roman,serif" font-size="14.00" fill="red">glade</text>
<text text-anchor="start" x="91" y="-118.4" font-family="Times New Roman,serif" font-size="12.00">bright spot</text>
<text text-anchor="start" x="91" y="-106.4" font-family="Times New Roman,serif" font-size="12.00">in a wood,</text>
<text text-anchor="start" x="98" y="-94.4" font-family="Times New Roman,serif" font-size="12.00">clearing</text>
</g>
<!-- gladME&#45;&gt;gladeME -->
<g id="edge6" class="edge">
<title>gladME&#45;&gt;gladeME</title>
<path fill="none" stroke="black" d="M151.22,-235.74C146.14,-220.83 139.42,-201.14 133.19,-182.86"/>
<polygon fill="black" stroke="black" points="136.43,-181.52 129.89,-173.18 129.8,-183.78 136.43,-181.52"/>
<text text-anchor="middle" x="144" y="-194.8" font-family="Times New Roman,serif" font-size="14.00">?</text>
<polyline fill="none" stroke="black" points="147.5,-191 140.5,-191 139.11,-200.22 "/>
</g>
<!-- glade -->
<g id="node8" class="node">
<title>glade</title>
<text text-anchor="start" x="179" y="-147.8" font-family="Times New Roman,serif" font-weight="bold" font-size="14.00">Modern</text>
<text text-anchor="start" x="180.5" y="-133.8" font-family="Times New Roman,serif" font-weight="bold" font-size="14.00">English</text>
<text text-anchor="start" x="188.5" y="-119.8" font-family="Times New Roman,serif" font-size="14.00" fill="red">glade</text>
<text text-anchor="start" x="174" y="-105.8" font-family="Times New Roman,serif" font-size="14.00" fill="red">everglades</text>
</g>
<!-- gladME&#45;&gt;glade -->
<g id="edge7" class="edge">
<title>gladME&#45;&gt;glade</title>
<path fill="none" stroke="black" d="M167.78,-235.74C173.92,-217.72 182.45,-192.72 189.63,-171.67"/>
<polygon fill="black" stroke="black" points="193.01,-172.6 192.93,-162 186.38,-170.34 193.01,-172.6"/>
</g>
<!-- glaesOE -->
<g id="node10" class="node">
<title>glaesOE</title>
<text text-anchor="start" x="398" y="-383.8" font-family="Times New Roman,serif" font-weight="bold" font-size="14.00">Old English</text>
<text text-anchor="start" x="421.5" y="-369.8" font-family="Times New Roman,serif" font-size="14.00" fill="red">glæs</text>
</g>
<!-- glasamGm&#45;&gt;glaesOE -->
<g id="edge9" class="edge">
<title>glasamGm&#45;&gt;glaesOE</title>
<path fill="none" stroke="black" d="M507.77,-469.97C491.47,-450.18 470.38,-424.57 455.01,-405.91"/>
<polygon fill="black" stroke="black" points="457.66,-403.62 448.6,-398.12 452.26,-408.07 457.66,-403.62"/>
</g>
<!-- glasME -->
<g id="node11" class="node">
<title>glasME</title>
<text text-anchor="start" x="394" y="-271.8" font-family="Times New Roman,serif" font-weight="bold" font-size="14.00">Middle</text>
<text text-anchor="start" x="392.5" y="-257.8" font-family="Times New Roman,serif" font-weight="bold" font-size="14.00">English</text>
<text text-anchor="start" x="404.5" y="-243.8" font-family="Times New Roman,serif" font-size="14.00" fill="red">glas</text>
</g>
<!-- glaesOE&#45;&gt;glasME -->
<g id="edge10" class="edge">
<title>glaesOE&#45;&gt;glasME</title>
<path fill="none" stroke="black" d="M431.74,-361.99C428.96,-344.88 424.6,-318.04 421.1,-296.47"/>
<polygon fill="black" stroke="black" points="424.51,-295.68 419.46,-286.37 417.61,-296.8 424.51,-295.68"/>
</g>
<!-- glass -->
<g id="node12" class="node">
<title>glass</title>
<text text-anchor="start" x="291" y="-154.8" font-family="Times New Roman,serif" font-weight="bold" font-size="14.00">Modern</text>
<text text-anchor="start" x="292.5" y="-140.8" font-family="Times New Roman,serif" font-weight="bold" font-size="14.00">English</text>
<text text-anchor="start" x="267" y="-126.8" font-family="Times New Roman,serif" font-size="14.00" fill="red">glass</text>
<text text-anchor="start" x="295" y="-126.8" font-family="Times New Roman,serif" font-size="14.00"> (substance)</text>
<text text-anchor="start" x="272.5" y="-112.8" font-family="Times New Roman,serif" font-size="14.00">(drinking) </text>
<text text-anchor="start" x="330.5" y="-112.8" font-family="Times New Roman,serif" font-size="14.00" fill="red">glass</text>
<text text-anchor="start" x="281.5" y="-98.8" font-family="Times New Roman,serif" font-size="14.00" fill="red">(eye)glasses</text>
</g>
<!-- glasME&#45;&gt;glass -->
<g id="edge11" class="edge">
<title>glasME&#45;&gt;glass</title>
<path fill="none" stroke="black" d="M396.69,-235.74C383.91,-219.25 366.61,-196.93 351.25,-177.12"/>
<polygon fill="black" stroke="black" points="353.93,-174.86 345.04,-169.1 348.4,-179.15 353.93,-174.86"/>
</g>
<!-- glasenME -->
<g id="node13" class="node">
<title>glasenME</title>
<text text-anchor="start" x="400" y="-126.3" font-family="Times New Roman,serif" font-size="14.00" fill="red">glasen</text>
</g>
<!-- glasME&#45;&gt;glasenME -->
<g id="edge12" class="edge">
<title>glasME&#45;&gt;glasenME</title>
<path fill="none" stroke="black" d="M415.88,-235.74C416.22,-213.68 416.72,-181.18 417.08,-158.25"/>
<polygon fill="black" stroke="black" points="420.58,-158.2 417.23,-148.15 413.58,-158.09 420.58,-158.2"/>
</g>
<!-- glaze -->
<g id="node14" class="node">
<title>glaze</title>
<text text-anchor="start" x="393" y="-35.8" font-family="Times New Roman,serif" font-weight="bold" font-size="14.00">Modern</text>
<text text-anchor="start" x="394.5" y="-21.8" font-family="Times New Roman,serif" font-weight="bold" font-size="14.00">English</text>
<text text-anchor="start" x="403.5" y="-7.8" font-family="Times New Roman,serif" font-size="14.00" fill="red">glaze</text>
</g>
<!-- glasenME&#45;&gt;glaze -->
<g id="edge13" class="edge">
<title>glasenME&#45;&gt;glaze</title>
<path fill="none" stroke="black" d="M417.5,-111.99C417.5,-98.08 417.5,-77.95 417.5,-60.67"/>
<polygon fill="black" stroke="black" points="421,-60.36 417.5,-50.36 414,-60.36 421,-60.36"/>
</g>
<!-- glaemOE -->
<g id="node16" class="node">
<title>glaemOE</title>
<text text-anchor="start" x="518" y="-389.8" font-family="Times New Roman,serif" font-weight="bold" font-size="14.00">Old English</text>
<text text-anchor="start" x="539" y="-375.8" font-family="Times New Roman,serif" font-size="14.00" fill="red">glǣm</text>
<text text-anchor="start" x="531.5" y="-363.4" font-family="Times New Roman,serif" font-size="12.00">brightness</text>
</g>
<!-- glaimGm&#45;&gt;glaemOE -->
<g id="edge15" class="edge">
<title>glaimGm&#45;&gt;glaemOE</title>
<path fill="none" stroke="black" d="M629.89,-482.95C616.32,-464.6 594.44,-435.01 577.74,-412.43"/>
<polygon fill="black" stroke="black" points="580.38,-410.11 571.62,-404.15 574.75,-414.27 580.38,-410.11"/>
</g>
<!-- glimsianOE -->
<g id="node21" class="node">
<title>glimsianOE</title>
<text text-anchor="start" x="625" y="-383.8" font-family="Times New Roman,serif" font-weight="bold" font-size="14.00">Old English</text>
<text text-anchor="start" x="638.5" y="-369.8" font-family="Times New Roman,serif" font-size="14.00" fill="red">glimsian</text>
</g>
<!-- glaimGm&#45;&gt;glimsianOE -->
<g id="edge20" class="edge">
<title>glaimGm&#45;&gt;glimsianOE</title>
<path fill="none" stroke="black" d="M645.22,-482.95C648.34,-463.42 653.49,-431.16 657.16,-408.16"/>
<polygon fill="black" stroke="black" points="660.66,-408.44 658.78,-398.02 653.75,-407.34 660.66,-408.44"/>
</g>
<!-- glemME -->
<g id="node17" class="node">
<title>glemME</title>
<text text-anchor="start" x="474" y="-271.8" font-family="Times New Roman,serif" font-weight="bold" font-size="14.00">Middle</text>
<text text-anchor="start" x="472.5" y="-257.8" font-family="Times New Roman,serif" font-weight="bold" font-size="14.00">English</text>
<text text-anchor="start" x="482" y="-243.8" font-family="Times New Roman,serif" font-size="14.00" fill="red">glem</text>
</g>
<!-- glaemOE&#45;&gt;glemME -->
<g id="edge16" class="edge">
<title>glaemOE&#45;&gt;glemME</title>
<path fill="none" stroke="black" d="M542.84,-355.88C534.13,-338.6 522.08,-314.72 512.32,-295.36"/>
<polygon fill="black" stroke="black" points="515.37,-293.63 507.74,-286.28 509.12,-296.78 515.37,-293.63"/>
</g>
<!-- glimerenME -->
<g id="node19" class="node">
<title>glimerenME</title>
<text text-anchor="start" x="555" y="-271.8" font-family="Times New Roman,serif" font-weight="bold" font-size="14.00">Middle</text>
<text text-anchor="start" x="553.5" y="-257.8" font-family="Times New Roman,serif" font-weight="bold" font-size="14.00">English</text>
<text text-anchor="start" x="553" y="-243.8" font-family="Times New Roman,serif" font-size="14.00" fill="red">glimeren</text>
</g>
<!-- glaemOE&#45;&gt;glimerenME -->
<g id="edge18" class="edge">
<title>glaemOE&#45;&gt;glimerenME</title>
<path fill="none" stroke="black" d="M558.85,-355.88C562.05,-338.84 566.47,-315.37 570.08,-296.16"/>
<polygon fill="black" stroke="black" points="573.53,-296.75 571.94,-286.28 566.65,-295.46 573.53,-296.75"/>
</g>
<!-- gleam -->
<g id="node18" class="node">
<title>gleam</title>
<text text-anchor="start" x="471" y="-140.8" font-family="Times New Roman,serif" font-weight="bold" font-size="14.00">Modern</text>
<text text-anchor="start" x="472.5" y="-126.8" font-family="Times New Roman,serif" font-weight="bold" font-size="14.00">English</text>
<text text-anchor="start" x="479" y="-112.8" font-family="Times New Roman,serif" font-size="14.00" fill="red">gleam</text>
</g>
<!-- glemME&#45;&gt;gleam -->
<g id="edge17" class="edge">
<title>glemME&#45;&gt;gleam</title>
<path fill="none" stroke="black" d="M495.5,-235.74C495.5,-215.83 495.5,-187.4 495.5,-165.18"/>
<polygon fill="black" stroke="black" points="499,-165.16 495.5,-155.16 492,-165.16 499,-165.16"/>
</g>
<!-- glimmer -->
<g id="node20" class="node">
<title>glimmer</title>
<text text-anchor="start" x="554" y="-140.8" font-family="Times New Roman,serif" font-weight="bold" font-size="14.00">Modern</text>
<text text-anchor="start" x="555.5" y="-126.8" font-family="Times New Roman,serif" font-weight="bold" font-size="14.00">English</text>
<text text-anchor="start" x="556" y="-112.8" font-family="Times New Roman,serif" font-size="14.00" fill="red">glimmer</text>
</g>
<!-- glimerenME&#45;&gt;glimmer -->
<g id="edge19" class="edge">
<title>glimerenME&#45;&gt;glimmer</title>
<path fill="none" stroke="black" d="M576.88,-235.74C577.18,-215.83 577.63,-187.4 577.97,-165.18"/>
<polygon fill="black" stroke="black" points="581.47,-165.21 578.13,-155.16 574.47,-165.1 581.47,-165.21"/>
</g>
<!-- glymsenME -->
<g id="node22" class="node">
<title>glymsenME</title>
<text text-anchor="start" x="647" y="-283.8" font-family="Times New Roman,serif" font-weight="bold" font-size="14.00">Middle</text>
<text text-anchor="start" x="645.5" y="-269.8" font-family="Times New Roman,serif" font-weight="bold" font-size="14.00">English</text>
<text text-anchor="start" x="645.5" y="-255.8" font-family="Times New Roman,serif" font-size="14.00" fill="red">glymsen</text>
<text text-anchor="start" x="636.5" y="-243.4" font-family="Times New Roman,serif" font-size="12.00">to shine faintly</text>
<text text-anchor="start" x="634.5" y="-231.4" font-family="Times New Roman,serif" font-size="12.00">to look quickly</text>
</g>
<!-- glimsianOE&#45;&gt;glymsenME -->
<g id="edge21" class="edge">
<title>glimsianOE&#45;&gt;glymsenME</title>
<path fill="none" stroke="black" d="M662.52,-361.99C663.36,-347.98 664.59,-327.43 665.71,-308.59"/>
<polygon fill="black" stroke="black" points="669.22,-308.55 666.32,-298.36 662.23,-308.13 669.22,-308.55"/>
</g>
<!-- glimpse -->
<g id="node23" class="node">
<title>glimpse</title>
<text text-anchor="start" x="644" y="-140.8" font-family="Times New Roman,serif" font-weight="bold" font-size="14.00">Modern</text>
<text text-anchor="start" x="645.5" y="-126.8" font-family="Times New Roman,serif" font-weight="bold" font-size="14.00">English</text>
<text text-anchor="start" x="647" y="-112.8" font-family="Times New Roman,serif" font-size="14.00" fill="red">glimpse</text>
</g>
<!-- glymsenME&#45;&gt;glimpse -->
<g id="edge22" class="edge">
<title>glymsenME&#45;&gt;glimpse</title>
<path fill="none" stroke="black" d="M668.5,-223.72C668.5,-205.41 668.5,-183.31 668.5,-165.28"/>
<polygon fill="black" stroke="black" points="672,-165.2 668.5,-155.2 665,-165.2 672,-165.2"/>
</g>
<!-- glisnenME -->
<g id="node25" class="node">
<title>glisnenME</title>
<text text-anchor="start" x="734" y="-390.8" font-family="Times New Roman,serif" font-weight="bold" font-size="14.00">Middle</text>
<text text-anchor="start" x="732.5" y="-376.8" font-family="Times New Roman,serif" font-weight="bold" font-size="14.00">English</text>
<text text-anchor="start" x="736" y="-362.8" font-family="Times New Roman,serif" font-size="14.00" fill="red">glisnen</text>
</g>
<!-- glisnianOE&#45;&gt;glisnenME -->
<g id="edge24" class="edge">
<title>glisnianOE&#45;&gt;glisnenME</title>
<path fill="none" stroke="black" d="M749.5,-482.95C750.54,-465.31 752.19,-437.27 753.5,-415.07"/>
<polygon fill="black" stroke="black" points="756.99,-415.2 754.09,-405.02 750.01,-414.79 756.99,-415.2"/>
</g>
<!-- glisten -->
<g id="node26" class="node">
<title>glisten</title>
<text text-anchor="start" x="737" y="-271.8" font-family="Times New Roman,serif" font-weight="bold" font-size="14.00">Modern</text>
<text text-anchor="start" x="738.5" y="-257.8" font-family="Times New Roman,serif" font-weight="bold" font-size="14.00">English</text>
<text text-anchor="start" x="743.5" y="-243.8" font-family="Times New Roman,serif" font-size="14.00" fill="red">glisten</text>
</g>
<!-- glisnenME&#45;&gt;glisten -->
<g id="edge25" class="edge">
<title>glisnenME&#45;&gt;glisten</title>
<path fill="none" stroke="black" d="M756.74,-354.76C757.61,-337.89 758.77,-315.16 759.73,-296.43"/>
<polygon fill="black" stroke="black" points="763.24,-296.38 760.26,-286.21 756.25,-296.02 763.24,-296.38"/>
</g>
<!-- gleoOE -->
<g id="node28" class="node">
<title>gleoOE</title>
<text text-anchor="start" x="813" y="-389.8" font-family="Times New Roman,serif" font-weight="bold" font-size="14.00">Old English</text>
<text text-anchor="start" x="837.5" y="-375.8" font-family="Times New Roman,serif" font-size="14.00" fill="red">glēo</text>
<text text-anchor="start" x="819" y="-363.4" font-family="Times New Roman,serif" font-size="12.00">entertainment</text>
</g>
<!-- gliujamGm&#45;&gt;gleoOE -->
<g id="edge27" class="edge">
<title>gliujamGm&#45;&gt;gleoOE</title>
<path fill="none" stroke="black" d="M849.5,-482.95C849.5,-465.09 849.5,-436.57 849.5,-414.23"/>
<polygon fill="black" stroke="black" points="853,-414.15 849.5,-404.15 846,-414.15 853,-414.15"/>
</g>
<!-- gleME -->
<g id="node29" class="node">
<title>gleME</title>
<text text-anchor="start" x="828" y="-271.8" font-family="Times New Roman,serif" font-weight="bold" font-size="14.00">Middle</text>
<text text-anchor="start" x="826.5" y="-257.8" font-family="Times New Roman,serif" font-weight="bold" font-size="14.00">English</text>
<text text-anchor="start" x="841.5" y="-243.8" font-family="Times New Roman,serif" font-size="14.00" fill="red">gle</text>
</g>
<!-- gleoOE&#45;&gt;gleME -->
<g id="edge28" class="edge">
<title>gleoOE&#45;&gt;gleME</title>
<path fill="none" stroke="black" d="M849.5,-355.88C849.5,-338.91 849.5,-315.58 849.5,-296.42"/>
<polygon fill="black" stroke="black" points="853,-296.28 849.5,-286.28 846,-296.28 853,-296.28"/>
</g>
<!-- glee -->
<g id="node30" class="node">
<title>glee</title>
<text text-anchor="start" x="825" y="-140.8" font-family="Times New Roman,serif" font-weight="bold" font-size="14.00">Modern</text>
<text text-anchor="start" x="826.5" y="-126.8" font-family="Times New Roman,serif" font-weight="bold" font-size="14.00">English</text>
<text text-anchor="start" x="838.5" y="-112.8" font-family="Times New Roman,serif" font-size="14.00" fill="red">glee</text>
</g>
<!-- gleME&#45;&gt;glee -->
<g id="edge29" class="edge">
<title>gleME&#45;&gt;glee</title>
<path fill="none" stroke="black" d="M849.5,-235.74C849.5,-215.83 849.5,-187.4 849.5,-165.18"/>
<polygon fill="black" stroke="black" points="853,-165.16 849.5,-155.16 846,-165.16 853,-165.16"/>
</g>
<!-- glarenMG -->
<g id="node32" class="node">
<title>glarenMG</title>
<text text-anchor="start" x="940" y="-410.8" font-family="Times New Roman,serif" font-weight="bold" font-size="14.00">Middle</text>
<text text-anchor="start" x="920.5" y="-396.8" font-family="Times New Roman,serif" font-weight="bold" font-size="14.00">Low German</text>
<text text-anchor="start" x="933" y="-382.8" font-family="Times New Roman,serif" font-size="14.00">(or similar</text>
<text text-anchor="start" x="940" y="-368.8" font-family="Times New Roman,serif" font-size="14.00">source)</text>
<text text-anchor="start" x="944.5" y="-354.8" font-family="Times New Roman,serif" font-size="14.00" fill="red">glaren</text>
<text text-anchor="start" x="942" y="-342.4" font-family="Times New Roman,serif" font-size="12.00">to gleam</text>
</g>
<!-- glazGm&#45;&gt;glarenMG -->
<g id="edge31" class="edge">
<title>glazGm&#45;&gt;glarenMG</title>
<path fill="none" stroke="black" d="M946.94,-482.95C948.73,-470.38 951.28,-452.53 953.75,-435.28"/>
<polygon fill="black" stroke="black" points="957.23,-435.62 955.18,-425.23 950.3,-434.63 957.23,-435.62"/>
</g>
<!-- glarenME -->
<g id="node33" class="node">
<title>glarenME</title>
<text text-anchor="start" x="940" y="-283.8" font-family="Times New Roman,serif" font-weight="bold" font-size="14.00">Middle</text>
<text text-anchor="start" x="938.5" y="-269.8" font-family="Times New Roman,serif" font-weight="bold" font-size="14.00">English</text>
<text text-anchor="start" x="944.5" y="-255.8" font-family="Times New Roman,serif" font-size="14.00" fill="red">glaren</text>
<text text-anchor="start" x="930.5" y="-243.4" font-family="Times New Roman,serif" font-size="12.00">shine brightly,</text>
<text text-anchor="start" x="934" y="-231.4" font-family="Times New Roman,serif" font-size="12.00">stare angrily</text>
</g>
<!-- glarenMG&#45;&gt;glarenME -->
<g id="edge32" class="edge">
<title>glarenMG&#45;&gt;glarenME</title>
<path fill="none" stroke="black" stroke-dasharray="1,5" d="M961.5,-334.77C961.5,-326.12 961.5,-317.02 961.5,-308.31"/>
<polygon fill="black" stroke="black" points="965,-308.3 961.5,-298.3 958,-308.3 965,-308.3"/>
</g>
<!-- glare -->
<g id="node34" class="node">
<title>glare</title>
<text text-anchor="start" x="937" y="-140.8" font-family="Times New Roman,serif" font-weight="bold" font-size="14.00">Modern</text>
<text text-anchor="start" x="938.5" y="-126.8" font-family="Times New Roman,serif" font-weight="bold" font-size="14.00">English</text>
<text text-anchor="start" x="948" y="-112.8" font-family="Times New Roman,serif" font-size="14.00" fill="red">glare</text>
</g>
<!-- glarenME&#45;&gt;glare -->
<g id="edge33" class="edge">
<title>glarenME&#45;&gt;glare</title>
<path fill="none" stroke="black" d="M961.5,-223.72C961.5,-205.41 961.5,-183.31 961.5,-165.28"/>
<polygon fill="black" stroke="black" points="965,-165.2 961.5,-155.2 958,-165.2 965,-165.2"/>
</g>
<!-- glaucous -->
<g id="node36" class="node">
<title>glaucous</title>
<text text-anchor="start" x="1013" y="-525.8" font-family="Times New Roman,serif" font-weight="bold" font-size="14.00">Modern</text>
<text text-anchor="start" x="1014.5" y="-511.8" font-family="Times New Roman,serif" font-weight="bold" font-size="14.00">English</text>
<text text-anchor="start" x="1012.5" y="-497.8" font-family="Times New Roman,serif" font-size="14.00" fill="red">glaucous</text>
<text text-anchor="start" x="1010.5" y="-483.8" font-family="Times New Roman,serif" font-size="14.00" fill="red">glaucoma</text>
<text text-anchor="start" x="1009" y="-469.8" font-family="Times New Roman,serif" font-size="14.00" fill="red">glauconite</text>
</g>
<!-- glaukosG&#45;&gt;glaucous -->
<g id="edge35" class="edge">
<title>glaukosG&#45;&gt;glaucous</title>
<path fill="none" stroke="black" stroke-dasharray="1,5" d="M952.25,-576.7C963.78,-566.59 978.81,-553.42 993.04,-540.95"/>
<polygon fill="black" stroke="black" points="995.62,-543.35 1000.84,-534.12 991.01,-538.08 995.62,-543.35"/>
</g>
<!-- glaukoG -->
<g id="node37" class="node">
<title>glaukoG</title>
<text text-anchor="start" x="891.5" y="-708.8" font-family="Times New Roman,serif" font-weight="bold" font-size="14.00">Greek</text>
<text text-anchor="start" x="890" y="-694.8" font-family="Times New Roman,serif" font-size="14.00" fill="red">glaukos</text>
<text text-anchor="start" x="883.5" y="-682.4" font-family="Times New Roman,serif" font-size="12.00">shining, gray</text>
</g>
</g>
</svg>
