<?xml version="1.0" encoding="UTF-8" standalone="no"?>
<!DOCTYPE svg PUBLIC "-//W3C//DTD SVG 1.1//EN"
 "http://www.w3.org/Graphics/SVG/1.1/DTD/svg11.dtd">
<!-- Generated by graphviz version 2.44.1 (20200629.0846)
 -->
<!-- Pages: 1 -->
<svg width="1242pt" height="1156pt"
 viewBox="0.00 0.00 1241.50 1156.00" xmlns="http://www.w3.org/2000/svg" xmlns:xlink="http://www.w3.org/1999/xlink">
<g id="graph0" class="graph" transform="scale(1 1) rotate(0) translate(4 1152)">
<polygon fill="white" stroke="transparent" points="-4,4 -4,-1152 1237.5,-1152 1237.5,4 -4,4"/>
<!-- ghel -->
<g id="node1" class="node">
<title>ghel</title>
<text text-anchor="start" x="600.5" y="-1129.8" font-family="Times New Roman,serif" font-weight="bold" font-size="14.00">Indo&#45;European</text>
<text text-anchor="start" x="590.5" y="-1098.7" font-family="Times New Roman,serif" font-size="16.00" fill="red">ghel&#45;</text>
<text text-anchor="start" x="648.5" y="-1111" font-family="Times New Roman,serif" font-size="10.00">to shine,</text>
<text text-anchor="start" x="628.5" y="-1100" font-family="Times New Roman,serif" font-size="10.00">(something)bright,</text>
<text text-anchor="start" x="652.5" y="-1089" font-family="Times New Roman,serif" font-size="10.00">yellow</text>
</g>
<!-- ghelwo -->
<g id="node2" class="node">
<title>ghelwo</title>
<text text-anchor="start" x="243" y="-999.3" font-family="Times New Roman,serif" font-size="14.00" fill="red">ghel&#45;wo&#45;</text>
</g>
<!-- ghel&#45;&gt;ghelwo -->
<g id="edge1" class="edge">
<title>ghel&#45;&gt;ghelwo</title>
<path fill="none" stroke="black" d="M577.87,-1092.44C499.91,-1070.23 375.12,-1034.67 310.07,-1016.13"/>
<polygon fill="black" stroke="black" points="310.73,-1012.68 300.16,-1013.31 308.81,-1019.41 310.73,-1012.68"/>
</g>
<!-- ghlto -->
<g id="node3" class="node">
<title>ghlto</title>
<text text-anchor="start" x="386" y="-999.3" font-family="Times New Roman,serif" font-size="14.00" fill="red">ghl̥&#45;to&#45;</text>
</g>
<!-- ghel&#45;&gt;ghlto -->
<g id="edge2" class="edge">
<title>ghel&#45;&gt;ghlto</title>
<path fill="none" stroke="black" d="M577.76,-1085.53C538.24,-1069.71 487.97,-1048.54 444.5,-1027 443.33,-1026.42 442.15,-1025.82 440.95,-1025.21"/>
<polygon fill="black" stroke="black" points="442.27,-1021.94 431.8,-1020.29 438.95,-1028.1 442.27,-1021.94"/>
</g>
<!-- gholno -->
<g id="node4" class="node">
<title>gholno</title>
<text text-anchor="start" x="461.5" y="-999.3" font-family="Times New Roman,serif" font-size="14.00" fill="red">ghol&#45;no&#45;</text>
</g>
<!-- ghel&#45;&gt;gholno -->
<g id="edge3" class="edge">
<title>ghel&#45;&gt;gholno</title>
<path fill="none" stroke="black" d="M595.56,-1077.83C570.67,-1061.13 541.41,-1041.5 519.31,-1026.68"/>
<polygon fill="black" stroke="black" points="521.18,-1023.72 510.92,-1021.05 517.28,-1029.53 521.18,-1023.72"/>
</g>
<!-- gholto -->
<g id="node5" class="node">
<title>gholto</title>
<text text-anchor="start" x="546" y="-999.3" font-family="Times New Roman,serif" font-size="14.00" fill="red">ghol&#45;to&#45;</text>
</g>
<!-- ghel&#45;&gt;gholto -->
<g id="edge4" class="edge">
<title>ghel&#45;&gt;gholto</title>
<path fill="none" stroke="black" d="M621.82,-1077.83C610.51,-1062.17 597.33,-1043.92 586.91,-1029.49"/>
<polygon fill="black" stroke="black" points="589.51,-1027.11 580.82,-1021.05 583.83,-1031.21 589.51,-1027.11"/>
</g>
<!-- ghola -->
<g id="node6" class="node">
<title>ghola</title>
<text text-anchor="start" x="626.5" y="-999.3" font-family="Times New Roman,serif" font-size="14.00" fill="red">ghol&#45;ā&#45;</text>
</g>
<!-- ghel&#45;&gt;ghola -->
<g id="edge5" class="edge">
<title>ghel&#45;&gt;ghola</title>
<path fill="none" stroke="black" d="M646.5,-1077.83C646.5,-1062.76 646.5,-1045.3 646.5,-1031.14"/>
<polygon fill="black" stroke="black" points="650,-1031.05 646.5,-1021.05 643,-1031.05 650,-1031.05"/>
</g>
<!-- ghloro -->
<g id="node7" class="node">
<title>ghloro</title>
<text text-anchor="start" x="700.5" y="-999.3" font-family="Times New Roman,serif" font-size="14.00" fill="red">ghlō&#45;ro&#45;</text>
</g>
<!-- ghel&#45;&gt;ghloro -->
<g id="edge6" class="edge">
<title>ghel&#45;&gt;ghloro</title>
<path fill="none" stroke="black" d="M670.86,-1077.83C682.03,-1062.17 695.04,-1043.92 705.33,-1029.49"/>
<polygon fill="black" stroke="black" points="708.39,-1031.23 711.34,-1021.05 702.69,-1027.16 708.39,-1031.23"/>
</g>
<!-- ghelno -->
<g id="node8" class="node">
<title>ghelno</title>
<text text-anchor="start" x="874.5" y="-999.3" font-family="Times New Roman,serif" font-size="14.00" fill="red">ghel&#45;no&#45;</text>
</g>
<!-- ghel&#45;&gt;ghelno -->
<g id="edge7" class="edge">
<title>ghel&#45;&gt;ghelno</title>
<path fill="none" stroke="black" d="M715.07,-1086.77C756.57,-1070.88 810.24,-1049.23 856.5,-1027 857.34,-1026.6 858.18,-1026.19 859.03,-1025.77"/>
<polygon fill="black" stroke="black" points="860.9,-1028.74 868.18,-1021.04 857.68,-1022.52 860.9,-1028.74"/>
</g>
<!-- gheli -->
<g id="node9" class="node">
<title>gheli</title>
<text text-anchor="start" x="956" y="-999.3" font-family="Times New Roman,serif" font-size="14.00" fill="red">ghel&#45;i&#45;</text>
</g>
<!-- ghel&#45;&gt;gheli -->
<g id="edge8" class="edge">
<title>ghel&#45;&gt;gheli</title>
<path fill="none" stroke="black" d="M715.2,-1097.76C775.44,-1083.93 864.54,-1060.14 937.5,-1027 938.33,-1026.62 939.16,-1026.23 939.99,-1025.83"/>
<polygon fill="black" stroke="black" points="941.71,-1028.87 948.84,-1021.03 938.38,-1022.72 941.71,-1028.87"/>
</g>
<!-- zarP -->
<g id="node52" class="node">
<title>zarP</title>
<text text-anchor="start" x="787" y="-1012.8" font-family="Times New Roman,serif" font-weight="bold" font-size="14.00">Persian</text>
<text text-anchor="start" x="802" y="-998.8" font-family="Times New Roman,serif" font-size="14.00" fill="red">zar</text>
<text text-anchor="start" x="781" y="-986.4" font-family="Times New Roman,serif" font-size="12.00">gold (color?)</text>
</g>
<!-- ghel&#45;&gt;zarP -->
<g id="edge50" class="edge">
<title>ghel&#45;&gt;zarP</title>
<path fill="none" stroke="black" d="M698.39,-1077.83C720.49,-1063.27 745.99,-1046.48 767.07,-1032.6"/>
<polygon fill="black" stroke="black" points="769.09,-1035.46 775.52,-1027.04 765.24,-1029.61 769.09,-1035.46"/>
<text text-anchor="middle" x="752" y="-1048.8" font-family="Times New Roman,serif" font-size="14.00">?</text>
<polyline fill="none" stroke="black" points="755.5,-1045 748.5,-1045 747.33,-1045.6 "/>
</g>
<!-- gelwaGm -->
<g id="node10" class="node">
<title>gelwaGm</title>
<text text-anchor="start" x="220" y="-703.8" font-family="Times New Roman,serif" font-weight="bold" font-size="14.00">Germanic</text>
<text text-anchor="start" x="232" y="-689.8" font-family="Times New Roman,serif" font-size="14.00" fill="red">gelwa&#45;</text>
<text text-anchor="start" x="235.5" y="-677.4" font-family="Times New Roman,serif" font-size="12.00">yellow</text>
</g>
<!-- ghelwo&#45;&gt;gelwaGm -->
<g id="edge9" class="edge">
<title>ghelwo&#45;&gt;gelwaGm</title>
<path fill="none" stroke="black" d="M266.54,-984.61C263.8,-935.23 255.95,-793.49 252.35,-728.41"/>
<polygon fill="black" stroke="black" points="255.84,-728.07 251.79,-718.28 248.85,-728.46 255.84,-728.07"/>
</g>
<!-- gulthGm -->
<g id="node17" class="node">
<title>gulthGm</title>
<text text-anchor="start" x="277" y="-383.8" font-family="Times New Roman,serif" font-weight="bold" font-size="14.00">Germanic</text>
<text text-anchor="start" x="291.5" y="-369.8" font-family="Times New Roman,serif" font-size="14.00" fill="red">gulth&#45;</text>
</g>
<!-- ghlto&#45;&gt;gulthGm -->
<g id="edge16" class="edge">
<title>ghlto&#45;&gt;gulthGm</title>
<path fill="none" stroke="black" d="M377.37,-986.28C356.25,-971.79 330.5,-948.15 330.5,-919 330.5,-919 330.5,-919 330.5,-499 330.5,-467.36 322.44,-431.83 315.86,-408.09"/>
<polygon fill="black" stroke="black" points="319.2,-407.03 313.07,-398.39 312.47,-408.96 319.2,-407.03"/>
</g>
<!-- gallonGm -->
<g id="node26" class="node">
<title>gallonGm</title>
<text text-anchor="start" x="410" y="-927.8" font-family="Times New Roman,serif" font-weight="bold" font-size="14.00">Germanic</text>
<text text-anchor="start" x="421.5" y="-913.8" font-family="Times New Roman,serif" font-size="14.00" fill="red">gallōn&#45;</text>
<text text-anchor="start" x="432.5" y="-901.4" font-family="Times New Roman,serif" font-size="12.00">bile</text>
</g>
<!-- gholno&#45;&gt;gallonGm -->
<g id="edge25" class="edge">
<title>gholno&#45;&gt;gallonGm</title>
<path fill="none" stroke="black" d="M476.18,-984.8C470.89,-975.06 464.12,-962.56 457.89,-951.08"/>
<polygon fill="black" stroke="black" points="460.9,-949.28 453.06,-942.16 454.74,-952.62 460.9,-949.28"/>
</g>
<!-- zlotoP -->
<g id="node30" class="node">
<title>zlotoP</title>
<text text-anchor="start" x="527.5" y="-304.8" font-family="Times New Roman,serif" font-weight="bold" font-size="14.00">Polish</text>
<text text-anchor="start" x="532.5" y="-290.8" font-family="Times New Roman,serif" font-size="14.00" fill="red">złoto</text>
<text text-anchor="start" x="536.5" y="-278.4" font-family="Times New Roman,serif" font-size="12.00">gold</text>
</g>
<!-- gholto&#45;&gt;zlotoP -->
<g id="edge29" class="edge">
<title>gholto&#45;&gt;zlotoP</title>
<path fill="none" stroke="black" d="M546.16,-984.81C529.1,-969.58 508.5,-945.67 508.5,-919 508.5,-919 508.5,-919 508.5,-379 508.5,-361.02 515.96,-342.67 524.27,-327.82"/>
<polygon fill="black" stroke="black" points="527.39,-329.44 529.5,-319.06 521.37,-325.85 527.39,-329.44"/>
<text text-anchor="middle" x="512" y="-624.3" font-family="Times New Roman,serif" font-size="14.00">?</text>
<polyline fill="none" stroke="black" points="515.5,-620.5 508.5,-620.5 508.5,-379 "/>
</g>
<!-- kholeG -->
<g id="node33" class="node">
<title>kholeG</title>
<text text-anchor="start" x="654.5" y="-927.8" font-family="Times New Roman,serif" font-weight="bold" font-size="14.00">Greek</text>
<text text-anchor="start" x="659" y="-913.8" font-family="Times New Roman,serif" font-size="14.00" fill="red">kholē</text>
<text text-anchor="start" x="666.5" y="-901.4" font-family="Times New Roman,serif" font-size="12.00">bile</text>
</g>
<!-- ghola&#45;&gt;kholeG -->
<g id="edge32" class="edge">
<title>ghola&#45;&gt;kholeG</title>
<path fill="none" stroke="black" d="M652.3,-984.8C655.52,-975.25 659.64,-963.06 663.45,-951.76"/>
<polygon fill="black" stroke="black" points="666.81,-952.75 666.69,-942.16 660.17,-950.51 666.81,-952.75"/>
</g>
<!-- khlorosG -->
<g id="node42" class="node">
<title>khlorosG</title>
<text text-anchor="start" x="710.5" y="-861.8" font-family="Times New Roman,serif" font-weight="bold" font-size="14.00">Greek</text>
<text text-anchor="start" x="709" y="-847.8" font-family="Times New Roman,serif" font-size="14.00" fill="red">khlōros</text>
<text text-anchor="start" x="695.5" y="-835.4" font-family="Times New Roman,serif" font-size="12.00">greenish yellow</text>
</g>
<!-- ghloro&#45;&gt;khlorosG -->
<g id="edge40" class="edge">
<title>ghloro&#45;&gt;khlorosG</title>
<path fill="none" stroke="black" d="M724.3,-984.91C725.43,-960.98 727.49,-916.99 728.93,-886.42"/>
<polygon fill="black" stroke="black" points="732.44,-886.38 729.41,-876.23 725.44,-886.05 732.44,-886.38"/>
</g>
<!-- zarnaOI -->
<g id="node44" class="node">
<title>zarnaOI</title>
<text text-anchor="start" x="865.5" y="-927.8" font-family="Times New Roman,serif" font-weight="bold" font-size="14.00">Old Iranian</text>
<text text-anchor="start" x="884.5" y="-913.8" font-family="Times New Roman,serif" font-size="14.00" fill="red">zarna&#45;</text>
<text text-anchor="start" x="886" y="-901.4" font-family="Times New Roman,serif" font-size="12.00">golden</text>
</g>
<!-- ghelno&#45;&gt;zarnaOI -->
<g id="edge42" class="edge">
<title>ghelno&#45;&gt;zarnaOI</title>
<path fill="none" stroke="black" d="M898.33,-984.8C898.78,-975.45 899.35,-963.55 899.89,-952.45"/>
<polygon fill="black" stroke="black" points="903.4,-952.31 900.38,-942.16 896.41,-951.98 903.4,-952.31"/>
</g>
<!-- hariS -->
<g id="node56" class="node">
<title>hariS</title>
<text text-anchor="start" x="947.5" y="-449.8" font-family="Times New Roman,serif" font-weight="bold" font-size="14.00">Sanskrit</text>
<text text-anchor="start" x="961" y="-435.8" font-family="Times New Roman,serif" font-size="14.00" fill="red">hari&#45;</text>
<text text-anchor="start" x="944" y="-423.4" font-family="Times New Roman,serif" font-size="12.00">yellow&#45;green</text>
</g>
<!-- gheli&#45;&gt;hariS -->
<g id="edge55" class="edge">
<title>gheli&#45;&gt;hariS</title>
<path fill="none" stroke="black" d="M973.5,-984.83C973.5,-968.05 973.5,-941.77 973.5,-919 973.5,-919 973.5,-919 973.5,-560 973.5,-531.16 973.5,-498.38 973.5,-474.54"/>
<polygon fill="black" stroke="black" points="977,-474.26 973.5,-464.26 970,-474.26 977,-474.26"/>
</g>
<!-- geoluOE -->
<g id="node11" class="node">
<title>geoluOE</title>
<text text-anchor="start" x="79" y="-383.8" font-family="Times New Roman,serif" font-weight="bold" font-size="14.00">Old English</text>
<text text-anchor="start" x="100" y="-369.8" font-family="Times New Roman,serif" font-size="14.00" fill="red">geolu</text>
</g>
<!-- gelwaGm&#45;&gt;geoluOE -->
<g id="edge10" class="edge">
<title>gelwaGm&#45;&gt;geoluOE</title>
<path fill="none" stroke="black" d="M240.46,-669.8C215.92,-613.08 152.98,-467.63 126.99,-407.56"/>
<polygon fill="black" stroke="black" points="130.19,-406.14 123.01,-398.36 123.77,-408.92 130.19,-406.14"/>
</g>
<!-- yelowME -->
<g id="node12" class="node">
<title>yelowME</title>
<text text-anchor="start" x="94" y="-232.8" font-family="Times New Roman,serif" font-weight="bold" font-size="14.00">Middle</text>
<text text-anchor="start" x="92.5" y="-218.8" font-family="Times New Roman,serif" font-weight="bold" font-size="14.00">English</text>
<text text-anchor="start" x="98.5" y="-204.8" font-family="Times New Roman,serif" font-size="14.00" fill="red">yelow</text>
</g>
<!-- geoluOE&#45;&gt;yelowME -->
<g id="edge11" class="edge">
<title>geoluOE&#45;&gt;yelowME</title>
<path fill="none" stroke="black" d="M115.5,-361.71C115.5,-336.69 115.5,-289.87 115.5,-257.6"/>
<polygon fill="black" stroke="black" points="119,-257.26 115.5,-247.26 112,-257.26 119,-257.26"/>
</g>
<!-- geolcaOE -->
<g id="node14" class="node">
<title>geolcaOE</title>
<text text-anchor="start" x="41" y="-297.8" font-family="Times New Roman,serif" font-size="14.00" fill="red">geolca</text>
<text text-anchor="start" x="49.5" y="-285.4" font-family="Times New Roman,serif" font-size="12.00">yolk</text>
</g>
<!-- geoluOE&#45;&gt;geolcaOE -->
<g id="edge13" class="edge">
<title>geoluOE&#45;&gt;geolcaOE</title>
<path fill="none" stroke="black" d="M103.9,-361.8C96.09,-350.23 85.65,-334.76 76.86,-321.73"/>
<polygon fill="black" stroke="black" points="79.58,-319.51 71.09,-313.18 73.78,-323.42 79.58,-319.51"/>
</g>
<!-- yellow -->
<g id="node13" class="node">
<title>yellow</title>
<text text-anchor="start" x="91" y="-49.8" font-family="Times New Roman,serif" font-weight="bold" font-size="14.00">Modern</text>
<text text-anchor="start" x="92.5" y="-35.8" font-family="Times New Roman,serif" font-weight="bold" font-size="14.00">English</text>
<text text-anchor="start" x="97" y="-21.8" font-family="Times New Roman,serif" font-size="14.00" fill="red">yellow</text>
</g>
<!-- yelowME&#45;&gt;yellow -->
<g id="edge12" class="edge">
<title>yelowME&#45;&gt;yellow</title>
<path fill="none" stroke="black" d="M115.5,-196.96C115.5,-165.46 115.5,-109.99 115.5,-74.14"/>
<polygon fill="black" stroke="black" points="119,-74.13 115.5,-64.13 112,-74.13 119,-74.13"/>
</g>
<!-- yolkeME -->
<g id="node15" class="node">
<title>yolkeME</title>
<text text-anchor="start" x="23" y="-157.8" font-family="Times New Roman,serif" font-weight="bold" font-size="14.00">Middle</text>
<text text-anchor="start" x="21.5" y="-143.8" font-family="Times New Roman,serif" font-weight="bold" font-size="14.00">English</text>
<text text-anchor="start" x="29" y="-129.8" font-family="Times New Roman,serif" font-size="14.00" fill="red">yolke</text>
</g>
<!-- geolcaOE&#45;&gt;yolkeME -->
<g id="edge14" class="edge">
<title>geolcaOE&#45;&gt;yolkeME</title>
<path fill="none" stroke="black" d="M57.75,-276.97C55.37,-253.82 51.07,-211.91 48.01,-182.15"/>
<polygon fill="black" stroke="black" points="51.49,-181.78 46.98,-172.19 44.53,-182.49 51.49,-181.78"/>
</g>
<!-- yolk -->
<g id="node16" class="node">
<title>yolk</title>
<text text-anchor="start" x="8" y="-49.8" font-family="Times New Roman,serif" font-weight="bold" font-size="14.00">Modern</text>
<text text-anchor="start" x="9.5" y="-35.8" font-family="Times New Roman,serif" font-weight="bold" font-size="14.00">English</text>
<text text-anchor="start" x="20" y="-21.8" font-family="Times New Roman,serif" font-size="14.00" fill="red">yolk</text>
</g>
<!-- yolkeME&#45;&gt;yolk -->
<g id="edge15" class="edge">
<title>yolkeME&#45;&gt;yolk</title>
<path fill="none" stroke="black" d="M41.78,-121.95C40.19,-107.95 38.17,-90.07 36.42,-74.59"/>
<polygon fill="black" stroke="black" points="39.86,-73.87 35.25,-64.32 32.9,-74.66 39.86,-73.87"/>
</g>
<!-- goldOE -->
<g id="node18" class="node">
<title>goldOE</title>
<text text-anchor="start" x="238" y="-298.8" font-family="Times New Roman,serif" font-weight="bold" font-size="14.00">Old English</text>
<text text-anchor="start" x="262" y="-284.8" font-family="Times New Roman,serif" font-size="14.00" fill="red">gold</text>
</g>
<!-- gulthGm&#45;&gt;goldOE -->
<g id="edge17" class="edge">
<title>gulthGm&#45;&gt;goldOE</title>
<path fill="none" stroke="black" d="M300.66,-361.8C296.15,-350.45 290.15,-335.35 285.03,-322.48"/>
<polygon fill="black" stroke="black" points="288.28,-321.17 281.33,-313.18 281.77,-323.76 288.28,-321.17"/>
</g>
<!-- gyldanOE -->
<g id="node19" class="node">
<title>gyldanOE</title>
<text text-anchor="start" x="345" y="-298.8" font-family="Times New Roman,serif" font-weight="bold" font-size="14.00">Old English</text>
<text text-anchor="start" x="363" y="-284.8" font-family="Times New Roman,serif" font-size="14.00" fill="red">gyldan</text>
</g>
<!-- gulthGm&#45;&gt;gyldanOE -->
<g id="edge18" class="edge">
<title>gulthGm&#45;&gt;gyldanOE</title>
<path fill="none" stroke="black" d="M322.83,-361.8C333.35,-350.01 347.47,-334.16 359.23,-320.98"/>
<polygon fill="black" stroke="black" points="362.14,-322.97 366.19,-313.18 356.92,-318.31 362.14,-322.97"/>
</g>
<!-- guldenMD -->
<g id="node20" class="node">
<title>guldenMD</title>
<text text-anchor="start" x="159.5" y="-231.8" font-family="Times New Roman,serif" font-weight="bold" font-size="14.00">Middle Dutch</text>
<text text-anchor="start" x="160.5" y="-217.8" font-family="Times New Roman,serif" font-size="14.00" fill="red">gulden (florijn)</text>
<text text-anchor="start" x="169.5" y="-205.4" font-family="Times New Roman,serif" font-size="12.00">golden (florin)</text>
</g>
<!-- gulthGm&#45;&gt;guldenMD -->
<g id="edge19" class="edge">
<title>gulthGm&#45;&gt;guldenMD</title>
<path fill="none" stroke="black" d="M268.79,-363.71C251.42,-354.92 232.24,-342.17 220.5,-325 206.76,-304.9 202.23,-277.59 201.02,-256.29"/>
<polygon fill="black" stroke="black" points="204.51,-255.94 200.66,-246.07 197.51,-256.19 204.51,-255.94"/>
</g>
<!-- goldME -->
<g id="node21" class="node">
<title>goldME</title>
<text text-anchor="start" x="258" y="-164.8" font-family="Times New Roman,serif" font-weight="bold" font-size="14.00">Middle</text>
<text text-anchor="start" x="256.5" y="-150.8" font-family="Times New Roman,serif" font-weight="bold" font-size="14.00">English</text>
<text text-anchor="start" x="267" y="-136.8" font-family="Times New Roman,serif" font-size="14.00" fill="red">gold</text>
<text text-anchor="start" x="260.5" y="-122.8" font-family="Times New Roman,serif" font-size="14.00" fill="red">golden</text>
</g>
<!-- goldOE&#45;&gt;goldME -->
<g id="edge20" class="edge">
<title>goldOE&#45;&gt;goldME</title>
<path fill="none" stroke="black" d="M275.08,-276.97C275.81,-255.66 277.09,-218.47 278.08,-189.48"/>
<polygon fill="black" stroke="black" points="281.59,-189.33 278.43,-179.21 274.59,-189.09 281.59,-189.33"/>
</g>
<!-- gildenME -->
<g id="node23" class="node">
<title>gildenME</title>
<text text-anchor="start" x="351" y="-157.8" font-family="Times New Roman,serif" font-weight="bold" font-size="14.00">Middle</text>
<text text-anchor="start" x="349.5" y="-143.8" font-family="Times New Roman,serif" font-weight="bold" font-size="14.00">English</text>
<text text-anchor="start" x="355.5" y="-129.8" font-family="Times New Roman,serif" font-size="14.00" fill="red">gilden</text>
</g>
<!-- gyldanOE&#45;&gt;gildenME -->
<g id="edge22" class="edge">
<title>gyldanOE&#45;&gt;gildenME</title>
<path fill="none" stroke="black" d="M380.45,-276.97C379.03,-253.92 376.46,-212.28 374.63,-182.54"/>
<polygon fill="black" stroke="black" points="378.1,-181.95 373.99,-172.19 371.11,-182.38 378.1,-181.95"/>
</g>
<!-- guilder -->
<g id="node25" class="node">
<title>guilder</title>
<text text-anchor="start" x="174" y="-56.8" font-family="Times New Roman,serif" font-weight="bold" font-size="14.00">Modern</text>
<text text-anchor="start" x="175.5" y="-42.8" font-family="Times New Roman,serif" font-weight="bold" font-size="14.00">English</text>
<text text-anchor="start" x="180" y="-28.8" font-family="Times New Roman,serif" font-size="14.00" fill="red">gulden</text>
<text text-anchor="start" x="179.5" y="-14.8" font-family="Times New Roman,serif" font-size="14.00" fill="red">guilder</text>
</g>
<!-- guldenMD&#45;&gt;guilder -->
<g id="edge24" class="edge">
<title>guldenMD&#45;&gt;guilder</title>
<path fill="none" stroke="black" stroke-dasharray="1,5" d="M201.11,-197.71C200.63,-168.34 199.78,-117.32 199.18,-81.28"/>
<polygon fill="black" stroke="black" points="202.68,-81.02 199.02,-71.08 195.68,-81.14 202.68,-81.02"/>
</g>
<!-- gold -->
<g id="node22" class="node">
<title>gold</title>
<text text-anchor="start" x="257" y="-56.8" font-family="Times New Roman,serif" font-weight="bold" font-size="14.00">Modern</text>
<text text-anchor="start" x="258.5" y="-42.8" font-family="Times New Roman,serif" font-weight="bold" font-size="14.00">English</text>
<text text-anchor="start" x="269" y="-28.8" font-family="Times New Roman,serif" font-size="14.00" fill="red">gold</text>
<text text-anchor="start" x="262.5" y="-14.8" font-family="Times New Roman,serif" font-size="14.00" fill="red">golden</text>
</g>
<!-- goldME&#45;&gt;gold -->
<g id="edge21" class="edge">
<title>goldME&#45;&gt;gold</title>
<path fill="none" stroke="black" d="M280.09,-114.77C280.29,-104.2 280.51,-92.24 280.73,-81.03"/>
<polygon fill="black" stroke="black" points="284.23,-81.07 280.91,-71.01 277.23,-80.94 284.23,-81.07"/>
</g>
<!-- gild -->
<g id="node24" class="node">
<title>gild</title>
<text text-anchor="start" x="340" y="-49.8" font-family="Times New Roman,serif" font-weight="bold" font-size="14.00">Modern</text>
<text text-anchor="start" x="341.5" y="-35.8" font-family="Times New Roman,serif" font-weight="bold" font-size="14.00">English</text>
<text text-anchor="start" x="354" y="-21.8" font-family="Times New Roman,serif" font-size="14.00" fill="red">gild</text>
</g>
<!-- gildenME&#45;&gt;gild -->
<g id="edge23" class="edge">
<title>gildenME&#45;&gt;gild</title>
<path fill="none" stroke="black" d="M370.68,-121.95C369.63,-107.95 368.28,-90.07 367.11,-74.59"/>
<polygon fill="black" stroke="black" points="370.58,-74.03 366.34,-64.32 363.6,-74.56 370.58,-74.03"/>
</g>
<!-- geallaOE -->
<g id="node27" class="node">
<title>geallaOE</title>
<text text-anchor="start" x="399" y="-776.8" font-family="Times New Roman,serif" font-weight="bold" font-size="14.00">Old English</text>
<text text-anchor="start" x="403.5" y="-762.8" font-family="Times New Roman,serif" font-size="14.00" fill="red">gealla, galla</text>
</g>
<!-- gallonGm&#45;&gt;geallaOE -->
<g id="edge26" class="edge">
<title>gallonGm&#45;&gt;geallaOE</title>
<path fill="none" stroke="black" d="M439.69,-893.71C438.8,-868.39 437.39,-827.97 436.45,-801.21"/>
<polygon fill="black" stroke="black" points="439.94,-800.87 436.09,-791 432.95,-801.12 439.94,-800.87"/>
</g>
<!-- gallME -->
<g id="node28" class="node">
<title>gallME</title>
<text text-anchor="start" x="421" y="-571.8" font-family="Times New Roman,serif" font-weight="bold" font-size="14.00">Middle</text>
<text text-anchor="start" x="419.5" y="-557.8" font-family="Times New Roman,serif" font-weight="bold" font-size="14.00">English</text>
<text text-anchor="start" x="433" y="-543.8" font-family="Times New Roman,serif" font-size="14.00" fill="red">gall</text>
</g>
<!-- geallaOE&#45;&gt;gallME -->
<g id="edge27" class="edge">
<title>geallaOE&#45;&gt;gallME</title>
<path fill="none" stroke="black" d="M436.07,-754.81C437.22,-720.26 439.84,-641.81 441.36,-596.34"/>
<polygon fill="black" stroke="black" points="444.86,-596.19 441.7,-586.08 437.87,-595.96 444.86,-596.19"/>
</g>
<!-- gall -->
<g id="node29" class="node">
<title>gall</title>
<text text-anchor="start" x="431" y="-56.8" font-family="Times New Roman,serif" font-weight="bold" font-size="14.00">Modern</text>
<text text-anchor="start" x="432.5" y="-42.8" font-family="Times New Roman,serif" font-weight="bold" font-size="14.00">English</text>
<text text-anchor="start" x="446" y="-28.8" font-family="Times New Roman,serif" font-size="14.00" fill="red">gall</text>
<text text-anchor="start" x="423" y="-14.8" font-family="Times New Roman,serif" font-size="14.00" fill="red">gall bladder</text>
</g>
<!-- gallME&#45;&gt;gall -->
<g id="edge28" class="edge">
<title>gallME&#45;&gt;gall</title>
<path fill="none" stroke="black" d="M446.68,-535.93C450.49,-511.95 455.5,-474.04 455.5,-441 455.5,-441 455.5,-441 455.5,-146 455.5,-124.63 455.5,-100.83 455.5,-81.21"/>
<polygon fill="black" stroke="black" points="459,-81.08 455.5,-71.08 452,-81.08 459,-81.08"/>
</g>
<!-- zlotyP -->
<g id="node31" class="node">
<title>zlotyP</title>
<text text-anchor="start" x="532.5" y="-149.8" font-family="Times New Roman,serif" font-size="14.00" fill="red">złoty</text>
<text text-anchor="start" x="517.5" y="-137.4" font-family="Times New Roman,serif" font-size="12.00">golden, zloty</text>
</g>
<!-- zlotoP&#45;&gt;zlotyP -->
<g id="edge30" class="edge">
<title>zlotoP&#45;&gt;zlotyP</title>
<path fill="none" stroke="black" d="M546.5,-270.87C546.5,-244.89 546.5,-202.76 546.5,-175.22"/>
<polygon fill="black" stroke="black" points="550,-175.1 546.5,-165.1 543,-175.1 550,-175.1"/>
</g>
<!-- zloty -->
<g id="node32" class="node">
<title>zloty</title>
<text text-anchor="start" x="522" y="-49.8" font-family="Times New Roman,serif" font-weight="bold" font-size="14.00">Modern</text>
<text text-anchor="start" x="523.5" y="-35.8" font-family="Times New Roman,serif" font-weight="bold" font-size="14.00">English</text>
<text text-anchor="start" x="532.5" y="-21.8" font-family="Times New Roman,serif" font-size="14.00" fill="red">zloty</text>
</g>
<!-- zlotyP&#45;&gt;zloty -->
<g id="edge31" class="edge">
<title>zlotyP&#45;&gt;zloty</title>
<path fill="none" stroke="black" stroke-dasharray="1,5" d="M546.5,-128.97C546.5,-114.22 546.5,-92.45 546.5,-74.13"/>
<polygon fill="black" stroke="black" points="550,-74.1 546.5,-64.1 543,-74.1 550,-74.1"/>
</g>
<!-- melankholiaG -->
<g id="node34" class="node">
<title>melankholiaG</title>
<text text-anchor="start" x="549.5" y="-769.3" font-family="Times New Roman,serif" font-size="14.00" fill="red">melankholiā</text>
</g>
<!-- kholeG&#45;&gt;melankholiaG -->
<g id="edge33" class="edge">
<title>kholeG&#45;&gt;melankholiaG</title>
<path fill="none" stroke="black" d="M651.96,-893.96C646.93,-888.3 641.81,-882.11 637.5,-876 620.4,-851.76 604.76,-821.62 594.56,-800.4"/>
<polygon fill="black" stroke="black" points="597.72,-798.88 590.28,-791.34 591.39,-801.87 597.72,-798.88"/>
</g>
<!-- choler -->
<g id="node35" class="node">
<title>choler</title>
<text text-anchor="start" x="617" y="-63.8" font-family="Times New Roman,serif" font-weight="bold" font-size="14.00">Modern</text>
<text text-anchor="start" x="618.5" y="-49.8" font-family="Times New Roman,serif" font-weight="bold" font-size="14.00">English</text>
<text text-anchor="start" x="624" y="-35.8" font-family="Times New Roman,serif" font-size="14.00" fill="red">choler</text>
<text text-anchor="start" x="621" y="-21.8" font-family="Times New Roman,serif" font-size="14.00" fill="red">cholera</text>
<text text-anchor="start" x="611" y="-7.8" font-family="Times New Roman,serif" font-size="14.00" fill="red">cholesterol</text>
</g>
<!-- kholeG&#45;&gt;choler -->
<g id="edge34" class="edge">
<title>kholeG&#45;&gt;choler</title>
<path fill="none" stroke="black" stroke-dasharray="1,5" d="M668.46,-893.9C661.64,-865.78 651.5,-816.75 651.5,-774 651.5,-774 651.5,-774 651.5,-146 651.5,-127.06 649.9,-106.3 647.98,-88.21"/>
<polygon fill="black" stroke="black" points="651.44,-87.73 646.85,-78.19 644.49,-88.52 651.44,-87.73"/>
</g>
<!-- melasG -->
<g id="node36" class="node">
<title>melasG</title>
<text text-anchor="start" x="544.5" y="-920.8" font-family="Times New Roman,serif" font-size="14.00" fill="red">melās, melan&#45;</text>
<text text-anchor="start" x="570" y="-908.4" font-family="Times New Roman,serif" font-size="12.00">black</text>
</g>
<!-- melasG&#45;&gt;melankholiaG -->
<g id="edge35" class="edge">
<title>melasG&#45;&gt;melankholiaG</title>
<path fill="none" stroke="black" d="M582.5,-899.75C582.5,-875.38 582.5,-830.61 582.5,-801.59"/>
<polygon fill="black" stroke="black" points="586,-801.31 582.5,-791.31 579,-801.31 586,-801.31"/>
</g>
<!-- malankholiaG -->
<g id="node37" class="node">
<title>malankholiaG</title>
<text text-anchor="middle" x="1187.5" y="-496.3" font-family="Times New Roman,serif" font-size="14.00">malankholiaG</text>
</g>
<!-- melancholiaL -->
<g id="node38" class="node">
<title>melancholiaL</title>
<text text-anchor="start" x="1171" y="-383.8" font-family="Times New Roman,serif" font-weight="bold" font-size="14.00">Latin</text>
<text text-anchor="start" x="1154.5" y="-369.8" font-family="Times New Roman,serif" font-size="14.00" fill="red">melancholia</text>
</g>
<!-- malankholiaG&#45;&gt;melancholiaL -->
<g id="edge36" class="edge">
<title>malankholiaG&#45;&gt;melancholiaL</title>
<path fill="none" stroke="black" stroke-dasharray="1,5" d="M1187.5,-481.84C1187.5,-462.53 1187.5,-430.89 1187.5,-408.2"/>
<polygon fill="black" stroke="black" points="1191,-408.18 1187.5,-398.18 1184,-408.18 1191,-408.18"/>
</g>
<!-- melancholiaOF -->
<g id="node39" class="node">
<title>melancholiaOF</title>
<text text-anchor="start" x="1152.5" y="-298.8" font-family="Times New Roman,serif" font-weight="bold" font-size="14.00">Old French</text>
<text text-anchor="start" x="1154.5" y="-284.8" font-family="Times New Roman,serif" font-size="14.00" fill="red">melancholia</text>
</g>
<!-- melancholiaL&#45;&gt;melancholiaOF -->
<g id="edge37" class="edge">
<title>melancholiaL&#45;&gt;melancholiaOF</title>
<path fill="none" stroke="black" d="M1187.5,-361.8C1187.5,-350.67 1187.5,-335.94 1187.5,-323.24"/>
<polygon fill="black" stroke="black" points="1191,-323.18 1187.5,-313.18 1184,-323.18 1191,-323.18"/>
</g>
<!-- melancolieME -->
<g id="node40" class="node">
<title>melancolieME</title>
<text text-anchor="start" x="1166" y="-157.8" font-family="Times New Roman,serif" font-weight="bold" font-size="14.00">Middle</text>
<text text-anchor="start" x="1164.5" y="-143.8" font-family="Times New Roman,serif" font-weight="bold" font-size="14.00">English</text>
<text text-anchor="start" x="1158" y="-129.8" font-family="Times New Roman,serif" font-size="14.00" fill="red">melancolie</text>
</g>
<!-- melancholiaOF&#45;&gt;melancolieME -->
<g id="edge38" class="edge">
<title>melancholiaOF&#45;&gt;melancolieME</title>
<path fill="none" stroke="black" stroke-dasharray="1,5" d="M1187.5,-276.97C1187.5,-253.92 1187.5,-212.28 1187.5,-182.54"/>
<polygon fill="black" stroke="black" points="1191,-182.19 1187.5,-172.19 1184,-182.19 1191,-182.19"/>
</g>
<!-- melancholy -->
<g id="node41" class="node">
<title>melancholy</title>
<text text-anchor="start" x="1163" y="-49.8" font-family="Times New Roman,serif" font-weight="bold" font-size="14.00">Modern</text>
<text text-anchor="start" x="1164.5" y="-35.8" font-family="Times New Roman,serif" font-weight="bold" font-size="14.00">English</text>
<text text-anchor="start" x="1155.5" y="-21.8" font-family="Times New Roman,serif" font-size="14.00" fill="red">melancholy</text>
</g>
<!-- melancolieME&#45;&gt;melancholy -->
<g id="edge39" class="edge">
<title>melancolieME&#45;&gt;melancholy</title>
<path fill="none" stroke="black" d="M1187.5,-121.95C1187.5,-107.95 1187.5,-90.07 1187.5,-74.59"/>
<polygon fill="black" stroke="black" points="1191,-74.32 1187.5,-64.32 1184,-74.32 1191,-74.32"/>
</g>
<!-- chlorine -->
<g id="node43" class="node">
<title>chlorine</title>
<text text-anchor="start" x="706" y="-56.8" font-family="Times New Roman,serif" font-weight="bold" font-size="14.00">Modern</text>
<text text-anchor="start" x="707.5" y="-42.8" font-family="Times New Roman,serif" font-weight="bold" font-size="14.00">English</text>
<text text-anchor="start" x="710" y="-28.8" font-family="Times New Roman,serif" font-size="14.00" fill="red">chloro&#45;</text>
<text text-anchor="start" x="708" y="-14.8" font-family="Times New Roman,serif" font-size="14.00" fill="red">chlorine</text>
</g>
<!-- khlorosG&#45;&gt;chlorine -->
<g id="edge41" class="edge">
<title>khlorosG&#45;&gt;chlorine</title>
<path fill="none" stroke="black" d="M730.5,-827.74C730.5,-797.26 730.5,-742.13 730.5,-695 730.5,-695 730.5,-695 730.5,-146 730.5,-124.63 730.5,-100.83 730.5,-81.21"/>
<polygon fill="black" stroke="black" points="734,-81.08 730.5,-71.08 727,-81.08 734,-81.08"/>
</g>
<!-- zarnikMI -->
<g id="node45" class="node">
<title>zarnikMI</title>
<text text-anchor="start" x="892" y="-783.8" font-family="Times New Roman,serif" font-weight="bold" font-size="14.00">Middle</text>
<text text-anchor="start" x="890.5" y="-769.8" font-family="Times New Roman,serif" font-weight="bold" font-size="14.00">Iranian</text>
<text text-anchor="start" x="894.5" y="-755.8" font-family="Times New Roman,serif" font-size="14.00" fill="red">zarnik&#45;</text>
</g>
<!-- zarnaOI&#45;&gt;zarnikMI -->
<g id="edge43" class="edge">
<title>zarnaOI&#45;&gt;zarnikMI</title>
<path fill="none" stroke="black" d="M903.45,-893.71C905.4,-870.51 908.41,-834.64 910.63,-808.21"/>
<polygon fill="black" stroke="black" points="914.12,-808.5 911.47,-798.24 907.14,-807.91 914.12,-808.5"/>
</g>
<!-- zarnikaSy -->
<g id="node46" class="node">
<title>zarnikaSy</title>
<text text-anchor="start" x="873.5" y="-637.8" font-family="Times New Roman,serif" font-weight="bold" font-size="14.00">Syriac</text>
<text text-anchor="start" x="873" y="-623.8" font-family="Times New Roman,serif" font-size="14.00" fill="red">zarnīkā</text>
<text text-anchor="start" x="853" y="-611.4" font-family="Times New Roman,serif" font-size="12.00">arsenic trisulphide</text>
</g>
<!-- zarnikMI&#45;&gt;zarnikaSy -->
<g id="edge44" class="edge">
<title>zarnikMI&#45;&gt;zarnikaSy</title>
<path fill="none" stroke="black" d="M910.11,-747.74C906.84,-724.35 901.86,-688.75 898.2,-662.63"/>
<polygon fill="black" stroke="black" points="901.63,-661.84 896.78,-652.43 894.7,-662.81 901.63,-661.84"/>
</g>
<!-- arsenikonG -->
<g id="node47" class="node">
<title>arsenikonG</title>
<text text-anchor="start" x="865.5" y="-503.8" font-family="Times New Roman,serif" font-weight="bold" font-size="14.00">Greek</text>
<text text-anchor="start" x="858.5" y="-489.8" font-family="Times New Roman,serif" font-size="14.00" fill="red">arsenikon</text>
</g>
<!-- zarnikaSy&#45;&gt;arsenikonG -->
<g id="edge45" class="edge">
<title>zarnikaSy&#45;&gt;arsenikonG</title>
<path fill="none" stroke="black" stroke-dasharray="1,5" d="M892.03,-603.89C890.68,-582.64 888.68,-551.11 887.25,-528.56"/>
<polygon fill="black" stroke="black" points="890.72,-528.05 886.6,-518.3 883.74,-528.5 890.72,-528.05"/>
</g>
<!-- arsenicumL -->
<g id="node48" class="node">
<title>arsenicumL</title>
<text text-anchor="start" x="799" y="-383.8" font-family="Times New Roman,serif" font-weight="bold" font-size="14.00">Latin</text>
<text text-anchor="start" x="787" y="-369.8" font-family="Times New Roman,serif" font-size="14.00" fill="red">arsenicum</text>
</g>
<!-- arsenikonG&#45;&gt;arsenicumL -->
<g id="edge46" class="edge">
<title>arsenikonG&#45;&gt;arsenicumL</title>
<path fill="none" stroke="black" stroke-dasharray="1,5" d="M875.32,-481.84C863.66,-462.18 844.41,-429.74 830.91,-406.98"/>
<polygon fill="black" stroke="black" points="833.8,-404.99 825.69,-398.18 827.78,-408.57 833.8,-404.99"/>
</g>
<!-- arsenikOF -->
<g id="node49" class="node">
<title>arsenikOF</title>
<text text-anchor="start" x="780.5" y="-298.8" font-family="Times New Roman,serif" font-weight="bold" font-size="14.00">Old French</text>
<text text-anchor="start" x="795.5" y="-284.8" font-family="Times New Roman,serif" font-size="14.00" fill="red">arsenik</text>
</g>
<!-- arsenicumL&#45;&gt;arsenikOF -->
<g id="edge47" class="edge">
<title>arsenicumL&#45;&gt;arsenikOF</title>
<path fill="none" stroke="black" d="M815.5,-361.8C815.5,-350.67 815.5,-335.94 815.5,-323.24"/>
<polygon fill="black" stroke="black" points="819,-323.18 815.5,-313.18 812,-323.18 819,-323.18"/>
</g>
<!-- arsenikME -->
<g id="node50" class="node">
<title>arsenikME</title>
<text text-anchor="start" x="794" y="-157.8" font-family="Times New Roman,serif" font-weight="bold" font-size="14.00">Middle</text>
<text text-anchor="start" x="792.5" y="-143.8" font-family="Times New Roman,serif" font-weight="bold" font-size="14.00">English</text>
<text text-anchor="start" x="795.5" y="-129.8" font-family="Times New Roman,serif" font-size="14.00" fill="red">arsenik</text>
</g>
<!-- arsenikOF&#45;&gt;arsenikME -->
<g id="edge48" class="edge">
<title>arsenikOF&#45;&gt;arsenikME</title>
<path fill="none" stroke="black" stroke-dasharray="1,5" d="M815.5,-276.97C815.5,-253.92 815.5,-212.28 815.5,-182.54"/>
<polygon fill="black" stroke="black" points="819,-182.19 815.5,-172.19 812,-182.19 819,-182.19"/>
</g>
<!-- arsenic -->
<g id="node51" class="node">
<title>arsenic</title>
<text text-anchor="start" x="791" y="-49.8" font-family="Times New Roman,serif" font-weight="bold" font-size="14.00">Modern</text>
<text text-anchor="start" x="792.5" y="-35.8" font-family="Times New Roman,serif" font-weight="bold" font-size="14.00">English</text>
<text text-anchor="start" x="795.5" y="-21.8" font-family="Times New Roman,serif" font-size="14.00" fill="red">arsenic</text>
</g>
<!-- arsenikME&#45;&gt;arsenic -->
<g id="edge49" class="edge">
<title>arsenikME&#45;&gt;arsenic</title>
<path fill="none" stroke="black" d="M815.5,-121.95C815.5,-107.95 815.5,-90.07 815.5,-74.59"/>
<polygon fill="black" stroke="black" points="819,-74.32 815.5,-64.32 812,-74.32 819,-74.32"/>
</g>
<!-- zarnikP -->
<g id="node53" class="node">
<title>zarnikP</title>
<text text-anchor="start" x="790" y="-920.8" font-family="Times New Roman,serif" font-size="14.00" fill="red">Persian</text>
<text text-anchor="start" x="796.5" y="-908.4" font-family="Times New Roman,serif" font-size="12.00">zarnīk</text>
</g>
<!-- zarP&#45;&gt;zarnikP -->
<g id="edge51" class="edge">
<title>zarP&#45;&gt;zarnikP</title>
<path fill="none" stroke="black" d="M810.5,-978.88C810.5,-968.84 810.5,-957 810.5,-946.51"/>
<polygon fill="black" stroke="black" points="814,-946.21 810.5,-936.21 807,-946.21 814,-946.21"/>
</g>
<!-- zernikhA -->
<g id="node54" class="node">
<title>zernikhA</title>
<text text-anchor="start" x="790.5" y="-795.8" font-family="Times New Roman,serif" font-weight="bold" font-size="14.00">Arabic</text>
<text text-anchor="start" x="790.5" y="-781.8" font-family="Times New Roman,serif" font-size="14.00" fill="red">zernīkh</text>
<text text-anchor="start" x="771" y="-769.4" font-family="Times New Roman,serif" font-size="12.00">arsenic trisulphide</text>
<text text-anchor="start" x="784.5" y="-755.8" font-family="Times New Roman,serif" font-size="14.00" fill="red">azzernīkh</text>
<text text-anchor="start" x="767" y="-743.4" font-family="Times New Roman,serif" font-size="12.00">the arsenic trisulfide</text>
</g>
<!-- zarnikP&#45;&gt;zernikhA -->
<g id="edge52" class="edge">
<title>zarnikP&#45;&gt;zernikhA</title>
<path fill="none" stroke="black" stroke-dasharray="1,5" d="M810.62,-899.75C810.76,-880.19 810.99,-847.48 811.18,-820.32"/>
<polygon fill="black" stroke="black" points="814.68,-820.25 811.25,-810.23 807.68,-820.2 814.68,-820.25"/>
</g>
<!-- arrenikonG -->
<g id="node55" class="node">
<title>arrenikonG</title>
<text text-anchor="start" x="794.5" y="-571.8" font-family="Times New Roman,serif" font-weight="bold" font-size="14.00">Greek</text>
<text text-anchor="start" x="788.5" y="-557.8" font-family="Times New Roman,serif" font-size="14.00" fill="red">arrenikon</text>
<text text-anchor="start" x="787.5" y="-543.8" font-family="Times New Roman,serif" font-size="14.00" fill="red">arsenikon</text>
</g>
<!-- zernikhA&#45;&gt;arrenikonG -->
<g id="edge53" class="edge">
<title>zernikhA&#45;&gt;arrenikonG</title>
<path fill="none" stroke="black" stroke-dasharray="1,5" d="M812.02,-735.9C812.57,-696.77 813.46,-634.8 814.01,-596.37"/>
<polygon fill="black" stroke="black" points="817.51,-596.24 814.15,-586.19 810.51,-596.14 817.51,-596.24"/>
</g>
<!-- arrenikonG&#45;&gt;arsenicumL -->
<g id="edge54" class="edge">
<title>arrenikonG&#45;&gt;arsenicumL</title>
<path fill="none" stroke="black" stroke-dasharray="1,5" d="M814.63,-535.86C814.82,-502.79 815.15,-443.56 815.35,-408.72"/>
<polygon fill="black" stroke="black" points="818.85,-408.35 815.4,-398.33 811.85,-408.31 818.85,-408.35"/>
</g>
<!-- harihS -->
<g id="node57" class="node">
<title>harihS</title>
<text text-anchor="start" x="958" y="-310.8" font-family="Times New Roman,serif" font-size="14.00" fill="red">Hariḥ</text>
<text text-anchor="start" x="934" y="-298.4" font-family="Times New Roman,serif" font-size="12.00">a name of Vishnu</text>
<text text-anchor="start" x="960" y="-284.8" font-family="Times New Roman,serif" font-size="14.00" fill="red">Hare</text>
<text text-anchor="start" x="925.5" y="-272.4" font-family="Times New Roman,serif" font-size="12.00">(direct address form)</text>
</g>
<!-- hariS&#45;&gt;harihS -->
<g id="edge56" class="edge">
<title>hariS&#45;&gt;harihS</title>
<path fill="none" stroke="black" d="M973.5,-415.71C973.5,-394 973.5,-361.21 973.5,-335.43"/>
<polygon fill="black" stroke="black" points="977,-335.22 973.5,-325.22 970,-335.22 977,-335.22"/>
</g>
<!-- harekrishnaS -->
<g id="node58" class="node">
<title>harekrishnaS</title>
<text text-anchor="start" x="921" y="-155.8" font-family="Times New Roman,serif" font-size="14.00" fill="red">Hare Krishna</text>
<text text-anchor="start" x="900" y="-143.4" font-family="Times New Roman,serif" font-size="12.00">a chant to the god Vishnu</text>
<text text-anchor="start" x="890" y="-131.4" font-family="Times New Roman,serif" font-size="12.00">(Krishna is one of his avatars)</text>
</g>
<!-- harihS&#45;&gt;harekrishnaS -->
<g id="edge57" class="edge">
<title>harihS&#45;&gt;harekrishnaS</title>
<path fill="none" stroke="black" d="M970.3,-264.81C967.62,-240.34 963.8,-205.46 961.03,-180.19"/>
<polygon fill="black" stroke="black" points="964.48,-179.57 959.91,-170.01 957.52,-180.33 964.48,-179.57"/>
</g>
<!-- harijanS -->
<g id="node59" class="node">
<title>harijanS</title>
<text text-anchor="start" x="1067" y="-155.8" font-family="Times New Roman,serif" font-size="14.00" fill="red">harijanaḥ</text>
<text text-anchor="start" x="1059.5" y="-143.4" font-family="Times New Roman,serif" font-size="12.00">&quot;child of god,&quot;</text>
<text text-anchor="start" x="1062.5" y="-131.4" font-family="Times New Roman,serif" font-size="12.00">Untouchable</text>
</g>
<!-- harihS&#45;&gt;harijanS -->
<g id="edge58" class="edge">
<title>harihS&#45;&gt;harijanS</title>
<path fill="none" stroke="black" d="M997.1,-264.81C1017.49,-239.58 1046.83,-203.27 1067.38,-177.85"/>
<polygon fill="black" stroke="black" points="1070.15,-179.98 1073.71,-170.01 1064.71,-175.58 1070.15,-179.98"/>
</g>
<!-- harekrishna -->
<g id="node60" class="node">
<title>harekrishna</title>
<text text-anchor="start" x="933" y="-55.8" font-family="Times New Roman,serif" font-weight="bold" font-size="14.00">Modern</text>
<text text-anchor="start" x="934.5" y="-41.8" font-family="Times New Roman,serif" font-weight="bold" font-size="14.00">English</text>
<text text-anchor="start" x="921" y="-27.8" font-family="Times New Roman,serif" font-size="14.00" fill="red">Hare Krishna</text>
<text text-anchor="start" x="920.5" y="-15.4" font-family="Times New Roman,serif" font-size="12.00">(religious group)</text>
</g>
<!-- harekrishnaS&#45;&gt;harekrishna -->
<g id="edge59" class="edge">
<title>harekrishnaS&#45;&gt;harekrishna</title>
<path fill="none" stroke="black" stroke-dasharray="1,5" d="M957.5,-123.78C957.5,-111.27 957.5,-95.27 957.5,-80.6"/>
<polygon fill="black" stroke="black" points="961,-80.23 957.5,-70.23 954,-80.23 961,-80.23"/>
</g>
<!-- harijan -->
<g id="node61" class="node">
<title>harijan</title>
<text text-anchor="start" x="1067" y="-49.8" font-family="Times New Roman,serif" font-weight="bold" font-size="14.00">Modern</text>
<text text-anchor="start" x="1068.5" y="-35.8" font-family="Times New Roman,serif" font-weight="bold" font-size="14.00">English</text>
<text text-anchor="start" x="1071.5" y="-21.8" font-family="Times New Roman,serif" font-size="14.00" fill="red">Harijan</text>
</g>
<!-- harijanS&#45;&gt;harijan -->
<g id="edge60" class="edge">
<title>harijanS&#45;&gt;harijan</title>
<path fill="none" stroke="black" stroke-dasharray="1,5" d="M1091.5,-123.78C1091.5,-109.44 1091.5,-90.49 1091.5,-74.25"/>
<polygon fill="black" stroke="black" points="1095,-74.04 1091.5,-64.04 1088,-74.04 1095,-74.04"/>
</g>
</g>
</svg>
