<?xml version="1.0" encoding="UTF-8" standalone="no"?>
<!DOCTYPE svg PUBLIC "-//W3C//DTD SVG 1.1//EN"
 "http://www.w3.org/Graphics/SVG/1.1/DTD/svg11.dtd">
<!-- Generated by graphviz version 2.49.0 (20210828.1703)
 -->
<!-- Pages: 1 -->
<svg width="227pt" height="263pt"
 viewBox="0.00 0.00 227.00 263.00" xmlns="http://www.w3.org/2000/svg" xmlns:xlink="http://www.w3.org/1999/xlink">
<g id="graph0" class="graph" transform="scale(1 1) rotate(0) translate(4 259)">
<polygon fill="white" stroke="transparent" points="-4,4 -4,-259 223,-259 223,4 -4,4"/>
<!-- gher -->
<g id="node1" class="node">
<title>gher</title>
<g id="a_node1"><a xlink:title="Indo&#45;European &quot;gher&#45;&quot; to grasp, enclose">
<polygon fill="none" stroke="black" points="215,-251 4,-251 4,-131 215,-131 215,-251"/>
<polygon fill="none" stroke="black" points="219,-255 0,-255 0,-127 219,-127 219,-255"/>
<text text-anchor="start" x="31.5" y="-206.8" font-family="Times New Roman,serif" font-weight="bold" font-size="24.00">Indo&#45;European</text>
<text text-anchor="start" x="45.5" y="-170.6" font-family="Times New Roman,serif" font-size="18.00" fill="red">gher&#45;</text>
<text text-anchor="start" x="120" y="-180.2" font-family="Times New Roman,serif" font-size="16.00">to grasp,</text>
<text text-anchor="start" x="123.5" y="-162.2" font-family="Times New Roman,serif" font-size="16.00">enclose</text>
</a>
</g>
</g>
<!-- link1 -->
<g id="node2" class="node">
<title>link1</title>
<g id="a_node2"><a xlink:href="gher-grasp1.svg" xlink:title="ghor&#45;dho&#45;, ghr̥&#45;dh&#45;, ghr̥&#45;dh&#45;o&#45;">
<path fill="none" stroke="black" stroke-dasharray="5,2" d="M85,-91C85,-91 22,-91 22,-91 16,-91 10,-85 10,-79 10,-79 10,-12 10,-12 10,-6 16,0 22,0 22,0 85,0 85,0 91,0 97,-6 97,-12 97,-12 97,-79 97,-79 97,-85 91,-91 85,-91"/>
<text text-anchor="start" x="25.5" y="-68.3" font-family="Times New Roman,serif" font-size="14.00" fill="red">ghor&#45;dho&#45;</text>
<text text-anchor="start" x="33" y="-41.3" font-family="Times New Roman,serif" font-size="14.00" fill="red">ghr̥&#45;dh&#45;</text>
<text text-anchor="start" x="27" y="-14.3" font-family="Times New Roman,serif" font-size="14.00" fill="red">ghr̥&#45;dh&#45;o&#45;</text>
</a>
</g>
</g>
<!-- gher&#45;&gt;link1 -->
<g id="edge1" class="edge">
<title>gher&#45;&gt;link1</title>
<path fill="none" stroke="black" d="M109.5,-126C109.5,-126 101.17,-114.18 90.94,-99.65"/>
<polygon fill="black" stroke="black" points="93.72,-97.52 85.1,-91.36 88,-101.55 93.72,-97.52"/>
</g>
<!-- link2 -->
<g id="node3" class="node">
<title>link2</title>
<g id="a_node3"><a xlink:href="gher-grasp2.svg" xlink:title="ghor&#45;o&#45;, ko(m)&#45;ghr̥&#45;ti&#45;">
<path fill="none" stroke="black" stroke-dasharray="5,2" d="M206,-77.5C206,-77.5 127,-77.5 127,-77.5 121,-77.5 115,-71.5 115,-65.5 115,-65.5 115,-25.5 115,-25.5 115,-19.5 121,-13.5 127,-13.5 127,-13.5 206,-13.5 206,-13.5 212,-13.5 218,-19.5 218,-25.5 218,-25.5 218,-65.5 218,-65.5 218,-71.5 212,-77.5 206,-77.5"/>
<text text-anchor="start" x="145.5" y="-55.3" font-family="Times New Roman,serif" font-size="14.00" fill="red">ghor&#45;o&#45;</text>
<text text-anchor="start" x="130.5" y="-28.3" font-family="Times New Roman,serif" font-size="14.00" fill="red">ko(m)&#45;ghr̥&#45;ti&#45;</text>
</a>
</g>
</g>
<!-- gher&#45;&gt;link2 -->
<g id="edge2" class="edge">
<title>gher&#45;&gt;link2</title>
<path fill="none" stroke="black" d="M109.5,-126C109.5,-126 123.82,-106.03 138.11,-86.1"/>
<polygon fill="black" stroke="black" points="140.99,-88.09 143.97,-77.92 135.3,-84.01 140.99,-88.09"/>
</g>
</g>
</svg>
