<?xml version="1.0" encoding="UTF-8" standalone="no"?>
<!DOCTYPE svg PUBLIC "-//W3C//DTD SVG 1.1//EN"
 "http://www.w3.org/Graphics/SVG/1.1/DTD/svg11.dtd">
<!-- Generated by graphviz version 2.49.0 (20210828.1703)
 -->
<!-- Pages: 1 -->
<svg width="1160pt" height="813pt"
 viewBox="0.00 0.00 1160.00 813.00" xmlns="http://www.w3.org/2000/svg" xmlns:xlink="http://www.w3.org/1999/xlink">
<g id="graph0" class="graph" transform="scale(1 1) rotate(0) translate(4 809)">
<polygon fill="white" stroke="transparent" points="-4,4 -4,-809 1156,-809 1156,4 -4,4"/>
<!-- gher -->
<g id="node1" class="node">
<title>gher</title>
<g id="a_node1"><a xlink:href="gher-grasp0.svg" xlink:title="Indo&#45;European &quot;gher&#45;&quot; to grasp, enclose">
<path fill="none" stroke="black" stroke-dasharray="5,2" d="M1007.5,-805C1007.5,-805 858.5,-805 858.5,-805 852.5,-805 846.5,-799 846.5,-793 846.5,-793 846.5,-767 846.5,-767 846.5,-761 852.5,-755 858.5,-755 858.5,-755 1007.5,-755 1007.5,-755 1013.5,-755 1019.5,-761 1019.5,-767 1019.5,-767 1019.5,-793 1019.5,-793 1019.5,-799 1013.5,-805 1007.5,-805"/>
<text text-anchor="start" x="854.5" y="-782.8" font-family="Times New Roman,serif" font-weight="bold" font-size="24.00">Indo&#45;European</text>
<text text-anchor="start" x="862" y="-763.6" font-family="Times New Roman,serif" font-size="18.00" fill="red">gher&#45;</text>
<text text-anchor="start" x="900" y="-763.6" font-family="Times New Roman,serif" font-size="16.00">to grasp, enclose</text>
</a>
</g>
</g>
<!-- ghorto -->
<g id="node2" class="node">
<title>ghorto</title>
<text text-anchor="start" x="192" y="-695.8" font-family="Times New Roman,serif" font-size="14.00" fill="red">ghor&#45;to&#45;, ghor&#45;dho&#45;</text>
<text text-anchor="start" x="205.5" y="-683.4" font-family="Times New Roman,serif" font-size="12.00">enclosure, garden,</text>
<text text-anchor="start" x="222.5" y="-671.4" font-family="Times New Roman,serif" font-size="12.00">animal pen</text>
</g>
<!-- gher&#45;&gt;ghorto -->
<g id="edge1" class="edge">
<title>gher&#45;&gt;ghorto</title>
<path fill="none" stroke="black" d="M930,-754C930,-754 701.48,-736.05 519,-718 451.57,-711.33 374.85,-702.78 320.12,-696.52"/>
<polygon fill="black" stroke="black" points="320.5,-693.04 310.16,-695.37 319.7,-699.99 320.5,-693.04"/>
</g>
<!-- ghrdh -->
<g id="node3" class="node">
<title>ghrdh</title>
<text text-anchor="start" x="912" y="-683.3" font-family="Times New Roman,serif" font-size="14.00" fill="red">ghr̥&#45;dh&#45;</text>
</g>
<!-- gher&#45;&gt;ghrdh -->
<g id="edge2" class="edge">
<title>gher&#45;&gt;ghrdh</title>
<path fill="none" stroke="black" d="M930,-754C930,-754 930.92,-733.66 931.75,-715.57"/>
<polygon fill="black" stroke="black" points="935.25,-715.49 932.21,-705.34 928.26,-715.17 935.25,-715.49"/>
</g>
<!-- ghrdho -->
<g id="node4" class="node">
<title>ghrdho</title>
<text text-anchor="start" x="1014" y="-683.3" font-family="Times New Roman,serif" font-size="14.00" fill="red">ghr̥&#45;dh&#45;o&#45;</text>
</g>
<!-- gher&#45;&gt;ghrdho -->
<g id="edge3" class="edge">
<title>gher&#45;&gt;ghrdho</title>
<path fill="none" stroke="black" d="M930,-754C930,-754 971.14,-729.54 1003.33,-710.4"/>
<polygon fill="black" stroke="black" points="1005.32,-713.29 1012.13,-705.17 1001.74,-707.27 1005.32,-713.29"/>
</g>
<!-- gardazGm -->
<g id="node5" class="node">
<title>gardazGm</title>
<text text-anchor="start" x="343.5" y="-598.8" font-family="Times New Roman,serif" font-weight="bold" font-size="14.00">Germanic</text>
<text text-anchor="start" x="355.5" y="-584.8" font-family="Times New Roman,serif" font-size="14.00" fill="red">gardaz</text>
</g>
<!-- ghorto&#45;&gt;gardazGm -->
<g id="edge4" class="edge">
<title>ghorto&#45;&gt;gardazGm</title>
<path fill="none" stroke="black" d="M241,-663C241,-663 292.16,-637.23 331.02,-617.65"/>
<polygon fill="black" stroke="black" points="332.74,-620.71 340.09,-613.08 329.59,-614.45 332.74,-620.71"/>
</g>
<!-- hortusL -->
<g id="node13" class="node">
<title>hortusL</title>
<text text-anchor="start" x="179.5" y="-598.8" font-family="Times New Roman,serif" font-weight="bold" font-size="14.00">Latin</text>
<text text-anchor="start" x="160" y="-584.8" font-family="Times New Roman,serif" font-size="14.00" fill="red">hortus, ortus</text>
</g>
<!-- ghorto&#45;&gt;hortusL -->
<g id="edge38" class="edge">
<title>ghorto&#45;&gt;hortusL</title>
<path fill="none" stroke="black" d="M241,-663C241,-663 225.9,-640.52 213.2,-621.6"/>
<polygon fill="black" stroke="black" points="216.07,-619.6 207.59,-613.25 210.26,-623.51 216.07,-619.6"/>
</g>
<!-- gardonGm -->
<g id="node24" class="node">
<title>gardonGm</title>
<text text-anchor="start" x="57.5" y="-598.8" font-family="Times New Roman,serif" font-weight="bold" font-size="14.00">Germanic</text>
<text text-anchor="start" x="68" y="-584.8" font-family="Times New Roman,serif" font-size="14.00" fill="red">gardon</text>
</g>
<!-- ghorto&#45;&gt;gardonGm -->
<g id="edge23" class="edge">
<title>ghorto&#45;&gt;gardonGm</title>
<path fill="none" stroke="black" d="M241,-663C241,-663 180.8,-636.64 135.92,-616.99"/>
<polygon fill="black" stroke="black" points="137.17,-613.71 126.61,-612.91 134.36,-620.12 137.17,-613.71"/>
</g>
<!-- gurdjanGm -->
<g id="node40" class="node">
<title>gurdjanGm</title>
<text text-anchor="start" x="902.5" y="-399.8" font-family="Times New Roman,serif" font-weight="bold" font-size="14.00">Germanic</text>
<text text-anchor="start" x="912" y="-385.8" font-family="Times New Roman,serif" font-size="14.00" fill="red">gurdjan</text>
</g>
<!-- ghrdh&#45;&gt;gurdjanGm -->
<g id="edge40" class="edge">
<title>ghrdh&#45;&gt;gurdjanGm</title>
<path fill="none" stroke="black" d="M933,-668.79C933,-620.4 933,-482.87 933,-424.13"/>
<polygon fill="black" stroke="black" points="936.5,-424.12 933,-414.12 929.5,-424.12 936.5,-424.12"/>
</g>
<!-- grhahS -->
<g id="node50" class="node">
<title>grhahS</title>
<text text-anchor="start" x="1067" y="-604.8" font-family="Times New Roman,serif" font-weight="bold" font-size="14.00">Sanskrit</text>
<text text-anchor="start" x="1077.5" y="-590.8" font-family="Times New Roman,serif" font-size="14.00" fill="red">gṛhaḥ</text>
<text text-anchor="start" x="1080.5" y="-578.4" font-family="Times New Roman,serif" font-size="12.00">home</text>
</g>
<!-- ghrdho&#45;&gt;grhahS -->
<g id="edge50" class="edge">
<title>ghrdho&#45;&gt;grhahS</title>
<path fill="none" stroke="black" d="M1051.03,-668.65C1057.71,-657.08 1066.69,-641.54 1074.63,-627.8"/>
<polygon fill="black" stroke="black" points="1077.69,-629.5 1079.66,-619.09 1071.63,-626 1077.69,-629.5"/>
</g>
<!-- geardOE -->
<g id="node6" class="node">
<title>geardOE</title>
<text text-anchor="start" x="260.5" y="-498.8" font-family="Times New Roman,serif" font-weight="bold" font-size="14.00">Old English</text>
<text text-anchor="start" x="281.5" y="-484.8" font-family="Times New Roman,serif" font-size="14.00" fill="red">geard</text>
<text text-anchor="start" x="286.5" y="-472.4" font-family="Times New Roman,serif" font-size="12.00">yard</text>
</g>
<!-- gardazGm&#45;&gt;geardOE -->
<g id="edge5" class="edge">
<title>gardazGm&#45;&gt;geardOE</title>
<path fill="none" stroke="black" d="M377,-576C377,-576 348.37,-545.22 325.36,-520.49"/>
<polygon fill="black" stroke="black" points="327.81,-517.98 318.44,-513.05 322.69,-522.75 327.81,-517.98"/>
</g>
<!-- ortigardaz -->
<g id="node9" class="node">
<title>ortigardaz</title>
<text text-anchor="start" x="165.5" y="-485.3" font-family="Times New Roman,serif" font-size="14.00" fill="red">orti&#45;gardaz</text>
</g>
<!-- gardazGm&#45;&gt;ortigardaz -->
<g id="edge8" class="edge">
<title>gardazGm&#45;&gt;ortigardaz</title>
<path fill="none" stroke="black" d="M377,-576C377,-576 251.29,-526.01 215.44,-511.75"/>
<polygon fill="black" stroke="black" points="216.59,-508.44 206,-508 214,-514.95 216.59,-508.44"/>
</g>
<!-- gartoOG -->
<g id="node14" class="node">
<title>gartoOG</title>
<text text-anchor="start" x="481" y="-499.8" font-family="Times New Roman,serif" font-weight="bold" font-size="14.00">Old High</text>
<text text-anchor="start" x="483.5" y="-485.8" font-family="Times New Roman,serif" font-weight="bold" font-size="14.00">German</text>
<text text-anchor="start" x="494.5" y="-471.8" font-family="Times New Roman,serif" font-size="14.00" fill="red">garto</text>
</g>
<!-- gardazGm&#45;&gt;gartoOG -->
<g id="edge13" class="edge">
<title>gardazGm&#45;&gt;gartoOG</title>
<path fill="none" stroke="black" d="M377,-576C377,-576 424.79,-544.9 463,-520 463.4,-519.74 463.8,-519.48 464.2,-519.22"/>
<polygon fill="black" stroke="black" points="466.38,-521.98 472.84,-513.58 462.55,-516.11 466.38,-521.98"/>
</g>
<!-- haimgardazGm -->
<g id="node30" class="node">
<title>haimgardazGm</title>
<text text-anchor="start" x="375" y="-491.8" font-family="Times New Roman,serif" font-size="14.00" fill="red">haimgardaz</text>
<text text-anchor="start" x="367.5" y="-479.4" font-family="Times New Roman,serif" font-size="12.00">&quot;home enclosure&quot;</text>
</g>
<!-- gardazGm&#45;&gt;haimgardazGm -->
<g id="edge29" class="edge">
<title>gardazGm&#45;&gt;haimgardazGm</title>
<path fill="none" stroke="black" d="M377,-576C377,-576 388.82,-542.12 397.62,-516.89"/>
<polygon fill="black" stroke="black" points="400.94,-518 400.93,-507.4 394.33,-515.69 400.94,-518"/>
</g>
<!-- gardhrON -->
<g id="node33" class="node">
<title>gardhrON</title>
<text text-anchor="start" x="661" y="-492.8" font-family="Times New Roman,serif" font-weight="bold" font-size="14.00">Old Norse</text>
<text text-anchor="start" x="674.5" y="-478.8" font-family="Times New Roman,serif" font-size="14.00" fill="red">gardhr</text>
</g>
<!-- gardazGm&#45;&gt;gardhrON -->
<g id="edge32" class="edge">
<title>gardazGm&#45;&gt;gardhrON</title>
<path fill="none" stroke="black" d="M377,-576C377,-576 531.31,-564.75 644,-520 649.27,-517.91 654.62,-515.26 659.75,-512.41"/>
<polygon fill="black" stroke="black" points="661.85,-515.24 668.69,-507.15 658.29,-509.21 661.85,-515.24"/>
</g>
<!-- yardeME -->
<g id="node7" class="node">
<title>yardeME</title>
<text text-anchor="start" x="279.5" y="-204.8" font-family="Times New Roman,serif" font-weight="bold" font-size="14.00">Middle</text>
<text text-anchor="start" x="278" y="-190.8" font-family="Times New Roman,serif" font-weight="bold" font-size="14.00">English</text>
<text text-anchor="start" x="285.5" y="-176.8" font-family="Times New Roman,serif" font-size="14.00" fill="red">yarde</text>
</g>
<!-- geardOE&#45;&gt;yardeME -->
<g id="edge6" class="edge">
<title>geardOE&#45;&gt;yardeME</title>
<path fill="none" stroke="black" d="M297.32,-464.52C298.03,-412.89 299.71,-289.34 300.53,-229.13"/>
<polygon fill="black" stroke="black" points="304.04,-229.05 300.67,-219 297.04,-228.95 304.04,-229.05"/>
</g>
<!-- yard -->
<g id="node8" class="node">
<title>yard</title>
<text text-anchor="start" x="277.5" y="-42.8" font-family="Times New Roman,serif" font-weight="bold" font-size="14.00">Modern</text>
<text text-anchor="start" x="279" y="-28.8" font-family="Times New Roman,serif" font-weight="bold" font-size="14.00">English</text>
<text text-anchor="start" x="289.5" y="-14.8" font-family="Times New Roman,serif" font-size="14.00" fill="red">yard</text>
</g>
<!-- yardeME&#45;&gt;yard -->
<g id="edge7" class="edge">
<title>yardeME&#45;&gt;yard</title>
<path fill="none" stroke="black" d="M301.15,-168.7C301.32,-141.64 301.6,-97.71 301.79,-67.19"/>
<polygon fill="black" stroke="black" points="305.29,-67.03 301.85,-57 298.29,-66.98 305.29,-67.03"/>
</g>
<!-- ortgeardOE -->
<g id="node10" class="node">
<title>ortgeardOE</title>
<text text-anchor="start" x="168.5" y="-405.8" font-family="Times New Roman,serif" font-weight="bold" font-size="14.00">Old English</text>
<text text-anchor="start" x="181.5" y="-391.8" font-family="Times New Roman,serif" font-size="14.00" fill="red">ortgeard</text>
<text text-anchor="start" x="179" y="-379.4" font-family="Times New Roman,serif" font-size="12.00">fruit garden</text>
</g>
<!-- ortigardaz&#45;&gt;ortgeardOE -->
<g id="edge10" class="edge">
<title>ortigardaz&#45;&gt;ortgeardOE</title>
<path fill="none" stroke="black" d="M197.69,-470.88C198.82,-459.48 200.34,-444.11 201.7,-430.34"/>
<polygon fill="black" stroke="black" points="205.2,-430.52 202.7,-420.22 198.24,-429.83 205.2,-430.52"/>
</g>
<!-- orchardME -->
<g id="node11" class="node">
<title>orchardME</title>
<text text-anchor="start" x="188.5" y="-204.8" font-family="Times New Roman,serif" font-weight="bold" font-size="14.00">Middle</text>
<text text-anchor="start" x="187" y="-190.8" font-family="Times New Roman,serif" font-weight="bold" font-size="14.00">English</text>
<text text-anchor="start" x="188" y="-176.8" font-family="Times New Roman,serif" font-size="14.00" fill="red">orchard</text>
</g>
<!-- ortgeardOE&#45;&gt;orchardME -->
<g id="edge11" class="edge">
<title>ortgeardOE&#45;&gt;orchardME</title>
<path fill="none" stroke="black" d="M205.58,-371.67C206.46,-336.57 208.13,-270 209.14,-229.35"/>
<polygon fill="black" stroke="black" points="212.65,-229.2 209.4,-219.12 205.65,-229.03 212.65,-229.2"/>
</g>
<!-- orchard -->
<g id="node12" class="node">
<title>orchard</title>
<text text-anchor="start" x="194.5" y="-42.8" font-family="Times New Roman,serif" font-weight="bold" font-size="14.00">Modern</text>
<text text-anchor="start" x="196" y="-28.8" font-family="Times New Roman,serif" font-weight="bold" font-size="14.00">English</text>
<text text-anchor="start" x="197" y="-14.8" font-family="Times New Roman,serif" font-size="14.00" fill="red">orchard</text>
</g>
<!-- orchardME&#45;&gt;orchard -->
<g id="edge12" class="edge">
<title>orchardME&#45;&gt;orchard</title>
<path fill="none" stroke="black" d="M211.37,-168.7C212.89,-141.64 215.36,-97.71 217.08,-67.19"/>
<polygon fill="black" stroke="black" points="220.58,-67.19 217.65,-57 213.59,-66.79 220.58,-67.19"/>
</g>
<!-- hortusL&#45;&gt;ortigardaz -->
<g id="edge9" class="edge">
<title>hortusL&#45;&gt;ortigardaz</title>
<path fill="none" stroke="black" stroke-dasharray="5,2" d="M195,-576C195,-576 201.32,-536.95 204.38,-518.03"/>
<polygon fill="black" stroke="black" points="207.86,-518.43 206,-508 200.95,-517.31 207.86,-518.43"/>
<text text-anchor="middle" x="204.5" y="-541.8" font-family="Times New Roman,serif" font-size="14.00">?</text>
</g>
<!-- horticulture -->
<g id="node39" class="node">
<title>horticulture</title>
<text text-anchor="start" x="103.5" y="-42.8" font-family="Times New Roman,serif" font-weight="bold" font-size="14.00">Modern</text>
<text text-anchor="start" x="105" y="-28.8" font-family="Times New Roman,serif" font-weight="bold" font-size="14.00">English</text>
<text text-anchor="start" x="96" y="-14.8" font-family="Times New Roman,serif" font-size="14.00" fill="red">horticulture</text>
</g>
<!-- hortusL&#45;&gt;horticulture -->
<g id="edge39" class="edge">
<title>hortusL&#45;&gt;horticulture</title>
<path fill="none" stroke="black" stroke-dasharray="5,2" d="M195,-576C195,-576 128,-538.45 128,-490 128,-490 128,-490 128,-125 128,-105.95 128,-84.69 128,-67.4"/>
<polygon fill="black" stroke="black" points="131.5,-67.21 128,-57.21 124.5,-67.21 131.5,-67.21"/>
</g>
<!-- garteMG -->
<g id="node15" class="node">
<title>garteMG</title>
<text text-anchor="start" x="472.5" y="-406.8" font-family="Times New Roman,serif" font-weight="bold" font-size="14.00">Middle</text>
<text text-anchor="start" x="452" y="-392.8" font-family="Times New Roman,serif" font-weight="bold" font-size="14.00">High German</text>
<text text-anchor="start" x="480" y="-378.8" font-family="Times New Roman,serif" font-size="14.00" fill="red">garte</text>
</g>
<!-- gartoOG&#45;&gt;garteMG -->
<g id="edge14" class="edge">
<title>gartoOG&#45;&gt;garteMG</title>
<path fill="none" stroke="black" d="M504.98,-463.61C503.34,-453.64 501.41,-441.93 499.63,-431.13"/>
<polygon fill="black" stroke="black" points="503.06,-430.44 497.98,-421.14 496.15,-431.57 503.06,-430.44"/>
</g>
<!-- gartenG -->
<g id="node16" class="node">
<title>gartenG</title>
<text text-anchor="start" x="485.5" y="-265.8" font-family="Times New Roman,serif" font-weight="bold" font-size="14.00">German</text>
<text text-anchor="start" x="492" y="-251.8" font-family="Times New Roman,serif" font-size="14.00" fill="red">Garten</text>
</g>
<!-- garteMG&#45;&gt;gartenG -->
<g id="edge15" class="edge">
<title>garteMG&#45;&gt;gartenG</title>
<path fill="none" stroke="black" d="M497.12,-370.79C500.04,-348.07 504.42,-314.13 507.47,-290.42"/>
<polygon fill="black" stroke="black" points="510.96,-290.69 508.77,-280.32 504.02,-289.8 510.96,-290.69"/>
</g>
<!-- kindergartenG -->
<g id="node22" class="node">
<title>kindergartenG</title>
<text text-anchor="start" x="519" y="-129.8" font-family="Times New Roman,serif" font-size="14.00" fill="red">Kindergarten</text>
<text text-anchor="start" x="517" y="-114.8" font-family="Times New Roman,serif" font-size="14.00" fill="red">Kindergärtner</text>
</g>
<!-- gartenG&#45;&gt;kindergartenG -->
<g id="edge20" class="edge">
<title>gartenG&#45;&gt;kindergartenG</title>
<path fill="none" stroke="black" d="M517.68,-243.53C527.11,-218.9 543.97,-174.82 551.36,-155.5"/>
<polygon fill="black" stroke="black" points="554.7,-156.59 555,-146 548.16,-154.09 554.7,-156.59"/>
</g>
<!-- genIE -->
<g id="node17" class="node">
<title>genIE</title>
<g id="a_node17"><a xlink:href="gen-birth1.svg" xlink:title="&lt;b&gt;Indo&#45;&lt;br/&gt;European&lt;/b&gt;&lt;br/&gt;&lt;font color=&quot;red&quot;&gt;gen&#45;, gon&#45;, gn̥&#45;&lt;/font&gt;&lt;br/&gt;&lt;font point&#45;size=&quot;12&quot;&gt;to beget, give birth, be born&lt;/font&gt;">
<path fill="none" stroke="black" stroke-dasharray="5,2" d="M658,-718C658,-718 540,-718 540,-718 534,-718 528,-712 528,-706 528,-706 528,-668 528,-668 528,-662 534,-656 540,-656 540,-656 658,-656 658,-656 664,-656 670,-662 670,-668 670,-668 670,-706 670,-706 670,-712 664,-718 658,-718"/>
<text text-anchor="start" x="582.5" y="-703.8" font-family="Times New Roman,serif" font-weight="bold" font-size="14.00">Indo&#45;</text>
<text text-anchor="start" x="568.5" y="-689.8" font-family="Times New Roman,serif" font-weight="bold" font-size="14.00">European</text>
<text text-anchor="start" x="557.5" y="-675.8" font-family="Times New Roman,serif" font-size="14.00" fill="red">gen&#45;, gon&#45;, gn̥&#45;</text>
<text text-anchor="start" x="536" y="-663.4" font-family="Times New Roman,serif" font-size="12.00">to beget, give birth, be born</text>
</a>
</g>
</g>
<!-- kenthamGm -->
<g id="node18" class="node">
<title>kenthamGm</title>
<text text-anchor="start" x="568.5" y="-598.8" font-family="Times New Roman,serif" font-weight="bold" font-size="14.00">Germanic</text>
<text text-anchor="start" x="575.5" y="-584.8" font-family="Times New Roman,serif" font-size="14.00" fill="red">kentham</text>
</g>
<!-- genIE&#45;&gt;kenthamGm -->
<g id="edge16" class="edge">
<title>genIE&#45;&gt;kenthamGm</title>
<path fill="none" stroke="black" d="M599,-655.53C599,-645.01 599,-633.3 599,-623.07"/>
<polygon fill="black" stroke="black" points="602.5,-623.05 599,-613.05 595.5,-623.05 602.5,-623.05"/>
</g>
<!-- kindOG -->
<g id="node19" class="node">
<title>kindOG</title>
<text text-anchor="start" x="571" y="-505.8" font-family="Times New Roman,serif" font-weight="bold" font-size="14.00">Old High</text>
<text text-anchor="start" x="573.5" y="-491.8" font-family="Times New Roman,serif" font-weight="bold" font-size="14.00">German</text>
<text text-anchor="start" x="586.5" y="-477.8" font-family="Times New Roman,serif" font-size="14.00" fill="red">kind</text>
<text text-anchor="start" x="588" y="-465.4" font-family="Times New Roman,serif" font-size="12.00">child</text>
</g>
<!-- kenthamGm&#45;&gt;kindOG -->
<g id="edge17" class="edge">
<title>kenthamGm&#45;&gt;kindOG</title>
<path fill="none" stroke="black" d="M599,-576.83C599,-564.24 599,-546.61 599,-530.52"/>
<polygon fill="black" stroke="black" points="602.5,-530.24 599,-520.24 595.5,-530.24 602.5,-530.24"/>
</g>
<!-- kintMG -->
<g id="node20" class="node">
<title>kintMG</title>
<text text-anchor="start" x="570" y="-406.8" font-family="Times New Roman,serif" font-weight="bold" font-size="14.00">Middle High</text>
<text text-anchor="start" x="582.5" y="-392.8" font-family="Times New Roman,serif" font-weight="bold" font-size="14.00">German</text>
<text text-anchor="start" x="597.5" y="-378.8" font-family="Times New Roman,serif" font-size="14.00" fill="red">kint</text>
</g>
<!-- kindOG&#45;&gt;kintMG -->
<g id="edge18" class="edge">
<title>kindOG&#45;&gt;kintMG</title>
<path fill="none" stroke="black" d="M601.97,-457.95C602.82,-449.39 603.75,-440.01 604.62,-431.22"/>
<polygon fill="black" stroke="black" points="608.1,-431.56 605.6,-421.27 601.13,-430.87 608.1,-431.56"/>
</g>
<!-- kindG -->
<g id="node21" class="node">
<title>kindG</title>
<text text-anchor="start" x="574.5" y="-265.8" font-family="Times New Roman,serif" font-weight="bold" font-size="14.00">German</text>
<text text-anchor="start" x="586" y="-251.8" font-family="Times New Roman,serif" font-size="14.00" fill="red">Kind</text>
</g>
<!-- kintMG&#45;&gt;kindG -->
<g id="edge19" class="edge">
<title>kintMG&#45;&gt;kindG</title>
<path fill="none" stroke="black" d="M606.53,-370.79C605.16,-348.07 603.1,-314.13 601.66,-290.42"/>
<polygon fill="black" stroke="black" points="605.15,-290.09 601.05,-280.32 598.16,-290.52 605.15,-290.09"/>
</g>
<!-- kindG&#45;&gt;kindergartenG -->
<g id="edge21" class="edge">
<title>kindG&#45;&gt;kindergartenG</title>
<path fill="none" stroke="black" d="M593.17,-243.53C583.53,-218.9 566.28,-174.82 558.72,-155.5"/>
<polygon fill="black" stroke="black" points="561.9,-154.04 555,-146 555.38,-156.59 561.9,-154.04"/>
</g>
<!-- kindergarten -->
<g id="node23" class="node">
<title>kindergarten</title>
<text text-anchor="start" x="530.5" y="-49.8" font-family="Times New Roman,serif" font-weight="bold" font-size="14.00">Modern</text>
<text text-anchor="start" x="532" y="-35.8" font-family="Times New Roman,serif" font-weight="bold" font-size="14.00">English</text>
<text text-anchor="start" x="520.5" y="-21.8" font-family="Times New Roman,serif" font-size="14.00" fill="red">kindergarten</text>
<text text-anchor="start" x="518.5" y="-7.8" font-family="Times New Roman,serif" font-size="14.00" fill="red">kindergartner</text>
</g>
<!-- kindergartenG&#45;&gt;kindergarten -->
<g id="edge22" class="edge">
<title>kindergartenG&#45;&gt;kindergarten</title>
<path fill="none" stroke="black" stroke-dasharray="5,2" d="M555,-106.82C555,-97.52 555,-85.79 555,-74.43"/>
<polygon fill="black" stroke="black" points="558.5,-74.19 555,-64.19 551.5,-74.19 558.5,-74.19"/>
</g>
<!-- gardoFk -->
<g id="node25" class="node">
<title>gardoFk</title>
<text text-anchor="start" x="33" y="-492.8" font-family="Times New Roman,serif" font-weight="bold" font-size="14.00">Frankish</text>
<text text-anchor="start" x="41" y="-478.8" font-family="Times New Roman,serif" font-size="14.00" fill="red">*gardo</text>
</g>
<!-- gardonGm&#45;&gt;gardoFk -->
<g id="edge24" class="edge">
<title>gardonGm&#45;&gt;gardoFk</title>
<path fill="none" stroke="black" d="M83.54,-576.83C79.32,-560.57 72.92,-535.9 68.01,-517.01"/>
<polygon fill="black" stroke="black" points="71.37,-516 65.47,-507.2 64.59,-517.76 71.37,-516"/>
</g>
<!-- gardoGL -->
<g id="node26" class="node">
<title>gardoGL</title>
<text text-anchor="start" x="14.5" y="-399.8" font-family="Times New Roman,serif" font-weight="bold" font-size="14.00">Gallo&#45;Latin</text>
<text text-anchor="start" x="8" y="-385.8" font-family="Times New Roman,serif" font-size="14.00" fill="red">gardō, gardīnō</text>
</g>
<!-- gardoFk&#45;&gt;gardoGL -->
<g id="edge25" class="edge">
<title>gardoFk&#45;&gt;gardoGL</title>
<path fill="none" stroke="black" stroke-dasharray="5,2" d="M58.93,-470.88C57.35,-457.79 55.13,-439.48 53.31,-424.36"/>
<polygon fill="black" stroke="black" points="56.73,-423.55 52.06,-414.04 49.79,-424.39 56.73,-423.55"/>
</g>
<!-- gardinOF -->
<g id="node27" class="node">
<title>gardinOF</title>
<text text-anchor="start" x="15.5" y="-272.8" font-family="Times New Roman,serif" font-weight="bold" font-size="14.00">Old North</text>
<text text-anchor="start" x="25" y="-258.8" font-family="Times New Roman,serif" font-weight="bold" font-size="14.00">French</text>
<text text-anchor="start" x="29.5" y="-244.8" font-family="Times New Roman,serif" font-size="14.00" fill="red">gardin</text>
</g>
<!-- gardoGL&#45;&gt;gardinOF -->
<g id="edge26" class="edge">
<title>gardoGL&#45;&gt;gardinOF</title>
<path fill="none" stroke="black" d="M49.61,-377.74C49.15,-357.47 48.37,-323.35 47.79,-297.57"/>
<polygon fill="black" stroke="black" points="51.28,-297.36 47.56,-287.45 44.28,-297.52 51.28,-297.36"/>
</g>
<!-- gardinME -->
<g id="node28" class="node">
<title>gardinME</title>
<text text-anchor="start" x="16.5" y="-136.8" font-family="Times New Roman,serif" font-weight="bold" font-size="14.00">Middle</text>
<text text-anchor="start" x="15" y="-122.8" font-family="Times New Roman,serif" font-weight="bold" font-size="14.00">English</text>
<text text-anchor="start" x="20.5" y="-108.8" font-family="Times New Roman,serif" font-size="14.00" fill="red">gardin</text>
</g>
<!-- gardinOF&#45;&gt;gardinME -->
<g id="edge27" class="edge">
<title>gardinOF&#45;&gt;gardinME</title>
<path fill="none" stroke="black" stroke-dasharray="5,2" d="M45.37,-236.73C43.96,-215.67 41.89,-184.95 40.31,-161.36"/>
<polygon fill="black" stroke="black" points="43.78,-160.83 39.62,-151.09 36.8,-161.3 43.78,-160.83"/>
</g>
<!-- garden -->
<g id="node29" class="node">
<title>garden</title>
<text text-anchor="start" x="12.5" y="-42.8" font-family="Times New Roman,serif" font-weight="bold" font-size="14.00">Modern</text>
<text text-anchor="start" x="14" y="-28.8" font-family="Times New Roman,serif" font-weight="bold" font-size="14.00">English</text>
<text text-anchor="start" x="18" y="-14.8" font-family="Times New Roman,serif" font-size="14.00" fill="red">garden</text>
</g>
<!-- gardinME&#45;&gt;garden -->
<g id="edge28" class="edge">
<title>gardinME&#45;&gt;garden</title>
<path fill="none" stroke="black" d="M37.74,-100.83C37.63,-90.58 37.49,-78.45 37.37,-67.3"/>
<polygon fill="black" stroke="black" points="40.87,-66.97 37.26,-57.01 33.87,-67.05 40.87,-66.97"/>
</g>
<!-- hangardOF -->
<g id="node31" class="node">
<title>hangardOF</title>
<text text-anchor="start" x="372" y="-203.8" font-family="Times New Roman,serif" font-weight="bold" font-size="14.00">Old French</text>
<text text-anchor="start" x="384.5" y="-189.8" font-family="Times New Roman,serif" font-size="14.00" fill="red">hangard</text>
<text text-anchor="start" x="392" y="-177.4" font-family="Times New Roman,serif" font-size="12.00">shelter</text>
</g>
<!-- haimgardazGm&#45;&gt;hangardOF -->
<g id="edge30" class="edge">
<title>haimgardazGm&#45;&gt;hangardOF</title>
<path fill="none" stroke="black" stroke-dasharray="5,2" d="M407,-470.98C407,-423.87 407,-291.13 407,-228.5"/>
<polygon fill="black" stroke="black" points="410.5,-228.37 407,-218.37 403.5,-228.37 410.5,-228.37"/>
</g>
<!-- hangar -->
<g id="node32" class="node">
<title>hangar</title>
<text text-anchor="start" x="382.5" y="-42.8" font-family="Times New Roman,serif" font-weight="bold" font-size="14.00">Modern</text>
<text text-anchor="start" x="384" y="-28.8" font-family="Times New Roman,serif" font-weight="bold" font-size="14.00">English</text>
<text text-anchor="start" x="388.5" y="-14.8" font-family="Times New Roman,serif" font-size="14.00" fill="red">hangar</text>
</g>
<!-- hangardOF&#45;&gt;hangar -->
<g id="edge31" class="edge">
<title>hangardOF&#45;&gt;hangar</title>
<path fill="none" stroke="black" stroke-dasharray="5,2" d="M407,-169.73C407,-142.83 407,-98.29 407,-67.39"/>
<polygon fill="black" stroke="black" points="410.5,-67.08 407,-57.08 403.5,-67.08 410.5,-67.08"/>
</g>
<!-- asgardhr -->
<g id="node34" class="node">
<title>asgardhr</title>
<text text-anchor="start" x="651" y="-331.8" font-family="Times New Roman,serif" font-size="14.00" fill="red">Āsgardhr</text>
<text text-anchor="start" x="636" y="-319.4" font-family="Times New Roman,serif" font-size="12.00">&quot;zone of the gods&quot;</text>
</g>
<!-- gardhrON&#45;&gt;asgardhr -->
<g id="edge33" class="edge">
<title>gardhrON&#45;&gt;asgardhr</title>
<path fill="none" stroke="black" d="M697,-470C697,-470 686.71,-397.99 680.89,-357.26"/>
<polygon fill="black" stroke="black" points="684.33,-356.57 679.45,-347.17 677.4,-357.56 684.33,-356.57"/>
</g>
<!-- midhgardhr -->
<g id="node37" class="node">
<title>midhgardhr</title>
<text text-anchor="start" x="719" y="-398.8" font-family="Times New Roman,serif" font-size="14.00" fill="red">Midhgardhr</text>
<text text-anchor="start" x="721" y="-386.4" font-family="Times New Roman,serif" font-size="12.00">&quot;middle zone&quot;</text>
</g>
<!-- gardhrON&#45;&gt;midhgardhr -->
<g id="edge35" class="edge">
<title>gardhrON&#45;&gt;midhgardhr</title>
<path fill="none" stroke="black" d="M697,-470C697,-470 726.31,-437.76 740.05,-422.65"/>
<polygon fill="black" stroke="black" points="742.86,-424.75 747,-415 737.68,-420.05 742.86,-424.75"/>
</g>
<!-- asgard -->
<g id="node35" class="node">
<title>asgard</title>
<text text-anchor="start" x="644.5" y="-42.8" font-family="Times New Roman,serif" font-weight="bold" font-size="14.00">Modern</text>
<text text-anchor="start" x="646" y="-28.8" font-family="Times New Roman,serif" font-weight="bold" font-size="14.00">English</text>
<text text-anchor="start" x="648.5" y="-14.8" font-family="Times New Roman,serif" font-size="14.00" fill="red">Asgard</text>
</g>
<!-- asgardhr&#45;&gt;asgard -->
<g id="edge34" class="edge">
<title>asgardhr&#45;&gt;asgard</title>
<path fill="none" stroke="black" stroke-dasharray="5,2" d="M676.54,-310.86C675.26,-263.67 671.66,-131.1 669.94,-67.66"/>
<polygon fill="black" stroke="black" points="673.43,-67.28 669.66,-57.38 666.43,-67.47 673.43,-67.28"/>
</g>
<!-- medhyo -->
<g id="node36" class="node">
<title>medhyo</title>
<g id="a_node36"><a xlink:href="medhyo-middle1.svg" xlink:title="&lt;b&gt;Indo&#45;&lt;br/&gt;European&lt;/b&gt;&lt;br/&gt;&lt;font color=&quot;red&quot;&gt;medhyo&#45;&lt;/font&gt;&lt;br/&gt;&lt;font point&#45;size=&quot;12&quot;&gt;middle&lt;/font&gt;">
<path fill="none" stroke="black" stroke-dasharray="5,2" d="M787.5,-718C787.5,-718 734.5,-718 734.5,-718 728.5,-718 722.5,-712 722.5,-706 722.5,-706 722.5,-668 722.5,-668 722.5,-662 728.5,-656 734.5,-656 734.5,-656 787.5,-656 787.5,-656 793.5,-656 799.5,-662 799.5,-668 799.5,-668 799.5,-706 799.5,-706 799.5,-712 793.5,-718 787.5,-718"/>
<text text-anchor="start" x="744.5" y="-703.8" font-family="Times New Roman,serif" font-weight="bold" font-size="14.00">Indo&#45;</text>
<text text-anchor="start" x="730.5" y="-689.8" font-family="Times New Roman,serif" font-weight="bold" font-size="14.00">European</text>
<text text-anchor="start" x="736" y="-675.8" font-family="Times New Roman,serif" font-size="14.00" fill="red">medhyo&#45;</text>
<text text-anchor="start" x="745.5" y="-663.4" font-family="Times New Roman,serif" font-size="12.00">middle</text>
</a>
</g>
</g>
<!-- medhyo&#45;&gt;midhgardhr -->
<g id="edge36" class="edge">
<title>medhyo&#45;&gt;midhgardhr</title>
<path fill="none" stroke="black" d="M759.45,-655.96C756.34,-595.74 749.47,-462.78 747.52,-425.12"/>
<polygon fill="black" stroke="black" points="751.01,-424.81 747,-415 744.02,-425.17 751.01,-424.81"/>
</g>
<!-- midgard -->
<g id="node38" class="node">
<title>midgard</title>
<text text-anchor="start" x="727.5" y="-42.8" font-family="Times New Roman,serif" font-weight="bold" font-size="14.00">Modern</text>
<text text-anchor="start" x="729" y="-28.8" font-family="Times New Roman,serif" font-weight="bold" font-size="14.00">English</text>
<text text-anchor="start" x="728" y="-14.8" font-family="Times New Roman,serif" font-size="14.00" fill="red">Midgard</text>
</g>
<!-- midhgardhr&#45;&gt;midgard -->
<g id="edge37" class="edge">
<title>midhgardhr&#45;&gt;midgard</title>
<path fill="none" stroke="black" stroke-dasharray="5,2" d="M752,-377.54C752,-321.14 752,-143.11 752,-67.5"/>
<polygon fill="black" stroke="black" points="755.5,-67.12 752,-57.12 748.5,-67.12 755.5,-67.12"/>
</g>
<!-- gyrdanOE -->
<g id="node41" class="node">
<title>gyrdanOE</title>
<text text-anchor="start" x="999.5" y="-271.8" font-family="Times New Roman,serif" font-weight="bold" font-size="14.00">Old English</text>
<text text-anchor="start" x="1016.5" y="-257.8" font-family="Times New Roman,serif" font-size="14.00" fill="red">gyrdan</text>
<text text-anchor="start" x="1021" y="-245.4" font-family="Times New Roman,serif" font-size="12.00">to gird</text>
</g>
<!-- gurdjanGm&#45;&gt;gyrdanOE -->
<g id="edge41" class="edge">
<title>gurdjanGm&#45;&gt;gyrdanOE</title>
<path fill="none" stroke="black" d="M933,-377C933,-377 977.62,-327.62 1008.12,-293.85"/>
<polygon fill="black" stroke="black" points="1011.05,-295.84 1015.16,-286.07 1005.86,-291.14 1011.05,-295.84"/>
</g>
<!-- gyrdelOE -->
<g id="node44" class="node">
<title>gyrdelOE</title>
<text text-anchor="start" x="793.5" y="-271.8" font-family="Times New Roman,serif" font-weight="bold" font-size="14.00">Old English</text>
<text text-anchor="start" x="812.5" y="-257.8" font-family="Times New Roman,serif" font-size="14.00" fill="red">gyrdel</text>
<text text-anchor="start" x="817.5" y="-245.4" font-family="Times New Roman,serif" font-size="12.00">girdle</text>
</g>
<!-- gurdjanGm&#45;&gt;gyrdelOE -->
<g id="edge44" class="edge">
<title>gurdjanGm&#45;&gt;gyrdelOE</title>
<path fill="none" stroke="black" d="M933,-377C933,-377 888.38,-327.62 857.88,-293.85"/>
<polygon fill="black" stroke="black" points="860.14,-291.14 850.84,-286.07 854.95,-295.84 860.14,-291.14"/>
</g>
<!-- gjordhON -->
<g id="node47" class="node">
<title>gjordhON</title>
<text text-anchor="start" x="901" y="-265.8" font-family="Times New Roman,serif" font-weight="bold" font-size="14.00">Old Norse</text>
<text text-anchor="start" x="914.5" y="-251.8" font-family="Times New Roman,serif" font-size="14.00" fill="red">gjördh</text>
</g>
<!-- gurdjanGm&#45;&gt;gjordhON -->
<g id="edge47" class="edge">
<title>gurdjanGm&#45;&gt;gjordhON</title>
<path fill="none" stroke="black" d="M933,-377C933,-377 933,-324.24 933,-290.51"/>
<polygon fill="black" stroke="black" points="936.5,-290.31 933,-280.31 929.5,-290.31 936.5,-290.31"/>
</g>
<!-- girdenME -->
<g id="node42" class="node">
<title>girdenME</title>
<text text-anchor="start" x="1011.5" y="-136.8" font-family="Times New Roman,serif" font-weight="bold" font-size="14.00">Middle</text>
<text text-anchor="start" x="1010" y="-122.8" font-family="Times New Roman,serif" font-weight="bold" font-size="14.00">English</text>
<text text-anchor="start" x="1015.5" y="-108.8" font-family="Times New Roman,serif" font-size="14.00" fill="red">girden</text>
</g>
<!-- gyrdanOE&#45;&gt;girdenME -->
<g id="edge42" class="edge">
<title>gyrdanOE&#45;&gt;girdenME</title>
<path fill="none" stroke="black" d="M1035.48,-237.96C1035.01,-216.85 1034.31,-185.29 1033.77,-161.22"/>
<polygon fill="black" stroke="black" points="1037.26,-161.01 1033.54,-151.09 1030.26,-161.17 1037.26,-161.01"/>
</g>
<!-- gird -->
<g id="node43" class="node">
<title>gird</title>
<text text-anchor="start" x="1005.5" y="-49.8" font-family="Times New Roman,serif" font-weight="bold" font-size="14.00">Modern</text>
<text text-anchor="start" x="1007" y="-35.8" font-family="Times New Roman,serif" font-weight="bold" font-size="14.00">English</text>
<text text-anchor="start" x="1019" y="-21.8" font-family="Times New Roman,serif" font-size="14.00" fill="red">gird</text>
<text text-anchor="start" x="1020.5" y="-7.8" font-family="Times New Roman,serif" font-size="14.00" fill="red">girt</text>
</g>
<!-- girdenME&#45;&gt;gird -->
<g id="edge43" class="edge">
<title>girdenME&#45;&gt;gird</title>
<path fill="none" stroke="black" d="M1032.21,-100.83C1031.95,-92.71 1031.64,-83.4 1031.35,-74.34"/>
<polygon fill="black" stroke="black" points="1034.84,-74.17 1031.02,-64.29 1027.85,-74.4 1034.84,-74.17"/>
</g>
<!-- girdelME -->
<g id="node45" class="node">
<title>girdelME</title>
<text text-anchor="start" x="812.5" y="-136.8" font-family="Times New Roman,serif" font-weight="bold" font-size="14.00">Middle</text>
<text text-anchor="start" x="811" y="-122.8" font-family="Times New Roman,serif" font-weight="bold" font-size="14.00">English</text>
<text text-anchor="start" x="818.5" y="-108.8" font-family="Times New Roman,serif" font-size="14.00" fill="red">girdel</text>
</g>
<!-- gyrdelOE&#45;&gt;girdelME -->
<g id="edge45" class="edge">
<title>gyrdelOE&#45;&gt;girdelME</title>
<path fill="none" stroke="black" d="M830.69,-237.96C831.32,-216.85 832.26,-185.29 832.98,-161.22"/>
<polygon fill="black" stroke="black" points="836.48,-161.19 833.28,-151.09 829.48,-160.98 836.48,-161.19"/>
</g>
<!-- girdle -->
<g id="node46" class="node">
<title>girdle</title>
<text text-anchor="start" x="810.5" y="-42.8" font-family="Times New Roman,serif" font-weight="bold" font-size="14.00">Modern</text>
<text text-anchor="start" x="812" y="-28.8" font-family="Times New Roman,serif" font-weight="bold" font-size="14.00">English</text>
<text text-anchor="start" x="819.5" y="-14.8" font-family="Times New Roman,serif" font-size="14.00" fill="red">girdle</text>
</g>
<!-- girdelME&#45;&gt;girdle -->
<g id="edge46" class="edge">
<title>girdelME&#45;&gt;girdle</title>
<path fill="none" stroke="black" d="M834.26,-100.83C834.37,-90.58 834.51,-78.45 834.63,-67.3"/>
<polygon fill="black" stroke="black" points="838.13,-67.05 834.74,-57.01 831.13,-66.97 838.13,-67.05"/>
</g>
<!-- gerthME -->
<g id="node48" class="node">
<title>gerthME</title>
<text text-anchor="start" x="911.5" y="-136.8" font-family="Times New Roman,serif" font-weight="bold" font-size="14.00">Middle</text>
<text text-anchor="start" x="910" y="-122.8" font-family="Times New Roman,serif" font-weight="bold" font-size="14.00">English</text>
<text text-anchor="start" x="919" y="-108.8" font-family="Times New Roman,serif" font-size="14.00" fill="red">gerth</text>
</g>
<!-- gjordhON&#45;&gt;gerthME -->
<g id="edge48" class="edge">
<title>gjordhON&#45;&gt;gerthME</title>
<path fill="none" stroke="black" stroke-dasharray="5,2" d="M933,-243.76C933,-223.13 933,-188.09 933,-161.77"/>
<polygon fill="black" stroke="black" points="936.5,-161.44 933,-151.44 929.5,-161.44 936.5,-161.44"/>
</g>
<!-- girth -->
<g id="node49" class="node">
<title>girth</title>
<text text-anchor="start" x="908.5" y="-42.8" font-family="Times New Roman,serif" font-weight="bold" font-size="14.00">Modern</text>
<text text-anchor="start" x="910" y="-28.8" font-family="Times New Roman,serif" font-weight="bold" font-size="14.00">English</text>
<text text-anchor="start" x="920.5" y="-14.8" font-family="Times New Roman,serif" font-size="14.00" fill="red">girth</text>
</g>
<!-- gerthME&#45;&gt;girth -->
<g id="edge49" class="edge">
<title>gerthME&#45;&gt;girth</title>
<path fill="none" stroke="black" d="M933,-100.83C933,-90.58 933,-78.45 933,-67.3"/>
<polygon fill="black" stroke="black" points="936.5,-67.01 933,-57.01 929.5,-67.01 936.5,-67.01"/>
</g>
<!-- gajjhaP -->
<g id="node51" class="node">
<title>gajjhaP</title>
<text text-anchor="start" x="1083" y="-504.8" font-family="Times New Roman,serif" font-weight="bold" font-size="14.00">Prakrit</text>
<text text-anchor="start" x="1087.5" y="-490.8" font-family="Times New Roman,serif" font-size="14.00" fill="red">gājjha&#45;</text>
<text text-anchor="start" x="1085.5" y="-478.4" font-family="Times New Roman,serif" font-size="12.00">domestic</text>
<text text-anchor="start" x="1074" y="-466.4" font-family="Times New Roman,serif" font-size="12.00">(not itenerant)</text>
</g>
<!-- grhahS&#45;&gt;gajjhaP -->
<g id="edge51" class="edge">
<title>grhahS&#45;&gt;gajjhaP</title>
<path fill="none" stroke="black" d="M1095.89,-570.92C1097.41,-558.69 1099.33,-543.33 1101.09,-529.28"/>
<polygon fill="black" stroke="black" points="1104.56,-529.71 1102.33,-519.35 1097.62,-528.84 1104.56,-529.71"/>
</g>
<!-- gadjoR -->
<g id="node52" class="node">
<title>gadjoR</title>
<text text-anchor="start" x="1087.5" y="-338.8" font-family="Times New Roman,serif" font-weight="bold" font-size="14.00">Romani</text>
<text text-anchor="start" x="1096.5" y="-324.8" font-family="Times New Roman,serif" font-size="14.00" fill="red">gadjo</text>
<text text-anchor="start" x="1080" y="-312.4" font-family="Times New Roman,serif" font-size="12.00">a non&#45;Romani</text>
</g>
<!-- gajjhaP&#45;&gt;gadjoR -->
<g id="edge52" class="edge">
<title>gajjhaP&#45;&gt;gadjoR</title>
<path fill="none" stroke="black" d="M1107.11,-458.65C1108.14,-431.59 1109.67,-391.45 1110.74,-363.22"/>
<polygon fill="black" stroke="black" points="1114.24,-363.16 1111.13,-353.04 1107.25,-362.9 1114.24,-363.16"/>
</g>
<!-- gadjo -->
<g id="node53" class="node">
<title>gadjo</title>
<text text-anchor="start" x="1088.5" y="-49.8" font-family="Times New Roman,serif" font-weight="bold" font-size="14.00">Modern</text>
<text text-anchor="start" x="1090" y="-35.8" font-family="Times New Roman,serif" font-weight="bold" font-size="14.00">English</text>
<text text-anchor="start" x="1097.5" y="-21.8" font-family="Times New Roman,serif" font-size="14.00" fill="red">gadjo</text>
<text text-anchor="start" x="1088.5" y="-7.8" font-family="Times New Roman,serif" font-size="14.00">pl.</text>
<text text-anchor="start" x="1103.5" y="-7.8" font-family="Times New Roman,serif" font-size="14.00" fill="red"> gadje</text>
</g>
<!-- gadjoR&#45;&gt;gadjo -->
<g id="edge53" class="edge">
<title>gadjoR&#45;&gt;gadjo</title>
<path fill="none" stroke="black" stroke-dasharray="5,2" d="M1112.08,-304.85C1112.25,-255.16 1112.65,-137.69 1112.86,-74.67"/>
<polygon fill="black" stroke="black" points="1116.36,-74.31 1112.89,-64.3 1109.36,-74.29 1116.36,-74.31"/>
</g>
</g>
</svg>
