<?xml version="1.0" encoding="UTF-8" standalone="no"?>
<!DOCTYPE svg PUBLIC "-//W3C//DTD SVG 1.1//EN"
 "http://www.w3.org/Graphics/SVG/1.1/DTD/svg11.dtd">
<!-- Generated by graphviz version 2.49.0 (20210828.1703)
 -->
<!-- Pages: 1 -->
<svg width="1365pt" height="848pt"
 viewBox="0.00 0.00 1365.00 848.00" xmlns="http://www.w3.org/2000/svg" xmlns:xlink="http://www.w3.org/1999/xlink">
<g id="graph0" class="graph" transform="scale(1 1) rotate(0) translate(4 844)">
<polygon fill="white" stroke="transparent" points="-4,4 -4,-844 1361,-844 1361,4 -4,4"/>
<!-- gno -->
<g id="node1" class="node">
<title>gno</title>
<g id="a_node1"><a xlink:href="gno-know0.svg" xlink:title="Indo&#45;European &quot;*gnō&#45;&quot; to know">
<path fill="none" stroke="black" stroke-dasharray="5,2" d="M665.5,-840C665.5,-840 516.5,-840 516.5,-840 510.5,-840 504.5,-834 504.5,-828 504.5,-828 504.5,-802 504.5,-802 504.5,-796 510.5,-790 516.5,-790 516.5,-790 665.5,-790 665.5,-790 671.5,-790 677.5,-796 677.5,-802 677.5,-802 677.5,-828 677.5,-828 677.5,-834 671.5,-840 665.5,-840"/>
<text text-anchor="start" x="512.5" y="-817.8" font-family="Times New Roman,serif" font-weight="bold" font-size="24.00">Indo&#45;European</text>
<text text-anchor="start" x="542" y="-798.6" font-family="Times New Roman,serif" font-size="18.00" fill="red">*gnō&#45; </text>
<text text-anchor="start" x="588" y="-798.6" font-family="Times New Roman,serif" font-size="16.00">to know</text>
</a>
</g>
</g>
<!-- gnosko -->
<g id="node2" class="node">
<title>gnosko</title>
<text text-anchor="start" x="562" y="-719.3" font-family="Times New Roman,serif" font-size="14.00" fill="red">*gnō&#45;sko&#45;</text>
</g>
<!-- gno&#45;&gt;gnosko -->
<g id="edge1" class="edge">
<title>gno&#45;&gt;gnosko</title>
<path fill="none" stroke="black" d="M591,-789.88C591,-777.96 591,-763.53 591,-751.21"/>
<polygon fill="black" stroke="black" points="594.5,-751.05 591,-741.05 587.5,-751.05 594.5,-751.05"/>
</g>
<!-- gnoscereL -->
<g id="node3" class="node">
<title>gnoscereL</title>
<text text-anchor="start" x="574.5" y="-641.8" font-family="Times New Roman,serif" font-weight="bold" font-size="14.00">Latin</text>
<text text-anchor="start" x="561" y="-627.8" font-family="Times New Roman,serif" font-size="14.00" fill="red">(g)nōscere</text>
<text text-anchor="start" x="557.5" y="-615.4" font-family="Times New Roman,serif" font-size="12.00">to get to know</text>
</g>
<!-- gnosko&#45;&gt;gnoscereL -->
<g id="edge2" class="edge">
<title>gnosko&#45;&gt;gnoscereL</title>
<path fill="none" stroke="black" d="M591,-704.84C591,-693.92 591,-679.41 591,-666.29"/>
<polygon fill="black" stroke="black" points="594.5,-666.17 591,-656.17 587.5,-666.17 594.5,-666.17"/>
</g>
<!-- notusL -->
<g id="node4" class="node">
<title>notusL</title>
<text text-anchor="start" x="249.5" y="-388.8" font-family="Times New Roman,serif" font-size="14.00" fill="red">nōtus</text>
<text text-anchor="start" x="249.5" y="-376.4" font-family="Times New Roman,serif" font-size="12.00">known</text>
</g>
<!-- gnoscereL&#45;&gt;notusL -->
<g id="edge3" class="edge">
<title>gnoscereL&#45;&gt;notusL</title>
<path fill="none" stroke="black" d="M560.04,-607.83C497.95,-561.36 358.87,-457.26 296.41,-410.51"/>
<polygon fill="black" stroke="black" points="298.23,-407.5 288.12,-404.31 294.03,-413.1 298.23,-407.5"/>
</g>
<!-- cognoscereL -->
<g id="node20" class="node">
<title>cognoscereL</title>
<text text-anchor="start" x="774.5" y="-550.8" font-family="Times New Roman,serif" font-size="14.00" fill="red">cognōscere</text>
<text text-anchor="start" x="790" y="-538.4" font-family="Times New Roman,serif" font-size="12.00">to learn</text>
</g>
<!-- gnoscereL&#45;&gt;cognoscereL -->
<g id="edge18" class="edge">
<title>gnoscereL&#45;&gt;cognoscereL</title>
<path fill="none" stroke="black" d="M632.65,-615.19C667.98,-601.77 718.79,-582.49 756.45,-568.19"/>
<polygon fill="black" stroke="black" points="758.11,-571.31 766.21,-564.48 755.62,-564.76 758.11,-571.31"/>
</g>
<!-- notitiaL -->
<g id="node5" class="node">
<title>notitiaL</title>
<text text-anchor="start" x="248" y="-304.3" font-family="Times New Roman,serif" font-size="14.00" fill="red">nōtitia</text>
</g>
<!-- notusL&#45;&gt;notitiaL -->
<g id="edge4" class="edge">
<title>notusL&#45;&gt;notitiaL</title>
<path fill="none" stroke="black" d="M265,-367.75C265,-358.52 265,-346.93 265,-336.49"/>
<polygon fill="black" stroke="black" points="268.5,-336.18 265,-326.18 261.5,-336.18 268.5,-336.18"/>
</g>
<!-- notificareL -->
<g id="node9" class="node">
<title>notificareL</title>
<text text-anchor="start" x="328" y="-310.8" font-family="Times New Roman,serif" font-size="14.00" fill="red">nōtificāre</text>
<text text-anchor="start" x="318.5" y="-298.4" font-family="Times New Roman,serif" font-size="12.00">to make known</text>
</g>
<!-- notusL&#45;&gt;notificareL -->
<g id="edge8" class="edge">
<title>notusL&#45;&gt;notificareL</title>
<path fill="none" stroke="black" d="M285.2,-367.75C297.26,-357.45 312.76,-344.22 325.99,-332.92"/>
<polygon fill="black" stroke="black" points="328.55,-335.33 333.88,-326.18 324.01,-330.01 328.55,-335.33"/>
</g>
<!-- notioL -->
<g id="node13" class="node">
<title>notioL</title>
<text text-anchor="start" x="8" y="-304.3" font-family="Times New Roman,serif" font-size="14.00" fill="red">nōtiō, nōtiōn&#45;</text>
</g>
<!-- notusL&#45;&gt;notioL -->
<g id="edge12" class="edge">
<title>notusL&#45;&gt;notioL</title>
<path fill="none" stroke="black" d="M237.77,-376.96C205.04,-367.13 148.57,-349.6 101,-332 99.14,-331.31 97.26,-330.6 95.36,-329.87"/>
<polygon fill="black" stroke="black" points="96.38,-326.51 85.8,-326.1 93.82,-333.03 96.38,-326.51"/>
</g>
<!-- notoriusL -->
<g id="node16" class="node">
<title>notoriusL</title>
<text text-anchor="start" x="118.5" y="-317.8" font-family="Times New Roman,serif" font-weight="bold" font-size="14.00">Medieval Latin</text>
<text text-anchor="start" x="142" y="-303.8" font-family="Times New Roman,serif" font-size="14.00" fill="red">nōtōrius</text>
<text text-anchor="start" x="138" y="-291.4" font-family="Times New Roman,serif" font-size="12.00">well&#45;known</text>
</g>
<!-- notusL&#45;&gt;notoriusL -->
<g id="edge15" class="edge">
<title>notusL&#45;&gt;notoriusL</title>
<path fill="none" stroke="black" d="M242.31,-367.75C230.86,-359.05 216.64,-348.25 203.54,-338.29"/>
<polygon fill="black" stroke="black" points="205.64,-335.49 195.56,-332.23 201.41,-341.07 205.64,-335.49"/>
</g>
<!-- noticeOF -->
<g id="node6" class="node">
<title>noticeOF</title>
<text text-anchor="start" x="215" y="-226.8" font-family="Times New Roman,serif" font-weight="bold" font-size="14.00">Old French</text>
<text text-anchor="start" x="233" y="-212.8" font-family="Times New Roman,serif" font-size="14.00" fill="red">notice</text>
</g>
<!-- notitiaL&#45;&gt;noticeOF -->
<g id="edge5" class="edge">
<title>notitiaL&#45;&gt;noticeOF</title>
<path fill="none" stroke="black" d="M261.89,-289.8C259.88,-278.67 257.22,-263.94 254.92,-251.24"/>
<polygon fill="black" stroke="black" points="258.33,-250.39 253.1,-241.18 251.44,-251.64 258.33,-250.39"/>
</g>
<!-- noticeME -->
<g id="node7" class="node">
<title>noticeME</title>
<text text-anchor="start" x="228.5" y="-141.8" font-family="Times New Roman,serif" font-weight="bold" font-size="14.00">Middle</text>
<text text-anchor="start" x="227" y="-127.8" font-family="Times New Roman,serif" font-weight="bold" font-size="14.00">English</text>
<text text-anchor="start" x="233" y="-113.8" font-family="Times New Roman,serif" font-size="14.00" fill="red">notice</text>
</g>
<!-- noticeOF&#45;&gt;noticeME -->
<g id="edge6" class="edge">
<title>noticeOF&#45;&gt;noticeME</title>
<path fill="none" stroke="black" stroke-dasharray="5,2" d="M250,-204.65C250,-193.76 250,-179.36 250,-166.25"/>
<polygon fill="black" stroke="black" points="253.5,-166.1 250,-156.1 246.5,-166.1 253.5,-166.1"/>
</g>
<!-- notice -->
<g id="node8" class="node">
<title>notice</title>
<text text-anchor="start" x="225.5" y="-42.8" font-family="Times New Roman,serif" font-weight="bold" font-size="14.00">Modern</text>
<text text-anchor="start" x="227" y="-28.8" font-family="Times New Roman,serif" font-weight="bold" font-size="14.00">English</text>
<text text-anchor="start" x="233" y="-14.8" font-family="Times New Roman,serif" font-size="14.00" fill="red">notice</text>
</g>
<!-- noticeME&#45;&gt;notice -->
<g id="edge7" class="edge">
<title>noticeME&#45;&gt;notice</title>
<path fill="none" stroke="black" d="M250,-105.52C250,-93.95 250,-79.93 250,-67.31"/>
<polygon fill="black" stroke="black" points="253.5,-67.13 250,-57.13 246.5,-67.13 253.5,-67.13"/>
</g>
<!-- notifierOF -->
<g id="node10" class="node">
<title>notifierOF</title>
<text text-anchor="start" x="319" y="-226.8" font-family="Times New Roman,serif" font-weight="bold" font-size="14.00">Old French</text>
<text text-anchor="start" x="334" y="-212.8" font-family="Times New Roman,serif" font-size="14.00" fill="red">notifier</text>
</g>
<!-- notificareL&#45;&gt;notifierOF -->
<g id="edge9" class="edge">
<title>notificareL&#45;&gt;notifierOF</title>
<path fill="none" stroke="black" d="M354,-289.8C354,-278.67 354,-263.94 354,-251.24"/>
<polygon fill="black" stroke="black" points="357.5,-251.18 354,-241.18 350.5,-251.18 357.5,-251.18"/>
</g>
<!-- notifenME -->
<g id="node11" class="node">
<title>notifenME</title>
<text text-anchor="start" x="332.5" y="-141.8" font-family="Times New Roman,serif" font-weight="bold" font-size="14.00">Middle</text>
<text text-anchor="start" x="331" y="-127.8" font-family="Times New Roman,serif" font-weight="bold" font-size="14.00">English</text>
<text text-anchor="start" x="334.5" y="-113.8" font-family="Times New Roman,serif" font-size="14.00" fill="red">notifen</text>
</g>
<!-- notifierOF&#45;&gt;notifenME -->
<g id="edge10" class="edge">
<title>notifierOF&#45;&gt;notifenME</title>
<path fill="none" stroke="black" stroke-dasharray="5,2" d="M354,-204.65C354,-193.76 354,-179.36 354,-166.25"/>
<polygon fill="black" stroke="black" points="357.5,-166.1 354,-156.1 350.5,-166.1 357.5,-166.1"/>
</g>
<!-- notify -->
<g id="node12" class="node">
<title>notify</title>
<text text-anchor="start" x="329.5" y="-42.8" font-family="Times New Roman,serif" font-weight="bold" font-size="14.00">Modern</text>
<text text-anchor="start" x="331" y="-28.8" font-family="Times New Roman,serif" font-weight="bold" font-size="14.00">English</text>
<text text-anchor="start" x="337.5" y="-14.8" font-family="Times New Roman,serif" font-size="14.00" fill="red">notify</text>
</g>
<!-- notifenME&#45;&gt;notify -->
<g id="edge11" class="edge">
<title>notifenME&#45;&gt;notify</title>
<path fill="none" stroke="black" d="M354,-105.52C354,-93.95 354,-79.93 354,-67.31"/>
<polygon fill="black" stroke="black" points="357.5,-67.13 354,-57.13 350.5,-67.13 357.5,-67.13"/>
</g>
<!-- nociounME -->
<g id="node14" class="node">
<title>nociounME</title>
<text text-anchor="start" x="24.5" y="-147.8" font-family="Times New Roman,serif" font-weight="bold" font-size="14.00">Middle</text>
<text text-anchor="start" x="23" y="-133.8" font-family="Times New Roman,serif" font-weight="bold" font-size="14.00">English</text>
<text text-anchor="start" x="23" y="-119.8" font-family="Times New Roman,serif" font-size="14.00" fill="red">nocioun</text>
<text text-anchor="start" x="27.5" y="-107.4" font-family="Times New Roman,serif" font-size="12.00">concept</text>
</g>
<!-- notioL&#45;&gt;nociounME -->
<g id="edge13" class="edge">
<title>notioL&#45;&gt;nociounME</title>
<path fill="none" stroke="black" stroke-dasharray="5,2" d="M46,-289.9C46,-262.86 46,-209.48 46,-172.31"/>
<polygon fill="black" stroke="black" points="49.5,-172.29 46,-162.29 42.5,-172.29 49.5,-172.29"/>
</g>
<!-- notion -->
<g id="node15" class="node">
<title>notion</title>
<text text-anchor="start" x="21.5" y="-42.8" font-family="Times New Roman,serif" font-weight="bold" font-size="14.00">Modern</text>
<text text-anchor="start" x="23" y="-28.8" font-family="Times New Roman,serif" font-weight="bold" font-size="14.00">English</text>
<text text-anchor="start" x="28" y="-14.8" font-family="Times New Roman,serif" font-size="14.00" fill="red">notion</text>
</g>
<!-- nociounME&#45;&gt;notion -->
<g id="edge14" class="edge">
<title>nociounME&#45;&gt;notion</title>
<path fill="none" stroke="black" d="M46,-99.84C46,-89.58 46,-78.03 46,-67.46"/>
<polygon fill="black" stroke="black" points="49.5,-67.3 46,-57.3 42.5,-67.3 49.5,-67.3"/>
</g>
<!-- notorious -->
<g id="node17" class="node">
<title>notorious</title>
<text text-anchor="start" x="139.5" y="-42.8" font-family="Times New Roman,serif" font-weight="bold" font-size="14.00">Modern</text>
<text text-anchor="start" x="141" y="-28.8" font-family="Times New Roman,serif" font-weight="bold" font-size="14.00">English</text>
<text text-anchor="start" x="137" y="-14.8" font-family="Times New Roman,serif" font-size="14.00" fill="red">notorious</text>
</g>
<!-- notoriusL&#45;&gt;notorious -->
<g id="edge16" class="edge">
<title>notoriusL&#45;&gt;notorious</title>
<path fill="none" stroke="black" stroke-dasharray="5,2" d="M164.91,-283.64C164.74,-235.25 164.33,-123.87 164.13,-67.3"/>
<polygon fill="black" stroke="black" points="167.62,-67.07 164.09,-57.08 160.62,-67.1 167.62,-67.07"/>
</g>
<!-- komIE -->
<g id="node18" class="node">
<title>komIE</title>
<g id="a_node18"><a xlink:href="kom-with.svg" xlink:title="&lt;b&gt;Indo&#45;&lt;br/&gt;European&lt;/b&gt;&lt;br/&gt;&lt;font color=&quot;red&quot;&gt;*kom&lt;/font&gt;&lt;br/&gt;&lt;font point&#45;size=&quot;12&quot;&gt;with&lt;/font&gt;">
<path fill="none" stroke="black" stroke-dasharray="5,2" d="M833.5,-754C833.5,-754 780.5,-754 780.5,-754 774.5,-754 768.5,-748 768.5,-742 768.5,-742 768.5,-704 768.5,-704 768.5,-698 774.5,-692 780.5,-692 780.5,-692 833.5,-692 833.5,-692 839.5,-692 845.5,-698 845.5,-704 845.5,-704 845.5,-742 845.5,-742 845.5,-748 839.5,-754 833.5,-754"/>
<text text-anchor="start" x="790.5" y="-739.8" font-family="Times New Roman,serif" font-weight="bold" font-size="14.00">Indo&#45;</text>
<text text-anchor="start" x="776.5" y="-725.8" font-family="Times New Roman,serif" font-weight="bold" font-size="14.00">European</text>
<text text-anchor="start" x="791" y="-711.8" font-family="Times New Roman,serif" font-size="14.00" fill="red">*kom</text>
<text text-anchor="start" x="797.5" y="-699.4" font-family="Times New Roman,serif" font-size="12.00">with</text>
</a>
</g>
</g>
<!-- coL -->
<g id="node19" class="node">
<title>coL</title>
<text text-anchor="start" x="790.5" y="-641.8" font-family="Times New Roman,serif" font-weight="bold" font-size="14.00">Latin</text>
<text text-anchor="start" x="779" y="-627.8" font-family="Times New Roman,serif" font-size="14.00" fill="red">com&#45;, co&#45;</text>
<text text-anchor="start" x="769.5" y="-615.4" font-family="Times New Roman,serif" font-size="12.00">(intensive prefix)</text>
</g>
<!-- komIE&#45;&gt;coL -->
<g id="edge17" class="edge">
<title>komIE&#45;&gt;coL</title>
<path fill="none" stroke="black" d="M807,-691.87C807,-683.64 807,-674.68 807,-666.29"/>
<polygon fill="black" stroke="black" points="810.5,-666.06 807,-656.06 803.5,-666.06 810.5,-666.06"/>
</g>
<!-- coL&#45;&gt;cognoscereL -->
<g id="edge19" class="edge">
<title>coL&#45;&gt;cognoscereL</title>
<path fill="none" stroke="black" d="M807,-607.72C807,-597.88 807,-586.36 807,-576.13"/>
<polygon fill="black" stroke="black" points="810.5,-576.08 807,-566.08 803.5,-576.08 810.5,-576.08"/>
</g>
<!-- cognitusL -->
<g id="node21" class="node">
<title>cognitusL</title>
<text text-anchor="start" x="789" y="-310.8" font-family="Times New Roman,serif" font-size="14.00" fill="red">cognitus</text>
<text text-anchor="start" x="796" y="-298.4" font-family="Times New Roman,serif" font-size="12.00">learned</text>
</g>
<!-- cognoscereL&#45;&gt;cognitusL -->
<g id="edge20" class="edge">
<title>cognoscereL&#45;&gt;cognitusL</title>
<path fill="none" stroke="black" d="M807.43,-529.88C808.46,-489.16 811.05,-386.2 812.3,-336.57"/>
<polygon fill="black" stroke="black" points="815.81,-336.37 812.56,-326.28 808.81,-336.19 815.81,-336.37"/>
</g>
<!-- connoistreOF -->
<g id="node25" class="node">
<title>connoistreOF</title>
<text text-anchor="start" x="527" y="-317.8" font-family="Times New Roman,serif" font-weight="bold" font-size="14.00">Old French</text>
<text text-anchor="start" x="532.5" y="-303.8" font-family="Times New Roman,serif" font-size="14.00" fill="red">connoistre</text>
<text text-anchor="start" x="543" y="-291.4" font-family="Times New Roman,serif" font-size="12.00">to know</text>
</g>
<!-- cognoscereL&#45;&gt;connoistreOF -->
<g id="edge24" class="edge">
<title>cognoscereL&#45;&gt;connoistreOF</title>
<path fill="none" stroke="black" d="M789.38,-529.88C748.18,-489.86 645.09,-389.72 593.07,-339.18"/>
<polygon fill="black" stroke="black" points="595.39,-336.56 585.78,-332.1 590.51,-341.58 595.39,-336.56"/>
</g>
<!-- accognoscereL -->
<g id="node33" class="node">
<title>accognoscereL</title>
<text text-anchor="start" x="871" y="-466.8" font-family="Times New Roman,serif" font-size="14.00" fill="red">accognōscere</text>
<text text-anchor="start" x="870" y="-454.4" font-family="Times New Roman,serif" font-size="12.00">to know perfectly</text>
</g>
<!-- cognoscereL&#45;&gt;accognoscereL -->
<g id="edge31" class="edge">
<title>cognoscereL&#45;&gt;accognoscereL</title>
<path fill="none" stroke="black" d="M828.84,-529.61C843.83,-517.68 863.9,-501.7 880.33,-488.62"/>
<polygon fill="black" stroke="black" points="882.9,-491.05 888.54,-482.08 878.54,-485.57 882.9,-491.05"/>
</g>
<!-- recognoscereL -->
<g id="node48" class="node">
<title>recognoscereL</title>
<text text-anchor="start" x="1085" y="-382.3" font-family="Times New Roman,serif" font-size="14.00" fill="red">recognōscere</text>
</g>
<!-- cognoscereL&#45;&gt;recognoscereL -->
<g id="edge46" class="edge">
<title>cognoscereL&#45;&gt;recognoscereL</title>
<path fill="none" stroke="black" d="M842.84,-529.92C847.56,-527.84 852.37,-525.81 857,-524 904.89,-505.22 920.58,-510.16 967,-488 1013.31,-465.89 1062.29,-432.27 1092.75,-409.97"/>
<polygon fill="black" stroke="black" points="1094.87,-412.76 1100.83,-404 1090.71,-407.13 1094.87,-412.76"/>
</g>
<!-- cognitioL -->
<g id="node22" class="node">
<title>cognitioL</title>
<text text-anchor="start" x="630.5" y="-219.3" font-family="Times New Roman,serif" font-size="14.00" fill="red">cognitiō, cognitiōn&#45;</text>
</g>
<!-- cognitusL&#45;&gt;cognitioL -->
<g id="edge21" class="edge">
<title>cognitusL&#45;&gt;cognitioL</title>
<path fill="none" stroke="black" d="M786.48,-289.8C767.26,-277.34 741.07,-260.36 720.11,-246.77"/>
<polygon fill="black" stroke="black" points="721.78,-243.68 711.49,-241.18 717.97,-249.55 721.78,-243.68"/>
</g>
<!-- incognitusL -->
<g id="node41" class="node">
<title>incognitusL</title>
<text text-anchor="start" x="994" y="-219.3" font-family="Times New Roman,serif" font-size="14.00" fill="red">incognitus</text>
</g>
<!-- cognitusL&#45;&gt;incognitusL -->
<g id="edge39" class="edge">
<title>cognitusL&#45;&gt;incognitusL</title>
<path fill="none" stroke="black" d="M845.11,-290.1C849.71,-287.92 854.44,-285.82 859,-284 909.92,-263.67 926.26,-268.77 977,-248 978.88,-247.23 980.78,-246.41 982.68,-245.56"/>
<polygon fill="black" stroke="black" points="984.65,-248.5 992.19,-241.06 981.66,-242.18 984.65,-248.5"/>
</g>
<!-- cointeOF -->
<g id="node44" class="node">
<title>cointeOF</title>
<text text-anchor="start" x="780" y="-226.8" font-family="Times New Roman,serif" font-weight="bold" font-size="14.00">Old French</text>
<text text-anchor="start" x="774" y="-212.8" font-family="Times New Roman,serif" font-size="14.00" fill="red">cointe, queinte</text>
</g>
<!-- cognitusL&#45;&gt;cointeOF -->
<g id="edge43" class="edge">
<title>cognitusL&#45;&gt;cointeOF</title>
<path fill="none" stroke="black" d="M813.41,-289.8C813.68,-278.67 814.04,-263.94 814.34,-251.24"/>
<polygon fill="black" stroke="black" points="817.84,-251.26 814.59,-241.18 810.85,-251.09 817.84,-251.26"/>
</g>
<!-- cogniciounME -->
<g id="node23" class="node">
<title>cogniciounME</title>
<text text-anchor="start" x="663.5" y="-141.8" font-family="Times New Roman,serif" font-weight="bold" font-size="14.00">Middle</text>
<text text-anchor="start" x="662" y="-127.8" font-family="Times New Roman,serif" font-weight="bold" font-size="14.00">English</text>
<text text-anchor="start" x="654" y="-113.8" font-family="Times New Roman,serif" font-size="14.00" fill="red">cognicioun</text>
</g>
<!-- cognitioL&#45;&gt;cogniciounME -->
<g id="edge22" class="edge">
<title>cognitioL&#45;&gt;cogniciounME</title>
<path fill="none" stroke="black" stroke-dasharray="5,2" d="M685,-204.65C685,-193.76 685,-179.36 685,-166.25"/>
<polygon fill="black" stroke="black" points="688.5,-166.1 685,-156.1 681.5,-166.1 688.5,-166.1"/>
</g>
<!-- cognition -->
<g id="node24" class="node">
<title>cognition</title>
<text text-anchor="start" x="660.5" y="-42.8" font-family="Times New Roman,serif" font-weight="bold" font-size="14.00">Modern</text>
<text text-anchor="start" x="662" y="-28.8" font-family="Times New Roman,serif" font-weight="bold" font-size="14.00">English</text>
<text text-anchor="start" x="659" y="-14.8" font-family="Times New Roman,serif" font-size="14.00" fill="red">cognition</text>
</g>
<!-- cogniciounME&#45;&gt;cognition -->
<g id="edge23" class="edge">
<title>cogniciounME&#45;&gt;cognition</title>
<path fill="none" stroke="black" d="M685,-105.52C685,-93.95 685,-79.93 685,-67.31"/>
<polygon fill="black" stroke="black" points="688.5,-67.13 685,-57.13 681.5,-67.13 688.5,-67.13"/>
</g>
<!-- conoissanceOF -->
<g id="node26" class="node">
<title>conoissanceOF</title>
<text text-anchor="start" x="423" y="-219.3" font-family="Times New Roman,serif" font-size="14.00" fill="red">conoissance</text>
</g>
<!-- connoistreOF&#45;&gt;conoissanceOF -->
<g id="edge25" class="edge">
<title>connoistreOF&#45;&gt;conoissanceOF</title>
<path fill="none" stroke="black" d="M533.03,-283.88C518.86,-272.57 501.83,-258.98 487.59,-247.61"/>
<polygon fill="black" stroke="black" points="489.56,-244.71 479.56,-241.21 485.19,-250.18 489.56,-244.71"/>
</g>
<!-- connoisseorOF -->
<g id="node29" class="node">
<title>connoisseorOF</title>
<text text-anchor="start" x="527.5" y="-219.3" font-family="Times New Roman,serif" font-size="14.00" fill="red">connoisseor</text>
</g>
<!-- connoistreOF&#45;&gt;connoisseorOF -->
<g id="edge28" class="edge">
<title>connoistreOF&#45;&gt;connoisseorOF</title>
<path fill="none" stroke="black" d="M562,-283.88C562,-273.84 562,-262 562,-251.51"/>
<polygon fill="black" stroke="black" points="565.5,-251.21 562,-241.21 558.5,-251.21 565.5,-251.21"/>
</g>
<!-- conissaunceME -->
<g id="node27" class="node">
<title>conissaunceME</title>
<text text-anchor="start" x="436.5" y="-141.8" font-family="Times New Roman,serif" font-weight="bold" font-size="14.00">Middle</text>
<text text-anchor="start" x="435" y="-127.8" font-family="Times New Roman,serif" font-weight="bold" font-size="14.00">English</text>
<text text-anchor="start" x="423.5" y="-113.8" font-family="Times New Roman,serif" font-size="14.00" fill="red">conissaunce</text>
</g>
<!-- conoissanceOF&#45;&gt;conissaunceME -->
<g id="edge26" class="edge">
<title>conoissanceOF&#45;&gt;conissaunceME</title>
<path fill="none" stroke="black" stroke-dasharray="5,2" d="M458,-204.65C458,-193.76 458,-179.36 458,-166.25"/>
<polygon fill="black" stroke="black" points="461.5,-166.1 458,-156.1 454.5,-166.1 461.5,-166.1"/>
</g>
<!-- cognizance -->
<g id="node28" class="node">
<title>cognizance</title>
<text text-anchor="start" x="433.5" y="-42.8" font-family="Times New Roman,serif" font-weight="bold" font-size="14.00">Modern</text>
<text text-anchor="start" x="435" y="-28.8" font-family="Times New Roman,serif" font-weight="bold" font-size="14.00">English</text>
<text text-anchor="start" x="426.5" y="-14.8" font-family="Times New Roman,serif" font-size="14.00" fill="red">cognizance</text>
</g>
<!-- conissaunceME&#45;&gt;cognizance -->
<g id="edge27" class="edge">
<title>conissaunceME&#45;&gt;cognizance</title>
<path fill="none" stroke="black" d="M458,-105.52C458,-93.95 458,-79.93 458,-67.31"/>
<polygon fill="black" stroke="black" points="461.5,-67.13 458,-57.13 454.5,-67.13 461.5,-67.13"/>
</g>
<!-- connoisseurF -->
<g id="node30" class="node">
<title>connoisseurF</title>
<text text-anchor="start" x="540" y="-140.8" font-family="Times New Roman,serif" font-weight="bold" font-size="14.00">French</text>
<text text-anchor="start" x="528" y="-126.8" font-family="Times New Roman,serif" font-size="14.00" fill="red">connoisseur</text>
<text text-anchor="start" x="539" y="-114.4" font-family="Times New Roman,serif" font-size="12.00">(obsolete)</text>
</g>
<!-- connoisseorOF&#45;&gt;connoisseurF -->
<g id="edge29" class="edge">
<title>connoisseorOF&#45;&gt;connoisseurF</title>
<path fill="none" stroke="black" d="M562,-204.65C562,-193.52 562,-178.72 562,-165.38"/>
<polygon fill="black" stroke="black" points="565.5,-165.09 562,-155.09 558.5,-165.09 565.5,-165.09"/>
</g>
<!-- connoisseur -->
<g id="node31" class="node">
<title>connoisseur</title>
<text text-anchor="start" x="537.5" y="-42.8" font-family="Times New Roman,serif" font-weight="bold" font-size="14.00">Modern</text>
<text text-anchor="start" x="539" y="-28.8" font-family="Times New Roman,serif" font-weight="bold" font-size="14.00">English</text>
<text text-anchor="start" x="528" y="-14.8" font-family="Times New Roman,serif" font-size="14.00" fill="red">connoisseur</text>
</g>
<!-- connoisseurF&#45;&gt;connoisseur -->
<g id="edge30" class="edge">
<title>connoisseurF&#45;&gt;connoisseur</title>
<path fill="none" stroke="black" stroke-dasharray="5,2" d="M562,-106.52C562,-94.75 562,-80.28 562,-67.29"/>
<polygon fill="black" stroke="black" points="565.5,-67.28 562,-57.28 558.5,-67.28 565.5,-67.28"/>
</g>
<!-- adL -->
<g id="node32" class="node">
<title>adL</title>
<text text-anchor="start" x="894.5" y="-557.8" font-family="Times New Roman,serif" font-weight="bold" font-size="14.00">Latin</text>
<text text-anchor="start" x="901.5" y="-543.8" font-family="Times New Roman,serif" font-size="14.00" fill="red">ad&#45;</text>
<text text-anchor="start" x="873.5" y="-531.4" font-family="Times New Roman,serif" font-size="12.00">(intensive prefix)</text>
</g>
<!-- adL&#45;&gt;accognoscereL -->
<g id="edge32" class="edge">
<title>adL&#45;&gt;accognoscereL</title>
<path fill="none" stroke="black" d="M910.72,-523.72C910.6,-513.88 910.46,-502.36 910.33,-492.13"/>
<polygon fill="black" stroke="black" points="913.83,-492.03 910.21,-482.08 906.83,-492.12 913.83,-492.03"/>
</g>
<!-- accognitusL -->
<g id="node34" class="node">
<title>accognitusL</title>
<text text-anchor="start" x="885.5" y="-388.8" font-family="Times New Roman,serif" font-size="14.00" fill="red">accognitus</text>
<text text-anchor="start" x="879.5" y="-376.4" font-family="Times New Roman,serif" font-size="12.00">perfectly known</text>
</g>
<!-- accognoscereL&#45;&gt;accognitusL -->
<g id="edge33" class="edge">
<title>accognoscereL&#45;&gt;accognitusL</title>
<path fill="none" stroke="black" d="M911.36,-445.75C912.1,-436.43 913.02,-424.69 913.86,-414.17"/>
<polygon fill="black" stroke="black" points="917.35,-414.42 914.64,-404.18 910.37,-413.87 917.35,-414.42"/>
</g>
<!-- accognitareL -->
<g id="node35" class="node">
<title>accognitareL</title>
<text text-anchor="start" x="875.5" y="-311.8" font-family="Times New Roman,serif" font-weight="bold" font-size="14.00">Medieval Latin</text>
<text text-anchor="start" x="890" y="-297.8" font-family="Times New Roman,serif" font-size="14.00" fill="red">accognitāre</text>
</g>
<!-- accognitusL&#45;&gt;accognitareL -->
<g id="edge34" class="edge">
<title>accognitusL&#45;&gt;accognitareL</title>
<path fill="none" stroke="black" d="M917.36,-367.75C918.1,-358.43 919.02,-346.69 919.86,-336.17"/>
<polygon fill="black" stroke="black" points="923.35,-336.42 920.64,-326.18 916.37,-335.87 923.35,-336.42"/>
</g>
<!-- acointierOF -->
<g id="node36" class="node">
<title>acointierOF</title>
<text text-anchor="start" x="890" y="-226.8" font-family="Times New Roman,serif" font-weight="bold" font-size="14.00">Old French</text>
<text text-anchor="start" x="901" y="-212.8" font-family="Times New Roman,serif" font-size="14.00" fill="red">acointier</text>
</g>
<!-- accognitareL&#45;&gt;acointierOF -->
<g id="edge35" class="edge">
<title>accognitareL&#45;&gt;acointierOF</title>
<path fill="none" stroke="black" d="M922.62,-289.8C923.02,-278.67 923.56,-263.94 924.02,-251.24"/>
<polygon fill="black" stroke="black" points="927.52,-251.3 924.38,-241.18 920.52,-251.04 927.52,-251.3"/>
</g>
<!-- aqueintenME -->
<g id="node37" class="node">
<title>aqueintenME</title>
<text text-anchor="start" x="903.5" y="-141.8" font-family="Times New Roman,serif" font-weight="bold" font-size="14.00">Middle</text>
<text text-anchor="start" x="902" y="-127.8" font-family="Times New Roman,serif" font-weight="bold" font-size="14.00">English</text>
<text text-anchor="start" x="898.5" y="-113.8" font-family="Times New Roman,serif" font-size="14.00" fill="red">aqueinten</text>
</g>
<!-- acointierOF&#45;&gt;aqueintenME -->
<g id="edge36" class="edge">
<title>acointierOF&#45;&gt;aqueintenME</title>
<path fill="none" stroke="black" stroke-dasharray="5,2" d="M925,-204.65C925,-193.76 925,-179.36 925,-166.25"/>
<polygon fill="black" stroke="black" points="928.5,-166.1 925,-156.1 921.5,-166.1 928.5,-166.1"/>
</g>
<!-- acquaint -->
<g id="node38" class="node">
<title>acquaint</title>
<text text-anchor="start" x="900.5" y="-42.8" font-family="Times New Roman,serif" font-weight="bold" font-size="14.00">Modern</text>
<text text-anchor="start" x="902" y="-28.8" font-family="Times New Roman,serif" font-weight="bold" font-size="14.00">English</text>
<text text-anchor="start" x="901.5" y="-14.8" font-family="Times New Roman,serif" font-size="14.00" fill="red">acquaint</text>
</g>
<!-- aqueintenME&#45;&gt;acquaint -->
<g id="edge37" class="edge">
<title>aqueintenME&#45;&gt;acquaint</title>
<path fill="none" stroke="black" d="M925,-105.52C925,-93.95 925,-79.93 925,-67.31"/>
<polygon fill="black" stroke="black" points="928.5,-67.13 925,-57.13 921.5,-67.13 928.5,-67.13"/>
</g>
<!-- neIE -->
<g id="node39" class="node">
<title>neIE</title>
<g id="a_node39"><a xlink:href="ne-not3.svg" xlink:title="&lt;b&gt;Indo&#45;&lt;br/&gt;European&lt;/b&gt;&lt;br/&gt;&lt;font color=&quot;red&quot;&gt;*ne&lt;/font&gt;&lt;br/&gt;&lt;font point&#45;size=&quot;12&quot;&gt;not&lt;/font&gt;">
<path fill="none" stroke="black" stroke-dasharray="5,2" d="M1050.5,-754C1050.5,-754 997.5,-754 997.5,-754 991.5,-754 985.5,-748 985.5,-742 985.5,-742 985.5,-704 985.5,-704 985.5,-698 991.5,-692 997.5,-692 997.5,-692 1050.5,-692 1050.5,-692 1056.5,-692 1062.5,-698 1062.5,-704 1062.5,-704 1062.5,-742 1062.5,-742 1062.5,-748 1056.5,-754 1050.5,-754"/>
<text text-anchor="start" x="1007.5" y="-739.8" font-family="Times New Roman,serif" font-weight="bold" font-size="14.00">Indo&#45;</text>
<text text-anchor="start" x="993.5" y="-725.8" font-family="Times New Roman,serif" font-weight="bold" font-size="14.00">European</text>
<text text-anchor="start" x="1014" y="-711.8" font-family="Times New Roman,serif" font-size="14.00" fill="red">*ne</text>
<text text-anchor="start" x="1016.5" y="-699.4" font-family="Times New Roman,serif" font-size="12.00">not</text>
</a>
</g>
</g>
<!-- inL -->
<g id="node40" class="node">
<title>inL</title>
<text text-anchor="start" x="1007.5" y="-551.8" font-family="Times New Roman,serif" font-weight="bold" font-size="14.00">Latin</text>
<text text-anchor="start" x="1016.5" y="-537.8" font-family="Times New Roman,serif" font-size="14.00" fill="red">in&#45;</text>
</g>
<!-- neIE&#45;&gt;inL -->
<g id="edge38" class="edge">
<title>neIE&#45;&gt;inL</title>
<path fill="none" stroke="black" d="M1024,-691.87C1024,-659.3 1024,-607.87 1024,-576.41"/>
<polygon fill="black" stroke="black" points="1027.5,-576.18 1024,-566.18 1020.5,-576.18 1027.5,-576.18"/>
</g>
<!-- inL&#45;&gt;incognitusL -->
<g id="edge40" class="edge">
<title>inL&#45;&gt;incognitusL</title>
<path fill="none" stroke="black" d="M1023.95,-529.63C1023.78,-476.49 1023.28,-315.79 1023.08,-251.25"/>
<polygon fill="black" stroke="black" points="1026.58,-251.05 1023.05,-241.06 1019.58,-251.07 1026.58,-251.05"/>
</g>
<!-- incognitoI -->
<g id="node42" class="node">
<title>incognitoI</title>
<text text-anchor="start" x="997" y="-141.8" font-family="Times New Roman,serif" font-weight="bold" font-size="14.00">Italian</text>
<text text-anchor="start" x="991" y="-127.8" font-family="Times New Roman,serif" font-size="14.00" fill="red">incognito</text>
<text text-anchor="start" x="991.5" y="-113.8" font-family="Times New Roman,serif" font-size="14.00" fill="red">incognita</text>
</g>
<!-- incognitusL&#45;&gt;incognitoI -->
<g id="edge41" class="edge">
<title>incognitusL&#45;&gt;incognitoI</title>
<path fill="none" stroke="black" d="M1021.84,-204.65C1021.12,-193.76 1020.16,-179.36 1019.28,-166.25"/>
<polygon fill="black" stroke="black" points="1022.76,-165.85 1018.61,-156.1 1015.78,-166.31 1022.76,-165.85"/>
</g>
<!-- incognito -->
<g id="node43" class="node">
<title>incognito</title>
<text text-anchor="start" x="992.5" y="-49.8" font-family="Times New Roman,serif" font-weight="bold" font-size="14.00">Modern</text>
<text text-anchor="start" x="994" y="-35.8" font-family="Times New Roman,serif" font-weight="bold" font-size="14.00">English</text>
<text text-anchor="start" x="991" y="-21.8" font-family="Times New Roman,serif" font-size="14.00" fill="red">incognito</text>
<text text-anchor="start" x="991.5" y="-7.8" font-family="Times New Roman,serif" font-size="14.00" fill="red">incognita</text>
</g>
<!-- incognitoI&#45;&gt;incognito -->
<g id="edge42" class="edge">
<title>incognitoI&#45;&gt;incognito</title>
<path fill="none" stroke="black" stroke-dasharray="5,2" d="M1017,-105.52C1017,-96 1017,-84.81 1017,-74.12"/>
<polygon fill="black" stroke="black" points="1020.5,-74.09 1017,-64.09 1013.5,-74.09 1020.5,-74.09"/>
</g>
<!-- quaintME -->
<g id="node45" class="node">
<title>quaintME</title>
<text text-anchor="start" x="793.5" y="-147.8" font-family="Times New Roman,serif" font-weight="bold" font-size="14.00">Middle</text>
<text text-anchor="start" x="792" y="-133.8" font-family="Times New Roman,serif" font-weight="bold" font-size="14.00">English</text>
<text text-anchor="start" x="798" y="-119.8" font-family="Times New Roman,serif" font-size="14.00" fill="red">quaint</text>
<text text-anchor="start" x="777" y="-107.4" font-family="Times New Roman,serif" font-size="12.00">cunning, peculiar</text>
</g>
<!-- cointeOF&#45;&gt;quaintME -->
<g id="edge44" class="edge">
<title>cointeOF&#45;&gt;quaintME</title>
<path fill="none" stroke="black" stroke-dasharray="5,2" d="M815,-204.65C815,-195.42 815,-183.65 815,-172.3"/>
<polygon fill="black" stroke="black" points="818.5,-172.06 815,-162.06 811.5,-172.06 818.5,-172.06"/>
</g>
<!-- quaint -->
<g id="node46" class="node">
<title>quaint</title>
<text text-anchor="start" x="790.5" y="-42.8" font-family="Times New Roman,serif" font-weight="bold" font-size="14.00">Modern</text>
<text text-anchor="start" x="792" y="-28.8" font-family="Times New Roman,serif" font-weight="bold" font-size="14.00">English</text>
<text text-anchor="start" x="798" y="-14.8" font-family="Times New Roman,serif" font-size="14.00" fill="red">quaint</text>
</g>
<!-- quaintME&#45;&gt;quaint -->
<g id="edge45" class="edge">
<title>quaintME&#45;&gt;quaint</title>
<path fill="none" stroke="black" d="M815,-99.84C815,-89.58 815,-78.03 815,-67.46"/>
<polygon fill="black" stroke="black" points="818.5,-67.3 815,-57.3 811.5,-67.3 818.5,-67.3"/>
</g>
<!-- reL -->
<g id="node47" class="node">
<title>reL</title>
<text text-anchor="start" x="1106.5" y="-473.8" font-family="Times New Roman,serif" font-weight="bold" font-size="14.00">Latin</text>
<text text-anchor="start" x="1115" y="-459.8" font-family="Times New Roman,serif" font-size="14.00" fill="red">re&#45;</text>
<text text-anchor="start" x="1111" y="-447.4" font-family="Times New Roman,serif" font-size="12.00">again</text>
</g>
<!-- reL&#45;&gt;recognoscereL -->
<g id="edge47" class="edge">
<title>reL&#45;&gt;recognoscereL</title>
<path fill="none" stroke="black" d="M1123,-439.78C1123,-431.68 1123,-422.52 1123,-414.12"/>
<polygon fill="black" stroke="black" points="1126.5,-414.04 1123,-404.04 1119.5,-414.04 1126.5,-414.04"/>
</g>
<!-- reconoistreOF -->
<g id="node49" class="node">
<title>reconoistreOF</title>
<text text-anchor="start" x="1111" y="-311.8" font-family="Times New Roman,serif" font-weight="bold" font-size="14.00">Old French</text>
<text text-anchor="start" x="1085" y="-297.8" font-family="Times New Roman,serif" font-size="14.00" fill="red">reonoistre, reconoiss&#45;</text>
</g>
<!-- recognoscereL&#45;&gt;reconoistreOF -->
<g id="edge48" class="edge">
<title>recognoscereL&#45;&gt;reconoistreOF</title>
<path fill="none" stroke="black" d="M1128.22,-367.75C1131.07,-358.33 1134.67,-346.45 1137.88,-335.84"/>
<polygon fill="black" stroke="black" points="1141.25,-336.76 1140.8,-326.18 1134.55,-334.73 1141.25,-336.76"/>
</g>
<!-- recognisenME -->
<g id="node50" class="node">
<title>recognisenME</title>
<text text-anchor="start" x="1279.5" y="-233.8" font-family="Times New Roman,serif" font-weight="bold" font-size="14.00">Middle</text>
<text text-anchor="start" x="1278" y="-219.8" font-family="Times New Roman,serif" font-weight="bold" font-size="14.00">English</text>
<text text-anchor="start" x="1270.5" y="-205.8" font-family="Times New Roman,serif" font-size="14.00" fill="red">recognisen</text>
</g>
<!-- reconoistreOF&#45;&gt;recognisenME -->
<g id="edge49" class="edge">
<title>reconoistreOF&#45;&gt;recognisenME</title>
<path fill="none" stroke="black" stroke-dasharray="5,2" d="M1178.12,-289.8C1199.82,-278.18 1228.85,-262.64 1253.24,-249.57"/>
<polygon fill="black" stroke="black" points="1255.18,-252.51 1262.34,-244.7 1251.88,-246.34 1255.18,-252.51"/>
</g>
<!-- reconoissanceOF -->
<g id="node53" class="node">
<title>reconoissanceOF</title>
<text text-anchor="start" x="1094" y="-225.8" font-family="Times New Roman,serif" font-size="14.00" fill="red">reconoissance</text>
<text text-anchor="start" x="1109" y="-213.4" font-family="Times New Roman,serif" font-size="12.00">recognition</text>
</g>
<!-- reconoistreOF&#45;&gt;reconoissanceOF -->
<g id="edge52" class="edge">
<title>reconoistreOF&#45;&gt;reconoissanceOF</title>
<path fill="none" stroke="black" d="M1143.51,-289.8C1141.9,-278.67 1139.78,-263.94 1137.94,-251.24"/>
<polygon fill="black" stroke="black" points="1141.38,-250.57 1136.48,-241.18 1134.45,-251.57 1141.38,-250.57"/>
</g>
<!-- reconnoitreF -->
<g id="node56" class="node">
<title>reconnoitreF</title>
<text text-anchor="start" x="1207" y="-140.8" font-family="Times New Roman,serif" font-weight="bold" font-size="14.00">French</text>
<text text-anchor="start" x="1196.5" y="-126.8" font-family="Times New Roman,serif" font-size="14.00" fill="red">reconnoître</text>
<text text-anchor="start" x="1206" y="-114.4" font-family="Times New Roman,serif" font-size="12.00">(obsolete)</text>
</g>
<!-- reconoistreOF&#45;&gt;reconnoitreF -->
<g id="edge55" class="edge">
<title>reconoistreOF&#45;&gt;reconnoitreF</title>
<path fill="none" stroke="black" d="M1161.45,-289.98C1171.01,-278.73 1182.97,-263.28 1191,-248 1204.92,-221.53 1215.04,-188.99 1221.32,-165.12"/>
<polygon fill="black" stroke="black" points="1224.78,-165.7 1223.85,-155.14 1218,-163.97 1224.78,-165.7"/>
</g>
<!-- recognize -->
<g id="node51" class="node">
<title>recognize</title>
<text text-anchor="start" x="1297.5" y="-42.8" font-family="Times New Roman,serif" font-weight="bold" font-size="14.00">Modern</text>
<text text-anchor="start" x="1299" y="-28.8" font-family="Times New Roman,serif" font-weight="bold" font-size="14.00">English</text>
<text text-anchor="start" x="1295" y="-14.8" font-family="Times New Roman,serif" font-size="14.00" fill="red">recognize</text>
</g>
<!-- recognisenME&#45;&gt;recognize -->
<g id="edge51" class="edge">
<title>recognisenME&#45;&gt;recognize</title>
<path fill="none" stroke="black" d="M1303.7,-197.68C1307.39,-164.51 1314.01,-104.91 1318.2,-67.23"/>
<polygon fill="black" stroke="black" points="1321.68,-67.55 1319.31,-57.23 1314.72,-66.78 1321.68,-67.55"/>
</g>
<!-- recognizareL -->
<g id="node52" class="node">
<title>recognizareL</title>
<text text-anchor="start" x="1254.5" y="-317.8" font-family="Times New Roman,serif" font-weight="bold" font-size="14.00">Medieval Latin</text>
<text text-anchor="start" x="1269" y="-303.8" font-family="Times New Roman,serif" font-size="14.00" fill="red">recognizāre</text>
<text text-anchor="start" x="1273" y="-291.4" font-family="Times New Roman,serif" font-size="12.00">ro recognize</text>
</g>
<!-- recognizareL&#45;&gt;recognisenME -->
<g id="edge50" class="edge">
<title>recognizareL&#45;&gt;recognisenME</title>
<path fill="none" stroke="black" stroke-dasharray="1,5" d="M1301,-283.88C1301,-275.97 1301,-266.94 1301,-258.34"/>
<polygon fill="none" stroke="black" points="1304.5,-258.15 1301,-248.15 1297.5,-258.15 1304.5,-258.15"/>
</g>
<!-- reconnaissanceF -->
<g id="node54" class="node">
<title>reconnaissanceF</title>
<text text-anchor="start" x="1098" y="-134.8" font-family="Times New Roman,serif" font-weight="bold" font-size="14.00">French</text>
<text text-anchor="start" x="1077.5" y="-120.8" font-family="Times New Roman,serif" font-size="14.00" fill="red">reconnaissance</text>
</g>
<!-- reconoissanceOF&#45;&gt;reconnaissanceF -->
<g id="edge53" class="edge">
<title>reconoissanceOF&#45;&gt;reconnaissanceF</title>
<path fill="none" stroke="black" d="M1131.3,-204.65C1129.31,-191.82 1126.55,-174.11 1124.26,-159.38"/>
<polygon fill="black" stroke="black" points="1127.69,-158.64 1122.69,-149.3 1120.77,-159.72 1127.69,-158.64"/>
</g>
<!-- reconnaissance -->
<g id="node55" class="node">
<title>reconnaissance</title>
<text text-anchor="start" x="1095.5" y="-42.8" font-family="Times New Roman,serif" font-weight="bold" font-size="14.00">Modern</text>
<text text-anchor="start" x="1097" y="-28.8" font-family="Times New Roman,serif" font-weight="bold" font-size="14.00">English</text>
<text text-anchor="start" x="1077.5" y="-14.8" font-family="Times New Roman,serif" font-size="14.00" fill="red">reconnaissance</text>
</g>
<!-- reconnaissanceF&#45;&gt;reconnaissance -->
<g id="edge54" class="edge">
<title>reconnaissanceF&#45;&gt;reconnaissance</title>
<path fill="none" stroke="black" stroke-dasharray="5,2" d="M1120,-112.66C1120,-100.08 1120,-82.66 1120,-67.32"/>
<polygon fill="black" stroke="black" points="1123.5,-67.11 1120,-57.11 1116.5,-67.11 1123.5,-67.11"/>
</g>
<!-- reconnoiter -->
<g id="node57" class="node">
<title>reconnoiter</title>
<text text-anchor="start" x="1204.5" y="-42.8" font-family="Times New Roman,serif" font-weight="bold" font-size="14.00">Modern</text>
<text text-anchor="start" x="1206" y="-28.8" font-family="Times New Roman,serif" font-weight="bold" font-size="14.00">English</text>
<text text-anchor="start" x="1197" y="-14.8" font-family="Times New Roman,serif" font-size="14.00" fill="red">reconnoiter</text>
</g>
<!-- reconnoitreF&#45;&gt;reconnoiter -->
<g id="edge56" class="edge">
<title>reconnoitreF&#45;&gt;reconnoiter</title>
<path fill="none" stroke="black" stroke-dasharray="5,2" d="M1229,-106.52C1229,-94.75 1229,-80.28 1229,-67.29"/>
<polygon fill="black" stroke="black" points="1232.5,-67.28 1229,-57.28 1225.5,-67.28 1232.5,-67.28"/>
</g>
</g>
</svg>
