<?xml version="1.0" encoding="UTF-8" standalone="no"?>
<!DOCTYPE svg PUBLIC "-//W3C//DTD SVG 1.1//EN"
 "http://www.w3.org/Graphics/SVG/1.1/DTD/svg11.dtd">
<!-- Generated by graphviz version 2.49.0 (20210828.1703)
 -->
<!-- Pages: 1 -->
<svg width="227pt" height="220pt"
 viewBox="0.00 0.00 227.00 220.00" xmlns="http://www.w3.org/2000/svg" xmlns:xlink="http://www.w3.org/1999/xlink">
<g id="graph0" class="graph" transform="scale(1 1) rotate(0) translate(4 216)">
<polygon fill="white" stroke="transparent" points="-4,4 -4,-216 223,-216 223,4 -4,4"/>
<!-- gno -->
<g id="node1" class="node">
<title>gno</title>
<g id="a_node1"><a xlink:title="Indo&#45;European &quot;*gnō&#45;&quot; to know">
<polygon fill="none" stroke="black" points="215,-208 4,-208 4,-104 215,-104 215,-208"/>
<polygon fill="none" stroke="black" points="219,-212 0,-212 0,-100 219,-100 219,-212"/>
<text text-anchor="start" x="31.5" y="-163.8" font-family="Times New Roman,serif" font-weight="bold" font-size="24.00">Indo&#45;European</text>
<text text-anchor="start" x="45" y="-135.6" font-family="Times New Roman,serif" font-size="18.00" fill="red">*gnō&#45;</text>
<text text-anchor="start" x="122.5" y="-136.2" font-family="Times New Roman,serif" font-size="16.00">to know</text>
</a>
</g>
</g>
<!-- gne -->
<g id="node2" class="node">
<title>gne</title>
<g id="a_node2"><a xlink:href="gno-know1.svg" xlink:title="*gnē&#45;, *gn̥ə&#45;">
<path fill="none" stroke="black" stroke-dasharray="5,2" d="M79,-64C79,-64 42,-64 42,-64 36,-64 30,-58 30,-52 30,-52 30,-12 30,-12 30,-6 36,0 42,0 42,0 79,0 79,0 85,0 91,-6 91,-12 91,-12 91,-52 91,-52 91,-58 85,-64 79,-64"/>
<text text-anchor="start" x="45.5" y="-41.8" font-family="Times New Roman,serif" font-size="14.00" fill="red">*gnē&#45;</text>
<text text-anchor="start" x="45.5" y="-14.8" font-family="Times New Roman,serif" font-size="14.00" fill="red">*gn̥ə&#45;</text>
</a>
</g>
</g>
<!-- gno&#45;&gt;gne -->
<g id="edge1" class="edge">
<title>gno&#45;&gt;gne</title>
<path fill="none" stroke="black" d="M87.29,-99.71C83.76,-90.92 80.17,-81.97 76.81,-73.6"/>
<polygon fill="black" stroke="black" points="79.96,-72.06 72.98,-64.08 73.46,-74.67 79.96,-72.06"/>
</g>
<!-- suff -->
<g id="node3" class="node">
<title>suff</title>
<g id="a_node3"><a xlink:href="gno-know2.svg" xlink:title="suffixed forms">
<path fill="none" stroke="black" stroke-dasharray="5,2" d="M195.5,-50C195.5,-50 121.5,-50 121.5,-50 115.5,-50 109.5,-44 109.5,-38 109.5,-38 109.5,-26 109.5,-26 109.5,-20 115.5,-14 121.5,-14 121.5,-14 195.5,-14 195.5,-14 201.5,-14 207.5,-20 207.5,-26 207.5,-26 207.5,-38 207.5,-38 207.5,-44 201.5,-50 195.5,-50"/>
<text text-anchor="start" x="117.5" y="-28.3" font-family="Times New Roman,serif" font-size="14.00">suffixed forms</text>
</a>
</g>
</g>
<!-- gno&#45;&gt;suff -->
<g id="edge2" class="edge">
<title>gno&#45;&gt;suff</title>
<path fill="none" stroke="black" d="M131.71,-99.71C137.27,-85.86 142.99,-71.62 147.71,-59.87"/>
<polygon fill="black" stroke="black" points="151.09,-60.84 151.57,-50.25 144.6,-58.23 151.09,-60.84"/>
</g>
</g>
</svg>
