<?xml version="1.0" encoding="UTF-8" standalone="no"?>
<!DOCTYPE svg PUBLIC "-//W3C//DTD SVG 1.1//EN"
 "http://www.w3.org/Graphics/SVG/1.1/DTD/svg11.dtd">
<!-- Generated by graphviz version 2.49.0 (20210828.1703)
 -->
<!-- Pages: 1 -->
<svg width="1121pt" height="690pt"
 viewBox="0.00 0.00 1121.00 690.00" xmlns="http://www.w3.org/2000/svg" xmlns:xlink="http://www.w3.org/1999/xlink">
<g id="graph0" class="graph" transform="scale(1 1) rotate(0) translate(4 686)">
<polygon fill="white" stroke="transparent" points="-4,4 -4,-686 1117,-686 1117,4 -4,4"/>
<!-- gno -->
<g id="node1" class="node">
<title>gno</title>
<g id="a_node1"><a xlink:href="gno-know0.svg" xlink:title="Indo&#45;European &quot;*gnō&#45;&quot; to know">
<path fill="none" stroke="black" stroke-dasharray="5,2" d="M460.5,-682C460.5,-682 311.5,-682 311.5,-682 305.5,-682 299.5,-676 299.5,-670 299.5,-670 299.5,-644 299.5,-644 299.5,-638 305.5,-632 311.5,-632 311.5,-632 460.5,-632 460.5,-632 466.5,-632 472.5,-638 472.5,-644 472.5,-644 472.5,-670 472.5,-670 472.5,-676 466.5,-682 460.5,-682"/>
<text text-anchor="start" x="307.5" y="-659.8" font-family="Times New Roman,serif" font-weight="bold" font-size="24.00">Indo&#45;European</text>
<text text-anchor="start" x="337" y="-640.6" font-family="Times New Roman,serif" font-size="18.00" fill="red">*gnō&#45; </text>
<text text-anchor="start" x="383" y="-640.6" font-family="Times New Roman,serif" font-size="16.00">to know</text>
</a>
</g>
</g>
<!-- gnosko -->
<g id="node2" class="node">
<title>gnosko</title>
<text text-anchor="start" x="89" y="-555.3" font-family="Times New Roman,serif" font-size="14.00" fill="red">*gnō&#45;sko&#45;</text>
</g>
<!-- gno&#45;&gt;gnosko -->
<g id="edge1" class="edge">
<title>gno&#45;&gt;gnosko</title>
<path fill="none" stroke="black" d="M299.28,-640.99C257.02,-631.6 206.31,-617.17 164,-596 157.27,-592.63 150.57,-588.19 144.45,-583.58"/>
<polygon fill="black" stroke="black" points="146.53,-580.76 136.53,-577.27 142.17,-586.23 146.53,-580.76"/>
</g>
<!-- gnoro -->
<g id="node3" class="node">
<title>gnoro</title>
<text text-anchor="start" x="181.5" y="-555.3" font-family="Times New Roman,serif" font-size="14.00" fill="red">*gnō&#45;ro&#45;</text>
</g>
<!-- gno&#45;&gt;gnoro -->
<g id="edge2" class="edge">
<title>gno&#45;&gt;gnoro</title>
<path fill="none" stroke="black" d="M318.8,-631.97C295.28,-622.28 269.21,-610.05 247,-596 241.43,-592.48 235.86,-588.21 230.7,-583.87"/>
<polygon fill="black" stroke="black" points="232.81,-581.06 222.99,-577.07 228.18,-586.31 232.81,-581.06"/>
</g>
<!-- gnodhli -->
<g id="node4" class="node">
<title>gnodhli</title>
<text text-anchor="start" x="359.5" y="-555.3" font-family="Times New Roman,serif" font-size="14.00" fill="red">*gnō&#45;dhli</text>
</g>
<!-- gno&#45;&gt;gnodhli -->
<g id="edge3" class="edge">
<title>gno&#45;&gt;gnodhli</title>
<path fill="none" stroke="black" d="M386,-631.78C386,-618.23 386,-601.31 386,-587.3"/>
<polygon fill="black" stroke="black" points="389.5,-587.25 386,-577.25 382.5,-587.25 389.5,-587.25"/>
</g>
<!-- gignosko -->
<g id="node5" class="node">
<title>gignosko</title>
<text text-anchor="start" x="533" y="-555.3" font-family="Times New Roman,serif" font-size="14.00" fill="red">*gi&#45;gnō&#45;sko&#45;</text>
</g>
<!-- gno&#45;&gt;gignosko -->
<g id="edge4" class="edge">
<title>gno&#45;&gt;gignosko</title>
<path fill="none" stroke="black" d="M432.18,-631.78C461.51,-616.39 499.15,-596.64 527.53,-581.75"/>
<polygon fill="black" stroke="black" points="529.17,-584.85 536.4,-577.1 525.91,-578.65 529.17,-584.85"/>
</g>
<!-- gnero -->
<g id="node6" class="node">
<title>gnero</title>
<text text-anchor="start" x="1038" y="-555.3" font-family="Times New Roman,serif" font-size="14.00" fill="red">*gn̥ə&#45;ro&#45;</text>
</g>
<!-- gno&#45;&gt;gnero -->
<g id="edge5" class="edge">
<title>gno&#45;&gt;gnero</title>
<path fill="none" stroke="black" d="M472.71,-654.11C622.41,-649.81 922.56,-636.3 1019,-596 1025.92,-593.11 1032.56,-588.7 1038.48,-583.95"/>
<polygon fill="black" stroke="black" points="1040.79,-586.57 1046.04,-577.37 1036.2,-581.29 1040.79,-586.57"/>
</g>
<!-- gnoscereL -->
<g id="node7" class="node">
<title>gnoscereL</title>
<g id="a_node7"><a xlink:href="gno-know3.svg" xlink:title="(g)nōscere">
<path fill="none" stroke="black" stroke-dasharray="5,2" d="M147.5,-486C147.5,-486 88.5,-486 88.5,-486 82.5,-486 76.5,-480 76.5,-474 76.5,-474 76.5,-450 76.5,-450 76.5,-444 82.5,-438 88.5,-438 88.5,-438 147.5,-438 147.5,-438 153.5,-438 159.5,-444 159.5,-450 159.5,-450 159.5,-474 159.5,-474 159.5,-480 153.5,-486 147.5,-486"/>
<text text-anchor="start" x="101.5" y="-471.8" font-family="Times New Roman,serif" font-weight="bold" font-size="14.00">Latin</text>
<text text-anchor="start" x="88" y="-457.8" font-family="Times New Roman,serif" font-size="14.00" fill="red">(g)nōscere</text>
<text text-anchor="start" x="84.5" y="-445.4" font-family="Times New Roman,serif" font-size="12.00">to get to know</text>
</a>
</g>
</g>
<!-- gnosko&#45;&gt;gnoscereL -->
<g id="edge6" class="edge">
<title>gnosko&#45;&gt;gnoscereL</title>
<path fill="none" stroke="black" d="M118,-540.58C118,-528.25 118,-511.33 118,-496.44"/>
<polygon fill="black" stroke="black" points="121.5,-496.05 118,-486.05 114.5,-496.05 121.5,-496.05"/>
</g>
<!-- ignorareL -->
<g id="node10" class="node">
<title>ignorareL</title>
<text text-anchor="start" x="157.5" y="-387.8" font-family="Times New Roman,serif" font-weight="bold" font-size="14.00">Latin</text>
<text text-anchor="start" x="151" y="-373.8" font-family="Times New Roman,serif" font-size="14.00" fill="red">ignōrāre</text>
<text text-anchor="start" x="146.5" y="-361.4" font-family="Times New Roman,serif" font-size="12.00">not to know</text>
</g>
<!-- gnoro&#45;&gt;ignorareL -->
<g id="edge8" class="edge">
<title>gnoro&#45;&gt;ignorareL</title>
<path fill="none" stroke="black" d="M202.93,-540.84C197.66,-511.32 186.78,-450.46 179.96,-412.36"/>
<polygon fill="black" stroke="black" points="183.36,-411.49 178.16,-402.26 176.47,-412.72 183.36,-411.49"/>
</g>
<!-- nobilisL -->
<g id="node18" class="node">
<title>nobilisL</title>
<text text-anchor="start" x="344.5" y="-471.8" font-family="Times New Roman,serif" font-weight="bold" font-size="14.00">Latin</text>
<text text-anchor="start" x="342.5" y="-457.8" font-family="Times New Roman,serif" font-size="14.00" fill="red">nōbilis</text>
<text text-anchor="start" x="329" y="-445.4" font-family="Times New Roman,serif" font-size="12.00">famous, noble</text>
</g>
<!-- gnodhli&#45;&gt;nobilisL -->
<g id="edge17" class="edge">
<title>gnodhli&#45;&gt;nobilisL</title>
<path fill="none" stroke="black" d="M381.41,-540.58C378.14,-528.13 373.63,-511 369.69,-496"/>
<polygon fill="black" stroke="black" points="372.99,-494.83 367.06,-486.05 366.23,-496.61 372.99,-494.83"/>
</g>
<!-- gignoskeinGk -->
<g id="node29" class="node">
<title>gignoskeinGk</title>
<text text-anchor="start" x="635" y="-465.8" font-family="Times New Roman,serif" font-weight="bold" font-size="14.00">Greek</text>
<text text-anchor="start" x="625" y="-451.8" font-family="Times New Roman,serif" font-size="14.00" fill="red">gignōskein</text>
</g>
<!-- gignosko&#45;&gt;gignoskeinGk -->
<g id="edge29" class="edge">
<title>gignosko&#45;&gt;gignoskeinGk</title>
<path fill="none" stroke="black" d="M584.77,-540.58C598.11,-525.84 617.38,-504.56 632.36,-488.01"/>
<polygon fill="black" stroke="black" points="635.21,-490.08 639.33,-480.31 630.02,-485.38 635.21,-490.08"/>
</g>
<!-- gnarusL -->
<g id="node26" class="node">
<title>gnarusL</title>
<text text-anchor="start" x="1046.5" y="-471.8" font-family="Times New Roman,serif" font-weight="bold" font-size="14.00">Latin</text>
<text text-anchor="start" x="1044.5" y="-457.8" font-family="Times New Roman,serif" font-size="14.00" fill="red">gnārus</text>
<text text-anchor="start" x="1026.5" y="-445.4" font-family="Times New Roman,serif" font-size="12.00">knowing, expert</text>
</g>
<!-- gnero&#45;&gt;gnarusL -->
<g id="edge26" class="edge">
<title>gnero&#45;&gt;gnarusL</title>
<path fill="none" stroke="black" d="M1062.18,-540.58C1062.31,-528.25 1062.49,-511.33 1062.65,-496.44"/>
<polygon fill="black" stroke="black" points="1066.15,-496.08 1062.76,-486.05 1059.15,-496.01 1066.15,-496.08"/>
</g>
<!-- neIE -->
<g id="node8" class="node">
<title>neIE</title>
<g id="a_node8"><a xlink:href="ne-not3.svg" xlink:title="&lt;b&gt;Indo&#45;&lt;br/&gt;European&lt;/b&gt;&lt;br/&gt;&lt;font color=&quot;red&quot;&gt;*ne&lt;/font&gt;&lt;br/&gt;&lt;font point&#45;size=&quot;12&quot;&gt;not&lt;/font&gt;">
<path fill="none" stroke="black" stroke-dasharray="5,2" d="M321.5,-590C321.5,-590 268.5,-590 268.5,-590 262.5,-590 256.5,-584 256.5,-578 256.5,-578 256.5,-540 256.5,-540 256.5,-534 262.5,-528 268.5,-528 268.5,-528 321.5,-528 321.5,-528 327.5,-528 333.5,-534 333.5,-540 333.5,-540 333.5,-578 333.5,-578 333.5,-584 327.5,-590 321.5,-590"/>
<text text-anchor="start" x="278.5" y="-575.8" font-family="Times New Roman,serif" font-weight="bold" font-size="14.00">Indo&#45;</text>
<text text-anchor="start" x="264.5" y="-561.8" font-family="Times New Roman,serif" font-weight="bold" font-size="14.00">European</text>
<text text-anchor="start" x="285" y="-547.8" font-family="Times New Roman,serif" font-size="14.00" fill="red">*ne</text>
<text text-anchor="start" x="287.5" y="-535.4" font-family="Times New Roman,serif" font-size="12.00">not</text>
</a>
</g>
</g>
<!-- inL -->
<g id="node9" class="node">
<title>inL</title>
<text text-anchor="start" x="251.5" y="-465.8" font-family="Times New Roman,serif" font-weight="bold" font-size="14.00">Latin</text>
<text text-anchor="start" x="253" y="-451.8" font-family="Times New Roman,serif" font-size="14.00" fill="red">in&#45;, i&#45;</text>
</g>
<!-- neIE&#45;&gt;inL -->
<g id="edge7" class="edge">
<title>neIE&#45;&gt;inL</title>
<path fill="none" stroke="black" d="M286.46,-527.94C282.99,-515.75 279.02,-501.78 275.65,-489.92"/>
<polygon fill="black" stroke="black" points="278.97,-488.81 272.87,-480.15 272.24,-490.72 278.97,-488.81"/>
</g>
<!-- aGk -->
<g id="node40" class="node">
<title>aGk</title>
<text text-anchor="start" x="430" y="-387.8" font-family="Times New Roman,serif" font-weight="bold" font-size="14.00">Greek</text>
<text text-anchor="start" x="444.5" y="-373.8" font-family="Times New Roman,serif" font-size="14.00" fill="red">a&#45;</text>
<text text-anchor="start" x="433" y="-361.4" font-family="Times New Roman,serif" font-size="12.00">without</text>
</g>
<!-- neIE&#45;&gt;aGk -->
<g id="edge40" class="edge">
<title>neIE&#45;&gt;aGk</title>
<path fill="none" stroke="black" d="M333.1,-527.99C336.07,-525.91 339.06,-523.89 342,-522 370.78,-503.54 387.43,-511.69 410,-486 428.27,-465.2 438.51,-435.26 444.05,-412.34"/>
<polygon fill="black" stroke="black" points="447.51,-412.88 446.27,-402.36 440.68,-411.36 447.51,-412.88"/>
</g>
<!-- inL&#45;&gt;ignorareL -->
<g id="edge9" class="edge">
<title>inL&#45;&gt;ignorareL</title>
<path fill="none" stroke="black" d="M248.07,-443.61C236.53,-433.55 221.7,-420.61 208.34,-408.96"/>
<polygon fill="black" stroke="black" points="210.52,-406.21 200.69,-402.28 205.92,-411.49 210.52,-406.21"/>
</g>
<!-- ignobilisL -->
<g id="node22" class="node">
<title>ignobilisL</title>
<text text-anchor="start" x="251.5" y="-381.8" font-family="Times New Roman,serif" font-weight="bold" font-size="14.00">Latin</text>
<text text-anchor="start" x="244.5" y="-367.8" font-family="Times New Roman,serif" font-size="14.00" fill="red">ignōbilis</text>
</g>
<!-- inL&#45;&gt;ignobilisL -->
<g id="edge21" class="edge">
<title>inL&#45;&gt;ignobilisL</title>
<path fill="none" stroke="black" d="M268,-443.61C268,-432.77 268,-418.6 268,-406.29"/>
<polygon fill="black" stroke="black" points="271.5,-406.08 268,-396.08 264.5,-406.08 271.5,-406.08"/>
</g>
<!-- ignorerOF -->
<g id="node11" class="node">
<title>ignorerOF</title>
<text text-anchor="start" x="8" y="-297.8" font-family="Times New Roman,serif" font-weight="bold" font-size="14.00">Old French</text>
<text text-anchor="start" x="23" y="-283.8" font-family="Times New Roman,serif" font-size="14.00" fill="red">ignorer</text>
</g>
<!-- ignorareL&#45;&gt;ignorerOF -->
<g id="edge10" class="edge">
<title>ignorareL&#45;&gt;ignorerOF</title>
<path fill="none" stroke="black" d="M138.2,-354.59C119.84,-343.1 97.54,-329.14 79.13,-317.62"/>
<polygon fill="black" stroke="black" points="80.78,-314.52 70.44,-312.18 77.06,-320.45 80.78,-314.52"/>
</g>
<!-- ignoransL -->
<g id="node14" class="node">
<title>ignoransL</title>
<text text-anchor="start" x="148.5" y="-303.8" font-family="Times New Roman,serif" font-weight="bold" font-size="14.00">Latin</text>
<text text-anchor="start" x="112.5" y="-289.8" font-family="Times New Roman,serif" font-size="14.00" fill="red">ignōrāns, ignōrant&#45;</text>
<text text-anchor="start" x="140.5" y="-277.4" font-family="Times New Roman,serif" font-size="12.00">unknowing</text>
</g>
<!-- ignorareL&#45;&gt;ignoransL -->
<g id="edge13" class="edge">
<title>ignorareL&#45;&gt;ignoransL</title>
<path fill="none" stroke="black" d="M171.45,-353.72C170.57,-345.78 169.58,-336.73 168.64,-328.16"/>
<polygon fill="black" stroke="black" points="172.1,-327.61 167.53,-318.05 165.14,-328.38 172.1,-327.61"/>
</g>
<!-- ignorerF -->
<g id="node12" class="node">
<title>ignorerF</title>
<text text-anchor="start" x="21" y="-212.8" font-family="Times New Roman,serif" font-weight="bold" font-size="14.00">French</text>
<text text-anchor="start" x="23" y="-198.8" font-family="Times New Roman,serif" font-size="14.00" fill="red">ignorer</text>
</g>
<!-- ignorerOF&#45;&gt;ignorerF -->
<g id="edge11" class="edge">
<title>ignorerOF&#45;&gt;ignorerF</title>
<path fill="none" stroke="black" d="M43,-275.8C43,-264.67 43,-249.94 43,-237.24"/>
<polygon fill="black" stroke="black" points="46.5,-237.18 43,-227.18 39.5,-237.18 46.5,-237.18"/>
</g>
<!-- ignore -->
<g id="node13" class="node">
<title>ignore</title>
<text text-anchor="start" x="18.5" y="-41.8" font-family="Times New Roman,serif" font-weight="bold" font-size="14.00">Modern</text>
<text text-anchor="start" x="20" y="-27.8" font-family="Times New Roman,serif" font-weight="bold" font-size="14.00">English</text>
<text text-anchor="start" x="25.5" y="-13.8" font-family="Times New Roman,serif" font-size="14.00" fill="red">ignore</text>
</g>
<!-- ignorerF&#45;&gt;ignore -->
<g id="edge12" class="edge">
<title>ignorerF&#45;&gt;ignore</title>
<path fill="none" stroke="black" stroke-dasharray="5,2" d="M43,-190.8C43,-162.15 43,-104.09 43,-66.67"/>
<polygon fill="black" stroke="black" points="46.5,-66.24 43,-56.24 39.5,-66.24 46.5,-66.24"/>
</g>
<!-- ignorantOF -->
<g id="node15" class="node">
<title>ignorantOF</title>
<text text-anchor="start" x="130" y="-212.8" font-family="Times New Roman,serif" font-weight="bold" font-size="14.00">Old French</text>
<text text-anchor="start" x="142" y="-198.8" font-family="Times New Roman,serif" font-size="14.00" fill="red">ignorant</text>
</g>
<!-- ignoransL&#45;&gt;ignorantOF -->
<g id="edge14" class="edge">
<title>ignoransL&#45;&gt;ignorantOF</title>
<path fill="none" stroke="black" d="M165,-269.88C165,-259.84 165,-248 165,-237.51"/>
<polygon fill="black" stroke="black" points="168.5,-237.21 165,-227.21 161.5,-237.21 168.5,-237.21"/>
</g>
<!-- ignorauntME -->
<g id="node16" class="node">
<title>ignorauntME</title>
<text text-anchor="start" x="143.5" y="-133.8" font-family="Times New Roman,serif" font-weight="bold" font-size="14.00">Middle</text>
<text text-anchor="start" x="142" y="-119.8" font-family="Times New Roman,serif" font-weight="bold" font-size="14.00">English</text>
<text text-anchor="start" x="139" y="-105.8" font-family="Times New Roman,serif" font-size="14.00" fill="red">ignoraunt</text>
</g>
<!-- ignorantOF&#45;&gt;ignorauntME -->
<g id="edge15" class="edge">
<title>ignorantOF&#45;&gt;ignorauntME</title>
<path fill="none" stroke="black" stroke-dasharray="5,2" d="M165,-190.6C165,-181.27 165,-169.45 165,-158.37"/>
<polygon fill="black" stroke="black" points="168.5,-158.07 165,-148.07 161.5,-158.07 168.5,-158.07"/>
</g>
<!-- ignorant -->
<g id="node17" class="node">
<title>ignorant</title>
<text text-anchor="start" x="140.5" y="-41.8" font-family="Times New Roman,serif" font-weight="bold" font-size="14.00">Modern</text>
<text text-anchor="start" x="142" y="-27.8" font-family="Times New Roman,serif" font-weight="bold" font-size="14.00">English</text>
<text text-anchor="start" x="142" y="-13.8" font-family="Times New Roman,serif" font-size="14.00" fill="red">ignorant</text>
</g>
<!-- ignorauntME&#45;&gt;ignorant -->
<g id="edge16" class="edge">
<title>ignorauntME&#45;&gt;ignorant</title>
<path fill="none" stroke="black" d="M165,-97.88C165,-88.2 165,-76.85 165,-66.34"/>
<polygon fill="black" stroke="black" points="168.5,-66.18 165,-56.18 161.5,-66.18 168.5,-66.18"/>
</g>
<!-- nobleOF -->
<g id="node19" class="node">
<title>nobleOF</title>
<text text-anchor="start" x="326" y="-381.8" font-family="Times New Roman,serif" font-weight="bold" font-size="14.00">Old French</text>
<text text-anchor="start" x="345.5" y="-367.8" font-family="Times New Roman,serif" font-size="14.00" fill="red">noble</text>
</g>
<!-- nobilisL&#45;&gt;nobleOF -->
<g id="edge18" class="edge">
<title>nobilisL&#45;&gt;nobleOF</title>
<path fill="none" stroke="black" d="M361,-437.72C361,-427.88 361,-416.36 361,-406.13"/>
<polygon fill="black" stroke="black" points="364.5,-406.08 361,-396.08 357.5,-406.08 364.5,-406.08"/>
</g>
<!-- nobilisL&#45;&gt;ignobilisL -->
<g id="edge22" class="edge">
<title>nobilisL&#45;&gt;ignobilisL</title>
<path fill="none" stroke="black" d="M334.6,-437.72C322.26,-426.85 307.59,-413.91 295.16,-402.95"/>
<polygon fill="black" stroke="black" points="297.18,-400.07 287.37,-396.08 292.55,-405.32 297.18,-400.07"/>
</g>
<!-- nobleME -->
<g id="node20" class="node">
<title>nobleME</title>
<text text-anchor="start" x="339.5" y="-219.8" font-family="Times New Roman,serif" font-weight="bold" font-size="14.00">Middle</text>
<text text-anchor="start" x="338" y="-205.8" font-family="Times New Roman,serif" font-weight="bold" font-size="14.00">English</text>
<text text-anchor="start" x="345.5" y="-191.8" font-family="Times New Roman,serif" font-size="14.00" fill="red">noble</text>
</g>
<!-- nobleOF&#45;&gt;nobleME -->
<g id="edge19" class="edge">
<title>nobleOF&#45;&gt;nobleME</title>
<path fill="none" stroke="black" stroke-dasharray="5,2" d="M361,-359.76C361,-332.64 361,-279.52 361,-244.39"/>
<polygon fill="black" stroke="black" points="364.5,-244.11 361,-234.11 357.5,-244.11 364.5,-244.11"/>
</g>
<!-- noble -->
<g id="node21" class="node">
<title>noble</title>
<text text-anchor="start" x="336.5" y="-41.8" font-family="Times New Roman,serif" font-weight="bold" font-size="14.00">Modern</text>
<text text-anchor="start" x="338" y="-27.8" font-family="Times New Roman,serif" font-weight="bold" font-size="14.00">English</text>
<text text-anchor="start" x="345.5" y="-13.8" font-family="Times New Roman,serif" font-size="14.00" fill="red">noble</text>
</g>
<!-- nobleME&#45;&gt;noble -->
<g id="edge20" class="edge">
<title>nobleME&#45;&gt;noble</title>
<path fill="none" stroke="black" d="M361,-183.9C361,-153.44 361,-100.82 361,-66.21"/>
<polygon fill="black" stroke="black" points="364.5,-66.09 361,-56.09 357.5,-66.09 364.5,-66.09"/>
</g>
<!-- ignobleOF -->
<g id="node23" class="node">
<title>ignobleOF</title>
<text text-anchor="start" x="252" y="-297.8" font-family="Times New Roman,serif" font-weight="bold" font-size="14.00">Old French</text>
<text text-anchor="start" x="266.5" y="-283.8" font-family="Times New Roman,serif" font-size="14.00" fill="red">ignoble</text>
</g>
<!-- ignobilisL&#45;&gt;ignobleOF -->
<g id="edge23" class="edge">
<title>ignobilisL&#45;&gt;ignobleOF</title>
<path fill="none" stroke="black" d="M272.03,-359.61C274.57,-348.66 277.89,-334.31 280.76,-321.92"/>
<polygon fill="black" stroke="black" points="284.19,-322.62 283.04,-312.08 277.37,-321.04 284.19,-322.62"/>
</g>
<!-- ignobleME -->
<g id="node24" class="node">
<title>ignobleME</title>
<text text-anchor="start" x="257.5" y="-133.8" font-family="Times New Roman,serif" font-weight="bold" font-size="14.00">Middle</text>
<text text-anchor="start" x="256" y="-119.8" font-family="Times New Roman,serif" font-weight="bold" font-size="14.00">English</text>
<text text-anchor="start" x="258.5" y="-105.8" font-family="Times New Roman,serif" font-size="14.00" fill="red">ignoble</text>
</g>
<!-- ignobleOF&#45;&gt;ignobleME -->
<g id="edge24" class="edge">
<title>ignobleOF&#45;&gt;ignobleME</title>
<path fill="none" stroke="black" stroke-dasharray="5,2" d="M286.19,-275.87C284.89,-248.49 282.33,-194.34 280.64,-158.65"/>
<polygon fill="black" stroke="black" points="284.12,-158.04 280.15,-148.22 277.12,-158.37 284.12,-158.04"/>
</g>
<!-- ignoble -->
<g id="node25" class="node">
<title>ignoble</title>
<text text-anchor="start" x="253.5" y="-41.8" font-family="Times New Roman,serif" font-weight="bold" font-size="14.00">Modern</text>
<text text-anchor="start" x="255" y="-27.8" font-family="Times New Roman,serif" font-weight="bold" font-size="14.00">English</text>
<text text-anchor="start" x="257.5" y="-13.8" font-family="Times New Roman,serif" font-size="14.00" fill="red">ignoble</text>
</g>
<!-- ignobleME&#45;&gt;ignoble -->
<g id="edge25" class="edge">
<title>ignobleME&#45;&gt;ignoble</title>
<path fill="none" stroke="black" d="M278.73,-97.88C278.62,-88.2 278.5,-76.85 278.38,-66.34"/>
<polygon fill="black" stroke="black" points="281.88,-66.15 278.27,-56.18 274.88,-66.22 281.88,-66.15"/>
</g>
<!-- narrareL -->
<g id="node27" class="node">
<title>narrareL</title>
<text text-anchor="start" x="1023" y="-125.8" font-family="Times New Roman,serif" font-size="14.00" fill="red">narrāre, narrāt&#45;</text>
<text text-anchor="start" x="1051.5" y="-113.4" font-family="Times New Roman,serif" font-size="12.00">to tell</text>
</g>
<!-- gnarusL&#45;&gt;narrareL -->
<g id="edge27" class="edge">
<title>gnarusL&#45;&gt;narrareL</title>
<path fill="none" stroke="black" d="M1063.07,-437.84C1063.25,-377.53 1063.73,-215.86 1063.92,-151.24"/>
<polygon fill="black" stroke="black" points="1067.42,-151.05 1063.95,-141.04 1060.42,-151.03 1067.42,-151.05"/>
</g>
<!-- narrate -->
<g id="node28" class="node">
<title>narrate</title>
<text text-anchor="start" x="1040.5" y="-41.8" font-family="Times New Roman,serif" font-weight="bold" font-size="14.00">Modern</text>
<text text-anchor="start" x="1042" y="-27.8" font-family="Times New Roman,serif" font-weight="bold" font-size="14.00">English</text>
<text text-anchor="start" x="1046" y="-13.8" font-family="Times New Roman,serif" font-size="14.00" fill="red">narrate</text>
</g>
<!-- narrareL&#45;&gt;narrate -->
<g id="edge28" class="edge">
<title>narrareL&#45;&gt;narrate</title>
<path fill="none" stroke="black" stroke-dasharray="5,2" d="M1064.19,-104.65C1064.31,-93.76 1064.47,-79.36 1064.62,-66.25"/>
<polygon fill="black" stroke="black" points="1068.12,-66.14 1064.73,-56.1 1061.12,-66.06 1068.12,-66.14"/>
</g>
<!-- gnomeGk -->
<g id="node30" class="node">
<title>gnomeGk</title>
<text text-anchor="start" x="595" y="-119.3" font-family="Times New Roman,serif" font-size="14.00" fill="red">gnōmē</text>
</g>
<!-- gignoskeinGk&#45;&gt;gnomeGk -->
<g id="edge30" class="edge">
<title>gignoskeinGk&#45;&gt;gnomeGk</title>
<path fill="none" stroke="black" d="M652.91,-443.82C646.25,-389.06 625.47,-218.27 617.32,-151.32"/>
<polygon fill="black" stroke="black" points="620.77,-150.64 616.09,-141.14 613.82,-151.49 620.77,-150.64"/>
</g>
<!-- gnomonGk -->
<g id="node32" class="node">
<title>gnomonGk</title>
<text text-anchor="start" x="675" y="-380.8" font-family="Times New Roman,serif" font-size="14.00" fill="red">gnōmōn</text>
<text text-anchor="start" x="674.5" y="-368.4" font-family="Times New Roman,serif" font-size="12.00">interpreter</text>
</g>
<!-- gignoskeinGk&#45;&gt;gnomonGk -->
<g id="edge32" class="edge">
<title>gignoskeinGk&#45;&gt;gnomonGk</title>
<path fill="none" stroke="black" d="M664.12,-443.61C669.97,-432.45 677.69,-417.74 684.27,-405.18"/>
<polygon fill="black" stroke="black" points="687.5,-406.57 689.04,-396.08 681.3,-403.31 687.5,-406.57"/>
</g>
<!-- gnosisGk -->
<g id="node35" class="node">
<title>gnosisGk</title>
<text text-anchor="start" x="531" y="-387.8" font-family="Times New Roman,serif" font-weight="bold" font-size="14.00">Greek</text>
<text text-anchor="start" x="532.5" y="-373.8" font-family="Times New Roman,serif" font-size="14.00" fill="red">gnōsis</text>
<text text-anchor="start" x="526" y="-361.4" font-family="Times New Roman,serif" font-size="12.00">knowledge</text>
</g>
<!-- gignoskeinGk&#45;&gt;gnosisGk -->
<g id="edge35" class="edge">
<title>gignoskeinGk&#45;&gt;gnosisGk</title>
<path fill="none" stroke="black" d="M633.2,-443.81C620.23,-433.59 603.43,-420.34 588.4,-408.49"/>
<polygon fill="black" stroke="black" points="590.29,-405.52 580.27,-402.08 585.96,-411.02 590.29,-405.52"/>
</g>
<!-- diagignoskeinGk -->
<g id="node44" class="node">
<title>diagignoskeinGk</title>
<text text-anchor="start" x="821" y="-380.8" font-family="Times New Roman,serif" font-size="14.00" fill="red">diagignōskein</text>
<text text-anchor="start" x="830" y="-368.4" font-family="Times New Roman,serif" font-size="12.00">to distinguish</text>
</g>
<!-- gignoskeinGk&#45;&gt;diagignoskeinGk -->
<g id="edge44" class="edge">
<title>gignoskeinGk&#45;&gt;diagignoskeinGk</title>
<path fill="none" stroke="black" d="M693.37,-445.58C725.44,-432.68 771.49,-414.18 806.89,-399.95"/>
<polygon fill="black" stroke="black" points="808.6,-403.03 816.58,-396.05 805.99,-396.53 808.6,-403.03"/>
</g>
<!-- progignoskeinGk -->
<g id="node54" class="node">
<title>progignoskeinGk</title>
<text text-anchor="start" x="932.5" y="-374.3" font-family="Times New Roman,serif" font-size="14.00" fill="red">progignōskein</text>
</g>
<!-- gignoskeinGk&#45;&gt;progignoskeinGk -->
<g id="edge54" class="edge">
<title>gignoskeinGk&#45;&gt;progignoskeinGk</title>
<path fill="none" stroke="black" d="M693.02,-450.78C708.76,-446.65 727.22,-441.94 744,-438 819.18,-420.33 840.06,-424.31 914,-402 916.58,-401.22 919.22,-400.37 921.86,-399.48"/>
<polygon fill="black" stroke="black" points="923.17,-402.73 931.43,-396.09 920.83,-396.13 923.17,-402.73"/>
</g>
<!-- gnome -->
<g id="node31" class="node">
<title>gnome</title>
<text text-anchor="start" x="585.5" y="-47.8" font-family="Times New Roman,serif" font-weight="bold" font-size="14.00">Modern</text>
<text text-anchor="start" x="587" y="-33.8" font-family="Times New Roman,serif" font-weight="bold" font-size="14.00">English</text>
<text text-anchor="start" x="591" y="-19.8" font-family="Times New Roman,serif" font-size="14.00" fill="red">gnome</text>
<text text-anchor="start" x="595" y="-7.4" font-family="Times New Roman,serif" font-size="12.00">maxim</text>
</g>
<!-- gnomeGk&#45;&gt;gnome -->
<g id="edge31" class="edge">
<title>gnomeGk&#45;&gt;gnome</title>
<path fill="none" stroke="black" stroke-dasharray="5,2" d="M613.23,-104.65C612.82,-95.42 612.3,-83.65 611.79,-72.3"/>
<polygon fill="black" stroke="black" points="615.28,-71.9 611.34,-62.06 608.28,-72.21 615.28,-71.9"/>
</g>
<!-- gnomonL -->
<g id="node33" class="node">
<title>gnomonL</title>
<text text-anchor="start" x="676.5" y="-126.8" font-family="Times New Roman,serif" font-weight="bold" font-size="14.00">Latin</text>
<text text-anchor="start" x="670" y="-112.8" font-family="Times New Roman,serif" font-size="14.00" fill="red">gnōmōn</text>
</g>
<!-- gnomonGk&#45;&gt;gnomonL -->
<g id="edge33" class="edge">
<title>gnomonGk&#45;&gt;gnomonL</title>
<path fill="none" stroke="black" stroke-dasharray="5,2" d="M697.66,-359.61C696.8,-316.36 694.57,-203.65 693.54,-151.37"/>
<polygon fill="black" stroke="black" points="697.04,-151.11 693.34,-141.18 690.04,-151.24 697.04,-151.11"/>
</g>
<!-- phusiognomiaGk -->
<g id="node49" class="node">
<title>phusiognomiaGk</title>
<text text-anchor="start" x="734.5" y="-297.8" font-family="Times New Roman,serif" font-size="14.00" fill="red">phusiognōmonia,</text>
<text text-anchor="start" x="743.5" y="-282.8" font-family="Times New Roman,serif" font-size="14.00" fill="red">phusiognōmiā</text>
</g>
<!-- gnomonGk&#45;&gt;phusiognomiaGk -->
<g id="edge49" class="edge">
<title>gnomonGk&#45;&gt;phusiognomiaGk</title>
<path fill="none" stroke="black" d="M716.03,-359.61C727.84,-348.21 743.48,-333.12 756.68,-320.39"/>
<polygon fill="black" stroke="black" points="759.35,-322.68 764.12,-313.22 754.49,-317.64 759.35,-322.68"/>
</g>
<!-- gnomon -->
<g id="node34" class="node">
<title>gnomon</title>
<text text-anchor="start" x="668.5" y="-41.8" font-family="Times New Roman,serif" font-weight="bold" font-size="14.00">Modern</text>
<text text-anchor="start" x="670" y="-27.8" font-family="Times New Roman,serif" font-weight="bold" font-size="14.00">English</text>
<text text-anchor="start" x="670" y="-13.8" font-family="Times New Roman,serif" font-size="14.00" fill="red">gnomon</text>
</g>
<!-- gnomonL&#45;&gt;gnomon -->
<g id="edge34" class="edge">
<title>gnomonL&#45;&gt;gnomon</title>
<path fill="none" stroke="black" stroke-dasharray="5,2" d="M693,-104.65C693,-93.76 693,-79.36 693,-66.25"/>
<polygon fill="black" stroke="black" points="696.5,-66.1 693,-56.1 689.5,-66.1 696.5,-66.1"/>
</g>
<!-- gnostikosGk -->
<g id="node36" class="node">
<title>gnostikosGk</title>
<text text-anchor="start" x="523.5" y="-296.8" font-family="Times New Roman,serif" font-size="14.00" fill="red">gnōstikos</text>
<text text-anchor="start" x="500" y="-284.4" font-family="Times New Roman,serif" font-size="12.00">concerning knowledge</text>
</g>
<!-- gnosisGk&#45;&gt;gnostikosGk -->
<g id="edge36" class="edge">
<title>gnosisGk&#45;&gt;gnostikosGk</title>
<path fill="none" stroke="black" d="M551,-353.72C551,-343.88 551,-332.36 551,-322.13"/>
<polygon fill="black" stroke="black" points="554.5,-322.08 551,-312.08 547.5,-322.08 554.5,-322.08"/>
</g>
<!-- agnosiaGk -->
<g id="node41" class="node">
<title>agnosiaGk</title>
<text text-anchor="start" x="422.5" y="-296.8" font-family="Times New Roman,serif" font-size="14.00" fill="red">agnōsiā</text>
<text text-anchor="start" x="422" y="-284.4" font-family="Times New Roman,serif" font-size="12.00">ignorance</text>
</g>
<!-- gnosisGk&#45;&gt;agnosiaGk -->
<g id="edge41" class="edge">
<title>gnosisGk&#45;&gt;agnosiaGk</title>
<path fill="none" stroke="black" d="M520.91,-353.94C506.44,-342.85 489.13,-329.58 474.6,-318.45"/>
<polygon fill="black" stroke="black" points="476.47,-315.47 466.4,-312.17 472.21,-321.03 476.47,-315.47"/>
</g>
<!-- gnostikos2Gk -->
<g id="node37" class="node">
<title>gnostikos2Gk</title>
<text text-anchor="start" x="504.5" y="-218.8" font-family="Times New Roman,serif" font-weight="bold" font-size="14.00">Late Greek</text>
<text text-anchor="start" x="511" y="-204.8" font-family="Times New Roman,serif" font-size="14.00" fill="red">Gnōstikos</text>
<text text-anchor="start" x="518.5" y="-192.4" font-family="Times New Roman,serif" font-size="12.00">a Gnostic</text>
</g>
<!-- gnostikosGk&#45;&gt;gnostikos2Gk -->
<g id="edge37" class="edge">
<title>gnostikosGk&#45;&gt;gnostikos2Gk</title>
<path fill="none" stroke="black" d="M548.72,-275.8C547.47,-266.35 545.87,-254.3 544.39,-243.1"/>
<polygon fill="black" stroke="black" points="547.85,-242.61 543.07,-233.16 540.91,-243.53 547.85,-242.61"/>
</g>
<!-- gnosticusL -->
<g id="node38" class="node">
<title>gnosticusL</title>
<text text-anchor="start" x="512.5" y="-126.8" font-family="Times New Roman,serif" font-weight="bold" font-size="14.00">Latin</text>
<text text-anchor="start" x="500" y="-112.8" font-family="Times New Roman,serif" font-size="14.00" fill="red">Gnōsticus</text>
</g>
<!-- gnostikos2Gk&#45;&gt;gnosticusL -->
<g id="edge38" class="edge">
<title>gnostikos2Gk&#45;&gt;gnosticusL</title>
<path fill="none" stroke="black" stroke-dasharray="5,2" d="M536.94,-184.6C535.58,-174.26 533.98,-162.04 532.57,-151.28"/>
<polygon fill="black" stroke="black" points="536.01,-150.61 531.25,-141.15 529.07,-151.52 536.01,-150.61"/>
</g>
<!-- gnostic -->
<g id="node39" class="node">
<title>gnostic</title>
<text text-anchor="start" x="502.5" y="-41.8" font-family="Times New Roman,serif" font-weight="bold" font-size="14.00">Modern</text>
<text text-anchor="start" x="504" y="-27.8" font-family="Times New Roman,serif" font-weight="bold" font-size="14.00">English</text>
<text text-anchor="start" x="504.5" y="-13.8" font-family="Times New Roman,serif" font-size="14.00" fill="red">Gnostic</text>
</g>
<!-- gnosticusL&#45;&gt;gnostic -->
<g id="edge39" class="edge">
<title>gnosticusL&#45;&gt;gnostic</title>
<path fill="none" stroke="black" stroke-dasharray="5,2" d="M528.61,-104.65C528.37,-93.76 528.05,-79.36 527.76,-66.25"/>
<polygon fill="black" stroke="black" points="531.26,-66.02 527.54,-56.1 524.26,-66.18 531.26,-66.02"/>
</g>
<!-- aGk&#45;&gt;agnosiaGk -->
<g id="edge42" class="edge">
<title>aGk&#45;&gt;agnosiaGk</title>
<path fill="none" stroke="black" d="M448.3,-353.72C447.58,-343.88 446.73,-332.36 445.99,-322.13"/>
<polygon fill="black" stroke="black" points="449.47,-321.8 445.25,-312.08 442.49,-322.31 449.47,-321.8"/>
</g>
<!-- agnosia -->
<g id="node42" class="node">
<title>agnosia</title>
<text text-anchor="start" x="419.5" y="-41.8" font-family="Times New Roman,serif" font-weight="bold" font-size="14.00">Modern</text>
<text text-anchor="start" x="421" y="-27.8" font-family="Times New Roman,serif" font-weight="bold" font-size="14.00">English</text>
<text text-anchor="start" x="422.5" y="-13.8" font-family="Times New Roman,serif" font-size="14.00" fill="red">agnosia</text>
</g>
<!-- agnosiaGk&#45;&gt;agnosia -->
<g id="edge43" class="edge">
<title>agnosiaGk&#45;&gt;agnosia</title>
<path fill="none" stroke="black" stroke-dasharray="5,2" d="M444,-275.88C444,-233.47 444,-122.94 444,-66.4"/>
<polygon fill="black" stroke="black" points="447.5,-66.17 444,-56.17 440.5,-66.17 447.5,-66.17"/>
</g>
<!-- diaGk -->
<g id="node43" class="node">
<title>diaGk</title>
<text text-anchor="start" x="839" y="-471.8" font-family="Times New Roman,serif" font-weight="bold" font-size="14.00">Greek</text>
<text text-anchor="start" x="848" y="-457.8" font-family="Times New Roman,serif" font-size="14.00" fill="red">dia&#45;</text>
<text text-anchor="start" x="847" y="-445.4" font-family="Times New Roman,serif" font-size="12.00">apart</text>
</g>
<!-- diaGk&#45;&gt;diagignoskeinGk -->
<g id="edge45" class="edge">
<title>diaGk&#45;&gt;diagignoskeinGk</title>
<path fill="none" stroke="black" d="M859,-437.72C859,-427.88 859,-416.36 859,-406.13"/>
<polygon fill="black" stroke="black" points="862.5,-406.08 859,-396.08 855.5,-406.08 862.5,-406.08"/>
</g>
<!-- diagnosisGk -->
<g id="node45" class="node">
<title>diagnosisGk</title>
<text text-anchor="start" x="857.5" y="-125.8" font-family="Times New Roman,serif" font-size="14.00" fill="red">diagnōsis</text>
<text text-anchor="start" x="856.5" y="-113.4" font-family="Times New Roman,serif" font-size="12.00">discernment</text>
</g>
<!-- diagignoskeinGk&#45;&gt;diagnosisGk -->
<g id="edge46" class="edge">
<title>diagignoskeinGk&#45;&gt;diagnosisGk</title>
<path fill="none" stroke="black" d="M860.72,-359.61C864.99,-316.36 876.13,-203.65 881.3,-151.37"/>
<polygon fill="black" stroke="black" points="884.8,-151.47 882.3,-141.18 877.84,-150.78 884.8,-151.47"/>
</g>
<!-- diagnosis -->
<g id="node46" class="node">
<title>diagnosis</title>
<text text-anchor="start" x="864.5" y="-41.8" font-family="Times New Roman,serif" font-weight="bold" font-size="14.00">Modern</text>
<text text-anchor="start" x="866" y="-27.8" font-family="Times New Roman,serif" font-weight="bold" font-size="14.00">English</text>
<text text-anchor="start" x="862.5" y="-13.8" font-family="Times New Roman,serif" font-size="14.00" fill="red">diagnosis</text>
</g>
<!-- diagnosisGk&#45;&gt;diagnosis -->
<g id="edge47" class="edge">
<title>diagnosisGk&#45;&gt;diagnosis</title>
<path fill="none" stroke="black" stroke-dasharray="5,2" d="M884.96,-104.65C885.57,-93.76 886.37,-79.36 887.1,-66.25"/>
<polygon fill="black" stroke="black" points="890.6,-66.28 887.66,-56.1 883.61,-65.89 890.6,-66.28"/>
</g>
<!-- bheuIE -->
<g id="node47" class="node">
<title>bheuIE</title>
<g id="a_node47"><a xlink:href="bheu-grow2.svg" xlink:title="&lt;b&gt;Indo&#45;&lt;br/&gt;European&lt;/b&gt;&lt;br/&gt;&lt;font color=&quot;red&quot;&gt;*bheu(ə)&#45;&lt;/font&gt;&lt;br/&gt;&lt;font point&#45;size=&quot;12&quot;&gt;to be, exist, grow&lt;/font&gt;">
<path fill="none" stroke="black" stroke-dasharray="5,2" d="M818.5,-590C818.5,-590 747.5,-590 747.5,-590 741.5,-590 735.5,-584 735.5,-578 735.5,-578 735.5,-540 735.5,-540 735.5,-534 741.5,-528 747.5,-528 747.5,-528 818.5,-528 818.5,-528 824.5,-528 830.5,-534 830.5,-540 830.5,-540 830.5,-578 830.5,-578 830.5,-584 824.5,-590 818.5,-590"/>
<text text-anchor="start" x="766.5" y="-575.8" font-family="Times New Roman,serif" font-weight="bold" font-size="14.00">Indo&#45;</text>
<text text-anchor="start" x="752.5" y="-561.8" font-family="Times New Roman,serif" font-weight="bold" font-size="14.00">European</text>
<text text-anchor="start" x="756" y="-547.8" font-family="Times New Roman,serif" font-size="14.00" fill="red">*bheu(ə)&#45;</text>
<text text-anchor="start" x="743.5" y="-535.4" font-family="Times New Roman,serif" font-size="12.00">to be, exist, grow</text>
</a>
</g>
</g>
<!-- phusioGk -->
<g id="node48" class="node">
<title>phusioGk</title>
<text text-anchor="start" x="763" y="-471.8" font-family="Times New Roman,serif" font-weight="bold" font-size="14.00">Greek</text>
<text text-anchor="start" x="761.5" y="-457.8" font-family="Times New Roman,serif" font-size="14.00" fill="red">phusio&#45;</text>
<text text-anchor="start" x="764.5" y="-445.4" font-family="Times New Roman,serif" font-size="12.00">physical</text>
</g>
<!-- bheuIE&#45;&gt;phusioGk -->
<g id="edge48" class="edge">
<title>bheuIE&#45;&gt;phusioGk</title>
<path fill="none" stroke="black" d="M783,-527.94C783,-517.94 783,-506.73 783,-496.48"/>
<polygon fill="black" stroke="black" points="786.5,-496.24 783,-486.24 779.5,-496.24 786.5,-496.24"/>
</g>
<!-- phusioGk&#45;&gt;phusiognomiaGk -->
<g id="edge50" class="edge">
<title>phusioGk&#45;&gt;phusiognomiaGk</title>
<path fill="none" stroke="black" d="M783,-437.92C783,-407.98 783,-355.78 783,-323.44"/>
<polygon fill="black" stroke="black" points="786.5,-323.29 783,-313.29 779.5,-323.29 786.5,-323.29"/>
</g>
<!-- physiognomiaL -->
<g id="node50" class="node">
<title>physiognomiaL</title>
<text text-anchor="start" x="755" y="-212.8" font-family="Times New Roman,serif" font-weight="bold" font-size="14.00">Late Latin</text>
<text text-anchor="start" x="747.5" y="-198.8" font-family="Times New Roman,serif" font-size="14.00" fill="red">physiognōmia</text>
</g>
<!-- phusiognomiaGk&#45;&gt;physiognomiaL -->
<g id="edge51" class="edge">
<title>phusiognomiaGk&#45;&gt;physiognomiaL</title>
<path fill="none" stroke="black" stroke-dasharray="5,2" d="M783.87,-274.99C784.4,-264 785.09,-249.74 785.68,-237.37"/>
<polygon fill="black" stroke="black" points="789.19,-237.28 786.17,-227.12 782.2,-236.94 789.19,-237.28"/>
</g>
<!-- physiognomy -->
<g id="node51" class="node">
<title>physiognomy</title>
<text text-anchor="start" x="765.5" y="-41.8" font-family="Times New Roman,serif" font-weight="bold" font-size="14.00">Modern</text>
<text text-anchor="start" x="767" y="-27.8" font-family="Times New Roman,serif" font-weight="bold" font-size="14.00">English</text>
<text text-anchor="start" x="752" y="-13.8" font-family="Times New Roman,serif" font-size="14.00" fill="red">physiognomy</text>
</g>
<!-- physiognomiaL&#45;&gt;physiognomy -->
<g id="edge52" class="edge">
<title>physiognomiaL&#45;&gt;physiognomy</title>
<path fill="none" stroke="black" stroke-dasharray="5,2" d="M787.29,-190.8C787.78,-162.15 788.77,-104.09 789.41,-66.67"/>
<polygon fill="black" stroke="black" points="792.92,-66.3 789.59,-56.24 785.92,-66.18 792.92,-66.3"/>
</g>
<!-- perIE -->
<g id="node52" class="node">
<title>perIE</title>
<g id="a_node52"><a xlink:href="per-pro2.svg" xlink:title="&lt;b&gt;Indo&#45;&lt;br/&gt;European&lt;/b&gt;&lt;br/&gt;&lt;font color=&quot;red&quot;&gt;*per&lt;/font&gt;&lt;br/&gt;&lt;font point&#45;size=&quot;12&quot;&gt;(various&lt;br/&gt;prepositions)&lt;/font&gt;">
<path fill="none" stroke="black" stroke-dasharray="5,2" d="M998.5,-596C998.5,-596 945.5,-596 945.5,-596 939.5,-596 933.5,-590 933.5,-584 933.5,-584 933.5,-534 933.5,-534 933.5,-528 939.5,-522 945.5,-522 945.5,-522 998.5,-522 998.5,-522 1004.5,-522 1010.5,-528 1010.5,-534 1010.5,-534 1010.5,-584 1010.5,-584 1010.5,-590 1004.5,-596 998.5,-596"/>
<text text-anchor="start" x="955.5" y="-581.8" font-family="Times New Roman,serif" font-weight="bold" font-size="14.00">Indo&#45;</text>
<text text-anchor="start" x="941.5" y="-567.8" font-family="Times New Roman,serif" font-weight="bold" font-size="14.00">European</text>
<text text-anchor="start" x="959.5" y="-553.8" font-family="Times New Roman,serif" font-size="14.00" fill="red">*per</text>
<text text-anchor="start" x="953.5" y="-541.4" font-family="Times New Roman,serif" font-size="12.00">(various</text>
<text text-anchor="start" x="942.5" y="-529.4" font-family="Times New Roman,serif" font-size="12.00">prepositions)</text>
</a>
</g>
</g>
<!-- proGk -->
<g id="node53" class="node">
<title>proGk</title>
<text text-anchor="start" x="952" y="-471.8" font-family="Times New Roman,serif" font-weight="bold" font-size="14.00">Greek</text>
<text text-anchor="start" x="959.5" y="-457.8" font-family="Times New Roman,serif" font-size="14.00" fill="red">pro&#45;</text>
<text text-anchor="start" x="957" y="-445.4" font-family="Times New Roman,serif" font-size="12.00">before</text>
</g>
<!-- perIE&#45;&gt;proGk -->
<g id="edge53" class="edge">
<title>perIE&#45;&gt;proGk</title>
<path fill="none" stroke="black" d="M972,-521.81C972,-513.41 972,-504.5 972,-496.23"/>
<polygon fill="black" stroke="black" points="975.5,-496.18 972,-486.18 968.5,-496.18 975.5,-496.18"/>
</g>
<!-- proGk&#45;&gt;progignoskeinGk -->
<g id="edge55" class="edge">
<title>proGk&#45;&gt;progignoskeinGk</title>
<path fill="none" stroke="black" d="M972,-437.72C972,-427.88 972,-416.36 972,-406.13"/>
<polygon fill="black" stroke="black" points="975.5,-406.08 972,-396.08 968.5,-406.08 975.5,-406.08"/>
</g>
<!-- prognosisGk -->
<g id="node55" class="node">
<title>prognosisGk</title>
<text text-anchor="start" x="946" y="-290.3" font-family="Times New Roman,serif" font-size="14.00" fill="red">prognōsis</text>
</g>
<!-- progignoskeinGk&#45;&gt;prognosisGk -->
<g id="edge56" class="edge">
<title>progignoskeinGk&#45;&gt;prognosisGk</title>
<path fill="none" stroke="black" d="M972.42,-359.61C972.69,-348.77 973.03,-334.6 973.33,-322.29"/>
<polygon fill="black" stroke="black" points="976.84,-322.17 973.58,-312.08 969.84,-322 976.84,-322.17"/>
</g>
<!-- prognosisL -->
<g id="node56" class="node">
<title>prognosisL</title>
<text text-anchor="start" x="960.5" y="-212.8" font-family="Times New Roman,serif" font-weight="bold" font-size="14.00">Latin</text>
<text text-anchor="start" x="949" y="-198.8" font-family="Times New Roman,serif" font-size="14.00" fill="red">prognōsis</text>
</g>
<!-- prognosisGk&#45;&gt;prognosisL -->
<g id="edge57" class="edge">
<title>prognosisGk&#45;&gt;prognosisL</title>
<path fill="none" stroke="black" stroke-dasharray="5,2" d="M974.62,-275.8C975.02,-264.67 975.56,-249.94 976.02,-237.24"/>
<polygon fill="black" stroke="black" points="979.52,-237.3 976.38,-227.18 972.52,-237.04 979.52,-237.3"/>
</g>
<!-- prognosis -->
<g id="node57" class="node">
<title>prognosis</title>
<text text-anchor="start" x="953.5" y="-41.8" font-family="Times New Roman,serif" font-weight="bold" font-size="14.00">Modern</text>
<text text-anchor="start" x="955" y="-27.8" font-family="Times New Roman,serif" font-weight="bold" font-size="14.00">English</text>
<text text-anchor="start" x="950" y="-13.8" font-family="Times New Roman,serif" font-size="14.00" fill="red">prognosis</text>
</g>
<!-- prognosisL&#45;&gt;prognosis -->
<g id="edge58" class="edge">
<title>prognosisL&#45;&gt;prognosis</title>
<path fill="none" stroke="black" stroke-dasharray="5,2" d="M977.1,-190.8C977.26,-162.15 977.59,-104.09 977.8,-66.67"/>
<polygon fill="black" stroke="black" points="981.31,-66.26 977.86,-56.24 974.31,-66.22 981.31,-66.26"/>
</g>
</g>
</svg>
