<?xml version="1.0" encoding="UTF-8" standalone="no"?>
<!DOCTYPE svg PUBLIC "-//W3C//DTD SVG 1.1//EN"
 "http://www.w3.org/Graphics/SVG/1.1/DTD/svg11.dtd">
<!-- Generated by graphviz version 2.49.0 (20210828.1703)
 -->
<!-- Pages: 1 -->
<svg width="227pt" height="192pt"
 viewBox="0.00 0.00 227.00 192.00" xmlns="http://www.w3.org/2000/svg" xmlns:xlink="http://www.w3.org/1999/xlink">
<g id="graph0" class="graph" transform="scale(1 1) rotate(0) translate(4 188)">
<polygon fill="white" stroke="transparent" points="-4,4 -4,-188 223,-188 223,4 -4,4"/>
<!-- gwou -->
<g id="node1" class="node">
<title>gwou</title>
<g id="a_node1"><a xlink:title="Indo&#45;European &quot;*gʷou&#45;&quot; ox, cow, bull">
<polygon fill="none" stroke="black" points="215,-180 4,-180 4,-76 215,-76 215,-180"/>
<polygon fill="none" stroke="black" points="219,-184 0,-184 0,-72 219,-72 219,-184"/>
<text text-anchor="start" x="31.5" y="-135.8" font-family="Times New Roman,serif" font-weight="bold" font-size="24.00">Indo&#45;European</text>
<text text-anchor="start" x="36" y="-107.6" font-family="Times New Roman,serif" font-size="18.00" fill="red">*gʷou&#45;</text>
<text text-anchor="start" x="102" y="-108.2" font-family="Times New Roman,serif" font-size="16.00">ox, cow, bull</text>
</a>
</g>
</g>
<!-- gwous -->
<g id="node2" class="node">
<title>gwous</title>
<g id="a_node2"><a xlink:href="gwou-ox1.svg" xlink:title="*gʷōu&#45;s&#45;">
<path fill="none" stroke="black" stroke-dasharray="5,2" d="M78,-36C78,-36 37,-36 37,-36 31,-36 25,-30 25,-24 25,-24 25,-12 25,-12 25,-6 31,0 37,0 37,0 78,0 78,0 84,0 90,-6 90,-12 90,-12 90,-24 90,-24 90,-30 84,-36 78,-36"/>
<text text-anchor="start" x="33" y="-14.3" font-family="Times New Roman,serif" font-size="14.00" fill="red">*gʷōu&#45;s&#45;</text>
</a>
</g>
</g>
<!-- gwou&#45;&gt;gwous -->
<g id="edge1" class="edge">
<title>gwou&#45;&gt;gwous</title>
<path fill="none" stroke="black" d="M82.89,-71.73C78.49,-62.58 74.1,-53.48 70.25,-45.48"/>
<polygon fill="black" stroke="black" points="73.34,-43.83 65.85,-36.34 67.03,-46.87 73.34,-43.83"/>
</g>
<!-- other -->
<g id="node3" class="node">
<title>other</title>
<g id="a_node3"><a xlink:href="gwou-ox2.svg" xlink:title="other derivatives">
<path fill="none" stroke="black" stroke-dasharray="5,2" d="M204.5,-36C204.5,-36 120.5,-36 120.5,-36 114.5,-36 108.5,-30 108.5,-24 108.5,-24 108.5,-12 108.5,-12 108.5,-6 114.5,0 120.5,0 120.5,0 204.5,0 204.5,0 210.5,0 216.5,-6 216.5,-12 216.5,-12 216.5,-24 216.5,-24 216.5,-30 210.5,-36 204.5,-36"/>
<text text-anchor="start" x="116.5" y="-14.3" font-family="Times New Roman,serif" font-size="14.00">other derivatives</text>
</a>
</g>
</g>
<!-- gwou&#45;&gt;other -->
<g id="edge2" class="edge">
<title>gwou&#45;&gt;other</title>
<path fill="none" stroke="black" d="M136.62,-71.73C141.11,-62.58 145.58,-53.48 149.5,-45.48"/>
<polygon fill="black" stroke="black" points="152.73,-46.86 153.99,-36.34 146.44,-43.77 152.73,-46.86"/>
</g>
</g>
</svg>
