<?xml version="1.0" encoding="UTF-8" standalone="no"?>
<!DOCTYPE svg PUBLIC "-//W3C//DTD SVG 1.1//EN"
 "http://www.w3.org/Graphics/SVG/1.1/DTD/svg11.dtd">
<!-- Generated by graphviz version 2.49.0 (20210828.1703)
 -->
<!-- Pages: 1 -->
<svg width="692pt" height="564pt"
 viewBox="0.00 0.00 691.50 564.00" xmlns="http://www.w3.org/2000/svg" xmlns:xlink="http://www.w3.org/1999/xlink">
<g id="graph0" class="graph" transform="scale(1 1) rotate(0) translate(4 560)">
<polygon fill="white" stroke="transparent" points="-4,4 -4,-560 687.5,-560 687.5,4 -4,4"/>
<!-- gwou -->
<g id="node1" class="node">
<title>gwou</title>
<g id="a_node1"><a xlink:href="gwou-ox0.svg" xlink:title="Indo&#45;European &quot;*gʷou&#45;&quot; ox, cow, bull">
<path fill="none" stroke="black" stroke-dasharray="5,2" d="M260,-550C260,-550 111,-550 111,-550 105,-550 99,-544 99,-538 99,-538 99,-512 99,-512 99,-506 105,-500 111,-500 111,-500 260,-500 260,-500 266,-500 272,-506 272,-512 272,-512 272,-538 272,-538 272,-544 266,-550 260,-550"/>
<text text-anchor="start" x="107" y="-527.8" font-family="Times New Roman,serif" font-weight="bold" font-size="24.00">Indo&#45;European</text>
<text text-anchor="start" x="117.5" y="-508.6" font-family="Times New Roman,serif" font-size="18.00" fill="red">*gʷou&#45; </text>
<text text-anchor="start" x="171.5" y="-508.6" font-family="Times New Roman,serif" font-size="16.00">ox, cow, bull</text>
</a>
</g>
</g>
<!-- boukana -->
<g id="node4" class="node">
<title>boukana</title>
<text text-anchor="start" x="145" y="-359.8" font-family="Times New Roman,serif" font-weight="bold" font-size="14.00">Latin</text>
<text text-anchor="start" x="129.5" y="-345.8" font-family="Times New Roman,serif" font-size="14.00" fill="red">*bou&#45;kanā&#45;</text>
<text text-anchor="start" x="141.5" y="-333.4" font-family="Times New Roman,serif" font-size="12.00">bellower</text>
</g>
<!-- gwou&#45;&gt;boukana -->
<g id="edge2" class="edge">
<title>gwou&#45;&gt;boukana</title>
<path fill="none" stroke="black" d="M182.16,-499.95C177.99,-469.87 170.83,-418.23 166.13,-384.35"/>
<polygon fill="black" stroke="black" points="169.53,-383.45 164.69,-374.02 162.6,-384.41 169.53,-383.45"/>
</g>
<!-- gauhSk -->
<g id="node9" class="node">
<title>gauhSk</title>
<text text-anchor="start" x="485.5" y="-353.8" font-family="Times New Roman,serif" font-weight="bold" font-size="14.00">Sanskrit</text>
<text text-anchor="start" x="498" y="-339.8" font-family="Times New Roman,serif" font-size="14.00" fill="red">gauḥ</text>
</g>
<!-- gwou&#45;&gt;gauhSk -->
<g id="edge8" class="edge">
<title>gwou&#45;&gt;gauhSk</title>
<path fill="none" stroke="black" d="M260.34,-499.94C310.17,-483.68 368.46,-464.09 379.5,-458 420.92,-435.12 462.26,-398.91 487.36,-375.05"/>
<polygon fill="black" stroke="black" points="489.83,-377.53 494.61,-368.07 484.97,-372.48 489.83,-377.53"/>
</g>
<!-- gwouro -->
<g id="node23" class="node">
<title>gwouro</title>
<text text-anchor="start" x="94" y="-430.3" font-family="Times New Roman,serif" font-size="14.00" fill="red">*gʷōu&#45;ro&#45;</text>
</g>
<!-- gwou&#45;&gt;gwouro -->
<g id="edge22" class="edge">
<title>gwou&#45;&gt;gwouro</title>
<path fill="none" stroke="black" d="M168.01,-499.68C159.32,-487.59 148.81,-472.97 139.98,-460.7"/>
<polygon fill="black" stroke="black" points="142.58,-458.31 133.9,-452.24 136.89,-462.4 142.58,-458.31"/>
</g>
<!-- gwwa -->
<g id="node27" class="node">
<title>gwwa</title>
<text text-anchor="start" x="222.5" y="-430.3" font-family="Times New Roman,serif" font-size="14.00" fill="red">gʷw&#45;ā&#45;</text>
</g>
<!-- gwou&#45;&gt;gwwa -->
<g id="edge26" class="edge">
<title>gwou&#45;&gt;gwwa</title>
<path fill="none" stroke="black" d="M200.8,-499.68C208.34,-487.7 217.43,-473.25 225.11,-461.05"/>
<polygon fill="black" stroke="black" points="228.29,-462.57 230.65,-452.24 222.36,-458.84 228.29,-462.57"/>
</g>
<!-- kanIE -->
<g id="node2" class="node">
<title>kanIE</title>
<g id="a_node2"><a xlink:href="kan-sing.svg" xlink:title="&lt;b&gt;Indo&#45;&lt;br/&gt;European&lt;/b&gt;&lt;br/&gt;&lt;font color=&quot;red&quot;&gt;*kan&#45;&lt;/font&gt;&lt;br/&gt;&lt;font point&#45;size=&quot;12&quot;&gt;to sing&lt;/font&gt;">
<path fill="none" stroke="black" stroke-dasharray="5,2" d="M65,-556C65,-556 12,-556 12,-556 6,-556 0,-550 0,-544 0,-544 0,-506 0,-506 0,-500 6,-494 12,-494 12,-494 65,-494 65,-494 71,-494 77,-500 77,-506 77,-506 77,-544 77,-544 77,-550 71,-556 65,-556"/>
<text text-anchor="start" x="22" y="-541.8" font-family="Times New Roman,serif" font-weight="bold" font-size="14.00">Indo&#45;</text>
<text text-anchor="start" x="8" y="-527.8" font-family="Times New Roman,serif" font-weight="bold" font-size="14.00">European</text>
<text text-anchor="start" x="23" y="-513.8" font-family="Times New Roman,serif" font-size="14.00" fill="red">*kan&#45;</text>
<text text-anchor="start" x="23.5" y="-501.4" font-family="Times New Roman,serif" font-size="12.00">to sing</text>
</a>
</g>
</g>
<!-- kanaIE -->
<g id="node3" class="node">
<title>kanaIE</title>
<text text-anchor="start" x="17.5" y="-436.8" font-family="Times New Roman,serif" font-size="14.00" fill="red">*kan&#45;ā&#45;</text>
<text text-anchor="start" x="25" y="-424.4" font-family="Times New Roman,serif" font-size="12.00">singer</text>
</g>
<!-- kanIE&#45;&gt;kanaIE -->
<g id="edge1" class="edge">
<title>kanIE&#45;&gt;kanaIE</title>
<path fill="none" stroke="black" d="M38.5,-493.87C38.5,-483.65 38.5,-472.29 38.5,-462.3"/>
<polygon fill="black" stroke="black" points="42,-462.12 38.5,-452.12 35,-462.12 42,-462.12"/>
</g>
<!-- kanaIE&#45;&gt;boukana -->
<g id="edge3" class="edge">
<title>kanaIE&#45;&gt;boukana</title>
<path fill="none" stroke="black" d="M64.28,-415.81C79.9,-405.4 100.23,-391.85 118.25,-379.83"/>
<polygon fill="black" stroke="black" points="120.5,-382.54 126.88,-374.08 116.62,-376.71 120.5,-382.54"/>
</g>
<!-- buccinaL -->
<g id="node5" class="node">
<title>buccinaL</title>
<text text-anchor="start" x="117.5" y="-274.8" font-family="Times New Roman,serif" font-size="14.00" fill="red">būcina, buccina</text>
<text text-anchor="start" x="128" y="-262.4" font-family="Times New Roman,serif" font-size="12.00">horn, trumpeet</text>
</g>
<!-- boukana&#45;&gt;buccinaL -->
<g id="edge4" class="edge">
<title>boukana&#45;&gt;buccinaL</title>
<path fill="none" stroke="black" d="M161.5,-325.78C161.5,-317.68 161.5,-308.52 161.5,-300.12"/>
<polygon fill="black" stroke="black" points="165,-300.04 161.5,-290.04 158,-300.04 165,-300.04"/>
</g>
<!-- buccinareL -->
<g id="node6" class="node">
<title>buccinareL</title>
<text text-anchor="start" x="134" y="-203.8" font-family="Times New Roman,serif" font-size="14.00" fill="red">buccināre</text>
<text text-anchor="start" x="128" y="-191.4" font-family="Times New Roman,serif" font-size="12.00">to blow a horn</text>
<text text-anchor="start" x="131" y="-177.8" font-family="Times New Roman,serif" font-size="14.00" fill="red">buccinātus</text>
</g>
<!-- buccinaL&#45;&gt;buccinareL -->
<g id="edge5" class="edge">
<title>buccinaL&#45;&gt;buccinareL</title>
<path fill="none" stroke="black" d="M161.5,-253.75C161.5,-246.2 161.5,-237.07 161.5,-228.28"/>
<polygon fill="black" stroke="black" points="165,-228.23 161.5,-218.23 158,-228.23 165,-228.23"/>
</g>
<!-- buccinatorL -->
<g id="node7" class="node">
<title>buccinatorL</title>
<text text-anchor="start" x="131.5" y="-112.3" font-family="Times New Roman,serif" font-size="14.00" fill="red">buccinatōr</text>
</g>
<!-- buccinareL&#45;&gt;buccinatorL -->
<g id="edge6" class="edge">
<title>buccinareL&#45;&gt;buccinatorL</title>
<path fill="none" stroke="black" d="M161.5,-169.78C161.5,-161.68 161.5,-152.52 161.5,-144.12"/>
<polygon fill="black" stroke="black" points="165,-144.04 161.5,-134.04 158,-144.04 165,-144.04"/>
</g>
<!-- buccinator -->
<g id="node8" class="node">
<title>buccinator</title>
<text text-anchor="start" x="137" y="-47.8" font-family="Times New Roman,serif" font-weight="bold" font-size="14.00">Modern</text>
<text text-anchor="start" x="138.5" y="-33.8" font-family="Times New Roman,serif" font-weight="bold" font-size="14.00">English</text>
<text text-anchor="start" x="131.5" y="-19.8" font-family="Times New Roman,serif" font-size="14.00" fill="red">buccinator</text>
<text text-anchor="start" x="131" y="-7.4" font-family="Times New Roman,serif" font-size="12.00">cheek muscle</text>
</g>
<!-- buccinatorL&#45;&gt;buccinator -->
<g id="edge7" class="edge">
<title>buccinatorL&#45;&gt;buccinator</title>
<path fill="none" stroke="black" stroke-dasharray="5,2" d="M161.5,-97.8C161.5,-90.35 161.5,-81.28 161.5,-72.29"/>
<polygon fill="black" stroke="black" points="165,-72.27 161.5,-62.27 158,-72.27 165,-72.27"/>
</g>
<!-- gayalB -->
<g id="node10" class="node">
<title>gayalB</title>
<text text-anchor="start" x="498" y="-119.8" font-family="Times New Roman,serif" font-weight="bold" font-size="14.00">Bengali</text>
<text text-anchor="start" x="507" y="-105.8" font-family="Times New Roman,serif" font-size="14.00" fill="red">gayāl</text>
</g>
<!-- gauhSk&#45;&gt;gayalB -->
<g id="edge9" class="edge">
<title>gauhSk&#45;&gt;gayalB</title>
<path fill="none" stroke="black" d="M512.24,-331.94C513.95,-292.05 518.25,-192.43 520.33,-144.12"/>
<polygon fill="black" stroke="black" points="523.83,-144.23 520.76,-134.08 516.84,-143.92 523.83,-144.23"/>
</g>
<!-- gopalahSk -->
<g id="node14" class="node">
<title>gopalahSk</title>
<text text-anchor="start" x="567.5" y="-274.8" font-family="Times New Roman,serif" font-size="14.00" fill="red">gopālaḥ</text>
<text text-anchor="start" x="569.5" y="-262.4" font-family="Times New Roman,serif" font-size="12.00">cowherd</text>
</g>
<!-- gauhSk&#45;&gt;gopalahSk -->
<g id="edge12" class="edge">
<title>gauhSk&#45;&gt;gopalahSk</title>
<path fill="none" stroke="black" d="M529.2,-331.75C539.67,-321.55 553.1,-308.47 564.62,-297.24"/>
<polygon fill="black" stroke="black" points="567.15,-299.66 571.87,-290.18 562.27,-294.65 567.15,-299.66"/>
</g>
<!-- gawH -->
<g id="node20" class="node">
<title>gawH</title>
<text text-anchor="start" x="449.5" y="-275.8" font-family="Times New Roman,serif" font-weight="bold" font-size="14.00">Hindi</text>
<text text-anchor="start" x="455" y="-261.8" font-family="Times New Roman,serif" font-size="14.00" fill="red">gāw</text>
</g>
<!-- gauhSk&#45;&gt;gawH -->
<g id="edge18" class="edge">
<title>gauhSk&#45;&gt;gawH</title>
<path fill="none" stroke="black" d="M501.29,-331.75C495.54,-322.04 488.24,-309.71 481.81,-298.86"/>
<polygon fill="black" stroke="black" points="484.78,-297 476.67,-290.18 478.75,-300.57 484.78,-297"/>
</g>
<!-- gayal -->
<g id="node11" class="node">
<title>gayal</title>
<text text-anchor="start" x="497" y="-41.8" font-family="Times New Roman,serif" font-weight="bold" font-size="14.00">Modern</text>
<text text-anchor="start" x="498.5" y="-27.8" font-family="Times New Roman,serif" font-weight="bold" font-size="14.00">English</text>
<text text-anchor="start" x="507" y="-13.8" font-family="Times New Roman,serif" font-size="14.00" fill="red">gayal</text>
</g>
<!-- gayalB&#45;&gt;gayal -->
<g id="edge10" class="edge">
<title>gayalB&#45;&gt;gayal</title>
<path fill="none" stroke="black" stroke-dasharray="5,2" d="M521.5,-97.8C521.5,-88.66 521.5,-77.09 521.5,-66.22"/>
<polygon fill="black" stroke="black" points="525,-66.1 521.5,-56.1 518,-66.1 525,-66.1"/>
</g>
<!-- perIE -->
<g id="node12" class="node">
<title>perIE</title>
<g id="a_node12"><a xlink:href="per-lead1.svg" xlink:title="&lt;b&gt;Indo&#45;&lt;br/&gt;European&lt;/b&gt;&lt;br/&gt;&lt;font color=&quot;red&quot;&gt;*per&lt;/font&gt;&lt;br/&gt;&lt;font point&#45;size=&quot;12&quot;&gt;to lead, pass over&lt;/font&gt;">
<path fill="none" stroke="black" stroke-dasharray="5,2" d="M626,-556C626,-556 553,-556 553,-556 547,-556 541,-550 541,-544 541,-544 541,-506 541,-506 541,-500 547,-494 553,-494 553,-494 626,-494 626,-494 632,-494 638,-500 638,-506 638,-506 638,-544 638,-544 638,-550 632,-556 626,-556"/>
<text text-anchor="start" x="573" y="-541.8" font-family="Times New Roman,serif" font-weight="bold" font-size="14.00">Indo&#45;</text>
<text text-anchor="start" x="559" y="-527.8" font-family="Times New Roman,serif" font-weight="bold" font-size="14.00">European</text>
<text text-anchor="start" x="577" y="-513.8" font-family="Times New Roman,serif" font-size="14.00" fill="red">*per</text>
<text text-anchor="start" x="549" y="-501.4" font-family="Times New Roman,serif" font-size="12.00">to lead, pass over</text>
</a>
</g>
</g>
<!-- parayatiSk -->
<g id="node13" class="node">
<title>parayatiSk</title>
<text text-anchor="start" x="563.5" y="-443.8" font-family="Times New Roman,serif" font-weight="bold" font-size="14.00">Sanskrit</text>
<text text-anchor="start" x="542.5" y="-429.8" font-family="Times New Roman,serif" font-size="14.00" fill="red">pārayati, pālayati</text>
<text text-anchor="start" x="517" y="-417.4" font-family="Times New Roman,serif" font-size="12.00">he brings across safely, protects</text>
</g>
<!-- perIE&#45;&gt;parayatiSk -->
<g id="edge11" class="edge">
<title>perIE&#45;&gt;parayatiSk</title>
<path fill="none" stroke="black" d="M589.5,-493.87C589.5,-485.64 589.5,-476.68 589.5,-468.29"/>
<polygon fill="black" stroke="black" points="593,-468.06 589.5,-458.06 586,-468.06 593,-468.06"/>
</g>
<!-- parayatiSk&#45;&gt;gopalahSk -->
<g id="edge13" class="edge">
<title>parayatiSk&#45;&gt;gopalahSk</title>
<path fill="none" stroke="black" d="M589.5,-409.73C589.5,-380.74 589.5,-331.25 589.5,-300.44"/>
<polygon fill="black" stroke="black" points="593,-300.38 589.5,-290.38 586,-300.38 593,-300.38"/>
</g>
<!-- gopalakarkatiSk -->
<g id="node15" class="node">
<title>gopalakarkatiSk</title>
<text text-anchor="start" x="557.5" y="-196.8" font-family="Times New Roman,serif" font-size="14.00" fill="red">gopālakarkaṭī, gopālī</text>
<text text-anchor="start" x="572.5" y="-184.4" font-family="Times New Roman,serif" font-size="12.00">a type of cucumber</text>
</g>
<!-- gopalahSk&#45;&gt;gopalakarkatiSk -->
<g id="edge14" class="edge">
<title>gopalahSk&#45;&gt;gopalakarkatiSk</title>
<path fill="none" stroke="black" d="M595.63,-253.75C598.98,-244.33 603.2,-232.45 606.97,-221.84"/>
<polygon fill="black" stroke="black" points="610.35,-222.77 610.4,-212.18 603.75,-220.43 610.35,-222.77"/>
</g>
<!-- guarH -->
<g id="node16" class="node">
<title>guarH</title>
<text text-anchor="start" x="599.5" y="-119.8" font-family="Times New Roman,serif" font-weight="bold" font-size="14.00">Hindi</text>
<text text-anchor="start" x="604" y="-105.8" font-family="Times New Roman,serif" font-size="14.00" fill="red">guār</text>
</g>
<!-- gopalakarkatiSk&#45;&gt;guarH -->
<g id="edge15" class="edge">
<title>gopalakarkatiSk&#45;&gt;guarH</title>
<path fill="none" stroke="black" d="M616.5,-175.75C616.5,-166.52 616.5,-154.93 616.5,-144.49"/>
<polygon fill="black" stroke="black" points="620,-144.18 616.5,-134.18 613,-144.18 620,-144.18"/>
</g>
<!-- guar -->
<g id="node17" class="node">
<title>guar</title>
<text text-anchor="start" x="592" y="-41.8" font-family="Times New Roman,serif" font-weight="bold" font-size="14.00">Modern</text>
<text text-anchor="start" x="593.5" y="-27.8" font-family="Times New Roman,serif" font-weight="bold" font-size="14.00">English</text>
<text text-anchor="start" x="604" y="-13.8" font-family="Times New Roman,serif" font-size="14.00" fill="red">guar</text>
</g>
<!-- guarH&#45;&gt;guar -->
<g id="edge16" class="edge">
<title>guarH&#45;&gt;guar</title>
<path fill="none" stroke="black" stroke-dasharray="5,2" d="M616.5,-97.8C616.5,-88.66 616.5,-77.09 616.5,-66.22"/>
<polygon fill="black" stroke="black" points="620,-66.1 616.5,-56.1 613,-66.1 620,-66.1"/>
</g>
<!-- nilaSk -->
<g id="node18" class="node">
<title>nilaSk</title>
<text text-anchor="start" x="379.5" y="-359.8" font-family="Times New Roman,serif" font-weight="bold" font-size="14.00">Sanskrit</text>
<text text-anchor="start" x="393" y="-345.8" font-family="Times New Roman,serif" font-size="14.00" fill="red">nīla&#45;</text>
<text text-anchor="start" x="384" y="-333.4" font-family="Times New Roman,serif" font-size="12.00">dark blue</text>
</g>
<!-- nilaH -->
<g id="node19" class="node">
<title>nilaH</title>
<text text-anchor="start" x="377.5" y="-275.8" font-family="Times New Roman,serif" font-weight="bold" font-size="14.00">Hindi</text>
<text text-anchor="start" x="382" y="-261.8" font-family="Times New Roman,serif" font-size="14.00" fill="red">nīla&#45;</text>
</g>
<!-- nilaSk&#45;&gt;nilaH -->
<g id="edge17" class="edge">
<title>nilaSk&#45;&gt;nilaH</title>
<path fill="none" stroke="black" d="M402.14,-325.78C400.97,-317.68 399.64,-308.52 398.43,-300.12"/>
<polygon fill="black" stroke="black" points="401.86,-299.44 396.97,-290.04 394.94,-300.44 401.86,-299.44"/>
</g>
<!-- nilgaiH -->
<g id="node21" class="node">
<title>nilgaiH</title>
<text text-anchor="start" x="380.5" y="-190.3" font-family="Times New Roman,serif" font-size="14.00" fill="red">nīlgāw, nīlgāī</text>
</g>
<!-- nilaH&#45;&gt;nilgaiH -->
<g id="edge19" class="edge">
<title>nilaH&#45;&gt;nilgaiH</title>
<path fill="none" stroke="black" d="M399.95,-253.75C402.92,-244.33 406.68,-232.45 410.03,-221.84"/>
<polygon fill="black" stroke="black" points="413.4,-222.77 413.08,-212.18 406.73,-220.66 413.4,-222.77"/>
</g>
<!-- gawH&#45;&gt;nilgaiH -->
<g id="edge20" class="edge">
<title>gawH&#45;&gt;nilgaiH</title>
<path fill="none" stroke="black" d="M455.61,-253.75C449.47,-244.04 441.68,-231.71 434.83,-220.86"/>
<polygon fill="black" stroke="black" points="437.65,-218.76 429.35,-212.18 431.73,-222.5 437.65,-218.76"/>
</g>
<!-- nilgai -->
<g id="node22" class="node">
<title>nilgai</title>
<text text-anchor="start" x="394" y="-41.8" font-family="Times New Roman,serif" font-weight="bold" font-size="14.00">Modern</text>
<text text-anchor="start" x="395.5" y="-27.8" font-family="Times New Roman,serif" font-weight="bold" font-size="14.00">English</text>
<text text-anchor="start" x="404" y="-13.8" font-family="Times New Roman,serif" font-size="14.00" fill="red">nilgai</text>
</g>
<!-- nilgaiH&#45;&gt;nilgai -->
<g id="edge21" class="edge">
<title>nilgaiH&#45;&gt;nilgai</title>
<path fill="none" stroke="black" stroke-dasharray="5,2" d="M418.5,-175.77C418.5,-149.78 418.5,-100.04 418.5,-66.43"/>
<polygon fill="black" stroke="black" points="422,-66.14 418.5,-56.14 415,-66.14 422,-66.14"/>
</g>
<!-- gaurahSk -->
<g id="node24" class="node">
<title>gaurahSk</title>
<text text-anchor="start" x="43.5" y="-359.8" font-family="Times New Roman,serif" font-weight="bold" font-size="14.00">Sanskrit</text>
<text text-anchor="start" x="51" y="-345.8" font-family="Times New Roman,serif" font-size="14.00" fill="red">gauraḥ</text>
<text text-anchor="start" x="52.5" y="-333.4" font-family="Times New Roman,serif" font-size="12.00">wild ox</text>
</g>
<!-- gwouro&#45;&gt;gaurahSk -->
<g id="edge23" class="edge">
<title>gwouro&#45;&gt;gaurahSk</title>
<path fill="none" stroke="black" d="M110.47,-415.61C104.45,-406.11 96.8,-394.05 89.75,-382.93"/>
<polygon fill="black" stroke="black" points="92.57,-380.85 84.26,-374.28 86.66,-384.6 92.57,-380.85"/>
</g>
<!-- gaurH -->
<g id="node25" class="node">
<title>gaurH</title>
<text text-anchor="start" x="52.5" y="-119.8" font-family="Times New Roman,serif" font-weight="bold" font-size="14.00">Hindi</text>
<text text-anchor="start" x="57" y="-105.8" font-family="Times New Roman,serif" font-size="14.00" fill="red">gaur</text>
</g>
<!-- gaurahSk&#45;&gt;gaurH -->
<g id="edge24" class="edge">
<title>gaurahSk&#45;&gt;gaurH</title>
<path fill="none" stroke="black" d="M69.5,-325.91C69.5,-282.83 69.5,-190.41 69.5,-144.32"/>
<polygon fill="black" stroke="black" points="73,-144.17 69.5,-134.17 66,-144.17 73,-144.17"/>
</g>
<!-- gaur -->
<g id="node26" class="node">
<title>gaur</title>
<text text-anchor="start" x="45" y="-41.8" font-family="Times New Roman,serif" font-weight="bold" font-size="14.00">Modern</text>
<text text-anchor="start" x="46.5" y="-27.8" font-family="Times New Roman,serif" font-weight="bold" font-size="14.00">English</text>
<text text-anchor="start" x="57" y="-13.8" font-family="Times New Roman,serif" font-size="14.00" fill="red">gaur</text>
</g>
<!-- gaurH&#45;&gt;gaur -->
<g id="edge25" class="edge">
<title>gaurH&#45;&gt;gaur</title>
<path fill="none" stroke="black" stroke-dasharray="5,2" d="M69.5,-97.8C69.5,-88.66 69.5,-77.09 69.5,-66.22"/>
<polygon fill="black" stroke="black" points="73,-66.1 69.5,-56.1 66,-66.1 73,-66.1"/>
</g>
<!-- beGk -->
<g id="node28" class="node">
<title>beGk</title>
<text text-anchor="start" x="227.5" y="-359.8" font-family="Times New Roman,serif" font-weight="bold" font-size="14.00">Greek</text>
<text text-anchor="start" x="238" y="-345.8" font-family="Times New Roman,serif" font-size="14.00" fill="red">&#45;bē</text>
<text text-anchor="start" x="236.5" y="-333.4" font-family="Times New Roman,serif" font-size="12.00">oxen</text>
</g>
<!-- gwwa&#45;&gt;beGk -->
<g id="edge27" class="edge">
<title>gwwa&#45;&gt;beGk</title>
<path fill="none" stroke="black" d="M242.77,-415.61C243.44,-406.49 244.28,-395 245.07,-384.26"/>
<polygon fill="black" stroke="black" points="248.56,-384.51 245.8,-374.28 241.58,-384 248.56,-384.51"/>
</g>
<!-- hekatombeGk -->
<g id="node32" class="node">
<title>hekatombeGk</title>
<text text-anchor="start" x="265" y="-268.3" font-family="Times New Roman,serif" font-size="14.00" fill="red">hekatombē</text>
</g>
<!-- beGk&#45;&gt;hekatombeGk -->
<g id="edge30" class="edge">
<title>beGk&#45;&gt;hekatombeGk</title>
<path fill="none" stroke="black" d="M262.16,-325.78C267.56,-317.23 273.71,-307.49 279.25,-298.73"/>
<polygon fill="black" stroke="black" points="282.35,-300.37 284.74,-290.04 276.44,-296.63 282.35,-300.37"/>
</g>
<!-- dekmIE -->
<g id="node29" class="node">
<title>dekmIE</title>
<g id="a_node29"><a xlink:href="dekm-ten3.svg" xlink:title="&lt;b&gt;Indo&#45;&lt;br/&gt;European&lt;/b&gt;&lt;br/&gt;&lt;font color=&quot;red&quot;&gt;*dekm̥&lt;/font&gt;&lt;br/&gt;&lt;font point&#45;size=&quot;12&quot;&gt;ten&lt;/font&gt;">
<path fill="none" stroke="black" stroke-dasharray="5,2" d="M355,-556C355,-556 302,-556 302,-556 296,-556 290,-550 290,-544 290,-544 290,-506 290,-506 290,-500 296,-494 302,-494 302,-494 355,-494 355,-494 361,-494 367,-500 367,-506 367,-506 367,-544 367,-544 367,-550 361,-556 355,-556"/>
<text text-anchor="start" x="312" y="-541.8" font-family="Times New Roman,serif" font-weight="bold" font-size="14.00">Indo&#45;</text>
<text text-anchor="start" x="298" y="-527.8" font-family="Times New Roman,serif" font-weight="bold" font-size="14.00">European</text>
<text text-anchor="start" x="309.5" y="-513.8" font-family="Times New Roman,serif" font-size="14.00" fill="red">*dekm̥</text>
<text text-anchor="start" x="321.5" y="-501.4" font-family="Times New Roman,serif" font-size="12.00">ten</text>
</a>
</g>
</g>
<!-- dkmtomIE -->
<g id="node30" class="node">
<title>dkmtomIE</title>
<text text-anchor="start" x="295" y="-436.8" font-family="Times New Roman,serif" font-size="14.00" fill="red">*(d)km̥&#45;tom</text>
<text text-anchor="start" x="310" y="-424.4" font-family="Times New Roman,serif" font-size="12.00">hundred</text>
</g>
<!-- dekmIE&#45;&gt;dkmtomIE -->
<g id="edge28" class="edge">
<title>dekmIE&#45;&gt;dkmtomIE</title>
<path fill="none" stroke="black" d="M328.5,-493.87C328.5,-483.65 328.5,-472.29 328.5,-462.3"/>
<polygon fill="black" stroke="black" points="332,-462.12 328.5,-452.12 325,-462.12 332,-462.12"/>
</g>
<!-- hekatonGk -->
<g id="node31" class="node">
<title>hekatonGk</title>
<text text-anchor="start" x="303.5" y="-359.8" font-family="Times New Roman,serif" font-weight="bold" font-size="14.00">Greek</text>
<text text-anchor="start" x="301.5" y="-345.8" font-family="Times New Roman,serif" font-size="14.00" fill="red">hekaton</text>
<text text-anchor="start" x="305" y="-333.4" font-family="Times New Roman,serif" font-size="12.00">hundred</text>
</g>
<!-- dkmtomIE&#45;&gt;hekatonGk -->
<g id="edge29" class="edge">
<title>dkmtomIE&#45;&gt;hekatonGk</title>
<path fill="none" stroke="black" d="M327.44,-415.61C326.89,-406.58 326.2,-395.24 325.55,-384.59"/>
<polygon fill="black" stroke="black" points="329.02,-384.05 324.92,-374.28 322.03,-384.47 329.02,-384.05"/>
</g>
<!-- hekatonGk&#45;&gt;hekatombeGk -->
<g id="edge31" class="edge">
<title>hekatonGk&#45;&gt;hekatombeGk</title>
<path fill="none" stroke="black" d="M314.95,-325.78C311.9,-317.5 308.43,-308.11 305.29,-299.56"/>
<polygon fill="black" stroke="black" points="308.52,-298.22 301.78,-290.04 301.95,-300.64 308.52,-298.22"/>
</g>
<!-- hecatombeL -->
<g id="node33" class="node">
<title>hecatombeL</title>
<text text-anchor="start" x="279" y="-197.8" font-family="Times New Roman,serif" font-weight="bold" font-size="14.00">Latin</text>
<text text-anchor="start" x="265" y="-183.8" font-family="Times New Roman,serif" font-size="14.00" fill="red">hecatombē</text>
</g>
<!-- hekatombeGk&#45;&gt;hecatombeL -->
<g id="edge32" class="edge">
<title>hekatombeGk&#45;&gt;hecatombeL</title>
<path fill="none" stroke="black" stroke-dasharray="5,2" d="M295.5,-253.75C295.5,-244.52 295.5,-232.93 295.5,-222.49"/>
<polygon fill="black" stroke="black" points="299,-222.18 295.5,-212.18 292,-222.18 299,-222.18"/>
</g>
<!-- hecatomb -->
<g id="node34" class="node">
<title>hecatomb</title>
<text text-anchor="start" x="271" y="-41.8" font-family="Times New Roman,serif" font-weight="bold" font-size="14.00">Modern</text>
<text text-anchor="start" x="272.5" y="-27.8" font-family="Times New Roman,serif" font-weight="bold" font-size="14.00">English</text>
<text text-anchor="start" x="268" y="-13.8" font-family="Times New Roman,serif" font-size="14.00" fill="red">hecatomb</text>
</g>
<!-- hecatombeL&#45;&gt;hecatomb -->
<g id="edge33" class="edge">
<title>hecatombeL&#45;&gt;hecatomb</title>
<path fill="none" stroke="black" stroke-dasharray="5,2" d="M295.5,-175.77C295.5,-149.78 295.5,-100.04 295.5,-66.43"/>
<polygon fill="black" stroke="black" points="299,-66.14 295.5,-56.14 292,-66.14 299,-66.14"/>
</g>
</g>
</svg>
