<?xml version="1.0" encoding="UTF-8" standalone="no"?>
<!DOCTYPE svg PUBLIC "-//W3C//DTD SVG 1.1//EN"
 "http://www.w3.org/Graphics/SVG/1.1/DTD/svg11.dtd">
<!-- Generated by graphviz version 2.49.0 (20210828.1703)
 -->
<!-- Pages: 1 -->
<svg width="1098pt" height="800pt"
 viewBox="0.00 0.00 1097.50 800.00" xmlns="http://www.w3.org/2000/svg" xmlns:xlink="http://www.w3.org/1999/xlink">
<g id="graph0" class="graph" transform="scale(1 1) rotate(0) translate(4 796)">
<polygon fill="white" stroke="transparent" points="-4,4 -4,-796 1093.5,-796 1093.5,4 -4,4"/>
<!-- gwou -->
<g id="node1" class="node">
<title>gwou</title>
<g id="a_node1"><a xlink:href="gwou-ox0.svg" xlink:title="Indo&#45;European &quot;*gʷou&#45;&quot; ox, cow, bull">
<path fill="none" stroke="black" stroke-dasharray="5,2" d="M363.5,-792C363.5,-792 214.5,-792 214.5,-792 208.5,-792 202.5,-786 202.5,-780 202.5,-780 202.5,-754 202.5,-754 202.5,-748 208.5,-742 214.5,-742 214.5,-742 363.5,-742 363.5,-742 369.5,-742 375.5,-748 375.5,-754 375.5,-754 375.5,-780 375.5,-780 375.5,-786 369.5,-792 363.5,-792"/>
<text text-anchor="start" x="210.5" y="-769.8" font-family="Times New Roman,serif" font-weight="bold" font-size="24.00">Indo&#45;European</text>
<text text-anchor="start" x="221" y="-750.6" font-family="Times New Roman,serif" font-size="18.00" fill="red">*gʷou&#45; </text>
<text text-anchor="start" x="275" y="-750.6" font-family="Times New Roman,serif" font-size="16.00">ox, cow, bull</text>
</a>
</g>
</g>
<!-- gwous -->
<g id="node2" class="node">
<title>gwous</title>
<text text-anchor="start" x="264.5" y="-683.3" font-family="Times New Roman,serif" font-size="14.00" fill="red">*gʷōu&#45;s&#45;</text>
</g>
<!-- gwou&#45;&gt;gwous -->
<g id="edge1" class="edge">
<title>gwou&#45;&gt;gwous</title>
<path fill="none" stroke="black" d="M289,-741.75C289,-733.45 289,-724.1 289,-715.56"/>
<polygon fill="black" stroke="black" points="292.5,-715.3 289,-705.3 285.5,-715.3 292.5,-715.3"/>
</g>
<!-- kouzGc -->
<g id="node3" class="node">
<title>kouzGc</title>
<text text-anchor="start" x="183.5" y="-551.8" font-family="Times New Roman,serif" font-weight="bold" font-size="14.00">Germanic</text>
<text text-anchor="start" x="197" y="-537.8" font-family="Times New Roman,serif" font-size="14.00" fill="red">*kōuz</text>
</g>
<!-- gwous&#45;&gt;kouzGc -->
<g id="edge2" class="edge">
<title>gwous&#45;&gt;kouzGc</title>
<path fill="none" stroke="black" d="M279.65,-668.93C266.8,-645.44 243.54,-602.95 228.44,-575.37"/>
<polygon fill="black" stroke="black" points="231.34,-573.38 223.46,-566.29 225.2,-576.74 231.34,-573.38"/>
</g>
<!-- bosL -->
<g id="node10" class="node">
<title>bosL</title>
<text text-anchor="start" x="272.5" y="-485.8" font-family="Times New Roman,serif" font-weight="bold" font-size="14.00">Latin</text>
<text text-anchor="start" x="261.5" y="-471.8" font-family="Times New Roman,serif" font-size="14.00" fill="red">bōs, bov&#45;</text>
</g>
<!-- gwous&#45;&gt;bosL -->
<g id="edge9" class="edge">
<title>gwous&#45;&gt;bosL</title>
<path fill="none" stroke="black" d="M289,-668.69C289,-633.41 289,-552.93 289,-510.44"/>
<polygon fill="black" stroke="black" points="292.5,-510.26 289,-500.26 285.5,-510.26 292.5,-510.26"/>
</g>
<!-- bousGk -->
<g id="node20" class="node">
<title>bousGk</title>
<text text-anchor="start" x="614" y="-611.8" font-family="Times New Roman,serif" font-weight="bold" font-size="14.00">Greek</text>
<text text-anchor="start" x="620" y="-597.8" font-family="Times New Roman,serif" font-size="14.00" fill="red">bous</text>
</g>
<!-- gwous&#45;&gt;bousGk -->
<g id="edge19" class="edge">
<title>gwous&#45;&gt;bousGk</title>
<path fill="none" stroke="black" d="M321.77,-678.69C385.92,-664.37 527.77,-632.71 595.95,-617.49"/>
<polygon fill="black" stroke="black" points="596.85,-620.88 605.85,-615.28 595.33,-614.05 596.85,-620.88"/>
</g>
<!-- cuOE -->
<g id="node4" class="node">
<title>cuOE</title>
<text text-anchor="start" x="94.5" y="-400.8" font-family="Times New Roman,serif" font-weight="bold" font-size="14.00">Old English</text>
<text text-anchor="start" x="124" y="-386.8" font-family="Times New Roman,serif" font-size="14.00" fill="red">cū</text>
<text text-anchor="start" x="121" y="-374.4" font-family="Times New Roman,serif" font-size="12.00">cow</text>
</g>
<!-- kouzGc&#45;&gt;cuOE -->
<g id="edge3" class="edge">
<title>kouzGc&#45;&gt;cuOE</title>
<path fill="none" stroke="black" d="M204.8,-529.82C191.16,-504.35 165.35,-456.14 148.15,-424.04"/>
<polygon fill="black" stroke="black" points="151.14,-422.2 143.34,-415.04 144.97,-425.5 151.14,-422.2"/>
</g>
<!-- couME -->
<g id="node5" class="node">
<title>couME</title>
<text text-anchor="start" x="109.5" y="-214.8" font-family="Times New Roman,serif" font-weight="bold" font-size="14.00">Middle</text>
<text text-anchor="start" x="108" y="-200.8" font-family="Times New Roman,serif" font-weight="bold" font-size="14.00">English</text>
<text text-anchor="start" x="120" y="-186.8" font-family="Times New Roman,serif" font-size="14.00" fill="red">cou</text>
</g>
<!-- cuOE&#45;&gt;couME -->
<g id="edge4" class="edge">
<title>cuOE&#45;&gt;couME</title>
<path fill="none" stroke="black" d="M131,-366.94C131,-334.94 131,-276.81 131,-239.59"/>
<polygon fill="black" stroke="black" points="134.5,-239.23 131,-229.23 127.5,-239.23 134.5,-239.23"/>
</g>
<!-- cynaOE -->
<g id="node7" class="node">
<title>cynaOE</title>
<text text-anchor="start" x="19.5" y="-280.8" font-family="Times New Roman,serif" font-weight="bold" font-size="14.00">Old English</text>
<text text-anchor="start" x="42.5" y="-266.8" font-family="Times New Roman,serif" font-size="14.00" fill="red">cȳna</text>
<text text-anchor="start" x="42.5" y="-254.4" font-family="Times New Roman,serif" font-size="12.00">cows&#39;</text>
</g>
<!-- cuOE&#45;&gt;cynaOE -->
<g id="edge6" class="edge">
<title>cuOE&#45;&gt;cynaOE</title>
<path fill="none" stroke="black" d="M116.36,-366.97C104.92,-348.97 88.9,-323.76 76.23,-303.83"/>
<polygon fill="black" stroke="black" points="79.18,-301.94 70.86,-295.38 73.27,-305.69 79.18,-301.94"/>
</g>
<!-- cow -->
<g id="node6" class="node">
<title>cow</title>
<text text-anchor="start" x="106.5" y="-53.8" font-family="Times New Roman,serif" font-weight="bold" font-size="14.00">Modern</text>
<text text-anchor="start" x="108" y="-39.8" font-family="Times New Roman,serif" font-weight="bold" font-size="14.00">English</text>
<text text-anchor="start" x="118.5" y="-25.8" font-family="Times New Roman,serif" font-size="14.00" fill="red">cow</text>
<text text-anchor="start" x="118.5" y="-13.4" font-family="Times New Roman,serif" font-size="12.00">cattle</text>
</g>
<!-- couME&#45;&gt;cow -->
<g id="edge5" class="edge">
<title>couME&#45;&gt;cow</title>
<path fill="none" stroke="black" d="M131,-178.65C131,-152.24 131,-109.63 131,-78.23"/>
<polygon fill="black" stroke="black" points="134.5,-78.05 131,-68.05 127.5,-78.05 134.5,-78.05"/>
</g>
<!-- kynME -->
<g id="node8" class="node">
<title>kynME</title>
<text text-anchor="start" x="21.5" y="-146.8" font-family="Times New Roman,serif" font-weight="bold" font-size="14.00">Middle</text>
<text text-anchor="start" x="20" y="-132.8" font-family="Times New Roman,serif" font-weight="bold" font-size="14.00">English</text>
<text text-anchor="start" x="32.5" y="-118.8" font-family="Times New Roman,serif" font-size="14.00" fill="red">kyn</text>
</g>
<!-- cynaOE&#45;&gt;kynME -->
<g id="edge7" class="edge">
<title>cynaOE&#45;&gt;kynME</title>
<path fill="none" stroke="black" d="M53.74,-246.83C51.7,-225.96 48.67,-194.99 46.35,-171.26"/>
<polygon fill="black" stroke="black" points="49.83,-170.86 45.37,-161.25 42.86,-171.54 49.83,-170.86"/>
</g>
<!-- kine -->
<g id="node9" class="node">
<title>kine</title>
<text text-anchor="start" x="15.5" y="-59.8" font-family="Times New Roman,serif" font-weight="bold" font-size="14.00">Modern</text>
<text text-anchor="start" x="17" y="-45.8" font-family="Times New Roman,serif" font-weight="bold" font-size="14.00">English</text>
<text text-anchor="start" x="28.5" y="-31.8" font-family="Times New Roman,serif" font-size="14.00" fill="red">kine</text>
<text text-anchor="start" x="8" y="-19.4" font-family="Times New Roman,serif" font-size="12.00">(archaic plural</text>
<text text-anchor="start" x="22" y="-7.4" font-family="Times New Roman,serif" font-size="12.00">of cow)</text>
</g>
<!-- kynME&#45;&gt;kine -->
<g id="edge8" class="edge">
<title>kynME&#45;&gt;kine</title>
<path fill="none" stroke="black" d="M42.24,-110.52C42,-102.53 41.71,-93.37 41.43,-84.32"/>
<polygon fill="black" stroke="black" points="44.93,-84.09 41.12,-74.21 37.93,-84.31 44.93,-84.09"/>
</g>
<!-- bovinusL -->
<g id="node11" class="node">
<title>bovinusL</title>
<text text-anchor="start" x="183" y="-334.8" font-family="Times New Roman,serif" font-weight="bold" font-size="14.00">Late Latin</text>
<text text-anchor="start" x="192" y="-320.8" font-family="Times New Roman,serif" font-size="14.00" fill="red">bovīnus</text>
</g>
<!-- bosL&#45;&gt;bovinusL -->
<g id="edge10" class="edge">
<title>bosL&#45;&gt;bovinusL</title>
<path fill="none" stroke="black" d="M272.27,-463.88C260.82,-451.3 246.13,-433.27 237,-415 228.26,-397.5 222.7,-376.12 219.35,-359.45"/>
<polygon fill="black" stroke="black" points="222.73,-358.45 217.46,-349.26 215.85,-359.73 222.73,-358.45"/>
</g>
<!-- buefOF -->
<g id="node13" class="node">
<title>buefOF</title>
<text text-anchor="start" x="254" y="-394.8" font-family="Times New Roman,serif" font-weight="bold" font-size="14.00">Old French</text>
<text text-anchor="start" x="276.5" y="-380.8" font-family="Times New Roman,serif" font-size="14.00" fill="red">buef</text>
</g>
<!-- bosL&#45;&gt;buefOF -->
<g id="edge12" class="edge">
<title>bosL&#45;&gt;buefOF</title>
<path fill="none" stroke="black" d="M289,-463.84C289,-451.28 289,-433.98 289,-419.5"/>
<polygon fill="black" stroke="black" points="292.5,-419.11 289,-409.11 285.5,-419.11 292.5,-419.11"/>
</g>
<!-- buculusL -->
<g id="node16" class="node">
<title>buculusL</title>
<text text-anchor="start" x="358" y="-393.8" font-family="Times New Roman,serif" font-size="14.00" fill="red">būculus</text>
<text text-anchor="start" x="369" y="-381.4" font-family="Times New Roman,serif" font-size="12.00">steer</text>
</g>
<!-- bosL&#45;&gt;buculusL -->
<g id="edge15" class="edge">
<title>bosL&#45;&gt;buculusL</title>
<path fill="none" stroke="black" d="M306.55,-463.84C320.39,-450.3 339.88,-431.24 355.31,-416.15"/>
<polygon fill="black" stroke="black" points="357.81,-418.6 362.51,-409.11 352.91,-413.6 357.81,-418.6"/>
</g>
<!-- bovine -->
<g id="node12" class="node">
<title>bovine</title>
<text text-anchor="start" x="189.5" y="-47.8" font-family="Times New Roman,serif" font-weight="bold" font-size="14.00">Modern</text>
<text text-anchor="start" x="191" y="-33.8" font-family="Times New Roman,serif" font-weight="bold" font-size="14.00">English</text>
<text text-anchor="start" x="195" y="-19.8" font-family="Times New Roman,serif" font-size="14.00" fill="red">bovine</text>
</g>
<!-- bovinusL&#45;&gt;bovine -->
<g id="edge11" class="edge">
<title>bovinusL&#45;&gt;bovine</title>
<path fill="none" stroke="black" stroke-dasharray="5,2" d="M214.94,-312.61C214.78,-265.49 214.33,-134.71 214.12,-72.17"/>
<polygon fill="black" stroke="black" points="217.62,-72.02 214.08,-62.03 210.62,-72.04 217.62,-72.02"/>
</g>
<!-- beefME -->
<g id="node14" class="node">
<title>beefME</title>
<text text-anchor="start" x="273.5" y="-214.8" font-family="Times New Roman,serif" font-weight="bold" font-size="14.00">Middle</text>
<text text-anchor="start" x="272" y="-200.8" font-family="Times New Roman,serif" font-weight="bold" font-size="14.00">English</text>
<text text-anchor="start" x="282.5" y="-186.8" font-family="Times New Roman,serif" font-size="14.00" fill="red">beef</text>
</g>
<!-- buefOF&#45;&gt;beefME -->
<g id="edge13" class="edge">
<title>buefOF&#45;&gt;beefME</title>
<path fill="none" stroke="black" stroke-dasharray="5,2" d="M289.55,-372.93C290.54,-342.63 292.6,-278.92 293.89,-239.27"/>
<polygon fill="black" stroke="black" points="297.39,-239.37 294.21,-229.26 290.39,-239.14 297.39,-239.37"/>
</g>
<!-- beef -->
<g id="node15" class="node">
<title>beef</title>
<text text-anchor="start" x="272.5" y="-47.8" font-family="Times New Roman,serif" font-weight="bold" font-size="14.00">Modern</text>
<text text-anchor="start" x="274" y="-33.8" font-family="Times New Roman,serif" font-weight="bold" font-size="14.00">English</text>
<text text-anchor="start" x="284.5" y="-19.8" font-family="Times New Roman,serif" font-size="14.00" fill="red">beef</text>
</g>
<!-- beefME&#45;&gt;beef -->
<g id="edge14" class="edge">
<title>beefME&#45;&gt;beef</title>
<path fill="none" stroke="black" d="M295.3,-178.65C295.64,-150.55 296.2,-104.11 296.58,-72.34"/>
<polygon fill="black" stroke="black" points="300.09,-72.22 296.71,-62.18 293.09,-72.13 300.09,-72.22"/>
</g>
<!-- bugleOF -->
<g id="node17" class="node">
<title>bugleOF</title>
<text text-anchor="start" x="345" y="-274.8" font-family="Times New Roman,serif" font-weight="bold" font-size="14.00">Old French</text>
<text text-anchor="start" x="364.5" y="-260.8" font-family="Times New Roman,serif" font-size="14.00" fill="red">bugle</text>
</g>
<!-- buculusL&#45;&gt;bugleOF -->
<g id="edge16" class="edge">
<title>buculusL&#45;&gt;bugleOF</title>
<path fill="none" stroke="black" d="M380,-372.84C380,-353.53 380,-321.89 380,-299.2"/>
<polygon fill="black" stroke="black" points="383.5,-299.18 380,-289.18 376.5,-299.18 383.5,-299.18"/>
</g>
<!-- bugleME -->
<g id="node18" class="node">
<title>bugleME</title>
<text text-anchor="start" x="358.5" y="-146.8" font-family="Times New Roman,serif" font-weight="bold" font-size="14.00">Middle</text>
<text text-anchor="start" x="357" y="-132.8" font-family="Times New Roman,serif" font-weight="bold" font-size="14.00">English</text>
<text text-anchor="start" x="364.5" y="-118.8" font-family="Times New Roman,serif" font-size="14.00" fill="red">bugle</text>
</g>
<!-- bugleOF&#45;&gt;bugleME -->
<g id="edge17" class="edge">
<title>bugleOF&#45;&gt;bugleME</title>
<path fill="none" stroke="black" stroke-dasharray="5,2" d="M380,-252.88C380,-232.41 380,-197.64 380,-171.51"/>
<polygon fill="black" stroke="black" points="383.5,-171.26 380,-161.26 376.5,-171.26 383.5,-171.26"/>
</g>
<!-- bugle -->
<g id="node19" class="node">
<title>bugle</title>
<text text-anchor="start" x="355.5" y="-47.8" font-family="Times New Roman,serif" font-weight="bold" font-size="14.00">Modern</text>
<text text-anchor="start" x="357" y="-33.8" font-family="Times New Roman,serif" font-weight="bold" font-size="14.00">English</text>
<text text-anchor="start" x="364.5" y="-19.8" font-family="Times New Roman,serif" font-size="14.00" fill="red">bugle</text>
</g>
<!-- bugleME&#45;&gt;bugle -->
<g id="edge18" class="edge">
<title>bugleME&#45;&gt;bugle</title>
<path fill="none" stroke="black" d="M380,-110.52C380,-98.95 380,-84.93 380,-72.31"/>
<polygon fill="black" stroke="black" points="383.5,-72.13 380,-62.13 376.5,-72.13 383.5,-72.13"/>
</g>
<!-- boukolosGk -->
<g id="node21" class="node">
<title>boukolosGk</title>
<text text-anchor="start" x="520.5" y="-497.8" font-family="Times New Roman,serif" font-size="14.00" fill="red">boukolos</text>
<text text-anchor="start" x="527" y="-485.4" font-family="Times New Roman,serif" font-size="12.00">cowherd</text>
<text text-anchor="start" x="515.5" y="-471.8" font-family="Times New Roman,serif" font-size="14.00" fill="red">boukolikos</text>
<text text-anchor="start" x="528.5" y="-459.4" font-family="Times New Roman,serif" font-size="12.00">pastoral</text>
</g>
<!-- bousGk&#45;&gt;boukolosGk -->
<g id="edge20" class="edge">
<title>bousGk&#45;&gt;boukolosGk</title>
<path fill="none" stroke="black" d="M621.9,-589.76C609.34,-571.86 589.31,-543.3 573.12,-520.23"/>
<polygon fill="black" stroke="black" points="575.96,-518.18 567.35,-512 570.23,-522.2 575.96,-518.18"/>
</g>
<!-- booteinGk -->
<g id="node24" class="node">
<title>booteinGk</title>
<text text-anchor="start" x="612.5" y="-484.8" font-family="Times New Roman,serif" font-size="14.00" fill="red">boōtein</text>
<text text-anchor="start" x="616.5" y="-472.4" font-family="Times New Roman,serif" font-size="12.00">to plow</text>
</g>
<!-- bousGk&#45;&gt;booteinGk -->
<g id="edge23" class="edge">
<title>bousGk&#45;&gt;booteinGk</title>
<path fill="none" stroke="black" d="M634,-589.76C634,-569.21 634,-534.63 634,-510.41"/>
<polygon fill="black" stroke="black" points="637.5,-510.1 634,-500.1 630.5,-510.1 637.5,-510.1"/>
</g>
<!-- boustrophedonGk -->
<g id="node29" class="node">
<title>boustrophedonGk</title>
<text text-anchor="start" x="776" y="-478.3" font-family="Times New Roman,serif" font-size="14.00" fill="red">boustrophēdon</text>
</g>
<!-- bousGk&#45;&gt;boustrophedonGk -->
<g id="edge27" class="edge">
<title>bousGk&#45;&gt;boustrophedonGk</title>
<path fill="none" stroke="black" d="M659.72,-589.76C692.31,-567.92 748.56,-530.21 784.75,-505.96"/>
<polygon fill="black" stroke="black" points="787.14,-508.57 793.5,-500.1 783.24,-502.76 787.14,-508.57"/>
</g>
<!-- boulimiaGk -->
<g id="node32" class="node">
<title>boulimiaGk</title>
<text text-anchor="start" x="432.5" y="-478.3" font-family="Times New Roman,serif" font-size="14.00" fill="red">boulīmiā</text>
</g>
<!-- bousGk&#45;&gt;boulimiaGk -->
<g id="edge30" class="edge">
<title>bousGk&#45;&gt;boulimiaGk</title>
<path fill="none" stroke="black" d="M609.4,-589.88C582.14,-570.89 536.88,-539.33 498,-512 495.29,-510.09 492.48,-508.12 489.66,-506.13"/>
<polygon fill="black" stroke="black" points="491.45,-503.11 481.26,-500.2 487.41,-508.83 491.45,-503.11"/>
</g>
<!-- bouturonGk -->
<g id="node35" class="node">
<title>bouturonGk</title>
<text text-anchor="start" x="690" y="-478.3" font-family="Times New Roman,serif" font-size="14.00" fill="red">boutūron</text>
</g>
<!-- bousGk&#45;&gt;bouturonGk -->
<g id="edge34" class="edge">
<title>bousGk&#45;&gt;bouturonGk</title>
<path fill="none" stroke="black" d="M645.4,-589.76C659.35,-568.66 683.1,-532.75 699.16,-508.47"/>
<polygon fill="black" stroke="black" points="702.1,-510.37 704.7,-500.1 696.26,-506.51 702.1,-510.37"/>
</g>
<!-- boubalosGk -->
<g id="node40" class="node">
<title>boubalosGk</title>
<text text-anchor="start" x="922" y="-484.8" font-family="Times New Roman,serif" font-size="14.00" fill="red">boubalos</text>
<text text-anchor="start" x="910" y="-472.4" font-family="Times New Roman,serif" font-size="12.00">antelope, buffalo</text>
</g>
<!-- bousGk&#45;&gt;boubalosGk -->
<g id="edge39" class="edge">
<title>bousGk&#45;&gt;boubalosGk</title>
<path fill="none" stroke="black" d="M662.02,-596.43C707.65,-579.15 800.75,-543.61 879,-512 885.31,-509.45 891.93,-506.73 898.47,-504.01"/>
<polygon fill="black" stroke="black" points="900.06,-507.14 907.94,-500.06 897.37,-500.68 900.06,-507.14"/>
<text text-anchor="middle" x="836.5" y="-544.3" font-family="Times New Roman,serif" font-size="14.00">?</text>
<polyline fill="none" stroke="black" points="840,-540.5 833,-540.5 830,-531.56 "/>
</g>
<!-- bucolicusL -->
<g id="node22" class="node">
<title>bucolicusL</title>
<text text-anchor="start" x="530.5" y="-207.8" font-family="Times New Roman,serif" font-weight="bold" font-size="14.00">Latin</text>
<text text-anchor="start" x="519.5" y="-193.8" font-family="Times New Roman,serif" font-size="14.00" fill="red">būcolicus</text>
</g>
<!-- boukolosGk&#45;&gt;bucolicusL -->
<g id="edge21" class="edge">
<title>boukolosGk&#45;&gt;bucolicusL</title>
<path fill="none" stroke="black" stroke-dasharray="5,2" d="M547,-451.98C547,-398.36 547,-284.46 547,-232.22"/>
<polygon fill="black" stroke="black" points="550.5,-232.05 547,-222.05 543.5,-232.05 550.5,-232.05"/>
</g>
<!-- bucolic -->
<g id="node23" class="node">
<title>bucolic</title>
<text text-anchor="start" x="522.5" y="-47.8" font-family="Times New Roman,serif" font-weight="bold" font-size="14.00">Modern</text>
<text text-anchor="start" x="524" y="-33.8" font-family="Times New Roman,serif" font-weight="bold" font-size="14.00">English</text>
<text text-anchor="start" x="526" y="-19.8" font-family="Times New Roman,serif" font-size="14.00" fill="red">bucolic</text>
</g>
<!-- bucolicusL&#45;&gt;bucolic -->
<g id="edge22" class="edge">
<title>bucolicusL&#45;&gt;bucolic</title>
<path fill="none" stroke="black" stroke-dasharray="5,2" d="M547,-185.96C547,-159.25 547,-106.98 547,-72.27"/>
<polygon fill="black" stroke="black" points="550.5,-72.11 547,-62.11 543.5,-72.11 550.5,-72.11"/>
</g>
<!-- bootesGk -->
<g id="node25" class="node">
<title>bootesGk</title>
<text text-anchor="start" x="613.5" y="-393.8" font-family="Times New Roman,serif" font-size="14.00" fill="red">boōtes</text>
<text text-anchor="start" x="612" y="-381.4" font-family="Times New Roman,serif" font-size="12.00">plowman</text>
</g>
<!-- booteinGk&#45;&gt;bootesGk -->
<g id="edge24" class="edge">
<title>booteinGk&#45;&gt;bootesGk</title>
<path fill="none" stroke="black" d="M633.81,-463.84C633.67,-451.28 633.47,-433.98 633.31,-419.5"/>
<polygon fill="black" stroke="black" points="636.8,-419.07 633.19,-409.11 629.8,-419.15 636.8,-419.07"/>
</g>
<!-- bootesL -->
<g id="node26" class="node">
<title>bootesL</title>
<text text-anchor="start" x="616.5" y="-207.8" font-family="Times New Roman,serif" font-weight="bold" font-size="14.00">Latin</text>
<text text-anchor="start" x="613" y="-193.8" font-family="Times New Roman,serif" font-size="14.00" fill="red">Boōtes</text>
</g>
<!-- bootesGk&#45;&gt;bootesL -->
<g id="edge25" class="edge">
<title>bootesGk&#45;&gt;bootesL</title>
<path fill="none" stroke="black" stroke-dasharray="5,2" d="M633,-372.93C633,-340.71 633,-270.73 633,-232.05"/>
<polygon fill="black" stroke="black" points="636.5,-232.03 633,-222.03 629.5,-232.03 636.5,-232.03"/>
</g>
<!-- bootes -->
<g id="node27" class="node">
<title>bootes</title>
<text text-anchor="start" x="608.5" y="-47.8" font-family="Times New Roman,serif" font-weight="bold" font-size="14.00">Modern</text>
<text text-anchor="start" x="610" y="-33.8" font-family="Times New Roman,serif" font-weight="bold" font-size="14.00">English</text>
<text text-anchor="start" x="613" y="-19.8" font-family="Times New Roman,serif" font-size="14.00" fill="red">Boötes</text>
</g>
<!-- bootesL&#45;&gt;bootes -->
<g id="edge26" class="edge">
<title>bootesL&#45;&gt;bootes</title>
<path fill="none" stroke="black" stroke-dasharray="5,2" d="M633,-185.96C633,-159.25 633,-106.98 633,-72.27"/>
<polygon fill="black" stroke="black" points="636.5,-72.11 633,-62.11 629.5,-72.11 636.5,-72.11"/>
</g>
<!-- stropheGk -->
<g id="node28" class="node">
<title>stropheGk</title>
<text text-anchor="start" x="799" y="-617.8" font-family="Times New Roman,serif" font-weight="bold" font-size="14.00">Greek</text>
<text text-anchor="start" x="797.5" y="-603.8" font-family="Times New Roman,serif" font-size="14.00" fill="red">strophē</text>
<text text-anchor="start" x="799.5" y="-591.4" font-family="Times New Roman,serif" font-size="12.00">a turning</text>
</g>
<!-- stropheGk&#45;&gt;boustrophedonGk -->
<g id="edge28" class="edge">
<title>stropheGk&#45;&gt;boustrophedonGk</title>
<path fill="none" stroke="black" d="M819,-583.97C819,-563.14 819,-532.45 819,-510.38"/>
<polygon fill="black" stroke="black" points="822.5,-510.32 819,-500.32 815.5,-510.32 822.5,-510.32"/>
</g>
<!-- boustrophedon -->
<g id="node30" class="node">
<title>boustrophedon</title>
<text text-anchor="start" x="793.5" y="-47.8" font-family="Times New Roman,serif" font-weight="bold" font-size="14.00">Modern</text>
<text text-anchor="start" x="795" y="-33.8" font-family="Times New Roman,serif" font-weight="bold" font-size="14.00">English</text>
<text text-anchor="start" x="775" y="-19.8" font-family="Times New Roman,serif" font-size="14.00" fill="red">boustrophedon</text>
</g>
<!-- boustrophedonGk&#45;&gt;boustrophedon -->
<g id="edge29" class="edge">
<title>boustrophedonGk&#45;&gt;boustrophedon</title>
<path fill="none" stroke="black" stroke-dasharray="5,2" d="M818.69,-463.94C818.4,-446.02 818,-417.03 818,-392 818,-392 818,-392 818,-135 818,-114.21 818,-90.91 818,-72.36"/>
<polygon fill="black" stroke="black" points="821.5,-72.32 818,-62.32 814.5,-72.32 821.5,-72.32"/>
</g>
<!-- limosGk -->
<g id="node31" class="node">
<title>limosGk</title>
<text text-anchor="start" x="437" y="-617.8" font-family="Times New Roman,serif" font-weight="bold" font-size="14.00">Greek</text>
<text text-anchor="start" x="441" y="-603.8" font-family="Times New Roman,serif" font-size="14.00" fill="red">līmos</text>
<text text-anchor="start" x="441.5" y="-591.4" font-family="Times New Roman,serif" font-size="12.00">hunger</text>
</g>
<!-- limosGk&#45;&gt;boulimiaGk -->
<g id="edge31" class="edge">
<title>limosGk&#45;&gt;boulimiaGk</title>
<path fill="none" stroke="black" d="M457,-583.97C457,-563.14 457,-532.45 457,-510.38"/>
<polygon fill="black" stroke="black" points="460.5,-510.32 457,-500.32 453.5,-510.32 460.5,-510.32"/>
</g>
<!-- bulimiaNL -->
<g id="node33" class="node">
<title>bulimiaNL</title>
<text text-anchor="start" x="428" y="-334.8" font-family="Times New Roman,serif" font-weight="bold" font-size="14.00">New Latin</text>
<text text-anchor="start" x="439" y="-320.8" font-family="Times New Roman,serif" font-size="14.00" fill="red">būlīmia</text>
</g>
<!-- boulimiaGk&#45;&gt;bulimiaNL -->
<g id="edge32" class="edge">
<title>boulimiaGk&#45;&gt;bulimiaNL</title>
<path fill="none" stroke="black" stroke-dasharray="5,2" d="M457.34,-463.91C457.86,-438.45 458.83,-390.28 459.44,-359.74"/>
<polygon fill="black" stroke="black" points="462.95,-359.42 459.65,-349.35 455.95,-359.28 462.95,-359.42"/>
</g>
<!-- bulimia -->
<g id="node34" class="node">
<title>bulimia</title>
<text text-anchor="start" x="438.5" y="-47.8" font-family="Times New Roman,serif" font-weight="bold" font-size="14.00">Modern</text>
<text text-anchor="start" x="440" y="-33.8" font-family="Times New Roman,serif" font-weight="bold" font-size="14.00">English</text>
<text text-anchor="start" x="443" y="-19.8" font-family="Times New Roman,serif" font-size="14.00" fill="red">bulimia</text>
</g>
<!-- bulimiaNL&#45;&gt;bulimia -->
<g id="edge33" class="edge">
<title>bulimiaNL&#45;&gt;bulimia</title>
<path fill="none" stroke="black" stroke-dasharray="5,2" d="M460.18,-312.61C460.66,-265.49 462.01,-134.71 462.65,-72.17"/>
<polygon fill="black" stroke="black" points="466.15,-72.06 462.75,-62.03 459.15,-71.99 466.15,-72.06"/>
</g>
<!-- butyrumL -->
<g id="node36" class="node">
<title>butyrumL</title>
<text text-anchor="start" x="699.5" y="-394.8" font-family="Times New Roman,serif" font-weight="bold" font-size="14.00">Latin</text>
<text text-anchor="start" x="692.5" y="-380.8" font-family="Times New Roman,serif" font-size="14.00" fill="red">būtȳrum</text>
</g>
<!-- bouturonGk&#45;&gt;butyrumL -->
<g id="edge35" class="edge">
<title>bouturonGk&#45;&gt;butyrumL</title>
<path fill="none" stroke="black" stroke-dasharray="5,2" d="M716,-463.84C716,-451.28 716,-433.98 716,-419.5"/>
<polygon fill="black" stroke="black" points="719.5,-419.11 716,-409.11 712.5,-419.11 719.5,-419.11"/>
</g>
<!-- butereOE -->
<g id="node37" class="node">
<title>butereOE</title>
<text text-anchor="start" x="679.5" y="-274.8" font-family="Times New Roman,serif" font-weight="bold" font-size="14.00">Old English</text>
<text text-anchor="start" x="698.5" y="-260.8" font-family="Times New Roman,serif" font-size="14.00" fill="red">butere</text>
</g>
<!-- butyrumL&#45;&gt;butereOE -->
<g id="edge36" class="edge">
<title>butyrumL&#45;&gt;butereOE</title>
<path fill="none" stroke="black" stroke-dasharray="5,2" d="M716,-372.84C716,-353.53 716,-321.89 716,-299.2"/>
<polygon fill="black" stroke="black" points="719.5,-299.18 716,-289.18 712.5,-299.18 719.5,-299.18"/>
</g>
<!-- butereME -->
<g id="node38" class="node">
<title>butereME</title>
<text text-anchor="start" x="694.5" y="-146.8" font-family="Times New Roman,serif" font-weight="bold" font-size="14.00">Middle</text>
<text text-anchor="start" x="693" y="-132.8" font-family="Times New Roman,serif" font-weight="bold" font-size="14.00">English</text>
<text text-anchor="start" x="698.5" y="-118.8" font-family="Times New Roman,serif" font-size="14.00" fill="red">butere</text>
</g>
<!-- butereOE&#45;&gt;butereME -->
<g id="edge37" class="edge">
<title>butereOE&#45;&gt;butereME</title>
<path fill="none" stroke="black" d="M716,-252.88C716,-232.41 716,-197.64 716,-171.51"/>
<polygon fill="black" stroke="black" points="719.5,-171.26 716,-161.26 712.5,-171.26 719.5,-171.26"/>
</g>
<!-- butter -->
<g id="node39" class="node">
<title>butter</title>
<text text-anchor="start" x="691.5" y="-47.8" font-family="Times New Roman,serif" font-weight="bold" font-size="14.00">Modern</text>
<text text-anchor="start" x="693" y="-33.8" font-family="Times New Roman,serif" font-weight="bold" font-size="14.00">English</text>
<text text-anchor="start" x="699.5" y="-19.8" font-family="Times New Roman,serif" font-size="14.00" fill="red">butter</text>
</g>
<!-- butereME&#45;&gt;butter -->
<g id="edge38" class="edge">
<title>butereME&#45;&gt;butter</title>
<path fill="none" stroke="black" d="M716,-110.52C716,-98.95 716,-84.93 716,-72.31"/>
<polygon fill="black" stroke="black" points="719.5,-72.13 716,-62.13 712.5,-72.13 719.5,-72.13"/>
</g>
<!-- bubalusL -->
<g id="node41" class="node">
<title>bubalusL</title>
<text text-anchor="start" x="940.5" y="-394.8" font-family="Times New Roman,serif" font-weight="bold" font-size="14.00">Latin</text>
<text text-anchor="start" x="935" y="-380.8" font-family="Times New Roman,serif" font-size="14.00" fill="red">būbalus</text>
</g>
<!-- boubalosGk&#45;&gt;bubalusL -->
<g id="edge40" class="edge">
<title>boubalosGk&#45;&gt;bubalusL</title>
<path fill="none" stroke="black" stroke-dasharray="5,2" d="M949.74,-463.84C951.02,-451.16 952.79,-433.64 954.26,-419.08"/>
<polygon fill="black" stroke="black" points="957.75,-419.41 955.27,-409.11 950.78,-418.7 957.75,-419.41"/>
</g>
<!-- bufalusL -->
<g id="node42" class="node">
<title>bufalusL</title>
<text text-anchor="start" x="930" y="-274.8" font-family="Times New Roman,serif" font-weight="bold" font-size="14.00">Late Latin</text>
<text text-anchor="start" x="941.5" y="-260.8" font-family="Times New Roman,serif" font-size="14.00" fill="red">būfalus</text>
</g>
<!-- bubalusL&#45;&gt;bufalusL -->
<g id="edge41" class="edge">
<title>bubalusL&#45;&gt;bufalusL</title>
<path fill="none" stroke="black" d="M957.73,-372.84C958.55,-353.53 959.89,-321.89 960.85,-299.2"/>
<polygon fill="black" stroke="black" points="964.35,-299.32 961.27,-289.18 957.35,-299.02 964.35,-299.32"/>
</g>
<!-- bufaloI -->
<g id="node43" class="node">
<title>bufaloI</title>
<text text-anchor="start" x="854" y="-139.8" font-family="Times New Roman,serif" font-weight="bold" font-size="14.00">Italian</text>
<text text-anchor="start" x="856" y="-125.8" font-family="Times New Roman,serif" font-size="14.00" fill="red">bufalo</text>
</g>
<!-- bufalusL&#45;&gt;bufaloI -->
<g id="edge42" class="edge">
<title>bufalusL&#45;&gt;bufaloI</title>
<path fill="none" stroke="black" d="M950.68,-252.88C935.49,-229.94 908.42,-189.03 890.85,-162.46"/>
<polygon fill="black" stroke="black" points="893.72,-160.46 885.28,-154.05 887.88,-164.32 893.72,-160.46"/>
</g>
<!-- bufaloP -->
<g id="node44" class="node">
<title>bufaloP</title>
<text text-anchor="start" x="928" y="-139.8" font-family="Times New Roman,serif" font-weight="bold" font-size="14.00">Portuguese</text>
<text text-anchor="start" x="945" y="-125.8" font-family="Times New Roman,serif" font-size="14.00" fill="red">búfalo</text>
</g>
<!-- bufalusL&#45;&gt;bufaloP -->
<g id="edge43" class="edge">
<title>bufalusL&#45;&gt;bufaloP</title>
<path fill="none" stroke="black" d="M962.13,-252.88C962.3,-230.44 962.6,-190.8 962.8,-164.21"/>
<polygon fill="black" stroke="black" points="966.3,-164.08 962.87,-154.05 959.3,-164.02 966.3,-164.08"/>
</g>
<!-- bufaloS -->
<g id="node45" class="node">
<title>bufaloS</title>
<text text-anchor="start" x="1032.5" y="-139.8" font-family="Times New Roman,serif" font-weight="bold" font-size="14.00">Spanish</text>
<text text-anchor="start" x="1039" y="-125.8" font-family="Times New Roman,serif" font-size="14.00" fill="red">búfalo</text>
</g>
<!-- bufalusL&#45;&gt;bufaloS -->
<g id="edge44" class="edge">
<title>bufalusL&#45;&gt;bufaloS</title>
<path fill="none" stroke="black" d="M974.23,-252.88C990.61,-229.94 1019.84,-189.03 1038.81,-162.46"/>
<polygon fill="black" stroke="black" points="1041.86,-164.22 1044.82,-154.05 1036.16,-160.15 1041.86,-164.22"/>
</g>
<!-- buffalo -->
<g id="node46" class="node">
<title>buffalo</title>
<text text-anchor="start" x="938.5" y="-47.8" font-family="Times New Roman,serif" font-weight="bold" font-size="14.00">Modern</text>
<text text-anchor="start" x="940" y="-33.8" font-family="Times New Roman,serif" font-weight="bold" font-size="14.00">English</text>
<text text-anchor="start" x="943" y="-19.8" font-family="Times New Roman,serif" font-size="14.00" fill="red">buffalo</text>
</g>
<!-- bufaloI&#45;&gt;buffalo -->
<g id="edge45" class="edge">
<title>bufaloI&#45;&gt;buffalo</title>
<path fill="none" stroke="black" stroke-dasharray="5,2" d="M889.91,-117.66C902.11,-104.36 919.29,-85.64 933.93,-69.69"/>
<polygon fill="black" stroke="black" points="936.69,-71.85 940.87,-62.11 931.54,-67.12 936.69,-71.85"/>
</g>
<!-- bufaloP&#45;&gt;buffalo -->
<g id="edge46" class="edge">
<title>bufaloP&#45;&gt;buffalo</title>
<path fill="none" stroke="black" stroke-dasharray="5,2" d="M963,-117.66C963,-105.08 963,-87.66 963,-72.32"/>
<polygon fill="black" stroke="black" points="966.5,-72.11 963,-62.11 959.5,-72.11 966.5,-72.11"/>
</g>
<!-- bufaloS&#45;&gt;buffalo -->
<g id="edge47" class="edge">
<title>bufaloS&#45;&gt;buffalo</title>
<path fill="none" stroke="black" stroke-dasharray="5,2" d="M1040.19,-117.66C1027.31,-104.36 1009.16,-85.64 993.71,-69.69"/>
<polygon fill="black" stroke="black" points="995.84,-66.86 986.37,-62.11 990.81,-71.73 995.84,-66.86"/>
</g>
</g>
</svg>
