<?xml version="1.0" encoding="UTF-8" standalone="no"?>
<!DOCTYPE svg PUBLIC "-//W3C//DTD SVG 1.1//EN"
 "http://www.w3.org/Graphics/SVG/1.1/DTD/svg11.dtd">
<!-- Generated by graphviz version 2.49.0 (20210828.1703)
 -->
<!-- Pages: 1 -->
<svg width="1224pt" height="794pt"
 viewBox="0.00 0.00 1224.00 794.00" xmlns="http://www.w3.org/2000/svg" xmlns:xlink="http://www.w3.org/1999/xlink">
<g id="graph0" class="graph" transform="scale(1 1) rotate(0) translate(4 790)">
<polygon fill="white" stroke="transparent" points="-4,4 -4,-790 1220,-790 1220,4 -4,4"/>
<!-- ker -->
<g id="node1" class="node">
<title>ker</title>
<g id="a_node1"><a xlink:href="ker-horn0.svg" xlink:title="Indo&#45;European &quot;*ker&#45;&quot; horn, head">
<polygon fill="none" stroke="black" stroke-dasharray="5,2" points="710.5,-786 499.5,-786 499.5,-682 710.5,-682 710.5,-786"/>
<text text-anchor="start" x="527" y="-741.8" font-family="Times New Roman,serif" font-weight="bold" font-size="24.00">Indo&#45;European</text>
<text text-anchor="start" x="538" y="-713.6" font-family="Times New Roman,serif" font-size="18.00" fill="red">*ker&#45;</text>
<text text-anchor="start" x="607.5" y="-714.2" font-family="Times New Roman,serif" font-size="16.00">horn, head</text>
</a>
</g>
</g>
<!-- keres -->
<g id="node2" class="node">
<title>keres</title>
<text text-anchor="start" x="584.5" y="-611.3" font-family="Times New Roman,serif" font-size="14.00" fill="red">*kerəs&#45;</text>
</g>
<!-- ker&#45;&gt;keres -->
<g id="edge1" class="edge">
<title>ker&#45;&gt;keres</title>
<path fill="none" stroke="black" d="M605,-681.68C605,-668.47 605,-654.76 605,-643.3"/>
<polygon fill="black" stroke="black" points="608.5,-643.1 605,-633.1 601.5,-643.1 608.5,-643.1"/>
</g>
<!-- kerasGk -->
<g id="node3" class="node">
<title>kerasGk</title>
<text text-anchor="start" x="585" y="-533.8" font-family="Times New Roman,serif" font-weight="bold" font-size="14.00">Greek</text>
<text text-anchor="start" x="590" y="-519.8" font-family="Times New Roman,serif" font-size="14.00" fill="red">keras</text>
<text text-anchor="start" x="594.5" y="-507.4" font-family="Times New Roman,serif" font-size="12.00">horn</text>
</g>
<!-- keres&#45;&gt;kerasGk -->
<g id="edge2" class="edge">
<title>keres&#45;&gt;kerasGk</title>
<path fill="none" stroke="black" d="M605,-596.84C605,-585.92 605,-571.41 605,-558.29"/>
<polygon fill="black" stroke="black" points="608.5,-558.17 605,-548.17 601.5,-558.17 608.5,-558.17"/>
</g>
<!-- sarahA -->
<g id="node38" class="node">
<title>sarahA</title>
<text text-anchor="start" x="1018.5" y="-533.8" font-family="Times New Roman,serif" font-weight="bold" font-size="14.00">Avestan</text>
<text text-anchor="start" x="1026" y="-519.8" font-family="Times New Roman,serif" font-size="14.00" fill="red">sarah&#45;</text>
<text text-anchor="start" x="1032" y="-507.4" font-family="Times New Roman,serif" font-size="12.00">head</text>
</g>
<!-- keres&#45;&gt;sarahA -->
<g id="edge38" class="edge">
<title>keres&#45;&gt;sarahA</title>
<path fill="none" stroke="black" d="M633.91,-608.87C692.93,-598.3 831.45,-572.98 947,-548 964.48,-544.22 983.66,-539.7 1000.25,-535.67"/>
<polygon fill="black" stroke="black" points="1001.32,-539.01 1010.2,-533.24 999.66,-532.21 1001.32,-539.01"/>
</g>
<!-- keresro -->
<g id="node49" class="node">
<title>keresro</title>
<text text-anchor="start" x="395" y="-279.3" font-family="Times New Roman,serif" font-size="14.00" fill="red">*kerəs&#45;ro&#45;</text>
</g>
<!-- keres&#45;&gt;keresro -->
<g id="edge49" class="edge">
<title>keres&#45;&gt;keresro</title>
<path fill="none" stroke="black" d="M580.32,-596.86C546.39,-571.85 486.11,-521.98 456,-464 430.35,-414.6 424.82,-348.42 423.89,-311.63"/>
<polygon fill="black" stroke="black" points="427.38,-311.15 423.73,-301.2 420.38,-311.25 427.38,-311.15"/>
</g>
<!-- keratoGk -->
<g id="node4" class="node">
<title>keratoGk</title>
<text text-anchor="start" x="657" y="-107.3" font-family="Times New Roman,serif" font-size="14.00" fill="red">kerāto&#45;</text>
</g>
<!-- kerasGk&#45;&gt;keratoGk -->
<g id="edge3" class="edge">
<title>kerasGk&#45;&gt;keratoGk</title>
<path fill="none" stroke="black" d="M629.92,-499.78C639.41,-489.65 649.51,-477.1 656,-464 675.16,-425.34 676,-412.15 676,-369 676,-369 676,-369 676,-282 676,-231.88 676.44,-173.46 676.74,-139.79"/>
<polygon fill="black" stroke="black" points="680.24,-139.41 676.83,-129.38 673.24,-139.34 680.24,-139.41"/>
</g>
<!-- keratin -->
<g id="node6" class="node">
<title>keratin</title>
<text text-anchor="start" x="737.5" y="-35.8" font-family="Times New Roman,serif" font-weight="bold" font-size="14.00">Modern</text>
<text text-anchor="start" x="739" y="-21.8" font-family="Times New Roman,serif" font-weight="bold" font-size="14.00">English</text>
<text text-anchor="start" x="743.5" y="-7.8" font-family="Times New Roman,serif" font-size="14.00" fill="red">keratin</text>
</g>
<!-- kerasGk&#45;&gt;keratin -->
<g id="edge5" class="edge">
<title>kerasGk&#45;&gt;keratin</title>
<path fill="none" stroke="black" stroke-dasharray="5,2" d="M633.21,-506.58C671.44,-481.97 735,-431.63 735,-369 735,-369 735,-369 735,-196 735,-148.34 745.48,-94.07 753.38,-59.94"/>
<polygon fill="black" stroke="black" points="756.83,-60.56 755.74,-50.02 750.02,-58.94 756.83,-60.56"/>
</g>
<!-- karationGk -->
<g id="node7" class="node">
<title>karationGk</title>
<text text-anchor="start" x="782.5" y="-448.8" font-family="Times New Roman,serif" font-size="14.00" fill="red">kerātion</text>
<text text-anchor="start" x="786" y="-436.4" font-family="Times New Roman,serif" font-size="12.00">a weight</text>
</g>
<!-- kerasGk&#45;&gt;karationGk -->
<g id="edge6" class="edge">
<title>kerasGk&#45;&gt;karationGk</title>
<path fill="none" stroke="black" d="M633.23,-512.27C667.58,-499.22 725.79,-477.1 764.81,-462.27"/>
<polygon fill="black" stroke="black" points="766.18,-465.49 774.29,-458.67 763.7,-458.95 766.18,-465.49"/>
</g>
<!-- kerastesGk -->
<g id="node13" class="node">
<title>kerastesGk</title>
<text text-anchor="start" x="582" y="-448.8" font-family="Times New Roman,serif" font-size="14.00" fill="red">kerastēs</text>
<text text-anchor="start" x="571" y="-436.4" font-family="Times New Roman,serif" font-size="12.00">horned serpent</text>
</g>
<!-- kerasGk&#45;&gt;kerastesGk -->
<g id="edge12" class="edge">
<title>kerasGk&#45;&gt;kerastesGk</title>
<path fill="none" stroke="black" d="M605,-499.78C605,-491.68 605,-482.52 605,-474.12"/>
<polygon fill="black" stroke="black" points="608.5,-474.04 605,-464.04 601.5,-474.04 608.5,-474.04"/>
</g>
<!-- ceratodusNL -->
<g id="node19" class="node">
<title>ceratodusNL</title>
<text text-anchor="start" x="128" y="-449.8" font-family="Times New Roman,serif" font-weight="bold" font-size="14.00">New Latin</text>
<text text-anchor="start" x="131" y="-435.8" font-family="Times New Roman,serif" font-size="14.00" fill="red">Cerātodūs</text>
</g>
<!-- kerasGk&#45;&gt;ceratodusNL -->
<g id="edge17" class="edge">
<title>kerasGk&#45;&gt;ceratodusNL</title>
<path fill="none" stroke="black" stroke-dasharray="5,2" d="M576.99,-519.52C501.9,-510.07 296.46,-483.52 210.12,-463.96"/>
<polygon fill="black" stroke="black" points="210.74,-460.51 200.2,-461.61 209.12,-467.32 210.74,-460.51"/>
</g>
<!-- ceratopsiaNL -->
<g id="node23" class="node">
<title>ceratopsiaNL</title>
<text text-anchor="start" x="226" y="-449.8" font-family="Times New Roman,serif" font-weight="bold" font-size="14.00">New Latin</text>
<text text-anchor="start" x="227.5" y="-435.8" font-family="Times New Roman,serif" font-size="14.00" fill="red">Cerātōpsia</text>
</g>
<!-- kerasGk&#45;&gt;ceratopsiaNL -->
<g id="edge21" class="edge">
<title>kerasGk&#45;&gt;ceratopsiaNL</title>
<path fill="none" stroke="black" stroke-dasharray="5,2" d="M576.9,-516.84C518.26,-504 382.21,-474.2 308.17,-457.99"/>
<polygon fill="black" stroke="black" points="308.67,-454.51 298.15,-455.79 307.17,-461.35 308.67,-454.51"/>
</g>
<!-- monokerosGk -->
<g id="node27" class="node">
<title>monokerosGk</title>
<text text-anchor="start" x="473" y="-442.3" font-family="Times New Roman,serif" font-size="14.00" fill="red">monokerōs</text>
</g>
<!-- kerasGk&#45;&gt;monokerosGk -->
<g id="edge25" class="edge">
<title>kerasGk&#45;&gt;monokerosGk</title>
<path fill="none" stroke="black" d="M576.88,-501.63C564.08,-491.9 548.91,-480.37 535.81,-470.41"/>
<polygon fill="black" stroke="black" points="537.62,-467.39 527.54,-464.13 533.38,-472.97 537.62,-467.39"/>
</g>
<!-- rhinokerosGk -->
<g id="node30" class="node">
<title>rhinokerosGk</title>
<text text-anchor="start" x="879.5" y="-442.3" font-family="Times New Roman,serif" font-size="14.00" fill="red">rhīnokerōs</text>
</g>
<!-- kerasGk&#45;&gt;rhinokerosGk -->
<g id="edge28" class="edge">
<title>kerasGk&#45;&gt;rhinokerosGk</title>
<path fill="none" stroke="black" d="M633.11,-516.23C677.97,-505.4 768.47,-483.41 845,-464 850.3,-462.66 855.84,-461.23 861.35,-459.81"/>
<polygon fill="black" stroke="black" points="862.39,-463.15 871.18,-457.25 860.63,-456.38 862.39,-463.15"/>
</g>
<!-- triceratopsNL -->
<g id="node36" class="node">
<title>triceratopsNL</title>
<text text-anchor="start" x="29" y="-449.8" font-family="Times New Roman,serif" font-weight="bold" font-size="14.00">New Latin</text>
<text text-anchor="start" x="28.5" y="-435.8" font-family="Times New Roman,serif" font-size="14.00" fill="red">Tricerātōps</text>
</g>
<!-- kerasGk&#45;&gt;triceratopsNL -->
<g id="edge34" class="edge">
<title>kerasGk&#45;&gt;triceratopsNL</title>
<path fill="none" stroke="black" stroke-dasharray="5,2" d="M576.81,-519.48C540.21,-514.93 474.35,-506.77 418,-500 284.8,-484 246.77,-493.79 111.63,-463.86"/>
<polygon fill="black" stroke="black" points="112.25,-460.41 101.73,-461.63 110.72,-467.24 112.25,-460.41"/>
</g>
<!-- kerato -->
<g id="node5" class="node">
<title>kerato</title>
<text text-anchor="start" x="654.5" y="-35.8" font-family="Times New Roman,serif" font-weight="bold" font-size="14.00">Modern</text>
<text text-anchor="start" x="656" y="-21.8" font-family="Times New Roman,serif" font-weight="bold" font-size="14.00">English</text>
<text text-anchor="start" x="659" y="-7.8" font-family="Times New Roman,serif" font-size="14.00" fill="red">kerato&#45;</text>
</g>
<!-- keratoGk&#45;&gt;kerato -->
<g id="edge4" class="edge">
<title>keratoGk&#45;&gt;kerato</title>
<path fill="none" stroke="black" stroke-dasharray="5,2" d="M677.41,-92.6C677.64,-83.27 677.92,-71.45 678.18,-60.37"/>
<polygon fill="black" stroke="black" points="681.69,-60.15 678.43,-50.07 674.69,-59.98 681.69,-60.15"/>
</g>
<!-- qiratA -->
<g id="node8" class="node">
<title>qiratA</title>
<text text-anchor="start" x="796" y="-377.8" font-family="Times New Roman,serif" font-weight="bold" font-size="14.00" fill="green">Arabic</text>
<text text-anchor="start" x="803.5" y="-363.8" font-family="Times New Roman,serif" font-size="14.00" fill="red">qīrāṭ</text>
<text text-anchor="start" x="771" y="-351.4" font-family="Times New Roman,serif" font-size="12.00">weight of four grains</text>
</g>
<!-- karationGk&#45;&gt;qiratA -->
<g id="edge7" class="edge">
<title>karationGk&#45;&gt;qiratA</title>
<path fill="none" stroke="black" stroke-dasharray="5,2" d="M807.72,-427.75C808.92,-420.2 810.36,-411.07 811.75,-402.28"/>
<polygon fill="black" stroke="black" points="815.23,-402.65 813.33,-392.23 808.32,-401.56 815.23,-402.65"/>
</g>
<!-- quaratusL -->
<g id="node9" class="node">
<title>quaratusL</title>
<text text-anchor="start" x="792.5" y="-293.8" font-family="Times New Roman,serif" font-weight="bold" font-size="14.00">Medieval</text>
<text text-anchor="start" x="804.5" y="-279.8" font-family="Times New Roman,serif" font-weight="bold" font-size="14.00">Latin</text>
<text text-anchor="start" x="797" y="-265.8" font-family="Times New Roman,serif" font-size="14.00" fill="red">quarātus</text>
</g>
<!-- qiratA&#45;&gt;quaratusL -->
<g id="edge8" class="edge">
<title>qiratA&#45;&gt;quaratusL</title>
<path fill="none" stroke="black" stroke-dasharray="5,2" d="M818.11,-343.88C818.5,-335.97 818.93,-326.94 819.35,-318.34"/>
<polygon fill="black" stroke="black" points="822.85,-318.31 819.84,-308.15 815.86,-317.97 822.85,-318.31"/>
</g>
<!-- caratOF -->
<g id="node10" class="node">
<title>caratOF</title>
<text text-anchor="start" x="798" y="-200.8" font-family="Times New Roman,serif" font-weight="bold" font-size="14.00">Old French</text>
<text text-anchor="start" x="819" y="-186.8" font-family="Times New Roman,serif" font-size="14.00" fill="red">carat</text>
</g>
<!-- quaratusL&#45;&gt;caratOF -->
<g id="edge9" class="edge">
<title>quaratusL&#45;&gt;caratOF</title>
<path fill="none" stroke="black" d="M824.47,-257.7C825.93,-247.46 827.64,-235.49 829.15,-224.97"/>
<polygon fill="black" stroke="black" points="832.62,-225.44 830.56,-215.05 825.69,-224.45 832.62,-225.44"/>
</g>
<!-- caratME -->
<g id="node11" class="node">
<title>caratME</title>
<text text-anchor="start" x="817.5" y="-121.8" font-family="Times New Roman,serif" font-weight="bold" font-size="14.00">Middle</text>
<text text-anchor="start" x="816" y="-107.8" font-family="Times New Roman,serif" font-weight="bold" font-size="14.00">English</text>
<text text-anchor="start" x="825" y="-93.8" font-family="Times New Roman,serif" font-size="14.00" fill="red">carat</text>
</g>
<!-- caratOF&#45;&gt;caratME -->
<g id="edge10" class="edge">
<title>caratOF&#45;&gt;caratME</title>
<path fill="none" stroke="black" stroke-dasharray="5,2" d="M834.24,-178.6C834.91,-169.27 835.75,-157.45 836.55,-146.37"/>
<polygon fill="black" stroke="black" points="840.06,-146.3 837.28,-136.07 833.08,-145.8 840.06,-146.3"/>
</g>
<!-- carat -->
<g id="node12" class="node">
<title>carat</title>
<text text-anchor="start" x="820.5" y="-35.8" font-family="Times New Roman,serif" font-weight="bold" font-size="14.00">Modern</text>
<text text-anchor="start" x="822" y="-21.8" font-family="Times New Roman,serif" font-weight="bold" font-size="14.00">English</text>
<text text-anchor="start" x="831" y="-7.8" font-family="Times New Roman,serif" font-size="14.00" fill="red">carat</text>
</g>
<!-- caratME&#45;&gt;carat -->
<g id="edge11" class="edge">
<title>caratME&#45;&gt;carat</title>
<path fill="none" stroke="black" d="M840.74,-85.7C841.3,-77.78 841.94,-68.83 842.55,-60.31"/>
<polygon fill="black" stroke="black" points="846.05,-60.47 843.27,-50.24 839.06,-59.97 846.05,-60.47"/>
</g>
<!-- cerastesL -->
<g id="node14" class="node">
<title>cerastesL</title>
<text text-anchor="start" x="586.5" y="-371.8" font-family="Times New Roman,serif" font-weight="bold" font-size="14.00">Latin</text>
<text text-anchor="start" x="580" y="-357.8" font-family="Times New Roman,serif" font-size="14.00" fill="red">cerastēs</text>
</g>
<!-- kerastesGk&#45;&gt;cerastesL -->
<g id="edge13" class="edge">
<title>kerastesGk&#45;&gt;cerastesL</title>
<path fill="none" stroke="black" stroke-dasharray="5,2" d="M604.55,-427.75C604.3,-418.52 604,-406.93 603.72,-396.49"/>
<polygon fill="black" stroke="black" points="607.21,-396.08 603.45,-386.18 600.22,-396.27 607.21,-396.08"/>
</g>
<!-- cerastesME -->
<g id="node15" class="node">
<title>cerastesME</title>
<text text-anchor="start" x="575.5" y="-121.8" font-family="Times New Roman,serif" font-weight="bold" font-size="14.00">Middle</text>
<text text-anchor="start" x="574" y="-107.8" font-family="Times New Roman,serif" font-weight="bold" font-size="14.00">English</text>
<text text-anchor="start" x="574" y="-93.8" font-family="Times New Roman,serif" font-size="14.00" fill="red">cerastes</text>
</g>
<!-- cerastesL&#45;&gt;cerastesME -->
<g id="edge14" class="edge">
<title>cerastesL&#45;&gt;cerastesME</title>
<path fill="none" stroke="black" stroke-dasharray="5,2" d="M602.6,-349.87C601.62,-308.33 599.11,-201.57 597.81,-146.3"/>
<polygon fill="black" stroke="black" points="601.31,-146.2 597.57,-136.29 594.31,-146.37 601.31,-146.2"/>
</g>
<!-- cerastes -->
<g id="node16" class="node">
<title>cerastes</title>
<text text-anchor="start" x="571.5" y="-35.8" font-family="Times New Roman,serif" font-weight="bold" font-size="14.00">Modern</text>
<text text-anchor="start" x="573" y="-21.8" font-family="Times New Roman,serif" font-weight="bold" font-size="14.00">English</text>
<text text-anchor="start" x="573" y="-7.8" font-family="Times New Roman,serif" font-size="14.00" fill="red">cerastes</text>
</g>
<!-- cerastesME&#45;&gt;cerastes -->
<g id="edge15" class="edge">
<title>cerastesME&#45;&gt;cerastes</title>
<path fill="none" stroke="black" d="M596.71,-85.7C596.62,-77.78 596.51,-68.83 596.41,-60.31"/>
<polygon fill="black" stroke="black" points="599.91,-60.2 596.29,-50.24 592.91,-60.28 599.91,-60.2"/>
</g>
<!-- dentIE -->
<g id="node17" class="node">
<title>dentIE</title>
<g id="a_node17"><a xlink:href="dent-tooth.svg" xlink:title="&lt;b&gt;Indo&#45;&lt;br/&gt;European&lt;/b&gt;&lt;br/&gt;&lt;font color=&quot;red&quot;&gt;*dent&#45;&lt;/font&gt;&lt;br/&gt;&lt;font point&#45;size=&quot;12&quot;&gt;tooth&lt;/font&gt;">
<path fill="none" stroke="black" stroke-dasharray="5,2" d="M186.5,-646C186.5,-646 133.5,-646 133.5,-646 127.5,-646 121.5,-640 121.5,-634 121.5,-634 121.5,-596 121.5,-596 121.5,-590 127.5,-584 133.5,-584 133.5,-584 186.5,-584 186.5,-584 192.5,-584 198.5,-590 198.5,-596 198.5,-596 198.5,-634 198.5,-634 198.5,-640 192.5,-646 186.5,-646"/>
<text text-anchor="start" x="143.5" y="-631.8" font-family="Times New Roman,serif" font-weight="bold" font-size="14.00">Indo&#45;</text>
<text text-anchor="start" x="129.5" y="-617.8" font-family="Times New Roman,serif" font-weight="bold" font-size="14.00">European</text>
<text text-anchor="start" x="142" y="-603.8" font-family="Times New Roman,serif" font-size="14.00" fill="red">*dent&#45;</text>
<text text-anchor="start" x="148" y="-591.4" font-family="Times New Roman,serif" font-size="12.00">tooth</text>
</a>
</g>
</g>
<!-- odousGk -->
<g id="node18" class="node">
<title>odousGk</title>
<text text-anchor="start" x="140" y="-527.8" font-family="Times New Roman,serif" font-weight="bold" font-size="14.00">Greek</text>
<text text-anchor="start" x="142" y="-513.8" font-family="Times New Roman,serif" font-size="14.00" fill="red">odous</text>
</g>
<!-- dentIE&#45;&gt;odousGk -->
<g id="edge16" class="edge">
<title>dentIE&#45;&gt;odousGk</title>
<path fill="none" stroke="black" d="M160,-583.87C160,-573.65 160,-562.29 160,-552.3"/>
<polygon fill="black" stroke="black" points="163.5,-552.12 160,-542.12 156.5,-552.12 163.5,-552.12"/>
</g>
<!-- odousGk&#45;&gt;ceratodusNL -->
<g id="edge18" class="edge">
<title>odousGk&#45;&gt;ceratodusNL</title>
<path fill="none" stroke="black" stroke-dasharray="5,2" d="M160,-505.75C160,-496.52 160,-484.93 160,-474.49"/>
<polygon fill="black" stroke="black" points="163.5,-474.18 160,-464.18 156.5,-474.18 163.5,-474.18"/>
</g>
<!-- ceratodus -->
<g id="node20" class="node">
<title>ceratodus</title>
<text text-anchor="start" x="105.5" y="-35.8" font-family="Times New Roman,serif" font-weight="bold" font-size="14.00">Modern</text>
<text text-anchor="start" x="107" y="-21.8" font-family="Times New Roman,serif" font-weight="bold" font-size="14.00">English</text>
<text text-anchor="start" x="102.5" y="-7.8" font-family="Times New Roman,serif" font-size="14.00" fill="red">ceratodus</text>
</g>
<!-- ceratodusNL&#45;&gt;ceratodus -->
<g id="edge19" class="edge">
<title>ceratodusNL&#45;&gt;ceratodus</title>
<path fill="none" stroke="black" stroke-dasharray="5,2" d="M154.64,-427.8C146.01,-398.57 130,-337.17 130,-284 130,-284 130,-284 130,-196 130,-149.13 130,-94.99 130,-60.63"/>
<polygon fill="black" stroke="black" points="133.5,-60.21 130,-50.21 126.5,-60.21 133.5,-60.21"/>
</g>
<!-- okwIE -->
<g id="node21" class="node">
<title>okwIE</title>
<g id="a_node21"><a xlink:href="okw-see.svg" xlink:title="&lt;b&gt;Indo&#45;&lt;br/&gt;European&lt;/b&gt;&lt;br/&gt;&lt;font color=&quot;red&quot;&gt;*okʷ&#45;&lt;/font&gt;&lt;br/&gt;&lt;font point&#45;size=&quot;12&quot;&gt;to see&lt;/font&gt;">
<path fill="none" stroke="black" stroke-dasharray="5,2" d="M283.5,-646C283.5,-646 230.5,-646 230.5,-646 224.5,-646 218.5,-640 218.5,-634 218.5,-634 218.5,-596 218.5,-596 218.5,-590 224.5,-584 230.5,-584 230.5,-584 283.5,-584 283.5,-584 289.5,-584 295.5,-590 295.5,-596 295.5,-596 295.5,-634 295.5,-634 295.5,-640 289.5,-646 283.5,-646"/>
<text text-anchor="start" x="240.5" y="-631.8" font-family="Times New Roman,serif" font-weight="bold" font-size="14.00">Indo&#45;</text>
<text text-anchor="start" x="226.5" y="-617.8" font-family="Times New Roman,serif" font-weight="bold" font-size="14.00">European</text>
<text text-anchor="start" x="241" y="-603.8" font-family="Times New Roman,serif" font-size="14.00" fill="red">*okʷ&#45;</text>
<text text-anchor="start" x="243" y="-591.4" font-family="Times New Roman,serif" font-size="12.00">to see</text>
</a>
</g>
</g>
<!-- opsGk -->
<g id="node22" class="node">
<title>opsGk</title>
<text text-anchor="start" x="237" y="-533.8" font-family="Times New Roman,serif" font-weight="bold" font-size="14.00">Greek</text>
<text text-anchor="start" x="246" y="-519.8" font-family="Times New Roman,serif" font-size="14.00" fill="red">ōps</text>
<text text-anchor="start" x="236.5" y="-507.4" font-family="Times New Roman,serif" font-size="12.00">eye, face</text>
</g>
<!-- okwIE&#45;&gt;opsGk -->
<g id="edge20" class="edge">
<title>okwIE&#45;&gt;opsGk</title>
<path fill="none" stroke="black" d="M257,-583.87C257,-575.64 257,-566.68 257,-558.29"/>
<polygon fill="black" stroke="black" points="260.5,-558.06 257,-548.06 253.5,-558.06 260.5,-558.06"/>
</g>
<!-- opsGk&#45;&gt;ceratopsiaNL -->
<g id="edge22" class="edge">
<title>opsGk&#45;&gt;ceratopsiaNL</title>
<path fill="none" stroke="black" stroke-dasharray="5,2" d="M257.31,-499.78C257.41,-491.68 257.53,-482.52 257.64,-474.12"/>
<polygon fill="black" stroke="black" points="261.14,-474.09 257.78,-464.04 254.14,-474 261.14,-474.09"/>
</g>
<!-- opsGk&#45;&gt;triceratopsNL -->
<g id="edge35" class="edge">
<title>opsGk&#45;&gt;triceratopsNL</title>
<path fill="none" stroke="black" stroke-dasharray="5,2" d="M228.5,-511.95C197.9,-500.08 148.66,-480.99 111.48,-466.57"/>
<polygon fill="black" stroke="black" points="112.41,-463.18 101.82,-462.83 109.88,-469.71 112.41,-463.18"/>
</g>
<!-- ceratopsian -->
<g id="node24" class="node">
<title>ceratopsian</title>
<text text-anchor="start" x="199.5" y="-35.8" font-family="Times New Roman,serif" font-weight="bold" font-size="14.00">Modern</text>
<text text-anchor="start" x="201" y="-21.8" font-family="Times New Roman,serif" font-weight="bold" font-size="14.00">English</text>
<text text-anchor="start" x="192" y="-7.8" font-family="Times New Roman,serif" font-size="14.00" fill="red">ceratopsian</text>
</g>
<!-- ceratopsiaNL&#45;&gt;ceratopsian -->
<g id="edge23" class="edge">
<title>ceratopsiaNL&#45;&gt;ceratopsian</title>
<path fill="none" stroke="black" stroke-dasharray="5,2" d="M251.92,-427.86C242.14,-398.7 224,-337.42 224,-284 224,-284 224,-284 224,-196 224,-149.13 224,-94.99 224,-60.63"/>
<polygon fill="black" stroke="black" points="227.5,-60.21 224,-50.21 220.5,-60.21 227.5,-60.21"/>
</g>
<!-- menIE -->
<g id="node25" class="node">
<title>menIE</title>
<g id="a_node25"><a xlink:href="men-small.svg" xlink:title="&lt;b&gt;Indo&#45;&lt;br/&gt;European&lt;/b&gt;&lt;br/&gt;&lt;font color=&quot;red&quot;&gt;*men&#45;&lt;/font&gt;&lt;br/&gt;&lt;font point&#45;size=&quot;12&quot;&gt;small, isolated&lt;/font&gt;">
<path fill="none" stroke="black" stroke-dasharray="5,2" d="M405,-646C405,-646 349,-646 349,-646 343,-646 337,-640 337,-634 337,-634 337,-596 337,-596 337,-590 343,-584 349,-584 349,-584 405,-584 405,-584 411,-584 417,-590 417,-596 417,-596 417,-634 417,-634 417,-640 411,-646 405,-646"/>
<text text-anchor="start" x="360.5" y="-631.8" font-family="Times New Roman,serif" font-weight="bold" font-size="14.00">Indo&#45;</text>
<text text-anchor="start" x="346.5" y="-617.8" font-family="Times New Roman,serif" font-weight="bold" font-size="14.00">European</text>
<text text-anchor="start" x="359.5" y="-603.8" font-family="Times New Roman,serif" font-size="14.00" fill="red">*men&#45;</text>
<text text-anchor="start" x="345" y="-591.4" font-family="Times New Roman,serif" font-size="12.00">small, isolated</text>
</a>
</g>
</g>
<!-- monoGk -->
<g id="node26" class="node">
<title>monoGk</title>
<text text-anchor="start" x="357" y="-533.8" font-family="Times New Roman,serif" font-weight="bold" font-size="14.00">Greek</text>
<text text-anchor="start" x="358.5" y="-519.8" font-family="Times New Roman,serif" font-size="14.00" fill="red">mono&#45;</text>
<text text-anchor="start" x="353" y="-507.4" font-family="Times New Roman,serif" font-size="12.00">one, single</text>
</g>
<!-- menIE&#45;&gt;monoGk -->
<g id="edge24" class="edge">
<title>menIE&#45;&gt;monoGk</title>
<path fill="none" stroke="black" d="M377,-583.87C377,-575.64 377,-566.68 377,-558.29"/>
<polygon fill="black" stroke="black" points="380.5,-558.06 377,-548.06 373.5,-558.06 380.5,-558.06"/>
</g>
<!-- monoGk&#45;&gt;monokerosGk -->
<g id="edge26" class="edge">
<title>monoGk&#45;&gt;monokerosGk</title>
<path fill="none" stroke="black" d="M409.3,-503.82C426.99,-493.32 449.01,-480.24 467.47,-469.29"/>
<polygon fill="black" stroke="black" points="469.39,-472.21 476.2,-464.1 465.82,-466.19 469.39,-472.21"/>
</g>
<!-- monoceros -->
<g id="node28" class="node">
<title>monoceros</title>
<text text-anchor="start" x="480.5" y="-35.8" font-family="Times New Roman,serif" font-weight="bold" font-size="14.00">Modern</text>
<text text-anchor="start" x="482" y="-21.8" font-family="Times New Roman,serif" font-weight="bold" font-size="14.00">English</text>
<text text-anchor="start" x="472.5" y="-7.8" font-family="Times New Roman,serif" font-size="14.00" fill="red">Monoceros</text>
</g>
<!-- monokerosGk&#45;&gt;monoceros -->
<g id="edge27" class="edge">
<title>monokerosGk&#45;&gt;monoceros</title>
<path fill="none" stroke="black" stroke-dasharray="5,2" d="M505,-427.61C505,-398.08 505,-336.27 505,-284 505,-284 505,-284 505,-196 505,-149.13 505,-94.99 505,-60.63"/>
<polygon fill="black" stroke="black" points="508.5,-60.21 505,-50.21 501.5,-60.21 508.5,-60.21"/>
</g>
<!-- rhinoGk -->
<g id="node29" class="node">
<title>rhinoGk</title>
<text text-anchor="start" x="890" y="-533.8" font-family="Times New Roman,serif" font-weight="bold" font-size="14.00">Greek</text>
<text text-anchor="start" x="892.5" y="-519.8" font-family="Times New Roman,serif" font-size="14.00" fill="red">rhīno&#45;</text>
<text text-anchor="start" x="899" y="-507.4" font-family="Times New Roman,serif" font-size="12.00">nose</text>
</g>
<!-- rhinoGk&#45;&gt;rhinokerosGk -->
<g id="edge29" class="edge">
<title>rhinoGk&#45;&gt;rhinokerosGk</title>
<path fill="none" stroke="black" d="M910,-499.78C910,-491.68 910,-482.52 910,-474.12"/>
<polygon fill="black" stroke="black" points="913.5,-474.04 910,-464.04 906.5,-474.04 913.5,-474.04"/>
</g>
<!-- rhinocerosL -->
<g id="node31" class="node">
<title>rhinocerosL</title>
<text text-anchor="start" x="911.5" y="-371.8" font-family="Times New Roman,serif" font-weight="bold" font-size="14.00">Latin</text>
<text text-anchor="start" x="897.5" y="-357.8" font-family="Times New Roman,serif" font-size="14.00" fill="red">rhīnocerōs</text>
</g>
<!-- rhinokerosGk&#45;&gt;rhinocerosL -->
<g id="edge30" class="edge">
<title>rhinokerosGk&#45;&gt;rhinocerosL</title>
<path fill="none" stroke="black" stroke-dasharray="5,2" d="M914.08,-427.75C916.29,-418.43 919.07,-406.69 921.57,-396.17"/>
<polygon fill="black" stroke="black" points="925.03,-396.71 923.93,-386.18 918.22,-395.1 925.03,-396.71"/>
</g>
<!-- rinocerosME -->
<g id="node32" class="node">
<title>rinocerosME</title>
<text text-anchor="start" x="912.5" y="-207.8" font-family="Times New Roman,serif" font-weight="bold" font-size="14.00">Middle</text>
<text text-anchor="start" x="911" y="-193.8" font-family="Times New Roman,serif" font-weight="bold" font-size="14.00">English</text>
<text text-anchor="start" x="907.5" y="-179.8" font-family="Times New Roman,serif" font-size="14.00" fill="red">rinoceros</text>
</g>
<!-- rhinocerosL&#45;&gt;rinocerosME -->
<g id="edge31" class="edge">
<title>rhinocerosL&#45;&gt;rinocerosME</title>
<path fill="none" stroke="black" stroke-dasharray="5,2" d="M928.61,-349.87C929.58,-322.49 931.5,-268.34 932.77,-232.65"/>
<polygon fill="black" stroke="black" points="936.28,-232.34 933.14,-222.22 929.29,-232.09 936.28,-232.34"/>
</g>
<!-- rhinoceros -->
<g id="node33" class="node">
<title>rhinoceros</title>
<text text-anchor="start" x="909.5" y="-35.8" font-family="Times New Roman,serif" font-weight="bold" font-size="14.00">Modern</text>
<text text-anchor="start" x="911" y="-21.8" font-family="Times New Roman,serif" font-weight="bold" font-size="14.00">English</text>
<text text-anchor="start" x="904" y="-7.8" font-family="Times New Roman,serif" font-size="14.00" fill="red">rhinoceros</text>
</g>
<!-- rinocerosME&#45;&gt;rhinoceros -->
<g id="edge32" class="edge">
<title>rinocerosME&#45;&gt;rhinoceros</title>
<path fill="none" stroke="black" d="M934,-171.64C934,-142.4 934,-93.17 934,-60.15"/>
<polygon fill="black" stroke="black" points="937.5,-60.04 934,-50.04 930.5,-60.04 937.5,-60.04"/>
</g>
<!-- treiIE -->
<g id="node34" class="node">
<title>treiIE</title>
<g id="a_node34"><a xlink:href="trei-three2.svg" xlink:title="&lt;b&gt;Indo&#45;&lt;br/&gt;European&lt;/b&gt;&lt;br/&gt;&lt;font color=&quot;red&quot;&gt;*trei&#45;&lt;/font&gt;&lt;br/&gt;&lt;font point&#45;size=&quot;12&quot;&gt;three&lt;/font&gt;">
<path fill="none" stroke="black" stroke-dasharray="5,2" d="M87.5,-646C87.5,-646 34.5,-646 34.5,-646 28.5,-646 22.5,-640 22.5,-634 22.5,-634 22.5,-596 22.5,-596 22.5,-590 28.5,-584 34.5,-584 34.5,-584 87.5,-584 87.5,-584 93.5,-584 99.5,-590 99.5,-596 99.5,-596 99.5,-634 99.5,-634 99.5,-640 93.5,-646 87.5,-646"/>
<text text-anchor="start" x="44.5" y="-631.8" font-family="Times New Roman,serif" font-weight="bold" font-size="14.00">Indo&#45;</text>
<text text-anchor="start" x="30.5" y="-617.8" font-family="Times New Roman,serif" font-weight="bold" font-size="14.00">European</text>
<text text-anchor="start" x="46.5" y="-603.8" font-family="Times New Roman,serif" font-size="14.00" fill="red">*trei&#45;</text>
<text text-anchor="start" x="49.5" y="-591.4" font-family="Times New Roman,serif" font-size="12.00">three</text>
</a>
</g>
</g>
<!-- triGk -->
<g id="node35" class="node">
<title>triGk</title>
<text text-anchor="start" x="41" y="-527.8" font-family="Times New Roman,serif" font-weight="bold" font-size="14.00">Greek</text>
<text text-anchor="start" x="53" y="-513.8" font-family="Times New Roman,serif" font-size="14.00" fill="red">tri&#45;</text>
</g>
<!-- treiIE&#45;&gt;triGk -->
<g id="edge33" class="edge">
<title>treiIE&#45;&gt;triGk</title>
<path fill="none" stroke="black" d="M61,-583.87C61,-573.65 61,-562.29 61,-552.3"/>
<polygon fill="black" stroke="black" points="64.5,-552.12 61,-542.12 57.5,-552.12 64.5,-552.12"/>
</g>
<!-- triGk&#45;&gt;triceratopsNL -->
<g id="edge36" class="edge">
<title>triGk&#45;&gt;triceratopsNL</title>
<path fill="none" stroke="black" stroke-dasharray="5,2" d="M61,-505.75C61,-496.52 61,-484.93 61,-474.49"/>
<polygon fill="black" stroke="black" points="64.5,-474.18 61,-464.18 57.5,-474.18 64.5,-474.18"/>
</g>
<!-- triceratops -->
<g id="node37" class="node">
<title>triceratops</title>
<text text-anchor="start" x="13.5" y="-35.8" font-family="Times New Roman,serif" font-weight="bold" font-size="14.00">Modern</text>
<text text-anchor="start" x="15" y="-21.8" font-family="Times New Roman,serif" font-weight="bold" font-size="14.00">English</text>
<text text-anchor="start" x="8" y="-7.8" font-family="Times New Roman,serif" font-size="14.00" fill="red">triceratops</text>
</g>
<!-- triceratopsNL&#45;&gt;triceratops -->
<g id="edge37" class="edge">
<title>triceratopsNL&#45;&gt;triceratops</title>
<path fill="none" stroke="black" stroke-dasharray="5,2" d="M56.89,-427.72C50.27,-398.37 38,-336.8 38,-284 38,-284 38,-284 38,-196 38,-149.13 38,-94.99 38,-60.63"/>
<polygon fill="black" stroke="black" points="41.5,-60.21 38,-50.21 34.5,-60.21 41.5,-60.21"/>
</g>
<!-- sarP -->
<g id="node39" class="node">
<title>sarP</title>
<text text-anchor="start" x="1073.5" y="-371.8" font-family="Times New Roman,serif" font-weight="bold" font-size="14.00">Persian</text>
<text text-anchor="start" x="1088.5" y="-357.8" font-family="Times New Roman,serif" font-size="14.00" fill="red">sar</text>
</g>
<!-- sarahA&#45;&gt;sarP -->
<g id="edge39" class="edge">
<title>sarahA&#45;&gt;sarP</title>
<path fill="none" stroke="black" d="M1051.08,-499.94C1060.88,-472.02 1077.33,-425.08 1087.66,-395.64"/>
<polygon fill="black" stroke="black" points="1091.03,-396.61 1091.03,-386.02 1084.42,-394.29 1091.03,-396.61"/>
</g>
<!-- sardarP -->
<g id="node41" class="node">
<title>sardarP</title>
<text text-anchor="start" x="1037.5" y="-279.3" font-family="Times New Roman,serif" font-size="14.00" fill="red">sardār</text>
</g>
<!-- sarP&#45;&gt;sardarP -->
<g id="edge40" class="edge">
<title>sarP&#45;&gt;sardarP</title>
<path fill="none" stroke="black" d="M1088.3,-349.8C1082.5,-338.34 1074.76,-323.06 1068.21,-310.11"/>
<polygon fill="black" stroke="black" points="1071.33,-308.52 1063.69,-301.18 1065.08,-311.68 1071.33,-308.52"/>
</g>
<!-- sarpushP -->
<g id="node45" class="node">
<title>sarpushP</title>
<text text-anchor="start" x="1136" y="-285.8" font-family="Times New Roman,serif" font-size="14.00" fill="red">sarpūsh</text>
<text text-anchor="start" x="1135" y="-273.4" font-family="Times New Roman,serif" font-size="12.00">headdress</text>
</g>
<!-- sarP&#45;&gt;sarpushP -->
<g id="edge44" class="edge">
<title>sarP&#45;&gt;sarpushP</title>
<path fill="none" stroke="black" d="M1109.64,-349.8C1118.23,-338.12 1129.73,-322.46 1139.37,-309.35"/>
<polygon fill="black" stroke="black" points="1142.28,-311.31 1145.38,-301.18 1136.63,-307.16 1142.28,-311.31"/>
</g>
<!-- darP -->
<g id="node40" class="node">
<title>darP</title>
<text text-anchor="start" x="992.5" y="-377.8" font-family="Times New Roman,serif" font-weight="bold" font-size="14.00">Persian</text>
<text text-anchor="start" x="1004.5" y="-363.8" font-family="Times New Roman,serif" font-size="14.00" fill="red">&#45;dār</text>
<text text-anchor="start" x="1001.5" y="-351.4" font-family="Times New Roman,serif" font-size="12.00">holder</text>
</g>
<!-- darP&#45;&gt;sardarP -->
<g id="edge41" class="edge">
<title>darP&#45;&gt;sardarP</title>
<path fill="none" stroke="black" d="M1026.86,-343.88C1031.73,-333.52 1037.5,-321.25 1042.54,-310.53"/>
<polygon fill="black" stroke="black" points="1045.83,-311.74 1046.92,-301.21 1039.49,-308.77 1045.83,-311.74"/>
</g>
<!-- sardarH -->
<g id="node42" class="node">
<title>sardarH</title>
<text text-anchor="start" x="1038" y="-200.8" font-family="Times New Roman,serif" font-weight="bold" font-size="14.00">Hindi</text>
<text text-anchor="start" x="1037.5" y="-186.8" font-family="Times New Roman,serif" font-size="14.00" fill="red">sardār</text>
</g>
<!-- sardarP&#45;&gt;sardarH -->
<g id="edge42" class="edge">
<title>sardarP&#45;&gt;sardarH</title>
<path fill="none" stroke="black" stroke-dasharray="5,2" d="M1055,-264.6C1055,-253.26 1055,-238.23 1055,-225.32"/>
<polygon fill="black" stroke="black" points="1058.5,-225.1 1055,-215.1 1051.5,-225.1 1058.5,-225.1"/>
</g>
<!-- sirdar -->
<g id="node43" class="node">
<title>sirdar</title>
<text text-anchor="start" x="1030.5" y="-35.8" font-family="Times New Roman,serif" font-weight="bold" font-size="14.00">Modern</text>
<text text-anchor="start" x="1032" y="-21.8" font-family="Times New Roman,serif" font-weight="bold" font-size="14.00">English</text>
<text text-anchor="start" x="1039" y="-7.8" font-family="Times New Roman,serif" font-size="14.00" fill="red">sirdar</text>
</g>
<!-- sardarH&#45;&gt;sirdar -->
<g id="edge43" class="edge">
<title>sardarH&#45;&gt;sirdar</title>
<path fill="none" stroke="black" stroke-dasharray="5,2" d="M1055,-178.76C1055,-151.03 1055,-95.98 1055,-60.09"/>
<polygon fill="black" stroke="black" points="1058.5,-60.07 1055,-50.07 1051.5,-60.07 1058.5,-60.07"/>
</g>
<!-- pushP -->
<g id="node44" class="node">
<title>pushP</title>
<text text-anchor="start" x="1154.5" y="-377.8" font-family="Times New Roman,serif" font-weight="bold" font-size="14.00">Persian</text>
<text text-anchor="start" x="1162" y="-363.8" font-family="Times New Roman,serif" font-size="14.00" fill="red">pūsh&#45;</text>
<text text-anchor="start" x="1163" y="-351.4" font-family="Times New Roman,serif" font-size="12.00">to don</text>
</g>
<!-- pushP&#45;&gt;sarpushP -->
<g id="edge45" class="edge">
<title>pushP&#45;&gt;sarpushP</title>
<path fill="none" stroke="black" d="M1172.43,-343.88C1169.98,-333.73 1167.1,-321.75 1164.55,-311.18"/>
<polygon fill="black" stroke="black" points="1167.89,-310.11 1162.15,-301.21 1161.09,-311.75 1167.89,-310.11"/>
</g>
<!-- terposhT -->
<g id="node46" class="node">
<title>terposhT</title>
<text text-anchor="start" x="1133.5" y="-200.8" font-family="Times New Roman,serif" font-weight="bold" font-size="14.00" fill="green">Turkish</text>
<text text-anchor="start" x="1136.5" y="-186.8" font-family="Times New Roman,serif" font-size="14.00" fill="red">terposh</text>
</g>
<!-- sarpushP&#45;&gt;terposhT -->
<g id="edge46" class="edge">
<title>sarpushP&#45;&gt;terposhT</title>
<path fill="none" stroke="black" stroke-dasharray="5,2" d="M1158,-264.6C1158,-253.26 1158,-238.23 1158,-225.32"/>
<polygon fill="black" stroke="black" points="1161.5,-225.1 1158,-215.1 1154.5,-225.1 1161.5,-225.1"/>
</g>
<!-- tarbusA -->
<g id="node47" class="node">
<title>tarbusA</title>
<text text-anchor="start" x="1108" y="-114.8" font-family="Times New Roman,serif" font-weight="bold" font-size="14.00" fill="green">Egyptian Arabic</text>
<text text-anchor="start" x="1140.5" y="-100.8" font-family="Times New Roman,serif" font-size="14.00" fill="red">ṭarbūš</text>
</g>
<!-- terposhT&#45;&gt;tarbusA -->
<g id="edge47" class="edge">
<title>terposhT&#45;&gt;tarbusA</title>
<path fill="none" stroke="black" stroke-dasharray="5,2" d="M1158,-178.6C1158,-167.26 1158,-152.23 1158,-139.32"/>
<polygon fill="black" stroke="black" points="1161.5,-139.1 1158,-129.1 1154.5,-139.1 1161.5,-139.1"/>
</g>
<!-- tarboosh -->
<g id="node48" class="node">
<title>tarboosh</title>
<text text-anchor="start" x="1133.5" y="-35.8" font-family="Times New Roman,serif" font-weight="bold" font-size="14.00">Modern</text>
<text text-anchor="start" x="1135" y="-21.8" font-family="Times New Roman,serif" font-weight="bold" font-size="14.00">English</text>
<text text-anchor="start" x="1133" y="-7.8" font-family="Times New Roman,serif" font-size="14.00" fill="red">tarboosh</text>
</g>
<!-- tarbusA&#45;&gt;tarboosh -->
<g id="edge48" class="edge">
<title>tarbusA&#45;&gt;tarboosh</title>
<path fill="none" stroke="black" stroke-dasharray="5,2" d="M1158,-92.6C1158,-83.27 1158,-71.45 1158,-60.37"/>
<polygon fill="black" stroke="black" points="1161.5,-60.07 1158,-50.07 1154.5,-60.07 1161.5,-60.07"/>
</g>
<!-- cerebrumL -->
<g id="node50" class="node">
<title>cerebrumL</title>
<text text-anchor="start" x="395.5" y="-206.8" font-family="Times New Roman,serif" font-weight="bold" font-size="14.00">Latin</text>
<text text-anchor="start" x="385.5" y="-192.8" font-family="Times New Roman,serif" font-size="14.00" fill="red">cerebrum</text>
<text text-anchor="start" x="400.5" y="-180.4" font-family="Times New Roman,serif" font-size="12.00">brain</text>
</g>
<!-- keresro&#45;&gt;cerebrumL -->
<g id="edge50" class="edge">
<title>keresro&#45;&gt;cerebrumL</title>
<path fill="none" stroke="black" d="M421.51,-264.6C420.14,-254.96 418.38,-242.65 416.75,-231.24"/>
<polygon fill="black" stroke="black" points="420.18,-230.53 415.3,-221.12 413.25,-231.52 420.18,-230.53"/>
</g>
<!-- cerebrum -->
<g id="node51" class="node">
<title>cerebrum</title>
<text text-anchor="start" x="387.5" y="-35.8" font-family="Times New Roman,serif" font-weight="bold" font-size="14.00">Modern</text>
<text text-anchor="start" x="389" y="-21.8" font-family="Times New Roman,serif" font-weight="bold" font-size="14.00">English</text>
<text text-anchor="start" x="385.5" y="-7.8" font-family="Times New Roman,serif" font-size="14.00" fill="red">cerebrum</text>
</g>
<!-- cerebrumL&#45;&gt;cerebrum -->
<g id="edge51" class="edge">
<title>cerebrumL&#45;&gt;cerebrum</title>
<path fill="none" stroke="black" stroke-dasharray="5,2" d="M412,-172.72C412,-143.67 412,-93.76 412,-60.33"/>
<polygon fill="black" stroke="black" points="415.5,-60.1 412,-50.1 408.5,-60.1 415.5,-60.1"/>
</g>
<!-- cerebellumL -->
<g id="node52" class="node">
<title>cerebellumL</title>
<text text-anchor="start" x="316.5" y="-120.8" font-family="Times New Roman,serif" font-weight="bold" font-size="14.00">Latin</text>
<text text-anchor="start" x="302.5" y="-106.8" font-family="Times New Roman,serif" font-size="14.00" fill="red">cerebellum</text>
<text text-anchor="start" x="311" y="-94.4" font-family="Times New Roman,serif" font-size="12.00">little brain</text>
</g>
<!-- cerebrumL&#45;&gt;cerebellumL -->
<g id="edge52" class="edge">
<title>cerebrumL&#45;&gt;cerebellumL</title>
<path fill="none" stroke="black" d="M389.99,-172.6C381.26,-163.32 371.1,-152.51 361.8,-142.62"/>
<polygon fill="black" stroke="black" points="364.29,-140.16 354.89,-135.27 359.19,-144.96 364.29,-140.16"/>
</g>
<!-- cerebellum -->
<g id="node53" class="node">
<title>cerebellum</title>
<text text-anchor="start" x="296.5" y="-35.8" font-family="Times New Roman,serif" font-weight="bold" font-size="14.00">Modern</text>
<text text-anchor="start" x="298" y="-21.8" font-family="Times New Roman,serif" font-weight="bold" font-size="14.00">English</text>
<text text-anchor="start" x="290.5" y="-7.8" font-family="Times New Roman,serif" font-size="14.00" fill="red">cerebellum</text>
</g>
<!-- cerebellumL&#45;&gt;cerebellum -->
<g id="edge53" class="edge">
<title>cerebellumL&#45;&gt;cerebellum</title>
<path fill="none" stroke="black" stroke-dasharray="5,2" d="M329.66,-86.6C328.49,-78.44 327.16,-69.1 325.89,-60.23"/>
<polygon fill="black" stroke="black" points="329.33,-59.55 324.45,-50.15 322.4,-60.54 329.33,-59.55"/>
</g>
</g>
</svg>
