<?xml version="1.0" encoding="UTF-8" standalone="no"?>
<!DOCTYPE svg PUBLIC "-//W3C//DTD SVG 1.1//EN"
 "http://www.w3.org/Graphics/SVG/1.1/DTD/svg11.dtd">
<!-- Generated by graphviz version 2.49.0 (20210828.1703)
 -->
<!-- Pages: 1 -->
<svg width="1317pt" height="847pt"
 viewBox="0.00 0.00 1316.50 847.00" xmlns="http://www.w3.org/2000/svg" xmlns:xlink="http://www.w3.org/1999/xlink">
<g id="graph0" class="graph" transform="scale(1 1) rotate(0) translate(4 843)">
<polygon fill="white" stroke="transparent" points="-4,4 -4,-843 1312.5,-843 1312.5,4 -4,4"/>
<!-- kom -->
<g id="node1" class="node">
<title>kom</title>
<g id="a_node1"><a xlink:title="Indo&#45;European &quot;kom&quot; beside, near, by, with">
<polygon fill="none" stroke="black" points="588.5,-835 368.5,-835 368.5,-731 588.5,-731 588.5,-835"/>
<polygon fill="none" stroke="black" points="592.5,-839 364.5,-839 364.5,-727 592.5,-727 592.5,-839"/>
<text text-anchor="start" x="407.5" y="-789.8" font-family="Times New Roman,serif" font-size="24.00">Indo&#45;European</text>
<text text-anchor="start" x="394.5" y="-762.6" font-family="Times New Roman,serif" font-size="18.00" fill="red">kom</text>
<text text-anchor="start" x="432.5" y="-763.2" font-family="Times New Roman,serif" font-size="16.00">beside, near, by, with</text>
</a>
</g>
</g>
<!-- gaGm -->
<g id="node2" class="node">
<title>gaGm</title>
<text text-anchor="start" x="141" y="-450.8" font-family="Times New Roman,serif" font-weight="bold" font-size="14.00">Germanic</text>
<text text-anchor="start" x="162.5" y="-436.8" font-family="Times New Roman,serif" font-size="14.00" fill="red">ga&#45;</text>
<text text-anchor="start" x="140.5" y="-424.4" font-family="Times New Roman,serif" font-size="12.00">together, with</text>
</g>
<!-- kom&#45;&gt;gaGm -->
<g id="edge1" class="edge">
<title>kom&#45;&gt;gaGm</title>
<path fill="none" stroke="black" d="M485.5,-726C485.5,-726 253.48,-700.29 210.5,-654 165.14,-605.15 164.02,-521.64 167.54,-475.36"/>
<polygon fill="black" stroke="black" points="171.04,-475.52 168.43,-465.25 164.07,-474.91 171.04,-475.52"/>
</g>
<!-- cumL -->
<g id="node3" class="node">
<title>cumL</title>
<text text-anchor="start" x="332" y="-450.8" font-family="Times New Roman,serif" font-weight="bold" font-size="14.00">Latin</text>
<text text-anchor="start" x="336" y="-436.8" font-family="Times New Roman,serif" font-size="14.00" fill="red">cum</text>
<text text-anchor="start" x="339" y="-424.4" font-family="Times New Roman,serif" font-size="12.00">with</text>
</g>
<!-- kom&#45;&gt;cumL -->
<g id="edge2" class="edge">
<title>kom&#45;&gt;cumL</title>
<path fill="none" stroke="black" d="M485.5,-726C485.5,-726 400.26,-549.29 364.25,-474.65"/>
<polygon fill="black" stroke="black" points="367.21,-472.73 359.71,-465.24 360.9,-475.77 367.21,-472.73"/>
</g>
<!-- comL -->
<g id="node4" class="node">
<title>comL</title>
<text text-anchor="start" x="433" y="-450.8" font-family="Times New Roman,serif" font-weight="bold" font-size="14.00">Latin</text>
<text text-anchor="start" x="434.5" y="-436.8" font-family="Times New Roman,serif" font-size="14.00" fill="red">com&#45;</text>
<text text-anchor="start" x="418.5" y="-424.4" font-family="Times New Roman,serif" font-size="12.00">with, together</text>
</g>
<!-- kom&#45;&gt;comL -->
<g id="edge3" class="edge">
<title>kom&#45;&gt;comL</title>
<path fill="none" stroke="black" d="M485.5,-726C485.5,-726 473.76,-686.46 468.5,-654 458.33,-591.25 453.25,-517.1 451.01,-475.21"/>
<polygon fill="black" stroke="black" points="454.5,-474.84 450.49,-465.03 447.51,-475.2 454.5,-474.84"/>
</g>
<!-- ko -->
<g id="node5" class="node">
<title>ko</title>
<text text-anchor="start" x="499" y="-625.8" font-family="Times New Roman,serif" font-size="14.00" fill="red">ko&#45;</text>
<text text-anchor="start" x="485.5" y="-613.4" font-family="Times New Roman,serif" font-size="12.00">(collective</text>
<text text-anchor="start" x="493.5" y="-601.4" font-family="Times New Roman,serif" font-size="12.00">prefix)</text>
</g>
<!-- kom&#45;&gt;ko -->
<g id="edge4" class="edge">
<title>kom&#45;&gt;ko</title>
<path fill="none" stroke="black" d="M485.5,-726C485.5,-726 494.91,-681.8 501.7,-649.95"/>
<polygon fill="black" stroke="black" points="505.13,-650.63 503.79,-640.12 498.28,-649.17 505.13,-650.63"/>
</g>
<!-- komtra -->
<g id="node6" class="node">
<title>komtra</title>
<text text-anchor="start" x="681" y="-522.3" font-family="Times New Roman,serif" font-size="14.00" fill="red">kom&#45;trā&#45;</text>
</g>
<!-- kom&#45;&gt;komtra -->
<g id="edge5" class="edge">
<title>kom&#45;&gt;komtra</title>
<path fill="none" stroke="black" d="M485.5,-726C485.5,-726 588.21,-707.84 643.5,-654 672.31,-625.95 689.64,-581.77 698.38,-553.61"/>
<polygon fill="black" stroke="black" points="701.74,-554.59 701.22,-544.01 695.03,-552.61 701.74,-554.59"/>
</g>
<!-- komyo -->
<g id="node7" class="node">
<title>komyo</title>
<text text-anchor="start" x="941" y="-522.3" font-family="Times New Roman,serif" font-size="14.00" fill="red">kom&#45;yo&#45;</text>
</g>
<!-- kom&#45;&gt;komyo -->
<g id="edge6" class="edge">
<title>kom&#45;&gt;komyo</title>
<path fill="none" stroke="black" d="M485.5,-726C485.5,-726 552.83,-710.23 604.5,-691 722.87,-646.95 857,-581.8 923.5,-548.42"/>
<polygon fill="black" stroke="black" points="925.45,-551.36 932.81,-543.74 922.3,-545.11 925.45,-551.36"/>
</g>
<!-- geOE -->
<g id="node10" class="node">
<title>geOE</title>
<text text-anchor="start" x="115" y="-347.8" font-family="Times New Roman,serif" font-weight="bold" font-size="14.00">Old English</text>
<text text-anchor="start" x="142.5" y="-333.8" font-family="Times New Roman,serif" font-size="14.00" fill="red">ge&#45;</text>
</g>
<!-- gaGm&#45;&gt;geOE -->
<g id="edge9" class="edge">
<title>gaGm&#45;&gt;geOE</title>
<path fill="none" stroke="black" d="M166.56,-416.52C163.74,-403.12 160.19,-386.26 157.24,-372.28"/>
<polygon fill="black" stroke="black" points="160.62,-371.31 155.13,-362.25 153.77,-372.76 160.62,-371.31"/>
</g>
<!-- cum -->
<g id="node20" class="node">
<title>cum</title>
<text text-anchor="start" x="300" y="-56.8" font-family="Times New Roman,serif" font-weight="bold" font-size="14.00">Modern</text>
<text text-anchor="start" x="301.5" y="-42.8" font-family="Times New Roman,serif" font-weight="bold" font-size="14.00">English</text>
<text text-anchor="start" x="312" y="-28.8" font-family="Times New Roman,serif" font-size="14.00" fill="red">cum</text>
</g>
<!-- cumL&#45;&gt;cum -->
<g id="edge19" class="edge">
<title>cumL&#45;&gt;cum</title>
<path fill="none" stroke="black" stroke-dasharray="1,5" d="M347.09,-416.88C343.04,-350.65 331.39,-159.9 326.6,-81.39"/>
<polygon fill="black" stroke="black" points="330.07,-80.85 325.97,-71.08 323.09,-81.28 330.07,-80.85"/>
</g>
<!-- comME -->
<g id="node21" class="node">
<title>comME</title>
<text text-anchor="start" x="380" y="-170.8" font-family="Times New Roman,serif" font-weight="bold" font-size="14.00">Middle</text>
<text text-anchor="start" x="378.5" y="-156.8" font-family="Times New Roman,serif" font-weight="bold" font-size="14.00">English</text>
<text text-anchor="start" x="386.5" y="-142.8" font-family="Times New Roman,serif" font-size="14.00" fill="red">com&#45;</text>
</g>
<!-- comL&#45;&gt;comME -->
<g id="edge20" class="edge">
<title>comL&#45;&gt;comME</title>
<path fill="none" stroke="black" stroke-dasharray="1,5" d="M447.5,-416C447.5,-416 422.15,-396.41 413.5,-374 390.52,-314.47 393.04,-238.59 397.14,-195.33"/>
<polygon fill="black" stroke="black" points="400.63,-195.63 398.17,-185.32 393.66,-194.91 400.63,-195.63"/>
</g>
<!-- coL -->
<g id="node23" class="node">
<title>coL</title>
<text text-anchor="start" x="440" y="-340.3" font-family="Times New Roman,serif" font-size="14.00" fill="red">co&#45;</text>
</g>
<!-- comL&#45;&gt;coL -->
<g id="edge22" class="edge">
<title>comL&#45;&gt;coL</title>
<path fill="none" stroke="black" d="M447.5,-416C447.5,-416 448.16,-392.43 448.73,-372.45"/>
<polygon fill="black" stroke="black" points="452.23,-372.28 449.02,-362.19 445.24,-372.08 452.23,-372.28"/>
</g>
<!-- koghrti -->
<g id="node9" class="node">
<title>koghrti</title>
<text text-anchor="start" x="522" y="-522.3" font-family="Times New Roman,serif" font-size="14.00" fill="red">ko&#45;ghr̥&#45;ti&#45;</text>
</g>
<!-- ko&#45;&gt;koghrti -->
<g id="edge7" class="edge">
<title>ko&#45;&gt;koghrti</title>
<path fill="none" stroke="black" d="M521.25,-593.92C529.05,-580.41 538.61,-563.85 544.37,-553.88"/>
<polygon fill="black" stroke="black" points="547.53,-555.41 549.5,-545 541.47,-551.91 547.53,-555.41"/>
</g>
<!-- contraL -->
<g id="node26" class="node">
<title>contraL</title>
<text text-anchor="start" x="743" y="-450.8" font-family="Times New Roman,serif" font-weight="bold" font-size="14.00">Latin</text>
<text text-anchor="start" x="739.5" y="-436.8" font-family="Times New Roman,serif" font-size="14.00" fill="red">contrā&#45;</text>
<text text-anchor="start" x="744" y="-424.4" font-family="Times New Roman,serif" font-size="12.00">against</text>
</g>
<!-- komtra&#45;&gt;contraL -->
<g id="edge25" class="edge">
<title>komtra&#45;&gt;contraL</title>
<path fill="none" stroke="black" d="M716.69,-507.8C723.09,-497.96 731.32,-485.31 738.85,-473.74"/>
<polygon fill="black" stroke="black" points="741.91,-475.45 744.43,-465.16 736.05,-471.63 741.91,-475.45"/>
</g>
<!-- koinosG -->
<g id="node43" class="node">
<title>koinosG</title>
<text text-anchor="start" x="1142.5" y="-457.8" font-family="Times New Roman,serif" font-weight="bold" font-size="14.00">Greek</text>
<text text-anchor="start" x="1141.5" y="-443.8" font-family="Times New Roman,serif" font-size="14.00" fill="red">koinos,</text>
<text text-anchor="start" x="1144" y="-429.8" font-family="Times New Roman,serif" font-size="14.00" fill="red">koino&#45;</text>
<text text-anchor="start" x="1142.5" y="-417.4" font-family="Times New Roman,serif" font-size="12.00">common</text>
</g>
<!-- komyo&#45;&gt;koinosG -->
<g id="edge42" class="edge">
<title>komyo&#45;&gt;koinosG</title>
<path fill="none" stroke="black" d="M998.03,-511.29C1032.64,-496.71 1087.36,-473.66 1124.07,-458.19"/>
<polygon fill="black" stroke="black" points="1125.6,-461.35 1133.46,-454.24 1122.88,-454.89 1125.6,-461.35"/>
</g>
<!-- gherIE -->
<g id="node8" class="node">
<title>gherIE</title>
<g id="a_node8"><a xlink:href="gher-grasp2.svg" xlink:title="&lt;b&gt;Indo&#45;&lt;br/&gt;European&lt;/b&gt;&lt;br/&gt;&lt;font color=&quot;red&quot;&gt;gher&lt;/font&gt;&lt;br/&gt;&lt;font point&#45;size=&quot;12&quot;&gt;to grasp&lt;br/&gt;enclose&lt;/font&gt;">
<path fill="none" stroke="black" stroke-dasharray="5,2" d="M623,-654C623,-654 570,-654 570,-654 564,-654 558,-648 558,-642 558,-642 558,-592 558,-592 558,-586 564,-580 570,-580 570,-580 623,-580 623,-580 629,-580 635,-586 635,-592 635,-592 635,-642 635,-642 635,-648 629,-654 623,-654"/>
<text text-anchor="start" x="580" y="-639.8" font-family="Times New Roman,serif" font-weight="bold" font-size="14.00">Indo&#45;</text>
<text text-anchor="start" x="566" y="-625.8" font-family="Times New Roman,serif" font-weight="bold" font-size="14.00">European</text>
<text text-anchor="start" x="584" y="-611.8" font-family="Times New Roman,serif" font-size="14.00" fill="red">gher</text>
<text text-anchor="start" x="578" y="-599.4" font-family="Times New Roman,serif" font-size="12.00">to grasp</text>
<text text-anchor="start" x="579.5" y="-587.4" font-family="Times New Roman,serif" font-size="12.00">enclose</text>
</a>
</g>
</g>
<!-- gherIE&#45;&gt;koghrti -->
<g id="edge8" class="edge">
<title>gherIE&#45;&gt;koghrti</title>
<path fill="none" stroke="black" d="M572.45,-579.67C565.94,-569.84 559.5,-560.1 555.1,-553.46"/>
<polygon fill="black" stroke="black" points="557.94,-551.41 549.5,-545 552.1,-555.27 557.94,-551.41"/>
</g>
<!-- cohorsL -->
<g id="node48" class="node">
<title>cohorsL</title>
<g id="a_node48"><a xlink:href="gher-grasp2.svg" xlink:title="&lt;b&gt;Latin&lt;/b&gt;&lt;br/&gt;&lt;font color=&quot;red&quot;&gt;cohors, cohort&#45;&lt;/font&gt;&lt;br/&gt;&lt;font point&#45;size=&quot;12&quot;&gt;enclosed yard,&lt;br/&gt;company of soldiers&lt;/font&gt;">
<path fill="none" stroke="black" stroke-dasharray="5,2" d="M590,-374C590,-374 507,-374 507,-374 501,-374 495,-368 495,-362 495,-362 495,-326 495,-326 495,-320 501,-314 507,-314 507,-314 590,-314 590,-314 596,-314 602,-320 602,-326 602,-326 602,-362 602,-362 602,-368 596,-374 590,-374"/>
<text text-anchor="start" x="532" y="-359.8" font-family="Times New Roman,serif" font-weight="bold" font-size="14.00">Latin</text>
<text text-anchor="start" x="504.5" y="-345.8" font-family="Times New Roman,serif" font-size="14.00" fill="red">cohors, cohort&#45;</text>
<text text-anchor="start" x="515" y="-333.4" font-family="Times New Roman,serif" font-size="12.00">enclosed yard,</text>
<text text-anchor="start" x="503" y="-321.4" font-family="Times New Roman,serif" font-size="12.00">company of soldiers</text>
</a>
</g>
</g>
<!-- koghrti&#45;&gt;cohorsL -->
<g id="edge47" class="edge">
<title>koghrti&#45;&gt;cohorsL</title>
<path fill="none" stroke="black" d="M548.5,-507.74C548.5,-479.59 548.5,-423.08 548.5,-384.64"/>
<polygon fill="black" stroke="black" points="552,-384.32 548.5,-374.32 545,-384.32 552,-384.32"/>
</g>
<!-- genogOE -->
<g id="node11" class="node">
<title>genogOE</title>
<text text-anchor="start" x="86.5" y="-255.8" font-family="Times New Roman,serif" font-size="14.00" fill="red">genōg</text>
<text text-anchor="start" x="87" y="-243.4" font-family="Times New Roman,serif" font-size="12.00">enough</text>
</g>
<!-- geOE&#45;&gt;genogOE -->
<g id="edge10" class="edge">
<title>geOE&#45;&gt;genogOE</title>
<path fill="none" stroke="black" d="M151.5,-325C151.5,-325 134.52,-299.89 120.76,-279.53"/>
<polygon fill="black" stroke="black" points="123.62,-277.51 115.12,-271.19 117.82,-281.43 123.62,-277.51"/>
</g>
<!-- weorcOE -->
<g id="node14" class="node">
<title>weorcOE</title>
<text text-anchor="start" x="222" y="-353.8" font-family="Times New Roman,serif" font-weight="bold" font-size="14.00">Old English</text>
<text text-anchor="start" x="241" y="-339.8" font-family="Times New Roman,serif" font-size="14.00" fill="red">weorc</text>
<text text-anchor="start" x="246" y="-327.4" font-family="Times New Roman,serif" font-size="12.00">work</text>
</g>
<!-- geOE&#45;&gt;weorcOE -->
<!-- handgeweorc -->
<g id="node16" class="node">
<title>handgeweorc</title>
<text text-anchor="start" x="157" y="-249.3" font-family="Times New Roman,serif" font-size="14.00" fill="red">handgeweorc</text>
</g>
<!-- geOE&#45;&gt;handgeweorc -->
<g id="edge13" class="edge">
<title>geOE&#45;&gt;handgeweorc</title>
<path fill="none" stroke="black" d="M151.5,-325C151.5,-325 172.31,-295.19 182.72,-280.28"/>
<polygon fill="black" stroke="black" points="185.65,-282.2 188.5,-272 179.91,-278.2 185.65,-282.2"/>
</g>
<!-- enoghME -->
<g id="node12" class="node">
<title>enoghME</title>
<text text-anchor="start" x="82" y="-170.8" font-family="Times New Roman,serif" font-weight="bold" font-size="14.00">Middle</text>
<text text-anchor="start" x="80.5" y="-156.8" font-family="Times New Roman,serif" font-weight="bold" font-size="14.00">English</text>
<text text-anchor="start" x="86.5" y="-142.8" font-family="Times New Roman,serif" font-size="14.00" fill="red">enogh</text>
</g>
<!-- genogOE&#45;&gt;enoghME -->
<g id="edge11" class="edge">
<title>genogOE&#45;&gt;enoghME</title>
<path fill="none" stroke="black" d="M103.5,-234.88C103.5,-223.83 103.5,-209.06 103.5,-195.64"/>
<polygon fill="black" stroke="black" points="107,-195.25 103.5,-185.25 100,-195.25 107,-195.25"/>
</g>
<!-- enough -->
<g id="node13" class="node">
<title>enough</title>
<text text-anchor="start" x="79" y="-56.8" font-family="Times New Roman,serif" font-weight="bold" font-size="14.00">Modern</text>
<text text-anchor="start" x="80.5" y="-42.8" font-family="Times New Roman,serif" font-weight="bold" font-size="14.00">English</text>
<text text-anchor="start" x="83" y="-28.8" font-family="Times New Roman,serif" font-size="14.00" fill="red">enough</text>
</g>
<!-- enoghME&#45;&gt;enough -->
<g id="edge12" class="edge">
<title>enoghME&#45;&gt;enough</title>
<path fill="none" stroke="black" d="M103.5,-134.97C103.5,-119.43 103.5,-98.95 103.5,-81.65"/>
<polygon fill="black" stroke="black" points="107,-81.37 103.5,-71.37 100,-81.37 107,-81.37"/>
</g>
<!-- weorcOE&#45;&gt;handgeweorc -->
<g id="edge14" class="edge">
<title>weorcOE&#45;&gt;handgeweorc</title>
<path fill="none" stroke="black" d="M235.58,-319.75C221.7,-305.68 204.94,-288.68 195.63,-279.23"/>
<polygon fill="black" stroke="black" points="198.01,-276.66 188.5,-272 193.03,-281.58 198.01,-276.66"/>
</g>
<!-- handOE -->
<g id="node15" class="node">
<title>handOE</title>
<text text-anchor="start" x="8" y="-353.8" font-family="Times New Roman,serif" font-weight="bold" font-size="14.00">Old English</text>
<text text-anchor="start" x="30.5" y="-339.8" font-family="Times New Roman,serif" font-size="14.00" fill="red">hand</text>
<text text-anchor="start" x="33.5" y="-327.4" font-family="Times New Roman,serif" font-size="12.00">hand</text>
</g>
<!-- handOE&#45;&gt;geOE -->
<!-- handOE&#45;&gt;handgeweorc -->
<g id="edge15" class="edge">
<title>handOE&#45;&gt;handgeweorc</title>
<path fill="none" stroke="black" d="M86.02,-319.93C89.88,-317.89 93.75,-315.89 97.5,-314 126.87,-299.21 162.47,-283.36 179.1,-276.09"/>
<polygon fill="black" stroke="black" points="180.72,-279.2 188.5,-272 177.93,-272.78 180.72,-279.2"/>
</g>
<!-- handiwerkME -->
<g id="node17" class="node">
<title>handiwerkME</title>
<text text-anchor="start" x="173" y="-170.8" font-family="Times New Roman,serif" font-weight="bold" font-size="14.00">Middle</text>
<text text-anchor="start" x="171.5" y="-156.8" font-family="Times New Roman,serif" font-weight="bold" font-size="14.00">English</text>
<text text-anchor="start" x="165.5" y="-142.8" font-family="Times New Roman,serif" font-size="14.00" fill="red">handiwerk</text>
</g>
<!-- handgeweorc&#45;&gt;handiwerkME -->
<g id="edge16" class="edge">
<title>handgeweorc&#45;&gt;handiwerkME</title>
<path fill="none" stroke="black" d="M194.5,-234.88C194.5,-223.83 194.5,-209.06 194.5,-195.64"/>
<polygon fill="black" stroke="black" points="198,-195.25 194.5,-185.25 191,-195.25 198,-195.25"/>
</g>
<!-- handiwork -->
<g id="node18" class="node">
<title>handiwork</title>
<text text-anchor="start" x="170" y="-56.8" font-family="Times New Roman,serif" font-weight="bold" font-size="14.00">Modern</text>
<text text-anchor="start" x="171.5" y="-42.8" font-family="Times New Roman,serif" font-weight="bold" font-size="14.00">English</text>
<text text-anchor="start" x="165" y="-28.8" font-family="Times New Roman,serif" font-size="14.00" fill="red">handiwork</text>
</g>
<!-- handiwerkME&#45;&gt;handiwork -->
<g id="edge17" class="edge">
<title>handiwerkME&#45;&gt;handiwork</title>
<path fill="none" stroke="black" d="M194.5,-134.97C194.5,-119.43 194.5,-98.95 194.5,-81.65"/>
<polygon fill="black" stroke="black" points="198,-81.37 194.5,-71.37 191,-81.37 198,-81.37"/>
</g>
<!-- wergIE -->
<g id="node19" class="node">
<title>wergIE</title>
<g id="a_node19"><a xlink:href="werg-do.svg" xlink:title="&lt;b&gt;Indo&#45;&lt;br/&gt;European&lt;/b&gt;&lt;br/&gt;&lt;font color=&quot;red&quot;&gt;werg&#45;&lt;/font&gt;&lt;br/&gt;&lt;font point&#45;size=&quot;12&quot;&gt;to do&lt;/font&gt;">
<path fill="none" stroke="black" stroke-dasharray="5,2" d="M285,-648C285,-648 232,-648 232,-648 226,-648 220,-642 220,-636 220,-636 220,-598 220,-598 220,-592 226,-586 232,-586 232,-586 285,-586 285,-586 291,-586 297,-592 297,-598 297,-598 297,-636 297,-636 297,-642 291,-648 285,-648"/>
<text text-anchor="start" x="242" y="-633.8" font-family="Times New Roman,serif" font-weight="bold" font-size="14.00">Indo&#45;</text>
<text text-anchor="start" x="228" y="-619.8" font-family="Times New Roman,serif" font-weight="bold" font-size="14.00">European</text>
<text text-anchor="start" x="242.5" y="-605.8" font-family="Times New Roman,serif" font-size="14.00" fill="red">werg&#45;</text>
<text text-anchor="start" x="246" y="-593.4" font-family="Times New Roman,serif" font-size="12.00">to do</text>
</a>
</g>
</g>
<!-- wergIE&#45;&gt;weorcOE -->
<g id="edge18" class="edge">
<title>wergIE&#45;&gt;weorcOE</title>
<path fill="none" stroke="black" d="M258.5,-585.96C258.5,-534.91 258.5,-431.58 258.5,-378.35"/>
<polygon fill="black" stroke="black" points="262,-378.1 258.5,-368.1 255,-378.1 262,-378.1"/>
</g>
<!-- com -->
<g id="node22" class="node">
<title>com</title>
<text text-anchor="start" x="383" y="-77.8" font-family="Times New Roman,serif" font-weight="bold" font-size="14.00">Modern</text>
<text text-anchor="start" x="384.5" y="-63.8" font-family="Times New Roman,serif" font-weight="bold" font-size="14.00">English</text>
<text text-anchor="start" x="392.5" y="-49.8" font-family="Times New Roman,serif" font-size="14.00" fill="red">com&#45;</text>
<text text-anchor="start" x="394.5" y="-35.8" font-family="Times New Roman,serif" font-size="14.00" fill="red">con&#45;</text>
<text text-anchor="start" x="396.5" y="-21.8" font-family="Times New Roman,serif" font-size="14.00" fill="red">col&#45;</text>
<text text-anchor="start" x="395.5" y="-7.8" font-family="Times New Roman,serif" font-size="14.00" fill="red">cor&#45;</text>
</g>
<!-- comME&#45;&gt;com -->
<g id="edge21" class="edge">
<title>comME&#45;&gt;com</title>
<path fill="none" stroke="black" d="M402.79,-134.97C403.3,-125.33 403.92,-113.78 404.54,-102.28"/>
<polygon fill="black" stroke="black" points="408.04,-102.4 405.08,-92.22 401.05,-102.02 408.04,-102.4"/>
</g>
<!-- coME -->
<g id="node24" class="node">
<title>coME</title>
<text text-anchor="start" x="468" y="-170.8" font-family="Times New Roman,serif" font-weight="bold" font-size="14.00">Middle</text>
<text text-anchor="start" x="466.5" y="-156.8" font-family="Times New Roman,serif" font-weight="bold" font-size="14.00">English</text>
<text text-anchor="start" x="480" y="-142.8" font-family="Times New Roman,serif" font-size="14.00" fill="red">co&#45;</text>
</g>
<!-- coL&#45;&gt;coME -->
<g id="edge23" class="edge">
<title>coL&#45;&gt;coME</title>
<path fill="none" stroke="black" stroke-dasharray="1,5" d="M453.26,-325.88C459.83,-295.99 473.51,-233.76 482.05,-194.89"/>
<polygon fill="black" stroke="black" points="485.48,-195.58 484.21,-185.06 478.65,-194.08 485.48,-195.58"/>
</g>
<!-- co -->
<g id="node25" class="node">
<title>co</title>
<text text-anchor="start" x="466" y="-56.8" font-family="Times New Roman,serif" font-weight="bold" font-size="14.00">Modern</text>
<text text-anchor="start" x="467.5" y="-42.8" font-family="Times New Roman,serif" font-weight="bold" font-size="14.00">English</text>
<text text-anchor="start" x="481" y="-28.8" font-family="Times New Roman,serif" font-size="14.00" fill="red">co&#45;</text>
</g>
<!-- coME&#45;&gt;co -->
<g id="edge24" class="edge">
<title>coME&#45;&gt;co</title>
<path fill="none" stroke="black" d="M489.71,-134.97C489.85,-119.43 490.04,-98.95 490.19,-81.65"/>
<polygon fill="black" stroke="black" points="493.69,-81.4 490.28,-71.37 486.69,-81.34 493.69,-81.4"/>
</g>
<!-- contra1ME -->
<g id="node27" class="node">
<title>contra1ME</title>
<text text-anchor="start" x="855" y="-170.8" font-family="Times New Roman,serif" font-weight="bold" font-size="14.00">Middle</text>
<text text-anchor="start" x="853.5" y="-156.8" font-family="Times New Roman,serif" font-weight="bold" font-size="14.00">English</text>
<text text-anchor="start" x="856.5" y="-142.8" font-family="Times New Roman,serif" font-size="14.00" fill="red">contra&#45;</text>
</g>
<!-- contraL&#45;&gt;contra1ME -->
<g id="edge26" class="edge">
<title>contraL&#45;&gt;contra1ME</title>
<path fill="none" stroke="black" stroke-dasharray="1,5" d="M761.5,-416C761.5,-416 829.52,-411.46 856.5,-374 894.66,-321.01 889.84,-240.35 883.07,-195.01"/>
<polygon fill="black" stroke="black" points="886.52,-194.41 881.48,-185.09 879.61,-195.52 886.52,-194.41"/>
</g>
<!-- contra2I -->
<g id="node29" class="node">
<title>contra2I</title>
<text text-anchor="start" x="981.5" y="-169.8" font-family="Times New Roman,serif" font-weight="bold" font-size="14.00">Italian</text>
<text text-anchor="start" x="981.5" y="-155.8" font-family="Times New Roman,serif" font-size="14.00" fill="red">contra&#45;</text>
<text text-anchor="start" x="964.5" y="-143.4" font-family="Times New Roman,serif" font-size="12.00">lower in pitch(?)</text>
</g>
<!-- contraL&#45;&gt;contra2I -->
<g id="edge27" class="edge">
<title>contraL&#45;&gt;contra2I</title>
<path fill="none" stroke="black" d="M761.5,-416C761.5,-416 839.57,-410.86 883.5,-374 941.57,-325.26 976.19,-240.28 991.72,-193.75"/>
<polygon fill="black" stroke="black" points="995.07,-194.75 994.83,-184.16 988.41,-192.59 995.07,-194.75"/>
</g>
<!-- contrariusL -->
<g id="node32" class="node">
<title>contrariusL</title>
<text text-anchor="start" x="628.5" y="-340.3" font-family="Times New Roman,serif" font-size="14.00" fill="red">contrārius</text>
</g>
<!-- contraL&#45;&gt;contrariusL -->
<g id="edge31" class="edge">
<title>contraL&#45;&gt;contrariusL</title>
<path fill="none" stroke="black" d="M761.5,-416C761.5,-416 720.74,-388.44 690.01,-367.66"/>
<polygon fill="black" stroke="black" points="691.89,-364.71 681.65,-362.01 687.97,-370.51 691.89,-364.71"/>
</g>
<!-- contreOF -->
<g id="node36" class="node">
<title>contreOF</title>
<text text-anchor="start" x="659.5" y="-263.8" font-family="Times New Roman,serif" font-weight="bold" font-size="14.00">Old French</text>
<text text-anchor="start" x="674.5" y="-249.8" font-family="Times New Roman,serif" font-size="14.00" fill="red">contre&#45;</text>
<text text-anchor="start" x="676.5" y="-235.8" font-family="Times New Roman,serif" font-size="14.00" fill="red">contre</text>
</g>
<!-- contraL&#45;&gt;contreOF -->
<g id="edge35" class="edge">
<title>contraL&#45;&gt;contreOF</title>
<path fill="none" stroke="black" d="M761.5,-416C761.5,-416 748.1,-393.24 739.5,-374 726.72,-345.44 714.4,-312.05 705.9,-287.75"/>
<polygon fill="black" stroke="black" points="709.19,-286.56 702.61,-278.26 702.58,-288.85 709.19,-286.56"/>
</g>
<!-- contrataL -->
<g id="node39" class="node">
<title>contrataL</title>
<text text-anchor="start" x="757" y="-346.8" font-family="Times New Roman,serif" font-size="14.00" fill="red">(terra) contrāta</text>
<text text-anchor="start" x="764" y="-334.4" font-family="Times New Roman,serif" font-size="12.00">(land) opposite</text>
</g>
<!-- contraL&#45;&gt;contrataL -->
<g id="edge38" class="edge">
<title>contraL&#45;&gt;contrataL</title>
<path fill="none" stroke="black" d="M761.5,-416C761.5,-416 774.35,-391.33 784.91,-371.08"/>
<polygon fill="black" stroke="black" points="788.03,-372.67 789.54,-362.19 781.82,-369.44 788.03,-372.67"/>
</g>
<!-- contra1 -->
<g id="node28" class="node">
<title>contra1</title>
<text text-anchor="start" x="930" y="-68.8" font-family="Times New Roman,serif" font-weight="bold" font-size="14.00">Modern</text>
<text text-anchor="start" x="931.5" y="-54.8" font-family="Times New Roman,serif" font-weight="bold" font-size="14.00">English</text>
<text text-anchor="start" x="934.5" y="-40.8" font-family="Times New Roman,serif" font-size="14.00" fill="red">contra&#45;</text>
<text text-anchor="start" x="937.5" y="-28.4" font-family="Times New Roman,serif" font-size="12.00">against,</text>
<text text-anchor="start" x="934.5" y="-16.4" font-family="Times New Roman,serif" font-size="12.00">opposite</text>
</g>
<!-- contra1ME&#45;&gt;contra1 -->
<g id="edge28" class="edge">
<title>contra1ME&#45;&gt;contra1</title>
<path fill="none" stroke="black" d="M883.5,-134C883.5,-134 900.95,-112.62 918.55,-91.05"/>
<polygon fill="black" stroke="black" points="921.4,-93.1 925.01,-83.14 915.97,-88.67 921.4,-93.1"/>
</g>
<!-- con -->
<g id="node31" class="node">
<title>con</title>
<text text-anchor="start" x="844" y="-68.8" font-family="Times New Roman,serif" font-weight="bold" font-size="14.00">Modern</text>
<text text-anchor="start" x="845.5" y="-54.8" font-family="Times New Roman,serif" font-weight="bold" font-size="14.00">English</text>
<text text-anchor="start" x="857.5" y="-40.8" font-family="Times New Roman,serif" font-size="14.00" fill="red">con</text>
<text text-anchor="start" x="841" y="-28.4" font-family="Times New Roman,serif" font-size="12.00">an argument</text>
<text text-anchor="start" x="853" y="-16.4" font-family="Times New Roman,serif" font-size="12.00">against</text>
</g>
<!-- contra1ME&#45;&gt;con -->
<g id="edge29" class="edge">
<title>contra1ME&#45;&gt;con</title>
<path fill="none" stroke="black" d="M883.5,-134C883.5,-134 880.04,-113.91 876.44,-93.04"/>
<polygon fill="black" stroke="black" points="879.88,-92.4 874.73,-83.14 872.98,-93.59 879.88,-92.4"/>
</g>
<!-- contra2 -->
<g id="node30" class="node">
<title>contra2</title>
<text text-anchor="start" x="1013" y="-62.8" font-family="Times New Roman,serif" font-weight="bold" font-size="14.00">Modern</text>
<text text-anchor="start" x="1014.5" y="-48.8" font-family="Times New Roman,serif" font-weight="bold" font-size="14.00">English</text>
<text text-anchor="start" x="1017.5" y="-34.8" font-family="Times New Roman,serif" font-size="14.00" fill="red">contra&#45;</text>
<text text-anchor="start" x="1020.5" y="-22.4" font-family="Times New Roman,serif" font-size="12.00">(music)</text>
</g>
<!-- contra2I&#45;&gt;contra2 -->
<g id="edge30" class="edge">
<title>contra2I&#45;&gt;contra2</title>
<path fill="none" stroke="black" stroke-dasharray="1,5" d="M1008.96,-135.79C1013.46,-121.79 1019.32,-103.55 1024.56,-87.25"/>
<polygon fill="black" stroke="black" points="1028,-88 1027.73,-77.41 1021.33,-85.86 1028,-88"/>
</g>
<!-- contrarieAN -->
<g id="node33" class="node">
<title>contrarieAN</title>
<text text-anchor="start" x="534" y="-256.8" font-family="Times New Roman,serif" font-weight="bold" font-size="14.00">Anglo&#45;Norman</text>
<text text-anchor="start" x="555" y="-242.8" font-family="Times New Roman,serif" font-size="14.00" fill="red">contrarie</text>
</g>
<!-- contrariusL&#45;&gt;contrarieAN -->
<g id="edge32" class="edge">
<title>contrariusL&#45;&gt;contrarieAN</title>
<path fill="none" stroke="black" d="M641.65,-325.84C630.15,-312.54 614.04,-293.93 601.11,-278.98"/>
<polygon fill="black" stroke="black" points="603.49,-276.38 594.3,-271.11 598.2,-280.96 603.49,-276.38"/>
</g>
<!-- contrarieME -->
<g id="node34" class="node">
<title>contrarieME</title>
<text text-anchor="start" x="558" y="-170.8" font-family="Times New Roman,serif" font-weight="bold" font-size="14.00">Middle</text>
<text text-anchor="start" x="556.5" y="-156.8" font-family="Times New Roman,serif" font-weight="bold" font-size="14.00">English</text>
<text text-anchor="start" x="555" y="-142.8" font-family="Times New Roman,serif" font-size="14.00" fill="red">contrarie</text>
</g>
<!-- contrarieAN&#45;&gt;contrarieME -->
<g id="edge33" class="edge">
<title>contrarieAN&#45;&gt;contrarieME</title>
<path fill="none" stroke="black" stroke-dasharray="1,5" d="M579.5,-234.88C579.5,-223.83 579.5,-209.06 579.5,-195.64"/>
<polygon fill="black" stroke="black" points="583,-195.25 579.5,-185.25 576,-195.25 583,-195.25"/>
</g>
<!-- contrary -->
<g id="node35" class="node">
<title>contrary</title>
<text text-anchor="start" x="555" y="-56.8" font-family="Times New Roman,serif" font-weight="bold" font-size="14.00">Modern</text>
<text text-anchor="start" x="556.5" y="-42.8" font-family="Times New Roman,serif" font-weight="bold" font-size="14.00">English</text>
<text text-anchor="start" x="556" y="-28.8" font-family="Times New Roman,serif" font-size="14.00" fill="red">contrary</text>
</g>
<!-- contrarieME&#45;&gt;contrary -->
<g id="edge34" class="edge">
<title>contrarieME&#45;&gt;contrary</title>
<path fill="none" stroke="black" d="M579.5,-134.97C579.5,-119.43 579.5,-98.95 579.5,-81.65"/>
<polygon fill="black" stroke="black" points="583,-81.37 579.5,-71.37 576,-81.37 583,-81.37"/>
</g>
<!-- countre1ME -->
<g id="node37" class="node">
<title>countre1ME</title>
<text text-anchor="start" x="668" y="-177.8" font-family="Times New Roman,serif" font-weight="bold" font-size="14.00">Middle</text>
<text text-anchor="start" x="666.5" y="-163.8" font-family="Times New Roman,serif" font-weight="bold" font-size="14.00">English</text>
<text text-anchor="start" x="666" y="-149.8" font-family="Times New Roman,serif" font-size="14.00" fill="red">countre&#45;</text>
<text text-anchor="start" x="668" y="-135.8" font-family="Times New Roman,serif" font-size="14.00" fill="red">countre</text>
</g>
<!-- contreOF&#45;&gt;countre1ME -->
<g id="edge36" class="edge">
<title>contreOF&#45;&gt;countre1ME</title>
<path fill="none" stroke="black" stroke-dasharray="1,5" d="M693.16,-227.61C692.73,-219.82 692.25,-210.96 691.77,-202.31"/>
<polygon fill="black" stroke="black" points="695.26,-202.11 691.22,-192.32 688.27,-202.5 695.26,-202.11"/>
</g>
<!-- counter -->
<g id="node38" class="node">
<title>counter</title>
<text text-anchor="start" x="660" y="-75.8" font-family="Times New Roman,serif" font-weight="bold" font-size="14.00">Modern</text>
<text text-anchor="start" x="661.5" y="-61.8" font-family="Times New Roman,serif" font-weight="bold" font-size="14.00">English</text>
<text text-anchor="start" x="661" y="-47.8" font-family="Times New Roman,serif" font-size="14.00" fill="red">counter&#45;</text>
<text text-anchor="start" x="663" y="-33.8" font-family="Times New Roman,serif" font-size="14.00" fill="red">counter</text>
<text text-anchor="start" x="662.5" y="-21.4" font-family="Times New Roman,serif" font-size="12.00">(verb and</text>
<text text-anchor="start" x="645" y="-9.4" font-family="Times New Roman,serif" font-size="12.00">related meanings)</text>
</g>
<!-- countre1ME&#45;&gt;counter -->
<g id="edge37" class="edge">
<title>countre1ME&#45;&gt;counter</title>
<path fill="none" stroke="black" d="M688.11,-127.8C687.73,-119.25 687.3,-109.72 686.88,-100.3"/>
<polygon fill="black" stroke="black" points="690.37,-100 686.43,-90.17 683.38,-100.31 690.37,-100"/>
</g>
<!-- contreeOF -->
<g id="node40" class="node">
<title>contreeOF</title>
<text text-anchor="start" x="763.5" y="-256.8" font-family="Times New Roman,serif" font-weight="bold" font-size="14.00">Old French</text>
<text text-anchor="start" x="777.5" y="-242.8" font-family="Times New Roman,serif" font-size="14.00" fill="red">contree</text>
</g>
<!-- contrataL&#45;&gt;contreeOF -->
<g id="edge39" class="edge">
<title>contrataL&#45;&gt;contreeOF</title>
<path fill="none" stroke="black" d="M798.5,-325.84C798.5,-313.28 798.5,-295.98 798.5,-281.5"/>
<polygon fill="black" stroke="black" points="802,-281.11 798.5,-271.11 795,-281.11 802,-281.11"/>
</g>
<!-- countre2ME -->
<g id="node41" class="node">
<title>countre2ME</title>
<text text-anchor="start" x="768" y="-170.8" font-family="Times New Roman,serif" font-weight="bold" font-size="14.00">Middle</text>
<text text-anchor="start" x="766.5" y="-156.8" font-family="Times New Roman,serif" font-weight="bold" font-size="14.00">English</text>
<text text-anchor="start" x="768" y="-142.8" font-family="Times New Roman,serif" font-size="14.00" fill="red">countre</text>
</g>
<!-- contreeOF&#45;&gt;countre2ME -->
<g id="edge40" class="edge">
<title>contreeOF&#45;&gt;countre2ME</title>
<path fill="none" stroke="black" stroke-dasharray="1,5" d="M796.81,-234.88C795.7,-223.72 794.22,-208.77 792.89,-195.24"/>
<polygon fill="black" stroke="black" points="796.37,-194.86 791.9,-185.25 789.4,-195.55 796.37,-194.86"/>
</g>
<!-- country -->
<g id="node42" class="node">
<title>country</title>
<text text-anchor="start" x="758" y="-56.8" font-family="Times New Roman,serif" font-weight="bold" font-size="14.00">Modern</text>
<text text-anchor="start" x="759.5" y="-42.8" font-family="Times New Roman,serif" font-weight="bold" font-size="14.00">English</text>
<text text-anchor="start" x="761" y="-28.8" font-family="Times New Roman,serif" font-size="14.00" fill="red">country</text>
</g>
<!-- countre2ME&#45;&gt;country -->
<g id="edge41" class="edge">
<title>countre2ME&#45;&gt;country</title>
<path fill="none" stroke="black" d="M788,-134.97C787.03,-119.43 785.75,-98.95 784.67,-81.65"/>
<polygon fill="black" stroke="black" points="788.14,-81.14 784.02,-71.37 781.15,-81.57 788.14,-81.14"/>
</g>
<!-- coenoNL -->
<g id="node44" class="node">
<title>coenoNL</title>
<text text-anchor="start" x="1096.5" y="-163.8" font-family="Times New Roman,serif" font-weight="bold" font-size="14.00">New Latin</text>
<text text-anchor="start" x="1104" y="-149.8" font-family="Times New Roman,serif" font-size="14.00" fill="red">c(o)eno&#45;</text>
</g>
<!-- koinosG&#45;&gt;coenoNL -->
<g id="edge43" class="edge">
<title>koinosG&#45;&gt;coenoNL</title>
<path fill="none" stroke="black" stroke-dasharray="1,5" d="M1165.5,-409C1165.5,-409 1152.37,-390.8 1147.5,-374 1128.77,-309.35 1127.04,-229.44 1127.62,-188.31"/>
<polygon fill="black" stroke="black" points="1131.13,-188.32 1127.83,-178.25 1124.13,-188.18 1131.13,-188.32"/>
</g>
<!-- koineG -->
<g id="node46" class="node">
<title>koineG</title>
<text text-anchor="start" x="1168.5" y="-359.8" font-family="Times New Roman,serif" font-size="14.00" fill="red">(hē) koinē</text>
<text text-anchor="start" x="1167" y="-345.8" font-family="Times New Roman,serif" font-size="14.00" fill="red">(dialektos)</text>
<text text-anchor="start" x="1164.5" y="-333.4" font-family="Times New Roman,serif" font-size="12.00">(the) common</text>
<text text-anchor="start" x="1173" y="-321.4" font-family="Times New Roman,serif" font-size="12.00">(language)</text>
</g>
<!-- koinosG&#45;&gt;koineG -->
<g id="edge45" class="edge">
<title>koinosG&#45;&gt;koineG</title>
<path fill="none" stroke="black" d="M1165.5,-409C1165.5,-409 1171.39,-396.85 1178.03,-383.13"/>
<polygon fill="black" stroke="black" points="1181.24,-384.53 1182.45,-374 1174.94,-381.48 1181.24,-384.53"/>
</g>
<!-- ceno -->
<g id="node45" class="node">
<title>ceno</title>
<text text-anchor="start" x="1104" y="-77.8" font-family="Times New Roman,serif" font-weight="bold" font-size="14.00">Modern</text>
<text text-anchor="start" x="1105.5" y="-63.8" font-family="Times New Roman,serif" font-weight="bold" font-size="14.00">English</text>
<text text-anchor="start" x="1096.5" y="-49.8" font-family="Times New Roman,serif" font-size="14.00" fill="red">c(o)enobite</text>
<text text-anchor="start" x="1099.5" y="-35.8" font-family="Times New Roman,serif" font-size="14.00" fill="red">coenocyte</text>
<text text-anchor="start" x="1102.5" y="-21.8" font-family="Times New Roman,serif" font-size="14.00" fill="red">coenurus</text>
<text text-anchor="start" x="1107" y="-7.8" font-family="Times New Roman,serif" font-size="14.00" fill="red">epicene</text>
</g>
<!-- coenoNL&#45;&gt;ceno -->
<g id="edge44" class="edge">
<title>coenoNL&#45;&gt;ceno</title>
<path fill="none" stroke="black" stroke-dasharray="1,5" d="M1128.5,-141.99C1128.5,-131.35 1128.5,-116.99 1128.5,-102.66"/>
<polygon fill="black" stroke="black" points="1132,-102.28 1128.5,-92.28 1125,-102.28 1132,-102.28"/>
</g>
<!-- koine -->
<g id="node47" class="node">
<title>koine</title>
<text text-anchor="start" x="1223" y="-74.8" font-family="Times New Roman,serif" font-weight="bold" font-size="14.00">Modern</text>
<text text-anchor="start" x="1224.5" y="-60.8" font-family="Times New Roman,serif" font-weight="bold" font-size="14.00">English</text>
<text text-anchor="start" x="1230.5" y="-46.8" font-family="Times New Roman,serif" font-size="14.00" fill="red">Koine</text>
<text text-anchor="start" x="1206.5" y="-34.4" font-family="Times New Roman,serif" font-size="12.00">(the Greek dialect</text>
<text text-anchor="start" x="1208" y="-22.4" font-family="Times New Roman,serif" font-size="12.00">in which the New</text>
<text text-anchor="start" x="1194.5" y="-10.4" font-family="Times New Roman,serif" font-size="12.00">Testament was written)</text>
</g>
<!-- koineG&#45;&gt;koine -->
<g id="edge46" class="edge">
<title>koineG&#45;&gt;koine</title>
<path fill="none" stroke="black" stroke-dasharray="1,5" d="M1201.53,-313.81C1210.12,-263.93 1227.74,-161.66 1238.5,-99.23"/>
<polygon fill="black" stroke="black" points="1241.98,-99.64 1240.23,-89.19 1235.08,-98.45 1241.98,-99.64"/>
</g>
</g>
</svg>
