<?xml version="1.0" encoding="UTF-8" standalone="no"?>
<!DOCTYPE svg PUBLIC "-//W3C//DTD SVG 1.1//EN"
 "http://www.w3.org/Graphics/SVG/1.1/DTD/svg11.dtd">
<!-- Generated by graphviz version 2.49.0 (20210828.1703)
 -->
<!-- Pages: 1 -->
<svg width="1034pt" height="926pt"
 viewBox="0.00 0.00 1033.50 926.00" xmlns="http://www.w3.org/2000/svg" xmlns:xlink="http://www.w3.org/1999/xlink">
<g id="graph0" class="graph" transform="scale(1 1) rotate(0) translate(4 922)">
<polygon fill="white" stroke="transparent" points="-4,4 -4,-922 1029.5,-922 1029.5,4 -4,4"/>
<!-- kwetwer -->
<g id="node1" class="node">
<title>kwetwer</title>
<g id="a_node1"><a xlink:href="kwetwer-four0.svg" xlink:title="&lt;font point&#45;size=&quot;24&quot;&gt;&lt;b&gt;Indo&#45;&lt;br/&gt;European&lt;/b&gt;&lt;/font&gt;&lt;br/&gt;&lt;font color=&quot;red&quot; point&#45;size=&quot;18&quot;&gt;kʷetwer&#45;&lt;/font&gt;&lt;br/&gt;&lt;font point&#45;size=&quot;16&quot;&gt;four&lt;/font&gt;">
<path fill="none" stroke="black" stroke-dasharray="5,2" d="M833,-918C833,-918 739,-918 739,-918 733,-918 727,-912 727,-906 727,-906 727,-840 727,-840 727,-834 733,-828 739,-828 739,-828 833,-828 833,-828 839,-828 845,-834 845,-840 845,-840 845,-906 845,-906 845,-912 839,-918 833,-918"/>
<text text-anchor="start" x="758" y="-895.8" font-family="Times New Roman,serif" font-weight="bold" font-size="24.00">Indo&#45;</text>
<text text-anchor="start" x="735" y="-871.8" font-family="Times New Roman,serif" font-weight="bold" font-size="24.00">European</text>
<text text-anchor="start" x="754" y="-852.6" font-family="Times New Roman,serif" font-size="18.00" fill="red">kʷetwer&#45;</text>
<text text-anchor="start" x="772" y="-836.2" font-family="Times New Roman,serif" font-size="16.00">four</text>
</a>
</g>
</g>
<!-- kweturs -->
<g id="node2" class="node">
<title>kweturs</title>
<text text-anchor="start" x="742" y="-776.8" font-family="Times New Roman,serif" font-size="14.00" fill="red">kʷeturs, kʷetrus</text>
<text text-anchor="start" x="743.5" y="-761.8" font-family="Times New Roman,serif" font-size="14.00" fill="red">kʷetur&#45;, kʷetru&#45;</text>
</g>
<!-- kwetwer&#45;&gt;kweturs -->
<g id="edge1" class="edge">
<title>kwetwer&#45;&gt;kweturs</title>
<path fill="none" stroke="black" d="M786,-827.87C786,-819.21 786,-810.34 786,-802.37"/>
<polygon fill="black" stroke="black" points="789.5,-802.15 786,-792.15 782.5,-802.15 789.5,-802.15"/>
</g>
<!-- dekmIE -->
<g id="node3" class="node">
<title>dekmIE</title>
<g id="a_node3"><a xlink:href="dekm-ten.svg" xlink:title="&lt;b&gt;Indo&#45;&lt;br/&gt;European&lt;/b&gt;&lt;br/&gt;&lt;font color=&quot;red&quot;&gt;dekm̥&lt;/font&gt;&lt;br/&gt;&lt;font point&#45;size=&quot;12&quot;&gt;ten&lt;/font&gt;">
<path fill="none" stroke="black" stroke-dasharray="5,2" d="M932.5,-904C932.5,-904 879.5,-904 879.5,-904 873.5,-904 867.5,-898 867.5,-892 867.5,-892 867.5,-854 867.5,-854 867.5,-848 873.5,-842 879.5,-842 879.5,-842 932.5,-842 932.5,-842 938.5,-842 944.5,-848 944.5,-854 944.5,-854 944.5,-892 944.5,-892 944.5,-898 938.5,-904 932.5,-904"/>
<text text-anchor="start" x="889.5" y="-889.8" font-family="Times New Roman,serif" font-weight="bold" font-size="14.00">Indo&#45;</text>
<text text-anchor="start" x="875.5" y="-875.8" font-family="Times New Roman,serif" font-weight="bold" font-size="14.00">European</text>
<text text-anchor="start" x="890.5" y="-861.8" font-family="Times New Roman,serif" font-size="14.00" fill="red">dekm̥</text>
<text text-anchor="start" x="899" y="-849.4" font-family="Times New Roman,serif" font-size="12.00">ten</text>
</a>
</g>
</g>
<!-- kwetwer&#45;&gt;dekmIE -->
<!-- quadriL -->
<g id="node6" class="node">
<title>quadriL</title>
<text text-anchor="start" x="879.5" y="-690.8" font-family="Times New Roman,serif" font-weight="bold" font-size="14.00">Latin</text>
<text text-anchor="start" x="876" y="-676.8" font-family="Times New Roman,serif" font-size="14.00" fill="red">quadri&#45;</text>
</g>
<!-- kweturs&#45;&gt;quadriL -->
<g id="edge4" class="edge">
<title>kweturs&#45;&gt;quadriL</title>
<path fill="none" stroke="black" d="M785,-753C785,-753 828.21,-737.37 859,-718 862.2,-715.99 865.43,-713.74 868.59,-711.4"/>
<polygon fill="black" stroke="black" points="870.94,-714.01 876.69,-705.11 866.64,-708.48 870.94,-714.01"/>
</g>
<!-- quadrumL -->
<g id="node8" class="node">
<title>quadrumL</title>
<text text-anchor="start" x="632.5" y="-703.8" font-family="Times New Roman,serif" font-weight="bold" font-size="14.00">Latin</text>
<text text-anchor="start" x="624" y="-689.8" font-family="Times New Roman,serif" font-size="14.00" fill="red">quadrum</text>
<text text-anchor="start" x="626" y="-675.8" font-family="Times New Roman,serif" font-size="14.00" fill="red">quadrus</text>
<text text-anchor="start" x="633.5" y="-663.4" font-family="Times New Roman,serif" font-size="12.00">square</text>
</g>
<!-- kweturs&#45;&gt;quadrumL -->
<g id="edge6" class="edge">
<title>kweturs&#45;&gt;quadrumL</title>
<path fill="none" stroke="black" d="M785,-753C785,-753 731.23,-727.3 691.31,-708.22"/>
<polygon fill="black" stroke="black" points="692.8,-705.06 682.27,-703.9 689.78,-711.37 692.8,-705.06"/>
</g>
<!-- quadransL -->
<g id="node42" class="node">
<title>quadransL</title>
<text text-anchor="start" x="769.5" y="-690.8" font-family="Times New Roman,serif" font-weight="bold" font-size="14.00">Latin</text>
<text text-anchor="start" x="730" y="-676.8" font-family="Times New Roman,serif" font-size="14.00" fill="red">quadrāns, quadrant&#45;</text>
</g>
<!-- kweturs&#45;&gt;quadransL -->
<g id="edge40" class="edge">
<title>kweturs&#45;&gt;quadransL</title>
<path fill="none" stroke="black" d="M785,-753C785,-753 785.31,-732.97 785.58,-715.15"/>
<polygon fill="black" stroke="black" points="789.08,-715.13 785.74,-705.08 782.08,-715.02 789.08,-715.13"/>
</g>
<!-- kontaIE -->
<g id="node4" class="node">
<title>kontaIE</title>
<text text-anchor="start" x="893" y="-769.3" font-family="Times New Roman,serif" font-size="14.00" fill="red">&#45;dkōm&#45;tā̆, &#45;kontā̆</text>
</g>
<!-- dekmIE&#45;&gt;kontaIE -->
<g id="edge2" class="edge">
<title>dekmIE&#45;&gt;kontaIE</title>
<path fill="none" stroke="black" d="M916.48,-841.8C921.04,-828.66 926.33,-813.4 930.74,-800.69"/>
<polygon fill="black" stroke="black" points="934.09,-801.72 934.06,-791.13 927.47,-799.43 934.09,-801.72"/>
</g>
<!-- gintaL -->
<g id="node5" class="node">
<title>gintaL</title>
<text text-anchor="start" x="953.5" y="-696.8" font-family="Times New Roman,serif" font-weight="bold" font-size="14.00">Latin</text>
<text text-anchor="start" x="954.5" y="-682.8" font-family="Times New Roman,serif" font-size="14.00" fill="red">&#45;gintā</text>
<text text-anchor="start" x="950" y="-670.4" font-family="Times New Roman,serif" font-size="12.00">ten times</text>
</g>
<!-- kontaIE&#45;&gt;gintaL -->
<g id="edge3" class="edge">
<title>kontaIE&#45;&gt;gintaL</title>
<path fill="none" stroke="black" d="M946.22,-754.6C949.73,-744.76 954.23,-732.14 958.38,-720.54"/>
<polygon fill="black" stroke="black" points="961.67,-721.72 961.74,-711.12 955.08,-719.36 961.67,-721.72"/>
</g>
<!-- quadragintaL -->
<g id="node45" class="node">
<title>quadragintaL</title>
<text text-anchor="start" x="953.5" y="-605.8" font-family="Times New Roman,serif" font-weight="bold" font-size="14.00">Latin</text>
<text text-anchor="start" x="937.5" y="-591.8" font-family="Times New Roman,serif" font-size="14.00" fill="red">quadrāgintā</text>
<text text-anchor="start" x="959" y="-579.4" font-family="Times New Roman,serif" font-size="12.00">forty</text>
</g>
<!-- gintaL&#45;&gt;quadragintaL -->
<g id="edge44" class="edge">
<title>gintaL&#45;&gt;quadragintaL</title>
<path fill="none" stroke="black" d="M966.8,-662.9C965.29,-651.95 963.55,-639.45 962.38,-630.97"/>
<polygon fill="black" stroke="black" points="965.84,-630.43 961,-621 958.9,-631.39 965.84,-630.43"/>
</g>
<!-- quadri -->
<g id="node7" class="node">
<title>quadri</title>
<text text-anchor="start" x="871.5" y="-47.8" font-family="Times New Roman,serif" font-weight="bold" font-size="14.00">Modern</text>
<text text-anchor="start" x="873" y="-33.8" font-family="Times New Roman,serif" font-weight="bold" font-size="14.00">English</text>
<text text-anchor="start" x="871.5" y="-19.8" font-family="Times New Roman,serif" font-size="14.00" fill="red">quadr(i)&#45;</text>
</g>
<!-- quadriL&#45;&gt;quadri -->
<g id="edge5" class="edge">
<title>quadriL&#45;&gt;quadri</title>
<path fill="none" stroke="black" stroke-dasharray="5,2" d="M902,-668C902,-668 896,-578.61 896,-507 896,-507 896,-507 896,-232 896,-176.12 896,-111.19 896,-72.41"/>
<polygon fill="black" stroke="black" points="899.5,-72.2 896,-62.2 892.5,-72.2 899.5,-72.2"/>
</g>
<!-- quadriL&#45;&gt;quadragintaL -->
<g id="edge43" class="edge">
<title>quadriL&#45;&gt;quadragintaL</title>
<path fill="none" stroke="black" d="M902,-668C902,-668 936.58,-640.45 952.8,-627.54"/>
<polygon fill="black" stroke="black" points="955.36,-629.97 961,-621 951,-624.49 955.36,-629.97"/>
</g>
<!-- quarreOF -->
<g id="node9" class="node">
<title>quarreOF</title>
<text text-anchor="start" x="510" y="-424.8" font-family="Times New Roman,serif" font-weight="bold" font-size="14.00">Old French</text>
<text text-anchor="start" x="527" y="-410.8" font-family="Times New Roman,serif" font-size="14.00" fill="red">quarre</text>
<text text-anchor="start" x="524.5" y="-398.4" font-family="Times New Roman,serif" font-size="12.00">cut stone</text>
</g>
<!-- quadrumL&#45;&gt;quarreOF -->
<g id="edge7" class="edge">
<title>quadrumL&#45;&gt;quarreOF</title>
<path fill="none" stroke="black" d="M638,-655C638,-655 583.25,-514.31 557.77,-448.81"/>
<polygon fill="black" stroke="black" points="560.97,-447.4 554.09,-439.35 554.45,-449.94 560.97,-447.4"/>
</g>
<!-- quadrellusL -->
<g id="node14" class="node">
<title>quadrellusL</title>
<text text-anchor="start" x="620" y="-502.3" font-family="Times New Roman,serif" font-size="14.00" fill="red">quadrellus</text>
</g>
<!-- quadrumL&#45;&gt;quadrellusL -->
<g id="edge12" class="edge">
<title>quadrumL&#45;&gt;quadrellusL</title>
<path fill="none" stroke="black" d="M638,-655C638,-655 643.79,-577.08 646.97,-534.31"/>
<polygon fill="black" stroke="black" points="650.47,-534.5 647.72,-524.27 643.48,-533.98 650.47,-534.5"/>
</g>
<!-- quadrareL -->
<g id="node18" class="node">
<title>quadrareL</title>
<text text-anchor="start" x="383.5" y="-605.8" font-family="Times New Roman,serif" font-size="14.00" fill="red">quadrāre</text>
<text text-anchor="start" x="373" y="-593.4" font-family="Times New Roman,serif" font-size="12.00">to make square</text>
<text text-anchor="start" x="378" y="-579.8" font-family="Times New Roman,serif" font-size="14.00" fill="red">quadrātum</text>
</g>
<!-- quadrumL&#45;&gt;quadrareL -->
<g id="edge16" class="edge">
<title>quadrumL&#45;&gt;quadrareL</title>
<path fill="none" stroke="black" d="M638,-655C638,-655 528.88,-627.48 460.97,-610.36"/>
<polygon fill="black" stroke="black" points="461.81,-606.96 451.26,-607.91 460.1,-613.75 461.81,-606.96"/>
</g>
<!-- quadroI -->
<g id="node21" class="node">
<title>quadroI</title>
<text text-anchor="start" x="700" y="-242.8" font-family="Times New Roman,serif" font-weight="bold" font-size="14.00">Italian</text>
<text text-anchor="start" x="700" y="-228.8" font-family="Times New Roman,serif" font-size="14.00" fill="red">quadro</text>
<text text-anchor="start" x="707" y="-216.4" font-family="Times New Roman,serif" font-size="12.00">frame</text>
</g>
<!-- quadrumL&#45;&gt;quadroI -->
<g id="edge19" class="edge">
<title>quadrumL&#45;&gt;quadroI</title>
<path fill="none" stroke="black" d="M638,-655C638,-655 720,-582.2 720,-507 720,-507 720,-507 720,-414 720,-362.88 720,-303.6 720,-267.45"/>
<polygon fill="black" stroke="black" points="723.5,-267.02 720,-257.02 716.5,-267.02 723.5,-267.02"/>
</g>
<!-- quarriereOF -->
<g id="node10" class="node">
<title>quarriereOF</title>
<text text-anchor="start" x="520.5" y="-320.3" font-family="Times New Roman,serif" font-size="14.00" fill="red">quarriere</text>
</g>
<!-- quarreOF&#45;&gt;quarriereOF -->
<g id="edge8" class="edge">
<title>quarreOF&#45;&gt;quarriereOF</title>
<path fill="none" stroke="black" d="M545,-390.62C545,-378.83 545,-364.46 545,-352.18"/>
<polygon fill="black" stroke="black" points="548.5,-352.04 545,-342.04 541.5,-352.04 548.5,-352.04"/>
</g>
<!-- quareiaL -->
<g id="node11" class="node">
<title>quareiaL</title>
<text text-anchor="start" x="526.5" y="-243.8" font-family="Times New Roman,serif" font-weight="bold" font-size="14.00">Latin</text>
<text text-anchor="start" x="520.5" y="-229.8" font-family="Times New Roman,serif" font-size="14.00" fill="red">quareria</text>
<text text-anchor="start" x="523" y="-215.8" font-family="Times New Roman,serif" font-size="14.00" fill="red">quareia</text>
</g>
<!-- quarriereOF&#45;&gt;quareiaL -->
<g id="edge9" class="edge">
<title>quarriereOF&#45;&gt;quareiaL</title>
<path fill="none" stroke="black" stroke-dasharray="5,2" d="M544.61,-305.84C544.38,-295.26 544.06,-281.32 543.78,-268.54"/>
<polygon fill="black" stroke="black" points="547.27,-268.09 543.54,-258.17 540.27,-268.25 547.27,-268.09"/>
</g>
<!-- quareyME -->
<g id="node12" class="node">
<title>quareyME</title>
<text text-anchor="start" x="520.5" y="-151.8" font-family="Times New Roman,serif" font-weight="bold" font-size="14.00">Middle</text>
<text text-anchor="start" x="519" y="-137.8" font-family="Times New Roman,serif" font-weight="bold" font-size="14.00">English</text>
<text text-anchor="start" x="523" y="-123.8" font-family="Times New Roman,serif" font-size="14.00" fill="red">quarey</text>
</g>
<!-- quareiaL&#45;&gt;quareyME -->
<g id="edge10" class="edge">
<title>quareiaL&#45;&gt;quareyME</title>
<path fill="none" stroke="black" stroke-dasharray="5,2" d="M542.73,-207.88C542.62,-198.2 542.5,-186.85 542.38,-176.34"/>
<polygon fill="black" stroke="black" points="545.88,-176.15 542.27,-166.18 538.88,-176.22 545.88,-176.15"/>
</g>
<!-- quarry -->
<g id="node13" class="node">
<title>quarry</title>
<text text-anchor="start" x="516.5" y="-53.8" font-family="Times New Roman,serif" font-weight="bold" font-size="14.00">Modern</text>
<text text-anchor="start" x="518" y="-39.8" font-family="Times New Roman,serif" font-weight="bold" font-size="14.00">English</text>
<text text-anchor="start" x="522.5" y="-25.8" font-family="Times New Roman,serif" font-size="14.00" fill="red">quarry</text>
<text text-anchor="start" x="521.5" y="-13.4" font-family="Times New Roman,serif" font-size="12.00">stone pit</text>
</g>
<!-- quareyME&#45;&gt;quarry -->
<g id="edge11" class="edge">
<title>quareyME&#45;&gt;quarry</title>
<path fill="none" stroke="black" d="M541.76,-115.83C541.65,-104.69 541.52,-91.16 541.4,-78.54"/>
<polygon fill="black" stroke="black" points="544.89,-78.17 541.3,-68.21 537.89,-78.24 544.89,-78.17"/>
</g>
<!-- quarelOF -->
<g id="node15" class="node">
<title>quarelOF</title>
<text text-anchor="start" x="614" y="-418.8" font-family="Times New Roman,serif" font-weight="bold" font-size="14.00">Old French</text>
<text text-anchor="start" x="632" y="-404.8" font-family="Times New Roman,serif" font-size="14.00" fill="red">quarel</text>
</g>
<!-- quadrellusL&#45;&gt;quarelOF -->
<g id="edge13" class="edge">
<title>quadrellusL&#45;&gt;quarelOF</title>
<path fill="none" stroke="black" d="M649,-487.84C649,-475.28 649,-457.98 649,-443.5"/>
<polygon fill="black" stroke="black" points="652.5,-443.11 649,-433.11 645.5,-443.11 652.5,-443.11"/>
</g>
<!-- quarelME -->
<g id="node16" class="node">
<title>quarelME</title>
<text text-anchor="start" x="616.5" y="-243.8" font-family="Times New Roman,serif" font-weight="bold" font-size="14.00">Middle</text>
<text text-anchor="start" x="615" y="-229.8" font-family="Times New Roman,serif" font-weight="bold" font-size="14.00">English</text>
<text text-anchor="start" x="621" y="-215.8" font-family="Times New Roman,serif" font-size="14.00" fill="red">quarel</text>
</g>
<!-- quarelOF&#45;&gt;quarelME -->
<g id="edge14" class="edge">
<title>quarelOF&#45;&gt;quarelME</title>
<path fill="none" stroke="black" stroke-dasharray="5,2" d="M647.95,-396.74C646.15,-367.3 642.45,-306.85 640.11,-268.49"/>
<polygon fill="black" stroke="black" points="643.59,-268.06 639.48,-258.3 636.6,-268.49 643.59,-268.06"/>
</g>
<!-- quarrel -->
<g id="node17" class="node">
<title>quarrel</title>
<text text-anchor="start" x="607.5" y="-53.8" font-family="Times New Roman,serif" font-weight="bold" font-size="14.00">Modern</text>
<text text-anchor="start" x="609" y="-39.8" font-family="Times New Roman,serif" font-weight="bold" font-size="14.00">English</text>
<text text-anchor="start" x="612.5" y="-25.8" font-family="Times New Roman,serif" font-size="14.00" fill="red">quarrel</text>
<text text-anchor="start" x="599.5" y="-13.4" font-family="Times New Roman,serif" font-size="12.00">crossbow bolt</text>
</g>
<!-- quarelME&#45;&gt;quarrel -->
<g id="edge15" class="edge">
<title>quarelME&#45;&gt;quarrel</title>
<path fill="none" stroke="black" d="M637.25,-207.82C636.25,-175.51 634.47,-117.8 633.26,-78.72"/>
<polygon fill="black" stroke="black" points="636.74,-78.12 632.93,-68.23 629.75,-78.33 636.74,-78.12"/>
</g>
<!-- quadratME -->
<g id="node19" class="node">
<title>quadratME</title>
<text text-anchor="start" x="431.5" y="-425.8" font-family="Times New Roman,serif" font-weight="bold" font-size="14.00">Middle</text>
<text text-anchor="start" x="430" y="-411.8" font-family="Times New Roman,serif" font-weight="bold" font-size="14.00">English</text>
<text text-anchor="start" x="431.5" y="-397.8" font-family="Times New Roman,serif" font-size="14.00" fill="red">quadrat</text>
</g>
<!-- quadrareL&#45;&gt;quadratME -->
<g id="edge17" class="edge">
<title>quadrareL&#45;&gt;quadratME</title>
<path fill="none" stroke="black" stroke-dasharray="5,2" d="M398,-571C398,-571 424.85,-495.33 441.03,-449.73"/>
<polygon fill="black" stroke="black" points="444.36,-450.81 444.41,-440.22 437.76,-448.47 444.36,-450.81"/>
</g>
<!-- exquadraL -->
<g id="node26" class="node">
<title>exquadraL</title>
<text text-anchor="start" x="120" y="-521.8" font-family="Times New Roman,serif" font-size="14.00" fill="red">exquadrāre</text>
<text text-anchor="start" x="129.5" y="-509.4" font-family="Times New Roman,serif" font-size="12.00">to square</text>
<text text-anchor="start" x="125" y="-495.8" font-family="Times New Roman,serif" font-size="14.00" fill="red">exquadra</text>
<text text-anchor="start" x="131.5" y="-483.4" font-family="Times New Roman,serif" font-size="12.00">a square</text>
</g>
<!-- quadrareL&#45;&gt;exquadraL -->
<g id="edge24" class="edge">
<title>quadrareL&#45;&gt;exquadraL</title>
<path fill="none" stroke="black" d="M398,-571C398,-571 226.5,-545.08 182.96,-538.5"/>
<polygon fill="black" stroke="black" points="183.41,-535.03 173,-537 182.36,-541.95 183.41,-535.03"/>
</g>
<!-- carrerOF -->
<g id="node38" class="node">
<title>carrerOF</title>
<text text-anchor="start" x="326" y="-418.8" font-family="Times New Roman,serif" font-weight="bold" font-size="14.00">Old French</text>
<text text-anchor="start" x="344.5" y="-404.8" font-family="Times New Roman,serif" font-size="14.00" fill="red">carrer</text>
</g>
<!-- quadrareL&#45;&gt;carrerOF -->
<g id="edge35" class="edge">
<title>quadrareL&#45;&gt;carrerOF</title>
<path fill="none" stroke="black" d="M398,-571C398,-571 378.06,-487.47 367.46,-443.05"/>
<polygon fill="black" stroke="black" points="370.83,-442.09 365.1,-433.18 364.02,-443.72 370.83,-442.09"/>
</g>
<!-- quadrate -->
<g id="node20" class="node">
<title>quadrate</title>
<text text-anchor="start" x="428.5" y="-54.8" font-family="Times New Roman,serif" font-weight="bold" font-size="14.00">Modern</text>
<text text-anchor="start" x="430" y="-40.8" font-family="Times New Roman,serif" font-weight="bold" font-size="14.00">English</text>
<text text-anchor="start" x="428.5" y="-26.8" font-family="Times New Roman,serif" font-size="14.00" fill="red">quadrate</text>
<text text-anchor="start" x="431.5" y="-12.8" font-family="Times New Roman,serif" font-size="14.00" fill="red">quadrat</text>
</g>
<!-- quadratME&#45;&gt;quadrate -->
<g id="edge18" class="edge">
<title>quadratME&#45;&gt;quadrate</title>
<path fill="none" stroke="black" d="M453,-389.91C453,-327.08 453,-157.7 453,-79.1"/>
<polygon fill="black" stroke="black" points="456.5,-79.08 453,-69.08 449.5,-79.08 456.5,-79.08"/>
</g>
<!-- cadreF -->
<g id="node22" class="node">
<title>cadreF</title>
<text text-anchor="start" x="698" y="-144.8" font-family="Times New Roman,serif" font-weight="bold" font-size="14.00">French</text>
<text text-anchor="start" x="704.5" y="-130.8" font-family="Times New Roman,serif" font-size="14.00" fill="red">cadre</text>
</g>
<!-- quadroI&#45;&gt;cadreF -->
<g id="edge20" class="edge">
<title>quadroI&#45;&gt;cadreF</title>
<path fill="none" stroke="black" stroke-dasharray="5,2" d="M720,-208.82C720,-196.82 720,-182.08 720,-169.5"/>
<polygon fill="black" stroke="black" points="723.5,-169.13 720,-159.13 716.5,-169.13 723.5,-169.13"/>
</g>
<!-- cadre -->
<g id="node23" class="node">
<title>cadre</title>
<text text-anchor="start" x="698.5" y="-47.8" font-family="Times New Roman,serif" font-weight="bold" font-size="14.00">Modern</text>
<text text-anchor="start" x="700" y="-33.8" font-family="Times New Roman,serif" font-weight="bold" font-size="14.00">English</text>
<text text-anchor="start" x="707.5" y="-19.8" font-family="Times New Roman,serif" font-size="14.00" fill="red">cadre</text>
</g>
<!-- cadreF&#45;&gt;cadre -->
<g id="edge21" class="edge">
<title>cadreF&#45;&gt;cadre</title>
<path fill="none" stroke="black" stroke-dasharray="5,2" d="M720.51,-122.7C720.91,-108.95 721.49,-89.3 721.99,-72.38"/>
<polygon fill="black" stroke="black" points="725.49,-72.38 722.29,-62.28 718.49,-72.17 725.49,-72.38"/>
</g>
<!-- eghsIE -->
<g id="node24" class="node">
<title>eghsIE</title>
<g id="a_node24"><a xlink:href="eghs-out.svg" xlink:title="&lt;b&gt;Indo&#45;&lt;br/&gt;European&lt;/b&gt;&lt;br/&gt;&lt;font color=&quot;red&quot;&gt;eghs&lt;/font&gt;&lt;br/&gt;&lt;font point&#45;size=&quot;12&quot;&gt;out&lt;/font&gt;">
<path fill="none" stroke="black" stroke-dasharray="5,2" d="M185.5,-904C185.5,-904 132.5,-904 132.5,-904 126.5,-904 120.5,-898 120.5,-892 120.5,-892 120.5,-854 120.5,-854 120.5,-848 126.5,-842 132.5,-842 132.5,-842 185.5,-842 185.5,-842 191.5,-842 197.5,-848 197.5,-854 197.5,-854 197.5,-892 197.5,-892 197.5,-898 191.5,-904 185.5,-904"/>
<text text-anchor="start" x="142.5" y="-889.8" font-family="Times New Roman,serif" font-weight="bold" font-size="14.00">Indo&#45;</text>
<text text-anchor="start" x="128.5" y="-875.8" font-family="Times New Roman,serif" font-weight="bold" font-size="14.00">European</text>
<text text-anchor="start" x="146" y="-861.8" font-family="Times New Roman,serif" font-size="14.00" fill="red">eghs</text>
<text text-anchor="start" x="151.5" y="-849.4" font-family="Times New Roman,serif" font-size="12.00">out</text>
</a>
</g>
</g>
<!-- exL -->
<g id="node25" class="node">
<title>exL</title>
<text text-anchor="start" x="135.5" y="-702.8" font-family="Times New Roman,serif" font-weight="bold" font-size="14.00">Latin</text>
<text text-anchor="start" x="143" y="-688.8" font-family="Times New Roman,serif" font-size="14.00" fill="red">ex&#45;</text>
<text text-anchor="start" x="137" y="-676.4" font-family="Times New Roman,serif" font-size="12.00">out of,</text>
<text text-anchor="start" x="127.5" y="-664.4" font-family="Times New Roman,serif" font-size="12.00">away from</text>
</g>
<!-- eghsIE&#45;&gt;exL -->
<g id="edge22" class="edge">
<title>eghsIE&#45;&gt;exL</title>
<path fill="none" stroke="black" d="M157.84,-841.62C156.65,-810.35 154.8,-761.51 153.5,-727.32"/>
<polygon fill="black" stroke="black" points="156.99,-727.07 153.11,-717.21 149.99,-727.34 156.99,-727.07"/>
</g>
<!-- treiIE -->
<g id="node34" class="node">
<title>treiIE</title>
<g id="a_node34"><a xlink:href="trei-three.svg" xlink:title="&lt;b&gt;Indo&#45;&lt;br/&gt;European&lt;/b&gt;&lt;br/&gt;&lt;font color=&quot;red&quot;&gt;trei&#45;&lt;/font&gt;&lt;br/&gt;&lt;font point&#45;size=&quot;12&quot;&gt;three&lt;/font&gt;">
<path fill="none" stroke="black" stroke-dasharray="5,2" d="M283.5,-904C283.5,-904 230.5,-904 230.5,-904 224.5,-904 218.5,-898 218.5,-892 218.5,-892 218.5,-854 218.5,-854 218.5,-848 224.5,-842 230.5,-842 230.5,-842 283.5,-842 283.5,-842 289.5,-842 295.5,-848 295.5,-854 295.5,-854 295.5,-892 295.5,-892 295.5,-898 289.5,-904 283.5,-904"/>
<text text-anchor="start" x="240.5" y="-889.8" font-family="Times New Roman,serif" font-weight="bold" font-size="14.00">Indo&#45;</text>
<text text-anchor="start" x="226.5" y="-875.8" font-family="Times New Roman,serif" font-weight="bold" font-size="14.00">European</text>
<text text-anchor="start" x="246" y="-861.8" font-family="Times New Roman,serif" font-size="14.00" fill="red">trei&#45;</text>
<text text-anchor="start" x="245.5" y="-849.4" font-family="Times New Roman,serif" font-size="12.00">three</text>
</a>
</g>
</g>
<!-- eghsIE&#45;&gt;treiIE -->
<!-- exL&#45;&gt;exquadraL -->
<g id="edge23" class="edge">
<title>exL&#45;&gt;exquadraL</title>
<path fill="none" stroke="black" d="M156.1,-656.92C160.85,-623.21 168.43,-569.45 171.57,-547.17"/>
<polygon fill="black" stroke="black" points="175.07,-547.39 173,-537 168.14,-546.41 175.07,-547.39"/>
</g>
<!-- esquarreOF -->
<g id="node27" class="node">
<title>esquarreOF</title>
<text text-anchor="start" x="8" y="-418.8" font-family="Times New Roman,serif" font-weight="bold" font-size="14.00">Old French</text>
<text text-anchor="start" x="19" y="-404.8" font-family="Times New Roman,serif" font-size="14.00" fill="red">esquarre</text>
</g>
<!-- exquadraL&#45;&gt;esquarreOF -->
<g id="edge25" class="edge">
<title>exquadraL&#45;&gt;esquarreOF</title>
<path fill="none" stroke="black" d="M115.64,-475.86C101.47,-464.19 85.36,-450.91 71.92,-439.83"/>
<polygon fill="black" stroke="black" points="73.87,-436.91 63.93,-433.25 69.42,-442.31 73.87,-436.91"/>
</g>
<!-- escuadraOS -->
<g id="node30" class="node">
<title>escuadraOS</title>
<text text-anchor="start" x="112.5" y="-418.8" font-family="Times New Roman,serif" font-weight="bold" font-size="14.00">Old Spanish</text>
<text text-anchor="start" x="125" y="-404.8" font-family="Times New Roman,serif" font-size="14.00" fill="red">escuadra</text>
</g>
<!-- exquadraL&#45;&gt;escuadraOS -->
<g id="edge28" class="edge">
<title>exquadraL&#45;&gt;escuadraOS</title>
<path fill="none" stroke="black" d="M150.67,-475.86C150.56,-465.4 150.42,-453.65 150.31,-443.35"/>
<polygon fill="black" stroke="black" points="153.81,-443.21 150.19,-433.25 146.81,-443.29 153.81,-443.21"/>
</g>
<!-- squareME -->
<g id="node28" class="node">
<title>squareME</title>
<text text-anchor="start" x="21.5" y="-334.8" font-family="Times New Roman,serif" font-weight="bold" font-size="14.00">Middle</text>
<text text-anchor="start" x="20" y="-320.8" font-family="Times New Roman,serif" font-weight="bold" font-size="14.00">English</text>
<text text-anchor="start" x="24.5" y="-306.8" font-family="Times New Roman,serif" font-size="14.00" fill="red">square</text>
</g>
<!-- esquarreOF&#45;&gt;squareME -->
<g id="edge26" class="edge">
<title>esquarreOF&#45;&gt;squareME</title>
<path fill="none" stroke="black" stroke-dasharray="5,2" d="M43,-396.84C43,-386.26 43,-372.32 43,-359.54"/>
<polygon fill="black" stroke="black" points="46.5,-359.17 43,-349.17 39.5,-359.17 46.5,-359.17"/>
</g>
<!-- square -->
<g id="node29" class="node">
<title>square</title>
<text text-anchor="start" x="18.5" y="-47.8" font-family="Times New Roman,serif" font-weight="bold" font-size="14.00">Modern</text>
<text text-anchor="start" x="20" y="-33.8" font-family="Times New Roman,serif" font-weight="bold" font-size="14.00">English</text>
<text text-anchor="start" x="24.5" y="-19.8" font-family="Times New Roman,serif" font-size="14.00" fill="red">square</text>
</g>
<!-- squareME&#45;&gt;square -->
<g id="edge27" class="edge">
<title>squareME&#45;&gt;square</title>
<path fill="none" stroke="black" d="M43,-298.7C43,-248.01 43,-130.86 43,-72.43"/>
<polygon fill="black" stroke="black" points="46.5,-72.24 43,-62.24 39.5,-72.24 46.5,-72.24"/>
</g>
<!-- escadreOF -->
<g id="node31" class="node">
<title>escadreOF</title>
<text text-anchor="start" x="115" y="-327.8" font-family="Times New Roman,serif" font-weight="bold" font-size="14.00">Old French</text>
<text text-anchor="start" x="128.5" y="-313.8" font-family="Times New Roman,serif" font-size="14.00" fill="red">escadre</text>
</g>
<!-- escuadraOS&#45;&gt;escadreOF -->
<g id="edge29" class="edge">
<title>escuadraOS&#45;&gt;escadreOF</title>
<path fill="none" stroke="black" stroke-dasharray="5,2" d="M150,-396.84C150,-384.28 150,-366.98 150,-352.5"/>
<polygon fill="black" stroke="black" points="153.5,-352.11 150,-342.11 146.5,-352.11 153.5,-352.11"/>
</g>
<!-- esquadeF -->
<g id="node32" class="node">
<title>esquadeF</title>
<text text-anchor="start" x="128" y="-151.8" font-family="Times New Roman,serif" font-weight="bold" font-size="14.00">French</text>
<text text-anchor="start" x="121.5" y="-137.8" font-family="Times New Roman,serif" font-size="14.00">(obsolete)</text>
<text text-anchor="start" x="127" y="-123.8" font-family="Times New Roman,serif" font-size="14.00" fill="red">esquade</text>
</g>
<!-- escadreOF&#45;&gt;esquadeF -->
<g id="edge30" class="edge">
<title>escadreOF&#45;&gt;esquadeF</title>
<path fill="none" stroke="black" d="M150,-305.97C150,-276.45 150,-215.22 150,-176.51"/>
<polygon fill="black" stroke="black" points="153.5,-176.23 150,-166.23 146.5,-176.23 153.5,-176.23"/>
</g>
<!-- squad -->
<g id="node33" class="node">
<title>squad</title>
<text text-anchor="start" x="125.5" y="-47.8" font-family="Times New Roman,serif" font-weight="bold" font-size="14.00">Modern</text>
<text text-anchor="start" x="127" y="-33.8" font-family="Times New Roman,serif" font-weight="bold" font-size="14.00">English</text>
<text text-anchor="start" x="133" y="-19.8" font-family="Times New Roman,serif" font-size="14.00" fill="red">squad</text>
</g>
<!-- esquadeF&#45;&gt;squad -->
<g id="edge31" class="edge">
<title>esquadeF&#45;&gt;squad</title>
<path fill="none" stroke="black" stroke-dasharray="5,2" d="M150,-115.83C150,-102.96 150,-86.92 150,-72.74"/>
<polygon fill="black" stroke="black" points="153.5,-72.35 150,-62.35 146.5,-72.35 153.5,-72.35"/>
</g>
<!-- treiIE&#45;&gt;kwetwer -->
<!-- tresL -->
<g id="node35" class="node">
<title>tresL</title>
<text text-anchor="start" x="240.5" y="-690.8" font-family="Times New Roman,serif" font-weight="bold" font-size="14.00">Latin</text>
<text text-anchor="start" x="246.5" y="-676.8" font-family="Times New Roman,serif" font-size="14.00" fill="red">trēs</text>
</g>
<!-- treiIE&#45;&gt;tresL -->
<g id="edge32" class="edge">
<title>treiIE&#45;&gt;tresL</title>
<path fill="none" stroke="black" d="M257,-841.62C257,-806.43 257,-749 257,-715.22"/>
<polygon fill="black" stroke="black" points="260.5,-715.14 257,-705.14 253.5,-715.14 260.5,-715.14"/>
</g>
<!-- troisOF -->
<g id="node36" class="node">
<title>troisOF</title>
<text text-anchor="start" x="222" y="-418.8" font-family="Times New Roman,serif" font-weight="bold" font-size="14.00">Old French</text>
<text text-anchor="start" x="244.5" y="-404.8" font-family="Times New Roman,serif" font-size="14.00" fill="red">trois</text>
</g>
<!-- tresL&#45;&gt;troisOF -->
<g id="edge33" class="edge">
<title>tresL&#45;&gt;troisOF</title>
<path fill="none" stroke="black" d="M257,-668.7C257,-622.98 257,-498.67 257,-443.27"/>
<polygon fill="black" stroke="black" points="260.5,-443.16 257,-433.16 253.5,-443.16 260.5,-443.16"/>
</g>
<!-- troisF -->
<g id="node37" class="node">
<title>troisF</title>
<text text-anchor="start" x="247" y="-327.8" font-family="Times New Roman,serif" font-weight="bold" font-size="14.00">French</text>
<text text-anchor="start" x="256.5" y="-313.8" font-family="Times New Roman,serif" font-size="14.00" fill="red">trois</text>
</g>
<!-- troisOF&#45;&gt;troisF -->
<g id="edge34" class="edge">
<title>troisOF&#45;&gt;troisF</title>
<path fill="none" stroke="black" d="M259.31,-396.84C261.02,-384.16 263.39,-366.64 265.35,-352.08"/>
<polygon fill="black" stroke="black" points="268.83,-352.49 266.69,-342.11 261.89,-351.55 268.83,-352.49"/>
</g>
<!-- troisOF&#45;&gt;carrerOF -->
<!-- carreF -->
<g id="node39" class="node">
<title>carreF</title>
<text text-anchor="start" x="326" y="-339.8" font-family="Times New Roman,serif" font-weight="bold" font-size="14.00">French</text>
<text text-anchor="start" x="334" y="-325.8" font-family="Times New Roman,serif" font-size="14.00" fill="red">carre</text>
<text text-anchor="start" x="326" y="-313.4" font-family="Times New Roman,serif" font-size="12.00">side of an</text>
<text text-anchor="start" x="325" y="-301.4" font-family="Times New Roman,serif" font-size="12.00">instrument</text>
</g>
<!-- troisF&#45;&gt;carreF -->
<!-- trocartF -->
<g id="node40" class="node">
<title>trocartF</title>
<text text-anchor="start" x="289.5" y="-229.3" font-family="Times New Roman,serif" font-size="14.00" fill="red">trocart</text>
</g>
<!-- troisF&#45;&gt;trocartF -->
<g id="edge37" class="edge">
<title>troisF&#45;&gt;trocartF</title>
<path fill="none" stroke="black" d="M278.44,-305.81C286.2,-291.7 296.87,-272.26 303.05,-261.02"/>
<polygon fill="black" stroke="black" points="306.25,-262.45 308,-252 300.12,-259.08 306.25,-262.45"/>
</g>
<!-- carrerOF&#45;&gt;carreF -->
<g id="edge36" class="edge">
<title>carrerOF&#45;&gt;carreF</title>
<path fill="none" stroke="black" d="M358.49,-396.84C357.12,-387.46 355.37,-375.44 353.69,-363.93"/>
<polygon fill="black" stroke="black" points="357.15,-363.41 352.24,-354.02 350.22,-364.42 357.15,-363.41"/>
</g>
<!-- carreF&#45;&gt;trocartF -->
<g id="edge38" class="edge">
<title>carreF&#45;&gt;trocartF</title>
<path fill="none" stroke="black" d="M331.5,-293.71C324.87,-281.95 317.71,-269.24 313.06,-260.99"/>
<polygon fill="black" stroke="black" points="315.96,-258.99 308,-252 309.86,-262.43 315.96,-258.99"/>
</g>
<!-- trocar -->
<g id="node41" class="node">
<title>trocar</title>
<text text-anchor="start" x="283.5" y="-59.8" font-family="Times New Roman,serif" font-weight="bold" font-size="14.00">Modern</text>
<text text-anchor="start" x="285" y="-45.8" font-family="Times New Roman,serif" font-weight="bold" font-size="14.00">English</text>
<text text-anchor="start" x="291" y="-31.8" font-family="Times New Roman,serif" font-size="14.00" fill="red">trocar</text>
<text text-anchor="start" x="286.5" y="-19.4" font-family="Times New Roman,serif" font-size="12.00">a surgical</text>
<text text-anchor="start" x="285" y="-7.4" font-family="Times New Roman,serif" font-size="12.00">instrument</text>
</g>
<!-- trocartF&#45;&gt;trocar -->
<g id="edge39" class="edge">
<title>trocartF&#45;&gt;trocar</title>
<path fill="none" stroke="black" stroke-dasharray="5,2" d="M308,-214.78C308,-185.8 308,-126.34 308,-84.4"/>
<polygon fill="black" stroke="black" points="311.5,-84.14 308,-74.14 304.5,-84.14 311.5,-84.14"/>
</g>
<!-- quadrantME -->
<g id="node43" class="node">
<title>quadrantME</title>
<text text-anchor="start" x="791.5" y="-157.8" font-family="Times New Roman,serif" font-weight="bold" font-size="14.00">Middle</text>
<text text-anchor="start" x="790" y="-143.8" font-family="Times New Roman,serif" font-weight="bold" font-size="14.00">English</text>
<text text-anchor="start" x="788.5" y="-129.8" font-family="Times New Roman,serif" font-size="14.00" fill="red">quadrant</text>
<text text-anchor="start" x="776.5" y="-117.4" font-family="Times New Roman,serif" font-size="12.00">quarter of a day</text>
</g>
<!-- quadransL&#45;&gt;quadrantME -->
<g id="edge41" class="edge">
<title>quadransL&#45;&gt;quadrantME</title>
<path fill="none" stroke="black" stroke-dasharray="5,2" d="M788.09,-668.75C791.76,-636.86 799,-566.51 799,-507 799,-507 799,-507 799,-323 799,-274.52 804.05,-218.95 808.09,-182.32"/>
<polygon fill="black" stroke="black" points="811.6,-182.38 809.25,-172.05 804.65,-181.59 811.6,-182.38"/>
</g>
<!-- quadrant -->
<g id="node44" class="node">
<title>quadrant</title>
<text text-anchor="start" x="788.5" y="-47.8" font-family="Times New Roman,serif" font-weight="bold" font-size="14.00">Modern</text>
<text text-anchor="start" x="790" y="-33.8" font-family="Times New Roman,serif" font-weight="bold" font-size="14.00">English</text>
<text text-anchor="start" x="788.5" y="-19.8" font-family="Times New Roman,serif" font-size="14.00" fill="red">quadrant</text>
</g>
<!-- quadrantME&#45;&gt;quadrant -->
<g id="edge42" class="edge">
<title>quadrantME&#45;&gt;quadrant</title>
<path fill="none" stroke="black" d="M813,-109.95C813,-98.13 813,-84.5 813,-72.3"/>
<polygon fill="black" stroke="black" points="816.5,-72.03 813,-62.03 809.5,-72.03 816.5,-72.03"/>
</g>
<!-- quarantaI -->
<g id="node46" class="node">
<title>quarantaI</title>
<text text-anchor="start" x="956" y="-242.8" font-family="Times New Roman,serif" font-weight="bold" font-size="14.00">Italian</text>
<text text-anchor="start" x="934.5" y="-228.8" font-family="Times New Roman,serif" font-size="14.00" fill="red">quaranta giorni</text>
<text text-anchor="start" x="953" y="-216.4" font-family="Times New Roman,serif" font-size="12.00">forty days</text>
</g>
<!-- quadragintaL&#45;&gt;quarantaI -->
<g id="edge45" class="edge">
<title>quadragintaL&#45;&gt;quarantaI</title>
<path fill="none" stroke="black" d="M970.38,-571.87C971.41,-510 974.23,-340.48 975.44,-267.8"/>
<polygon fill="black" stroke="black" points="978.94,-267.46 975.61,-257.41 971.95,-267.35 978.94,-267.46"/>
</g>
<!-- quarantinaI -->
<g id="node47" class="node">
<title>quarantinaI</title>
<text text-anchor="start" x="952" y="-137.3" font-family="Times New Roman,serif" font-size="14.00" fill="red">quarantina</text>
</g>
<!-- quarantaI&#45;&gt;quarantinaI -->
<g id="edge46" class="edge">
<title>quarantaI&#45;&gt;quarantinaI</title>
<path fill="none" stroke="black" d="M977.29,-208.82C977.96,-196.7 978.79,-181.78 979.49,-169.12"/>
<polygon fill="black" stroke="black" points="982.99,-169.31 980.05,-159.13 976,-168.92 982.99,-169.31"/>
</g>
<!-- quarantine -->
<g id="node48" class="node">
<title>quarantine</title>
<text text-anchor="start" x="959.5" y="-47.8" font-family="Times New Roman,serif" font-weight="bold" font-size="14.00">Modern</text>
<text text-anchor="start" x="961" y="-33.8" font-family="Times New Roman,serif" font-weight="bold" font-size="14.00">English</text>
<text text-anchor="start" x="955" y="-19.8" font-family="Times New Roman,serif" font-size="14.00" fill="red">quarantine</text>
</g>
<!-- quarantinaI&#45;&gt;quarantine -->
<g id="edge47" class="edge">
<title>quarantinaI&#45;&gt;quarantine</title>
<path fill="none" stroke="black" stroke-dasharray="5,2" d="M981.51,-122.7C981.91,-108.95 982.49,-89.3 982.99,-72.38"/>
<polygon fill="black" stroke="black" points="986.49,-72.38 983.29,-62.28 979.49,-72.17 986.49,-72.38"/>
</g>
</g>
</svg>
