<?xml version="1.0" encoding="UTF-8" standalone="no"?>
<!DOCTYPE svg PUBLIC "-//W3C//DTD SVG 1.1//EN"
 "http://www.w3.org/Graphics/SVG/1.1/DTD/svg11.dtd">
<!-- Generated by graphviz version 2.49.0 (20210828.1703)
 -->
<!-- Pages: 1 -->
<svg width="1196pt" height="748pt"
 viewBox="0.00 0.00 1195.50 748.00" xmlns="http://www.w3.org/2000/svg" xmlns:xlink="http://www.w3.org/1999/xlink">
<g id="graph0" class="graph" transform="scale(1 1) rotate(0) translate(4 744)">
<polygon fill="white" stroke="transparent" points="-4,4 -4,-744 1191.5,-744 1191.5,4 -4,4"/>
<g id="clust3" class="cluster">
<title>cluster_cz</title>
<path fill="none" stroke="black" stroke-dasharray="5,2" d="M1011.5,-8C1011.5,-8 1167.5,-8 1167.5,-8 1173.5,-8 1179.5,-14 1179.5,-20 1179.5,-20 1179.5,-526 1179.5,-526 1179.5,-532 1173.5,-538 1167.5,-538 1167.5,-538 1011.5,-538 1011.5,-538 1005.5,-538 999.5,-532 999.5,-526 999.5,-526 999.5,-20 999.5,-20 999.5,-14 1005.5,-8 1011.5,-8"/>
</g>
<!-- kwetwer -->
<g id="node1" class="node">
<title>kwetwer</title>
<g id="a_node1"><a xlink:href="kwetwer-four0.svg" xlink:title="&lt;font point&#45;size=&quot;24&quot;&gt;&lt;b&gt;Indo&#45;&lt;br/&gt;European&lt;/b&gt;&lt;/font&gt;&lt;br/&gt;&lt;font color=&quot;red&quot; point&#45;size=&quot;18&quot;&gt;kʷetwer&#45;&lt;/font&gt;&lt;br/&gt;&lt;font point&#45;size=&quot;16&quot;&gt;four&lt;/font&gt;">
<path fill="none" stroke="black" stroke-dasharray="5,2" d="M420.5,-740C420.5,-740 326.5,-740 326.5,-740 320.5,-740 314.5,-734 314.5,-728 314.5,-728 314.5,-662 314.5,-662 314.5,-656 320.5,-650 326.5,-650 326.5,-650 420.5,-650 420.5,-650 426.5,-650 432.5,-656 432.5,-662 432.5,-662 432.5,-728 432.5,-728 432.5,-734 426.5,-740 420.5,-740"/>
<text text-anchor="start" x="345.5" y="-717.8" font-family="Times New Roman,serif" font-weight="bold" font-size="24.00">Indo&#45;</text>
<text text-anchor="start" x="322.5" y="-693.8" font-family="Times New Roman,serif" font-weight="bold" font-size="24.00">European</text>
<text text-anchor="start" x="341.5" y="-674.6" font-family="Times New Roman,serif" font-size="18.00" fill="red">kʷetwer&#45;</text>
<text text-anchor="start" x="359.5" y="-658.2" font-family="Times New Roman,serif" font-size="16.00">four</text>
</a>
</g>
</g>
<!-- kwetwor -->
<g id="node2" class="node">
<title>kwetwor</title>
<text text-anchor="start" x="636" y="-586.3" font-family="Times New Roman,serif" font-size="14.00" fill="red">kʷetwor&#45;</text>
</g>
<!-- kwetwer&#45;&gt;kwetwor -->
<g id="edge1" class="edge">
<title>kwetwer&#45;&gt;kwetwor</title>
<path fill="none" stroke="black" d="M386.5,-649C386.5,-649 541.21,-616.25 618.12,-599.97"/>
<polygon fill="black" stroke="black" points="618.93,-603.38 627.99,-597.88 617.48,-596.53 618.93,-603.38"/>
</g>
<!-- kweturto -->
<g id="node3" class="node">
<title>kweturto</title>
<text text-anchor="start" x="266" y="-592.8" font-family="Times New Roman,serif" font-size="14.00" fill="red">kʷetur&#45;to&#45;</text>
<text text-anchor="start" x="280" y="-580.4" font-family="Times New Roman,serif" font-size="12.00">fourth</text>
</g>
<!-- kwetwer&#45;&gt;kweturto -->
<g id="edge2" class="edge">
<title>kwetwer&#45;&gt;kweturto</title>
<path fill="none" stroke="black" d="M386.5,-649C386.5,-649 355.69,-629.79 329.54,-613.48"/>
<polygon fill="black" stroke="black" points="331.24,-610.41 320.9,-608.09 327.53,-616.35 331.24,-610.41"/>
</g>
<!-- cathwaroOI -->
<g id="node4" class="node">
<title>cathwaroOI</title>
<g id="a_node4"><a xlink:href="czardas.svg" xlink:title="&lt;b&gt;Old Iranian&lt;/b&gt;&lt;br/&gt;&lt;font color=&quot;red&quot;&gt;cathwārō&lt;/font&gt;">
<text text-anchor="start" x="1015.5" y="-509.8" font-family="Times New Roman,serif" font-weight="bold" font-size="14.00">Old Iranian</text>
<text text-anchor="start" x="1025.5" y="-495.8" font-family="Times New Roman,serif" font-size="14.00" fill="red">cathwārō</text>
</a>
</g>
</g>
<!-- kwetwor&#45;&gt;cathwaroOI -->
<g id="edge3" class="edge">
<title>kwetwor&#45;&gt;cathwaroOI</title>
<path fill="none" stroke="black" d="M665.5,-571C665.5,-571 891.05,-533.6 997.32,-515.98"/>
<polygon fill="black" stroke="black" points="997.93,-519.43 1007.22,-514.34 996.78,-512.52 997.93,-519.43"/>
</g>
<!-- fedworGm -->
<g id="node12" class="node">
<title>fedworGm</title>
<text text-anchor="start" x="462" y="-509.8" font-family="Times New Roman,serif" font-weight="bold" font-size="14.00">Germanic</text>
<text text-anchor="start" x="465.5" y="-495.8" font-family="Times New Roman,serif" font-size="14.00" fill="red">fe(d)wor&#45;</text>
</g>
<!-- kwetwor&#45;&gt;fedworGm -->
<g id="edge9" class="edge">
<title>kwetwor&#45;&gt;fedworGm</title>
<path fill="none" stroke="black" d="M665.5,-571C665.5,-571 548.02,-537.64 513.15,-527.74"/>
<polygon fill="black" stroke="black" points="514.08,-524.36 503.5,-525 512.16,-531.1 514.08,-524.36"/>
</g>
<!-- quattuorL -->
<g id="node24" class="node">
<title>quattuorL</title>
<text text-anchor="start" x="674" y="-509.8" font-family="Times New Roman,serif" font-weight="bold" font-size="14.00">Latin</text>
<text text-anchor="start" x="667" y="-495.8" font-family="Times New Roman,serif" font-size="14.00" fill="red">quattuor</text>
</g>
<!-- kwetwor&#45;&gt;quattuorL -->
<g id="edge23" class="edge">
<title>kwetwor&#45;&gt;quattuorL</title>
<path fill="none" stroke="black" d="M665.5,-571C665.5,-571 673.26,-551.14 680.13,-533.55"/>
<polygon fill="black" stroke="black" points="683.42,-534.74 683.8,-524.15 676.9,-532.19 683.42,-534.74"/>
</g>
<!-- fedworthonGm -->
<g id="node39" class="node">
<title>fedworthonGm</title>
<text text-anchor="start" x="121" y="-509.8" font-family="Times New Roman,serif" font-weight="bold" font-size="14.00">Germanic</text>
<text text-anchor="start" x="112" y="-495.8" font-family="Times New Roman,serif" font-size="14.00" fill="red">fe(d)worthōn&#45;</text>
</g>
<!-- kweturto&#45;&gt;fedworthonGm -->
<g id="edge40" class="edge">
<title>kweturto&#45;&gt;fedworthonGm</title>
<path fill="none" stroke="black" d="M263.73,-571.81C242.34,-559.46 213.3,-542.69 190.12,-529.3"/>
<polygon fill="black" stroke="black" points="191.64,-526.14 181.23,-524.17 188.14,-532.2 191.64,-526.14"/>
</g>
<!-- quartusL -->
<g id="node46" class="node">
<title>quartusL</title>
<text text-anchor="start" x="277" y="-424.8" font-family="Times New Roman,serif" font-weight="bold" font-size="14.00">Latin</text>
<text text-anchor="start" x="251.5" y="-410.8" font-family="Times New Roman,serif" font-size="14.00" fill="red">quārtus, quārta</text>
</g>
<!-- kweturto&#45;&gt;quartusL -->
<g id="edge47" class="edge">
<title>kweturto&#45;&gt;quartusL</title>
<path fill="none" stroke="black" d="M293.5,-571.76C293.5,-542.88 293.5,-484.5 293.5,-449.78"/>
<polygon fill="black" stroke="black" points="297,-449.4 293.5,-439.4 290,-449.4 297,-449.4"/>
</g>
<!-- taqAr -->
<g id="node33" class="node">
<title>taqAr</title>
<g id="a_node33"><a xlink:href="czardas.svg" xlink:title="&lt;font color=&quot;green&quot;&gt;&lt;b&gt;Arabic&lt;/b&gt;&lt;/font&gt;&lt;br/&gt;&lt;font color=&quot;red&quot;&gt;ṭāq&lt;/font&gt;&lt;br/&gt;&lt;font point&#45;size=&quot;12&quot;&gt;arch&lt;/font&gt;">
<text text-anchor="start" x="1121.5" y="-515.8" font-family="Times New Roman,serif" font-weight="bold" font-size="14.00" fill="green">Arabic</text>
<text text-anchor="start" x="1133.5" y="-501.8" font-family="Times New Roman,serif" font-size="14.00" fill="red">ṭāq</text>
<text text-anchor="start" x="1132.5" y="-489.4" font-family="Times New Roman,serif" font-size="12.00">arch</text>
</a>
</g>
</g>
<!-- cathwaroOI&#45;&gt;taqAr -->
<!-- chartaqP -->
<g id="node34" class="node">
<title>chartaqP</title>
<g id="a_node34"><a xlink:href="czardas.svg" xlink:title="&lt;b&gt;Persian&lt;/b&gt;&lt;br/&gt;&lt;font color=&quot;red&quot;&gt;chahār ṭāq&lt;br/&gt;chār ṭāq&lt;/font&gt;">
<text text-anchor="start" x="1067" y="-431.8" font-family="Times New Roman,serif" font-weight="bold" font-size="14.00">Persian</text>
<text text-anchor="start" x="1061.5" y="-417.8" font-family="Times New Roman,serif" font-size="14.00" fill="red">chahār ṭāq</text>
<text text-anchor="start" x="1067.5" y="-403.8" font-family="Times New Roman,serif" font-size="14.00" fill="red">chār ṭāq</text>
</a>
</g>
</g>
<!-- cathwaroOI&#45;&gt;chartaqP -->
<g id="edge33" class="edge">
<title>cathwaroOI&#45;&gt;chartaqP</title>
<path fill="none" stroke="black" d="M1063.28,-487.91C1070.66,-477.22 1079.84,-463.91 1085.68,-455.43"/>
<polygon fill="black" stroke="black" points="1088.7,-457.22 1091.5,-447 1082.94,-453.25 1088.7,-457.22"/>
</g>
<!-- dekmIE -->
<g id="node5" class="node">
<title>dekmIE</title>
<g id="a_node5"><a xlink:href="dekm-ten.svg" xlink:title="&lt;b&gt;Indo&#45;&lt;br/&gt;European&lt;/b&gt;&lt;br/&gt;&lt;font color=&quot;red&quot;&gt;dekm̥&lt;/font&gt;&lt;br/&gt;&lt;font point&#45;size=&quot;12&quot;&gt;ten&lt;/font&gt;">
<path fill="none" stroke="black" stroke-dasharray="5,2" d="M710,-726C710,-726 657,-726 657,-726 651,-726 645,-720 645,-714 645,-714 645,-676 645,-676 645,-670 651,-664 657,-664 657,-664 710,-664 710,-664 716,-664 722,-670 722,-676 722,-676 722,-714 722,-714 722,-720 716,-726 710,-726"/>
<text text-anchor="start" x="667" y="-711.8" font-family="Times New Roman,serif" font-weight="bold" font-size="14.00">Indo&#45;</text>
<text text-anchor="start" x="653" y="-697.8" font-family="Times New Roman,serif" font-weight="bold" font-size="14.00">European</text>
<text text-anchor="start" x="668" y="-683.8" font-family="Times New Roman,serif" font-size="14.00" fill="red">dekm̥</text>
<text text-anchor="start" x="676.5" y="-671.4" font-family="Times New Roman,serif" font-size="12.00">ten</text>
</a>
</g>
</g>
<!-- tehunGm -->
<g id="node6" class="node">
<title>tehunGm</title>
<text text-anchor="start" x="569" y="-509.8" font-family="Times New Roman,serif" font-weight="bold" font-size="14.00">Germanic</text>
<text text-anchor="start" x="584" y="-495.8" font-family="Times New Roman,serif" font-size="14.00" fill="red">tehun</text>
</g>
<!-- dekmIE&#45;&gt;tehunGm -->
<g id="edge4" class="edge">
<title>dekmIE&#45;&gt;tehunGm</title>
<path fill="none" stroke="black" d="M687.5,-663C687.5,-663 638.62,-645.78 618.5,-614 603.34,-590.06 599.43,-557.37 598.78,-534.45"/>
<polygon fill="black" stroke="black" points="602.28,-534.33 598.69,-524.36 595.28,-534.4 602.28,-534.33"/>
</g>
<!-- kmtomIE -->
<g id="node8" class="node">
<title>kmtomIE</title>
<text text-anchor="start" x="719.5" y="-592.8" font-family="Times New Roman,serif" font-size="14.00" fill="red">dkm̥&#45;tom, km̥tom</text>
<text text-anchor="start" x="750" y="-580.4" font-family="Times New Roman,serif" font-size="12.00">hundred</text>
</g>
<!-- dekmIE&#45;&gt;kmtomIE -->
<g id="edge6" class="edge">
<title>dekmIE&#45;&gt;kmtomIE</title>
<path fill="none" stroke="black" d="M687.5,-663C687.5,-663 718.05,-635.84 741.63,-614.88"/>
<polygon fill="black" stroke="black" points="744.16,-617.32 749.3,-608.06 739.5,-612.09 744.16,-617.32"/>
</g>
<!-- teneOE -->
<g id="node7" class="node">
<title>teneOE</title>
<text text-anchor="start" x="563" y="-424.8" font-family="Times New Roman,serif" font-weight="bold" font-size="14.00">Old English</text>
<text text-anchor="start" x="551.5" y="-410.8" font-family="Times New Roman,serif" font-size="14.00" fill="red">&#45;tēne, &#45;tīne, &#45;tȳne</text>
</g>
<!-- tehunGm&#45;&gt;teneOE -->
<g id="edge5" class="edge">
<title>tehunGm&#45;&gt;teneOE</title>
<path fill="none" stroke="black" d="M599.5,-487.8C599.5,-476.67 599.5,-461.94 599.5,-449.24"/>
<polygon fill="black" stroke="black" points="603,-449.18 599.5,-439.18 596,-449.18 603,-449.18"/>
</g>
<!-- feowerteneOE -->
<g id="node19" class="node">
<title>feowerteneOE</title>
<text text-anchor="start" x="553" y="-337.8" font-family="Times New Roman,serif" font-size="14.00" fill="red">fēowertēne</text>
<text text-anchor="start" x="565" y="-325.4" font-family="Times New Roman,serif" font-size="12.00">fourteen</text>
</g>
<!-- teneOE&#45;&gt;feowerteneOE -->
<g id="edge18" class="edge">
<title>teneOE&#45;&gt;feowerteneOE</title>
<path fill="none" stroke="black" d="M593.46,-402.66C589.09,-390.13 583.36,-373.69 579.8,-363.48"/>
<polygon fill="black" stroke="black" points="583.1,-362.29 576.5,-354 576.49,-364.59 583.1,-362.29"/>
</g>
<!-- centumL -->
<g id="node9" class="node">
<title>centumL</title>
<text text-anchor="start" x="752" y="-509.8" font-family="Times New Roman,serif" font-weight="bold" font-size="14.00">Latin</text>
<text text-anchor="start" x="748" y="-495.8" font-family="Times New Roman,serif" font-size="14.00" fill="red">centum</text>
</g>
<!-- kmtomIE&#45;&gt;centumL -->
<g id="edge7" class="edge">
<title>kmtomIE&#45;&gt;centumL</title>
<path fill="none" stroke="black" d="M768.5,-571.61C768.5,-560.77 768.5,-546.6 768.5,-534.29"/>
<polygon fill="black" stroke="black" points="772,-534.08 768.5,-524.08 765,-534.08 772,-534.08"/>
</g>
<!-- centoI -->
<g id="node10" class="node">
<title>centoI</title>
<text text-anchor="start" x="747.5" y="-246.8" font-family="Times New Roman,serif" font-weight="bold" font-size="14.00">Italian</text>
<text text-anchor="start" x="752" y="-232.8" font-family="Times New Roman,serif" font-size="14.00" fill="red">cento</text>
</g>
<!-- centumL&#45;&gt;centoI -->
<g id="edge8" class="edge">
<title>centumL&#45;&gt;centoI</title>
<path fill="none" stroke="black" d="M768.43,-487.88C768.26,-443.63 767.81,-325.22 767.6,-271.36"/>
<polygon fill="black" stroke="black" points="771.1,-271.17 767.57,-261.19 764.1,-271.2 771.1,-271.17"/>
</g>
<!-- milquattrocento -->
<g id="node31" class="node">
<title>milquattrocento</title>
<text text-anchor="start" x="697" y="-148.8" font-family="Times New Roman,serif" font-size="14.00" fill="red">mil quattrocento</text>
<text text-anchor="start" x="730" y="-136.4" font-family="Times New Roman,serif" font-size="12.00">1400</text>
</g>
<!-- centoI&#45;&gt;milquattrocento -->
<g id="edge30" class="edge">
<title>centoI&#45;&gt;milquattrocento</title>
<path fill="none" stroke="black" d="M761.51,-224.91C756.1,-209.49 748.34,-187.36 743.92,-174.76"/>
<polygon fill="black" stroke="black" points="747.11,-173.28 740.5,-165 740.51,-175.59 747.11,-173.28"/>
</g>
<!-- fimfGm -->
<g id="node11" class="node">
<title>fimfGm</title>
<text text-anchor="start" x="462" y="-599.8" font-family="Times New Roman,serif" font-weight="bold" font-size="14.00">Germanic</text>
<text text-anchor="start" x="481" y="-585.8" font-family="Times New Roman,serif" font-size="14.00" fill="red">fimf</text>
<text text-anchor="start" x="484.5" y="-573.4" font-family="Times New Roman,serif" font-size="12.00">five</text>
</g>
<!-- fimfGm&#45;&gt;fedworGm -->
<g id="edge10" class="edge">
<title>fimfGm&#45;&gt;fedworGm</title>
<path fill="none" stroke="black" stroke-dasharray="1,5" d="M496.47,-565.89C498.29,-555.3 500.36,-543.28 501.78,-535.04"/>
<polygon fill="none" stroke="black" points="505.26,-535.45 503.5,-525 498.36,-534.26 505.26,-535.45"/>
</g>
<!-- feowerOE -->
<g id="node13" class="node">
<title>feowerOE</title>
<text text-anchor="start" x="444" y="-424.8" font-family="Times New Roman,serif" font-weight="bold" font-size="14.00">Old English</text>
<text text-anchor="start" x="461" y="-410.8" font-family="Times New Roman,serif" font-size="14.00" fill="red">fēower</text>
</g>
<!-- fedworGm&#45;&gt;feowerOE -->
<g id="edge11" class="edge">
<title>fedworGm&#45;&gt;feowerOE</title>
<path fill="none" stroke="black" d="M490.01,-487.8C488.4,-476.67 486.28,-461.94 484.44,-449.24"/>
<polygon fill="black" stroke="black" points="487.88,-448.57 482.98,-439.18 480.95,-449.57 487.88,-448.57"/>
</g>
<!-- fourME -->
<g id="node14" class="node">
<title>fourME</title>
<text text-anchor="start" x="459" y="-253.8" font-family="Times New Roman,serif" font-weight="bold" font-size="14.00">Middle</text>
<text text-anchor="start" x="457.5" y="-239.8" font-family="Times New Roman,serif" font-weight="bold" font-size="14.00">English</text>
<text text-anchor="start" x="468.5" y="-225.8" font-family="Times New Roman,serif" font-size="14.00" fill="red">four</text>
</g>
<!-- feowerOE&#45;&gt;fourME -->
<g id="edge12" class="edge">
<title>feowerOE&#45;&gt;fourME</title>
<path fill="none" stroke="black" d="M481.5,-402C481.5,-402 481.01,-325.11 480.72,-278.6"/>
<polygon fill="black" stroke="black" points="484.22,-278.32 480.65,-268.34 477.22,-278.36 484.22,-278.32"/>
</g>
<!-- feowertigOE -->
<g id="node16" class="node">
<title>feowertigOE</title>
<text text-anchor="start" x="391.5" y="-337.8" font-family="Times New Roman,serif" font-size="14.00" fill="red">fēowertig</text>
<text text-anchor="start" x="406.5" y="-325.4" font-family="Times New Roman,serif" font-size="12.00">forty</text>
</g>
<!-- feowerOE&#45;&gt;feowertigOE -->
<g id="edge14" class="edge">
<title>feowerOE&#45;&gt;feowertigOE</title>
<path fill="none" stroke="black" d="M481.5,-402C481.5,-402 459.5,-379.32 441.3,-360.55"/>
<polygon fill="black" stroke="black" points="443.79,-358.08 434.32,-353.34 438.76,-362.96 443.79,-358.08"/>
</g>
<!-- feowerOE&#45;&gt;feowerteneOE -->
<g id="edge17" class="edge">
<title>feowerOE&#45;&gt;feowerteneOE</title>
<path fill="none" stroke="black" d="M481.5,-402C481.5,-402 543.61,-370.62 567.39,-358.6"/>
<polygon fill="black" stroke="black" points="569.15,-361.63 576.5,-354 566,-355.39 569.15,-361.63"/>
</g>
<!-- four -->
<g id="node15" class="node">
<title>four</title>
<text text-anchor="start" x="456" y="-51.8" font-family="Times New Roman,serif" font-weight="bold" font-size="14.00">Modern</text>
<text text-anchor="start" x="457.5" y="-37.8" font-family="Times New Roman,serif" font-weight="bold" font-size="14.00">English</text>
<text text-anchor="start" x="468.5" y="-23.8" font-family="Times New Roman,serif" font-size="14.00" fill="red">four</text>
</g>
<!-- fourME&#45;&gt;four -->
<g id="edge13" class="edge">
<title>fourME&#45;&gt;four</title>
<path fill="none" stroke="black" d="M480.5,-217.88C480.5,-182.59 480.5,-116.72 480.5,-76.37"/>
<polygon fill="black" stroke="black" points="484,-76.21 480.5,-66.21 477,-76.21 484,-76.21"/>
</g>
<!-- fortyME -->
<g id="node17" class="node">
<title>fortyME</title>
<text text-anchor="start" x="378" y="-253.8" font-family="Times New Roman,serif" font-weight="bold" font-size="14.00">Middle</text>
<text text-anchor="start" x="376.5" y="-239.8" font-family="Times New Roman,serif" font-weight="bold" font-size="14.00">English</text>
<text text-anchor="start" x="385.5" y="-225.8" font-family="Times New Roman,serif" font-size="14.00" fill="red">forty</text>
</g>
<!-- feowertigOE&#45;&gt;fortyME -->
<g id="edge15" class="edge">
<title>feowertigOE&#45;&gt;fortyME</title>
<path fill="none" stroke="black" d="M414.03,-316.65C411.85,-305.76 408.97,-291.36 406.35,-278.25"/>
<polygon fill="black" stroke="black" points="409.71,-277.22 404.32,-268.1 402.85,-278.6 409.71,-277.22"/>
</g>
<!-- forty -->
<g id="node18" class="node">
<title>forty</title>
<text text-anchor="start" x="373" y="-51.8" font-family="Times New Roman,serif" font-weight="bold" font-size="14.00">Modern</text>
<text text-anchor="start" x="374.5" y="-37.8" font-family="Times New Roman,serif" font-weight="bold" font-size="14.00">English</text>
<text text-anchor="start" x="383.5" y="-23.8" font-family="Times New Roman,serif" font-size="14.00" fill="red">forty</text>
</g>
<!-- fortyME&#45;&gt;forty -->
<g id="edge16" class="edge">
<title>fortyME&#45;&gt;forty</title>
<path fill="none" stroke="black" d="M399.26,-217.88C398.91,-182.59 398.25,-116.72 397.84,-76.37"/>
<polygon fill="black" stroke="black" points="401.34,-76.17 397.74,-66.21 394.34,-76.24 401.34,-76.17"/>
</g>
<!-- fourteneME -->
<g id="node20" class="node">
<title>fourteneME</title>
<text text-anchor="start" x="562" y="-253.8" font-family="Times New Roman,serif" font-weight="bold" font-size="14.00">Middle</text>
<text text-anchor="start" x="560.5" y="-239.8" font-family="Times New Roman,serif" font-weight="bold" font-size="14.00">English</text>
<text text-anchor="start" x="560.5" y="-225.8" font-family="Times New Roman,serif" font-size="14.00" fill="red">fourtene</text>
</g>
<!-- feowerteneOE&#45;&gt;fourteneME -->
<g id="edge19" class="edge">
<title>feowerteneOE&#45;&gt;fourteneME</title>
<path fill="none" stroke="black" d="M583.5,-316.65C583.5,-305.76 583.5,-291.36 583.5,-278.25"/>
<polygon fill="black" stroke="black" points="587,-278.1 583.5,-268.1 580,-278.1 587,-278.1"/>
</g>
<!-- fourteen -->
<g id="node21" class="node">
<title>fourteen</title>
<text text-anchor="start" x="622" y="-51.8" font-family="Times New Roman,serif" font-weight="bold" font-size="14.00">Modern</text>
<text text-anchor="start" x="623.5" y="-37.8" font-family="Times New Roman,serif" font-weight="bold" font-size="14.00">English</text>
<text text-anchor="start" x="623.5" y="-23.8" font-family="Times New Roman,serif" font-size="14.00" fill="red">fourteen</text>
</g>
<!-- fourteneME&#45;&gt;fourteen -->
<g id="edge20" class="edge">
<title>fourteneME&#45;&gt;fourteen</title>
<path fill="none" stroke="black" d="M585.5,-217C585.5,-217 611.7,-198.04 622.5,-176 637.95,-144.48 643.55,-104.43 645.53,-76.36"/>
<polygon fill="black" stroke="black" points="649.03,-76.41 646.12,-66.23 642.04,-76 649.03,-76.41"/>
</g>
<!-- fourtenenight -->
<g id="node22" class="node">
<title>fourtenenight</title>
<text text-anchor="start" x="529" y="-148.8" font-family="Times New Roman,serif" font-size="14.00" fill="red">fourtene night</text>
<text text-anchor="start" x="534.5" y="-136.4" font-family="Times New Roman,serif" font-size="12.00">fourteen nights</text>
</g>
<!-- fourteneME&#45;&gt;fourtenenight -->
<g id="edge21" class="edge">
<title>fourteneME&#45;&gt;fourtenenight</title>
<path fill="none" stroke="black" d="M585.5,-217C585.5,-217 579.54,-193.82 574.48,-174.14"/>
<polygon fill="black" stroke="black" points="577.83,-173.12 571.95,-164.3 571.05,-174.86 577.83,-173.12"/>
</g>
<!-- fortnight -->
<g id="node23" class="node">
<title>fortnight</title>
<text text-anchor="start" x="539" y="-51.8" font-family="Times New Roman,serif" font-weight="bold" font-size="14.00">Modern</text>
<text text-anchor="start" x="540.5" y="-37.8" font-family="Times New Roman,serif" font-weight="bold" font-size="14.00">English</text>
<text text-anchor="start" x="539.5" y="-23.8" font-family="Times New Roman,serif" font-size="14.00" fill="red">fortnight</text>
</g>
<!-- fourtenenight&#45;&gt;fortnight -->
<g id="edge22" class="edge">
<title>fourtenenight&#45;&gt;fortnight</title>
<path fill="none" stroke="black" d="M566.84,-127.99C566.3,-114.08 565.52,-93.95 564.85,-76.67"/>
<polygon fill="black" stroke="black" points="568.33,-76.21 564.45,-66.36 561.34,-76.48 568.33,-76.21"/>
</g>
<!-- quatreOF -->
<g id="node25" class="node">
<title>quatreOF</title>
<text text-anchor="start" x="820.5" y="-345.8" font-family="Times New Roman,serif" font-weight="bold" font-size="14.00">Old French</text>
<text text-anchor="start" x="838" y="-331.8" font-family="Times New Roman,serif" font-size="14.00" fill="red">quatre</text>
<text text-anchor="start" x="841.5" y="-317.8" font-family="Times New Roman,serif" font-size="14.00" fill="red">catre</text>
</g>
<!-- quattuorL&#45;&gt;quatreOF -->
<g id="edge24" class="edge">
<title>quattuorL&#45;&gt;quatreOF</title>
<path fill="none" stroke="black" d="M697.5,-487C697.5,-487 776.42,-411.58 822.71,-367.34"/>
<polygon fill="black" stroke="black" points="825.3,-369.7 830.11,-360.26 820.47,-364.64 825.3,-369.7"/>
</g>
<!-- quattroI -->
<g id="node30" class="node">
<title>quattroI</title>
<text text-anchor="start" x="671.5" y="-246.8" font-family="Times New Roman,serif" font-weight="bold" font-size="14.00">Italian</text>
<text text-anchor="start" x="671.5" y="-232.8" font-family="Times New Roman,serif" font-size="14.00" fill="red">quattro</text>
</g>
<!-- quattuorL&#45;&gt;quattroI -->
<g id="edge29" class="edge">
<title>quattuorL&#45;&gt;quattroI</title>
<path fill="none" stroke="black" d="M697.5,-487C697.5,-487 693.74,-334.55 692.17,-271.15"/>
<polygon fill="black" stroke="black" points="695.67,-271 691.92,-261.09 688.67,-271.17 695.67,-271"/>
</g>
<!-- quatrainF -->
<g id="node26" class="node">
<title>quatrainF</title>
<text text-anchor="start" x="927.5" y="-252.8" font-family="Times New Roman,serif" font-weight="bold" font-size="14.00">French</text>
<text text-anchor="start" x="927" y="-238.8" font-family="Times New Roman,serif" font-size="14.00" fill="red">quatrain</text>
<text text-anchor="start" x="916" y="-226.4" font-family="Times New Roman,serif" font-size="12.00">four&#45;line poem</text>
</g>
<!-- quatreOF&#45;&gt;quatrainF -->
<g id="edge25" class="edge">
<title>quatreOF&#45;&gt;quatrainF</title>
<path fill="none" stroke="black" d="M866.5,-309C866.5,-309 890.02,-290.58 912.01,-273.36"/>
<polygon fill="black" stroke="black" points="914.29,-276.02 920,-267.1 909.97,-270.51 914.29,-276.02"/>
</g>
<!-- caterME -->
<g id="node28" class="node">
<title>caterME</title>
<text text-anchor="start" x="834" y="-259.8" font-family="Times New Roman,serif" font-weight="bold" font-size="14.00">Middle</text>
<text text-anchor="start" x="832.5" y="-245.8" font-family="Times New Roman,serif" font-weight="bold" font-size="14.00">English</text>
<text text-anchor="start" x="841.5" y="-231.8" font-family="Times New Roman,serif" font-size="14.00" fill="red">cater</text>
<text text-anchor="start" x="829.5" y="-219.4" font-family="Times New Roman,serif" font-size="12.00">four at dice</text>
</g>
<!-- quatreOF&#45;&gt;caterME -->
<g id="edge27" class="edge">
<title>quatreOF&#45;&gt;caterME</title>
<path fill="none" stroke="black" stroke-dasharray="1,5" d="M866.5,-309C866.5,-309 864.55,-297.47 862.29,-284.12"/>
<polygon fill="black" stroke="black" points="865.73,-283.49 860.61,-274.22 858.83,-284.66 865.73,-283.49"/>
</g>
<!-- quatrain -->
<g id="node27" class="node">
<title>quatrain</title>
<text text-anchor="start" x="934" y="-51.8" font-family="Times New Roman,serif" font-weight="bold" font-size="14.00">Modern</text>
<text text-anchor="start" x="935.5" y="-37.8" font-family="Times New Roman,serif" font-weight="bold" font-size="14.00">English</text>
<text text-anchor="start" x="936" y="-23.8" font-family="Times New Roman,serif" font-size="14.00" fill="red">quatrain</text>
</g>
<!-- quatrainF&#45;&gt;quatrain -->
<g id="edge26" class="edge">
<title>quatrainF&#45;&gt;quatrain</title>
<path fill="none" stroke="black" stroke-dasharray="1,5" d="M950.55,-218.67C952.13,-183.57 955.13,-117 956.95,-76.35"/>
<polygon fill="black" stroke="black" points="960.46,-76.26 957.41,-66.12 953.47,-75.95 960.46,-76.26"/>
</g>
<!-- catercorner -->
<g id="node29" class="node">
<title>catercorner</title>
<text text-anchor="start" x="832" y="-65.8" font-family="Times New Roman,serif" font-weight="bold" font-size="14.00">Modern</text>
<text text-anchor="start" x="833.5" y="-51.8" font-family="Times New Roman,serif" font-weight="bold" font-size="14.00">English</text>
<text text-anchor="start" x="813.5" y="-37.8" font-family="Times New Roman,serif" font-size="14.00" fill="red">catercorner(ed)</text>
<text text-anchor="start" x="813.5" y="-23.8" font-family="Times New Roman,serif" font-size="14.00" fill="red">cattycorner(ed)</text>
<text text-anchor="start" x="815" y="-9.8" font-family="Times New Roman,serif" font-size="14.00" fill="red">kittycorner(ed)</text>
</g>
<!-- caterME&#45;&gt;catercorner -->
<g id="edge28" class="edge">
<title>caterME&#45;&gt;catercorner</title>
<path fill="none" stroke="black" d="M855.65,-211.62C855.81,-179.46 856.07,-128.22 856.26,-90.47"/>
<polygon fill="black" stroke="black" points="859.76,-90.22 856.31,-80.2 852.76,-90.19 859.76,-90.22"/>
</g>
<!-- quattroI&#45;&gt;milquattrocento -->
<g id="edge31" class="edge">
<title>quattroI&#45;&gt;milquattrocento</title>
<path fill="none" stroke="black" d="M702.37,-224.91C712.52,-208.96 727.25,-185.82 735.1,-173.49"/>
<polygon fill="black" stroke="black" points="738.08,-175.32 740.5,-165 732.18,-171.56 738.08,-175.32"/>
</g>
<!-- quattrocento -->
<g id="node32" class="node">
<title>quattrocento</title>
<text text-anchor="start" x="718" y="-63.8" font-family="Times New Roman,serif" font-weight="bold" font-size="14.00">Modern</text>
<text text-anchor="start" x="719.5" y="-49.8" font-family="Times New Roman,serif" font-weight="bold" font-size="14.00">English</text>
<text text-anchor="start" x="707" y="-35.8" font-family="Times New Roman,serif" font-size="14.00" fill="red">quattrocento</text>
<text text-anchor="start" x="706" y="-23.4" font-family="Times New Roman,serif" font-size="12.00">15th C in Italian</text>
<text text-anchor="start" x="705.5" y="-11.4" font-family="Times New Roman,serif" font-size="12.00">art and literature</text>
</g>
<!-- milquattrocento&#45;&gt;quattrocento -->
<g id="edge32" class="edge">
<title>milquattrocento&#45;&gt;quattrocento</title>
<path fill="none" stroke="black" stroke-dasharray="1,5" d="M742.5,-127.99C742.5,-117.14 742.5,-102.51 742.5,-88.39"/>
<polygon fill="black" stroke="black" points="746,-88.27 742.5,-78.27 739,-88.27 746,-88.27"/>
</g>
<!-- taqAr&#45;&gt;chartaqP -->
<g id="edge34" class="edge">
<title>taqAr&#45;&gt;chartaqP</title>
<path fill="none" stroke="black" stroke-dasharray="1,5" d="M1122.05,-481.74C1113.51,-472.04 1104.19,-461.44 1098.12,-454.53"/>
<polygon fill="black" stroke="black" points="1100.73,-452.2 1091.5,-447 1095.47,-456.82 1100.73,-452.2"/>
</g>
<!-- cardakT -->
<g id="node35" class="node">
<title>cardakT</title>
<g id="a_node35"><a xlink:href="czardas.svg" xlink:title="&lt;font color=&quot;green&quot;&gt;&lt;b&gt;Turkish&lt;/b&gt;&lt;/font&gt;&lt;br/&gt;&lt;font color=&quot;red&quot;&gt;çardak&lt;/font&gt;&lt;br/&gt;&lt;font point&#45;size=&quot;12&quot;&gt;hut, trellis&lt;/font&gt;">
<text text-anchor="start" x="1066" y="-344.8" font-family="Times New Roman,serif" font-weight="bold" font-size="14.00" fill="green">Turkish</text>
<text text-anchor="start" x="1071.5" y="-330.8" font-family="Times New Roman,serif" font-size="14.00" fill="red">çardak</text>
<text text-anchor="start" x="1069" y="-318.4" font-family="Times New Roman,serif" font-size="12.00">hut, trellis</text>
</a>
</g>
</g>
<!-- chartaqP&#45;&gt;cardakT -->
<g id="edge35" class="edge">
<title>chartaqP&#45;&gt;cardakT</title>
<path fill="none" stroke="black" stroke-dasharray="1,5" d="M1090.5,-395.7C1090.5,-387.42 1090.5,-378 1090.5,-369.14"/>
<polygon fill="black" stroke="black" points="1094,-369.09 1090.5,-359.09 1087,-369.09 1094,-369.09"/>
</g>
<!-- cardakSC -->
<g id="node36" class="node">
<title>cardakSC</title>
<g id="a_node36"><a xlink:href="czardas.svg" xlink:title="&lt;b&gt;Serbo&#45;Croatian&lt;/b&gt;&lt;br/&gt;&lt;font color=&quot;red&quot;&gt;čardāk&lt;/font&gt;&lt;br/&gt;&lt;font point&#45;size=&quot;12&quot;&gt;watchtower&lt;/font&gt;">
<text text-anchor="start" x="1042.5" y="-252.8" font-family="Times New Roman,serif" font-weight="bold" font-size="14.00">Serbo&#45;Croatian</text>
<text text-anchor="start" x="1071.5" y="-238.8" font-family="Times New Roman,serif" font-size="14.00" fill="red">čardāk</text>
<text text-anchor="start" x="1063.5" y="-226.4" font-family="Times New Roman,serif" font-size="12.00">watchtower</text>
</a>
</g>
</g>
<!-- cardakT&#45;&gt;cardakSC -->
<g id="edge36" class="edge">
<title>cardakT&#45;&gt;cardakSC</title>
<path fill="none" stroke="black" stroke-dasharray="1,5" d="M1090.5,-310.82C1090.5,-300.64 1090.5,-288.49 1090.5,-277.36"/>
<polygon fill="black" stroke="black" points="1094,-277.1 1090.5,-267.1 1087,-277.1 1094,-277.1"/>
</g>
<!-- csardasH -->
<g id="node37" class="node">
<title>csardasH</title>
<g id="a_node37"><a xlink:href="czardas.svg" xlink:title="&lt;font color=&quot;green&quot;&gt;&lt;b&gt;Hungarian&lt;/b&gt;&lt;/font&gt;&lt;br/&gt;&lt;font color=&quot;red&quot;&gt;csárdás&lt;/font&gt;&lt;br/&gt;&lt;font point&#45;size=&quot;12&quot;&gt;style of dance&lt;br/&gt;and music&lt;/font&gt;">
<text text-anchor="start" x="1057.5" y="-161.8" font-family="Times New Roman,serif" font-weight="bold" font-size="14.00" fill="green">Hungarian</text>
<text text-anchor="start" x="1069" y="-147.8" font-family="Times New Roman,serif" font-size="14.00" fill="red">csárdás</text>
<text text-anchor="start" x="1059" y="-135.4" font-family="Times New Roman,serif" font-size="12.00">style of dance</text>
<text text-anchor="start" x="1067.5" y="-123.4" font-family="Times New Roman,serif" font-size="12.00">and music</text>
</a>
</g>
</g>
<!-- cardakSC&#45;&gt;csardasH -->
<g id="edge37" class="edge">
<title>cardakSC&#45;&gt;csardasH</title>
<path fill="none" stroke="black" stroke-dasharray="1,5" d="M1090.5,-218.52C1090.5,-208.86 1090.5,-197.4 1090.5,-186.52"/>
<polygon fill="black" stroke="black" points="1094,-186.33 1090.5,-176.34 1087,-186.34 1094,-186.33"/>
</g>
<!-- czardas -->
<g id="node38" class="node">
<title>czardas</title>
<g id="a_node38"><a xlink:href="czardas.svg" xlink:title="&lt;b&gt;Modern&lt;br/&gt;English&lt;/b&gt;&lt;br/&gt;&lt;font color=&quot;red&quot;&gt;czardas&lt;/font&gt;">
<text text-anchor="start" x="1066" y="-51.8" font-family="Times New Roman,serif" font-weight="bold" font-size="14.00">Modern</text>
<text text-anchor="start" x="1067.5" y="-37.8" font-family="Times New Roman,serif" font-weight="bold" font-size="14.00">English</text>
<text text-anchor="start" x="1069" y="-23.8" font-family="Times New Roman,serif" font-size="14.00" fill="red">czardas</text>
</a>
</g>
</g>
<!-- csardasH&#45;&gt;czardas -->
<g id="edge38" class="edge">
<title>csardasH&#45;&gt;czardas</title>
<path fill="none" stroke="black" stroke-dasharray="1,5" d="M1090.5,-115.76C1090.5,-103.49 1090.5,-89.14 1090.5,-76.37"/>
<polygon fill="black" stroke="black" points="1094,-76.1 1090.5,-66.1 1087,-76.1 1094,-76.1"/>
</g>
<!-- feorthaOE -->
<g id="node40" class="node">
<title>feorthaOE</title>
<text text-anchor="start" x="8" y="-424.8" font-family="Times New Roman,serif" font-weight="bold" font-size="14.00">Old English</text>
<text text-anchor="start" x="24.5" y="-410.8" font-family="Times New Roman,serif" font-size="14.00" fill="red">fēortha</text>
</g>
<!-- fedworthonGm&#45;&gt;feorthaOE -->
<g id="edge41" class="edge">
<title>fedworthonGm&#45;&gt;feorthaOE</title>
<path fill="none" stroke="black" d="M142.5,-487C142.5,-487 107.01,-463.46 78.74,-444.71"/>
<polygon fill="black" stroke="black" points="80.52,-441.69 70.25,-439.08 76.65,-447.52 80.52,-441.69"/>
</g>
<!-- feorthungOE -->
<g id="node43" class="node">
<title>feorthungOE</title>
<text text-anchor="start" x="115" y="-424.8" font-family="Times New Roman,serif" font-weight="bold" font-size="14.00">Old English</text>
<text text-anchor="start" x="124.5" y="-410.8" font-family="Times New Roman,serif" font-size="14.00" fill="red">fēorthung</text>
</g>
<!-- fedworthonGm&#45;&gt;feorthungOE -->
<g id="edge44" class="edge">
<title>fedworthonGm&#45;&gt;feorthungOE</title>
<path fill="none" stroke="black" d="M142.5,-487C142.5,-487 145.27,-466.97 147.74,-449.15"/>
<polygon fill="black" stroke="black" points="151.23,-449.46 149.14,-439.08 144.3,-448.5 151.23,-449.46"/>
</g>
<!-- fourtheME -->
<g id="node41" class="node">
<title>fourtheME</title>
<text text-anchor="start" x="23" y="-345.8" font-family="Times New Roman,serif" font-weight="bold" font-size="14.00">Middle</text>
<text text-anchor="start" x="21.5" y="-331.8" font-family="Times New Roman,serif" font-weight="bold" font-size="14.00">English</text>
<text text-anchor="start" x="24.5" y="-317.8" font-family="Times New Roman,serif" font-size="14.00" fill="red">fourthe</text>
</g>
<!-- feorthaOE&#45;&gt;fourtheME -->
<g id="edge42" class="edge">
<title>feorthaOE&#45;&gt;fourtheME</title>
<path fill="none" stroke="black" d="M44.5,-402.6C44.5,-393.27 44.5,-381.45 44.5,-370.37"/>
<polygon fill="black" stroke="black" points="48,-370.07 44.5,-360.07 41,-370.07 48,-370.07"/>
</g>
<!-- fourth -->
<g id="node42" class="node">
<title>fourth</title>
<text text-anchor="start" x="20" y="-51.8" font-family="Times New Roman,serif" font-weight="bold" font-size="14.00">Modern</text>
<text text-anchor="start" x="21.5" y="-37.8" font-family="Times New Roman,serif" font-weight="bold" font-size="14.00">English</text>
<text text-anchor="start" x="27.5" y="-23.8" font-family="Times New Roman,serif" font-size="14.00" fill="red">fourth</text>
</g>
<!-- fourtheME&#45;&gt;fourth -->
<g id="edge43" class="edge">
<title>fourtheME&#45;&gt;fourth</title>
<path fill="none" stroke="black" d="M44.5,-309.61C44.5,-257.63 44.5,-135.84 44.5,-76.17"/>
<polygon fill="black" stroke="black" points="48,-76.12 44.5,-66.12 41,-76.12 48,-76.12"/>
</g>
<!-- ferthingME -->
<g id="node44" class="node">
<title>ferthingME</title>
<text text-anchor="start" x="118" y="-345.8" font-family="Times New Roman,serif" font-weight="bold" font-size="14.00">Middle</text>
<text text-anchor="start" x="116.5" y="-331.8" font-family="Times New Roman,serif" font-weight="bold" font-size="14.00">English</text>
<text text-anchor="start" x="118" y="-317.8" font-family="Times New Roman,serif" font-size="14.00" fill="red">ferthing</text>
</g>
<!-- feorthungOE&#45;&gt;ferthingME -->
<g id="edge45" class="edge">
<title>feorthungOE&#45;&gt;ferthingME</title>
<path fill="none" stroke="black" d="M149.01,-402.6C147.67,-393.18 145.96,-381.21 144.36,-370.03"/>
<polygon fill="black" stroke="black" points="147.82,-369.48 142.94,-360.07 140.89,-370.47 147.82,-369.48"/>
</g>
<!-- farthing -->
<g id="node45" class="node">
<title>farthing</title>
<text text-anchor="start" x="115" y="-51.8" font-family="Times New Roman,serif" font-weight="bold" font-size="14.00">Modern</text>
<text text-anchor="start" x="116.5" y="-37.8" font-family="Times New Roman,serif" font-weight="bold" font-size="14.00">English</text>
<text text-anchor="start" x="118" y="-23.8" font-family="Times New Roman,serif" font-size="14.00" fill="red">farthing</text>
</g>
<!-- ferthingME&#45;&gt;farthing -->
<g id="edge46" class="edge">
<title>ferthingME&#45;&gt;farthing</title>
<path fill="none" stroke="black" d="M139.5,-309.61C139.5,-257.63 139.5,-135.84 139.5,-76.17"/>
<polygon fill="black" stroke="black" points="143,-76.12 139.5,-66.12 136,-76.12 143,-76.12"/>
</g>
<!-- quarteOF -->
<g id="node47" class="node">
<title>quarteOF</title>
<text text-anchor="start" x="286.5" y="-338.8" font-family="Times New Roman,serif" font-weight="bold" font-size="14.00">Old French</text>
<text text-anchor="start" x="304" y="-324.8" font-family="Times New Roman,serif" font-size="14.00" fill="red">quarte</text>
</g>
<!-- quartusL&#45;&gt;quarteOF -->
<g id="edge48" class="edge">
<title>quartusL&#45;&gt;quarteOF</title>
<path fill="none" stroke="black" d="M290.5,-402C290.5,-402 300.41,-380.89 309.03,-362.55"/>
<polygon fill="black" stroke="black" points="312.27,-363.88 313.36,-353.34 305.94,-360.9 312.27,-363.88"/>
</g>
<!-- quartariusL -->
<g id="node50" class="node">
<title>quartariusL</title>
<text text-anchor="start" x="208" y="-338.8" font-family="Times New Roman,serif" font-weight="bold" font-size="14.00">Latin</text>
<text text-anchor="start" x="197" y="-324.8" font-family="Times New Roman,serif" font-size="14.00" fill="red">quārtārius</text>
</g>
<!-- quartusL&#45;&gt;quartariusL -->
<g id="edge51" class="edge">
<title>quartusL&#45;&gt;quartariusL</title>
<path fill="none" stroke="black" d="M290.5,-402C290.5,-402 267.82,-379.32 249.05,-360.55"/>
<polygon fill="black" stroke="black" points="251.39,-357.94 241.84,-353.34 246.44,-362.89 251.39,-357.94"/>
</g>
<!-- quartME -->
<g id="node48" class="node">
<title>quartME</title>
<text text-anchor="start" x="296" y="-253.8" font-family="Times New Roman,serif" font-weight="bold" font-size="14.00">Middle</text>
<text text-anchor="start" x="294.5" y="-239.8" font-family="Times New Roman,serif" font-weight="bold" font-size="14.00">English</text>
<text text-anchor="start" x="303" y="-225.8" font-family="Times New Roman,serif" font-size="14.00" fill="red">quart</text>
</g>
<!-- quarteOF&#45;&gt;quartME -->
<g id="edge49" class="edge">
<title>quarteOF&#45;&gt;quartME</title>
<path fill="none" stroke="black" stroke-dasharray="1,5" d="M320.73,-316.65C320.25,-305.76 319.6,-291.36 319.02,-278.25"/>
<polygon fill="black" stroke="black" points="322.51,-277.94 318.57,-268.1 315.52,-278.25 322.51,-277.94"/>
</g>
<!-- quart -->
<g id="node49" class="node">
<title>quart</title>
<text text-anchor="start" x="290" y="-51.8" font-family="Times New Roman,serif" font-weight="bold" font-size="14.00">Modern</text>
<text text-anchor="start" x="291.5" y="-37.8" font-family="Times New Roman,serif" font-weight="bold" font-size="14.00">English</text>
<text text-anchor="start" x="300" y="-23.8" font-family="Times New Roman,serif" font-size="14.00" fill="red">quart</text>
</g>
<!-- quartME&#45;&gt;quart -->
<g id="edge50" class="edge">
<title>quartME&#45;&gt;quart</title>
<path fill="none" stroke="black" d="M317.14,-217.88C316.61,-182.59 315.62,-116.72 315.02,-76.37"/>
<polygon fill="black" stroke="black" points="318.51,-76.16 314.86,-66.21 311.51,-76.26 318.51,-76.16"/>
</g>
<!-- quartierOF -->
<g id="node51" class="node">
<title>quartierOF</title>
<text text-anchor="start" x="189.5" y="-246.8" font-family="Times New Roman,serif" font-weight="bold" font-size="14.00">Old French</text>
<text text-anchor="start" x="203" y="-232.8" font-family="Times New Roman,serif" font-size="14.00" fill="red">quartier</text>
</g>
<!-- quartariusL&#45;&gt;quartierOF -->
<g id="edge52" class="edge">
<title>quartariusL&#45;&gt;quartierOF</title>
<path fill="none" stroke="black" d="M224.5,-316.65C224.5,-303.82 224.5,-286.11 224.5,-271.38"/>
<polygon fill="black" stroke="black" points="228,-271.3 224.5,-261.3 221,-271.3 228,-271.3"/>
</g>
<!-- quarterME -->
<g id="node52" class="node">
<title>quarterME</title>
<text text-anchor="start" x="203" y="-156.8" font-family="Times New Roman,serif" font-weight="bold" font-size="14.00">Middle</text>
<text text-anchor="start" x="201.5" y="-142.8" font-family="Times New Roman,serif" font-weight="bold" font-size="14.00">English</text>
<text text-anchor="start" x="204.5" y="-128.8" font-family="Times New Roman,serif" font-size="14.00" fill="red">quarter</text>
</g>
<!-- quartierOF&#45;&gt;quarterME -->
<g id="edge53" class="edge">
<title>quartierOF&#45;&gt;quarterME</title>
<path fill="none" stroke="black" stroke-dasharray="1,5" d="M224.5,-224.58C224.5,-212.51 224.5,-196.04 224.5,-181.38"/>
<polygon fill="black" stroke="black" points="228,-181.11 224.5,-171.11 221,-181.11 228,-181.11"/>
</g>
<!-- quarter -->
<g id="node53" class="node">
<title>quarter</title>
<text text-anchor="start" x="200" y="-51.8" font-family="Times New Roman,serif" font-weight="bold" font-size="14.00">Modern</text>
<text text-anchor="start" x="201.5" y="-37.8" font-family="Times New Roman,serif" font-weight="bold" font-size="14.00">English</text>
<text text-anchor="start" x="204.5" y="-23.8" font-family="Times New Roman,serif" font-size="14.00" fill="red">quarter</text>
</g>
<!-- quarterME&#45;&gt;quarter -->
<g id="edge54" class="edge">
<title>quarterME&#45;&gt;quarter</title>
<path fill="none" stroke="black" d="M224.5,-120.85C224.5,-107.65 224.5,-91.06 224.5,-76.51"/>
<polygon fill="black" stroke="black" points="228,-76.35 224.5,-66.35 221,-76.35 228,-76.35"/>
</g>
</g>
</svg>
