<?xml version="1.0" encoding="UTF-8" standalone="no"?>
<!DOCTYPE svg PUBLIC "-//W3C//DTD SVG 1.1//EN"
 "http://www.w3.org/Graphics/SVG/1.1/DTD/svg11.dtd">
<!-- Generated by graphviz version 2.49.0 (20210828.1703)
 -->
<!-- Pages: 1 -->
<svg width="881pt" height="730pt"
 viewBox="0.00 0.00 881.00 730.00" xmlns="http://www.w3.org/2000/svg" xmlns:xlink="http://www.w3.org/1999/xlink">
<g id="graph0" class="graph" transform="scale(1 1) rotate(0) translate(4 726)">
<polygon fill="white" stroke="transparent" points="-4,4 -4,-726 877,-726 877,4 -4,4"/>
<!-- kwetwer -->
<g id="node1" class="node">
<title>kwetwer</title>
<g id="a_node1"><a xlink:title="Indo&#45;European &quot;kʷetwer&#45;&quot; four">
<polygon fill="none" stroke="black" points="215,-718 4,-718 4,-614 215,-614 215,-718"/>
<polygon fill="none" stroke="black" points="219,-722 0,-722 0,-610 219,-610 219,-722"/>
<text text-anchor="start" x="31.5" y="-673.8" font-family="Times New Roman,serif" font-weight="bold" font-size="24.00">Indo&#45;European</text>
<text text-anchor="start" x="45.5" y="-645.6" font-family="Times New Roman,serif" font-size="18.00" fill="red">kʷetwer&#45;</text>
<text text-anchor="start" x="146" y="-646.2" font-family="Times New Roman,serif" font-size="16.00">four</text>
</a>
</g>
</g>
<!-- fedworGm -->
<g id="node8" class="node">
<title>fedworGm</title>
<text text-anchor="start" x="137" y="-467.8" font-family="Times New Roman,serif" font-weight="bold" font-size="14.00">Germanic</text>
<text text-anchor="start" x="140.5" y="-453.8" font-family="Times New Roman,serif" font-size="14.00" fill="red">fe(d)wor&#45;</text>
</g>
<!-- kwetwer&#45;&gt;fedworGm -->
<g id="edge5" class="edge">
<title>kwetwer&#45;&gt;fedworGm</title>
<path fill="none" stroke="black" d="M111.21,-609.7C113.46,-583.11 118.3,-551.17 128.5,-524 132.94,-512.17 140.11,-500.33 147.09,-490.38"/>
<polygon fill="black" stroke="black" points="150.02,-492.32 153.12,-482.18 144.38,-488.17 150.02,-492.32"/>
</g>
<!-- dekmIE -->
<g id="node2" class="node">
<title>dekmIE</title>
<g id="a_node2"><a xlink:href="dekm-ten.svg" xlink:title="&lt;b&gt;Indo&#45;&lt;br/&gt;European&lt;/b&gt;&lt;br/&gt;&lt;font color=&quot;red&quot;&gt;dekm̥&lt;/font&gt;&lt;br/&gt;&lt;font point&#45;size=&quot;12&quot;&gt;ten&lt;/font&gt;">
<path fill="none" stroke="black" stroke-dasharray="5,2" d="M356,-697C356,-697 303,-697 303,-697 297,-697 291,-691 291,-685 291,-685 291,-647 291,-647 291,-641 297,-635 303,-635 303,-635 356,-635 356,-635 362,-635 368,-641 368,-647 368,-647 368,-685 368,-685 368,-691 362,-697 356,-697"/>
<text text-anchor="start" x="313" y="-682.8" font-family="Times New Roman,serif" font-weight="bold" font-size="14.00">Indo&#45;</text>
<text text-anchor="start" x="299" y="-668.8" font-family="Times New Roman,serif" font-weight="bold" font-size="14.00">European</text>
<text text-anchor="start" x="314" y="-654.8" font-family="Times New Roman,serif" font-size="14.00" fill="red">dekm̥</text>
<text text-anchor="start" x="322.5" y="-642.4" font-family="Times New Roman,serif" font-size="12.00">ten</text>
</a>
</g>
</g>
<!-- tehunGm -->
<g id="node3" class="node">
<title>tehunGm</title>
<text text-anchor="start" x="250" y="-552.8" font-family="Times New Roman,serif" font-weight="bold" font-size="14.00">Germanic</text>
<text text-anchor="start" x="265" y="-538.8" font-family="Times New Roman,serif" font-size="14.00" fill="red">tehun</text>
</g>
<!-- dekmIE&#45;&gt;tehunGm -->
<g id="edge1" class="edge">
<title>dekmIE&#45;&gt;tehunGm</title>
<path fill="none" stroke="black" d="M331.5,-634C331.5,-634 311.28,-600.69 296.3,-576.02"/>
<polygon fill="black" stroke="black" points="299.25,-574.14 291.07,-567.4 293.27,-577.77 299.25,-574.14"/>
</g>
<!-- kontaIE -->
<g id="node5" class="node">
<title>kontaIE</title>
<text text-anchor="start" x="345.5" y="-545.3" font-family="Times New Roman,serif" font-size="14.00" fill="red">&#45;dkōm&#45;tā̆, &#45;kontā̆</text>
</g>
<!-- dekmIE&#45;&gt;kontaIE -->
<g id="edge3" class="edge">
<title>dekmIE&#45;&gt;kontaIE</title>
<path fill="none" stroke="black" d="M331.5,-634C331.5,-634 355.9,-600.4 373.84,-575.7"/>
<polygon fill="black" stroke="black" points="376.82,-577.55 379.86,-567.4 371.15,-573.44 376.82,-577.55"/>
</g>
<!-- teneOE -->
<g id="node4" class="node">
<title>teneOE</title>
<text text-anchor="start" x="244" y="-467.8" font-family="Times New Roman,serif" font-weight="bold" font-size="14.00">Old English</text>
<text text-anchor="start" x="232.5" y="-453.8" font-family="Times New Roman,serif" font-size="14.00" fill="red">&#45;tēne, &#45;tīne, &#45;tȳne</text>
</g>
<!-- tehunGm&#45;&gt;teneOE -->
<g id="edge2" class="edge">
<title>tehunGm&#45;&gt;teneOE</title>
<path fill="none" stroke="black" d="M280.5,-530.8C280.5,-519.67 280.5,-504.94 280.5,-492.24"/>
<polygon fill="black" stroke="black" points="284,-492.18 280.5,-482.18 277,-492.18 284,-492.18"/>
</g>
<!-- feowerteneOE -->
<g id="node16" class="node">
<title>feowerteneOE</title>
<text text-anchor="start" x="241" y="-303.8" font-family="Times New Roman,serif" font-weight="bold" font-size="14.00">Old English</text>
<text text-anchor="start" x="247" y="-289.8" font-family="Times New Roman,serif" font-size="14.00" fill="red">fēowertēne</text>
<text text-anchor="start" x="259" y="-277.4" font-family="Times New Roman,serif" font-size="12.00">fourteen</text>
</g>
<!-- teneOE&#45;&gt;feowerteneOE -->
<g id="edge13" class="edge">
<title>teneOE&#45;&gt;feowerteneOE</title>
<path fill="none" stroke="black" d="M278.84,-445.92C275.9,-415.67 269.86,-353.59 267.49,-329.18"/>
<polygon fill="black" stroke="black" points="270.95,-328.61 266.5,-319 263.98,-329.29 270.95,-328.61"/>
</g>
<!-- gintaL -->
<g id="node6" class="node">
<title>gintaL</title>
<text text-anchor="start" x="376" y="-473.8" font-family="Times New Roman,serif" font-weight="bold" font-size="14.00">Latin</text>
<text text-anchor="start" x="377" y="-459.8" font-family="Times New Roman,serif" font-size="14.00" fill="red">&#45;gintā</text>
<text text-anchor="start" x="372.5" y="-447.4" font-family="Times New Roman,serif" font-size="12.00">ten times</text>
</g>
<!-- kontaIE&#45;&gt;gintaL -->
<g id="edge4" class="edge">
<title>kontaIE&#45;&gt;gintaL</title>
<path fill="none" stroke="black" d="M392.5,-530.8C392.5,-521.45 392.5,-509.55 392.5,-498.45"/>
<polygon fill="black" stroke="black" points="396,-498.16 392.5,-488.16 389,-498.16 396,-498.16"/>
</g>
<!-- fimfGm -->
<g id="node7" class="node">
<title>fimfGm</title>
<text text-anchor="start" x="146" y="-558.8" font-family="Times New Roman,serif" font-weight="bold" font-size="14.00">Germanic</text>
<text text-anchor="start" x="165" y="-544.8" font-family="Times New Roman,serif" font-size="14.00" fill="red">fimf</text>
<text text-anchor="start" x="168.5" y="-532.4" font-family="Times New Roman,serif" font-size="12.00">five</text>
</g>
<!-- fimfGm&#45;&gt;fedworGm -->
<g id="edge6" class="edge">
<title>fimfGm&#45;&gt;fedworGm</title>
<path fill="none" stroke="blue" d="M173.99,-524.88C172.89,-514.73 171.59,-502.75 170.45,-492.18"/>
<polygon fill="blue" stroke="blue" points="173.92,-491.77 169.37,-482.21 166.96,-492.52 173.92,-491.77"/>
</g>
<!-- feowerOE -->
<g id="node9" class="node">
<title>feowerOE</title>
<text text-anchor="start" x="139" y="-382.8" font-family="Times New Roman,serif" font-weight="bold" font-size="14.00">Old English</text>
<text text-anchor="start" x="156" y="-368.8" font-family="Times New Roman,serif" font-size="14.00" fill="red">fēower</text>
</g>
<!-- fedworGm&#45;&gt;feowerOE -->
<g id="edge7" class="edge">
<title>fedworGm&#45;&gt;feowerOE</title>
<path fill="none" stroke="black" d="M169.16,-445.8C170.23,-434.67 171.65,-419.94 172.87,-407.24"/>
<polygon fill="black" stroke="black" points="176.37,-407.47 173.84,-397.18 169.4,-406.79 176.37,-407.47"/>
</g>
<!-- feowerME -->
<g id="node12" class="node">
<title>feowerME</title>
<text text-anchor="middle" x="89.5" y="-290.3" font-family="Times New Roman,serif" font-size="14.00">feowerME</text>
</g>
<!-- feowerOE&#45;&gt;feowerME -->
<g id="edge8" class="edge">
<title>feowerOE&#45;&gt;feowerME</title>
<path fill="none" stroke="black" d="M176.5,-360C176.5,-360 145.53,-336.86 120.55,-318.2"/>
<polygon fill="black" stroke="black" points="122.46,-315.26 112.36,-312.08 118.27,-320.87 122.46,-315.26"/>
</g>
<!-- feowertigOE -->
<g id="node13" class="node">
<title>feowertigOE</title>
<text text-anchor="start" x="153.5" y="-296.8" font-family="Times New Roman,serif" font-size="14.00" fill="red">fēowertig</text>
<text text-anchor="start" x="168.5" y="-284.4" font-family="Times New Roman,serif" font-size="12.00">forty</text>
</g>
<!-- feowerOE&#45;&gt;feowertigOE -->
<g id="edge9" class="edge">
<title>feowerOE&#45;&gt;feowertigOE</title>
<path fill="none" stroke="black" d="M176.5,-360C176.5,-360 177.42,-339.97 178.25,-322.15"/>
<polygon fill="black" stroke="black" points="181.75,-322.23 178.71,-312.08 174.75,-321.91 181.75,-322.23"/>
</g>
<!-- feowerOE&#45;&gt;feowerteneOE -->
<g id="edge12" class="edge">
<title>feowerOE&#45;&gt;feowerteneOE</title>
<path fill="none" stroke="black" d="M176.5,-360C176.5,-360 234.21,-333.71 257.21,-323.23"/>
<polygon fill="black" stroke="black" points="258.85,-326.33 266.5,-319 255.95,-319.96 258.85,-326.33"/>
</g>
<!-- fourME -->
<g id="node10" class="node">
<title>fourME</title>
<text text-anchor="start" x="475" y="-559.8" font-family="Times New Roman,serif" font-weight="bold" font-size="14.00">Middle</text>
<text text-anchor="start" x="473.5" y="-545.8" font-family="Times New Roman,serif" font-weight="bold" font-size="14.00">English</text>
<text text-anchor="start" x="484.5" y="-531.8" font-family="Times New Roman,serif" font-size="14.00" fill="red">four</text>
</g>
<!-- four -->
<g id="node11" class="node">
<title>four</title>
<text text-anchor="start" x="412" y="-35.8" font-family="Times New Roman,serif" font-weight="bold" font-size="14.00">Modern</text>
<text text-anchor="start" x="413.5" y="-21.8" font-family="Times New Roman,serif" font-weight="bold" font-size="14.00">English</text>
<text text-anchor="start" x="424.5" y="-7.8" font-family="Times New Roman,serif" font-size="14.00" fill="red">four</text>
</g>
<!-- fortyME -->
<g id="node14" class="node">
<title>fortyME</title>
<text text-anchor="start" x="158" y="-219.8" font-family="Times New Roman,serif" font-weight="bold" font-size="14.00">Middle</text>
<text text-anchor="start" x="156.5" y="-205.8" font-family="Times New Roman,serif" font-weight="bold" font-size="14.00">English</text>
<text text-anchor="start" x="165.5" y="-191.8" font-family="Times New Roman,serif" font-size="14.00" fill="red">forty</text>
</g>
<!-- feowertigOE&#45;&gt;fortyME -->
<g id="edge10" class="edge">
<title>feowertigOE&#45;&gt;fortyME</title>
<path fill="none" stroke="black" d="M179.5,-275.8C179.5,-266.66 179.5,-255.09 179.5,-244.22"/>
<polygon fill="black" stroke="black" points="183,-244.1 179.5,-234.1 176,-244.1 183,-244.1"/>
</g>
<!-- forty -->
<g id="node15" class="node">
<title>forty</title>
<text text-anchor="start" x="155" y="-35.8" font-family="Times New Roman,serif" font-weight="bold" font-size="14.00">Modern</text>
<text text-anchor="start" x="156.5" y="-21.8" font-family="Times New Roman,serif" font-weight="bold" font-size="14.00">English</text>
<text text-anchor="start" x="165.5" y="-7.8" font-family="Times New Roman,serif" font-size="14.00" fill="red">forty</text>
</g>
<!-- fortyME&#45;&gt;forty -->
<g id="edge11" class="edge">
<title>fortyME&#45;&gt;forty</title>
<path fill="none" stroke="black" d="M179.5,-183.83C179.5,-152.15 179.5,-96.38 179.5,-60.33"/>
<polygon fill="black" stroke="black" points="183,-60.27 179.5,-50.27 176,-60.27 183,-60.27"/>
</g>
<!-- fourteneME -->
<g id="node17" class="node">
<title>fourteneME</title>
<text text-anchor="start" x="256" y="-219.8" font-family="Times New Roman,serif" font-weight="bold" font-size="14.00">Middle</text>
<text text-anchor="start" x="254.5" y="-205.8" font-family="Times New Roman,serif" font-weight="bold" font-size="14.00">English</text>
<text text-anchor="start" x="254.5" y="-191.8" font-family="Times New Roman,serif" font-size="14.00" fill="red">fourtene</text>
</g>
<!-- feowerteneOE&#45;&gt;fourteneME -->
<g id="edge14" class="edge">
<title>feowerteneOE&#45;&gt;fourteneME</title>
<path fill="none" stroke="black" d="M277.5,-269.88C277.5,-261.97 277.5,-252.94 277.5,-244.34"/>
<polygon fill="black" stroke="black" points="281,-244.15 277.5,-234.15 274,-244.15 281,-244.15"/>
</g>
<!-- fourteen -->
<g id="node18" class="node">
<title>fourteen</title>
<text text-anchor="start" x="246" y="-35.8" font-family="Times New Roman,serif" font-weight="bold" font-size="14.00">Modern</text>
<text text-anchor="start" x="247.5" y="-21.8" font-family="Times New Roman,serif" font-weight="bold" font-size="14.00">English</text>
<text text-anchor="start" x="247.5" y="-7.8" font-family="Times New Roman,serif" font-size="14.00" fill="red">fourteen</text>
</g>
<!-- fourteneME&#45;&gt;fourteen -->
<g id="edge15" class="edge">
<title>fourteneME&#45;&gt;fourteen</title>
<path fill="none" stroke="black" d="M285.5,-183C285.5,-183 278.2,-106.59 273.79,-60.39"/>
<polygon fill="black" stroke="black" points="277.25,-59.81 272.81,-50.19 270.28,-60.47 277.25,-59.81"/>
</g>
<!-- fourtenenight -->
<g id="node19" class="node">
<title>fourtenenight</title>
<text text-anchor="start" x="311" y="-119.8" font-family="Times New Roman,serif" font-size="14.00" fill="red">fourtene night</text>
<text text-anchor="start" x="316.5" y="-107.4" font-family="Times New Roman,serif" font-size="12.00">fourteen nights</text>
</g>
<!-- fourteneME&#45;&gt;fourtenenight -->
<g id="edge16" class="edge">
<title>fourteneME&#45;&gt;fourtenenight</title>
<path fill="none" stroke="black" d="M285.5,-183C285.5,-183 307.11,-161.05 325.21,-142.67"/>
<polygon fill="black" stroke="black" points="328.16,-144.66 332.68,-135.08 323.17,-139.75 328.16,-144.66"/>
</g>
<!-- fortnight -->
<g id="node20" class="node">
<title>fortnight</title>
<text text-anchor="middle" x="353.5" y="-21.3" font-family="Times New Roman,serif" font-size="14.00">fortnight</text>
</g>
<!-- fourtenenight&#45;&gt;fortnight -->
<g id="edge17" class="edge">
<title>fourtenenight&#45;&gt;fortnight</title>
<path fill="none" stroke="black" d="M350.27,-98.65C350.84,-85.82 351.63,-68.11 352.28,-53.38"/>
<polygon fill="black" stroke="black" points="355.78,-53.45 352.73,-43.3 348.79,-53.13 355.78,-53.45"/>
</g>
<!-- quattuorL -->
<g id="node21" class="node">
<title>quattuorL</title>
<text text-anchor="start" x="550" y="-297.8" font-family="Times New Roman,serif" font-weight="bold" font-size="14.00">Latin</text>
<text text-anchor="start" x="543" y="-283.8" font-family="Times New Roman,serif" font-size="14.00" fill="red">quattuor</text>
</g>
<!-- quatreOF -->
<g id="node22" class="node">
<title>quatreOF</title>
<text text-anchor="start" x="531.5" y="-219.8" font-family="Times New Roman,serif" font-weight="bold" font-size="14.00">Old French</text>
<text text-anchor="start" x="549" y="-205.8" font-family="Times New Roman,serif" font-size="14.00" fill="red">quatre</text>
<text text-anchor="start" x="552.5" y="-191.8" font-family="Times New Roman,serif" font-size="14.00" fill="red">catre</text>
</g>
<!-- quattuorL&#45;&gt;quatreOF -->
<g id="edge19" class="edge">
<title>quattuorL&#45;&gt;quatreOF</title>
<path fill="none" stroke="black" d="M566.5,-275.8C566.5,-266.66 566.5,-255.09 566.5,-244.22"/>
<polygon fill="black" stroke="black" points="570,-244.1 566.5,-234.1 563,-244.1 570,-244.1"/>
</g>
<!-- quatrainF -->
<g id="node23" class="node">
<title>quatrainF</title>
<text text-anchor="start" x="497.5" y="-126.8" font-family="Times New Roman,serif" font-weight="bold" font-size="14.00">French</text>
<text text-anchor="start" x="497" y="-112.8" font-family="Times New Roman,serif" font-size="14.00" fill="red">quatrain</text>
<text text-anchor="start" x="486" y="-100.4" font-family="Times New Roman,serif" font-size="12.00">four&#45;line poem</text>
</g>
<!-- quatreOF&#45;&gt;quatrainF -->
<g id="edge20" class="edge">
<title>quatreOF&#45;&gt;quatrainF</title>
<path fill="none" stroke="black" d="M566.5,-183C566.5,-183 554.33,-166.16 542.37,-149.63"/>
<polygon fill="black" stroke="black" points="544.9,-147.15 536.2,-141.1 539.23,-151.25 544.9,-147.15"/>
</g>
<!-- caterME -->
<g id="node26" class="node">
<title>caterME</title>
<text text-anchor="start" x="592" y="-133.8" font-family="Times New Roman,serif" font-weight="bold" font-size="14.00">Middle</text>
<text text-anchor="start" x="590.5" y="-119.8" font-family="Times New Roman,serif" font-weight="bold" font-size="14.00">English</text>
<text text-anchor="start" x="599.5" y="-105.8" font-family="Times New Roman,serif" font-size="14.00" fill="red">cater</text>
<text text-anchor="start" x="587.5" y="-93.4" font-family="Times New Roman,serif" font-size="12.00">four at dice</text>
</g>
<!-- quatreOF&#45;&gt;caterME -->
<g id="edge22" class="edge">
<title>quatreOF&#45;&gt;caterME</title>
<path fill="none" stroke="black" stroke-dasharray="1,5" d="M566.5,-183C566.5,-183 575.5,-170.56 585.62,-156.56"/>
<polygon fill="black" stroke="black" points="588.63,-158.37 591.65,-148.22 582.96,-154.27 588.63,-158.37"/>
</g>
<!-- quatrain -->
<g id="node24" class="node">
<title>quatrain</title>
<text text-anchor="start" x="495" y="-35.8" font-family="Times New Roman,serif" font-weight="bold" font-size="14.00">Modern</text>
<text text-anchor="start" x="496.5" y="-21.8" font-family="Times New Roman,serif" font-weight="bold" font-size="14.00">English</text>
<text text-anchor="start" x="497" y="-7.8" font-family="Times New Roman,serif" font-size="14.00" fill="red">quatrain</text>
</g>
<!-- quatrainF&#45;&gt;quatrain -->
<g id="edge21" class="edge">
<title>quatrainF&#45;&gt;quatrain</title>
<path fill="none" stroke="black" stroke-dasharray="1,5" d="M519.5,-92.82C519.5,-82.88 519.5,-71.05 519.5,-60.14"/>
<polygon fill="black" stroke="black" points="523,-60.04 519.5,-50.04 516,-60.04 523,-60.04"/>
</g>
<!-- kwetwor -->
<g id="node25" class="node">
<title>kwetwor</title>
<text text-anchor="middle" x="566.5" y="-375.3" font-family="Times New Roman,serif" font-size="14.00">kwetwor</text>
</g>
<!-- kwetwor&#45;&gt;quattuorL -->
<g id="edge18" class="edge">
<title>kwetwor&#45;&gt;quattuorL</title>
<path fill="none" stroke="black" d="M566.5,-360.8C566.5,-349.67 566.5,-334.94 566.5,-322.24"/>
<polygon fill="black" stroke="black" points="570,-322.18 566.5,-312.18 563,-322.18 570,-322.18"/>
</g>
<!-- catercorner -->
<g id="node27" class="node">
<title>catercorner</title>
<text text-anchor="middle" x="613.5" y="-21.3" font-family="Times New Roman,serif" font-size="14.00">catercorner</text>
</g>
<!-- caterME&#45;&gt;catercorner -->
<g id="edge23" class="edge">
<title>caterME&#45;&gt;catercorner</title>
<path fill="none" stroke="black" d="M613.5,-85.53C613.5,-75.01 613.5,-63.3 613.5,-53.07"/>
<polygon fill="black" stroke="black" points="617,-53.05 613.5,-43.05 610,-53.05 617,-53.05"/>
</g>
<!-- cathwaroOI -->
<g id="node28" class="node">
<title>cathwaroOI</title>
<text text-anchor="middle" x="587.5" y="-545.3" font-family="Times New Roman,serif" font-size="14.00">cathwaroOI</text>
</g>
<!-- taqAr -->
<g id="node29" class="node">
<title>taqAr</title>
<text text-anchor="start" x="673.5" y="-126.8" font-family="Times New Roman,serif" font-weight="bold" font-size="14.00" fill="green">Arabic</text>
<text text-anchor="start" x="685.5" y="-112.8" font-family="Times New Roman,serif" font-size="14.00" fill="red">ṭāq</text>
<text text-anchor="start" x="684.5" y="-100.4" font-family="Times New Roman,serif" font-size="12.00">arch</text>
</g>
<!-- taqP -->
<g id="node30" class="node">
<title>taqP</title>
<text text-anchor="start" x="636" y="-218.8" font-family="Times New Roman,serif" font-weight="bold" font-size="14.00">Persian</text>
<text text-anchor="start" x="650.5" y="-204.8" font-family="Times New Roman,serif" font-size="14.00" fill="red">ṭāq</text>
<text text-anchor="start" x="648.5" y="-192.4" font-family="Times New Roman,serif" font-size="12.00">vault</text>
</g>
<!-- chaharP -->
<g id="node31" class="node">
<title>chaharP</title>
<text text-anchor="start" x="624" y="-297.8" font-family="Times New Roman,serif" font-weight="bold" font-size="14.00">Persian</text>
<text text-anchor="start" x="629" y="-283.8" font-family="Times New Roman,serif" font-size="14.00" fill="red">chahār</text>
</g>
<!-- chahartaqP -->
<g id="node32" class="node">
<title>chahartaqP</title>
<text text-anchor="start" x="628.5" y="-387.8" font-family="Times New Roman,serif" font-size="14.00" fill="red">chār ṭāq</text>
<text text-anchor="start" x="625.5" y="-375.4" font-family="Times New Roman,serif" font-size="12.00">4&#45;cornered</text>
<text text-anchor="start" x="640.5" y="-363.4" font-family="Times New Roman,serif" font-size="12.00">vault</text>
</g>
<!-- chartaqP -->
<g id="node33" class="node">
<title>chartaqP</title>
<text text-anchor="middle" x="471.5" y="-460.3" font-family="Times New Roman,serif" font-size="14.00">chartaqP</text>
</g>
<!-- cardakT -->
<g id="node34" class="node">
<title>cardakT</title>
<text text-anchor="start" x="750" y="-120.8" font-family="Times New Roman,serif" font-weight="bold" font-size="14.00" fill="green">Turkish</text>
<text text-anchor="start" x="755.5" y="-106.8" font-family="Times New Roman,serif" font-size="14.00" fill="red">çardak</text>
</g>
<!-- cardakSC -->
<g id="node35" class="node">
<title>cardakSC</title>
<text text-anchor="start" x="717.5" y="-218.8" font-family="Times New Roman,serif" font-weight="bold" font-size="14.00">Serbo&#45;Croatian</text>
<text text-anchor="start" x="746.5" y="-204.8" font-family="Times New Roman,serif" font-size="14.00" fill="red">čardāk</text>
<text text-anchor="start" x="738.5" y="-192.4" font-family="Times New Roman,serif" font-size="12.00">watchtower</text>
</g>
<!-- csardaH -->
<g id="node36" class="node">
<title>csardaH</title>
<text text-anchor="start" x="711.5" y="-388.8" font-family="Times New Roman,serif" font-size="14.00" fill="green">/</text>
<text text-anchor="start" x="715.5" y="-388.8" font-family="Times New Roman,serif" font-weight="bold" font-size="14.00" fill="green">Hungarian</text>
<text text-anchor="start" x="728" y="-374.8" font-family="Times New Roman,serif" font-size="14.00" fill="red">csárda</text>
<text text-anchor="start" x="712.5" y="-362.4" font-family="Times New Roman,serif" font-size="12.00">wayside tavern</text>
</g>
<!-- csardasH -->
<g id="node37" class="node">
<title>csardasH</title>
<text text-anchor="start" x="541" y="-472.8" font-family="Times New Roman,serif" font-size="14.00" fill="red">csárdás</text>
<text text-anchor="start" x="531" y="-460.4" font-family="Times New Roman,serif" font-size="12.00">style of dance</text>
<text text-anchor="start" x="539.5" y="-448.4" font-family="Times New Roman,serif" font-size="12.00">and music</text>
</g>
<!-- czardas -->
<g id="node38" class="node">
<title>czardas</title>
<text text-anchor="start" x="816" y="-389.8" font-family="Times New Roman,serif" font-weight="bold" font-size="14.00">Modern</text>
<text text-anchor="start" x="817.5" y="-375.8" font-family="Times New Roman,serif" font-weight="bold" font-size="14.00">English</text>
<text text-anchor="start" x="819" y="-361.8" font-family="Times New Roman,serif" font-size="14.00" fill="red">czardas</text>
</g>
</g>
</svg>
