<?xml version="1.0" encoding="UTF-8" standalone="no"?>
<!DOCTYPE svg PUBLIC "-//W3C//DTD SVG 1.1//EN"
 "http://www.w3.org/Graphics/SVG/1.1/DTD/svg11.dtd">
<!-- Generated by graphviz version 2.49.0 (20210828.1703)
 -->
<!-- Pages: 1 -->
<svg width="1518pt" height="696pt"
 viewBox="0.00 0.00 1517.50 696.00" xmlns="http://www.w3.org/2000/svg" xmlns:xlink="http://www.w3.org/1999/xlink">
<g id="graph0" class="graph" transform="scale(1 1) rotate(0) translate(4 692)">
<polygon fill="white" stroke="transparent" points="-4,4 -4,-692 1513.5,-692 1513.5,4 -4,4"/>
<!-- kwetwer -->
<g id="node1" class="node">
<title>kwetwer</title>
<g id="a_node1"><a xlink:href="kwetwer-four0.svg" xlink:title="&lt;font point&#45;size=&quot;24&quot;&gt;&lt;b&gt;Indo&#45;&lt;br/&gt;European&lt;/b&gt;&lt;/font&gt;&lt;br/&gt;&lt;font color=&quot;red&quot; point&#45;size=&quot;18&quot;&gt;kʷetwer&#45;&lt;/font&gt;&lt;br/&gt;&lt;font point&#45;size=&quot;16&quot;&gt;four&lt;/font&gt;">
<path fill="none" stroke="black" stroke-dasharray="5,2" d="M571.5,-688C571.5,-688 477.5,-688 477.5,-688 471.5,-688 465.5,-682 465.5,-676 465.5,-676 465.5,-610 465.5,-610 465.5,-604 471.5,-598 477.5,-598 477.5,-598 571.5,-598 571.5,-598 577.5,-598 583.5,-604 583.5,-610 583.5,-610 583.5,-676 583.5,-676 583.5,-682 577.5,-688 571.5,-688"/>
<text text-anchor="start" x="496.5" y="-665.8" font-family="Times New Roman,serif" font-weight="bold" font-size="24.00">Indo&#45;</text>
<text text-anchor="start" x="473.5" y="-641.8" font-family="Times New Roman,serif" font-weight="bold" font-size="24.00">European</text>
<text text-anchor="start" x="492.5" y="-622.6" font-family="Times New Roman,serif" font-size="18.00" fill="red">kʷetwer&#45;</text>
<text text-anchor="start" x="510.5" y="-606.2" font-family="Times New Roman,serif" font-size="16.00">four</text>
</a>
</g>
</g>
<!-- kweturto -->
<g id="node2" class="node">
<title>kweturto</title>
<text text-anchor="start" x="372" y="-533.8" font-family="Times New Roman,serif" font-size="14.00" fill="red">kʷetur&#45;to&#45;</text>
<text text-anchor="start" x="386" y="-521.4" font-family="Times New Roman,serif" font-size="12.00">fourth</text>
</g>
<!-- kwetwer&#45;&gt;kweturto -->
<g id="edge1" class="edge">
<title>kwetwer&#45;&gt;kweturto</title>
<path fill="none" stroke="black" d="M528.5,-597C528.5,-597 480.15,-572.64 442.66,-553.75"/>
<polygon fill="black" stroke="black" points="443.9,-550.45 433.39,-549.08 440.75,-556.7 443.9,-550.45"/>
</g>
<!-- kwetwr -->
<g id="node3" class="node">
<title>kwetwr</title>
<text text-anchor="start" x="682.5" y="-527.3" font-family="Times New Roman,serif" font-size="14.00" fill="red">kʷet(w)r̥</text>
</g>
<!-- kwetwer&#45;&gt;kwetwr -->
<g id="edge2" class="edge">
<title>kwetwer&#45;&gt;kwetwr</title>
<path fill="none" stroke="black" d="M528.5,-597C528.5,-597 612.3,-566.23 664.58,-547.03"/>
<polygon fill="black" stroke="black" points="666.08,-550.2 674.26,-543.47 663.67,-543.63 666.08,-550.2"/>
</g>
<!-- fedworthonGm -->
<g id="node4" class="node">
<title>fedworthonGm</title>
<text text-anchor="start" x="113" y="-339.8" font-family="Times New Roman,serif" font-weight="bold" font-size="14.00">Germanic</text>
<text text-anchor="start" x="104" y="-325.8" font-family="Times New Roman,serif" font-size="14.00" fill="red">fe(d)worthōn&#45;</text>
</g>
<!-- kweturto&#45;&gt;fedworthonGm -->
<g id="edge3" class="edge">
<title>kweturto&#45;&gt;fedworthonGm</title>
<path fill="none" stroke="black" d="M390.5,-512C390.5,-512 243.3,-407.71 176.17,-360.15"/>
<polygon fill="black" stroke="black" points="177.82,-357.02 167.63,-354.1 173.77,-362.74 177.82,-357.02"/>
</g>
<!-- quartusL -->
<g id="node11" class="node">
<title>quartusL</title>
<text text-anchor="start" x="383" y="-443.8" font-family="Times New Roman,serif" font-weight="bold" font-size="14.00">Latin</text>
<text text-anchor="start" x="378.5" y="-429.8" font-family="Times New Roman,serif" font-size="14.00" fill="red">quārtus</text>
<text text-anchor="start" x="382" y="-415.8" font-family="Times New Roman,serif" font-size="14.00" fill="red">quārta</text>
</g>
<!-- kweturto&#45;&gt;quartusL -->
<g id="edge10" class="edge">
<title>kweturto&#45;&gt;quartusL</title>
<path fill="none" stroke="black" d="M390.5,-512C390.5,-512 393.13,-489.22 395.55,-468.28"/>
<polygon fill="black" stroke="black" points="399.03,-468.59 396.7,-458.25 392.08,-467.78 399.03,-468.59"/>
</g>
<!-- tetraG -->
<g id="node25" class="node">
<title>tetraG</title>
<text text-anchor="start" x="601.5" y="-436.8" font-family="Times New Roman,serif" font-weight="bold" font-size="14.00">Greek</text>
<text text-anchor="start" x="607" y="-422.8" font-family="Times New Roman,serif" font-size="14.00" fill="red">tetra&#45;</text>
</g>
<!-- kwetwr&#45;&gt;tetraG -->
<g id="edge24" class="edge">
<title>kwetwr&#45;&gt;tetraG</title>
<path fill="none" stroke="black" d="M707.5,-512C707.5,-512 673.35,-481.03 648.09,-458.12"/>
<polygon fill="black" stroke="black" points="650.34,-455.44 640.59,-451.31 645.64,-460.62 650.34,-455.44"/>
</g>
<!-- tetrasG -->
<g id="node27" class="node">
<title>tetrasG</title>
<text text-anchor="start" x="685.5" y="-449.8" font-family="Times New Roman,serif" font-weight="bold" font-size="14.00">Greek</text>
<text text-anchor="start" x="690" y="-435.8" font-family="Times New Roman,serif" font-size="14.00" fill="red">tetras</text>
<text text-anchor="start" x="687" y="-421.8" font-family="Times New Roman,serif" font-size="14.00" fill="red">tetrad&#45;</text>
<text text-anchor="start" x="675.5" y="-409.4" font-family="Times New Roman,serif" font-size="12.00">group of four</text>
</g>
<!-- kwetwr&#45;&gt;tetrasG -->
<g id="edge26" class="edge">
<title>kwetwr&#45;&gt;tetrasG</title>
<path fill="none" stroke="black" d="M707.5,-512C707.5,-512 707.03,-493.52 706.54,-474.55"/>
<polygon fill="black" stroke="black" points="710.03,-474.29 706.28,-464.38 703.04,-474.47 710.03,-474.29"/>
</g>
<!-- tesseresG -->
<g id="node29" class="node">
<title>tesseresG</title>
<text text-anchor="start" x="852.5" y="-443.8" font-family="Times New Roman,serif" font-weight="bold" font-size="14.00">Greek</text>
<text text-anchor="start" x="850" y="-429.8" font-family="Times New Roman,serif" font-size="14.00" fill="red">tesseres</text>
<text text-anchor="start" x="853" y="-415.8" font-family="Times New Roman,serif" font-size="14.00" fill="red">tessera</text>
</g>
<!-- kwetwr&#45;&gt;tesseresG -->
<g id="edge28" class="edge">
<title>kwetwr&#45;&gt;tesseresG</title>
<path fill="none" stroke="black" d="M707.5,-512C707.5,-512 783.96,-475.85 832.78,-452.77"/>
<polygon fill="black" stroke="black" points="834.31,-455.93 841.85,-448.49 831.31,-449.6 834.31,-455.93"/>
</g>
<!-- traG -->
<g id="node41" class="node">
<title>traG</title>
<text text-anchor="start" x="1186.5" y="-436.8" font-family="Times New Roman,serif" font-weight="bold" font-size="14.00">Greek</text>
<text text-anchor="start" x="1197" y="-422.8" font-family="Times New Roman,serif" font-size="14.00" fill="red">tra&#45;</text>
</g>
<!-- kwetwr&#45;&gt;traG -->
<g id="edge40" class="edge">
<title>kwetwr&#45;&gt;traG</title>
<path fill="none" stroke="black" d="M736.64,-528.86C810.1,-525.44 999.23,-512.25 1148.5,-464 1155.47,-461.75 1162.62,-458.72 1169.41,-455.45"/>
<polygon fill="black" stroke="black" points="1171.06,-458.54 1178.4,-450.9 1167.9,-452.3 1171.06,-458.54"/>
</g>
<!-- feorthaOE -->
<g id="node5" class="node">
<title>feorthaOE</title>
<text text-anchor="start" x="8" y="-242.8" font-family="Times New Roman,serif" font-weight="bold" font-size="14.00">Old English</text>
<text text-anchor="start" x="24.5" y="-228.8" font-family="Times New Roman,serif" font-size="14.00" fill="red">fēortha</text>
</g>
<!-- fedworthonGm&#45;&gt;feorthaOE -->
<g id="edge4" class="edge">
<title>fedworthonGm&#45;&gt;feorthaOE</title>
<path fill="none" stroke="black" d="M136.5,-317C136.5,-317 99.65,-286.16 72.6,-263.52"/>
<polygon fill="black" stroke="black" points="74.83,-260.82 64.92,-257.09 70.34,-266.19 74.83,-260.82"/>
</g>
<!-- feorthungOE -->
<g id="node8" class="node">
<title>feorthungOE</title>
<text text-anchor="start" x="115" y="-242.8" font-family="Times New Roman,serif" font-weight="bold" font-size="14.00">Old English</text>
<text text-anchor="start" x="124.5" y="-228.8" font-family="Times New Roman,serif" font-size="14.00" fill="red">fēorthung</text>
</g>
<!-- fedworthonGm&#45;&gt;feorthungOE -->
<g id="edge7" class="edge">
<title>fedworthonGm&#45;&gt;feorthungOE</title>
<path fill="none" stroke="black" d="M136.5,-317C136.5,-317 141.9,-289.26 146.23,-267.08"/>
<polygon fill="black" stroke="black" points="149.69,-267.57 148.17,-257.09 142.82,-266.24 149.69,-267.57"/>
</g>
<!-- fourtheME -->
<g id="node6" class="node">
<title>fourtheME</title>
<text text-anchor="start" x="23" y="-151.8" font-family="Times New Roman,serif" font-weight="bold" font-size="14.00">Middle</text>
<text text-anchor="start" x="21.5" y="-137.8" font-family="Times New Roman,serif" font-weight="bold" font-size="14.00">English</text>
<text text-anchor="start" x="24.5" y="-123.8" font-family="Times New Roman,serif" font-size="14.00" fill="red">fourthe</text>
</g>
<!-- feorthaOE&#45;&gt;fourtheME -->
<g id="edge5" class="edge">
<title>feorthaOE&#45;&gt;fourtheME</title>
<path fill="none" stroke="black" d="M44.5,-220.84C44.5,-208.48 44.5,-191.39 44.5,-176.29"/>
<polygon fill="black" stroke="black" points="48,-176.23 44.5,-166.23 41,-176.23 48,-176.23"/>
</g>
<!-- fourth -->
<g id="node7" class="node">
<title>fourth</title>
<text text-anchor="start" x="20" y="-47.8" font-family="Times New Roman,serif" font-weight="bold" font-size="14.00">Modern</text>
<text text-anchor="start" x="21.5" y="-33.8" font-family="Times New Roman,serif" font-weight="bold" font-size="14.00">English</text>
<text text-anchor="start" x="27.5" y="-19.8" font-family="Times New Roman,serif" font-size="14.00" fill="red">fourth</text>
</g>
<!-- fourtheME&#45;&gt;fourth -->
<g id="edge6" class="edge">
<title>fourtheME&#45;&gt;fourth</title>
<path fill="none" stroke="black" d="M44.5,-115.83C44.5,-102.96 44.5,-86.92 44.5,-72.74"/>
<polygon fill="black" stroke="black" points="48,-72.35 44.5,-62.35 41,-72.35 48,-72.35"/>
</g>
<!-- ferthingME -->
<g id="node9" class="node">
<title>ferthingME</title>
<text text-anchor="start" x="130" y="-151.8" font-family="Times New Roman,serif" font-weight="bold" font-size="14.00">Middle</text>
<text text-anchor="start" x="128.5" y="-137.8" font-family="Times New Roman,serif" font-weight="bold" font-size="14.00">English</text>
<text text-anchor="start" x="130" y="-123.8" font-family="Times New Roman,serif" font-size="14.00" fill="red">ferthing</text>
</g>
<!-- feorthungOE&#45;&gt;ferthingME -->
<g id="edge8" class="edge">
<title>feorthungOE&#45;&gt;ferthingME</title>
<path fill="none" stroke="black" d="M151.5,-220.84C151.5,-208.48 151.5,-191.39 151.5,-176.29"/>
<polygon fill="black" stroke="black" points="155,-176.23 151.5,-166.23 148,-176.23 155,-176.23"/>
</g>
<!-- farthing -->
<g id="node10" class="node">
<title>farthing</title>
<text text-anchor="start" x="127" y="-47.8" font-family="Times New Roman,serif" font-weight="bold" font-size="14.00">Modern</text>
<text text-anchor="start" x="128.5" y="-33.8" font-family="Times New Roman,serif" font-weight="bold" font-size="14.00">English</text>
<text text-anchor="start" x="130" y="-19.8" font-family="Times New Roman,serif" font-size="14.00" fill="red">farthing</text>
</g>
<!-- ferthingME&#45;&gt;farthing -->
<g id="edge9" class="edge">
<title>ferthingME&#45;&gt;farthing</title>
<path fill="none" stroke="black" d="M151.5,-115.83C151.5,-102.96 151.5,-86.92 151.5,-72.74"/>
<polygon fill="black" stroke="black" points="155,-72.35 151.5,-62.35 148,-72.35 155,-72.35"/>
</g>
<!-- quarteOF -->
<g id="node12" class="node">
<title>quarteOF</title>
<text text-anchor="start" x="217.5" y="-339.8" font-family="Times New Roman,serif" font-weight="bold" font-size="14.00">Old French</text>
<text text-anchor="start" x="235" y="-325.8" font-family="Times New Roman,serif" font-size="14.00" fill="red">quarte</text>
</g>
<!-- quartusL&#45;&gt;quarteOF -->
<g id="edge11" class="edge">
<title>quartusL&#45;&gt;quarteOF</title>
<path fill="none" stroke="black" d="M399.5,-407C399.5,-407 345.75,-386.34 304.5,-366 300.1,-363.83 295.54,-361.46 291.03,-359.05"/>
<polygon fill="black" stroke="black" points="292.38,-355.8 281.92,-354.09 289.03,-361.95 292.38,-355.8"/>
</g>
<!-- quartariusL -->
<g id="node15" class="node">
<title>quartariusL</title>
<text text-anchor="start" x="322" y="-332.3" font-family="Times New Roman,serif" font-size="14.00" fill="red">quārtārius</text>
</g>
<!-- quartusL&#45;&gt;quartariusL -->
<g id="edge14" class="edge">
<title>quartusL&#45;&gt;quartariusL</title>
<path fill="none" stroke="black" d="M399.5,-407C399.5,-407 382.02,-382.52 367.73,-362.52"/>
<polygon fill="black" stroke="black" points="370.52,-360.41 361.86,-354.3 364.82,-364.48 370.52,-360.41"/>
</g>
<!-- quartoL -->
<g id="node19" class="node">
<title>quartoL</title>
<text text-anchor="start" x="423.5" y="-338.8" font-family="Times New Roman,serif" font-size="14.00" fill="red">in quārtō</text>
<text text-anchor="start" x="411" y="-326.4" font-family="Times New Roman,serif" font-size="12.00">in the fourth part</text>
</g>
<!-- quartusL&#45;&gt;quartoL -->
<g id="edge18" class="edge">
<title>quartusL&#45;&gt;quartoL</title>
<path fill="none" stroke="black" d="M399.5,-407C399.5,-407 416.63,-382.52 430.64,-362.52"/>
<polygon fill="black" stroke="black" points="433.52,-364.5 436.39,-354.3 427.79,-360.49 433.52,-364.5"/>
</g>
<!-- quartoI -->
<g id="node22" class="node">
<title>quartoI</title>
<text text-anchor="start" x="525.5" y="-346.8" font-family="Times New Roman,serif" font-weight="bold" font-size="14.00">Italian</text>
<text text-anchor="start" x="527" y="-332.8" font-family="Times New Roman,serif" font-size="14.00" fill="red">quarto</text>
<text text-anchor="start" x="520.5" y="-318.8" font-family="Times New Roman,serif" font-size="14.00" fill="red">quartetto</text>
</g>
<!-- quartusL&#45;&gt;quartoI -->
<g id="edge21" class="edge">
<title>quartusL&#45;&gt;quartoI</title>
<path fill="none" stroke="black" d="M399.5,-407C399.5,-407 458.94,-389.02 502.5,-366 502.8,-365.84 503.1,-365.68 503.4,-365.52"/>
<polygon fill="black" stroke="black" points="505.2,-368.52 512.12,-360.5 501.71,-362.46 505.2,-368.52"/>
</g>
<!-- quartME -->
<g id="node13" class="node">
<title>quartME</title>
<text text-anchor="start" x="231" y="-249.8" font-family="Times New Roman,serif" font-weight="bold" font-size="14.00">Middle</text>
<text text-anchor="start" x="229.5" y="-235.8" font-family="Times New Roman,serif" font-weight="bold" font-size="14.00">English</text>
<text text-anchor="start" x="238" y="-221.8" font-family="Times New Roman,serif" font-size="14.00" fill="red">quart</text>
</g>
<!-- quarteOF&#45;&gt;quartME -->
<g id="edge12" class="edge">
<title>quarteOF&#45;&gt;quartME</title>
<path fill="none" stroke="black" stroke-dasharray="1,5" d="M252.5,-317.58C252.5,-305.51 252.5,-289.04 252.5,-274.38"/>
<polygon fill="black" stroke="black" points="256,-274.11 252.5,-264.11 249,-274.11 256,-274.11"/>
</g>
<!-- quart -->
<g id="node14" class="node">
<title>quart</title>
<text text-anchor="start" x="228" y="-47.8" font-family="Times New Roman,serif" font-weight="bold" font-size="14.00">Modern</text>
<text text-anchor="start" x="229.5" y="-33.8" font-family="Times New Roman,serif" font-weight="bold" font-size="14.00">English</text>
<text text-anchor="start" x="238" y="-19.8" font-family="Times New Roman,serif" font-size="14.00" fill="red">quart</text>
</g>
<!-- quartME&#45;&gt;quart -->
<g id="edge13" class="edge">
<title>quartME&#45;&gt;quart</title>
<path fill="none" stroke="black" d="M252.5,-213.88C252.5,-178.59 252.5,-112.72 252.5,-72.37"/>
<polygon fill="black" stroke="black" points="256,-72.21 252.5,-62.21 249,-72.21 256,-72.21"/>
</g>
<!-- quartierOF -->
<g id="node16" class="node">
<title>quartierOF</title>
<text text-anchor="start" x="314.5" y="-242.8" font-family="Times New Roman,serif" font-weight="bold" font-size="14.00">Old French</text>
<text text-anchor="start" x="328" y="-228.8" font-family="Times New Roman,serif" font-size="14.00" fill="red">quartier</text>
</g>
<!-- quartariusL&#45;&gt;quartierOF -->
<g id="edge15" class="edge">
<title>quartariusL&#45;&gt;quartierOF</title>
<path fill="none" stroke="black" d="M349.5,-317.58C349.5,-303.65 349.5,-283.86 349.5,-267.76"/>
<polygon fill="black" stroke="black" points="353,-267.31 349.5,-257.31 346,-267.31 353,-267.31"/>
</g>
<!-- quarterME -->
<g id="node17" class="node">
<title>quarterME</title>
<text text-anchor="start" x="328" y="-151.8" font-family="Times New Roman,serif" font-weight="bold" font-size="14.00">Middle</text>
<text text-anchor="start" x="326.5" y="-137.8" font-family="Times New Roman,serif" font-weight="bold" font-size="14.00">English</text>
<text text-anchor="start" x="329.5" y="-123.8" font-family="Times New Roman,serif" font-size="14.00" fill="red">quarter</text>
</g>
<!-- quartierOF&#45;&gt;quarterME -->
<g id="edge16" class="edge">
<title>quartierOF&#45;&gt;quarterME</title>
<path fill="none" stroke="black" stroke-dasharray="1,5" d="M349.5,-220.84C349.5,-208.48 349.5,-191.39 349.5,-176.29"/>
<polygon fill="black" stroke="black" points="353,-176.23 349.5,-166.23 346,-176.23 353,-176.23"/>
</g>
<!-- quarter -->
<g id="node18" class="node">
<title>quarter</title>
<text text-anchor="start" x="325" y="-47.8" font-family="Times New Roman,serif" font-weight="bold" font-size="14.00">Modern</text>
<text text-anchor="start" x="326.5" y="-33.8" font-family="Times New Roman,serif" font-weight="bold" font-size="14.00">English</text>
<text text-anchor="start" x="329.5" y="-19.8" font-family="Times New Roman,serif" font-size="14.00" fill="red">quarter</text>
</g>
<!-- quarterME&#45;&gt;quarter -->
<g id="edge17" class="edge">
<title>quarterME&#45;&gt;quarter</title>
<path fill="none" stroke="black" d="M349.5,-115.83C349.5,-102.96 349.5,-86.92 349.5,-72.74"/>
<polygon fill="black" stroke="black" points="353,-72.35 349.5,-62.35 346,-72.35 353,-72.35"/>
</g>
<!-- quartoME -->
<g id="node20" class="node">
<title>quartoME</title>
<text text-anchor="start" x="427" y="-249.8" font-family="Times New Roman,serif" font-weight="bold" font-size="14.00">Middle</text>
<text text-anchor="start" x="425.5" y="-235.8" font-family="Times New Roman,serif" font-weight="bold" font-size="14.00">English</text>
<text text-anchor="start" x="430" y="-221.8" font-family="Times New Roman,serif" font-size="14.00" fill="red">quarto</text>
</g>
<!-- quartoL&#45;&gt;quartoME -->
<g id="edge19" class="edge">
<title>quartoL&#45;&gt;quartoME</title>
<path fill="none" stroke="black" stroke-dasharray="1,5" d="M448.5,-317.58C448.5,-305.51 448.5,-289.04 448.5,-274.38"/>
<polygon fill="black" stroke="black" points="452,-274.11 448.5,-264.11 445,-274.11 452,-274.11"/>
</g>
<!-- quarto -->
<g id="node21" class="node">
<title>quarto</title>
<text text-anchor="start" x="424" y="-59.8" font-family="Times New Roman,serif" font-weight="bold" font-size="14.00">Modern</text>
<text text-anchor="start" x="425.5" y="-45.8" font-family="Times New Roman,serif" font-weight="bold" font-size="14.00">English</text>
<text text-anchor="start" x="430" y="-31.8" font-family="Times New Roman,serif" font-size="14.00" fill="red">quarto</text>
<text text-anchor="start" x="427.5" y="-19.4" font-family="Times New Roman,serif" font-size="12.00">page size</text>
<text text-anchor="start" x="426.5" y="-7.4" font-family="Times New Roman,serif" font-size="12.00">in printing</text>
</g>
<!-- quartoME&#45;&gt;quarto -->
<g id="edge20" class="edge">
<title>quartoME&#45;&gt;quarto</title>
<path fill="none" stroke="black" d="M448.5,-213.88C448.5,-181.86 448.5,-124.67 448.5,-84.2"/>
<polygon fill="black" stroke="black" points="452,-84.05 448.5,-74.05 445,-84.05 452,-84.05"/>
</g>
<!-- quartetteF -->
<g id="node23" class="node">
<title>quartetteF</title>
<text text-anchor="start" x="518.5" y="-144.8" font-family="Times New Roman,serif" font-weight="bold" font-size="14.00">French</text>
<text text-anchor="start" x="516" y="-130.8" font-family="Times New Roman,serif" font-size="14.00" fill="red">quartette</text>
</g>
<!-- quartoI&#45;&gt;quartetteF -->
<g id="edge22" class="edge">
<title>quartoI&#45;&gt;quartetteF</title>
<path fill="none" stroke="black" stroke-dasharray="1,5" d="M544.88,-310.95C543.95,-274.99 542.19,-207.4 541.21,-169.52"/>
<polygon fill="black" stroke="black" points="544.7,-169.13 540.95,-159.23 537.71,-169.31 544.7,-169.13"/>
</g>
<!-- quartet -->
<g id="node24" class="node">
<title>quartet</title>
<text text-anchor="start" x="514" y="-47.8" font-family="Times New Roman,serif" font-weight="bold" font-size="14.00">Modern</text>
<text text-anchor="start" x="515.5" y="-33.8" font-family="Times New Roman,serif" font-weight="bold" font-size="14.00">English</text>
<text text-anchor="start" x="519" y="-19.8" font-family="Times New Roman,serif" font-size="14.00" fill="red">quartet</text>
</g>
<!-- quartetteF&#45;&gt;quartet -->
<g id="edge23" class="edge">
<title>quartetteF&#45;&gt;quartet</title>
<path fill="none" stroke="black" stroke-dasharray="1,5" d="M540.16,-122.7C539.89,-108.95 539.51,-89.3 539.17,-72.38"/>
<polygon fill="black" stroke="black" points="542.67,-72.21 538.98,-62.28 535.67,-72.35 542.67,-72.21"/>
</g>
<!-- tetra -->
<g id="node26" class="node">
<title>tetra</title>
<text text-anchor="start" x="597" y="-47.8" font-family="Times New Roman,serif" font-weight="bold" font-size="14.00">Modern</text>
<text text-anchor="start" x="598.5" y="-33.8" font-family="Times New Roman,serif" font-weight="bold" font-size="14.00">English</text>
<text text-anchor="start" x="602.5" y="-19.8" font-family="Times New Roman,serif" font-size="14.00" fill="red">tetr(a)&#45;</text>
</g>
<!-- tetraG&#45;&gt;tetra -->
<g id="edge25" class="edge">
<title>tetraG&#45;&gt;tetra</title>
<path fill="none" stroke="black" stroke-dasharray="1,5" d="M621.5,-414.82C621.5,-354.72 621.5,-153.19 621.5,-72.16"/>
<polygon fill="black" stroke="black" points="625,-72 621.5,-62 618,-72 625,-72"/>
</g>
<!-- tetrad -->
<g id="node28" class="node">
<title>tetrad</title>
<text text-anchor="start" x="680" y="-47.8" font-family="Times New Roman,serif" font-weight="bold" font-size="14.00">Modern</text>
<text text-anchor="start" x="681.5" y="-33.8" font-family="Times New Roman,serif" font-weight="bold" font-size="14.00">English</text>
<text text-anchor="start" x="688.5" y="-19.8" font-family="Times New Roman,serif" font-size="14.00" fill="red">tetrad</text>
</g>
<!-- tetrasG&#45;&gt;tetrad -->
<g id="edge27" class="edge">
<title>tetrasG&#45;&gt;tetrad</title>
<path fill="none" stroke="black" stroke-dasharray="1,5" d="M705.42,-401.74C705.24,-329.78 704.78,-148.78 704.59,-72.62"/>
<polygon fill="black" stroke="black" points="708.09,-72.16 704.56,-62.17 701.09,-72.18 708.09,-72.16"/>
</g>
<!-- tesseraL -->
<g id="node30" class="node">
<title>tesseraL</title>
<text text-anchor="start" x="847" y="-248.8" font-family="Times New Roman,serif" font-weight="bold" font-size="14.00">Latin</text>
<text text-anchor="start" x="844" y="-234.8" font-family="Times New Roman,serif" font-size="14.00" fill="red">tessera</text>
<text text-anchor="start" x="848" y="-222.4" font-family="Times New Roman,serif" font-size="12.00">square</text>
</g>
<!-- tesseresG&#45;&gt;tesseraL -->
<g id="edge29" class="edge">
<title>tesseresG&#45;&gt;tesseraL</title>
<path fill="none" stroke="black" d="M883.5,-407C883.5,-407 873.32,-322.03 867.49,-273.31"/>
<polygon fill="black" stroke="black" points="870.95,-272.73 866.28,-263.22 863.99,-273.57 870.95,-272.73"/>
</g>
<!-- tesseract -->
<g id="node33" class="node">
<title>tesseract</title>
<text text-anchor="start" x="941" y="-53.8" font-family="Times New Roman,serif" font-weight="bold" font-size="14.00">Modern</text>
<text text-anchor="start" x="942.5" y="-39.8" font-family="Times New Roman,serif" font-weight="bold" font-size="14.00">English</text>
<text text-anchor="start" x="941" y="-25.8" font-family="Times New Roman,serif" font-size="14.00" fill="red">tesseract</text>
<text text-anchor="start" x="945.5" y="-13.4" font-family="Times New Roman,serif" font-size="12.00">4D cube</text>
</g>
<!-- tesseresG&#45;&gt;tesseract -->
<g id="edge31" class="edge">
<title>tesseresG&#45;&gt;tesseract</title>
<path fill="none" stroke="black" stroke-dasharray="1,5" d="M883.5,-407C883.5,-407 946.46,-134.17 959.25,-78.75"/>
<polygon fill="black" stroke="black" points="962.66,-79.53 961.5,-69 955.84,-77.96 962.66,-79.53"/>
</g>
<!-- diatessaronG -->
<g id="node37" class="node">
<title>diatessaronG</title>
<text text-anchor="start" x="1050" y="-338.8" font-family="Times New Roman,serif" font-size="14.00" fill="red">dia tessarōn</text>
<text text-anchor="start" x="1059.5" y="-326.4" font-family="Times New Roman,serif" font-size="12.00">out of four</text>
</g>
<!-- tesseresG&#45;&gt;diatessaronG -->
<g id="edge36" class="edge">
<title>tesseresG&#45;&gt;diatessaronG</title>
<path fill="none" stroke="black" d="M883.5,-407C883.5,-407 1022.97,-368.42 1061.66,-357.72"/>
<polygon fill="black" stroke="black" points="1062.79,-361.04 1071.5,-355 1060.93,-354.29 1062.79,-361.04"/>
</g>
<!-- tessera -->
<g id="node31" class="node">
<title>tessera</title>
<text text-anchor="start" x="768" y="-53.8" font-family="Times New Roman,serif" font-weight="bold" font-size="14.00">Modern</text>
<text text-anchor="start" x="769.5" y="-39.8" font-family="Times New Roman,serif" font-weight="bold" font-size="14.00">English</text>
<text text-anchor="start" x="773" y="-25.8" font-family="Times New Roman,serif" font-size="14.00" fill="red">tessera</text>
<text text-anchor="start" x="763" y="-13.4" font-family="Times New Roman,serif" font-size="12.00">mosaic stone</text>
</g>
<!-- tesseraL&#45;&gt;tessera -->
<g id="edge30" class="edge">
<title>tesseraL&#45;&gt;tessera</title>
<path fill="none" stroke="black" stroke-dasharray="1,5" d="M843.83,-215C834.49,-202.93 823.97,-187.46 817.5,-172 804.9,-141.9 798.62,-105.35 795.51,-78.03"/>
<polygon fill="black" stroke="black" points="798.98,-77.63 794.46,-68.05 792.02,-78.36 798.98,-77.63"/>
</g>
<!-- tessellaL -->
<g id="node34" class="node">
<title>tessellaL</title>
<text text-anchor="start" x="843.5" y="-150.8" font-family="Times New Roman,serif" font-size="14.00" fill="red">tessella</text>
<text text-anchor="start" x="839.5" y="-138.4" font-family="Times New Roman,serif" font-size="12.00">small cube</text>
<text text-anchor="start" x="835" y="-124.8" font-family="Times New Roman,serif" font-size="14.00" fill="red">tessellātus</text>
</g>
<!-- tesseraL&#45;&gt;tessellaL -->
<g id="edge33" class="edge">
<title>tesseraL&#45;&gt;tessellaL</title>
<path fill="none" stroke="black" d="M863.5,-214.76C863.5,-202.85 863.5,-188.14 863.5,-175.07"/>
<polygon fill="black" stroke="black" points="867,-175.02 863.5,-165.02 860,-175.02 867,-175.02"/>
</g>
<!-- aktisG -->
<g id="node32" class="node">
<title>aktisG</title>
<text text-anchor="start" x="946.5" y="-442.8" font-family="Times New Roman,serif" font-weight="bold" font-size="14.00">Greek</text>
<text text-anchor="start" x="933" y="-428.8" font-family="Times New Roman,serif" font-size="14.00" fill="red">aktīs, aktīn&#45;</text>
<text text-anchor="start" x="942.5" y="-416.4" font-family="Times New Roman,serif" font-size="12.00">ray of light</text>
</g>
<!-- aktisG&#45;&gt;tesseract -->
<g id="edge32" class="edge">
<title>aktisG&#45;&gt;tesseract</title>
<path fill="none" stroke="black" stroke-dasharray="1,5" d="M966.18,-408.74C965.21,-338.17 962.32,-128.32 961.64,-79.31"/>
<polygon fill="black" stroke="black" points="965.14,-78.95 961.5,-69 958.14,-79.05 965.14,-78.95"/>
</g>
<!-- tessellate -->
<g id="node35" class="node">
<title>tessellate</title>
<text text-anchor="start" x="857" y="-47.8" font-family="Times New Roman,serif" font-weight="bold" font-size="14.00">Modern</text>
<text text-anchor="start" x="858.5" y="-33.8" font-family="Times New Roman,serif" font-weight="bold" font-size="14.00">English</text>
<text text-anchor="start" x="856.5" y="-19.8" font-family="Times New Roman,serif" font-size="14.00" fill="red">tessellate</text>
</g>
<!-- tessellaL&#45;&gt;tessellate -->
<g id="edge34" class="edge">
<title>tessellaL&#45;&gt;tessellate</title>
<path fill="none" stroke="black" stroke-dasharray="1,5" d="M867.58,-116.85C869.9,-103.71 872.85,-86.99 875.44,-72.34"/>
<polygon fill="black" stroke="black" points="878.95,-72.57 877.24,-62.12 872.06,-71.36 878.95,-72.57"/>
</g>
<!-- diaG -->
<g id="node36" class="node">
<title>diaG</title>
<text text-anchor="start" x="1063.5" y="-442.8" font-family="Times New Roman,serif" font-weight="bold" font-size="14.00">Greek</text>
<text text-anchor="start" x="1075" y="-428.8" font-family="Times New Roman,serif" font-size="14.00" fill="red">dia</text>
<text text-anchor="start" x="1035" y="-416.4" font-family="Times New Roman,serif" font-size="12.00">through, according to</text>
</g>
<!-- diaG&#45;&gt;diatessaronG -->
<g id="edge35" class="edge">
<title>diaG&#45;&gt;diatessaronG</title>
<path fill="none" stroke="black" d="M1079.9,-408.9C1077.64,-394.37 1074.82,-376.33 1073.1,-365.25"/>
<polygon fill="black" stroke="black" points="1076.5,-364.34 1071.5,-355 1069.58,-365.42 1076.5,-364.34"/>
</g>
<!-- diatessaronL -->
<g id="node38" class="node">
<title>diatessaronL</title>
<text text-anchor="start" x="1070" y="-248.8" font-family="Times New Roman,serif" font-weight="bold" font-size="14.00">Latin</text>
<text text-anchor="start" x="1054.5" y="-234.8" font-family="Times New Roman,serif" font-size="14.00" fill="red">diatessarōn</text>
<text text-anchor="start" x="1057.5" y="-222.4" font-family="Times New Roman,serif" font-size="12.00">made of four</text>
</g>
<!-- diatessaronG&#45;&gt;diatessaronL -->
<g id="edge37" class="edge">
<title>diatessaronG&#45;&gt;diatessaronL</title>
<path fill="none" stroke="black" stroke-dasharray="1,5" d="M1084.05,-317.58C1084.44,-305.25 1084.97,-288.33 1085.44,-273.44"/>
<polygon fill="black" stroke="black" points="1088.95,-273.15 1085.77,-263.05 1081.96,-272.93 1088.95,-273.15"/>
</g>
<!-- diatessaronME -->
<g id="node39" class="node">
<title>diatessaronME</title>
<text text-anchor="start" x="1065" y="-157.8" font-family="Times New Roman,serif" font-weight="bold" font-size="14.00">Middle</text>
<text text-anchor="start" x="1063.5" y="-143.8" font-family="Times New Roman,serif" font-weight="bold" font-size="14.00">English</text>
<text text-anchor="start" x="1054.5" y="-129.8" font-family="Times New Roman,serif" font-size="14.00" fill="red">diatessaron</text>
<text text-anchor="start" x="1045.5" y="-117.4" font-family="Times New Roman,serif" font-size="12.00">interval of a fourth</text>
</g>
<!-- diatessaronL&#45;&gt;diatessaronME -->
<g id="edge38" class="edge">
<title>diatessaronL&#45;&gt;diatessaronME</title>
<path fill="none" stroke="black" stroke-dasharray="1,5" d="M1086.5,-214.76C1086.5,-205.09 1086.5,-193.57 1086.5,-182.58"/>
<polygon fill="black" stroke="black" points="1090,-182.29 1086.5,-172.29 1083,-182.29 1090,-182.29"/>
</g>
<!-- diatessaron -->
<g id="node40" class="node">
<title>diatessaron</title>
<text text-anchor="start" x="1063" y="-59.8" font-family="Times New Roman,serif" font-weight="bold" font-size="14.00">Modern</text>
<text text-anchor="start" x="1064.5" y="-45.8" font-family="Times New Roman,serif" font-weight="bold" font-size="14.00">English</text>
<text text-anchor="start" x="1055.5" y="-31.8" font-family="Times New Roman,serif" font-size="14.00" fill="red">diatessaron</text>
<text text-anchor="start" x="1050" y="-19.4" font-family="Times New Roman,serif" font-size="12.00">the four Gospels</text>
<text text-anchor="start" x="1024.5" y="-7.4" font-family="Times New Roman,serif" font-size="12.00">combined into one narrative</text>
</g>
<!-- diatessaronME&#45;&gt;diatessaron -->
<g id="edge39" class="edge">
<title>diatessaronME&#45;&gt;diatessaron</title>
<path fill="none" stroke="black" d="M1086.79,-109.95C1086.87,-101.92 1086.96,-93.06 1087.05,-84.38"/>
<polygon fill="black" stroke="black" points="1090.55,-84.36 1087.14,-74.33 1083.55,-84.29 1090.55,-84.36"/>
</g>
<!-- trapezaG -->
<g id="node44" class="node">
<title>trapezaG</title>
<text text-anchor="start" x="1278.5" y="-351.8" font-family="Times New Roman,serif" font-size="14.00" fill="red">trapeza</text>
<text text-anchor="start" x="1287.5" y="-339.4" font-family="Times New Roman,serif" font-size="12.00">table</text>
<text text-anchor="start" x="1272.5" y="-325.8" font-family="Times New Roman,serif" font-size="14.00" fill="red">trapezion</text>
<text text-anchor="start" x="1272" y="-313.4" font-family="Times New Roman,serif" font-size="12.00">(diminutive)</text>
</g>
<!-- traG&#45;&gt;trapezaG -->
<g id="edge42" class="edge">
<title>traG&#45;&gt;trapezaG</title>
<path fill="none" stroke="black" d="M1227.52,-414.92C1244.18,-401.38 1266.57,-383.19 1278.4,-373.58"/>
<polygon fill="black" stroke="black" points="1280.95,-376.02 1286.5,-367 1276.53,-370.59 1280.95,-376.02"/>
</g>
<!-- ped -->
<g id="node42" class="node">
<title>ped</title>
<g id="a_node42"><a xlink:href="ped-foot0.svg" xlink:title="&lt;b&gt;Indo&#45;&lt;br/&gt;European&lt;/b&gt;&lt;br/&gt;&lt;font color=&quot;red&quot;&gt;ped&#45;&lt;/font&gt;&lt;br/&gt;&lt;font point&#45;size=&quot;12&quot;&gt;foot&lt;/font&gt;">
<path fill="none" stroke="black" stroke-dasharray="5,2" d="M1325,-562C1325,-562 1272,-562 1272,-562 1266,-562 1260,-556 1260,-550 1260,-550 1260,-512 1260,-512 1260,-506 1266,-500 1272,-500 1272,-500 1325,-500 1325,-500 1331,-500 1337,-506 1337,-512 1337,-512 1337,-550 1337,-550 1337,-556 1331,-562 1325,-562"/>
<text text-anchor="start" x="1282" y="-547.8" font-family="Times New Roman,serif" font-weight="bold" font-size="14.00">Indo&#45;</text>
<text text-anchor="start" x="1268" y="-533.8" font-family="Times New Roman,serif" font-weight="bold" font-size="14.00">European</text>
<text text-anchor="start" x="1285.5" y="-519.8" font-family="Times New Roman,serif" font-size="14.00" fill="red">ped&#45;</text>
<text text-anchor="start" x="1289" y="-507.4" font-family="Times New Roman,serif" font-size="12.00">foot</text>
</a>
</g>
</g>
<!-- pezaG -->
<g id="node43" class="node">
<title>pezaG</title>
<text text-anchor="start" x="1278.5" y="-436.8" font-family="Times New Roman,serif" font-weight="bold" font-size="14.00">Greek</text>
<text text-anchor="start" x="1285.5" y="-422.8" font-family="Times New Roman,serif" font-size="14.00" fill="red">peza</text>
</g>
<!-- ped&#45;&gt;pezaG -->
<g id="edge41" class="edge">
<title>ped&#45;&gt;pezaG</title>
<path fill="none" stroke="black" d="M1298.5,-499.89C1298.5,-487.6 1298.5,-473.48 1298.5,-461.47"/>
<polygon fill="black" stroke="black" points="1302,-461.15 1298.5,-451.15 1295,-461.15 1302,-461.15"/>
</g>
<!-- pezaG&#45;&gt;trapezaG -->
<g id="edge43" class="edge">
<title>pezaG&#45;&gt;trapezaG</title>
<path fill="none" stroke="black" d="M1295.35,-414.92C1293.13,-402.89 1290.22,-387.18 1288.36,-377.08"/>
<polygon fill="black" stroke="black" points="1291.76,-376.2 1286.5,-367 1284.87,-377.47 1291.76,-376.2"/>
</g>
<!-- trapeziumL -->
<g id="node45" class="node">
<title>trapeziumL</title>
<text text-anchor="start" x="1284.5" y="-255.8" font-family="Times New Roman,serif" font-weight="bold" font-size="14.00">Late</text>
<text text-anchor="start" x="1282" y="-241.8" font-family="Times New Roman,serif" font-weight="bold" font-size="14.00">Latin</text>
<text text-anchor="start" x="1271" y="-227.8" font-family="Times New Roman,serif" font-size="14.00" fill="red">trapezium</text>
<text text-anchor="start" x="1277" y="-215.4" font-family="Times New Roman,serif" font-size="12.00">trapezoid</text>
</g>
<!-- trapezaG&#45;&gt;trapeziumL -->
<g id="edge44" class="edge">
<title>trapezaG&#45;&gt;trapeziumL</title>
<path fill="none" stroke="black" stroke-dasharray="1,5" d="M1313.5,-305C1313.5,-305 1310.84,-293.47 1307.76,-280.12"/>
<polygon fill="black" stroke="black" points="1311.13,-279.17 1305.47,-270.22 1304.31,-280.75 1311.13,-279.17"/>
</g>
<!-- trapezoeidesG -->
<g id="node51" class="node">
<title>trapezoeidesG</title>
<text text-anchor="start" x="1399.5" y="-241.8" font-family="Times New Roman,serif" font-size="14.00" fill="red">trapezoeidēs</text>
<text text-anchor="start" x="1394" y="-229.4" font-family="Times New Roman,serif" font-size="12.00">trapezium&#45;shaped</text>
</g>
<!-- trapezaG&#45;&gt;trapezoeidesG -->
<g id="edge50" class="edge">
<title>trapezaG&#45;&gt;trapezoeidesG</title>
<path fill="none" stroke="black" d="M1313.5,-305C1313.5,-305 1358.46,-280.85 1393.57,-261.99"/>
<polygon fill="black" stroke="black" points="1395.56,-264.89 1402.71,-257.08 1392.24,-258.73 1395.56,-264.89"/>
</g>
<!-- trapezium -->
<g id="node46" class="node">
<title>trapezium</title>
<text text-anchor="start" x="1188" y="-47.8" font-family="Times New Roman,serif" font-weight="bold" font-size="14.00">Modern</text>
<text text-anchor="start" x="1189.5" y="-33.8" font-family="Times New Roman,serif" font-weight="bold" font-size="14.00">English</text>
<text text-anchor="start" x="1185" y="-19.8" font-family="Times New Roman,serif" font-size="14.00" fill="red">trapezium</text>
</g>
<!-- trapeziumL&#45;&gt;trapezium -->
<g id="edge45" class="edge">
<title>trapeziumL&#45;&gt;trapezium</title>
<path fill="none" stroke="black" stroke-dasharray="1,5" d="M1276.97,-207.69C1269.84,-196.78 1262.25,-184.15 1256.5,-172 1241.08,-139.42 1228.85,-100.01 1221.23,-72.39"/>
<polygon fill="black" stroke="black" points="1224.53,-71.16 1218.54,-62.42 1217.77,-72.98 1224.53,-71.16"/>
</g>
<!-- trapeziusL -->
<g id="node47" class="node">
<title>trapeziusL</title>
<text text-anchor="start" x="1284.5" y="-151.8" font-family="Times New Roman,serif" font-weight="bold" font-size="14.00">New</text>
<text text-anchor="start" x="1282" y="-137.8" font-family="Times New Roman,serif" font-weight="bold" font-size="14.00">Latin</text>
<text text-anchor="start" x="1273.5" y="-123.8" font-family="Times New Roman,serif" font-size="14.00" fill="red">trapezius</text>
</g>
<!-- trapeziumL&#45;&gt;trapeziusL -->
<g id="edge46" class="edge">
<title>trapeziumL&#45;&gt;trapeziusL</title>
<path fill="none" stroke="black" d="M1298.5,-207.89C1298.5,-197.93 1298.5,-186.77 1298.5,-176.51"/>
<polygon fill="black" stroke="black" points="1302,-176.23 1298.5,-166.23 1295,-176.23 1302,-176.23"/>
</g>
<!-- trapezeF -->
<g id="node49" class="node">
<title>trapezeF</title>
<text text-anchor="start" x="1357.5" y="-144.8" font-family="Times New Roman,serif" font-weight="bold" font-size="14.00">French</text>
<text text-anchor="start" x="1365.5" y="-130.8" font-family="Times New Roman,serif" font-size="14.00" fill="red">trapè</text>
</g>
<!-- trapeziumL&#45;&gt;trapezeF -->
<g id="edge48" class="edge">
<title>trapeziumL&#45;&gt;trapezeF</title>
<path fill="none" stroke="black" d="M1323.91,-207.89C1335.02,-194.72 1347.9,-179.45 1358.47,-166.93"/>
<polygon fill="black" stroke="black" points="1361.26,-169.05 1365.03,-159.15 1355.91,-164.53 1361.26,-169.05"/>
</g>
<!-- trapezius -->
<g id="node48" class="node">
<title>trapezius</title>
<text text-anchor="start" x="1275" y="-47.8" font-family="Times New Roman,serif" font-weight="bold" font-size="14.00">Modern</text>
<text text-anchor="start" x="1276.5" y="-33.8" font-family="Times New Roman,serif" font-weight="bold" font-size="14.00">English</text>
<text text-anchor="start" x="1274.5" y="-19.8" font-family="Times New Roman,serif" font-size="14.00" fill="red">trapezius</text>
</g>
<!-- trapeziusL&#45;&gt;trapezius -->
<g id="edge47" class="edge">
<title>trapeziusL&#45;&gt;trapezius</title>
<path fill="none" stroke="black" stroke-dasharray="1,5" d="M1298.74,-115.83C1298.86,-102.96 1299.02,-86.92 1299.16,-72.74"/>
<polygon fill="black" stroke="black" points="1302.66,-72.39 1299.26,-62.35 1295.66,-72.32 1302.66,-72.39"/>
</g>
<!-- trapeze -->
<g id="node50" class="node">
<title>trapeze</title>
<text text-anchor="start" x="1359" y="-47.8" font-family="Times New Roman,serif" font-weight="bold" font-size="14.00">Modern</text>
<text text-anchor="start" x="1360.5" y="-33.8" font-family="Times New Roman,serif" font-weight="bold" font-size="14.00">English</text>
<text text-anchor="start" x="1363.5" y="-19.8" font-family="Times New Roman,serif" font-size="14.00" fill="red">trapeze</text>
</g>
<!-- trapezeF&#45;&gt;trapeze -->
<g id="edge49" class="edge">
<title>trapezeF&#45;&gt;trapeze</title>
<path fill="none" stroke="black" stroke-dasharray="1,5" d="M1380.18,-122.7C1380.72,-108.95 1381.49,-89.3 1382.15,-72.38"/>
<polygon fill="black" stroke="black" points="1385.65,-72.41 1382.55,-62.28 1378.66,-72.14 1385.65,-72.41"/>
</g>
<!-- trapezoidesL -->
<g id="node52" class="node">
<title>trapezoidesL</title>
<text text-anchor="start" x="1436.5" y="-144.8" font-family="Times New Roman,serif" font-weight="bold" font-size="14.00">New Latin</text>
<text text-anchor="start" x="1435.5" y="-130.8" font-family="Times New Roman,serif" font-size="14.00" fill="red">trapezoīdēs</text>
</g>
<!-- trapezoeidesG&#45;&gt;trapezoidesL -->
<g id="edge51" class="edge">
<title>trapezoeidesG&#45;&gt;trapezoidesL</title>
<path fill="none" stroke="black" d="M1440.58,-220.84C1445.7,-206.37 1453.12,-185.41 1459.03,-168.74"/>
<polygon fill="black" stroke="black" points="1462.43,-169.61 1462.47,-159.01 1455.84,-167.27 1462.43,-169.61"/>
</g>
<!-- trapezoid -->
<g id="node53" class="node">
<title>trapezoid</title>
<text text-anchor="start" x="1444" y="-47.8" font-family="Times New Roman,serif" font-weight="bold" font-size="14.00">Modern</text>
<text text-anchor="start" x="1445.5" y="-33.8" font-family="Times New Roman,serif" font-weight="bold" font-size="14.00">English</text>
<text text-anchor="start" x="1442.5" y="-19.8" font-family="Times New Roman,serif" font-size="14.00" fill="red">trapezoid</text>
</g>
<!-- trapezoidesL&#45;&gt;trapezoid -->
<g id="edge52" class="edge">
<title>trapezoidesL&#45;&gt;trapezoid</title>
<path fill="none" stroke="black" stroke-dasharray="1,5" d="M1468.5,-122.7C1468.5,-108.95 1468.5,-89.3 1468.5,-72.38"/>
<polygon fill="black" stroke="black" points="1472,-72.28 1468.5,-62.28 1465,-72.28 1472,-72.28"/>
</g>
</g>
</svg>
