<?xml version="1.0" encoding="UTF-8" standalone="no"?>
<!DOCTYPE svg PUBLIC "-//W3C//DTD SVG 1.1//EN"
 "http://www.w3.org/Graphics/SVG/1.1/DTD/svg11.dtd">
<!-- Generated by graphviz version 2.44.1 (20200629.0846)
 -->
<!-- Title: 1 Pages: 1 -->
<svg width="788pt" height="562pt"
 viewBox="0.00 0.00 788.00 562.00" xmlns="http://www.w3.org/2000/svg" xmlns:xlink="http://www.w3.org/1999/xlink">
<g id="graph0" class="graph" transform="scale(1 1) rotate(0) translate(4 558)">
<title>1</title>
<polygon fill="white" stroke="transparent" points="-4,4 -4,-558 784,-558 784,4 -4,4"/>
<!-- kwon -->
<g id="node1" class="node">
<title>kwon</title>
<text text-anchor="start" x="373" y="-539.8" font-family="Times New Roman,serif" font-weight="bold" font-size="14.00">Indo&#45;European</text>
<text text-anchor="start" x="387" y="-525.8" font-family="Times New Roman,serif" font-size="14.00" fill="red">kwon</text>
<text text-anchor="start" x="418" y="-525.8" font-family="Times New Roman,serif" font-size="14.00"> &#160;&#160;dog</text>
</g>
<!-- hundaz -->
<g id="node2" class="node">
<title>hundaz</title>
<text text-anchor="start" x="274" y="-467.8" font-family="Times New Roman,serif" font-weight="bold" font-size="14.00">Germanic</text>
<text text-anchor="start" x="284.5" y="-453.8" font-family="Times New Roman,serif" font-size="14.00" fill="red">hundaz</text>
</g>
<!-- kwon&#45;&gt;hundaz -->
<g id="edge1" class="edge">
<title>kwon&#45;&gt;hundaz</title>
<path fill="none" stroke="black" d="M391.37,-517.88C376.33,-508.72 357.63,-497.34 341.44,-487.48"/>
<polygon fill="black" stroke="black" points="343.1,-484.4 332.74,-482.19 339.46,-490.38 343.1,-484.4"/>
</g>
<!-- kun -->
<g id="node3" class="node">
<title>kun</title>
<text text-anchor="start" x="401" y="-467.8" font-family="Times New Roman,serif" font-weight="bold" font-size="14.00">Celtic</text>
<text text-anchor="start" x="407" y="-453.8" font-family="Times New Roman,serif" font-size="14.00" fill="red">kun&#45;</text>
</g>
<!-- kwon&#45;&gt;kun -->
<g id="edge2" class="edge">
<title>kwon&#45;&gt;kun</title>
<path fill="none" stroke="black" d="M419.5,-517.7C419.5,-509.98 419.5,-500.71 419.5,-492.11"/>
<polygon fill="black" stroke="black" points="423,-492.1 419.5,-482.1 416,-492.1 423,-492.1"/>
</g>
<!-- kuon -->
<g id="node4" class="node">
<title>kuon</title>
<text text-anchor="start" x="569.5" y="-467.8" font-family="Times New Roman,serif" font-weight="bold" font-size="14.00">Greek</text>
<text text-anchor="start" x="559" y="-453.8" font-family="Times New Roman,serif" font-size="14.00" fill="red">kuōn, kun&#45;</text>
</g>
<!-- kwon&#45;&gt;kuon -->
<g id="edge3" class="edge">
<title>kwon&#45;&gt;kuon</title>
<path fill="none" stroke="black" d="M461.09,-517.88C485.4,-507.86 516.2,-495.18 541.54,-484.75"/>
<polygon fill="black" stroke="black" points="543.05,-487.91 550.96,-480.87 540.38,-481.44 543.05,-487.91"/>
</g>
<!-- hundOE -->
<g id="node5" class="node">
<title>hundOE</title>
<text text-anchor="start" x="101" y="-388.8" font-family="Times New Roman,serif" font-weight="bold" font-size="14.00">Old English</text>
<text text-anchor="start" x="123.5" y="-374.8" font-family="Times New Roman,serif" font-size="14.00" fill="red">hund</text>
</g>
<!-- hundaz&#45;&gt;hundOE -->
<g id="edge4" class="edge">
<title>hundaz&#45;&gt;hundOE</title>
<path fill="none" stroke="black" d="M267.44,-445.91C242.79,-434.55 210.23,-419.53 183.86,-407.38"/>
<polygon fill="black" stroke="black" points="185.01,-404.05 174.46,-403.04 182.07,-410.41 185.01,-404.05"/>
</g>
<!-- huntOHG -->
<g id="node6" class="node">
<title>huntOHG</title>
<text text-anchor="start" x="221.5" y="-395.8" font-family="Times New Roman,serif" font-weight="bold" font-size="14.00">Old High</text>
<text text-anchor="start" x="224" y="-381.8" font-family="Times New Roman,serif" font-weight="bold" font-size="14.00">German</text>
<text text-anchor="start" x="235.5" y="-367.8" font-family="Times New Roman,serif" font-size="14.00" fill="red">Hunt</text>
</g>
<!-- hundaz&#45;&gt;huntOHG -->
<g id="edge5" class="edge">
<title>hundaz&#45;&gt;huntOHG</title>
<path fill="none" stroke="black" d="M292.29,-445.91C286.47,-437.76 279.3,-427.72 272.51,-418.21"/>
<polygon fill="black" stroke="black" points="275.34,-416.15 266.68,-410.05 269.64,-420.22 275.34,-416.15"/>
</g>
<!-- hondMD -->
<g id="node7" class="node">
<title>hondMD</title>
<text text-anchor="start" x="280.5" y="-237.8" font-family="Times New Roman,serif" font-weight="bold" font-size="14.00">Middle Dutch</text>
<text text-anchor="start" x="308" y="-223.8" font-family="Times New Roman,serif" font-size="14.00" fill="red">hond</text>
</g>
<!-- hundaz&#45;&gt;hondMD -->
<g id="edge6" class="edge">
<title>hundaz&#45;&gt;hondMD</title>
<path fill="none" stroke="black" d="M305.85,-445.86C308.96,-406.57 316.6,-309.7 320.35,-262.18"/>
<polygon fill="black" stroke="black" points="323.86,-262.27 321.16,-252.02 316.88,-261.72 323.86,-262.27"/>
</g>
<!-- ci -->
<g id="node16" class="node">
<title>ci</title>
<text text-anchor="start" x="400" y="-165.8" font-family="Times New Roman,serif" font-weight="bold" font-size="14.00">Welsh</text>
<text text-anchor="start" x="414.5" y="-151.8" font-family="Times New Roman,serif" font-size="14.00" fill="red">ci</text>
</g>
<!-- kun&#45;&gt;ci -->
<g id="edge15" class="edge">
<title>kun&#45;&gt;ci</title>
<path fill="none" stroke="black" d="M419.5,-445.57C419.5,-395.54 419.5,-251.15 419.5,-190.42"/>
<polygon fill="black" stroke="black" points="423,-190.1 419.5,-180.1 416,-190.1 423,-190.1"/>
</g>
<!-- kunikos -->
<g id="node20" class="node">
<title>kunikos</title>
<text text-anchor="start" x="567.5" y="-308.8" font-family="Times New Roman,serif" font-size="14.00" fill="red">kunicos</text>
<text text-anchor="start" x="551.5" y="-296.4" font-family="Times New Roman,serif" font-size="12.00">Cynic philospher</text>
</g>
<!-- kuon&#45;&gt;kunikos -->
<g id="edge19" class="edge">
<title>kuon&#45;&gt;kunikos</title>
<path fill="none" stroke="black" d="M589.5,-445.71C589.5,-418.77 589.5,-366.54 589.5,-334.42"/>
<polygon fill="black" stroke="black" points="593,-334.37 589.5,-324.37 586,-334.37 593,-334.37"/>
</g>
<!-- kunos -->
<g id="node23" class="node">
<title>kunos</title>
<text text-anchor="start" x="630.5" y="-387.8" font-family="Times New Roman,serif" font-size="14.00" fill="red">kunos</text>
<text text-anchor="start" x="635" y="-375.4" font-family="Times New Roman,serif" font-size="12.00">dog&#39;s</text>
</g>
<!-- kuon&#45;&gt;kunos -->
<g id="edge22" class="edge">
<title>kuon&#45;&gt;kunos</title>
<path fill="none" stroke="black" d="M602.37,-445.91C610.03,-435.74 619.89,-422.65 628.44,-411.3"/>
<polygon fill="black" stroke="black" points="631.44,-413.13 634.66,-403.04 625.85,-408.92 631.44,-413.13"/>
</g>
<!-- hundME -->
<g id="node8" class="node">
<title>hundME</title>
<text text-anchor="start" x="15" y="-237.8" font-family="Times New Roman,serif" font-weight="bold" font-size="14.00">Middle English</text>
<text text-anchor="start" x="47.5" y="-223.8" font-family="Times New Roman,serif" font-size="14.00" fill="red">hund</text>
</g>
<!-- hundOE&#45;&gt;hundME -->
<g id="edge7" class="edge">
<title>hundOE&#45;&gt;hundME</title>
<path fill="none" stroke="black" d="M128.78,-366.91C115.62,-341.11 90.58,-292.01 75.04,-261.54"/>
<polygon fill="black" stroke="black" points="78.01,-259.67 70.35,-252.35 71.78,-262.85 78.01,-259.67"/>
</g>
<!-- hundG -->
<g id="node10" class="node">
<title>hundG</title>
<text text-anchor="start" x="139" y="-165.8" font-family="Times New Roman,serif" font-weight="bold" font-size="14.00">German</text>
<text text-anchor="start" x="149" y="-151.8" font-family="Times New Roman,serif" font-size="14.00" fill="red">Hund</text>
</g>
<!-- huntOHG&#45;&gt;hundG -->
<g id="edge9" class="edge">
<title>huntOHG&#45;&gt;hundG</title>
<path fill="none" stroke="black" d="M240.24,-359.93C224.23,-318.29 191.48,-233.14 174.78,-189.73"/>
<polygon fill="black" stroke="black" points="177.95,-188.21 171.09,-180.14 171.41,-190.73 177.95,-188.21"/>
</g>
<!-- keeshondD -->
<g id="node14" class="node">
<title>keeshondD</title>
<text text-anchor="start" x="305" y="-165.8" font-family="Times New Roman,serif" font-weight="bold" font-size="14.00">Dutch</text>
<text text-anchor="start" x="296.5" y="-151.8" font-family="Times New Roman,serif" font-size="14.00" fill="red">keeshond</text>
</g>
<!-- hondMD&#45;&gt;keeshondD -->
<g id="edge13" class="edge">
<title>hondMD&#45;&gt;keeshondD</title>
<path fill="none" stroke="black" d="M322.75,-215.7C322.86,-207.98 322.99,-198.71 323.11,-190.11"/>
<polygon fill="black" stroke="black" points="326.61,-190.15 323.26,-180.1 319.61,-190.05 326.61,-190.15"/>
</g>
<!-- hound -->
<g id="node9" class="node">
<title>hound</title>
<text text-anchor="start" x="8" y="-21.8" font-family="Times New Roman,serif" font-weight="bold" font-size="14.00">Modern English</text>
<text text-anchor="start" x="39.5" y="-7.8" font-family="Times New Roman,serif" font-size="14.00" fill="red">hound</text>
</g>
<!-- hundME&#45;&gt;hound -->
<g id="edge8" class="edge">
<title>hundME&#45;&gt;hound</title>
<path fill="none" stroke="black" d="M61.18,-215.85C60.49,-178.83 58.85,-91.18 58.01,-46.39"/>
<polygon fill="black" stroke="black" points="61.51,-46.17 57.82,-36.23 54.51,-46.3 61.51,-46.17"/>
</g>
<!-- dachshundG -->
<g id="node12" class="node">
<title>dachshundG</title>
<text text-anchor="start" x="158.5" y="-86.3" font-family="Times New Roman,serif" font-size="14.00" fill="red">Dachshund</text>
</g>
<!-- hundG&#45;&gt;dachshundG -->
<g id="edge10" class="edge">
<title>hundG&#45;&gt;dachshundG</title>
<path fill="none" stroke="black" d="M170.93,-143.7C173.86,-135.81 177.39,-126.3 180.64,-117.55"/>
<polygon fill="black" stroke="black" points="183.95,-118.7 184.15,-108.1 177.38,-116.26 183.95,-118.7"/>
</g>
<!-- dachs -->
<g id="node11" class="node">
<title>dachs</title>
<text text-anchor="start" x="225.5" y="-164.8" font-family="Times New Roman,serif" font-size="14.00" fill="red">Dachs</text>
<text text-anchor="start" x="227.5" y="-152.4" font-family="Times New Roman,serif" font-size="12.00">badger</text>
</g>
<!-- dachs&#45;&gt;dachshundG -->
<g id="edge11" class="edge">
<title>dachs&#45;&gt;dachshundG</title>
<path fill="none" stroke="black" d="M230.4,-143.7C224.11,-135.39 216.45,-125.28 209.54,-116.14"/>
<polygon fill="black" stroke="black" points="212.28,-113.96 203.45,-108.1 206.7,-118.19 212.28,-113.96"/>
</g>
<!-- dachshund -->
<g id="node13" class="node">
<title>dachshund</title>
<text text-anchor="start" x="141" y="-21.8" font-family="Times New Roman,serif" font-weight="bold" font-size="14.00">Modern English</text>
<text text-anchor="start" x="160" y="-7.8" font-family="Times New Roman,serif" font-size="14.00" fill="red">dachshund</text>
</g>
<!-- dachshundG&#45;&gt;dachshund -->
<g id="edge12" class="edge">
<title>dachshundG&#45;&gt;dachshund</title>
<path fill="none" stroke="black" stroke-dasharray="1,5" d="M190.5,-71.7C190.5,-63.98 190.5,-54.71 190.5,-46.11"/>
<polygon fill="black" stroke="black" points="194,-46.1 190.5,-36.1 187,-46.1 194,-46.1"/>
</g>
<!-- keeshond -->
<g id="node15" class="node">
<title>keeshond</title>
<text text-anchor="start" x="274" y="-21.8" font-family="Times New Roman,serif" font-weight="bold" font-size="14.00">Modern English</text>
<text text-anchor="start" x="296.5" y="-7.8" font-family="Times New Roman,serif" font-size="14.00" fill="red">keeshond</text>
</g>
<!-- keeshondD&#45;&gt;keeshond -->
<g id="edge14" class="edge">
<title>keeshondD&#45;&gt;keeshond</title>
<path fill="none" stroke="black" stroke-dasharray="1,5" d="M323.5,-143.87C323.5,-119.67 323.5,-75.21 323.5,-46.39"/>
<polygon fill="black" stroke="black" points="327,-46.19 323.5,-36.19 320,-46.19 327,-46.19"/>
</g>
<!-- corgiW -->
<g id="node18" class="node">
<title>corgiW</title>
<text text-anchor="start" x="442" y="-86.3" font-family="Times New Roman,serif" font-size="14.00" fill="red">corgi</text>
</g>
<!-- ci&#45;&gt;corgiW -->
<g id="edge16" class="edge">
<title>ci&#45;&gt;corgiW</title>
<path fill="none" stroke="black" d="M428.65,-143.7C432.9,-135.64 438.06,-125.89 442.77,-116.98"/>
<polygon fill="black" stroke="black" points="445.88,-118.58 447.46,-108.1 439.69,-115.31 445.88,-118.58"/>
</g>
<!-- cor -->
<g id="node17" class="node">
<title>cor</title>
<text text-anchor="start" x="483" y="-164.8" font-family="Times New Roman,serif" font-size="14.00" fill="red">cor</text>
<text text-anchor="start" x="479" y="-152.4" font-family="Times New Roman,serif" font-size="12.00">dwarf</text>
</g>
<!-- cor&#45;&gt;corgiW -->
<g id="edge17" class="edge">
<title>cor&#45;&gt;corgiW</title>
<path fill="none" stroke="black" d="M483.6,-143.7C479.5,-135.73 474.55,-126.1 470.01,-117.26"/>
<polygon fill="black" stroke="black" points="472.98,-115.4 465.3,-108.1 466.76,-118.6 472.98,-115.4"/>
</g>
<!-- corgi -->
<g id="node19" class="node">
<title>corgi</title>
<text text-anchor="start" x="407" y="-21.8" font-family="Times New Roman,serif" font-weight="bold" font-size="14.00">Modern English</text>
<text text-anchor="start" x="442" y="-7.8" font-family="Times New Roman,serif" font-size="14.00" fill="red">corgi</text>
</g>
<!-- corgiW&#45;&gt;corgi -->
<g id="edge18" class="edge">
<title>corgiW&#45;&gt;corgi</title>
<path fill="none" stroke="black" stroke-dasharray="1,5" d="M456.5,-71.7C456.5,-63.98 456.5,-54.71 456.5,-46.11"/>
<polygon fill="black" stroke="black" points="460,-46.1 456.5,-36.1 453,-46.1 460,-46.1"/>
</g>
<!-- cynicus -->
<g id="node21" class="node">
<title>cynicus</title>
<text text-anchor="start" x="573" y="-237.8" font-family="Times New Roman,serif" font-weight="bold" font-size="14.00">Latin</text>
<text text-anchor="start" x="568" y="-223.8" font-family="Times New Roman,serif" font-size="14.00" fill="red">cynicus</text>
</g>
<!-- kunikos&#45;&gt;cynicus -->
<g id="edge20" class="edge">
<title>kunikos&#45;&gt;cynicus</title>
<path fill="none" stroke="black" stroke-dasharray="1,5" d="M589.5,-287.7C589.5,-279.98 589.5,-270.71 589.5,-262.11"/>
<polygon fill="black" stroke="black" points="593,-262.1 589.5,-252.1 586,-262.1 593,-262.1"/>
</g>
<!-- cynic -->
<g id="node22" class="node">
<title>cynic</title>
<text text-anchor="start" x="540" y="-21.8" font-family="Times New Roman,serif" font-weight="bold" font-size="14.00">Modern English</text>
<text text-anchor="start" x="574" y="-7.8" font-family="Times New Roman,serif" font-size="14.00" fill="red">cynic</text>
</g>
<!-- cynicus&#45;&gt;cynic -->
<g id="edge21" class="edge">
<title>cynicus&#45;&gt;cynic</title>
<path fill="none" stroke="black" stroke-dasharray="1,5" d="M589.5,-215.85C589.5,-178.83 589.5,-91.18 589.5,-46.39"/>
<polygon fill="black" stroke="black" points="593,-46.23 589.5,-36.23 586,-46.23 593,-46.23"/>
</g>
<!-- kunosoura -->
<g id="node25" class="node">
<title>kunosoura</title>
<text text-anchor="start" x="691" y="-308.8" font-family="Times New Roman,serif" font-size="14.00" fill="red">kunosoura</text>
<text text-anchor="start" x="694" y="-296.4" font-family="Times New Roman,serif" font-size="12.00">Ursa Minor</text>
</g>
<!-- kunos&#45;&gt;kunosoura -->
<g id="edge23" class="edge">
<title>kunos&#45;&gt;kunosoura</title>
<path fill="none" stroke="black" d="M663.7,-366.91C673.62,-356.44 686.48,-342.88 697.46,-331.31"/>
<polygon fill="black" stroke="black" points="700,-333.71 704.34,-324.04 694.92,-328.89 700,-333.71"/>
</g>
<!-- oura -->
<g id="node24" class="node">
<title>oura</title>
<g id="a_node24"><a xlink:href="ors-butt.svg" xlink:title="&lt;font color=&quot;red&quot;&gt;ourā&lt;/font&gt;&lt;br/&gt;&lt;font point&#45;size=&quot;12&quot;&gt;tail&lt;/font&gt;">
<path fill="none" stroke="black" stroke-dasharray="5,2" d="M735.5,-403C735.5,-403 705.5,-403 705.5,-403 699.5,-403 693.5,-397 693.5,-391 693.5,-391 693.5,-379 693.5,-379 693.5,-373 699.5,-367 705.5,-367 705.5,-367 735.5,-367 735.5,-367 741.5,-367 747.5,-373 747.5,-379 747.5,-379 747.5,-391 747.5,-391 747.5,-397 741.5,-403 735.5,-403"/>
<text text-anchor="start" x="708" y="-387.8" font-family="Times New Roman,serif" font-size="14.00" fill="red">ourā</text>
<text text-anchor="start" x="714" y="-375.4" font-family="Times New Roman,serif" font-size="12.00">tail</text>
</a>
</g>
</g>
<!-- oura&#45;&gt;kunosoura -->
<g id="edge24" class="edge">
<title>oura&#45;&gt;kunosoura</title>
<path fill="none" stroke="black" d="M720.5,-366.91C720.5,-357.34 720.5,-345.18 720.5,-334.32"/>
<polygon fill="black" stroke="black" points="724,-334.04 720.5,-324.04 717,-334.04 724,-334.04"/>
</g>
<!-- cynosuraL -->
<g id="node26" class="node">
<title>cynosuraL</title>
<text text-anchor="start" x="705" y="-237.8" font-family="Times New Roman,serif" font-weight="bold" font-size="14.00">Latin</text>
<text text-anchor="start" x="695.5" y="-223.8" font-family="Times New Roman,serif" font-size="14.00" fill="red">cynosūra</text>
</g>
<!-- kunosoura&#45;&gt;cynosuraL -->
<g id="edge25" class="edge">
<title>kunosoura&#45;&gt;cynosuraL</title>
<path fill="none" stroke="black" stroke-dasharray="1,5" d="M720.75,-287.7C720.86,-279.98 720.99,-270.71 721.11,-262.11"/>
<polygon fill="black" stroke="black" points="724.61,-262.15 721.26,-252.1 717.61,-262.05 724.61,-262.15"/>
</g>
<!-- cynosureF -->
<g id="node27" class="node">
<title>cynosureF</title>
<text text-anchor="start" x="700.5" y="-165.8" font-family="Times New Roman,serif" font-weight="bold" font-size="14.00">French</text>
<text text-anchor="start" x="696.5" y="-151.8" font-family="Times New Roman,serif" font-size="14.00" fill="red">cynosure</text>
</g>
<!-- cynosuraL&#45;&gt;cynosureF -->
<g id="edge26" class="edge">
<title>cynosuraL&#45;&gt;cynosureF</title>
<path fill="none" stroke="black" d="M721.75,-215.7C721.86,-207.98 721.99,-198.71 722.11,-190.11"/>
<polygon fill="black" stroke="black" points="725.61,-190.15 722.26,-180.1 718.61,-190.05 725.61,-190.15"/>
</g>
<!-- cynosure -->
<g id="node28" class="node">
<title>cynosure</title>
<text text-anchor="start" x="673" y="-21.8" font-family="Times New Roman,serif" font-weight="bold" font-size="14.00">Modern English</text>
<text text-anchor="start" x="696.5" y="-7.8" font-family="Times New Roman,serif" font-size="14.00" fill="red">cynosure</text>
</g>
<!-- cynosureF&#45;&gt;cynosure -->
<g id="edge27" class="edge">
<title>cynosureF&#45;&gt;cynosure</title>
<path fill="none" stroke="black" stroke-dasharray="1,5" d="M722.5,-143.87C722.5,-119.67 722.5,-75.21 722.5,-46.39"/>
<polygon fill="black" stroke="black" points="726,-46.19 722.5,-36.19 719,-46.19 726,-46.19"/>
</g>
</g>
</svg>
