<?xml version="1.0" encoding="UTF-8" standalone="no"?>
<!DOCTYPE svg PUBLIC "-//W3C//DTD SVG 1.1//EN"
 "http://www.w3.org/Graphics/SVG/1.1/DTD/svg11.dtd">
<!-- Generated by graphviz version 2.44.1 (20200629.0846)
 -->
<!-- Title: 2 Pages: 1 -->
<svg width="655pt" height="586pt"
 viewBox="0.00 0.00 655.00 586.00" xmlns="http://www.w3.org/2000/svg" xmlns:xlink="http://www.w3.org/1999/xlink">
<g id="graph0" class="graph" transform="scale(1 1) rotate(0) translate(4 582)">
<title>2</title>
<polygon fill="white" stroke="transparent" points="-4,4 -4,-582 651,-582 651,4 -4,4"/>
<!-- kwon -->
<g id="node1" class="node">
<title>kwon</title>
<text text-anchor="start" x="371" y="-563.8" font-family="Times New Roman,serif" font-weight="bold" font-size="14.00">Indo&#45;European</text>
<text text-anchor="start" x="385" y="-549.8" font-family="Times New Roman,serif" font-size="14.00" fill="red">kwon</text>
<text text-anchor="start" x="416" y="-549.8" font-family="Times New Roman,serif" font-size="14.00"> &#160;&#160;dog</text>
</g>
<!-- canis -->
<g id="node2" class="node">
<title>canis</title>
<text text-anchor="start" x="401" y="-491.8" font-family="Times New Roman,serif" font-weight="bold" font-size="14.00">Latin</text>
<text text-anchor="start" x="403" y="-477.8" font-family="Times New Roman,serif" font-size="14.00" fill="red">canis</text>
</g>
<!-- kwon&#45;&gt;canis -->
<g id="edge1" class="edge">
<title>kwon&#45;&gt;canis</title>
<path fill="none" stroke="black" d="M417.5,-541.7C417.5,-533.98 417.5,-524.71 417.5,-516.11"/>
<polygon fill="black" stroke="black" points="421,-516.1 417.5,-506.1 414,-516.1 421,-516.1"/>
</g>
<!-- caninus -->
<g id="node3" class="node">
<title>caninus</title>
<text text-anchor="start" x="84.5" y="-418.8" font-family="Times New Roman,serif" font-size="14.00" fill="red">canīnus</text>
<text text-anchor="start" x="71.5" y="-406.4" font-family="Times New Roman,serif" font-size="12.00">relating to dogs</text>
</g>
<!-- canis&#45;&gt;caninus -->
<g id="edge2" class="edge">
<title>canis&#45;&gt;caninus</title>
<path fill="none" stroke="black" d="M390.44,-480.91C339.07,-469.35 226.55,-444.02 159.61,-428.95"/>
<polygon fill="black" stroke="black" points="160.2,-425.5 149.67,-426.72 158.66,-432.33 160.2,-425.5"/>
</g>
<!-- canarius -->
<g id="node4" class="node">
<title>canarius</title>
<text text-anchor="start" x="216.5" y="-418.8" font-family="Times New Roman,serif" font-size="14.00" fill="red">canārius</text>
<text text-anchor="start" x="225" y="-406.4" font-family="Times New Roman,serif" font-size="12.00">canine</text>
</g>
<!-- canis&#45;&gt;canarius -->
<g id="edge3" class="edge">
<title>canis&#45;&gt;canarius</title>
<path fill="none" stroke="black" d="M390.47,-476.37C361.17,-464.85 314.08,-446.33 280.28,-433.04"/>
<polygon fill="black" stroke="black" points="281.28,-429.67 270.69,-429.27 278.72,-436.18 281.28,-429.67"/>
</g>
<!-- canileL -->
<g id="node5" class="node">
<title>canileL</title>
<text text-anchor="start" x="334.5" y="-418.8" font-family="Times New Roman,serif" font-size="14.00" fill="red">canīle</text>
<text text-anchor="start" x="316.5" y="-406.4" font-family="Times New Roman,serif" font-size="12.00">shelter for dogs</text>
</g>
<!-- canis&#45;&gt;canileL -->
<g id="edge4" class="edge">
<title>canis&#45;&gt;canileL</title>
<path fill="none" stroke="black" d="M401.19,-469.7C393.19,-461.22 383.43,-450.86 374.68,-441.58"/>
<polygon fill="black" stroke="black" points="377.03,-438.98 367.63,-434.1 371.94,-443.78 377.03,-438.98"/>
</g>
<!-- canicula -->
<g id="node6" class="node">
<title>canicula</title>
<text text-anchor="start" x="422" y="-418.8" font-family="Times New Roman,serif" font-size="14.00" fill="red">canīcula</text>
<text text-anchor="start" x="426" y="-406.4" font-family="Times New Roman,serif" font-size="12.00">little dog</text>
</g>
<!-- canis&#45;&gt;canicula -->
<g id="edge5" class="edge">
<title>canis&#45;&gt;canicula</title>
<path fill="none" stroke="black" d="M424.42,-469.7C427.57,-461.81 431.38,-452.3 434.88,-443.55"/>
<polygon fill="black" stroke="black" points="438.19,-444.69 438.66,-434.1 431.69,-442.09 438.19,-444.69"/>
</g>
<!-- canisE -->
<g id="node18" class="node">
<title>canisE</title>
<text text-anchor="start" x="540" y="-35.8" font-family="Times New Roman,serif" font-weight="bold" font-size="14.00">Modern English</text>
<text text-anchor="start" x="555" y="-21.8" font-family="Times New Roman,serif" font-size="14.00" fill="red">Canis Major</text>
<text text-anchor="start" x="554.5" y="-7.8" font-family="Times New Roman,serif" font-size="14.00" fill="red">Canis Minor</text>
</g>
<!-- canis&#45;&gt;canisE -->
<g id="edge17" class="edge">
<title>canis&#45;&gt;canisE</title>
<path fill="none" stroke="black" stroke-dasharray="1,5" d="M444.75,-478.62C493.25,-461.83 589.5,-419.15 589.5,-345 589.5,-345 589.5,-345 589.5,-187 589.5,-143.3 589.5,-92.94 589.5,-60.34"/>
<polygon fill="black" stroke="black" points="593,-60 589.5,-50 586,-60 593,-60"/>
</g>
<!-- canine -->
<g id="node7" class="node">
<title>canine</title>
<text text-anchor="start" x="8" y="-28.8" font-family="Times New Roman,serif" font-weight="bold" font-size="14.00">Modern English</text>
<text text-anchor="start" x="39.5" y="-14.8" font-family="Times New Roman,serif" font-size="14.00" fill="red">canine</text>
</g>
<!-- caninus&#45;&gt;canine -->
<g id="edge6" class="edge">
<title>caninus&#45;&gt;canine</title>
<path fill="none" stroke="black" stroke-dasharray="1,5" d="M96.82,-397.84C82.54,-370.88 57.5,-316.53 57.5,-267 57.5,-267 57.5,-267 57.5,-187 57.5,-140.24 57.5,-85.85 57.5,-53.76"/>
<polygon fill="black" stroke="black" points="61,-53.39 57.5,-43.39 54,-53.39 61,-53.39"/>
</g>
<!-- canariae -->
<g id="node8" class="node">
<title>canariae</title>
<text text-anchor="start" x="163.5" y="-346.8" font-family="Times New Roman,serif" font-size="14.00" fill="red">Canāriae (Insulae)</text>
<text text-anchor="start" x="176" y="-334.4" font-family="Times New Roman,serif" font-size="12.00">(islands) of dogs</text>
</g>
<!-- canarius&#45;&gt;canariae -->
<g id="edge7" class="edge">
<title>canarius&#45;&gt;canariae</title>
<path fill="none" stroke="black" d="M233.07,-397.7C230.14,-389.81 226.61,-380.3 223.36,-371.55"/>
<polygon fill="black" stroke="black" points="226.62,-370.26 219.85,-362.1 220.05,-372.7 226.62,-370.26"/>
</g>
<!-- kenilNF -->
<g id="node13" class="node">
<title>kenilNF</title>
<text text-anchor="start" x="300.5" y="-347.8" font-family="Times New Roman,serif" font-weight="bold" font-size="14.00">Norman French</text>
<text text-anchor="start" x="336.5" y="-333.8" font-family="Times New Roman,serif" font-size="14.00" fill="red">kenil</text>
</g>
<!-- canileL&#45;&gt;kenilNF -->
<g id="edge12" class="edge">
<title>canileL&#45;&gt;kenilNF</title>
<path fill="none" stroke="black" d="M351.01,-397.7C350.79,-389.98 350.52,-380.71 350.27,-372.11"/>
<polygon fill="black" stroke="black" points="353.77,-372 349.99,-362.1 346.78,-372.2 353.77,-372"/>
</g>
<!-- chenilleF -->
<g id="node16" class="node">
<title>chenilleF</title>
<text text-anchor="start" x="434.5" y="-119.8" font-family="Times New Roman,serif" font-weight="bold" font-size="14.00">French</text>
<text text-anchor="start" x="435.5" y="-105.8" font-family="Times New Roman,serif" font-size="14.00" fill="red">chenille</text>
<text text-anchor="start" x="414.5" y="-93.4" font-family="Times New Roman,serif" font-size="12.00">caterpillar, chenille</text>
</g>
<!-- canicula&#45;&gt;chenilleF -->
<g id="edge15" class="edge">
<title>canicula&#45;&gt;chenilleF</title>
<path fill="none" stroke="black" d="M446.12,-397.78C447.89,-348.88 452.97,-208.53 455.3,-144.08"/>
<polygon fill="black" stroke="black" points="458.8,-144.17 455.67,-134.05 451.81,-143.92 458.8,-144.17"/>
</g>
<!-- canarias -->
<g id="node9" class="node">
<title>canarias</title>
<text text-anchor="start" x="177" y="-275.8" font-family="Times New Roman,serif" font-weight="bold" font-size="14.00">Spanish</text>
<text text-anchor="start" x="158" y="-261.8" font-family="Times New Roman,serif" font-size="14.00" fill="red">(Islas) Canarias</text>
<text text-anchor="start" x="163.5" y="-249.4" font-family="Times New Roman,serif" font-size="12.00">Canary (Islands)</text>
</g>
<!-- canariae&#45;&gt;canarias -->
<g id="edge8" class="edge">
<title>canariae&#45;&gt;canarias</title>
<path fill="none" stroke="black" d="M210.78,-325.75C209.58,-318.2 208.14,-309.07 206.75,-300.28"/>
<polygon fill="black" stroke="black" points="210.18,-299.56 205.17,-290.23 203.27,-300.65 210.18,-299.56"/>
</g>
<!-- canarioS -->
<g id="node10" class="node">
<title>canarioS</title>
<text text-anchor="start" x="178" y="-190.8" font-family="Times New Roman,serif" font-size="14.00" fill="red">canario</text>
<text text-anchor="start" x="150" y="-178.4" font-family="Times New Roman,serif" font-size="12.00">of the Canary Islands</text>
</g>
<!-- canarias&#45;&gt;canarioS -->
<g id="edge9" class="edge">
<title>canarias&#45;&gt;canarioS</title>
<path fill="none" stroke="black" d="M200.58,-241.78C200.26,-233.68 199.9,-224.52 199.57,-216.12"/>
<polygon fill="black" stroke="black" points="203.06,-215.9 199.17,-206.04 196.07,-216.17 203.06,-215.9"/>
</g>
<!-- canariF -->
<g id="node11" class="node">
<title>canariF</title>
<text text-anchor="start" x="170.5" y="-113.8" font-family="Times New Roman,serif" font-weight="bold" font-size="14.00">French</text>
<text text-anchor="start" x="175.5" y="-99.8" font-family="Times New Roman,serif" font-size="14.00" fill="red">canari</text>
</g>
<!-- canarioS&#45;&gt;canariF -->
<g id="edge10" class="edge">
<title>canarioS&#45;&gt;canariF</title>
<path fill="none" stroke="black" stroke-dasharray="1,5" d="M197.14,-169.75C196.4,-160.43 195.48,-148.69 194.64,-138.17"/>
<polygon fill="black" stroke="black" points="198.13,-137.87 193.86,-128.18 191.15,-138.42 198.13,-137.87"/>
</g>
<!-- canary -->
<g id="node12" class="node">
<title>canary</title>
<text text-anchor="start" x="141" y="-28.8" font-family="Times New Roman,serif" font-weight="bold" font-size="14.00">Modern English</text>
<text text-anchor="start" x="172" y="-14.8" font-family="Times New Roman,serif" font-size="14.00" fill="red">canary</text>
</g>
<!-- canariF&#45;&gt;canary -->
<g id="edge11" class="edge">
<title>canariF&#45;&gt;canary</title>
<path fill="none" stroke="black" stroke-dasharray="1,5" d="M192.09,-91.8C191.82,-80.67 191.46,-65.94 191.16,-53.24"/>
<polygon fill="black" stroke="black" points="194.65,-53.09 190.91,-43.18 187.66,-53.26 194.65,-53.09"/>
</g>
<!-- kenelME -->
<g id="node14" class="node">
<title>kenelME</title>
<text text-anchor="start" x="297" y="-191.8" font-family="Times New Roman,serif" font-weight="bold" font-size="14.00">Middle English</text>
<text text-anchor="start" x="329" y="-177.8" font-family="Times New Roman,serif" font-size="14.00" fill="red">kenel</text>
</g>
<!-- kenilNF&#45;&gt;kenelME -->
<g id="edge13" class="edge">
<title>kenilNF&#45;&gt;kenelME</title>
<path fill="none" stroke="black" stroke-dasharray="1,5" d="M348.83,-325.93C347.8,-299.45 345.81,-248.22 344.57,-216.49"/>
<polygon fill="black" stroke="black" points="348.05,-216 344.17,-206.15 341.06,-216.27 348.05,-216"/>
</g>
<!-- kennel -->
<g id="node15" class="node">
<title>kennel</title>
<text text-anchor="start" x="274" y="-28.8" font-family="Times New Roman,serif" font-weight="bold" font-size="14.00">Modern English</text>
<text text-anchor="start" x="305.5" y="-14.8" font-family="Times New Roman,serif" font-size="14.00" fill="red">kennel</text>
</g>
<!-- kenelME&#45;&gt;kennel -->
<g id="edge14" class="edge">
<title>kenelME&#45;&gt;kennel</title>
<path fill="none" stroke="black" d="M341.36,-169.77C337.89,-141.81 330.99,-86.33 326.86,-53.06"/>
<polygon fill="black" stroke="black" points="330.33,-52.6 325.62,-43.11 323.38,-53.46 330.33,-52.6"/>
</g>
<!-- chenille -->
<g id="node17" class="node">
<title>chenille</title>
<text text-anchor="start" x="407" y="-28.8" font-family="Times New Roman,serif" font-weight="bold" font-size="14.00">Modern English</text>
<text text-anchor="start" x="435.5" y="-14.8" font-family="Times New Roman,serif" font-size="14.00" fill="red">chenille</text>
</g>
<!-- chenilleF&#45;&gt;chenille -->
<g id="edge16" class="edge">
<title>chenilleF&#45;&gt;chenille</title>
<path fill="none" stroke="black" stroke-dasharray="1,5" d="M456.5,-85.88C456.5,-75.84 456.5,-64 456.5,-53.51"/>
<polygon fill="black" stroke="black" points="460,-53.21 456.5,-43.21 453,-53.21 460,-53.21"/>
</g>
</g>
</svg>
