<?xml version="1.0" encoding="UTF-8" standalone="no"?>
<!DOCTYPE svg PUBLIC "-//W3C//DTD SVG 1.1//EN"
 "http://www.w3.org/Graphics/SVG/1.1/DTD/svg11.dtd">
<!-- Generated by graphviz version 2.49.0 (20210828.1703)
 -->
<!-- Pages: 1 -->
<svg width="227pt" height="231pt"
 viewBox="0.00 0.00 227.00 231.00" xmlns="http://www.w3.org/2000/svg" xmlns:xlink="http://www.w3.org/1999/xlink">
<g id="graph0" class="graph" transform="scale(1 1) rotate(0) translate(4 227)">
<polygon fill="white" stroke="transparent" points="-4,4 -4,-227 223,-227 223,4 -4,4"/>
<!-- kwon -->
<g id="node1" class="node">
<title>kwon</title>
<g id="a_node1"><a xlink:title="Indo&#45;European &quot;kwon&quot; dog">
<polygon fill="none" stroke="black" points="215,-219 4,-219 4,-115 215,-115 215,-219"/>
<polygon fill="none" stroke="black" points="219,-223 0,-223 0,-111 219,-111 219,-223"/>
<text text-anchor="start" x="31.5" y="-174.8" font-family="Times New Roman,serif" font-weight="bold" font-size="24.00">Indo&#45;European</text>
<text text-anchor="start" x="52.5" y="-146.6" font-family="Times New Roman,serif" font-size="18.00" fill="red">kwon</text>
<text text-anchor="start" x="143" y="-147.2" font-family="Times New Roman,serif" font-size="16.00">dog</text>
</a>
</g>
</g>
<!-- link2 -->
<g id="node2" class="node">
<title>link2</title>
<g id="a_node2"><a xlink:href="kwon-dog2.svg" xlink:title="Latin &quot;canis&quot;">
<path fill="none" stroke="black" stroke-dasharray="5,2" d="M83.5,-38C83.5,-38 53.5,-38 53.5,-38 47.5,-38 41.5,-32 41.5,-26 41.5,-26 41.5,-12 41.5,-12 41.5,-6 47.5,0 53.5,0 53.5,0 83.5,0 83.5,0 89.5,0 95.5,-6 95.5,-12 95.5,-12 95.5,-26 95.5,-26 95.5,-32 89.5,-38 83.5,-38"/>
<text text-anchor="start" x="54.5" y="-22.8" font-family="Times New Roman,serif" font-size="14.00">Latin</text>
<text text-anchor="start" x="54" y="-7.8" font-family="Times New Roman,serif" font-size="14.00" fill="red">canis</text>
</a>
</g>
</g>
<!-- kwon&#45;&gt;link2 -->
<g id="edge1" class="edge">
<title>kwon&#45;&gt;link2</title>
<path fill="none" stroke="black" d="M109.5,-110C109.5,-110 93.06,-73.92 81,-47.45"/>
<polygon fill="black" stroke="black" points="84.13,-45.86 76.8,-38.21 77.76,-48.76 84.13,-45.86"/>
</g>
<!-- link1 -->
<g id="node3" class="node">
<title>link1</title>
<g id="a_node3"><a xlink:href="kwon-dog1.svg" xlink:title="all other derivatives">
<path fill="none" stroke="black" stroke-dasharray="5,2" d="M177.5,-38C177.5,-38 125.5,-38 125.5,-38 119.5,-38 113.5,-32 113.5,-26 113.5,-26 113.5,-12 113.5,-12 113.5,-6 119.5,0 125.5,0 125.5,0 177.5,0 177.5,0 183.5,0 189.5,-6 189.5,-12 189.5,-12 189.5,-26 189.5,-26 189.5,-32 183.5,-38 177.5,-38"/>
<text text-anchor="start" x="129" y="-22.8" font-family="Times New Roman,serif" font-size="14.00">all other</text>
<text text-anchor="start" x="121.5" y="-7.8" font-family="Times New Roman,serif" font-size="14.00">derivatives</text>
</a>
</g>
</g>
<!-- kwon&#45;&gt;link1 -->
<g id="edge2" class="edge">
<title>kwon&#45;&gt;link1</title>
<path fill="none" stroke="black" d="M109.5,-110C109.5,-110 126.34,-73.92 138.69,-47.45"/>
<polygon fill="black" stroke="black" points="141.94,-48.75 143,-38.21 135.6,-45.79 141.94,-48.75"/>
</g>
</g>
</svg>
