<?xml version="1.0" encoding="UTF-8" standalone="no"?>
<!DOCTYPE svg PUBLIC "-//W3C//DTD SVG 1.1//EN"
 "http://www.w3.org/Graphics/SVG/1.1/DTD/svg11.dtd">
<!-- Generated by graphviz version 2.49.0 (20210828.1703)
 -->
<!-- Pages: 1 -->
<svg width="883pt" height="748pt"
 viewBox="0.00 0.00 883.00 748.00" xmlns="http://www.w3.org/2000/svg" xmlns:xlink="http://www.w3.org/1999/xlink">
<g id="graph0" class="graph" transform="scale(1 1) rotate(0) translate(4 744)">
<polygon fill="white" stroke="transparent" points="-4,4 -4,-744 879,-744 879,4 -4,4"/>
<!-- kwon -->
<g id="node1" class="node">
<title>kwon</title>
<g id="a_node1"><a xlink:href="kwon-dog0.svg" xlink:title="&lt;font point&#45;size=&quot;24&quot;&gt;&lt;b&gt;Indo&#45;European&lt;/b&gt;&lt;/font&gt;&lt;br/&gt;&lt;font point&#45;size=&quot;18&quot; color=&quot;red&quot;&gt;kwon &lt;/font&gt;&lt;font point&#45;size=&quot;16&quot;&gt;dog&lt;/font&gt;">
<path fill="none" stroke="black" stroke-dasharray="5,2" d="M436,-734C436,-734 287,-734 287,-734 281,-734 275,-728 275,-722 275,-722 275,-696 275,-696 275,-690 281,-684 287,-684 287,-684 436,-684 436,-684 442,-684 448,-690 448,-696 448,-696 448,-722 448,-722 448,-728 442,-734 436,-734"/>
<text text-anchor="start" x="283" y="-711.8" font-family="Times New Roman,serif" font-weight="bold" font-size="24.00">Indo&#45;European</text>
<text text-anchor="start" x="327" y="-692.6" font-family="Times New Roman,serif" font-size="18.00" fill="red">kwon </text>
<text text-anchor="start" x="372" y="-692.6" font-family="Times New Roman,serif" font-size="16.00">dog</text>
</a>
</g>
</g>
<!-- hundaz -->
<g id="node2" class="node">
<title>hundaz</title>
<text text-anchor="start" x="239" y="-537.8" font-family="Times New Roman,serif" font-weight="bold" font-size="14.00">Germanic</text>
<text text-anchor="start" x="249.5" y="-523.8" font-family="Times New Roman,serif" font-size="14.00" fill="red">hundaz</text>
</g>
<!-- kwon&#45;&gt;hundaz -->
<g id="edge1" class="edge">
<title>kwon&#45;&gt;hundaz</title>
<path fill="none" stroke="black" d="M364.5,-683C364.5,-683 313.2,-603.08 286,-560.7"/>
<polygon fill="black" stroke="black" points="288.93,-558.79 280.58,-552.27 283.04,-562.57 288.93,-558.79"/>
</g>
<!-- kun -->
<g id="node3" class="node">
<title>kun</title>
<text text-anchor="start" x="343" y="-537.8" font-family="Times New Roman,serif" font-weight="bold" font-size="14.00">Celtic</text>
<text text-anchor="start" x="349" y="-523.8" font-family="Times New Roman,serif" font-size="14.00" fill="red">kun&#45;</text>
</g>
<!-- kwon&#45;&gt;kun -->
<g id="edge2" class="edge">
<title>kwon&#45;&gt;kun</title>
<path fill="none" stroke="black" d="M364.5,-683C364.5,-683 362.92,-605.08 362.05,-562.31"/>
<polygon fill="black" stroke="black" points="365.55,-562.19 361.85,-552.27 358.55,-562.34 365.55,-562.19"/>
</g>
<!-- kuon -->
<g id="node4" class="node">
<title>kuon</title>
<text text-anchor="start" x="544.5" y="-537.8" font-family="Times New Roman,serif" font-weight="bold" font-size="14.00">Greek</text>
<text text-anchor="start" x="534" y="-523.8" font-family="Times New Roman,serif" font-size="14.00" fill="red">kuōn, kun&#45;</text>
</g>
<!-- kwon&#45;&gt;kuon -->
<g id="edge3" class="edge">
<title>kwon&#45;&gt;kuon</title>
<path fill="none" stroke="black" d="M364.5,-683C364.5,-683 476.6,-600.04 532.95,-558.35"/>
<polygon fill="black" stroke="black" points="535.21,-561.03 541.17,-552.27 531.05,-555.4 535.21,-561.03"/>
</g>
<!-- hundOE -->
<g id="node5" class="node">
<title>hundOE</title>
<text text-anchor="start" x="69" y="-452.8" font-family="Times New Roman,serif" font-weight="bold" font-size="14.00">Old English</text>
<text text-anchor="start" x="91.5" y="-438.8" font-family="Times New Roman,serif" font-size="14.00" fill="red">hund</text>
</g>
<!-- hundaz&#45;&gt;hundOE -->
<g id="edge4" class="edge">
<title>hundaz&#45;&gt;hundOE</title>
<path fill="none" stroke="black" d="M258.5,-515C258.5,-515 199.69,-490.02 155,-471.03"/>
<polygon fill="black" stroke="black" points="156.27,-467.77 145.7,-467.08 153.53,-474.21 156.27,-467.77"/>
</g>
<!-- huntOHG -->
<g id="node6" class="node">
<title>huntOHG</title>
<text text-anchor="start" x="180.5" y="-459.8" font-family="Times New Roman,serif" font-weight="bold" font-size="14.00">Old High</text>
<text text-anchor="start" x="183" y="-445.8" font-family="Times New Roman,serif" font-weight="bold" font-size="14.00">German</text>
<text text-anchor="start" x="194.5" y="-431.8" font-family="Times New Roman,serif" font-size="14.00" fill="red">Hunt</text>
</g>
<!-- hundaz&#45;&gt;huntOHG -->
<g id="edge5" class="edge">
<title>hundaz&#45;&gt;huntOHG</title>
<path fill="none" stroke="black" d="M258.5,-515C258.5,-515 245.82,-498.52 233.23,-482.15"/>
<polygon fill="black" stroke="black" points="235.99,-480 227.12,-474.2 230.44,-484.26 235.99,-480"/>
</g>
<!-- hondMD -->
<g id="node7" class="node">
<title>hondMD</title>
<text text-anchor="start" x="256" y="-301.8" font-family="Times New Roman,serif" font-weight="bold" font-size="14.00">Middle</text>
<text text-anchor="start" x="259" y="-287.8" font-family="Times New Roman,serif" font-weight="bold" font-size="14.00">Dutch</text>
<text text-anchor="start" x="263" y="-273.8" font-family="Times New Roman,serif" font-size="14.00" fill="red">hond</text>
</g>
<!-- hundaz&#45;&gt;hondMD -->
<g id="edge6" class="edge">
<title>hundaz&#45;&gt;hondMD</title>
<path fill="none" stroke="black" d="M258.5,-515C258.5,-515 269.23,-389.08 274.56,-326.48"/>
<polygon fill="black" stroke="black" points="278.07,-326.55 275.43,-316.29 271.09,-325.96 278.07,-326.55"/>
</g>
<!-- ci -->
<g id="node16" class="node">
<title>ci</title>
<text text-anchor="start" x="342" y="-209.8" font-family="Times New Roman,serif" font-weight="bold" font-size="14.00">Welsh</text>
<text text-anchor="start" x="356.5" y="-195.8" font-family="Times New Roman,serif" font-size="14.00" fill="red">ci</text>
</g>
<!-- kun&#45;&gt;ci -->
<g id="edge16" class="edge">
<title>kun&#45;&gt;ci</title>
<path fill="none" stroke="black" d="M361.5,-515.93C361.5,-462.8 361.5,-300.02 361.5,-234.62"/>
<polygon fill="black" stroke="black" points="365,-234.29 361.5,-224.29 358,-234.29 365,-234.29"/>
</g>
<!-- kunikos -->
<g id="node20" class="node">
<title>kunikos</title>
<text text-anchor="start" x="463.5" y="-451.8" font-family="Times New Roman,serif" font-size="14.00" fill="red">kunicos</text>
<text text-anchor="start" x="447.5" y="-439.4" font-family="Times New Roman,serif" font-size="12.00">Cynic philospher</text>
</g>
<!-- kuon&#45;&gt;kunikos -->
<g id="edge21" class="edge">
<title>kuon&#45;&gt;kunikos</title>
<path fill="none" stroke="black" d="M573.5,-515C573.5,-515 542.18,-491.86 516.91,-473.2"/>
<polygon fill="black" stroke="black" points="518.74,-470.2 508.62,-467.08 514.59,-475.83 518.74,-470.2"/>
</g>
<!-- kunos -->
<g id="node23" class="node">
<title>kunos</title>
<text text-anchor="start" x="559.5" y="-451.8" font-family="Times New Roman,serif" font-size="14.00" fill="red">kunos</text>
<text text-anchor="start" x="564" y="-439.4" font-family="Times New Roman,serif" font-size="12.00">dog&#39;s</text>
</g>
<!-- kuon&#45;&gt;kunos -->
<g id="edge24" class="edge">
<title>kuon&#45;&gt;kunos</title>
<path fill="none" stroke="black" d="M573.5,-515C573.5,-515 574.42,-494.97 575.25,-477.15"/>
<polygon fill="black" stroke="black" points="578.75,-477.23 575.71,-467.08 571.75,-476.91 578.75,-477.23"/>
</g>
<!-- kunankhe -->
<g id="node29" class="node">
<title>kunankhe</title>
<text text-anchor="start" x="673" y="-457.8" font-family="Times New Roman,serif" font-size="14.00" fill="red">kunankhē</text>
<text text-anchor="start" x="675" y="-445.4" font-family="Times New Roman,serif" font-size="12.00">dog collar,</text>
<text text-anchor="start" x="667.5" y="-433.4" font-family="Times New Roman,serif" font-size="12.00">quinsy in dogs</text>
</g>
<!-- kuon&#45;&gt;kunankhe -->
<g id="edge31" class="edge">
<title>kuon&#45;&gt;kunankhe</title>
<path fill="none" stroke="black" d="M573.5,-515C573.5,-515 649.54,-486.74 676.87,-476.58"/>
<polygon fill="black" stroke="black" points="678.35,-479.76 686.5,-473 675.91,-473.2 678.35,-479.76"/>
</g>
<!-- prokuon -->
<g id="node37" class="node">
<title>prokuon</title>
<text text-anchor="start" x="787" y="-445.3" font-family="Times New Roman,serif" font-size="14.00" fill="red">Prokuōn</text>
</g>
<!-- kuon&#45;&gt;prokuon -->
<g id="edge39" class="edge">
<title>kuon&#45;&gt;prokuon</title>
<path fill="none" stroke="black" d="M573.5,-515C573.5,-515 745,-479.18 788.54,-470.08"/>
<polygon fill="black" stroke="black" points="789.43,-473.47 798.5,-468 788,-466.62 789.43,-473.47"/>
</g>
<!-- hundME -->
<g id="node8" class="node">
<title>hundME</title>
<text text-anchor="start" x="8" y="-294.8" font-family="Times New Roman,serif" font-weight="bold" font-size="14.00">Middle English</text>
<text text-anchor="start" x="40.5" y="-280.8" font-family="Times New Roman,serif" font-size="14.00" fill="red">hund</text>
</g>
<!-- hundOE&#45;&gt;hundME -->
<g id="edge7" class="edge">
<title>hundOE&#45;&gt;hundME</title>
<path fill="none" stroke="black" d="M99.85,-430.71C91,-403.65 73.82,-351.09 63.33,-319.01"/>
<polygon fill="black" stroke="black" points="66.61,-317.79 60.18,-309.37 59.96,-319.96 66.61,-317.79"/>
</g>
<!-- hundG -->
<g id="node10" class="node">
<title>hundG</title>
<text text-anchor="start" x="83" y="-209.8" font-family="Times New Roman,serif" font-weight="bold" font-size="14.00">German</text>
<text text-anchor="start" x="93" y="-195.8" font-family="Times New Roman,serif" font-size="14.00" fill="red">Hund</text>
</g>
<!-- huntOHG&#45;&gt;hundG -->
<g id="edge9" class="edge">
<title>huntOHG&#45;&gt;hundG</title>
<path fill="none" stroke="black" d="M198.36,-423.57C179.49,-378.08 139.11,-280.77 119.56,-233.65"/>
<polygon fill="black" stroke="black" points="122.67,-232.03 115.61,-224.13 116.21,-234.71 122.67,-232.03"/>
</g>
<!-- keeshondD -->
<g id="node14" class="node">
<title>keeshondD</title>
<text text-anchor="start" x="262" y="-209.8" font-family="Times New Roman,serif" font-weight="bold" font-size="14.00">Dutch</text>
<text text-anchor="start" x="253.5" y="-195.8" font-family="Times New Roman,serif" font-size="14.00" fill="red">keeshond</text>
</g>
<!-- hondMD&#45;&gt;keeshondD -->
<g id="edge14" class="edge">
<title>hondMD&#45;&gt;keeshondD</title>
<path fill="none" stroke="black" d="M278.37,-265.99C278.73,-256.04 279.15,-244.45 279.52,-234.19"/>
<polygon fill="black" stroke="black" points="283.02,-234.22 279.88,-224.1 276.02,-233.97 283.02,-234.22"/>
</g>
<!-- hound -->
<g id="node9" class="node">
<title>hound</title>
<text text-anchor="start" x="22" y="-47.8" font-family="Times New Roman,serif" font-weight="bold" font-size="14.00">Modern</text>
<text text-anchor="start" x="23.5" y="-33.8" font-family="Times New Roman,serif" font-weight="bold" font-size="14.00">English</text>
<text text-anchor="start" x="28.5" y="-19.8" font-family="Times New Roman,serif" font-size="14.00" fill="red">hound</text>
</g>
<!-- hundME&#45;&gt;hound -->
<g id="edge8" class="edge">
<title>hundME&#45;&gt;hound</title>
<path fill="none" stroke="black" d="M53.95,-272.68C52.64,-231.5 49.33,-127.12 47.6,-72.51"/>
<polygon fill="black" stroke="black" points="51.09,-72.17 47.27,-62.28 44.09,-72.39 51.09,-72.17"/>
</g>
<!-- dachshundG -->
<g id="node12" class="node">
<title>dachshundG</title>
<text text-anchor="start" x="130.5" y="-124.3" font-family="Times New Roman,serif" font-size="14.00" fill="red">Dachshund</text>
</g>
<!-- hundG&#45;&gt;dachshundG -->
<g id="edge10" class="edge">
<title>hundG&#45;&gt;dachshundG</title>
<path fill="none" stroke="black" d="M123.82,-187.91C133.77,-176.82 146.24,-162.91 153.78,-154.5"/>
<polygon fill="black" stroke="black" points="156.43,-156.78 160.5,-147 151.22,-152.11 156.43,-156.78"/>
</g>
<!-- dachs -->
<g id="node11" class="node">
<title>dachs</title>
<text text-anchor="start" x="168" y="-215.8" font-family="Times New Roman,serif" font-weight="bold" font-size="14.00">German</text>
<text text-anchor="start" x="175.5" y="-201.8" font-family="Times New Roman,serif" font-size="14.00" fill="red">Dachs</text>
<text text-anchor="start" x="177.5" y="-189.4" font-family="Times New Roman,serif" font-size="12.00">badger</text>
</g>
<!-- dachs&#45;&gt;hundG -->
<!-- dachs&#45;&gt;dachshundG -->
<g id="edge11" class="edge">
<title>dachs&#45;&gt;dachshundG</title>
<path fill="none" stroke="black" d="M180.27,-181.74C175.1,-172.67 169.49,-162.81 165.57,-155.92"/>
<polygon fill="black" stroke="black" points="168.49,-153.96 160.5,-147 162.4,-157.42 168.49,-153.96"/>
</g>
<!-- dachshund -->
<g id="node13" class="node">
<title>dachshund</title>
<text text-anchor="start" x="138" y="-47.8" font-family="Times New Roman,serif" font-weight="bold" font-size="14.00">Modern</text>
<text text-anchor="start" x="139.5" y="-33.8" font-family="Times New Roman,serif" font-weight="bold" font-size="14.00">English</text>
<text text-anchor="start" x="132" y="-19.8" font-family="Times New Roman,serif" font-size="14.00" fill="red">dachshund</text>
</g>
<!-- dachshundG&#45;&gt;dachshund -->
<g id="edge13" class="edge">
<title>dachshundG&#45;&gt;dachshund</title>
<path fill="none" stroke="black" stroke-dasharray="5,2" d="M162.5,-109.84C162.5,-99.26 162.5,-85.32 162.5,-72.54"/>
<polygon fill="black" stroke="black" points="166,-72.17 162.5,-62.17 159,-72.17 166,-72.17"/>
</g>
<!-- keeshond -->
<g id="node15" class="node">
<title>keeshond</title>
<text text-anchor="start" x="256" y="-47.8" font-family="Times New Roman,serif" font-weight="bold" font-size="14.00">Modern</text>
<text text-anchor="start" x="257.5" y="-33.8" font-family="Times New Roman,serif" font-weight="bold" font-size="14.00">English</text>
<text text-anchor="start" x="253.5" y="-19.8" font-family="Times New Roman,serif" font-size="14.00" fill="red">keeshond</text>
</g>
<!-- keeshondD&#45;&gt;keeshond -->
<g id="edge15" class="edge">
<title>keeshondD&#45;&gt;keeshond</title>
<path fill="none" stroke="black" stroke-dasharray="5,2" d="M280.5,-187.76C280.5,-160.64 280.5,-107.52 280.5,-72.39"/>
<polygon fill="black" stroke="black" points="284,-72.11 280.5,-62.11 277,-72.11 284,-72.11"/>
</g>
<!-- corgiW -->
<g id="node18" class="node">
<title>corgiW</title>
<text text-anchor="start" x="373" y="-124.3" font-family="Times New Roman,serif" font-size="14.00" fill="red">corgi</text>
</g>
<!-- ci&#45;&gt;corgiW -->
<g id="edge17" class="edge">
<title>ci&#45;&gt;corgiW</title>
<path fill="none" stroke="black" d="M369.75,-187.91C374.78,-177.49 381.02,-164.57 385.12,-156.08"/>
<polygon fill="black" stroke="black" points="388.3,-157.53 389.5,-147 382,-154.48 388.3,-157.53"/>
</g>
<!-- cor -->
<g id="node17" class="node">
<title>cor</title>
<text text-anchor="start" x="415" y="-215.8" font-family="Times New Roman,serif" font-weight="bold" font-size="14.00">Welsh</text>
<text text-anchor="start" x="425" y="-201.8" font-family="Times New Roman,serif" font-size="14.00" fill="red">cor</text>
<text text-anchor="start" x="421" y="-189.4" font-family="Times New Roman,serif" font-size="12.00">dwarf</text>
</g>
<!-- cor&#45;&gt;ci -->
<!-- cor&#45;&gt;corgiW -->
<g id="edge18" class="edge">
<title>cor&#45;&gt;corgiW</title>
<path fill="none" stroke="black" d="M416.46,-181.74C409.12,-172.29 401.13,-161.99 395.76,-155.07"/>
<polygon fill="black" stroke="black" points="398.4,-152.76 389.5,-147 392.86,-157.05 398.4,-152.76"/>
</g>
<!-- corgi -->
<g id="node19" class="node">
<title>corgi</title>
<text text-anchor="start" x="363" y="-47.8" font-family="Times New Roman,serif" font-weight="bold" font-size="14.00">Modern</text>
<text text-anchor="start" x="364.5" y="-33.8" font-family="Times New Roman,serif" font-weight="bold" font-size="14.00">English</text>
<text text-anchor="start" x="373" y="-19.8" font-family="Times New Roman,serif" font-size="14.00" fill="red">corgi</text>
</g>
<!-- corgiW&#45;&gt;corgi -->
<g id="edge20" class="edge">
<title>corgiW&#45;&gt;corgi</title>
<path fill="none" stroke="black" stroke-dasharray="5,2" d="M387.5,-109.84C387.5,-99.26 387.5,-85.32 387.5,-72.54"/>
<polygon fill="black" stroke="black" points="391,-72.17 387.5,-62.17 384,-72.17 391,-72.17"/>
</g>
<!-- cynicus -->
<g id="node21" class="node">
<title>cynicus</title>
<text text-anchor="start" x="473" y="-294.8" font-family="Times New Roman,serif" font-weight="bold" font-size="14.00">Latin</text>
<text text-anchor="start" x="468" y="-280.8" font-family="Times New Roman,serif" font-size="14.00" fill="red">cynicus</text>
</g>
<!-- kunikos&#45;&gt;cynicus -->
<g id="edge22" class="edge">
<title>kunikos&#45;&gt;cynicus</title>
<path fill="none" stroke="black" stroke-dasharray="5,2" d="M485.94,-430.71C486.63,-403.77 487.97,-351.54 488.8,-319.42"/>
<polygon fill="black" stroke="black" points="492.3,-319.45 489.05,-309.37 485.3,-319.28 492.3,-319.45"/>
</g>
<!-- cynic -->
<g id="node22" class="node">
<title>cynic</title>
<text text-anchor="start" x="466" y="-47.8" font-family="Times New Roman,serif" font-weight="bold" font-size="14.00">Modern</text>
<text text-anchor="start" x="467.5" y="-33.8" font-family="Times New Roman,serif" font-weight="bold" font-size="14.00">English</text>
<text text-anchor="start" x="475" y="-19.8" font-family="Times New Roman,serif" font-size="14.00" fill="red">cynic</text>
</g>
<!-- cynicus&#45;&gt;cynic -->
<g id="edge23" class="edge">
<title>cynicus&#45;&gt;cynic</title>
<path fill="none" stroke="black" stroke-dasharray="5,2" d="M489.57,-272.68C489.73,-231.5 490.15,-127.12 490.36,-72.51"/>
<polygon fill="black" stroke="black" points="493.86,-72.3 490.4,-62.28 486.86,-72.27 493.86,-72.3"/>
</g>
<!-- kunosoura -->
<g id="node25" class="node">
<title>kunosoura</title>
<text text-anchor="start" x="547" y="-372.8" font-family="Times New Roman,serif" font-size="14.00" fill="red">kunosoura</text>
<text text-anchor="start" x="550" y="-360.4" font-family="Times New Roman,serif" font-size="12.00">Ursa Minor</text>
</g>
<!-- kunos&#45;&gt;kunosoura -->
<g id="edge25" class="edge">
<title>kunos&#45;&gt;kunosoura</title>
<path fill="none" stroke="black" d="M576.79,-430.93C576.96,-420.59 577.18,-407.74 577.33,-399.02"/>
<polygon fill="black" stroke="black" points="580.83,-399.06 577.5,-389 573.83,-398.94 580.83,-399.06"/>
</g>
<!-- oura -->
<g id="node24" class="node">
<title>oura</title>
<g id="a_node24"><a xlink:href="ors-butt.svg" xlink:title="&lt;b&gt;Indo&#45;&lt;br/&gt;European&lt;/b&gt;&lt;br/&gt;&lt;font color=&quot;red&quot;&gt;ourā&lt;/font&gt;&lt;br/&gt;&lt;font point&#45;size=&quot;12&quot;&gt;tail&lt;/font&gt;">
<path fill="none" stroke="black" stroke-dasharray="5,2" d="M658,-740C658,-740 605,-740 605,-740 599,-740 593,-734 593,-728 593,-728 593,-690 593,-690 593,-684 599,-678 605,-678 605,-678 658,-678 658,-678 664,-678 670,-684 670,-690 670,-690 670,-728 670,-728 670,-734 664,-740 658,-740"/>
<text text-anchor="start" x="615" y="-725.8" font-family="Times New Roman,serif" font-weight="bold" font-size="14.00">Indo&#45;</text>
<text text-anchor="start" x="601" y="-711.8" font-family="Times New Roman,serif" font-weight="bold" font-size="14.00">European</text>
<text text-anchor="start" x="619" y="-697.8" font-family="Times New Roman,serif" font-size="14.00" fill="red">ourā</text>
<text text-anchor="start" x="625" y="-685.4" font-family="Times New Roman,serif" font-size="12.00">tail</text>
</a>
</g>
</g>
<!-- oura&#45;&gt;kunosoura -->
<g id="edge26" class="edge">
<title>oura&#45;&gt;kunosoura</title>
<path fill="none" stroke="black" d="M636.16,-677.73C643.02,-623.92 651.2,-509.27 612.5,-424 606.75,-411.32 594.26,-400.67 585.86,-394.56"/>
<polygon fill="black" stroke="black" points="587.76,-391.62 577.5,-389 583.89,-397.45 587.76,-391.62"/>
</g>
<!-- cynosuraL -->
<g id="node26" class="node">
<title>cynosuraL</title>
<text text-anchor="start" x="560" y="-294.8" font-family="Times New Roman,serif" font-weight="bold" font-size="14.00">Latin</text>
<text text-anchor="start" x="550.5" y="-280.8" font-family="Times New Roman,serif" font-size="14.00" fill="red">cynosūra</text>
</g>
<!-- kunosoura&#45;&gt;cynosuraL -->
<g id="edge27" class="edge">
<title>kunosoura&#45;&gt;cynosuraL</title>
<path fill="none" stroke="black" stroke-dasharray="5,2" d="M576.5,-351.91C576.5,-342.34 576.5,-330.18 576.5,-319.32"/>
<polygon fill="black" stroke="black" points="580,-319.04 576.5,-309.04 573,-319.04 580,-319.04"/>
</g>
<!-- cynosureF -->
<g id="node27" class="node">
<title>cynosureF</title>
<text text-anchor="start" x="554.5" y="-209.8" font-family="Times New Roman,serif" font-weight="bold" font-size="14.00">French</text>
<text text-anchor="start" x="550.5" y="-195.8" font-family="Times New Roman,serif" font-size="14.00" fill="red">cynosure</text>
</g>
<!-- cynosuraL&#45;&gt;cynosureF -->
<g id="edge28" class="edge">
<title>cynosuraL&#45;&gt;cynosureF</title>
<path fill="none" stroke="black" d="M576.5,-272.8C576.5,-261.67 576.5,-246.94 576.5,-234.24"/>
<polygon fill="black" stroke="black" points="580,-234.18 576.5,-224.18 573,-234.18 580,-234.18"/>
</g>
<!-- cynosure -->
<g id="node28" class="node">
<title>cynosure</title>
<text text-anchor="start" x="552" y="-47.8" font-family="Times New Roman,serif" font-weight="bold" font-size="14.00">Modern</text>
<text text-anchor="start" x="553.5" y="-33.8" font-family="Times New Roman,serif" font-weight="bold" font-size="14.00">English</text>
<text text-anchor="start" x="550.5" y="-19.8" font-family="Times New Roman,serif" font-size="14.00" fill="red">cynosure</text>
</g>
<!-- cynosureF&#45;&gt;cynosure -->
<g id="edge29" class="edge">
<title>cynosureF&#45;&gt;cynosure</title>
<path fill="none" stroke="black" stroke-dasharray="5,2" d="M576.5,-187.76C576.5,-160.64 576.5,-107.52 576.5,-72.39"/>
<polygon fill="black" stroke="black" points="580,-72.11 576.5,-62.11 573,-72.11 580,-72.11"/>
</g>
<!-- quinanciaL -->
<g id="node31" class="node">
<title>quinanciaL</title>
<text text-anchor="start" x="650" y="-373.8" font-family="Times New Roman,serif" font-weight="bold" font-size="14.00">Latin</text>
<text text-anchor="start" x="640" y="-359.8" font-family="Times New Roman,serif" font-size="14.00" fill="red">quinancia</text>
</g>
<!-- kunankhe&#45;&gt;quinanciaL -->
<g id="edge32" class="edge">
<title>kunankhe&#45;&gt;quinanciaL</title>
<path fill="none" stroke="black" stroke-dasharray="5,2" d="M689.96,-425.73C686.21,-416.99 681.88,-406.88 677.96,-397.75"/>
<polygon fill="black" stroke="black" points="681.08,-396.14 673.93,-388.33 674.65,-398.9 681.08,-396.14"/>
</g>
<!-- quinancieOF -->
<g id="node32" class="node">
<title>quinancieOF</title>
<text text-anchor="start" x="727.5" y="-373.8" font-family="Times New Roman,serif" font-weight="bold" font-size="14.00">Old French</text>
<text text-anchor="start" x="736" y="-359.8" font-family="Times New Roman,serif" font-size="14.00" fill="red">quinancie</text>
</g>
<!-- kunankhe&#45;&gt;quinancieOF -->
<g id="edge33" class="edge">
<title>kunankhe&#45;&gt;quinancieOF</title>
<path fill="none" stroke="black" stroke-dasharray="5,2" d="M717.72,-425.73C725.25,-416.52 734.03,-405.8 741.8,-396.3"/>
<polygon fill="black" stroke="black" points="744.7,-398.29 748.32,-388.33 739.28,-393.85 744.7,-398.29"/>
</g>
<!-- ankhein -->
<g id="node30" class="node">
<title>ankhein</title>
<text text-anchor="start" x="679.5" y="-543.8" font-family="Times New Roman,serif" font-weight="bold" font-size="14.00">Greek</text>
<text text-anchor="start" x="678" y="-529.8" font-family="Times New Roman,serif" font-size="14.00" fill="red">ankhein</text>
<text text-anchor="start" x="675" y="-517.4" font-family="Times New Roman,serif" font-size="12.00">to squeeze</text>
</g>
<!-- ankhein&#45;&gt;kunankhe -->
<g id="edge30" class="edge">
<title>ankhein&#45;&gt;kunankhe</title>
<path fill="none" stroke="black" d="M694.51,-509.97C692.48,-500.59 690.24,-490.24 688.64,-482.88"/>
<polygon fill="black" stroke="black" points="692.04,-482.03 686.5,-473 685.2,-483.51 692.04,-482.03"/>
</g>
<!-- quinsyME -->
<g id="node33" class="node">
<title>quinsyME</title>
<text text-anchor="start" x="680" y="-301.8" font-family="Times New Roman,serif" font-weight="bold" font-size="14.00">Middle</text>
<text text-anchor="start" x="678.5" y="-287.8" font-family="Times New Roman,serif" font-weight="bold" font-size="14.00">English</text>
<text text-anchor="start" x="683" y="-273.8" font-family="Times New Roman,serif" font-size="14.00" fill="red">quinsy</text>
</g>
<!-- quinanciaL&#45;&gt;quinsyME -->
<g id="edge34" class="edge">
<title>quinanciaL&#45;&gt;quinsyME</title>
<path fill="none" stroke="black" stroke-dasharray="5,2" d="M674.27,-351.91C677.83,-344.08 682.17,-334.53 686.33,-325.37"/>
<polygon fill="black" stroke="black" points="689.62,-326.6 690.57,-316.05 683.24,-323.71 689.62,-326.6"/>
</g>
<!-- quinancieOF&#45;&gt;quinsyME -->
<g id="edge35" class="edge">
<title>quinancieOF&#45;&gt;quinsyME</title>
<path fill="none" stroke="black" stroke-dasharray="5,2" d="M748.96,-351.91C742.44,-343.67 734.39,-333.52 726.79,-323.92"/>
<polygon fill="black" stroke="black" points="729.51,-321.71 720.55,-316.05 724.02,-326.06 729.51,-321.71"/>
</g>
<!-- quinsy -->
<g id="node34" class="node">
<title>quinsy</title>
<text text-anchor="start" x="677" y="-53.8" font-family="Times New Roman,serif" font-weight="bold" font-size="14.00">Modern</text>
<text text-anchor="start" x="678.5" y="-39.8" font-family="Times New Roman,serif" font-weight="bold" font-size="14.00">English</text>
<text text-anchor="start" x="683" y="-25.8" font-family="Times New Roman,serif" font-size="14.00" fill="red">quinsy</text>
<text text-anchor="start" x="669.5" y="-13.4" font-family="Times New Roman,serif" font-size="12.00">tonsil infection</text>
</g>
<!-- quinsyME&#45;&gt;quinsy -->
<g id="edge36" class="edge">
<title>quinsyME&#45;&gt;quinsy</title>
<path fill="none" stroke="black" d="M701.5,-265.84C701.5,-222.53 701.5,-131.27 701.5,-78.34"/>
<polygon fill="black" stroke="black" points="705,-78.29 701.5,-68.29 698,-78.29 705,-78.29"/>
</g>
<!-- perIE -->
<g id="node35" class="node">
<title>perIE</title>
<g id="a_node35"><a xlink:href="per-pro2.svg" xlink:title="&lt;b&gt;Indo&#45;&lt;br/&gt;European&lt;/b&gt;&lt;br/&gt;&lt;font color=&quot;red&quot;&gt;per&lt;/font&gt;&lt;br/&gt;&lt;font point&#45;size=&quot;12&quot;&gt;(various prepositions)&lt;/font&gt;">
<path fill="none" stroke="black" stroke-dasharray="5,2" d="M856.5,-740C856.5,-740 766.5,-740 766.5,-740 760.5,-740 754.5,-734 754.5,-728 754.5,-728 754.5,-690 754.5,-690 754.5,-684 760.5,-678 766.5,-678 766.5,-678 856.5,-678 856.5,-678 862.5,-678 868.5,-684 868.5,-690 868.5,-690 868.5,-728 868.5,-728 868.5,-734 862.5,-740 856.5,-740"/>
<text text-anchor="start" x="795" y="-725.8" font-family="Times New Roman,serif" font-weight="bold" font-size="14.00">Indo&#45;</text>
<text text-anchor="start" x="781" y="-711.8" font-family="Times New Roman,serif" font-weight="bold" font-size="14.00">European</text>
<text text-anchor="start" x="802" y="-697.8" font-family="Times New Roman,serif" font-size="14.00" fill="red">per</text>
<text text-anchor="start" x="762.5" y="-685.4" font-family="Times New Roman,serif" font-size="12.00">(various prepositions)</text>
</a>
</g>
</g>
<!-- proG -->
<g id="node36" class="node">
<title>proG</title>
<text text-anchor="start" x="791.5" y="-627.8" font-family="Times New Roman,serif" font-weight="bold" font-size="14.00">Greek</text>
<text text-anchor="start" x="785.5" y="-613.8" font-family="Times New Roman,serif" font-size="14.00" fill="red">pro, pro&#45;</text>
<text text-anchor="start" x="757" y="-601.4" font-family="Times New Roman,serif" font-size="12.00">before, in front, forward</text>
</g>
<!-- perIE&#45;&gt;proG -->
<g id="edge37" class="edge">
<title>perIE&#45;&gt;proG</title>
<path fill="none" stroke="black" d="M811.5,-677.87C811.5,-669.64 811.5,-660.68 811.5,-652.29"/>
<polygon fill="black" stroke="black" points="815,-652.06 811.5,-642.06 808,-652.06 815,-652.06"/>
</g>
<!-- proG&#45;&gt;prokuon -->
<g id="edge38" class="edge">
<title>proG&#45;&gt;prokuon</title>
<path fill="none" stroke="black" d="M809.47,-593.72C806.58,-560.65 801.42,-501.49 799.37,-478.01"/>
<polygon fill="black" stroke="black" points="802.86,-477.66 798.5,-468 795.88,-478.27 802.86,-477.66"/>
</g>
<!-- procyonL -->
<g id="node38" class="node">
<title>procyonL</title>
<text text-anchor="start" x="817" y="-209.8" font-family="Times New Roman,serif" font-weight="bold" font-size="14.00">Latin</text>
<text text-anchor="start" x="809" y="-195.8" font-family="Times New Roman,serif" font-size="14.00" fill="red">Procyōn</text>
</g>
<!-- prokuon&#45;&gt;procyonL -->
<g id="edge40" class="edge">
<title>prokuon&#45;&gt;procyonL</title>
<path fill="none" stroke="black" stroke-dasharray="5,2" d="M813.08,-430.67C816.86,-389.24 826.45,-284.22 831.01,-234.24"/>
<polygon fill="black" stroke="black" points="834.51,-234.45 831.93,-224.18 827.54,-233.82 834.51,-234.45"/>
</g>
<!-- procyon -->
<g id="node39" class="node">
<title>procyon</title>
<text text-anchor="start" x="809" y="-59.8" font-family="Times New Roman,serif" font-weight="bold" font-size="14.00">Modern</text>
<text text-anchor="start" x="810.5" y="-45.8" font-family="Times New Roman,serif" font-weight="bold" font-size="14.00">English</text>
<text text-anchor="start" x="809" y="-31.8" font-family="Times New Roman,serif" font-size="14.00" fill="red">Procyon</text>
<text text-anchor="start" x="805.5" y="-19.4" font-family="Times New Roman,serif" font-size="12.00">a binary star</text>
<text text-anchor="start" x="800" y="-7.4" font-family="Times New Roman,serif" font-size="12.00">in Canis Minor</text>
</g>
<!-- procyonL&#45;&gt;procyon -->
<g id="edge41" class="edge">
<title>procyonL&#45;&gt;procyon</title>
<path fill="none" stroke="black" stroke-dasharray="5,2" d="M833.5,-187.76C833.5,-163.59 833.5,-118.75 833.5,-84.42"/>
<polygon fill="black" stroke="black" points="837,-84.13 833.5,-74.13 830,-84.13 837,-84.13"/>
</g>
</g>
</svg>
