<?xml version="1.0" encoding="UTF-8" standalone="no"?>
<!DOCTYPE svg PUBLIC "-//W3C//DTD SVG 1.1//EN"
 "http://www.w3.org/Graphics/SVG/1.1/DTD/svg11.dtd">
<!-- Generated by graphviz version 2.49.0 (20210828.1703)
 -->
<!-- Pages: 1 -->
<svg width="455pt" height="192pt"
 viewBox="0.00 0.00 455.00 192.00" xmlns="http://www.w3.org/2000/svg" xmlns:xlink="http://www.w3.org/1999/xlink">
<g id="graph0" class="graph" transform="scale(1 1) rotate(0) translate(4 188)">
<polygon fill="white" stroke="transparent" points="-4,4 -4,-188 451,-188 451,4 -4,4"/>
<!-- legIE -->
<g id="node1" class="node">
<title>legIE</title>
<g id="a_node1"><a xlink:title="Indo&#45;European &quot;*leg&#45;&quot; to collect, to speak">
<polygon fill="none" stroke="black" points="341,-180 128,-180 128,-76 341,-76 341,-180"/>
<polygon fill="none" stroke="black" points="345,-184 124,-184 124,-72 345,-72 345,-184"/>
<text text-anchor="start" x="156.5" y="-135.8" font-family="Times New Roman,serif" font-weight="bold" font-size="24.00">Indo&#45;European</text>
<text text-anchor="start" x="154.5" y="-107.6" font-family="Times New Roman,serif" font-size="18.00" fill="red">*leg&#45;</text>
<text text-anchor="start" x="197.5" y="-108.2" font-family="Times New Roman,serif" font-size="16.00">to collect, to speak</text>
</a>
</g>
</g>
<!-- leg1 -->
<g id="node2" class="node">
<title>leg1</title>
<g id="a_node2"><a xlink:href="leg-speak1.svg" xlink:title="Latin &lt;font color=&quot;red&quot;&gt;legere&lt;/font&gt;">
<path fill="none" stroke="black" stroke-dasharray="5,2" d="M69,-36C69,-36 12,-36 12,-36 6,-36 0,-30 0,-24 0,-24 0,-12 0,-12 0,-6 6,0 12,0 12,0 69,0 69,0 75,0 81,-6 81,-12 81,-12 81,-24 81,-24 81,-30 75,-36 69,-36"/>
<text text-anchor="start" x="8" y="-15.3" font-family="Times New Roman,serif" font-size="14.00">Latin </text>
<text text-anchor="start" x="40" y="-15.3" font-family="Times New Roman,serif" font-size="14.00" fill="red">legere</text>
</a>
</g>
</g>
<!-- legIE&#45;&gt;leg1 -->
<g id="edge1" class="edge">
<title>legIE&#45;&gt;leg1</title>
<path fill="none" stroke="black" d="M135.51,-71.89C115.99,-61.02 96.57,-50.22 80.43,-41.23"/>
<polygon fill="black" stroke="black" points="81.77,-37.97 71.33,-36.16 78.36,-44.08 81.77,-37.97"/>
</g>
<!-- leg2 -->
<g id="node3" class="node">
<title>leg2</title>
<g id="a_node3"><a xlink:href="leg-speak2.svg" xlink:title="other Latin derivatives">
<path fill="none" stroke="black" stroke-dasharray="5,2" d="M227.5,-36C227.5,-36 111.5,-36 111.5,-36 105.5,-36 99.5,-30 99.5,-24 99.5,-24 99.5,-12 99.5,-12 99.5,-6 105.5,0 111.5,0 111.5,0 227.5,0 227.5,0 233.5,0 239.5,-6 239.5,-12 239.5,-12 239.5,-24 239.5,-24 239.5,-30 233.5,-36 227.5,-36"/>
<text text-anchor="start" x="107.5" y="-14.3" font-family="Times New Roman,serif" font-size="14.00">other Latin derivatives</text>
</a>
</g>
</g>
<!-- legIE&#45;&gt;leg2 -->
<g id="edge2" class="edge">
<title>legIE&#45;&gt;leg2</title>
<path fill="none" stroke="black" d="M201.24,-71.73C195.61,-62.38 190.01,-53.08 185.12,-44.95"/>
<polygon fill="black" stroke="black" points="188.09,-43.1 179.93,-36.34 182.09,-46.71 188.09,-43.1"/>
</g>
<!-- leg3 -->
<g id="node4" class="node">
<title>leg3</title>
<g id="a_node4"><a xlink:href="leg-speak3.svg" xlink:title="Greek &lt;font color=&quot;red&quot;&gt;legein&lt;/font&gt;">
<path fill="none" stroke="black" stroke-dasharray="5,2" d="M331.5,-36C331.5,-36 269.5,-36 269.5,-36 263.5,-36 257.5,-30 257.5,-24 257.5,-24 257.5,-12 257.5,-12 257.5,-6 263.5,0 269.5,0 269.5,0 331.5,0 331.5,0 337.5,0 343.5,-6 343.5,-12 343.5,-12 343.5,-24 343.5,-24 343.5,-30 337.5,-36 331.5,-36"/>
<text text-anchor="start" x="265.5" y="-15.3" font-family="Times New Roman,serif" font-size="14.00">Greek </text>
<text text-anchor="start" x="303.5" y="-15.3" font-family="Times New Roman,serif" font-size="14.00" fill="red">legein</text>
</a>
</g>
</g>
<!-- legIE&#45;&gt;leg3 -->
<g id="edge3" class="edge">
<title>legIE&#45;&gt;leg3</title>
<path fill="none" stroke="black" d="M268.27,-71.73C273.99,-62.38 279.67,-53.08 284.64,-44.95"/>
<polygon fill="black" stroke="black" points="287.68,-46.7 289.91,-36.34 281.7,-43.04 287.68,-46.7"/>
</g>
<!-- leg4 -->
<g id="node5" class="node">
<title>leg4</title>
<g id="a_node5"><a xlink:href="leg-speak4.svg" xlink:title="Greek &lt;font color=&quot;red&quot;&gt;logos&lt;/font&gt;">
<path fill="none" stroke="black" stroke-dasharray="5,2" d="M435,-36C435,-36 374,-36 374,-36 368,-36 362,-30 362,-24 362,-24 362,-12 362,-12 362,-6 368,0 374,0 374,0 435,0 435,0 441,0 447,-6 447,-12 447,-12 447,-24 447,-24 447,-30 441,-36 435,-36"/>
<text text-anchor="start" x="370" y="-15.3" font-family="Times New Roman,serif" font-size="14.00">Greek </text>
<text text-anchor="start" x="408" y="-15.3" font-family="Times New Roman,serif" font-size="14.00" fill="red">logos</text>
</a>
</g>
</g>
<!-- legIE&#45;&gt;leg4 -->
<g id="edge4" class="edge">
<title>legIE&#45;&gt;leg4</title>
<path fill="none" stroke="black" d="M321.49,-71.73C338.25,-61.09 354.89,-50.51 368.84,-41.66"/>
<polygon fill="black" stroke="black" points="371.02,-44.42 377.58,-36.1 367.26,-38.51 371.02,-44.42"/>
</g>
</g>
</svg>
