<?xml version="1.0" encoding="UTF-8" standalone="no"?>
<!DOCTYPE svg PUBLIC "-//W3C//DTD SVG 1.1//EN"
 "http://www.w3.org/Graphics/SVG/1.1/DTD/svg11.dtd">
<!-- Generated by graphviz version 2.49.0 (20210828.1703)
 -->
<!-- Pages: 1 -->
<svg width="372pt" height="614pt"
 viewBox="0.00 0.00 372.00 614.00" xmlns="http://www.w3.org/2000/svg" xmlns:xlink="http://www.w3.org/1999/xlink">
<g id="graph0" class="graph" transform="scale(1 1) rotate(0) translate(4 610)">
<polygon fill="white" stroke="transparent" points="-4,4 -4,-610 368,-610 368,4 -4,4"/>
<!-- eghsIE -->
<g id="node1" class="node">
<title>eghsIE</title>
<g id="a_node1"><a xlink:href="eghs-out.svg" xlink:title="Indo&#45;European &quot;*eghs&quot; out">
<path fill="none" stroke="black" stroke-dasharray="5,2" d="M161,-606C161,-606 12,-606 12,-606 6,-606 0,-600 0,-594 0,-594 0,-568 0,-568 0,-562 6,-556 12,-556 12,-556 161,-556 161,-556 167,-556 173,-562 173,-568 173,-568 173,-594 173,-594 173,-600 167,-606 161,-606"/>
<text text-anchor="start" x="8" y="-583.8" font-family="Times New Roman,serif" font-weight="bold" font-size="24.00">Indo&#45;European</text>
<text text-anchor="start" x="52.5" y="-564.6" font-family="Times New Roman,serif" font-size="18.00" fill="red">*eghs </text>
<text text-anchor="start" x="98.5" y="-564.6" font-family="Times New Roman,serif" font-size="16.00">out</text>
</a>
</g>
</g>
<!-- electuariumL -->
<g id="node3" class="node">
<title>electuariumL</title>
<text text-anchor="start" x="149.5" y="-505.8" font-family="Times New Roman,serif" font-weight="bold" font-size="14.00">Late Latin</text>
<text text-anchor="start" x="149.5" y="-491.8" font-family="Times New Roman,serif" font-size="14.00" fill="red">ēlēctuārium</text>
<text text-anchor="start" x="161" y="-479.4" font-family="Times New Roman,serif" font-size="12.00">electuary</text>
</g>
<!-- eghsIE&#45;&gt;electuariumL -->
<g id="edge1" class="edge">
<title>eghsIE&#45;&gt;electuariumL</title>
<path fill="none" stroke="black" d="M113.98,-555.99C124.38,-546.9 136.36,-536.44 147.31,-526.87"/>
<polygon fill="black" stroke="black" points="149.84,-529.31 155.06,-520.1 145.23,-524.04 149.84,-529.31"/>
</g>
<!-- leighIE -->
<g id="node2" class="node">
<title>leighIE</title>
<g id="a_node2"><a xlink:href="leigh-lick.svg" xlink:title="Indo&#45;European &quot;*leigh&#45;&quot; to lick">
<path fill="none" stroke="black" stroke-dasharray="5,2" d="M352,-606C352,-606 203,-606 203,-606 197,-606 191,-600 191,-594 191,-594 191,-568 191,-568 191,-562 197,-556 203,-556 203,-556 352,-556 352,-556 358,-556 364,-562 364,-568 364,-568 364,-594 364,-594 364,-600 358,-606 352,-606"/>
<text text-anchor="start" x="199" y="-583.8" font-family="Times New Roman,serif" font-weight="bold" font-size="24.00">Indo&#45;European</text>
<text text-anchor="start" x="230" y="-564.6" font-family="Times New Roman,serif" font-size="18.00" fill="red">*leigh&#45; </text>
<text text-anchor="start" x="285" y="-564.6" font-family="Times New Roman,serif" font-size="16.00">to lick</text>
</a>
</g>
</g>
<!-- leighIE&#45;&gt;electuariumL -->
<g id="edge2" class="edge">
<title>leighIE&#45;&gt;electuariumL</title>
<path fill="none" stroke="black" d="M249.73,-555.99C239.22,-546.9 227.11,-536.44 216.05,-526.87"/>
<polygon fill="black" stroke="black" points="218.07,-523.99 208.21,-520.1 213.49,-529.28 218.07,-523.99"/>
</g>
<!-- leituaireOF -->
<g id="node4" class="node">
<title>leituaireOF</title>
<text text-anchor="start" x="146.5" y="-421.8" font-family="Times New Roman,serif" font-weight="bold" font-size="14.00">Old French</text>
<text text-anchor="start" x="160" y="-407.8" font-family="Times New Roman,serif" font-size="14.00" fill="red">leituaire</text>
</g>
<!-- electuariumL&#45;&gt;leituaireOF -->
<g id="edge3" class="edge">
<title>electuariumL&#45;&gt;leituaireOF</title>
<path fill="none" stroke="black" stroke-dasharray="5,2" d="M181.5,-471.78C181.5,-463.68 181.5,-454.52 181.5,-446.12"/>
<polygon fill="black" stroke="black" points="185,-446.04 181.5,-436.04 178,-446.04 185,-446.04"/>
</g>
<!-- lactwarjeMHG -->
<g id="node5" class="node">
<title>lactwarjeMHG</title>
<text text-anchor="start" x="143.5" y="-349.8" font-family="Times New Roman,serif" font-weight="bold" font-size="14.00">Middle High</text>
<text text-anchor="start" x="156" y="-335.8" font-family="Times New Roman,serif" font-weight="bold" font-size="14.00">German</text>
<text text-anchor="start" x="130" y="-321.8" font-family="Times New Roman,serif" font-size="14.00" fill="red">lactwārje, latwērge</text>
</g>
<!-- leituaireOF&#45;&gt;lactwarjeMHG -->
<g id="edge4" class="edge">
<title>leituaireOF&#45;&gt;lactwarjeMHG</title>
<path fill="none" stroke="black" stroke-dasharray="5,2" d="M181.5,-399.91C181.5,-392.33 181.5,-383.13 181.5,-374.23"/>
<polygon fill="black" stroke="black" points="185,-374.05 181.5,-364.05 178,-374.05 185,-374.05"/>
</g>
<!-- lektvarCz -->
<g id="node6" class="node">
<title>lektvarCz</title>
<text text-anchor="start" x="162.5" y="-263.8" font-family="Times New Roman,serif" font-weight="bold" font-size="14.00">Czech</text>
<text text-anchor="start" x="163" y="-249.8" font-family="Times New Roman,serif" font-size="14.00" fill="red">lektvar</text>
</g>
<!-- lactwarjeMHG&#45;&gt;lektvarCz -->
<g id="edge5" class="edge">
<title>lactwarjeMHG&#45;&gt;lektvarCz</title>
<path fill="none" stroke="black" stroke-dasharray="5,2" d="M181.5,-313.64C181.5,-305.67 181.5,-296.77 181.5,-288.58"/>
<polygon fill="black" stroke="black" points="185,-288.38 181.5,-278.38 178,-288.38 185,-288.38"/>
</g>
<!-- lekvarSl -->
<g id="node7" class="node">
<title>lekvarSl</title>
<text text-anchor="start" x="160" y="-191.8" font-family="Times New Roman,serif" font-weight="bold" font-size="14.00">Slovak</text>
<text text-anchor="start" x="164.5" y="-177.8" font-family="Times New Roman,serif" font-size="14.00" fill="red">lékvar</text>
<text text-anchor="start" x="173" y="-165.4" font-family="Times New Roman,serif" font-size="12.00">jam</text>
</g>
<!-- lektvarCz&#45;&gt;lekvarSl -->
<g id="edge6" class="edge">
<title>lektvarCz&#45;&gt;lekvarSl</title>
<path fill="none" stroke="black" stroke-dasharray="5,2" d="M181.5,-241.75C181.5,-234.2 181.5,-225.07 181.5,-216.28"/>
<polygon fill="black" stroke="black" points="185,-216.23 181.5,-206.23 178,-216.23 185,-216.23"/>
</g>
<!-- lekvarH -->
<g id="node8" class="node">
<title>lekvarH</title>
<text text-anchor="start" x="148.5" y="-107.8" font-family="Times New Roman,serif" font-weight="bold" font-size="14.00" fill="green">Hungarian</text>
<text text-anchor="start" x="164.5" y="-93.8" font-family="Times New Roman,serif" font-size="14.00" fill="red">lékvar</text>
</g>
<!-- lekvarSl&#45;&gt;lekvarH -->
<g id="edge7" class="edge">
<title>lekvarSl&#45;&gt;lekvarH</title>
<path fill="none" stroke="black" stroke-dasharray="5,2" d="M181.5,-157.78C181.5,-149.68 181.5,-140.52 181.5,-132.12"/>
<polygon fill="black" stroke="black" points="185,-132.04 181.5,-122.04 178,-132.04 185,-132.04"/>
</g>
<!-- lekvar -->
<g id="node9" class="node">
<title>lekvar</title>
<text text-anchor="start" x="157" y="-35.8" font-family="Times New Roman,serif" font-weight="bold" font-size="14.00">Modern</text>
<text text-anchor="start" x="158.5" y="-21.8" font-family="Times New Roman,serif" font-weight="bold" font-size="14.00">English</text>
<text text-anchor="start" x="164.5" y="-7.8" font-family="Times New Roman,serif" font-size="14.00" fill="red">lekvar</text>
</g>
<!-- lekvarH&#45;&gt;lekvar -->
<g id="edge8" class="edge">
<title>lekvarH&#45;&gt;lekvar</title>
<path fill="none" stroke="black" stroke-dasharray="5,2" d="M181.5,-85.91C181.5,-78.33 181.5,-69.13 181.5,-60.23"/>
<polygon fill="black" stroke="black" points="185,-60.05 181.5,-50.05 178,-60.05 185,-60.05"/>
</g>
</g>
</svg>
