<?xml version="1.0" encoding="UTF-8" standalone="no"?>
<!DOCTYPE svg PUBLIC "-//W3C//DTD SVG 1.1//EN"
 "http://www.w3.org/Graphics/SVG/1.1/DTD/svg11.dtd">
<!-- Generated by graphviz version 2.49.0 (20210828.1703)
 -->
<!-- Pages: 1 -->
<svg width="1184pt" height="922pt"
 viewBox="0.00 0.00 1183.50 922.00" xmlns="http://www.w3.org/2000/svg" xmlns:xlink="http://www.w3.org/1999/xlink">
<g id="graph0" class="graph" transform="scale(1 1) rotate(0) translate(4 918)">
<polygon fill="white" stroke="transparent" points="-4,4 -4,-918 1179.5,-918 1179.5,4 -4,4"/>
<!-- man -->
<g id="node1" class="node">
<title>man</title>
<g id="a_node1"><a xlink:title="Indo&#45;European &quot;*man&#45;, *mon&#45;&quot; man">
<polygon fill="none" stroke="black" points="482,-910 271,-910 271,-806 482,-806 482,-910"/>
<polygon fill="none" stroke="black" points="486,-914 267,-914 267,-802 486,-802 486,-914"/>
<text text-anchor="start" x="298.5" y="-865.8" font-family="Times New Roman,serif" font-weight="bold" font-size="24.00">Indo&#45;European</text>
<text text-anchor="start" x="303.5" y="-837.6" font-family="Times New Roman,serif" font-size="18.00" fill="red">*man&#45;, *mon&#45;</text>
<text text-anchor="start" x="423.5" y="-838.2" font-family="Times New Roman,serif" font-size="16.00">man</text>
</a>
</g>
</g>
<!-- manu -->
<g id="node2" class="node">
<title>manu</title>
<text text-anchor="start" x="329.5" y="-724.3" font-family="Times New Roman,serif" font-size="14.00" fill="red">*manu&#45;, *manw&#45;</text>
</g>
<!-- man&#45;&gt;manu -->
<g id="edge1" class="edge">
<title>man&#45;&gt;manu</title>
<path fill="none" stroke="black" d="M376.5,-801.97C376.5,-786.2 376.5,-769.68 376.5,-756.36"/>
<polygon fill="black" stroke="black" points="380,-756.01 376.5,-746.01 373,-756.01 380,-756.01"/>
</g>
<!-- manuII -->
<g id="node43" class="node">
<title>manuII</title>
<text text-anchor="start" x="67.5" y="-633.8" font-family="Times New Roman,serif" font-weight="bold" font-size="14.00">Indo&#45;Iranian</text>
<text text-anchor="start" x="85.5" y="-619.8" font-family="Times New Roman,serif" font-size="14.00" fill="red">*manu&#45;</text>
</g>
<!-- man&#45;&gt;manuII -->
<g id="edge42" class="edge">
<title>man&#45;&gt;manuII</title>
<path fill="none" stroke="black" d="M310.45,-801.71C254.1,-754.55 175.84,-689.04 134.57,-654.5"/>
<polygon fill="black" stroke="black" points="136.74,-651.75 126.83,-648.01 132.25,-657.12 136.74,-651.75"/>
</g>
<!-- mongyoSl -->
<g id="node51" class="node">
<title>mongyoSl</title>
<text text-anchor="start" x="1118" y="-633.8" font-family="Times New Roman,serif" font-weight="bold" font-size="14.00">Slavic</text>
<text text-anchor="start" x="1105.5" y="-619.8" font-family="Times New Roman,serif" font-size="14.00" fill="red">*mon&#45;gyo&#45;</text>
</g>
<!-- man&#45;&gt;mongyoSl -->
<g id="edge50" class="edge">
<title>man&#45;&gt;mongyoSl</title>
<path fill="none" stroke="black" d="M486.18,-857.71C666.23,-856.55 1013.4,-843.81 1102.5,-765 1132.73,-738.26 1137.92,-688.82 1137.92,-658.05"/>
<polygon fill="black" stroke="black" points="1141.41,-657.95 1137.73,-648.01 1134.42,-658.08 1141.41,-657.95"/>
</g>
<!-- mannaGc -->
<g id="node3" class="node">
<title>mannaGc</title>
<text text-anchor="start" x="346" y="-633.8" font-family="Times New Roman,serif" font-weight="bold" font-size="14.00">Germanic</text>
<text text-anchor="start" x="352.5" y="-619.8" font-family="Times New Roman,serif" font-size="14.00" fill="red">*manna&#45;</text>
</g>
<!-- manu&#45;&gt;mannaGc -->
<g id="edge2" class="edge">
<title>manu&#45;&gt;mannaGc</title>
<path fill="none" stroke="black" d="M376.5,-709.84C376.5,-695.5 376.5,-674.81 376.5,-658.22"/>
<polygon fill="black" stroke="black" points="380,-658.01 376.5,-648.01 373,-658.01 380,-658.01"/>
</g>
<!-- mannOE -->
<g id="node4" class="node">
<title>mannOE</title>
<text text-anchor="start" x="180" y="-541.8" font-family="Times New Roman,serif" font-weight="bold" font-size="14.00">Old English</text>
<text text-anchor="start" x="196.5" y="-527.8" font-family="Times New Roman,serif" font-size="14.00" fill="red">man(n)</text>
</g>
<!-- mannaGc&#45;&gt;mannOE -->
<g id="edge3" class="edge">
<title>mannaGc&#45;&gt;mannOE</title>
<path fill="none" stroke="black" d="M346.04,-611.96C324.62,-599.97 295.29,-583.53 269.5,-569 265.01,-566.47 260.31,-563.82 255.64,-561.18"/>
<polygon fill="black" stroke="black" points="257.19,-558.03 246.76,-556.15 253.74,-564.12 257.19,-558.03"/>
</g>
<!-- manOHG -->
<g id="node7" class="node">
<title>manOHG</title>
<text text-anchor="start" x="454.5" y="-548.8" font-family="Times New Roman,serif" font-weight="bold" font-size="14.00">Old High</text>
<text text-anchor="start" x="457" y="-534.8" font-family="Times New Roman,serif" font-weight="bold" font-size="14.00">German</text>
<text text-anchor="start" x="470.5" y="-520.8" font-family="Times New Roman,serif" font-size="14.00" fill="red">man</text>
</g>
<!-- mannaGc&#45;&gt;manOHG -->
<g id="edge6" class="edge">
<title>mannaGc&#45;&gt;manOHG</title>
<path fill="none" stroke="black" d="M396.94,-611.65C410.9,-599.79 429.78,-583.77 446.25,-569.78"/>
<polygon fill="black" stroke="black" points="448.75,-572.24 454.11,-563.1 444.22,-566.91 448.75,-572.24"/>
</g>
<!-- manMD -->
<g id="node21" class="node">
<title>manMD</title>
<text text-anchor="start" x="287" y="-548.8" font-family="Times New Roman,serif" font-weight="bold" font-size="14.00">Middle</text>
<text text-anchor="start" x="290" y="-534.8" font-family="Times New Roman,serif" font-weight="bold" font-size="14.00">Dutch</text>
<text text-anchor="start" x="296.5" y="-520.8" font-family="Times New Roman,serif" font-size="14.00" fill="red">man</text>
</g>
<!-- mannaGc&#45;&gt;manMD -->
<g id="edge20" class="edge">
<title>mannaGc&#45;&gt;manMD</title>
<path fill="none" stroke="black" d="M363.39,-611.65C354.76,-600.23 343.2,-584.93 332.91,-571.31"/>
<polygon fill="black" stroke="black" points="335.53,-568.97 326.71,-563.1 329.95,-573.19 335.53,-568.97"/>
</g>
<!-- manOF -->
<g id="node28" class="node">
<title>manOF</title>
<text text-anchor="start" x="648.5" y="-541.8" font-family="Times New Roman,serif" font-weight="bold" font-size="14.00">Old Frisian</text>
<text text-anchor="start" x="671.5" y="-527.8" font-family="Times New Roman,serif" font-size="14.00" fill="red">man</text>
</g>
<!-- mannaGc&#45;&gt;manOF -->
<g id="edge27" class="edge">
<title>mannaGc&#45;&gt;manOF</title>
<path fill="none" stroke="black" d="M415.14,-623.52C466.04,-615.49 557.72,-598.23 631.5,-569 637.09,-566.79 642.79,-564.05 648.29,-561.13"/>
<polygon fill="black" stroke="black" points="650.24,-564.05 657.26,-556.13 646.82,-557.94 650.24,-564.05"/>
</g>
<!-- madhrON -->
<g id="node38" class="node">
<title>madhrON</title>
<text text-anchor="start" x="752.5" y="-541.8" font-family="Times New Roman,serif" font-weight="bold" font-size="14.00">Old Norse</text>
<text text-anchor="start" x="766.5" y="-527.8" font-family="Times New Roman,serif" font-size="14.00" fill="red">madhr</text>
</g>
<!-- mannaGc&#45;&gt;madhrON -->
<g id="edge35" class="edge">
<title>mannaGc&#45;&gt;madhrON</title>
<path fill="none" stroke="black" d="M415.21,-627.36C482.39,-623.48 624.06,-610.63 735.5,-569 741.01,-566.94 746.58,-564.24 751.89,-561.3"/>
<polygon fill="black" stroke="black" points="753.69,-564.31 760.52,-556.21 750.13,-558.28 753.69,-564.31"/>
</g>
<!-- manniskaGc -->
<g id="node46" class="node">
<title>manniskaGc</title>
<text text-anchor="start" x="81.5" y="-540.8" font-family="Times New Roman,serif" font-size="14.00" fill="red">*manniska&#45;</text>
<text text-anchor="start" x="84.5" y="-528.4" font-family="Times New Roman,serif" font-size="12.00">human (adj.)</text>
</g>
<!-- mannaGc&#45;&gt;manniskaGc -->
<g id="edge45" class="edge">
<title>mannaGc&#45;&gt;manniskaGc</title>
<path fill="none" stroke="black" d="M337.91,-621.55C294.2,-612.34 221.39,-594.69 162.5,-569 157.41,-566.78 152.23,-564.11 147.22,-561.29"/>
<polygon fill="black" stroke="black" points="148.85,-558.19 138.46,-556.11 145.29,-564.21 148.85,-558.19"/>
</g>
<!-- manME -->
<g id="node5" class="node">
<title>manME</title>
<text text-anchor="start" x="195" y="-204.8" font-family="Times New Roman,serif" font-weight="bold" font-size="14.00">Middle</text>
<text text-anchor="start" x="193.5" y="-190.8" font-family="Times New Roman,serif" font-weight="bold" font-size="14.00">English</text>
<text text-anchor="start" x="204.5" y="-176.8" font-family="Times New Roman,serif" font-size="14.00" fill="red">man</text>
</g>
<!-- mannOE&#45;&gt;manME -->
<g id="edge4" class="edge">
<title>mannOE&#45;&gt;manME</title>
<path fill="none" stroke="black" d="M216.5,-519.57C216.5,-465.84 216.5,-302.04 216.5,-229.82"/>
<polygon fill="black" stroke="black" points="220,-229.45 216.5,-219.45 213,-229.45 220,-229.45"/>
</g>
<!-- manE -->
<g id="node6" class="node">
<title>manE</title>
<text text-anchor="start" x="192" y="-42.8" font-family="Times New Roman,serif" font-weight="bold" font-size="14.00">Modern</text>
<text text-anchor="start" x="193.5" y="-28.8" font-family="Times New Roman,serif" font-weight="bold" font-size="14.00">English</text>
<text text-anchor="start" x="204.5" y="-14.8" font-family="Times New Roman,serif" font-size="14.00" fill="red">man</text>
</g>
<!-- manME&#45;&gt;manE -->
<g id="edge5" class="edge">
<title>manME&#45;&gt;manE</title>
<path fill="none" stroke="black" d="M216.5,-168.7C216.5,-141.64 216.5,-97.71 216.5,-67.19"/>
<polygon fill="black" stroke="black" points="220,-67 216.5,-57 213,-67.01 220,-67"/>
</g>
<!-- manMHG -->
<g id="node8" class="node">
<title>manMHG</title>
<text text-anchor="start" x="475.5" y="-400.8" font-family="Times New Roman,serif" font-weight="bold" font-size="14.00">Middle High</text>
<text text-anchor="start" x="488" y="-386.8" font-family="Times New Roman,serif" font-weight="bold" font-size="14.00">German</text>
<text text-anchor="start" x="501.5" y="-372.8" font-family="Times New Roman,serif" font-size="14.00" fill="red">man</text>
</g>
<!-- manOHG&#45;&gt;manMHG -->
<g id="edge7" class="edge">
<title>manOHG&#45;&gt;manMHG</title>
<path fill="none" stroke="black" d="M487.62,-512.89C492.71,-488.9 500.57,-451.88 506.3,-424.93"/>
<polygon fill="black" stroke="black" points="509.72,-425.65 508.37,-415.14 502.87,-424.2 509.72,-425.65"/>
</g>
<!-- mannG -->
<g id="node9" class="node">
<title>mannG</title>
<text text-anchor="start" x="554" y="-265.8" font-family="Times New Roman,serif" font-weight="bold" font-size="14.00">German</text>
<text text-anchor="start" x="563.5" y="-251.8" font-family="Times New Roman,serif" font-size="14.00" fill="red">Mann</text>
</g>
<!-- manMHG&#45;&gt;mannG -->
<g id="edge8" class="edge">
<title>manMHG&#45;&gt;mannG</title>
<path fill="none" stroke="black" d="M526.23,-364.71C537.57,-343.06 554.12,-311.45 565.76,-289.23"/>
<polygon fill="black" stroke="black" points="568.88,-290.82 570.42,-280.34 562.68,-287.57 568.88,-290.82"/>
</g>
<!-- lantsmanMHG -->
<g id="node18" class="node">
<title>lantsmanMHG</title>
<text text-anchor="start" x="459" y="-264.8" font-family="Times New Roman,serif" font-size="14.00" fill="red">lantsman</text>
<text text-anchor="start" x="457" y="-252.4" font-family="Times New Roman,serif" font-size="12.00">countryman</text>
</g>
<!-- manMHG&#45;&gt;lantsmanMHG -->
<g id="edge16" class="edge">
<title>manMHG&#45;&gt;lantsmanMHG</title>
<path fill="none" stroke="black" d="M507.72,-364.71C502.63,-343.35 495.24,-312.29 489.96,-290.13"/>
<polygon fill="black" stroke="black" points="493.35,-289.26 487.63,-280.34 486.54,-290.88 493.35,-289.26"/>
</g>
<!-- flugelmannG -->
<g id="node14" class="node">
<title>flugelmannG</title>
<text text-anchor="start" x="793.5" y="-128.8" font-family="Times New Roman,serif" font-size="14.00" fill="red">Flügelmann</text>
<text text-anchor="start" x="803.5" y="-116.4" font-family="Times New Roman,serif" font-size="12.00">file leader</text>
</g>
<!-- mannG&#45;&gt;flugelmannG -->
<g id="edge12" class="edge">
<title>mannG&#45;&gt;flugelmannG</title>
<path fill="none" stroke="black" d="M593.07,-243.79C610.31,-223.07 641.99,-188.61 676.5,-169 693.43,-159.38 738.92,-147.2 775.22,-138.43"/>
<polygon fill="black" stroke="black" points="776.27,-141.78 785.18,-136.06 774.64,-134.97 776.27,-141.78"/>
</g>
<!-- pleuIE -->
<g id="node10" class="node">
<title>pleuIE</title>
<g id="a_node10"><a xlink:href="pleu-flow2.svg" xlink:title="&lt;b&gt;Indo&#45;&lt;br/&gt;European&lt;/b&gt;&lt;br/&gt;&lt;font color=&quot;red&quot;&gt;*pleu&#45;&lt;/font&gt;&lt;br/&gt;&lt;font point&#45;size=&quot;12&quot;&gt;to flow&lt;/font&gt;">
<path fill="none" stroke="black" stroke-dasharray="5,2" d="M862,-759C862,-759 809,-759 809,-759 803,-759 797,-753 797,-747 797,-747 797,-709 797,-709 797,-703 803,-697 809,-697 809,-697 862,-697 862,-697 868,-697 874,-703 874,-709 874,-709 874,-747 874,-747 874,-753 868,-759 862,-759"/>
<text text-anchor="start" x="819" y="-744.8" font-family="Times New Roman,serif" font-weight="bold" font-size="14.00">Indo&#45;</text>
<text text-anchor="start" x="805" y="-730.8" font-family="Times New Roman,serif" font-weight="bold" font-size="14.00">European</text>
<text text-anchor="start" x="818" y="-716.8" font-family="Times New Roman,serif" font-size="14.00" fill="red">*pleu&#45;</text>
<text text-anchor="start" x="819.5" y="-704.4" font-family="Times New Roman,serif" font-size="12.00">to flow</text>
</a>
</g>
</g>
<!-- flugilazGc -->
<g id="node11" class="node">
<title>flugilazGc</title>
<text text-anchor="start" x="810" y="-639.8" font-family="Times New Roman,serif" font-weight="bold" font-size="14.00">Germanic</text>
<text text-anchor="start" x="817.5" y="-625.8" font-family="Times New Roman,serif" font-size="14.00" fill="red">*flugilaz</text>
<text text-anchor="start" x="835" y="-613.4" font-family="Times New Roman,serif" font-size="12.00">??</text>
</g>
<!-- pleuIE&#45;&gt;flugilazGc -->
<g id="edge9" class="edge">
<title>pleuIE&#45;&gt;flugilazGc</title>
<path fill="none" stroke="black" d="M837.07,-696.89C837.61,-686.58 838.21,-674.98 838.76,-664.43"/>
<polygon fill="black" stroke="black" points="842.26,-664.47 839.29,-654.3 835.27,-664.11 842.26,-664.47"/>
</g>
<!-- vlugelMHG -->
<g id="node12" class="node">
<title>vlugelMHG</title>
<text text-anchor="start" x="850.5" y="-554.8" font-family="Times New Roman,serif" font-weight="bold" font-size="14.00">Middle High</text>
<text text-anchor="start" x="863" y="-540.8" font-family="Times New Roman,serif" font-weight="bold" font-size="14.00">German</text>
<text text-anchor="start" x="872" y="-526.8" font-family="Times New Roman,serif" font-size="14.00" fill="red">vlügel</text>
<text text-anchor="start" x="877.5" y="-514.4" font-family="Times New Roman,serif" font-size="12.00">wing</text>
</g>
<!-- flugilazGc&#45;&gt;vlugelMHG -->
<g id="edge10" class="edge">
<title>flugilazGc&#45;&gt;vlugelMHG</title>
<path fill="none" stroke="black" d="M852.86,-605.82C857.37,-597.38 862.59,-587.58 867.63,-578.13"/>
<polygon fill="black" stroke="black" points="870.76,-579.7 872.38,-569.23 864.58,-576.41 870.76,-579.7"/>
</g>
<!-- flugelG -->
<g id="node13" class="node">
<title>flugelG</title>
<text text-anchor="start" x="839" y="-326.8" font-family="Times New Roman,serif" font-weight="bold" font-size="14.00">German</text>
<text text-anchor="start" x="847.5" y="-312.8" font-family="Times New Roman,serif" font-size="14.00" fill="red">Flügel</text>
</g>
<!-- vlugelMHG&#45;&gt;flugelG -->
<g id="edge11" class="edge">
<title>vlugelMHG&#45;&gt;flugelG</title>
<path fill="none" stroke="black" d="M885.11,-506.93C880.44,-465.44 872.08,-391.23 867.57,-351.27"/>
<polygon fill="black" stroke="black" points="871.04,-350.74 866.44,-341.2 864.08,-351.53 871.04,-350.74"/>
</g>
<!-- flugelG&#45;&gt;flugelmannG -->
<g id="edge13" class="edge">
<title>flugelG&#45;&gt;flugelmannG</title>
<path fill="none" stroke="black" d="M861.04,-304.7C854.25,-270.73 839.12,-195.09 830.96,-154.31"/>
<polygon fill="black" stroke="black" points="834.35,-153.39 828.95,-144.27 827.48,-154.76 834.35,-153.39"/>
</g>
<!-- fugleman -->
<g id="node15" class="node">
<title>fugleman</title>
<text text-anchor="start" x="801" y="-42.8" font-family="Times New Roman,serif" font-weight="bold" font-size="14.00">Modern</text>
<text text-anchor="start" x="802.5" y="-28.8" font-family="Times New Roman,serif" font-weight="bold" font-size="14.00">English</text>
<text text-anchor="start" x="800" y="-14.8" font-family="Times New Roman,serif" font-size="14.00" fill="red">fugleman</text>
</g>
<!-- flugelmannG&#45;&gt;fugleman -->
<g id="edge14" class="edge">
<title>flugelmannG&#45;&gt;fugleman</title>
<path fill="none" stroke="black" stroke-dasharray="5,2" d="M825.5,-107.7C825.5,-96.33 825.5,-81.07 825.5,-67.31"/>
<polygon fill="black" stroke="black" points="829,-67.17 825.5,-57.17 822,-67.17 829,-67.17"/>
</g>
<!-- lantOHG -->
<g id="node16" class="node">
<title>lantOHG</title>
<text text-anchor="start" x="364.5" y="-554.8" font-family="Times New Roman,serif" font-weight="bold" font-size="14.00">Old High</text>
<text text-anchor="start" x="367" y="-540.8" font-family="Times New Roman,serif" font-weight="bold" font-size="14.00">German</text>
<text text-anchor="start" x="382.5" y="-526.8" font-family="Times New Roman,serif" font-size="14.00" fill="red">lant</text>
<text text-anchor="start" x="383" y="-514.4" font-family="Times New Roman,serif" font-size="12.00">land</text>
</g>
<!-- lantMHG -->
<g id="node17" class="node">
<title>lantMHG</title>
<text text-anchor="start" x="365.5" y="-400.8" font-family="Times New Roman,serif" font-weight="bold" font-size="14.00">Middle High</text>
<text text-anchor="start" x="378" y="-386.8" font-family="Times New Roman,serif" font-weight="bold" font-size="14.00">German</text>
<text text-anchor="start" x="393.5" y="-372.8" font-family="Times New Roman,serif" font-size="14.00" fill="red">lant</text>
</g>
<!-- lantOHG&#45;&gt;lantMHG -->
<g id="edge15" class="edge">
<title>lantOHG&#45;&gt;lantMHG</title>
<path fill="none" stroke="black" d="M394.78,-506.75C396.56,-483.07 399.05,-450.13 400.91,-425.44"/>
<polygon fill="black" stroke="black" points="404.4,-425.65 401.66,-415.41 397.42,-425.12 404.4,-425.65"/>
</g>
<!-- lantMHG&#45;&gt;lantsmanMHG -->
<g id="edge17" class="edge">
<title>lantMHG&#45;&gt;lantsmanMHG</title>
<path fill="none" stroke="black" d="M418.92,-364.71C432.73,-342.96 452.92,-311.17 467.04,-288.93"/>
<polygon fill="black" stroke="black" points="470.09,-290.66 472.49,-280.34 464.18,-286.9 470.09,-290.66"/>
</g>
<!-- landsmanY -->
<g id="node19" class="node">
<title>landsmanY</title>
<text text-anchor="start" x="460.5" y="-129.8" font-family="Times New Roman,serif" font-weight="bold" font-size="14.00">Yiddish</text>
<text text-anchor="start" x="457" y="-115.8" font-family="Times New Roman,serif" font-size="14.00" fill="red">landsman</text>
</g>
<!-- lantsmanMHG&#45;&gt;landsmanY -->
<g id="edge18" class="edge">
<title>lantsmanMHG&#45;&gt;landsmanY</title>
<path fill="none" stroke="black" d="M483.5,-243.76C483.5,-221.14 483.5,-181.2 483.5,-154.42"/>
<polygon fill="black" stroke="black" points="487,-154.18 483.5,-144.18 480,-154.18 487,-154.18"/>
</g>
<!-- landsman -->
<g id="node20" class="node">
<title>landsman</title>
<text text-anchor="start" x="459" y="-42.8" font-family="Times New Roman,serif" font-weight="bold" font-size="14.00">Modern</text>
<text text-anchor="start" x="460.5" y="-28.8" font-family="Times New Roman,serif" font-weight="bold" font-size="14.00">English</text>
<text text-anchor="start" x="457" y="-14.8" font-family="Times New Roman,serif" font-size="14.00" fill="red">landsman</text>
</g>
<!-- landsmanY&#45;&gt;landsman -->
<g id="edge19" class="edge">
<title>landsmanY&#45;&gt;landsman</title>
<path fill="none" stroke="black" stroke-dasharray="5,2" d="M483.5,-107.7C483.5,-96.33 483.5,-81.07 483.5,-67.31"/>
<polygon fill="black" stroke="black" points="487,-67.17 483.5,-57.17 480,-67.17 487,-67.17"/>
</g>
<!-- mannekijnMD -->
<g id="node22" class="node">
<title>mannekijnMD</title>
<text text-anchor="start" x="275.5" y="-392.8" font-family="Times New Roman,serif" font-size="14.00" fill="red">mannekijn</text>
<text text-anchor="start" x="283.5" y="-380.4" font-family="Times New Roman,serif" font-size="12.00">little man</text>
</g>
<!-- manMD&#45;&gt;mannekijnMD -->
<g id="edge21" class="edge">
<title>manMD&#45;&gt;mannekijnMD</title>
<path fill="none" stroke="black" d="M307.67,-512.89C306.78,-486.86 305.37,-445.49 304.43,-418.29"/>
<polygon fill="black" stroke="black" points="307.93,-418.15 304.09,-408.28 300.94,-418.39 307.93,-418.15"/>
</g>
<!-- mannekijnD -->
<g id="node23" class="node">
<title>mannekijnD</title>
<text text-anchor="start" x="283" y="-197.8" font-family="Times New Roman,serif" font-weight="bold" font-size="14.00">Dutch</text>
<text text-anchor="start" x="273.5" y="-183.8" font-family="Times New Roman,serif" font-size="14.00" fill="red">mannekijn</text>
</g>
<!-- mannekijnMD&#45;&gt;mannekijnD -->
<g id="edge22" class="edge">
<title>mannekijnMD&#45;&gt;mannekijnD</title>
<path fill="none" stroke="black" d="M303.32,-371.78C302.97,-338.06 302.2,-263.06 301.78,-222.43"/>
<polygon fill="black" stroke="black" points="305.28,-222.14 301.68,-212.18 298.28,-222.21 305.28,-222.14"/>
</g>
<!-- mannequinOF -->
<g id="node25" class="node">
<title>mannequinOF</title>
<text text-anchor="start" x="345.5" y="-271.8" font-family="Times New Roman,serif" font-weight="bold" font-size="14.00">Old French</text>
<text text-anchor="start" x="350" y="-257.8" font-family="Times New Roman,serif" font-size="14.00" fill="red">mannequin</text>
<text text-anchor="start" x="338.5" y="-245.4" font-family="Times New Roman,serif" font-size="12.00">little man, figuruine</text>
</g>
<!-- mannekijnMD&#45;&gt;mannequinOF -->
<g id="edge24" class="edge">
<title>mannekijnMD&#45;&gt;mannequinOF</title>
<path fill="none" stroke="black" stroke-dasharray="5,2" d="M314.05,-371.74C326.15,-351.94 346.26,-319.04 361.19,-294.6"/>
<polygon fill="black" stroke="black" points="364.2,-296.38 366.43,-286.02 358.23,-292.73 364.2,-296.38"/>
</g>
<!-- manikin -->
<g id="node24" class="node">
<title>manikin</title>
<text text-anchor="start" x="277" y="-49.8" font-family="Times New Roman,serif" font-weight="bold" font-size="14.00">Modern</text>
<text text-anchor="start" x="278.5" y="-35.8" font-family="Times New Roman,serif" font-weight="bold" font-size="14.00">English</text>
<text text-anchor="start" x="280" y="-21.8" font-family="Times New Roman,serif" font-size="14.00" fill="red">manikin</text>
<text text-anchor="start" x="276.5" y="-7.8" font-family="Times New Roman,serif" font-size="14.00" fill="red">mannikin</text>
</g>
<!-- mannekijnD&#45;&gt;manikin -->
<g id="edge23" class="edge">
<title>mannekijnD&#45;&gt;manikin</title>
<path fill="none" stroke="black" stroke-dasharray="5,2" d="M301.5,-175.88C301.5,-151.87 301.5,-107.46 301.5,-74.5"/>
<polygon fill="black" stroke="black" points="305,-74.24 301.5,-64.24 298,-74.24 305,-74.24"/>
</g>
<!-- mannequinF -->
<g id="node26" class="node">
<title>mannequinF</title>
<text text-anchor="start" x="367.5" y="-129.8" font-family="Times New Roman,serif" font-weight="bold" font-size="14.00">French</text>
<text text-anchor="start" x="359" y="-115.8" font-family="Times New Roman,serif" font-size="14.00" fill="red">mannequin</text>
</g>
<!-- mannequinOF&#45;&gt;mannequinF -->
<g id="edge25" class="edge">
<title>mannequinOF&#45;&gt;mannequinF</title>
<path fill="none" stroke="black" d="M382.05,-237.96C383.61,-214.76 386.01,-178.96 387.66,-154.33"/>
<polygon fill="black" stroke="black" points="391.17,-154.42 388.34,-144.21 384.18,-153.95 391.17,-154.42"/>
</g>
<!-- mannequin -->
<g id="node27" class="node">
<title>mannequin</title>
<text text-anchor="start" x="367" y="-42.8" font-family="Times New Roman,serif" font-weight="bold" font-size="14.00">Modern</text>
<text text-anchor="start" x="368.5" y="-28.8" font-family="Times New Roman,serif" font-weight="bold" font-size="14.00">English</text>
<text text-anchor="start" x="361" y="-14.8" font-family="Times New Roman,serif" font-size="14.00" fill="red">mannequin</text>
</g>
<!-- mannequinF&#45;&gt;mannequin -->
<g id="edge26" class="edge">
<title>mannequinF&#45;&gt;mannequin</title>
<path fill="none" stroke="black" stroke-dasharray="5,2" d="M389.88,-107.7C390.12,-96.33 390.45,-81.07 390.75,-67.31"/>
<polygon fill="black" stroke="black" points="394.26,-67.24 390.97,-57.17 387.26,-67.09 394.26,-67.24"/>
</g>
<!-- gamanOF -->
<g id="node30" class="node">
<title>gamanOF</title>
<text text-anchor="start" x="662" y="-392.8" font-family="Times New Roman,serif" font-size="14.00" fill="red">gāman</text>
<text text-anchor="start" x="664.5" y="-380.4" font-family="Times New Roman,serif" font-size="12.00">villager</text>
</g>
<!-- manOF&#45;&gt;gamanOF -->
<g id="edge28" class="edge">
<title>manOF&#45;&gt;gamanOF</title>
<path fill="none" stroke="black" d="M683.15,-519.97C682.64,-495.04 681.68,-448.37 681.07,-418.54"/>
<polygon fill="black" stroke="black" points="684.56,-418.3 680.86,-408.38 677.56,-418.45 684.56,-418.3"/>
</g>
<!-- gaOF -->
<g id="node29" class="node">
<title>gaOF</title>
<text text-anchor="start" x="544.5" y="-547.8" font-family="Times New Roman,serif" font-weight="bold" font-size="14.00">Old Frisian</text>
<text text-anchor="start" x="573" y="-533.8" font-family="Times New Roman,serif" font-size="14.00" fill="red">gā</text>
<text text-anchor="start" x="547.5" y="-521.4" font-family="Times New Roman,serif" font-size="12.00">region, district</text>
</g>
<!-- gaOF&#45;&gt;gamanOF -->
<g id="edge29" class="edge">
<title>gaOF&#45;&gt;gamanOF</title>
<path fill="none" stroke="black" d="M595.5,-513.87C613.87,-487.31 643.91,-443.89 662.92,-416.42"/>
<polygon fill="black" stroke="black" points="665.86,-418.31 668.67,-408.1 660.11,-414.33 665.86,-418.31"/>
</g>
<!-- geamanOE -->
<g id="node31" class="node">
<title>geamanOE</title>
<text text-anchor="start" x="644" y="-265.8" font-family="Times New Roman,serif" font-weight="bold" font-size="14.00">Old English</text>
<text text-anchor="start" x="656" y="-251.8" font-family="Times New Roman,serif" font-size="14.00" fill="red">*gēaman</text>
</g>
<!-- gamanOF&#45;&gt;geamanOE -->
<g id="edge30" class="edge">
<title>gamanOF&#45;&gt;geamanOE</title>
<path fill="none" stroke="black" stroke-dasharray="5,2" d="M680.5,-371.74C680.5,-350.73 680.5,-314.97 680.5,-290.23"/>
<polygon fill="black" stroke="black" points="684,-290.05 680.5,-280.05 677,-290.05 684,-290.05"/>
</g>
<!-- yomanME -->
<g id="node32" class="node">
<title>yomanME</title>
<text text-anchor="start" x="659" y="-136.8" font-family="Times New Roman,serif" font-weight="bold" font-size="14.00">Middle</text>
<text text-anchor="start" x="657.5" y="-122.8" font-family="Times New Roman,serif" font-weight="bold" font-size="14.00">English</text>
<text text-anchor="start" x="661.5" y="-108.8" font-family="Times New Roman,serif" font-size="14.00" fill="red">yoman</text>
</g>
<!-- geamanOE&#45;&gt;yomanME -->
<g id="edge31" class="edge">
<title>geamanOE&#45;&gt;yomanME</title>
<path fill="none" stroke="black" d="M680.5,-243.76C680.5,-223.13 680.5,-188.09 680.5,-161.77"/>
<polygon fill="black" stroke="black" points="684,-161.44 680.5,-151.44 677,-161.44 684,-161.44"/>
<text text-anchor="middle" x="684" y="-190.3" font-family="Times New Roman,serif" font-size="14.00">?</text>
</g>
<!-- yeoman -->
<g id="node33" class="node">
<title>yeoman</title>
<text text-anchor="start" x="656" y="-42.8" font-family="Times New Roman,serif" font-weight="bold" font-size="14.00">Modern</text>
<text text-anchor="start" x="657.5" y="-28.8" font-family="Times New Roman,serif" font-weight="bold" font-size="14.00">English</text>
<text text-anchor="start" x="658.5" y="-14.8" font-family="Times New Roman,serif" font-size="14.00" fill="red">yeoman</text>
</g>
<!-- yomanME&#45;&gt;yeoman -->
<g id="edge32" class="edge">
<title>yomanME&#45;&gt;yeoman</title>
<path fill="none" stroke="black" d="M680.5,-100.83C680.5,-90.58 680.5,-78.45 680.5,-67.3"/>
<polygon fill="black" stroke="black" points="684,-67.01 680.5,-57.01 677,-67.01 684,-67.01"/>
</g>
<!-- ambhiIE -->
<g id="node34" class="node">
<title>ambhiIE</title>
<g id="a_node34"><a xlink:href="ambhi-around.svg" xlink:title="&lt;b&gt;Indo&#45;&lt;br/&gt;European&lt;/b&gt;&lt;br/&gt;&lt;font color=&quot;red&quot;&gt;*ambhi, *m̥bhi&lt;/font&gt;&lt;br/&gt;&lt;font point&#45;size=&quot;12&quot;&gt;around&lt;/font&gt;">
<path fill="none" stroke="black" stroke-dasharray="5,2" d="M979,-759C979,-759 904,-759 904,-759 898,-759 892,-753 892,-747 892,-747 892,-709 892,-709 892,-703 898,-697 904,-697 904,-697 979,-697 979,-697 985,-697 991,-703 991,-709 991,-709 991,-747 991,-747 991,-753 985,-759 979,-759"/>
<text text-anchor="start" x="925" y="-744.8" font-family="Times New Roman,serif" font-weight="bold" font-size="14.00">Indo&#45;</text>
<text text-anchor="start" x="911" y="-730.8" font-family="Times New Roman,serif" font-weight="bold" font-size="14.00">European</text>
<text text-anchor="start" x="900" y="-716.8" font-family="Times New Roman,serif" font-size="14.00" fill="red">*ambhi, *m̥bhi</text>
<text text-anchor="start" x="925.5" y="-704.4" font-family="Times New Roman,serif" font-size="12.00">around</text>
</a>
</g>
</g>
<!-- umON -->
<g id="node35" class="node">
<title>umON</title>
<text text-anchor="start" x="909.5" y="-639.8" font-family="Times New Roman,serif" font-weight="bold" font-size="14.00">Old Norse</text>
<text text-anchor="start" x="932.5" y="-625.8" font-family="Times New Roman,serif" font-size="14.00" fill="red">um</text>
<text text-anchor="start" x="928.5" y="-613.4" font-family="Times New Roman,serif" font-size="12.00">about</text>
</g>
<!-- ambhiIE&#45;&gt;umON -->
<g id="edge33" class="edge">
<title>ambhiIE&#45;&gt;umON</title>
<path fill="none" stroke="black" d="M941.5,-696.89C941.5,-686.58 941.5,-674.98 941.5,-664.43"/>
<polygon fill="black" stroke="black" points="945,-664.3 941.5,-654.3 938,-664.3 945,-664.3"/>
</g>
<!-- umbodhON -->
<g id="node39" class="node">
<title>umbodhON</title>
<text text-anchor="start" x="964" y="-540.8" font-family="Times New Roman,serif" font-size="14.00" fill="red">umbodh</text>
<text text-anchor="start" x="961" y="-528.4" font-family="Times New Roman,serif" font-size="12.00">commission</text>
</g>
<!-- umON&#45;&gt;umbodhON -->
<g id="edge36" class="edge">
<title>umON&#45;&gt;umbodhON</title>
<path fill="none" stroke="black" d="M953.35,-605.82C959.67,-593.45 967.47,-578.18 974.02,-565.37"/>
<polygon fill="black" stroke="black" points="977.31,-566.63 978.75,-556.13 971.08,-563.44 977.31,-566.63"/>
</g>
<!-- bheudhIE -->
<g id="node36" class="node">
<title>bheudhIE</title>
<g id="a_node36"><a xlink:href="bheudh-aware.svg" xlink:title="&lt;b&gt;Indo&#45;&lt;br/&gt;European&lt;/b&gt;&lt;br/&gt;&lt;font color=&quot;red&quot;&gt;*bheudh&#45;&lt;/font&gt;&lt;br/&gt;&lt;font point&#45;size=&quot;12&quot;&gt;to be aware,&lt;br/&gt;to make aware&lt;/font&gt;">
<path fill="none" stroke="black" stroke-dasharray="5,2" d="M1081.5,-765C1081.5,-765 1021.5,-765 1021.5,-765 1015.5,-765 1009.5,-759 1009.5,-753 1009.5,-753 1009.5,-703 1009.5,-703 1009.5,-697 1015.5,-691 1021.5,-691 1021.5,-691 1081.5,-691 1081.5,-691 1087.5,-691 1093.5,-697 1093.5,-703 1093.5,-703 1093.5,-753 1093.5,-753 1093.5,-759 1087.5,-765 1081.5,-765"/>
<text text-anchor="start" x="1035" y="-750.8" font-family="Times New Roman,serif" font-weight="bold" font-size="14.00">Indo&#45;</text>
<text text-anchor="start" x="1021" y="-736.8" font-family="Times New Roman,serif" font-weight="bold" font-size="14.00">European</text>
<text text-anchor="start" x="1025" y="-722.8" font-family="Times New Roman,serif" font-size="14.00" fill="red">*bheudh&#45;</text>
<text text-anchor="start" x="1022.5" y="-710.4" font-family="Times New Roman,serif" font-size="12.00">to be aware,</text>
<text text-anchor="start" x="1017.5" y="-698.4" font-family="Times New Roman,serif" font-size="12.00">to make aware</text>
</a>
</g>
</g>
<!-- bodhON -->
<g id="node37" class="node">
<title>bodhON</title>
<text text-anchor="start" x="1007.5" y="-639.8" font-family="Times New Roman,serif" font-weight="bold" font-size="14.00">Old Norse</text>
<text text-anchor="start" x="1024.5" y="-625.8" font-family="Times New Roman,serif" font-size="14.00" fill="red">bodh</text>
<text text-anchor="start" x="1017" y="-613.4" font-family="Times New Roman,serif" font-size="12.00">command</text>
</g>
<!-- bheudhIE&#45;&gt;bodhON -->
<g id="edge34" class="edge">
<title>bheudhIE&#45;&gt;bodhON</title>
<path fill="none" stroke="black" d="M1047,-690.98C1045.9,-682.2 1044.73,-672.86 1043.65,-664.22"/>
<polygon fill="black" stroke="black" points="1047.1,-663.61 1042.39,-654.12 1040.16,-664.48 1047.1,-663.61"/>
</g>
<!-- bodhON&#45;&gt;umbodhON -->
<g id="edge37" class="edge">
<title>bodhON&#45;&gt;umbodhON</title>
<path fill="none" stroke="black" d="M1026.11,-605.82C1018.89,-593.33 1009.97,-577.89 1002.52,-564.99"/>
<polygon fill="black" stroke="black" points="1005.43,-563.04 997.4,-556.13 999.37,-566.54 1005.43,-563.04"/>
</g>
<!-- umbodhsmadhrON -->
<g id="node40" class="node">
<title>umbodhsmadhrON</title>
<text text-anchor="start" x="913" y="-392.8" font-family="Times New Roman,serif" font-size="14.00" fill="red">unbodhsmadhr</text>
<text text-anchor="start" x="940" y="-380.4" font-family="Times New Roman,serif" font-size="12.00">deputy</text>
</g>
<!-- madhrON&#45;&gt;umbodhsmadhrON -->
<g id="edge38" class="edge">
<title>madhrON&#45;&gt;umbodhsmadhrON</title>
<path fill="none" stroke="black" d="M804.45,-519.97C834.87,-493.99 892.97,-444.39 927.57,-414.85"/>
<polygon fill="black" stroke="black" points="930.08,-417.31 935.41,-408.15 925.53,-411.98 930.08,-417.31"/>
</g>
<!-- umbodhON&#45;&gt;umbodhsmadhrON -->
<g id="edge39" class="edge">
<title>umbodhON&#45;&gt;umbodhsmadhrON</title>
<path fill="none" stroke="black" d="M983.77,-519.97C978.3,-495.04 968.08,-448.37 961.54,-418.54"/>
<polygon fill="black" stroke="black" points="964.87,-417.4 959.31,-408.38 958.03,-418.9 964.87,-417.4"/>
</g>
<!-- ombudsmanS -->
<g id="node41" class="node">
<title>ombudsmanS</title>
<text text-anchor="start" x="930" y="-197.8" font-family="Times New Roman,serif" font-weight="bold" font-size="14.00">Swedish</text>
<text text-anchor="start" x="920.5" y="-183.8" font-family="Times New Roman,serif" font-size="14.00" fill="red">ombudsman</text>
</g>
<!-- umbodhsmadhrON&#45;&gt;ombudsmanS -->
<g id="edge40" class="edge">
<title>umbodhsmadhrON&#45;&gt;ombudsmanS</title>
<path fill="none" stroke="black" d="M955.5,-371.78C955.5,-338.06 955.5,-263.06 955.5,-222.43"/>
<polygon fill="black" stroke="black" points="959,-222.18 955.5,-212.18 952,-222.18 959,-222.18"/>
</g>
<!-- ombudsman -->
<g id="node42" class="node">
<title>ombudsman</title>
<text text-anchor="start" x="931" y="-42.8" font-family="Times New Roman,serif" font-weight="bold" font-size="14.00">Modern</text>
<text text-anchor="start" x="932.5" y="-28.8" font-family="Times New Roman,serif" font-weight="bold" font-size="14.00">English</text>
<text text-anchor="start" x="920.5" y="-14.8" font-family="Times New Roman,serif" font-size="14.00" fill="red">ombudsman</text>
</g>
<!-- ombudsmanS&#45;&gt;ombudsman -->
<g id="edge41" class="edge">
<title>ombudsmanS&#45;&gt;ombudsman</title>
<path fill="none" stroke="black" stroke-dasharray="5,2" d="M955.5,-175.88C955.5,-150.13 955.5,-100.89 955.5,-67.5"/>
<polygon fill="black" stroke="black" points="959,-67.27 955.5,-57.27 952,-67.27 959,-67.27"/>
</g>
<!-- manuhSk -->
<g id="node44" class="node">
<title>manuhSk</title>
<text text-anchor="start" x="13.5" y="-474.8" font-family="Times New Roman,serif" font-weight="bold" font-size="14.00">Sanskrit</text>
<text text-anchor="start" x="19" y="-460.8" font-family="Times New Roman,serif" font-size="14.00" fill="red">manuḥ,</text>
<text text-anchor="start" x="20" y="-446.8" font-family="Times New Roman,serif" font-size="14.00" fill="red">Manuḥ</text>
</g>
<!-- manuII&#45;&gt;manuhSk -->
<g id="edge43" class="edge">
<title>manuII&#45;&gt;manuhSk</title>
<path fill="none" stroke="black" d="M91.95,-611.95C82.85,-600.48 71.55,-584.65 64.5,-569 54.52,-546.84 48.21,-520.15 44.42,-499.36"/>
<polygon fill="black" stroke="black" points="47.85,-498.65 42.72,-489.38 40.95,-499.83 47.85,-498.65"/>
</g>
<!-- manuE -->
<g id="node45" class="node">
<title>manuE</title>
<text text-anchor="start" x="8" y="-42.8" font-family="Times New Roman,serif" font-weight="bold" font-size="14.00">Modern</text>
<text text-anchor="start" x="9.5" y="-28.8" font-family="Times New Roman,serif" font-weight="bold" font-size="14.00">English</text>
<text text-anchor="start" x="16.5" y="-14.8" font-family="Times New Roman,serif" font-size="14.00" fill="red">Manu</text>
</g>
<!-- manuhSk&#45;&gt;manuE -->
<g id="edge44" class="edge">
<title>manuhSk&#45;&gt;manuE</title>
<path fill="none" stroke="black" stroke-dasharray="5,2" d="M37.55,-438.91C35.48,-411.21 32.5,-364.35 32.5,-324 32.5,-324 32.5,-324 32.5,-125 32.5,-105.95 32.5,-84.69 32.5,-67.4"/>
<polygon fill="black" stroke="black" points="36,-67.21 32.5,-57.21 29,-67.21 36,-67.21"/>
</g>
<!-- menniscoOHG -->
<g id="node47" class="node">
<title>menniscoOHG</title>
<text text-anchor="start" x="86.5" y="-406.8" font-family="Times New Roman,serif" font-weight="bold" font-size="14.00">Old High</text>
<text text-anchor="start" x="89" y="-392.8" font-family="Times New Roman,serif" font-weight="bold" font-size="14.00">German</text>
<text text-anchor="start" x="87.5" y="-378.8" font-family="Times New Roman,serif" font-size="14.00" fill="red">mennisco</text>
<text text-anchor="start" x="87.5" y="-366.4" font-family="Times New Roman,serif" font-size="12.00">humanbeing</text>
</g>
<!-- manniskaGc&#45;&gt;menniscoOHG -->
<g id="edge46" class="edge">
<title>manniskaGc&#45;&gt;menniscoOHG</title>
<path fill="none" stroke="black" d="M113.62,-519.97C113.76,-498.39 114.02,-460.53 114.22,-431.39"/>
<polygon fill="black" stroke="black" points="117.73,-431.12 114.29,-421.09 110.73,-431.07 117.73,-431.12"/>
</g>
<!-- menschMHG -->
<g id="node48" class="node">
<title>menschMHG</title>
<text text-anchor="start" x="77.5" y="-272.8" font-family="Times New Roman,serif" font-weight="bold" font-size="14.00">Middle High</text>
<text text-anchor="start" x="90" y="-258.8" font-family="Times New Roman,serif" font-weight="bold" font-size="14.00">German</text>
<text text-anchor="start" x="94" y="-244.8" font-family="Times New Roman,serif" font-size="14.00" fill="red">mensch</text>
</g>
<!-- menniscoOHG&#45;&gt;menschMHG -->
<g id="edge47" class="edge">
<title>menniscoOHG&#45;&gt;menschMHG</title>
<path fill="none" stroke="black" d="M114.74,-358.82C114.89,-340.27 115.08,-316.45 115.23,-297.2"/>
<polygon fill="black" stroke="black" points="118.73,-297.07 115.31,-287.04 111.73,-297.01 118.73,-297.07"/>
</g>
<!-- menschY -->
<g id="node49" class="node">
<title>menschY</title>
<text text-anchor="start" x="92.5" y="-129.8" font-family="Times New Roman,serif" font-weight="bold" font-size="14.00">Yiddish</text>
<text text-anchor="start" x="94" y="-115.8" font-family="Times New Roman,serif" font-size="14.00" fill="red">mensch</text>
</g>
<!-- menschMHG&#45;&gt;menschY -->
<g id="edge48" class="edge">
<title>menschMHG&#45;&gt;menschY</title>
<path fill="none" stroke="black" d="M115.5,-236.73C115.5,-213.58 115.5,-178.74 115.5,-154.56"/>
<polygon fill="black" stroke="black" points="119,-154.27 115.5,-144.27 112,-154.27 119,-154.27"/>
</g>
<!-- mensch -->
<g id="node50" class="node">
<title>mensch</title>
<text text-anchor="start" x="91" y="-42.8" font-family="Times New Roman,serif" font-weight="bold" font-size="14.00">Modern</text>
<text text-anchor="start" x="92.5" y="-28.8" font-family="Times New Roman,serif" font-weight="bold" font-size="14.00">English</text>
<text text-anchor="start" x="94" y="-14.8" font-family="Times New Roman,serif" font-size="14.00" fill="red">mensch</text>
</g>
<!-- menschY&#45;&gt;mensch -->
<g id="edge49" class="edge">
<title>menschY&#45;&gt;mensch</title>
<path fill="none" stroke="black" stroke-dasharray="5,2" d="M115.5,-107.7C115.5,-96.33 115.5,-81.07 115.5,-67.31"/>
<polygon fill="black" stroke="black" points="119,-67.17 115.5,-57.17 112,-67.17 119,-67.17"/>
</g>
<!-- muzhR -->
<g id="node52" class="node">
<title>muzhR</title>
<text text-anchor="start" x="1112" y="-541.8" font-family="Times New Roman,serif" font-weight="bold" font-size="14.00">Russian</text>
<text text-anchor="start" x="1121" y="-527.8" font-family="Times New Roman,serif" font-size="14.00" fill="red">muzh</text>
</g>
<!-- mongyoSl&#45;&gt;muzhR -->
<g id="edge51" class="edge">
<title>mongyoSl&#45;&gt;muzhR</title>
<path fill="none" stroke="black" d="M1136.5,-611.65C1136.5,-598.82 1136.5,-581.11 1136.5,-566.38"/>
<polygon fill="black" stroke="black" points="1140,-566.3 1136.5,-556.3 1133,-566.3 1140,-566.3"/>
</g>
<!-- muzhikR -->
<g id="node53" class="node">
<title>muzhikR</title>
<text text-anchor="start" x="1116.5" y="-325.8" font-family="Times New Roman,serif" font-size="14.00" fill="red">muzhik</text>
<text text-anchor="start" x="1119" y="-313.4" font-family="Times New Roman,serif" font-size="12.00">peasant</text>
</g>
<!-- muzhR&#45;&gt;muzhikR -->
<g id="edge52" class="edge">
<title>muzhR&#45;&gt;muzhikR</title>
<path fill="none" stroke="black" d="M1136.5,-519.93C1136.5,-483.08 1136.5,-395.84 1136.5,-351.26"/>
<polygon fill="black" stroke="black" points="1140,-351.15 1136.5,-341.15 1133,-351.15 1140,-351.15"/>
</g>
<!-- muzhik -->
<g id="node54" class="node">
<title>muzhik</title>
<text text-anchor="start" x="1112" y="-42.8" font-family="Times New Roman,serif" font-weight="bold" font-size="14.00">Modern</text>
<text text-anchor="start" x="1113.5" y="-28.8" font-family="Times New Roman,serif" font-weight="bold" font-size="14.00">English</text>
<text text-anchor="start" x="1116.5" y="-14.8" font-family="Times New Roman,serif" font-size="14.00" fill="red">muzhik</text>
</g>
<!-- muzhikR&#45;&gt;muzhik -->
<g id="edge53" class="edge">
<title>muzhikR&#45;&gt;muzhik</title>
<path fill="none" stroke="black" stroke-dasharray="5,2" d="M1136.5,-304.79C1136.5,-258.26 1136.5,-129.35 1136.5,-67.27"/>
<polygon fill="black" stroke="black" points="1140,-67.2 1136.5,-57.2 1133,-67.2 1140,-67.2"/>
</g>
</g>
</svg>
