<?xml version="1.0" encoding="UTF-8" standalone="no"?>
<!DOCTYPE svg PUBLIC "-//W3C//DTD SVG 1.1//EN"
 "http://www.w3.org/Graphics/SVG/1.1/DTD/svg11.dtd">
<!-- Generated by graphviz version 2.44.1 (20200629.0846)
 -->
<!-- Pages: 1 -->
<svg width="768pt" height="476pt"
 viewBox="0.00 0.00 767.50 476.00" xmlns="http://www.w3.org/2000/svg" xmlns:xlink="http://www.w3.org/1999/xlink">
<g id="graph0" class="graph" transform="scale(1 1) rotate(0) translate(4 472)">
<polygon fill="white" stroke="transparent" points="-4,4 -4,-472 763.5,-472 763.5,4 -4,4"/>
<!-- medhyo -->
<g id="node1" class="node">
<title>medhyo</title>
<text text-anchor="start" x="313" y="-453.8" font-family="Times New Roman,serif" font-weight="bold" font-size="14.00">Indo&#45;European</text>
<text text-anchor="start" x="310" y="-439.8" font-family="Times New Roman,serif" font-size="14.00" fill="red">medhyo&#45;</text>
<text text-anchor="start" x="360" y="-439.8" font-family="Times New Roman,serif" font-size="14.00"> &#160;&#160;middle</text>
</g>
<!-- mesosG -->
<g id="node2" class="node">
<title>mesosG</title>
<text text-anchor="start" x="136.5" y="-381.8" font-family="Times New Roman,serif" font-weight="bold" font-size="14.00">Greek</text>
<text text-anchor="start" x="138" y="-367.8" font-family="Times New Roman,serif" font-size="14.00" fill="red">mesos</text>
</g>
<!-- medhyo&#45;&gt;mesosG -->
<g id="edge1" class="edge">
<title>medhyo&#45;&gt;mesosG</title>
<path fill="none" stroke="black" d="M310.1,-431.97C274.47,-419.68 227.09,-403.34 194.42,-392.08"/>
<polygon fill="black" stroke="black" points="195.38,-388.7 184.78,-388.75 193.1,-395.32 195.38,-388.7"/>
</g>
<!-- midjazGm -->
<g id="node3" class="node">
<title>midjazGm</title>
<text text-anchor="start" x="329" y="-381.8" font-family="Times New Roman,serif" font-weight="bold" font-size="14.00">Germanic</text>
<text text-anchor="start" x="320" y="-367.8" font-family="Times New Roman,serif" font-size="14.00" fill="red">midjaz, midja&#45;</text>
</g>
<!-- medhyo&#45;&gt;midjazGm -->
<g id="edge2" class="edge">
<title>medhyo&#45;&gt;midjazGm</title>
<path fill="none" stroke="black" d="M359.5,-431.7C359.5,-423.98 359.5,-414.71 359.5,-406.11"/>
<polygon fill="black" stroke="black" points="363,-406.1 359.5,-396.1 356,-406.1 363,-406.1"/>
</g>
<!-- mediusL -->
<g id="node4" class="node">
<title>mediusL</title>
<text text-anchor="start" x="603" y="-381.8" font-family="Times New Roman,serif" font-weight="bold" font-size="14.00">Latin</text>
<text text-anchor="start" x="599.5" y="-367.8" font-family="Times New Roman,serif" font-size="14.00" fill="red">medius</text>
</g>
<!-- medhyo&#45;&gt;mediusL -->
<g id="edge3" class="edge">
<title>medhyo&#45;&gt;mediusL</title>
<path fill="none" stroke="black" d="M417.2,-433.46C467.2,-420 538.12,-400.91 581.35,-389.27"/>
<polygon fill="black" stroke="black" points="582.44,-392.6 591.18,-386.62 580.62,-385.84 582.44,-392.6"/>
</g>
<!-- meson -->
<g id="node28" class="node">
<title>meson</title>
<text text-anchor="start" x="8" y="-49.8" font-family="Times New Roman,serif" font-weight="bold" font-size="14.00">Modern</text>
<text text-anchor="start" x="9.5" y="-35.8" font-family="Times New Roman,serif" font-weight="bold" font-size="14.00">English</text>
<text text-anchor="start" x="15" y="-21.8" font-family="Times New Roman,serif" font-size="14.00" fill="red">meso&#45;</text>
<text text-anchor="start" x="14" y="-7.8" font-family="Times New Roman,serif" font-size="14.00" fill="red">meson</text>
</g>
<!-- mesosG&#45;&gt;meson -->
<g id="edge27" class="edge">
<title>mesosG&#45;&gt;meson</title>
<path fill="none" stroke="black" stroke-dasharray="1,5" d="M144.59,-359.7C128.76,-335.97 100.86,-291.5 84.5,-250 61.22,-190.94 46.44,-118.58 38.81,-74.14"/>
<polygon fill="black" stroke="black" points="42.22,-73.3 37.12,-64.02 35.32,-74.46 42.22,-73.3"/>
</g>
<!-- middOE -->
<g id="node5" class="node">
<title>middOE</title>
<text text-anchor="start" x="202" y="-308.8" font-family="Times New Roman,serif" font-weight="bold" font-size="14.00">Old English</text>
<text text-anchor="start" x="216.5" y="-294.8" font-family="Times New Roman,serif" font-size="14.00" fill="red">midd(e)</text>
</g>
<!-- midjazGm&#45;&gt;middOE -->
<g id="edge4" class="edge">
<title>midjazGm&#45;&gt;middOE</title>
<path fill="none" stroke="black" d="M330.52,-359.99C314.32,-350.49 293.95,-338.54 276.49,-328.29"/>
<polygon fill="black" stroke="black" points="278.06,-325.16 267.67,-323.11 274.52,-331.19 278.06,-325.16"/>
</g>
<!-- middilazGm -->
<g id="node8" class="node">
<title>middilazGm</title>
<text text-anchor="start" x="309.5" y="-307.8" font-family="Times New Roman,serif" font-size="14.00" fill="red">middilaz, middila&#45;</text>
<text text-anchor="start" x="330.5" y="-295.4" font-family="Times New Roman,serif" font-size="12.00">(diminuative)</text>
</g>
<!-- midjazGm&#45;&gt;middilazGm -->
<g id="edge7" class="edge">
<title>midjazGm&#45;&gt;middilazGm</title>
<path fill="none" stroke="black" d="M359.5,-359.81C359.5,-351.79 359.5,-342.05 359.5,-333.07"/>
<polygon fill="black" stroke="black" points="363,-333.03 359.5,-323.03 356,-333.03 363,-333.03"/>
</g>
<!-- midgardGm -->
<g id="node18" class="node">
<title>midgardGm</title>
<text text-anchor="start" x="443.5" y="-301.3" font-family="Times New Roman,serif" font-size="14.00" fill="red">midja&#45;gardaz</text>
</g>
<!-- midjazGm&#45;&gt;midgardGm -->
<g id="edge16" class="edge">
<title>midjazGm&#45;&gt;midgardGm</title>
<path fill="none" stroke="black" d="M388.24,-359.99C404.3,-350.49 424.51,-338.54 441.82,-328.29"/>
<polygon fill="black" stroke="black" points="443.75,-331.22 450.58,-323.11 440.19,-325.19 443.75,-331.22"/>
</g>
<!-- miOF -->
<g id="node21" class="node">
<title>miOF</title>
<text text-anchor="start" x="549.5" y="-308.8" font-family="Times New Roman,serif" font-weight="bold" font-size="14.00">Old French</text>
<text text-anchor="start" x="577.5" y="-294.8" font-family="Times New Roman,serif" font-size="14.00" fill="red">mi</text>
</g>
<!-- mediusL&#45;&gt;miOF -->
<g id="edge20" class="edge">
<title>mediusL&#45;&gt;miOF</title>
<path fill="none" stroke="black" d="M611.03,-359.81C606.94,-351.53 601.96,-341.41 597.41,-332.19"/>
<polygon fill="black" stroke="black" points="600.46,-330.45 592.89,-323.03 594.18,-333.55 600.46,-330.45"/>
</g>
<!-- mezzoI -->
<g id="node22" class="node">
<title>mezzoI</title>
<text text-anchor="start" x="653.5" y="-141.8" font-family="Times New Roman,serif" font-weight="bold" font-size="14.00">Italian</text>
<text text-anchor="start" x="629.5" y="-127.8" font-family="Times New Roman,serif" font-size="14.00" fill="red">mezzo&#45;, mezza&#45;</text>
<text text-anchor="start" x="665.5" y="-115.4" font-family="Times New Roman,serif" font-size="12.00">half</text>
</g>
<!-- mediusL&#45;&gt;mezzoI -->
<g id="edge21" class="edge">
<title>mediusL&#45;&gt;mezzoI</title>
<path fill="none" stroke="black" d="M625.53,-359.96C629.05,-349.65 633.38,-336.17 636.5,-324 650.53,-269.27 662.02,-204.52 668.3,-166.2"/>
<polygon fill="black" stroke="black" points="671.79,-166.56 669.93,-156.13 664.88,-165.44 671.79,-166.56"/>
</g>
<!-- various -->
<g id="node23" class="node">
<title>various</title>
<g id="a_node23"><a xlink:href="medhyo-middle2.svg" xlink:title="various&lt;br/&gt;derivatives">
<path fill="none" stroke="black" stroke-dasharray="5,2" d="M747.5,-324C747.5,-324 695.5,-324 695.5,-324 689.5,-324 683.5,-318 683.5,-312 683.5,-312 683.5,-298 683.5,-298 683.5,-292 689.5,-286 695.5,-286 695.5,-286 747.5,-286 747.5,-286 753.5,-286 759.5,-292 759.5,-298 759.5,-298 759.5,-312 759.5,-312 759.5,-318 753.5,-324 747.5,-324"/>
<text text-anchor="start" x="701" y="-308.8" font-family="Times New Roman,serif" font-size="14.00">various</text>
<text text-anchor="start" x="691.5" y="-293.8" font-family="Times New Roman,serif" font-size="14.00">derivatives</text>
</a>
</g>
</g>
<!-- mediusL&#45;&gt;various -->
<g id="edge22" class="edge">
<title>mediusL&#45;&gt;various</title>
<path fill="none" stroke="black" d="M643.93,-359.99C656.82,-351.02 672.84,-339.87 686.97,-330.03"/>
<polygon fill="black" stroke="black" points="689.28,-332.69 695.48,-324.11 685.28,-326.95 689.28,-332.69"/>
</g>
<!-- midME -->
<g id="node6" class="node">
<title>midME</title>
<text text-anchor="start" x="103" y="-235.8" font-family="Times New Roman,serif" font-weight="bold" font-size="14.00">Middle</text>
<text text-anchor="start" x="101.5" y="-221.8" font-family="Times New Roman,serif" font-weight="bold" font-size="14.00">English</text>
<text text-anchor="start" x="113.5" y="-207.8" font-family="Times New Roman,serif" font-size="14.00" fill="red">mid</text>
</g>
<!-- middOE&#45;&gt;midME -->
<g id="edge5" class="edge">
<title>middOE&#45;&gt;midME</title>
<path fill="none" stroke="black" d="M213.48,-286.88C198.97,-276.95 180.37,-264.23 163.93,-252.98"/>
<polygon fill="black" stroke="black" points="165.79,-250.01 155.56,-247.25 161.84,-255.79 165.79,-250.01"/>
</g>
<!-- middesME -->
<g id="node12" class="node">
<title>middesME</title>
<text text-anchor="start" x="233" y="-135.8" font-family="Times New Roman,serif" font-weight="bold" font-size="14.00">Middle English</text>
<text text-anchor="start" x="233" y="-121.8" font-family="Times New Roman,serif" font-size="14.00" fill="red">middes, middest</text>
</g>
<!-- middOE&#45;&gt;middesME -->
<g id="edge11" class="edge">
<title>middOE&#45;&gt;middesME</title>
<path fill="none" stroke="black" d="M242.58,-286.98C249.72,-257.22 264.51,-195.53 273.04,-159.93"/>
<polygon fill="black" stroke="black" points="276.45,-160.75 275.37,-150.21 269.64,-159.11 276.45,-160.75"/>
</g>
<!-- mid -->
<g id="node7" class="node">
<title>mid</title>
<text text-anchor="start" x="91" y="-49.8" font-family="Times New Roman,serif" font-weight="bold" font-size="14.00">Modern</text>
<text text-anchor="start" x="92.5" y="-35.8" font-family="Times New Roman,serif" font-weight="bold" font-size="14.00">English</text>
<text text-anchor="start" x="104.5" y="-21.8" font-family="Times New Roman,serif" font-size="14.00" fill="red">mid</text>
<text text-anchor="start" x="102.5" y="-7.8" font-family="Times New Roman,serif" font-size="14.00" fill="red">mid&#45;</text>
</g>
<!-- midME&#45;&gt;mid -->
<g id="edge6" class="edge">
<title>midME&#45;&gt;mid</title>
<path fill="none" stroke="black" d="M123.36,-199.81C121.88,-168.34 119.26,-112.86 117.46,-74.58"/>
<polygon fill="black" stroke="black" points="120.94,-74.09 116.97,-64.27 113.95,-74.42 120.94,-74.09"/>
</g>
<!-- amidME -->
<g id="node15" class="node">
<title>amidME</title>
<text text-anchor="start" x="154" y="-149.8" font-family="Times New Roman,serif" font-weight="bold" font-size="14.00">Middle</text>
<text text-anchor="start" x="152.5" y="-135.8" font-family="Times New Roman,serif" font-weight="bold" font-size="14.00">English</text>
<text text-anchor="start" x="161.5" y="-121.8" font-family="Times New Roman,serif" font-size="14.00" fill="red">amid</text>
<text text-anchor="start" x="157" y="-107.8" font-family="Times New Roman,serif" font-size="14.00" fill="red">amidst</text>
</g>
<!-- midME&#45;&gt;amidME -->
<g id="edge13" class="edge">
<title>midME&#45;&gt;amidME</title>
<path fill="none" stroke="black" d="M138.17,-199.61C142.73,-191.48 147.93,-182.19 152.98,-173.18"/>
<polygon fill="black" stroke="black" points="156.11,-174.75 157.95,-164.32 150.01,-171.33 156.11,-174.75"/>
</g>
<!-- middelOE -->
<g id="node9" class="node">
<title>middelOE</title>
<text text-anchor="start" x="334" y="-228.8" font-family="Times New Roman,serif" font-weight="bold" font-size="14.00">Old English</text>
<text text-anchor="start" x="351.5" y="-214.8" font-family="Times New Roman,serif" font-size="14.00" fill="red">middel</text>
</g>
<!-- middilazGm&#45;&gt;middelOE -->
<g id="edge8" class="edge">
<title>middilazGm&#45;&gt;middelOE</title>
<path fill="none" stroke="black" d="M361.94,-286.69C363.32,-276.89 365.08,-264.42 366.65,-253.33"/>
<polygon fill="black" stroke="black" points="370.13,-253.65 368.07,-243.26 363.2,-252.68 370.13,-253.65"/>
</g>
<!-- middelME -->
<g id="node10" class="node">
<title>middelME</title>
<text text-anchor="start" x="362" y="-142.8" font-family="Times New Roman,serif" font-weight="bold" font-size="14.00">Middle</text>
<text text-anchor="start" x="360.5" y="-128.8" font-family="Times New Roman,serif" font-weight="bold" font-size="14.00">English</text>
<text text-anchor="start" x="364.5" y="-114.8" font-family="Times New Roman,serif" font-size="14.00" fill="red">middel</text>
</g>
<!-- middelOE&#45;&gt;middelME -->
<g id="edge9" class="edge">
<title>middelOE&#45;&gt;middelME</title>
<path fill="none" stroke="black" d="M372.95,-206.88C374.54,-195.72 376.68,-180.77 378.61,-167.24"/>
<polygon fill="black" stroke="black" points="382.09,-167.65 380.04,-157.25 375.16,-166.66 382.09,-167.65"/>
</g>
<!-- middle -->
<g id="node11" class="node">
<title>middle</title>
<text text-anchor="start" x="359" y="-42.8" font-family="Times New Roman,serif" font-weight="bold" font-size="14.00">Modern</text>
<text text-anchor="start" x="360.5" y="-28.8" font-family="Times New Roman,serif" font-weight="bold" font-size="14.00">English</text>
<text text-anchor="start" x="364.5" y="-14.8" font-family="Times New Roman,serif" font-size="14.00" fill="red">middle</text>
</g>
<!-- middelME&#45;&gt;middle -->
<g id="edge10" class="edge">
<title>middelME&#45;&gt;middle</title>
<path fill="none" stroke="black" d="M383.5,-106.78C383.5,-94.88 383.5,-80.34 383.5,-67.32"/>
<polygon fill="black" stroke="black" points="387,-67.29 383.5,-57.29 380,-67.29 387,-67.29"/>
</g>
<!-- midst -->
<g id="node13" class="node">
<title>midst</title>
<text text-anchor="start" x="257" y="-42.8" font-family="Times New Roman,serif" font-weight="bold" font-size="14.00">Modern</text>
<text text-anchor="start" x="258.5" y="-28.8" font-family="Times New Roman,serif" font-weight="bold" font-size="14.00">English</text>
<text text-anchor="start" x="266" y="-14.8" font-family="Times New Roman,serif" font-size="14.00" fill="red">midst</text>
</g>
<!-- middesME&#45;&gt;midst -->
<g id="edge12" class="edge">
<title>middesME&#45;&gt;midst</title>
<path fill="none" stroke="black" d="M279.85,-113.93C280.11,-101.19 280.47,-83.34 280.79,-67.65"/>
<polygon fill="black" stroke="black" points="284.3,-67.29 281.01,-57.22 277.3,-67.14 284.3,-67.29"/>
</g>
<!-- aME -->
<g id="node14" class="node">
<title>aME</title>
<text text-anchor="start" x="195" y="-227.8" font-family="Times New Roman,serif" font-size="14.00" fill="red">a&#45;</text>
<text text-anchor="start" x="188" y="-215.4" font-family="Times New Roman,serif" font-size="12.00">in, on</text>
</g>
<!-- aME&#45;&gt;amidME -->
<g id="edge14" class="edge">
<title>aME&#45;&gt;amidME</title>
<path fill="none" stroke="black" d="M195.8,-206.88C193.21,-197.47 189.88,-185.36 186.68,-173.68"/>
<polygon fill="black" stroke="black" points="190.05,-172.75 184.03,-164.04 183.3,-174.61 190.05,-172.75"/>
</g>
<!-- amid -->
<g id="node16" class="node">
<title>amid</title>
<text text-anchor="start" x="174" y="-49.8" font-family="Times New Roman,serif" font-weight="bold" font-size="14.00">Modern</text>
<text text-anchor="start" x="175.5" y="-35.8" font-family="Times New Roman,serif" font-weight="bold" font-size="14.00">English</text>
<text text-anchor="start" x="184.5" y="-21.8" font-family="Times New Roman,serif" font-size="14.00" fill="red">amid</text>
<text text-anchor="start" x="180" y="-7.8" font-family="Times New Roman,serif" font-size="14.00" fill="red">amidst</text>
</g>
<!-- amidME&#45;&gt;amid -->
<g id="edge15" class="edge">
<title>amidME&#45;&gt;amid</title>
<path fill="none" stroke="black" d="M182.78,-99.99C184.71,-91.77 186.82,-82.76 188.86,-74.09"/>
<polygon fill="black" stroke="black" points="192.31,-74.68 191.19,-64.14 185.5,-73.08 192.31,-74.68"/>
</g>
<!-- gardaz -->
<g id="node17" class="node">
<title>gardaz</title>
<g id="a_node17"><a xlink:href="gher.svg" xlink:title="&lt;font color=&quot;red&quot;&gt;gardaz&lt;/font&gt;&lt;br/&gt;&lt;font point&#45;size=&quot;12&quot;&gt;enclosure&lt;/font&gt;">
<path fill="none" stroke="black" stroke-dasharray="5,2" d="M497,-396C497,-396 462,-396 462,-396 456,-396 450,-390 450,-384 450,-384 450,-372 450,-372 450,-366 456,-360 462,-360 462,-360 497,-360 497,-360 503,-360 509,-366 509,-372 509,-372 509,-384 509,-384 509,-390 503,-396 497,-396"/>
<text text-anchor="start" x="461" y="-380.8" font-family="Times New Roman,serif" font-size="14.00" fill="red">gardaz</text>
<text text-anchor="start" x="458" y="-368.4" font-family="Times New Roman,serif" font-size="12.00">enclosure</text>
</a>
</g>
</g>
<!-- gardaz&#45;&gt;midgardGm -->
<g id="edge17" class="edge">
<title>gardaz&#45;&gt;midgardGm</title>
<path fill="none" stroke="black" d="M479.5,-359.81C479.5,-351.79 479.5,-342.05 479.5,-333.07"/>
<polygon fill="black" stroke="black" points="483,-333.03 479.5,-323.03 476,-333.03 483,-333.03"/>
</g>
<!-- midgardON -->
<g id="node19" class="node">
<title>midgardON</title>
<text text-anchor="start" x="447.5" y="-228.8" font-family="Times New Roman,serif" font-weight="bold" font-size="14.00">Old Norse</text>
<text text-anchor="start" x="446.5" y="-214.8" font-family="Times New Roman,serif" font-size="14.00" fill="red">Midhgardhr</text>
</g>
<!-- midgardGm&#45;&gt;midgardON -->
<g id="edge18" class="edge">
<title>midgardGm&#45;&gt;midgardON</title>
<path fill="none" stroke="black" d="M479.5,-286.69C479.5,-276.89 479.5,-264.42 479.5,-253.33"/>
<polygon fill="black" stroke="black" points="483,-253.26 479.5,-243.26 476,-253.26 483,-253.26"/>
</g>
<!-- midgard -->
<g id="node20" class="node">
<title>midgard</title>
<text text-anchor="start" x="455" y="-42.8" font-family="Times New Roman,serif" font-weight="bold" font-size="14.00">Modern</text>
<text text-anchor="start" x="456.5" y="-28.8" font-family="Times New Roman,serif" font-weight="bold" font-size="14.00">English</text>
<text text-anchor="start" x="455.5" y="-14.8" font-family="Times New Roman,serif" font-size="14.00" fill="red">Midgard</text>
</g>
<!-- midgardON&#45;&gt;midgard -->
<g id="edge19" class="edge">
<title>midgardON&#45;&gt;midgard</title>
<path fill="none" stroke="black" stroke-dasharray="1,5" d="M479.5,-206.71C479.5,-175.29 479.5,-108.27 479.5,-67.27"/>
<polygon fill="black" stroke="black" points="483,-67.2 479.5,-57.2 476,-67.2 483,-67.2"/>
</g>
<!-- milieuOF -->
<g id="node24" class="node">
<title>milieuOF</title>
<text text-anchor="start" x="566" y="-227.8" font-family="Times New Roman,serif" font-size="14.00" fill="red">milieu</text>
<text text-anchor="start" x="550" y="-215.4" font-family="Times New Roman,serif" font-size="12.00">&quot;middle place&quot;</text>
</g>
<!-- miOF&#45;&gt;milieuOF -->
<g id="edge23" class="edge">
<title>miOF&#45;&gt;milieuOF</title>
<path fill="none" stroke="black" d="M584.06,-286.69C583.8,-276.89 583.49,-264.42 583.2,-253.33"/>
<polygon fill="black" stroke="black" points="586.7,-253.17 582.94,-243.26 579.7,-253.35 586.7,-253.17"/>
</g>
<!-- mezza -->
<g id="node27" class="node">
<title>mezza</title>
<text text-anchor="start" x="649" y="-49.8" font-family="Times New Roman,serif" font-weight="bold" font-size="14.00">Modern</text>
<text text-anchor="start" x="650.5" y="-35.8" font-family="Times New Roman,serif" font-weight="bold" font-size="14.00">English</text>
<text text-anchor="start" x="653.5" y="-21.8" font-family="Times New Roman,serif" font-size="14.00" fill="red">mezza&#45;</text>
<text text-anchor="start" x="653" y="-7.8" font-family="Times New Roman,serif" font-size="14.00" fill="red">mezzo&#45;</text>
</g>
<!-- mezzoI&#45;&gt;mezza -->
<g id="edge26" class="edge">
<title>mezzoI&#45;&gt;mezza</title>
<path fill="none" stroke="black" stroke-dasharray="1,5" d="M673.5,-107.78C673.5,-97.81 673.5,-85.85 673.5,-74.45"/>
<polygon fill="black" stroke="black" points="677,-74.22 673.5,-64.22 670,-74.22 677,-74.22"/>
</g>
<!-- milieuF -->
<g id="node25" class="node">
<title>milieuF</title>
<text text-anchor="start" x="551.5" y="-135.8" font-family="Times New Roman,serif" font-weight="bold" font-size="14.00">French</text>
<text text-anchor="start" x="557" y="-121.8" font-family="Times New Roman,serif" font-size="14.00" fill="red">milieu</text>
</g>
<!-- milieuOF&#45;&gt;milieuF -->
<g id="edge24" class="edge">
<title>milieuOF&#45;&gt;milieuF</title>
<path fill="none" stroke="black" d="M580.81,-206.88C579.51,-193.79 577.7,-175.48 576.21,-160.36"/>
<polygon fill="black" stroke="black" points="579.65,-159.65 575.19,-150.04 572.69,-160.34 579.65,-159.65"/>
</g>
<!-- milieu -->
<g id="node26" class="node">
<title>milieu</title>
<text text-anchor="start" x="549" y="-42.8" font-family="Times New Roman,serif" font-weight="bold" font-size="14.00">Modern</text>
<text text-anchor="start" x="550.5" y="-28.8" font-family="Times New Roman,serif" font-weight="bold" font-size="14.00">English</text>
<text text-anchor="start" x="557" y="-14.8" font-family="Times New Roman,serif" font-size="14.00" fill="red">milieu</text>
</g>
<!-- milieuF&#45;&gt;milieu -->
<g id="edge25" class="edge">
<title>milieuF&#45;&gt;milieu</title>
<path fill="none" stroke="black" stroke-dasharray="1,5" d="M573.5,-113.93C573.5,-101.19 573.5,-83.34 573.5,-67.65"/>
<polygon fill="black" stroke="black" points="577,-67.22 573.5,-57.22 570,-67.22 577,-67.22"/>
</g>
</g>
</svg>
