<?xml version="1.0" encoding="UTF-8" standalone="no"?>
<!DOCTYPE svg PUBLIC "-//W3C//DTD SVG 1.1//EN"
 "http://www.w3.org/Graphics/SVG/1.1/DTD/svg11.dtd">
<!-- Generated by graphviz version 2.49.0 (20210828.1703)
 -->
<!-- Pages: 1 -->
<svg width="1133pt" height="566pt"
 viewBox="0.00 0.00 1133.00 566.00" xmlns="http://www.w3.org/2000/svg" xmlns:xlink="http://www.w3.org/1999/xlink">
<g id="graph0" class="graph" transform="scale(1 1) rotate(0) translate(4 562)">
<polygon fill="white" stroke="transparent" points="-4,4 -4,-562 1129,-562 1129,4 -4,4"/>
<!-- mediusL -->
<g id="node1" class="node">
<title>mediusL</title>
<g id="a_node1"><a xlink:href="medhyo-middle1.svg" xlink:title="&lt;b&gt;Latin&lt;/b&gt;&lt;br/&gt;&lt;font color=&quot;red&quot;&gt;medius&lt;/font&gt;">
<path fill="none" stroke="black" stroke-dasharray="5,2" d="M490.5,-558C490.5,-558 458.5,-558 458.5,-558 452.5,-558 446.5,-552 446.5,-546 446.5,-546 446.5,-534 446.5,-534 446.5,-528 452.5,-522 458.5,-522 458.5,-522 490.5,-522 490.5,-522 496.5,-522 502.5,-528 502.5,-534 502.5,-534 502.5,-546 502.5,-546 502.5,-552 496.5,-558 490.5,-558"/>
<text text-anchor="start" x="458" y="-543.8" font-family="Times New Roman,serif" font-weight="bold" font-size="14.00">Latin</text>
<text text-anchor="start" x="454.5" y="-529.8" font-family="Times New Roman,serif" font-size="14.00" fill="red">medius</text>
</a>
</g>
</g>
<!-- medialisL -->
<g id="node2" class="node">
<title>medialisL</title>
<text text-anchor="start" x="9.5" y="-292.3" font-family="Times New Roman,serif" font-size="14.00" fill="red">mediālis</text>
</g>
<!-- mediusL&#45;&gt;medialisL -->
<g id="edge1" class="edge">
<title>mediusL&#45;&gt;medialisL</title>
<path fill="none" stroke="black" d="M446.43,-538.49C397.14,-536.49 293.07,-527.26 217.5,-486 142.6,-445.11 78.94,-363.97 49.68,-322.58"/>
<polygon fill="black" stroke="black" points="52.39,-320.35 43.81,-314.14 46.65,-324.35 52.39,-320.35"/>
</g>
<!-- mediareL -->
<g id="node3" class="node">
<title>mediareL</title>
<text text-anchor="start" x="107.5" y="-305.8" font-family="Times New Roman,serif" font-size="14.00" fill="red">mediāre,</text>
<text text-anchor="start" x="110.5" y="-291.8" font-family="Times New Roman,serif" font-size="14.00" fill="red">mediāt&#45;</text>
<text text-anchor="start" x="89.5" y="-279.4" font-family="Times New Roman,serif" font-size="12.00">to be in the middle</text>
</g>
<!-- mediusL&#45;&gt;mediareL -->
<g id="edge2" class="edge">
<title>mediusL&#45;&gt;mediareL</title>
<path fill="none" stroke="black" d="M446.31,-537.44C404.93,-533.93 326.76,-522.58 272.5,-486 212.86,-445.79 168.66,-371.74 146.81,-329.24"/>
<polygon fill="black" stroke="black" points="149.86,-327.53 142.24,-320.17 143.61,-330.68 149.86,-327.53"/>
</g>
<!-- mediumL -->
<g id="node4" class="node">
<title>mediumL</title>
<text text-anchor="start" x="208" y="-299.8" font-family="Times New Roman,serif" font-size="14.00" fill="red">medium,</text>
<text text-anchor="start" x="215.5" y="-284.8" font-family="Times New Roman,serif" font-size="14.00" fill="red">media</text>
</g>
<!-- mediusL&#45;&gt;mediumL -->
<g id="edge3" class="edge">
<title>mediusL&#45;&gt;mediumL</title>
<path fill="none" stroke="black" d="M446.45,-536.94C410.84,-532.9 349.46,-520.99 311.5,-486 264.23,-442.43 244.33,-366.16 236.71,-325.09"/>
<polygon fill="black" stroke="black" points="240.15,-324.46 234.99,-315.21 233.26,-325.66 240.15,-324.46"/>
</g>
<!-- medieiL -->
<g id="node5" class="node">
<title>medieiL</title>
<text text-anchor="start" x="329" y="-458.3" font-family="Times New Roman,serif" font-size="14.00" fill="red">mediei</text>
</g>
<!-- mediusL&#45;&gt;medieiL -->
<g id="edge4" class="edge">
<title>mediusL&#45;&gt;medieiL</title>
<path fill="none" stroke="black" d="M446.45,-523.06C428.36,-512.69 404.41,-498.76 383.5,-486 383.31,-485.88 383.12,-485.77 382.93,-485.65"/>
<polygon fill="black" stroke="black" points="384.5,-482.51 374.16,-480.2 380.81,-488.45 384.5,-482.51"/>
</g>
<!-- mediocrisL -->
<g id="node6" class="node">
<title>mediocrisL</title>
<text text-anchor="start" x="460" y="-292.3" font-family="Times New Roman,serif" font-size="14.00" fill="red">mediocris</text>
</g>
<!-- mediusL&#45;&gt;mediocrisL -->
<g id="edge5" class="edge">
<title>mediusL&#45;&gt;mediocrisL</title>
<path fill="none" stroke="black" d="M475.41,-521.98C477.63,-480.69 483.32,-374.86 486.02,-324.47"/>
<polygon fill="black" stroke="black" points="489.53,-324.5 486.57,-314.32 482.54,-324.12 489.53,-324.5"/>
</g>
<!-- mediterraneusL -->
<g id="node7" class="node">
<title>mediterraneusL</title>
<text text-anchor="start" x="550.5" y="-298.8" font-family="Times New Roman,serif" font-size="14.00" fill="red">mediterrāneus</text>
<text text-anchor="start" x="576" y="-286.4" font-family="Times New Roman,serif" font-size="12.00">inland</text>
</g>
<!-- mediusL&#45;&gt;mediterraneusL -->
<g id="edge6" class="edge">
<title>mediusL&#45;&gt;mediterraneusL</title>
<path fill="none" stroke="black" d="M489.8,-521.77C510.89,-497.06 548.54,-449.3 568.5,-402 579.07,-376.95 584.42,-346.24 587.06,-324.52"/>
<polygon fill="black" stroke="black" points="590.57,-324.68 588.18,-314.35 583.61,-323.91 590.57,-324.68"/>
</g>
<!-- mediatusL -->
<g id="node8" class="node">
<title>mediatusL</title>
<text text-anchor="start" x="673.5" y="-292.3" font-family="Times New Roman,serif" font-size="14.00" fill="red">mediātus</text>
</g>
<!-- mediusL&#45;&gt;mediatusL -->
<g id="edge7" class="edge">
<title>mediusL&#45;&gt;mediatusL</title>
<path fill="none" stroke="black" d="M502.67,-528.66C547.88,-510.51 635.96,-468.41 679.5,-402 694.69,-378.83 698.62,-346.91 699.26,-324.36"/>
<polygon fill="black" stroke="black" points="702.76,-324.15 699.34,-314.12 695.76,-324.09 702.76,-324.15"/>
</g>
<!-- medianusL -->
<g id="node9" class="node">
<title>medianusL</title>
<text text-anchor="start" x="758" y="-292.3" font-family="Times New Roman,serif" font-size="14.00" fill="red">mediānus</text>
</g>
<!-- mediusL&#45;&gt;medianusL -->
<g id="edge8" class="edge">
<title>mediusL&#45;&gt;medianusL</title>
<path fill="none" stroke="black" d="M502.77,-534.51C536.33,-528.12 592.86,-513.95 633.5,-486 697.23,-442.17 747.41,-363.6 770.55,-322.95"/>
<polygon fill="black" stroke="black" points="773.64,-324.61 775.46,-314.17 767.53,-321.19 773.64,-324.61"/>
</g>
<!-- intermediusL -->
<g id="node23" class="node">
<title>intermediusL</title>
<text text-anchor="start" x="946.5" y="-375.3" font-family="Times New Roman,serif" font-size="14.00" fill="red">intermedius</text>
</g>
<!-- mediusL&#45;&gt;intermediusL -->
<g id="edge21" class="edge">
<title>mediusL&#45;&gt;intermediusL</title>
<path fill="none" stroke="black" d="M502.5,-536.91C556.41,-532.26 677.83,-518.79 774.5,-486 836.79,-464.87 903.41,-427.02 942.98,-402.73"/>
<polygon fill="black" stroke="black" points="945.31,-405.41 951.96,-397.17 941.62,-399.46 945.31,-405.41"/>
</g>
<!-- medialE -->
<g id="node11" class="node">
<title>medialE</title>
<text text-anchor="start" x="8" y="-42.8" font-family="Times New Roman,serif" font-weight="bold" font-size="14.00">Modern</text>
<text text-anchor="start" x="9.5" y="-28.8" font-family="Times New Roman,serif" font-weight="bold" font-size="14.00">English</text>
<text text-anchor="start" x="14" y="-14.8" font-family="Times New Roman,serif" font-size="14.00" fill="red">medial</text>
</g>
<!-- medialisL&#45;&gt;medialE -->
<g id="edge10" class="edge">
<title>medialisL&#45;&gt;medialE</title>
<path fill="none" stroke="black" stroke-dasharray="5,2" d="M32.5,-277.81C32.5,-235.24 32.5,-124.29 32.5,-67.53"/>
<polygon fill="black" stroke="black" points="36,-67.27 32.5,-57.27 29,-67.27 36,-67.27"/>
</g>
<!-- mediate -->
<g id="node13" class="node">
<title>mediate</title>
<text text-anchor="start" x="98" y="-42.8" font-family="Times New Roman,serif" font-weight="bold" font-size="14.00">Modern</text>
<text text-anchor="start" x="99.5" y="-28.8" font-family="Times New Roman,serif" font-weight="bold" font-size="14.00">English</text>
<text text-anchor="start" x="101" y="-14.8" font-family="Times New Roman,serif" font-size="14.00" fill="red">mediate</text>
</g>
<!-- mediareL&#45;&gt;mediate -->
<g id="edge12" class="edge">
<title>mediareL&#45;&gt;mediate</title>
<path fill="none" stroke="black" stroke-dasharray="5,2" d="M130.7,-271.75C129.11,-225.49 125.55,-121.72 123.68,-67.49"/>
<polygon fill="black" stroke="black" points="127.18,-67.21 123.34,-57.34 120.18,-67.45 127.18,-67.21"/>
</g>
<!-- medium -->
<g id="node10" class="node">
<title>medium</title>
<text text-anchor="start" x="181" y="-49.8" font-family="Times New Roman,serif" font-weight="bold" font-size="14.00">Modern</text>
<text text-anchor="start" x="182.5" y="-35.8" font-family="Times New Roman,serif" font-weight="bold" font-size="14.00">English</text>
<text text-anchor="start" x="183" y="-21.8" font-family="Times New Roman,serif" font-size="14.00" fill="red">medium</text>
<text text-anchor="start" x="188.5" y="-7.8" font-family="Times New Roman,serif" font-size="14.00" fill="red">media</text>
</g>
<!-- mediumL&#45;&gt;medium -->
<g id="edge9" class="edge">
<title>mediumL&#45;&gt;medium</title>
<path fill="none" stroke="black" stroke-dasharray="5,2" d="M229.86,-276.95C228.19,-265.28 226.08,-249.76 224.5,-236 218.11,-180.19 212.34,-115.57 208.88,-74.51"/>
<polygon fill="black" stroke="black" points="212.35,-74.01 208.03,-64.34 205.37,-74.6 212.35,-74.01"/>
</g>
<!-- mediumaevum -->
<g id="node15" class="node">
<title>mediumaevum</title>
<text text-anchor="start" x="252.5" y="-214.8" font-family="Times New Roman,serif" font-weight="bold" font-size="14.00">New Latin</text>
<text text-anchor="start" x="242" y="-200.8" font-family="Times New Roman,serif" font-size="14.00" fill="red">medium aevum</text>
</g>
<!-- mediumL&#45;&gt;mediumaevum -->
<g id="edge13" class="edge">
<title>mediumL&#45;&gt;mediumaevum</title>
<path fill="none" stroke="black" d="M243.78,-276.99C250.95,-265.56 260.33,-250.58 268.29,-237.88"/>
<polygon fill="black" stroke="black" points="271.43,-239.46 273.77,-229.12 265.5,-235.74 271.43,-239.46"/>
</g>
<!-- meridieL -->
<g id="node36" class="node">
<title>meridieL</title>
<text text-anchor="start" x="347" y="-382.8" font-family="Times New Roman,serif" font-size="14.00" fill="red">merīdiē </text>
<text text-anchor="start" x="393" y="-382.8" font-family="Times New Roman,serif" font-size="12.00">at midday</text>
<text text-anchor="start" x="349.5" y="-368.8" font-family="Times New Roman,serif" font-size="14.00" fill="red">merīdiēs </text>
<text text-anchor="start" x="401.5" y="-368.8" font-family="Times New Roman,serif" font-size="12.00">midday</text>
</g>
<!-- medieiL&#45;&gt;meridieL -->
<g id="edge34" class="edge">
<title>medieiL&#45;&gt;meridieL</title>
<path fill="none" stroke="black" d="M357.04,-443.82C363.13,-432.87 371.13,-418.46 378,-406.11"/>
<polygon fill="black" stroke="black" points="381.17,-407.59 382.97,-397.15 375.05,-404.2 381.17,-407.59"/>
</g>
<!-- mediocreF -->
<g id="node18" class="node">
<title>mediocreF</title>
<text text-anchor="start" x="459.5" y="-128.8" font-family="Times New Roman,serif" font-weight="bold" font-size="14.00">French</text>
<text text-anchor="start" x="455.5" y="-114.8" font-family="Times New Roman,serif" font-size="14.00" fill="red">médiocre</text>
</g>
<!-- mediocrisL&#45;&gt;mediocreF -->
<g id="edge17" class="edge">
<title>mediocrisL&#45;&gt;mediocreF</title>
<path fill="none" stroke="black" d="M486.89,-277.87C485.85,-248.51 483.71,-188.38 482.47,-153.23"/>
<polygon fill="black" stroke="black" points="485.96,-153.05 482.11,-143.18 478.97,-153.3 485.96,-153.05"/>
</g>
<!-- mediterranean -->
<g id="node21" class="node">
<title>mediterranean</title>
<text text-anchor="start" x="565" y="-49.8" font-family="Times New Roman,serif" font-weight="bold" font-size="14.00">Modern</text>
<text text-anchor="start" x="566.5" y="-35.8" font-family="Times New Roman,serif" font-weight="bold" font-size="14.00">English</text>
<text text-anchor="start" x="550.5" y="-21.8" font-family="Times New Roman,serif" font-size="14.00" fill="red">mediterranean</text>
<text text-anchor="start" x="538" y="-7.8" font-family="Times New Roman,serif" font-size="14.00" fill="red">Mediterranean Sea</text>
</g>
<!-- mediterraneusL&#45;&gt;mediterranean -->
<g id="edge20" class="edge">
<title>mediterraneusL&#45;&gt;mediterranean</title>
<path fill="none" stroke="black" stroke-dasharray="5,2" d="M589.5,-277.81C589.5,-236.89 589.5,-132.78 589.5,-74.36"/>
<polygon fill="black" stroke="black" points="593,-74.36 589.5,-64.36 586,-74.36 593,-74.36"/>
</g>
<!-- meitietOF -->
<g id="node29" class="node">
<title>meitietOF</title>
<text text-anchor="start" x="663.5" y="-221.8" font-family="Times New Roman,serif" font-weight="bold" font-size="14.00">Old French</text>
<text text-anchor="start" x="680" y="-207.8" font-family="Times New Roman,serif" font-size="14.00" fill="red">meitiet</text>
<text text-anchor="start" x="681.5" y="-193.8" font-family="Times New Roman,serif" font-size="14.00" fill="red">moitie</text>
</g>
<!-- mediatusL&#45;&gt;meitietOF -->
<g id="edge28" class="edge">
<title>mediatusL&#45;&gt;meitietOF</title>
<path fill="none" stroke="black" d="M698.5,-277.8C698.5,-268.66 698.5,-257.09 698.5,-246.22"/>
<polygon fill="black" stroke="black" points="702,-246.1 698.5,-236.1 695,-246.1 702,-246.1"/>
</g>
<!-- median -->
<g id="node12" class="node">
<title>median</title>
<text text-anchor="start" x="758" y="-42.8" font-family="Times New Roman,serif" font-weight="bold" font-size="14.00">Modern</text>
<text text-anchor="start" x="759.5" y="-28.8" font-family="Times New Roman,serif" font-weight="bold" font-size="14.00">English</text>
<text text-anchor="start" x="762.5" y="-14.8" font-family="Times New Roman,serif" font-size="14.00" fill="red">median</text>
</g>
<!-- medianusL&#45;&gt;median -->
<g id="edge11" class="edge">
<title>medianusL&#45;&gt;median</title>
<path fill="none" stroke="black" stroke-dasharray="5,2" d="M784.37,-277.81C784.04,-235.24 783.2,-124.29 782.76,-67.53"/>
<polygon fill="black" stroke="black" points="786.26,-67.24 782.69,-57.27 779.26,-67.29 786.26,-67.24"/>
</g>
<!-- meienOF -->
<g id="node32" class="node">
<title>meienOF</title>
<text text-anchor="start" x="839" y="-221.8" font-family="Times New Roman,serif" font-weight="bold" font-size="14.00">Old</text>
<text text-anchor="start" x="828.5" y="-207.8" font-family="Times New Roman,serif" font-weight="bold" font-size="14.00">French</text>
<text text-anchor="start" x="834" y="-193.8" font-family="Times New Roman,serif" font-size="14.00" fill="red">meien</text>
</g>
<!-- medianusL&#45;&gt;meienOF -->
<g id="edge31" class="edge">
<title>medianusL&#45;&gt;meienOF</title>
<path fill="none" stroke="black" d="M798.18,-277.8C805.89,-268.1 815.79,-255.65 824.89,-244.21"/>
<polygon fill="black" stroke="black" points="827.85,-246.1 831.34,-236.1 822.37,-241.75 827.85,-246.1"/>
</g>
<!-- aevum -->
<g id="node14" class="node">
<title>aevum</title>
<g id="a_node14"><a xlink:href="aiw-life2.svg" xlink:title="&lt;font color=&quot;red&quot;&gt;aevum&lt;/font&gt;&lt;br/&gt;&lt;font point&#45;size=&quot;12&quot;&gt;age&lt;/font&gt;">
<path fill="none" stroke="black" stroke-dasharray="5,2" d="M325.5,-314C325.5,-314 295.5,-314 295.5,-314 289.5,-314 283.5,-308 283.5,-302 283.5,-302 283.5,-290 283.5,-290 283.5,-284 289.5,-278 295.5,-278 295.5,-278 325.5,-278 325.5,-278 331.5,-278 337.5,-284 337.5,-290 337.5,-290 337.5,-302 337.5,-302 337.5,-308 331.5,-314 325.5,-314"/>
<text text-anchor="start" x="292" y="-298.8" font-family="Times New Roman,serif" font-size="14.00" fill="red">aevum</text>
<text text-anchor="start" x="302.5" y="-286.4" font-family="Times New Roman,serif" font-size="12.00">age</text>
</a>
</g>
</g>
<!-- aevum&#45;&gt;mediumaevum -->
<g id="edge14" class="edge">
<title>aevum&#45;&gt;mediumaevum</title>
<path fill="none" stroke="black" d="M305.11,-277.8C301.59,-266.56 296.92,-251.65 292.92,-238.86"/>
<polygon fill="black" stroke="black" points="296.21,-237.67 289.88,-229.18 289.53,-239.76 296.21,-237.67"/>
</g>
<!-- medieval -->
<g id="node16" class="node">
<title>medieval</title>
<text text-anchor="start" x="269" y="-49.8" font-family="Times New Roman,serif" font-weight="bold" font-size="14.00">Modern</text>
<text text-anchor="start" x="270.5" y="-35.8" font-family="Times New Roman,serif" font-weight="bold" font-size="14.00">English</text>
<text text-anchor="start" x="264" y="-21.8" font-family="Times New Roman,serif" font-size="14.00" fill="red">mediaeval,</text>
<text text-anchor="start" x="269" y="-7.8" font-family="Times New Roman,serif" font-size="14.00" fill="red">medieval</text>
</g>
<!-- mediumaevum&#45;&gt;medieval -->
<g id="edge15" class="edge">
<title>mediumaevum&#45;&gt;medieval</title>
<path fill="none" stroke="black" stroke-dasharray="5,2" d="M285.38,-192.71C286.76,-165.51 289.48,-111.99 291.39,-74.43"/>
<polygon fill="black" stroke="black" points="294.9,-74.45 291.91,-64.29 287.91,-74.1 294.9,-74.45"/>
</g>
<!-- ocris -->
<g id="node17" class="node">
<title>ocris</title>
<g id="a_node17"><a xlink:href="ak-sharp.svg" xlink:title="&lt;font color=&quot;red&quot;&gt;ocris&lt;/font&gt;&lt;br/&gt;&lt;font point&#45;size=&quot;12&quot;&gt;a rugged&lt;br/&gt;mountain&lt;/font&gt;">
<path fill="none" stroke="black" stroke-dasharray="5,2" d="M548,-402C548,-402 515,-402 515,-402 509,-402 503,-396 503,-390 503,-390 503,-368 503,-368 503,-362 509,-356 515,-356 515,-356 548,-356 548,-356 554,-356 560,-362 560,-368 560,-368 560,-390 560,-390 560,-396 554,-402 548,-402"/>
<text text-anchor="start" x="517.5" y="-387.8" font-family="Times New Roman,serif" font-size="14.00" fill="red">ocris</text>
<text text-anchor="start" x="511.5" y="-375.4" font-family="Times New Roman,serif" font-size="12.00">a rugged</text>
<text text-anchor="start" x="511" y="-363.4" font-family="Times New Roman,serif" font-size="12.00">mountain</text>
</a>
</g>
</g>
<!-- ocris&#45;&gt;mediocrisL -->
<g id="edge16" class="edge">
<title>ocris&#45;&gt;mediocrisL</title>
<path fill="none" stroke="black" d="M519.48,-355.87C513.97,-345.72 507.4,-333.63 501.65,-323.05"/>
<polygon fill="black" stroke="black" points="504.71,-321.34 496.86,-314.23 498.56,-324.69 504.71,-321.34"/>
</g>
<!-- mediocre -->
<g id="node19" class="node">
<title>mediocre</title>
<text text-anchor="start" x="453" y="-42.8" font-family="Times New Roman,serif" font-weight="bold" font-size="14.00">Modern</text>
<text text-anchor="start" x="454.5" y="-28.8" font-family="Times New Roman,serif" font-weight="bold" font-size="14.00">English</text>
<text text-anchor="start" x="451.5" y="-14.8" font-family="Times New Roman,serif" font-size="14.00" fill="red">mediocre</text>
</g>
<!-- mediocreF&#45;&gt;mediocre -->
<g id="edge18" class="edge">
<title>mediocreF&#45;&gt;mediocre</title>
<path fill="none" stroke="black" stroke-dasharray="5,2" d="M480.75,-106.88C480.26,-95.83 479.61,-81.06 479.02,-67.64"/>
<polygon fill="black" stroke="black" points="482.5,-67.09 478.57,-57.25 475.51,-67.4 482.5,-67.09"/>
</g>
<!-- terra -->
<g id="node20" class="node">
<title>terra</title>
<g id="a_node20"><a xlink:href="ters-dry.svg" xlink:title="&lt;font color=&quot;red&quot;&gt;terra&lt;/font&gt;&lt;br/&gt;&lt;font point&#45;size=&quot;12&quot;&gt;land&lt;/font&gt;">
<path fill="none" stroke="black" stroke-dasharray="5,2" d="M658.5,-397C658.5,-397 628.5,-397 628.5,-397 622.5,-397 616.5,-391 616.5,-385 616.5,-385 616.5,-373 616.5,-373 616.5,-367 622.5,-361 628.5,-361 628.5,-361 658.5,-361 658.5,-361 664.5,-361 670.5,-367 670.5,-373 670.5,-373 670.5,-385 670.5,-385 670.5,-391 664.5,-397 658.5,-397"/>
<text text-anchor="start" x="631" y="-381.8" font-family="Times New Roman,serif" font-size="14.00" fill="red">terra</text>
<text text-anchor="start" x="634" y="-369.4" font-family="Times New Roman,serif" font-size="12.00">land</text>
</a>
</g>
</g>
<!-- terra&#45;&gt;mediterraneusL -->
<g id="edge19" class="edge">
<title>terra&#45;&gt;mediterraneusL</title>
<path fill="none" stroke="black" d="M632.05,-360.82C624.67,-349.76 614.95,-335.18 606.66,-322.75"/>
<polygon fill="black" stroke="black" points="609.39,-320.53 600.94,-314.15 603.57,-324.42 609.39,-320.53"/>
</g>
<!-- inter -->
<g id="node22" class="node">
<title>inter</title>
<g id="a_node22"><a xlink:href="en-in3.svg" xlink:title="&lt;font color=&quot;red&quot;&gt;inter&#45;&lt;/font&gt;&lt;br/&gt;&lt;font point&#45;size=&quot;12&quot;&gt;between&lt;/font&gt; ">
<path fill="none" stroke="black" stroke-dasharray="5,2" d="M996,-480C996,-480 961,-480 961,-480 955,-480 949,-474 949,-468 949,-468 949,-456 949,-456 949,-450 955,-444 961,-444 961,-444 996,-444 996,-444 1002,-444 1008,-450 1008,-456 1008,-456 1008,-468 1008,-468 1008,-474 1002,-480 996,-480"/>
<text text-anchor="start" x="964" y="-465.8" font-family="Times New Roman,serif" font-size="14.00" fill="red">inter&#45;</text>
<text text-anchor="start" x="957" y="-451.8" font-family="Times New Roman,serif" font-size="12.00">between</text>
<text text-anchor="start" x="996" y="-451.8" font-family="Times New Roman,serif" font-size="14.00"> </text>
</a>
</g>
</g>
<!-- inter&#45;&gt;intermediusL -->
<g id="edge22" class="edge">
<title>inter&#45;&gt;intermediusL</title>
<path fill="none" stroke="black" d="M978.5,-443.82C978.5,-433.19 978.5,-419.31 978.5,-407.2"/>
<polygon fill="black" stroke="black" points="982,-407.15 978.5,-397.15 975,-407.15 982,-407.15"/>
</g>
<!-- intermediatusL -->
<g id="node24" class="node">
<title>intermediatusL</title>
<text text-anchor="start" x="941.5" y="-292.3" font-family="Times New Roman,serif" font-size="14.00" fill="red">intermediātus</text>
</g>
<!-- intermediusL&#45;&gt;intermediatusL -->
<g id="edge23" class="edge">
<title>intermediusL&#45;&gt;intermediatusL</title>
<path fill="none" stroke="black" d="M978.5,-360.82C978.5,-350.19 978.5,-336.31 978.5,-324.2"/>
<polygon fill="black" stroke="black" points="982,-324.15 978.5,-314.15 975,-324.15 982,-324.15"/>
</g>
<!-- intermediaireF -->
<g id="node25" class="node">
<title>intermediaireF</title>
<text text-anchor="start" x="1059.5" y="-128.8" font-family="Times New Roman,serif" font-weight="bold" font-size="14.00">French</text>
<text text-anchor="start" x="1046" y="-114.8" font-family="Times New Roman,serif" font-size="14.00" fill="red">intermédiaire</text>
</g>
<!-- intermediusL&#45;&gt;intermediaireF -->
<g id="edge24" class="edge">
<title>intermediusL&#45;&gt;intermediaireF</title>
<path fill="none" stroke="black" d="M998.92,-360.85C1010.37,-350.19 1024.01,-335.59 1032.5,-320 1062.26,-265.34 1074.36,-192.17 1078.95,-153.17"/>
<polygon fill="black" stroke="black" points="1082.44,-153.44 1080.05,-143.12 1075.48,-152.68 1082.44,-153.44"/>
</g>
<!-- intermediateME -->
<g id="node26" class="node">
<title>intermediateME</title>
<text text-anchor="start" x="957" y="-135.8" font-family="Times New Roman,serif" font-weight="bold" font-size="14.00">Middle</text>
<text text-anchor="start" x="955.5" y="-121.8" font-family="Times New Roman,serif" font-weight="bold" font-size="14.00">English</text>
<text text-anchor="start" x="945" y="-107.8" font-family="Times New Roman,serif" font-size="14.00" fill="red">intermediate</text>
</g>
<!-- intermediatusL&#45;&gt;intermediateME -->
<g id="edge25" class="edge">
<title>intermediatusL&#45;&gt;intermediateME</title>
<path fill="none" stroke="black" stroke-dasharray="5,2" d="M978.5,-277.87C978.5,-250.49 978.5,-196.34 978.5,-160.65"/>
<polygon fill="black" stroke="black" points="982,-160.22 978.5,-150.22 975,-160.22 982,-160.22"/>
</g>
<!-- intermediary -->
<g id="node28" class="node">
<title>intermediary</title>
<text text-anchor="start" x="1057" y="-42.8" font-family="Times New Roman,serif" font-weight="bold" font-size="14.00">Modern</text>
<text text-anchor="start" x="1058.5" y="-28.8" font-family="Times New Roman,serif" font-weight="bold" font-size="14.00">English</text>
<text text-anchor="start" x="1047" y="-14.8" font-family="Times New Roman,serif" font-size="14.00" fill="red">intermediary</text>
</g>
<!-- intermediaireF&#45;&gt;intermediary -->
<g id="edge27" class="edge">
<title>intermediaireF&#45;&gt;intermediary</title>
<path fill="none" stroke="black" stroke-dasharray="5,2" d="M1081.5,-106.88C1081.5,-95.83 1081.5,-81.06 1081.5,-67.64"/>
<polygon fill="black" stroke="black" points="1085,-67.25 1081.5,-57.25 1078,-67.25 1085,-67.25"/>
</g>
<!-- intermediate -->
<g id="node27" class="node">
<title>intermediate</title>
<text text-anchor="start" x="955" y="-42.8" font-family="Times New Roman,serif" font-weight="bold" font-size="14.00">Modern</text>
<text text-anchor="start" x="956.5" y="-28.8" font-family="Times New Roman,serif" font-weight="bold" font-size="14.00">English</text>
<text text-anchor="start" x="946" y="-14.8" font-family="Times New Roman,serif" font-size="14.00" fill="red">intermediate</text>
</g>
<!-- intermediateME&#45;&gt;intermediate -->
<g id="edge26" class="edge">
<title>intermediateME&#45;&gt;intermediate</title>
<path fill="none" stroke="black" d="M978.77,-99.61C978.88,-89.74 979,-78.17 979.12,-67.46"/>
<polygon fill="black" stroke="black" points="982.62,-67.18 979.23,-57.14 975.62,-67.1 982.62,-67.18"/>
</g>
<!-- moiteME -->
<g id="node30" class="node">
<title>moiteME</title>
<text text-anchor="start" x="678" y="-135.8" font-family="Times New Roman,serif" font-weight="bold" font-size="14.00">Middle</text>
<text text-anchor="start" x="676.5" y="-121.8" font-family="Times New Roman,serif" font-weight="bold" font-size="14.00">English</text>
<text text-anchor="start" x="684" y="-107.8" font-family="Times New Roman,serif" font-size="14.00" fill="red">moite</text>
</g>
<!-- meitietOF&#45;&gt;moiteME -->
<g id="edge29" class="edge">
<title>meitietOF&#45;&gt;moiteME</title>
<path fill="none" stroke="black" stroke-dasharray="5,2" d="M698.79,-185.7C698.88,-177.78 698.99,-168.83 699.09,-160.31"/>
<polygon fill="black" stroke="black" points="702.59,-160.28 699.21,-150.24 695.59,-160.2 702.59,-160.28"/>
</g>
<!-- moiety -->
<g id="node31" class="node">
<title>moiety</title>
<text text-anchor="start" x="675" y="-42.8" font-family="Times New Roman,serif" font-weight="bold" font-size="14.00">Modern</text>
<text text-anchor="start" x="676.5" y="-28.8" font-family="Times New Roman,serif" font-weight="bold" font-size="14.00">English</text>
<text text-anchor="start" x="680.5" y="-14.8" font-family="Times New Roman,serif" font-size="14.00" fill="red">moiety</text>
</g>
<!-- moiteME&#45;&gt;moiety -->
<g id="edge30" class="edge">
<title>moiteME&#45;&gt;moiety</title>
<path fill="none" stroke="black" d="M699.5,-99.61C699.5,-89.74 699.5,-78.17 699.5,-67.46"/>
<polygon fill="black" stroke="black" points="703,-67.14 699.5,-57.14 696,-67.14 703,-67.14"/>
</g>
<!-- meneME -->
<g id="node33" class="node">
<title>meneME</title>
<text text-anchor="start" x="838" y="-135.8" font-family="Times New Roman,serif" font-weight="bold" font-size="14.00">Middle</text>
<text text-anchor="start" x="836.5" y="-121.8" font-family="Times New Roman,serif" font-weight="bold" font-size="14.00">English</text>
<text text-anchor="start" x="844.5" y="-107.8" font-family="Times New Roman,serif" font-size="14.00" fill="red">mene</text>
</g>
<!-- meienOF&#45;&gt;meneME -->
<g id="edge32" class="edge">
<title>meienOF&#45;&gt;meneME</title>
<path fill="none" stroke="black" stroke-dasharray="5,2" d="M853.1,-185.7C853.95,-177.78 854.91,-168.83 855.82,-160.31"/>
<polygon fill="black" stroke="black" points="859.32,-160.56 856.9,-150.24 852.36,-159.81 859.32,-160.56"/>
</g>
<!-- mean -->
<g id="node34" class="node">
<title>mean</title>
<text text-anchor="start" x="852" y="-49.8" font-family="Times New Roman,serif" font-weight="bold" font-size="14.00">Modern</text>
<text text-anchor="start" x="853.5" y="-35.8" font-family="Times New Roman,serif" font-weight="bold" font-size="14.00">English</text>
<text text-anchor="start" x="841" y="-21.8" font-family="Times New Roman,serif" font-size="14.00" fill="red">mean </text>
<text text-anchor="start" x="875" y="-21.8" font-family="Times New Roman,serif" font-size="14.00">(math)</text>
<text text-anchor="start" x="858.5" y="-7.8" font-family="Times New Roman,serif" font-size="14.00" fill="red">means</text>
</g>
<!-- meneME&#45;&gt;mean -->
<g id="edge33" class="edge">
<title>meneME&#45;&gt;mean</title>
<path fill="none" stroke="black" d="M864.06,-99.61C865.51,-91.82 867.17,-82.96 868.78,-74.31"/>
<polygon fill="black" stroke="black" points="872.25,-74.79 870.65,-64.32 865.37,-73.51 872.25,-74.79"/>
</g>
<!-- dieL -->
<g id="node35" class="node">
<title>dieL</title>
<g id="a_node35"><a xlink:href="deiwos-god.svg" xlink:title="&lt;font color=&quot;red&quot;&gt;diēs&lt;/font&gt;&lt;br/&gt;&lt;font point&#45;size=&quot;12&quot;&gt;day&lt;/font&gt;&lt;br/&gt;&lt;font color=&quot;red&quot;&gt;diē&lt;/font&gt;">
<path fill="none" stroke="black" stroke-dasharray="5,2" d="M434.5,-486C434.5,-486 404.5,-486 404.5,-486 398.5,-486 392.5,-480 392.5,-474 392.5,-474 392.5,-450 392.5,-450 392.5,-444 398.5,-438 404.5,-438 404.5,-438 434.5,-438 434.5,-438 440.5,-438 446.5,-444 446.5,-450 446.5,-450 446.5,-474 446.5,-474 446.5,-480 440.5,-486 434.5,-486"/>
<text text-anchor="start" x="408" y="-471.8" font-family="Times New Roman,serif" font-size="14.00" fill="red">diēs</text>
<text text-anchor="start" x="411" y="-459.4" font-family="Times New Roman,serif" font-size="12.00">day</text>
<text text-anchor="start" x="411" y="-445.8" font-family="Times New Roman,serif" font-size="14.00" fill="red">diē</text>
</a>
</g>
</g>
<!-- dieL&#45;&gt;meridieL -->
<g id="edge35" class="edge">
<title>dieL&#45;&gt;meridieL</title>
<path fill="none" stroke="black" d="M411.69,-437.57C408.5,-428 404.79,-416.87 401.49,-406.97"/>
<polygon fill="black" stroke="black" points="404.72,-405.58 398.23,-397.2 398.08,-407.79 404.72,-405.58"/>
</g>
<!-- meridianusL -->
<g id="node37" class="node">
<title>meridianusL</title>
<text text-anchor="start" x="363.5" y="-298.8" font-family="Times New Roman,serif" font-size="14.00" fill="red">merīdiānus</text>
<text text-anchor="start" x="371.5" y="-286.4" font-family="Times New Roman,serif" font-size="12.00">of midday</text>
</g>
<!-- meridieL&#45;&gt;meridianusL -->
<g id="edge36" class="edge">
<title>meridieL&#45;&gt;meridianusL</title>
<path fill="none" stroke="black" d="M392.92,-360.82C393.19,-350.19 393.53,-336.31 393.83,-324.2"/>
<polygon fill="black" stroke="black" points="397.33,-324.24 394.08,-314.15 390.33,-324.06 397.33,-324.24"/>
</g>
<!-- meridianOF -->
<g id="node38" class="node">
<title>meridianOF</title>
<text text-anchor="start" x="361.5" y="-214.8" font-family="Times New Roman,serif" font-weight="bold" font-size="14.00">Old French</text>
<text text-anchor="start" x="372.5" y="-200.8" font-family="Times New Roman,serif" font-size="14.00" fill="red">meridian</text>
</g>
<!-- meridianusL&#45;&gt;meridianOF -->
<g id="edge37" class="edge">
<title>meridianusL&#45;&gt;meridianOF</title>
<path fill="none" stroke="black" d="M394.91,-277.8C395.18,-266.67 395.54,-251.94 395.84,-239.24"/>
<polygon fill="black" stroke="black" points="399.34,-239.26 396.09,-229.18 392.35,-239.09 399.34,-239.26"/>
</g>
<!-- meridianME -->
<g id="node39" class="node">
<title>meridianME</title>
<text text-anchor="start" x="374" y="-135.8" font-family="Times New Roman,serif" font-weight="bold" font-size="14.00">Middle</text>
<text text-anchor="start" x="372.5" y="-121.8" font-family="Times New Roman,serif" font-weight="bold" font-size="14.00">English</text>
<text text-anchor="start" x="371.5" y="-107.8" font-family="Times New Roman,serif" font-size="14.00" fill="red">meridian</text>
</g>
<!-- meridianOF&#45;&gt;meridianME -->
<g id="edge38" class="edge">
<title>meridianOF&#45;&gt;meridianME</title>
<path fill="none" stroke="black" stroke-dasharray="5,2" d="M396.29,-192.6C396.18,-183.27 396.04,-171.45 395.91,-160.37"/>
<polygon fill="black" stroke="black" points="399.41,-160.03 395.79,-150.07 392.41,-160.11 399.41,-160.03"/>
</g>
<!-- meridian -->
<g id="node40" class="node">
<title>meridian</title>
<text text-anchor="start" x="368" y="-42.8" font-family="Times New Roman,serif" font-weight="bold" font-size="14.00">Modern</text>
<text text-anchor="start" x="369.5" y="-28.8" font-family="Times New Roman,serif" font-weight="bold" font-size="14.00">English</text>
<text text-anchor="start" x="368.5" y="-14.8" font-family="Times New Roman,serif" font-size="14.00" fill="red">meridian</text>
</g>
<!-- meridianME&#45;&gt;meridian -->
<g id="edge39" class="edge">
<title>meridianME&#45;&gt;meridian</title>
<path fill="none" stroke="black" d="M394.7,-99.61C394.37,-89.74 393.99,-78.17 393.64,-67.46"/>
<polygon fill="black" stroke="black" points="397.12,-67.02 393.3,-57.14 390.13,-67.25 397.12,-67.02"/>
</g>
</g>
</svg>
