<?xml version="1.0" encoding="UTF-8" standalone="no"?>
<!DOCTYPE svg PUBLIC "-//W3C//DTD SVG 1.1//EN"
 "http://www.w3.org/Graphics/SVG/1.1/DTD/svg11.dtd">
<!-- Generated by graphviz version 2.49.0 (20210828.1703)
 -->
<!-- Pages: 1 -->
<svg width="643pt" height="654pt"
 viewBox="0.00 0.00 643.00 654.00" xmlns="http://www.w3.org/2000/svg" xmlns:xlink="http://www.w3.org/1999/xlink">
<g id="graph0" class="graph" transform="scale(1 1) rotate(0) translate(4 650)">
<polygon fill="white" stroke="transparent" points="-4,4 -4,-650 639,-650 639,4 -4,4"/>
<!-- meg -->
<g id="node1" class="node">
<title>meg</title>
<g id="a_node1"><a xlink:href="meg-great0.svg" xlink:title="Indo&#45;European &quot;*meg&#45;&quot; great">
<polygon fill="none" stroke="black" stroke-dasharray="5,2" points="397.5,-646 186.5,-646 186.5,-542 397.5,-542 397.5,-646"/>
<text text-anchor="start" x="214" y="-601.8" font-family="Times New Roman,serif" font-weight="bold" font-size="24.00">Indo&#45;European</text>
<text text-anchor="start" x="232" y="-573.6" font-family="Times New Roman,serif" font-size="18.00" fill="red">*meg&#45;</text>
<text text-anchor="start" x="322" y="-574.2" font-family="Times New Roman,serif" font-size="16.00">great</text>
</a>
</g>
</g>
<!-- megh -->
<g id="node2" class="node">
<title>megh</title>
<text text-anchor="start" x="271" y="-465.3" font-family="Times New Roman,serif" font-size="14.00" fill="red">*megh&#45;</text>
</g>
<!-- meg&#45;&gt;megh -->
<g id="edge1" class="edge">
<title>meg&#45;&gt;megh</title>
<path fill="none" stroke="black" d="M292,-541.91C292,-526.64 292,-510.5 292,-497.38"/>
<polygon fill="black" stroke="black" points="295.5,-497.16 292,-487.16 288.5,-497.16 295.5,-497.16"/>
</g>
<!-- mahaSk -->
<g id="node3" class="node">
<title>mahaSk</title>
<text text-anchor="start" x="266" y="-297.8" font-family="Times New Roman,serif" font-weight="bold" font-size="14.00">Sanskrit</text>
<text text-anchor="start" x="252.5" y="-283.8" font-family="Times New Roman,serif" font-size="14.00" fill="red">mahā&#45;, mahat&#45;</text>
<text text-anchor="start" x="280.5" y="-271.4" font-family="Times New Roman,serif" font-size="12.00">great</text>
</g>
<!-- megh&#45;&gt;mahaSk -->
<g id="edge2" class="edge">
<title>megh&#45;&gt;mahaSk</title>
<path fill="none" stroke="black" d="M292,-450.84C292,-421.32 292,-360.46 292,-322.36"/>
<polygon fill="black" stroke="black" points="295.5,-322.26 292,-312.26 288.5,-322.26 295.5,-322.26"/>
</g>
<!-- mahatmaSk -->
<g id="node5" class="node">
<title>mahatmaSk</title>
<text text-anchor="start" x="9" y="-201.3" font-family="Times New Roman,serif" font-size="14.00" fill="red">mahātmā</text>
</g>
<!-- mahaSk&#45;&gt;mahatmaSk -->
<g id="edge3" class="edge">
<title>mahaSk&#45;&gt;mahatmaSk</title>
<path fill="none" stroke="black" d="M244.24,-276.44C200.54,-266.16 134.43,-249.02 79,-228 78.15,-227.68 77.29,-227.34 76.42,-227"/>
<polygon fill="black" stroke="black" points="77.69,-223.73 67.12,-223.04 74.95,-230.17 77.69,-223.73"/>
</g>
<!-- mahabharatamSk -->
<g id="node7" class="node">
<title>mahabharatamSk</title>
<text text-anchor="start" x="275" y="-131.8" font-family="Times New Roman,serif" font-weight="bold" font-size="14.00">Sanskrit</text>
<text text-anchor="start" x="260" y="-117.8" font-family="Times New Roman,serif" font-size="14.00" fill="red">Mahābhāratam</text>
<text text-anchor="start" x="257" y="-105.4" font-family="Times New Roman,serif" font-size="12.00">great (telling) of the</text>
<text text-anchor="start" x="258.5" y="-93.4" font-family="Times New Roman,serif" font-size="12.00">Bharatas (a family)</text>
</g>
<!-- mahaSk&#45;&gt;mahabharatamSk -->
<g id="edge6" class="edge">
<title>mahaSk&#45;&gt;mahabharatamSk</title>
<path fill="none" stroke="black" d="M293.23,-263.72C294.69,-236.15 297.15,-189.78 298.91,-156.55"/>
<polygon fill="black" stroke="black" points="302.42,-156.43 299.45,-146.26 295.43,-156.06 302.42,-156.43"/>
</g>
<!-- maharajahSk -->
<g id="node11" class="node">
<title>maharajahSk</title>
<text text-anchor="start" x="186" y="-201.3" font-family="Times New Roman,serif" font-size="14.00" fill="red">mahārājaḥ</text>
</g>
<!-- mahaSk&#45;&gt;maharajahSk -->
<g id="edge9" class="edge">
<title>mahaSk&#45;&gt;maharajahSk</title>
<path fill="none" stroke="black" d="M269.44,-263.57C259.45,-253.19 247.69,-240.99 237.58,-230.49"/>
<polygon fill="black" stroke="black" points="240.02,-227.98 230.56,-223.2 234.98,-232.83 240.02,-227.98"/>
</g>
<!-- maharajniSk -->
<g id="node14" class="node">
<title>maharajniSk</title>
<text text-anchor="start" x="96.5" y="-201.3" font-family="Times New Roman,serif" font-size="14.00" fill="red">mahārājñī</text>
</g>
<!-- mahaSk&#45;&gt;maharajniSk -->
<g id="edge13" class="edge">
<title>mahaSk&#45;&gt;maharajniSk</title>
<path fill="none" stroke="black" d="M244.36,-264.25C221.54,-253.33 193.83,-240.03 169,-228 168.69,-227.85 168.38,-227.7 168.07,-227.55"/>
<polygon fill="black" stroke="black" points="169.4,-224.3 158.87,-223.08 166.34,-230.6 169.4,-224.3"/>
</g>
<!-- maharsihSk -->
<g id="node18" class="node">
<title>maharsihSk</title>
<text text-anchor="start" x="357" y="-201.3" font-family="Times New Roman,serif" font-size="14.00" fill="red">mahārṣiḥ</text>
</g>
<!-- mahaSk&#45;&gt;maharsihSk -->
<g id="edge17" class="edge">
<title>mahaSk&#45;&gt;maharsihSk</title>
<path fill="none" stroke="black" d="M318.03,-263.57C329.67,-253.09 343.39,-240.75 355.13,-230.19"/>
<polygon fill="black" stroke="black" points="357.8,-232.49 362.89,-223.2 353.11,-227.29 357.8,-232.49"/>
</g>
<!-- mahayanamSk -->
<g id="node22" class="node">
<title>mahayanamSk</title>
<text text-anchor="start" x="441.5" y="-201.3" font-family="Times New Roman,serif" font-size="14.00" fill="red">Mahāyānam</text>
</g>
<!-- mahaSk&#45;&gt;mahayanamSk -->
<g id="edge21" class="edge">
<title>mahaSk&#45;&gt;mahayanamSk</title>
<path fill="none" stroke="black" d="M339.6,-265.93C366.6,-253.98 400.28,-239.07 427.3,-227.11"/>
<polygon fill="black" stroke="black" points="428.83,-230.26 436.55,-223.02 425.99,-223.86 428.83,-230.26"/>
</g>
<!-- mahamatrahSk -->
<g id="node27" class="node">
<title>mahamatrahSk</title>
<text text-anchor="start" x="546.5" y="-213.8" font-family="Times New Roman,serif" font-size="14.00" fill="red">mahāmātraḥ</text>
<text text-anchor="start" x="543" y="-201.4" font-family="Times New Roman,serif" font-size="12.00">one having great</text>
<text text-anchor="start" x="561" y="-189.4" font-family="Times New Roman,serif" font-size="12.00">measure</text>
</g>
<!-- mahaSk&#45;&gt;mahamatrahSk -->
<g id="edge26" class="edge">
<title>mahaSk&#45;&gt;mahamatrahSk</title>
<path fill="none" stroke="black" d="M339.67,-267.03C342.81,-265.95 345.93,-264.92 349,-264 425.45,-240.97 448.52,-250.92 525,-228 525.1,-227.97 525.2,-227.94 525.3,-227.91"/>
<polygon fill="black" stroke="black" points="526.48,-231.21 534.91,-224.78 524.31,-224.55 526.48,-231.21"/>
</g>
<!-- atmaSk -->
<g id="node4" class="node">
<title>atmaSk</title>
<text text-anchor="start" x="8" y="-297.8" font-family="Times New Roman,serif" font-weight="bold" font-size="14.00">Sanskrit</text>
<text text-anchor="start" x="20.5" y="-283.8" font-family="Times New Roman,serif" font-size="14.00" fill="red">ātmā</text>
<text text-anchor="start" x="13.5" y="-271.4" font-family="Times New Roman,serif" font-size="12.00">life, spirit</text>
</g>
<!-- atmaSk&#45;&gt;mahatmaSk -->
<g id="edge4" class="edge">
<title>atmaSk&#45;&gt;mahatmaSk</title>
<path fill="none" stroke="black" d="M34,-263.57C34,-254.1 34,-243.11 34,-233.28"/>
<polygon fill="black" stroke="black" points="37.5,-233.2 34,-223.2 30.5,-233.2 37.5,-233.2"/>
</g>
<!-- mahatma -->
<g id="node6" class="node">
<title>mahatma</title>
<text text-anchor="start" x="9.5" y="-35.8" font-family="Times New Roman,serif" font-weight="bold" font-size="14.00">Modern</text>
<text text-anchor="start" x="11" y="-21.8" font-family="Times New Roman,serif" font-weight="bold" font-size="14.00">English</text>
<text text-anchor="start" x="9" y="-7.8" font-family="Times New Roman,serif" font-size="14.00" fill="red">mahatma</text>
</g>
<!-- mahatmaSk&#45;&gt;mahatma -->
<g id="edge5" class="edge">
<title>mahatmaSk&#45;&gt;mahatma</title>
<path fill="none" stroke="black" stroke-dasharray="5,2" d="M34,-186.93C34,-157.82 34,-98.04 34,-60.1"/>
<polygon fill="black" stroke="black" points="37.5,-60.03 34,-50.03 30.5,-60.03 37.5,-60.03"/>
</g>
<!-- mahabharata -->
<g id="node8" class="node">
<title>mahabharata</title>
<text text-anchor="start" x="278.5" y="-35.8" font-family="Times New Roman,serif" font-weight="bold" font-size="14.00">Modern</text>
<text text-anchor="start" x="280" y="-21.8" font-family="Times New Roman,serif" font-weight="bold" font-size="14.00">English</text>
<text text-anchor="start" x="267" y="-7.8" font-family="Times New Roman,serif" font-size="14.00" fill="red">Mahabharata</text>
</g>
<!-- mahabharatamSk&#45;&gt;mahabharata -->
<g id="edge7" class="edge">
<title>mahabharatamSk&#45;&gt;mahabharata</title>
<path fill="none" stroke="black" stroke-dasharray="5,2" d="M301.65,-85.86C301.84,-77.73 302.04,-68.82 302.23,-60.42"/>
<polygon fill="black" stroke="black" points="305.73,-60.23 302.46,-50.15 298.73,-60.07 305.73,-60.23"/>
</g>
<!-- regIE -->
<g id="node9" class="node">
<title>regIE</title>
<g id="a_node9"><a xlink:href="reg-straight.svg" xlink:title="&lt;b&gt;Indo&#45;&lt;br/&gt;European&lt;/b&gt;&lt;br/&gt;&lt;font color=&quot;red&quot;&gt;*reg&#45;&lt;/font&gt;&lt;br/&gt;&lt;font point&#45;size=&quot;12&quot;&gt;to move in a&lt;br/&gt;straight line&lt;/font&gt;">
<path fill="none" stroke="black" stroke-dasharray="5,2" d="M193.5,-506C193.5,-506 140.5,-506 140.5,-506 134.5,-506 128.5,-500 128.5,-494 128.5,-494 128.5,-444 128.5,-444 128.5,-438 134.5,-432 140.5,-432 140.5,-432 193.5,-432 193.5,-432 199.5,-432 205.5,-438 205.5,-444 205.5,-444 205.5,-494 205.5,-494 205.5,-500 199.5,-506 193.5,-506"/>
<text text-anchor="start" x="150.5" y="-491.8" font-family="Times New Roman,serif" font-weight="bold" font-size="14.00">Indo&#45;</text>
<text text-anchor="start" x="136.5" y="-477.8" font-family="Times New Roman,serif" font-weight="bold" font-size="14.00">European</text>
<text text-anchor="start" x="152.5" y="-463.8" font-family="Times New Roman,serif" font-size="14.00" fill="red">*reg&#45;</text>
<text text-anchor="start" x="139" y="-451.4" font-family="Times New Roman,serif" font-size="12.00">to move in a</text>
<text text-anchor="start" x="141.5" y="-439.4" font-family="Times New Roman,serif" font-size="12.00">straight line</text>
</a>
</g>
</g>
<!-- rajaSk -->
<g id="node10" class="node">
<title>rajaSk</title>
<text text-anchor="start" x="187" y="-381.8" font-family="Times New Roman,serif" font-weight="bold" font-size="14.00">Sanskrit</text>
<text text-anchor="start" x="186" y="-367.8" font-family="Times New Roman,serif" font-size="14.00" fill="red">rājā, rājaḥ</text>
<text text-anchor="start" x="203.5" y="-355.4" font-family="Times New Roman,serif" font-size="12.00">king</text>
</g>
<!-- regIE&#45;&gt;rajaSk -->
<g id="edge8" class="edge">
<title>regIE&#45;&gt;rajaSk</title>
<path fill="none" stroke="black" d="M184.52,-431.81C188.73,-423.13 193.19,-413.91 197.31,-405.4"/>
<polygon fill="black" stroke="black" points="200.57,-406.7 201.78,-396.18 194.27,-403.65 200.57,-406.7"/>
</g>
<!-- rajniSk -->
<g id="node13" class="node">
<title>rajniSk</title>
<text text-anchor="start" x="99" y="-381.8" font-family="Times New Roman,serif" font-weight="bold" font-size="14.00">Sanskrit</text>
<text text-anchor="start" x="112.5" y="-367.8" font-family="Times New Roman,serif" font-size="14.00" fill="red">rājñī</text>
<text text-anchor="start" x="111" y="-355.4" font-family="Times New Roman,serif" font-size="12.00">queen</text>
</g>
<!-- regIE&#45;&gt;rajniSk -->
<g id="edge12" class="edge">
<title>regIE&#45;&gt;rajniSk</title>
<path fill="none" stroke="black" d="M151,-431.81C147.16,-423.13 143.08,-413.91 139.33,-405.4"/>
<polygon fill="black" stroke="black" points="142.49,-403.91 135.25,-396.18 136.09,-406.74 142.49,-403.91"/>
</g>
<!-- rajaSk&#45;&gt;maharajahSk -->
<g id="edge10" class="edge">
<title>rajaSk&#45;&gt;maharajahSk</title>
<path fill="none" stroke="black" d="M213.14,-347.71C213.32,-317.67 213.64,-265.5 213.83,-233.53"/>
<polygon fill="black" stroke="black" points="217.34,-233.16 213.9,-223.14 210.34,-233.12 217.34,-233.16"/>
</g>
<!-- maharajah -->
<g id="node12" class="node">
<title>maharajah</title>
<text text-anchor="start" x="180.5" y="-35.8" font-family="Times New Roman,serif" font-weight="bold" font-size="14.00">Modern</text>
<text text-anchor="start" x="182" y="-21.8" font-family="Times New Roman,serif" font-weight="bold" font-size="14.00">English</text>
<text text-anchor="start" x="177" y="-7.8" font-family="Times New Roman,serif" font-size="14.00" fill="red">maharajah</text>
</g>
<!-- maharajahSk&#45;&gt;maharajah -->
<g id="edge11" class="edge">
<title>maharajahSk&#45;&gt;maharajah</title>
<path fill="none" stroke="black" stroke-dasharray="5,2" d="M213.14,-186.93C211.67,-157.82 208.64,-98.04 206.72,-60.1"/>
<polygon fill="black" stroke="black" points="210.22,-59.84 206.21,-50.03 203.22,-60.19 210.22,-59.84"/>
</g>
<!-- rajniSk&#45;&gt;maharajniSk -->
<g id="edge14" class="edge">
<title>rajniSk&#45;&gt;maharajniSk</title>
<path fill="none" stroke="black" d="M124.86,-347.71C124.68,-317.67 124.36,-265.5 124.17,-233.53"/>
<polygon fill="black" stroke="black" points="127.66,-233.12 124.1,-223.14 120.66,-233.16 127.66,-233.12"/>
</g>
<!-- maharaniH -->
<g id="node15" class="node">
<title>maharaniH</title>
<text text-anchor="start" x="104" y="-119.8" font-family="Times New Roman,serif" font-weight="bold" font-size="14.00">Hindi</text>
<text text-anchor="start" x="95" y="-105.8" font-family="Times New Roman,serif" font-size="14.00" fill="red">mahārānī</text>
</g>
<!-- maharajniSk&#45;&gt;maharaniH -->
<g id="edge15" class="edge">
<title>maharajniSk&#45;&gt;maharaniH</title>
<path fill="none" stroke="black" d="M123.41,-186.81C122.99,-174.66 122.42,-158.11 121.94,-144.18"/>
<polygon fill="black" stroke="black" points="125.43,-144.03 121.59,-134.15 118.44,-144.27 125.43,-144.03"/>
</g>
<!-- maharani -->
<g id="node16" class="node">
<title>maharani</title>
<text text-anchor="start" x="93.5" y="-35.8" font-family="Times New Roman,serif" font-weight="bold" font-size="14.00">Modern</text>
<text text-anchor="start" x="95" y="-21.8" font-family="Times New Roman,serif" font-weight="bold" font-size="14.00">English</text>
<text text-anchor="start" x="93" y="-7.8" font-family="Times New Roman,serif" font-size="14.00" fill="red">maharani</text>
</g>
<!-- maharaniH&#45;&gt;maharani -->
<g id="edge16" class="edge">
<title>maharaniH&#45;&gt;maharani</title>
<path fill="none" stroke="black" stroke-dasharray="5,2" d="M120.42,-97.84C120.07,-87.26 119.6,-73.32 119.16,-60.54"/>
<polygon fill="black" stroke="black" points="122.65,-60.05 118.81,-50.17 115.65,-60.28 122.65,-60.05"/>
</g>
<!-- rsihSk -->
<g id="node17" class="node">
<title>rsihSk</title>
<text text-anchor="start" x="376" y="-297.8" font-family="Times New Roman,serif" font-weight="bold" font-size="14.00">Sanskrit</text>
<text text-anchor="start" x="391.5" y="-283.8" font-family="Times New Roman,serif" font-size="14.00" fill="red">ṛṣiḥ</text>
<text text-anchor="start" x="366" y="-271.4" font-family="Times New Roman,serif" font-size="12.00">seer, sage, saint</text>
</g>
<!-- rsihSk&#45;&gt;maharsihSk -->
<g id="edge18" class="edge">
<title>rsihSk&#45;&gt;maharsihSk</title>
<path fill="none" stroke="black" d="M396.22,-263.57C393.85,-254 391.1,-242.87 388.66,-232.97"/>
<polygon fill="black" stroke="black" points="392.04,-232.07 386.25,-223.2 385.25,-233.75 392.04,-232.07"/>
</g>
<!-- maharishi -->
<g id="node19" class="node">
<title>maharishi</title>
<text text-anchor="start" x="375.5" y="-35.8" font-family="Times New Roman,serif" font-weight="bold" font-size="14.00">Modern</text>
<text text-anchor="start" x="377" y="-21.8" font-family="Times New Roman,serif" font-weight="bold" font-size="14.00">English</text>
<text text-anchor="start" x="373.5" y="-7.8" font-family="Times New Roman,serif" font-size="14.00" fill="red">maharishi</text>
</g>
<!-- maharsihSk&#45;&gt;maharishi -->
<g id="edge19" class="edge">
<title>maharsihSk&#45;&gt;maharishi</title>
<path fill="none" stroke="black" stroke-dasharray="5,2" d="M383.73,-186.93C386.67,-157.82 392.71,-98.04 396.55,-60.1"/>
<polygon fill="black" stroke="black" points="400.05,-60.33 397.57,-50.03 393.08,-59.62 400.05,-60.33"/>
</g>
<!-- eiIE -->
<g id="node20" class="node">
<title>eiIE</title>
<g id="a_node20"><a xlink:href="ei-go2.svg" xlink:title="&lt;b&gt;Indo&#45;&lt;br/&gt;European&lt;/b&gt;&lt;br/&gt;&lt;font color=&quot;red&quot;&gt;*ei&#45;&lt;/font&gt;&lt;br/&gt;&lt;font point&#45;size=&quot;12&quot;&gt;to go&lt;/font&gt;">
<path fill="none" stroke="black" stroke-dasharray="5,2" d="M501.5,-500C501.5,-500 448.5,-500 448.5,-500 442.5,-500 436.5,-494 436.5,-488 436.5,-488 436.5,-450 436.5,-450 436.5,-444 442.5,-438 448.5,-438 448.5,-438 501.5,-438 501.5,-438 507.5,-438 513.5,-444 513.5,-450 513.5,-450 513.5,-488 513.5,-488 513.5,-494 507.5,-500 501.5,-500"/>
<text text-anchor="start" x="458.5" y="-485.8" font-family="Times New Roman,serif" font-weight="bold" font-size="14.00">Indo&#45;</text>
<text text-anchor="start" x="444.5" y="-471.8" font-family="Times New Roman,serif" font-weight="bold" font-size="14.00">European</text>
<text text-anchor="start" x="464.5" y="-457.8" font-family="Times New Roman,serif" font-size="14.00" fill="red">*ei&#45;</text>
<text text-anchor="start" x="463" y="-445.4" font-family="Times New Roman,serif" font-size="12.00">to go</text>
</a>
</g>
</g>
<!-- yanamSk -->
<g id="node21" class="node">
<title>yanamSk</title>
<text text-anchor="start" x="449" y="-381.8" font-family="Times New Roman,serif" font-weight="bold" font-size="14.00">Sanskrit</text>
<text text-anchor="start" x="456.5" y="-367.8" font-family="Times New Roman,serif" font-size="14.00" fill="red">yānam</text>
<text text-anchor="start" x="459.5" y="-355.4" font-family="Times New Roman,serif" font-size="12.00">vehicle</text>
</g>
<!-- eiIE&#45;&gt;yanamSk -->
<g id="edge20" class="edge">
<title>eiIE&#45;&gt;yanamSk</title>
<path fill="none" stroke="black" d="M475,-437.94C475,-427.94 475,-416.73 475,-406.48"/>
<polygon fill="black" stroke="black" points="478.5,-406.24 475,-396.24 471.5,-406.24 478.5,-406.24"/>
</g>
<!-- yanamSk&#45;&gt;mahayanamSk -->
<g id="edge22" class="edge">
<title>yanamSk&#45;&gt;mahayanamSk</title>
<path fill="none" stroke="black" d="M475,-347.71C475,-317.67 475,-265.5 475,-233.53"/>
<polygon fill="black" stroke="black" points="478.5,-233.14 475,-223.14 471.5,-233.14 478.5,-233.14"/>
</g>
<!-- mahayana -->
<g id="node23" class="node">
<title>mahayana</title>
<text text-anchor="start" x="464.5" y="-35.8" font-family="Times New Roman,serif" font-weight="bold" font-size="14.00">Modern</text>
<text text-anchor="start" x="466" y="-21.8" font-family="Times New Roman,serif" font-weight="bold" font-size="14.00">English</text>
<text text-anchor="start" x="460.5" y="-7.8" font-family="Times New Roman,serif" font-size="14.00" fill="red">Mahayana</text>
</g>
<!-- mahayanamSk&#45;&gt;mahayana -->
<g id="edge23" class="edge">
<title>mahayanamSk&#45;&gt;mahayana</title>
<path fill="none" stroke="black" d="M476.34,-186.93C478.63,-157.82 483.33,-98.04 486.32,-60.1"/>
<polygon fill="black" stroke="black" points="489.82,-60.27 487.11,-50.03 482.84,-59.72 489.82,-60.27"/>
</g>
<!-- meIE -->
<g id="node24" class="node">
<title>meIE</title>
<g id="a_node24"><a xlink:href="me-measure.svg" xlink:title="&lt;b&gt;Indo&#45;&lt;br/&gt;European&lt;/b&gt;&lt;br/&gt;&lt;font color=&quot;red&quot;&gt;*mē&#45;&lt;/font&gt;&lt;br/&gt;&lt;font point&#45;size=&quot;12&quot;&gt;to measure&lt;/font&gt;">
<path fill="none" stroke="black" stroke-dasharray="5,2" d="M606.5,-500C606.5,-500 553.5,-500 553.5,-500 547.5,-500 541.5,-494 541.5,-488 541.5,-488 541.5,-450 541.5,-450 541.5,-444 547.5,-438 553.5,-438 553.5,-438 606.5,-438 606.5,-438 612.5,-438 618.5,-444 618.5,-450 618.5,-450 618.5,-488 618.5,-488 618.5,-494 612.5,-500 606.5,-500"/>
<text text-anchor="start" x="563.5" y="-485.8" font-family="Times New Roman,serif" font-weight="bold" font-size="14.00">Indo&#45;</text>
<text text-anchor="start" x="549.5" y="-471.8" font-family="Times New Roman,serif" font-weight="bold" font-size="14.00">European</text>
<text text-anchor="start" x="566" y="-457.8" font-family="Times New Roman,serif" font-size="14.00" fill="red">*mē&#45;</text>
<text text-anchor="start" x="555" y="-445.4" font-family="Times New Roman,serif" font-size="12.00">to measure</text>
</a>
</g>
</g>
<!-- mimiteSk -->
<g id="node25" class="node">
<title>mimiteSk</title>
<text text-anchor="start" x="554" y="-381.8" font-family="Times New Roman,serif" font-weight="bold" font-size="14.00">Sanskrit</text>
<text text-anchor="start" x="546.5" y="-367.8" font-family="Times New Roman,serif" font-size="14.00" fill="red">mimīte, mā&#45;</text>
<text text-anchor="start" x="552" y="-355.4" font-family="Times New Roman,serif" font-size="12.00">he measures</text>
</g>
<!-- meIE&#45;&gt;mimiteSk -->
<g id="edge24" class="edge">
<title>meIE&#45;&gt;mimiteSk</title>
<path fill="none" stroke="black" d="M580,-437.94C580,-427.94 580,-416.73 580,-406.48"/>
<polygon fill="black" stroke="black" points="583.5,-406.24 580,-396.24 576.5,-406.24 583.5,-406.24"/>
</g>
<!-- matramSk -->
<g id="node26" class="node">
<title>matramSk</title>
<text text-anchor="start" x="559" y="-290.8" font-family="Times New Roman,serif" font-size="14.00" fill="red">mātram</text>
<text text-anchor="start" x="561" y="-278.4" font-family="Times New Roman,serif" font-size="12.00">measure</text>
</g>
<!-- mimiteSk&#45;&gt;matramSk -->
<g id="edge25" class="edge">
<title>mimiteSk&#45;&gt;matramSk</title>
<path fill="none" stroke="black" d="M580,-347.72C580,-337.88 580,-326.36 580,-316.13"/>
<polygon fill="black" stroke="black" points="583.5,-316.08 580,-306.08 576.5,-316.08 583.5,-316.08"/>
</g>
<!-- matramSk&#45;&gt;mahamatrahSk -->
<g id="edge27" class="edge">
<title>matramSk&#45;&gt;mahamatrahSk</title>
<path fill="none" stroke="black" d="M580,-269.82C580,-260.6 580,-248.93 580,-238.11"/>
<polygon fill="black" stroke="black" points="583.5,-238.09 580,-228.09 576.5,-238.09 583.5,-238.09"/>
</g>
<!-- mahavatH -->
<g id="node28" class="node">
<title>mahavatH</title>
<text text-anchor="start" x="563" y="-119.8" font-family="Times New Roman,serif" font-weight="bold" font-size="14.00">Hindi</text>
<text text-anchor="start" x="533" y="-105.8" font-family="Times New Roman,serif" font-size="14.00" fill="red">mahāvat, mahāut</text>
</g>
<!-- mahamatrahSk&#45;&gt;mahavatH -->
<g id="edge28" class="edge">
<title>mahamatrahSk&#45;&gt;mahavatH</title>
<path fill="none" stroke="black" d="M580,-181.6C580,-170.26 580,-156.41 580,-144.44"/>
<polygon fill="black" stroke="black" points="583.5,-144.11 580,-134.11 576.5,-144.11 583.5,-144.11"/>
</g>
<!-- mahout -->
<g id="node29" class="node">
<title>mahout</title>
<text text-anchor="start" x="555.5" y="-35.8" font-family="Times New Roman,serif" font-weight="bold" font-size="14.00">Modern</text>
<text text-anchor="start" x="557" y="-21.8" font-family="Times New Roman,serif" font-weight="bold" font-size="14.00">English</text>
<text text-anchor="start" x="559" y="-7.8" font-family="Times New Roman,serif" font-size="14.00" fill="red">mahout</text>
</g>
<!-- mahavatH&#45;&gt;mahout -->
<g id="edge29" class="edge">
<title>mahavatH&#45;&gt;mahout</title>
<path fill="none" stroke="black" stroke-dasharray="5,2" d="M580,-97.84C580,-87.26 580,-73.32 580,-60.54"/>
<polygon fill="black" stroke="black" points="583.5,-60.17 580,-50.17 576.5,-60.17 583.5,-60.17"/>
</g>
</g>
</svg>
