<?xml version="1.0" encoding="UTF-8" standalone="no"?>
<!DOCTYPE svg PUBLIC "-//W3C//DTD SVG 1.1//EN"
 "http://www.w3.org/Graphics/SVG/1.1/DTD/svg11.dtd">
<!-- Generated by graphviz version 2.49.0 (20210828.1703)
 -->
<!-- Pages: 1 -->
<svg width="386pt" height="274pt"
 viewBox="0.00 0.00 385.50 274.00" xmlns="http://www.w3.org/2000/svg" xmlns:xlink="http://www.w3.org/1999/xlink">
<g id="graph0" class="graph" transform="scale(1 1) rotate(0) translate(4 270)">
<polygon fill="white" stroke="transparent" points="-4,4 -4,-270 381.5,-270 381.5,4 -4,4"/>
<!-- meg -->
<g id="node1" class="node">
<title>meg</title>
<g id="a_node1"><a xlink:title="Indo&#45;European &quot;*meg&#45;&quot; great">
<polygon fill="none" stroke="black" points="296,-262 85,-262 85,-158 296,-158 296,-262"/>
<polygon fill="none" stroke="black" points="300,-266 81,-266 81,-154 300,-154 300,-266"/>
<text text-anchor="start" x="112.5" y="-217.8" font-family="Times New Roman,serif" font-weight="bold" font-size="24.00">Indo&#45;European</text>
<text text-anchor="start" x="130.5" y="-189.6" font-family="Times New Roman,serif" font-size="18.00" fill="red">*meg&#45;</text>
<text text-anchor="start" x="220.5" y="-190.2" font-family="Times New Roman,serif" font-size="16.00">great</text>
</a>
</g>
</g>
<!-- pg1 -->
<g id="node2" class="node">
<title>pg1</title>
<g id="a_node2"><a xlink:href="meg-great1.svg" xlink:title="&lt;TABLE&gt;">
<path fill="none" stroke="black" stroke-dasharray="5,2" d="M67,-91C67,-91 12,-91 12,-91 6,-91 0,-85 0,-79 0,-79 0,-39 0,-39 0,-33 6,-27 12,-27 12,-27 67,-27 67,-27 73,-27 79,-33 79,-39 79,-39 79,-79 79,-79 79,-85 73,-91 67,-91"/>
<text text-anchor="start" x="15.5" y="-68.8" font-family="Times New Roman,serif" font-size="14.00" fill="red">*mik&#45;ila&#45;</text>
<text text-anchor="start" x="16.5" y="-41.8" font-family="Times New Roman,serif" font-size="14.00" fill="red">mag&#45;no&#45;</text>
</a>
</g>
</g>
<!-- meg&#45;&gt;pg1 -->
<g id="edge1" class="edge">
<title>meg&#45;&gt;pg1</title>
<path fill="none" stroke="black" d="M125.83,-153.79C113.15,-142.28 100.17,-129.99 88.5,-118 82.62,-111.96 76.62,-105.31 70.92,-98.75"/>
<polygon fill="black" stroke="black" points="73.56,-96.44 64.4,-91.11 68.24,-100.99 73.56,-96.44"/>
</g>
<!-- pg2 -->
<g id="node3" class="node">
<title>pg2</title>
<g id="a_node3"><a xlink:href="meg-great2.svg" xlink:title="&lt;font color=&quot;red&quot;&gt;*mag&#45;yos&#45;&lt;/font&gt;">
<path fill="none" stroke="black" stroke-dasharray="5,2" d="M161.5,-77C161.5,-77 109.5,-77 109.5,-77 103.5,-77 97.5,-71 97.5,-65 97.5,-65 97.5,-53 97.5,-53 97.5,-47 103.5,-41 109.5,-41 109.5,-41 161.5,-41 161.5,-41 167.5,-41 173.5,-47 173.5,-53 173.5,-53 173.5,-65 173.5,-65 173.5,-71 167.5,-77 161.5,-77"/>
<text text-anchor="start" x="105.5" y="-55.3" font-family="Times New Roman,serif" font-size="14.00" fill="red">*mag&#45;yos&#45;</text>
</a>
</g>
</g>
<!-- meg&#45;&gt;pg2 -->
<g id="edge2" class="edge">
<title>meg&#45;&gt;pg2</title>
<path fill="none" stroke="black" d="M170.18,-153.94C161.71,-131 152.26,-105.41 145.37,-86.74"/>
<polygon fill="black" stroke="black" points="148.57,-85.31 141.83,-77.14 142.01,-87.74 148.57,-85.31"/>
</g>
<!-- pg3 -->
<g id="node4" class="node">
<title>pg3</title>
<g id="a_node4"><a xlink:href="meg-great3.svg" xlink:title="&lt;TABLE&gt;">
<path fill="none" stroke="black" stroke-dasharray="5,2" d="M289,-118C289,-118 204,-118 204,-118 198,-118 192,-112 192,-106 192,-106 192,-12 192,-12 192,-6 198,0 204,0 204,0 289,0 289,0 295,0 301,-6 301,-12 301,-12 301,-106 301,-106 301,-112 295,-118 289,-118"/>
<text text-anchor="start" x="207.5" y="-95.8" font-family="Times New Roman,serif" font-size="14.00" fill="red">*meg&#45;(ə)&#45;isto&#45;</text>
<text text-anchor="start" x="212" y="-68.8" font-family="Times New Roman,serif" font-size="14.00" fill="red">*mag&#45;samo&#45;</text>
<text text-anchor="start" x="221" y="-41.8" font-family="Times New Roman,serif" font-size="14.00" fill="red">*mag&#45;ya&#45;</text>
<text text-anchor="start" x="216" y="-14.8" font-family="Times New Roman,serif" font-size="14.00" fill="red">*meg&#45;ə&#45;(l&#45;)</text>
</a>
</g>
</g>
<!-- meg&#45;&gt;pg3 -->
<g id="edge3" class="edge">
<title>meg&#45;&gt;pg3</title>
<path fill="none" stroke="black" d="M211.19,-153.94C214.42,-145.36 217.78,-136.4 221.1,-127.58"/>
<polygon fill="black" stroke="black" points="224.43,-128.67 224.67,-118.08 217.88,-126.21 224.43,-128.67"/>
</g>
<!-- pg4 -->
<g id="node5" class="node">
<title>pg4</title>
<g id="a_node5"><a xlink:href="meg-great4.svg" xlink:title="&lt;font color=&quot;red&quot;&gt;*megh&#45;&lt;/font&gt;">
<path fill="none" stroke="black" stroke-dasharray="5,2" d="M365.5,-77C365.5,-77 331.5,-77 331.5,-77 325.5,-77 319.5,-71 319.5,-65 319.5,-65 319.5,-53 319.5,-53 319.5,-47 325.5,-41 331.5,-41 331.5,-41 365.5,-41 365.5,-41 371.5,-41 377.5,-47 377.5,-53 377.5,-53 377.5,-65 377.5,-65 377.5,-71 371.5,-77 365.5,-77"/>
<text text-anchor="start" x="327.5" y="-55.3" font-family="Times New Roman,serif" font-size="14.00" fill="red">*megh&#45;</text>
</a>
</g>
</g>
<!-- meg&#45;&gt;pg4 -->
<g id="edge4" class="edge">
<title>meg&#45;&gt;pg4</title>
<path fill="none" stroke="black" d="M271.23,-153.87C285.05,-142.77 298.72,-130.61 310.5,-118 319.46,-108.4 327.68,-96.46 334.17,-85.91"/>
<polygon fill="black" stroke="black" points="337.31,-87.47 339.4,-77.09 331.29,-83.9 337.31,-87.47"/>
</g>
</g>
</svg>
