<?xml version="1.0" encoding="UTF-8" standalone="no"?>
<!DOCTYPE svg PUBLIC "-//W3C//DTD SVG 1.1//EN"
 "http://www.w3.org/Graphics/SVG/1.1/DTD/svg11.dtd">
<!-- Generated by graphviz version 2.49.0 (20210828.1703)
 -->
<!-- Pages: 1 -->
<svg width="1203pt" height="650pt"
 viewBox="0.00 0.00 1202.50 650.00" xmlns="http://www.w3.org/2000/svg" xmlns:xlink="http://www.w3.org/1999/xlink">
<g id="graph0" class="graph" transform="scale(1 1) rotate(0) translate(4 646)">
<polygon fill="white" stroke="transparent" points="-4,4 -4,-646 1198.5,-646 1198.5,4 -4,4"/>
<!-- meg -->
<g id="node1" class="node">
<title>meg</title>
<g id="a_node1"><a xlink:href="meg-great0.svg" xlink:title="Indo&#45;European &quot;*meg&#45;&quot; great">
<polygon fill="none" stroke="black" stroke-dasharray="5,2" points="524.5,-642 313.5,-642 313.5,-538 524.5,-538 524.5,-642"/>
<text text-anchor="start" x="341" y="-597.8" font-family="Times New Roman,serif" font-weight="bold" font-size="24.00">Indo&#45;European</text>
<text text-anchor="start" x="359" y="-569.6" font-family="Times New Roman,serif" font-size="18.00" fill="red">*meg&#45;</text>
<text text-anchor="start" x="449" y="-570.2" font-family="Times New Roman,serif" font-size="16.00">great</text>
</a>
</g>
</g>
<!-- magyos -->
<g id="node2" class="node">
<title>magyos</title>
<text text-anchor="start" x="389" y="-473.8" font-family="Times New Roman,serif" font-size="14.00" fill="red">*mag&#45;yos&#45;</text>
<text text-anchor="start" x="403" y="-461.4" font-family="Times New Roman,serif" font-size="12.00">greater</text>
</g>
<!-- meg&#45;&gt;magyos -->
<g id="edge1" class="edge">
<title>meg&#45;&gt;magyos</title>
<path fill="none" stroke="black" d="M419,-537.68C419,-524.47 419,-510.76 419,-499.3"/>
<polygon fill="black" stroke="black" points="422.5,-499.1 419,-489.1 415.5,-499.1 422.5,-499.1"/>
</g>
<!-- maiorL -->
<g id="node3" class="node">
<title>maiorL</title>
<text text-anchor="start" x="796.5" y="-298.8" font-family="Times New Roman,serif" font-weight="bold" font-size="14.00">Latin</text>
<text text-anchor="start" x="797" y="-284.8" font-family="Times New Roman,serif" font-size="14.00" fill="red">māior</text>
</g>
<!-- magyos&#45;&gt;maiorL -->
<g id="edge2" class="edge">
<title>magyos&#45;&gt;maiorL</title>
<path fill="none" stroke="black" d="M457.14,-453.16C533.01,-419.65 701.96,-345.04 776.49,-312.13"/>
<polygon fill="black" stroke="black" points="778.2,-315.19 785.94,-307.95 775.37,-308.79 778.2,-315.19"/>
</g>
<!-- maiestasL -->
<g id="node21" class="node">
<title>maiestasL</title>
<text text-anchor="start" x="126.5" y="-304.8" font-family="Times New Roman,serif" font-weight="bold" font-size="14.00">Latin</text>
<text text-anchor="start" x="119" y="-290.8" font-family="Times New Roman,serif" font-size="14.00" fill="red">māiestās</text>
<text text-anchor="start" x="99" y="-278.4" font-family="Times New Roman,serif" font-size="12.00">greatness, authority</text>
</g>
<!-- magyos&#45;&gt;maiestasL -->
<g id="edge21" class="edge">
<title>magyos&#45;&gt;maiestasL</title>
<path fill="none" stroke="black" d="M392.03,-453C344.68,-423.15 246.14,-361.02 188.22,-324.51"/>
<polygon fill="black" stroke="black" points="189.96,-321.46 179.63,-319.09 186.22,-327.39 189.96,-321.46"/>
</g>
<!-- magisterL -->
<g id="node28" class="node">
<title>magisterL</title>
<text text-anchor="start" x="402.5" y="-389.8" font-family="Times New Roman,serif" font-weight="bold" font-size="14.00">Latin</text>
<text text-anchor="start" x="369" y="-375.8" font-family="Times New Roman,serif" font-size="14.00" fill="red">magister, magistr&#45;</text>
<text text-anchor="start" x="375.5" y="-363.4" font-family="Times New Roman,serif" font-size="12.00">master, high official</text>
</g>
<!-- magyos&#45;&gt;magisterL -->
<g id="edge28" class="edge">
<title>magyos&#45;&gt;magisterL</title>
<path fill="none" stroke="black" d="M419,-452.84C419,-441.92 419,-427.41 419,-414.29"/>
<polygon fill="black" stroke="black" points="422.5,-414.17 419,-404.17 415.5,-414.17 422.5,-414.17"/>
</g>
<!-- majourME -->
<g id="node4" class="node">
<title>majourME</title>
<text text-anchor="start" x="837.5" y="-213.8" font-family="Times New Roman,serif" font-weight="bold" font-size="14.00">Middle</text>
<text text-anchor="start" x="836" y="-199.8" font-family="Times New Roman,serif" font-weight="bold" font-size="14.00">English</text>
<text text-anchor="start" x="839.5" y="-185.8" font-family="Times New Roman,serif" font-size="14.00" fill="red">majour</text>
</g>
<!-- maiorL&#45;&gt;majourME -->
<g id="edge3" class="edge">
<title>maiorL&#45;&gt;majourME</title>
<path fill="none" stroke="black" stroke-dasharray="5,2" d="M821.87,-276.65C827.6,-265.44 835.23,-250.5 842.09,-237.08"/>
<polygon fill="black" stroke="black" points="845.25,-238.6 846.68,-228.1 839.01,-235.42 845.25,-238.6"/>
</g>
<!-- maiordomusL -->
<g id="node8" class="node">
<title>maiordomusL</title>
<text text-anchor="start" x="1018.5" y="-219.8" font-family="Times New Roman,serif" font-weight="bold" font-size="14.00">Medieval</text>
<text text-anchor="start" x="1030.5" y="-205.8" font-family="Times New Roman,serif" font-weight="bold" font-size="14.00">Latin</text>
<text text-anchor="start" x="1010" y="-191.8" font-family="Times New Roman,serif" font-size="14.00" fill="red">māior domūs</text>
<text text-anchor="start" x="1007.5" y="-179.4" font-family="Times New Roman,serif" font-size="12.00">chief of the house</text>
</g>
<!-- maiorL&#45;&gt;maiordomusL -->
<g id="edge6" class="edge">
<title>maiorL&#45;&gt;maiordomusL</title>
<path fill="none" stroke="black" d="M840.06,-286.41C873.61,-276.68 932.55,-258.51 990.08,-234.19"/>
<polygon fill="black" stroke="black" points="991.49,-237.39 999.3,-230.23 988.73,-230.96 991.49,-237.39"/>
</g>
<!-- maioritasL -->
<g id="node12" class="node">
<title>maioritasL</title>
<text text-anchor="start" x="916.5" y="-213.8" font-family="Times New Roman,serif" font-weight="bold" font-size="14.00">Medieval</text>
<text text-anchor="start" x="928.5" y="-199.8" font-family="Times New Roman,serif" font-weight="bold" font-size="14.00">Latin</text>
<text text-anchor="start" x="919.5" y="-185.8" font-family="Times New Roman,serif" font-size="14.00" fill="red">māiōritās</text>
</g>
<!-- maiorL&#45;&gt;maioritasL -->
<g id="edge12" class="edge">
<title>maiorL&#45;&gt;maioritasL</title>
<path fill="none" stroke="black" d="M838.14,-276.86C855.96,-264.71 880.32,-248.1 901.29,-233.8"/>
<polygon fill="black" stroke="black" points="903.44,-236.57 909.73,-228.04 899.5,-230.79 903.44,-236.57"/>
</g>
<!-- maiusculusL -->
<g id="node15" class="node">
<title>maiusculusL</title>
<text text-anchor="start" x="629" y="-205.8" font-family="Times New Roman,serif" font-size="14.00" fill="red">māiusculus</text>
<text text-anchor="start" x="622.5" y="-193.4" font-family="Times New Roman,serif" font-size="12.00">somewhat larger</text>
</g>
<!-- maiorL&#45;&gt;maiusculusL -->
<g id="edge15" class="edge">
<title>maiorL&#45;&gt;maiusculusL</title>
<path fill="none" stroke="black" d="M786,-278.12C761.57,-263.74 725.33,-242.43 697.98,-226.34"/>
<polygon fill="black" stroke="black" points="699.47,-223.16 689.07,-221.1 695.92,-229.19 699.47,-223.16"/>
</g>
<!-- maireOF -->
<g id="node18" class="node">
<title>maireOF</title>
<text text-anchor="start" x="732" y="-206.8" font-family="Times New Roman,serif" font-weight="bold" font-size="14.00">Old French</text>
<text text-anchor="start" x="751.5" y="-192.8" font-family="Times New Roman,serif" font-size="14.00" fill="red">maire</text>
</g>
<!-- maiorL&#45;&gt;maireOF -->
<g id="edge18" class="edge">
<title>maiorL&#45;&gt;maireOF</title>
<path fill="none" stroke="black" d="M804.13,-276.65C797.45,-263.57 788.17,-245.42 780.56,-230.53"/>
<polygon fill="black" stroke="black" points="783.51,-228.61 775.84,-221.3 777.28,-231.8 783.51,-228.61"/>
</g>
<!-- major -->
<g id="node5" class="node">
<title>major</title>
<text text-anchor="start" x="834.5" y="-35.8" font-family="Times New Roman,serif" font-weight="bold" font-size="14.00">Modern</text>
<text text-anchor="start" x="836" y="-21.8" font-family="Times New Roman,serif" font-weight="bold" font-size="14.00">English</text>
<text text-anchor="start" x="843" y="-7.8" font-family="Times New Roman,serif" font-size="14.00" fill="red">major</text>
</g>
<!-- majourME&#45;&gt;major -->
<g id="edge4" class="edge">
<title>majourME&#45;&gt;major</title>
<path fill="none" stroke="black" d="M859,-177.9C859,-147.44 859,-94.82 859,-60.21"/>
<polygon fill="black" stroke="black" points="862.5,-60.09 859,-50.09 855.5,-60.09 862.5,-60.09"/>
</g>
<!-- demIE -->
<g id="node6" class="node">
<title>demIE</title>
<g id="a_node6"><a xlink:href="dem-house.svg" xlink:title="&lt;b&gt;Indo&#45;&lt;br/&gt;European&lt;/b&gt;&lt;br/&gt;&lt;font color=&quot;red&quot;&gt;*dem&#45;&lt;/font&gt;&lt;br/&gt;&lt;font point&#45;size=&quot;12&quot;&gt;house, household&lt;/font&gt;">
<path fill="none" stroke="black" stroke-dasharray="5,2" d="M1082.5,-502C1082.5,-502 1011.5,-502 1011.5,-502 1005.5,-502 999.5,-496 999.5,-490 999.5,-490 999.5,-452 999.5,-452 999.5,-446 1005.5,-440 1011.5,-440 1011.5,-440 1082.5,-440 1082.5,-440 1088.5,-440 1094.5,-446 1094.5,-452 1094.5,-452 1094.5,-490 1094.5,-490 1094.5,-496 1088.5,-502 1082.5,-502"/>
<text text-anchor="start" x="1030.5" y="-487.8" font-family="Times New Roman,serif" font-weight="bold" font-size="14.00">Indo&#45;</text>
<text text-anchor="start" x="1016.5" y="-473.8" font-family="Times New Roman,serif" font-weight="bold" font-size="14.00">European</text>
<text text-anchor="start" x="1029" y="-459.8" font-family="Times New Roman,serif" font-size="14.00" fill="red">*dem&#45;</text>
<text text-anchor="start" x="1007.5" y="-447.4" font-family="Times New Roman,serif" font-size="12.00">house, household</text>
</a>
</g>
</g>
<!-- domusL -->
<g id="node7" class="node">
<title>domusL</title>
<text text-anchor="start" x="1030.5" y="-383.8" font-family="Times New Roman,serif" font-weight="bold" font-size="14.00">Latin</text>
<text text-anchor="start" x="1027.5" y="-369.8" font-family="Times New Roman,serif" font-size="14.00" fill="red">domus</text>
</g>
<!-- demIE&#45;&gt;domusL -->
<g id="edge5" class="edge">
<title>demIE&#45;&gt;domusL</title>
<path fill="none" stroke="black" d="M1047,-439.87C1047,-429.65 1047,-418.29 1047,-408.3"/>
<polygon fill="black" stroke="black" points="1050.5,-408.12 1047,-398.12 1043.5,-408.12 1050.5,-408.12"/>
</g>
<!-- domusL&#45;&gt;maiordomusL -->
<g id="edge7" class="edge">
<title>domusL&#45;&gt;maiordomusL</title>
<path fill="none" stroke="black" d="M1047,-361.9C1047,-334.86 1047,-281.48 1047,-244.31"/>
<polygon fill="black" stroke="black" points="1050.5,-244.29 1047,-234.29 1043.5,-244.29 1050.5,-244.29"/>
</g>
<!-- maggiordomoI -->
<g id="node9" class="node">
<title>maggiordomoI</title>
<text text-anchor="start" x="1024" y="-114.8" font-family="Times New Roman,serif" font-weight="bold" font-size="14.00">Italian</text>
<text text-anchor="start" x="1004.5" y="-100.8" font-family="Times New Roman,serif" font-size="14.00" fill="red">maggiordomo</text>
</g>
<!-- maiordomusL&#45;&gt;maggiordomoI -->
<g id="edge8" class="edge">
<title>maiordomusL&#45;&gt;maggiordomoI</title>
<path fill="none" stroke="black" d="M1045.98,-171.53C1045.63,-161.01 1045.24,-149.3 1044.9,-139.07"/>
<polygon fill="black" stroke="black" points="1048.4,-138.93 1044.57,-129.05 1041.4,-139.17 1048.4,-138.93"/>
</g>
<!-- mayordomoS -->
<g id="node10" class="node">
<title>mayordomoS</title>
<text text-anchor="start" x="1127.5" y="-114.8" font-family="Times New Roman,serif" font-weight="bold" font-size="14.00">Spanish</text>
<text text-anchor="start" x="1117.5" y="-100.8" font-family="Times New Roman,serif" font-size="14.00" fill="red">mayordomo</text>
</g>
<!-- maiordomusL&#45;&gt;mayordomoS -->
<g id="edge9" class="edge">
<title>maiordomusL&#45;&gt;mayordomoS</title>
<path fill="none" stroke="black" d="M1082.26,-171.78C1095.97,-160.02 1111.45,-146.75 1124.34,-135.71"/>
<polygon fill="black" stroke="black" points="1126.68,-138.32 1131.99,-129.15 1122.12,-133 1126.68,-138.32"/>
</g>
<!-- majordomo -->
<g id="node11" class="node">
<title>majordomo</title>
<text text-anchor="start" x="1073.5" y="-35.8" font-family="Times New Roman,serif" font-weight="bold" font-size="14.00">Modern</text>
<text text-anchor="start" x="1075" y="-21.8" font-family="Times New Roman,serif" font-weight="bold" font-size="14.00">English</text>
<text text-anchor="start" x="1063" y="-7.8" font-family="Times New Roman,serif" font-size="14.00" fill="red">major&#45;domo</text>
</g>
<!-- maggiordomoI&#45;&gt;majordomo -->
<g id="edge10" class="edge">
<title>maggiordomoI&#45;&gt;majordomo</title>
<path fill="none" stroke="black" stroke-dasharray="5,2" d="M1055.19,-92.6C1061.49,-82.79 1069.57,-70.23 1077,-58.66"/>
<polygon fill="black" stroke="black" points="1080.06,-60.38 1082.53,-50.07 1074.17,-56.59 1080.06,-60.38"/>
</g>
<!-- mayordomoS&#45;&gt;majordomo -->
<g id="edge11" class="edge">
<title>mayordomoS&#45;&gt;majordomo</title>
<path fill="none" stroke="black" stroke-dasharray="5,2" d="M1140.81,-92.6C1134.51,-82.79 1126.43,-70.23 1119,-58.66"/>
<polygon fill="black" stroke="black" points="1121.83,-56.59 1113.47,-50.07 1115.94,-60.38 1121.83,-56.59"/>
</g>
<!-- majoriteF -->
<g id="node13" class="node">
<title>majoriteF</title>
<text text-anchor="start" x="923" y="-114.8" font-family="Times New Roman,serif" font-weight="bold" font-size="14.00">French</text>
<text text-anchor="start" x="922.5" y="-100.8" font-family="Times New Roman,serif" font-size="14.00" fill="red">majorité</text>
</g>
<!-- maioritasL&#45;&gt;majoriteF -->
<g id="edge13" class="edge">
<title>maioritasL&#45;&gt;majoriteF</title>
<path fill="none" stroke="black" stroke-dasharray="5,2" d="M945,-177.88C945,-165.96 945,-151.53 945,-139.21"/>
<polygon fill="black" stroke="black" points="948.5,-139.05 945,-129.05 941.5,-139.05 948.5,-139.05"/>
</g>
<!-- majority -->
<g id="node14" class="node">
<title>majority</title>
<text text-anchor="start" x="920.5" y="-35.8" font-family="Times New Roman,serif" font-weight="bold" font-size="14.00">Modern</text>
<text text-anchor="start" x="922" y="-21.8" font-family="Times New Roman,serif" font-weight="bold" font-size="14.00">English</text>
<text text-anchor="start" x="922" y="-7.8" font-family="Times New Roman,serif" font-size="14.00" fill="red">majority</text>
</g>
<!-- majoriteF&#45;&gt;majority -->
<g id="edge14" class="edge">
<title>majoriteF&#45;&gt;majority</title>
<path fill="none" stroke="black" stroke-dasharray="5,2" d="M945,-92.6C945,-83.27 945,-71.45 945,-60.37"/>
<polygon fill="black" stroke="black" points="948.5,-60.07 945,-50.07 941.5,-60.07 948.5,-60.07"/>
</g>
<!-- majusculeF -->
<g id="node16" class="node">
<title>majusculeF</title>
<text text-anchor="start" x="638" y="-114.8" font-family="Times New Roman,serif" font-weight="bold" font-size="14.00">French</text>
<text text-anchor="start" x="632.5" y="-100.8" font-family="Times New Roman,serif" font-size="14.00" fill="red">majuscule</text>
</g>
<!-- maiusculusL&#45;&gt;majusculeF -->
<g id="edge16" class="edge">
<title>maiusculusL&#45;&gt;majusculeF</title>
<path fill="none" stroke="black" stroke-dasharray="5,2" d="M660,-184.65C660,-171.82 660,-154.11 660,-139.38"/>
<polygon fill="black" stroke="black" points="663.5,-139.3 660,-129.3 656.5,-139.3 663.5,-139.3"/>
</g>
<!-- majuscule -->
<g id="node17" class="node">
<title>majuscule</title>
<text text-anchor="start" x="635.5" y="-35.8" font-family="Times New Roman,serif" font-weight="bold" font-size="14.00">Modern</text>
<text text-anchor="start" x="637" y="-21.8" font-family="Times New Roman,serif" font-weight="bold" font-size="14.00">English</text>
<text text-anchor="start" x="632.5" y="-7.8" font-family="Times New Roman,serif" font-size="14.00" fill="red">majuscule</text>
</g>
<!-- majusculeF&#45;&gt;majuscule -->
<g id="edge17" class="edge">
<title>majusculeF&#45;&gt;majuscule</title>
<path fill="none" stroke="black" stroke-dasharray="5,2" d="M660,-92.6C660,-83.27 660,-71.45 660,-60.37"/>
<polygon fill="black" stroke="black" points="663.5,-60.07 660,-50.07 656.5,-60.07 663.5,-60.07"/>
</g>
<!-- maireME -->
<g id="node19" class="node">
<title>maireME</title>
<text text-anchor="start" x="745.5" y="-121.8" font-family="Times New Roman,serif" font-weight="bold" font-size="14.00">Middle</text>
<text text-anchor="start" x="744" y="-107.8" font-family="Times New Roman,serif" font-weight="bold" font-size="14.00">English</text>
<text text-anchor="start" x="751.5" y="-93.8" font-family="Times New Roman,serif" font-size="14.00" fill="red">maire</text>
</g>
<!-- maireOF&#45;&gt;maireME -->
<g id="edge19" class="edge">
<title>maireOF&#45;&gt;maireME</title>
<path fill="none" stroke="black" stroke-dasharray="5,2" d="M767,-184.65C767,-173.76 767,-159.36 767,-146.25"/>
<polygon fill="black" stroke="black" points="770.5,-146.1 767,-136.1 763.5,-146.1 770.5,-146.1"/>
</g>
<!-- mayor -->
<g id="node20" class="node">
<title>mayor</title>
<text text-anchor="start" x="742.5" y="-35.8" font-family="Times New Roman,serif" font-weight="bold" font-size="14.00">Modern</text>
<text text-anchor="start" x="744" y="-21.8" font-family="Times New Roman,serif" font-weight="bold" font-size="14.00">English</text>
<text text-anchor="start" x="749" y="-7.8" font-family="Times New Roman,serif" font-size="14.00" fill="red">mayor</text>
</g>
<!-- maireME&#45;&gt;mayor -->
<g id="edge20" class="edge">
<title>maireME&#45;&gt;mayor</title>
<path fill="none" stroke="black" d="M767,-85.7C767,-77.78 767,-68.83 767,-60.31"/>
<polygon fill="black" stroke="black" points="770.5,-60.24 767,-50.24 763.5,-60.24 770.5,-60.24"/>
</g>
<!-- maestaI -->
<g id="node22" class="node">
<title>maestaI</title>
<text text-anchor="start" x="25" y="-206.8" font-family="Times New Roman,serif" font-weight="bold" font-size="14.00">Italian</text>
<text text-anchor="start" x="25.5" y="-192.8" font-family="Times New Roman,serif" font-size="14.00" fill="red">maestà</text>
</g>
<!-- maiestasL&#45;&gt;maestaI -->
<g id="edge22" class="edge">
<title>maiestasL&#45;&gt;maestaI</title>
<path fill="none" stroke="black" d="M117.76,-270.82C103.5,-257.73 85.7,-241.38 71.27,-228.13"/>
<polygon fill="black" stroke="black" points="73.38,-225.31 63.65,-221.13 68.65,-230.47 73.38,-225.31"/>
</g>
<!-- majesteOF -->
<g id="node25" class="node">
<title>majesteOF</title>
<text text-anchor="start" x="108" y="-206.8" font-family="Times New Roman,serif" font-weight="bold" font-size="14.00">Old French</text>
<text text-anchor="start" x="122" y="-192.8" font-family="Times New Roman,serif" font-size="14.00" fill="red">majeste</text>
</g>
<!-- maiestasL&#45;&gt;majesteOF -->
<g id="edge25" class="edge">
<title>maiestasL&#45;&gt;majesteOF</title>
<path fill="none" stroke="black" d="M143,-270.82C143,-258.82 143,-244.08 143,-231.5"/>
<polygon fill="black" stroke="black" points="146.5,-231.13 143,-221.13 139.5,-231.13 146.5,-231.13"/>
</g>
<!-- maestosoI -->
<g id="node23" class="node">
<title>maestosoI</title>
<text text-anchor="start" x="8" y="-113.8" font-family="Times New Roman,serif" font-size="14.00" fill="red">maestoso</text>
<text text-anchor="start" x="9" y="-101.4" font-family="Times New Roman,serif" font-size="12.00">majestically</text>
</g>
<!-- maestaI&#45;&gt;maestosoI -->
<g id="edge23" class="edge">
<title>maestaI&#45;&gt;maestosoI</title>
<path fill="none" stroke="black" d="M43.07,-184.65C41.65,-171.82 39.68,-154.11 38.04,-139.38"/>
<polygon fill="black" stroke="black" points="41.51,-138.85 36.92,-129.3 34.55,-139.63 41.51,-138.85"/>
</g>
<!-- maestoso -->
<g id="node24" class="node">
<title>maestoso</title>
<text text-anchor="start" x="10.5" y="-35.8" font-family="Times New Roman,serif" font-weight="bold" font-size="14.00">Modern</text>
<text text-anchor="start" x="12" y="-21.8" font-family="Times New Roman,serif" font-weight="bold" font-size="14.00">English</text>
<text text-anchor="start" x="8" y="-7.8" font-family="Times New Roman,serif" font-size="14.00" fill="red">maestoso</text>
</g>
<!-- maestosoI&#45;&gt;maestoso -->
<g id="edge24" class="edge">
<title>maestosoI&#45;&gt;maestoso</title>
<path fill="none" stroke="black" stroke-dasharray="5,2" d="M35,-92.6C35,-83.27 35,-71.45 35,-60.37"/>
<polygon fill="black" stroke="black" points="38.5,-60.07 35,-50.07 31.5,-60.07 38.5,-60.07"/>
</g>
<!-- magesteME -->
<g id="node26" class="node">
<title>magesteME</title>
<text text-anchor="start" x="121.5" y="-121.8" font-family="Times New Roman,serif" font-weight="bold" font-size="14.00">Middle</text>
<text text-anchor="start" x="120" y="-107.8" font-family="Times New Roman,serif" font-weight="bold" font-size="14.00">English</text>
<text text-anchor="start" x="96" y="-93.8" font-family="Times New Roman,serif" font-size="14.00" fill="red">mageste, maieste</text>
</g>
<!-- majesteOF&#45;&gt;magesteME -->
<g id="edge26" class="edge">
<title>majesteOF&#45;&gt;magesteME</title>
<path fill="none" stroke="black" stroke-dasharray="5,2" d="M143,-184.65C143,-173.76 143,-159.36 143,-146.25"/>
<polygon fill="black" stroke="black" points="146.5,-146.1 143,-136.1 139.5,-146.1 146.5,-146.1"/>
</g>
<!-- majesty -->
<g id="node27" class="node">
<title>majesty</title>
<text text-anchor="start" x="104.5" y="-35.8" font-family="Times New Roman,serif" font-weight="bold" font-size="14.00">Modern</text>
<text text-anchor="start" x="106" y="-21.8" font-family="Times New Roman,serif" font-weight="bold" font-size="14.00">English</text>
<text text-anchor="start" x="107.5" y="-7.8" font-family="Times New Roman,serif" font-size="14.00" fill="red">majesty</text>
</g>
<!-- magesteME&#45;&gt;majesty -->
<g id="edge27" class="edge">
<title>magesteME&#45;&gt;majesty</title>
<path fill="none" stroke="black" d="M138.95,-85.7C137.63,-77.78 136.14,-68.83 134.72,-60.31"/>
<polygon fill="black" stroke="black" points="138.14,-59.53 133.04,-50.24 131.23,-60.68 138.14,-59.53"/>
</g>
<!-- maestroI -->
<g id="node29" class="node">
<title>maestroI</title>
<text text-anchor="start" x="445" y="-298.8" font-family="Times New Roman,serif" font-weight="bold" font-size="14.00">Italian</text>
<text text-anchor="start" x="442.5" y="-284.8" font-family="Times New Roman,serif" font-size="14.00" fill="red">maestro</text>
</g>
<!-- magisterL&#45;&gt;maestroI -->
<g id="edge29" class="edge">
<title>magisterL&#45;&gt;maestroI</title>
<path fill="none" stroke="black" d="M431.81,-355.88C437.61,-345.42 444.49,-333 450.48,-322.2"/>
<polygon fill="black" stroke="black" points="453.68,-323.65 455.46,-313.21 447.56,-320.26 453.68,-323.65"/>
</g>
<!-- magistratusL -->
<g id="node31" class="node">
<title>magistratusL</title>
<text text-anchor="start" x="522" y="-291.3" font-family="Times New Roman,serif" font-size="14.00" fill="red">magistrātus</text>
</g>
<!-- magisterL&#45;&gt;magistratusL -->
<g id="edge31" class="edge">
<title>magisterL&#45;&gt;magistratusL</title>
<path fill="none" stroke="black" d="M456.61,-355.88C475.6,-344.2 498.55,-330.09 517.4,-318.5"/>
<polygon fill="black" stroke="black" points="519.33,-321.42 526.02,-313.21 515.66,-315.46 519.33,-321.42"/>
</g>
<!-- maegisterOE -->
<g id="node35" class="node">
<title>maegisterOE</title>
<text text-anchor="start" x="230.5" y="-298.8" font-family="Times New Roman,serif" font-weight="bold" font-size="14.00">Old English</text>
<text text-anchor="start" x="240.5" y="-284.8" font-family="Times New Roman,serif" font-size="14.00" fill="red">maegister</text>
</g>
<!-- magisterL&#45;&gt;maegisterOE -->
<g id="edge35" class="edge">
<title>magisterL&#45;&gt;maegisterOE</title>
<path fill="none" stroke="black" stroke-dasharray="5,2" d="M376.66,-355.88C354.98,-344.04 328.73,-329.71 307.35,-318.03"/>
<polygon fill="black" stroke="black" points="308.96,-314.93 298.51,-313.21 305.61,-321.07 308.96,-314.93"/>
</g>
<!-- maistreOF -->
<g id="node39" class="node">
<title>maistreOF</title>
<text text-anchor="start" x="338" y="-305.8" font-family="Times New Roman,serif" font-weight="bold" font-size="14.00">Old French</text>
<text text-anchor="start" x="353" y="-291.8" font-family="Times New Roman,serif" font-size="14.00" fill="red">maistre</text>
<text text-anchor="start" x="344" y="-277.8" font-family="Times New Roman,serif" font-size="14.00" fill="red">maistresse</text>
</g>
<!-- magisterL&#45;&gt;maistreOF -->
<g id="edge39" class="edge">
<title>magisterL&#45;&gt;maistreOF</title>
<path fill="none" stroke="black" d="M406.19,-355.88C401.56,-347.53 396.25,-337.94 391.25,-328.92"/>
<polygon fill="black" stroke="black" points="394.3,-327.2 386.39,-320.15 388.17,-330.6 394.3,-327.2"/>
</g>
<!-- maestro -->
<g id="node30" class="node">
<title>maestro</title>
<text text-anchor="start" x="440.5" y="-35.8" font-family="Times New Roman,serif" font-weight="bold" font-size="14.00">Modern</text>
<text text-anchor="start" x="442" y="-21.8" font-family="Times New Roman,serif" font-weight="bold" font-size="14.00">English</text>
<text text-anchor="start" x="442.5" y="-7.8" font-family="Times New Roman,serif" font-size="14.00" fill="red">maestro</text>
</g>
<!-- maestroI&#45;&gt;maestro -->
<g id="edge30" class="edge">
<title>maestroI&#45;&gt;maestro</title>
<path fill="none" stroke="black" stroke-dasharray="5,2" d="M465,-276.83C465,-233.32 465,-118.13 465,-60.24"/>
<polygon fill="black" stroke="black" points="468.5,-60.12 465,-50.12 461.5,-60.12 468.5,-60.12"/>
</g>
<!-- magistratOF -->
<g id="node32" class="node">
<title>magistratOF</title>
<text text-anchor="start" x="518" y="-206.8" font-family="Times New Roman,serif" font-weight="bold" font-size="14.00">Old French</text>
<text text-anchor="start" x="527.5" y="-192.8" font-family="Times New Roman,serif" font-size="14.00" fill="red">magistrat</text>
</g>
<!-- magistratusL&#45;&gt;magistratOF -->
<g id="edge32" class="edge">
<title>magistratusL&#45;&gt;magistratOF</title>
<path fill="none" stroke="black" d="M553.81,-276.65C553.66,-263.82 553.47,-246.11 553.3,-231.38"/>
<polygon fill="black" stroke="black" points="556.8,-231.26 553.19,-221.3 549.8,-231.34 556.8,-231.26"/>
</g>
<!-- magistratME -->
<g id="node33" class="node">
<title>magistratME</title>
<text text-anchor="start" x="531.5" y="-121.8" font-family="Times New Roman,serif" font-weight="bold" font-size="14.00">Middle</text>
<text text-anchor="start" x="530" y="-107.8" font-family="Times New Roman,serif" font-weight="bold" font-size="14.00">English</text>
<text text-anchor="start" x="527.5" y="-93.8" font-family="Times New Roman,serif" font-size="14.00" fill="red">magistrat</text>
</g>
<!-- magistratOF&#45;&gt;magistratME -->
<g id="edge33" class="edge">
<title>magistratOF&#45;&gt;magistratME</title>
<path fill="none" stroke="black" stroke-dasharray="5,2" d="M553,-184.65C553,-173.76 553,-159.36 553,-146.25"/>
<polygon fill="black" stroke="black" points="556.5,-146.1 553,-136.1 549.5,-146.1 556.5,-146.1"/>
</g>
<!-- magistrate -->
<g id="node34" class="node">
<title>magistrate</title>
<text text-anchor="start" x="528.5" y="-35.8" font-family="Times New Roman,serif" font-weight="bold" font-size="14.00">Modern</text>
<text text-anchor="start" x="530" y="-21.8" font-family="Times New Roman,serif" font-weight="bold" font-size="14.00">English</text>
<text text-anchor="start" x="524.5" y="-7.8" font-family="Times New Roman,serif" font-size="14.00" fill="red">magistrate</text>
</g>
<!-- magistratME&#45;&gt;magistrate -->
<g id="edge34" class="edge">
<title>magistratME&#45;&gt;magistrate</title>
<path fill="none" stroke="black" d="M553,-85.7C553,-77.78 553,-68.83 553,-60.31"/>
<polygon fill="black" stroke="black" points="556.5,-60.24 553,-50.24 549.5,-60.24 556.5,-60.24"/>
</g>
<!-- masterME -->
<g id="node36" class="node">
<title>masterME</title>
<text text-anchor="start" x="245.5" y="-121.8" font-family="Times New Roman,serif" font-weight="bold" font-size="14.00">Middle</text>
<text text-anchor="start" x="244" y="-107.8" font-family="Times New Roman,serif" font-weight="bold" font-size="14.00">English</text>
<text text-anchor="start" x="248.5" y="-93.8" font-family="Times New Roman,serif" font-size="14.00" fill="red">master</text>
</g>
<!-- maegisterOE&#45;&gt;masterME -->
<g id="edge36" class="edge">
<title>maegisterOE&#45;&gt;masterME</title>
<path fill="none" stroke="black" d="M267,-276.88C267,-247.11 267,-185.29 267,-146.38"/>
<polygon fill="black" stroke="black" points="270.5,-146.06 267,-136.06 263.5,-146.06 270.5,-146.06"/>
</g>
<!-- master -->
<g id="node37" class="node">
<title>master</title>
<text text-anchor="start" x="270.5" y="-35.8" font-family="Times New Roman,serif" font-weight="bold" font-size="14.00">Modern</text>
<text text-anchor="start" x="272" y="-21.8" font-family="Times New Roman,serif" font-weight="bold" font-size="14.00">English</text>
<text text-anchor="start" x="276.5" y="-7.8" font-family="Times New Roman,serif" font-size="14.00" fill="red">master</text>
</g>
<!-- masterME&#45;&gt;master -->
<g id="edge37" class="edge">
<title>masterME&#45;&gt;master</title>
<path fill="none" stroke="black" d="M275.1,-85.7C277.8,-77.61 280.86,-68.43 283.75,-59.75"/>
<polygon fill="black" stroke="black" points="287.08,-60.84 286.92,-50.24 280.44,-58.62 287.08,-60.84"/>
</g>
<!-- mister -->
<g id="node38" class="node">
<title>mister</title>
<text text-anchor="start" x="187.5" y="-35.8" font-family="Times New Roman,serif" font-weight="bold" font-size="14.00">Modern</text>
<text text-anchor="start" x="189" y="-21.8" font-family="Times New Roman,serif" font-weight="bold" font-size="14.00">English</text>
<text text-anchor="start" x="195" y="-7.8" font-family="Times New Roman,serif" font-size="14.00" fill="red">mister</text>
</g>
<!-- masterME&#45;&gt;mister -->
<g id="edge38" class="edge">
<title>masterME&#45;&gt;mister</title>
<path fill="none" stroke="black" d="M251.09,-85.7C245.56,-77.26 239.27,-67.64 233.37,-58.64"/>
<polygon fill="black" stroke="black" points="236.28,-56.69 227.87,-50.24 230.42,-60.53 236.28,-56.69"/>
</g>
<!-- maistresseME -->
<g id="node40" class="node">
<title>maistresseME</title>
<text text-anchor="start" x="354.5" y="-213.8" font-family="Times New Roman,serif" font-weight="bold" font-size="14.00">Middle</text>
<text text-anchor="start" x="353" y="-199.8" font-family="Times New Roman,serif" font-weight="bold" font-size="14.00">English</text>
<text text-anchor="start" x="347" y="-185.8" font-family="Times New Roman,serif" font-size="14.00" fill="red">maistresse</text>
</g>
<!-- maistreOF&#45;&gt;maistresseME -->
<g id="edge40" class="edge">
<title>maistreOF&#45;&gt;maistresseME</title>
<path fill="none" stroke="black" stroke-dasharray="5,2" d="M373.8,-269.88C374.13,-260.2 374.5,-248.85 374.86,-238.34"/>
<polygon fill="black" stroke="black" points="378.36,-238.3 375.19,-228.18 371.36,-238.06 378.36,-238.3"/>
</g>
<!-- mistress -->
<g id="node41" class="node">
<title>mistress</title>
<text text-anchor="start" x="353.5" y="-35.8" font-family="Times New Roman,serif" font-weight="bold" font-size="14.00">Modern</text>
<text text-anchor="start" x="355" y="-21.8" font-family="Times New Roman,serif" font-weight="bold" font-size="14.00">English</text>
<text text-anchor="start" x="355" y="-7.8" font-family="Times New Roman,serif" font-size="14.00" fill="red">mistress</text>
</g>
<!-- maistresseME&#45;&gt;mistress -->
<g id="edge41" class="edge">
<title>maistresseME&#45;&gt;mistress</title>
<path fill="none" stroke="black" d="M376.27,-177.9C376.62,-147.44 377.22,-94.82 377.61,-60.21"/>
<polygon fill="black" stroke="black" points="381.11,-60.13 377.73,-50.09 374.11,-60.05 381.11,-60.13"/>
</g>
</g>
</svg>
