<?xml version="1.0" encoding="UTF-8" standalone="no"?>
<!DOCTYPE svg PUBLIC "-//W3C//DTD SVG 1.1//EN"
 "http://www.w3.org/Graphics/SVG/1.1/DTD/svg11.dtd">
<!-- Generated by graphviz version 2.49.0 (20210828.1703)
 -->
<!-- Pages: 1 -->
<svg width="807pt" height="708pt"
 viewBox="0.00 0.00 807.00 708.00" xmlns="http://www.w3.org/2000/svg" xmlns:xlink="http://www.w3.org/1999/xlink">
<g id="graph0" class="graph" transform="scale(1 1) rotate(0) translate(4 704)">
<polygon fill="white" stroke="transparent" points="-4,4 -4,-704 803,-704 803,4 -4,4"/>
<!-- meg -->
<g id="node1" class="node">
<title>meg</title>
<g id="a_node1"><a xlink:href="meg-great0.svg" xlink:title="Indo&#45;European &quot;*meg&#45;&quot; great">
<polygon fill="none" stroke="black" stroke-dasharray="5,2" points="395,-700 184,-700 184,-596 395,-596 395,-700"/>
<text text-anchor="start" x="211.5" y="-655.8" font-family="Times New Roman,serif" font-weight="bold" font-size="24.00">Indo&#45;European</text>
<text text-anchor="start" x="229.5" y="-627.6" font-family="Times New Roman,serif" font-size="18.00" fill="red">*meg&#45;</text>
<text text-anchor="start" x="319.5" y="-628.2" font-family="Times New Roman,serif" font-size="16.00">great</text>
</a>
</g>
</g>
<!-- magsamo -->
<g id="node2" class="node">
<title>magsamo</title>
<text text-anchor="start" x="414.5" y="-531.8" font-family="Times New Roman,serif" font-size="14.00" fill="red">*mag&#45;samo&#45;</text>
<text text-anchor="start" x="431.5" y="-519.4" font-family="Times New Roman,serif" font-size="12.00">greatest</text>
</g>
<!-- meg&#45;&gt;magsamo -->
<g id="edge1" class="edge">
<title>meg&#45;&gt;magsamo</title>
<path fill="none" stroke="black" d="M359.68,-595.68C379.98,-580.83 401.15,-565.36 417.83,-553.16"/>
<polygon fill="black" stroke="black" points="420.11,-555.83 426.11,-547.1 415.98,-550.18 420.11,-555.83"/>
</g>
<!-- megeisto -->
<g id="node10" class="node">
<title>megeisto</title>
<text text-anchor="start" x="165" y="-531.8" font-family="Times New Roman,serif" font-size="14.00" fill="red">*meg&#45;(ə)&#45;isto&#45;</text>
<text text-anchor="start" x="186.5" y="-519.4" font-family="Times New Roman,serif" font-size="12.00">greatest</text>
</g>
<!-- meg&#45;&gt;megeisto -->
<g id="edge9" class="edge">
<title>meg&#45;&gt;megeisto</title>
<path fill="none" stroke="black" d="M252.22,-595.68C242.02,-581.65 231.42,-567.06 222.81,-555.2"/>
<polygon fill="black" stroke="black" points="225.63,-553.13 216.92,-547.1 219.97,-557.25 225.63,-553.13"/>
</g>
<!-- magya -->
<g id="node22" class="node">
<title>magya</title>
<text text-anchor="start" x="64.5" y="-531.8" font-family="Times New Roman,serif" font-size="14.00" fill="red">*mag&#45;ya&#45;</text>
<text text-anchor="start" x="54" y="-519.4" font-family="Times New Roman,serif" font-size="12.00">she who is great</text>
</g>
<!-- meg&#45;&gt;magya -->
<g id="edge21" class="edge">
<title>meg&#45;&gt;magya</title>
<path fill="none" stroke="black" d="M202.51,-595.85C176.52,-580.57 149.37,-564.61 128.31,-552.23"/>
<polygon fill="black" stroke="black" points="130.08,-549.21 119.68,-547.16 126.53,-555.24 130.08,-549.21"/>
</g>
<!-- megel -->
<g id="node28" class="node">
<title>megel</title>
<text text-anchor="start" x="355.5" y="-428.3" font-family="Times New Roman,serif" font-size="14.00" fill="red">*meg&#45;ə&#45;(l&#45;)</text>
</g>
<!-- meg&#45;&gt;megel -->
<g id="edge27" class="edge">
<title>meg&#45;&gt;megel</title>
<path fill="none" stroke="black" d="M333.68,-595.88C341.85,-584.6 349.63,-572.33 355.5,-560 370.93,-527.58 379.13,-486.73 383.14,-460.25"/>
<polygon fill="black" stroke="black" points="386.63,-460.57 384.57,-450.18 379.7,-459.59 386.63,-460.57"/>
</g>
<!-- maximusL -->
<g id="node3" class="node">
<title>maximusL</title>
<text text-anchor="start" x="592" y="-351.8" font-family="Times New Roman,serif" font-weight="bold" font-size="14.00">Latin</text>
<text text-anchor="start" x="583.5" y="-337.8" font-family="Times New Roman,serif" font-size="14.00" fill="red">maximus</text>
</g>
<!-- magsamo&#45;&gt;maximusL -->
<g id="edge2" class="edge">
<title>magsamo&#45;&gt;maximusL</title>
<path fill="none" stroke="black" d="M464.75,-510.84C493,-479.03 553.6,-410.81 586.37,-373.92"/>
<polygon fill="black" stroke="black" points="589.28,-375.91 593.3,-366.11 584.04,-371.26 589.28,-375.91"/>
</g>
<!-- maximumL -->
<g id="node4" class="node">
<title>maximumL</title>
<text text-anchor="start" x="581" y="-272.3" font-family="Times New Roman,serif" font-size="14.00" fill="red">maximum</text>
</g>
<!-- maximusL&#45;&gt;maximumL -->
<g id="edge3" class="edge">
<title>maximusL&#45;&gt;maximumL</title>
<path fill="none" stroke="black" d="M608.5,-329.7C608.5,-321.98 608.5,-312.71 608.5,-304.11"/>
<polygon fill="black" stroke="black" points="612,-304.1 608.5,-294.1 605,-304.1 612,-304.1"/>
</g>
<!-- maximaL -->
<g id="node6" class="node">
<title>maximaL</title>
<text text-anchor="start" x="670" y="-278.8" font-family="Times New Roman,serif" font-size="14.00" fill="red">maxima (prōppositiō)</text>
<text text-anchor="start" x="689.5" y="-266.4" font-family="Times New Roman,serif" font-size="12.00">greatest (promise)</text>
</g>
<!-- maximusL&#45;&gt;maximaL -->
<g id="edge5" class="edge">
<title>maximusL&#45;&gt;maximaL</title>
<path fill="none" stroke="black" d="M638.34,-329.88C654.44,-320.64 674.5,-309.13 691.79,-299.21"/>
<polygon fill="black" stroke="black" points="693.61,-302.2 700.54,-294.19 690.13,-296.13 693.61,-302.2"/>
</g>
<!-- maximum -->
<g id="node5" class="node">
<title>maximum</title>
<text text-anchor="start" x="602" y="-35.8" font-family="Times New Roman,serif" font-weight="bold" font-size="14.00">Modern</text>
<text text-anchor="start" x="603.5" y="-21.8" font-family="Times New Roman,serif" font-weight="bold" font-size="14.00">English</text>
<text text-anchor="start" x="599" y="-7.8" font-family="Times New Roman,serif" font-size="14.00" fill="red">maximum</text>
</g>
<!-- maximumL&#45;&gt;maximum -->
<g id="edge4" class="edge">
<title>maximumL&#45;&gt;maximum</title>
<path fill="none" stroke="black" stroke-dasharray="5,2" d="M609.74,-257.89C612.67,-217.3 620.1,-114.58 624.01,-60.51"/>
<polygon fill="black" stroke="black" points="627.51,-60.6 624.74,-50.37 620.53,-60.1 627.51,-60.6"/>
</g>
<!-- maximeOF -->
<g id="node7" class="node">
<title>maximeOF</title>
<text text-anchor="start" x="695.5" y="-200.8" font-family="Times New Roman,serif" font-weight="bold" font-size="14.00">Old French</text>
<text text-anchor="start" x="709" y="-186.8" font-family="Times New Roman,serif" font-size="14.00" fill="red">maxime</text>
</g>
<!-- maximaL&#45;&gt;maximeOF -->
<g id="edge6" class="edge">
<title>maximaL&#45;&gt;maximeOF</title>
<path fill="none" stroke="black" d="M730.5,-257.91C730.5,-248.34 730.5,-236.18 730.5,-225.32"/>
<polygon fill="black" stroke="black" points="734,-225.04 730.5,-215.04 727,-225.04 734,-225.04"/>
</g>
<!-- maximeME -->
<g id="node8" class="node">
<title>maximeME</title>
<text text-anchor="start" x="709" y="-121.8" font-family="Times New Roman,serif" font-weight="bold" font-size="14.00">Middle</text>
<text text-anchor="start" x="707.5" y="-107.8" font-family="Times New Roman,serif" font-weight="bold" font-size="14.00">English</text>
<text text-anchor="start" x="709" y="-93.8" font-family="Times New Roman,serif" font-size="14.00" fill="red">maxime</text>
</g>
<!-- maximeOF&#45;&gt;maximeME -->
<g id="edge7" class="edge">
<title>maximeOF&#45;&gt;maximeME</title>
<path fill="none" stroke="black" stroke-dasharray="5,2" d="M730.5,-178.6C730.5,-169.27 730.5,-157.45 730.5,-146.37"/>
<polygon fill="black" stroke="black" points="734,-146.07 730.5,-136.07 727,-146.07 734,-146.07"/>
</g>
<!-- maxim -->
<g id="node9" class="node">
<title>maxim</title>
<text text-anchor="start" x="706" y="-35.8" font-family="Times New Roman,serif" font-weight="bold" font-size="14.00">Modern</text>
<text text-anchor="start" x="707.5" y="-21.8" font-family="Times New Roman,serif" font-weight="bold" font-size="14.00">English</text>
<text text-anchor="start" x="712" y="-7.8" font-family="Times New Roman,serif" font-size="14.00" fill="red">maxim</text>
</g>
<!-- maximeME&#45;&gt;maxim -->
<g id="edge8" class="edge">
<title>maximeME&#45;&gt;maxim</title>
<path fill="none" stroke="black" d="M730.5,-85.7C730.5,-77.78 730.5,-68.83 730.5,-60.31"/>
<polygon fill="black" stroke="black" points="734,-60.24 730.5,-50.24 727,-60.24 734,-60.24"/>
</g>
<!-- megistosGk -->
<g id="node11" class="node">
<title>megistosGk</title>
<text text-anchor="start" x="184.5" y="-435.8" font-family="Times New Roman,serif" font-weight="bold" font-size="14.00">Greek</text>
<text text-anchor="start" x="179.5" y="-421.8" font-family="Times New Roman,serif" font-size="14.00" fill="red">megistos</text>
</g>
<!-- megeisto&#45;&gt;megistosGk -->
<g id="edge10" class="edge">
<title>megeisto&#45;&gt;megistosGk</title>
<path fill="none" stroke="black" d="M204.5,-510.58C204.5,-496.65 204.5,-476.86 204.5,-460.76"/>
<polygon fill="black" stroke="black" points="208,-460.31 204.5,-450.31 201,-460.31 208,-460.31"/>
</g>
<!-- megisteGk -->
<g id="node12" class="node">
<title>megisteGk</title>
<text text-anchor="start" x="136" y="-344.3" font-family="Times New Roman,serif" font-size="14.00" fill="red">megistē</text>
</g>
<!-- megistosGk&#45;&gt;megisteGk -->
<g id="edge11" class="edge">
<title>megistosGk&#45;&gt;megisteGk</title>
<path fill="none" stroke="black" d="M194.53,-413.61C188.07,-402.34 179.54,-387.45 172.29,-374.81"/>
<polygon fill="black" stroke="black" points="175.3,-373.02 167.29,-366.08 169.23,-376.5 175.3,-373.02"/>
</g>
<!-- trismegistosGk -->
<g id="node19" class="node">
<title>trismegistosGk</title>
<text text-anchor="start" x="214.5" y="-344.3" font-family="Times New Roman,serif" font-size="14.00" fill="red">Hermēs trismegistos</text>
</g>
<!-- megistosGk&#45;&gt;trismegistosGk -->
<g id="edge17" class="edge">
<title>megistosGk&#45;&gt;trismegistosGk</title>
<path fill="none" stroke="black" d="M218.71,-413.61C228.1,-402.12 240.56,-386.87 251.01,-374.07"/>
<polygon fill="black" stroke="black" points="253.92,-376.04 257.54,-366.08 248.5,-371.61 253.92,-376.04"/>
</g>
<!-- almajistiA -->
<g id="node13" class="node">
<title>almajistiA</title>
<text text-anchor="start" x="131.5" y="-279.8" font-family="Times New Roman,serif" font-weight="bold" font-size="14.00" fill="green">Arabic</text>
<text text-anchor="start" x="128" y="-265.8" font-family="Times New Roman,serif" font-size="14.00" fill="red">al&#45;majisti</text>
</g>
<!-- megisteGk&#45;&gt;almajistiA -->
<g id="edge12" class="edge">
<title>megisteGk&#45;&gt;almajistiA</title>
<path fill="none" stroke="black" stroke-dasharray="5,2" d="M156.26,-329.7C155.71,-321.98 155.05,-312.71 154.44,-304.11"/>
<polygon fill="black" stroke="black" points="157.93,-303.83 153.72,-294.1 150.94,-304.33 157.93,-303.83"/>
</g>
<!-- almagesteOF -->
<g id="node14" class="node">
<title>almagesteOF</title>
<text text-anchor="start" x="108.5" y="-200.8" font-family="Times New Roman,serif" font-weight="bold" font-size="14.00">Old French</text>
<text text-anchor="start" x="116" y="-186.8" font-family="Times New Roman,serif" font-size="14.00" fill="red">almageste</text>
</g>
<!-- almajistiA&#45;&gt;almagesteOF -->
<g id="edge13" class="edge">
<title>almajistiA&#45;&gt;almagesteOF</title>
<path fill="none" stroke="black" stroke-dasharray="5,2" d="M150.5,-257.91C149.37,-248.24 147.93,-235.93 146.65,-224.98"/>
<polygon fill="black" stroke="black" points="150.13,-224.57 145.49,-215.04 143.18,-225.38 150.13,-224.57"/>
</g>
<!-- almagesteME -->
<g id="node15" class="node">
<title>almagesteME</title>
<text text-anchor="start" x="119" y="-121.8" font-family="Times New Roman,serif" font-weight="bold" font-size="14.00">Middle</text>
<text text-anchor="start" x="117.5" y="-107.8" font-family="Times New Roman,serif" font-weight="bold" font-size="14.00">English</text>
<text text-anchor="start" x="113" y="-93.8" font-family="Times New Roman,serif" font-size="14.00" fill="red">almageste</text>
</g>
<!-- almagesteOF&#45;&gt;almagesteME -->
<g id="edge14" class="edge">
<title>almagesteOF&#45;&gt;almagesteME</title>
<path fill="none" stroke="black" stroke-dasharray="5,2" d="M142.88,-178.6C142.55,-169.27 142.12,-157.45 141.73,-146.37"/>
<polygon fill="black" stroke="black" points="145.21,-145.94 141.36,-136.07 138.22,-146.19 145.21,-145.94"/>
</g>
<!-- almagest -->
<g id="node16" class="node">
<title>almagest</title>
<text text-anchor="start" x="114" y="-35.8" font-family="Times New Roman,serif" font-weight="bold" font-size="14.00">Modern</text>
<text text-anchor="start" x="115.5" y="-21.8" font-family="Times New Roman,serif" font-weight="bold" font-size="14.00">English</text>
<text text-anchor="start" x="114" y="-7.8" font-family="Times New Roman,serif" font-size="14.00" fill="red">almagest</text>
</g>
<!-- almagesteME&#45;&gt;almagest -->
<g id="edge15" class="edge">
<title>almagesteME&#45;&gt;almagest</title>
<path fill="none" stroke="black" d="M139.92,-85.7C139.73,-77.78 139.52,-68.83 139.32,-60.31"/>
<polygon fill="black" stroke="black" points="142.81,-60.16 139.08,-50.24 135.82,-60.32 142.81,-60.16"/>
</g>
<!-- treiIE -->
<g id="node17" class="node">
<title>treiIE</title>
<g id="a_node17"><a xlink:href="trei-three4.svg" xlink:title="&lt;b&gt;Indo&#45;&lt;br/&gt;European&lt;/b&gt;&lt;br/&gt;&lt;font color=&quot;red&quot;&gt;*trei&#45;&lt;/font&gt;&lt;br/&gt;&lt;font point&#45;size=&quot;12&quot;&gt;three&lt;/font&gt;">
<path fill="none" stroke="black" stroke-dasharray="5,2" d="M335,-560C335,-560 282,-560 282,-560 276,-560 270,-554 270,-548 270,-548 270,-510 270,-510 270,-504 276,-498 282,-498 282,-498 335,-498 335,-498 341,-498 347,-504 347,-510 347,-510 347,-548 347,-548 347,-554 341,-560 335,-560"/>
<text text-anchor="start" x="292" y="-545.8" font-family="Times New Roman,serif" font-weight="bold" font-size="14.00">Indo&#45;</text>
<text text-anchor="start" x="278" y="-531.8" font-family="Times New Roman,serif" font-weight="bold" font-size="14.00">European</text>
<text text-anchor="start" x="294" y="-517.8" font-family="Times New Roman,serif" font-size="14.00" fill="red">*trei&#45;</text>
<text text-anchor="start" x="297" y="-505.4" font-family="Times New Roman,serif" font-size="12.00">three</text>
</a>
</g>
</g>
<!-- trisGk -->
<g id="node18" class="node">
<title>trisGk</title>
<text text-anchor="start" x="274.5" y="-441.8" font-family="Times New Roman,serif" font-weight="bold" font-size="14.00">Greek</text>
<text text-anchor="start" x="285.5" y="-427.8" font-family="Times New Roman,serif" font-size="14.00" fill="red">tris</text>
<text text-anchor="start" x="282" y="-415.4" font-family="Times New Roman,serif" font-size="12.00">thrice</text>
</g>
<!-- treiIE&#45;&gt;trisGk -->
<g id="edge16" class="edge">
<title>treiIE&#45;&gt;trisGk</title>
<path fill="none" stroke="black" d="M304.07,-497.94C302.58,-487.83 300.91,-476.5 299.39,-466.16"/>
<polygon fill="black" stroke="black" points="302.85,-465.62 297.92,-456.24 295.92,-466.64 302.85,-465.62"/>
</g>
<!-- trisGk&#45;&gt;trismegistosGk -->
<g id="edge18" class="edge">
<title>trisGk&#45;&gt;trismegistosGk</title>
<path fill="none" stroke="black" d="M287.97,-407.72C285.18,-397.78 281.91,-386.11 279.02,-375.81"/>
<polygon fill="black" stroke="black" points="282.36,-374.76 276.29,-366.08 275.62,-376.65 282.36,-374.76"/>
</g>
<!-- trismegistusL -->
<g id="node20" class="node">
<title>trismegistusL</title>
<text text-anchor="start" x="243" y="-207.8" font-family="Times New Roman,serif" font-weight="bold" font-size="14.00">Medieval</text>
<text text-anchor="start" x="255" y="-193.8" font-family="Times New Roman,serif" font-weight="bold" font-size="14.00">Latin</text>
<text text-anchor="start" x="212.5" y="-179.8" font-family="Times New Roman,serif" font-size="14.00" fill="red">Hermēs Trismegistus</text>
</g>
<!-- trismegistosGk&#45;&gt;trismegistusL -->
<g id="edge19" class="edge">
<title>trismegistosGk&#45;&gt;trismegistusL</title>
<path fill="none" stroke="black" stroke-dasharray="5,2" d="M271.5,-329.91C271.5,-306.18 271.5,-262.74 271.5,-232.21"/>
<polygon fill="black" stroke="black" points="275,-232 271.5,-222 268,-232 275,-232"/>
</g>
<!-- trismegistus -->
<g id="node21" class="node">
<title>trismegistus</title>
<text text-anchor="start" x="232" y="-35.8" font-family="Times New Roman,serif" font-weight="bold" font-size="14.00">Modern</text>
<text text-anchor="start" x="233.5" y="-21.8" font-family="Times New Roman,serif" font-weight="bold" font-size="14.00">English</text>
<text text-anchor="start" x="197.5" y="-7.8" font-family="Times New Roman,serif" font-size="14.00" fill="red">Hermes Trismegistus</text>
</g>
<!-- trismegistusL&#45;&gt;trismegistus -->
<g id="edge20" class="edge">
<title>trismegistusL&#45;&gt;trismegistus</title>
<path fill="none" stroke="black" stroke-dasharray="5,2" d="M269.35,-171.64C266.77,-142.4 262.43,-93.17 259.51,-60.15"/>
<polygon fill="black" stroke="black" points="262.99,-59.69 258.62,-50.04 256.01,-60.31 262.99,-59.69"/>
</g>
<!-- maiaL -->
<g id="node23" class="node">
<title>maiaL</title>
<text text-anchor="start" x="66" y="-447.8" font-family="Times New Roman,serif" font-weight="bold" font-size="14.00">Latin</text>
<text text-anchor="start" x="68.5" y="-433.8" font-family="Times New Roman,serif" font-size="14.00" fill="red">Māia</text>
<text text-anchor="start" x="58" y="-421.4" font-family="Times New Roman,serif" font-size="12.00">(name of a</text>
<text text-anchor="start" x="61.5" y="-409.4" font-family="Times New Roman,serif" font-size="12.00">goddess)</text>
</g>
<!-- magya&#45;&gt;maiaL -->
<g id="edge22" class="edge">
<title>magya&#45;&gt;maiaL</title>
<path fill="none" stroke="black" d="M89.03,-510.58C88.14,-499.92 86.95,-485.85 85.84,-472.61"/>
<polygon fill="black" stroke="black" points="89.29,-471.93 84.96,-462.25 82.32,-472.51 89.29,-471.93"/>
</g>
<!-- maiusL -->
<g id="node24" class="node">
<title>maiusL</title>
<text text-anchor="start" x="11" y="-350.8" font-family="Times New Roman,serif" font-size="14.00" fill="red">Māius (mēnsis)</text>
<text text-anchor="start" x="8" y="-338.4" font-family="Times New Roman,serif" font-size="12.00">(the month) of Maia</text>
</g>
<!-- maiaL&#45;&gt;maiusL -->
<g id="edge23" class="edge">
<title>maiaL&#45;&gt;maiusL</title>
<path fill="none" stroke="black" d="M72.19,-401.86C69.18,-393.35 65.91,-384.1 62.96,-375.74"/>
<polygon fill="black" stroke="black" points="66.19,-374.37 59.55,-366.11 59.59,-376.71 66.19,-374.37"/>
</g>
<!-- maiOF -->
<g id="node25" class="node">
<title>maiOF</title>
<text text-anchor="start" x="17.5" y="-279.8" font-family="Times New Roman,serif" font-weight="bold" font-size="14.00">Old French</text>
<text text-anchor="start" x="41.5" y="-265.8" font-family="Times New Roman,serif" font-size="14.00" fill="red">Mai</text>
</g>
<!-- maiusL&#45;&gt;maiOF -->
<g id="edge24" class="edge">
<title>maiusL&#45;&gt;maiOF</title>
<path fill="none" stroke="black" d="M53.25,-329.7C53.14,-321.98 53.01,-312.71 52.89,-304.11"/>
<polygon fill="black" stroke="black" points="56.39,-304.05 52.74,-294.1 49.39,-304.15 56.39,-304.05"/>
</g>
<!-- mayME -->
<g id="node26" class="node">
<title>mayME</title>
<text text-anchor="start" x="30" y="-207.8" font-family="Times New Roman,serif" font-weight="bold" font-size="14.00">Middle</text>
<text text-anchor="start" x="28.5" y="-193.8" font-family="Times New Roman,serif" font-weight="bold" font-size="14.00">English</text>
<text text-anchor="start" x="39" y="-179.8" font-family="Times New Roman,serif" font-size="14.00" fill="red">May</text>
</g>
<!-- maiOF&#45;&gt;mayME -->
<g id="edge25" class="edge">
<title>maiOF&#45;&gt;mayME</title>
<path fill="none" stroke="black" stroke-dasharray="5,2" d="M52.28,-257.91C52.18,-250.33 52.06,-241.13 51.94,-232.23"/>
<polygon fill="black" stroke="black" points="55.44,-232 51.81,-222.05 48.44,-232.09 55.44,-232"/>
</g>
<!-- may -->
<g id="node27" class="node">
<title>may</title>
<text text-anchor="start" x="27" y="-35.8" font-family="Times New Roman,serif" font-weight="bold" font-size="14.00">Modern</text>
<text text-anchor="start" x="28.5" y="-21.8" font-family="Times New Roman,serif" font-weight="bold" font-size="14.00">English</text>
<text text-anchor="start" x="39" y="-7.8" font-family="Times New Roman,serif" font-size="14.00" fill="red">May</text>
</g>
<!-- mayME&#45;&gt;may -->
<g id="edge26" class="edge">
<title>mayME&#45;&gt;may</title>
<path fill="none" stroke="black" d="M51.5,-171.64C51.5,-142.4 51.5,-93.17 51.5,-60.15"/>
<polygon fill="black" stroke="black" points="55,-60.04 51.5,-50.04 48,-60.04 55,-60.04"/>
</g>
<!-- megasGk -->
<g id="node29" class="node">
<title>megasGk</title>
<text text-anchor="start" x="419.5" y="-206.8" font-family="Times New Roman,serif" font-weight="bold" font-size="14.00">Greek</text>
<text text-anchor="start" x="399.5" y="-192.8" font-family="Times New Roman,serif" font-size="14.00" fill="red">megas, megal&#45;</text>
<text text-anchor="start" x="428" y="-180.4" font-family="Times New Roman,serif" font-size="12.00">great</text>
</g>
<!-- megel&#45;&gt;megasGk -->
<g id="edge28" class="edge">
<title>megel&#45;&gt;megasGk</title>
<path fill="none" stroke="black" d="M390.4,-413.87C399.15,-375.41 420.48,-281.64 431.93,-231.28"/>
<polygon fill="black" stroke="black" points="435.41,-231.75 434.22,-221.23 428.59,-230.2 435.41,-231.75"/>
</g>
<!-- megaGk -->
<g id="node30" class="node">
<title>megaGk</title>
<text text-anchor="start" x="357.5" y="-107.3" font-family="Times New Roman,serif" font-size="14.00" fill="red">mega&#45;</text>
</g>
<!-- megasGk&#45;&gt;megaGk -->
<g id="edge29" class="edge">
<title>megasGk&#45;&gt;megaGk</title>
<path fill="none" stroke="black" d="M421.39,-172.6C412.89,-161.62 402.74,-148.5 394.07,-137.29"/>
<polygon fill="black" stroke="black" points="396.66,-134.91 387.77,-129.15 391.12,-139.2 396.66,-134.91"/>
</g>
<!-- megaloGk -->
<g id="node32" class="node">
<title>megaloGk</title>
<text text-anchor="start" x="429" y="-107.3" font-family="Times New Roman,serif" font-size="14.00" fill="red">megalo&#45;</text>
</g>
<!-- megasGk&#45;&gt;megaloGk -->
<g id="edge31" class="edge">
<title>megasGk&#45;&gt;megaloGk</title>
<path fill="none" stroke="black" d="M442.84,-172.6C444.32,-162.26 446.07,-150.04 447.6,-139.28"/>
<polygon fill="black" stroke="black" points="451.1,-139.54 449.05,-129.15 444.17,-138.55 451.1,-139.54"/>
</g>
<!-- omegaGk -->
<g id="node34" class="node">
<title>omegaGk</title>
<text text-anchor="start" x="519.5" y="-120.8" font-family="Times New Roman,serif" font-weight="bold" font-size="14.00">Greek</text>
<text text-anchor="start" x="519" y="-106.8" font-family="Times New Roman,serif" font-size="14.00" fill="red">ō mega</text>
<text text-anchor="start" x="509" y="-94.4" font-family="Times New Roman,serif" font-size="12.00">large (long) o</text>
</g>
<!-- megasGk&#45;&gt;omegaGk -->
<g id="edge33" class="edge">
<title>megasGk&#45;&gt;omegaGk</title>
<path fill="none" stroke="black" d="M467.09,-172.82C478.57,-163.18 492.03,-151.88 504.21,-141.64"/>
<polygon fill="black" stroke="black" points="506.59,-144.21 512,-135.1 502.09,-138.85 506.59,-144.21"/>
</g>
<!-- mega -->
<g id="node31" class="node">
<title>mega</title>
<text text-anchor="start" x="350" y="-35.8" font-family="Times New Roman,serif" font-weight="bold" font-size="14.00">Modern</text>
<text text-anchor="start" x="351.5" y="-21.8" font-family="Times New Roman,serif" font-weight="bold" font-size="14.00">English</text>
<text text-anchor="start" x="357.5" y="-7.8" font-family="Times New Roman,serif" font-size="14.00" fill="red">mega&#45;</text>
</g>
<!-- megaGk&#45;&gt;mega -->
<g id="edge30" class="edge">
<title>megaGk&#45;&gt;mega</title>
<path fill="none" stroke="black" stroke-dasharray="5,2" d="M374.5,-92.6C374.5,-83.27 374.5,-71.45 374.5,-60.37"/>
<polygon fill="black" stroke="black" points="378,-60.07 374.5,-50.07 371,-60.07 378,-60.07"/>
</g>
<!-- megalo -->
<g id="node33" class="node">
<title>megalo</title>
<text text-anchor="start" x="433" y="-35.8" font-family="Times New Roman,serif" font-weight="bold" font-size="14.00">Modern</text>
<text text-anchor="start" x="434.5" y="-21.8" font-family="Times New Roman,serif" font-weight="bold" font-size="14.00">English</text>
<text text-anchor="start" x="435" y="-7.8" font-family="Times New Roman,serif" font-size="14.00" fill="red">megalo&#45;</text>
</g>
<!-- megaloGk&#45;&gt;megalo -->
<g id="edge32" class="edge">
<title>megaloGk&#45;&gt;megalo</title>
<path fill="none" stroke="black" stroke-dasharray="5,2" d="M452.74,-92.6C453.41,-83.27 454.25,-71.45 455.05,-60.37"/>
<polygon fill="black" stroke="black" points="458.56,-60.3 455.78,-50.07 451.58,-59.8 458.56,-60.3"/>
</g>
<!-- omega -->
<g id="node35" class="node">
<title>omega</title>
<text text-anchor="start" x="516" y="-35.8" font-family="Times New Roman,serif" font-weight="bold" font-size="14.00">Modern</text>
<text text-anchor="start" x="517.5" y="-21.8" font-family="Times New Roman,serif" font-weight="bold" font-size="14.00">English</text>
<text text-anchor="start" x="522" y="-7.8" font-family="Times New Roman,serif" font-size="14.00" fill="red">omega</text>
</g>
<!-- omegaGk&#45;&gt;omega -->
<g id="edge34" class="edge">
<title>omegaGk&#45;&gt;omega</title>
<path fill="none" stroke="black" stroke-dasharray="5,2" d="M539.78,-86.6C539.88,-78.44 539.99,-69.1 540.09,-60.23"/>
<polygon fill="black" stroke="black" points="543.59,-60.19 540.21,-50.15 536.59,-60.11 543.59,-60.19"/>
</g>
</g>
</svg>
