<?xml version="1.0" encoding="UTF-8" standalone="no"?>
<!DOCTYPE svg PUBLIC "-//W3C//DTD SVG 1.1//EN"
 "http://www.w3.org/Graphics/SVG/1.1/DTD/svg11.dtd">
<!-- Generated by graphviz version 2.49.0 (20210828.1703)
 -->
<!-- Pages: 1 -->
<svg width="500pt" height="921pt"
 viewBox="0.00 0.00 500.00 921.00" xmlns="http://www.w3.org/2000/svg" xmlns:xlink="http://www.w3.org/1999/xlink">
<g id="graph0" class="graph" transform="scale(1 1) rotate(0) translate(4 917)">
<polygon fill="white" stroke="transparent" points="-4,4 -4,-917 496,-917 496,4 -4,4"/>
<!-- ndherIE -->
<g id="node1" class="node">
<title>ndherIE</title>
<g id="a_node1"><a xlink:title="Indo&#45;European &quot;*n̥dher&#45;&quot; under">
<polygon fill="none" stroke="black" points="382,-909 171,-909 171,-805 382,-805 382,-909"/>
<polygon fill="none" stroke="black" points="386,-913 167,-913 167,-801 386,-801 386,-913"/>
<text text-anchor="start" x="198.5" y="-864.8" font-family="Times New Roman,serif" font-weight="bold" font-size="24.00">Indo&#45;European</text>
<text text-anchor="start" x="214.5" y="-836.6" font-family="Times New Roman,serif" font-size="18.00" fill="red">*n̥der&#45;</text>
<text text-anchor="start" x="303" y="-837.2" font-family="Times New Roman,serif" font-size="16.00">under</text>
</a>
</g>
</g>
<!-- underGmc -->
<g id="node2" class="node">
<title>underGmc</title>
<text text-anchor="start" x="113" y="-743.8" font-family="Times New Roman,serif" font-weight="bold" font-size="14.00">Germanic</text>
<text text-anchor="start" x="122" y="-729.8" font-family="Times New Roman,serif" font-size="14.00" fill="red">*under&#45;</text>
</g>
<!-- ndherIE&#45;&gt;underGmc -->
<g id="edge1" class="edge">
<title>ndherIE&#45;&gt;underGmc</title>
<path fill="none" stroke="black" d="M212.73,-800.86C197.96,-788.09 183.02,-775.17 170.81,-764.61"/>
<polygon fill="black" stroke="black" points="173.07,-761.94 163.21,-758.05 168.49,-767.23 173.07,-761.94"/>
</g>
<!-- inferusL -->
<g id="node12" class="node">
<title>inferusL</title>
<text text-anchor="start" x="218" y="-749.8" font-family="Times New Roman,serif" font-weight="bold" font-size="14.00">Latin</text>
<text text-anchor="start" x="214.5" y="-735.8" font-family="Times New Roman,serif" font-size="14.00" fill="red">īnferus</text>
<text text-anchor="start" x="226" y="-723.4" font-family="Times New Roman,serif" font-size="12.00">low</text>
</g>
<!-- ndherIE&#45;&gt;inferusL -->
<g id="edge11" class="edge">
<title>ndherIE&#45;&gt;inferusL</title>
<path fill="none" stroke="black" d="M256.36,-800.86C252.97,-791.58 249.55,-782.21 246.46,-773.74"/>
<polygon fill="black" stroke="black" points="249.71,-772.45 242.99,-764.25 243.14,-774.85 249.71,-772.45"/>
</g>
<!-- infernusL -->
<g id="node16" class="node">
<title>infernusL</title>
<text text-anchor="start" x="277" y="-529.8" font-family="Times New Roman,serif" font-weight="bold" font-size="14.00">Latin</text>
<text text-anchor="start" x="270.5" y="-515.8" font-family="Times New Roman,serif" font-size="14.00" fill="red">īnfernus</text>
<text text-anchor="start" x="270" y="-503.4" font-family="Times New Roman,serif" font-size="12.00">lower, hell</text>
</g>
<!-- ndherIE&#45;&gt;infernusL -->
<g id="edge15" class="edge">
<title>ndherIE&#45;&gt;infernusL</title>
<path fill="none" stroke="black" d="M279.31,-800.68C282.87,-730.53 288.89,-611.78 291.81,-554.24"/>
<polygon fill="black" stroke="black" points="295.31,-554.39 292.32,-544.23 288.32,-554.04 295.31,-554.39"/>
</g>
<!-- infraL -->
<g id="node23" class="node">
<title>infraL</title>
<text text-anchor="start" x="380" y="-683.8" font-family="Times New Roman,serif" font-weight="bold" font-size="14.00">Latin</text>
<text text-anchor="start" x="383" y="-669.8" font-family="Times New Roman,serif" font-size="14.00" fill="red">īnfrā</text>
<text text-anchor="start" x="382.5" y="-657.4" font-family="Times New Roman,serif" font-size="12.00">below</text>
</g>
<!-- ndherIE&#45;&gt;infraL -->
<g id="edge22" class="edge">
<title>ndherIE&#45;&gt;infraL</title>
<path fill="none" stroke="black" d="M313.16,-800.71C333.5,-770.02 358.09,-732.93 375.27,-707.02"/>
<polygon fill="black" stroke="black" points="378.41,-708.62 381.02,-698.36 372.57,-704.76 378.41,-708.62"/>
</g>
<!-- underOE -->
<g id="node3" class="node">
<title>underOE</title>
<text text-anchor="start" x="8" y="-617.8" font-family="Times New Roman,serif" font-weight="bold" font-size="14.00">Old English</text>
<text text-anchor="start" x="28.5" y="-603.8" font-family="Times New Roman,serif" font-size="14.00" fill="red">under</text>
<text text-anchor="start" x="26" y="-589.8" font-family="Times New Roman,serif" font-size="14.00" fill="red">under&#45;</text>
</g>
<!-- underGmc&#45;&gt;underOE -->
<g id="edge2" class="edge">
<title>underGmc&#45;&gt;underOE</title>
<path fill="none" stroke="black" d="M130.56,-721.87C114.95,-701.22 88.39,-666.07 68.89,-640.28"/>
<polygon fill="black" stroke="black" points="71.66,-638.13 62.83,-632.26 66.07,-642.35 71.66,-638.13"/>
</g>
<!-- unterOHG -->
<g id="node6" class="node">
<title>unterOHG</title>
<text text-anchor="start" x="115.5" y="-617.8" font-family="Times New Roman,serif" font-weight="bold" font-size="14.00">Old High</text>
<text text-anchor="start" x="118" y="-603.8" font-family="Times New Roman,serif" font-weight="bold" font-size="14.00">German</text>
<text text-anchor="start" x="129.5" y="-589.8" font-family="Times New Roman,serif" font-size="14.00" fill="red">unter</text>
</g>
<!-- underGmc&#45;&gt;unterOHG -->
<g id="edge5" class="edge">
<title>underGmc&#45;&gt;unterOHG</title>
<path fill="none" stroke="black" d="M143.5,-721.87C143.5,-701.76 143.5,-667.89 143.5,-642.31"/>
<polygon fill="black" stroke="black" points="147,-642.26 143.5,-632.26 140,-642.26 147,-642.26"/>
</g>
<!-- underME -->
<g id="node4" class="node">
<title>underME</title>
<text text-anchor="start" x="23" y="-462.8" font-family="Times New Roman,serif" font-weight="bold" font-size="14.00">Middle</text>
<text text-anchor="start" x="21.5" y="-448.8" font-family="Times New Roman,serif" font-weight="bold" font-size="14.00">English</text>
<text text-anchor="start" x="28.5" y="-434.8" font-family="Times New Roman,serif" font-size="14.00" fill="red">under</text>
<text text-anchor="start" x="26" y="-420.8" font-family="Times New Roman,serif" font-size="14.00" fill="red">under&#45;</text>
</g>
<!-- underOE&#45;&gt;underME -->
<g id="edge3" class="edge">
<title>underOE&#45;&gt;underME</title>
<path fill="none" stroke="black" d="M44.5,-581.7C44.5,-556.68 44.5,-517.22 44.5,-487.28"/>
<polygon fill="black" stroke="black" points="48,-487.13 44.5,-477.13 41,-487.13 48,-487.13"/>
</g>
<!-- under -->
<g id="node5" class="node">
<title>under</title>
<text text-anchor="start" x="20" y="-49.8" font-family="Times New Roman,serif" font-weight="bold" font-size="14.00">Modern</text>
<text text-anchor="start" x="21.5" y="-35.8" font-family="Times New Roman,serif" font-weight="bold" font-size="14.00">English</text>
<text text-anchor="start" x="28.5" y="-21.8" font-family="Times New Roman,serif" font-size="14.00" fill="red">under</text>
<text text-anchor="start" x="26" y="-7.8" font-family="Times New Roman,serif" font-size="14.00" fill="red">under&#45;</text>
</g>
<!-- underME&#45;&gt;under -->
<g id="edge4" class="edge">
<title>underME&#45;&gt;under</title>
<path fill="none" stroke="black" d="M44.5,-412.95C44.5,-387.23 44.5,-349.74 44.5,-317 44.5,-317 44.5,-317 44.5,-139 44.5,-117.63 44.5,-93.83 44.5,-74.21"/>
<polygon fill="black" stroke="black" points="48,-74.08 44.5,-64.08 41,-74.08 48,-74.08"/>
</g>
<!-- unterMHG -->
<g id="node7" class="node">
<title>unterMHG</title>
<text text-anchor="start" x="103.5" y="-530.8" font-family="Times New Roman,serif" font-weight="bold" font-size="14.00">Middle High</text>
<text text-anchor="start" x="116" y="-516.8" font-family="Times New Roman,serif" font-weight="bold" font-size="14.00">German</text>
<text text-anchor="start" x="127.5" y="-502.8" font-family="Times New Roman,serif" font-size="14.00" fill="red">unter</text>
</g>
<!-- unterOHG&#45;&gt;unterMHG -->
<g id="edge6" class="edge">
<title>unterOHG&#45;&gt;unterMHG</title>
<path fill="none" stroke="black" d="M142.93,-581.87C142.74,-573.61 142.52,-564.22 142.31,-555.31"/>
<polygon fill="black" stroke="black" points="145.8,-555.11 142.07,-545.19 138.81,-555.27 145.8,-555.11"/>
</g>
<!-- unterGm -->
<g id="node8" class="node">
<title>unterGm</title>
<text text-anchor="start" x="107" y="-380.8" font-family="Times New Roman,serif" font-weight="bold" font-size="14.00">German</text>
<text text-anchor="start" x="118.5" y="-366.8" font-family="Times New Roman,serif" font-size="14.00" fill="red">unter</text>
</g>
<!-- unterMHG&#45;&gt;unterGm -->
<g id="edge7" class="edge">
<title>unterMHG&#45;&gt;unterGm</title>
<path fill="none" stroke="black" d="M139.95,-494.76C138.37,-469.96 135.91,-431.48 134.26,-405.54"/>
<polygon fill="black" stroke="black" points="137.73,-405.02 133.6,-395.27 130.75,-405.47 137.73,-405.02"/>
</g>
<!-- unterseebootGm -->
<g id="node9" class="node">
<title>unterseebootGm</title>
<text text-anchor="start" x="90.5" y="-257.8" font-family="Times New Roman,serif" font-size="14.00" fill="red">Unterseeboot</text>
<text text-anchor="start" x="91" y="-245.4" font-family="Times New Roman,serif" font-size="12.00">&quot;under sea boat&quot;</text>
</g>
<!-- unterGm&#45;&gt;unterseebootGm -->
<g id="edge8" class="edge">
<title>unterGm&#45;&gt;unterseebootGm</title>
<path fill="none" stroke="black" d="M131.93,-358.81C131.27,-339.11 130.19,-306.58 129.41,-283.39"/>
<polygon fill="black" stroke="black" points="132.9,-283.04 129.07,-273.16 125.91,-283.27 132.9,-283.04"/>
</g>
<!-- ubootGm -->
<g id="node10" class="node">
<title>ubootGm</title>
<text text-anchor="start" x="106" y="-136.3" font-family="Times New Roman,serif" font-size="14.00" fill="red">U&#45;Boot</text>
</g>
<!-- unterseebootGm&#45;&gt;ubootGm -->
<g id="edge9" class="edge">
<title>unterseebootGm&#45;&gt;ubootGm</title>
<path fill="none" stroke="black" d="M128.35,-236.84C128.19,-218.67 127.93,-189.72 127.74,-168.39"/>
<polygon fill="black" stroke="black" points="131.24,-168.29 127.65,-158.32 124.24,-168.35 131.24,-168.29"/>
</g>
<!-- uboat -->
<g id="node11" class="node">
<title>uboat</title>
<text text-anchor="start" x="103" y="-42.8" font-family="Times New Roman,serif" font-weight="bold" font-size="14.00">Modern</text>
<text text-anchor="start" x="104.5" y="-28.8" font-family="Times New Roman,serif" font-weight="bold" font-size="14.00">English</text>
<text text-anchor="start" x="107.5" y="-14.8" font-family="Times New Roman,serif" font-size="14.00" fill="red">U&#45;boat</text>
</g>
<!-- ubootGm&#45;&gt;uboat -->
<g id="edge10" class="edge">
<title>ubootGm&#45;&gt;uboat</title>
<path fill="none" stroke="black" stroke-dasharray="5,2" d="M127.5,-121.97C127.5,-107.22 127.5,-85.45 127.5,-67.13"/>
<polygon fill="black" stroke="black" points="131,-67.1 127.5,-57.1 124,-67.1 131,-67.1"/>
<text text-anchor="middle" x="144.5" y="-85.8" font-family="Times New Roman,serif" font-size="14.00">transl.</text>
</g>
<!-- inferiorL -->
<g id="node13" class="node">
<title>inferiorL</title>
<text text-anchor="start" x="210.5" y="-609.8" font-family="Times New Roman,serif" font-size="14.00" fill="red">īnferior</text>
<text text-anchor="start" x="218.5" y="-597.4" font-family="Times New Roman,serif" font-size="12.00">lower</text>
</g>
<!-- inferusL&#45;&gt;inferiorL -->
<g id="edge12" class="edge">
<title>inferusL&#45;&gt;inferiorL</title>
<path fill="none" stroke="black" d="M233.97,-715.88C233.45,-693.33 232.67,-659.04 232.12,-635.19"/>
<polygon fill="black" stroke="black" points="235.62,-634.97 231.89,-625.05 228.62,-635.13 235.62,-634.97"/>
</g>
<!-- inferiorME -->
<g id="node14" class="node">
<title>inferiorME</title>
<text text-anchor="start" x="199" y="-326.8" font-family="Times New Roman,serif" font-weight="bold" font-size="14.00">Middle</text>
<text text-anchor="start" x="197.5" y="-312.8" font-family="Times New Roman,serif" font-weight="bold" font-size="14.00">English</text>
<text text-anchor="start" x="200.5" y="-298.8" font-family="Times New Roman,serif" font-size="14.00" fill="red">inferior</text>
</g>
<!-- inferiorL&#45;&gt;inferiorME -->
<g id="edge13" class="edge">
<title>inferiorL&#45;&gt;inferiorME</title>
<path fill="none" stroke="black" stroke-dasharray="5,2" d="M230.84,-588.79C229.07,-542.26 224.17,-413.35 221.8,-351.27"/>
<polygon fill="black" stroke="black" points="225.3,-351.06 221.42,-341.2 218.3,-351.33 225.3,-351.06"/>
</g>
<!-- inferior -->
<g id="node15" class="node">
<title>inferior</title>
<text text-anchor="start" x="186" y="-42.8" font-family="Times New Roman,serif" font-weight="bold" font-size="14.00">Modern</text>
<text text-anchor="start" x="187.5" y="-28.8" font-family="Times New Roman,serif" font-weight="bold" font-size="14.00">English</text>
<text text-anchor="start" x="190.5" y="-14.8" font-family="Times New Roman,serif" font-size="14.00" fill="red">inferior</text>
</g>
<!-- inferiorME&#45;&gt;inferior -->
<g id="edge14" class="edge">
<title>inferiorME&#45;&gt;inferior</title>
<path fill="none" stroke="black" d="M219.65,-290.96C217.87,-240.93 213.78,-125.47 211.72,-67.51"/>
<polygon fill="black" stroke="black" points="215.22,-67.25 211.36,-57.38 208.22,-67.5 215.22,-67.25"/>
</g>
<!-- infernalisL -->
<g id="node17" class="node">
<title>infernalisL</title>
<text text-anchor="start" x="267.5" y="-373.3" font-family="Times New Roman,serif" font-size="14.00" fill="red">īnfernālis</text>
</g>
<!-- infernusL&#45;&gt;infernalisL -->
<g id="edge16" class="edge">
<title>infernusL&#45;&gt;infernalisL</title>
<path fill="none" stroke="black" d="M293.5,-495.72C293.5,-470.83 293.5,-431.42 293.5,-405.14"/>
<polygon fill="black" stroke="black" points="297,-405.1 293.5,-395.1 290,-405.1 297,-405.1"/>
</g>
<!-- infernoI -->
<g id="node21" class="node">
<title>infernoI</title>
<text text-anchor="start" x="353.5" y="-204.8" font-family="Times New Roman,serif" font-weight="bold" font-size="14.00">Italian</text>
<text text-anchor="start" x="353.5" y="-190.8" font-family="Times New Roman,serif" font-size="14.00" fill="red">inferno</text>
</g>
<!-- infernusL&#45;&gt;infernoI -->
<g id="edge20" class="edge">
<title>infernusL&#45;&gt;infernoI</title>
<path fill="none" stroke="black" d="M302.77,-495.54C312.27,-470.84 326.95,-430.66 336.5,-395 352.08,-336.81 363.77,-267.08 369.52,-229.4"/>
<polygon fill="black" stroke="black" points="373.03,-229.64 371.05,-219.23 366.11,-228.6 373.03,-229.64"/>
</g>
<!-- infernalOF -->
<g id="node18" class="node">
<title>infernalOF</title>
<text text-anchor="start" x="258.5" y="-258.8" font-family="Times New Roman,serif" font-weight="bold" font-size="14.00">Old French</text>
<text text-anchor="start" x="273" y="-244.8" font-family="Times New Roman,serif" font-size="14.00" fill="red">infernal</text>
</g>
<!-- infernalisL&#45;&gt;infernalOF -->
<g id="edge17" class="edge">
<title>infernalisL&#45;&gt;infernalOF</title>
<path fill="none" stroke="black" d="M293.5,-358.81C293.5,-339.11 293.5,-306.58 293.5,-283.39"/>
<polygon fill="black" stroke="black" points="297,-283.16 293.5,-273.16 290,-283.16 297,-283.16"/>
</g>
<!-- infernalME -->
<g id="node19" class="node">
<title>infernalME</title>
<text text-anchor="start" x="272" y="-150.8" font-family="Times New Roman,serif" font-weight="bold" font-size="14.00">Middle</text>
<text text-anchor="start" x="270.5" y="-136.8" font-family="Times New Roman,serif" font-weight="bold" font-size="14.00">English</text>
<text text-anchor="start" x="273" y="-122.8" font-family="Times New Roman,serif" font-size="14.00" fill="red">infernal</text>
</g>
<!-- infernalOF&#45;&gt;infernalME -->
<g id="edge18" class="edge">
<title>infernalOF&#45;&gt;infernalME</title>
<path fill="none" stroke="black" stroke-dasharray="5,2" d="M293.5,-236.84C293.5,-220.54 293.5,-195.57 293.5,-175.2"/>
<polygon fill="black" stroke="black" points="297,-175.04 293.5,-165.04 290,-175.04 297,-175.04"/>
</g>
<!-- infernal -->
<g id="node20" class="node">
<title>infernal</title>
<text text-anchor="start" x="269" y="-42.8" font-family="Times New Roman,serif" font-weight="bold" font-size="14.00">Modern</text>
<text text-anchor="start" x="270.5" y="-28.8" font-family="Times New Roman,serif" font-weight="bold" font-size="14.00">English</text>
<text text-anchor="start" x="273" y="-14.8" font-family="Times New Roman,serif" font-size="14.00" fill="red">infernal</text>
</g>
<!-- infernalME&#45;&gt;infernal -->
<g id="edge19" class="edge">
<title>infernalME&#45;&gt;infernal</title>
<path fill="none" stroke="black" d="M293.5,-114.95C293.5,-100.95 293.5,-83.07 293.5,-67.59"/>
<polygon fill="black" stroke="black" points="297,-67.32 293.5,-57.32 290,-67.32 297,-67.32"/>
</g>
<!-- inferno -->
<g id="node22" class="node">
<title>inferno</title>
<text text-anchor="start" x="352" y="-42.8" font-family="Times New Roman,serif" font-weight="bold" font-size="14.00">Modern</text>
<text text-anchor="start" x="353.5" y="-28.8" font-family="Times New Roman,serif" font-weight="bold" font-size="14.00">English</text>
<text text-anchor="start" x="356.5" y="-14.8" font-family="Times New Roman,serif" font-size="14.00" fill="red">inferno</text>
</g>
<!-- infernoI&#45;&gt;inferno -->
<g id="edge21" class="edge">
<title>infernoI&#45;&gt;inferno</title>
<path fill="none" stroke="black" stroke-dasharray="5,2" d="M373.81,-182.76C374.3,-155.64 375.25,-102.52 375.88,-67.39"/>
<polygon fill="black" stroke="black" points="379.39,-67.17 376.07,-57.11 372.39,-67.05 379.39,-67.17"/>
</g>
<!-- infra -->
<g id="node24" class="node">
<title>infra</title>
<text text-anchor="start" x="435" y="-42.8" font-family="Times New Roman,serif" font-weight="bold" font-size="14.00">Modern</text>
<text text-anchor="start" x="436.5" y="-28.8" font-family="Times New Roman,serif" font-weight="bold" font-size="14.00">English</text>
<text text-anchor="start" x="444.5" y="-14.8" font-family="Times New Roman,serif" font-size="14.00" fill="red">infra&#45;</text>
</g>
<!-- infraL&#45;&gt;infra -->
<g id="edge23" class="edge">
<title>infraL&#45;&gt;infra</title>
<path fill="none" stroke="black" stroke-dasharray="5,2" d="M419.6,-649.69C437.58,-629 459.5,-597 459.5,-564 459.5,-564 459.5,-564 459.5,-139 459.5,-115.18 459.5,-88.35 459.5,-67.64"/>
<polygon fill="black" stroke="black" points="463,-67.42 459.5,-57.42 456,-67.42 463,-67.42"/>
</g>
</g>
</svg>
