<?xml version="1.0" encoding="UTF-8" standalone="no"?>
<!DOCTYPE svg PUBLIC "-//W3C//DTD SVG 1.1//EN"
 "http://www.w3.org/Graphics/SVG/1.1/DTD/svg11.dtd">
<!-- Generated by graphviz version 2.49.0 (20210828.1703)
 -->
<!-- Pages: 1 -->
<svg width="1060pt" height="722pt"
 viewBox="0.00 0.00 1059.50 722.00" xmlns="http://www.w3.org/2000/svg" xmlns:xlink="http://www.w3.org/1999/xlink">
<g id="graph0" class="graph" transform="scale(1 1) rotate(0) translate(4 718)">
<polygon fill="white" stroke="transparent" points="-4,4 -4,-718 1055.5,-718 1055.5,4 -4,4"/>
<!-- neIE -->
<g id="node1" class="node">
<title>neIE</title>
<g id="a_node1"><a xlink:href="ne-not0.svg" xlink:title="&lt;font point&#45;size=&quot;24&quot;&gt;&lt;b&gt;Indo&#45;European&lt;/b&gt;&lt;/font&gt;&lt;br/&gt;&lt;font point&#45;size=&quot;18&quot; color=&quot;red&quot;&gt;*ne &lt;/font&gt;&lt;font point&#45;size=&quot;16&quot;&gt;not&lt;/font&gt;">
<path fill="none" stroke="black" stroke-dasharray="5,2" d="M770,-708C770,-708 621,-708 621,-708 615,-708 609,-702 609,-696 609,-696 609,-670 609,-670 609,-664 615,-658 621,-658 621,-658 770,-658 770,-658 776,-658 782,-664 782,-670 782,-670 782,-696 782,-696 782,-702 776,-708 770,-708"/>
<text text-anchor="start" x="617" y="-685.8" font-family="Times New Roman,serif" font-weight="bold" font-size="24.00">Indo&#45;European</text>
<text text-anchor="start" x="669.5" y="-666.6" font-family="Times New Roman,serif" font-size="18.00" fill="red">*ne </text>
<text text-anchor="start" x="700.5" y="-666.6" font-family="Times New Roman,serif" font-size="16.00">not</text>
</a>
</g>
</g>
<!-- neGm -->
<g id="node5" class="node">
<title>neGm</title>
<text text-anchor="start" x="683" y="-601.8" font-family="Times New Roman,serif" font-weight="bold" font-size="14.00">Germanic</text>
<text text-anchor="start" x="685.5" y="-587.8" font-family="Times New Roman,serif" font-size="14.00" fill="red">*ne&#45;, *na&#45;</text>
</g>
<!-- neIE&#45;&gt;neGm -->
<g id="edge3" class="edge">
<title>neIE&#45;&gt;neGm</title>
<path fill="none" stroke="black" d="M700.71,-657.99C702.86,-648.04 705.38,-636.45 707.6,-626.19"/>
<polygon fill="black" stroke="black" points="711.09,-626.62 709.79,-616.1 704.25,-625.13 711.09,-626.62"/>
</g>
<!-- aiwIE -->
<g id="node2" class="node">
<title>aiwIE</title>
<g id="a_node2"><a xlink:href="aiw-life.svg" xlink:title="&lt;b&gt;Indo&#45;&lt;br/&gt;European&lt;/b&gt;&lt;br/&gt;&lt;font color=&quot;red&quot;&gt;*aiw&#45;, *ayu&#45;&lt;/font&gt;&lt;br/&gt;&lt;font point&#45;size=&quot;12&quot;&gt;life, eternity&lt;/font&gt;">
<path fill="none" stroke="black" stroke-dasharray="5,2" d="M542,-714C542,-714 481,-714 481,-714 475,-714 469,-708 469,-702 469,-702 469,-664 469,-664 469,-658 475,-652 481,-652 481,-652 542,-652 542,-652 548,-652 554,-658 554,-664 554,-664 554,-702 554,-702 554,-708 548,-714 542,-714"/>
<text text-anchor="start" x="495" y="-699.8" font-family="Times New Roman,serif" font-weight="bold" font-size="14.00">Indo&#45;</text>
<text text-anchor="start" x="481" y="-685.8" font-family="Times New Roman,serif" font-weight="bold" font-size="14.00">European</text>
<text text-anchor="start" x="477" y="-671.8" font-family="Times New Roman,serif" font-size="14.00" fill="red">*aiw&#45;, *ayu&#45;</text>
<text text-anchor="start" x="485.5" y="-659.4" font-family="Times New Roman,serif" font-size="12.00">life, eternity</text>
</a>
</g>
</g>
<!-- aiwiGm -->
<g id="node3" class="node">
<title>aiwiGm</title>
<text text-anchor="start" x="481" y="-601.8" font-family="Times New Roman,serif" font-weight="bold" font-size="14.00">Germanic</text>
<text text-anchor="start" x="494.5" y="-587.8" font-family="Times New Roman,serif" font-size="14.00" fill="red">*aiwi&#45;</text>
</g>
<!-- aiwIE&#45;&gt;aiwiGm -->
<g id="edge1" class="edge">
<title>aiwIE&#45;&gt;aiwiGm</title>
<path fill="none" stroke="black" d="M511.5,-651.57C511.5,-643.33 511.5,-634.47 511.5,-626.41"/>
<polygon fill="black" stroke="black" points="515,-626.4 511.5,-616.4 508,-626.4 515,-626.4"/>
</g>
<!-- aOE -->
<g id="node4" class="node">
<title>aOE</title>
<text text-anchor="start" x="475" y="-522.8" font-family="Times New Roman,serif" font-weight="bold" font-size="14.00">Old English</text>
<text text-anchor="start" x="508" y="-508.8" font-family="Times New Roman,serif" font-size="14.00" fill="red">ā</text>
<text text-anchor="start" x="501.5" y="-496.4" font-family="Times New Roman,serif" font-size="12.00">ever</text>
</g>
<!-- aiwiGm&#45;&gt;aOE -->
<g id="edge2" class="edge">
<title>aiwiGm&#45;&gt;aOE</title>
<path fill="none" stroke="black" d="M511.5,-579.8C511.5,-570.45 511.5,-558.55 511.5,-547.45"/>
<polygon fill="black" stroke="black" points="515,-547.16 511.5,-537.16 508,-547.16 515,-547.16"/>
</g>
<!-- aefreOE -->
<g id="node16" class="node">
<title>aefreOE</title>
<text text-anchor="start" x="582" y="-522.8" font-family="Times New Roman,serif" font-weight="bold" font-size="14.00">Germanic</text>
<text text-anchor="start" x="600" y="-508.8" font-family="Times New Roman,serif" font-size="14.00" fill="red">æfre</text>
<text text-anchor="start" x="602.5" y="-496.4" font-family="Times New Roman,serif" font-size="12.00">ever</text>
</g>
<!-- aiwiGm&#45;&gt;aefreOE -->
<g id="edge15" class="edge">
<title>aiwiGm&#45;&gt;aefreOE</title>
<path fill="none" stroke="black" d="M532.43,-579.8C545.1,-569.39 561.62,-555.82 576.35,-543.71"/>
<polygon fill="black" stroke="black" points="578.82,-546.21 584.32,-537.16 574.37,-540.8 578.82,-546.21"/>
</g>
<!-- eiON -->
<g id="node43" class="node">
<title>eiON</title>
<text text-anchor="start" x="376.5" y="-516.8" font-family="Times New Roman,serif" font-weight="bold" font-size="14.00">Old Norse</text>
<text text-anchor="start" x="403.5" y="-502.8" font-family="Times New Roman,serif" font-size="14.00" fill="red">ei</text>
</g>
<!-- aiwiGm&#45;&gt;eiON -->
<g id="edge43" class="edge">
<title>aiwiGm&#45;&gt;eiON</title>
<path fill="none" stroke="black" d="M490.16,-579.8C474.97,-567.56 454.37,-550.96 437.66,-537.5"/>
<polygon fill="black" stroke="black" points="439.8,-534.72 429.81,-531.18 435.4,-540.18 439.8,-534.72"/>
</g>
<!-- naOE -->
<g id="node7" class="node">
<title>naOE</title>
<text text-anchor="start" x="516" y="-418.3" font-family="Times New Roman,serif" font-size="14.00" fill="red">nā</text>
</g>
<!-- aOE&#45;&gt;naOE -->
<g id="edge5" class="edge">
<title>aOE&#45;&gt;naOE</title>
<path fill="none" stroke="black" d="M514.39,-488.62C515.85,-476.83 517.62,-462.46 519.14,-450.18"/>
<polygon fill="black" stroke="black" points="522.64,-450.4 520.39,-440.04 515.69,-449.54 522.64,-450.4"/>
</g>
<!-- neOE -->
<g id="node6" class="node">
<title>neOE</title>
<text text-anchor="start" x="677" y="-516.8" font-family="Times New Roman,serif" font-weight="bold" font-size="14.00">Old English</text>
<text text-anchor="start" x="707" y="-502.8" font-family="Times New Roman,serif" font-size="14.00" fill="red">ne</text>
</g>
<!-- neGm&#45;&gt;neOE -->
<g id="edge4" class="edge">
<title>neGm&#45;&gt;neOE</title>
<path fill="none" stroke="black" d="M713.5,-579.8C713.5,-568.67 713.5,-553.94 713.5,-541.24"/>
<polygon fill="black" stroke="black" points="717,-541.18 713.5,-531.18 710,-541.18 717,-541.18"/>
</g>
<!-- niOHG -->
<g id="node49" class="node">
<title>niOHG</title>
<text text-anchor="start" x="891.5" y="-529.8" font-family="Times New Roman,serif" font-weight="bold" font-size="14.00">Old High</text>
<text text-anchor="start" x="894" y="-515.8" font-family="Times New Roman,serif" font-weight="bold" font-size="14.00">German</text>
<text text-anchor="start" x="914.5" y="-501.8" font-family="Times New Roman,serif" font-size="14.00" fill="red">ni</text>
<text text-anchor="start" x="903.5" y="-489.4" font-family="Times New Roman,serif" font-size="12.00">not, no</text>
</g>
<!-- neGm&#45;&gt;niOHG -->
<g id="edge48" class="edge">
<title>neGm&#45;&gt;niOHG</title>
<path fill="none" stroke="black" d="M752.08,-587.24C785.18,-578.17 833.69,-563.18 873.5,-544 873.81,-543.85 874.11,-543.7 874.42,-543.55"/>
<polygon fill="black" stroke="black" points="876.17,-546.59 883.34,-538.79 872.87,-540.41 876.17,-546.59"/>
</g>
<!-- neOE&#45;&gt;naOE -->
<g id="edge6" class="edge">
<title>neOE&#45;&gt;naOE</title>
<path fill="none" stroke="black" d="M684.78,-494.96C676.73,-490.49 667.89,-485.84 659.5,-482 617.31,-462.67 603.43,-465.87 561.5,-446 560.66,-445.6 559.82,-445.19 558.97,-444.77"/>
<polygon fill="black" stroke="black" points="560.34,-441.54 549.86,-439.97 557.07,-447.73 560.34,-441.54"/>
</g>
<!-- nanOE -->
<g id="node13" class="node">
<title>nanOE</title>
<text text-anchor="start" x="804.5" y="-418.3" font-family="Times New Roman,serif" font-size="14.00" fill="red">nān</text>
</g>
<!-- neOE&#45;&gt;nanOE -->
<g id="edge11" class="edge">
<title>neOE&#45;&gt;nanOE</title>
<path fill="none" stroke="black" d="M732.97,-494.84C748.48,-481.17 770.37,-461.89 787.56,-446.74"/>
<polygon fill="black" stroke="black" points="789.9,-449.34 795.09,-440.11 785.27,-444.09 789.9,-449.34"/>
</g>
<!-- naefreOE -->
<g id="node17" class="node">
<title>naefreOE</title>
<text text-anchor="start" x="690.5" y="-418.3" font-family="Times New Roman,serif" font-size="14.00" fill="red">næfre</text>
</g>
<!-- neOE&#45;&gt;naefreOE -->
<g id="edge16" class="edge">
<title>neOE&#45;&gt;naefreOE</title>
<path fill="none" stroke="black" d="M712.15,-494.84C711.15,-482.16 709.78,-464.64 708.63,-450.08"/>
<polygon fill="black" stroke="black" points="712.12,-449.8 707.85,-440.11 705.14,-450.35 712.12,-449.8"/>
</g>
<!-- noME -->
<g id="node8" class="node">
<title>noME</title>
<text text-anchor="start" x="506" y="-234.8" font-family="Times New Roman,serif" font-weight="bold" font-size="14.00">Middle</text>
<text text-anchor="start" x="504.5" y="-220.8" font-family="Times New Roman,serif" font-weight="bold" font-size="14.00">English</text>
<text text-anchor="start" x="520" y="-206.8" font-family="Times New Roman,serif" font-size="14.00" fill="red">no</text>
</g>
<!-- naOE&#45;&gt;noME -->
<g id="edge7" class="edge">
<title>naOE&#45;&gt;noME</title>
<path fill="none" stroke="black" d="M522.93,-403.95C523.76,-371.75 525.55,-301.45 526.63,-259.18"/>
<polygon fill="black" stroke="black" points="530.13,-259.16 526.89,-249.08 523.13,-258.99 530.13,-259.16"/>
</g>
<!-- nawihtOE -->
<g id="node23" class="node">
<title>nawihtOE</title>
<text text-anchor="start" x="214" y="-326.3" font-family="Times New Roman,serif" font-size="14.00" fill="red">nāwiht</text>
</g>
<!-- naOE&#45;&gt;nawihtOE -->
<g id="edge22" class="edge">
<title>naOE&#45;&gt;nawihtOE</title>
<path fill="none" stroke="black" d="M495.31,-413.91C455.71,-403.42 379.97,-382.77 316.5,-362 300.9,-356.89 283.87,-350.72 269.25,-345.24"/>
<polygon fill="black" stroke="black" points="270.15,-341.84 259.56,-341.57 267.67,-348.38 270.15,-341.84"/>
</g>
<!-- nathingOE -->
<g id="node34" class="node">
<title>nathingOE</title>
<text text-anchor="start" x="595.5" y="-326.3" font-family="Times New Roman,serif" font-size="14.00" fill="red">nāthing</text>
</g>
<!-- naOE&#45;&gt;nathingOE -->
<g id="edge33" class="edge">
<title>naOE&#45;&gt;nathingOE</title>
<path fill="none" stroke="black" d="M540.43,-403.65C554.58,-389.95 574.5,-370.68 590.26,-355.42"/>
<polygon fill="black" stroke="black" points="592.87,-357.77 597.62,-348.3 588,-352.74 592.87,-357.77"/>
</g>
<!-- nawtherOE -->
<g id="node40" class="node">
<title>nawtherOE</title>
<text text-anchor="start" x="334" y="-333.8" font-family="Times New Roman,serif" font-size="14.00" fill="red">nāhwæther</text>
<text text-anchor="start" x="342.5" y="-318.8" font-family="Times New Roman,serif" font-size="14.00" fill="red">nāwther</text>
</g>
<!-- naOE&#45;&gt;nawtherOE -->
<g id="edge39" class="edge">
<title>naOE&#45;&gt;nawtherOE</title>
<path fill="none" stroke="black" d="M495.34,-405.53C470.5,-391.38 433.42,-370.26 405.07,-354.11"/>
<polygon fill="black" stroke="black" points="406.62,-350.96 396.19,-349.05 403.15,-357.04 406.62,-350.96"/>
</g>
<!-- no1 -->
<g id="node9" class="node">
<title>no1</title>
<text text-anchor="start" x="511" y="-48.8" font-family="Times New Roman,serif" font-weight="bold" font-size="14.00">Modern</text>
<text text-anchor="start" x="512.5" y="-34.8" font-family="Times New Roman,serif" font-weight="bold" font-size="14.00">English</text>
<text text-anchor="start" x="528" y="-20.8" font-family="Times New Roman,serif" font-size="14.00" fill="red">no</text>
<text text-anchor="start" x="506" y="-8.4" font-family="Times New Roman,serif" font-size="12.00">(adv., interj.)</text>
</g>
<!-- noME&#45;&gt;no1 -->
<g id="edge8" class="edge">
<title>noME&#45;&gt;no1</title>
<path fill="none" stroke="black" d="M528.51,-198.94C529.84,-167.36 532.2,-111.48 533.8,-73.37"/>
<polygon fill="black" stroke="black" points="537.31,-73.26 534.23,-63.12 530.31,-72.97 537.31,-73.26"/>
</g>
<!-- norME -->
<g id="node31" class="node">
<title>norME</title>
<text text-anchor="start" x="438" y="-121.3" font-family="Times New Roman,serif" font-size="14.00" fill="red">nor</text>
</g>
<!-- noME&#45;&gt;norME -->
<g id="edge30" class="edge">
<title>noME&#45;&gt;norME</title>
<path fill="none" stroke="black" d="M507.31,-198.52C495.39,-184.07 480.34,-165.82 468.31,-151.24"/>
<polygon fill="black" stroke="black" points="470.69,-148.62 461.63,-143.13 465.29,-153.07 470.69,-148.62"/>
</g>
<!-- oinoIE -->
<g id="node10" class="node">
<title>oinoIE</title>
<g id="a_node10"><a xlink:href="oino-one0.svg" xlink:title="&lt;b&gt;Indo&#45;&lt;br/&gt;European&lt;/b&gt;&lt;br/&gt;&lt;font color=&quot;red&quot;&gt;*oi&#45;no&#45;&lt;/font&gt;&lt;br/&gt;&lt;font point&#45;size=&quot;12&quot;&gt;one&lt;/font&gt;">
<path fill="none" stroke="black" stroke-dasharray="5,2" d="M865,-714C865,-714 812,-714 812,-714 806,-714 800,-708 800,-702 800,-702 800,-664 800,-664 800,-658 806,-652 812,-652 812,-652 865,-652 865,-652 871,-652 877,-658 877,-664 877,-664 877,-702 877,-702 877,-708 871,-714 865,-714"/>
<text text-anchor="start" x="822" y="-699.8" font-family="Times New Roman,serif" font-weight="bold" font-size="14.00">Indo&#45;</text>
<text text-anchor="start" x="808" y="-685.8" font-family="Times New Roman,serif" font-weight="bold" font-size="14.00">European</text>
<text text-anchor="start" x="818" y="-671.8" font-family="Times New Roman,serif" font-size="14.00" fill="red">*oi&#45;no&#45;</text>
<text text-anchor="start" x="830" y="-659.4" font-family="Times New Roman,serif" font-size="12.00">one</text>
</a>
</g>
</g>
<!-- ainaGm -->
<g id="node11" class="node">
<title>ainaGm</title>
<text text-anchor="start" x="799" y="-601.8" font-family="Times New Roman,serif" font-weight="bold" font-size="14.00">Germanic</text>
<text text-anchor="start" x="812.5" y="-587.8" font-family="Times New Roman,serif" font-size="14.00" fill="red">*aina&#45;</text>
</g>
<!-- oinoIE&#45;&gt;ainaGm -->
<g id="edge9" class="edge">
<title>oinoIE&#45;&gt;ainaGm</title>
<path fill="none" stroke="black" d="M835.2,-651.57C834.31,-643.33 833.35,-634.47 832.47,-626.41"/>
<polygon fill="black" stroke="black" points="835.94,-625.96 831.39,-616.4 828.99,-626.72 835.94,-625.96"/>
</g>
<!-- anOE -->
<g id="node12" class="node">
<title>anOE</title>
<text text-anchor="start" x="784" y="-516.8" font-family="Times New Roman,serif" font-weight="bold" font-size="14.00">Old English</text>
<text text-anchor="start" x="814" y="-502.8" font-family="Times New Roman,serif" font-size="14.00" fill="red">ān</text>
</g>
<!-- ainaGm&#45;&gt;anOE -->
<g id="edge10" class="edge">
<title>ainaGm&#45;&gt;anOE</title>
<path fill="none" stroke="black" d="M827.64,-579.8C826.43,-568.67 824.83,-553.94 823.45,-541.24"/>
<polygon fill="black" stroke="black" points="826.92,-540.74 822.36,-531.18 819.96,-541.49 826.92,-540.74"/>
</g>
<!-- anOE&#45;&gt;nanOE -->
<g id="edge12" class="edge">
<title>anOE&#45;&gt;nanOE</title>
<path fill="none" stroke="black" d="M819.34,-494.84C818.5,-482.28 817.33,-464.98 816.35,-450.5"/>
<polygon fill="black" stroke="black" points="819.82,-449.85 815.65,-440.11 812.83,-450.32 819.82,-449.85"/>
</g>
<!-- nonME -->
<g id="node14" class="node">
<title>nonME</title>
<text text-anchor="start" x="792" y="-340.8" font-family="Times New Roman,serif" font-weight="bold" font-size="14.00">Middle</text>
<text text-anchor="start" x="790.5" y="-326.8" font-family="Times New Roman,serif" font-weight="bold" font-size="14.00">English</text>
<text text-anchor="start" x="792" y="-312.8" font-family="Times New Roman,serif" font-size="14.00" fill="red">non, no</text>
</g>
<!-- nanOE&#45;&gt;nonME -->
<g id="edge13" class="edge">
<title>nanOE&#45;&gt;nonME</title>
<path fill="none" stroke="black" d="M814.31,-403.65C814.19,-392.76 814.03,-378.36 813.88,-365.25"/>
<polygon fill="black" stroke="black" points="817.38,-365.06 813.77,-355.1 810.38,-365.14 817.38,-365.06"/>
</g>
<!-- noneME -->
<g id="node20" class="node">
<title>noneME</title>
<text text-anchor="start" x="862" y="-135.8" font-family="Times New Roman,serif" font-weight="bold" font-size="14.00">Middle</text>
<text text-anchor="start" x="860.5" y="-121.8" font-family="Times New Roman,serif" font-weight="bold" font-size="14.00">English</text>
<text text-anchor="start" x="869.5" y="-107.8" font-family="Times New Roman,serif" font-size="14.00" fill="red">none</text>
</g>
<!-- nanOE&#45;&gt;noneME -->
<g id="edge20" class="edge">
<title>nanOE&#45;&gt;noneME</title>
<path fill="none" stroke="black" d="M828.92,-403.83C837.51,-392.64 847.82,-377.31 853.5,-362 878.82,-293.74 883.5,-207.59 883.95,-160.55"/>
<polygon fill="black" stroke="black" points="887.45,-160.31 883.99,-150.3 880.45,-160.29 887.45,-160.31"/>
</g>
<!-- no2 -->
<g id="node15" class="node">
<title>no2</title>
<text text-anchor="start" x="788" y="-48.8" font-family="Times New Roman,serif" font-weight="bold" font-size="14.00">Modern</text>
<text text-anchor="start" x="789.5" y="-34.8" font-family="Times New Roman,serif" font-weight="bold" font-size="14.00">English</text>
<text text-anchor="start" x="805" y="-20.8" font-family="Times New Roman,serif" font-size="14.00" fill="red">no</text>
<text text-anchor="start" x="800" y="-8.4" font-family="Times New Roman,serif" font-size="12.00">(adj.)</text>
</g>
<!-- nonME&#45;&gt;no2 -->
<g id="edge14" class="edge">
<title>nonME&#45;&gt;no2</title>
<path fill="none" stroke="black" d="M813.42,-304.78C813.25,-254 812.85,-135.97 812.64,-73.48"/>
<polygon fill="black" stroke="black" points="816.14,-73.21 812.6,-63.22 809.14,-73.23 816.14,-73.21"/>
</g>
<!-- aefreOE&#45;&gt;naefreOE -->
<g id="edge17" class="edge">
<title>aefreOE&#45;&gt;naefreOE</title>
<path fill="none" stroke="black" d="M637.2,-488.62C650.66,-475.87 667.29,-460.12 680.89,-447.25"/>
<polygon fill="black" stroke="black" points="683.65,-449.46 688.5,-440.04 678.83,-444.38 683.65,-449.46"/>
</g>
<!-- neverME -->
<g id="node18" class="node">
<title>neverME</title>
<text text-anchor="start" x="685" y="-135.8" font-family="Times New Roman,serif" font-weight="bold" font-size="14.00">Middle</text>
<text text-anchor="start" x="683.5" y="-121.8" font-family="Times New Roman,serif" font-weight="bold" font-size="14.00">English</text>
<text text-anchor="start" x="691" y="-107.8" font-family="Times New Roman,serif" font-size="14.00" fill="red">never</text>
</g>
<!-- naefreOE&#45;&gt;neverME -->
<g id="edge18" class="edge">
<title>naefreOE&#45;&gt;neverME</title>
<path fill="none" stroke="black" d="M706.5,-403.86C706.5,-356.67 706.5,-224.1 706.5,-160.66"/>
<polygon fill="black" stroke="black" points="710,-160.38 706.5,-150.38 703,-160.38 710,-160.38"/>
</g>
<!-- never -->
<g id="node19" class="node">
<title>never</title>
<text text-anchor="start" x="682" y="-42.8" font-family="Times New Roman,serif" font-weight="bold" font-size="14.00">Modern</text>
<text text-anchor="start" x="683.5" y="-28.8" font-family="Times New Roman,serif" font-weight="bold" font-size="14.00">English</text>
<text text-anchor="start" x="691" y="-14.8" font-family="Times New Roman,serif" font-size="14.00" fill="red">never</text>
</g>
<!-- neverME&#45;&gt;never -->
<g id="edge19" class="edge">
<title>neverME&#45;&gt;never</title>
<path fill="none" stroke="black" d="M706.5,-99.61C706.5,-89.74 706.5,-78.17 706.5,-67.46"/>
<polygon fill="black" stroke="black" points="710,-67.14 706.5,-57.14 703,-67.14 710,-67.14"/>
</g>
<!-- none -->
<g id="node21" class="node">
<title>none</title>
<text text-anchor="start" x="871" y="-42.8" font-family="Times New Roman,serif" font-weight="bold" font-size="14.00">Modern</text>
<text text-anchor="start" x="872.5" y="-28.8" font-family="Times New Roman,serif" font-weight="bold" font-size="14.00">English</text>
<text text-anchor="start" x="881.5" y="-14.8" font-family="Times New Roman,serif" font-size="14.00" fill="red">none</text>
</g>
<!-- noneME&#45;&gt;none -->
<g id="edge21" class="edge">
<title>noneME&#45;&gt;none</title>
<path fill="none" stroke="black" d="M886.72,-99.61C888.03,-89.64 889.58,-77.93 891,-67.13"/>
<polygon fill="black" stroke="black" points="894.48,-67.51 892.32,-57.14 887.54,-66.59 894.48,-67.51"/>
</g>
<!-- wihtOE -->
<g id="node22" class="node">
<title>wihtOE</title>
<text text-anchor="start" x="196" y="-431.8" font-family="Times New Roman,serif" font-weight="bold" font-size="14.00">Old English</text>
<text text-anchor="start" x="220.5" y="-417.8" font-family="Times New Roman,serif" font-size="14.00" fill="red">wiht</text>
<text text-anchor="start" x="221.5" y="-405.4" font-family="Times New Roman,serif" font-size="12.00">thing</text>
</g>
<!-- wihtOE&#45;&gt;nawihtOE -->
<g id="edge23" class="edge">
<title>wihtOE&#45;&gt;nawihtOE</title>
<path fill="none" stroke="black" d="M232.5,-397.82C232.5,-385.82 232.5,-371.08 232.5,-358.5"/>
<polygon fill="black" stroke="black" points="236,-358.13 232.5,-348.13 229,-358.13 236,-358.13"/>
</g>
<!-- naughtME -->
<g id="node24" class="node">
<title>naughtME</title>
<text text-anchor="start" x="192" y="-247.8" font-family="Times New Roman,serif" font-weight="bold" font-size="14.00">Middle</text>
<text text-anchor="start" x="190.5" y="-233.8" font-family="Times New Roman,serif" font-weight="bold" font-size="14.00">English</text>
<text text-anchor="start" x="195" y="-219.8" font-family="Times New Roman,serif" font-size="14.00" fill="red">naught</text>
<text text-anchor="start" x="194" y="-205.8" font-family="Times New Roman,serif" font-size="14.00" fill="red">nought</text>
<text text-anchor="start" x="186.5" y="-193.4" font-family="Times New Roman,serif" font-size="12.00">nothing, evil</text>
</g>
<!-- nawihtOE&#45;&gt;naughtME -->
<g id="edge24" class="edge">
<title>nawihtOE&#45;&gt;naughtME</title>
<path fill="none" stroke="black" d="M229.36,-311.83C227.38,-300.96 224.71,-286.35 222.12,-272.21"/>
<polygon fill="black" stroke="black" points="225.51,-271.26 220.27,-262.06 218.62,-272.52 225.51,-271.26"/>
</g>
<!-- naught -->
<g id="node25" class="node">
<title>naught</title>
<text text-anchor="start" x="257" y="-49.8" font-family="Times New Roman,serif" font-weight="bold" font-size="14.00">Modern</text>
<text text-anchor="start" x="258.5" y="-35.8" font-family="Times New Roman,serif" font-weight="bold" font-size="14.00">English</text>
<text text-anchor="start" x="263" y="-21.8" font-family="Times New Roman,serif" font-size="14.00" fill="red">naught</text>
<text text-anchor="start" x="262" y="-7.8" font-family="Times New Roman,serif" font-size="14.00" fill="red">nought</text>
</g>
<!-- naughtME&#45;&gt;naught -->
<g id="edge25" class="edge">
<title>naughtME&#45;&gt;naught</title>
<path fill="none" stroke="black" d="M228.01,-185.96C232.43,-174.47 237.24,-161.74 241.5,-150 250.61,-124.86 260.33,-96.48 267.9,-73.97"/>
<polygon fill="black" stroke="black" points="271.25,-74.99 271.12,-64.4 264.62,-72.76 271.25,-74.99"/>
</g>
<!-- notME -->
<g id="node26" class="node">
<title>notME</title>
<text text-anchor="start" x="96" y="-135.8" font-family="Times New Roman,serif" font-weight="bold" font-size="14.00">Middle</text>
<text text-anchor="start" x="94.5" y="-121.8" font-family="Times New Roman,serif" font-weight="bold" font-size="14.00">English</text>
<text text-anchor="start" x="108" y="-107.8" font-family="Times New Roman,serif" font-size="14.00" fill="red">not</text>
</g>
<!-- naughtME&#45;&gt;notME -->
<g id="edge26" class="edge">
<title>naughtME&#45;&gt;notME</title>
<path fill="none" stroke="black" d="M178.3,-187.43C168.49,-177.52 157.91,-166.83 148.38,-157.2"/>
<polygon fill="black" stroke="black" points="150.84,-154.71 141.31,-150.06 145.86,-159.63 150.84,-154.71"/>
</g>
<!-- noughtiME -->
<g id="node28" class="node">
<title>noughtiME</title>
<text text-anchor="start" x="182.5" y="-127.8" font-family="Times New Roman,serif" font-size="14.00" fill="red">noughti</text>
<text text-anchor="start" x="186.5" y="-115.4" font-family="Times New Roman,serif" font-size="12.00">wicked</text>
</g>
<!-- naughtME&#45;&gt;noughtiME -->
<g id="edge28" class="edge">
<title>naughtME&#45;&gt;noughtiME</title>
<path fill="none" stroke="black" d="M209.66,-185.77C208.55,-175.02 207.37,-163.49 206.33,-153.45"/>
<polygon fill="black" stroke="black" points="209.79,-152.84 205.28,-143.25 202.82,-153.56 209.79,-152.84"/>
</g>
<!-- not -->
<g id="node27" class="node">
<title>not</title>
<text text-anchor="start" x="91" y="-42.8" font-family="Times New Roman,serif" font-weight="bold" font-size="14.00">Modern</text>
<text text-anchor="start" x="92.5" y="-28.8" font-family="Times New Roman,serif" font-weight="bold" font-size="14.00">English</text>
<text text-anchor="start" x="106" y="-14.8" font-family="Times New Roman,serif" font-size="14.00" fill="red">not</text>
</g>
<!-- notME&#45;&gt;not -->
<g id="edge27" class="edge">
<title>notME&#45;&gt;not</title>
<path fill="none" stroke="black" d="M116.96,-99.61C116.75,-89.74 116.49,-78.17 116.26,-67.46"/>
<polygon fill="black" stroke="black" points="119.75,-67.06 116.03,-57.14 112.75,-67.21 119.75,-67.06"/>
</g>
<!-- naughty -->
<g id="node29" class="node">
<title>naughty</title>
<text text-anchor="start" x="174" y="-42.8" font-family="Times New Roman,serif" font-weight="bold" font-size="14.00">Modern</text>
<text text-anchor="start" x="175.5" y="-28.8" font-family="Times New Roman,serif" font-weight="bold" font-size="14.00">English</text>
<text text-anchor="start" x="176.5" y="-14.8" font-family="Times New Roman,serif" font-size="14.00" fill="red">naughty</text>
</g>
<!-- noughtiME&#45;&gt;naughty -->
<g id="edge29" class="edge">
<title>noughtiME&#45;&gt;naughty</title>
<path fill="none" stroke="black" d="M202.56,-106.88C201.95,-95.72 201.12,-80.77 200.38,-67.24"/>
<polygon fill="black" stroke="black" points="203.88,-67.04 199.83,-57.25 196.89,-67.43 203.88,-67.04"/>
</g>
<!-- orME -->
<g id="node30" class="node">
<title>orME</title>
<text text-anchor="start" x="426" y="-240.8" font-family="Times New Roman,serif" font-weight="bold" font-size="14.00">Middle</text>
<text text-anchor="start" x="424.5" y="-226.8" font-family="Times New Roman,serif" font-weight="bold" font-size="14.00">English</text>
<text text-anchor="start" x="441" y="-212.8" font-family="Times New Roman,serif" font-size="14.00" fill="red">or</text>
<text text-anchor="start" x="442.5" y="-200.4" font-family="Times New Roman,serif" font-size="12.00">or</text>
</g>
<!-- orME&#45;&gt;norME -->
<g id="edge31" class="edge">
<title>orME&#45;&gt;norME</title>
<path fill="none" stroke="black" d="M447.5,-192.84C447.5,-180.19 447.5,-165.6 447.5,-153.28"/>
<polygon fill="black" stroke="black" points="451,-153.14 447.5,-143.14 444,-153.14 451,-153.14"/>
</g>
<!-- nor -->
<g id="node32" class="node">
<title>nor</title>
<text text-anchor="start" x="423" y="-42.8" font-family="Times New Roman,serif" font-weight="bold" font-size="14.00">Modern</text>
<text text-anchor="start" x="424.5" y="-28.8" font-family="Times New Roman,serif" font-weight="bold" font-size="14.00">English</text>
<text text-anchor="start" x="438" y="-14.8" font-family="Times New Roman,serif" font-size="14.00" fill="red">nor</text>
</g>
<!-- norME&#45;&gt;nor -->
<g id="edge32" class="edge">
<title>norME&#45;&gt;nor</title>
<path fill="none" stroke="black" d="M447.5,-106.88C447.5,-95.83 447.5,-81.06 447.5,-67.64"/>
<polygon fill="black" stroke="black" points="451,-67.25 447.5,-57.25 444,-67.25 451,-67.25"/>
</g>
<!-- thingOE -->
<g id="node33" class="node">
<title>thingOE</title>
<text text-anchor="start" x="579" y="-425.8" font-family="Times New Roman,serif" font-weight="bold" font-size="14.00">Old English</text>
<text text-anchor="start" x="601.5" y="-411.8" font-family="Times New Roman,serif" font-size="14.00" fill="red">thing</text>
</g>
<!-- thingOE&#45;&gt;nathingOE -->
<g id="edge34" class="edge">
<title>thingOE&#45;&gt;nathingOE</title>
<path fill="none" stroke="black" d="M615.5,-403.65C615.5,-390.82 615.5,-373.11 615.5,-358.38"/>
<polygon fill="black" stroke="black" points="619,-358.3 615.5,-348.3 612,-358.3 619,-358.3"/>
</g>
<!-- nothingME -->
<g id="node35" class="node">
<title>nothingME</title>
<text text-anchor="start" x="599" y="-234.8" font-family="Times New Roman,serif" font-weight="bold" font-size="14.00">Middle</text>
<text text-anchor="start" x="597.5" y="-220.8" font-family="Times New Roman,serif" font-weight="bold" font-size="14.00">English</text>
<text text-anchor="start" x="599.5" y="-206.8" font-family="Times New Roman,serif" font-size="14.00" fill="red">nothing</text>
</g>
<!-- nathingOE&#45;&gt;nothingME -->
<g id="edge35" class="edge">
<title>nathingOE&#45;&gt;nothingME</title>
<path fill="none" stroke="black" d="M616.33,-311.83C617.01,-297.68 617.99,-277.18 618.83,-259.65"/>
<polygon fill="black" stroke="black" points="622.35,-259.36 619.34,-249.2 615.36,-259.02 622.35,-259.36"/>
</g>
<!-- nothing -->
<g id="node36" class="node">
<title>nothing</title>
<text text-anchor="start" x="599" y="-42.8" font-family="Times New Roman,serif" font-weight="bold" font-size="14.00">Modern</text>
<text text-anchor="start" x="600.5" y="-28.8" font-family="Times New Roman,serif" font-weight="bold" font-size="14.00">English</text>
<text text-anchor="start" x="602.5" y="-14.8" font-family="Times New Roman,serif" font-size="14.00" fill="red">nothing</text>
</g>
<!-- nothingME&#45;&gt;nothing -->
<g id="edge36" class="edge">
<title>nothingME&#45;&gt;nothing</title>
<path fill="none" stroke="black" d="M620.88,-198.94C621.41,-165.62 622.36,-105.26 622.96,-67.25"/>
<polygon fill="black" stroke="black" points="626.46,-67.22 623.12,-57.17 619.46,-67.11 626.46,-67.22"/>
</g>
<!-- kwoIE -->
<g id="node37" class="node">
<title>kwoIE</title>
<g id="a_node37"><a xlink:href="kwo-who.svg" xlink:title="&lt;b&gt;Indo&#45;&lt;br/&gt;European&lt;/b&gt;&lt;br/&gt;&lt;font color=&quot;red&quot;&gt;*kʷo&#45;&lt;/font&gt;&lt;br/&gt;&lt;font point&#45;size=&quot;12&quot;&gt;who, what, which&lt;/font&gt;">
<path fill="none" stroke="black" stroke-dasharray="5,2" d="M376.5,-714C376.5,-714 304.5,-714 304.5,-714 298.5,-714 292.5,-708 292.5,-702 292.5,-702 292.5,-664 292.5,-664 292.5,-658 298.5,-652 304.5,-652 304.5,-652 376.5,-652 376.5,-652 382.5,-652 388.5,-658 388.5,-664 388.5,-664 388.5,-702 388.5,-702 388.5,-708 382.5,-714 376.5,-714"/>
<text text-anchor="start" x="324" y="-699.8" font-family="Times New Roman,serif" font-weight="bold" font-size="14.00">Indo&#45;</text>
<text text-anchor="start" x="310" y="-685.8" font-family="Times New Roman,serif" font-weight="bold" font-size="14.00">European</text>
<text text-anchor="start" x="324.5" y="-671.8" font-family="Times New Roman,serif" font-size="14.00" fill="red">*kʷo&#45;</text>
<text text-anchor="start" x="300.5" y="-659.4" font-family="Times New Roman,serif" font-size="12.00">who, what, which</text>
</a>
</g>
</g>
<!-- hwatharazGm -->
<g id="node38" class="node">
<title>hwatharazGm</title>
<text text-anchor="start" x="310" y="-601.8" font-family="Times New Roman,serif" font-weight="bold" font-size="14.00">Germanic</text>
<text text-anchor="start" x="309" y="-587.8" font-family="Times New Roman,serif" font-size="14.00" fill="red">*hwatharaz</text>
</g>
<!-- kwoIE&#45;&gt;hwatharazGm -->
<g id="edge37" class="edge">
<title>kwoIE&#45;&gt;hwatharazGm</title>
<path fill="none" stroke="black" d="M340.5,-651.57C340.5,-643.33 340.5,-634.47 340.5,-626.41"/>
<polygon fill="black" stroke="black" points="344,-626.4 340.5,-616.4 337,-626.4 344,-626.4"/>
</g>
<!-- hwaetherOE -->
<g id="node39" class="node">
<title>hwaetherOE</title>
<text text-anchor="start" x="308" y="-431.8" font-family="Times New Roman,serif" font-weight="bold" font-size="14.00">Old English</text>
<text text-anchor="start" x="320.5" y="-417.8" font-family="Times New Roman,serif" font-size="14.00" fill="red">hwæther</text>
<text text-anchor="start" x="315" y="-405.4" font-family="Times New Roman,serif" font-size="12.00">which of two</text>
</g>
<!-- hwatharazGm&#45;&gt;hwaetherOE -->
<g id="edge38" class="edge">
<title>hwatharazGm&#45;&gt;hwaetherOE</title>
<path fill="none" stroke="black" d="M340.89,-580C341.55,-551.44 342.88,-493.32 343.73,-456.37"/>
<polygon fill="black" stroke="black" points="347.24,-456.17 343.97,-446.09 340.24,-456.01 347.24,-456.17"/>
</g>
<!-- hwaetherOE&#45;&gt;nawtherOE -->
<g id="edge40" class="edge">
<title>hwaetherOE&#45;&gt;nawtherOE</title>
<path fill="none" stroke="black" d="M349.65,-397.82C352.27,-386.02 355.48,-371.58 358.25,-359.15"/>
<polygon fill="black" stroke="black" points="361.69,-359.8 360.44,-349.28 354.85,-358.28 361.69,-359.8"/>
</g>
<!-- neitherME -->
<g id="node41" class="node">
<title>neitherME</title>
<text text-anchor="start" x="343" y="-234.8" font-family="Times New Roman,serif" font-weight="bold" font-size="14.00">Middle</text>
<text text-anchor="start" x="341.5" y="-220.8" font-family="Times New Roman,serif" font-weight="bold" font-size="14.00">English</text>
<text text-anchor="start" x="346" y="-206.8" font-family="Times New Roman,serif" font-size="14.00" fill="red">neither</text>
</g>
<!-- nawtherOE&#45;&gt;neitherME -->
<g id="edge41" class="edge">
<title>nawtherOE&#45;&gt;neitherME</title>
<path fill="none" stroke="black" d="M364.5,-310.88C364.5,-296.72 364.5,-276.6 364.5,-259.4"/>
<polygon fill="black" stroke="black" points="368,-259.15 364.5,-249.15 361,-259.15 368,-259.15"/>
</g>
<!-- neither -->
<g id="node42" class="node">
<title>neither</title>
<text text-anchor="start" x="340" y="-42.8" font-family="Times New Roman,serif" font-weight="bold" font-size="14.00">Modern</text>
<text text-anchor="start" x="341.5" y="-28.8" font-family="Times New Roman,serif" font-weight="bold" font-size="14.00">English</text>
<text text-anchor="start" x="346" y="-14.8" font-family="Times New Roman,serif" font-size="14.00" fill="red">neither</text>
</g>
<!-- neitherME&#45;&gt;neither -->
<g id="edge42" class="edge">
<title>neitherME&#45;&gt;neither</title>
<path fill="none" stroke="black" d="M364.5,-198.94C364.5,-165.62 364.5,-105.26 364.5,-67.25"/>
<polygon fill="black" stroke="black" points="368,-67.17 364.5,-57.17 361,-67.17 368,-67.17"/>
</g>
<!-- neiON -->
<g id="node45" class="node">
<title>neiON</title>
<text text-anchor="start" x="116.5" y="-418.3" font-family="Times New Roman,serif" font-size="14.00" fill="red">nei</text>
</g>
<!-- eiON&#45;&gt;neiON -->
<g id="edge44" class="edge">
<title>eiON&#45;&gt;neiON</title>
<path fill="none" stroke="black" d="M368.14,-502.03C321.84,-490.22 243.88,-469.2 178.5,-446 172.84,-443.99 166.92,-441.69 161.17,-439.33"/>
<polygon fill="black" stroke="black" points="162.29,-436.01 151.71,-435.36 159.58,-442.46 162.29,-436.01"/>
</g>
<!-- neON -->
<g id="node44" class="node">
<title>neON</title>
<text text-anchor="start" x="92.5" y="-516.8" font-family="Times New Roman,serif" font-weight="bold" font-size="14.00">Old Norse</text>
<text text-anchor="start" x="118" y="-502.8" font-family="Times New Roman,serif" font-size="14.00" fill="red">ne</text>
</g>
<!-- neON&#45;&gt;neiON -->
<g id="edge45" class="edge">
<title>neON&#45;&gt;neiON</title>
<path fill="none" stroke="black" d="M124.5,-494.84C124.5,-482.28 124.5,-464.98 124.5,-450.5"/>
<polygon fill="black" stroke="black" points="128,-450.11 124.5,-440.11 121,-450.11 128,-450.11"/>
</g>
<!-- nayME -->
<g id="node46" class="node">
<title>nayME</title>
<text text-anchor="start" x="12" y="-135.8" font-family="Times New Roman,serif" font-weight="bold" font-size="14.00">Middle</text>
<text text-anchor="start" x="10.5" y="-121.8" font-family="Times New Roman,serif" font-weight="bold" font-size="14.00">English</text>
<text text-anchor="start" x="23.5" y="-107.8" font-family="Times New Roman,serif" font-size="14.00" fill="red">nay</text>
</g>
<!-- neiON&#45;&gt;nayME -->
<g id="edge46" class="edge">
<title>neiON&#45;&gt;nayME</title>
<path fill="none" stroke="black" stroke-dasharray="1,5" d="M119.21,-403.86C104.63,-356.57 63.59,-223.55 44.07,-160.27"/>
<polygon fill="black" stroke="black" points="47.31,-158.9 41.02,-150.38 40.62,-160.97 47.31,-158.9"/>
</g>
<!-- nay -->
<g id="node47" class="node">
<title>nay</title>
<text text-anchor="start" x="8" y="-42.8" font-family="Times New Roman,serif" font-weight="bold" font-size="14.00">Modern</text>
<text text-anchor="start" x="9.5" y="-28.8" font-family="Times New Roman,serif" font-weight="bold" font-size="14.00">English</text>
<text text-anchor="start" x="22.5" y="-14.8" font-family="Times New Roman,serif" font-size="14.00" fill="red">nay</text>
</g>
<!-- nayME&#45;&gt;nay -->
<g id="edge47" class="edge">
<title>nayME&#45;&gt;nay</title>
<path fill="none" stroke="black" d="M33.23,-99.61C33.12,-89.74 33,-78.17 32.88,-67.46"/>
<polygon fill="black" stroke="black" points="36.38,-67.1 32.77,-57.14 29.38,-67.18 36.38,-67.1"/>
</g>
<!-- wihtOHG -->
<g id="node48" class="node">
<title>wihtOHG</title>
<text text-anchor="start" x="981.5" y="-529.8" font-family="Times New Roman,serif" font-weight="bold" font-size="14.00">Old High</text>
<text text-anchor="start" x="984" y="-515.8" font-family="Times New Roman,serif" font-weight="bold" font-size="14.00">German</text>
<text text-anchor="start" x="997.5" y="-501.8" font-family="Times New Roman,serif" font-size="14.00" fill="red">wiht</text>
<text text-anchor="start" x="998.5" y="-489.4" font-family="Times New Roman,serif" font-size="12.00">thing</text>
</g>
<!-- niwihtOHG -->
<g id="node50" class="node">
<title>niwihtOHG</title>
<text text-anchor="start" x="984.5" y="-418.3" font-family="Times New Roman,serif" font-size="14.00" fill="red">niwiht</text>
</g>
<!-- wihtOHG&#45;&gt;niwihtOHG -->
<g id="edge49" class="edge">
<title>wihtOHG&#45;&gt;niwihtOHG</title>
<path fill="none" stroke="black" d="M1006.79,-481.87C1005.87,-471.65 1004.85,-460.29 1003.95,-450.3"/>
<polygon fill="black" stroke="black" points="1007.42,-449.77 1003.04,-440.12 1000.45,-450.39 1007.42,-449.77"/>
</g>
<!-- niOHG&#45;&gt;niwihtOHG -->
<g id="edge50" class="edge">
<title>niOHG&#45;&gt;niwihtOHG</title>
<path fill="none" stroke="black" d="M947.26,-481.87C957.58,-470.67 969.15,-458.11 978.95,-447.48"/>
<polygon fill="black" stroke="black" points="981.52,-449.85 985.73,-440.12 976.38,-445.1 981.52,-449.85"/>
</g>
<!-- nihtesMHG -->
<g id="node51" class="node">
<title>nihtesMHG</title>
<text text-anchor="start" x="980" y="-347.8" font-family="Times New Roman,serif" font-weight="bold" font-size="14.00">Middle</text>
<text text-anchor="start" x="959.5" y="-333.8" font-family="Times New Roman,serif" font-weight="bold" font-size="14.00">High German</text>
<text text-anchor="start" x="991" y="-319.8" font-family="Times New Roman,serif" font-size="14.00" fill="red">niht</text>
<text text-anchor="start" x="985" y="-305.8" font-family="Times New Roman,serif" font-size="14.00" fill="red">nihtes</text>
</g>
<!-- niwihtOHG&#45;&gt;nihtesMHG -->
<g id="edge51" class="edge">
<title>niwihtOHG&#45;&gt;nihtesMHG</title>
<path fill="none" stroke="black" d="M1001.5,-403.65C1001.5,-394.65 1001.5,-383.25 1001.5,-372.16"/>
<polygon fill="black" stroke="black" points="1005,-372.15 1001.5,-362.15 998,-372.15 1005,-372.15"/>
</g>
<!-- nixG -->
<g id="node52" class="node">
<title>nixG</title>
<text text-anchor="start" x="976" y="-234.8" font-family="Times New Roman,serif" font-weight="bold" font-size="14.00">German</text>
<text text-anchor="start" x="970" y="-220.8" font-family="Times New Roman,serif" font-weight="bold" font-size="14.00">dialectical</text>
<text text-anchor="start" x="993" y="-206.8" font-family="Times New Roman,serif" font-size="14.00" fill="red">nix</text>
</g>
<!-- nihtesMHG&#45;&gt;nixG -->
<g id="edge52" class="edge">
<title>nihtesMHG&#45;&gt;nixG</title>
<path fill="none" stroke="black" d="M1001.5,-297.8C1001.5,-285.64 1001.5,-271.68 1001.5,-259.25"/>
<polygon fill="black" stroke="black" points="1005,-259.24 1001.5,-249.24 998,-259.24 1005,-259.24"/>
</g>
<!-- nix -->
<g id="node53" class="node">
<title>nix</title>
<text text-anchor="start" x="977" y="-42.8" font-family="Times New Roman,serif" font-weight="bold" font-size="14.00">Modern</text>
<text text-anchor="start" x="978.5" y="-28.8" font-family="Times New Roman,serif" font-weight="bold" font-size="14.00">English</text>
<text text-anchor="start" x="993" y="-14.8" font-family="Times New Roman,serif" font-size="14.00" fill="red">nix</text>
</g>
<!-- nixG&#45;&gt;nix -->
<g id="edge53" class="edge">
<title>nixG&#45;&gt;nix</title>
<path fill="none" stroke="black" stroke-dasharray="1,5" d="M1001.5,-198.94C1001.5,-165.62 1001.5,-105.26 1001.5,-67.25"/>
<polygon fill="black" stroke="black" points="1005,-67.17 1001.5,-57.17 998,-67.17 1005,-67.17"/>
</g>
</g>
</svg>
