<?xml version="1.0" encoding="UTF-8" standalone="no"?>
<!DOCTYPE svg PUBLIC "-//W3C//DTD SVG 1.1//EN"
 "http://www.w3.org/Graphics/SVG/1.1/DTD/svg11.dtd">
<!-- Generated by graphviz version 2.49.0 (20210828.1703)
 -->
<!-- Pages: 1 -->
<svg width="978pt" height="704pt"
 viewBox="0.00 0.00 978.00 704.00" xmlns="http://www.w3.org/2000/svg" xmlns:xlink="http://www.w3.org/1999/xlink">
<g id="graph0" class="graph" transform="scale(1 1) rotate(0) translate(4 700)">
<polygon fill="white" stroke="transparent" points="-4,4 -4,-700 974,-700 974,4 -4,4"/>
<!-- neIE -->
<g id="node1" class="node">
<title>neIE</title>
<g id="a_node1"><a xlink:href="ne-not0.svg" xlink:title="&lt;font point&#45;size=&quot;24&quot;&gt;&lt;b&gt;Indo&#45;European&lt;/b&gt;&lt;/font&gt;&lt;br/&gt;&lt;font point&#45;size=&quot;18&quot; color=&quot;red&quot;&gt;*ne &lt;/font&gt;&lt;font point&#45;size=&quot;16&quot;&gt;not&lt;/font&gt;">
<path fill="none" stroke="black" stroke-dasharray="5,2" d="M590.5,-696C590.5,-696 441.5,-696 441.5,-696 435.5,-696 429.5,-690 429.5,-684 429.5,-684 429.5,-658 429.5,-658 429.5,-652 435.5,-646 441.5,-646 441.5,-646 590.5,-646 590.5,-646 596.5,-646 602.5,-652 602.5,-658 602.5,-658 602.5,-684 602.5,-684 602.5,-690 596.5,-696 590.5,-696"/>
<text text-anchor="start" x="437.5" y="-673.8" font-family="Times New Roman,serif" font-weight="bold" font-size="24.00">Indo&#45;European</text>
<text text-anchor="start" x="490" y="-654.6" font-family="Times New Roman,serif" font-size="18.00" fill="red">*ne </text>
<text text-anchor="start" x="521" y="-654.6" font-family="Times New Roman,serif" font-size="16.00">not</text>
</a>
</g>
</g>
<!-- neG -->
<g id="node2" class="node">
<title>neG</title>
<text text-anchor="start" x="649" y="-589.8" font-family="Times New Roman,serif" font-weight="bold" font-size="14.00">Greek</text>
<text text-anchor="start" x="660" y="-575.8" font-family="Times New Roman,serif" font-size="14.00" fill="red">nē&#45;</text>
</g>
<!-- neIE&#45;&gt;neG -->
<g id="edge1" class="edge">
<title>neIE&#45;&gt;neG</title>
<path fill="none" stroke="black" d="M560.25,-645.99C582.96,-633.68 610.3,-618.84 631.89,-607.13"/>
<polygon fill="black" stroke="black" points="633.64,-610.17 640.76,-602.32 630.3,-604.01 633.64,-610.17"/>
</g>
<!-- nIE -->
<g id="node7" class="node">
<title>nIE</title>
<text text-anchor="start" x="287.5" y="-582.3" font-family="Times New Roman,serif" font-size="14.00" fill="red">n̥</text>
</g>
<!-- neIE&#45;&gt;nIE -->
<g id="edge6" class="edge">
<title>neIE&#45;&gt;nIE</title>
<path fill="none" stroke="black" d="M450.92,-645.99C410.93,-631.24 361.15,-612.88 327.85,-600.59"/>
<polygon fill="black" stroke="black" points="328.67,-597.17 318.08,-596.99 326.25,-603.73 328.67,-597.17"/>
</g>
<!-- nepenthesG -->
<g id="node4" class="node">
<title>nepenthesG</title>
<text text-anchor="start" x="811.5" y="-497.8" font-family="Times New Roman,serif" font-size="14.00" fill="red">nēpenthes (pharmakon)</text>
<text text-anchor="start" x="828.5" y="-485.4" font-family="Times New Roman,serif" font-size="12.00">grief&#45;banishing (drug)</text>
</g>
<!-- neG&#45;&gt;nepenthesG -->
<g id="edge2" class="edge">
<title>neG&#45;&gt;nepenthesG</title>
<path fill="none" stroke="black" d="M697.05,-573C730.49,-558.69 786.95,-534.53 827.72,-517.09"/>
<polygon fill="black" stroke="black" points="829.13,-520.29 836.94,-513.14 826.37,-513.86 829.13,-520.29"/>
</g>
<!-- penthosG -->
<g id="node3" class="node">
<title>penthosG</title>
<text text-anchor="start" x="857" y="-595.8" font-family="Times New Roman,serif" font-weight="bold" font-size="14.00">Greek</text>
<text text-anchor="start" x="854.5" y="-581.8" font-family="Times New Roman,serif" font-size="14.00" fill="red">penthos</text>
<text text-anchor="start" x="867" y="-569.4" font-family="Times New Roman,serif" font-size="12.00">grief</text>
</g>
<!-- penthosG&#45;&gt;nepenthesG -->
<g id="edge3" class="edge">
<title>penthosG&#45;&gt;nepenthesG</title>
<path fill="none" stroke="black" d="M877,-561.62C877,-549.83 877,-535.46 877,-523.18"/>
<polygon fill="black" stroke="black" points="880.5,-523.04 877,-513.04 873.5,-523.04 880.5,-523.04"/>
</g>
<!-- nepenthesL -->
<g id="node5" class="node">
<title>nepenthesL</title>
<text text-anchor="start" x="917.5" y="-211.8" font-family="Times New Roman,serif" font-weight="bold" font-size="14.00">Latin</text>
<text text-anchor="start" x="906" y="-197.8" font-family="Times New Roman,serif" font-size="14.00" fill="red">nēpenthes</text>
</g>
<!-- nepenthesG&#45;&gt;nepenthesL -->
<g id="edge4" class="edge">
<title>nepenthesG&#45;&gt;nepenthesL</title>
<path fill="none" stroke="black" stroke-dasharray="5,2" d="M880.48,-476.6C890.08,-428.59 917.01,-293.97 928.59,-236.06"/>
<polygon fill="black" stroke="black" points="932.04,-236.66 930.57,-226.17 925.17,-235.29 932.04,-236.66"/>
</g>
<!-- nepenthe -->
<g id="node6" class="node">
<title>nepenthe</title>
<text text-anchor="start" x="909.5" y="-41.8" font-family="Times New Roman,serif" font-weight="bold" font-size="14.00">Modern</text>
<text text-anchor="start" x="911" y="-27.8" font-family="Times New Roman,serif" font-weight="bold" font-size="14.00">English</text>
<text text-anchor="start" x="909" y="-13.8" font-family="Times New Roman,serif" font-size="14.00" fill="red">nepenthe</text>
</g>
<!-- nepenthesL&#45;&gt;nepenthe -->
<g id="edge5" class="edge">
<title>nepenthesL&#45;&gt;nepenthe</title>
<path fill="none" stroke="black" stroke-dasharray="5,2" d="M934,-189.9C934,-161.41 934,-103.68 934,-66.48"/>
<polygon fill="black" stroke="black" points="937.5,-66.11 934,-56.11 930.5,-66.11 937.5,-66.11"/>
</g>
<!-- unGm -->
<g id="node8" class="node">
<title>unGm</title>
<text text-anchor="start" x="296.5" y="-498.8" font-family="Times New Roman,serif" font-weight="bold" font-size="14.00">Germanic</text>
<text text-anchor="start" x="314.5" y="-484.8" font-family="Times New Roman,serif" font-size="14.00" fill="red">*un&#45;</text>
</g>
<!-- nIE&#45;&gt;unGm -->
<g id="edge7" class="edge">
<title>nIE&#45;&gt;unGm</title>
<path fill="none" stroke="black" d="M297.94,-567.84C303.12,-555.04 310.29,-537.3 316.22,-522.65"/>
<polygon fill="black" stroke="black" points="319.57,-523.69 320.08,-513.11 313.09,-521.07 319.57,-523.69"/>
</g>
<!-- inL -->
<g id="node22" class="node">
<title>inL</title>
<text text-anchor="start" x="182.5" y="-498.8" font-family="Times New Roman,serif" font-weight="bold" font-size="14.00">Latin</text>
<text text-anchor="start" x="191.5" y="-484.8" font-family="Times New Roman,serif" font-size="14.00" fill="red">in&#45;</text>
</g>
<!-- nIE&#45;&gt;inL -->
<g id="edge21" class="edge">
<title>nIE&#45;&gt;inL</title>
<path fill="none" stroke="black" d="M273.26,-567.84C259.26,-554.3 239.56,-535.24 223.97,-520.15"/>
<polygon fill="black" stroke="black" points="226.3,-517.54 216.68,-513.11 221.44,-522.58 226.3,-517.54"/>
</g>
<!-- anG -->
<g id="node26" class="node">
<title>anG</title>
<text text-anchor="start" x="234" y="-126.8" font-family="Times New Roman,serif" font-weight="bold" font-size="14.00">Greek</text>
<text text-anchor="start" x="236" y="-112.8" font-family="Times New Roman,serif" font-size="14.00" fill="red">a&#45;, an&#45;</text>
</g>
<!-- nIE&#45;&gt;anG -->
<g id="edge25" class="edge">
<title>nIE&#45;&gt;anG</title>
<path fill="none" stroke="black" d="M285.3,-567.95C274.92,-535.34 254,-461.71 254,-398 254,-398 254,-398 254,-298 254,-246.21 254,-185.75 254,-151.46"/>
<polygon fill="black" stroke="black" points="257.5,-151.29 254,-141.29 250.5,-151.29 257.5,-151.29"/>
</g>
<!-- aS -->
<g id="node28" class="node">
<title>aS</title>
<text text-anchor="start" x="8" y="-498.8" font-family="Times New Roman,serif" font-weight="bold" font-size="14.00">Sanskrit</text>
<text text-anchor="start" x="28.5" y="-484.8" font-family="Times New Roman,serif" font-size="14.00" fill="red">a&#45;</text>
</g>
<!-- nIE&#45;&gt;aS -->
<g id="edge27" class="edge">
<title>nIE&#45;&gt;aS</title>
<path fill="none" stroke="black" d="M263.95,-580.6C222.31,-573.15 140.66,-555.9 77,-526 72.6,-523.93 68.16,-521.42 63.89,-518.74"/>
<polygon fill="black" stroke="black" points="65.7,-515.74 55.44,-513.09 61.81,-521.56 65.7,-515.74"/>
</g>
<!-- nmrtoIE -->
<g id="node33" class="node">
<title>nmrtoIE</title>
<text text-anchor="start" x="736.5" y="-399.8" font-family="Times New Roman,serif" font-size="14.00" fill="red">n̥&#45;mr̥&#45;to&#45;</text>
<text text-anchor="start" x="742.5" y="-387.4" font-family="Times New Roman,serif" font-size="12.00">undying</text>
</g>
<!-- nIE&#45;&gt;nmrtoIE -->
<g id="edge31" class="edge">
<title>nIE&#45;&gt;nmrtoIE</title>
<path fill="none" stroke="black" d="M318.25,-583.39C411.67,-577.6 714.81,-556.57 745,-526 770.9,-499.77 769.68,-454.28 765.51,-425.19"/>
<polygon fill="black" stroke="black" points="768.96,-424.58 763.89,-415.28 762.05,-425.71 768.96,-424.58"/>
</g>
<!-- unOE -->
<g id="node9" class="node">
<title>unOE</title>
<text text-anchor="start" x="290.5" y="-400.8" font-family="Times New Roman,serif" font-weight="bold" font-size="14.00">Old English</text>
<text text-anchor="start" x="317.5" y="-386.8" font-family="Times New Roman,serif" font-size="14.00" fill="red">un&#45;</text>
</g>
<!-- unGm&#45;&gt;unOE -->
<g id="edge8" class="edge">
<title>unGm&#45;&gt;unOE</title>
<path fill="none" stroke="black" d="M327,-476.84C327,-462.5 327,-441.81 327,-425.22"/>
<polygon fill="black" stroke="black" points="330.5,-425.01 327,-415.01 323.5,-425.01 330.5,-425.01"/>
</g>
<!-- unOHG -->
<g id="node16" class="node">
<title>unOHG</title>
<text text-anchor="start" x="398" y="-407.8" font-family="Times New Roman,serif" font-weight="bold" font-size="14.00">Old High</text>
<text text-anchor="start" x="400.5" y="-393.8" font-family="Times New Roman,serif" font-weight="bold" font-size="14.00">German</text>
<text text-anchor="start" x="416.5" y="-379.8" font-family="Times New Roman,serif" font-size="14.00" fill="red">un&#45;</text>
</g>
<!-- unGm&#45;&gt;unOHG -->
<g id="edge14" class="edge">
<title>unGm&#45;&gt;unOHG</title>
<path fill="none" stroke="black" d="M344.7,-476.84C358.3,-463.65 377.46,-445.07 393.76,-429.27"/>
<polygon fill="black" stroke="black" points="396.27,-431.7 401.02,-422.23 391.4,-426.68 396.27,-431.7"/>
</g>
<!-- unME -->
<g id="node10" class="node">
<title>unME</title>
<text text-anchor="start" x="307.5" y="-309.8" font-family="Times New Roman,serif" font-weight="bold" font-size="14.00">Middle</text>
<text text-anchor="start" x="306" y="-295.8" font-family="Times New Roman,serif" font-weight="bold" font-size="14.00">English</text>
<text text-anchor="start" x="319.5" y="-281.8" font-family="Times New Roman,serif" font-size="14.00" fill="red">un&#45;</text>
</g>
<!-- unOE&#45;&gt;unME -->
<g id="edge9" class="edge">
<title>unOE&#45;&gt;unME</title>
<path fill="none" stroke="black" d="M327.36,-378.84C327.61,-366.48 327.97,-349.39 328.29,-334.29"/>
<polygon fill="black" stroke="black" points="331.79,-334.3 328.5,-324.23 324.79,-334.15 331.79,-334.3"/>
</g>
<!-- un -->
<g id="node11" class="node">
<title>un</title>
<text text-anchor="start" x="318.5" y="-47.8" font-family="Times New Roman,serif" font-weight="bold" font-size="14.00">Modern</text>
<text text-anchor="start" x="320" y="-33.8" font-family="Times New Roman,serif" font-weight="bold" font-size="14.00">English</text>
<text text-anchor="start" x="333.5" y="-19.8" font-family="Times New Roman,serif" font-size="14.00" fill="red">un&#45;</text>
<text text-anchor="start" x="313" y="-7.4" font-family="Times New Roman,serif" font-size="12.00">not, opposite</text>
</g>
<!-- unME&#45;&gt;un -->
<g id="edge10" class="edge">
<title>unME&#45;&gt;un</title>
<path fill="none" stroke="black" d="M330.27,-273.93C332.67,-228.27 337.91,-128.67 340.87,-72.54"/>
<polygon fill="black" stroke="black" points="344.38,-72.43 341.41,-62.26 337.39,-72.06 344.38,-72.43"/>
</g>
<!-- deukIE -->
<g id="node12" class="node">
<title>deukIE</title>
<g id="a_node12"><a xlink:href="deuk-lead.svg" xlink:title="&lt;b&gt;Indo&#45;&lt;br/&gt;European&lt;/b&gt;&lt;br/&gt;&lt;font color=&quot;red&quot;&gt;*deuk&#45;&lt;/font&gt;&lt;br/&gt;&lt;font point&#45;size=&quot;12&quot;&gt;to lead&lt;/font&gt;">
<path fill="none" stroke="black" stroke-dasharray="5,2" d="M628.5,-526C628.5,-526 575.5,-526 575.5,-526 569.5,-526 563.5,-520 563.5,-514 563.5,-514 563.5,-476 563.5,-476 563.5,-470 569.5,-464 575.5,-464 575.5,-464 628.5,-464 628.5,-464 634.5,-464 640.5,-470 640.5,-476 640.5,-476 640.5,-514 640.5,-514 640.5,-520 634.5,-526 628.5,-526"/>
<text text-anchor="start" x="585.5" y="-511.8" font-family="Times New Roman,serif" font-weight="bold" font-size="14.00">Indo&#45;</text>
<text text-anchor="start" x="571.5" y="-497.8" font-family="Times New Roman,serif" font-weight="bold" font-size="14.00">European</text>
<text text-anchor="start" x="582.5" y="-483.8" font-family="Times New Roman,serif" font-size="14.00" fill="red">*deuk&#45;</text>
<text text-anchor="start" x="586.5" y="-471.4" font-family="Times New Roman,serif" font-size="12.00">to lead</text>
</a>
</g>
</g>
<!-- ziohanOHG -->
<g id="node13" class="node">
<title>ziohanOHG</title>
<text text-anchor="start" x="578" y="-413.8" font-family="Times New Roman,serif" font-weight="bold" font-size="14.00">Old High</text>
<text text-anchor="start" x="580.5" y="-399.8" font-family="Times New Roman,serif" font-weight="bold" font-size="14.00">German</text>
<text text-anchor="start" x="587.5" y="-385.8" font-family="Times New Roman,serif" font-size="14.00" fill="red">ziohan</text>
<text text-anchor="start" x="592" y="-373.4" font-family="Times New Roman,serif" font-size="12.00">to pull</text>
</g>
<!-- deukIE&#45;&gt;ziohanOHG -->
<g id="edge11" class="edge">
<title>deukIE&#45;&gt;ziohanOHG</title>
<path fill="none" stroke="black" d="M603.25,-463.89C603.59,-455.76 603.97,-446.83 604.32,-438.24"/>
<polygon fill="black" stroke="black" points="607.83,-438.14 604.75,-428 600.84,-437.85 607.83,-438.14"/>
</g>
<!-- zucMHG -->
<g id="node14" class="node">
<title>zucMHG</title>
<text text-anchor="start" x="517" y="-315.8" font-family="Times New Roman,serif" font-weight="bold" font-size="14.00">Middle High</text>
<text text-anchor="start" x="529.5" y="-301.8" font-family="Times New Roman,serif" font-weight="bold" font-size="14.00">German</text>
<text text-anchor="start" x="545" y="-287.8" font-family="Times New Roman,serif" font-size="14.00" fill="red">zuc</text>
<text text-anchor="start" x="542.5" y="-275.4" font-family="Times New Roman,serif" font-size="12.00">a pull</text>
</g>
<!-- ziohanOHG&#45;&gt;zucMHG -->
<g id="edge12" class="edge">
<title>ziohanOHG&#45;&gt;zucMHG</title>
<path fill="none" stroke="black" d="M590,-365.89C585.49,-357.4 580.52,-348.04 575.78,-339.11"/>
<polygon fill="black" stroke="black" points="578.72,-337.19 570.94,-330 572.54,-340.48 578.72,-337.19"/>
</g>
<!-- zugG -->
<g id="node15" class="node">
<title>zugG</title>
<text text-anchor="start" x="518.5" y="-217.8" font-family="Times New Roman,serif" font-weight="bold" font-size="14.00">German</text>
<text text-anchor="start" x="533" y="-203.8" font-family="Times New Roman,serif" font-size="14.00" fill="red">Zug</text>
<text text-anchor="start" x="492.5" y="-191.4" font-family="Times New Roman,serif" font-size="12.00">a pull, move, migration</text>
</g>
<!-- zucMHG&#45;&gt;zugG -->
<g id="edge13" class="edge">
<title>zucMHG&#45;&gt;zugG</title>
<path fill="none" stroke="black" d="M551.28,-267.87C550.25,-259.55 549.13,-250.48 548.08,-242.01"/>
<polygon fill="black" stroke="black" points="551.55,-241.56 546.85,-232.06 544.6,-242.42 551.55,-241.56"/>
</g>
<!-- zugunruheG -->
<g id="node20" class="node">
<title>zugunruheG</title>
<text text-anchor="start" x="464" y="-119.3" font-family="Times New Roman,serif" font-size="14.00" fill="red">Zugunruhe</text>
</g>
<!-- zugG&#45;&gt;zugunruheG -->
<g id="edge18" class="edge">
<title>zugG&#45;&gt;zugunruheG</title>
<path fill="none" stroke="black" d="M530.07,-183.88C523.71,-173.31 516.14,-160.75 509.58,-149.87"/>
<polygon fill="black" stroke="black" points="512.52,-147.97 504.36,-141.21 506.53,-151.58 512.52,-147.97"/>
</g>
<!-- unruoweMHG -->
<g id="node18" class="node">
<title>unruoweMHG</title>
<text text-anchor="start" x="395" y="-315.8" font-family="Times New Roman,serif" font-weight="bold" font-size="14.00">Middle High</text>
<text text-anchor="start" x="407.5" y="-301.8" font-family="Times New Roman,serif" font-weight="bold" font-size="14.00">German</text>
<text text-anchor="start" x="408.5" y="-287.8" font-family="Times New Roman,serif" font-size="14.00" fill="red">unruowe</text>
<text text-anchor="start" x="406.5" y="-275.4" font-family="Times New Roman,serif" font-size="12.00">restlessness</text>
</g>
<!-- unOHG&#45;&gt;unruoweMHG -->
<g id="edge15" class="edge">
<title>unOHG&#45;&gt;unruoweMHG</title>
<path fill="none" stroke="black" d="M427.77,-371.78C428.47,-362.18 429.29,-350.88 430.07,-340.13"/>
<polygon fill="black" stroke="black" points="433.57,-340.29 430.81,-330.06 426.59,-339.78 433.57,-340.29"/>
</g>
<!-- ruowaOHG -->
<g id="node17" class="node">
<title>ruowaOHG</title>
<text text-anchor="start" x="488" y="-413.8" font-family="Times New Roman,serif" font-weight="bold" font-size="14.00">Old High</text>
<text text-anchor="start" x="490.5" y="-399.8" font-family="Times New Roman,serif" font-weight="bold" font-size="14.00">German</text>
<text text-anchor="start" x="498.5" y="-385.8" font-family="Times New Roman,serif" font-size="14.00" fill="red">ruowa</text>
<text text-anchor="start" x="507.5" y="-373.4" font-family="Times New Roman,serif" font-size="12.00">rest</text>
</g>
<!-- ruowaOHG&#45;&gt;unruoweMHG -->
<g id="edge16" class="edge">
<title>ruowaOHG&#45;&gt;unruoweMHG</title>
<path fill="none" stroke="black" d="M489.97,-365.89C482.24,-356.95 473.68,-347.05 465.59,-337.7"/>
<polygon fill="black" stroke="black" points="468.13,-335.28 458.94,-330 462.83,-339.86 468.13,-335.28"/>
</g>
<!-- unruheG -->
<g id="node19" class="node">
<title>unruheG</title>
<text text-anchor="start" x="407.5" y="-211.8" font-family="Times New Roman,serif" font-weight="bold" font-size="14.00">German</text>
<text text-anchor="start" x="412.5" y="-197.8" font-family="Times New Roman,serif" font-size="14.00" fill="red">Unruhe</text>
</g>
<!-- unruoweMHG&#45;&gt;unruheG -->
<g id="edge17" class="edge">
<title>unruoweMHG&#45;&gt;unruheG</title>
<path fill="none" stroke="black" d="M433,-267.87C433,-257.65 433,-246.29 433,-236.3"/>
<polygon fill="black" stroke="black" points="436.5,-236.12 433,-226.12 429.5,-236.12 436.5,-236.12"/>
</g>
<!-- unruheG&#45;&gt;zugunruheG -->
<g id="edge19" class="edge">
<title>unruheG&#45;&gt;zugunruheG</title>
<path fill="none" stroke="black" d="M445.64,-189.8C454.23,-178.12 465.73,-162.46 475.37,-149.35"/>
<polygon fill="black" stroke="black" points="478.28,-151.31 481.38,-141.18 472.63,-147.16 478.28,-151.31"/>
</g>
<!-- zugunruhe -->
<g id="node21" class="node">
<title>zugunruhe</title>
<text text-anchor="start" x="469.5" y="-41.8" font-family="Times New Roman,serif" font-weight="bold" font-size="14.00">Modern</text>
<text text-anchor="start" x="471" y="-27.8" font-family="Times New Roman,serif" font-weight="bold" font-size="14.00">English</text>
<text text-anchor="start" x="464" y="-13.8" font-family="Times New Roman,serif" font-size="14.00" fill="red">Zugunruhe</text>
</g>
<!-- zugunruheG&#45;&gt;zugunruhe -->
<g id="edge20" class="edge">
<title>zugunruheG&#45;&gt;zugunruhe</title>
<path fill="none" stroke="black" stroke-dasharray="5,2" d="M494,-104.65C494,-93.76 494,-79.36 494,-66.25"/>
<polygon fill="black" stroke="black" points="497.5,-66.1 494,-56.1 490.5,-66.1 497.5,-66.1"/>
</g>
<!-- inOF -->
<g id="node23" class="node">
<title>inOF</title>
<text text-anchor="start" x="145" y="-400.8" font-family="Times New Roman,serif" font-weight="bold" font-size="14.00">Old French</text>
<text text-anchor="start" x="172.5" y="-386.8" font-family="Times New Roman,serif" font-size="14.00" fill="red">in&#45;</text>
</g>
<!-- inL&#45;&gt;inOF -->
<g id="edge22" class="edge">
<title>inL&#45;&gt;inOF</title>
<path fill="none" stroke="black" d="M195.6,-476.84C192.77,-462.5 188.67,-441.81 185.39,-425.22"/>
<polygon fill="black" stroke="black" points="188.74,-424.14 183.37,-415.01 181.88,-425.5 188.74,-424.14"/>
</g>
<!-- inME -->
<g id="node24" class="node">
<title>inME</title>
<text text-anchor="start" x="152.5" y="-133.8" font-family="Times New Roman,serif" font-weight="bold" font-size="14.00">Middle</text>
<text text-anchor="start" x="151" y="-119.8" font-family="Times New Roman,serif" font-weight="bold" font-size="14.00">English</text>
<text text-anchor="start" x="166.5" y="-105.8" font-family="Times New Roman,serif" font-size="14.00" fill="red">in&#45;</text>
</g>
<!-- inOF&#45;&gt;inME -->
<g id="edge23" class="edge">
<title>inOF&#45;&gt;inME</title>
<path fill="none" stroke="black" stroke-dasharray="5,2" d="M179.62,-378.99C178.66,-335.08 176.06,-217.3 174.76,-158.45"/>
<polygon fill="black" stroke="black" points="178.25,-158.1 174.53,-148.18 171.25,-158.26 178.25,-158.1"/>
</g>
<!-- in -->
<g id="node25" class="node">
<title>in</title>
<text text-anchor="start" x="146.5" y="-41.8" font-family="Times New Roman,serif" font-weight="bold" font-size="14.00">Modern</text>
<text text-anchor="start" x="148" y="-27.8" font-family="Times New Roman,serif" font-weight="bold" font-size="14.00">English</text>
<text text-anchor="start" x="163.5" y="-13.8" font-family="Times New Roman,serif" font-size="14.00" fill="red">in&#45;</text>
</g>
<!-- inME&#45;&gt;in -->
<g id="edge24" class="edge">
<title>inME&#45;&gt;in</title>
<path fill="none" stroke="black" d="M173.2,-97.88C172.87,-88.2 172.5,-76.85 172.14,-66.34"/>
<polygon fill="black" stroke="black" points="175.64,-66.06 171.81,-56.18 168.64,-66.3 175.64,-66.06"/>
</g>
<!-- an -->
<g id="node27" class="node">
<title>an</title>
<text text-anchor="start" x="229.5" y="-41.8" font-family="Times New Roman,serif" font-weight="bold" font-size="14.00">Modern</text>
<text text-anchor="start" x="231" y="-27.8" font-family="Times New Roman,serif" font-weight="bold" font-size="14.00">English</text>
<text text-anchor="start" x="236" y="-13.8" font-family="Times New Roman,serif" font-size="14.00" fill="red">a&#45;, an&#45;</text>
</g>
<!-- anG&#45;&gt;an -->
<g id="edge26" class="edge">
<title>anG&#45;&gt;an</title>
<path fill="none" stroke="black" stroke-dasharray="5,2" d="M254,-104.65C254,-93.76 254,-79.36 254,-66.25"/>
<polygon fill="black" stroke="black" points="257.5,-66.1 254,-56.1 250.5,-66.1 257.5,-66.1"/>
</g>
<!-- ahimsaS -->
<g id="node30" class="node">
<title>ahimsaS</title>
<text text-anchor="start" x="46.5" y="-393.3" font-family="Times New Roman,serif" font-size="14.00" fill="red">ahiṁsā</text>
</g>
<!-- aS&#45;&gt;ahimsaS -->
<g id="edge28" class="edge">
<title>aS&#45;&gt;ahimsaS</title>
<path fill="none" stroke="black" d="M39.72,-476.84C44.54,-462.37 51.53,-441.41 57.09,-424.74"/>
<polygon fill="black" stroke="black" points="60.49,-425.61 60.33,-415.01 53.85,-423.39 60.49,-425.61"/>
</g>
<!-- himsaS -->
<g id="node29" class="node">
<title>himsaS</title>
<text text-anchor="start" x="94" y="-498.8" font-family="Times New Roman,serif" font-weight="bold" font-size="14.00">Sanskrit</text>
<text text-anchor="start" x="103.5" y="-484.8" font-family="Times New Roman,serif" font-size="14.00" fill="red">hiṁsā</text>
</g>
<!-- himsaS&#45;&gt;ahimsaS -->
<g id="edge29" class="edge">
<title>himsaS&#45;&gt;ahimsaS</title>
<path fill="none" stroke="black" d="M110.35,-476.84C102.05,-462.09 89.97,-440.62 80.51,-423.8"/>
<polygon fill="black" stroke="black" points="83.52,-422.01 75.57,-415.01 77.42,-425.45 83.52,-422.01"/>
</g>
<!-- ahimsa -->
<g id="node31" class="node">
<title>ahimsa</title>
<text text-anchor="start" x="41.5" y="-41.8" font-family="Times New Roman,serif" font-weight="bold" font-size="14.00">Modern</text>
<text text-anchor="start" x="43" y="-27.8" font-family="Times New Roman,serif" font-weight="bold" font-size="14.00">English</text>
<text text-anchor="start" x="46.5" y="-13.8" font-family="Times New Roman,serif" font-size="14.00" fill="red">ahimsa</text>
</g>
<!-- ahimsaS&#45;&gt;ahimsa -->
<g id="edge30" class="edge">
<title>ahimsaS&#45;&gt;ahimsa</title>
<path fill="none" stroke="black" stroke-dasharray="5,2" d="M66,-378.93C66,-322.68 66,-142.42 66,-66.37"/>
<polygon fill="black" stroke="black" points="69.5,-66.35 66,-56.35 62.5,-66.35 69.5,-66.35"/>
</g>
<!-- merIE -->
<g id="node32" class="node">
<title>merIE</title>
<g id="a_node32"><a xlink:href="mer-harm.svg" xlink:title="&lt;b&gt;Indo&#45;&lt;br/&gt;European&lt;/b&gt;&lt;br/&gt;&lt;font color=&quot;red&quot;&gt;*mer&#45;&lt;/font&gt;&lt;br/&gt;&lt;font point&#45;size=&quot;12&quot;&gt;to harm&lt;/font&gt;">
<path fill="none" stroke="black" stroke-dasharray="5,2" d="M723.5,-526C723.5,-526 670.5,-526 670.5,-526 664.5,-526 658.5,-520 658.5,-514 658.5,-514 658.5,-476 658.5,-476 658.5,-470 664.5,-464 670.5,-464 670.5,-464 723.5,-464 723.5,-464 729.5,-464 735.5,-470 735.5,-476 735.5,-476 735.5,-514 735.5,-514 735.5,-520 729.5,-526 723.5,-526"/>
<text text-anchor="start" x="680.5" y="-511.8" font-family="Times New Roman,serif" font-weight="bold" font-size="14.00">Indo&#45;</text>
<text text-anchor="start" x="666.5" y="-497.8" font-family="Times New Roman,serif" font-weight="bold" font-size="14.00">European</text>
<text text-anchor="start" x="680.5" y="-483.8" font-family="Times New Roman,serif" font-size="14.00" fill="red">*mer&#45;</text>
<text text-anchor="start" x="679.5" y="-471.4" font-family="Times New Roman,serif" font-size="12.00">to harm</text>
</a>
</g>
</g>
<!-- merIE&#45;&gt;nmrtoIE -->
<g id="edge32" class="edge">
<title>merIE&#45;&gt;nmrtoIE</title>
<path fill="none" stroke="black" d="M716.76,-463.89C725.24,-450.97 735.04,-436.03 743.17,-423.65"/>
<polygon fill="black" stroke="black" points="746.19,-425.43 748.75,-415.15 740.33,-421.59 746.19,-425.43"/>
</g>
<!-- immortalisL -->
<g id="node34" class="node">
<title>immortalisL</title>
<text text-anchor="start" x="651.5" y="-302.8" font-family="Times New Roman,serif" font-weight="bold" font-size="14.00">Latin</text>
<text text-anchor="start" x="639" y="-288.8" font-family="Times New Roman,serif" font-size="14.00" fill="red">immortālis</text>
</g>
<!-- nmrtoIE&#45;&gt;immortalisL -->
<g id="edge33" class="edge">
<title>nmrtoIE&#45;&gt;immortalisL</title>
<path fill="none" stroke="black" d="M743.55,-378.84C729.03,-363.68 707.69,-341.42 691.4,-324.41"/>
<polygon fill="black" stroke="black" points="693.75,-321.81 684.31,-317.01 688.7,-326.66 693.75,-321.81"/>
</g>
<!-- ambrotosG -->
<g id="node38" class="node">
<title>ambrotosG</title>
<text text-anchor="start" x="740" y="-302.8" font-family="Times New Roman,serif" font-weight="bold" font-size="14.00">Greek</text>
<text text-anchor="start" x="733" y="-288.8" font-family="Times New Roman,serif" font-size="14.00" fill="red">ambrotos</text>
</g>
<!-- nmrtoIE&#45;&gt;ambrotosG -->
<g id="edge37" class="edge">
<title>nmrtoIE&#45;&gt;ambrotosG</title>
<path fill="none" stroke="black" d="M760,-378.84C760,-364.5 760,-343.81 760,-327.22"/>
<polygon fill="black" stroke="black" points="763.5,-327.01 760,-317.01 756.5,-327.01 763.5,-327.01"/>
</g>
<!-- amrtamS -->
<g id="node42" class="node">
<title>amrtamS</title>
<text text-anchor="start" x="820" y="-217.8" font-family="Times New Roman,serif" font-weight="bold" font-size="14.00">Sanskrit</text>
<text text-anchor="start" x="825" y="-203.8" font-family="Times New Roman,serif" font-size="14.00" fill="red">amṛtam</text>
<text text-anchor="start" x="821" y="-191.4" font-family="Times New Roman,serif" font-size="12.00">immortality</text>
</g>
<!-- nmrtoIE&#45;&gt;amrtamS -->
<g id="edge41" class="edge">
<title>nmrtoIE&#45;&gt;amrtamS</title>
<path fill="none" stroke="black" d="M773.23,-378.81C782.71,-365.9 795.3,-347.51 804,-330 818.17,-301.47 829.64,-266.98 836.98,-242.13"/>
<polygon fill="black" stroke="black" points="840.37,-243.03 839.78,-232.45 833.64,-241.09 840.37,-243.03"/>
</g>
<!-- immortelOF -->
<g id="node35" class="node">
<title>immortelOF</title>
<text text-anchor="start" x="630" y="-211.8" font-family="Times New Roman,serif" font-weight="bold" font-size="14.00">Old French</text>
<text text-anchor="start" x="640.5" y="-197.8" font-family="Times New Roman,serif" font-size="14.00" fill="red">immortel</text>
</g>
<!-- immortalisL&#45;&gt;immortelOF -->
<g id="edge34" class="edge">
<title>immortalisL&#45;&gt;immortelOF</title>
<path fill="none" stroke="black" d="M667.42,-280.84C667,-268.28 666.42,-250.98 665.93,-236.5"/>
<polygon fill="black" stroke="black" points="669.41,-235.98 665.58,-226.11 662.42,-236.22 669.41,-235.98"/>
</g>
<!-- immortalME -->
<g id="node36" class="node">
<title>immortalME</title>
<text text-anchor="start" x="643.5" y="-133.8" font-family="Times New Roman,serif" font-weight="bold" font-size="14.00">Middle</text>
<text text-anchor="start" x="642" y="-119.8" font-family="Times New Roman,serif" font-weight="bold" font-size="14.00">English</text>
<text text-anchor="start" x="640.5" y="-105.8" font-family="Times New Roman,serif" font-size="14.00" fill="red">immortal</text>
</g>
<!-- immortelOF&#45;&gt;immortalME -->
<g id="edge35" class="edge">
<title>immortelOF&#45;&gt;immortalME</title>
<path fill="none" stroke="black" stroke-dasharray="5,2" d="M665,-189.8C665,-180.66 665,-169.09 665,-158.22"/>
<polygon fill="black" stroke="black" points="668.5,-158.1 665,-148.1 661.5,-158.1 668.5,-158.1"/>
</g>
<!-- immortal -->
<g id="node37" class="node">
<title>immortal</title>
<text text-anchor="start" x="640.5" y="-41.8" font-family="Times New Roman,serif" font-weight="bold" font-size="14.00">Modern</text>
<text text-anchor="start" x="642" y="-27.8" font-family="Times New Roman,serif" font-weight="bold" font-size="14.00">English</text>
<text text-anchor="start" x="640.5" y="-13.8" font-family="Times New Roman,serif" font-size="14.00" fill="red">immortal</text>
</g>
<!-- immortalME&#45;&gt;immortal -->
<g id="edge36" class="edge">
<title>immortalME&#45;&gt;immortal</title>
<path fill="none" stroke="black" d="M665,-97.88C665,-88.2 665,-76.85 665,-66.34"/>
<polygon fill="black" stroke="black" points="668.5,-66.18 665,-56.18 661.5,-66.18 668.5,-66.18"/>
</g>
<!-- ambrosiaG -->
<g id="node39" class="node">
<title>ambrosiaG</title>
<text text-anchor="start" x="734" y="-204.3" font-family="Times New Roman,serif" font-size="14.00" fill="red">ambrosiā</text>
</g>
<!-- ambrotosG&#45;&gt;ambrosiaG -->
<g id="edge38" class="edge">
<title>ambrotosG&#45;&gt;ambrosiaG</title>
<path fill="none" stroke="black" d="M760,-280.84C760,-268.28 760,-250.98 760,-236.5"/>
<polygon fill="black" stroke="black" points="763.5,-236.11 760,-226.11 756.5,-236.11 763.5,-236.11"/>
</g>
<!-- ambrosiaL -->
<g id="node40" class="node">
<title>ambrosiaL</title>
<text text-anchor="start" x="743.5" y="-126.8" font-family="Times New Roman,serif" font-weight="bold" font-size="14.00">Latin</text>
<text text-anchor="start" x="734" y="-112.8" font-family="Times New Roman,serif" font-size="14.00" fill="red">ambrosia</text>
</g>
<!-- ambrosiaG&#45;&gt;ambrosiaL -->
<g id="edge39" class="edge">
<title>ambrosiaG&#45;&gt;ambrosiaL</title>
<path fill="none" stroke="black" stroke-dasharray="5,2" d="M760,-189.8C760,-178.67 760,-163.94 760,-151.24"/>
<polygon fill="black" stroke="black" points="763.5,-151.18 760,-141.18 756.5,-151.18 763.5,-151.18"/>
</g>
<!-- ambrosia -->
<g id="node41" class="node">
<title>ambrosia</title>
<text text-anchor="start" x="735.5" y="-41.8" font-family="Times New Roman,serif" font-weight="bold" font-size="14.00">Modern</text>
<text text-anchor="start" x="737" y="-27.8" font-family="Times New Roman,serif" font-weight="bold" font-size="14.00">English</text>
<text text-anchor="start" x="734" y="-13.8" font-family="Times New Roman,serif" font-size="14.00" fill="red">ambrosia</text>
</g>
<!-- ambrosiaL&#45;&gt;ambrosia -->
<g id="edge40" class="edge">
<title>ambrosiaL&#45;&gt;ambrosia</title>
<path fill="none" stroke="black" stroke-dasharray="5,2" d="M760,-104.65C760,-93.76 760,-79.36 760,-66.25"/>
<polygon fill="black" stroke="black" points="763.5,-66.1 760,-56.1 756.5,-66.1 763.5,-66.1"/>
</g>
<!-- amrita -->
<g id="node43" class="node">
<title>amrita</title>
<text text-anchor="start" x="821.5" y="-41.8" font-family="Times New Roman,serif" font-weight="bold" font-size="14.00">Modern</text>
<text text-anchor="start" x="823" y="-27.8" font-family="Times New Roman,serif" font-weight="bold" font-size="14.00">English</text>
<text text-anchor="start" x="829" y="-13.8" font-family="Times New Roman,serif" font-size="14.00" fill="red">amrita</text>
</g>
<!-- amrtamS&#45;&gt;amrita -->
<g id="edge42" class="edge">
<title>amrtamS&#45;&gt;amrita</title>
<path fill="none" stroke="black" stroke-dasharray="5,2" d="M846,-183.76C846,-153.68 846,-101.02 846,-66.32"/>
<polygon fill="black" stroke="black" points="849.5,-66.18 846,-56.18 842.5,-66.18 849.5,-66.18"/>
</g>
</g>
</svg>
