<?xml version="1.0" encoding="UTF-8" standalone="no"?>
<!DOCTYPE svg PUBLIC "-//W3C//DTD SVG 1.1//EN"
 "http://www.w3.org/Graphics/SVG/1.1/DTD/svg11.dtd">
<!-- Generated by graphviz version 2.49.0 (20210828.1703)
 -->
<!-- Pages: 1 -->
<svg width="284pt" height="192pt"
 viewBox="0.00 0.00 283.50 192.00" xmlns="http://www.w3.org/2000/svg" xmlns:xlink="http://www.w3.org/1999/xlink">
<g id="graph0" class="graph" transform="scale(1 1) rotate(0) translate(4 188)">
<polygon fill="white" stroke="transparent" points="-4,4 -4,-188 279.5,-188 279.5,4 -4,4"/>
<!-- neIE -->
<g id="node1" class="node">
<title>neIE</title>
<g id="a_node1"><a xlink:title="Indo&#45;European &quot;ne&quot; not">
<polygon fill="none" stroke="black" points="228,-180 17,-180 17,-76 228,-76 228,-180"/>
<polygon fill="none" stroke="black" points="232,-184 13,-184 13,-72 232,-72 232,-184"/>
<text text-anchor="start" x="44.5" y="-135.8" font-family="Times New Roman,serif" font-weight="bold" font-size="24.00">Indo&#45;European</text>
<text text-anchor="start" x="72" y="-107.6" font-family="Times New Roman,serif" font-size="18.00" fill="red">ne</text>
<text text-anchor="start" x="153" y="-108.2" font-family="Times New Roman,serif" font-size="16.00">not</text>
</a>
</g>
</g>
<!-- neGm -->
<g id="node2" class="node">
<title>neGm</title>
<g id="a_node2"><a xlink:href="ne-not1.svg" xlink:title="Germanic">
<path fill="none" stroke="black" stroke-dasharray="5,2" d="M65,-36C65,-36 12,-36 12,-36 6,-36 0,-30 0,-24 0,-24 0,-12 0,-12 0,-6 6,0 12,0 12,0 65,0 65,0 71,0 77,-6 77,-12 77,-12 77,-24 77,-24 77,-30 71,-36 65,-36"/>
<text text-anchor="start" x="8" y="-21.8" font-family="Times New Roman,serif" font-weight="bold" font-size="14.00">Germanic</text>
<text text-anchor="start" x="29.5" y="-7.8" font-family="Times New Roman,serif" font-size="14.00" fill="red">ne&#45;</text>
</a>
</g>
</g>
<!-- neIE&#45;&gt;neGm -->
<g id="edge1" class="edge">
<title>neIE&#45;&gt;neGm</title>
<path fill="none" stroke="black" d="M79.52,-71.73C72.09,-62.18 64.7,-52.68 58.28,-44.43"/>
<polygon fill="black" stroke="black" points="60.89,-42.08 51.98,-36.34 55.36,-46.38 60.89,-42.08"/>
</g>
<!-- neL -->
<g id="node3" class="node">
<title>neL</title>
<g id="a_node3"><a xlink:href="ne-not2.svg" xlink:title="Latin">
<path fill="none" stroke="black" stroke-dasharray="5,2" d="M137.5,-36C137.5,-36 107.5,-36 107.5,-36 101.5,-36 95.5,-30 95.5,-24 95.5,-24 95.5,-12 95.5,-12 95.5,-6 101.5,0 107.5,0 107.5,0 137.5,0 137.5,0 143.5,0 149.5,-6 149.5,-12 149.5,-12 149.5,-24 149.5,-24 149.5,-30 143.5,-36 137.5,-36"/>
<text text-anchor="start" x="106" y="-21.8" font-family="Times New Roman,serif" font-weight="bold" font-size="14.00">Latin</text>
<text text-anchor="start" x="113.5" y="-7.8" font-family="Times New Roman,serif" font-size="14.00" fill="red">ne&#45;</text>
</a>
</g>
</g>
<!-- neIE&#45;&gt;neL -->
<g id="edge2" class="edge">
<title>neIE&#45;&gt;neL</title>
<path fill="none" stroke="black" d="M122.5,-71.73C122.5,-62.99 122.5,-54.28 122.5,-46.54"/>
<polygon fill="black" stroke="black" points="126,-46.34 122.5,-36.34 119,-46.34 126,-46.34"/>
</g>
<!-- other -->
<g id="node4" class="node">
<title>other</title>
<g id="a_node4"><a xlink:href="ne-not3.svg" xlink:title="other derivatives">
<path fill="none" stroke="black" stroke-dasharray="5,2" d="M263.5,-36C263.5,-36 179.5,-36 179.5,-36 173.5,-36 167.5,-30 167.5,-24 167.5,-24 167.5,-12 167.5,-12 167.5,-6 173.5,0 179.5,0 179.5,0 263.5,0 263.5,0 269.5,0 275.5,-6 275.5,-12 275.5,-12 275.5,-24 275.5,-24 275.5,-30 269.5,-36 263.5,-36"/>
<text text-anchor="start" x="175.5" y="-14.3" font-family="Times New Roman,serif" font-size="14.00">other derivatives</text>
</a>
</g>
</g>
<!-- neIE&#45;&gt;other -->
<g id="edge3" class="edge">
<title>neIE&#45;&gt;other</title>
<path fill="none" stroke="black" d="M173.16,-71.73C182.1,-61.98 190.99,-52.28 198.66,-43.91"/>
<polygon fill="black" stroke="black" points="201.43,-46.07 205.61,-36.34 196.27,-41.34 201.43,-46.07"/>
</g>
</g>
</svg>
