<?xml version="1.0" encoding="UTF-8" standalone="no"?>
<!DOCTYPE svg PUBLIC "-//W3C//DTD SVG 1.1//EN"
 "http://www.w3.org/Graphics/SVG/1.1/DTD/svg11.dtd">
<!-- Generated by graphviz version 2.49.0 (20210828.1703)
 -->
<!-- Pages: 1 -->
<svg width="472pt" height="666pt"
 viewBox="0.00 0.00 471.50 666.00" xmlns="http://www.w3.org/2000/svg" xmlns:xlink="http://www.w3.org/1999/xlink">
<g id="graph0" class="graph" transform="scale(1 1) rotate(0) translate(4 662)">
<polygon fill="white" stroke="transparent" points="-4,4 -4,-662 467.5,-662 467.5,4 -4,4"/>
<!-- ne -->
<g id="node1" class="node">
<title>ne</title>
<g id="a_node1"><a xlink:href="ne-not0.svg" xlink:title="Indo&#45;European &quot;*ne&quot; not">
<polygon fill="none" stroke="black" stroke-dasharray="5,2" points="234.5,-658 23.5,-658 23.5,-554 234.5,-554 234.5,-658"/>
<text text-anchor="start" x="51" y="-613.8" font-family="Times New Roman,serif" font-weight="bold" font-size="24.00">Indo&#45;European</text>
<text text-anchor="start" x="76" y="-585.6" font-family="Times New Roman,serif" font-size="18.00" fill="red">*ne</text>
<text text-anchor="start" x="161.5" y="-586.2" font-family="Times New Roman,serif" font-size="16.00">not</text>
</a>
</g>
</g>
<!-- neL -->
<g id="node4" class="node">
<title>neL</title>
<text text-anchor="start" x="112.5" y="-425.8" font-family="Times New Roman,serif" font-weight="bold" font-size="14.00">Latin</text>
<text text-anchor="start" x="120" y="-411.8" font-family="Times New Roman,serif" font-size="14.00" fill="red">ne&#45;</text>
</g>
<!-- ne&#45;&gt;neL -->
<g id="edge2" class="edge">
<title>ne&#45;&gt;neL</title>
<path fill="none" stroke="black" d="M129,-553.82C129,-520.22 129,-477.6 129,-450.31"/>
<polygon fill="black" stroke="black" points="132.5,-450.31 129,-440.31 125.5,-450.31 132.5,-450.31"/>
</g>
<!-- neoinom -->
<g id="node17" class="node">
<title>neoinom</title>
<text text-anchor="start" x="234" y="-502.8" font-family="Times New Roman,serif" font-size="14.00" fill="red">*ne&#45;oin&#45;om</text>
<text text-anchor="start" x="237" y="-490.4" font-family="Times New Roman,serif" font-size="12.00">not one thing</text>
</g>
<!-- ne&#45;&gt;neoinom -->
<g id="edge16" class="edge">
<title>ne&#45;&gt;neoinom</title>
<path fill="none" stroke="black" d="M196.3,-553.91C210.02,-543.5 223.8,-533.03 235.45,-524.19"/>
<polygon fill="black" stroke="black" points="237.67,-526.9 243.52,-518.06 233.44,-521.32 237.67,-526.9"/>
</g>
<!-- oino -->
<g id="node2" class="node">
<title>oino</title>
<g id="a_node2"><a xlink:href="oino-one0.svg" xlink:title="Indo&#45;European &quot;*oi&#45;no&#45;&quot; one">
<polygon fill="none" stroke="black" stroke-dasharray="5,2" points="463.5,-658 252.5,-658 252.5,-554 463.5,-554 463.5,-658"/>
<text text-anchor="start" x="280" y="-613.8" font-family="Times New Roman,serif" font-weight="bold" font-size="24.00">Indo&#45;European</text>
<text text-anchor="start" x="298" y="-585.6" font-family="Times New Roman,serif" font-size="18.00" fill="red">*oi&#45;no&#45;</text>
<text text-anchor="start" x="395.5" y="-586.2" font-family="Times New Roman,serif" font-size="16.00">one</text>
</a>
</g>
</g>
<!-- oinolo -->
<g id="node3" class="node">
<title>oinolo</title>
<text text-anchor="start" x="332" y="-496.3" font-family="Times New Roman,serif" font-size="14.00" fill="red">*oino&#45;lo&#45;</text>
</g>
<!-- oino&#45;&gt;oinolo -->
<g id="edge1" class="edge">
<title>oino&#45;&gt;oinolo</title>
<path fill="none" stroke="black" d="M358,-553.91C358,-545.01 358,-536.08 358,-528.15"/>
<polygon fill="black" stroke="black" points="361.5,-528.06 358,-518.06 354.5,-528.06 361.5,-528.06"/>
</g>
<!-- oino&#45;&gt;neoinom -->
<g id="edge17" class="edge">
<title>oino&#45;&gt;neoinom</title>
<path fill="none" stroke="black" d="M312.81,-553.91C304.13,-544.1 295.41,-534.25 287.9,-525.75"/>
<polygon fill="black" stroke="black" points="290.34,-523.23 281.09,-518.06 285.1,-527.87 290.34,-523.23"/>
</g>
<!-- ullusL -->
<g id="node6" class="node">
<title>ullusL</title>
<text text-anchor="start" x="202.5" y="-431.8" font-family="Times New Roman,serif" font-weight="bold" font-size="14.00">Latin</text>
<text text-anchor="start" x="206" y="-417.8" font-family="Times New Roman,serif" font-size="14.00" fill="red">ūllus</text>
<text text-anchor="start" x="211" y="-405.4" font-family="Times New Roman,serif" font-size="12.00">any</text>
</g>
<!-- oinolo&#45;&gt;ullusL -->
<g id="edge4" class="edge">
<title>oinolo&#45;&gt;ullusL</title>
<path fill="none" stroke="black" d="M326.81,-481.94C305.56,-470.33 277.37,-454.91 255.14,-442.76"/>
<polygon fill="black" stroke="black" points="256.78,-439.67 246.33,-437.94 253.43,-445.81 256.78,-439.67"/>
</g>
<!-- nullusL -->
<g id="node5" class="node">
<title>nullusL</title>
<text text-anchor="start" x="112.5" y="-346.8" font-family="Times New Roman,serif" font-size="14.00" fill="red">nūllus</text>
<text text-anchor="start" x="118" y="-334.4" font-family="Times New Roman,serif" font-size="12.00">none</text>
</g>
<!-- neL&#45;&gt;nullusL -->
<g id="edge3" class="edge">
<title>neL&#45;&gt;nullusL</title>
<path fill="none" stroke="black" d="M129,-403.75C129,-394.52 129,-382.93 129,-372.49"/>
<polygon fill="black" stroke="black" points="132.5,-372.18 129,-362.18 125.5,-372.18 132.5,-372.18"/>
</g>
<!-- nulOF -->
<g id="node7" class="node">
<title>nulOF</title>
<text text-anchor="start" x="8" y="-193.8" font-family="Times New Roman,serif" font-weight="bold" font-size="14.00">Old French</text>
<text text-anchor="start" x="34.5" y="-179.8" font-family="Times New Roman,serif" font-size="14.00" fill="red">nul</text>
</g>
<!-- nullusL&#45;&gt;nulOF -->
<g id="edge6" class="edge">
<title>nullusL&#45;&gt;nulOF</title>
<path fill="none" stroke="black" d="M101.82,-327.1C88.45,-317.91 73.25,-305.16 64,-290 50.67,-268.16 45.71,-239.13 43.91,-218.16"/>
<polygon fill="black" stroke="black" points="47.39,-217.76 43.23,-208.01 40.41,-218.22 47.39,-217.76"/>
</g>
<!-- nullificareL -->
<g id="node10" class="node">
<title>nullificareL</title>
<text text-anchor="start" x="91" y="-275.8" font-family="Times New Roman,serif" font-size="14.00" fill="red">nūllificāre</text>
<text text-anchor="start" x="81.5" y="-263.4" font-family="Times New Roman,serif" font-size="12.00">&quot;to make none,&quot;</text>
<text text-anchor="start" x="95" y="-251.4" font-family="Times New Roman,serif" font-size="12.00">to despise</text>
</g>
<!-- nullusL&#45;&gt;nullificareL -->
<g id="edge9" class="edge">
<title>nullusL&#45;&gt;nullificareL</title>
<path fill="none" stroke="black" d="M126.5,-325.98C125.38,-318.34 124.02,-309.06 122.72,-300.19"/>
<polygon fill="black" stroke="black" points="126.15,-299.47 121.24,-290.08 119.23,-300.48 126.15,-299.47"/>
</g>
<!-- annullareL -->
<g id="node13" class="node">
<title>annullareL</title>
<text text-anchor="start" x="188.5" y="-263.3" font-family="Times New Roman,serif" font-size="14.00" fill="red">annullāre</text>
</g>
<!-- nullusL&#45;&gt;annullareL -->
<g id="edge11" class="edge">
<title>nullusL&#45;&gt;annullareL</title>
<path fill="none" stroke="black" d="M148.06,-325.98C159.26,-315.98 173.59,-303.18 185.95,-292.16"/>
<polygon fill="black" stroke="black" points="188.6,-294.48 193.72,-285.21 183.93,-289.26 188.6,-294.48"/>
</g>
<!-- ullusL&#45;&gt;nullusL -->
<g id="edge5" class="edge">
<title>ullusL&#45;&gt;nullusL</title>
<path fill="none" stroke="black" d="M192,-398.2C181,-388.91 168.28,-378.17 157.16,-368.78"/>
<polygon fill="black" stroke="black" points="159.3,-366.01 149.4,-362.23 154.78,-371.35 159.3,-366.01"/>
</g>
<!-- nulF -->
<g id="node8" class="node">
<title>nulF</title>
<text text-anchor="start" x="16" y="-114.8" font-family="Times New Roman,serif" font-weight="bold" font-size="14.00">French</text>
<text text-anchor="start" x="29.5" y="-100.8" font-family="Times New Roman,serif" font-size="14.00" fill="red">nul</text>
</g>
<!-- nulOF&#45;&gt;nulF -->
<g id="edge7" class="edge">
<title>nulOF&#45;&gt;nulF</title>
<path fill="none" stroke="black" d="M41.89,-171.91C41.27,-162.34 40.48,-150.18 39.77,-139.32"/>
<polygon fill="black" stroke="black" points="43.25,-138.79 39.11,-129.04 36.26,-139.25 43.25,-138.79"/>
</g>
<!-- null -->
<g id="node9" class="node">
<title>null</title>
<text text-anchor="start" x="11.5" y="-35.8" font-family="Times New Roman,serif" font-weight="bold" font-size="14.00">Modern</text>
<text text-anchor="start" x="13" y="-21.8" font-family="Times New Roman,serif" font-weight="bold" font-size="14.00">English</text>
<text text-anchor="start" x="26" y="-7.8" font-family="Times New Roman,serif" font-size="14.00" fill="red">null</text>
</g>
<!-- nulF&#45;&gt;null -->
<g id="edge8" class="edge">
<title>nulF&#45;&gt;null</title>
<path fill="none" stroke="black" stroke-dasharray="5,2" d="M37.59,-92.6C37.36,-83.27 37.08,-71.45 36.82,-60.37"/>
<polygon fill="black" stroke="black" points="40.31,-59.98 36.57,-50.07 33.31,-60.15 40.31,-59.98"/>
</g>
<!-- nullify -->
<g id="node11" class="node">
<title>nullify</title>
<text text-anchor="start" x="94.5" y="-35.8" font-family="Times New Roman,serif" font-weight="bold" font-size="14.00">Modern</text>
<text text-anchor="start" x="96" y="-21.8" font-family="Times New Roman,serif" font-weight="bold" font-size="14.00">English</text>
<text text-anchor="start" x="102" y="-7.8" font-family="Times New Roman,serif" font-size="14.00" fill="red">nullify</text>
</g>
<!-- nullificareL&#45;&gt;nullify -->
<g id="edge10" class="edge">
<title>nullificareL&#45;&gt;nullify</title>
<path fill="none" stroke="black" stroke-dasharray="5,2" d="M118.09,-243.85C118.27,-201.82 118.65,-110.22 118.86,-60.23"/>
<polygon fill="black" stroke="black" points="122.36,-60.24 118.9,-50.22 115.36,-60.21 122.36,-60.24"/>
</g>
<!-- ad -->
<g id="node12" class="node">
<title>ad</title>
<text text-anchor="start" x="203.5" y="-346.8" font-family="Times New Roman,serif" font-size="14.00" fill="red">ad&#45;</text>
<text text-anchor="start" x="208" y="-334.4" font-family="Times New Roman,serif" font-size="12.00">to</text>
</g>
<!-- ad&#45;&gt;annullareL -->
<g id="edge12" class="edge">
<title>ad&#45;&gt;annullareL</title>
<path fill="none" stroke="black" d="M213,-325.98C213,-316.94 213,-305.6 213,-295.35"/>
<polygon fill="black" stroke="black" points="216.5,-295.21 213,-285.21 209.5,-295.21 216.5,-295.21"/>
</g>
<!-- annullerOF -->
<g id="node14" class="node">
<title>annullerOF</title>
<text text-anchor="start" x="173" y="-193.8" font-family="Times New Roman,serif" font-weight="bold" font-size="14.00">Old French</text>
<text text-anchor="start" x="189.5" y="-179.8" font-family="Times New Roman,serif" font-size="14.00" fill="red">anuller</text>
</g>
<!-- annullareL&#45;&gt;annullerOF -->
<g id="edge13" class="edge">
<title>annullareL&#45;&gt;annullerOF</title>
<path fill="none" stroke="black" d="M211.87,-248.98C211.26,-239.94 210.51,-228.6 209.82,-218.35"/>
<polygon fill="black" stroke="black" points="213.3,-217.96 209.15,-208.21 206.32,-218.42 213.3,-217.96"/>
</g>
<!-- annullenME -->
<g id="node15" class="node">
<title>annullenME</title>
<text text-anchor="start" x="186.5" y="-121.8" font-family="Times New Roman,serif" font-weight="bold" font-size="14.00">Middle</text>
<text text-anchor="start" x="185" y="-107.8" font-family="Times New Roman,serif" font-weight="bold" font-size="14.00">English</text>
<text text-anchor="start" x="185" y="-93.8" font-family="Times New Roman,serif" font-size="14.00" fill="red">annullen</text>
</g>
<!-- annullerOF&#45;&gt;annullenME -->
<g id="edge14" class="edge">
<title>annullerOF&#45;&gt;annullenME</title>
<path fill="none" stroke="black" stroke-dasharray="5,2" d="M208,-171.91C208,-164.33 208,-155.13 208,-146.23"/>
<polygon fill="black" stroke="black" points="211.5,-146.05 208,-136.05 204.5,-146.05 211.5,-146.05"/>
</g>
<!-- annul -->
<g id="node16" class="node">
<title>annul</title>
<text text-anchor="start" x="183.5" y="-35.8" font-family="Times New Roman,serif" font-weight="bold" font-size="14.00">Modern</text>
<text text-anchor="start" x="185" y="-21.8" font-family="Times New Roman,serif" font-weight="bold" font-size="14.00">English</text>
<text text-anchor="start" x="193" y="-7.8" font-family="Times New Roman,serif" font-size="14.00" fill="red">annul</text>
</g>
<!-- annullenME&#45;&gt;annul -->
<g id="edge15" class="edge">
<title>annullenME&#45;&gt;annul</title>
<path fill="none" stroke="black" d="M208,-85.7C208,-77.78 208,-68.83 208,-60.31"/>
<polygon fill="black" stroke="black" points="211.5,-60.24 208,-50.24 204.5,-60.24 211.5,-60.24"/>
</g>
<!-- nonL -->
<g id="node18" class="node">
<title>nonL</title>
<text text-anchor="start" x="295.5" y="-431.8" font-family="Times New Roman,serif" font-weight="bold" font-size="14.00">Latin</text>
<text text-anchor="start" x="301" y="-417.8" font-family="Times New Roman,serif" font-size="14.00" fill="red">nōn</text>
<text text-anchor="start" x="304.5" y="-405.4" font-family="Times New Roman,serif" font-size="12.00">not</text>
</g>
<!-- neoinom&#45;&gt;nonL -->
<g id="edge18" class="edge">
<title>neoinom&#45;&gt;nonL</title>
<path fill="none" stroke="black" d="M276.44,-481.75C281.26,-473.79 287.14,-464.07 292.73,-454.85"/>
<polygon fill="black" stroke="black" points="295.76,-456.6 297.94,-446.23 289.77,-452.97 295.76,-456.6"/>
</g>
<!-- nonOF -->
<g id="node19" class="node">
<title>nonOF</title>
<text text-anchor="start" x="277" y="-193.8" font-family="Times New Roman,serif" font-weight="bold" font-size="14.00">Old French</text>
<text text-anchor="start" x="299" y="-179.8" font-family="Times New Roman,serif" font-size="14.00" fill="red">non&#45;</text>
</g>
<!-- nonL&#45;&gt;nonOF -->
<g id="edge19" class="edge">
<title>nonL&#45;&gt;nonOF</title>
<path fill="none" stroke="black" d="M312,-397.68C312,-354.86 312,-263.92 312,-218.3"/>
<polygon fill="black" stroke="black" points="315.5,-218.25 312,-208.25 308.5,-218.25 315.5,-218.25"/>
</g>
<!-- nonplusL -->
<g id="node22" class="node">
<title>nonplusL</title>
<text text-anchor="start" x="356.5" y="-269.8" font-family="Times New Roman,serif" font-size="14.00" fill="red">nōn plūs</text>
<text text-anchor="start" x="362" y="-257.4" font-family="Times New Roman,serif" font-size="12.00">no more</text>
</g>
<!-- nonL&#45;&gt;nonplusL -->
<g id="edge22" class="edge">
<title>nonL&#45;&gt;nonplusL</title>
<path fill="none" stroke="black" d="M322.48,-397.76C335.01,-369.97 355.94,-323.57 369.08,-294.44"/>
<polygon fill="black" stroke="black" points="372.29,-295.82 373.21,-285.27 365.91,-292.95 372.29,-295.82"/>
</g>
<!-- nonME -->
<g id="node20" class="node">
<title>nonME</title>
<text text-anchor="start" x="287.5" y="-121.8" font-family="Times New Roman,serif" font-weight="bold" font-size="14.00">Middle</text>
<text text-anchor="start" x="286" y="-107.8" font-family="Times New Roman,serif" font-weight="bold" font-size="14.00">English</text>
<text text-anchor="start" x="296" y="-93.8" font-family="Times New Roman,serif" font-size="14.00" fill="red">non&#45;</text>
</g>
<!-- nonOF&#45;&gt;nonME -->
<g id="edge20" class="edge">
<title>nonOF&#45;&gt;nonME</title>
<path fill="none" stroke="black" stroke-dasharray="5,2" d="M311.33,-171.91C311.04,-164.33 310.68,-155.13 310.33,-146.23"/>
<polygon fill="black" stroke="black" points="313.82,-145.91 309.94,-136.05 306.83,-146.18 313.82,-145.91"/>
</g>
<!-- nonE -->
<g id="node21" class="node">
<title>nonE</title>
<text text-anchor="start" x="281.5" y="-35.8" font-family="Times New Roman,serif" font-weight="bold" font-size="14.00">Modern</text>
<text text-anchor="start" x="283" y="-21.8" font-family="Times New Roman,serif" font-weight="bold" font-size="14.00">English</text>
<text text-anchor="start" x="293" y="-7.8" font-family="Times New Roman,serif" font-size="14.00" fill="red">non&#45;</text>
</g>
<!-- nonME&#45;&gt;nonE -->
<g id="edge21" class="edge">
<title>nonME&#45;&gt;nonE</title>
<path fill="none" stroke="black" d="M308.13,-85.7C307.85,-77.78 307.53,-68.83 307.23,-60.31"/>
<polygon fill="black" stroke="black" points="310.72,-60.11 306.87,-50.24 303.73,-60.36 310.72,-60.11"/>
</g>
<!-- nonplus -->
<g id="node23" class="node">
<title>nonplus</title>
<text text-anchor="start" x="364.5" y="-35.8" font-family="Times New Roman,serif" font-weight="bold" font-size="14.00">Modern</text>
<text text-anchor="start" x="366" y="-21.8" font-family="Times New Roman,serif" font-weight="bold" font-size="14.00">English</text>
<text text-anchor="start" x="366.5" y="-7.8" font-family="Times New Roman,serif" font-size="14.00" fill="red">nonplus</text>
</g>
<!-- nonplusL&#45;&gt;nonplus -->
<g id="edge23" class="edge">
<title>nonplusL&#45;&gt;nonplus</title>
<path fill="none" stroke="black" stroke-dasharray="5,2" d="M381.58,-248.74C382.89,-209.32 386.13,-112.1 387.86,-60.1"/>
<polygon fill="black" stroke="black" points="391.36,-60.14 388.2,-50.03 384.37,-59.91 391.36,-60.14"/>
</g>
</g>
</svg>
