<?xml version="1.0" encoding="UTF-8" standalone="no"?>
<!DOCTYPE svg PUBLIC "-//W3C//DTD SVG 1.1//EN"
 "http://www.w3.org/Graphics/SVG/1.1/DTD/svg11.dtd">
<!-- Generated by graphviz version 2.49.0 (20210828.1703)
 -->
<!-- Pages: 1 -->
<svg width="793pt" height="614pt"
 viewBox="0.00 0.00 792.50 614.00" xmlns="http://www.w3.org/2000/svg" xmlns:xlink="http://www.w3.org/1999/xlink">
<g id="graph0" class="graph" transform="scale(1 1) rotate(0) translate(4 610)">
<polygon fill="white" stroke="transparent" points="-4,4 -4,-610 788.5,-610 788.5,4 -4,4"/>
<!-- newn -->
<g id="node1" class="node">
<title>newn</title>
<g id="a_node1"><a xlink:title="Indo&#45;European &quot;newn̥&quot; nine">
<polygon fill="none" stroke="black" points="553,-602 342,-602 342,-498 553,-498 553,-602"/>
<polygon fill="none" stroke="black" points="557,-606 338,-606 338,-494 557,-494 557,-606"/>
<text text-anchor="start" x="369.5" y="-557.8" font-family="Times New Roman,serif" font-weight="bold" font-size="24.00">Indo&#45;European</text>
<text text-anchor="start" x="390" y="-529.6" font-family="Times New Roman,serif" font-size="18.00" fill="red">newn̥</text>
<text text-anchor="start" x="479" y="-530.2" font-family="Times New Roman,serif" font-size="16.00">nine</text>
</a>
</g>
</g>
<!-- neweno -->
<g id="node2" class="node">
<title>neweno</title>
<text text-anchor="start" x="405.5" y="-442.8" font-family="Times New Roman,serif" font-size="14.00" fill="red">neweno&#45;</text>
<text text-anchor="start" x="418.5" y="-430.4" font-family="Times New Roman,serif" font-size="12.00">ninth</text>
</g>
<!-- newn&#45;&gt;neweno -->
<g id="edge1" class="edge">
<title>newn&#45;&gt;neweno</title>
<path fill="none" stroke="black" d="M461.5,-493C461.5,-493 453.45,-479.92 445.43,-466.89"/>
<polygon fill="black" stroke="black" points="448.2,-464.71 439.98,-458.03 442.24,-468.38 448.2,-464.71"/>
</g>
<!-- enewn -->
<g id="node3" class="node">
<title>enewn</title>
<text text-anchor="start" x="561" y="-436.3" font-family="Times New Roman,serif" font-size="14.00" fill="red">ənewn̥, ənwn̥</text>
</g>
<!-- newn&#45;&gt;enewn -->
<g id="edge2" class="edge">
<title>newn&#45;&gt;enewn</title>
<path fill="none" stroke="black" d="M461.5,-493C461.5,-493 505.53,-476.17 543.48,-461.65"/>
<polygon fill="black" stroke="black" points="544.88,-464.87 552.97,-458.03 542.38,-458.33 544.88,-464.87"/>
</g>
<!-- nigunGm -->
<g id="node9" class="node">
<title>nigunGm</title>
<text text-anchor="start" x="180" y="-365.8" font-family="Times New Roman,serif" font-weight="bold" font-size="14.00">Germanic</text>
<text text-anchor="start" x="175" y="-351.8" font-family="Times New Roman,serif" font-size="14.00" fill="red">niwun, nigun</text>
</g>
<!-- newn&#45;&gt;nigunGm -->
<g id="edge7" class="edge">
<title>newn&#45;&gt;nigunGm</title>
<path fill="none" stroke="black" d="M461.5,-493C461.5,-493 419.84,-475.67 388.5,-458 363.05,-443.65 358.95,-436.35 333.5,-422 309.38,-408.4 281.65,-394.92 258.62,-384.29"/>
<polygon fill="black" stroke="black" points="259.94,-381.04 249.4,-380.06 257.03,-387.41 259.94,-381.04"/>
</g>
<!-- novemL -->
<g id="node19" class="node">
<title>novemL</title>
<text text-anchor="start" x="707" y="-365.8" font-family="Times New Roman,serif" font-weight="bold" font-size="14.00">Latin</text>
<text text-anchor="start" x="704.5" y="-351.8" font-family="Times New Roman,serif" font-size="14.00" fill="red">novem</text>
</g>
<!-- newn&#45;&gt;novemL -->
<g id="edge18" class="edge">
<title>newn&#45;&gt;novemL</title>
<path fill="none" stroke="black" d="M461.5,-493C461.5,-493 577.64,-502.61 650.5,-458 677.51,-441.46 698.21,-411 710.56,-389.02"/>
<polygon fill="black" stroke="black" points="713.66,-390.64 715.33,-380.18 707.5,-387.31 713.66,-390.64"/>
</g>
<!-- nonusL -->
<g id="node24" class="node">
<title>nonusL</title>
<text text-anchor="start" x="383" y="-371.8" font-family="Times New Roman,serif" font-weight="bold" font-size="14.00">Latin</text>
<text text-anchor="start" x="382.5" y="-357.8" font-family="Times New Roman,serif" font-size="14.00" fill="red">nōnus</text>
<text text-anchor="start" x="388.5" y="-345.4" font-family="Times New Roman,serif" font-size="12.00">ninth</text>
</g>
<!-- neweno&#45;&gt;nonusL -->
<g id="edge23" class="edge">
<title>neweno&#45;&gt;nonusL</title>
<path fill="none" stroke="black" d="M422.69,-421.75C419.65,-414.04 415.95,-404.67 412.41,-395.7"/>
<polygon fill="black" stroke="black" points="415.6,-394.24 408.67,-386.23 409.09,-396.82 415.6,-394.24"/>
</g>
<!-- enneaG -->
<g id="node36" class="node">
<title>enneaG</title>
<text text-anchor="start" x="613.5" y="-365.8" font-family="Times New Roman,serif" font-weight="bold" font-size="14.00">Greek</text>
<text text-anchor="start" x="617.5" y="-351.8" font-family="Times New Roman,serif" font-size="14.00" fill="red">ennea</text>
</g>
<!-- enewn&#45;&gt;enneaG -->
<g id="edge36" class="edge">
<title>enewn&#45;&gt;enneaG</title>
<path fill="none" stroke="black" d="M605.67,-421.75C610.18,-412.23 615.88,-400.2 620.94,-389.51"/>
<polygon fill="black" stroke="black" points="624.25,-390.71 625.36,-380.18 617.92,-387.72 624.25,-390.71"/>
</g>
<!-- dekmIE -->
<g id="node4" class="node">
<title>dekmIE</title>
<g id="a_node4"><a xlink:href="dekm-ten0.svg" xlink:title="&lt;b&gt;Indo&#45;&lt;br/&gt;European&lt;/b&gt;&lt;br/&gt;&lt;font color=&quot;red&quot;&gt;dekm̥&lt;/font&gt;&lt;br/&gt;&lt;font point&#45;size=&quot;12&quot;&gt;ten&lt;/font&gt;">
<path fill="none" stroke="black" stroke-dasharray="5,2" d="M278,-581C278,-581 225,-581 225,-581 219,-581 213,-575 213,-569 213,-569 213,-531 213,-531 213,-525 219,-519 225,-519 225,-519 278,-519 278,-519 284,-519 290,-525 290,-531 290,-531 290,-569 290,-569 290,-575 284,-581 278,-581"/>
<text text-anchor="start" x="235" y="-566.8" font-family="Times New Roman,serif" font-weight="bold" font-size="14.00">Indo&#45;</text>
<text text-anchor="start" x="221" y="-552.8" font-family="Times New Roman,serif" font-weight="bold" font-size="14.00">European</text>
<text text-anchor="start" x="236" y="-538.8" font-family="Times New Roman,serif" font-size="14.00" fill="red">dekm̥</text>
<text text-anchor="start" x="244.5" y="-526.4" font-family="Times New Roman,serif" font-size="12.00">ten</text>
</a>
</g>
</g>
<!-- tehunGm -->
<g id="node5" class="node">
<title>tehunGm</title>
<text text-anchor="start" x="80" y="-365.8" font-family="Times New Roman,serif" font-weight="bold" font-size="14.00">Germanic</text>
<text text-anchor="start" x="95" y="-351.8" font-family="Times New Roman,serif" font-size="14.00" fill="red">tehun</text>
</g>
<!-- dekmIE&#45;&gt;tehunGm -->
<g id="edge3" class="edge">
<title>dekmIE&#45;&gt;tehunGm</title>
<path fill="none" stroke="black" d="M243.5,-518C243.5,-518 169.38,-431.62 131.81,-387.83"/>
<polygon fill="black" stroke="black" points="134.41,-385.49 125.24,-380.18 129.1,-390.05 134.41,-385.49"/>
</g>
<!-- kontaIE -->
<g id="node7" class="node">
<title>kontaIE</title>
<text text-anchor="start" x="222.5" y="-436.3" font-family="Times New Roman,serif" font-size="14.00" fill="red">&#45;dkōm&#45;tā̆, &#45;kontā̆</text>
</g>
<!-- dekmIE&#45;&gt;kontaIE -->
<g id="edge5" class="edge">
<title>dekmIE&#45;&gt;kontaIE</title>
<path fill="none" stroke="black" d="M243.5,-518C243.5,-518 252.95,-490.01 260.46,-467.78"/>
<polygon fill="black" stroke="black" points="263.85,-468.68 263.73,-458.09 257.21,-466.44 263.85,-468.68"/>
</g>
<!-- teneOE -->
<g id="node6" class="node">
<title>teneOE</title>
<text text-anchor="start" x="25" y="-287.8" font-family="Times New Roman,serif" font-weight="bold" font-size="14.00">Old English</text>
<text text-anchor="start" x="13.5" y="-273.8" font-family="Times New Roman,serif" font-size="14.00" fill="red">&#45;tēne, &#45;tīne, &#45;tȳne</text>
</g>
<!-- tehunGm&#45;&gt;teneOE -->
<g id="edge4" class="edge">
<title>tehunGm&#45;&gt;teneOE</title>
<path fill="none" stroke="black" d="M99.38,-343.75C93.12,-334.04 85.17,-321.71 78.17,-310.86"/>
<polygon fill="black" stroke="black" points="80.94,-308.69 72.57,-302.18 75.05,-312.48 80.94,-308.69"/>
</g>
<!-- tehunGm&#45;&gt;nigunGm -->
<!-- nigonteneOE -->
<g id="node16" class="node">
<title>nigonteneOE</title>
<text text-anchor="start" x="28.5" y="-208.8" font-family="Times New Roman,serif" font-size="14.00" fill="red">nigontēne</text>
<text text-anchor="start" x="37" y="-196.4" font-family="Times New Roman,serif" font-size="12.00">nineteen</text>
</g>
<!-- teneOE&#45;&gt;nigonteneOE -->
<g id="edge15" class="edge">
<title>teneOE&#45;&gt;nigonteneOE</title>
<path fill="none" stroke="black" d="M62.97,-265.91C63.84,-255.89 64.9,-243.56 65.63,-235.08"/>
<polygon fill="black" stroke="black" points="69.13,-235.26 66.5,-225 62.15,-234.66 69.13,-235.26"/>
</g>
<!-- gintaL -->
<g id="node8" class="node">
<title>gintaL</title>
<text text-anchor="start" x="284" y="-371.8" font-family="Times New Roman,serif" font-weight="bold" font-size="14.00">Latin</text>
<text text-anchor="start" x="285" y="-357.8" font-family="Times New Roman,serif" font-size="14.00" fill="red">&#45;gintā</text>
<text text-anchor="start" x="280.5" y="-345.4" font-family="Times New Roman,serif" font-size="12.00">ten times</text>
</g>
<!-- kontaIE&#45;&gt;gintaL -->
<g id="edge6" class="edge">
<title>kontaIE&#45;&gt;gintaL</title>
<path fill="none" stroke="black" d="M276.53,-421.75C279.68,-414.04 283.5,-404.67 287.16,-395.7"/>
<polygon fill="black" stroke="black" points="290.49,-396.81 291.03,-386.23 284.01,-394.17 290.49,-396.81"/>
</g>
<!-- gintaL&#45;&gt;nonusL -->
<!-- nonagintaL -->
<g id="node26" class="node">
<title>nonagintaL</title>
<text text-anchor="start" x="273.5" y="-286.8" font-family="Times New Roman,serif" font-size="14.00" fill="red">nōnāgintā</text>
<text text-anchor="start" x="287" y="-274.4" font-family="Times New Roman,serif" font-size="12.00">ninety</text>
</g>
<!-- gintaL&#45;&gt;nonagintaL -->
<g id="edge26" class="edge">
<title>gintaL&#45;&gt;nonagintaL</title>
<path fill="none" stroke="black" d="M304.11,-337.74C305.44,-329.17 306.88,-319.9 307.93,-313.09"/>
<polygon fill="black" stroke="black" points="311.43,-313.42 309.5,-303 304.51,-312.35 311.43,-313.42"/>
</g>
<!-- nigunGm&#45;&gt;gintaL -->
<!-- nigonOE -->
<g id="node10" class="node">
<title>nigonOE</title>
<text text-anchor="start" x="156" y="-287.8" font-family="Times New Roman,serif" font-weight="bold" font-size="14.00">Old English</text>
<text text-anchor="start" x="177" y="-273.8" font-family="Times New Roman,serif" font-size="14.00" fill="red">nigon</text>
</g>
<!-- nigunGm&#45;&gt;nigonOE -->
<g id="edge8" class="edge">
<title>nigunGm&#45;&gt;nigonOE</title>
<path fill="none" stroke="black" d="M206.42,-343.75C204.21,-334.43 201.43,-322.69 198.93,-312.17"/>
<polygon fill="black" stroke="black" points="202.28,-311.1 196.57,-302.18 195.47,-312.71 202.28,-311.1"/>
</g>
<!-- nineME -->
<g id="node11" class="node">
<title>nineME</title>
<text text-anchor="start" x="177" y="-126.8" font-family="Times New Roman,serif" font-weight="bold" font-size="14.00">Middle</text>
<text text-anchor="start" x="175.5" y="-112.8" font-family="Times New Roman,serif" font-weight="bold" font-size="14.00">English</text>
<text text-anchor="start" x="187" y="-98.8" font-family="Times New Roman,serif" font-size="14.00" fill="red">nine</text>
</g>
<!-- nigonOE&#45;&gt;nineME -->
<g id="edge9" class="edge">
<title>nigonOE&#45;&gt;nineME</title>
<path fill="none" stroke="black" d="M181.5,-265C181.5,-265 189.57,-194.76 194.59,-151.06"/>
<polygon fill="black" stroke="black" points="198.07,-151.44 195.73,-141.11 191.11,-150.64 198.07,-151.44"/>
</g>
<!-- nigontigOE -->
<g id="node13" class="node">
<title>nigontigOE</title>
<text text-anchor="start" x="117" y="-208.8" font-family="Times New Roman,serif" font-size="14.00" fill="red">nigontig</text>
<text text-anchor="start" x="126" y="-196.4" font-family="Times New Roman,serif" font-size="12.00">ninety</text>
</g>
<!-- nigonOE&#45;&gt;nigontigOE -->
<g id="edge11" class="edge">
<title>nigonOE&#45;&gt;nigontigOE</title>
<path fill="none" stroke="black" d="M181.5,-265C181.5,-265 169.23,-248.05 157.95,-232.48"/>
<polygon fill="black" stroke="black" points="160.57,-230.13 151.87,-224.09 154.9,-234.24 160.57,-230.13"/>
</g>
<!-- nigonOE&#45;&gt;nigonteneOE -->
<g id="edge14" class="edge">
<title>nigonOE&#45;&gt;nigonteneOE</title>
<path fill="none" stroke="black" d="M181.5,-265C181.5,-265 104.12,-238.08 76.3,-228.41"/>
<polygon fill="black" stroke="black" points="77.09,-224.98 66.5,-225 74.8,-231.59 77.09,-224.98"/>
</g>
<!-- nine -->
<g id="node12" class="node">
<title>nine</title>
<text text-anchor="start" x="174" y="-35.8" font-family="Times New Roman,serif" font-weight="bold" font-size="14.00">Modern</text>
<text text-anchor="start" x="175.5" y="-21.8" font-family="Times New Roman,serif" font-weight="bold" font-size="14.00">English</text>
<text text-anchor="start" x="187" y="-7.8" font-family="Times New Roman,serif" font-size="14.00" fill="red">nine</text>
</g>
<!-- nineME&#45;&gt;nine -->
<g id="edge10" class="edge">
<title>nineME&#45;&gt;nine</title>
<path fill="none" stroke="black" d="M198.5,-90.68C198.5,-81.36 198.5,-70.54 198.5,-60.45"/>
<polygon fill="black" stroke="black" points="202,-60.29 198.5,-50.29 195,-60.29 202,-60.29"/>
</g>
<!-- nintiME -->
<g id="node14" class="node">
<title>nintiME</title>
<text text-anchor="start" x="95" y="-126.8" font-family="Times New Roman,serif" font-weight="bold" font-size="14.00">Middle</text>
<text text-anchor="start" x="93.5" y="-112.8" font-family="Times New Roman,serif" font-weight="bold" font-size="14.00">English</text>
<text text-anchor="start" x="104.5" y="-98.8" font-family="Times New Roman,serif" font-size="14.00" fill="red">ninti</text>
</g>
<!-- nigontigOE&#45;&gt;nintiME -->
<g id="edge12" class="edge">
<title>nigontigOE&#45;&gt;nintiME</title>
<path fill="none" stroke="black" d="M134.96,-187.61C132.21,-177.1 128.61,-163.34 125.32,-150.76"/>
<polygon fill="black" stroke="black" points="128.69,-149.8 122.78,-141.01 121.92,-151.57 128.69,-149.8"/>
</g>
<!-- ninety -->
<g id="node15" class="node">
<title>ninety</title>
<text text-anchor="start" x="91" y="-35.8" font-family="Times New Roman,serif" font-weight="bold" font-size="14.00">Modern</text>
<text text-anchor="start" x="92.5" y="-21.8" font-family="Times New Roman,serif" font-weight="bold" font-size="14.00">English</text>
<text text-anchor="start" x="98.5" y="-7.8" font-family="Times New Roman,serif" font-size="14.00" fill="red">ninety</text>
</g>
<!-- nintiME&#45;&gt;ninety -->
<g id="edge13" class="edge">
<title>nintiME&#45;&gt;ninety</title>
<path fill="none" stroke="black" d="M116.23,-90.68C116.12,-81.36 116,-70.54 115.89,-60.45"/>
<polygon fill="black" stroke="black" points="119.39,-60.25 115.77,-50.29 112.39,-60.33 119.39,-60.25"/>
</g>
<!-- ninteneME -->
<g id="node17" class="node">
<title>ninteneME</title>
<text text-anchor="start" x="12" y="-126.8" font-family="Times New Roman,serif" font-weight="bold" font-size="14.00">Middle</text>
<text text-anchor="start" x="10.5" y="-112.8" font-family="Times New Roman,serif" font-weight="bold" font-size="14.00">English</text>
<text text-anchor="start" x="13.5" y="-98.8" font-family="Times New Roman,serif" font-size="14.00" fill="red">nintene</text>
</g>
<!-- nigonteneOE&#45;&gt;ninteneME -->
<g id="edge16" class="edge">
<title>nigonteneOE&#45;&gt;ninteneME</title>
<path fill="none" stroke="black" d="M51.15,-187.61C48.53,-177.1 45.09,-163.34 41.94,-150.76"/>
<polygon fill="black" stroke="black" points="45.32,-149.86 39.5,-141.01 38.53,-151.56 45.32,-149.86"/>
</g>
<!-- nineteen -->
<g id="node18" class="node">
<title>nineteen</title>
<text text-anchor="start" x="8" y="-35.8" font-family="Times New Roman,serif" font-weight="bold" font-size="14.00">Modern</text>
<text text-anchor="start" x="9.5" y="-21.8" font-family="Times New Roman,serif" font-weight="bold" font-size="14.00">English</text>
<text text-anchor="start" x="9.5" y="-7.8" font-family="Times New Roman,serif" font-size="14.00" fill="red">nineteen</text>
</g>
<!-- ninteneME&#45;&gt;nineteen -->
<g id="edge17" class="edge">
<title>ninteneME&#45;&gt;nineteen</title>
<path fill="none" stroke="black" d="M33.23,-90.68C33.12,-81.36 33,-70.54 32.89,-60.45"/>
<polygon fill="black" stroke="black" points="36.39,-60.25 32.77,-50.29 29.39,-60.33 36.39,-60.25"/>
</g>
<!-- novemberL -->
<g id="node20" class="node">
<title>novemberL</title>
<text text-anchor="start" x="712" y="-286.8" font-family="Times New Roman,serif" font-size="14.00" fill="red">November</text>
<text text-anchor="start" x="715.5" y="-274.4" font-family="Times New Roman,serif" font-size="12.00">ninth month</text>
</g>
<!-- novemL&#45;&gt;novemberL -->
<g id="edge19" class="edge">
<title>novemL&#45;&gt;novemberL</title>
<path fill="none" stroke="black" d="M727.58,-343.75C729.79,-334.43 732.57,-322.69 735.07,-312.17"/>
<polygon fill="black" stroke="black" points="738.53,-312.71 737.43,-302.18 731.72,-311.1 738.53,-312.71"/>
</g>
<!-- novembreOF -->
<g id="node21" class="node">
<title>novembreOF</title>
<text text-anchor="start" x="706.5" y="-209.8" font-family="Times New Roman,serif" font-weight="bold" font-size="14.00">Old French</text>
<text text-anchor="start" x="712" y="-195.8" font-family="Times New Roman,serif" font-size="14.00" fill="red">Novembre</text>
</g>
<!-- novemberL&#45;&gt;novembreOF -->
<g id="edge20" class="edge">
<title>novemberL&#45;&gt;novembreOF</title>
<path fill="none" stroke="black" d="M741.5,-265.75C741.5,-256.52 741.5,-244.93 741.5,-234.49"/>
<polygon fill="black" stroke="black" points="745,-234.18 741.5,-224.18 738,-234.18 745,-234.18"/>
</g>
<!-- novembreME -->
<g id="node22" class="node">
<title>novembreME</title>
<text text-anchor="start" x="720" y="-126.8" font-family="Times New Roman,serif" font-weight="bold" font-size="14.00">Middle</text>
<text text-anchor="start" x="718.5" y="-112.8" font-family="Times New Roman,serif" font-weight="bold" font-size="14.00">English</text>
<text text-anchor="start" x="712" y="-98.8" font-family="Times New Roman,serif" font-size="14.00" fill="red">Novembre</text>
</g>
<!-- novembreOF&#45;&gt;novembreME -->
<g id="edge21" class="edge">
<title>novembreOF&#45;&gt;novembreME</title>
<path fill="none" stroke="black" stroke-dasharray="1,5" d="M741.5,-187.61C741.5,-177.2 741.5,-163.61 741.5,-151.14"/>
<polygon fill="black" stroke="black" points="745,-151.01 741.5,-141.01 738,-151.01 745,-151.01"/>
</g>
<!-- november -->
<g id="node23" class="node">
<title>november</title>
<text text-anchor="start" x="717" y="-35.8" font-family="Times New Roman,serif" font-weight="bold" font-size="14.00">Modern</text>
<text text-anchor="start" x="718.5" y="-21.8" font-family="Times New Roman,serif" font-weight="bold" font-size="14.00">English</text>
<text text-anchor="start" x="712" y="-7.8" font-family="Times New Roman,serif" font-size="14.00" fill="red">November</text>
</g>
<!-- novembreME&#45;&gt;november -->
<g id="edge22" class="edge">
<title>novembreME&#45;&gt;november</title>
<path fill="none" stroke="black" d="M741.5,-90.68C741.5,-81.36 741.5,-70.54 741.5,-60.45"/>
<polygon fill="black" stroke="black" points="745,-60.29 741.5,-50.29 738,-60.29 745,-60.29"/>
</g>
<!-- nonaE -->
<g id="node25" class="node">
<title>nonaE</title>
<text text-anchor="start" x="530" y="-35.8" font-family="Times New Roman,serif" font-weight="bold" font-size="14.00">Modern</text>
<text text-anchor="start" x="531.5" y="-21.8" font-family="Times New Roman,serif" font-weight="bold" font-size="14.00">English</text>
<text text-anchor="start" x="538.5" y="-7.8" font-family="Times New Roman,serif" font-size="14.00" fill="red">nona&#45;</text>
</g>
<!-- nonusL&#45;&gt;nonaE -->
<g id="edge24" class="edge">
<title>nonusL&#45;&gt;nonaE</title>
<path fill="none" stroke="black" stroke-dasharray="1,5" d="M400.5,-337C400.5,-337 486.01,-345.02 522.5,-302 580.95,-233.08 570.99,-117.23 561.44,-60.04"/>
<polygon fill="black" stroke="black" points="564.87,-59.31 559.68,-50.07 557.97,-60.52 564.87,-59.31"/>
</g>
<!-- nonusL&#45;&gt;nonagintaL -->
<g id="edge25" class="edge">
<title>nonusL&#45;&gt;nonagintaL</title>
<path fill="none" stroke="black" d="M400.5,-337C400.5,-337 342.15,-315.2 318.9,-306.51"/>
<polygon fill="black" stroke="black" points="320.09,-303.22 309.5,-303 317.64,-309.78 320.09,-303.22"/>
</g>
<!-- nonoI -->
<g id="node29" class="node">
<title>nonoI</title>
<text text-anchor="start" x="364.5" y="-287.8" font-family="Times New Roman,serif" font-weight="bold" font-size="14.00">Italian</text>
<text text-anchor="start" x="370" y="-273.8" font-family="Times New Roman,serif" font-size="14.00" fill="red">nono</text>
</g>
<!-- nonusL&#45;&gt;nonoI -->
<g id="edge29" class="edge">
<title>nonusL&#45;&gt;nonoI</title>
<path fill="none" stroke="black" d="M400.5,-337C400.5,-337 396.63,-324.42 392.7,-311.64"/>
<polygon fill="black" stroke="black" points="396.03,-310.56 389.74,-302.03 389.33,-312.61 396.03,-310.56"/>
</g>
<!-- nonaL -->
<g id="node32" class="node">
<title>nonaL</title>
<text text-anchor="start" x="441" y="-286.8" font-family="Times New Roman,serif" font-size="14.00" fill="red">nōna (hōra)</text>
<text text-anchor="start" x="447.5" y="-274.4" font-family="Times New Roman,serif" font-size="12.00">ninth (hour)</text>
</g>
<!-- nonusL&#45;&gt;nonaL -->
<g id="edge32" class="edge">
<title>nonusL&#45;&gt;nonaL</title>
<path fill="none" stroke="black" d="M400.5,-337C400.5,-337 421.79,-321.83 441.37,-307.88"/>
<polygon fill="black" stroke="black" points="443.48,-310.68 449.6,-302.03 439.42,-304.98 443.48,-310.68"/>
</g>
<!-- nonageniL -->
<g id="node27" class="node">
<title>nonageniL</title>
<text text-anchor="start" x="268.5" y="-131.8" font-family="Times New Roman,serif" font-size="14.00" fill="red">nōnāgēnī</text>
<text text-anchor="start" x="269" y="-119.4" font-family="Times New Roman,serif" font-size="12.00">ninety each</text>
<text text-anchor="start" x="258" y="-105.8" font-family="Times New Roman,serif" font-size="14.00" fill="red">nōnāgēnārius</text>
<text text-anchor="start" x="257" y="-93.4" font-family="Times New Roman,serif" font-size="12.00">containing ninety</text>
</g>
<!-- nonagintaL&#45;&gt;nonageniL -->
<g id="edge27" class="edge">
<title>nonagintaL&#45;&gt;nonageniL</title>
<path fill="none" stroke="black" d="M299.88,-265.86C298.96,-240.26 297.19,-191.33 295.93,-156.56"/>
<polygon fill="black" stroke="black" points="299.42,-156.14 295.56,-146.27 292.42,-156.39 299.42,-156.14"/>
</g>
<!-- nonagenarian -->
<g id="node28" class="node">
<title>nonagenarian</title>
<text text-anchor="start" x="269" y="-35.8" font-family="Times New Roman,serif" font-weight="bold" font-size="14.00">Modern</text>
<text text-anchor="start" x="270.5" y="-21.8" font-family="Times New Roman,serif" font-weight="bold" font-size="14.00">English</text>
<text text-anchor="start" x="257" y="-7.8" font-family="Times New Roman,serif" font-size="14.00" fill="red">nonagenarian</text>
</g>
<!-- nonageniL&#45;&gt;nonagenarian -->
<g id="edge28" class="edge">
<title>nonageniL&#45;&gt;nonagenarian</title>
<path fill="none" stroke="black" stroke-dasharray="1,5" d="M294.17,-85.86C294.08,-77.73 293.98,-68.82 293.89,-60.42"/>
<polygon fill="black" stroke="black" points="297.38,-60.11 293.77,-50.15 290.38,-60.19 297.38,-60.11"/>
</g>
<!-- nonettoI -->
<g id="node30" class="node">
<title>nonettoI</title>
<text text-anchor="start" x="356" y="-208.8" font-family="Times New Roman,serif" font-size="14.00" fill="red">nonetto</text>
<text text-anchor="start" x="351" y="-196.4" font-family="Times New Roman,serif" font-size="12.00">(diminutive)</text>
</g>
<!-- nonoI&#45;&gt;nonettoI -->
<g id="edge30" class="edge">
<title>nonoI&#45;&gt;nonettoI</title>
<path fill="none" stroke="black" d="M382.91,-265.75C382.05,-256.43 380.97,-244.69 380,-234.17"/>
<polygon fill="black" stroke="black" points="383.48,-233.81 379.08,-224.18 376.51,-234.46 383.48,-233.81"/>
</g>
<!-- nonet -->
<g id="node31" class="node">
<title>nonet</title>
<text text-anchor="start" x="364" y="-35.8" font-family="Times New Roman,serif" font-weight="bold" font-size="14.00">Modern</text>
<text text-anchor="start" x="365.5" y="-21.8" font-family="Times New Roman,serif" font-weight="bold" font-size="14.00">English</text>
<text text-anchor="start" x="373" y="-7.8" font-family="Times New Roman,serif" font-size="14.00" fill="red">nonet</text>
</g>
<!-- nonettoI&#45;&gt;nonet -->
<g id="edge31" class="edge">
<title>nonettoI&#45;&gt;nonet</title>
<path fill="none" stroke="black" stroke-dasharray="1,5" d="M378.55,-187.84C380.35,-158.56 384.05,-98.45 386.39,-60.3"/>
<polygon fill="black" stroke="black" points="389.9,-60.36 387.02,-50.16 382.91,-59.93 389.9,-60.36"/>
</g>
<!-- nonOE -->
<g id="node33" class="node">
<title>nonOE</title>
<text text-anchor="start" x="438" y="-215.8" font-family="Times New Roman,serif" font-weight="bold" font-size="14.00">Old English</text>
<text text-anchor="start" x="463.5" y="-201.8" font-family="Times New Roman,serif" font-size="14.00" fill="red">nōn</text>
<text text-anchor="start" x="442.5" y="-189.4" font-family="Times New Roman,serif" font-size="12.00">(roughly 3pm)</text>
</g>
<!-- nonaL&#45;&gt;nonOE -->
<g id="edge33" class="edge">
<title>nonaL&#45;&gt;nonOE</title>
<path fill="none" stroke="black" stroke-dasharray="1,5" d="M473.73,-265.75C473.83,-258.2 473.95,-249.07 474.06,-240.28"/>
<polygon fill="black" stroke="black" points="477.56,-240.27 474.19,-230.23 470.56,-240.18 477.56,-240.27"/>
</g>
<!-- nonME -->
<g id="node34" class="node">
<title>nonME</title>
<text text-anchor="start" x="451" y="-126.8" font-family="Times New Roman,serif" font-weight="bold" font-size="14.00">Middle</text>
<text text-anchor="start" x="449.5" y="-112.8" font-family="Times New Roman,serif" font-weight="bold" font-size="14.00">English</text>
<text text-anchor="start" x="461.5" y="-98.8" font-family="Times New Roman,serif" font-size="14.00" fill="red">non</text>
</g>
<!-- nonOE&#45;&gt;nonME -->
<g id="edge34" class="edge">
<title>nonOE&#45;&gt;nonME</title>
<path fill="none" stroke="black" d="M473.97,-181.88C473.76,-172.58 473.52,-161.66 473.28,-151.47"/>
<polygon fill="black" stroke="black" points="476.78,-151.11 473.05,-141.2 469.78,-151.27 476.78,-151.11"/>
</g>
<!-- noon -->
<g id="node35" class="node">
<title>noon</title>
<text text-anchor="start" x="447" y="-35.8" font-family="Times New Roman,serif" font-weight="bold" font-size="14.00">Modern</text>
<text text-anchor="start" x="448.5" y="-21.8" font-family="Times New Roman,serif" font-weight="bold" font-size="14.00">English</text>
<text text-anchor="start" x="457" y="-7.8" font-family="Times New Roman,serif" font-size="14.00" fill="red">noon</text>
</g>
<!-- nonME&#45;&gt;noon -->
<g id="edge35" class="edge">
<title>nonME&#45;&gt;noon</title>
<path fill="none" stroke="black" d="M472.23,-90.68C472.12,-81.36 472,-70.54 471.89,-60.45"/>
<polygon fill="black" stroke="black" points="475.39,-60.25 471.77,-50.29 468.39,-60.33 475.39,-60.25"/>
</g>
<!-- enneasG -->
<g id="node37" class="node">
<title>enneasG</title>
<text text-anchor="start" x="589" y="-280.3" font-family="Times New Roman,serif" font-size="14.00" fill="red">enneas, ennead&#45;</text>
</g>
<!-- enneaG&#45;&gt;enneasG -->
<g id="edge37" class="edge">
<title>enneaG&#45;&gt;enneasG</title>
<path fill="none" stroke="black" d="M633.5,-343.75C633.5,-334.52 633.5,-322.93 633.5,-312.49"/>
<polygon fill="black" stroke="black" points="637,-312.18 633.5,-302.18 630,-312.18 637,-312.18"/>
</g>
<!-- ennead -->
<g id="node38" class="node">
<title>ennead</title>
<text text-anchor="start" x="613" y="-35.8" font-family="Times New Roman,serif" font-weight="bold" font-size="14.00">Modern</text>
<text text-anchor="start" x="614.5" y="-21.8" font-family="Times New Roman,serif" font-weight="bold" font-size="14.00">English</text>
<text text-anchor="start" x="617.5" y="-7.8" font-family="Times New Roman,serif" font-size="14.00" fill="red">ennead</text>
</g>
<!-- enneasG&#45;&gt;ennead -->
<g id="edge38" class="edge">
<title>enneasG&#45;&gt;ennead</title>
<path fill="none" stroke="black" stroke-dasharray="1,5" d="M633.77,-265.74C634.42,-223.76 636.1,-115.73 636.97,-60.15"/>
<polygon fill="black" stroke="black" points="640.47,-60.14 637.13,-50.09 633.47,-60.03 640.47,-60.14"/>
</g>
</g>
</svg>
