<?xml version="1.0" encoding="UTF-8" standalone="no"?>
<!DOCTYPE svg PUBLIC "-//W3C//DTD SVG 1.1//EN"
 "http://www.w3.org/Graphics/SVG/1.1/DTD/svg11.dtd">
<!-- Generated by graphviz version 2.49.0 (20210828.1703)
 -->
<!-- Title: oino_unus Pages: 1 -->
<svg width="846pt" height="630pt"
 viewBox="0.00 0.00 846.00 630.00" xmlns="http://www.w3.org/2000/svg" xmlns:xlink="http://www.w3.org/1999/xlink">
<g id="graph0" class="graph" transform="scale(1 1) rotate(0) translate(4 626)">
<title>oino_unus</title>
<polygon fill="white" stroke="transparent" points="-4,4 -4,-626 842,-626 842,4 -4,4"/>
<!-- oino -->
<g id="node1" class="node">
<title>oino</title>
<g id="a_node1"><a xlink:href="oino-one0.svg" xlink:title="Indo&#45;European &quot;*oi&#45;no&#45;&quot; one, unique">
<polygon fill="none" stroke="black" stroke-dasharray="5,2" points="442.5,-622 231.5,-622 231.5,-518 442.5,-518 442.5,-622"/>
<text text-anchor="start" x="259" y="-577.8" font-family="Times New Roman,serif" font-weight="bold" font-size="24.00">Indo&#45;European</text>
<text text-anchor="start" x="264.5" y="-549.6" font-family="Times New Roman,serif" font-size="18.00" fill="red">*oi&#45;no&#45;</text>
<text text-anchor="start" x="337" y="-550.2" font-family="Times New Roman,serif" font-size="16.00">one, unique</text>
</a>
</g>
</g>
<!-- unusL -->
<g id="node2" class="node">
<title>unusL</title>
<text text-anchor="start" x="330.5" y="-460.8" font-family="Times New Roman,serif" font-weight="bold" font-size="14.00">Latin</text>
<text text-anchor="start" x="333.5" y="-446.8" font-family="Times New Roman,serif" font-size="14.00" fill="red">ūnus</text>
</g>
<!-- oino&#45;&gt;unusL -->
<g id="edge1" class="edge">
<title>oino&#45;&gt;unusL</title>
<path fill="none" stroke="black" d="M341.62,-517.72C342.63,-506.46 343.67,-494.96 344.56,-485.1"/>
<polygon fill="black" stroke="black" points="348.04,-485.41 345.46,-475.14 341.07,-484.78 348.04,-485.41"/>
</g>
<!-- uniL -->
<g id="node3" class="node">
<title>uniL</title>
<text text-anchor="start" x="338" y="-369.3" font-family="Times New Roman,serif" font-size="14.00" fill="red">ūni&#45;</text>
</g>
<!-- unusL&#45;&gt;uniL -->
<g id="edge2" class="edge">
<title>unusL&#45;&gt;uniL</title>
<path fill="none" stroke="black" d="M347.42,-438.61C347.69,-427.77 348.03,-413.6 348.33,-401.29"/>
<polygon fill="black" stroke="black" points="351.84,-401.17 348.58,-391.08 344.84,-401 351.84,-401.17"/>
</g>
<!-- unioL -->
<g id="node4" class="node">
<title>unioL</title>
<text text-anchor="start" x="23.5" y="-287.3" font-family="Times New Roman,serif" font-size="14.00" fill="red">ūniō, ūniōn&#45;</text>
</g>
<!-- unusL&#45;&gt;unioL -->
<g id="edge3" class="edge">
<title>unusL&#45;&gt;unioL</title>
<path fill="none" stroke="black" d="M319.92,-451.33C282.33,-443.97 213.18,-427.18 162,-396 127.5,-374.99 95.72,-340.48 76.37,-317.03"/>
<polygon fill="black" stroke="black" points="79.07,-314.81 70.05,-309.24 73.63,-319.21 79.07,-314.81"/>
</g>
<!-- unireL -->
<g id="node5" class="node">
<title>unireL</title>
<text text-anchor="start" x="112.5" y="-217.8" font-family="Times New Roman,serif" font-size="14.00" fill="red">ūnīre, ūnīt&#45;</text>
<text text-anchor="start" x="125.5" y="-205.4" font-family="Times New Roman,serif" font-size="12.00">to make</text>
<text text-anchor="start" x="125.5" y="-193.4" font-family="Times New Roman,serif" font-size="12.00">into one</text>
</g>
<!-- unusL&#45;&gt;unireL -->
<g id="edge4" class="edge">
<title>unusL&#45;&gt;unireL</title>
<path fill="none" stroke="black" d="M327.54,-438.84C314.71,-427.2 297.79,-411.22 284,-396 237.52,-344.71 190.57,-278.79 164.58,-240.78"/>
<polygon fill="black" stroke="black" points="167.26,-238.5 158.75,-232.2 161.47,-242.44 167.26,-238.5"/>
</g>
<!-- unitasL -->
<g id="node6" class="node">
<title>unitasL</title>
<text text-anchor="start" x="239.5" y="-287.3" font-family="Times New Roman,serif" font-size="14.00" fill="red">ūnitās</text>
</g>
<!-- unusL&#45;&gt;unitasL -->
<g id="edge5" class="edge">
<title>unusL&#45;&gt;unitasL</title>
<path fill="none" stroke="black" d="M337.26,-438.97C330.43,-426.98 321.1,-410.54 313,-396 298.31,-369.64 281.76,-339.38 270.29,-318.32"/>
<polygon fill="black" stroke="black" points="273.26,-316.45 265.41,-309.34 267.11,-319.8 273.26,-316.45"/>
</g>
<!-- unanimusL -->
<g id="node7" class="node">
<title>unanimusL</title>
<text text-anchor="start" x="472.5" y="-369.3" font-family="Times New Roman,serif" font-size="14.00" fill="red">ūnanimus</text>
</g>
<!-- unusL&#45;&gt;unanimusL -->
<g id="edge6" class="edge">
<title>unusL&#45;&gt;unanimusL</title>
<path fill="none" stroke="black" d="M374.17,-441.34C397.55,-428.73 431.61,-410.36 458.25,-395.99"/>
<polygon fill="black" stroke="black" points="460.19,-398.91 467.33,-391.09 456.87,-392.75 460.19,-398.91"/>
</g>
<!-- universusL -->
<g id="node8" class="node">
<title>universusL</title>
<text text-anchor="start" x="564.5" y="-375.8" font-family="Times New Roman,serif" font-size="14.00" fill="red">ūniversus</text>
<text text-anchor="start" x="577" y="-363.4" font-family="Times New Roman,serif" font-size="12.00">whole</text>
</g>
<!-- unusL&#45;&gt;universusL -->
<g id="edge7" class="edge">
<title>unusL&#45;&gt;universusL</title>
<path fill="none" stroke="black" d="M374.17,-448.79C412.17,-438.44 483.16,-418.16 542,-396 543.62,-395.39 545.26,-394.75 546.92,-394.1"/>
<polygon fill="black" stroke="black" points="548.52,-397.22 556.42,-390.16 545.84,-390.75 548.52,-397.22"/>
</g>
<!-- unicornisL -->
<g id="node9" class="node">
<title>unicornisL</title>
<text text-anchor="start" x="671" y="-381.8" font-family="Times New Roman,serif" font-size="14.00" fill="red">ūnicornis</text>
<text text-anchor="start" x="659.5" y="-369.4" font-family="Times New Roman,serif" font-size="12.00">having one horn,</text>
<text text-anchor="start" x="676" y="-357.4" font-family="Times New Roman,serif" font-size="12.00">a unicorn</text>
</g>
<!-- unusL&#45;&gt;unicornisL -->
<g id="edge8" class="edge">
<title>unusL&#45;&gt;unicornisL</title>
<path fill="none" stroke="black" d="M374.09,-450.35C445.29,-435.49 632.41,-396.44 634,-396 636.58,-395.28 639.21,-394.52 641.85,-393.71"/>
<polygon fill="black" stroke="black" points="642.97,-397.03 651.46,-390.69 640.87,-390.36 642.97,-397.03"/>
</g>
<!-- uniE -->
<g id="node10" class="node">
<title>uniE</title>
<text text-anchor="start" x="395.5" y="-42.8" font-family="Times New Roman,serif" font-weight="bold" font-size="14.00">Modern</text>
<text text-anchor="start" x="397" y="-28.8" font-family="Times New Roman,serif" font-weight="bold" font-size="14.00">English</text>
<text text-anchor="start" x="409" y="-14.8" font-family="Times New Roman,serif" font-size="14.00" fill="red">uni&#45;</text>
</g>
<!-- uniL&#45;&gt;uniE -->
<g id="edge9" class="edge">
<title>uniL&#45;&gt;uniE</title>
<path fill="none" stroke="black" stroke-dasharray="1,5" d="M366.55,-354.88C376.41,-344.13 387.92,-329.41 394,-314 427.06,-230.27 426.06,-121.97 422.86,-67.5"/>
<polygon fill="black" stroke="black" points="426.34,-67.1 422.2,-57.35 419.35,-67.56 426.34,-67.1"/>
</g>
<!-- unificareL -->
<g id="node11" class="node">
<title>unificareL</title>
<text text-anchor="start" x="325" y="-293.8" font-family="Times New Roman,serif" font-size="14.00" fill="red">ūnificāre</text>
<text text-anchor="start" x="320.5" y="-281.4" font-family="Times New Roman,serif" font-size="12.00">to make one</text>
</g>
<!-- uniL&#45;&gt;unificareL -->
<g id="edge10" class="edge">
<title>uniL&#45;&gt;unificareL</title>
<path fill="none" stroke="black" d="M349,-354.64C349,-344.3 349,-330.94 349,-319.22"/>
<polygon fill="black" stroke="black" points="352.5,-319.05 349,-309.05 345.5,-319.05 352.5,-319.05"/>
</g>
<!-- unionOF -->
<g id="node15" class="node">
<title>unionOF</title>
<text text-anchor="start" x="8" y="-212.8" font-family="Times New Roman,serif" font-weight="bold" font-size="14.00">Old French</text>
<text text-anchor="start" x="27.5" y="-198.8" font-family="Times New Roman,serif" font-size="14.00" fill="red">union</text>
</g>
<!-- unioL&#45;&gt;unionOF -->
<g id="edge14" class="edge">
<title>unioL&#45;&gt;unionOF</title>
<path fill="none" stroke="black" d="M53.96,-272.64C52.15,-262.3 49.81,-248.94 47.76,-237.22"/>
<polygon fill="black" stroke="black" points="51.16,-236.3 45.98,-227.05 44.26,-237.5 51.16,-236.3"/>
</g>
<!-- unitenME -->
<g id="node18" class="node">
<title>unitenME</title>
<text text-anchor="start" x="122.5" y="-135.8" font-family="Times New Roman,serif" font-weight="bold" font-size="14.00">Middle</text>
<text text-anchor="start" x="121" y="-121.8" font-family="Times New Roman,serif" font-weight="bold" font-size="14.00">English</text>
<text text-anchor="start" x="127" y="-107.8" font-family="Times New Roman,serif" font-size="14.00" fill="red">uniten</text>
</g>
<!-- unireL&#45;&gt;unitenME -->
<g id="edge17" class="edge">
<title>unireL&#45;&gt;unitenME</title>
<path fill="none" stroke="black" stroke-dasharray="1,5" d="M144,-185.59C144,-177.77 144,-168.81 144,-160.24"/>
<polygon fill="black" stroke="black" points="147.5,-160.1 144,-150.1 140.5,-160.1 147.5,-160.1"/>
</g>
<!-- uniteOF -->
<g id="node20" class="node">
<title>uniteOF</title>
<text text-anchor="start" x="210" y="-212.8" font-family="Times New Roman,serif" font-weight="bold" font-size="14.00">Old French</text>
<text text-anchor="start" x="231.5" y="-198.8" font-family="Times New Roman,serif" font-size="14.00" fill="red">unite</text>
</g>
<!-- unitasL&#45;&gt;uniteOF -->
<g id="edge19" class="edge">
<title>unitasL&#45;&gt;uniteOF</title>
<path fill="none" stroke="black" d="M253.61,-272.64C252.19,-262.3 250.35,-248.94 248.74,-237.22"/>
<polygon fill="black" stroke="black" points="252.17,-236.48 247.34,-227.05 245.24,-237.43 252.17,-236.48"/>
</g>
<!-- unanimous -->
<g id="node37" class="node">
<title>unanimous</title>
<text text-anchor="start" x="484.5" y="-42.8" font-family="Times New Roman,serif" font-weight="bold" font-size="14.00">Modern</text>
<text text-anchor="start" x="486" y="-28.8" font-family="Times New Roman,serif" font-weight="bold" font-size="14.00">English</text>
<text text-anchor="start" x="478.5" y="-14.8" font-family="Times New Roman,serif" font-size="14.00" fill="red">unanimous</text>
</g>
<!-- unanimusL&#45;&gt;unanimous -->
<g id="edge36" class="edge">
<title>unanimusL&#45;&gt;unanimous</title>
<path fill="none" stroke="black" stroke-dasharray="1,5" d="M499.51,-354.72C501.08,-301.46 505.87,-139.1 507.98,-67.52"/>
<polygon fill="black" stroke="black" points="511.49,-67.34 508.29,-57.24 504.49,-67.13 511.49,-67.34"/>
</g>
<!-- universOF -->
<g id="node23" class="node">
<title>universOF</title>
<text text-anchor="start" x="656" y="-212.8" font-family="Times New Roman,serif" font-weight="bold" font-size="14.00">Old French</text>
<text text-anchor="start" x="671" y="-198.8" font-family="Times New Roman,serif" font-size="14.00" fill="red">univers</text>
</g>
<!-- universusL&#45;&gt;universOF -->
<g id="edge22" class="edge">
<title>universusL&#45;&gt;universOF</title>
<path fill="none" stroke="black" d="M610.37,-354.87C621.82,-344 635.98,-329.17 646,-314 662.1,-289.62 674.66,-258.54 682.37,-236.72"/>
<polygon fill="black" stroke="black" points="685.73,-237.72 685.67,-227.12 679.11,-235.45 685.73,-237.72"/>
</g>
<!-- universitasL -->
<g id="node28" class="node">
<title>universitasL</title>
<text text-anchor="start" x="560.5" y="-299.8" font-family="Times New Roman,serif" font-size="14.00" fill="red">ūniversitās</text>
<text text-anchor="start" x="566.5" y="-287.4" font-family="Times New Roman,serif" font-size="12.00">the whole,</text>
<text text-anchor="start" x="550.5" y="-275.4" font-family="Times New Roman,serif" font-size="12.00">a corporate body</text>
</g>
<!-- universusL&#45;&gt;universitasL -->
<g id="edge27" class="edge">
<title>universusL&#45;&gt;universitasL</title>
<path fill="none" stroke="black" d="M590.78,-354.64C590.67,-345.75 590.53,-334.63 590.4,-324.24"/>
<polygon fill="black" stroke="black" points="593.9,-324.16 590.28,-314.2 586.9,-324.24 593.9,-324.16"/>
</g>
<!-- unicorneOF -->
<g id="node32" class="node">
<title>unicorneOF</title>
<text text-anchor="start" x="760" y="-212.8" font-family="Times New Roman,serif" font-weight="bold" font-size="14.00">Old French</text>
<text text-anchor="start" x="770.5" y="-198.8" font-family="Times New Roman,serif" font-size="14.00" fill="red">unicorne</text>
</g>
<!-- unicornisL&#45;&gt;unicorneOF -->
<g id="edge31" class="edge">
<title>unicornisL&#45;&gt;unicorneOF</title>
<path fill="none" stroke="black" d="M710.42,-349.81C728.36,-320.16 760.1,-267.68 779.18,-236.14"/>
<polygon fill="black" stroke="black" points="782.26,-237.82 784.44,-227.46 776.27,-234.2 782.26,-237.82"/>
</g>
<!-- unifierOF -->
<g id="node12" class="node">
<title>unifierOF</title>
<text text-anchor="start" x="314" y="-212.8" font-family="Times New Roman,serif" font-weight="bold" font-size="14.00">Old French</text>
<text text-anchor="start" x="331.5" y="-198.8" font-family="Times New Roman,serif" font-size="14.00" fill="red">unifier</text>
</g>
<!-- unificareL&#45;&gt;unifierOF -->
<g id="edge11" class="edge">
<title>unificareL&#45;&gt;unifierOF</title>
<path fill="none" stroke="black" d="M349,-272.64C349,-262.3 349,-248.94 349,-237.22"/>
<polygon fill="black" stroke="black" points="352.5,-237.05 349,-227.05 345.5,-237.05 352.5,-237.05"/>
</g>
<!-- unifierF -->
<g id="node13" class="node">
<title>unifierF</title>
<text text-anchor="start" x="321" y="-128.8" font-family="Times New Roman,serif" font-weight="bold" font-size="14.00">French</text>
<text text-anchor="start" x="325.5" y="-114.8" font-family="Times New Roman,serif" font-size="14.00" fill="red">unifier</text>
</g>
<!-- unifierOF&#45;&gt;unifierF -->
<g id="edge12" class="edge">
<title>unifierOF&#45;&gt;unifierF</title>
<path fill="none" stroke="black" d="M347.73,-190.61C346.93,-179.77 345.9,-165.6 345,-153.29"/>
<polygon fill="black" stroke="black" points="348.47,-152.8 344.25,-143.08 341.49,-153.31 348.47,-152.8"/>
</g>
<!-- unify -->
<g id="node14" class="node">
<title>unify</title>
<text text-anchor="start" x="312.5" y="-42.8" font-family="Times New Roman,serif" font-weight="bold" font-size="14.00">Modern</text>
<text text-anchor="start" x="314" y="-28.8" font-family="Times New Roman,serif" font-weight="bold" font-size="14.00">English</text>
<text text-anchor="start" x="323" y="-14.8" font-family="Times New Roman,serif" font-size="14.00" fill="red">unify</text>
</g>
<!-- unifierF&#45;&gt;unify -->
<g id="edge13" class="edge">
<title>unifierF&#45;&gt;unify</title>
<path fill="none" stroke="black" stroke-dasharray="1,5" d="M341.87,-106.88C341.14,-95.72 340.15,-80.77 339.26,-67.24"/>
<polygon fill="black" stroke="black" points="342.75,-67 338.6,-57.25 335.76,-67.46 342.75,-67"/>
</g>
<!-- unionME -->
<g id="node16" class="node">
<title>unionME</title>
<text text-anchor="start" x="21.5" y="-135.8" font-family="Times New Roman,serif" font-weight="bold" font-size="14.00">Middle</text>
<text text-anchor="start" x="20" y="-121.8" font-family="Times New Roman,serif" font-weight="bold" font-size="14.00">English</text>
<text text-anchor="start" x="27.5" y="-107.8" font-family="Times New Roman,serif" font-size="14.00" fill="red">union</text>
</g>
<!-- unionOF&#45;&gt;unionME -->
<g id="edge15" class="edge">
<title>unionOF&#45;&gt;unionME</title>
<path fill="none" stroke="black" stroke-dasharray="1,5" d="M43,-190.61C43,-181.8 43,-170.77 43,-160.34"/>
<polygon fill="black" stroke="black" points="46.5,-160.21 43,-150.21 39.5,-160.21 46.5,-160.21"/>
</g>
<!-- union -->
<g id="node17" class="node">
<title>union</title>
<text text-anchor="start" x="18.5" y="-42.8" font-family="Times New Roman,serif" font-weight="bold" font-size="14.00">Modern</text>
<text text-anchor="start" x="20" y="-28.8" font-family="Times New Roman,serif" font-weight="bold" font-size="14.00">English</text>
<text text-anchor="start" x="27.5" y="-14.8" font-family="Times New Roman,serif" font-size="14.00" fill="red">union</text>
</g>
<!-- unionME&#45;&gt;union -->
<g id="edge16" class="edge">
<title>unionME&#45;&gt;union</title>
<path fill="none" stroke="black" d="M43,-99.61C43,-89.74 43,-78.17 43,-67.46"/>
<polygon fill="black" stroke="black" points="46.5,-67.14 43,-57.14 39.5,-67.14 46.5,-67.14"/>
</g>
<!-- unite -->
<g id="node19" class="node">
<title>unite</title>
<text text-anchor="start" x="119.5" y="-42.8" font-family="Times New Roman,serif" font-weight="bold" font-size="14.00">Modern</text>
<text text-anchor="start" x="121" y="-28.8" font-family="Times New Roman,serif" font-weight="bold" font-size="14.00">English</text>
<text text-anchor="start" x="130.5" y="-14.8" font-family="Times New Roman,serif" font-size="14.00" fill="red">unite</text>
</g>
<!-- unitenME&#45;&gt;unite -->
<g id="edge18" class="edge">
<title>unitenME&#45;&gt;unite</title>
<path fill="none" stroke="black" d="M144,-99.61C144,-89.74 144,-78.17 144,-67.46"/>
<polygon fill="black" stroke="black" points="147.5,-67.14 144,-57.14 140.5,-67.14 147.5,-67.14"/>
</g>
<!-- uniteME -->
<g id="node21" class="node">
<title>uniteME</title>
<text text-anchor="start" x="223.5" y="-135.8" font-family="Times New Roman,serif" font-weight="bold" font-size="14.00">Middle</text>
<text text-anchor="start" x="222" y="-121.8" font-family="Times New Roman,serif" font-weight="bold" font-size="14.00">English</text>
<text text-anchor="start" x="231.5" y="-107.8" font-family="Times New Roman,serif" font-size="14.00" fill="red">unite</text>
</g>
<!-- uniteOF&#45;&gt;uniteME -->
<g id="edge20" class="edge">
<title>uniteOF&#45;&gt;uniteME</title>
<path fill="none" stroke="black" stroke-dasharray="1,5" d="M245,-190.61C245,-181.8 245,-170.77 245,-160.34"/>
<polygon fill="black" stroke="black" points="248.5,-160.21 245,-150.21 241.5,-160.21 248.5,-160.21"/>
</g>
<!-- unity -->
<g id="node22" class="node">
<title>unity</title>
<text text-anchor="start" x="220.5" y="-49.8" font-family="Times New Roman,serif" font-weight="bold" font-size="14.00">Modern</text>
<text text-anchor="start" x="222" y="-35.8" font-family="Times New Roman,serif" font-weight="bold" font-size="14.00">English</text>
<text text-anchor="start" x="231" y="-21.8" font-family="Times New Roman,serif" font-size="14.00" fill="red">unity</text>
<text text-anchor="start" x="234.5" y="-7.8" font-family="Times New Roman,serif" font-size="14.00" fill="red">unit</text>
</g>
<!-- uniteME&#45;&gt;unity -->
<g id="edge21" class="edge">
<title>uniteME&#45;&gt;unity</title>
<path fill="none" stroke="black" d="M245,-99.61C245,-91.9 245,-83.15 245,-74.59"/>
<polygon fill="black" stroke="black" points="248.5,-74.32 245,-64.32 241.5,-74.32 248.5,-74.32"/>
</g>
<!-- universeME -->
<g id="node24" class="node">
<title>universeME</title>
<text text-anchor="start" x="669.5" y="-135.8" font-family="Times New Roman,serif" font-weight="bold" font-size="14.00">Middle</text>
<text text-anchor="start" x="668" y="-121.8" font-family="Times New Roman,serif" font-weight="bold" font-size="14.00">English</text>
<text text-anchor="start" x="668" y="-107.8" font-family="Times New Roman,serif" font-size="14.00" fill="red">universe</text>
</g>
<!-- universOF&#45;&gt;universeME -->
<g id="edge23" class="edge">
<title>universOF&#45;&gt;universeME</title>
<path fill="none" stroke="black" stroke-dasharray="1,5" d="M691,-190.61C691,-181.8 691,-170.77 691,-160.34"/>
<polygon fill="black" stroke="black" points="694.5,-160.21 691,-150.21 687.5,-160.21 694.5,-160.21"/>
</g>
<!-- universe -->
<g id="node25" class="node">
<title>universe</title>
<text text-anchor="start" x="666.5" y="-42.8" font-family="Times New Roman,serif" font-weight="bold" font-size="14.00">Modern</text>
<text text-anchor="start" x="668" y="-28.8" font-family="Times New Roman,serif" font-weight="bold" font-size="14.00">English</text>
<text text-anchor="start" x="668" y="-14.8" font-family="Times New Roman,serif" font-size="14.00" fill="red">universe</text>
</g>
<!-- universeME&#45;&gt;universe -->
<g id="edge24" class="edge">
<title>universeME&#45;&gt;universe</title>
<path fill="none" stroke="black" d="M691,-99.61C691,-89.74 691,-78.17 691,-67.46"/>
<polygon fill="black" stroke="black" points="694.5,-67.14 691,-57.14 687.5,-67.14 694.5,-67.14"/>
</g>
<!-- wer -->
<g id="node26" class="node">
<title>wer</title>
<g id="a_node26"><a xlink:href="wer-turn.svg" xlink:title="&lt;b&gt;Indo&#45;&lt;br/&gt;European&lt;/b&gt;&lt;br/&gt;&lt;font color=&quot;red&quot;&gt;*wer&#45;&lt;/font&gt;&lt;br/&gt;&lt;font point&#45;size=&quot;12&quot;&gt;to turn&lt;/font&gt;">
<path fill="none" stroke="black" stroke-dasharray="5,2" d="M620.5,-601C620.5,-601 567.5,-601 567.5,-601 561.5,-601 555.5,-595 555.5,-589 555.5,-589 555.5,-551 555.5,-551 555.5,-545 561.5,-539 567.5,-539 567.5,-539 620.5,-539 620.5,-539 626.5,-539 632.5,-545 632.5,-551 632.5,-551 632.5,-589 632.5,-589 632.5,-595 626.5,-601 620.5,-601"/>
<text text-anchor="start" x="577.5" y="-586.8" font-family="Times New Roman,serif" font-weight="bold" font-size="14.00">Indo&#45;</text>
<text text-anchor="start" x="563.5" y="-572.8" font-family="Times New Roman,serif" font-weight="bold" font-size="14.00">European</text>
<text text-anchor="start" x="578" y="-558.8" font-family="Times New Roman,serif" font-size="14.00" fill="red">*wer&#45;</text>
<text text-anchor="start" x="579" y="-546.4" font-family="Times New Roman,serif" font-size="12.00">to turn</text>
</a>
</g>
</g>
<!-- vertereL -->
<g id="node27" class="node">
<title>vertereL</title>
<text text-anchor="start" x="576.5" y="-467.8" font-family="Times New Roman,serif" font-weight="bold" font-size="14.00">Latin</text>
<text text-anchor="start" x="574" y="-453.8" font-family="Times New Roman,serif" font-size="14.00" fill="red">vertere</text>
<text text-anchor="start" x="574.5" y="-439.8" font-family="Times New Roman,serif" font-size="14.00" fill="red">versus</text>
</g>
<!-- wer&#45;&gt;vertereL -->
<g id="edge25" class="edge">
<title>wer&#45;&gt;vertereL</title>
<path fill="none" stroke="black" d="M593.73,-538.96C593.6,-524.6 593.44,-507.33 593.31,-492.44"/>
<polygon fill="black" stroke="black" points="596.81,-492.06 593.22,-482.09 589.81,-492.12 596.81,-492.06"/>
</g>
<!-- vertereL&#45;&gt;universusL -->
<g id="edge26" class="edge">
<title>vertereL&#45;&gt;universusL</title>
<path fill="none" stroke="black" d="M592.41,-431.84C592.18,-422.27 591.91,-411.21 591.67,-401.34"/>
<polygon fill="black" stroke="black" points="595.16,-401.14 591.42,-391.23 588.17,-401.31 595.16,-401.14"/>
</g>
<!-- universiteOF -->
<g id="node29" class="node">
<title>universiteOF</title>
<text text-anchor="start" x="552" y="-212.8" font-family="Times New Roman,serif" font-weight="bold" font-size="14.00">Old French</text>
<text text-anchor="start" x="560.5" y="-198.8" font-family="Times New Roman,serif" font-size="14.00" fill="red">universite</text>
</g>
<!-- universitasL&#45;&gt;universiteOF -->
<g id="edge28" class="edge">
<title>universitasL&#45;&gt;universiteOF</title>
<path fill="none" stroke="black" d="M589.16,-267.72C588.81,-258.28 588.39,-247.19 588.02,-237.27"/>
<polygon fill="black" stroke="black" points="591.51,-236.95 587.64,-227.09 584.52,-237.22 591.51,-236.95"/>
</g>
<!-- universiteME -->
<g id="node30" class="node">
<title>universiteME</title>
<text text-anchor="start" x="572.5" y="-135.8" font-family="Times New Roman,serif" font-weight="bold" font-size="14.00">Middle</text>
<text text-anchor="start" x="571" y="-121.8" font-family="Times New Roman,serif" font-weight="bold" font-size="14.00">English</text>
<text text-anchor="start" x="567.5" y="-107.8" font-family="Times New Roman,serif" font-size="14.00" fill="red">universite</text>
</g>
<!-- universiteOF&#45;&gt;universiteME -->
<g id="edge29" class="edge">
<title>universiteOF&#45;&gt;universiteME</title>
<path fill="none" stroke="black" stroke-dasharray="1,5" d="M588.48,-190.61C589.24,-181.8 590.18,-170.77 591.07,-160.34"/>
<polygon fill="black" stroke="black" points="594.57,-160.47 591.93,-150.21 587.6,-159.87 594.57,-160.47"/>
</g>
<!-- university -->
<g id="node31" class="node">
<title>university</title>
<text text-anchor="start" x="576.5" y="-42.8" font-family="Times New Roman,serif" font-weight="bold" font-size="14.00">Modern</text>
<text text-anchor="start" x="578" y="-28.8" font-family="Times New Roman,serif" font-weight="bold" font-size="14.00">English</text>
<text text-anchor="start" x="574" y="-14.8" font-family="Times New Roman,serif" font-size="14.00" fill="red">university</text>
</g>
<!-- universiteME&#45;&gt;university -->
<g id="edge30" class="edge">
<title>universiteME&#45;&gt;university</title>
<path fill="none" stroke="black" d="M595.88,-99.61C596.64,-89.64 597.54,-77.93 598.37,-67.13"/>
<polygon fill="black" stroke="black" points="601.87,-67.38 599.14,-57.14 594.89,-66.84 601.87,-67.38"/>
</g>
<!-- unicorneME -->
<g id="node33" class="node">
<title>unicorneME</title>
<text text-anchor="start" x="773.5" y="-135.8" font-family="Times New Roman,serif" font-weight="bold" font-size="14.00">Middle</text>
<text text-anchor="start" x="772" y="-121.8" font-family="Times New Roman,serif" font-weight="bold" font-size="14.00">English</text>
<text text-anchor="start" x="770.5" y="-107.8" font-family="Times New Roman,serif" font-size="14.00" fill="red">unicorne</text>
</g>
<!-- unicorneOF&#45;&gt;unicorneME -->
<g id="edge32" class="edge">
<title>unicorneOF&#45;&gt;unicorneME</title>
<path fill="none" stroke="black" stroke-dasharray="1,5" d="M795,-190.61C795,-181.8 795,-170.77 795,-160.34"/>
<polygon fill="black" stroke="black" points="798.5,-160.21 795,-150.21 791.5,-160.21 798.5,-160.21"/>
</g>
<!-- unicorn -->
<g id="node34" class="node">
<title>unicorn</title>
<text text-anchor="start" x="770.5" y="-42.8" font-family="Times New Roman,serif" font-weight="bold" font-size="14.00">Modern</text>
<text text-anchor="start" x="772" y="-28.8" font-family="Times New Roman,serif" font-weight="bold" font-size="14.00">English</text>
<text text-anchor="start" x="773.5" y="-14.8" font-family="Times New Roman,serif" font-size="14.00" fill="red">unicorn</text>
</g>
<!-- unicorneME&#45;&gt;unicorn -->
<g id="edge33" class="edge">
<title>unicorneME&#45;&gt;unicorn</title>
<path fill="none" stroke="black" d="M795,-99.61C795,-89.74 795,-78.17 795,-67.46"/>
<polygon fill="black" stroke="black" points="798.5,-67.14 795,-57.14 791.5,-67.14 798.5,-67.14"/>
</g>
<!-- ker -->
<g id="node35" class="node">
<title>ker</title>
<g id="a_node35"><a xlink:href="ker-horn.svg" xlink:title="&lt;b&gt;Indo&#45;&lt;br/&gt;European&lt;/b&gt;&lt;br/&gt;&lt;font color=&quot;red&quot;&gt;*ker&#45;&lt;/font&gt;&lt;br/&gt;&lt;font point&#45;size=&quot;12&quot;&gt;horn&lt;/font&gt;">
<path fill="none" stroke="black" stroke-dasharray="5,2" d="M723.5,-601C723.5,-601 670.5,-601 670.5,-601 664.5,-601 658.5,-595 658.5,-589 658.5,-589 658.5,-551 658.5,-551 658.5,-545 664.5,-539 670.5,-539 670.5,-539 723.5,-539 723.5,-539 729.5,-539 735.5,-545 735.5,-551 735.5,-551 735.5,-589 735.5,-589 735.5,-595 729.5,-601 723.5,-601"/>
<text text-anchor="start" x="680.5" y="-586.8" font-family="Times New Roman,serif" font-weight="bold" font-size="14.00">Indo&#45;</text>
<text text-anchor="start" x="666.5" y="-572.8" font-family="Times New Roman,serif" font-weight="bold" font-size="14.00">European</text>
<text text-anchor="start" x="682.5" y="-558.8" font-family="Times New Roman,serif" font-size="14.00" fill="red">*ker&#45;</text>
<text text-anchor="start" x="686.5" y="-546.4" font-family="Times New Roman,serif" font-size="12.00">horn</text>
</a>
</g>
</g>
<!-- cornuL -->
<g id="node36" class="node">
<title>cornuL</title>
<text text-anchor="start" x="680.5" y="-460.8" font-family="Times New Roman,serif" font-weight="bold" font-size="14.00">Latin</text>
<text text-anchor="start" x="680.5" y="-446.8" font-family="Times New Roman,serif" font-size="14.00" fill="red">cornū</text>
</g>
<!-- ker&#45;&gt;cornuL -->
<g id="edge34" class="edge">
<title>ker&#45;&gt;cornuL</title>
<path fill="none" stroke="black" d="M697,-538.96C697,-522.37 697,-501.91 697,-485.71"/>
<polygon fill="black" stroke="black" points="700.5,-485.27 697,-475.27 693.5,-485.27 700.5,-485.27"/>
</g>
<!-- cornuL&#45;&gt;unicornisL -->
<g id="edge35" class="edge">
<title>cornuL&#45;&gt;unicornisL</title>
<path fill="none" stroke="black" d="M697,-438.61C697,-429.2 697,-417.28 697,-406.25"/>
<polygon fill="black" stroke="black" points="700.5,-406.06 697,-396.06 693.5,-406.06 700.5,-406.06"/>
</g>
<!-- ane -->
<g id="node38" class="node">
<title>ane</title>
<g id="a_node38"><a xlink:href="ane-breathe.svg" xlink:title="&lt;b&gt;Indo&#45;&lt;br/&gt;European&lt;/b&gt;&lt;br/&gt;&lt;font color=&quot;red&quot;&gt;*anə&#45;&lt;/font&gt;&lt;br/&gt;&lt;font point&#45;size=&quot;12&quot;&gt;to breathe&lt;/font&gt;">
<path fill="none" stroke="black" stroke-dasharray="5,2" d="M525.5,-601C525.5,-601 472.5,-601 472.5,-601 466.5,-601 460.5,-595 460.5,-589 460.5,-589 460.5,-551 460.5,-551 460.5,-545 466.5,-539 472.5,-539 472.5,-539 525.5,-539 525.5,-539 531.5,-539 537.5,-545 537.5,-551 537.5,-551 537.5,-589 537.5,-589 537.5,-595 531.5,-601 525.5,-601"/>
<text text-anchor="start" x="482.5" y="-586.8" font-family="Times New Roman,serif" font-weight="bold" font-size="14.00">Indo&#45;</text>
<text text-anchor="start" x="468.5" y="-572.8" font-family="Times New Roman,serif" font-weight="bold" font-size="14.00">European</text>
<text text-anchor="start" x="483.5" y="-558.8" font-family="Times New Roman,serif" font-size="14.00" fill="red">*anə&#45;</text>
<text text-anchor="start" x="476" y="-546.4" font-family="Times New Roman,serif" font-size="12.00">to breathe</text>
</a>
</g>
</g>
<!-- animusL -->
<g id="node39" class="node">
<title>animusL</title>
<text text-anchor="start" x="482.5" y="-466.8" font-family="Times New Roman,serif" font-weight="bold" font-size="14.00">Latin</text>
<text text-anchor="start" x="479" y="-452.8" font-family="Times New Roman,serif" font-size="14.00" fill="red">animus</text>
<text text-anchor="start" x="488" y="-440.4" font-family="Times New Roman,serif" font-size="12.00">mind</text>
</g>
<!-- ane&#45;&gt;animusL -->
<g id="edge37" class="edge">
<title>ane&#45;&gt;animusL</title>
<path fill="none" stroke="black" d="M499,-538.96C499,-524.15 499,-506.24 499,-491.04"/>
<polygon fill="black" stroke="black" points="502.5,-491.02 499,-481.02 495.5,-491.02 502.5,-491.02"/>
</g>
<!-- animusL&#45;&gt;unanimusL -->
<g id="edge38" class="edge">
<title>animusL&#45;&gt;unanimusL</title>
<path fill="none" stroke="black" d="M499,-432.72C499,-422.88 499,-411.36 499,-401.13"/>
<polygon fill="black" stroke="black" points="502.5,-401.08 499,-391.08 495.5,-401.08 502.5,-401.08"/>
</g>
</g>
</svg>
