<?xml version="1.0" encoding="UTF-8" standalone="no"?>
<!DOCTYPE svg PUBLIC "-//W3C//DTD SVG 1.1//EN"
 "http://www.w3.org/Graphics/SVG/1.1/DTD/svg11.dtd">
<!-- Generated by graphviz version 2.49.0 (20210828.1703)
 -->
<!-- Title: oino_unus Pages: 1 -->
<svg width="838pt" height="562pt"
 viewBox="0.00 0.00 838.00 562.00" xmlns="http://www.w3.org/2000/svg" xmlns:xlink="http://www.w3.org/1999/xlink">
<g id="graph0" class="graph" transform="scale(1 1) rotate(0) translate(4 558)">
<title>oino_unus</title>
<polygon fill="white" stroke="transparent" points="-4,4 -4,-558 834,-558 834,4 -4,4"/>
<!-- oino -->
<g id="node1" class="node">
<title>oino</title>
<g id="a_node1"><a xlink:href="oino-one0.svg" xlink:title="&lt;b&gt;Indo&#45;European&lt;/b&gt;&lt;br/&gt;&lt;font color=&quot;red&quot;&gt;oi&#45;no&#45;&lt;/font&gt; &#160;&#160;one, unique">
<polygon fill="none" stroke="black" points="424,-554 298,-554 298,-518 424,-518 424,-554"/>
<text text-anchor="start" x="314.5" y="-539.8" font-family="Times New Roman,serif" font-weight="bold" font-size="14.00">Indo&#45;European</text>
<text text-anchor="start" x="306" y="-525.8" font-family="Times New Roman,serif" font-size="14.00" fill="red">oi&#45;no&#45;</text>
<text text-anchor="start" x="340" y="-525.8" font-family="Times New Roman,serif" font-size="14.00"> &#160;&#160;one, unique</text>
</a>
</g>
</g>
<!-- unusL -->
<g id="node2" class="node">
<title>unusL</title>
<text text-anchor="start" x="344.5" y="-460.8" font-family="Times New Roman,serif" font-weight="bold" font-size="14.00">Latin</text>
<text text-anchor="start" x="347.5" y="-446.8" font-family="Times New Roman,serif" font-size="14.00" fill="red">ūnus</text>
</g>
<!-- oino&#45;&gt;unusL -->
<g id="edge1" class="edge">
<title>oino&#45;&gt;unusL</title>
<path fill="none" stroke="black" d="M361,-517.91C361,-508.34 361,-496.18 361,-485.32"/>
<polygon fill="black" stroke="black" points="364.5,-485.04 361,-475.04 357.5,-485.04 364.5,-485.04"/>
</g>
<!-- uniL -->
<g id="node3" class="node">
<title>uniL</title>
<text text-anchor="start" x="350" y="-369.3" font-family="Times New Roman,serif" font-size="14.00" fill="red">ūni&#45;</text>
</g>
<!-- unusL&#45;&gt;uniL -->
<g id="edge2" class="edge">
<title>unusL&#45;&gt;uniL</title>
<path fill="none" stroke="black" d="M361,-438.61C361,-427.77 361,-413.6 361,-401.29"/>
<polygon fill="black" stroke="black" points="364.5,-401.08 361,-391.08 357.5,-401.08 364.5,-401.08"/>
</g>
<!-- unioL -->
<g id="node4" class="node">
<title>unioL</title>
<text text-anchor="start" x="20.5" y="-287.3" font-family="Times New Roman,serif" font-size="14.00" fill="red">ūniō, ūniōn&#45;</text>
</g>
<!-- unusL&#45;&gt;unioL -->
<g id="edge3" class="edge">
<title>unusL&#45;&gt;unioL</title>
<path fill="none" stroke="black" d="M333.95,-452.01C294.08,-445.24 218.21,-428.91 162,-396 126.63,-375.29 93.92,-340.72 73.97,-317.17"/>
<polygon fill="black" stroke="black" points="76.55,-314.79 67.47,-309.34 71.17,-319.27 76.55,-314.79"/>
</g>
<!-- unireL -->
<g id="node5" class="node">
<title>unireL</title>
<text text-anchor="start" x="112.5" y="-217.8" font-family="Times New Roman,serif" font-size="14.00" fill="red">ūnīre, ūnīt&#45;</text>
<text text-anchor="start" x="125.5" y="-205.4" font-family="Times New Roman,serif" font-size="12.00">to make</text>
<text text-anchor="start" x="125.5" y="-193.4" font-family="Times New Roman,serif" font-size="12.00">into one</text>
</g>
<!-- unusL&#45;&gt;unireL -->
<g id="edge4" class="edge">
<title>unusL&#45;&gt;unireL</title>
<path fill="none" stroke="black" d="M340.15,-438.8C326.37,-427.15 308.12,-411.16 293,-396 242.61,-345.48 192.49,-278.62 165.15,-240.36"/>
<polygon fill="black" stroke="black" points="167.99,-238.31 159.34,-232.19 162.28,-242.37 167.99,-238.31"/>
</g>
<!-- unitasL -->
<g id="node6" class="node">
<title>unitasL</title>
<text text-anchor="start" x="240.5" y="-287.3" font-family="Times New Roman,serif" font-size="14.00" fill="red">ūnitās</text>
</g>
<!-- unusL&#45;&gt;unitasL -->
<g id="edge5" class="edge">
<title>unusL&#45;&gt;unitasL</title>
<path fill="none" stroke="black" d="M350.07,-438.76C331.76,-409.89 294.82,-351.63 273.39,-317.85"/>
<polygon fill="black" stroke="black" points="276.1,-315.58 267.79,-309.01 270.19,-319.33 276.1,-315.58"/>
</g>
<!-- unanimusL -->
<g id="node7" class="node">
<title>unanimusL</title>
<text text-anchor="start" x="455.5" y="-369.3" font-family="Times New Roman,serif" font-size="14.00" fill="red">ūnanimus</text>
</g>
<!-- unusL&#45;&gt;unanimusL -->
<g id="edge6" class="edge">
<title>unusL&#45;&gt;unanimusL</title>
<path fill="none" stroke="black" d="M386.37,-438.81C404.35,-426.62 428.69,-410.13 448.3,-396.84"/>
<polygon fill="black" stroke="black" points="450.35,-399.67 456.67,-391.17 446.43,-393.88 450.35,-399.67"/>
</g>
<!-- universusL -->
<g id="node8" class="node">
<title>universusL</title>
<text text-anchor="start" x="552.5" y="-375.8" font-family="Times New Roman,serif" font-size="14.00" fill="red">ūniversus</text>
<text text-anchor="start" x="565" y="-363.4" font-family="Times New Roman,serif" font-size="12.00">whole</text>
</g>
<!-- unusL&#45;&gt;universusL -->
<g id="edge7" class="edge">
<title>unusL&#45;&gt;universusL</title>
<path fill="none" stroke="black" d="M388.1,-446.42C420.71,-434.82 477.07,-414.53 525,-396 528.21,-394.76 531.53,-393.46 534.86,-392.14"/>
<polygon fill="black" stroke="black" points="536.23,-395.35 544.22,-388.39 533.63,-388.86 536.23,-395.35"/>
</g>
<!-- unicornisL -->
<g id="node9" class="node">
<title>unicornisL</title>
<text text-anchor="start" x="659" y="-381.8" font-family="Times New Roman,serif" font-size="14.00" fill="red">ūnicornis</text>
<text text-anchor="start" x="647.5" y="-369.4" font-family="Times New Roman,serif" font-size="12.00">having one horn,</text>
<text text-anchor="start" x="664" y="-357.4" font-family="Times New Roman,serif" font-size="12.00">a unicorn</text>
</g>
<!-- unusL&#45;&gt;unicornisL -->
<g id="edge8" class="edge">
<title>unusL&#45;&gt;unicornisL</title>
<path fill="none" stroke="black" d="M388.1,-447.68C404.48,-442.79 425.85,-436.68 445,-432 522.99,-412.96 544.6,-417.28 622,-396 624.58,-395.29 627.21,-394.53 629.86,-393.73"/>
<polygon fill="black" stroke="black" points="630.97,-397.05 639.46,-390.72 628.88,-390.37 630.97,-397.05"/>
</g>
<!-- uniE -->
<g id="node10" class="node">
<title>uniE</title>
<text text-anchor="start" x="390.5" y="-42.8" font-family="Times New Roman,serif" font-weight="bold" font-size="14.00">Modern</text>
<text text-anchor="start" x="392" y="-28.8" font-family="Times New Roman,serif" font-weight="bold" font-size="14.00">English</text>
<text text-anchor="start" x="404" y="-14.8" font-family="Times New Roman,serif" font-size="14.00" fill="red">uni&#45;</text>
</g>
<!-- uniL&#45;&gt;uniE -->
<g id="edge9" class="edge">
<title>uniL&#45;&gt;uniE</title>
<path fill="none" stroke="black" stroke-dasharray="1,5" d="M374.8,-354.85C382.81,-343.85 392.23,-328.9 397,-314 424.38,-228.45 421.73,-120.94 418.05,-67.07"/>
<polygon fill="black" stroke="black" points="421.54,-66.75 417.31,-57.03 414.56,-67.26 421.54,-66.75"/>
</g>
<!-- unificareL -->
<g id="node11" class="node">
<title>unificareL</title>
<text text-anchor="start" x="328" y="-293.8" font-family="Times New Roman,serif" font-size="14.00" fill="red">ūnificāre</text>
<text text-anchor="start" x="323.5" y="-281.4" font-family="Times New Roman,serif" font-size="12.00">to make one</text>
</g>
<!-- uniL&#45;&gt;unificareL -->
<g id="edge10" class="edge">
<title>uniL&#45;&gt;unificareL</title>
<path fill="none" stroke="black" d="M359.05,-354.64C357.88,-344.3 356.38,-330.94 355.06,-319.22"/>
<polygon fill="black" stroke="black" points="358.51,-318.6 353.92,-309.05 351.56,-319.38 358.51,-318.6"/>
</g>
<!-- unionOF -->
<g id="node15" class="node">
<title>unionOF</title>
<text text-anchor="start" x="8" y="-212.8" font-family="Times New Roman,serif" font-weight="bold" font-size="14.00">Old French</text>
<text text-anchor="start" x="27.5" y="-198.8" font-family="Times New Roman,serif" font-size="14.00" fill="red">union</text>
</g>
<!-- unioL&#45;&gt;unionOF -->
<g id="edge14" class="edge">
<title>unioL&#45;&gt;unionOF</title>
<path fill="none" stroke="black" d="M51.61,-272.64C50.19,-262.3 48.35,-248.94 46.74,-237.22"/>
<polygon fill="black" stroke="black" points="50.17,-236.48 45.34,-227.05 43.24,-237.43 50.17,-236.48"/>
</g>
<!-- unitenME -->
<g id="node18" class="node">
<title>unitenME</title>
<text text-anchor="start" x="122.5" y="-135.8" font-family="Times New Roman,serif" font-weight="bold" font-size="14.00">Middle</text>
<text text-anchor="start" x="121" y="-121.8" font-family="Times New Roman,serif" font-weight="bold" font-size="14.00">English</text>
<text text-anchor="start" x="127" y="-107.8" font-family="Times New Roman,serif" font-size="14.00" fill="red">uniten</text>
</g>
<!-- unireL&#45;&gt;unitenME -->
<g id="edge17" class="edge">
<title>unireL&#45;&gt;unitenME</title>
<path fill="none" stroke="black" stroke-dasharray="1,5" d="M144,-185.59C144,-177.77 144,-168.81 144,-160.24"/>
<polygon fill="black" stroke="black" points="147.5,-160.1 144,-150.1 140.5,-160.1 147.5,-160.1"/>
</g>
<!-- uniteOF -->
<g id="node20" class="node">
<title>uniteOF</title>
<text text-anchor="start" x="210" y="-212.8" font-family="Times New Roman,serif" font-weight="bold" font-size="14.00">Old French</text>
<text text-anchor="start" x="231.5" y="-198.8" font-family="Times New Roman,serif" font-size="14.00" fill="red">unite</text>
</g>
<!-- unitasL&#45;&gt;uniteOF -->
<g id="edge19" class="edge">
<title>unitasL&#45;&gt;uniteOF</title>
<path fill="none" stroke="black" d="M254.4,-272.64C252.84,-262.3 250.84,-248.94 249.08,-237.22"/>
<polygon fill="black" stroke="black" points="252.5,-236.42 247.56,-227.05 245.58,-237.46 252.5,-236.42"/>
</g>
<!-- unanimous -->
<g id="node37" class="node">
<title>unanimous</title>
<text text-anchor="start" x="479.5" y="-42.8" font-family="Times New Roman,serif" font-weight="bold" font-size="14.00">Modern</text>
<text text-anchor="start" x="481" y="-28.8" font-family="Times New Roman,serif" font-weight="bold" font-size="14.00">English</text>
<text text-anchor="start" x="473.5" y="-14.8" font-family="Times New Roman,serif" font-size="14.00" fill="red">unanimous</text>
</g>
<!-- unanimusL&#45;&gt;unanimous -->
<g id="edge36" class="edge">
<title>unanimusL&#45;&gt;unanimous</title>
<path fill="none" stroke="black" stroke-dasharray="1,5" d="M483.12,-354.72C486.58,-301.46 497.11,-139.1 501.76,-67.52"/>
<polygon fill="black" stroke="black" points="505.27,-67.44 502.43,-57.24 498.29,-66.99 505.27,-67.44"/>
</g>
<!-- universOF -->
<g id="node23" class="node">
<title>universOF</title>
<text text-anchor="start" x="648" y="-212.8" font-family="Times New Roman,serif" font-weight="bold" font-size="14.00">Old French</text>
<text text-anchor="start" x="663" y="-198.8" font-family="Times New Roman,serif" font-size="14.00" fill="red">univers</text>
</g>
<!-- universusL&#45;&gt;universOF -->
<g id="edge22" class="edge">
<title>universusL&#45;&gt;universOF</title>
<path fill="none" stroke="black" d="M598.61,-354.84C610.22,-343.97 624.64,-329.13 635,-314 651.68,-289.63 665.16,-258.54 673.54,-236.73"/>
<polygon fill="black" stroke="black" points="676.9,-237.72 677.13,-227.13 670.35,-235.27 676.9,-237.72"/>
</g>
<!-- universitasL -->
<g id="node28" class="node">
<title>universitasL</title>
<text text-anchor="start" x="549.5" y="-299.8" font-family="Times New Roman,serif" font-size="14.00" fill="red">ūniversitās</text>
<text text-anchor="start" x="555.5" y="-287.4" font-family="Times New Roman,serif" font-size="12.00">the whole,</text>
<text text-anchor="start" x="539.5" y="-275.4" font-family="Times New Roman,serif" font-size="12.00">a corporate body</text>
</g>
<!-- universusL&#45;&gt;universitasL -->
<g id="edge27" class="edge">
<title>universusL&#45;&gt;universitasL</title>
<path fill="none" stroke="black" d="M579,-354.64C579,-345.75 579,-334.63 579,-324.24"/>
<polygon fill="black" stroke="black" points="582.5,-324.2 579,-314.2 575.5,-324.2 582.5,-324.2"/>
</g>
<!-- unicorneOF -->
<g id="node32" class="node">
<title>unicorneOF</title>
<text text-anchor="start" x="752" y="-212.8" font-family="Times New Roman,serif" font-weight="bold" font-size="14.00">Old French</text>
<text text-anchor="start" x="762.5" y="-198.8" font-family="Times New Roman,serif" font-size="14.00" fill="red">unicorne</text>
</g>
<!-- unicornisL&#45;&gt;unicorneOF -->
<g id="edge31" class="edge">
<title>unicornisL&#45;&gt;unicorneOF</title>
<path fill="none" stroke="black" d="M698.97,-349.81C717.64,-320.16 750.68,-267.68 770.54,-236.14"/>
<polygon fill="black" stroke="black" points="773.64,-237.78 776.01,-227.46 767.72,-234.05 773.64,-237.78"/>
</g>
<!-- unifierOF -->
<g id="node12" class="node">
<title>unifierOF</title>
<text text-anchor="start" x="314" y="-212.8" font-family="Times New Roman,serif" font-weight="bold" font-size="14.00">Old French</text>
<text text-anchor="start" x="331.5" y="-198.8" font-family="Times New Roman,serif" font-size="14.00" fill="red">unifier</text>
</g>
<!-- unificareL&#45;&gt;unifierOF -->
<g id="edge11" class="edge">
<title>unificareL&#45;&gt;unifierOF</title>
<path fill="none" stroke="black" d="M351.35,-272.64C350.96,-262.3 350.46,-248.94 350.02,-237.22"/>
<polygon fill="black" stroke="black" points="353.51,-236.91 349.64,-227.05 346.52,-237.17 353.51,-236.91"/>
</g>
<!-- unifierF -->
<g id="node13" class="node">
<title>unifierF</title>
<text text-anchor="start" x="318" y="-128.8" font-family="Times New Roman,serif" font-weight="bold" font-size="14.00">French</text>
<text text-anchor="start" x="322.5" y="-114.8" font-family="Times New Roman,serif" font-size="14.00" fill="red">unifier</text>
</g>
<!-- unifierOF&#45;&gt;unifierF -->
<g id="edge12" class="edge">
<title>unifierOF&#45;&gt;unifierF</title>
<path fill="none" stroke="black" d="M347.09,-190.61C345.9,-179.77 344.35,-165.6 343,-153.29"/>
<polygon fill="black" stroke="black" points="346.45,-152.64 341.88,-143.08 339.49,-153.41 346.45,-152.64"/>
</g>
<!-- unify -->
<g id="node14" class="node">
<title>unify</title>
<text text-anchor="start" x="307.5" y="-42.8" font-family="Times New Roman,serif" font-weight="bold" font-size="14.00">Modern</text>
<text text-anchor="start" x="309" y="-28.8" font-family="Times New Roman,serif" font-weight="bold" font-size="14.00">English</text>
<text text-anchor="start" x="318" y="-14.8" font-family="Times New Roman,serif" font-size="14.00" fill="red">unify</text>
</g>
<!-- unifierF&#45;&gt;unify -->
<g id="edge13" class="edge">
<title>unifierF&#45;&gt;unify</title>
<path fill="none" stroke="black" stroke-dasharray="1,5" d="M338.5,-106.88C337.51,-95.72 336.2,-80.77 335.01,-67.24"/>
<polygon fill="black" stroke="black" points="338.49,-66.91 334.13,-57.25 331.52,-67.52 338.49,-66.91"/>
</g>
<!-- unionME -->
<g id="node16" class="node">
<title>unionME</title>
<text text-anchor="start" x="21.5" y="-135.8" font-family="Times New Roman,serif" font-weight="bold" font-size="14.00">Middle</text>
<text text-anchor="start" x="20" y="-121.8" font-family="Times New Roman,serif" font-weight="bold" font-size="14.00">English</text>
<text text-anchor="start" x="27.5" y="-107.8" font-family="Times New Roman,serif" font-size="14.00" fill="red">union</text>
</g>
<!-- unionOF&#45;&gt;unionME -->
<g id="edge15" class="edge">
<title>unionOF&#45;&gt;unionME</title>
<path fill="none" stroke="black" stroke-dasharray="1,5" d="M43,-190.61C43,-181.8 43,-170.77 43,-160.34"/>
<polygon fill="black" stroke="black" points="46.5,-160.21 43,-150.21 39.5,-160.21 46.5,-160.21"/>
</g>
<!-- union -->
<g id="node17" class="node">
<title>union</title>
<text text-anchor="start" x="18.5" y="-42.8" font-family="Times New Roman,serif" font-weight="bold" font-size="14.00">Modern</text>
<text text-anchor="start" x="20" y="-28.8" font-family="Times New Roman,serif" font-weight="bold" font-size="14.00">English</text>
<text text-anchor="start" x="27.5" y="-14.8" font-family="Times New Roman,serif" font-size="14.00" fill="red">union</text>
</g>
<!-- unionME&#45;&gt;union -->
<g id="edge16" class="edge">
<title>unionME&#45;&gt;union</title>
<path fill="none" stroke="black" d="M43,-99.61C43,-89.74 43,-78.17 43,-67.46"/>
<polygon fill="black" stroke="black" points="46.5,-67.14 43,-57.14 39.5,-67.14 46.5,-67.14"/>
</g>
<!-- unite -->
<g id="node19" class="node">
<title>unite</title>
<text text-anchor="start" x="119.5" y="-42.8" font-family="Times New Roman,serif" font-weight="bold" font-size="14.00">Modern</text>
<text text-anchor="start" x="121" y="-28.8" font-family="Times New Roman,serif" font-weight="bold" font-size="14.00">English</text>
<text text-anchor="start" x="130.5" y="-14.8" font-family="Times New Roman,serif" font-size="14.00" fill="red">unite</text>
</g>
<!-- unitenME&#45;&gt;unite -->
<g id="edge18" class="edge">
<title>unitenME&#45;&gt;unite</title>
<path fill="none" stroke="black" d="M144,-99.61C144,-89.74 144,-78.17 144,-67.46"/>
<polygon fill="black" stroke="black" points="147.5,-67.14 144,-57.14 140.5,-67.14 147.5,-67.14"/>
</g>
<!-- uniteME -->
<g id="node21" class="node">
<title>uniteME</title>
<text text-anchor="start" x="223.5" y="-135.8" font-family="Times New Roman,serif" font-weight="bold" font-size="14.00">Middle</text>
<text text-anchor="start" x="222" y="-121.8" font-family="Times New Roman,serif" font-weight="bold" font-size="14.00">English</text>
<text text-anchor="start" x="231.5" y="-107.8" font-family="Times New Roman,serif" font-size="14.00" fill="red">unite</text>
</g>
<!-- uniteOF&#45;&gt;uniteME -->
<g id="edge20" class="edge">
<title>uniteOF&#45;&gt;uniteME</title>
<path fill="none" stroke="black" stroke-dasharray="1,5" d="M245,-190.61C245,-181.8 245,-170.77 245,-160.34"/>
<polygon fill="black" stroke="black" points="248.5,-160.21 245,-150.21 241.5,-160.21 248.5,-160.21"/>
</g>
<!-- unity -->
<g id="node22" class="node">
<title>unity</title>
<text text-anchor="start" x="220.5" y="-49.8" font-family="Times New Roman,serif" font-weight="bold" font-size="14.00">Modern</text>
<text text-anchor="start" x="222" y="-35.8" font-family="Times New Roman,serif" font-weight="bold" font-size="14.00">English</text>
<text text-anchor="start" x="231" y="-21.8" font-family="Times New Roman,serif" font-size="14.00" fill="red">unity</text>
<text text-anchor="start" x="234.5" y="-7.8" font-family="Times New Roman,serif" font-size="14.00" fill="red">unit</text>
</g>
<!-- uniteME&#45;&gt;unity -->
<g id="edge21" class="edge">
<title>uniteME&#45;&gt;unity</title>
<path fill="none" stroke="black" d="M245,-99.61C245,-91.9 245,-83.15 245,-74.59"/>
<polygon fill="black" stroke="black" points="248.5,-74.32 245,-64.32 241.5,-74.32 248.5,-74.32"/>
</g>
<!-- universeME -->
<g id="node24" class="node">
<title>universeME</title>
<text text-anchor="start" x="661.5" y="-135.8" font-family="Times New Roman,serif" font-weight="bold" font-size="14.00">Middle</text>
<text text-anchor="start" x="660" y="-121.8" font-family="Times New Roman,serif" font-weight="bold" font-size="14.00">English</text>
<text text-anchor="start" x="660" y="-107.8" font-family="Times New Roman,serif" font-size="14.00" fill="red">universe</text>
</g>
<!-- universOF&#45;&gt;universeME -->
<g id="edge23" class="edge">
<title>universOF&#45;&gt;universeME</title>
<path fill="none" stroke="black" stroke-dasharray="1,5" d="M683,-190.61C683,-181.8 683,-170.77 683,-160.34"/>
<polygon fill="black" stroke="black" points="686.5,-160.21 683,-150.21 679.5,-160.21 686.5,-160.21"/>
</g>
<!-- universe -->
<g id="node25" class="node">
<title>universe</title>
<text text-anchor="start" x="658.5" y="-42.8" font-family="Times New Roman,serif" font-weight="bold" font-size="14.00">Modern</text>
<text text-anchor="start" x="660" y="-28.8" font-family="Times New Roman,serif" font-weight="bold" font-size="14.00">English</text>
<text text-anchor="start" x="660" y="-14.8" font-family="Times New Roman,serif" font-size="14.00" fill="red">universe</text>
</g>
<!-- universeME&#45;&gt;universe -->
<g id="edge24" class="edge">
<title>universeME&#45;&gt;universe</title>
<path fill="none" stroke="black" d="M683,-99.61C683,-89.74 683,-78.17 683,-67.46"/>
<polygon fill="black" stroke="black" points="686.5,-67.14 683,-57.14 679.5,-67.14 686.5,-67.14"/>
</g>
<!-- wer -->
<g id="node26" class="node">
<title>wer</title>
<g id="a_node26"><a xlink:href="wer-turn.svg" xlink:title="&lt;font color=&quot;red&quot;&gt;wer&#45;&lt;/font&gt;&lt;br/&gt;&lt;font point&#45;size=&quot;12&quot;&gt;to turn&lt;/font&gt;">
<path fill="none" stroke="black" stroke-dasharray="5,2" d="M594,-554C594,-554 564,-554 564,-554 558,-554 552,-548 552,-542 552,-542 552,-530 552,-530 552,-524 558,-518 564,-518 564,-518 594,-518 594,-518 600,-518 606,-524 606,-530 606,-530 606,-542 606,-542 606,-548 600,-554 594,-554"/>
<text text-anchor="start" x="566.5" y="-538.8" font-family="Times New Roman,serif" font-size="14.00" fill="red">wer&#45;</text>
<text text-anchor="start" x="564" y="-526.4" font-family="Times New Roman,serif" font-size="12.00">to turn</text>
</a>
</g>
</g>
<!-- vertereL -->
<g id="node27" class="node">
<title>vertereL</title>
<text text-anchor="start" x="562.5" y="-467.8" font-family="Times New Roman,serif" font-weight="bold" font-size="14.00">Latin</text>
<text text-anchor="start" x="560" y="-453.8" font-family="Times New Roman,serif" font-size="14.00" fill="red">vertere</text>
<text text-anchor="start" x="560.5" y="-439.8" font-family="Times New Roman,serif" font-size="14.00" fill="red">versus</text>
</g>
<!-- wer&#45;&gt;vertereL -->
<g id="edge25" class="edge">
<title>wer&#45;&gt;vertereL</title>
<path fill="none" stroke="black" d="M579,-517.91C579,-510.33 579,-501.13 579,-492.23"/>
<polygon fill="black" stroke="black" points="582.5,-492.05 579,-482.05 575.5,-492.05 582.5,-492.05"/>
</g>
<!-- vertereL&#45;&gt;universusL -->
<g id="edge26" class="edge">
<title>vertereL&#45;&gt;universusL</title>
<path fill="none" stroke="black" d="M579,-431.84C579,-422.27 579,-411.21 579,-401.34"/>
<polygon fill="black" stroke="black" points="582.5,-401.23 579,-391.23 575.5,-401.23 582.5,-401.23"/>
</g>
<!-- universiteOF -->
<g id="node29" class="node">
<title>universiteOF</title>
<text text-anchor="start" x="544" y="-212.8" font-family="Times New Roman,serif" font-weight="bold" font-size="14.00">Old French</text>
<text text-anchor="start" x="552.5" y="-198.8" font-family="Times New Roman,serif" font-size="14.00" fill="red">universite</text>
</g>
<!-- universitasL&#45;&gt;universiteOF -->
<g id="edge28" class="edge">
<title>universitasL&#45;&gt;universiteOF</title>
<path fill="none" stroke="black" d="M579,-267.72C579,-258.28 579,-247.19 579,-237.27"/>
<polygon fill="black" stroke="black" points="582.5,-237.09 579,-227.09 575.5,-237.09 582.5,-237.09"/>
</g>
<!-- universiteME -->
<g id="node30" class="node">
<title>universiteME</title>
<text text-anchor="start" x="565.5" y="-135.8" font-family="Times New Roman,serif" font-weight="bold" font-size="14.00">Middle</text>
<text text-anchor="start" x="564" y="-121.8" font-family="Times New Roman,serif" font-weight="bold" font-size="14.00">English</text>
<text text-anchor="start" x="560.5" y="-107.8" font-family="Times New Roman,serif" font-size="14.00" fill="red">universite</text>
</g>
<!-- universiteOF&#45;&gt;universiteME -->
<g id="edge29" class="edge">
<title>universiteOF&#45;&gt;universiteME</title>
<path fill="none" stroke="black" stroke-dasharray="1,5" d="M580.7,-190.61C581.56,-181.8 582.63,-170.77 583.65,-160.34"/>
<polygon fill="black" stroke="black" points="587.15,-160.5 584.64,-150.21 580.18,-159.82 587.15,-160.5"/>
</g>
<!-- university -->
<g id="node31" class="node">
<title>university</title>
<text text-anchor="start" x="571.5" y="-42.8" font-family="Times New Roman,serif" font-weight="bold" font-size="14.00">Modern</text>
<text text-anchor="start" x="573" y="-28.8" font-family="Times New Roman,serif" font-weight="bold" font-size="14.00">English</text>
<text text-anchor="start" x="569" y="-14.8" font-family="Times New Roman,serif" font-size="14.00" fill="red">university</text>
</g>
<!-- universiteME&#45;&gt;university -->
<g id="edge30" class="edge">
<title>universiteME&#45;&gt;university</title>
<path fill="none" stroke="black" d="M589.41,-99.61C590.4,-89.64 591.56,-77.93 592.62,-67.13"/>
<polygon fill="black" stroke="black" points="596.11,-67.43 593.61,-57.14 589.15,-66.75 596.11,-67.43"/>
</g>
<!-- unicorneME -->
<g id="node33" class="node">
<title>unicorneME</title>
<text text-anchor="start" x="765.5" y="-135.8" font-family="Times New Roman,serif" font-weight="bold" font-size="14.00">Middle</text>
<text text-anchor="start" x="764" y="-121.8" font-family="Times New Roman,serif" font-weight="bold" font-size="14.00">English</text>
<text text-anchor="start" x="762.5" y="-107.8" font-family="Times New Roman,serif" font-size="14.00" fill="red">unicorne</text>
</g>
<!-- unicorneOF&#45;&gt;unicorneME -->
<g id="edge32" class="edge">
<title>unicorneOF&#45;&gt;unicorneME</title>
<path fill="none" stroke="black" stroke-dasharray="1,5" d="M787,-190.61C787,-181.8 787,-170.77 787,-160.34"/>
<polygon fill="black" stroke="black" points="790.5,-160.21 787,-150.21 783.5,-160.21 790.5,-160.21"/>
</g>
<!-- unicorn -->
<g id="node34" class="node">
<title>unicorn</title>
<text text-anchor="start" x="762.5" y="-42.8" font-family="Times New Roman,serif" font-weight="bold" font-size="14.00">Modern</text>
<text text-anchor="start" x="764" y="-28.8" font-family="Times New Roman,serif" font-weight="bold" font-size="14.00">English</text>
<text text-anchor="start" x="765.5" y="-14.8" font-family="Times New Roman,serif" font-size="14.00" fill="red">unicorn</text>
</g>
<!-- unicorneME&#45;&gt;unicorn -->
<g id="edge33" class="edge">
<title>unicorneME&#45;&gt;unicorn</title>
<path fill="none" stroke="black" d="M787,-99.61C787,-89.74 787,-78.17 787,-67.46"/>
<polygon fill="black" stroke="black" points="790.5,-67.14 787,-57.14 783.5,-67.14 790.5,-67.14"/>
</g>
<!-- ker -->
<g id="node35" class="node">
<title>ker</title>
<g id="a_node35"><a xlink:href="ker-horn.svg" xlink:title="&lt;font color=&quot;red&quot;&gt;ker&#45;&lt;/font&gt;&lt;br/&gt;&lt;font point&#45;size=&quot;12&quot;&gt;horn&lt;/font&gt;">
<path fill="none" stroke="black" stroke-dasharray="5,2" d="M700,-554C700,-554 670,-554 670,-554 664,-554 658,-548 658,-542 658,-542 658,-530 658,-530 658,-524 664,-518 670,-518 670,-518 700,-518 700,-518 706,-518 712,-524 712,-530 712,-530 712,-542 712,-542 712,-548 706,-554 700,-554"/>
<text text-anchor="start" x="674" y="-538.8" font-family="Times New Roman,serif" font-size="14.00" fill="red">ker&#45;</text>
<text text-anchor="start" x="674.5" y="-526.4" font-family="Times New Roman,serif" font-size="12.00">horn</text>
</a>
</g>
</g>
<!-- cornuL -->
<g id="node36" class="node">
<title>cornuL</title>
<text text-anchor="start" x="668.5" y="-460.8" font-family="Times New Roman,serif" font-weight="bold" font-size="14.00">Latin</text>
<text text-anchor="start" x="668.5" y="-446.8" font-family="Times New Roman,serif" font-size="14.00" fill="red">cornū</text>
</g>
<!-- ker&#45;&gt;cornuL -->
<g id="edge34" class="edge">
<title>ker&#45;&gt;cornuL</title>
<path fill="none" stroke="black" d="M685,-517.91C685,-508.34 685,-496.18 685,-485.32"/>
<polygon fill="black" stroke="black" points="688.5,-485.04 685,-475.04 681.5,-485.04 688.5,-485.04"/>
</g>
<!-- cornuL&#45;&gt;unicornisL -->
<g id="edge35" class="edge">
<title>cornuL&#45;&gt;unicornisL</title>
<path fill="none" stroke="black" d="M685,-438.61C685,-429.2 685,-417.28 685,-406.25"/>
<polygon fill="black" stroke="black" points="688.5,-406.06 685,-396.06 681.5,-406.06 688.5,-406.06"/>
</g>
<!-- ane -->
<g id="node38" class="node">
<title>ane</title>
<g id="a_node38"><a xlink:href="ane-breathe.svg" xlink:title="&lt;font color=&quot;red&quot;&gt;anə&#45;&lt;/font&gt;&lt;br/&gt;&lt;font point&#45;size=&quot;12&quot;&gt;to breathe&lt;/font&gt;">
<path fill="none" stroke="black" stroke-dasharray="5,2" d="M501,-554C501,-554 463,-554 463,-554 457,-554 451,-548 451,-542 451,-542 451,-530 451,-530 451,-524 457,-518 463,-518 463,-518 501,-518 501,-518 507,-518 513,-524 513,-530 513,-530 513,-542 513,-542 513,-548 507,-554 501,-554"/>
<text text-anchor="start" x="470" y="-538.8" font-family="Times New Roman,serif" font-size="14.00" fill="red">anə&#45;</text>
<text text-anchor="start" x="459" y="-526.4" font-family="Times New Roman,serif" font-size="12.00">to breathe</text>
</a>
</g>
</g>
<!-- animusL -->
<g id="node39" class="node">
<title>animusL</title>
<text text-anchor="start" x="465.5" y="-466.8" font-family="Times New Roman,serif" font-weight="bold" font-size="14.00">Latin</text>
<text text-anchor="start" x="462" y="-452.8" font-family="Times New Roman,serif" font-size="14.00" fill="red">animus</text>
<text text-anchor="start" x="471" y="-440.4" font-family="Times New Roman,serif" font-size="12.00">mind</text>
</g>
<!-- ane&#45;&gt;animusL -->
<g id="edge37" class="edge">
<title>ane&#45;&gt;animusL</title>
<path fill="none" stroke="black" d="M482,-517.91C482,-510.06 482,-500.46 482,-491.27"/>
<polygon fill="black" stroke="black" points="485.5,-491.17 482,-481.17 478.5,-491.17 485.5,-491.17"/>
</g>
<!-- animusL&#45;&gt;unanimusL -->
<g id="edge38" class="edge">
<title>animusL&#45;&gt;unanimusL</title>
<path fill="none" stroke="black" d="M482,-432.72C482,-422.88 482,-411.36 482,-401.13"/>
<polygon fill="black" stroke="black" points="485.5,-401.08 482,-391.08 478.5,-401.08 485.5,-401.08"/>
</g>
</g>
</svg>
