<?xml version="1.0" encoding="UTF-8" standalone="no"?>
<!DOCTYPE svg PUBLIC "-//W3C//DTD SVG 1.1//EN"
 "http://www.w3.org/Graphics/SVG/1.1/DTD/svg11.dtd">
<!-- Generated by graphviz version 2.49.0 (20210828.1703)
 -->
<!-- Title: oinoko Pages: 1 -->
<svg width="545pt" height="504pt"
 viewBox="0.00 0.00 545.00 504.00" xmlns="http://www.w3.org/2000/svg" xmlns:xlink="http://www.w3.org/1999/xlink">
<g id="graph0" class="graph" transform="scale(1 1) rotate(0) translate(4 500)">
<title>oinoko</title>
<polygon fill="white" stroke="transparent" points="-4,4 -4,-500 541,-500 541,4 -4,4"/>
<!-- oino -->
<g id="node1" class="node">
<title>oino</title>
<g id="a_node1"><a xlink:href="oino-one0.svg" xlink:title="&lt;b&gt;Indo&#45;European&lt;/b&gt;&lt;br/&gt;&lt;font color=&quot;red&quot;&gt;oi&#45;no&#45;&lt;/font&gt; &#160;&#160;one, unique">
<polygon fill="none" stroke="black" points="355.5,-496 229.5,-496 229.5,-460 355.5,-460 355.5,-496"/>
<text text-anchor="start" x="246" y="-481.8" font-family="Times New Roman,serif" font-weight="bold" font-size="14.00">Indo&#45;European</text>
<text text-anchor="start" x="237.5" y="-467.8" font-family="Times New Roman,serif" font-size="14.00" fill="red">oi&#45;no&#45;</text>
<text text-anchor="start" x="271.5" y="-467.8" font-family="Times New Roman,serif" font-size="14.00"> &#160;&#160;one, unique</text>
</a>
</g>
</g>
<!-- oinoko -->
<g id="node2" class="node">
<title>oinoko</title>
<text text-anchor="start" x="268" y="-402.3" font-family="Times New Roman,serif" font-size="14.00" fill="red">oino&#45;ko&#45;</text>
</g>
<!-- oino&#45;&gt;oinoko -->
<g id="edge1" class="edge">
<title>oino&#45;&gt;oinoko</title>
<path fill="none" stroke="black" d="M292.5,-459.7C292.5,-451.98 292.5,-442.71 292.5,-434.11"/>
<polygon fill="black" stroke="black" points="296,-434.1 292.5,-424.1 289,-434.1 296,-434.1"/>
</g>
<!-- ainigaGm -->
<g id="node3" class="node">
<title>ainigaGm</title>
<text text-anchor="start" x="111" y="-325.8" font-family="Times New Roman,serif" font-weight="bold" font-size="14.00">Germanic</text>
<text text-anchor="start" x="123" y="-311.8" font-family="Times New Roman,serif" font-size="14.00" fill="red">ainiga&#45;</text>
</g>
<!-- oinoko&#45;&gt;ainigaGm -->
<g id="edge2" class="edge">
<title>oinoko&#45;&gt;ainigaGm</title>
<path fill="none" stroke="black" d="M260.85,-387.81C237.82,-375.3 206.46,-358.27 181.66,-344.81"/>
<polygon fill="black" stroke="black" points="183.31,-341.72 172.85,-340.03 179.97,-347.87 183.31,-341.72"/>
</g>
<!-- unciaL -->
<g id="node4" class="node">
<title>unciaL</title>
<text text-anchor="start" x="276" y="-337.8" font-family="Times New Roman,serif" font-weight="bold" font-size="14.00">Latin</text>
<text text-anchor="start" x="277.5" y="-323.8" font-family="Times New Roman,serif" font-size="14.00" fill="red">ūncia</text>
<text text-anchor="start" x="267.5" y="-311.4" font-family="Times New Roman,serif" font-size="12.00">one twelfth</text>
<text text-anchor="start" x="274" y="-299.4" font-family="Times New Roman,serif" font-size="12.00">of a unit</text>
</g>
<!-- oinoko&#45;&gt;unciaL -->
<g id="edge3" class="edge">
<title>oinoko&#45;&gt;unciaL</title>
<path fill="none" stroke="black" d="M292.5,-387.61C292.5,-380.24 292.5,-371.33 292.5,-362.52"/>
<polygon fill="black" stroke="black" points="296,-362.31 292.5,-352.31 289,-362.31 296,-362.31"/>
</g>
<!-- unicusL -->
<g id="node5" class="node">
<title>unicusL</title>
<text text-anchor="start" x="409" y="-331.8" font-family="Times New Roman,serif" font-weight="bold" font-size="14.00">Latin</text>
<text text-anchor="start" x="407" y="-317.8" font-family="Times New Roman,serif" font-size="14.00" fill="red">ūnicus</text>
<text text-anchor="start" x="398" y="-305.4" font-family="Times New Roman,serif" font-size="12.00">only, unique</text>
</g>
<!-- oinoko&#45;&gt;unicusL -->
<g id="edge4" class="edge">
<title>oinoko&#45;&gt;unicusL</title>
<path fill="none" stroke="black" d="M320.38,-387.81C337.9,-377.01 360.89,-362.84 380.9,-350.5"/>
<polygon fill="black" stroke="black" points="382.88,-353.39 389.56,-345.16 379.21,-347.43 382.88,-353.39"/>
</g>
<!-- aenigOE -->
<g id="node6" class="node">
<title>aenigOE</title>
<text text-anchor="start" x="8" y="-241.8" font-family="Times New Roman,serif" font-weight="bold" font-size="14.00">Old English</text>
<text text-anchor="start" x="31" y="-227.8" font-family="Times New Roman,serif" font-size="14.00" fill="red">ǣnig</text>
<text text-anchor="start" x="34.5" y="-215.4" font-family="Times New Roman,serif" font-size="12.00">one,</text>
<text text-anchor="start" x="28" y="-203.4" font-family="Times New Roman,serif" font-size="12.00">anyone</text>
</g>
<!-- ainigaGm&#45;&gt;aenigOE -->
<g id="edge5" class="edge">
<title>ainigaGm&#45;&gt;aenigOE</title>
<path fill="none" stroke="black" d="M123.71,-303.76C112.06,-292.48 96.41,-277.3 82.09,-263.43"/>
<polygon fill="black" stroke="black" points="84.37,-260.77 74.76,-256.32 79.5,-265.79 84.37,-260.77"/>
</g>
<!-- ynceOE -->
<g id="node12" class="node">
<title>ynceOE</title>
<text text-anchor="start" x="115" y="-229.8" font-family="Times New Roman,serif" font-weight="bold" font-size="14.00">Old English</text>
<text text-anchor="start" x="138" y="-215.8" font-family="Times New Roman,serif" font-size="14.00" fill="red">ynce</text>
</g>
<!-- unciaL&#45;&gt;ynceOE -->
<g id="edge11" class="edge">
<title>unciaL&#45;&gt;ynceOE</title>
<path fill="none" stroke="black" d="M259.44,-298.96C237.31,-284.21 208.24,-264.83 185.85,-249.9"/>
<polygon fill="black" stroke="black" points="187.57,-246.84 177.31,-244.21 183.69,-252.67 187.57,-246.84"/>
</g>
<!-- unceOF -->
<g id="node15" class="node">
<title>unceOF</title>
<text text-anchor="start" x="222.5" y="-229.8" font-family="Times New Roman,serif" font-weight="bold" font-size="14.00">Old French</text>
<text text-anchor="start" x="244" y="-215.8" font-family="Times New Roman,serif" font-size="14.00" fill="red">unce</text>
</g>
<!-- unciaL&#45;&gt;unceOF -->
<g id="edge14" class="edge">
<title>unciaL&#45;&gt;unceOF</title>
<path fill="none" stroke="black" d="M281.62,-291.77C277.07,-279.56 271.83,-265.48 267.39,-253.56"/>
<polygon fill="black" stroke="black" points="270.66,-252.31 263.89,-244.16 264.1,-254.75 270.66,-252.31"/>
</g>
<!-- uncialesL -->
<g id="node18" class="node">
<title>uncialesL</title>
<text text-anchor="start" x="301" y="-145.8" font-family="Times New Roman,serif" font-size="14.00" fill="red">ūnciālēs</text>
<text text-anchor="start" x="300.5" y="-131.8" font-family="Times New Roman,serif" font-size="14.00" fill="red">(litterae)</text>
<text text-anchor="start" x="303" y="-119.4" font-family="Times New Roman,serif" font-size="12.00">inch&#45;high</text>
<text text-anchor="start" x="306" y="-107.4" font-family="Times New Roman,serif" font-size="12.00">(letters)</text>
</g>
<!-- unciaL&#45;&gt;uncialesL -->
<g id="edge17" class="edge">
<title>unciaL&#45;&gt;uncialesL</title>
<path fill="none" stroke="black" d="M301.11,-291.76C304.13,-280.64 307.31,-267.81 309.5,-256 314.79,-227.54 318.35,-195.04 320.56,-170.31"/>
<polygon fill="black" stroke="black" points="324.06,-170.48 321.43,-160.22 317.09,-169.89 324.06,-170.48"/>
</g>
<!-- quincunxL -->
<g id="node20" class="node">
<title>quincunxL</title>
<text text-anchor="start" x="383" y="-139.8" font-family="Times New Roman,serif" font-size="14.00" fill="red">quīncūnx,</text>
<text text-anchor="start" x="382.5" y="-125.8" font-family="Times New Roman,serif" font-size="14.00" fill="red">quīncūnc&#45;</text>
<text text-anchor="start" x="384.5" y="-113.4" font-family="Times New Roman,serif" font-size="12.00">five twelfths</text>
</g>
<!-- unciaL&#45;&gt;quincunxL -->
<g id="edge19" class="edge">
<title>unciaL&#45;&gt;quincunxL</title>
<path fill="none" stroke="black" d="M310.83,-291.73C332.71,-256.8 369.15,-198.61 391.67,-162.66"/>
<polygon fill="black" stroke="black" points="394.74,-164.36 397.08,-154.03 388.8,-160.64 394.74,-164.36"/>
</g>
<!-- uniqueOF -->
<g id="node9" class="node">
<title>uniqueOF</title>
<text text-anchor="start" x="436.5" y="-229.8" font-family="Times New Roman,serif" font-weight="bold" font-size="14.00">Old French</text>
<text text-anchor="start" x="453" y="-215.8" font-family="Times New Roman,serif" font-size="14.00" fill="red">unique</text>
</g>
<!-- unicusL&#45;&gt;uniqueOF -->
<g id="edge8" class="edge">
<title>unicusL&#45;&gt;uniqueOF</title>
<path fill="none" stroke="black" d="M436.87,-297.76C443.49,-284.25 451.84,-267.17 458.69,-253.18"/>
<polygon fill="black" stroke="black" points="461.9,-254.59 463.15,-244.07 455.61,-251.51 461.9,-254.59"/>
</g>
<!-- aniME -->
<g id="node7" class="node">
<title>aniME</title>
<text text-anchor="start" x="23" y="-140.8" font-family="Times New Roman,serif" font-weight="bold" font-size="14.00">Middle</text>
<text text-anchor="start" x="21.5" y="-126.8" font-family="Times New Roman,serif" font-weight="bold" font-size="14.00">English</text>
<text text-anchor="start" x="23" y="-112.8" font-family="Times New Roman,serif" font-size="14.00" fill="red">ani, eny</text>
</g>
<!-- aenigOE&#45;&gt;aniME -->
<g id="edge6" class="edge">
<title>aenigOE&#45;&gt;aniME</title>
<path fill="none" stroke="black" d="M44.5,-195.77C44.5,-186.09 44.5,-175.23 44.5,-165.21"/>
<polygon fill="black" stroke="black" points="48,-165.16 44.5,-155.16 41,-165.16 48,-165.16"/>
</g>
<!-- any -->
<g id="node8" class="node">
<title>any</title>
<text text-anchor="start" x="20" y="-42.8" font-family="Times New Roman,serif" font-weight="bold" font-size="14.00">Modern</text>
<text text-anchor="start" x="21.5" y="-28.8" font-family="Times New Roman,serif" font-weight="bold" font-size="14.00">English</text>
<text text-anchor="start" x="34.5" y="-14.8" font-family="Times New Roman,serif" font-size="14.00" fill="red">any</text>
</g>
<!-- aniME&#45;&gt;any -->
<g id="edge7" class="edge">
<title>aniME&#45;&gt;any</title>
<path fill="none" stroke="black" d="M44.5,-104.78C44.5,-93.41 44.5,-79.66 44.5,-67.25"/>
<polygon fill="black" stroke="black" points="48,-67.22 44.5,-57.22 41,-67.22 48,-67.22"/>
</g>
<!-- uniqueF -->
<g id="node10" class="node">
<title>uniqueF</title>
<text text-anchor="start" x="478.5" y="-133.8" font-family="Times New Roman,serif" font-weight="bold" font-size="14.00">French</text>
<text text-anchor="start" x="482" y="-119.8" font-family="Times New Roman,serif" font-size="14.00" fill="red">unique</text>
</g>
<!-- uniqueOF&#45;&gt;uniqueF -->
<g id="edge9" class="edge">
<title>uniqueOF&#45;&gt;uniqueF</title>
<path fill="none" stroke="black" d="M476.82,-207.76C481.11,-193.85 487.23,-174.02 492.17,-158.01"/>
<polygon fill="black" stroke="black" points="495.61,-158.72 495.21,-148.13 488.92,-156.66 495.61,-158.72"/>
</g>
<!-- unique -->
<g id="node11" class="node">
<title>unique</title>
<text text-anchor="start" x="480" y="-42.8" font-family="Times New Roman,serif" font-weight="bold" font-size="14.00">Modern</text>
<text text-anchor="start" x="481.5" y="-28.8" font-family="Times New Roman,serif" font-weight="bold" font-size="14.00">English</text>
<text text-anchor="start" x="486" y="-14.8" font-family="Times New Roman,serif" font-size="14.00" fill="red">unique</text>
</g>
<!-- uniqueF&#45;&gt;unique -->
<g id="edge10" class="edge">
<title>uniqueF&#45;&gt;unique</title>
<path fill="none" stroke="black" stroke-dasharray="1,5" d="M501.22,-111.84C501.73,-99.48 502.44,-82.39 503.07,-67.29"/>
<polygon fill="black" stroke="black" points="506.57,-67.36 503.49,-57.23 499.58,-67.07 506.57,-67.36"/>
</g>
<!-- inchME -->
<g id="node13" class="node">
<title>inchME</title>
<text text-anchor="start" x="130" y="-140.8" font-family="Times New Roman,serif" font-weight="bold" font-size="14.00">Middle</text>
<text text-anchor="start" x="128.5" y="-126.8" font-family="Times New Roman,serif" font-weight="bold" font-size="14.00">English</text>
<text text-anchor="start" x="139.5" y="-112.8" font-family="Times New Roman,serif" font-size="14.00" fill="red">inch</text>
</g>
<!-- ynceOE&#45;&gt;inchME -->
<g id="edge12" class="edge">
<title>ynceOE&#45;&gt;inchME</title>
<path fill="none" stroke="black" d="M151.5,-207.76C151.5,-195.9 151.5,-179.75 151.5,-165.33"/>
<polygon fill="black" stroke="black" points="155,-165.21 151.5,-155.21 148,-165.21 155,-165.21"/>
</g>
<!-- inch -->
<g id="node14" class="node">
<title>inch</title>
<text text-anchor="start" x="127" y="-42.8" font-family="Times New Roman,serif" font-weight="bold" font-size="14.00">Modern</text>
<text text-anchor="start" x="128.5" y="-28.8" font-family="Times New Roman,serif" font-weight="bold" font-size="14.00">English</text>
<text text-anchor="start" x="139.5" y="-14.8" font-family="Times New Roman,serif" font-size="14.00" fill="red">inch</text>
</g>
<!-- inchME&#45;&gt;inch -->
<g id="edge13" class="edge">
<title>inchME&#45;&gt;inch</title>
<path fill="none" stroke="black" d="M151.5,-104.78C151.5,-93.41 151.5,-79.66 151.5,-67.25"/>
<polygon fill="black" stroke="black" points="155,-67.22 151.5,-57.22 148,-67.22 155,-67.22"/>
</g>
<!-- unceME -->
<g id="node16" class="node">
<title>unceME</title>
<text text-anchor="start" x="219" y="-140.8" font-family="Times New Roman,serif" font-weight="bold" font-size="14.00">Middle</text>
<text text-anchor="start" x="217.5" y="-126.8" font-family="Times New Roman,serif" font-weight="bold" font-size="14.00">English</text>
<text text-anchor="start" x="227" y="-112.8" font-family="Times New Roman,serif" font-size="14.00" fill="red">unce</text>
</g>
<!-- unceOF&#45;&gt;unceME -->
<g id="edge15" class="edge">
<title>unceOF&#45;&gt;unceME</title>
<path fill="none" stroke="black" stroke-dasharray="1,5" d="M254.38,-207.76C252.24,-195.9 249.32,-179.75 246.71,-165.33"/>
<polygon fill="black" stroke="black" points="250.1,-164.43 244.88,-155.21 243.21,-165.67 250.1,-164.43"/>
</g>
<!-- ounce -->
<g id="node17" class="node">
<title>ounce</title>
<text text-anchor="start" x="215" y="-42.8" font-family="Times New Roman,serif" font-weight="bold" font-size="14.00">Modern</text>
<text text-anchor="start" x="216.5" y="-28.8" font-family="Times New Roman,serif" font-weight="bold" font-size="14.00">English</text>
<text text-anchor="start" x="222.5" y="-14.8" font-family="Times New Roman,serif" font-size="14.00" fill="red">ounce</text>
</g>
<!-- unceME&#45;&gt;ounce -->
<g id="edge16" class="edge">
<title>unceME&#45;&gt;ounce</title>
<path fill="none" stroke="black" d="M240.25,-104.78C240.13,-93.41 239.99,-79.66 239.86,-67.25"/>
<polygon fill="black" stroke="black" points="243.36,-67.18 239.75,-57.22 236.36,-67.25 243.36,-67.18"/>
</g>
<!-- uncial -->
<g id="node19" class="node">
<title>uncial</title>
<text text-anchor="start" x="298" y="-42.8" font-family="Times New Roman,serif" font-weight="bold" font-size="14.00">Modern</text>
<text text-anchor="start" x="299.5" y="-28.8" font-family="Times New Roman,serif" font-weight="bold" font-size="14.00">English</text>
<text text-anchor="start" x="306" y="-14.8" font-family="Times New Roman,serif" font-size="14.00" fill="red">uncial</text>
</g>
<!-- uncialesL&#45;&gt;uncial -->
<g id="edge18" class="edge">
<title>uncialesL&#45;&gt;uncial</title>
<path fill="none" stroke="black" stroke-dasharray="1,5" d="M323.2,-99.94C323.09,-89.67 322.97,-78.03 322.86,-67.37"/>
<polygon fill="black" stroke="black" points="326.36,-67.08 322.75,-57.12 319.36,-67.16 326.36,-67.08"/>
</g>
<!-- quincunx -->
<g id="node21" class="node">
<title>quincunx</title>
<text text-anchor="start" x="389" y="-49.8" font-family="Times New Roman,serif" font-weight="bold" font-size="14.00">Modern</text>
<text text-anchor="start" x="390.5" y="-35.8" font-family="Times New Roman,serif" font-weight="bold" font-size="14.00">English</text>
<text text-anchor="start" x="387.5" y="-21.8" font-family="Times New Roman,serif" font-size="14.00" fill="red">quincunx</text>
<text text-anchor="start" x="381.5" y="-7.8" font-family="Times New Roman,serif" font-size="14.00" fill="red">quincuncial</text>
</g>
<!-- quincunxL&#45;&gt;quincunx -->
<g id="edge20" class="edge">
<title>quincunxL&#45;&gt;quincunx</title>
<path fill="none" stroke="black" stroke-dasharray="1,5" d="M411.98,-105.76C412.18,-96.26 412.42,-84.97 412.64,-74.16"/>
<polygon fill="black" stroke="black" points="416.14,-74.08 412.85,-64.01 409.15,-73.93 416.14,-74.08"/>
</g>
</g>
</svg>
