<?xml version="1.0" encoding="UTF-8" standalone="no"?>
<!DOCTYPE svg PUBLIC "-//W3C//DTD SVG 1.1//EN"
 "http://www.w3.org/Graphics/SVG/1.1/DTD/svg11.dtd">
<!-- Generated by graphviz version 2.49.0 (20210828.1703)
 -->
<!-- Pages: 1 -->
<svg width="407pt" height="132pt"
 viewBox="0.00 0.00 407.00 132.00" xmlns="http://www.w3.org/2000/svg" xmlns:xlink="http://www.w3.org/1999/xlink">
<g id="graph0" class="graph" transform="scale(1 1) rotate(0) translate(4 128)">
<polygon fill="white" stroke="transparent" points="-4,4 -4,-128 403,-128 403,4 -4,4"/>
<g id="clust2" class="cluster">
<title>cluster1</title>
<path fill="none" stroke="black" stroke-dasharray="5,2" d="M171.5,-8C171.5,-8 312.5,-8 312.5,-8 318.5,-8 324.5,-14 324.5,-20 324.5,-20 324.5,-48 324.5,-48 324.5,-54 318.5,-60 312.5,-60 312.5,-60 171.5,-60 171.5,-60 165.5,-60 159.5,-54 159.5,-48 159.5,-48 159.5,-20 159.5,-20 159.5,-14 165.5,-8 171.5,-8"/>
</g>
<!-- oino -->
<g id="node1" class="node">
<title>oino</title>
<polygon fill="none" stroke="black" points="261.5,-124 135.5,-124 135.5,-88 261.5,-88 261.5,-124"/>
<text text-anchor="start" x="152" y="-109.8" font-family="Times New Roman,serif" font-weight="bold" font-size="14.00">Indo&#45;European</text>
<text text-anchor="start" x="143.5" y="-95.8" font-family="Times New Roman,serif" font-size="14.00" fill="red">oi&#45;no&#45;</text>
<text text-anchor="start" x="177.5" y="-95.8" font-family="Times New Roman,serif" font-size="14.00"> &#160;&#160;one, unique</text>
</g>
<!-- ainaGm -->
<g id="node2" class="node">
<title>ainaGm</title>
<g id="a_node2"><a xlink:href="oino-one1.svg" xlink:title="&lt;b&gt;Germanic&lt;/b&gt;&lt;br/&gt;&lt;font color=&quot;red&quot;&gt;aina&#45;&lt;/font&gt;">
<path fill="none" stroke="black" stroke-dasharray="5,2" d="M65,-52C65,-52 12,-52 12,-52 6,-52 0,-46 0,-40 0,-40 0,-28 0,-28 0,-22 6,-16 12,-16 12,-16 65,-16 65,-16 71,-16 77,-22 77,-28 77,-28 77,-40 77,-40 77,-46 71,-52 65,-52"/>
<text text-anchor="start" x="8" y="-37.8" font-family="Times New Roman,serif" font-weight="bold" font-size="14.00">Germanic</text>
<text text-anchor="start" x="25" y="-23.8" font-family="Times New Roman,serif" font-size="14.00" fill="red">aina&#45;</text>
</a>
</g>
</g>
<!-- oino&#45;&gt;ainaGm -->
<g id="edge1" class="edge">
<title>oino&#45;&gt;ainaGm</title>
<path fill="none" stroke="black" d="M153.11,-87.93C132.57,-79.91 108.11,-69.94 86.5,-60 84.18,-58.93 81.82,-57.81 79.45,-56.66"/>
<polygon fill="black" stroke="black" points="80.81,-53.43 70.3,-52.12 77.7,-59.7 80.81,-53.43"/>
</g>
<!-- unusL -->
<g id="node3" class="node">
<title>unusL</title>
<g id="a_node3"><a xlink:href="oino-one2.svg" xlink:title="&lt;b&gt;Latin&lt;/b&gt;&lt;br/&gt;&lt;font color=&quot;red&quot;&gt;ūnus&lt;/font&gt;">
<path fill="none" stroke="black" stroke-dasharray="5,2" d="M137.5,-52C137.5,-52 107.5,-52 107.5,-52 101.5,-52 95.5,-46 95.5,-40 95.5,-40 95.5,-28 95.5,-28 95.5,-22 101.5,-16 107.5,-16 107.5,-16 137.5,-16 137.5,-16 143.5,-16 149.5,-22 149.5,-28 149.5,-28 149.5,-40 149.5,-40 149.5,-46 143.5,-52 137.5,-52"/>
<text text-anchor="start" x="106" y="-37.8" font-family="Times New Roman,serif" font-weight="bold" font-size="14.00">Latin</text>
<text text-anchor="start" x="109" y="-23.8" font-family="Times New Roman,serif" font-size="14.00" fill="red">ūnus</text>
</a>
</g>
</g>
<!-- oino&#45;&gt;unusL -->
<g id="edge2" class="edge">
<title>oino&#45;&gt;unusL</title>
<path fill="none" stroke="black" d="M179.71,-87.7C170.33,-79.05 158.82,-68.45 148.59,-59.03"/>
<polygon fill="black" stroke="black" points="150.8,-56.3 141.07,-52.1 146.05,-61.45 150.8,-56.3"/>
</g>
<!-- neoinom -->
<g id="node4" class="node">
<title>neoinom</title>
<g id="a_node4"><a xlink:href="ne-oino.svg" xlink:title="&lt;font color=&quot;red&quot;&gt;ne&#45;oinom&lt;/font&gt;">
<text text-anchor="start" x="255" y="-30.3" font-family="Times New Roman,serif" font-size="14.00" fill="red">ne&#45;oinom</text>
</a>
</g>
</g>
<!-- oino&#45;&gt;neoinom -->
<g id="edge3" class="edge">
<title>oino&#45;&gt;neoinom</title>
<path fill="none" stroke="black" d="M219.02,-87.7C229.37,-78.97 242.09,-68.24 253.34,-58.75"/>
<polygon fill="black" stroke="black" points="255.83,-61.23 261.22,-52.1 251.32,-55.88 255.83,-61.23"/>
</g>
<!-- oinoko -->
<g id="node5" class="node">
<title>oinoko</title>
<g id="a_node5"><a xlink:href="oino-one3.svg" xlink:title="&lt;font color=&quot;red&quot;&gt;oino&#45;ko&#45;&lt;/font&gt;">
<path fill="none" stroke="black" stroke-dasharray="5,2" d="M387,-52C387,-52 346,-52 346,-52 340,-52 334,-46 334,-40 334,-40 334,-28 334,-28 334,-22 340,-16 346,-16 346,-16 387,-16 387,-16 393,-16 399,-22 399,-28 399,-28 399,-40 399,-40 399,-46 393,-52 387,-52"/>
<text text-anchor="start" x="342" y="-30.3" font-family="Times New Roman,serif" font-size="14.00" fill="red">oino&#45;ko&#45;</text>
</a>
</g>
</g>
<!-- oino&#45;&gt;oinoko -->
<g id="edge4" class="edge">
<title>oino&#45;&gt;oinoko</title>
<path fill="none" stroke="black" d="M257.67,-87.96C280.34,-80.55 306.11,-71.03 328.5,-60 330.25,-59.14 332.02,-58.21 333.79,-57.23"/>
<polygon fill="black" stroke="black" points="335.68,-60.18 342.5,-52.07 332.11,-54.15 335.68,-60.18"/>
</g>
<!-- oinolo -->
<g id="node6" class="node">
<title>oinolo</title>
<g id="a_node6"><a xlink:href="ne-oino.svg" xlink:title="&lt;font color=&quot;red&quot;&gt;oino&#45;lo&#45;&lt;/font&gt;">
<text text-anchor="start" x="176" y="-30.3" font-family="Times New Roman,serif" font-size="14.00" fill="red">oino&#45;lo&#45;</text>
</a>
</g>
</g>
<!-- oino&#45;&gt;oinolo -->
<g id="edge5" class="edge">
<title>oino&#45;&gt;oinolo</title>
<path fill="none" stroke="black" d="M198.5,-87.7C198.5,-79.98 198.5,-70.71 198.5,-62.11"/>
<polygon fill="black" stroke="black" points="202,-62.1 198.5,-52.1 195,-62.1 202,-62.1"/>
</g>
</g>
</svg>
