<?xml version="1.0" encoding="UTF-8" standalone="no"?>
<!DOCTYPE svg PUBLIC "-//W3C//DTD SVG 1.1//EN"
 "http://www.w3.org/Graphics/SVG/1.1/DTD/svg11.dtd">
<!-- Generated by graphviz version 2.49.0 (20210828.1703)
 -->
<!-- Title: oino_aina Pages: 1 -->
<svg width="887pt" height="670pt"
 viewBox="0.00 0.00 887.00 670.00" xmlns="http://www.w3.org/2000/svg" xmlns:xlink="http://www.w3.org/1999/xlink">
<g id="graph0" class="graph" transform="scale(1 1) rotate(0) translate(4 666)">
<title>oino_aina</title>
<polygon fill="white" stroke="transparent" points="-4,4 -4,-666 883,-666 883,4 -4,4"/>
<!-- oino -->
<g id="node1" class="node">
<title>oino</title>
<g id="a_node1"><a xlink:href="oino-one0.svg" xlink:title="Indo&#45;European &quot;*oi&#45;no&#45;&quot; one, unique">
<polygon fill="none" stroke="black" stroke-dasharray="5,2" points="613,-662 402,-662 402,-558 613,-558 613,-662"/>
<text text-anchor="start" x="429.5" y="-617.8" font-family="Times New Roman,serif" font-weight="bold" font-size="24.00">Indo&#45;European</text>
<text text-anchor="start" x="435" y="-589.6" font-family="Times New Roman,serif" font-size="18.00" fill="red">*oi&#45;no&#45;</text>
<text text-anchor="start" x="507.5" y="-590.2" font-family="Times New Roman,serif" font-size="16.00">one, unique</text>
</a>
</g>
</g>
<!-- ainaGm -->
<g id="node2" class="node">
<title>ainaGm</title>
<text text-anchor="start" x="477" y="-501.8" font-family="Times New Roman,serif" font-weight="bold" font-size="14.00">Germanic</text>
<text text-anchor="start" x="490.5" y="-487.8" font-family="Times New Roman,serif" font-size="14.00" fill="red">*aina&#45;</text>
</g>
<!-- oino&#45;&gt;ainaGm -->
<g id="edge1" class="edge">
<title>oino&#45;&gt;ainaGm</title>
<path fill="none" stroke="black" d="M507.5,-557.86C507.5,-546.94 507.5,-535.81 507.5,-526.21"/>
<polygon fill="black" stroke="black" points="511,-526.12 507.5,-516.12 504,-526.12 511,-526.12"/>
</g>
<!-- anOE -->
<g id="node3" class="node">
<title>anOE</title>
<text text-anchor="start" x="460" y="-419.8" font-family="Times New Roman,serif" font-weight="bold" font-size="14.00">Old</text>
<text text-anchor="start" x="448.5" y="-405.8" font-family="Times New Roman,serif" font-weight="bold" font-size="14.00">English</text>
<text text-anchor="start" x="465" y="-391.8" font-family="Times New Roman,serif" font-size="14.00" fill="red">ān</text>
</g>
<!-- ainaGm&#45;&gt;anOE -->
<g id="edge8" class="edge">
<title>ainaGm&#45;&gt;anOE</title>
<path fill="none" stroke="black" d="M500.39,-479.81C496.12,-469.5 490.54,-456.02 485.43,-443.66"/>
<polygon fill="black" stroke="black" points="488.52,-441.97 481.46,-434.07 482.05,-444.65 488.52,-441.97"/>
</g>
<!-- ainlifGm -->
<g id="node26" class="node">
<title>ainlifGm</title>
<text text-anchor="start" x="650" y="-423.8" font-family="Times New Roman,serif" font-size="14.00" fill="red">*ain&#45;lif&#45;</text>
<text text-anchor="start" x="653" y="-411.4" font-family="Times New Roman,serif" font-size="12.00">&quot;one left</text>
<text text-anchor="start" x="645.5" y="-399.4" font-family="Times New Roman,serif" font-size="12.00">(after ten),&quot;</text>
<text text-anchor="start" x="657" y="-387.4" font-family="Times New Roman,serif" font-size="12.00">eleven</text>
</g>
<!-- ainaGm&#45;&gt;ainlifGm -->
<g id="edge24" class="edge">
<title>ainaGm&#45;&gt;ainlifGm</title>
<path fill="none" stroke="black" d="M539.9,-479.81C565.23,-466.38 600.67,-447.57 628.39,-432.87"/>
<polygon fill="black" stroke="black" points="630.28,-435.83 637.47,-428.05 627,-429.65 630.28,-435.83"/>
</g>
<!-- nanOE -->
<g id="node4" class="node">
<title>nanOE</title>
<text text-anchor="start" x="239.5" y="-315.3" font-family="Times New Roman,serif" font-size="14.00" fill="red">nān</text>
</g>
<!-- anOE&#45;&gt;nanOE -->
<g id="edge2" class="edge">
<title>anOE&#45;&gt;nanOE</title>
<path fill="none" stroke="black" d="M440.16,-395.58C399.69,-379.54 329.35,-351.65 286.36,-334.61"/>
<polygon fill="black" stroke="black" points="287.42,-331.27 276.84,-330.84 284.84,-337.78 287.42,-331.27"/>
</g>
<!-- anME -->
<g id="node10" class="node">
<title>anME</title>
<text text-anchor="start" x="161" y="-238.8" font-family="Times New Roman,serif" font-weight="bold" font-size="14.00">Middle</text>
<text text-anchor="start" x="159.5" y="-224.8" font-family="Times New Roman,serif" font-weight="bold" font-size="14.00">English</text>
<text text-anchor="start" x="169" y="-210.8" font-family="Times New Roman,serif" font-size="14.00" fill="red">an, a</text>
</g>
<!-- anOE&#45;&gt;anME -->
<g id="edge9" class="edge">
<title>anOE&#45;&gt;anME</title>
<path fill="none" stroke="black" d="M440.3,-388.67C387.4,-355.91 280.23,-289.53 222.12,-253.54"/>
<polygon fill="black" stroke="black" points="223.92,-250.54 213.57,-248.25 220.23,-256.49 223.92,-250.54"/>
</g>
<!-- onME -->
<g id="node12" class="node">
<title>onME</title>
<text text-anchor="start" x="450" y="-329.8" font-family="Times New Roman,serif" font-weight="bold" font-size="14.00">Middle</text>
<text text-anchor="start" x="448.5" y="-315.8" font-family="Times New Roman,serif" font-weight="bold" font-size="14.00">English</text>
<text text-anchor="start" x="450" y="-301.8" font-family="Times New Roman,serif" font-size="14.00" fill="red">on, one</text>
</g>
<!-- anOE&#45;&gt;onME -->
<g id="edge11" class="edge">
<title>anOE&#45;&gt;onME</title>
<path fill="none" stroke="black" d="M471.5,-383.95C471.5,-374.74 471.5,-364.04 471.5,-354.06"/>
<polygon fill="black" stroke="black" points="475,-354.02 471.5,-344.02 468,-354.02 475,-354.02"/>
</g>
<!-- onanOE -->
<g id="node20" class="node">
<title>onanOE</title>
<text text-anchor="start" x="645" y="-321.8" font-family="Times New Roman,serif" font-size="14.00" fill="red">on ān</text>
<text text-anchor="start" x="643" y="-309.4" font-family="Times New Roman,serif" font-size="12.00">&quot;in one&quot;</text>
</g>
<!-- anOE&#45;&gt;onanOE -->
<g id="edge19" class="edge">
<title>anOE&#45;&gt;onanOE</title>
<path fill="none" stroke="black" d="M502.71,-393.47C535.96,-377.98 588.57,-353.49 623.79,-337.09"/>
<polygon fill="black" stroke="black" points="625.65,-340.09 633.24,-332.69 622.69,-333.74 625.65,-340.09"/>
</g>
<!-- noneME -->
<g id="node5" class="node">
<title>noneME</title>
<text text-anchor="start" x="18" y="-231.8" font-family="Times New Roman,serif" font-weight="bold" font-size="14.00">Middle English</text>
<text text-anchor="start" x="50.5" y="-217.8" font-family="Times New Roman,serif" font-size="14.00" fill="red">none</text>
</g>
<!-- nanOE&#45;&gt;noneME -->
<g id="edge3" class="edge">
<title>nanOE&#45;&gt;noneME</title>
<path fill="none" stroke="black" d="M222.2,-304.87C192.49,-290.58 144.53,-267.5 109.28,-250.54"/>
<polygon fill="black" stroke="black" points="110.69,-247.34 100.16,-246.16 107.66,-253.65 110.69,-247.34"/>
</g>
<!-- none -->
<g id="node6" class="node">
<title>none</title>
<text text-anchor="start" x="8" y="-42.8" font-family="Times New Roman,serif" font-weight="bold" font-size="14.00">Modern English</text>
<text text-anchor="start" x="43.5" y="-28.8" font-family="Times New Roman,serif" font-size="14.00" fill="red">none</text>
</g>
<!-- noneME&#45;&gt;none -->
<g id="edge4" class="edge">
<title>noneME&#45;&gt;none</title>
<path fill="none" stroke="black" d="M63.85,-209.74C62.64,-177.18 59.99,-106.44 58.52,-67.35"/>
<polygon fill="black" stroke="black" points="62.02,-67.08 58.14,-57.22 55.02,-67.34 62.02,-67.08"/>
</g>
<!-- ne -->
<g id="node7" class="node">
<title>ne</title>
<g id="a_node7"><a xlink:href="ne-not1.svg" xlink:title="&lt;b&gt;Indo&#45;&lt;br/&gt;European&lt;/b&gt;&lt;br/&gt;&lt;font color=&quot;red&quot;&gt;*ne&lt;/font&gt;&lt;br/&gt;&lt;font point&#45;size=&quot;12&quot;&gt;not&lt;/font&gt;">
<path fill="none" stroke="black" stroke-dasharray="5,2" d="M276,-641C276,-641 223,-641 223,-641 217,-641 211,-635 211,-629 211,-629 211,-591 211,-591 211,-585 217,-579 223,-579 223,-579 276,-579 276,-579 282,-579 288,-585 288,-591 288,-591 288,-629 288,-629 288,-635 282,-641 276,-641"/>
<text text-anchor="start" x="233" y="-626.8" font-family="Times New Roman,serif" font-weight="bold" font-size="14.00">Indo&#45;</text>
<text text-anchor="start" x="219" y="-612.8" font-family="Times New Roman,serif" font-weight="bold" font-size="14.00">European</text>
<text text-anchor="start" x="239.5" y="-598.8" font-family="Times New Roman,serif" font-size="14.00" fill="red">*ne</text>
<text text-anchor="start" x="242" y="-586.4" font-family="Times New Roman,serif" font-size="12.00">not</text>
</a>
</g>
</g>
<!-- neGm -->
<g id="node8" class="node">
<title>neGm</title>
<text text-anchor="start" x="219" y="-501.8" font-family="Times New Roman,serif" font-weight="bold" font-size="14.00">Germanic</text>
<text text-anchor="start" x="237" y="-487.8" font-family="Times New Roman,serif" font-size="14.00" fill="red">*ne&#45;</text>
</g>
<!-- ne&#45;&gt;neGm -->
<g id="edge5" class="edge">
<title>ne&#45;&gt;neGm</title>
<path fill="none" stroke="black" d="M249.5,-578.94C249.5,-562.51 249.5,-542.3 249.5,-526.32"/>
<polygon fill="black" stroke="black" points="253,-526.02 249.5,-516.02 246,-526.02 253,-526.02"/>
</g>
<!-- neOE -->
<g id="node9" class="node">
<title>neOE</title>
<text text-anchor="start" x="213" y="-412.8" font-family="Times New Roman,serif" font-weight="bold" font-size="14.00">Old English</text>
<text text-anchor="start" x="243" y="-398.8" font-family="Times New Roman,serif" font-size="14.00" fill="red">ne</text>
</g>
<!-- neGm&#45;&gt;neOE -->
<g id="edge6" class="edge">
<title>neGm&#45;&gt;neOE</title>
<path fill="none" stroke="black" d="M249.5,-479.81C249.5,-467.66 249.5,-451.11 249.5,-437.18"/>
<polygon fill="black" stroke="black" points="253,-437.15 249.5,-427.15 246,-437.15 253,-437.15"/>
</g>
<!-- neOE&#45;&gt;nanOE -->
<g id="edge7" class="edge">
<title>neOE&#45;&gt;nanOE</title>
<path fill="none" stroke="black" d="M249.5,-390.61C249.5,-378.24 249.5,-361.37 249.5,-347.22"/>
<polygon fill="black" stroke="black" points="253,-347.05 249.5,-337.05 246,-347.05 253,-347.05"/>
</g>
<!-- an -->
<g id="node11" class="node">
<title>an</title>
<text text-anchor="start" x="141" y="-49.8" font-family="Times New Roman,serif" font-weight="bold" font-size="14.00">Modern</text>
<text text-anchor="start" x="142.5" y="-35.8" font-family="Times New Roman,serif" font-weight="bold" font-size="14.00">English</text>
<text text-anchor="start" x="152" y="-21.8" font-family="Times New Roman,serif" font-size="14.00" fill="red">an, a</text>
</g>
<!-- anME&#45;&gt;an -->
<g id="edge10" class="edge">
<title>anME&#45;&gt;an</title>
<path fill="none" stroke="black" d="M180.31,-202.94C177.35,-170.35 172.04,-111.97 168.65,-74.66"/>
<polygon fill="black" stroke="black" points="172.1,-73.91 167.71,-64.27 165.13,-74.54 172.1,-73.91"/>
</g>
<!-- one -->
<g id="node13" class="node">
<title>one</title>
<text text-anchor="start" x="224" y="-49.8" font-family="Times New Roman,serif" font-weight="bold" font-size="14.00">Modern</text>
<text text-anchor="start" x="225.5" y="-35.8" font-family="Times New Roman,serif" font-weight="bold" font-size="14.00">English</text>
<text text-anchor="start" x="238" y="-21.8" font-family="Times New Roman,serif" font-size="14.00" fill="red">one</text>
</g>
<!-- onME&#45;&gt;one -->
<g id="edge12" class="edge">
<title>onME&#45;&gt;one</title>
<path fill="none" stroke="black" d="M440.26,-297.96C424.87,-287.21 406.63,-273.09 392.5,-258 337.8,-199.58 290.09,-118.12 265.73,-73.14"/>
<polygon fill="black" stroke="black" points="268.7,-71.28 260.89,-64.12 262.53,-74.59 268.7,-71.28"/>
</g>
<!-- onesME -->
<g id="node14" class="node">
<title>onesME</title>
<text text-anchor="start" x="410" y="-230.8" font-family="Times New Roman,serif" font-size="14.00" fill="red">ones, anes</text>
<text text-anchor="start" x="416.5" y="-218.4" font-family="Times New Roman,serif" font-size="12.00">&quot;one time&quot;</text>
</g>
<!-- onME&#45;&gt;onesME -->
<g id="edge13" class="edge">
<title>onME&#45;&gt;onesME</title>
<path fill="none" stroke="black" d="M462.76,-293.68C458.53,-281.94 453.46,-267.82 449.13,-255.77"/>
<polygon fill="black" stroke="black" points="452.38,-254.47 445.7,-246.24 445.79,-256.83 452.38,-254.47"/>
</g>
<!-- aloneME -->
<g id="node18" class="node">
<title>aloneME</title>
<text text-anchor="start" x="521.5" y="-146.8" font-family="Times New Roman,serif" font-size="14.00" fill="red">al one</text>
<text text-anchor="start" x="524.5" y="-134.4" font-family="Times New Roman,serif" font-size="12.00">&quot;all by</text>
<text text-anchor="start" x="520.5" y="-122.4" font-family="Times New Roman,serif" font-size="12.00">oneself&quot;</text>
</g>
<!-- onME&#45;&gt;aloneME -->
<g id="edge17" class="edge">
<title>onME&#45;&gt;aloneME</title>
<path fill="none" stroke="black" d="M480.54,-293.86C492.43,-262.07 513.39,-206.09 526.57,-170.86"/>
<polygon fill="black" stroke="black" points="530.01,-171.67 530.24,-161.08 523.45,-169.21 530.01,-171.67"/>
</g>
<!-- atoneME -->
<g id="node23" class="node">
<title>atoneME</title>
<text text-anchor="start" x="608.5" y="-243.8" font-family="Times New Roman,serif" font-size="14.00" fill="red">at one</text>
<text text-anchor="start" x="596.5" y="-231.4" font-family="Times New Roman,serif" font-size="12.00">in agreement</text>
<text text-anchor="start" x="607" y="-217.8" font-family="Times New Roman,serif" font-size="14.00" fill="red">atonen</text>
<text text-anchor="start" x="589" y="-205.4" font-family="Times New Roman,serif" font-size="12.00">to be reconciled</text>
</g>
<!-- onME&#45;&gt;atoneME -->
<g id="edge22" class="edge">
<title>onME&#45;&gt;atoneME</title>
<path fill="none" stroke="black" d="M502.66,-299.99C522.62,-288.46 549.02,-273.2 572.24,-259.78"/>
<polygon fill="black" stroke="black" points="574.05,-262.78 580.96,-254.74 570.55,-256.72 574.05,-262.78"/>
</g>
<!-- once -->
<g id="node15" class="node">
<title>once</title>
<text text-anchor="start" x="307" y="-49.8" font-family="Times New Roman,serif" font-weight="bold" font-size="14.00">Modern</text>
<text text-anchor="start" x="308.5" y="-35.8" font-family="Times New Roman,serif" font-weight="bold" font-size="14.00">English</text>
<text text-anchor="start" x="317.5" y="-21.8" font-family="Times New Roman,serif" font-size="14.00" fill="red">once</text>
</g>
<!-- onesME&#45;&gt;once -->
<g id="edge14" class="edge">
<title>onesME&#45;&gt;once</title>
<path fill="none" stroke="black" d="M422.95,-209.81C411.46,-197.26 396.32,-179.46 385.5,-162 368.05,-133.85 353.24,-99.07 343.57,-73.86"/>
<polygon fill="black" stroke="black" points="346.8,-72.49 340,-64.37 340.24,-74.96 346.8,-72.49"/>
</g>
<!-- nonesME -->
<g id="node16" class="node">
<title>nonesME</title>
<text text-anchor="start" x="403" y="-147.8" font-family="Times New Roman,serif" font-size="14.00" fill="red">for then anes</text>
<text text-anchor="start" x="402.5" y="-133.8" font-family="Times New Roman,serif" font-size="14.00" fill="red">for the nones</text>
<text text-anchor="start" x="403" y="-121.4" font-family="Times New Roman,serif" font-size="12.00">for the occasion</text>
</g>
<!-- onesME&#45;&gt;nonesME -->
<g id="edge15" class="edge">
<title>onesME&#45;&gt;nonesME</title>
<path fill="none" stroke="black" d="M439.5,-209.61C439.5,-198.97 439.5,-185 439.5,-172.29"/>
<polygon fill="black" stroke="black" points="443,-172.02 439.5,-162.02 436,-172.02 443,-172.02"/>
</g>
<!-- nonce -->
<g id="node17" class="node">
<title>nonce</title>
<text text-anchor="start" x="390" y="-42.8" font-family="Times New Roman,serif" font-weight="bold" font-size="14.00">Modern English</text>
<text text-anchor="start" x="422.5" y="-28.8" font-family="Times New Roman,serif" font-size="14.00" fill="red">nonce</text>
</g>
<!-- nonesME&#45;&gt;nonce -->
<g id="edge16" class="edge">
<title>nonesME&#45;&gt;nonce</title>
<path fill="none" stroke="black" d="M439.5,-113.52C439.5,-99.67 439.5,-82.07 439.5,-67.56"/>
<polygon fill="black" stroke="black" points="443,-67.18 439.5,-57.18 436,-67.18 443,-67.18"/>
</g>
<!-- alone -->
<g id="node19" class="node">
<title>alone</title>
<text text-anchor="start" x="523" y="-63.8" font-family="Times New Roman,serif" font-weight="bold" font-size="14.00">Modern</text>
<text text-anchor="start" x="524.5" y="-49.8" font-family="Times New Roman,serif" font-weight="bold" font-size="14.00">English</text>
<text text-anchor="start" x="532.5" y="-35.8" font-family="Times New Roman,serif" font-size="14.00" fill="red">alone</text>
<text text-anchor="start" x="535.5" y="-21.8" font-family="Times New Roman,serif" font-size="14.00" fill="red">lone</text>
<text text-anchor="start" x="530.5" y="-7.8" font-family="Times New Roman,serif" font-size="14.00" fill="red">lonely</text>
</g>
<!-- aloneME&#45;&gt;alone -->
<g id="edge18" class="edge">
<title>aloneME&#45;&gt;alone</title>
<path fill="none" stroke="black" d="M540.54,-114.99C541.28,-107.03 542.15,-97.69 543.01,-88.36"/>
<polygon fill="black" stroke="black" points="546.51,-88.58 543.95,-78.3 539.54,-87.93 546.51,-88.58"/>
</g>
<!-- anonME -->
<g id="node21" class="node">
<title>anonME</title>
<text text-anchor="start" x="720" y="-238.8" font-family="Times New Roman,serif" font-weight="bold" font-size="14.00">Middle</text>
<text text-anchor="start" x="718.5" y="-224.8" font-family="Times New Roman,serif" font-weight="bold" font-size="14.00">English</text>
<text text-anchor="start" x="727.5" y="-210.8" font-family="Times New Roman,serif" font-size="14.00" fill="red">anon</text>
</g>
<!-- onanOE&#45;&gt;anonME -->
<g id="edge20" class="edge">
<title>onanOE&#45;&gt;anonME</title>
<path fill="none" stroke="black" d="M676.12,-300.84C686.42,-289.52 700.22,-274.36 712.49,-260.87"/>
<polygon fill="black" stroke="black" points="715.36,-262.92 719.5,-253.17 710.18,-258.21 715.36,-262.92"/>
</g>
<!-- anon -->
<g id="node22" class="node">
<title>anon</title>
<text text-anchor="start" x="739" y="-55.8" font-family="Times New Roman,serif" font-weight="bold" font-size="14.00">Modern</text>
<text text-anchor="start" x="740.5" y="-41.8" font-family="Times New Roman,serif" font-weight="bold" font-size="14.00">English</text>
<text text-anchor="start" x="749.5" y="-27.8" font-family="Times New Roman,serif" font-size="14.00" fill="red">anon</text>
<text text-anchor="start" x="739.5" y="-15.4" font-family="Times New Roman,serif" font-size="12.00">later, soon</text>
</g>
<!-- anonME&#45;&gt;anon -->
<g id="edge21" class="edge">
<title>anonME&#45;&gt;anon</title>
<path fill="none" stroke="black" d="M744.33,-202.94C747.98,-171.92 754.38,-117.55 758.77,-80.2"/>
<polygon fill="black" stroke="black" points="762.26,-80.5 759.95,-70.16 755.31,-79.68 762.26,-80.5"/>
</g>
<!-- atone -->
<g id="node24" class="node">
<title>atone</title>
<text text-anchor="start" x="606" y="-42.8" font-family="Times New Roman,serif" font-weight="bold" font-size="14.00">Modern English</text>
<text text-anchor="start" x="640" y="-28.8" font-family="Times New Roman,serif" font-size="14.00" fill="red">atone</text>
</g>
<!-- atoneME&#45;&gt;atone -->
<g id="edge23" class="edge">
<title>atoneME&#45;&gt;atone</title>
<path fill="none" stroke="black" d="M630.19,-197.78C635.92,-162.03 645.56,-101.99 651.14,-67.19"/>
<polygon fill="black" stroke="black" points="654.6,-67.69 652.73,-57.26 647.69,-66.58 654.6,-67.69"/>
</g>
<!-- lifGm -->
<g id="node25" class="node">
<title>lifGm</title>
<text text-anchor="start" x="641" y="-507.8" font-family="Times New Roman,serif" font-weight="bold" font-size="14.00">Germanic</text>
<text text-anchor="start" x="660.5" y="-493.8" font-family="Times New Roman,serif" font-size="14.00" fill="red">*lif&#45;</text>
<text text-anchor="start" x="653" y="-481.4" font-family="Times New Roman,serif" font-size="12.00">left over</text>
</g>
<!-- lifGm&#45;&gt;ainlifGm -->
<g id="edge25" class="edge">
<title>lifGm&#45;&gt;ainlifGm</title>
<path fill="none" stroke="black" d="M671.5,-473.69C671.5,-465.8 671.5,-456.78 671.5,-448.05"/>
<polygon fill="black" stroke="black" points="675,-448.03 671.5,-438.03 668,-448.03 675,-448.03"/>
</g>
<!-- endleofanOE -->
<g id="node27" class="node">
<title>endleofanOE</title>
<text text-anchor="start" x="778" y="-329.8" font-family="Times New Roman,serif" font-weight="bold" font-size="14.00">Old English</text>
<text text-anchor="start" x="787" y="-315.8" font-family="Times New Roman,serif" font-size="14.00" fill="red">endleofan</text>
<text text-anchor="start" x="798" y="-301.8" font-family="Times New Roman,serif" font-size="14.00" fill="red">elefne</text>
</g>
<!-- ainlifGm&#45;&gt;endleofanOE -->
<g id="edge26" class="edge">
<title>ainlifGm&#45;&gt;endleofanOE</title>
<path fill="none" stroke="black" d="M705.75,-386.92C724.03,-375.67 746.82,-361.65 766.81,-349.35"/>
<polygon fill="black" stroke="black" points="768.79,-352.24 775.48,-344.01 765.13,-346.27 768.79,-352.24"/>
</g>
<!-- elevneME -->
<g id="node28" class="node">
<title>elevneME</title>
<text text-anchor="start" x="813" y="-238.8" font-family="Times New Roman,serif" font-weight="bold" font-size="14.00">Middle</text>
<text text-anchor="start" x="811.5" y="-224.8" font-family="Times New Roman,serif" font-weight="bold" font-size="14.00">English</text>
<text text-anchor="start" x="817" y="-210.8" font-family="Times New Roman,serif" font-size="14.00" fill="red">elevne</text>
</g>
<!-- endleofanOE&#45;&gt;elevneME -->
<g id="edge27" class="edge">
<title>endleofanOE&#45;&gt;elevneME</title>
<path fill="none" stroke="black" d="M819.97,-293.68C822.08,-284.26 824.54,-273.31 826.83,-263.13"/>
<polygon fill="black" stroke="black" points="830.26,-263.81 829.04,-253.29 823.43,-262.28 830.26,-263.81"/>
</g>
<!-- eleven -->
<g id="node29" class="node">
<title>eleven</title>
<text text-anchor="start" x="822" y="-49.8" font-family="Times New Roman,serif" font-weight="bold" font-size="14.00">Modern</text>
<text text-anchor="start" x="823.5" y="-35.8" font-family="Times New Roman,serif" font-weight="bold" font-size="14.00">English</text>
<text text-anchor="start" x="829" y="-21.8" font-family="Times New Roman,serif" font-size="14.00" fill="red">eleven</text>
</g>
<!-- elevneME&#45;&gt;eleven -->
<g id="edge28" class="edge">
<title>elevneME&#45;&gt;eleven</title>
<path fill="none" stroke="black" d="M836.04,-202.94C838.14,-170.35 841.88,-111.97 844.28,-74.66"/>
<polygon fill="black" stroke="black" points="847.8,-74.47 844.94,-64.27 840.81,-74.02 847.8,-74.47"/>
</g>
<!-- leikw -->
<g id="node30" class="node">
<title>leikw</title>
<g id="a_node30"><a xlink:href="leikw-leave.svg" xlink:title="&lt;b&gt;Indo&#45;&lt;br/&gt;European&lt;/b&gt;&lt;br/&gt;&lt;font color=&quot;red&quot;&gt;*leikʷ&#45;&lt;/font&gt;&lt;br/&gt;&lt;font point&#45;size=&quot;12&quot;&gt;to leave&lt;/font&gt;">
<path fill="none" stroke="black" stroke-dasharray="5,2" d="M698,-641C698,-641 645,-641 645,-641 639,-641 633,-635 633,-629 633,-629 633,-591 633,-591 633,-585 639,-579 645,-579 645,-579 698,-579 698,-579 704,-579 710,-585 710,-591 710,-591 710,-629 710,-629 710,-635 704,-641 698,-641"/>
<text text-anchor="start" x="655" y="-626.8" font-family="Times New Roman,serif" font-weight="bold" font-size="14.00">Indo&#45;</text>
<text text-anchor="start" x="641" y="-612.8" font-family="Times New Roman,serif" font-weight="bold" font-size="14.00">European</text>
<text text-anchor="start" x="653" y="-598.8" font-family="Times New Roman,serif" font-size="14.00" fill="red">*leikʷ&#45;</text>
<text text-anchor="start" x="653.5" y="-586.4" font-family="Times New Roman,serif" font-size="12.00">to leave</text>
</a>
</g>
</g>
<!-- leikw&#45;&gt;lifGm -->
<g id="edge29" class="edge">
<title>leikw&#45;&gt;lifGm</title>
<path fill="none" stroke="black" d="M671.5,-578.94C671.5,-564.51 671.5,-547.16 671.5,-532.33"/>
<polygon fill="black" stroke="black" points="675,-532.04 671.5,-522.04 668,-532.04 675,-532.04"/>
</g>
</g>
</svg>
