<?xml version="1.0" encoding="UTF-8" standalone="no"?>
<!DOCTYPE svg PUBLIC "-//W3C//DTD SVG 1.1//EN"
 "http://www.w3.org/Graphics/SVG/1.1/DTD/svg11.dtd">
<!-- Generated by graphviz version 2.44.1 (20200629.0846)
 -->
<!-- Pages: 1 -->
<svg width="1107pt" height="656pt"
 viewBox="0.00 0.00 1107.00 656.00" xmlns="http://www.w3.org/2000/svg" xmlns:xlink="http://www.w3.org/1999/xlink">
<g id="graph0" class="graph" transform="scale(1 1) rotate(0) translate(4 652)">
<polygon fill="white" stroke="transparent" points="-4,4 -4,-652 1103,-652 1103,4 -4,4"/>
<!-- okto -->
<g id="node1" class="node">
<title>okto</title>
<g id="a_node1"><a xlink:title="Indo&#45;European &quot;oktō(u)&quot; eight">
<polygon fill="none" stroke="black" points="762,-644 566,-644 566,-540 762,-540 762,-644"/>
<polygon fill="none" stroke="black" points="766,-648 562,-648 562,-536 766,-536 766,-648"/>
<text text-anchor="start" x="593" y="-598.8" font-family="Times New Roman,serif" font-size="24.00">Indo&#45;European</text>
<text text-anchor="start" x="598" y="-571.6" font-family="Times New Roman,serif" font-size="18.00" fill="red">oktō, oktōu</text>
<text text-anchor="start" x="699" y="-572.2" font-family="Times New Roman,serif" font-size="16.00">eight</text>
</a>
</g>
</g>
<!-- ahtoGm -->
<g id="node7" class="node">
<title>ahtoGm</title>
<text text-anchor="start" x="340.5" y="-406.8" font-family="Times New Roman,serif" font-weight="bold" font-size="14.00">Germanic</text>
<text text-anchor="start" x="358.5" y="-392.8" font-family="Times New Roman,serif" font-size="14.00" fill="red">ahtō</text>
</g>
<!-- okto&#45;&gt;ahtoGm -->
<g id="edge5" class="edge">
<title>okto&#45;&gt;ahtoGm</title>
<path fill="none" stroke="black" d="M633,-535C633,-535 488.86,-462.93 414.41,-425.7"/>
<polygon fill="black" stroke="black" points="415.76,-422.47 405.25,-421.13 412.63,-428.73 415.76,-422.47"/>
</g>
<!-- octoL -->
<g id="node17" class="node">
<title>octoL</title>
<text text-anchor="start" x="647.5" y="-413.8" font-family="Times New Roman,serif" font-weight="bold" font-size="14.00">Latin</text>
<text text-anchor="start" x="651" y="-399.8" font-family="Times New Roman,serif" font-size="14.00" fill="red">octō</text>
<text text-anchor="start" x="648.5" y="-385.8" font-family="Times New Roman,serif" font-size="14.00" fill="red">octō&#45;</text>
</g>
<!-- okto&#45;&gt;octoL -->
<g id="edge16" class="edge">
<title>okto&#45;&gt;octoL</title>
<path fill="none" stroke="black" d="M633,-535C633,-535 646.79,-476.73 655.98,-437.91"/>
<polygon fill="black" stroke="black" points="659.42,-438.56 658.31,-428.03 652.61,-436.95 659.42,-438.56"/>
</g>
<!-- oktoG -->
<g id="node33" class="node">
<title>oktoG</title>
<text text-anchor="start" x="915" y="-413.8" font-family="Times New Roman,serif" font-weight="bold" font-size="14.00">Greek</text>
<text text-anchor="start" x="922" y="-399.8" font-family="Times New Roman,serif" font-size="14.00" fill="red">oktō</text>
<text text-anchor="start" x="901.5" y="-385.8" font-family="Times New Roman,serif" font-size="14.00" fill="red">okta&#45;, oktō&#45;</text>
</g>
<!-- okto&#45;&gt;oktoG -->
<g id="edge34" class="edge">
<title>okto&#45;&gt;oktoG</title>
<path fill="none" stroke="black" d="M743.84,-535.91C792.03,-502.65 851.59,-461.55 891.3,-434.16"/>
<polygon fill="black" stroke="black" points="893.71,-436.74 899.95,-428.18 889.73,-430.98 893.71,-436.74"/>
</g>
<!-- dekmIE -->
<g id="node2" class="node">
<title>dekmIE</title>
<g id="a_node2"><a xlink:href="dekm-ten.svg" xlink:title="&lt;b&gt;Indo&#45;&lt;br/&gt;European&lt;/b&gt;&lt;br/&gt;&lt;font color=&quot;red&quot;&gt;dekm̥&lt;/font&gt;&lt;br/&gt;&lt;font point&#45;size=&quot;12&quot;&gt;ten&lt;/font&gt;">
<path fill="none" stroke="black" stroke-dasharray="5,2" d="M273.5,-623C273.5,-623 220.5,-623 220.5,-623 214.5,-623 208.5,-617 208.5,-611 208.5,-611 208.5,-573 208.5,-573 208.5,-567 214.5,-561 220.5,-561 220.5,-561 273.5,-561 273.5,-561 279.5,-561 285.5,-567 285.5,-573 285.5,-573 285.5,-611 285.5,-611 285.5,-617 279.5,-623 273.5,-623"/>
<text text-anchor="start" x="230.5" y="-608.8" font-family="Times New Roman,serif" font-weight="bold" font-size="14.00">Indo&#45;</text>
<text text-anchor="start" x="216.5" y="-594.8" font-family="Times New Roman,serif" font-weight="bold" font-size="14.00">European</text>
<text text-anchor="start" x="231.5" y="-580.8" font-family="Times New Roman,serif" font-size="14.00" fill="red">dekm̥</text>
<text text-anchor="start" x="240" y="-568.4" font-family="Times New Roman,serif" font-size="12.00">ten</text>
</a>
</g>
</g>
<!-- tehanGm -->
<g id="node3" class="node">
<title>tehanGm</title>
<text text-anchor="start" x="123.5" y="-406.8" font-family="Times New Roman,serif" font-weight="bold" font-size="14.00">Germanic</text>
<text text-anchor="start" x="139" y="-392.8" font-family="Times New Roman,serif" font-size="14.00" fill="red">tehan</text>
</g>
<!-- dekmIE&#45;&gt;tehanGm -->
<g id="edge1" class="edge">
<title>dekmIE&#45;&gt;tehanGm</title>
<path fill="none" stroke="black" d="M251,-560C251,-560 197.62,-474.14 170.05,-429.82"/>
<polygon fill="black" stroke="black" points="173,-427.93 164.75,-421.29 167.06,-431.63 173,-427.93"/>
</g>
<!-- kontaIE -->
<g id="node5" class="node">
<title>kontaIE</title>
<text text-anchor="start" x="300" y="-478.3" font-family="Times New Roman,serif" font-size="14.00" fill="red">&#45;dkōm&#45;tā̆, &#45;kontā̆</text>
</g>
<!-- dekmIE&#45;&gt;kontaIE -->
<g id="edge3" class="edge">
<title>dekmIE&#45;&gt;kontaIE</title>
<path fill="none" stroke="black" d="M251,-560C251,-560 289.45,-529.16 317.68,-506.52"/>
<polygon fill="black" stroke="black" points="320.08,-509.08 325.69,-500.09 315.7,-503.62 320.08,-509.08"/>
</g>
<!-- teneOE -->
<g id="node4" class="node">
<title>teneOE</title>
<text text-anchor="start" x="117.5" y="-321.8" font-family="Times New Roman,serif" font-weight="bold" font-size="14.00">Old English</text>
<text text-anchor="start" x="106" y="-307.8" font-family="Times New Roman,serif" font-size="14.00" fill="red">&#45;tēne, &#45;tīne, &#45;tȳne</text>
</g>
<!-- tehanGm&#45;&gt;teneOE -->
<g id="edge2" class="edge">
<title>tehanGm&#45;&gt;teneOE</title>
<path fill="none" stroke="black" d="M145,-384C145,-384 147.77,-363.97 150.24,-346.15"/>
<polygon fill="black" stroke="black" points="153.73,-346.46 151.64,-336.08 146.8,-345.5 153.73,-346.46"/>
</g>
<!-- tjanON -->
<g id="node42" class="node">
<title>tjanON</title>
<text text-anchor="start" x="8" y="-327.8" font-family="Times New Roman,serif" font-weight="bold" font-size="14.00">Old Norse</text>
<text text-anchor="start" x="30" y="-313.8" font-family="Times New Roman,serif" font-size="14.00" fill="red">tjān</text>
<text text-anchor="start" x="33" y="-301.4" font-family="Times New Roman,serif" font-size="12.00">ten</text>
</g>
<!-- tehanGm&#45;&gt;tjanON -->
<g id="edge44" class="edge">
<title>tehanGm&#45;&gt;tjanON</title>
<path fill="none" stroke="black" d="M145,-384C145,-384 114.2,-364.93 85.96,-347.45"/>
<polygon fill="black" stroke="black" points="87.66,-344.39 77.31,-342.1 83.98,-350.34 87.66,-344.39"/>
</g>
<!-- eahtateneOE -->
<g id="node14" class="node">
<title>eahtateneOE</title>
<text text-anchor="start" x="153" y="-230.8" font-family="Times New Roman,serif" font-size="14.00" fill="red">eahtatēne</text>
<text text-anchor="start" x="160.5" y="-218.4" font-family="Times New Roman,serif" font-size="12.00">eighteen</text>
</g>
<!-- teneOE&#45;&gt;eahtateneOE -->
<g id="edge15" class="edge">
<title>teneOE&#45;&gt;eahtateneOE</title>
<path fill="none" stroke="black" d="M162.16,-299.7C168.65,-285.93 177.47,-267.21 182.67,-256.18"/>
<polygon fill="black" stroke="black" points="185.9,-257.54 187,-247 179.57,-254.55 185.9,-257.54"/>
</g>
<!-- gintaL -->
<g id="node6" class="node">
<title>gintaL</title>
<text text-anchor="start" x="445.5" y="-412.8" font-family="Times New Roman,serif" font-weight="bold" font-size="14.00">Latin</text>
<text text-anchor="start" x="446.5" y="-398.8" font-family="Times New Roman,serif" font-size="14.00" fill="red">&#45;gintā</text>
<text text-anchor="start" x="442" y="-386.4" font-family="Times New Roman,serif" font-size="12.00">ten times</text>
</g>
<!-- kontaIE&#45;&gt;gintaL -->
<g id="edge4" class="edge">
<title>kontaIE&#45;&gt;gintaL</title>
<path fill="none" stroke="black" d="M372.52,-463.91C387.96,-453.57 407.91,-440.22 425.06,-428.74"/>
<polygon fill="black" stroke="black" points="427.36,-431.4 433.73,-422.93 423.47,-425.59 427.36,-431.4"/>
</g>
<!-- octogintaL -->
<g id="node29" class="node">
<title>octogintaL</title>
<text text-anchor="start" x="442" y="-320.8" font-family="Times New Roman,serif" font-size="14.00" fill="red">octōgintā</text>
<text text-anchor="start" x="454.5" y="-308.4" font-family="Times New Roman,serif" font-size="12.00">eighty</text>
</g>
<!-- gintaL&#45;&gt;octogintaL -->
<g id="edge30" class="edge">
<title>gintaL&#45;&gt;octogintaL</title>
<path fill="none" stroke="black" d="M468.04,-378.9C470.9,-367.95 474.17,-355.45 476.39,-346.97"/>
<polygon fill="black" stroke="black" points="479.86,-347.56 479,-337 473.08,-345.79 479.86,-347.56"/>
</g>
<!-- eahtaOE -->
<g id="node8" class="node">
<title>eahtaOE</title>
<text text-anchor="start" x="334.5" y="-321.8" font-family="Times New Roman,serif" font-weight="bold" font-size="14.00">Old English</text>
<text text-anchor="start" x="356.5" y="-307.8" font-family="Times New Roman,serif" font-size="14.00" fill="red">eahta</text>
</g>
<!-- ahtoGm&#45;&gt;eahtaOE -->
<g id="edge6" class="edge">
<title>ahtoGm&#45;&gt;eahtaOE</title>
<path fill="none" stroke="black" d="M362,-384C362,-384 364.77,-363.97 367.24,-346.15"/>
<polygon fill="black" stroke="black" points="370.73,-346.46 368.64,-336.08 363.8,-345.5 370.73,-346.46"/>
</g>
<!-- attON -->
<g id="node41" class="node">
<title>attON</title>
<text text-anchor="start" x="236" y="-321.8" font-family="Times New Roman,serif" font-weight="bold" font-size="14.00">Old Norse</text>
<text text-anchor="start" x="248" y="-307.8" font-family="Times New Roman,serif" font-size="14.00" fill="red">āt? ātt?</text>
</g>
<!-- ahtoGm&#45;&gt;attON -->
<g id="edge43" class="edge">
<title>ahtoGm&#45;&gt;attON</title>
<path fill="none" stroke="black" d="M362,-384C362,-384 328.25,-360.66 301.19,-341.95"/>
<polygon fill="black" stroke="black" points="302.91,-338.89 292.7,-336.08 298.93,-344.64 302.91,-338.89"/>
</g>
<!-- eighteME -->
<g id="node9" class="node">
<title>eighteME</title>
<text text-anchor="start" x="349.5" y="-141.8" font-family="Times New Roman,serif" font-weight="bold" font-size="14.00">Middle</text>
<text text-anchor="start" x="348" y="-127.8" font-family="Times New Roman,serif" font-weight="bold" font-size="14.00">English</text>
<text text-anchor="start" x="354.5" y="-113.8" font-family="Times New Roman,serif" font-size="14.00" fill="red">eighte</text>
</g>
<!-- eahtaOE&#45;&gt;eighteME -->
<g id="edge7" class="edge">
<title>eahtaOE&#45;&gt;eighteME</title>
<path fill="none" stroke="black" d="M359,-299C359,-299 365.01,-215.33 368.53,-166.44"/>
<polygon fill="black" stroke="black" points="372.03,-166.51 369.26,-156.28 365.05,-166.01 372.03,-166.51"/>
</g>
<!-- eahtatigOE -->
<g id="node11" class="node">
<title>eahtatigOE</title>
<text text-anchor="start" x="280.5" y="-230.8" font-family="Times New Roman,serif" font-size="14.00" fill="red">eahtatig</text>
<text text-anchor="start" x="288.5" y="-218.4" font-family="Times New Roman,serif" font-size="12.00">eighty</text>
</g>
<!-- eahtaOE&#45;&gt;eahtatigOE -->
<g id="edge9" class="edge">
<title>eahtaOE&#45;&gt;eahtatigOE</title>
<path fill="none" stroke="black" d="M359,-299C359,-299 338.89,-274.31 322.56,-254.25"/>
<polygon fill="black" stroke="black" points="325.12,-251.85 316.09,-246.3 319.69,-256.27 325.12,-251.85"/>
</g>
<!-- eahtaOE&#45;&gt;eahtateneOE -->
<g id="edge12" class="edge">
<title>eahtaOE&#45;&gt;eahtateneOE</title>
<path fill="none" stroke="black" d="M359,-299C359,-299 233.13,-260.95 196.74,-249.94"/>
<polygon fill="black" stroke="black" points="197.59,-246.54 187,-247 195.56,-253.24 197.59,-246.54"/>
</g>
<!-- eight -->
<g id="node10" class="node">
<title>eight</title>
<text text-anchor="start" x="346.5" y="-42.8" font-family="Times New Roman,serif" font-weight="bold" font-size="14.00">Modern</text>
<text text-anchor="start" x="348" y="-28.8" font-family="Times New Roman,serif" font-weight="bold" font-size="14.00">English</text>
<text text-anchor="start" x="357.5" y="-14.8" font-family="Times New Roman,serif" font-size="14.00" fill="red">eight</text>
</g>
<!-- eighteME&#45;&gt;eight -->
<g id="edge8" class="edge">
<title>eighteME&#45;&gt;eight</title>
<path fill="none" stroke="black" d="M371,-105.52C371,-93.95 371,-79.93 371,-67.31"/>
<polygon fill="black" stroke="black" points="374.5,-67.13 371,-57.13 367.5,-67.13 374.5,-67.13"/>
</g>
<!-- eightiME -->
<g id="node12" class="node">
<title>eightiME</title>
<text text-anchor="start" x="268.5" y="-141.8" font-family="Times New Roman,serif" font-weight="bold" font-size="14.00">Middle</text>
<text text-anchor="start" x="267" y="-127.8" font-family="Times New Roman,serif" font-weight="bold" font-size="14.00">English</text>
<text text-anchor="start" x="275" y="-113.8" font-family="Times New Roman,serif" font-size="14.00" fill="red">eighti</text>
</g>
<!-- eahtatigOE&#45;&gt;eightiME -->
<g id="edge10" class="edge">
<title>eahtatigOE&#45;&gt;eightiME</title>
<path fill="none" stroke="black" d="M299.8,-209.58C298.27,-197.51 296.19,-181.04 294.34,-166.38"/>
<polygon fill="black" stroke="black" points="297.77,-165.59 293.05,-156.11 290.83,-166.47 297.77,-165.59"/>
</g>
<!-- eighty -->
<g id="node13" class="node">
<title>eighty</title>
<text text-anchor="start" x="263.5" y="-42.8" font-family="Times New Roman,serif" font-weight="bold" font-size="14.00">Modern</text>
<text text-anchor="start" x="265" y="-28.8" font-family="Times New Roman,serif" font-weight="bold" font-size="14.00">English</text>
<text text-anchor="start" x="271" y="-14.8" font-family="Times New Roman,serif" font-size="14.00" fill="red">eighty</text>
</g>
<!-- eightiME&#45;&gt;eighty -->
<g id="edge11" class="edge">
<title>eightiME&#45;&gt;eighty</title>
<path fill="none" stroke="black" d="M289.5,-105.52C289.26,-93.95 288.97,-79.93 288.71,-67.31"/>
<polygon fill="black" stroke="black" points="292.2,-67.06 288.5,-57.13 285.2,-67.2 292.2,-67.06"/>
</g>
<!-- eighteteneME -->
<g id="node15" class="node">
<title>eighteteneME</title>
<text text-anchor="start" x="157.5" y="-141.8" font-family="Times New Roman,serif" font-weight="bold" font-size="14.00">Middle</text>
<text text-anchor="start" x="156" y="-127.8" font-family="Times New Roman,serif" font-weight="bold" font-size="14.00">English</text>
<text text-anchor="start" x="151.5" y="-113.8" font-family="Times New Roman,serif" font-size="14.00" fill="red">eightetene</text>
</g>
<!-- eahtateneOE&#45;&gt;eighteteneME -->
<g id="edge13" class="edge">
<title>eahtateneOE&#45;&gt;eighteteneME</title>
<path fill="none" stroke="black" d="M179,-209.58C179,-197.51 179,-181.04 179,-166.38"/>
<polygon fill="black" stroke="black" points="182.5,-166.11 179,-156.11 175.5,-166.11 182.5,-166.11"/>
</g>
<!-- eighteen -->
<g id="node16" class="node">
<title>eighteen</title>
<text text-anchor="start" x="154.5" y="-42.8" font-family="Times New Roman,serif" font-weight="bold" font-size="14.00">Modern</text>
<text text-anchor="start" x="156" y="-28.8" font-family="Times New Roman,serif" font-weight="bold" font-size="14.00">English</text>
<text text-anchor="start" x="156" y="-14.8" font-family="Times New Roman,serif" font-size="14.00" fill="red">eighteen</text>
</g>
<!-- eighteteneME&#45;&gt;eighteen -->
<g id="edge14" class="edge">
<title>eighteteneME&#45;&gt;eighteen</title>
<path fill="none" stroke="black" d="M179,-105.52C179,-93.95 179,-79.93 179,-67.31"/>
<polygon fill="black" stroke="black" points="182.5,-67.13 179,-57.13 175.5,-67.13 182.5,-67.13"/>
</g>
<!-- octuplusL -->
<g id="node18" class="node">
<title>octuplusL</title>
<text text-anchor="start" x="639.5" y="-320.8" font-family="Times New Roman,serif" font-size="14.00" fill="red">octuplus</text>
<text text-anchor="start" x="644.5" y="-308.4" font-family="Times New Roman,serif" font-size="12.00">eightfold</text>
</g>
<!-- octoL&#45;&gt;octuplusL -->
<g id="edge17" class="edge">
<title>octoL&#45;&gt;octuplusL</title>
<path fill="none" stroke="black" d="M661,-377C661,-377 661.81,-361.29 662.59,-346.22"/>
<polygon fill="black" stroke="black" points="666.09,-346.26 663.12,-336.09 659.1,-345.89 666.09,-346.26"/>
</g>
<!-- octoberL -->
<g id="node20" class="node">
<title>octoberL</title>
<text text-anchor="start" x="728.5" y="-320.8" font-family="Times New Roman,serif" font-size="14.00" fill="red">Octōber</text>
<text text-anchor="start" x="723" y="-308.4" font-family="Times New Roman,serif" font-size="12.00">eighth month</text>
</g>
<!-- octoL&#45;&gt;octoberL -->
<g id="edge19" class="edge">
<title>octoL&#45;&gt;octoberL</title>
<path fill="none" stroke="black" d="M661,-377C661,-377 691.15,-357.79 716.74,-341.48"/>
<polygon fill="black" stroke="black" points="718.64,-344.41 725.19,-336.09 714.88,-338.51 718.64,-344.41"/>
</g>
<!-- octavaL -->
<g id="node25" class="node">
<title>octavaL</title>
<text text-anchor="start" x="532.5" y="-320.8" font-family="Times New Roman,serif" font-size="14.00" fill="red">octāva (diēs)</text>
<text text-anchor="start" x="542" y="-308.4" font-family="Times New Roman,serif" font-size="12.00">eighth (day)</text>
</g>
<!-- octoL&#45;&gt;octavaL -->
<g id="edge25" class="edge">
<title>octoL&#45;&gt;octavaL</title>
<path fill="none" stroke="black" d="M661,-377C661,-377 630.52,-357.79 604.65,-341.48"/>
<polygon fill="black" stroke="black" points="606.43,-338.46 596.11,-336.09 602.7,-344.38 606.43,-338.46"/>
</g>
<!-- octoL&#45;&gt;octogintaL -->
<g id="edge29" class="edge">
<title>octoL&#45;&gt;octogintaL</title>
<path fill="none" stroke="black" d="M661,-377C661,-377 526.59,-347.46 488.79,-339.15"/>
<polygon fill="black" stroke="black" points="489.52,-335.73 479,-337 488.02,-342.57 489.52,-335.73"/>
</g>
<!-- octoE -->
<g id="node39" class="node">
<title>octoE</title>
<text text-anchor="start" x="872.5" y="-42.8" font-family="Times New Roman,serif" font-weight="bold" font-size="14.00">Modern</text>
<text text-anchor="start" x="874" y="-28.8" font-family="Times New Roman,serif" font-weight="bold" font-size="14.00">English</text>
<text text-anchor="start" x="881.5" y="-14.8" font-family="Times New Roman,serif" font-size="14.00" fill="red">octo&#45;</text>
</g>
<!-- octoL&#45;&gt;octoE -->
<g id="edge40" class="edge">
<title>octoL&#45;&gt;octoE</title>
<path fill="none" stroke="black" stroke-dasharray="1,5" d="M661,-377C661,-377 743.78,-373.77 798,-342 842.48,-315.94 857.31,-305.22 878,-258 907.46,-190.75 897.19,-98.49 892.67,-68.13"/>
<polygon fill="black" stroke="black" points="896.08,-67.3 891,-58 889.17,-68.44 896.08,-67.3"/>
</g>
<!-- octuple -->
<g id="node19" class="node">
<title>octuple</title>
<text text-anchor="start" x="622.5" y="-49.8" font-family="Times New Roman,serif" font-weight="bold" font-size="14.00">Modern</text>
<text text-anchor="start" x="624" y="-35.8" font-family="Times New Roman,serif" font-weight="bold" font-size="14.00">English</text>
<text text-anchor="start" x="626" y="-21.8" font-family="Times New Roman,serif" font-size="14.00" fill="red">octuple</text>
<text text-anchor="start" x="624" y="-7.8" font-family="Times New Roman,serif" font-size="14.00" fill="red">octuplet</text>
</g>
<!-- octuplusL&#45;&gt;octuple -->
<g id="edge18" class="edge">
<title>octuplusL&#45;&gt;octuple</title>
<path fill="none" stroke="black" stroke-dasharray="1,5" d="M662.96,-299.66C660.31,-255.4 653.24,-137.27 649.46,-74.14"/>
<polygon fill="black" stroke="black" points="652.95,-73.9 648.86,-64.12 645.97,-74.32 652.95,-73.9"/>
</g>
<!-- octobreOF -->
<g id="node21" class="node">
<title>octobreOF</title>
<text text-anchor="start" x="791" y="-231.8" font-family="Times New Roman,serif" font-weight="bold" font-size="14.00">Old French</text>
<text text-anchor="start" x="802.5" y="-217.8" font-family="Times New Roman,serif" font-size="14.00" fill="red">Octobre</text>
</g>
<!-- octoberL&#45;&gt;octobreOF -->
<g id="edge20" class="edge">
<title>octoberL&#45;&gt;octobreOF</title>
<path fill="none" stroke="black" d="M755,-299C755,-299 780.72,-273.64 801.2,-253.45"/>
<polygon fill="black" stroke="black" points="803.79,-255.82 808.45,-246.3 798.87,-250.83 803.79,-255.82"/>
</g>
<!-- octoberOE -->
<g id="node22" class="node">
<title>octoberOE</title>
<text text-anchor="start" x="683.5" y="-231.8" font-family="Times New Roman,serif" font-weight="bold" font-size="14.00">Old English</text>
<text text-anchor="start" x="696.5" y="-217.8" font-family="Times New Roman,serif" font-size="14.00" fill="red">October</text>
</g>
<!-- octoberL&#45;&gt;octoberOE -->
<g id="edge21" class="edge">
<title>octoberL&#45;&gt;octoberOE</title>
<path fill="none" stroke="black" stroke-dasharray="1,5" d="M755,-299C755,-299 743.09,-275.18 733.16,-255.33"/>
<polygon fill="black" stroke="black" points="736.25,-253.68 728.65,-246.3 729.99,-256.81 736.25,-253.68"/>
</g>
<!-- octobreME -->
<g id="node23" class="node">
<title>octobreME</title>
<text text-anchor="start" x="750.5" y="-141.8" font-family="Times New Roman,serif" font-weight="bold" font-size="14.00">Middle</text>
<text text-anchor="start" x="749" y="-127.8" font-family="Times New Roman,serif" font-weight="bold" font-size="14.00">English</text>
<text text-anchor="start" x="748.5" y="-113.8" font-family="Times New Roman,serif" font-size="14.00" fill="red">Octobre</text>
</g>
<!-- octobreOF&#45;&gt;octobreME -->
<g id="edge22" class="edge">
<title>octobreOF&#45;&gt;octobreME</title>
<path fill="none" stroke="black" stroke-dasharray="1,5" d="M812.65,-209.7C801.66,-195.45 786.57,-175.88 778.21,-165.05"/>
<polygon fill="black" stroke="black" points="780.88,-162.78 772,-157 775.34,-167.06 780.88,-162.78"/>
</g>
<!-- octoberOE&#45;&gt;octobreME -->
<g id="edge23" class="edge">
<title>octoberOE&#45;&gt;octobreME</title>
<path fill="none" stroke="black" d="M732.85,-209.7C743.44,-195.45 757.97,-175.88 766.02,-165.05"/>
<polygon fill="black" stroke="black" points="768.85,-167.11 772,-157 763.23,-162.94 768.85,-167.11"/>
</g>
<!-- october -->
<g id="node24" class="node">
<title>october</title>
<text text-anchor="start" x="747.5" y="-42.8" font-family="Times New Roman,serif" font-weight="bold" font-size="14.00">Modern</text>
<text text-anchor="start" x="749" y="-28.8" font-family="Times New Roman,serif" font-weight="bold" font-size="14.00">English</text>
<text text-anchor="start" x="748.5" y="-14.8" font-family="Times New Roman,serif" font-size="14.00" fill="red">October</text>
</g>
<!-- octobreME&#45;&gt;october -->
<g id="edge24" class="edge">
<title>octobreME&#45;&gt;october</title>
<path fill="none" stroke="black" d="M772,-105.52C772,-93.95 772,-79.93 772,-67.31"/>
<polygon fill="black" stroke="black" points="775.5,-67.13 772,-57.13 768.5,-67.13 775.5,-67.13"/>
</g>
<!-- octaveOF -->
<g id="node26" class="node">
<title>octaveOF</title>
<text text-anchor="start" x="536" y="-231.8" font-family="Times New Roman,serif" font-weight="bold" font-size="14.00">Old French</text>
<text text-anchor="start" x="552.5" y="-217.8" font-family="Times New Roman,serif" font-size="14.00" fill="red">octave</text>
</g>
<!-- octavaL&#45;&gt;octaveOF -->
<g id="edge26" class="edge">
<title>octavaL&#45;&gt;octaveOF</title>
<path fill="none" stroke="black" d="M569.4,-299.61C569.68,-287.24 570.06,-270.37 570.38,-256.22"/>
<polygon fill="black" stroke="black" points="573.88,-256.13 570.61,-246.05 566.89,-255.97 573.88,-256.13"/>
</g>
<!-- octaveME -->
<g id="node27" class="node">
<title>octaveME</title>
<text text-anchor="start" x="548.5" y="-147.8" font-family="Times New Roman,serif" font-weight="bold" font-size="14.00">Middle</text>
<text text-anchor="start" x="547" y="-133.8" font-family="Times New Roman,serif" font-weight="bold" font-size="14.00">English</text>
<text text-anchor="start" x="551.5" y="-119.8" font-family="Times New Roman,serif" font-size="14.00" fill="red">octave</text>
<text text-anchor="start" x="560.5" y="-107.4" font-family="Times New Roman,serif" font-size="12.00">(??)</text>
</g>
<!-- octaveOF&#45;&gt;octaveME -->
<g id="edge27" class="edge">
<title>octaveOF&#45;&gt;octaveME</title>
<path fill="none" stroke="black" stroke-dasharray="1,5" d="M570.82,-209.58C570.71,-199.09 570.56,-185.29 570.42,-172.24"/>
<polygon fill="black" stroke="black" points="573.92,-171.97 570.32,-162.01 566.92,-172.05 573.92,-171.97"/>
</g>
<!-- octave -->
<g id="node28" class="node">
<title>octave</title>
<text text-anchor="start" x="539.5" y="-42.8" font-family="Times New Roman,serif" font-weight="bold" font-size="14.00">Modern</text>
<text text-anchor="start" x="541" y="-28.8" font-family="Times New Roman,serif" font-weight="bold" font-size="14.00">English</text>
<text text-anchor="start" x="545.5" y="-14.8" font-family="Times New Roman,serif" font-size="14.00" fill="red">octave</text>
</g>
<!-- octaveME&#45;&gt;octave -->
<g id="edge28" class="edge">
<title>octaveME&#45;&gt;octave</title>
<path fill="none" stroke="black" d="M568.13,-99.84C567.5,-89.58 566.79,-78.03 566.13,-67.46"/>
<polygon fill="black" stroke="black" points="569.61,-67.06 565.5,-57.3 562.63,-67.5 569.61,-67.06"/>
</g>
<!-- octogeniL -->
<g id="node30" class="node">
<title>octogeniL</title>
<text text-anchor="start" x="439" y="-243.8" font-family="Times New Roman,serif" font-size="14.00" fill="red">octōgēnī</text>
<text text-anchor="start" x="438.5" y="-231.4" font-family="Times New Roman,serif" font-size="12.00">eighty each</text>
<text text-anchor="start" x="428" y="-217.8" font-family="Times New Roman,serif" font-size="14.00" fill="red">octōgēnārius</text>
<text text-anchor="start" x="426.5" y="-205.4" font-family="Times New Roman,serif" font-size="12.00">containing eighty</text>
</g>
<!-- octogintaL&#45;&gt;octogeniL -->
<g id="edge31" class="edge">
<title>octogintaL&#45;&gt;octogeniL</title>
<path fill="none" stroke="black" d="M467.21,-299.61C466.8,-290.66 466.29,-279.34 465.79,-268.41"/>
<polygon fill="black" stroke="black" points="469.27,-267.96 465.32,-258.13 462.28,-268.28 469.27,-267.96"/>
</g>
<!-- octogenaireOF -->
<g id="node31" class="node">
<title>octogenaireOF</title>
<text text-anchor="start" x="430" y="-134.8" font-family="Times New Roman,serif" font-weight="bold" font-size="14.00">Old French</text>
<text text-anchor="start" x="432.5" y="-120.8" font-family="Times New Roman,serif" font-size="14.00" fill="red">octogénaire</text>
</g>
<!-- octogeniL&#45;&gt;octogenaireOF -->
<g id="edge32" class="edge">
<title>octogeniL&#45;&gt;octogenaireOF</title>
<path fill="none" stroke="black" d="M464.31,-197.98C464.43,-185.78 464.58,-171.66 464.71,-159.61"/>
<polygon fill="black" stroke="black" points="468.21,-159.29 464.82,-149.25 461.21,-159.21 468.21,-159.29"/>
</g>
<!-- octogenarian -->
<g id="node32" class="node">
<title>octogenarian</title>
<text text-anchor="start" x="441.5" y="-42.8" font-family="Times New Roman,serif" font-weight="bold" font-size="14.00">Modern</text>
<text text-anchor="start" x="443" y="-28.8" font-family="Times New Roman,serif" font-weight="bold" font-size="14.00">English</text>
<text text-anchor="start" x="430" y="-14.8" font-family="Times New Roman,serif" font-size="14.00" fill="red">octogenarian</text>
</g>
<!-- octogenaireOF&#45;&gt;octogenarian -->
<g id="edge33" class="edge">
<title>octogenaireOF&#45;&gt;octogenarian</title>
<path fill="none" stroke="black" stroke-dasharray="1,5" d="M465.18,-112.66C465.31,-100.08 465.49,-82.66 465.65,-67.32"/>
<polygon fill="black" stroke="black" points="469.15,-67.15 465.75,-57.11 462.15,-67.08 469.15,-67.15"/>
</g>
<!-- oktopousG -->
<g id="node34" class="node">
<title>oktopousG</title>
<text text-anchor="start" x="1014" y="-327.8" font-family="Times New Roman,serif" font-size="14.00" fill="red">oktōpous</text>
<text text-anchor="start" x="1013.5" y="-313.8" font-family="Times New Roman,serif" font-size="14.00" fill="red">oktōpoda</text>
<text text-anchor="start" x="1013.5" y="-301.4" font-family="Times New Roman,serif" font-size="12.00">eight&#45;footed</text>
</g>
<!-- oktoG&#45;&gt;oktopousG -->
<g id="edge35" class="edge">
<title>oktoG&#45;&gt;oktopousG</title>
<path fill="none" stroke="black" d="M946,-377C946,-377 997.68,-355.83 1019.48,-346.9"/>
<polygon fill="black" stroke="black" points="1021.07,-350.03 1029,-343 1018.42,-343.55 1021.07,-350.03"/>
</g>
<!-- oktoG&#45;&gt;octoE -->
<g id="edge41" class="edge">
<title>oktoG&#45;&gt;octoE</title>
<path fill="none" stroke="black" stroke-dasharray="1,5" d="M946,-377C946,-377 945.9,-219.08 911,-100 907.46,-87.91 900.81,-74.96 896.15,-66.68"/>
<polygon fill="black" stroke="black" points="899.11,-64.82 891,-58 893.09,-68.39 899.11,-64.82"/>
</g>
<!-- octopusL -->
<g id="node35" class="node">
<title>octopusL</title>
<text text-anchor="start" x="1027" y="-141.8" font-family="Times New Roman,serif" font-weight="bold" font-size="14.00">New Latin</text>
<text text-anchor="start" x="1034.5" y="-127.8" font-family="Times New Roman,serif" font-size="14.00" fill="red">Octōpūs</text>
<text text-anchor="start" x="1030" y="-113.8" font-family="Times New Roman,serif" font-size="14.00" fill="red">Oktōpoda</text>
</g>
<!-- oktopousG&#45;&gt;octopusL -->
<g id="edge36" class="edge">
<title>oktopousG&#45;&gt;octopusL</title>
<path fill="none" stroke="black" stroke-dasharray="1,5" d="M1043.24,-293.94C1046.36,-261.94 1052.01,-203.81 1055.63,-166.59"/>
<polygon fill="black" stroke="black" points="1059.16,-166.52 1056.64,-156.23 1052.19,-165.84 1059.16,-166.52"/>
</g>
<!-- octopus -->
<g id="node36" class="node">
<title>octopus</title>
<text text-anchor="start" x="1038.5" y="-49.8" font-family="Times New Roman,serif" font-weight="bold" font-size="14.00">Modern</text>
<text text-anchor="start" x="1040" y="-35.8" font-family="Times New Roman,serif" font-weight="bold" font-size="14.00">English</text>
<text text-anchor="start" x="1040" y="-21.8" font-family="Times New Roman,serif" font-size="14.00" fill="red">octopus</text>
<text text-anchor="start" x="1038.5" y="-7.8" font-family="Times New Roman,serif" font-size="14.00" fill="red">octopod</text>
</g>
<!-- octopusL&#45;&gt;octopus -->
<g id="edge37" class="edge">
<title>octopusL&#45;&gt;octopus</title>
<path fill="none" stroke="black" stroke-dasharray="1,5" d="M1060.01,-105.52C1060.4,-96 1060.86,-84.81 1061.3,-74.12"/>
<polygon fill="black" stroke="black" points="1064.8,-74.23 1061.72,-64.09 1057.81,-73.94 1064.8,-74.23"/>
</g>
<!-- pedIE -->
<g id="node37" class="node">
<title>pedIE</title>
<g id="a_node37"><a xlink:href="ped-foot3.svg" xlink:title="&lt;b&gt;Indo&#45;&lt;br/&gt;European&lt;/b&gt;&lt;br/&gt;&lt;font color=&quot;red&quot;&gt;ped&#45;, pod&#45;&lt;/font&gt;&lt;br/&gt;&lt;font point&#45;size=&quot;12&quot;&gt;foot&lt;/font&gt;">
<path fill="none" stroke="black" stroke-dasharray="5,2" d="M1067.5,-623C1067.5,-623 1014.5,-623 1014.5,-623 1008.5,-623 1002.5,-617 1002.5,-611 1002.5,-611 1002.5,-573 1002.5,-573 1002.5,-567 1008.5,-561 1014.5,-561 1014.5,-561 1067.5,-561 1067.5,-561 1073.5,-561 1079.5,-567 1079.5,-573 1079.5,-573 1079.5,-611 1079.5,-611 1079.5,-617 1073.5,-623 1067.5,-623"/>
<text text-anchor="start" x="1024.5" y="-608.8" font-family="Times New Roman,serif" font-weight="bold" font-size="14.00">Indo&#45;</text>
<text text-anchor="start" x="1010.5" y="-594.8" font-family="Times New Roman,serif" font-weight="bold" font-size="14.00">European</text>
<text text-anchor="start" x="1010.5" y="-580.8" font-family="Times New Roman,serif" font-size="14.00" fill="red">ped&#45;, pod&#45;</text>
<text text-anchor="start" x="1031.5" y="-568.4" font-family="Times New Roman,serif" font-size="12.00">foot</text>
</a>
</g>
</g>
<!-- pousG -->
<g id="node38" class="node">
<title>pousG</title>
<text text-anchor="start" x="1021" y="-412.8" font-family="Times New Roman,serif" font-weight="bold" font-size="14.00">Greek</text>
<text text-anchor="start" x="1009.5" y="-398.8" font-family="Times New Roman,serif" font-size="14.00" fill="red">pous, pod&#45;</text>
<text text-anchor="start" x="1031.5" y="-386.4" font-family="Times New Roman,serif" font-size="12.00">foot</text>
</g>
<!-- pedIE&#45;&gt;pousG -->
<g id="edge38" class="edge">
<title>pedIE&#45;&gt;pousG</title>
<path fill="none" stroke="black" d="M1041,-560.96C1041,-527.18 1041,-472.48 1041,-437.39"/>
<polygon fill="black" stroke="black" points="1044.5,-437.18 1041,-427.18 1037.5,-437.18 1044.5,-437.18"/>
</g>
<!-- pousG&#45;&gt;oktopousG -->
<g id="edge39" class="edge">
<title>pousG&#45;&gt;oktopousG</title>
<path fill="none" stroke="black" d="M1036.26,-378.68C1034.45,-369.79 1032.48,-360.12 1031.05,-353.09"/>
<polygon fill="black" stroke="black" points="1034.42,-352.1 1029,-343 1027.56,-353.5 1034.42,-352.1"/>
</g>
<!-- yotE -->
<g id="node40" class="node">
<title>yotE</title>
<text text-anchor="start" x="955.5" y="-49.8" font-family="Times New Roman,serif" font-weight="bold" font-size="14.00">Modern</text>
<text text-anchor="start" x="957" y="-35.8" font-family="Times New Roman,serif" font-weight="bold" font-size="14.00">English</text>
<text text-anchor="start" x="963.5" y="-21.8" font-family="Times New Roman,serif" font-size="14.00" fill="red">yotta&#45;</text>
<text text-anchor="start" x="961.5" y="-7.8" font-family="Times New Roman,serif" font-size="14.00" fill="red">yocto&#45;</text>
</g>
<!-- octoE&#45;&gt;yotE -->
<g id="edge42" class="edge">
<title>octoE&#45;&gt;yotE</title>
<path fill="none" stroke="black" d="M929.75,-32C932.23,-32 934.72,-32 937.2,-32"/>
<polygon fill="black" stroke="black" points="937.41,-35.5 947.41,-32 937.41,-28.5 937.41,-35.5"/>
</g>
<!-- attjanON -->
<g id="node43" class="node">
<title>attjanON</title>
<text text-anchor="start" x="59" y="-230.8" font-family="Times New Roman,serif" font-size="14.00" fill="red">āttjān</text>
<text text-anchor="start" x="55.5" y="-218.4" font-family="Times New Roman,serif" font-size="12.00">eighteen</text>
</g>
<!-- attON&#45;&gt;attjanON -->
<g id="edge45" class="edge">
<title>attON&#45;&gt;attjanON</title>
<path fill="none" stroke="black" d="M232.88,-299.95C228.24,-297.86 223.53,-295.83 219,-294 171.82,-274.96 113.66,-256.85 90.84,-249.94"/>
<polygon fill="black" stroke="black" points="91.58,-246.51 81,-247 89.58,-253.22 91.58,-246.51"/>
</g>
<!-- tjanON&#45;&gt;attjanON -->
<g id="edge46" class="edge">
<title>tjanON&#45;&gt;attjanON</title>
<path fill="none" stroke="black" d="M53.65,-293.69C61.29,-280.65 70.37,-265.15 75.9,-255.7"/>
<polygon fill="black" stroke="black" points="78.97,-257.4 81,-247 72.93,-253.86 78.97,-257.4"/>
</g>
<!-- atto -->
<g id="node44" class="node">
<title>atto</title>
<text text-anchor="start" x="50.5" y="-141.8" font-family="Times New Roman,serif" font-weight="bold" font-size="14.00">Danish,</text>
<text text-anchor="start" x="40" y="-127.8" font-family="Times New Roman,serif" font-weight="bold" font-size="14.00">Norwegian</text>
<text text-anchor="start" x="60.5" y="-113.8" font-family="Times New Roman,serif" font-size="14.00" fill="red">atten</text>
</g>
<!-- attjanON&#45;&gt;atto -->
<g id="edge47" class="edge">
<title>attjanON&#45;&gt;atto</title>
<path fill="none" stroke="black" d="M74,-209.58C74,-197.51 74,-181.04 74,-166.38"/>
<polygon fill="black" stroke="black" points="77.5,-166.11 74,-156.11 70.5,-166.11 77.5,-166.11"/>
</g>
<!-- attoE -->
<g id="node45" class="node">
<title>attoE</title>
<text text-anchor="start" x="49.5" y="-42.8" font-family="Times New Roman,serif" font-weight="bold" font-size="14.00">Modern</text>
<text text-anchor="start" x="51" y="-28.8" font-family="Times New Roman,serif" font-weight="bold" font-size="14.00">English</text>
<text text-anchor="start" x="61" y="-14.8" font-family="Times New Roman,serif" font-size="14.00" fill="red">atto&#45;</text>
</g>
<!-- atto&#45;&gt;attoE -->
<g id="edge48" class="edge">
<title>atto&#45;&gt;attoE</title>
<path fill="none" stroke="black" stroke-dasharray="1,5" d="M74,-105.52C74,-93.95 74,-79.93 74,-67.31"/>
<polygon fill="black" stroke="black" points="77.5,-67.13 74,-57.13 70.5,-67.13 77.5,-67.13"/>
</g>
</g>
</svg>
