<?xml version="1.0" encoding="UTF-8" standalone="no"?>
<!DOCTYPE svg PUBLIC "-//W3C//DTD SVG 1.1//EN"
 "http://www.w3.org/Graphics/SVG/1.1/DTD/svg11.dtd">
<!-- Generated by graphviz version 2.49.0 (20210828.1703)
 -->
<!-- Pages: 1 -->
<svg width="1175pt" height="668pt"
 viewBox="0.00 0.00 1174.50 668.00" xmlns="http://www.w3.org/2000/svg" xmlns:xlink="http://www.w3.org/1999/xlink">
<g id="graph0" class="graph" transform="scale(1 1) rotate(0) translate(4 664)">
<polygon fill="white" stroke="transparent" points="-4,4 -4,-664 1170.5,-664 1170.5,4 -4,4"/>
<!-- okto -->
<g id="node1" class="node">
<title>okto</title>
<g id="a_node1"><a xlink:title="Indo&#45;European &quot;oktō(u)&quot; eight">
<polygon fill="none" stroke="black" points="761,-656 565,-656 565,-552 761,-552 761,-656"/>
<polygon fill="none" stroke="black" points="765,-660 561,-660 561,-548 765,-548 765,-660"/>
<text text-anchor="start" x="592" y="-610.8" font-family="Times New Roman,serif" font-size="24.00">Indo&#45;European</text>
<text text-anchor="start" x="592.5" y="-583.6" font-family="Times New Roman,serif" font-size="18.00" fill="red">*oktō, *oktōu</text>
<text text-anchor="start" x="702.5" y="-584.2" font-family="Times New Roman,serif" font-size="16.00">eight</text>
</a>
</g>
</g>
<!-- ahtoGm -->
<g id="node7" class="node">
<title>ahtoGm</title>
<text text-anchor="start" x="340.5" y="-418.8" font-family="Times New Roman,serif" font-weight="bold" font-size="14.00">Germanic</text>
<text text-anchor="start" x="355.5" y="-404.8" font-family="Times New Roman,serif" font-size="14.00" fill="red">*ahtō</text>
</g>
<!-- okto&#45;&gt;ahtoGm -->
<g id="edge5" class="edge">
<title>okto&#45;&gt;ahtoGm</title>
<path fill="none" stroke="black" d="M633,-547C633,-547 554.76,-507.36 492,-476 466.38,-463.2 437.65,-448.95 414.62,-437.55"/>
<polygon fill="black" stroke="black" points="415.97,-434.31 405.45,-433.01 412.86,-440.58 415.97,-434.31"/>
</g>
<!-- octoL -->
<g id="node17" class="node">
<title>octoL</title>
<text text-anchor="start" x="646.5" y="-425.8" font-family="Times New Roman,serif" font-weight="bold" font-size="14.00">Latin</text>
<text text-anchor="start" x="650" y="-411.8" font-family="Times New Roman,serif" font-size="14.00" fill="red">octō</text>
<text text-anchor="start" x="647.5" y="-397.8" font-family="Times New Roman,serif" font-size="14.00" fill="red">octō&#45;</text>
</g>
<!-- okto&#45;&gt;octoL -->
<g id="edge16" class="edge">
<title>okto&#45;&gt;octoL</title>
<path fill="none" stroke="black" d="M633,-547C633,-547 646.35,-488.73 655.23,-449.91"/>
<polygon fill="black" stroke="black" points="658.68,-450.56 657.5,-440.03 651.85,-448.99 658.68,-450.56"/>
</g>
<!-- oktoG -->
<g id="node33" class="node">
<title>oktoG</title>
<text text-anchor="start" x="916" y="-425.8" font-family="Times New Roman,serif" font-weight="bold" font-size="14.00">Greek</text>
<text text-anchor="start" x="923" y="-411.8" font-family="Times New Roman,serif" font-size="14.00" fill="red">oktō</text>
<text text-anchor="start" x="902.5" y="-397.8" font-family="Times New Roman,serif" font-size="14.00" fill="red">okta&#45;, oktō&#45;</text>
</g>
<!-- okto&#45;&gt;oktoG -->
<g id="edge34" class="edge">
<title>okto&#45;&gt;oktoG</title>
<path fill="none" stroke="black" d="M743.43,-547.91C792.08,-514.58 852.23,-473.38 892.23,-445.98"/>
<polygon fill="black" stroke="black" points="894.42,-448.72 900.69,-440.18 890.47,-442.95 894.42,-448.72"/>
</g>
<!-- dekmIE -->
<g id="node2" class="node">
<title>dekmIE</title>
<g id="a_node2"><a xlink:href="dekm-ten0.svg" xlink:title="&lt;b&gt;Indo&#45;&lt;br/&gt;European&lt;/b&gt;&lt;br/&gt;&lt;font color=&quot;red&quot;&gt;*dekm̥&lt;/font&gt;&lt;br/&gt;&lt;font point&#45;size=&quot;12&quot;&gt;ten&lt;/font&gt;">
<path fill="none" stroke="black" stroke-dasharray="5,2" d="M406.5,-635C406.5,-635 353.5,-635 353.5,-635 347.5,-635 341.5,-629 341.5,-623 341.5,-623 341.5,-585 341.5,-585 341.5,-579 347.5,-573 353.5,-573 353.5,-573 406.5,-573 406.5,-573 412.5,-573 418.5,-579 418.5,-585 418.5,-585 418.5,-623 418.5,-623 418.5,-629 412.5,-635 406.5,-635"/>
<text text-anchor="start" x="363.5" y="-620.8" font-family="Times New Roman,serif" font-weight="bold" font-size="14.00">Indo&#45;</text>
<text text-anchor="start" x="349.5" y="-606.8" font-family="Times New Roman,serif" font-weight="bold" font-size="14.00">European</text>
<text text-anchor="start" x="361" y="-592.8" font-family="Times New Roman,serif" font-size="14.00" fill="red">*dekm̥</text>
<text text-anchor="start" x="373" y="-580.4" font-family="Times New Roman,serif" font-size="12.00">ten</text>
</a>
</g>
</g>
<!-- tehunGm -->
<g id="node3" class="node">
<title>tehunGm</title>
<text text-anchor="start" x="123.5" y="-418.8" font-family="Times New Roman,serif" font-weight="bold" font-size="14.00">Germanic</text>
<text text-anchor="start" x="135.5" y="-404.8" font-family="Times New Roman,serif" font-size="14.00" fill="red">*tehun</text>
</g>
<!-- dekmIE&#45;&gt;tehunGm -->
<g id="edge1" class="edge">
<title>dekmIE&#45;&gt;tehunGm</title>
<path fill="none" stroke="black" d="M372,-572C372,-572 247.47,-482.89 186.65,-439.37"/>
<polygon fill="black" stroke="black" points="188.33,-436.26 178.16,-433.29 184.26,-441.96 188.33,-436.26"/>
</g>
<!-- kontaIE -->
<g id="node5" class="node">
<title>kontaIE</title>
<text text-anchor="start" x="367" y="-490.3" font-family="Times New Roman,serif" font-size="14.00" fill="red">*&#45;dkōm&#45;tā̆, *&#45;kontā̆</text>
</g>
<!-- dekmIE&#45;&gt;kontaIE -->
<g id="edge3" class="edge">
<title>dekmIE&#45;&gt;kontaIE</title>
<path fill="none" stroke="black" d="M372,-572C372,-572 390.46,-542.99 404.72,-520.58"/>
<polygon fill="black" stroke="black" points="407.71,-522.4 410.13,-512.09 401.8,-518.65 407.71,-522.4"/>
</g>
<!-- teneOE -->
<g id="node4" class="node">
<title>teneOE</title>
<text text-anchor="start" x="117.5" y="-333.8" font-family="Times New Roman,serif" font-weight="bold" font-size="14.00">Old English</text>
<text text-anchor="start" x="106" y="-319.8" font-family="Times New Roman,serif" font-size="14.00" fill="red">&#45;tēne, &#45;tīne, &#45;tȳne</text>
</g>
<!-- tehunGm&#45;&gt;teneOE -->
<g id="edge2" class="edge">
<title>tehunGm&#45;&gt;teneOE</title>
<path fill="none" stroke="black" d="M145,-396C145,-396 147.77,-375.97 150.24,-358.15"/>
<polygon fill="black" stroke="black" points="153.73,-358.46 151.64,-348.08 146.8,-357.5 153.73,-358.46"/>
</g>
<!-- tjanON -->
<g id="node42" class="node">
<title>tjanON</title>
<text text-anchor="start" x="8" y="-339.8" font-family="Times New Roman,serif" font-weight="bold" font-size="14.00">Old Norse</text>
<text text-anchor="start" x="30" y="-325.8" font-family="Times New Roman,serif" font-size="14.00" fill="red">tjān</text>
<text text-anchor="start" x="33" y="-313.4" font-family="Times New Roman,serif" font-size="12.00">ten</text>
</g>
<!-- tehunGm&#45;&gt;tjanON -->
<g id="edge44" class="edge">
<title>tehunGm&#45;&gt;tjanON</title>
<path fill="none" stroke="black" d="M145,-396C145,-396 114.2,-376.93 85.96,-359.45"/>
<polygon fill="black" stroke="black" points="87.66,-356.39 77.31,-354.1 83.98,-362.34 87.66,-356.39"/>
</g>
<!-- eahtateneOE -->
<g id="node14" class="node">
<title>eahtateneOE</title>
<text text-anchor="start" x="154" y="-242.8" font-family="Times New Roman,serif" font-size="14.00" fill="red">eahtatēne</text>
<text text-anchor="start" x="161.5" y="-230.4" font-family="Times New Roman,serif" font-size="12.00">eighteen</text>
</g>
<!-- teneOE&#45;&gt;eahtateneOE -->
<g id="edge15" class="edge">
<title>teneOE&#45;&gt;eahtateneOE</title>
<path fill="none" stroke="black" d="M162.4,-311.7C169.09,-297.93 178.18,-279.21 183.54,-268.18"/>
<polygon fill="black" stroke="black" points="186.78,-269.52 188,-259 180.48,-266.47 186.78,-269.52"/>
</g>
<!-- gintaL -->
<g id="node6" class="node">
<title>gintaL</title>
<text text-anchor="start" x="445.5" y="-424.8" font-family="Times New Roman,serif" font-weight="bold" font-size="14.00">Latin</text>
<text text-anchor="start" x="446.5" y="-410.8" font-family="Times New Roman,serif" font-size="14.00" fill="red">&#45;gintā</text>
<text text-anchor="start" x="442" y="-398.4" font-family="Times New Roman,serif" font-size="12.00">ten times</text>
</g>
<!-- kontaIE&#45;&gt;gintaL -->
<g id="edge4" class="edge">
<title>kontaIE&#45;&gt;gintaL</title>
<path fill="none" stroke="black" d="M430.1,-475.91C434.46,-467.72 439.83,-457.63 444.92,-448.08"/>
<polygon fill="black" stroke="black" points="448.05,-449.65 449.66,-439.17 441.87,-446.36 448.05,-449.65"/>
</g>
<!-- octogintaL -->
<g id="node29" class="node">
<title>octogintaL</title>
<text text-anchor="start" x="442" y="-332.8" font-family="Times New Roman,serif" font-size="14.00" fill="red">octōgintā</text>
<text text-anchor="start" x="454.5" y="-320.4" font-family="Times New Roman,serif" font-size="12.00">eighty</text>
</g>
<!-- gintaL&#45;&gt;octogintaL -->
<g id="edge30" class="edge">
<title>gintaL&#45;&gt;octogintaL</title>
<path fill="none" stroke="black" d="M468.04,-390.9C470.9,-379.95 474.17,-367.45 476.39,-358.97"/>
<polygon fill="black" stroke="black" points="479.86,-359.56 479,-349 473.08,-357.79 479.86,-359.56"/>
</g>
<!-- eahtaOE -->
<g id="node8" class="node">
<title>eahtaOE</title>
<text text-anchor="start" x="334.5" y="-333.8" font-family="Times New Roman,serif" font-weight="bold" font-size="14.00">Old English</text>
<text text-anchor="start" x="356.5" y="-319.8" font-family="Times New Roman,serif" font-size="14.00" fill="red">eahta</text>
</g>
<!-- ahtoGm&#45;&gt;eahtaOE -->
<g id="edge6" class="edge">
<title>ahtoGm&#45;&gt;eahtaOE</title>
<path fill="none" stroke="black" d="M362,-396C362,-396 364.77,-375.97 367.24,-358.15"/>
<polygon fill="black" stroke="black" points="370.73,-358.46 368.64,-348.08 363.8,-357.5 370.73,-358.46"/>
</g>
<!-- attON -->
<g id="node41" class="node">
<title>attON</title>
<text text-anchor="start" x="236" y="-333.8" font-family="Times New Roman,serif" font-weight="bold" font-size="14.00">Old Norse</text>
<text text-anchor="start" x="263" y="-319.8" font-family="Times New Roman,serif" font-size="14.00" fill="red">āt</text>
</g>
<!-- ahtoGm&#45;&gt;attON -->
<g id="edge43" class="edge">
<title>ahtoGm&#45;&gt;attON</title>
<path fill="none" stroke="black" d="M362,-396C362,-396 328.25,-372.66 301.19,-353.95"/>
<polygon fill="black" stroke="black" points="302.91,-350.89 292.7,-348.08 298.93,-356.64 302.91,-350.89"/>
</g>
<!-- eighteME -->
<g id="node9" class="node">
<title>eighteME</title>
<text text-anchor="start" x="349.5" y="-147.8" font-family="Times New Roman,serif" font-weight="bold" font-size="14.00">Middle</text>
<text text-anchor="start" x="348" y="-133.8" font-family="Times New Roman,serif" font-weight="bold" font-size="14.00">English</text>
<text text-anchor="start" x="354.5" y="-119.8" font-family="Times New Roman,serif" font-size="14.00" fill="red">eighte</text>
</g>
<!-- eahtaOE&#45;&gt;eighteME -->
<g id="edge7" class="edge">
<title>eahtaOE&#45;&gt;eighteME</title>
<path fill="none" stroke="black" d="M359,-311C359,-311 365.13,-222.61 368.63,-172.19"/>
<polygon fill="black" stroke="black" points="372.13,-172.27 369.33,-162.05 365.15,-171.79 372.13,-172.27"/>
</g>
<!-- eahtatigOE -->
<g id="node11" class="node">
<title>eahtatigOE</title>
<text text-anchor="start" x="280.5" y="-242.8" font-family="Times New Roman,serif" font-size="14.00" fill="red">eahtatig</text>
<text text-anchor="start" x="288.5" y="-230.4" font-family="Times New Roman,serif" font-size="12.00">eighty</text>
</g>
<!-- eahtaOE&#45;&gt;eahtatigOE -->
<g id="edge9" class="edge">
<title>eahtaOE&#45;&gt;eahtatigOE</title>
<path fill="none" stroke="black" d="M359,-311C359,-311 338.89,-286.31 322.56,-266.25"/>
<polygon fill="black" stroke="black" points="325.12,-263.85 316.09,-258.3 319.69,-268.27 325.12,-263.85"/>
</g>
<!-- eahtaOE&#45;&gt;eahtateneOE -->
<g id="edge12" class="edge">
<title>eahtaOE&#45;&gt;eahtateneOE</title>
<path fill="none" stroke="black" d="M359,-311C359,-311 233.86,-272.95 197.68,-261.94"/>
<polygon fill="black" stroke="black" points="198.59,-258.56 188,-259 196.55,-265.26 198.59,-258.56"/>
</g>
<!-- eight -->
<g id="node10" class="node">
<title>eight</title>
<text text-anchor="start" x="346.5" y="-42.8" font-family="Times New Roman,serif" font-weight="bold" font-size="14.00">Modern</text>
<text text-anchor="start" x="348" y="-28.8" font-family="Times New Roman,serif" font-weight="bold" font-size="14.00">English</text>
<text text-anchor="start" x="357.5" y="-14.8" font-family="Times New Roman,serif" font-size="14.00" fill="red">eight</text>
</g>
<!-- eighteME&#45;&gt;eight -->
<g id="edge8" class="edge">
<title>eighteME&#45;&gt;eight</title>
<path fill="none" stroke="black" d="M371,-111.85C371,-98.65 371,-82.06 371,-67.51"/>
<polygon fill="black" stroke="black" points="374.5,-67.35 371,-57.35 367.5,-67.35 374.5,-67.35"/>
</g>
<!-- eightiME -->
<g id="node12" class="node">
<title>eightiME</title>
<text text-anchor="start" x="268.5" y="-147.8" font-family="Times New Roman,serif" font-weight="bold" font-size="14.00">Middle</text>
<text text-anchor="start" x="267" y="-133.8" font-family="Times New Roman,serif" font-weight="bold" font-size="14.00">English</text>
<text text-anchor="start" x="275" y="-119.8" font-family="Times New Roman,serif" font-size="14.00" fill="red">eighti</text>
</g>
<!-- eahtatigOE&#45;&gt;eightiME -->
<g id="edge10" class="edge">
<title>eahtatigOE&#45;&gt;eightiME</title>
<path fill="none" stroke="black" d="M299.96,-221.87C298.35,-208.26 296.04,-188.8 294.05,-172.05"/>
<polygon fill="black" stroke="black" points="297.51,-171.56 292.86,-162.04 290.56,-172.39 297.51,-171.56"/>
</g>
<!-- eighty -->
<g id="node13" class="node">
<title>eighty</title>
<text text-anchor="start" x="263.5" y="-42.8" font-family="Times New Roman,serif" font-weight="bold" font-size="14.00">Modern</text>
<text text-anchor="start" x="265" y="-28.8" font-family="Times New Roman,serif" font-weight="bold" font-size="14.00">English</text>
<text text-anchor="start" x="271" y="-14.8" font-family="Times New Roman,serif" font-size="14.00" fill="red">eighty</text>
</g>
<!-- eightiME&#45;&gt;eighty -->
<g id="edge11" class="edge">
<title>eightiME&#45;&gt;eighty</title>
<path fill="none" stroke="black" d="M289.53,-111.85C289.27,-98.65 288.95,-82.06 288.67,-67.51"/>
<polygon fill="black" stroke="black" points="292.17,-67.28 288.47,-57.35 285.17,-67.42 292.17,-67.28"/>
</g>
<!-- eighteteneME -->
<g id="node15" class="node">
<title>eighteteneME</title>
<text text-anchor="start" x="158.5" y="-147.8" font-family="Times New Roman,serif" font-weight="bold" font-size="14.00">Middle</text>
<text text-anchor="start" x="157" y="-133.8" font-family="Times New Roman,serif" font-weight="bold" font-size="14.00">English</text>
<text text-anchor="start" x="152.5" y="-119.8" font-family="Times New Roman,serif" font-size="14.00" fill="red">eightetene</text>
</g>
<!-- eahtateneOE&#45;&gt;eighteteneME -->
<g id="edge13" class="edge">
<title>eahtateneOE&#45;&gt;eighteteneME</title>
<path fill="none" stroke="black" d="M180,-221.87C180,-208.26 180,-188.8 180,-172.05"/>
<polygon fill="black" stroke="black" points="183.5,-172.04 180,-162.04 176.5,-172.04 183.5,-172.04"/>
</g>
<!-- eighteen -->
<g id="node16" class="node">
<title>eighteen</title>
<text text-anchor="start" x="155.5" y="-42.8" font-family="Times New Roman,serif" font-weight="bold" font-size="14.00">Modern</text>
<text text-anchor="start" x="157" y="-28.8" font-family="Times New Roman,serif" font-weight="bold" font-size="14.00">English</text>
<text text-anchor="start" x="157" y="-14.8" font-family="Times New Roman,serif" font-size="14.00" fill="red">eighteen</text>
</g>
<!-- eighteteneME&#45;&gt;eighteen -->
<g id="edge14" class="edge">
<title>eighteteneME&#45;&gt;eighteen</title>
<path fill="none" stroke="black" d="M180,-111.85C180,-98.65 180,-82.06 180,-67.51"/>
<polygon fill="black" stroke="black" points="183.5,-67.35 180,-57.35 176.5,-67.35 183.5,-67.35"/>
</g>
<!-- octuplusL -->
<g id="node18" class="node">
<title>octuplusL</title>
<text text-anchor="start" x="638.5" y="-332.8" font-family="Times New Roman,serif" font-size="14.00" fill="red">octuplus</text>
<text text-anchor="start" x="643.5" y="-320.4" font-family="Times New Roman,serif" font-size="12.00">eightfold</text>
</g>
<!-- octoL&#45;&gt;octuplusL -->
<g id="edge17" class="edge">
<title>octoL&#45;&gt;octuplusL</title>
<path fill="none" stroke="black" d="M660,-389C660,-389 660.81,-373.29 661.59,-358.22"/>
<polygon fill="black" stroke="black" points="665.09,-358.26 662.12,-348.09 658.1,-357.89 665.09,-358.26"/>
</g>
<!-- octoberL -->
<g id="node20" class="node">
<title>octoberL</title>
<text text-anchor="start" x="727.5" y="-332.8" font-family="Times New Roman,serif" font-size="14.00" fill="red">Octōber</text>
<text text-anchor="start" x="722" y="-320.4" font-family="Times New Roman,serif" font-size="12.00">eighth month</text>
</g>
<!-- octoL&#45;&gt;octoberL -->
<g id="edge19" class="edge">
<title>octoL&#45;&gt;octoberL</title>
<path fill="none" stroke="black" d="M660,-389C660,-389 690.15,-369.79 715.74,-353.48"/>
<polygon fill="black" stroke="black" points="717.64,-356.41 724.19,-348.09 713.88,-350.51 717.64,-356.41"/>
</g>
<!-- octavaL -->
<g id="node25" class="node">
<title>octavaL</title>
<text text-anchor="start" x="531.5" y="-332.8" font-family="Times New Roman,serif" font-size="14.00" fill="red">octāva (diēs)</text>
<text text-anchor="start" x="541" y="-320.4" font-family="Times New Roman,serif" font-size="12.00">eighth (day)</text>
</g>
<!-- octoL&#45;&gt;octavaL -->
<g id="edge25" class="edge">
<title>octoL&#45;&gt;octavaL</title>
<path fill="none" stroke="black" d="M660,-389C660,-389 629.52,-369.79 603.65,-353.48"/>
<polygon fill="black" stroke="black" points="605.43,-350.46 595.11,-348.09 601.7,-356.38 605.43,-350.46"/>
</g>
<!-- octoL&#45;&gt;octogintaL -->
<g id="edge29" class="edge">
<title>octoL&#45;&gt;octogintaL</title>
<path fill="none" stroke="black" d="M660,-389C660,-389 526.93,-359.59 488.99,-351.21"/>
<polygon fill="black" stroke="black" points="489.52,-347.74 479,-349 488.01,-354.58 489.52,-347.74"/>
</g>
<!-- octoE -->
<g id="node39" class="node">
<title>octoE</title>
<text text-anchor="start" x="873.5" y="-42.8" font-family="Times New Roman,serif" font-weight="bold" font-size="14.00">Modern</text>
<text text-anchor="start" x="875" y="-28.8" font-family="Times New Roman,serif" font-weight="bold" font-size="14.00">English</text>
<text text-anchor="start" x="882.5" y="-14.8" font-family="Times New Roman,serif" font-size="14.00" fill="red">octo&#45;</text>
</g>
<!-- octoL&#45;&gt;octoE -->
<g id="edge40" class="edge">
<title>octoL&#45;&gt;octoE</title>
<path fill="none" stroke="black" stroke-dasharray="5,2" d="M660,-389C660,-389 742.58,-385.43 797,-354 842.18,-327.91 857.85,-317.7 879,-270 910.83,-198.2 898.69,-99.12 893.72,-67.86"/>
<polygon fill="black" stroke="black" points="897.16,-67.25 892,-58 890.27,-68.45 897.16,-67.25"/>
</g>
<!-- octuple -->
<g id="node19" class="node">
<title>octuple</title>
<text text-anchor="start" x="623.5" y="-49.8" font-family="Times New Roman,serif" font-weight="bold" font-size="14.00">Modern</text>
<text text-anchor="start" x="625" y="-35.8" font-family="Times New Roman,serif" font-weight="bold" font-size="14.00">English</text>
<text text-anchor="start" x="627" y="-21.8" font-family="Times New Roman,serif" font-size="14.00" fill="red">octuple</text>
<text text-anchor="start" x="625" y="-7.8" font-family="Times New Roman,serif" font-size="14.00" fill="red">octuplet</text>
</g>
<!-- octuplusL&#45;&gt;octuple -->
<g id="edge18" class="edge">
<title>octuplusL&#45;&gt;octuple</title>
<path fill="none" stroke="black" stroke-dasharray="5,2" d="M662.13,-311.81C659.81,-266.01 653.43,-140.11 650.09,-74.3"/>
<polygon fill="black" stroke="black" points="653.59,-74.08 649.58,-64.27 646.6,-74.44 653.59,-74.08"/>
</g>
<!-- octobreOF -->
<g id="node21" class="node">
<title>octobreOF</title>
<text text-anchor="start" x="792" y="-243.8" font-family="Times New Roman,serif" font-weight="bold" font-size="14.00">Old French</text>
<text text-anchor="start" x="803.5" y="-229.8" font-family="Times New Roman,serif" font-size="14.00" fill="red">Octobre</text>
</g>
<!-- octoberL&#45;&gt;octobreOF -->
<g id="edge20" class="edge">
<title>octoberL&#45;&gt;octobreOF</title>
<path fill="none" stroke="black" d="M754,-311C754,-311 780.44,-285.64 801.5,-265.45"/>
<polygon fill="black" stroke="black" points="804.16,-267.75 808.96,-258.3 799.31,-262.7 804.16,-267.75"/>
</g>
<!-- octoberOE -->
<g id="node22" class="node">
<title>octoberOE</title>
<text text-anchor="start" x="684.5" y="-243.8" font-family="Times New Roman,serif" font-weight="bold" font-size="14.00">Old English</text>
<text text-anchor="start" x="697.5" y="-229.8" font-family="Times New Roman,serif" font-size="14.00" fill="red">October</text>
</g>
<!-- octoberL&#45;&gt;octoberOE -->
<g id="edge21" class="edge">
<title>octoberL&#45;&gt;octoberOE</title>
<path fill="none" stroke="black" stroke-dasharray="5,2" d="M754,-311C754,-311 742.87,-287.39 733.54,-267.6"/>
<polygon fill="black" stroke="black" points="736.59,-265.86 729.16,-258.3 730.26,-268.84 736.59,-265.86"/>
</g>
<!-- octobreME -->
<g id="node23" class="node">
<title>octobreME</title>
<text text-anchor="start" x="751.5" y="-147.8" font-family="Times New Roman,serif" font-weight="bold" font-size="14.00">Middle</text>
<text text-anchor="start" x="750" y="-133.8" font-family="Times New Roman,serif" font-weight="bold" font-size="14.00">English</text>
<text text-anchor="start" x="749.5" y="-119.8" font-family="Times New Roman,serif" font-size="14.00" fill="red">Octobre</text>
</g>
<!-- octobreOF&#45;&gt;octobreME -->
<g id="edge22" class="edge">
<title>octobreOF&#45;&gt;octobreME</title>
<path fill="none" stroke="black" stroke-dasharray="5,2" d="M814.75,-221.75C803.54,-205.99 787.46,-183.35 778.89,-171.29"/>
<polygon fill="black" stroke="black" points="781.65,-169.12 773,-163 775.94,-173.18 781.65,-169.12"/>
</g>
<!-- octoberOE&#45;&gt;octobreME -->
<g id="edge23" class="edge">
<title>octoberOE&#45;&gt;octobreME</title>
<path fill="none" stroke="black" d="M732.8,-221.75C743.59,-205.99 759.08,-183.35 767.33,-171.29"/>
<polygon fill="black" stroke="black" points="770.24,-173.23 773,-163 764.46,-169.28 770.24,-173.23"/>
</g>
<!-- october -->
<g id="node24" class="node">
<title>october</title>
<text text-anchor="start" x="748.5" y="-42.8" font-family="Times New Roman,serif" font-weight="bold" font-size="14.00">Modern</text>
<text text-anchor="start" x="750" y="-28.8" font-family="Times New Roman,serif" font-weight="bold" font-size="14.00">English</text>
<text text-anchor="start" x="749.5" y="-14.8" font-family="Times New Roman,serif" font-size="14.00" fill="red">October</text>
</g>
<!-- octobreME&#45;&gt;october -->
<g id="edge24" class="edge">
<title>octobreME&#45;&gt;october</title>
<path fill="none" stroke="black" d="M773,-111.85C773,-98.65 773,-82.06 773,-67.51"/>
<polygon fill="black" stroke="black" points="776.5,-67.35 773,-57.35 769.5,-67.35 776.5,-67.35"/>
</g>
<!-- octaveOF -->
<g id="node26" class="node">
<title>octaveOF</title>
<text text-anchor="start" x="536" y="-243.8" font-family="Times New Roman,serif" font-weight="bold" font-size="14.00">Old French</text>
<text text-anchor="start" x="552.5" y="-229.8" font-family="Times New Roman,serif" font-size="14.00" fill="red">octave</text>
</g>
<!-- octavaL&#45;&gt;octaveOF -->
<g id="edge26" class="edge">
<title>octavaL&#45;&gt;octaveOF</title>
<path fill="none" stroke="black" d="M568.59,-311.61C569.01,-299.24 569.59,-282.37 570.07,-268.22"/>
<polygon fill="black" stroke="black" points="573.58,-268.16 570.42,-258.05 566.58,-267.93 573.58,-268.16"/>
</g>
<!-- octaveME -->
<g id="node27" class="node">
<title>octaveME</title>
<text text-anchor="start" x="548.5" y="-159.8" font-family="Times New Roman,serif" font-weight="bold" font-size="14.00">Middle</text>
<text text-anchor="start" x="547" y="-145.8" font-family="Times New Roman,serif" font-weight="bold" font-size="14.00">English</text>
<text text-anchor="start" x="551.5" y="-131.8" font-family="Times New Roman,serif" font-size="14.00" fill="red">octave</text>
<text text-anchor="start" x="535" y="-119.4" font-family="Times New Roman,serif" font-size="12.00">eighth day after</text>
<text text-anchor="start" x="545.5" y="-107.4" font-family="Times New Roman,serif" font-size="12.00">a feast day</text>
</g>
<!-- octaveOF&#45;&gt;octaveME -->
<g id="edge27" class="edge">
<title>octaveOF&#45;&gt;octaveME</title>
<path fill="none" stroke="black" stroke-dasharray="5,2" d="M570.83,-221.87C570.73,-211.46 570.59,-197.64 570.46,-184.22"/>
<polygon fill="black" stroke="black" points="573.96,-184.06 570.36,-174.1 566.96,-184.13 573.96,-184.06"/>
</g>
<!-- octave -->
<g id="node28" class="node">
<title>octave</title>
<text text-anchor="start" x="540.5" y="-42.8" font-family="Times New Roman,serif" font-weight="bold" font-size="14.00">Modern</text>
<text text-anchor="start" x="542" y="-28.8" font-family="Times New Roman,serif" font-weight="bold" font-size="14.00">English</text>
<text text-anchor="start" x="546.5" y="-14.8" font-family="Times New Roman,serif" font-size="14.00" fill="red">octave</text>
</g>
<!-- octaveME&#45;&gt;octave -->
<g id="edge28" class="edge">
<title>octaveME&#45;&gt;octave</title>
<path fill="none" stroke="black" d="M568.25,-99.98C567.74,-89.36 567.17,-77.78 566.66,-67.27"/>
<polygon fill="black" stroke="black" points="570.16,-67.02 566.18,-57.21 563.16,-67.36 570.16,-67.02"/>
</g>
<!-- octogeniL -->
<g id="node30" class="node">
<title>octogeniL</title>
<text text-anchor="start" x="439" y="-255.8" font-family="Times New Roman,serif" font-size="14.00" fill="red">octōgēnī</text>
<text text-anchor="start" x="438.5" y="-243.4" font-family="Times New Roman,serif" font-size="12.00">eighty each</text>
<text text-anchor="start" x="428" y="-229.8" font-family="Times New Roman,serif" font-size="14.00" fill="red">octōgēnārius</text>
<text text-anchor="start" x="426.5" y="-217.4" font-family="Times New Roman,serif" font-size="12.00">containing eighty</text>
</g>
<!-- octogintaL&#45;&gt;octogeniL -->
<g id="edge31" class="edge">
<title>octogintaL&#45;&gt;octogeniL</title>
<path fill="none" stroke="black" d="M467.21,-311.61C466.8,-302.66 466.29,-291.34 465.79,-280.41"/>
<polygon fill="black" stroke="black" points="469.27,-279.96 465.32,-270.13 462.28,-280.28 469.27,-279.96"/>
</g>
<!-- octogenaireOF -->
<g id="node31" class="node">
<title>octogenaireOF</title>
<text text-anchor="start" x="430" y="-140.8" font-family="Times New Roman,serif" font-weight="bold" font-size="14.00">Old French</text>
<text text-anchor="start" x="432.5" y="-126.8" font-family="Times New Roman,serif" font-size="14.00" fill="red">octogénaire</text>
</g>
<!-- octogeniL&#45;&gt;octogenaireOF -->
<g id="edge32" class="edge">
<title>octogeniL&#45;&gt;octogenaireOF</title>
<path fill="none" stroke="black" d="M464.29,-209.79C464.43,-195.81 464.59,-179.17 464.73,-165.44"/>
<polygon fill="black" stroke="black" points="468.23,-165.18 464.83,-155.15 461.23,-165.11 468.23,-165.18"/>
</g>
<!-- octogenarian -->
<g id="node32" class="node">
<title>octogenarian</title>
<text text-anchor="start" x="441.5" y="-42.8" font-family="Times New Roman,serif" font-weight="bold" font-size="14.00">Modern</text>
<text text-anchor="start" x="443" y="-28.8" font-family="Times New Roman,serif" font-weight="bold" font-size="14.00">English</text>
<text text-anchor="start" x="430" y="-14.8" font-family="Times New Roman,serif" font-size="14.00" fill="red">octogenarian</text>
</g>
<!-- octogenaireOF&#45;&gt;octogenarian -->
<g id="edge33" class="edge">
<title>octogenaireOF&#45;&gt;octogenarian</title>
<path fill="none" stroke="black" stroke-dasharray="5,2" d="M465.17,-118.99C465.3,-105.08 465.5,-84.95 465.66,-67.67"/>
<polygon fill="black" stroke="black" points="469.17,-67.39 465.76,-57.36 462.17,-67.32 469.17,-67.39"/>
</g>
<!-- oktopousG -->
<g id="node34" class="node">
<title>oktopousG</title>
<text text-anchor="start" x="1015" y="-339.8" font-family="Times New Roman,serif" font-size="14.00" fill="red">oktōpous</text>
<text text-anchor="start" x="1014.5" y="-325.8" font-family="Times New Roman,serif" font-size="14.00" fill="red">oktōpoda</text>
<text text-anchor="start" x="1014.5" y="-313.4" font-family="Times New Roman,serif" font-size="12.00">eight&#45;footed</text>
</g>
<!-- oktoG&#45;&gt;oktopousG -->
<g id="edge35" class="edge">
<title>oktoG&#45;&gt;oktopousG</title>
<path fill="none" stroke="black" d="M947,-389C947,-389 998.68,-367.83 1020.48,-358.9"/>
<polygon fill="black" stroke="black" points="1022.07,-362.03 1030,-355 1019.42,-355.55 1022.07,-362.03"/>
</g>
<!-- oktoG&#45;&gt;octoE -->
<g id="edge41" class="edge">
<title>oktoG&#45;&gt;octoE</title>
<path fill="none" stroke="black" stroke-dasharray="5,2" d="M947,-389C947,-389 948.06,-224.26 912,-100 908.49,-87.9 901.83,-74.95 897.16,-66.68"/>
<polygon fill="black" stroke="black" points="900.12,-64.81 892,-58 894.1,-68.38 900.12,-64.81"/>
</g>
<!-- octopusL -->
<g id="node35" class="node">
<title>octopusL</title>
<text text-anchor="start" x="1028" y="-147.8" font-family="Times New Roman,serif" font-weight="bold" font-size="14.00">New Latin</text>
<text text-anchor="start" x="1035.5" y="-133.8" font-family="Times New Roman,serif" font-size="14.00" fill="red">Octōpūs</text>
<text text-anchor="start" x="1031" y="-119.8" font-family="Times New Roman,serif" font-size="14.00" fill="red">Oktōpoda</text>
</g>
<!-- oktopousG&#45;&gt;octopusL -->
<g id="edge36" class="edge">
<title>oktopousG&#45;&gt;octopusL</title>
<path fill="none" stroke="black" stroke-dasharray="5,2" d="M1044.17,-305.96C1047.31,-272.68 1053.13,-210.91 1056.77,-172.26"/>
<polygon fill="black" stroke="black" points="1060.28,-172.31 1057.74,-162.02 1053.31,-171.65 1060.28,-172.31"/>
</g>
<!-- octopus -->
<g id="node36" class="node">
<title>octopus</title>
<text text-anchor="start" x="1039.5" y="-49.8" font-family="Times New Roman,serif" font-weight="bold" font-size="14.00">Modern</text>
<text text-anchor="start" x="1041" y="-35.8" font-family="Times New Roman,serif" font-weight="bold" font-size="14.00">English</text>
<text text-anchor="start" x="1041" y="-21.8" font-family="Times New Roman,serif" font-size="14.00" fill="red">octopus</text>
<text text-anchor="start" x="1039.5" y="-7.8" font-family="Times New Roman,serif" font-size="14.00" fill="red">octopod</text>
</g>
<!-- octopusL&#45;&gt;octopus -->
<g id="edge37" class="edge">
<title>octopusL&#45;&gt;octopus</title>
<path fill="none" stroke="black" stroke-dasharray="5,2" d="M1060.94,-111.85C1061.38,-100.59 1061.91,-86.87 1062.41,-74.06"/>
<polygon fill="black" stroke="black" points="1065.9,-74.16 1062.79,-64.03 1058.91,-73.89 1065.9,-74.16"/>
</g>
<!-- pedIE -->
<g id="node37" class="node">
<title>pedIE</title>
<g id="a_node37"><a xlink:href="ped-foot3.svg" xlink:title="&lt;b&gt;Indo&#45;&lt;br/&gt;European&lt;/b&gt;&lt;br/&gt;&lt;font color=&quot;red&quot;&gt;ped&#45;, pod&#45;&lt;/font&gt;&lt;br/&gt;&lt;font point&#45;size=&quot;12&quot;&gt;foot&lt;/font&gt;">
<path fill="none" stroke="black" stroke-dasharray="5,2" d="M1068.5,-635C1068.5,-635 1015.5,-635 1015.5,-635 1009.5,-635 1003.5,-629 1003.5,-623 1003.5,-623 1003.5,-585 1003.5,-585 1003.5,-579 1009.5,-573 1015.5,-573 1015.5,-573 1068.5,-573 1068.5,-573 1074.5,-573 1080.5,-579 1080.5,-585 1080.5,-585 1080.5,-623 1080.5,-623 1080.5,-629 1074.5,-635 1068.5,-635"/>
<text text-anchor="start" x="1025.5" y="-620.8" font-family="Times New Roman,serif" font-weight="bold" font-size="14.00">Indo&#45;</text>
<text text-anchor="start" x="1011.5" y="-606.8" font-family="Times New Roman,serif" font-weight="bold" font-size="14.00">European</text>
<text text-anchor="start" x="1011.5" y="-592.8" font-family="Times New Roman,serif" font-size="14.00" fill="red">ped&#45;, pod&#45;</text>
<text text-anchor="start" x="1032.5" y="-580.4" font-family="Times New Roman,serif" font-size="12.00">foot</text>
</a>
</g>
</g>
<!-- pousG -->
<g id="node38" class="node">
<title>pousG</title>
<text text-anchor="start" x="1022" y="-424.8" font-family="Times New Roman,serif" font-weight="bold" font-size="14.00">Greek</text>
<text text-anchor="start" x="1010.5" y="-410.8" font-family="Times New Roman,serif" font-size="14.00" fill="red">pous, pod&#45;</text>
<text text-anchor="start" x="1032.5" y="-398.4" font-family="Times New Roman,serif" font-size="12.00">foot</text>
</g>
<!-- pedIE&#45;&gt;pousG -->
<g id="edge38" class="edge">
<title>pedIE&#45;&gt;pousG</title>
<path fill="none" stroke="black" d="M1042,-572.96C1042,-539.18 1042,-484.48 1042,-449.39"/>
<polygon fill="black" stroke="black" points="1045.5,-449.18 1042,-439.18 1038.5,-449.18 1045.5,-449.18"/>
</g>
<!-- pousG&#45;&gt;oktopousG -->
<g id="edge39" class="edge">
<title>pousG&#45;&gt;oktopousG</title>
<path fill="none" stroke="black" d="M1037.26,-390.68C1035.45,-381.79 1033.48,-372.12 1032.05,-365.09"/>
<polygon fill="black" stroke="black" points="1035.42,-364.1 1030,-355 1028.56,-365.5 1035.42,-364.1"/>
</g>
<!-- yotE -->
<g id="node40" class="node">
<title>yotE</title>
<text text-anchor="start" x="956.5" y="-49.8" font-family="Times New Roman,serif" font-weight="bold" font-size="14.00">Modern</text>
<text text-anchor="start" x="958" y="-35.8" font-family="Times New Roman,serif" font-weight="bold" font-size="14.00">English</text>
<text text-anchor="start" x="964.5" y="-21.8" font-family="Times New Roman,serif" font-size="14.00" fill="red">yotta&#45;</text>
<text text-anchor="start" x="962.5" y="-7.8" font-family="Times New Roman,serif" font-size="14.00" fill="red">yocto&#45;</text>
</g>
<!-- octoE&#45;&gt;yotE -->
<g id="edge42" class="edge">
<title>octoE&#45;&gt;yotE</title>
<path fill="none" stroke="black" d="M930.75,-32C933.23,-32 935.72,-32 938.2,-32"/>
<polygon fill="black" stroke="black" points="938.41,-35.5 948.41,-32 938.41,-28.5 938.41,-35.5"/>
</g>
<!-- attjanON -->
<g id="node43" class="node">
<title>attjanON</title>
<text text-anchor="start" x="47" y="-242.8" font-family="Times New Roman,serif" font-size="14.00" fill="red">āttjān</text>
<text text-anchor="start" x="43.5" y="-230.4" font-family="Times New Roman,serif" font-size="12.00">eighteen</text>
</g>
<!-- attON&#45;&gt;attjanON -->
<g id="edge45" class="edge">
<title>attON&#45;&gt;attjanON</title>
<path fill="none" stroke="black" d="M233.18,-311.97C228.46,-309.87 223.64,-307.82 219,-306 168.04,-286.05 104.84,-268.19 80.85,-261.64"/>
<polygon fill="black" stroke="black" points="81.57,-258.21 71,-259 79.75,-264.97 81.57,-258.21"/>
</g>
<!-- tjanON&#45;&gt;attjanON -->
<g id="edge46" class="edge">
<title>tjanON&#45;&gt;attjanON</title>
<path fill="none" stroke="black" d="M50.32,-305.69C55.96,-292.96 62.63,-277.91 66.84,-268.4"/>
<polygon fill="black" stroke="black" points="70.15,-269.56 71,-259 63.75,-266.73 70.15,-269.56"/>
</g>
<!-- atto -->
<g id="node44" class="node">
<title>atto</title>
<text text-anchor="start" x="38.5" y="-147.8" font-family="Times New Roman,serif" font-weight="bold" font-size="14.00">Danish,</text>
<text text-anchor="start" x="28" y="-133.8" font-family="Times New Roman,serif" font-weight="bold" font-size="14.00">Norwegian</text>
<text text-anchor="start" x="48.5" y="-119.8" font-family="Times New Roman,serif" font-size="14.00" fill="red">atten</text>
</g>
<!-- attjanON&#45;&gt;atto -->
<g id="edge47" class="edge">
<title>attjanON&#45;&gt;atto</title>
<path fill="none" stroke="black" d="M62,-221.87C62,-208.26 62,-188.8 62,-172.05"/>
<polygon fill="black" stroke="black" points="65.5,-172.04 62,-162.04 58.5,-172.04 65.5,-172.04"/>
</g>
<!-- attoE -->
<g id="node45" class="node">
<title>attoE</title>
<text text-anchor="start" x="37.5" y="-42.8" font-family="Times New Roman,serif" font-weight="bold" font-size="14.00">Modern</text>
<text text-anchor="start" x="39" y="-28.8" font-family="Times New Roman,serif" font-weight="bold" font-size="14.00">English</text>
<text text-anchor="start" x="49" y="-14.8" font-family="Times New Roman,serif" font-size="14.00" fill="red">atto&#45;</text>
</g>
<!-- atto&#45;&gt;attoE -->
<g id="edge48" class="edge">
<title>atto&#45;&gt;attoE</title>
<path fill="none" stroke="black" stroke-dasharray="5,2" d="M62,-111.85C62,-98.65 62,-82.06 62,-67.51"/>
<polygon fill="black" stroke="black" points="65.5,-67.35 62,-57.35 58.5,-67.35 65.5,-67.35"/>
</g>
<!-- tehanGm -->
<g id="node46" class="node">
<title>tehanGm</title>
<text text-anchor="middle" x="1133" y="-411.3" font-family="Times New Roman,serif" font-size="14.00">tehanGm</text>
</g>
</g>
</svg>
