<?xml version="1.0" encoding="UTF-8" standalone="no"?>
<!DOCTYPE svg PUBLIC "-//W3C//DTD SVG 1.1//EN"
 "http://www.w3.org/Graphics/SVG/1.1/DTD/svg11.dtd">
<!-- Generated by graphviz version 2.49.0 (20210828.1703)
 -->
<!-- Pages: 1 -->
<svg width="529pt" height="853pt"
 viewBox="0.00 0.00 528.50 853.00" xmlns="http://www.w3.org/2000/svg" xmlns:xlink="http://www.w3.org/1999/xlink">
<g id="graph0" class="graph" transform="scale(1 1) rotate(0) translate(4 849)">
<polygon fill="white" stroke="transparent" points="-4,4 -4,-849 524.5,-849 524.5,4 -4,4"/>
<!-- ors -->
<g id="node1" class="node">
<title>ors</title>
<g id="a_node1"><a xlink:title="Indo&#45;European &quot;ors&#45;&quot; buttocks, backside">
<polygon fill="none" stroke="black" points="416,-841 205,-841 205,-721 416,-721 416,-841"/>
<polygon fill="none" stroke="black" points="420,-845 201,-845 201,-717 420,-717 420,-845"/>
<text text-anchor="start" x="232.5" y="-796.8" font-family="Times New Roman,serif" font-weight="bold" font-size="24.00">Indo&#45;European</text>
<text text-anchor="start" x="248" y="-760.6" font-family="Times New Roman,serif" font-size="18.00" fill="red">ors&#45;</text>
<text text-anchor="start" x="315.5" y="-770.2" font-family="Times New Roman,serif" font-size="16.00">buttocks,</text>
<text text-anchor="start" x="317.5" y="-752.2" font-family="Times New Roman,serif" font-size="16.00">backside</text>
</a>
</g>
</g>
<!-- orso -->
<g id="node2" class="node">
<title>orso</title>
<text text-anchor="start" x="257" y="-609.3" font-family="Times New Roman,serif" font-size="14.00" fill="red">ors&#45;o&#45;</text>
</g>
<!-- ors&#45;&gt;orso -->
<g id="edge1" class="edge">
<title>ors&#45;&gt;orso</title>
<path fill="none" stroke="black" d="M315.5,-716C315.5,-716 297.46,-671.12 285.31,-640.9"/>
<polygon fill="black" stroke="black" points="288.43,-639.28 281.46,-631.3 281.94,-641.89 288.43,-639.28"/>
</g>
<!-- orsa -->
<g id="node3" class="node">
<title>orsa</title>
<text text-anchor="start" x="359.5" y="-609.3" font-family="Times New Roman,serif" font-size="14.00" fill="red">ors&#45;ā&#45;</text>
</g>
<!-- ors&#45;&gt;orsa -->
<g id="edge2" class="edge">
<title>ors&#45;&gt;orsa</title>
<path fill="none" stroke="black" d="M315.5,-716C315.5,-716 342.81,-670.34 360.88,-640.12"/>
<polygon fill="black" stroke="black" points="364.02,-641.68 366.15,-631.3 358.02,-638.09 364.02,-641.68"/>
</g>
<!-- arsazGm -->
<g id="node4" class="node">
<title>arsazGm</title>
<text text-anchor="start" x="127" y="-447.8" font-family="Times New Roman,serif" font-weight="bold" font-size="14.00">Germanic</text>
<text text-anchor="start" x="143" y="-433.8" font-family="Times New Roman,serif" font-size="14.00" fill="red">arsaz</text>
</g>
<!-- orso&#45;&gt;arsazGm -->
<g id="edge3" class="edge">
<title>orso&#45;&gt;arsazGm</title>
<path fill="none" stroke="black" d="M262.42,-594.76C241.84,-565.38 199.86,-505.47 175.71,-470.99"/>
<polygon fill="black" stroke="black" points="178.29,-468.58 169.69,-462.4 172.56,-472.6 178.29,-468.58"/>
</g>
<!-- ouraG -->
<g id="node14" class="node">
<title>ouraG</title>
<text text-anchor="start" x="368.5" y="-531.8" font-family="Times New Roman,serif" font-weight="bold" font-size="14.00">Greek</text>
<text text-anchor="start" x="376" y="-517.8" font-family="Times New Roman,serif" font-size="14.00" fill="red">ourā</text>
<text text-anchor="start" x="382" y="-505.4" font-family="Times New Roman,serif" font-size="12.00">tail</text>
</g>
<!-- orsa&#45;&gt;ouraG -->
<g id="edge14" class="edge">
<title>orsa&#45;&gt;ouraG</title>
<path fill="none" stroke="black" d="M378.81,-594.84C380.29,-583.92 382.24,-569.41 384.01,-556.29"/>
<polygon fill="black" stroke="black" points="387.51,-556.54 385.38,-546.17 380.57,-555.61 387.51,-556.54"/>
</g>
<!-- earsOE -->
<g id="node5" class="node">
<title>earsOE</title>
<text text-anchor="start" x="8" y="-369.8" font-family="Times New Roman,serif" font-weight="bold" font-size="14.00">Old English</text>
<text text-anchor="start" x="19" y="-355.8" font-family="Times New Roman,serif" font-size="14.00" fill="red">ærs, ears</text>
</g>
<!-- arsazGm&#45;&gt;earsOE -->
<g id="edge4" class="edge">
<title>arsazGm&#45;&gt;earsOE</title>
<path fill="none" stroke="black" d="M147.5,-425C147.5,-425 112.78,-405.45 83.66,-389.05"/>
<polygon fill="black" stroke="black" points="85.28,-385.95 74.85,-384.09 81.84,-392.04 85.28,-385.95"/>
</g>
<!-- aersMD -->
<g id="node6" class="node">
<title>aersMD</title>
<text text-anchor="start" x="115.5" y="-375.8" font-family="Times New Roman,serif" font-weight="bold" font-size="14.00">Middle Dutch</text>
<text text-anchor="start" x="147" y="-361.8" font-family="Times New Roman,serif" font-size="14.00" fill="red">ærs</text>
<text text-anchor="start" x="127.5" y="-349.4" font-family="Times New Roman,serif" font-size="12.00">backside, tail</text>
</g>
<!-- arsazGm&#45;&gt;aersMD -->
<g id="edge5" class="edge">
<title>arsazGm&#45;&gt;aersMD</title>
<path fill="none" stroke="black" d="M147.5,-425C147.5,-425 149.54,-413.18 151.77,-400.22"/>
<polygon fill="black" stroke="black" points="155.24,-400.71 153.49,-390.26 148.34,-399.52 155.24,-400.71"/>
</g>
<!-- arsME -->
<g id="node7" class="node">
<title>arsME</title>
<text text-anchor="start" x="23" y="-135.8" font-family="Times New Roman,serif" font-weight="bold" font-size="14.00">Middle</text>
<text text-anchor="start" x="21.5" y="-121.8" font-family="Times New Roman,serif" font-weight="bold" font-size="14.00">English</text>
<text text-anchor="start" x="36" y="-107.8" font-family="Times New Roman,serif" font-size="14.00" fill="red">ars</text>
</g>
<!-- earsOE&#45;&gt;arsME -->
<g id="edge6" class="edge">
<title>earsOE&#45;&gt;arsME</title>
<path fill="none" stroke="black" d="M44.5,-347.81C44.5,-308.66 44.5,-212.23 44.5,-160.35"/>
<polygon fill="black" stroke="black" points="48,-160.3 44.5,-150.3 41,-160.3 48,-160.3"/>
</g>
<!-- orsD -->
<g id="node9" class="node">
<title>orsD</title>
<text text-anchor="start" x="94" y="-291.8" font-family="Times New Roman,serif" font-weight="bold" font-size="14.00">Dutch</text>
<text text-anchor="start" x="103" y="-277.8" font-family="Times New Roman,serif" font-size="14.00" fill="red">ors</text>
<text text-anchor="start" x="81.5" y="-265.4" font-family="Times New Roman,serif" font-size="12.00">tail (obsolete)</text>
</g>
<!-- aersMD&#45;&gt;orsD -->
<g id="edge8" class="edge">
<title>aersMD&#45;&gt;orsD</title>
<path fill="none" stroke="black" d="M144.73,-341.72C140.17,-333.43 134.97,-323.94 130.08,-315.04"/>
<polygon fill="black" stroke="black" points="133.03,-313.14 125.15,-306.05 126.89,-316.5 133.03,-313.14"/>
</g>
<!-- ass -->
<g id="node8" class="node">
<title>ass</title>
<text text-anchor="start" x="44" y="-49.8" font-family="Times New Roman,serif" font-weight="bold" font-size="14.00">Modern</text>
<text text-anchor="start" x="45.5" y="-35.8" font-family="Times New Roman,serif" font-weight="bold" font-size="14.00">English</text>
<text text-anchor="start" x="59" y="-21.8" font-family="Times New Roman,serif" font-size="14.00" fill="red">ass</text>
<text text-anchor="start" x="57" y="-7.8" font-family="Times New Roman,serif" font-size="14.00" fill="red">arse</text>
</g>
<!-- arsME&#45;&gt;ass -->
<g id="edge7" class="edge">
<title>arsME&#45;&gt;ass</title>
<path fill="none" stroke="black" d="M50.93,-99.61C53.01,-91.73 55.37,-82.77 57.68,-74.03"/>
<polygon fill="black" stroke="black" points="61.07,-74.88 60.24,-64.32 54.31,-73.1 61.07,-74.88"/>
</g>
<!-- orsD&#45;&gt;ass -->
<!-- dodorsD -->
<g id="node11" class="node">
<title>dodorsD</title>
<text text-anchor="start" x="154" y="-200.3" font-family="Times New Roman,serif" font-size="14.00" fill="red">dodors</text>
</g>
<!-- orsD&#45;&gt;dodorsD -->
<g id="edge9" class="edge">
<title>orsD&#45;&gt;dodorsD</title>
<path fill="none" stroke="black" d="M136.56,-257.74C146.86,-247.78 158.14,-236.88 165.26,-230"/>
<polygon fill="black" stroke="black" points="167.74,-232.47 172.5,-223 162.88,-227.43 167.74,-232.47"/>
</g>
<!-- dotD -->
<g id="node10" class="node">
<title>dotD</title>
<text text-anchor="start" x="192" y="-291.8" font-family="Times New Roman,serif" font-weight="bold" font-size="14.00">Dutch</text>
<text text-anchor="start" x="201" y="-277.8" font-family="Times New Roman,serif" font-size="14.00" fill="red">dot</text>
<text text-anchor="start" x="178" y="-265.4" font-family="Times New Roman,serif" font-size="12.00">tuft of feathers</text>
</g>
<!-- dotD&#45;&gt;dodorsD -->
<g id="edge10" class="edge">
<title>dotD&#45;&gt;dodorsD</title>
<path fill="none" stroke="black" d="M195.26,-257.74C189.23,-248.54 182.68,-238.53 178.16,-231.63"/>
<polygon fill="black" stroke="black" points="180.91,-229.45 172.5,-223 175.05,-233.28 180.91,-229.45"/>
</g>
<!-- dodoP -->
<g id="node12" class="node">
<title>dodoP</title>
<text text-anchor="start" x="139.5" y="-128.8" font-family="Times New Roman,serif" font-weight="bold" font-size="14.00">Portuguese</text>
<text text-anchor="start" x="159" y="-114.8" font-family="Times New Roman,serif" font-size="14.00" fill="red">dodó</text>
</g>
<!-- dodorsD&#45;&gt;dodoP -->
<g id="edge12" class="edge">
<title>dodorsD&#45;&gt;dodoP</title>
<path fill="none" stroke="black" stroke-dasharray="5,2" d="M174.5,-185.91C174.5,-176.34 174.5,-164.18 174.5,-153.32"/>
<polygon fill="black" stroke="black" points="178,-153.04 174.5,-143.04 171,-153.04 178,-153.04"/>
</g>
<!-- dodo -->
<g id="node13" class="node">
<title>dodo</title>
<text text-anchor="start" x="150" y="-42.8" font-family="Times New Roman,serif" font-weight="bold" font-size="14.00">Modern</text>
<text text-anchor="start" x="151.5" y="-28.8" font-family="Times New Roman,serif" font-weight="bold" font-size="14.00">English</text>
<text text-anchor="start" x="159" y="-14.8" font-family="Times New Roman,serif" font-size="14.00" fill="red">dodo</text>
</g>
<!-- dodoP&#45;&gt;dodo -->
<g id="edge13" class="edge">
<title>dodoP&#45;&gt;dodo</title>
<path fill="none" stroke="black" stroke-dasharray="5,2" d="M174.5,-106.88C174.5,-95.83 174.5,-81.06 174.5,-67.64"/>
<polygon fill="black" stroke="black" points="178,-67.25 174.5,-57.25 171,-67.25 178,-67.25"/>
</g>
<!-- skiourosG -->
<g id="node16" class="node">
<title>skiourosG</title>
<text text-anchor="start" x="285" y="-446.8" font-family="Times New Roman,serif" font-size="14.00" fill="red">skiouros</text>
<text text-anchor="start" x="292.5" y="-434.4" font-family="Times New Roman,serif" font-size="12.00">squirrel</text>
</g>
<!-- ouraG&#45;&gt;skiourosG -->
<g id="edge16" class="edge">
<title>ouraG&#45;&gt;skiourosG</title>
<path fill="none" stroke="black" d="M389.5,-497C389.5,-497 345.99,-476.46 326.62,-467.31"/>
<polygon fill="black" stroke="black" points="328.04,-464.11 317.5,-463 325.05,-470.43 328.04,-464.11"/>
</g>
<!-- kunosouraG -->
<g id="node24" class="node">
<title>kunosouraG</title>
<text text-anchor="start" x="446" y="-446.8" font-family="Times New Roman,serif" font-size="14.00" fill="red">kunosoura</text>
<text text-anchor="start" x="449" y="-434.4" font-family="Times New Roman,serif" font-size="12.00">Ursa Minor</text>
</g>
<!-- ouraG&#45;&gt;kunosouraG -->
<g id="edge24" class="edge">
<title>ouraG&#45;&gt;kunosouraG</title>
<path fill="none" stroke="black" d="M389.5,-497C389.5,-497 437.58,-476.04 458.25,-467.03"/>
<polygon fill="black" stroke="black" points="459.73,-470.2 467.5,-463 456.93,-463.79 459.73,-470.2"/>
</g>
<!-- ouroG -->
<g id="node28" class="node">
<title>ouroG</title>
<text text-anchor="start" x="375" y="-440.3" font-family="Times New Roman,serif" font-size="14.00" fill="red">ouro&#45;</text>
</g>
<!-- ouraG&#45;&gt;ouroG -->
<g id="edge28" class="edge">
<title>ouraG&#45;&gt;ouroG</title>
<path fill="none" stroke="black" d="M389.5,-497C389.5,-497 389.73,-484.91 389.97,-472.39"/>
<polygon fill="black" stroke="black" points="393.48,-472.09 390.17,-462.03 386.48,-471.96 393.48,-472.09"/>
</g>
<!-- skia -->
<g id="node15" class="node">
<title>skia</title>
<text text-anchor="start" x="289.5" y="-531.8" font-family="Times New Roman,serif" font-weight="bold" font-size="14.00">Greek</text>
<text text-anchor="start" x="298.5" y="-517.8" font-family="Times New Roman,serif" font-size="14.00" fill="red">skiā</text>
<text text-anchor="start" x="291.5" y="-505.4" font-family="Times New Roman,serif" font-size="12.00">shadow</text>
</g>
<!-- skia&#45;&gt;skiourosG -->
<g id="edge15" class="edge">
<title>skia&#45;&gt;skiourosG</title>
<path fill="none" stroke="black" d="M312.71,-497.74C313.89,-489.17 315.17,-479.9 316.11,-473.09"/>
<polygon fill="black" stroke="black" points="319.6,-473.38 317.5,-463 312.67,-472.43 319.6,-473.38"/>
</g>
<!-- sciurusL -->
<g id="node17" class="node">
<title>sciurusL</title>
<text text-anchor="start" x="289" y="-369.8" font-family="Times New Roman,serif" font-weight="bold" font-size="14.00">Latin</text>
<text text-anchor="start" x="261.5" y="-355.8" font-family="Times New Roman,serif" font-size="14.00" fill="red">sciūrus, scūrius</text>
</g>
<!-- skiourosG&#45;&gt;sciurusL -->
<g id="edge17" class="edge">
<title>skiourosG&#45;&gt;sciurusL</title>
<path fill="none" stroke="black" stroke-dasharray="5,2" d="M308.59,-425.75C308.1,-416.43 307.48,-404.69 306.93,-394.17"/>
<polygon fill="black" stroke="black" points="310.42,-393.98 306.4,-384.18 303.43,-394.35 310.42,-393.98"/>
</g>
<!-- scuriolusL -->
<g id="node18" class="node">
<title>scuriolusL</title>
<text text-anchor="start" x="278" y="-278.3" font-family="Times New Roman,serif" font-size="14.00" fill="red">scūriolus</text>
</g>
<!-- sciurusL&#45;&gt;scuriolusL -->
<g id="edge18" class="edge">
<title>sciurusL&#45;&gt;scuriolusL</title>
<path fill="none" stroke="black" d="M305.08,-347.61C304.81,-336.77 304.47,-322.6 304.17,-310.29"/>
<polygon fill="black" stroke="black" points="307.66,-310 303.92,-300.08 300.66,-310.17 307.66,-310"/>
</g>
<!-- esquirelAN -->
<g id="node19" class="node">
<title>esquirelAN</title>
<text text-anchor="start" x="237" y="-207.8" font-family="Times New Roman,serif" font-weight="bold" font-size="14.00">Anglo&#45;Norman</text>
<text text-anchor="start" x="261" y="-193.8" font-family="Times New Roman,serif" font-size="14.00" fill="red">esquirel</text>
</g>
<!-- scuriolusL&#45;&gt;esquirelAN -->
<g id="edge19" class="edge">
<title>scuriolusL&#45;&gt;esquirelAN</title>
<path fill="none" stroke="black" d="M298.73,-263.75C296.13,-254.33 292.85,-242.45 289.92,-231.84"/>
<polygon fill="black" stroke="black" points="293.28,-230.88 287.25,-222.18 286.54,-232.75 293.28,-230.88"/>
</g>
<!-- squirelME -->
<g id="node20" class="node">
<title>squirelME</title>
<text text-anchor="start" x="244" y="-128.8" font-family="Times New Roman,serif" font-weight="bold" font-size="14.00">Middle English</text>
<text text-anchor="start" x="272" y="-114.8" font-family="Times New Roman,serif" font-size="14.00" fill="red">squirel</text>
</g>
<!-- esquirelAN&#45;&gt;squirelME -->
<g id="edge20" class="edge">
<title>esquirelAN&#45;&gt;squirelME</title>
<path fill="none" stroke="black" stroke-dasharray="5,2" d="M284.28,-185.91C285.27,-176.34 286.53,-164.18 287.66,-153.32"/>
<polygon fill="black" stroke="black" points="291.18,-153.35 288.73,-143.04 284.21,-152.63 291.18,-153.35"/>
</g>
<!-- squirrel -->
<g id="node21" class="node">
<title>squirrel</title>
<text text-anchor="start" x="266" y="-42.8" font-family="Times New Roman,serif" font-weight="bold" font-size="14.00">Modern</text>
<text text-anchor="start" x="267.5" y="-28.8" font-family="Times New Roman,serif" font-weight="bold" font-size="14.00">English</text>
<text text-anchor="start" x="269.5" y="-14.8" font-family="Times New Roman,serif" font-size="14.00" fill="red">squirrel</text>
</g>
<!-- squirelME&#45;&gt;squirrel -->
<g id="edge21" class="edge">
<title>squirelME&#45;&gt;squirrel</title>
<path fill="none" stroke="black" d="M290.5,-106.88C290.5,-95.83 290.5,-81.06 290.5,-67.64"/>
<polygon fill="black" stroke="black" points="294,-67.25 290.5,-57.25 287,-67.25 294,-67.25"/>
</g>
<!-- kuon -->
<g id="node22" class="node">
<title>kuon</title>
<g id="a_node22"><a xlink:href="kwon-dog1.svg" xlink:title="&lt;b&gt;Indo&#45;&lt;br/&gt;European&lt;/b&gt;&lt;br/&gt;&lt;font color=&quot;red&quot;&gt;kuōn&lt;/font&gt;&lt;br/&gt;&lt;font point&#45;size=&quot;12&quot;&gt;dog&lt;/font&gt;">
<path fill="none" stroke="black" stroke-dasharray="5,2" d="M502,-644C502,-644 449,-644 449,-644 443,-644 437,-638 437,-632 437,-632 437,-594 437,-594 437,-588 443,-582 449,-582 449,-582 502,-582 502,-582 508,-582 514,-588 514,-594 514,-594 514,-632 514,-632 514,-638 508,-644 502,-644"/>
<text text-anchor="start" x="459" y="-629.8" font-family="Times New Roman,serif" font-weight="bold" font-size="14.00">Indo&#45;</text>
<text text-anchor="start" x="445" y="-615.8" font-family="Times New Roman,serif" font-weight="bold" font-size="14.00">European</text>
<text text-anchor="start" x="461.5" y="-601.8" font-family="Times New Roman,serif" font-size="14.00" fill="red">kuōn</text>
<text text-anchor="start" x="466.5" y="-589.4" font-family="Times New Roman,serif" font-size="12.00">dog</text>
</a>
</g>
</g>
<!-- kunos -->
<g id="node23" class="node">
<title>kunos</title>
<text text-anchor="start" x="458.5" y="-524.8" font-family="Times New Roman,serif" font-size="14.00" fill="red">kunos</text>
<text text-anchor="start" x="463" y="-512.4" font-family="Times New Roman,serif" font-size="12.00">dog&#39;s</text>
</g>
<!-- kuon&#45;&gt;kunos -->
<g id="edge22" class="edge">
<title>kuon&#45;&gt;kunos</title>
<path fill="none" stroke="black" d="M475.5,-581.87C475.5,-571.65 475.5,-560.29 475.5,-550.3"/>
<polygon fill="black" stroke="black" points="479,-550.12 475.5,-540.12 472,-550.12 479,-550.12"/>
</g>
<!-- kunos&#45;&gt;kunosouraG -->
<g id="edge23" class="edge">
<title>kunos&#45;&gt;kunosouraG</title>
<path fill="none" stroke="black" d="M473.14,-503.91C471.76,-493.89 470.06,-481.56 468.89,-473.08"/>
<polygon fill="black" stroke="black" points="472.33,-472.43 467.5,-463 465.4,-473.38 472.33,-472.43"/>
</g>
<!-- cynosuraL -->
<g id="node25" class="node">
<title>cynosuraL</title>
<text text-anchor="start" x="467" y="-369.8" font-family="Times New Roman,serif" font-weight="bold" font-size="14.00">Latin</text>
<text text-anchor="start" x="457.5" y="-355.8" font-family="Times New Roman,serif" font-size="14.00" fill="red">cynosūra</text>
</g>
<!-- kunosouraG&#45;&gt;cynosuraL -->
<g id="edge25" class="edge">
<title>kunosouraG&#45;&gt;cynosuraL</title>
<path fill="none" stroke="black" stroke-dasharray="5,2" d="M477.32,-425.75C478.3,-416.43 479.53,-404.69 480.64,-394.17"/>
<polygon fill="black" stroke="black" points="484.13,-394.49 481.69,-384.18 477.16,-393.76 484.13,-394.49"/>
</g>
<!-- cynosureF -->
<g id="node26" class="node">
<title>cynosureF</title>
<text text-anchor="start" x="464.5" y="-207.8" font-family="Times New Roman,serif" font-weight="bold" font-size="14.00">French</text>
<text text-anchor="start" x="460.5" y="-193.8" font-family="Times New Roman,serif" font-size="14.00" fill="red">cynosure</text>
</g>
<!-- cynosuraL&#45;&gt;cynosureF -->
<g id="edge26" class="edge">
<title>cynosuraL&#45;&gt;cynosureF</title>
<path fill="none" stroke="black" d="M483.82,-347.88C484.34,-320.35 485.36,-266.01 485.98,-232.85"/>
<polygon fill="black" stroke="black" points="489.48,-232.55 486.17,-222.48 482.49,-232.42 489.48,-232.55"/>
</g>
<!-- cynosure -->
<g id="node27" class="node">
<title>cynosure</title>
<text text-anchor="start" x="462" y="-42.8" font-family="Times New Roman,serif" font-weight="bold" font-size="14.00">Modern</text>
<text text-anchor="start" x="463.5" y="-28.8" font-family="Times New Roman,serif" font-weight="bold" font-size="14.00">English</text>
<text text-anchor="start" x="460.5" y="-14.8" font-family="Times New Roman,serif" font-size="14.00" fill="red">cynosure</text>
</g>
<!-- cynosureF&#45;&gt;cynosure -->
<g id="edge27" class="edge">
<title>cynosureF&#45;&gt;cynosure</title>
<path fill="none" stroke="black" stroke-dasharray="5,2" d="M486.5,-185.76C486.5,-158.03 486.5,-102.98 486.5,-67.09"/>
<polygon fill="black" stroke="black" points="490,-67.07 486.5,-57.07 483,-67.07 490,-67.07"/>
</g>
<!-- uroNL -->
<g id="node29" class="node">
<title>uroNL</title>
<text text-anchor="start" x="362.5" y="-207.8" font-family="Times New Roman,serif" font-weight="bold" font-size="14.00">New Latin</text>
<text text-anchor="start" x="382.5" y="-193.8" font-family="Times New Roman,serif" font-size="14.00" fill="red">uro&#45;</text>
</g>
<!-- ouroG&#45;&gt;uroNL -->
<g id="edge29" class="edge">
<title>ouroG&#45;&gt;uroNL</title>
<path fill="none" stroke="black" stroke-dasharray="5,2" d="M390.79,-425.88C391.47,-385.16 393.2,-282.2 394.04,-232.57"/>
<polygon fill="black" stroke="black" points="397.54,-232.34 394.21,-222.28 390.54,-232.22 397.54,-232.34"/>
</g>
<!-- uroE -->
<g id="node30" class="node">
<title>uroE</title>
<text text-anchor="start" x="370" y="-49.8" font-family="Times New Roman,serif" font-weight="bold" font-size="14.00">Modern</text>
<text text-anchor="start" x="371.5" y="-35.8" font-family="Times New Roman,serif" font-weight="bold" font-size="14.00">English</text>
<text text-anchor="start" x="382.5" y="-21.8" font-family="Times New Roman,serif" font-size="14.00" fill="red">uro&#45;</text>
<text text-anchor="start" x="376" y="-7.8" font-family="Times New Roman,serif" font-size="14.00" fill="red">&#45;urous</text>
</g>
<!-- uroNL&#45;&gt;uroE -->
<g id="edge30" class="edge">
<title>uroNL&#45;&gt;uroE</title>
<path fill="none" stroke="black" stroke-dasharray="5,2" d="M394.5,-185.76C394.5,-159.8 394.5,-109.88 394.5,-74.18"/>
<polygon fill="black" stroke="black" points="398,-74.05 394.5,-64.05 391,-74.05 398,-74.05"/>
</g>
</g>
</svg>
