<?xml version="1.0" encoding="UTF-8" standalone="no"?>
<!DOCTYPE svg PUBLIC "-//W3C//DTD SVG 1.1//EN"
 "http://www.w3.org/Graphics/SVG/1.1/DTD/svg11.dtd">
<!-- Generated by graphviz version 2.44.1 (20200629.0846)
 -->
<!-- Pages: 1 -->
<svg width="660pt" height="693pt"
 viewBox="0.00 0.00 660.00 693.00" xmlns="http://www.w3.org/2000/svg" xmlns:xlink="http://www.w3.org/1999/xlink">
<g id="graph0" class="graph" transform="scale(1 1) rotate(0) translate(4 689)">
<polygon fill="white" stroke="transparent" points="-4,4 -4,-689 656,-689 656,4 -4,4"/>
<!-- ors -->
<g id="node1" class="node">
<title>ors</title>
<text text-anchor="start" x="279.5" y="-666.3" font-family="Times New Roman,serif" font-weight="bold" font-size="14.00">Indo&#45;European</text>
<text text-anchor="start" x="285" y="-640.7" font-family="Times New Roman,serif" font-size="16.00" fill="red">ors&#45;</text>
<text text-anchor="start" x="329" y="-647.5" font-family="Times New Roman,serif" font-size="10.00">buttocks,</text>
<text text-anchor="start" x="330" y="-636.5" font-family="Times New Roman,serif" font-size="10.00">backside</text>
</g>
<!-- orso -->
<g id="node2" class="node">
<title>orso</title>
<text text-anchor="start" x="272" y="-568.3" font-family="Times New Roman,serif" font-size="14.00" fill="red">ors&#45;o&#45;</text>
</g>
<!-- ors&#45;&gt;orso -->
<g id="edge1" class="edge">
<title>ors&#45;&gt;orso</title>
<path fill="none" stroke="black" d="M312.91,-626C309.12,-617.42 304.98,-608.04 301.25,-599.59"/>
<polygon fill="black" stroke="black" points="304.34,-597.94 297.1,-590.2 297.94,-600.76 304.34,-597.94"/>
</g>
<!-- orsa -->
<g id="node3" class="node">
<title>orsa</title>
<text text-anchor="start" x="359.5" y="-568.3" font-family="Times New Roman,serif" font-size="14.00" fill="red">ors&#45;ā&#45;</text>
</g>
<!-- ors&#45;&gt;orsa -->
<g id="edge2" class="edge">
<title>ors&#45;&gt;orsa</title>
<path fill="none" stroke="black" d="M343.34,-626C348.88,-617.14 354.96,-607.43 360.37,-598.77"/>
<polygon fill="black" stroke="black" points="363.4,-600.54 365.73,-590.2 357.46,-596.82 363.4,-600.54"/>
</g>
<!-- arsazGm -->
<g id="node4" class="node">
<title>arsazGm</title>
<text text-anchor="start" x="186" y="-419.8" font-family="Times New Roman,serif" font-weight="bold" font-size="14.00">Germanic</text>
<text text-anchor="start" x="202" y="-405.8" font-family="Times New Roman,serif" font-size="14.00" fill="red">arsaz</text>
</g>
<!-- orso&#45;&gt;arsazGm -->
<g id="edge3" class="edge">
<title>orso&#45;&gt;arsazGm</title>
<path fill="none" stroke="black" d="M281.41,-553.93C268.69,-527.1 243.94,-474.88 228.94,-443.25"/>
<polygon fill="black" stroke="black" points="232.07,-441.68 224.63,-434.15 225.75,-444.68 232.07,-441.68"/>
</g>
<!-- ouraG -->
<g id="node14" class="node">
<title>ouraG</title>
<text text-anchor="start" x="408.5" y="-503.8" font-family="Times New Roman,serif" font-weight="bold" font-size="14.00">Greek</text>
<text text-anchor="start" x="416" y="-489.8" font-family="Times New Roman,serif" font-size="14.00" fill="red">ourā</text>
<text text-anchor="start" x="422" y="-477.4" font-family="Times New Roman,serif" font-size="12.00">tail</text>
</g>
<!-- orsa&#45;&gt;ouraG -->
<g id="edge13" class="edge">
<title>orsa&#45;&gt;ouraG</title>
<path fill="none" stroke="black" d="M388.3,-553.75C393.81,-545.71 400.54,-535.87 406.91,-526.56"/>
<polygon fill="black" stroke="black" points="409.85,-528.46 412.61,-518.23 404.07,-524.51 409.85,-528.46"/>
</g>
<!-- earsOE -->
<g id="node5" class="node">
<title>earsOE</title>
<text text-anchor="start" x="180" y="-341.8" font-family="Times New Roman,serif" font-weight="bold" font-size="14.00">Old English</text>
<text text-anchor="start" x="191" y="-327.8" font-family="Times New Roman,serif" font-size="14.00" fill="red">ærs, ears</text>
</g>
<!-- arsazGm&#45;&gt;earsOE -->
<g id="edge4" class="edge">
<title>arsazGm&#45;&gt;earsOE</title>
<path fill="none" stroke="black" d="M216.5,-397.75C216.5,-388.52 216.5,-376.93 216.5,-366.49"/>
<polygon fill="black" stroke="black" points="220,-366.18 216.5,-356.18 213,-366.18 220,-366.18"/>
</g>
<!-- aersMD -->
<g id="node6" class="node">
<title>aersMD</title>
<text text-anchor="start" x="34.5" y="-347.8" font-family="Times New Roman,serif" font-weight="bold" font-size="14.00">Middle Dutch</text>
<text text-anchor="start" x="66" y="-333.8" font-family="Times New Roman,serif" font-size="14.00" fill="red">ærs</text>
<text text-anchor="start" x="46.5" y="-321.4" font-family="Times New Roman,serif" font-size="12.00">backside, tail</text>
</g>
<!-- arsazGm&#45;&gt;aersMD -->
<g id="edge5" class="edge">
<title>arsazGm&#45;&gt;aersMD</title>
<path fill="none" stroke="black" d="M185.08,-397.94C168.24,-388.8 147.06,-377.31 127.89,-366.9"/>
<polygon fill="black" stroke="black" points="129.42,-363.75 118.96,-362.05 126.08,-369.9 129.42,-363.75"/>
</g>
<!-- arsME -->
<g id="node7" class="node">
<title>arsME</title>
<text text-anchor="start" x="152" y="-107.8" font-family="Times New Roman,serif" font-weight="bold" font-size="14.00">Middle English</text>
<text text-anchor="start" x="190" y="-93.8" font-family="Times New Roman,serif" font-size="14.00" fill="red">ars</text>
</g>
<!-- earsOE&#45;&gt;arsME -->
<g id="edge6" class="edge">
<title>earsOE&#45;&gt;arsME</title>
<path fill="none" stroke="black" d="M215.18,-319.94C212.08,-280.05 204.35,-180.43 200.6,-132.12"/>
<polygon fill="black" stroke="black" points="204.09,-131.78 199.83,-122.08 197.11,-132.33 204.09,-131.78"/>
</g>
<!-- orsD -->
<g id="node9" class="node">
<title>orsD</title>
<text text-anchor="start" x="31" y="-263.8" font-family="Times New Roman,serif" font-weight="bold" font-size="14.00">Dutch</text>
<text text-anchor="start" x="40" y="-249.8" font-family="Times New Roman,serif" font-size="14.00" fill="red">ors</text>
<text text-anchor="start" x="18.5" y="-237.4" font-family="Times New Roman,serif" font-size="12.00">tail (obsolete)</text>
</g>
<!-- aersMD&#45;&gt;orsD -->
<g id="edge8" class="edge">
<title>aersMD&#45;&gt;orsD</title>
<path fill="none" stroke="black" d="M68.84,-313.72C66.16,-305.6 63.11,-296.34 60.23,-287.6"/>
<polygon fill="black" stroke="black" points="63.54,-286.46 57.09,-278.05 56.89,-288.65 63.54,-286.46"/>
</g>
<!-- ass -->
<g id="node8" class="node">
<title>ass</title>
<text text-anchor="start" x="146" y="-35.8" font-family="Times New Roman,serif" font-weight="bold" font-size="14.00">Modern English</text>
<text text-anchor="start" x="186" y="-21.8" font-family="Times New Roman,serif" font-size="14.00" fill="red">ass</text>
<text text-anchor="start" x="184" y="-7.8" font-family="Times New Roman,serif" font-size="14.00" fill="red">arse</text>
</g>
<!-- arsME&#45;&gt;ass -->
<g id="edge7" class="edge">
<title>arsME&#45;&gt;ass</title>
<path fill="none" stroke="black" d="M197.83,-85.91C197.54,-78.33 197.18,-69.13 196.83,-60.23"/>
<polygon fill="black" stroke="black" points="200.32,-59.91 196.44,-50.05 193.33,-60.18 200.32,-59.91"/>
</g>
<!-- dodorsD -->
<g id="node11" class="node">
<title>dodorsD</title>
<text text-anchor="start" x="37" y="-172.3" font-family="Times New Roman,serif" font-size="14.00" fill="red">dodors</text>
</g>
<!-- orsD&#45;&gt;dodorsD -->
<g id="edge9" class="edge">
<title>orsD&#45;&gt;dodorsD</title>
<path fill="none" stroke="black" d="M51.94,-229.78C52.8,-221.68 53.76,-212.52 54.64,-204.12"/>
<polygon fill="black" stroke="black" points="58.14,-204.36 55.71,-194.04 51.18,-203.62 58.14,-204.36"/>
</g>
<!-- dotD -->
<g id="node10" class="node">
<title>dotD</title>
<text text-anchor="start" x="138" y="-256.8" font-family="Times New Roman,serif" font-size="14.00" fill="red">dot</text>
<text text-anchor="start" x="115" y="-244.4" font-family="Times New Roman,serif" font-size="12.00">tuft of feathers</text>
</g>
<!-- dotD&#45;&gt;dodorsD -->
<g id="edge10" class="edge">
<title>dotD&#45;&gt;dodorsD</title>
<path fill="none" stroke="black" d="M127.08,-235.75C114.88,-225.45 99.21,-212.22 85.83,-200.92"/>
<polygon fill="black" stroke="black" points="87.74,-197.96 77.84,-194.18 83.22,-203.3 87.74,-197.96"/>
</g>
<!-- dodoP -->
<g id="node12" class="node">
<title>dodoP</title>
<text text-anchor="start" x="22.5" y="-107.8" font-family="Times New Roman,serif" font-weight="bold" font-size="14.00">Portuguese</text>
<text text-anchor="start" x="42" y="-93.8" font-family="Times New Roman,serif" font-size="14.00" fill="red">dodó</text>
</g>
<!-- dodorsD&#45;&gt;dodoP -->
<g id="edge11" class="edge">
<title>dodorsD&#45;&gt;dodoP</title>
<path fill="none" stroke="black" stroke-dasharray="1,5" d="M57.5,-157.7C57.5,-149.98 57.5,-140.71 57.5,-132.11"/>
<polygon fill="black" stroke="black" points="61,-132.1 57.5,-122.1 54,-132.1 61,-132.1"/>
</g>
<!-- dodo -->
<g id="node13" class="node">
<title>dodo</title>
<text text-anchor="start" x="8" y="-28.8" font-family="Times New Roman,serif" font-weight="bold" font-size="14.00">Modern English</text>
<text text-anchor="start" x="42" y="-14.8" font-family="Times New Roman,serif" font-size="14.00" fill="red">dodo</text>
</g>
<!-- dodoP&#45;&gt;dodo -->
<g id="edge12" class="edge">
<title>dodoP&#45;&gt;dodo</title>
<path fill="none" stroke="black" stroke-dasharray="1,5" d="M57.5,-85.91C57.5,-76.34 57.5,-64.18 57.5,-53.32"/>
<polygon fill="black" stroke="black" points="61,-53.04 57.5,-43.04 54,-53.04 61,-53.04"/>
</g>
<!-- skiourosG -->
<g id="node16" class="node">
<title>skiourosG</title>
<text text-anchor="start" x="320" y="-418.8" font-family="Times New Roman,serif" font-size="14.00" fill="red">skiouros</text>
<text text-anchor="start" x="327.5" y="-406.4" font-family="Times New Roman,serif" font-size="12.00">squirrel</text>
</g>
<!-- ouraG&#45;&gt;skiourosG -->
<g id="edge14" class="edge">
<title>ouraG&#45;&gt;skiourosG</title>
<path fill="none" stroke="black" d="M402.84,-469.78C392.69,-460.6 381.03,-450.05 370.82,-440.81"/>
<polygon fill="black" stroke="black" points="373.1,-438.16 363.34,-434.04 368.41,-443.35 373.1,-438.16"/>
</g>
<!-- kunosouraG -->
<g id="node23" class="node">
<title>kunosouraG</title>
<text text-anchor="start" x="488" y="-418.8" font-family="Times New Roman,serif" font-size="14.00" fill="red">kunosoura</text>
<text text-anchor="start" x="491" y="-406.4" font-family="Times New Roman,serif" font-size="12.00">Ursa Minor</text>
</g>
<!-- ouraG&#45;&gt;kunosouraG -->
<g id="edge21" class="edge">
<title>ouraG&#45;&gt;kunosouraG</title>
<path fill="none" stroke="black" d="M455.69,-469.78C466.55,-460.51 479.04,-449.85 489.93,-440.54"/>
<polygon fill="black" stroke="black" points="492.21,-443.2 497.54,-434.04 487.66,-437.88 492.21,-443.2"/>
</g>
<!-- ouroG -->
<g id="node27" class="node">
<title>ouroG</title>
<text text-anchor="start" x="415" y="-412.3" font-family="Times New Roman,serif" font-size="14.00" fill="red">ouro&#45;</text>
</g>
<!-- ouraG&#45;&gt;ouroG -->
<g id="edge26" class="edge">
<title>ouraG&#45;&gt;ouroG</title>
<path fill="none" stroke="black" d="M429.11,-469.78C429.32,-461.68 429.57,-452.52 429.79,-444.12"/>
<polygon fill="black" stroke="black" points="433.29,-444.13 430.05,-434.04 426.29,-443.95 433.29,-444.13"/>
</g>
<!-- skia -->
<g id="node15" class="node">
<title>skia</title>
<text text-anchor="start" x="333.5" y="-496.8" font-family="Times New Roman,serif" font-size="14.00" fill="red">skiā</text>
<text text-anchor="start" x="326.5" y="-484.4" font-family="Times New Roman,serif" font-size="12.00">shadow</text>
</g>
<!-- skia&#45;&gt;skiourosG -->
<g id="edge15" class="edge">
<title>skia&#45;&gt;skiourosG</title>
<path fill="none" stroke="black" d="M344.5,-475.75C344.5,-466.52 344.5,-454.93 344.5,-444.49"/>
<polygon fill="black" stroke="black" points="348,-444.18 344.5,-434.18 341,-444.18 348,-444.18"/>
</g>
<!-- sciurusL -->
<g id="node17" class="node">
<title>sciurusL</title>
<text text-anchor="start" x="317" y="-341.8" font-family="Times New Roman,serif" font-weight="bold" font-size="14.00">Latin</text>
<text text-anchor="start" x="289.5" y="-327.8" font-family="Times New Roman,serif" font-size="14.00" fill="red">sciūrus, sūcrius</text>
</g>
<!-- skiourosG&#45;&gt;sciurusL -->
<g id="edge16" class="edge">
<title>skiourosG&#45;&gt;sciurusL</title>
<path fill="none" stroke="black" stroke-dasharray="1,5" d="M342,-397.75C340.65,-388.43 338.96,-376.69 337.43,-366.17"/>
<polygon fill="black" stroke="black" points="340.88,-365.57 335.99,-356.18 333.95,-366.58 340.88,-365.57"/>
</g>
<!-- scuriolusL -->
<g id="node18" class="node">
<title>scuriolusL</title>
<text text-anchor="start" x="306" y="-250.3" font-family="Times New Roman,serif" font-size="14.00" fill="red">scūriolus</text>
</g>
<!-- sciurusL&#45;&gt;scuriolusL -->
<g id="edge17" class="edge">
<title>sciurusL&#45;&gt;scuriolusL</title>
<path fill="none" stroke="black" d="M333.08,-319.61C332.81,-308.77 332.47,-294.6 332.17,-282.29"/>
<polygon fill="black" stroke="black" points="335.66,-282 331.92,-272.08 328.66,-282.17 335.66,-282"/>
</g>
<!-- esquirelAN -->
<g id="node19" class="node">
<title>esquirelAN</title>
<text text-anchor="start" x="285" y="-179.8" font-family="Times New Roman,serif" font-weight="bold" font-size="14.00">Anglo&#45;Norman</text>
<text text-anchor="start" x="309" y="-165.8" font-family="Times New Roman,serif" font-size="14.00" fill="red">esquirel</text>
</g>
<!-- scuriolusL&#45;&gt;esquirelAN -->
<g id="edge18" class="edge">
<title>scuriolusL&#45;&gt;esquirelAN</title>
<path fill="none" stroke="black" d="M331.27,-235.75C331.15,-226.52 331,-214.93 330.86,-204.49"/>
<polygon fill="black" stroke="black" points="334.36,-204.13 330.73,-194.18 327.36,-204.22 334.36,-204.13"/>
</g>
<!-- squirelME -->
<g id="node20" class="node">
<title>squirelME</title>
<text text-anchor="start" x="283" y="-107.8" font-family="Times New Roman,serif" font-weight="bold" font-size="14.00">Middle English</text>
<text text-anchor="start" x="311" y="-93.8" font-family="Times New Roman,serif" font-size="14.00" fill="red">squirel</text>
</g>
<!-- esquirelAN&#45;&gt;squirelME -->
<g id="edge19" class="edge">
<title>esquirelAN&#45;&gt;squirelME</title>
<path fill="none" stroke="black" stroke-dasharray="1,5" d="M330.25,-157.7C330.14,-149.98 330.01,-140.71 329.89,-132.11"/>
<polygon fill="black" stroke="black" points="333.39,-132.05 329.74,-122.1 326.39,-132.15 333.39,-132.05"/>
</g>
<!-- squirrel -->
<g id="node21" class="node">
<title>squirrel</title>
<text text-anchor="start" x="279" y="-28.8" font-family="Times New Roman,serif" font-weight="bold" font-size="14.00">Modern English</text>
<text text-anchor="start" x="307.5" y="-14.8" font-family="Times New Roman,serif" font-size="14.00" fill="red">squirrel</text>
</g>
<!-- squirelME&#45;&gt;squirrel -->
<g id="edge20" class="edge">
<title>squirelME&#45;&gt;squirrel</title>
<path fill="none" stroke="black" d="M329.28,-85.91C329.15,-76.34 329,-64.18 328.85,-53.32"/>
<polygon fill="black" stroke="black" points="332.35,-52.99 328.72,-43.04 325.35,-53.09 332.35,-52.99"/>
</g>
<!-- kuon -->
<g id="node22" class="node">
<title>kuon</title>
<g id="a_node22"><a xlink:href="kwon-dog1.svg" xlink:title="&lt;font color=&quot;red&quot;&gt;kuōn&lt;/font&gt;&lt;br/&gt;&lt;font point&#45;size=&quot;12&quot;&gt;dog&lt;/font&gt;">
<path fill="none" stroke="black" stroke-dasharray="5,2" d="M532.5,-512C532.5,-512 502.5,-512 502.5,-512 496.5,-512 490.5,-506 490.5,-500 490.5,-500 490.5,-488 490.5,-488 490.5,-482 496.5,-476 502.5,-476 502.5,-476 532.5,-476 532.5,-476 538.5,-476 544.5,-482 544.5,-488 544.5,-488 544.5,-500 544.5,-500 544.5,-506 538.5,-512 532.5,-512"/>
<text text-anchor="start" x="503.5" y="-496.8" font-family="Times New Roman,serif" font-size="14.00" fill="red">kuōn</text>
<text text-anchor="start" x="508.5" y="-484.4" font-family="Times New Roman,serif" font-size="12.00">dog</text>
</a>
</g>
</g>
<!-- kuon&#45;&gt;kunosouraG -->
<g id="edge22" class="edge">
<title>kuon&#45;&gt;kunosouraG</title>
<path fill="none" stroke="black" d="M517.5,-475.75C517.5,-466.52 517.5,-454.93 517.5,-444.49"/>
<polygon fill="black" stroke="black" points="521,-444.18 517.5,-434.18 514,-444.18 521,-444.18"/>
</g>
<!-- cynosuraL -->
<g id="node24" class="node">
<title>cynosuraL</title>
<text text-anchor="start" x="507" y="-341.8" font-family="Times New Roman,serif" font-weight="bold" font-size="14.00">Latin</text>
<text text-anchor="start" x="497.5" y="-327.8" font-family="Times New Roman,serif" font-size="14.00" fill="red">cynosūra</text>
</g>
<!-- kunosouraG&#45;&gt;cynosuraL -->
<g id="edge23" class="edge">
<title>kunosouraG&#45;&gt;cynosuraL</title>
<path fill="none" stroke="black" stroke-dasharray="1,5" d="M518.86,-397.75C519.6,-388.43 520.52,-376.69 521.36,-366.17"/>
<polygon fill="black" stroke="black" points="524.85,-366.42 522.14,-356.18 517.87,-365.87 524.85,-366.42"/>
</g>
<!-- cynosureF -->
<g id="node25" class="node">
<title>cynosureF</title>
<text text-anchor="start" x="546.5" y="-179.8" font-family="Times New Roman,serif" font-weight="bold" font-size="14.00">French</text>
<text text-anchor="start" x="542.5" y="-165.8" font-family="Times New Roman,serif" font-size="14.00" fill="red">cynosure</text>
</g>
<!-- cynosuraL&#45;&gt;cynosureF -->
<g id="edge24" class="edge">
<title>cynosuraL&#45;&gt;cynosureF</title>
<path fill="none" stroke="black" d="M528.32,-319.88C536.09,-292.23 551.47,-237.54 560.79,-204.42"/>
<polygon fill="black" stroke="black" points="564.24,-205.06 563.58,-194.48 557.51,-203.16 564.24,-205.06"/>
</g>
<!-- cynosure -->
<g id="node26" class="node">
<title>cynosure</title>
<text text-anchor="start" x="545" y="-28.8" font-family="Times New Roman,serif" font-weight="bold" font-size="14.00">Modern English</text>
<text text-anchor="start" x="568.5" y="-14.8" font-family="Times New Roman,serif" font-size="14.00" fill="red">cynosure</text>
</g>
<!-- cynosureF&#45;&gt;cynosure -->
<g id="edge25" class="edge">
<title>cynosureF&#45;&gt;cynosure</title>
<path fill="none" stroke="black" stroke-dasharray="1,5" d="M571.48,-157.91C575.95,-132.33 584.4,-83.86 589.73,-53.33"/>
<polygon fill="black" stroke="black" points="593.2,-53.8 591.47,-43.35 586.31,-52.6 593.2,-53.8"/>
</g>
<!-- uroNL -->
<g id="node28" class="node">
<title>uroNL</title>
<text text-anchor="start" x="419.5" y="-179.8" font-family="Times New Roman,serif" font-weight="bold" font-size="14.00">New Latin</text>
<text text-anchor="start" x="439.5" y="-165.8" font-family="Times New Roman,serif" font-size="14.00" fill="red">uro&#45;</text>
</g>
<!-- ouroG&#45;&gt;uroNL -->
<g id="edge27" class="edge">
<title>ouroG&#45;&gt;uroNL</title>
<path fill="none" stroke="black" stroke-dasharray="1,5" d="M432.01,-397.88C435.61,-357.07 444.73,-253.76 449.09,-204.26"/>
<polygon fill="black" stroke="black" points="452.58,-204.55 449.98,-194.28 445.61,-203.93 452.58,-204.55"/>
</g>
<!-- uroE -->
<g id="node29" class="node">
<title>uroE</title>
<text text-anchor="start" x="412" y="-35.8" font-family="Times New Roman,serif" font-weight="bold" font-size="14.00">Modern English</text>
<text text-anchor="start" x="449.5" y="-21.8" font-family="Times New Roman,serif" font-size="14.00" fill="red">uro&#45;</text>
<text text-anchor="start" x="443" y="-7.8" font-family="Times New Roman,serif" font-size="14.00" fill="red">&#45;urous</text>
</g>
<!-- uroNL&#45;&gt;uroE -->
<g id="edge28" class="edge">
<title>uroNL&#45;&gt;uroE</title>
<path fill="none" stroke="black" stroke-dasharray="1,5" d="M452.65,-157.91C454.24,-134.18 457.15,-90.74 459.2,-60.21"/>
<polygon fill="black" stroke="black" points="462.71,-60.22 459.89,-50 455.73,-59.75 462.71,-60.22"/>
</g>
</g>
</svg>
