<?xml version="1.0" encoding="UTF-8" standalone="no"?>
<!DOCTYPE svg PUBLIC "-//W3C//DTD SVG 1.1//EN"
 "http://www.w3.org/Graphics/SVG/1.1/DTD/svg11.dtd">
<!-- Generated by graphviz version 2.44.1 (20200629.0846)
 -->
<!-- Pages: 1 -->
<svg width="341pt" height="293pt"
 viewBox="0.00 0.00 341.00 293.00" xmlns="http://www.w3.org/2000/svg" xmlns:xlink="http://www.w3.org/1999/xlink">
<g id="graph0" class="graph" transform="scale(1 1) rotate(0) translate(4 289)">
<polygon fill="white" stroke="transparent" points="-4,4 -4,-289 337,-289 337,4 -4,4"/>
<!-- ped -->
<g id="node1" class="node">
<title>ped</title>
<g id="a_node1"><a xlink:title="Indo&#45;European &quot;ped&#45;&quot; foot">
<polygon fill="none" stroke="black" points="282,-281 71,-281 71,-177 282,-177 282,-281"/>
<polygon fill="none" stroke="black" points="286,-285 67,-285 67,-173 286,-173 286,-285"/>
<text text-anchor="start" x="98.5" y="-236.8" font-family="Times New Roman,serif" font-weight="bold" font-size="24.00">Indo&#45;European</text>
<text text-anchor="start" x="120.5" y="-208.6" font-family="Times New Roman,serif" font-size="18.00" fill="red">ped&#45;</text>
<text text-anchor="start" x="206" y="-209.2" font-family="Times New Roman,serif" font-size="16.00">foot</text>
</a>
</g>
</g>
<!-- link1 -->
<g id="node2" class="node">
<title>link1</title>
<g id="a_node2"><a xlink:href="ped-foot1.svg" xlink:title="pōd&#45;, ped&#45;ero&#45;, ped&#45;el&#45;, ped&#45; (verb)">
<path fill="none" stroke="black" stroke-dasharray="5,2" d="M67,-137C67,-137 12,-137 12,-137 6,-137 0,-131 0,-125 0,-125 0,-12 0,-12 0,-6 6,0 12,0 12,0 67,0 67,0 73,0 79,-6 79,-12 79,-12 79,-125 79,-125 79,-131 73,-137 67,-137"/>
<text text-anchor="start" x="26" y="-114.3" font-family="Times New Roman,serif" font-size="14.00" fill="red">pōd&#45;</text>
<text text-anchor="start" x="15.5" y="-87.3" font-family="Times New Roman,serif" font-size="14.00" fill="red">ped&#45;ero&#45;</text>
<text text-anchor="start" x="20" y="-60.3" font-family="Times New Roman,serif" font-size="14.00" fill="red">ped&#45;el&#45;</text>
<text text-anchor="start" x="27" y="-34.3" font-family="Times New Roman,serif" font-size="14.00" fill="red">ped&#45;</text>
<text text-anchor="start" x="24.5" y="-23.5" font-family="Times New Roman,serif" font-size="10.00">to walk,</text>
<text text-anchor="start" x="15.5" y="-13.5" font-family="Times New Roman,serif" font-size="10.00">stumble, fall</text>
</a>
</g>
</g>
<!-- ped&#45;&gt;link1 -->
<g id="edge1" class="edge">
<title>ped&#45;&gt;link1</title>
<path fill="none" stroke="black" d="M175.5,-172C175.5,-172 121.36,-162.64 88.5,-137 87.9,-136.53 87.31,-136.06 86.71,-135.57"/>
<polygon fill="black" stroke="black" points="89.02,-132.94 79.26,-128.82 84.32,-138.13 89.02,-132.94"/>
</g>
<!-- link2 -->
<g id="node3" class="node">
<title>link2</title>
<g id="a_node3"><a xlink:href="ped-foot2.svg" xlink:title="ped&#45; (base), ped&#45;yo&#45;, ped&#45;ikā&#45;">
<path fill="none" stroke="black" stroke-dasharray="5,2" d="M161.5,-114C161.5,-114 109.5,-114 109.5,-114 103.5,-114 97.5,-108 97.5,-102 97.5,-102 97.5,-35 97.5,-35 97.5,-29 103.5,-23 109.5,-23 109.5,-23 161.5,-23 161.5,-23 167.5,-23 173.5,-29 173.5,-35 173.5,-35 173.5,-102 173.5,-102 173.5,-108 167.5,-114 161.5,-114"/>
<text text-anchor="start" x="122.5" y="-91.3" font-family="Times New Roman,serif" font-size="14.00" fill="red">ped&#45;</text>
<text text-anchor="start" x="113" y="-64.3" font-family="Times New Roman,serif" font-size="14.00" fill="red">ped&#45;yo&#45;</text>
<text text-anchor="start" x="112.5" y="-37.3" font-family="Times New Roman,serif" font-size="14.00" fill="red">ped&#45;ikā&#45;</text>
</a>
</g>
</g>
<!-- ped&#45;&gt;link2 -->
<g id="edge2" class="edge">
<title>ped&#45;&gt;link2</title>
<path fill="none" stroke="black" d="M175.5,-172C175.5,-172 166.23,-148.24 156.61,-123.6"/>
<polygon fill="black" stroke="black" points="159.82,-122.2 152.93,-114.16 153.3,-124.75 159.82,-122.2"/>
</g>
<!-- pod -->
<g id="node4" class="node">
<title>pod</title>
<g id="a_node4"><a xlink:href="ped-foot3.svg" xlink:title="pod&#45;">
<path fill="none" stroke="black" stroke-dasharray="5,2" d="M233.5,-86.5C233.5,-86.5 203.5,-86.5 203.5,-86.5 197.5,-86.5 191.5,-80.5 191.5,-74.5 191.5,-74.5 191.5,-62.5 191.5,-62.5 191.5,-56.5 197.5,-50.5 203.5,-50.5 203.5,-50.5 233.5,-50.5 233.5,-50.5 239.5,-50.5 245.5,-56.5 245.5,-62.5 245.5,-62.5 245.5,-74.5 245.5,-74.5 245.5,-80.5 239.5,-86.5 233.5,-86.5"/>
<text text-anchor="start" x="204.5" y="-64.8" font-family="Times New Roman,serif" font-size="14.00" fill="red">pod&#45;</text>
</a>
</g>
</g>
<!-- ped&#45;&gt;pod -->
<g id="edge3" class="edge">
<title>ped&#45;&gt;pod</title>
<path fill="none" stroke="black" d="M175.5,-172C175.5,-172 194.58,-126.51 207.32,-96.14"/>
<polygon fill="black" stroke="black" points="210.56,-97.46 211.21,-86.89 204.11,-94.76 210.56,-97.46"/>
</g>
<!-- link4 -->
<g id="node5" class="node">
<title>link4</title>
<g id="a_node5"><a xlink:href="ped-foot4.svg" xlink:title="ped&#45;ya, ped&#45;o&#45;, pēd&#45;o&#45;, ped&#45;ī&#45;">
<path fill="none" stroke="black" stroke-dasharray="5,2" d="M321,-127.5C321,-127.5 276,-127.5 276,-127.5 270,-127.5 264,-121.5 264,-115.5 264,-115.5 264,-21.5 264,-21.5 264,-15.5 270,-9.5 276,-9.5 276,-9.5 321,-9.5 321,-9.5 327,-9.5 333,-15.5 333,-21.5 333,-21.5 333,-115.5 333,-115.5 333,-121.5 327,-127.5 321,-127.5"/>
<text text-anchor="start" x="279.5" y="-105.3" font-family="Times New Roman,serif" font-size="14.00" fill="red">ped&#45;ya</text>
<text text-anchor="start" x="280" y="-78.3" font-family="Times New Roman,serif" font-size="14.00" fill="red">ped&#45;o&#45;</text>
<text text-anchor="start" x="280" y="-51.3" font-family="Times New Roman,serif" font-size="14.00" fill="red">pēd&#45;o&#45;</text>
<text text-anchor="start" x="281.5" y="-24.3" font-family="Times New Roman,serif" font-size="14.00" fill="red">ped&#45;ī&#45;</text>
</a>
</g>
</g>
<!-- ped&#45;&gt;link4 -->
<g id="edge4" class="edge">
<title>ped&#45;&gt;link4</title>
<path fill="none" stroke="black" d="M175.5,-172C175.5,-172 225.25,-161.89 254.5,-137 255.22,-136.39 255.94,-135.76 256.64,-135.11"/>
<polygon fill="black" stroke="black" points="259.38,-137.32 263.93,-127.76 254.41,-132.4 259.38,-137.32"/>
</g>
</g>
</svg>
