<?xml version="1.0" encoding="UTF-8" standalone="no"?>
<!DOCTYPE svg PUBLIC "-//W3C//DTD SVG 1.1//EN"
 "http://www.w3.org/Graphics/SVG/1.1/DTD/svg11.dtd">
<!-- Generated by graphviz version 2.49.0 (20210828.1703)
 -->
<!-- Pages: 1 -->
<svg width="920pt" height="844pt"
 viewBox="0.00 0.00 920.00 844.00" xmlns="http://www.w3.org/2000/svg" xmlns:xlink="http://www.w3.org/1999/xlink">
<g id="graph0" class="graph" transform="scale(1 1) rotate(0) translate(4 840)">
<polygon fill="white" stroke="transparent" points="-4,4 -4,-840 916,-840 916,4 -4,4"/>
<!-- ped -->
<g id="node1" class="node">
<title>ped</title>
<g id="a_node1"><a xlink:href="ped-foot0.svg" xlink:title="Indo&#45;European &quot;ped&#45;&quot; foot">
<polygon fill="none" stroke="black" stroke-dasharray="5,2" points="794,-836 583,-836 583,-732 794,-732 794,-836"/>
<text text-anchor="start" x="610.5" y="-791.8" font-family="Times New Roman,serif" font-weight="bold" font-size="24.00">Indo&#45;European</text>
<text text-anchor="start" x="632.5" y="-763.6" font-family="Times New Roman,serif" font-size="18.00" fill="red">ped&#45;</text>
<text text-anchor="start" x="718" y="-764.2" font-family="Times New Roman,serif" font-size="16.00">foot</text>
</a>
</g>
</g>
<!-- pedya -->
<g id="node2" class="node">
<title>pedya</title>
<text text-anchor="start" x="747" y="-668.3" font-family="Times New Roman,serif" font-size="14.00" fill="red">ped&#45;ya</text>
</g>
<!-- ped&#45;&gt;pedya -->
<g id="edge1" class="edge">
<title>ped&#45;&gt;pedya</title>
<path fill="none" stroke="black" d="M683.5,-731C683.5,-731 710.52,-712.12 733.73,-695.9"/>
<polygon fill="black" stroke="black" points="735.85,-698.69 742.05,-690.09 731.84,-692.95 735.85,-698.69"/>
</g>
<!-- pedo -->
<g id="node3" class="node">
<title>pedo</title>
<text text-anchor="start" x="508.5" y="-668.3" font-family="Times New Roman,serif" font-size="14.00" fill="red">ped&#45;o&#45;</text>
</g>
<!-- ped&#45;&gt;pedo -->
<g id="edge2" class="edge">
<title>ped&#45;&gt;pedo</title>
<path fill="none" stroke="black" d="M683.5,-731C683.5,-731 610.17,-703.74 564.06,-686.59"/>
<polygon fill="black" stroke="black" points="565.27,-683.31 554.67,-683.1 562.83,-689.87 565.27,-683.31"/>
</g>
<!-- peedo -->
<g id="node4" class="node">
<title>peedo</title>
<text text-anchor="start" x="669.5" y="-668.3" font-family="Times New Roman,serif" font-size="14.00" fill="red">pēd&#45;o&#45;</text>
</g>
<!-- ped&#45;&gt;peedo -->
<g id="edge3" class="edge">
<title>ped&#45;&gt;peedo</title>
<path fill="none" stroke="black" d="M683.5,-731C683.5,-731 684.85,-715.29 686.15,-700.22"/>
<polygon fill="black" stroke="black" points="689.65,-700.35 687.03,-690.09 682.68,-699.75 689.65,-700.35"/>
</g>
<!-- pezaG -->
<g id="node5" class="node">
<title>pezaG</title>
<text text-anchor="start" x="761.5" y="-590.8" font-family="Times New Roman,serif" font-weight="bold" font-size="14.00">Greek</text>
<text text-anchor="start" x="768.5" y="-576.8" font-family="Times New Roman,serif" font-size="14.00" fill="red">peza</text>
<text text-anchor="start" x="772" y="-564.4" font-family="Times New Roman,serif" font-size="12.00">foot</text>
</g>
<!-- pedya&#45;&gt;pezaG -->
<g id="edge6" class="edge">
<title>pedya&#45;&gt;pezaG</title>
<path fill="none" stroke="black" d="M769.39,-653.84C771.23,-642.92 773.68,-628.41 775.89,-615.29"/>
<polygon fill="black" stroke="black" points="779.38,-615.61 777.6,-605.17 772.48,-614.45 779.38,-615.61"/>
</g>
<!-- pedonG -->
<g id="node11" class="node">
<title>pedonG</title>
<text text-anchor="start" x="342.5" y="-590.8" font-family="Times New Roman,serif" font-weight="bold" font-size="14.00">Greek</text>
<text text-anchor="start" x="344.5" y="-576.8" font-family="Times New Roman,serif" font-size="14.00" fill="red">pedon</text>
<text text-anchor="start" x="340.5" y="-564.4" font-family="Times New Roman,serif" font-size="12.00">soil, earth</text>
</g>
<!-- pedo&#45;&gt;pedonG -->
<g id="edge10" class="edge">
<title>pedo&#45;&gt;pedonG</title>
<path fill="none" stroke="black" d="M520.5,-653C520.5,-653 448.67,-620.72 401.87,-599.69"/>
<polygon fill="black" stroke="black" points="403.15,-596.43 392.59,-595.52 400.28,-602.81 403.15,-596.43"/>
</g>
<!-- padamS -->
<g id="node25" class="node">
<title>padamS</title>
<text text-anchor="start" x="558.5" y="-597.8" font-family="Times New Roman,serif" font-weight="bold" font-size="14.00">Sanskrit</text>
<text text-anchor="start" x="565.5" y="-583.8" font-family="Times New Roman,serif" font-size="14.00" fill="red">padam</text>
<text text-anchor="start" x="559" y="-569.8" font-family="Times New Roman,serif" font-size="14.00" fill="red">padakam</text>
<text text-anchor="start" x="554" y="-557.4" font-family="Times New Roman,serif" font-size="12.00">footstep, foot</text>
</g>
<!-- pedo&#45;&gt;padamS -->
<g id="edge24" class="edge">
<title>pedo&#45;&gt;padamS</title>
<path fill="none" stroke="black" d="M520.5,-653C520.5,-653 535.1,-636.8 550.35,-619.88"/>
<polygon fill="black" stroke="black" points="553.26,-621.88 557.36,-612.11 548.06,-617.19 553.26,-621.88"/>
</g>
<!-- padII -->
<g id="node28" class="node">
<title>padII</title>
<text text-anchor="start" x="463" y="-597.8" font-family="Times New Roman,serif" font-weight="bold" font-size="14.00">Indo&#45;</text>
<text text-anchor="start" x="456.5" y="-583.8" font-family="Times New Roman,serif" font-weight="bold" font-size="14.00">Iranian</text>
<text text-anchor="start" x="466.5" y="-569.8" font-family="Times New Roman,serif" font-size="14.00" fill="red">pad&#45;</text>
<text text-anchor="start" x="470" y="-557.4" font-family="Times New Roman,serif" font-size="12.00">foot</text>
</g>
<!-- pedo&#45;&gt;padII -->
<g id="edge27" class="edge">
<title>pedo&#45;&gt;padII</title>
<path fill="none" stroke="black" d="M520.5,-653C520.5,-653 511.48,-637.38 501.9,-620.79"/>
<polygon fill="black" stroke="black" points="504.92,-619.02 496.89,-612.11 498.86,-622.52 504.92,-619.02"/>
</g>
<!-- peedonG -->
<g id="node37" class="node">
<title>peedonG</title>
<text text-anchor="start" x="668.5" y="-596.8" font-family="Times New Roman,serif" font-weight="bold" font-size="14.00">Greek</text>
<text text-anchor="start" x="670.5" y="-582.8" font-family="Times New Roman,serif" font-size="14.00" fill="red">pēdon</text>
<text text-anchor="start" x="667" y="-570.4" font-family="Times New Roman,serif" font-size="12.00">oar blade</text>
<text text-anchor="start" x="673" y="-558.4" font-family="Times New Roman,serif" font-size="12.00">rudder</text>
</g>
<!-- peedo&#45;&gt;peedonG -->
<g id="edge36" class="edge">
<title>peedo&#45;&gt;peedonG</title>
<path fill="none" stroke="black" d="M688.5,-653.84C688.5,-644.56 688.5,-632.69 688.5,-621.28"/>
<polygon fill="black" stroke="black" points="692,-621.02 688.5,-611.02 685,-621.02 692,-621.02"/>
</g>
<!-- trapezaG -->
<g id="node6" class="node">
<title>trapezaG</title>
<text text-anchor="start" x="797.5" y="-497.8" font-family="Times New Roman,serif" font-size="14.00" fill="red">trapeza</text>
<text text-anchor="start" x="806.5" y="-485.4" font-family="Times New Roman,serif" font-size="12.00">table</text>
<text text-anchor="start" x="791.5" y="-471.8" font-family="Times New Roman,serif" font-size="14.00" fill="red">trapezion</text>
<text text-anchor="start" x="791" y="-459.4" font-family="Times New Roman,serif" font-size="12.00">(diminutive)</text>
</g>
<!-- pezaG&#45;&gt;trapezaG -->
<g id="edge7" class="edge">
<title>pezaG&#45;&gt;trapezaG</title>
<path fill="none" stroke="black" d="M794.92,-556.94C801.97,-544.83 810.2,-530.69 815.38,-521.79"/>
<polygon fill="black" stroke="black" points="818.49,-523.4 820.5,-513 812.44,-519.88 818.49,-523.4"/>
</g>
<!-- traG -->
<g id="node10" class="node">
<title>traG</title>
<text text-anchor="start" x="853.5" y="-584.8" font-family="Times New Roman,serif" font-weight="bold" font-size="14.00">Greek</text>
<text text-anchor="start" x="864" y="-570.8" font-family="Times New Roman,serif" font-size="14.00" fill="red">tra&#45;</text>
</g>
<!-- pezaG&#45;&gt;traG -->
<!-- trapeziumL -->
<g id="node7" class="node">
<title>trapeziumL</title>
<text text-anchor="start" x="801" y="-331.8" font-family="Times New Roman,serif" font-weight="bold" font-size="14.00">Latin</text>
<text text-anchor="start" x="790" y="-317.8" font-family="Times New Roman,serif" font-size="14.00" fill="red">trapezium</text>
<text text-anchor="start" x="796" y="-305.4" font-family="Times New Roman,serif" font-size="12.00">trapezoid</text>
</g>
<!-- trapezaG&#45;&gt;trapeziumL -->
<g id="edge8" class="edge">
<title>trapezaG&#45;&gt;trapeziumL</title>
<path fill="none" stroke="black" stroke-dasharray="1,5" d="M817.5,-451.65C817.5,-424.59 817.5,-384.45 817.5,-356.22"/>
<polygon fill="black" stroke="black" points="821,-356.04 817.5,-346.04 814,-356.04 821,-356.04"/>
</g>
<!-- trapezium -->
<g id="node8" class="node">
<title>trapezium</title>
<text text-anchor="start" x="793" y="-91.8" font-family="Times New Roman,serif" font-weight="bold" font-size="14.00">Modern</text>
<text text-anchor="start" x="794.5" y="-77.8" font-family="Times New Roman,serif" font-weight="bold" font-size="14.00">English</text>
<text text-anchor="start" x="790" y="-63.8" font-family="Times New Roman,serif" font-size="14.00" fill="red">trapezium</text>
<text text-anchor="start" x="792.5" y="-49.8" font-family="Times New Roman,serif" font-size="14.00" fill="red">trapezius</text>
<text text-anchor="start" x="791.5" y="-35.8" font-family="Times New Roman,serif" font-size="14.00" fill="red">trapezoid</text>
<text text-anchor="start" x="797.5" y="-21.8" font-family="Times New Roman,serif" font-size="14.00" fill="red">trapeze</text>
<text text-anchor="start" x="777" y="-7.8" font-family="Times New Roman,serif" font-size="14.00" fill="red">trapezohedron</text>
</g>
<!-- trapeziumL&#45;&gt;trapezium -->
<g id="edge9" class="edge">
<title>trapeziumL&#45;&gt;trapezium</title>
<path fill="none" stroke="black" stroke-dasharray="1,5" d="M817.5,-297.77C817.5,-257.68 817.5,-174.21 817.5,-116.18"/>
<polygon fill="black" stroke="black" points="821,-116.02 817.5,-106.02 814,-116.02 821,-116.02"/>
</g>
<!-- kwetwerIE -->
<g id="node9" class="node">
<title>kwetwerIE</title>
<g id="a_node9"><a xlink:href="kwetwer-four.svg" xlink:title="&lt;b&gt;Indo&#45;&lt;br/&gt;European&lt;/b&gt;&lt;br/&gt;&lt;font color=&quot;red&quot;&gt;kʷetwer&#45;&lt;/font&gt;&lt;br/&gt;&lt;font point&#45;size=&quot;12&quot;&gt;four&lt;/font&gt;">
<path fill="none" stroke="black" stroke-dasharray="5,2" d="M900,-815C900,-815 847,-815 847,-815 841,-815 835,-809 835,-803 835,-803 835,-765 835,-765 835,-759 841,-753 847,-753 847,-753 900,-753 900,-753 906,-753 912,-759 912,-765 912,-765 912,-803 912,-803 912,-809 906,-815 900,-815"/>
<text text-anchor="start" x="857" y="-800.8" font-family="Times New Roman,serif" font-weight="bold" font-size="14.00">Indo&#45;</text>
<text text-anchor="start" x="843" y="-786.8" font-family="Times New Roman,serif" font-weight="bold" font-size="14.00">European</text>
<text text-anchor="start" x="849.5" y="-772.8" font-family="Times New Roman,serif" font-size="14.00" fill="red">kʷetwer&#45;</text>
<text text-anchor="start" x="864" y="-760.4" font-family="Times New Roman,serif" font-size="12.00">four</text>
</a>
</g>
</g>
<!-- kwetwerIE&#45;&gt;traG -->
<g id="edge4" class="edge">
<title>kwetwerIE&#45;&gt;traG</title>
<path fill="none" stroke="black" d="M873.5,-752.91C873.5,-714.03 873.5,-646.92 873.5,-609.4"/>
<polygon fill="black" stroke="black" points="877,-609.21 873.5,-599.21 870,-609.21 877,-609.21"/>
</g>
<!-- traG&#45;&gt;trapezaG -->
<g id="edge5" class="edge">
<title>traG&#45;&gt;trapezaG</title>
<path fill="none" stroke="black" d="M859.85,-562.75C849.18,-549.25 834.83,-531.12 826.74,-520.89"/>
<polygon fill="black" stroke="black" points="829.45,-518.67 820.5,-513 823.96,-523.01 829.45,-518.67"/>
</g>
<!-- pedoE -->
<g id="node12" class="node">
<title>pedoE</title>
<text text-anchor="start" x="311" y="-69.8" font-family="Times New Roman,serif" font-weight="bold" font-size="14.00">Modern</text>
<text text-anchor="start" x="312.5" y="-55.8" font-family="Times New Roman,serif" font-weight="bold" font-size="14.00">English</text>
<text text-anchor="start" x="318.5" y="-41.8" font-family="Times New Roman,serif" font-size="14.00" fill="red">pedo&#45;</text>
<text text-anchor="start" x="327.5" y="-29.4" font-family="Times New Roman,serif" font-size="12.00">soil</text>
</g>
<!-- pedonG&#45;&gt;pedoE -->
<g id="edge11" class="edge">
<title>pedonG&#45;&gt;pedoE</title>
<path fill="none" stroke="black" stroke-dasharray="1,5" d="M351.5,-556C351.5,-556 335.5,-516.21 335.5,-483 335.5,-483 335.5,-483 335.5,-181 335.5,-151.96 335.5,-119.2 335.5,-94.22"/>
<polygon fill="black" stroke="black" points="339,-94.02 335.5,-84.02 332,-94.02 339,-94.02"/>
</g>
<!-- epipedonG -->
<g id="node15" class="node">
<title>epipedonG</title>
<text text-anchor="start" x="230.5" y="-484.8" font-family="Times New Roman,serif" font-size="14.00" fill="red">epipedon</text>
<text text-anchor="start" x="226.5" y="-472.4" font-family="Times New Roman,serif" font-size="12.00">plane surface</text>
</g>
<!-- pedonG&#45;&gt;epipedonG -->
<g id="edge14" class="edge">
<title>pedonG&#45;&gt;epipedonG</title>
<path fill="none" stroke="black" d="M351.5,-556C351.5,-556 295.17,-520.39 273.16,-506.47"/>
<polygon fill="black" stroke="black" points="274.82,-503.39 264.5,-501 271.08,-509.3 274.82,-503.39"/>
</g>
<!-- pedonG&#45;&gt;padII -->
<!-- epiIE -->
<g id="node13" class="node">
<title>epiIE</title>
<g id="a_node13"><a xlink:href="epi-near.svg" xlink:title="&lt;b&gt;Indo&#45;&lt;br/&gt;European&lt;/b&gt;&lt;br/&gt;&lt;font color=&quot;red&quot;&gt;epi, opi&lt;/font&gt;&lt;br/&gt;&lt;font point&#45;size=&quot;12&quot;&gt;near, at,&lt;br/&gt;against&lt;/font&gt;">
<path fill="none" stroke="black" stroke-dasharray="5,2" d="M283,-821C283,-821 230,-821 230,-821 224,-821 218,-815 218,-809 218,-809 218,-759 218,-759 218,-753 224,-747 230,-747 230,-747 283,-747 283,-747 289,-747 295,-753 295,-759 295,-759 295,-809 295,-809 295,-815 289,-821 283,-821"/>
<text text-anchor="start" x="240" y="-806.8" font-family="Times New Roman,serif" font-weight="bold" font-size="14.00">Indo&#45;</text>
<text text-anchor="start" x="226" y="-792.8" font-family="Times New Roman,serif" font-weight="bold" font-size="14.00">European</text>
<text text-anchor="start" x="235" y="-778.8" font-family="Times New Roman,serif" font-size="14.00" fill="red">epi, opi</text>
<text text-anchor="start" x="238" y="-766.4" font-family="Times New Roman,serif" font-size="12.00">near, at,</text>
<text text-anchor="start" x="241" y="-754.4" font-family="Times New Roman,serif" font-size="12.00">against</text>
</a>
</g>
</g>
<!-- epiG -->
<g id="node14" class="node">
<title>epiG</title>
<text text-anchor="start" x="236.5" y="-590.8" font-family="Times New Roman,serif" font-weight="bold" font-size="14.00">Greek</text>
<text text-anchor="start" x="245.5" y="-576.8" font-family="Times New Roman,serif" font-size="14.00" fill="red">epi&#45;</text>
<text text-anchor="start" x="224.5" y="-564.4" font-family="Times New Roman,serif" font-size="12.00">on, near, after</text>
</g>
<!-- epiIE&#45;&gt;epiG -->
<g id="edge12" class="edge">
<title>epiIE&#45;&gt;epiG</title>
<path fill="none" stroke="black" d="M256.5,-746.6C256.5,-709.22 256.5,-651.55 256.5,-615.33"/>
<polygon fill="black" stroke="black" points="260,-615.27 256.5,-605.27 253,-615.27 260,-615.27"/>
</g>
<!-- epiG&#45;&gt;pedonG -->
<!-- epiG&#45;&gt;epipedonG -->
<g id="edge13" class="edge">
<title>epiG&#45;&gt;epipedonG</title>
<path fill="none" stroke="black" d="M258.86,-556.72C260.39,-541.61 262.31,-522.67 263.47,-511.22"/>
<polygon fill="black" stroke="black" points="266.97,-511.3 264.5,-501 260.01,-510.6 266.97,-511.3"/>
</g>
<!-- parapedG -->
<g id="node23" class="node">
<title>parapedG</title>
<text text-anchor="start" x="114" y="-258.3" font-family="Times New Roman,serif" font-size="14.00" fill="red">parallelepiped</text>
</g>
<!-- epipedonG&#45;&gt;parapedG -->
<g id="edge22" class="edge">
<title>epipedonG&#45;&gt;parapedG</title>
<path fill="none" stroke="black" d="M249.82,-463.99C236.53,-430.92 204.98,-356.09 169.5,-298 167.56,-294.83 165.16,-291.54 162.94,-288.71"/>
<polygon fill="black" stroke="black" points="165.6,-286.43 156.5,-281 160.22,-290.92 165.6,-286.43"/>
</g>
<!-- perIE -->
<g id="node16" class="node">
<title>perIE</title>
<g id="a_node16"><a xlink:href="per-prea.svg" xlink:title="&lt;b&gt;Indo&#45;&lt;br/&gt;European&lt;/b&gt;&lt;br/&gt;&lt;font color=&quot;red&quot;&gt;per&lt;/font&gt;&lt;br/&gt;&lt;font point&#45;size=&quot;12&quot;&gt;(various&lt;br/&gt;prepositions)&lt;/font&gt;">
<path fill="none" stroke="black" stroke-dasharray="5,2" d="M71,-821C71,-821 18,-821 18,-821 12,-821 6,-815 6,-809 6,-809 6,-759 6,-759 6,-753 12,-747 18,-747 18,-747 71,-747 71,-747 77,-747 83,-753 83,-759 83,-759 83,-809 83,-809 83,-815 77,-821 71,-821"/>
<text text-anchor="start" x="28" y="-806.8" font-family="Times New Roman,serif" font-weight="bold" font-size="14.00">Indo&#45;</text>
<text text-anchor="start" x="14" y="-792.8" font-family="Times New Roman,serif" font-weight="bold" font-size="14.00">European</text>
<text text-anchor="start" x="35" y="-778.8" font-family="Times New Roman,serif" font-size="14.00" fill="red">per</text>
<text text-anchor="start" x="26" y="-766.4" font-family="Times New Roman,serif" font-size="12.00">(various</text>
<text text-anchor="start" x="15" y="-754.4" font-family="Times New Roman,serif" font-size="12.00">prepositions)</text>
</a>
</g>
</g>
<!-- paraG -->
<g id="node17" class="node">
<title>paraG</title>
<text text-anchor="start" x="24.5" y="-596.8" font-family="Times New Roman,serif" font-weight="bold" font-size="14.00">Greek</text>
<text text-anchor="start" x="32" y="-582.8" font-family="Times New Roman,serif" font-size="14.00" fill="red">para</text>
<text text-anchor="start" x="8" y="-570.4" font-family="Times New Roman,serif" font-size="12.00">beside, beyond,</text>
<text text-anchor="start" x="33" y="-558.4" font-family="Times New Roman,serif" font-size="12.00">extra</text>
</g>
<!-- perIE&#45;&gt;paraG -->
<g id="edge15" class="edge">
<title>perIE&#45;&gt;paraG</title>
<path fill="none" stroke="black" d="M44.5,-746.6C44.5,-711.28 44.5,-657.84 44.5,-621.5"/>
<polygon fill="black" stroke="black" points="48,-621.28 44.5,-611.28 41,-621.28 48,-621.28"/>
</g>
<!-- allosG -->
<g id="node20" class="node">
<title>allosG</title>
<text text-anchor="start" x="132.5" y="-590.8" font-family="Times New Roman,serif" font-weight="bold" font-size="14.00">Greek</text>
<text text-anchor="start" x="139.5" y="-576.8" font-family="Times New Roman,serif" font-size="14.00" fill="red">allos</text>
<text text-anchor="start" x="140.5" y="-564.4" font-family="Times New Roman,serif" font-size="12.00">other</text>
</g>
<!-- paraG&#45;&gt;allosG -->
<!-- parallelosG -->
<g id="node22" class="node">
<title>parallelosG</title>
<text text-anchor="start" x="126" y="-391.8" font-family="Times New Roman,serif" font-size="14.00" fill="red">parallēlos</text>
<text text-anchor="start" x="136" y="-379.4" font-family="Times New Roman,serif" font-size="12.00">parallel</text>
</g>
<!-- paraG&#45;&gt;parallelosG -->
<g id="edge19" class="edge">
<title>paraG&#45;&gt;parallelosG</title>
<path fill="none" stroke="black" d="M53.92,-550.91C63.58,-523.6 80.32,-482.38 102.5,-451 113.1,-436 129.47,-421.96 139.27,-414.22"/>
<polygon fill="black" stroke="black" points="141.63,-416.82 147.5,-408 137.41,-411.23 141.63,-416.82"/>
</g>
<!-- alIE -->
<g id="node18" class="node">
<title>alIE</title>
<g id="a_node18"><a xlink:href="al-beyond.svg" xlink:title="&lt;b&gt;Indo&#45;&lt;br/&gt;European&lt;/b&gt;&lt;br/&gt;&lt;font color=&quot;red&quot;&gt;al&#45;&lt;/font&gt;&lt;br/&gt;&lt;font point&#45;size=&quot;12&quot;&gt;beyond&lt;/font&gt;">
<path fill="none" stroke="black" stroke-dasharray="5,2" d="M179,-815C179,-815 126,-815 126,-815 120,-815 114,-809 114,-803 114,-803 114,-765 114,-765 114,-759 120,-753 126,-753 126,-753 179,-753 179,-753 185,-753 191,-759 191,-765 191,-765 191,-803 191,-803 191,-809 185,-815 179,-815"/>
<text text-anchor="start" x="136" y="-800.8" font-family="Times New Roman,serif" font-weight="bold" font-size="14.00">Indo&#45;</text>
<text text-anchor="start" x="122" y="-786.8" font-family="Times New Roman,serif" font-weight="bold" font-size="14.00">European</text>
<text text-anchor="start" x="145.5" y="-772.8" font-family="Times New Roman,serif" font-size="14.00" fill="red">al&#45;</text>
<text text-anchor="start" x="135.5" y="-760.4" font-family="Times New Roman,serif" font-size="12.00">beyond</text>
</a>
</g>
</g>
<!-- alyoIE -->
<g id="node19" class="node">
<title>alyoIE</title>
<text text-anchor="start" x="138.5" y="-680.8" font-family="Times New Roman,serif" font-size="14.00" fill="red">alyo&#45;</text>
<text text-anchor="start" x="134.5" y="-668.4" font-family="Times New Roman,serif" font-size="12.00">other of</text>
<text text-anchor="start" x="119.5" y="-656.4" font-family="Times New Roman,serif" font-size="12.00">more than two</text>
</g>
<!-- alIE&#45;&gt;alyoIE -->
<g id="edge16" class="edge">
<title>alIE&#45;&gt;alyoIE</title>
<path fill="none" stroke="black" d="M152.5,-752.94C152.5,-738.3 152.5,-720.67 152.5,-705.7"/>
<polygon fill="black" stroke="black" points="156,-705.34 152.5,-695.34 149,-705.34 156,-705.34"/>
</g>
<!-- alyoIE&#45;&gt;allosG -->
<g id="edge17" class="edge">
<title>alyoIE&#45;&gt;allosG</title>
<path fill="none" stroke="black" d="M152.5,-649C152.5,-638.94 152.5,-626.79 152.5,-615.62"/>
<polygon fill="black" stroke="black" points="156,-615.3 152.5,-605.3 149,-615.3 156,-615.3"/>
</g>
<!-- allosG&#45;&gt;epiG -->
<!-- allelonG -->
<g id="node21" class="node">
<title>allelonG</title>
<text text-anchor="start" x="134.5" y="-484.8" font-family="Times New Roman,serif" font-size="14.00" fill="red">allēlōn</text>
<text text-anchor="start" x="119.5" y="-472.4" font-family="Times New Roman,serif" font-size="12.00">of one another</text>
</g>
<!-- allosG&#45;&gt;allelonG -->
<g id="edge18" class="edge">
<title>allosG&#45;&gt;allelonG</title>
<path fill="none" stroke="black" d="M152.5,-556.52C152.5,-542.67 152.5,-525.07 152.5,-510.56"/>
<polygon fill="black" stroke="black" points="156,-510.18 152.5,-500.18 149,-510.18 156,-510.18"/>
</g>
<!-- allelonG&#45;&gt;parallelosG -->
<g id="edge20" class="edge">
<title>allelonG&#45;&gt;parallelosG</title>
<path fill="none" stroke="black" d="M151.32,-463.7C150.34,-449.53 149,-429.97 148.2,-418.2"/>
<polygon fill="black" stroke="black" points="151.68,-417.74 147.5,-408 144.69,-418.22 151.68,-417.74"/>
</g>
<!-- parallelosG&#45;&gt;parapedG -->
<g id="edge21" class="edge">
<title>parallelosG&#45;&gt;parapedG</title>
<path fill="none" stroke="black" d="M153.14,-370.81C153.99,-348.24 155.44,-309.36 156.12,-291.06"/>
<polygon fill="black" stroke="black" points="159.62,-291.12 156.5,-281 152.63,-290.86 159.62,-291.12"/>
</g>
<!-- parapedE -->
<g id="node24" class="node">
<title>parapedE</title>
<text text-anchor="start" x="128" y="-75.8" font-family="Times New Roman,serif" font-weight="bold" font-size="14.00">Modern</text>
<text text-anchor="start" x="129.5" y="-61.8" font-family="Times New Roman,serif" font-weight="bold" font-size="14.00">English</text>
<text text-anchor="start" x="114" y="-47.8" font-family="Times New Roman,serif" font-size="14.00" fill="red">parallelepiped</text>
<text text-anchor="start" x="118" y="-35.4" font-family="Times New Roman,serif" font-size="12.00">geometric solid</text>
<text text-anchor="start" x="98" y="-23.4" font-family="Times New Roman,serif" font-size="12.00">with parallelogram faces</text>
</g>
<!-- parapedG&#45;&gt;parapedE -->
<g id="edge23" class="edge">
<title>parapedG&#45;&gt;parapedE</title>
<path fill="none" stroke="black" stroke-dasharray="1,5" d="M152.5,-243.71C152.5,-212.52 152.5,-145.87 152.5,-100.48"/>
<polygon fill="black" stroke="black" points="156,-100.29 152.5,-90.29 149,-100.29 156,-100.29"/>
</g>
<!-- pagH -->
<g id="node26" class="node">
<title>pagH</title>
<text text-anchor="start" x="567.5" y="-185.8" font-family="Times New Roman,serif" font-weight="bold" font-size="14.00">Hindi</text>
<text text-anchor="start" x="574" y="-171.8" font-family="Times New Roman,serif" font-size="14.00" fill="red">pag</text>
</g>
<!-- padamS&#45;&gt;pagH -->
<g id="edge25" class="edge">
<title>padamS&#45;&gt;pagH</title>
<path fill="none" stroke="black" d="M584.5,-549.85C584.5,-530.7 584.5,-505.4 584.5,-483 584.5,-483 584.5,-483 584.5,-261 584.5,-244.11 584.5,-225.16 584.5,-210.17"/>
<polygon fill="black" stroke="black" points="588,-210.04 584.5,-200.04 581,-210.04 588,-210.04"/>
</g>
<!-- padamS&#45;&gt;peedonG -->
<!-- pug -->
<g id="node27" class="node">
<title>pug</title>
<text text-anchor="start" x="560" y="-75.8" font-family="Times New Roman,serif" font-weight="bold" font-size="14.00">Modern</text>
<text text-anchor="start" x="561.5" y="-61.8" font-family="Times New Roman,serif" font-weight="bold" font-size="14.00">English</text>
<text text-anchor="start" x="573.5" y="-47.8" font-family="Times New Roman,serif" font-size="14.00" fill="red">pug</text>
<text text-anchor="start" x="570" y="-35.4" font-family="Times New Roman,serif" font-size="12.00">animal</text>
<text text-anchor="start" x="565" y="-23.4" font-family="Times New Roman,serif" font-size="12.00">footprint</text>
</g>
<!-- pagH&#45;&gt;pug -->
<g id="edge26" class="edge">
<title>pagH&#45;&gt;pug</title>
<path fill="none" stroke="black" stroke-dasharray="1,5" d="M584.5,-163.87C584.5,-147.62 584.5,-122.47 584.5,-100.32"/>
<polygon fill="black" stroke="black" points="588,-100.08 584.5,-90.08 581,-100.08 588,-100.08"/>
<text text-anchor="middle" x="588" y="-127.8" font-family="Times New Roman,serif" font-size="14.00">?</text>
</g>
<!-- padII&#45;&gt;padamS -->
<!-- paiMP -->
<g id="node29" class="node">
<title>paiMP</title>
<text text-anchor="start" x="480" y="-498.8" font-family="Times New Roman,serif" font-weight="bold" font-size="14.00">Middle</text>
<text text-anchor="start" x="478" y="-484.8" font-family="Times New Roman,serif" font-weight="bold" font-size="14.00">Persian</text>
<text text-anchor="start" x="492" y="-470.8" font-family="Times New Roman,serif" font-size="14.00" fill="red">pāī</text>
<text text-anchor="start" x="495" y="-458.4" font-family="Times New Roman,serif" font-size="12.00">leg</text>
</g>
<!-- padII&#45;&gt;paiMP -->
<g id="edge28" class="edge">
<title>padII&#45;&gt;paiMP</title>
<path fill="none" stroke="black" d="M486.34,-549.84C488.26,-541.35 490.39,-531.99 492.42,-523.03"/>
<polygon fill="black" stroke="black" points="495.87,-523.67 494.66,-513.14 489.04,-522.12 495.87,-523.67"/>
</g>
<!-- paijamaH -->
<g id="node30" class="node">
<title>paijamaH</title>
<text text-anchor="start" x="484.5" y="-191.8" font-family="Times New Roman,serif" font-weight="bold" font-size="14.00">Hindi</text>
<text text-anchor="start" x="478" y="-177.8" font-family="Times New Roman,serif" font-size="14.00" fill="red">pāi&#45;jāma</text>
<text text-anchor="start" x="475.5" y="-165.4" font-family="Times New Roman,serif" font-size="12.00">loose pants</text>
</g>
<!-- paiMP&#45;&gt;paijamaH -->
<g id="edge29" class="edge">
<title>paiMP&#45;&gt;paijamaH</title>
<path fill="none" stroke="black" stroke-dasharray="1,5" d="M489.5,-450C489.5,-450 496.77,-288.22 499.99,-216.52"/>
<polygon fill="black" stroke="black" points="503.5,-216.37 500.46,-206.23 496.51,-216.06 503.5,-216.37"/>
</g>
<!-- sipayaP -->
<g id="node34" class="node">
<title>sipayaP</title>
<text text-anchor="start" x="400.5" y="-385.3" font-family="Times New Roman,serif" font-size="14.00" fill="red">si&#45;payā</text>
</g>
<!-- paiMP&#45;&gt;sipayaP -->
<g id="edge33" class="edge">
<title>paiMP&#45;&gt;sipayaP</title>
<path fill="none" stroke="black" d="M489.5,-450C489.5,-450 452.78,-425.13 435.86,-413.66"/>
<polygon fill="black" stroke="black" points="437.74,-410.71 427.5,-408 433.82,-416.51 437.74,-410.71"/>
</g>
<!-- pajamas -->
<g id="node31" class="node">
<title>pajamas</title>
<text text-anchor="start" x="477" y="-70.8" font-family="Times New Roman,serif" font-weight="bold" font-size="14.00">Modern</text>
<text text-anchor="start" x="478.5" y="-56.8" font-family="Times New Roman,serif" font-weight="bold" font-size="14.00">English</text>
<text text-anchor="start" x="478.5" y="-42.8" font-family="Times New Roman,serif" font-size="14.00" fill="red">pajamas</text>
<text text-anchor="start" x="478.5" y="-28.8" font-family="Times New Roman,serif" font-size="14.00" fill="red">pyjamas</text>
</g>
<!-- paijamaH&#45;&gt;pajamas -->
<g id="edge30" class="edge">
<title>paijamaH&#45;&gt;pajamas</title>
<path fill="none" stroke="black" stroke-dasharray="1,5" d="M501.5,-157.71C501.5,-140.31 501.5,-116.07 501.5,-95.4"/>
<polygon fill="black" stroke="black" points="505,-95.28 501.5,-85.28 498,-95.28 505,-95.28"/>
</g>
<!-- treiIE -->
<g id="node32" class="node">
<title>treiIE</title>
<g id="a_node32"><a xlink:href="trei-three2.svg" xlink:title="&lt;b&gt;Indo&#45;&lt;br/&gt;European&lt;/b&gt;&lt;br/&gt;&lt;font color=&quot;red&quot;&gt;trei&#45;&lt;/font&gt;&lt;br/&gt;&lt;font point&#45;size=&quot;12&quot;&gt;three&lt;/font&gt;">
<path fill="none" stroke="black" stroke-dasharray="5,2" d="M447,-815C447,-815 394,-815 394,-815 388,-815 382,-809 382,-803 382,-803 382,-765 382,-765 382,-759 388,-753 394,-753 394,-753 447,-753 447,-753 453,-753 459,-759 459,-765 459,-765 459,-803 459,-803 459,-809 453,-815 447,-815"/>
<text text-anchor="start" x="404" y="-800.8" font-family="Times New Roman,serif" font-weight="bold" font-size="14.00">Indo&#45;</text>
<text text-anchor="start" x="390" y="-786.8" font-family="Times New Roman,serif" font-weight="bold" font-size="14.00">European</text>
<text text-anchor="start" x="409.5" y="-772.8" font-family="Times New Roman,serif" font-size="14.00" fill="red">trei&#45;</text>
<text text-anchor="start" x="409" y="-760.4" font-family="Times New Roman,serif" font-size="12.00">three</text>
</a>
</g>
</g>
<!-- siP -->
<g id="node33" class="node">
<title>siP</title>
<text text-anchor="start" x="397" y="-491.8" font-family="Times New Roman,serif" font-weight="bold" font-size="14.00">Persian</text>
<text text-anchor="start" x="415.5" y="-477.8" font-family="Times New Roman,serif" font-size="14.00" fill="red">si</text>
<text text-anchor="start" x="409" y="-465.4" font-family="Times New Roman,serif" font-size="12.00">three</text>
</g>
<!-- treiIE&#45;&gt;siP -->
<g id="edge31" class="edge">
<title>treiIE&#45;&gt;siP</title>
<path fill="none" stroke="black" d="M420.5,-752.86C420.5,-696.49 420.5,-575.49 420.5,-516.59"/>
<polygon fill="black" stroke="black" points="424,-516.34 420.5,-506.34 417,-516.34 424,-516.34"/>
</g>
<!-- siP&#45;&gt;sipayaP -->
<g id="edge32" class="edge">
<title>siP&#45;&gt;sipayaP</title>
<path fill="none" stroke="black" d="M422.71,-457.9C424,-444.54 425.55,-428.38 426.53,-418.15"/>
<polygon fill="black" stroke="black" points="430.03,-418.29 427.5,-408 423.06,-417.62 430.03,-418.29"/>
</g>
<!-- tipaiH -->
<g id="node35" class="node">
<title>tipaiH</title>
<text text-anchor="start" x="402.5" y="-185.8" font-family="Times New Roman,serif" font-weight="bold" font-size="14.00">Hindi</text>
<text text-anchor="start" x="407" y="-171.8" font-family="Times New Roman,serif" font-size="14.00" fill="red">tipāī</text>
</g>
<!-- sipayaP&#45;&gt;tipaiH -->
<g id="edge34" class="edge">
<title>sipayaP&#45;&gt;tipaiH</title>
<path fill="none" stroke="black" stroke-dasharray="1,5" d="M420.42,-370.87C420.24,-335.3 419.84,-253.16 419.63,-210.24"/>
<polygon fill="black" stroke="black" points="423.13,-210.2 419.58,-200.22 416.13,-210.24 423.13,-210.2"/>
</g>
<!-- teapoy -->
<g id="node36" class="node">
<title>teapoy</title>
<text text-anchor="start" x="394" y="-69.8" font-family="Times New Roman,serif" font-weight="bold" font-size="14.00">Modern</text>
<text text-anchor="start" x="395.5" y="-55.8" font-family="Times New Roman,serif" font-weight="bold" font-size="14.00">English</text>
<text text-anchor="start" x="399.5" y="-41.8" font-family="Times New Roman,serif" font-size="14.00" fill="red">teapoy</text>
<text text-anchor="start" x="395" y="-29.4" font-family="Times New Roman,serif" font-size="12.00">a tea table</text>
</g>
<!-- tipaiH&#45;&gt;teapoy -->
<g id="edge35" class="edge">
<title>tipaiH&#45;&gt;teapoy</title>
<path fill="none" stroke="black" stroke-dasharray="1,5" d="M419.37,-163.87C419.23,-146.18 419,-117.92 418.82,-94.5"/>
<polygon fill="black" stroke="black" points="422.32,-94.44 418.74,-84.47 415.32,-94.49 422.32,-94.44"/>
</g>
<!-- peedonG&#45;&gt;pezaG -->
<!-- pedotesG -->
<g id="node38" class="node">
<title>pedotesG</title>
<text text-anchor="start" x="666" y="-478.3" font-family="Times New Roman,serif" font-size="14.00" fill="red">pēdōtēs</text>
</g>
<!-- peedonG&#45;&gt;pedotesG -->
<g id="edge37" class="edge">
<title>peedonG&#45;&gt;pedotesG</title>
<path fill="none" stroke="black" d="M688.5,-550.9C688.5,-538.12 688.5,-523.2 688.5,-510.6"/>
<polygon fill="black" stroke="black" points="692,-510.24 688.5,-500.24 685,-510.24 692,-510.24"/>
</g>
<!-- pedotaOI -->
<g id="node39" class="node">
<title>pedotaOI</title>
<text text-anchor="start" x="655" y="-399.8" font-family="Times New Roman,serif" font-weight="bold" font-size="14.00">Old Italian</text>
<text text-anchor="start" x="669" y="-385.8" font-family="Times New Roman,serif" font-size="14.00" fill="red">pedota</text>
<text text-anchor="start" x="673" y="-371.8" font-family="Times New Roman,serif" font-size="14.00" fill="red">pilota</text>
</g>
<!-- pedotesG&#45;&gt;pedotaOI -->
<g id="edge38" class="edge">
<title>pedotesG&#45;&gt;pedotaOI</title>
<path fill="none" stroke="black" stroke-dasharray="1,5" d="M688.5,-463.88C688.5,-452.83 688.5,-438.06 688.5,-424.64"/>
<polygon fill="black" stroke="black" points="692,-424.25 688.5,-414.25 685,-424.25 692,-424.25"/>
</g>
<!-- pilotOF -->
<g id="node40" class="node">
<title>pilotOF</title>
<text text-anchor="start" x="653.5" y="-265.8" font-family="Times New Roman,serif" font-weight="bold" font-size="14.00">Old French</text>
<text text-anchor="start" x="676" y="-251.8" font-family="Times New Roman,serif" font-size="14.00" fill="red">pilot</text>
</g>
<!-- pedotaOI&#45;&gt;pilotOF -->
<g id="edge39" class="edge">
<title>pedotaOI&#45;&gt;pilotOF</title>
<path fill="none" stroke="black" stroke-dasharray="1,5" d="M688.5,-363.9C688.5,-342.8 688.5,-312.18 688.5,-290.21"/>
<polygon fill="black" stroke="black" points="692,-290.2 688.5,-280.2 685,-290.2 692,-290.2"/>
</g>
<!-- pilotF -->
<g id="node41" class="node">
<title>pilotF</title>
<text text-anchor="start" x="666.5" y="-192.8" font-family="Times New Roman,serif" font-weight="bold" font-size="14.00">French</text>
<text text-anchor="start" x="660" y="-178.8" font-family="Times New Roman,serif" font-size="14.00">(obsolete)</text>
<text text-anchor="start" x="676" y="-164.8" font-family="Times New Roman,serif" font-size="14.00" fill="red">pilot</text>
</g>
<!-- pilotOF&#45;&gt;pilotF -->
<g id="edge40" class="edge">
<title>pilotOF&#45;&gt;pilotF</title>
<path fill="none" stroke="black" d="M688.5,-243.69C688.5,-235.86 688.5,-226.33 688.5,-217.16"/>
<polygon fill="black" stroke="black" points="692,-217.07 688.5,-207.07 685,-217.07 692,-217.07"/>
</g>
<!-- pilot -->
<g id="node42" class="node">
<title>pilot</title>
<text text-anchor="start" x="664" y="-63.8" font-family="Times New Roman,serif" font-weight="bold" font-size="14.00">Modern</text>
<text text-anchor="start" x="665.5" y="-49.8" font-family="Times New Roman,serif" font-weight="bold" font-size="14.00">English</text>
<text text-anchor="start" x="676" y="-35.8" font-family="Times New Roman,serif" font-size="14.00" fill="red">pilot</text>
</g>
<!-- pilotF&#45;&gt;pilot -->
<g id="edge41" class="edge">
<title>pilotF&#45;&gt;pilot</title>
<path fill="none" stroke="black" stroke-dasharray="1,5" d="M688.5,-156.81C688.5,-137.39 688.5,-109.88 688.5,-88.21"/>
<polygon fill="black" stroke="black" points="692,-88.1 688.5,-78.1 685,-88.1 692,-88.1"/>
</g>
</g>
</svg>
