<?xml version="1.0" encoding="UTF-8" standalone="no"?>
<!DOCTYPE svg PUBLIC "-//W3C//DTD SVG 1.1//EN"
 "http://www.w3.org/Graphics/SVG/1.1/DTD/svg11.dtd">
<!-- Generated by graphviz version 2.44.1 (20200629.0846)
 -->
<!-- Pages: 1 -->
<svg width="1192pt" height="792pt"
 viewBox="0.00 0.00 1191.50 792.00" xmlns="http://www.w3.org/2000/svg" xmlns:xlink="http://www.w3.org/1999/xlink">
<g id="graph0" class="graph" transform="scale(1 1) rotate(0) translate(4 788)">
<polygon fill="white" stroke="transparent" points="-4,4 -4,-788 1187.5,-788 1187.5,4 -4,4"/>
<!-- ped -->
<g id="node1" class="node">
<title>ped</title>
<g id="a_node1"><a xlink:href="ped-foot0.svg" xlink:title="Indo&#45;European &quot;ped&#45;&quot; foot">
<polygon fill="none" stroke="black" stroke-dasharray="5,2" points="457.5,-784 246.5,-784 246.5,-680 457.5,-680 457.5,-784"/>
<text text-anchor="start" x="274" y="-739.8" font-family="Times New Roman,serif" font-weight="bold" font-size="24.00">Indo&#45;European</text>
<text text-anchor="start" x="296" y="-711.6" font-family="Times New Roman,serif" font-size="18.00" fill="red">ped&#45;</text>
<text text-anchor="start" x="381.5" y="-712.2" font-family="Times New Roman,serif" font-size="16.00">foot</text>
</a>
</g>
</g>
<!-- pedyo -->
<g id="node2" class="node">
<title>pedyo</title>
<text text-anchor="start" x="108.5" y="-622.3" font-family="Times New Roman,serif" font-size="14.00" fill="red">ped&#45;yo&#45;</text>
</g>
<!-- ped&#45;&gt;pedyo -->
<g id="edge1" class="edge">
<title>ped&#45;&gt;pedyo</title>
<path fill="none" stroke="black" d="M337,-679C337,-679 231.83,-652.45 171.78,-637.29"/>
<polygon fill="black" stroke="black" points="172.39,-633.84 161.84,-634.78 170.68,-640.63 172.39,-633.84"/>
</g>
<!-- pedika -->
<g id="node3" class="node">
<title>pedika</title>
<text text-anchor="start" x="284" y="-622.3" font-family="Times New Roman,serif" font-size="14.00" fill="red">ped&#45;ikā&#45;</text>
</g>
<!-- ped&#45;&gt;pedika -->
<g id="edge2" class="edge">
<title>ped&#45;&gt;pedika</title>
<path fill="none" stroke="black" d="M337,-679C337,-679 329.46,-665.92 321.93,-652.89"/>
<polygon fill="black" stroke="black" points="324.85,-650.94 316.82,-644.03 318.79,-654.44 324.85,-650.94"/>
</g>
<!-- pesL -->
<g id="node4" class="node">
<title>pesL</title>
<text text-anchor="start" x="505.5" y="-551.8" font-family="Times New Roman,serif" font-weight="bold" font-size="14.00">Latin</text>
<text text-anchor="start" x="495.5" y="-537.8" font-family="Times New Roman,serif" font-size="14.00" fill="red">pēs, ped&#45;</text>
</g>
<!-- ped&#45;&gt;pesL -->
<g id="edge3" class="edge">
<title>ped&#45;&gt;pesL</title>
<path fill="none" stroke="black" d="M337,-679C337,-679 435.8,-609.57 489,-572.19"/>
<polygon fill="black" stroke="black" points="491.26,-574.88 497.43,-566.26 487.24,-569.15 491.26,-574.88"/>
</g>
<!-- expedireL -->
<g id="node37" class="node">
<title>expedireL</title>
<text text-anchor="start" x="16.5" y="-473.8" font-family="Times New Roman,serif" font-size="14.00" fill="red">expedīre</text>
<text text-anchor="start" x="17.5" y="-459.8" font-family="Times New Roman,serif" font-size="14.00" fill="red">expedīt&#45;</text>
<text text-anchor="start" x="14" y="-447.4" font-family="Times New Roman,serif" font-size="12.00">to free from</text>
<text text-anchor="start" x="21.5" y="-435.4" font-family="Times New Roman,serif" font-size="12.00"> a snare,</text>
<text text-anchor="start" x="8" y="-423.4" font-family="Times New Roman,serif" font-size="12.00">to make ready</text>
</g>
<!-- pedyo&#45;&gt;expedireL -->
<g id="edge38" class="edge">
<title>pedyo&#45;&gt;expedireL</title>
<path fill="none" stroke="black" d="M127,-607C127,-607 100.27,-559.86 76,-524 69.55,-514.47 61.59,-503.92 56.19,-496.92"/>
<polygon fill="black" stroke="black" points="58.92,-494.72 50,-489 53.4,-499.03 58.92,-494.72"/>
</g>
<!-- impedireL -->
<g id="node41" class="node">
<title>impedireL</title>
<text text-anchor="start" x="108.5" y="-467.8" font-family="Times New Roman,serif" font-size="14.00" fill="red">expedīre</text>
<text text-anchor="start" x="109.5" y="-453.8" font-family="Times New Roman,serif" font-size="14.00" fill="red">expedīt&#45;</text>
<text text-anchor="start" x="108.5" y="-441.4" font-family="Times New Roman,serif" font-size="12.00">to shackle,</text>
<text text-anchor="start" x="113" y="-429.4" font-family="Times New Roman,serif" font-size="12.00">to hinder</text>
</g>
<!-- pedyo&#45;&gt;impedireL -->
<g id="edge42" class="edge">
<title>pedyo&#45;&gt;impedireL</title>
<path fill="none" stroke="black" d="M127,-607C127,-607 136.51,-522.76 139.85,-493.15"/>
<polygon fill="black" stroke="black" points="143.36,-493.33 141,-483 136.4,-492.54 143.36,-493.33"/>
</g>
<!-- pedicaL -->
<g id="node45" class="node">
<title>pedicaL</title>
<text text-anchor="start" x="268.5" y="-557.8" font-family="Times New Roman,serif" font-weight="bold" font-size="14.00">Latin</text>
<text text-anchor="start" x="266.5" y="-543.8" font-family="Times New Roman,serif" font-size="14.00" fill="red">pedica</text>
<text text-anchor="start" x="273" y="-531.4" font-family="Times New Roman,serif" font-size="12.00">fetter</text>
</g>
<!-- pedika&#45;&gt;pedicaL -->
<g id="edge44" class="edge">
<title>pedika&#45;&gt;pedicaL</title>
<path fill="none" stroke="black" d="M302.01,-607.75C299.8,-600.12 297.12,-590.87 294.55,-581.99"/>
<polygon fill="black" stroke="black" points="297.87,-580.86 291.72,-572.23 291.14,-582.81 297.87,-580.86"/>
</g>
<!-- pede -->
<g id="node5" class="node">
<title>pede</title>
<text text-anchor="start" x="276.5" y="-67.8" font-family="Times New Roman,serif" font-weight="bold" font-size="14.00">Modern</text>
<text text-anchor="start" x="278" y="-53.8" font-family="Times New Roman,serif" font-weight="bold" font-size="14.00">English</text>
<text text-anchor="start" x="286.5" y="-39.8" font-family="Times New Roman,serif" font-size="14.00" fill="red">pedi&#45;</text>
<text text-anchor="start" x="288" y="-25.8" font-family="Times New Roman,serif" font-size="14.00" fill="red">&#45;ped</text>
<text text-anchor="start" x="285" y="-11.8" font-family="Times New Roman,serif" font-size="14.00" fill="red">&#45;pede</text>
</g>
<!-- pesL&#45;&gt;pede -->
<g id="edge4" class="edge">
<title>pesL&#45;&gt;pede</title>
<path fill="none" stroke="black" stroke-dasharray="1,5" d="M526,-529C526,-529 430.58,-530.4 376,-488 322.71,-446.61 301,-423.48 301,-356 301,-356 301,-356 301,-262 301,-203.66 301,-136.54 301,-92.36"/>
<polygon fill="black" stroke="black" points="304.5,-92.2 301,-82.2 297.5,-92.2 304.5,-92.2"/>
</g>
<!-- pedalisL -->
<g id="node6" class="node">
<title>pedalisL</title>
<text text-anchor="start" x="403" y="-454.8" font-family="Times New Roman,serif" font-size="14.00" fill="red">pedālis</text>
<text text-anchor="start" x="393" y="-442.4" font-family="Times New Roman,serif" font-size="12.00">one foot long</text>
</g>
<!-- pesL&#45;&gt;pedalisL -->
<g id="edge5" class="edge">
<title>pesL&#45;&gt;pedalisL</title>
<path fill="none" stroke="black" d="M526,-529C526,-529 484.63,-498.47 454.33,-476.11"/>
<polygon fill="black" stroke="black" points="456.24,-473.18 446.12,-470.06 452.08,-478.81 456.24,-473.18"/>
</g>
<!-- pedicureF -->
<g id="node10" class="node">
<title>pedicureF</title>
<text text-anchor="start" x="467" y="-168.8" font-family="Times New Roman,serif" font-weight="bold" font-size="14.00">French</text>
<text text-anchor="start" x="464.5" y="-154.8" font-family="Times New Roman,serif" font-size="14.00" fill="red">pédicure</text>
<text text-anchor="start" x="464.5" y="-142.4" font-family="Times New Roman,serif" font-size="12.00">&quot;foot care&quot;</text>
</g>
<!-- pesL&#45;&gt;pedicureF -->
<g id="edge9" class="edge">
<title>pesL&#45;&gt;pedicureF</title>
<path fill="none" stroke="black" stroke-dasharray="1,5" d="M526,-529C526,-529 513.44,-507.22 509,-488 484.65,-382.56 485.4,-253.28 487.43,-193.39"/>
<polygon fill="black" stroke="black" points="490.94,-193.16 487.82,-183.04 483.94,-192.9 490.94,-193.16"/>
</g>
<!-- pedesL -->
<g id="node12" class="node">
<title>pedesL</title>
<text text-anchor="start" x="537" y="-454.8" font-family="Times New Roman,serif" font-size="14.00" fill="red">pedes</text>
<text text-anchor="start" x="526.5" y="-442.4" font-family="Times New Roman,serif" font-size="12.00">a pedestrian</text>
</g>
<!-- pesL&#45;&gt;pedesL -->
<g id="edge11" class="edge">
<title>pesL&#45;&gt;pedesL</title>
<path fill="none" stroke="black" d="M526,-529C526,-529 536.07,-501.68 544.13,-479.8"/>
<polygon fill="black" stroke="black" points="547.47,-480.84 547.65,-470.25 540.91,-478.42 547.47,-480.84"/>
</g>
<!-- piedistallo -->
<g id="node15" class="node">
<title>piedistallo</title>
<text text-anchor="start" x="605" y="-279.8" font-family="Times New Roman,serif" font-weight="bold" font-size="14.00">Italian</text>
<text text-anchor="start" x="593" y="-265.8" font-family="Times New Roman,serif" font-size="14.00" fill="red">piè di stallo</text>
<text text-anchor="start" x="596" y="-253.4" font-family="Times New Roman,serif" font-size="12.00">&quot;foot of stall&quot;</text>
<text text-anchor="start" x="596.5" y="-239.8" font-family="Times New Roman,serif" font-size="14.00" fill="red">piedistallo</text>
</g>
<!-- pesL&#45;&gt;piedistallo -->
<g id="edge14" class="edge">
<title>pesL&#45;&gt;piedistallo</title>
<path fill="none" stroke="black" stroke-dasharray="1,5" d="M526,-529C526,-529 577.62,-518.67 598,-488 634.86,-432.53 634.67,-351.94 630.38,-304.06"/>
<polygon fill="black" stroke="black" points="633.86,-303.67 629.39,-294.07 626.9,-304.37 633.86,-303.67"/>
</g>
<!-- pedoL -->
<g id="node18" class="node">
<title>pedoL</title>
<text text-anchor="start" x="677" y="-460.8" font-family="Times New Roman,serif" font-size="14.00" fill="red">pedō, pedōn&#45;</text>
<text text-anchor="start" x="659" y="-448.4" font-family="Times New Roman,serif" font-size="12.00">&quot;one who has wide feet,&quot;</text>
<text text-anchor="start" x="689" y="-436.4" font-family="Times New Roman,serif" font-size="12.00">foot soldier</text>
</g>
<!-- pesL&#45;&gt;pedoL -->
<g id="edge17" class="edge">
<title>pesL&#45;&gt;pedoL</title>
<path fill="none" stroke="black" d="M526,-529C526,-529 587.68,-507.69 636,-488 642.78,-485.24 649.85,-482.26 656.85,-479.24"/>
<polygon fill="black" stroke="black" points="658.54,-482.32 666.31,-475.12 655.75,-475.9 658.54,-482.32"/>
</g>
<!-- pieOF -->
<g id="node27" class="node">
<title>pieOF</title>
<text text-anchor="start" x="961" y="-364.8" font-family="Times New Roman,serif" font-weight="bold" font-size="14.00">Old French</text>
<text text-anchor="start" x="987.5" y="-350.8" font-family="Times New Roman,serif" font-size="14.00" fill="red">pie</text>
<text text-anchor="start" x="986.5" y="-338.4" font-family="Times New Roman,serif" font-size="12.00">foot</text>
</g>
<!-- pesL&#45;&gt;pieOF -->
<g id="edge26" class="edge">
<title>pesL&#45;&gt;pieOF</title>
<path fill="none" stroke="black" d="M526,-529C526,-529 677.71,-529.56 788,-488 853.57,-463.29 920.41,-416.14 960.04,-385.39"/>
<polygon fill="black" stroke="black" points="962.36,-388.02 968.07,-379.1 958.04,-382.51 962.36,-388.02"/>
</g>
<!-- pedaleI -->
<g id="node7" class="node">
<title>pedaleI</title>
<text text-anchor="start" x="364" y="-266.8" font-family="Times New Roman,serif" font-weight="bold" font-size="14.00">Italian</text>
<text text-anchor="start" x="365.5" y="-252.8" font-family="Times New Roman,serif" font-size="14.00" fill="red">pedale</text>
</g>
<!-- pedalisL&#45;&gt;pedaleI -->
<g id="edge6" class="edge">
<title>pedalisL&#45;&gt;pedaleI</title>
<path fill="none" stroke="black" stroke-dasharray="1,5" d="M419.4,-433.74C412.61,-401.18 397.86,-330.44 389.7,-291.35"/>
<polygon fill="black" stroke="black" points="393.06,-290.29 387.59,-281.22 386.21,-291.72 393.06,-290.29"/>
</g>
<!-- pedaleF -->
<g id="node8" class="node">
<title>pedaleF</title>
<text text-anchor="start" x="362" y="-162.8" font-family="Times New Roman,serif" font-weight="bold" font-size="14.00">French</text>
<text text-anchor="start" x="365.5" y="-148.8" font-family="Times New Roman,serif" font-size="14.00" fill="red">pédale</text>
</g>
<!-- pedaleI&#45;&gt;pedaleF -->
<g id="edge7" class="edge">
<title>pedaleI&#45;&gt;pedaleF</title>
<path fill="none" stroke="black" stroke-dasharray="1,5" d="M384,-244.7C384,-228.92 384,-205.36 384,-187.09"/>
<polygon fill="black" stroke="black" points="387.5,-187.05 384,-177.05 380.5,-187.05 387.5,-187.05"/>
</g>
<!-- pedal -->
<g id="node9" class="node">
<title>pedal</title>
<text text-anchor="start" x="359.5" y="-53.8" font-family="Times New Roman,serif" font-weight="bold" font-size="14.00">Modern</text>
<text text-anchor="start" x="361" y="-39.8" font-family="Times New Roman,serif" font-weight="bold" font-size="14.00">English</text>
<text text-anchor="start" x="368.5" y="-25.8" font-family="Times New Roman,serif" font-size="14.00" fill="red">pedal</text>
</g>
<!-- pedaleF&#45;&gt;pedal -->
<g id="edge8" class="edge">
<title>pedaleF&#45;&gt;pedal</title>
<path fill="none" stroke="black" stroke-dasharray="1,5" d="M384,-140.69C384,-124.24 384,-99.05 384,-78.51"/>
<polygon fill="black" stroke="black" points="387.5,-78.26 384,-68.26 380.5,-78.26 387.5,-78.26"/>
</g>
<!-- pedicure -->
<g id="node11" class="node">
<title>pedicure</title>
<text text-anchor="start" x="442.5" y="-53.8" font-family="Times New Roman,serif" font-weight="bold" font-size="14.00">Modern</text>
<text text-anchor="start" x="444" y="-39.8" font-family="Times New Roman,serif" font-weight="bold" font-size="14.00">English</text>
<text text-anchor="start" x="442.5" y="-25.8" font-family="Times New Roman,serif" font-size="14.00" fill="red">pedicure</text>
</g>
<!-- pedicureF&#45;&gt;pedicure -->
<g id="edge10" class="edge">
<title>pedicureF&#45;&gt;pedicure</title>
<path fill="none" stroke="black" stroke-dasharray="1,5" d="M484.55,-134.93C481.41,-118.65 477.14,-96.56 473.6,-78.23"/>
<polygon fill="black" stroke="black" points="477,-77.37 471.67,-68.22 470.13,-78.7 477,-77.37"/>
</g>
<!-- pedesterL -->
<g id="node13" class="node">
<title>pedesterL</title>
<text text-anchor="start" x="531" y="-364.8" font-family="Times New Roman,serif" font-size="14.00" fill="red">pedester</text>
<text text-anchor="start" x="532" y="-350.8" font-family="Times New Roman,serif" font-size="14.00" fill="red">pedestr&#45;</text>
<text text-anchor="start" x="525" y="-338.4" font-family="Times New Roman,serif" font-size="12.00">going on foot</text>
</g>
<!-- pedesL&#45;&gt;pedesterL -->
<g id="edge12" class="edge">
<title>pedesL&#45;&gt;pedesterL</title>
<path fill="none" stroke="black" d="M554.18,-433.58C554.31,-421.25 554.49,-404.33 554.65,-389.44"/>
<polygon fill="black" stroke="black" points="558.15,-389.08 554.76,-379.05 551.15,-389.01 558.15,-389.08"/>
</g>
<!-- pedestrian -->
<g id="node14" class="node">
<title>pedestrian</title>
<text text-anchor="start" x="530.5" y="-53.8" font-family="Times New Roman,serif" font-weight="bold" font-size="14.00">Modern</text>
<text text-anchor="start" x="532" y="-39.8" font-family="Times New Roman,serif" font-weight="bold" font-size="14.00">English</text>
<text text-anchor="start" x="526" y="-25.8" font-family="Times New Roman,serif" font-size="14.00" fill="red">pedestrian</text>
</g>
<!-- pedesterL&#45;&gt;pedestrian -->
<g id="edge13" class="edge">
<title>pedesterL&#45;&gt;pedestrian</title>
<path fill="none" stroke="black" stroke-dasharray="1,5" d="M555,-330.95C555,-276.97 555,-142.08 555,-78.36"/>
<polygon fill="black" stroke="black" points="558.5,-78.05 555,-68.05 551.5,-78.05 558.5,-78.05"/>
</g>
<!-- pedestalF -->
<g id="node16" class="node">
<title>pedestalF</title>
<text text-anchor="start" x="606" y="-169.8" font-family="Times New Roman,serif" font-weight="bold" font-size="14.00">French</text>
<text text-anchor="start" x="599.5" y="-155.8" font-family="Times New Roman,serif" font-size="14.00">(obsolete)</text>
<text text-anchor="start" x="605" y="-141.8" font-family="Times New Roman,serif" font-size="14.00" fill="red">pedestal</text>
</g>
<!-- piedistallo&#45;&gt;pedestalF -->
<g id="edge15" class="edge">
<title>piedistallo&#45;&gt;pedestalF</title>
<path fill="none" stroke="black" stroke-dasharray="1,5" d="M625.88,-231.95C626.23,-220.13 626.63,-206.5 626.99,-194.3"/>
<polygon fill="black" stroke="black" points="630.5,-194.13 627.29,-184.03 623.5,-193.92 630.5,-194.13"/>
</g>
<!-- pedestal -->
<g id="node17" class="node">
<title>pedestal</title>
<text text-anchor="start" x="618.5" y="-53.8" font-family="Times New Roman,serif" font-weight="bold" font-size="14.00">Modern</text>
<text text-anchor="start" x="620" y="-39.8" font-family="Times New Roman,serif" font-weight="bold" font-size="14.00">English</text>
<text text-anchor="start" x="620" y="-25.8" font-family="Times New Roman,serif" font-size="14.00" fill="red">pedestal</text>
</g>
<!-- pedestalF&#45;&gt;pedestal -->
<g id="edge16" class="edge">
<title>pedestalF&#45;&gt;pedestal</title>
<path fill="none" stroke="black" stroke-dasharray="1,5" d="M631.18,-133.82C633.31,-117.65 636.14,-96.13 638.5,-78.21"/>
<polygon fill="black" stroke="black" points="641.99,-78.51 639.82,-68.14 635.05,-77.6 641.99,-78.51"/>
</g>
<!-- peonS -->
<g id="node19" class="node">
<title>peonS</title>
<text text-anchor="start" x="699.5" y="-168.8" font-family="Times New Roman,serif" font-weight="bold" font-size="14.00">Spanish</text>
<text text-anchor="start" x="710" y="-154.8" font-family="Times New Roman,serif" font-size="14.00" fill="red">peon</text>
<text text-anchor="start" x="698" y="-142.4" font-family="Times New Roman,serif" font-size="12.00">day laborer</text>
</g>
<!-- pedoL&#45;&gt;peonS -->
<g id="edge18" class="edge">
<title>pedoL&#45;&gt;peonS</title>
<path fill="none" stroke="black" d="M730,-428C730,-428 726.36,-265.62 724.75,-193.65"/>
<polygon fill="black" stroke="black" points="728.25,-193.23 724.52,-183.31 721.25,-193.39 728.25,-193.23"/>
</g>
<!-- pedonOF -->
<g id="node21" class="node">
<title>pedonOF</title>
<text text-anchor="start" x="752" y="-358.8" font-family="Times New Roman,serif" font-weight="bold" font-size="14.00">Old French</text>
<text text-anchor="start" x="751.5" y="-344.8" font-family="Times New Roman,serif" font-size="14.00" fill="red">pedon, paon</text>
</g>
<!-- pedoL&#45;&gt;pedonOF -->
<g id="edge19" class="edge">
<title>pedoL&#45;&gt;pedonOF</title>
<path fill="none" stroke="black" d="M730,-428C730,-428 750.76,-401.78 767.22,-380.98"/>
<polygon fill="black" stroke="black" points="770.03,-383.08 773.49,-373.06 764.54,-378.73 770.03,-383.08"/>
</g>
<!-- peonierOF -->
<g id="node24" class="node">
<title>peonierOF</title>
<text text-anchor="start" x="857" y="-365.8" font-family="Times New Roman,serif" font-weight="bold" font-size="14.00">Old French</text>
<text text-anchor="start" x="878" y="-351.8" font-family="Times New Roman,serif" font-size="14.00" fill="red">peon</text>
<text text-anchor="start" x="871" y="-337.8" font-family="Times New Roman,serif" font-size="14.00" fill="red">peonier</text>
</g>
<!-- pedoL&#45;&gt;peonierOF -->
<g id="edge20" class="edge">
<title>pedoL&#45;&gt;peonierOF</title>
<path fill="none" stroke="black" d="M730,-428C730,-428 790.67,-401.58 839,-380 839.2,-379.91 839.4,-379.82 839.61,-379.73"/>
<polygon fill="black" stroke="black" points="841.23,-382.84 848.92,-375.55 838.36,-376.45 841.23,-382.84"/>
</g>
<!-- peon -->
<g id="node20" class="node">
<title>peon</title>
<text text-anchor="start" x="701.5" y="-53.8" font-family="Times New Roman,serif" font-weight="bold" font-size="14.00">Modern</text>
<text text-anchor="start" x="703" y="-39.8" font-family="Times New Roman,serif" font-weight="bold" font-size="14.00">English</text>
<text text-anchor="start" x="712" y="-25.8" font-family="Times New Roman,serif" font-size="14.00" fill="red">peon</text>
</g>
<!-- peonS&#45;&gt;peon -->
<g id="edge21" class="edge">
<title>peonS&#45;&gt;peon</title>
<path fill="none" stroke="black" stroke-dasharray="1,5" d="M724.4,-134.93C724.69,-118.65 725.08,-96.56 725.4,-78.23"/>
<polygon fill="black" stroke="black" points="728.9,-78.28 725.58,-68.22 721.9,-78.15 728.9,-78.28"/>
</g>
<!-- pawnME -->
<g id="node22" class="node">
<title>pawnME</title>
<text text-anchor="start" x="788.5" y="-169.8" font-family="Times New Roman,serif" font-weight="bold" font-size="14.00">Middle</text>
<text text-anchor="start" x="787" y="-155.8" font-family="Times New Roman,serif" font-weight="bold" font-size="14.00">English</text>
<text text-anchor="start" x="794.5" y="-141.8" font-family="Times New Roman,serif" font-size="14.00" fill="red">pawn</text>
</g>
<!-- pedonOF&#45;&gt;pawnME -->
<g id="edge22" class="edge">
<title>pedonOF&#45;&gt;pawnME</title>
<path fill="none" stroke="black" stroke-dasharray="1,5" d="M789.04,-336.78C792.83,-304.81 801.02,-235.73 805.97,-194.02"/>
<polygon fill="black" stroke="black" points="809.45,-194.39 807.15,-184.05 802.5,-193.57 809.45,-194.39"/>
</g>
<!-- pawn -->
<g id="node23" class="node">
<title>pawn</title>
<text text-anchor="start" x="786.5" y="-59.8" font-family="Times New Roman,serif" font-weight="bold" font-size="14.00">Modern</text>
<text text-anchor="start" x="788" y="-45.8" font-family="Times New Roman,serif" font-weight="bold" font-size="14.00">English</text>
<text text-anchor="start" x="795.5" y="-31.8" font-family="Times New Roman,serif" font-size="14.00" fill="red">pawn</text>
<text text-anchor="start" x="785" y="-19.4" font-family="Times New Roman,serif" font-size="12.00">chess piece</text>
</g>
<!-- pawnME&#45;&gt;pawn -->
<g id="edge23" class="edge">
<title>pawnME&#45;&gt;pawn</title>
<path fill="none" stroke="black" d="M810.21,-133.82C810.34,-119.56 810.5,-101.14 810.64,-84.7"/>
<polygon fill="black" stroke="black" points="814.15,-84.27 810.73,-74.24 807.15,-84.21 814.15,-84.27"/>
</g>
<!-- pionnierF -->
<g id="node25" class="node">
<title>pionnierF</title>
<text text-anchor="start" x="874" y="-162.8" font-family="Times New Roman,serif" font-weight="bold" font-size="14.00">French</text>
<text text-anchor="start" x="873" y="-148.8" font-family="Times New Roman,serif" font-size="14.00" fill="red">pionnier</text>
</g>
<!-- peonierOF&#45;&gt;pionnierF -->
<g id="edge24" class="edge">
<title>peonierOF&#45;&gt;pionnierF</title>
<path fill="none" stroke="black" d="M892.5,-329.82C893.25,-293.58 894.65,-225.39 895.44,-187.37"/>
<polygon fill="black" stroke="black" points="898.94,-187.12 895.65,-177.05 891.94,-186.98 898.94,-187.12"/>
</g>
<!-- pioneer -->
<g id="node26" class="node">
<title>pioneer</title>
<text text-anchor="start" x="871.5" y="-53.8" font-family="Times New Roman,serif" font-weight="bold" font-size="14.00">Modern</text>
<text text-anchor="start" x="873" y="-39.8" font-family="Times New Roman,serif" font-weight="bold" font-size="14.00">English</text>
<text text-anchor="start" x="875" y="-25.8" font-family="Times New Roman,serif" font-size="14.00" fill="red">pioneer</text>
</g>
<!-- pionnierF&#45;&gt;pioneer -->
<g id="edge25" class="edge">
<title>pionnierF&#45;&gt;pioneer</title>
<path fill="none" stroke="black" stroke-dasharray="1,5" d="M896,-140.69C896,-124.24 896,-99.05 896,-78.51"/>
<polygon fill="black" stroke="black" points="899.5,-78.26 896,-68.26 892.5,-78.26 899.5,-78.26"/>
</g>
<!-- avanpieOF -->
<g id="node28" class="node">
<title>avanpieOF</title>
<text text-anchor="start" x="1026.5" y="-259.3" font-family="Times New Roman,serif" font-size="14.00" fill="red">avanpie</text>
</g>
<!-- pieOF&#45;&gt;avanpieOF -->
<g id="edge27" class="edge">
<title>pieOF&#45;&gt;avanpieOF</title>
<path fill="none" stroke="black" d="M1012.74,-330.82C1022.72,-317.01 1034.78,-300.3 1041.9,-290.44"/>
<polygon fill="black" stroke="black" points="1044.98,-292.16 1048,-282 1039.31,-288.06 1044.98,-292.16"/>
</g>
<!-- vampeME -->
<g id="node29" class="node">
<title>vampeME</title>
<text text-anchor="start" x="1026.5" y="-175.8" font-family="Times New Roman,serif" font-weight="bold" font-size="14.00">Middle</text>
<text text-anchor="start" x="1025" y="-161.8" font-family="Times New Roman,serif" font-weight="bold" font-size="14.00">English</text>
<text text-anchor="start" x="1029.5" y="-147.8" font-family="Times New Roman,serif" font-size="14.00" fill="red">vampe</text>
<text text-anchor="start" x="1037" y="-135.4" font-family="Times New Roman,serif" font-size="12.00">sock</text>
</g>
<!-- avanpieOF&#45;&gt;vampeME -->
<g id="edge28" class="edge">
<title>avanpieOF&#45;&gt;vampeME</title>
<path fill="none" stroke="black" stroke-dasharray="1,5" d="M1048,-244.7C1048,-232.6 1048,-215.92 1048,-200.56"/>
<polygon fill="black" stroke="black" points="1051.5,-200.21 1048,-190.21 1044.5,-200.21 1051.5,-200.21"/>
</g>
<!-- vamp -->
<g id="node30" class="node">
<title>vamp</title>
<text text-anchor="start" x="1023.5" y="-71.8" font-family="Times New Roman,serif" font-weight="bold" font-size="14.00">Modern</text>
<text text-anchor="start" x="1025" y="-57.8" font-family="Times New Roman,serif" font-weight="bold" font-size="14.00">English</text>
<text text-anchor="start" x="1032.5" y="-43.8" font-family="Times New Roman,serif" font-size="14.00" fill="red">vamp</text>
<text text-anchor="start" x="1016.5" y="-31.4" font-family="Times New Roman,serif" font-size="12.00">top of a shoe,</text>
<text text-anchor="start" x="1020.5" y="-19.4" font-family="Times New Roman,serif" font-size="12.00">to patch up,</text>
<text text-anchor="start" x="1020" y="-7.4" font-family="Times New Roman,serif" font-size="12.00">to improvise</text>
</g>
<!-- vampeME&#45;&gt;vamp -->
<g id="edge29" class="edge">
<title>vampeME&#45;&gt;vamp</title>
<path fill="none" stroke="black" d="M1048,-127.75C1048,-118.15 1048,-107.25 1048,-96.55"/>
<polygon fill="black" stroke="black" points="1051.5,-96.41 1048,-86.41 1044.5,-96.41 1051.5,-96.41"/>
</g>
<!-- apoIE -->
<g id="node31" class="node">
<title>apoIE</title>
<g id="a_node31"><a xlink:href="apo-off.svg" xlink:title="&lt;b&gt;Indo&#45;&lt;br/&gt;European&lt;/b&gt;&lt;br/&gt;&lt;font color=&quot;red&quot;&gt;apo&#45;&lt;/font&gt;&lt;br/&gt;&lt;font point&#45;size=&quot;12&quot;&gt;off, away&lt;/font&gt;">
<path fill="none" stroke="black" stroke-dasharray="5,2" d="M1076.5,-763C1076.5,-763 1023.5,-763 1023.5,-763 1017.5,-763 1011.5,-757 1011.5,-751 1011.5,-751 1011.5,-713 1011.5,-713 1011.5,-707 1017.5,-701 1023.5,-701 1023.5,-701 1076.5,-701 1076.5,-701 1082.5,-701 1088.5,-707 1088.5,-713 1088.5,-713 1088.5,-751 1088.5,-751 1088.5,-757 1082.5,-763 1076.5,-763"/>
<text text-anchor="start" x="1033.5" y="-748.8" font-family="Times New Roman,serif" font-weight="bold" font-size="14.00">Indo&#45;</text>
<text text-anchor="start" x="1019.5" y="-734.8" font-family="Times New Roman,serif" font-weight="bold" font-size="14.00">European</text>
<text text-anchor="start" x="1037" y="-720.8" font-family="Times New Roman,serif" font-size="14.00" fill="red">apo&#45;</text>
<text text-anchor="start" x="1028.5" y="-708.4" font-family="Times New Roman,serif" font-size="12.00">off, away</text>
</a>
</g>
</g>
<!-- abL -->
<g id="node32" class="node">
<title>abL</title>
<text text-anchor="start" x="1044.5" y="-557.8" font-family="Times New Roman,serif" font-weight="bold" font-size="14.00">Latin</text>
<text text-anchor="start" x="1051.5" y="-543.8" font-family="Times New Roman,serif" font-size="14.00" fill="red">ab&#45;</text>
<text text-anchor="start" x="1050" y="-531.4" font-family="Times New Roman,serif" font-size="12.00">from</text>
</g>
<!-- apoIE&#45;&gt;abL -->
<g id="edge30" class="edge">
<title>apoIE&#45;&gt;abL</title>
<path fill="none" stroke="black" d="M1051.82,-700.95C1053.79,-668.33 1056.93,-616.39 1058.98,-582.49"/>
<polygon fill="black" stroke="black" points="1062.49,-582.35 1059.6,-572.16 1055.5,-581.93 1062.49,-582.35"/>
</g>
<!-- abanteL -->
<g id="node35" class="node">
<title>abanteL</title>
<text text-anchor="start" x="1081.5" y="-454.8" font-family="Times New Roman,serif" font-size="14.00" fill="red">abante</text>
<text text-anchor="start" x="1073" y="-442.4" font-family="Times New Roman,serif" font-size="12.00">from before</text>
</g>
<!-- abL&#45;&gt;abanteL -->
<g id="edge32" class="edge">
<title>abL&#45;&gt;abanteL</title>
<path fill="none" stroke="black" d="M1072.91,-523.78C1080.44,-509.12 1089.75,-490.97 1095.27,-480.22"/>
<polygon fill="black" stroke="black" points="1098.55,-481.49 1100,-471 1092.32,-478.3 1098.55,-481.49"/>
</g>
<!-- antIE -->
<g id="node33" class="node">
<title>antIE</title>
<g id="a_node33"><a xlink:href="ant-front.svg" xlink:title="&lt;b&gt;Indo&#45;&lt;br/&gt;European&lt;/b&gt;&lt;br/&gt;&lt;font color=&quot;red&quot;&gt;ant&#45;&lt;/font&gt;&lt;br/&gt;&lt;font point&#45;size=&quot;12&quot;&gt;front, before&lt;/font&gt;">
<path fill="none" stroke="black" stroke-dasharray="5,2" d="M1171.5,-763C1171.5,-763 1118.5,-763 1118.5,-763 1112.5,-763 1106.5,-757 1106.5,-751 1106.5,-751 1106.5,-713 1106.5,-713 1106.5,-707 1112.5,-701 1118.5,-701 1118.5,-701 1171.5,-701 1171.5,-701 1177.5,-701 1183.5,-707 1183.5,-713 1183.5,-713 1183.5,-751 1183.5,-751 1183.5,-757 1177.5,-763 1171.5,-763"/>
<text text-anchor="start" x="1128.5" y="-748.8" font-family="Times New Roman,serif" font-weight="bold" font-size="14.00">Indo&#45;</text>
<text text-anchor="start" x="1114.5" y="-734.8" font-family="Times New Roman,serif" font-weight="bold" font-size="14.00">European</text>
<text text-anchor="start" x="1134" y="-720.8" font-family="Times New Roman,serif" font-size="14.00" fill="red">ant&#45;</text>
<text text-anchor="start" x="1116.5" y="-708.4" font-family="Times New Roman,serif" font-size="12.00">front, before</text>
</a>
</g>
</g>
<!-- anteL -->
<g id="node34" class="node">
<title>anteL</title>
<text text-anchor="start" x="1122.5" y="-557.8" font-family="Times New Roman,serif" font-weight="bold" font-size="14.00">Latin</text>
<text text-anchor="start" x="1127.5" y="-543.8" font-family="Times New Roman,serif" font-size="14.00" fill="red">ante</text>
<text text-anchor="start" x="1124" y="-531.4" font-family="Times New Roman,serif" font-size="12.00">before</text>
</g>
<!-- antIE&#45;&gt;anteL -->
<g id="edge31" class="edge">
<title>antIE&#45;&gt;anteL</title>
<path fill="none" stroke="black" d="M1144.01,-700.95C1142.93,-668.33 1141.22,-616.39 1140.1,-582.49"/>
<polygon fill="black" stroke="black" points="1143.59,-582.04 1139.76,-572.16 1136.6,-582.27 1143.59,-582.04"/>
</g>
<!-- anteL&#45;&gt;abanteL -->
<g id="edge33" class="edge">
<title>anteL&#45;&gt;abanteL</title>
<path fill="none" stroke="black" d="M1127.09,-523.78C1119.56,-509.12 1110.25,-490.97 1104.73,-480.22"/>
<polygon fill="black" stroke="black" points="1107.68,-478.3 1100,-471 1101.45,-481.49 1107.68,-478.3"/>
</g>
<!-- avauntOF -->
<g id="node36" class="node">
<title>avauntOF</title>
<text text-anchor="start" x="1065" y="-364.8" font-family="Times New Roman,serif" font-weight="bold" font-size="14.00">Old French</text>
<text text-anchor="start" x="1081.5" y="-350.8" font-family="Times New Roman,serif" font-size="14.00" fill="red">avaunt</text>
<text text-anchor="start" x="1085" y="-338.4" font-family="Times New Roman,serif" font-size="12.00">before</text>
</g>
<!-- abanteL&#45;&gt;avauntOF -->
<g id="edge34" class="edge">
<title>abanteL&#45;&gt;avauntOF</title>
<path fill="none" stroke="black" d="M1100,-433.58C1100,-421.25 1100,-404.33 1100,-389.44"/>
<polygon fill="black" stroke="black" points="1103.5,-389.05 1100,-379.05 1096.5,-389.05 1103.5,-389.05"/>
</g>
<!-- avauntOF&#45;&gt;avanpieOF -->
<g id="edge35" class="edge">
<title>avauntOF&#45;&gt;avanpieOF</title>
<path fill="none" stroke="black" d="M1083.26,-330.82C1073.28,-317.01 1061.22,-300.3 1054.1,-290.44"/>
<polygon fill="black" stroke="black" points="1056.69,-288.06 1048,-282 1051.02,-292.16 1056.69,-288.06"/>
</g>
<!-- expedite -->
<g id="node38" class="node">
<title>expedite</title>
<text text-anchor="start" x="16.5" y="-60.8" font-family="Times New Roman,serif" font-weight="bold" font-size="14.00">Modern</text>
<text text-anchor="start" x="18" y="-46.8" font-family="Times New Roman,serif" font-weight="bold" font-size="14.00">English</text>
<text text-anchor="start" x="17.5" y="-32.8" font-family="Times New Roman,serif" font-size="14.00" fill="red">expedite</text>
<text text-anchor="start" x="12" y="-18.8" font-family="Times New Roman,serif" font-size="14.00" fill="red">expedition</text>
</g>
<!-- expedireL&#45;&gt;expedite -->
<g id="edge39" class="edge">
<title>expedireL&#45;&gt;expedite</title>
<path fill="none" stroke="black" stroke-dasharray="1,5" d="M41,-415.95C41,-341.03 41,-165.61 41,-85.37"/>
<polygon fill="black" stroke="black" points="44.5,-85.16 41,-75.16 37.5,-85.16 44.5,-85.16"/>
</g>
<!-- eghsIE -->
<g id="node39" class="node">
<title>eghsIE</title>
<g id="a_node39"><a xlink:href="eghs-out.svg" xlink:title="&lt;b&gt;Indo&#45;&lt;br/&gt;European&lt;/b&gt;&lt;br/&gt;&lt;font color=&quot;red&quot;&gt;eghs&lt;/font&gt;&lt;br/&gt;&lt;font point&#45;size=&quot;12&quot;&gt;out&lt;/font&gt;">
<path fill="none" stroke="black" stroke-dasharray="5,2" d="M66.5,-763C66.5,-763 13.5,-763 13.5,-763 7.5,-763 1.5,-757 1.5,-751 1.5,-751 1.5,-713 1.5,-713 1.5,-707 7.5,-701 13.5,-701 13.5,-701 66.5,-701 66.5,-701 72.5,-701 78.5,-707 78.5,-713 78.5,-713 78.5,-751 78.5,-751 78.5,-757 72.5,-763 66.5,-763"/>
<text text-anchor="start" x="23.5" y="-748.8" font-family="Times New Roman,serif" font-weight="bold" font-size="14.00">Indo&#45;</text>
<text text-anchor="start" x="9.5" y="-734.8" font-family="Times New Roman,serif" font-weight="bold" font-size="14.00">European</text>
<text text-anchor="start" x="27" y="-720.8" font-family="Times New Roman,serif" font-size="14.00" fill="red">eghs</text>
<text text-anchor="start" x="32.5" y="-708.4" font-family="Times New Roman,serif" font-size="12.00">out</text>
</a>
</g>
</g>
<!-- exL -->
<g id="node40" class="node">
<title>exL</title>
<text text-anchor="start" x="23.5" y="-551.8" font-family="Times New Roman,serif" font-weight="bold" font-size="14.00">Latin</text>
<text text-anchor="start" x="31" y="-537.8" font-family="Times New Roman,serif" font-size="14.00" fill="red">ex&#45;</text>
</g>
<!-- eghsIE&#45;&gt;exL -->
<g id="edge36" class="edge">
<title>eghsIE&#45;&gt;exL</title>
<path fill="none" stroke="black" d="M40,-700.95C40,-666.33 40,-609.93 40,-576.45"/>
<polygon fill="black" stroke="black" points="43.5,-576.44 40,-566.44 36.5,-576.44 43.5,-576.44"/>
</g>
<!-- exL&#45;&gt;expedireL -->
<g id="edge37" class="edge">
<title>exL&#45;&gt;expedireL</title>
<path fill="none" stroke="black" d="M42.95,-529.91C44.67,-519.89 46.8,-507.56 48.26,-499.08"/>
<polygon fill="black" stroke="black" points="51.75,-499.45 50,-489 44.85,-498.26 51.75,-499.45"/>
</g>
<!-- impede -->
<g id="node42" class="node">
<title>impede</title>
<text text-anchor="start" x="108.5" y="-53.8" font-family="Times New Roman,serif" font-weight="bold" font-size="14.00">Modern</text>
<text text-anchor="start" x="110" y="-39.8" font-family="Times New Roman,serif" font-weight="bold" font-size="14.00">English</text>
<text text-anchor="start" x="112.5" y="-25.8" font-family="Times New Roman,serif" font-size="14.00" fill="red">impede</text>
</g>
<!-- impedireL&#45;&gt;impede -->
<g id="edge43" class="edge">
<title>impedireL&#45;&gt;impede</title>
<path fill="none" stroke="black" stroke-dasharray="1,5" d="M133,-421.73C133,-348.35 133,-156.85 133,-78.34"/>
<polygon fill="black" stroke="black" points="136.5,-78.03 133,-68.03 129.5,-78.03 136.5,-78.03"/>
</g>
<!-- enIE -->
<g id="node43" class="node">
<title>enIE</title>
<g id="a_node43"><a xlink:href="en-in1.svg" xlink:title="&lt;b&gt;Indo&#45;&lt;br/&gt;European&lt;/b&gt;&lt;br/&gt;&lt;font color=&quot;red&quot;&gt;en&lt;/font&gt;&lt;br/&gt;&lt;font point&#45;size=&quot;12&quot;&gt;in&lt;/font&gt;">
<path fill="none" stroke="black" stroke-dasharray="5,2" d="M216.5,-763C216.5,-763 163.5,-763 163.5,-763 157.5,-763 151.5,-757 151.5,-751 151.5,-751 151.5,-713 151.5,-713 151.5,-707 157.5,-701 163.5,-701 163.5,-701 216.5,-701 216.5,-701 222.5,-701 228.5,-707 228.5,-713 228.5,-713 228.5,-751 228.5,-751 228.5,-757 222.5,-763 216.5,-763"/>
<text text-anchor="start" x="173.5" y="-748.8" font-family="Times New Roman,serif" font-weight="bold" font-size="14.00">Indo&#45;</text>
<text text-anchor="start" x="159.5" y="-734.8" font-family="Times New Roman,serif" font-weight="bold" font-size="14.00">European</text>
<text text-anchor="start" x="183.5" y="-720.8" font-family="Times New Roman,serif" font-size="14.00" fill="red">en</text>
<text text-anchor="start" x="186" y="-708.4" font-family="Times New Roman,serif" font-size="12.00">in</text>
</a>
</g>
</g>
<!-- inL -->
<g id="node44" class="node">
<title>inL</title>
<text text-anchor="start" x="173.5" y="-551.8" font-family="Times New Roman,serif" font-weight="bold" font-size="14.00">Latin</text>
<text text-anchor="start" x="182.5" y="-537.8" font-family="Times New Roman,serif" font-size="14.00" fill="red">in&#45;</text>
</g>
<!-- enIE&#45;&gt;inL -->
<g id="edge40" class="edge">
<title>enIE&#45;&gt;inL</title>
<path fill="none" stroke="black" d="M190,-700.95C190,-666.33 190,-609.93 190,-576.45"/>
<polygon fill="black" stroke="black" points="193.5,-576.44 190,-566.44 186.5,-576.44 193.5,-576.44"/>
</g>
<!-- inL&#45;&gt;impedireL -->
<g id="edge41" class="edge">
<title>inL&#45;&gt;impedireL</title>
<path fill="none" stroke="black" d="M188,-529C188,-529 161.56,-503.13 148.34,-490.19"/>
<polygon fill="black" stroke="black" points="150.59,-487.49 141,-483 145.7,-492.5 150.59,-487.49"/>
</g>
<!-- impedicareL -->
<g id="node46" class="node">
<title>impedicareL</title>
<text text-anchor="start" x="191.5" y="-454.8" font-family="Times New Roman,serif" font-size="14.00" fill="red">impedicāre</text>
<text text-anchor="start" x="197.5" y="-442.4" font-family="Times New Roman,serif" font-size="12.00">to entangle</text>
</g>
<!-- inL&#45;&gt;impedicareL -->
<g id="edge46" class="edge">
<title>inL&#45;&gt;impedicareL</title>
<path fill="none" stroke="black" d="M188,-529C188,-529 208.67,-495.69 218.69,-479.56"/>
<polygon fill="black" stroke="black" points="221.7,-481.34 224,-471 215.75,-477.65 221.7,-481.34"/>
</g>
<!-- pedicaL&#45;&gt;impedicareL -->
<g id="edge45" class="edge">
<title>pedicaL&#45;&gt;impedicareL</title>
<path fill="none" stroke="black" d="M266.37,-523.78C254.17,-508.59 238.98,-489.67 230.5,-479.1"/>
<polygon fill="black" stroke="black" points="232.99,-476.61 224,-471 227.53,-480.99 232.99,-476.61"/>
</g>
<!-- empecherAN -->
<g id="node47" class="node">
<title>empecherAN</title>
<text text-anchor="start" x="173.5" y="-358.8" font-family="Times New Roman,serif" font-weight="bold" font-size="14.00">Anglo&#45;Norman</text>
<text text-anchor="start" x="191.5" y="-344.8" font-family="Times New Roman,serif" font-size="14.00" fill="red">empecher</text>
</g>
<!-- impedicareL&#45;&gt;empecherAN -->
<g id="edge47" class="edge">
<title>impedicareL&#45;&gt;empecherAN</title>
<path fill="none" stroke="black" d="M221.45,-433.58C221.01,-419.65 220.39,-399.86 219.88,-383.76"/>
<polygon fill="black" stroke="black" points="223.36,-383.2 219.55,-373.31 216.36,-383.42 223.36,-383.2"/>
</g>
<!-- empechenME -->
<g id="node48" class="node">
<title>empechenME</title>
<text text-anchor="start" x="196.5" y="-181.8" font-family="Times New Roman,serif" font-weight="bold" font-size="14.00">Middle</text>
<text text-anchor="start" x="195" y="-167.8" font-family="Times New Roman,serif" font-weight="bold" font-size="14.00">English</text>
<text text-anchor="start" x="189.5" y="-153.8" font-family="Times New Roman,serif" font-size="14.00" fill="red">empechen</text>
<text text-anchor="start" x="193.5" y="-141.4" font-family="Times New Roman,serif" font-size="12.00">to impede,</text>
<text text-anchor="start" x="196.5" y="-129.4" font-family="Times New Roman,serif" font-size="12.00">to accuse</text>
</g>
<!-- empecherAN&#45;&gt;empechenME -->
<g id="edge48" class="edge">
<title>empecherAN&#45;&gt;empechenME</title>
<path fill="none" stroke="black" stroke-dasharray="1,5" d="M218.91,-336.78C218.76,-307.8 218.46,-248.34 218.24,-206.4"/>
<polygon fill="black" stroke="black" points="221.74,-206.13 218.19,-196.14 214.74,-206.16 221.74,-206.13"/>
</g>
<!-- impeach -->
<g id="node49" class="node">
<title>impeach</title>
<text text-anchor="start" x="193.5" y="-53.8" font-family="Times New Roman,serif" font-weight="bold" font-size="14.00">Modern</text>
<text text-anchor="start" x="195" y="-39.8" font-family="Times New Roman,serif" font-weight="bold" font-size="14.00">English</text>
<text text-anchor="start" x="194.5" y="-25.8" font-family="Times New Roman,serif" font-size="14.00" fill="red">impeach</text>
</g>
<!-- empechenME&#45;&gt;impeach -->
<g id="edge49" class="edge">
<title>empechenME&#45;&gt;impeach</title>
<path fill="none" stroke="black" d="M218,-121.93C218,-108 218,-92.13 218,-78.37"/>
<polygon fill="black" stroke="black" points="221.5,-78.32 218,-68.32 214.5,-78.32 221.5,-78.32"/>
</g>
</g>
</svg>
