<?xml version="1.0" encoding="UTF-8" standalone="no"?>
<!DOCTYPE svg PUBLIC "-//W3C//DTD SVG 1.1//EN"
 "http://www.w3.org/Graphics/SVG/1.1/DTD/svg11.dtd">
<!-- Generated by graphviz version 2.49.0 (20210828.1703)
 -->
<!-- Pages: 1 -->
<svg width="1074pt" height="794pt"
 viewBox="0.00 0.00 1073.50 794.00" xmlns="http://www.w3.org/2000/svg" xmlns:xlink="http://www.w3.org/1999/xlink">
<g id="graph0" class="graph" transform="scale(1 1) rotate(0) translate(4 790)">
<polygon fill="white" stroke="transparent" points="-4,4 -4,-790 1069.5,-790 1069.5,4 -4,4"/>
<!-- ped -->
<g id="node1" class="node">
<title>ped</title>
<g id="a_node1"><a xlink:href="ped-foot0.svg" xlink:title="Indo&#45;European &quot;*ped&#45;&quot; foot">
<polygon fill="none" stroke="black" stroke-dasharray="5,2" points="314,-786 103,-786 103,-682 314,-682 314,-786"/>
<text text-anchor="start" x="130.5" y="-741.8" font-family="Times New Roman,serif" font-weight="bold" font-size="24.00">Indo&#45;European</text>
<text text-anchor="start" x="150.5" y="-713.6" font-family="Times New Roman,serif" font-size="18.00" fill="red">*ped&#45;</text>
<text text-anchor="start" x="240.5" y="-714.2" font-family="Times New Roman,serif" font-size="16.00">foot</text>
</a>
</g>
</g>
<!-- pood -->
<g id="node2" class="node">
<title>pood</title>
<text text-anchor="start" x="67.5" y="-624.3" font-family="Times New Roman,serif" font-size="14.00" fill="red">*pōd&#45;</text>
</g>
<!-- ped&#45;&gt;pood -->
<g id="edge1" class="edge">
<title>ped&#45;&gt;pood</title>
<path fill="none" stroke="black" d="M210.5,-681C210.5,-681 166.24,-665.2 120.9,-646.02"/>
<polygon fill="black" stroke="black" points="122.1,-642.73 111.53,-642.02 119.35,-649.17 122.1,-642.73"/>
</g>
<!-- pedero -->
<g id="node3" class="node">
<title>pedero</title>
<text text-anchor="start" x="138" y="-624.3" font-family="Times New Roman,serif" font-size="14.00" fill="red">*ped&#45;ero&#45;</text>
</g>
<!-- ped&#45;&gt;pedero -->
<g id="edge2" class="edge">
<title>ped&#45;&gt;pedero</title>
<path fill="none" stroke="black" d="M210.5,-681C210.5,-681 198.52,-667.16 186.93,-653.76"/>
<polygon fill="black" stroke="black" points="189.43,-651.3 180.23,-646.03 184.13,-655.88 189.43,-651.3"/>
</g>
<!-- pedel -->
<g id="node4" class="node">
<title>pedel</title>
<text text-anchor="start" x="227.5" y="-624.3" font-family="Times New Roman,serif" font-size="14.00" fill="red">*ped&#45;el&#45;</text>
</g>
<!-- ped&#45;&gt;pedel -->
<g id="edge3" class="edge">
<title>ped&#45;&gt;pedel</title>
<path fill="none" stroke="black" d="M210.5,-681C210.5,-681 220.95,-667.42 231.17,-654.13"/>
<polygon fill="black" stroke="black" points="234.08,-656.09 237.4,-646.03 228.53,-651.82 234.08,-656.09"/>
</g>
<!-- ped_v -->
<g id="node5" class="node">
<title>ped_v</title>
<text text-anchor="start" x="384" y="-630.8" font-family="Times New Roman,serif" font-size="14.00" fill="red">*ped&#45;</text>
<text text-anchor="start" x="353.5" y="-618.4" font-family="Times New Roman,serif" font-size="12.00">to walk, stumble, fall</text>
</g>
<!-- ped&#45;&gt;ped_v -->
<g id="edge4" class="edge">
<title>ped&#45;&gt;ped_v</title>
<path fill="none" stroke="black" d="M210.5,-681C210.5,-681 280.53,-661.83 335.56,-646.77"/>
<polygon fill="black" stroke="black" points="336.57,-650.13 345.29,-644.11 334.72,-643.37 336.57,-650.13"/>
</g>
<!-- pood&#45;&gt;pedero -->
<!-- fotGm -->
<g id="node6" class="node">
<title>fotGm</title>
<text text-anchor="start" x="24" y="-481.8" font-family="Times New Roman,serif" font-weight="bold" font-size="14.00">Germanic</text>
<text text-anchor="start" x="43" y="-467.8" font-family="Times New Roman,serif" font-size="14.00" fill="red">*fōt</text>
<text text-anchor="start" x="45" y="-455.4" font-family="Times New Roman,serif" font-size="12.00">foot</text>
</g>
<!-- pood&#45;&gt;fotGm -->
<g id="edge5" class="edge">
<title>pood&#45;&gt;fotGm</title>
<path fill="none" stroke="black" d="M81.17,-609.93C76.32,-585.02 67.21,-538.22 60.99,-506.34"/>
<polygon fill="black" stroke="black" points="64.36,-505.3 59.01,-496.15 57.49,-506.64 64.36,-505.3"/>
</g>
<!-- pedero&#45;&gt;pedel -->
<!-- feteroGm -->
<g id="node10" class="node">
<title>feteroGm</title>
<text text-anchor="start" x="123" y="-475.8" font-family="Times New Roman,serif" font-weight="bold" font-size="14.00">Germanic</text>
<text text-anchor="start" x="133.5" y="-461.8" font-family="Times New Roman,serif" font-size="14.00" fill="red">*feterō</text>
</g>
<!-- pedero&#45;&gt;feteroGm -->
<g id="edge9" class="edge">
<title>pedero&#45;&gt;feteroGm</title>
<path fill="none" stroke="black" d="M164.17,-609.93C162.11,-583.45 158.11,-532.22 155.64,-500.49"/>
<polygon fill="black" stroke="black" points="159.1,-499.84 154.84,-490.15 152.12,-500.39 159.1,-499.84"/>
</g>
<!-- pedel&#45;&gt;ped_v -->
<!-- fetelGm -->
<g id="node14" class="node">
<title>fetelGm</title>
<text text-anchor="start" x="220" y="-475.8" font-family="Times New Roman,serif" font-weight="bold" font-size="14.00">Germanic</text>
<text text-anchor="start" x="233" y="-461.8" font-family="Times New Roman,serif" font-size="14.00" fill="red">*fetel&#45;</text>
</g>
<!-- pedel&#45;&gt;fetelGm -->
<g id="edge13" class="edge">
<title>pedel&#45;&gt;fetelGm</title>
<path fill="none" stroke="black" d="M250.5,-609.93C250.5,-583.45 250.5,-532.22 250.5,-500.49"/>
<polygon fill="black" stroke="black" points="254,-500.15 250.5,-490.15 247,-500.15 254,-500.15"/>
</g>
<!-- pedyos -->
<g id="node18" class="node">
<title>pedyos</title>
<text text-anchor="start" x="417.5" y="-558.8" font-family="Times New Roman,serif" font-size="14.00" fill="red">*ped&#45;yos&#45;</text>
<text text-anchor="start" x="414.5" y="-546.4" font-family="Times New Roman,serif" font-size="12.00">(comparative)</text>
</g>
<!-- ped_v&#45;&gt;pedyos -->
<g id="edge17" class="edge">
<title>ped_v&#45;&gt;pedyos</title>
<path fill="none" stroke="black" d="M415.5,-609C415.5,-609 423.3,-595.92 431.07,-582.89"/>
<polygon fill="black" stroke="black" points="434.24,-584.41 436.35,-574.03 428.22,-580.82 434.24,-584.41"/>
</g>
<!-- pedsamo -->
<g id="node19" class="node">
<title>pedsamo</title>
<text text-anchor="start" x="513" y="-558.8" font-family="Times New Roman,serif" font-size="14.00" fill="red">*ped&#45;samo&#45;</text>
<text text-anchor="start" x="518.5" y="-546.4" font-family="Times New Roman,serif" font-size="12.00">(superlative)</text>
</g>
<!-- ped_v&#45;&gt;pedsamo -->
<g id="edge18" class="edge">
<title>ped_v&#45;&gt;pedsamo</title>
<path fill="none" stroke="black" d="M415.5,-609C415.5,-609 458.35,-591.99 495.04,-577.43"/>
<polygon fill="black" stroke="black" points="496.69,-580.54 504.69,-573.6 494.1,-574.03 496.69,-580.54"/>
</g>
<!-- pedko -->
<g id="node20" class="node">
<title>pedko</title>
<text text-anchor="start" x="658.5" y="-552.3" font-family="Times New Roman,serif" font-size="14.00" fill="red">*ped&#45;ko&#45;</text>
</g>
<!-- ped_v&#45;&gt;pedko -->
<g id="edge19" class="edge">
<title>ped_v&#45;&gt;pedko</title>
<path fill="none" stroke="black" d="M415.5,-609C415.5,-609 516.63,-589.68 597.5,-574 611.35,-571.32 626.43,-568.38 640.09,-565.71"/>
<polygon fill="black" stroke="black" points="641.07,-569.08 650.21,-563.73 639.72,-562.21 641.07,-569.08"/>
</g>
<!-- fetenGm -->
<g id="node21" class="node">
<title>fetenGm</title>
<text text-anchor="start" x="315" y="-475.8" font-family="Times New Roman,serif" font-weight="bold" font-size="14.00">Germanic</text>
<text text-anchor="start" x="328.5" y="-461.8" font-family="Times New Roman,serif" font-size="14.00" fill="red">*fetēn</text>
</g>
<!-- ped_v&#45;&gt;fetenGm -->
<g id="edge20" class="edge">
<title>ped_v&#45;&gt;fetenGm</title>
<path fill="none" stroke="black" d="M415.5,-609C415.5,-609 379.55,-539.16 359.18,-499.58"/>
<polygon fill="black" stroke="black" points="362.05,-497.51 354.37,-490.22 355.83,-500.72 362.05,-497.51"/>
</g>
<!-- fotOE -->
<g id="node7" class="node">
<title>fotOE</title>
<text text-anchor="start" x="8" y="-304.8" font-family="Times New Roman,serif" font-weight="bold" font-size="14.00">Old English</text>
<text text-anchor="start" x="36.5" y="-290.8" font-family="Times New Roman,serif" font-size="14.00" fill="red">fōt</text>
</g>
<!-- fotGm&#45;&gt;fotOE -->
<g id="edge6" class="edge">
<title>fotGm&#45;&gt;fotOE</title>
<path fill="none" stroke="black" d="M53.13,-447.86C51.3,-416.99 48.08,-362.44 46.13,-329.51"/>
<polygon fill="black" stroke="black" points="49.6,-329.01 45.52,-319.24 42.62,-329.42 49.6,-329.01"/>
</g>
<!-- fotME -->
<g id="node8" class="node">
<title>fotME</title>
<text text-anchor="start" x="23" y="-145.8" font-family="Times New Roman,serif" font-weight="bold" font-size="14.00">Middle</text>
<text text-anchor="start" x="21.5" y="-131.8" font-family="Times New Roman,serif" font-weight="bold" font-size="14.00">English</text>
<text text-anchor="start" x="36.5" y="-117.8" font-family="Times New Roman,serif" font-size="14.00" fill="red">fot</text>
</g>
<!-- fotOE&#45;&gt;fotME -->
<g id="edge7" class="edge">
<title>fotOE&#45;&gt;fotME</title>
<path fill="none" stroke="black" d="M44.5,-282.76C44.5,-256.15 44.5,-204.57 44.5,-170.2"/>
<polygon fill="black" stroke="black" points="48,-170.13 44.5,-160.13 41,-170.13 48,-170.13"/>
</g>
<!-- foot -->
<g id="node9" class="node">
<title>foot</title>
<text text-anchor="start" x="20" y="-47.8" font-family="Times New Roman,serif" font-weight="bold" font-size="14.00">Modern</text>
<text text-anchor="start" x="21.5" y="-33.8" font-family="Times New Roman,serif" font-weight="bold" font-size="14.00">English</text>
<text text-anchor="start" x="32.5" y="-19.8" font-family="Times New Roman,serif" font-size="14.00" fill="red">foot</text>
</g>
<!-- fotME&#45;&gt;foot -->
<g id="edge8" class="edge">
<title>fotME&#45;&gt;foot</title>
<path fill="none" stroke="black" d="M44.5,-109.78C44.5,-98.41 44.5,-84.66 44.5,-72.25"/>
<polygon fill="black" stroke="black" points="48,-72.22 44.5,-62.22 41,-72.22 48,-72.22"/>
</g>
<!-- feterOE -->
<g id="node11" class="node">
<title>feterOE</title>
<text text-anchor="start" x="115" y="-310.8" font-family="Times New Roman,serif" font-weight="bold" font-size="14.00">Old English</text>
<text text-anchor="start" x="139" y="-296.8" font-family="Times New Roman,serif" font-size="14.00" fill="red">feter</text>
<text text-anchor="start" x="134.5" y="-284.4" font-family="Times New Roman,serif" font-size="12.00">leg iron</text>
</g>
<!-- feteroGm&#45;&gt;feterOE -->
<g id="edge10" class="edge">
<title>feteroGm&#45;&gt;feterOE</title>
<path fill="none" stroke="black" d="M153.3,-453.87C152.97,-426.18 152.32,-371.13 151.9,-335.47"/>
<polygon fill="black" stroke="black" points="155.39,-335.03 151.77,-325.08 148.39,-335.12 155.39,-335.03"/>
</g>
<!-- feterME -->
<g id="node12" class="node">
<title>feterME</title>
<text text-anchor="start" x="130" y="-145.8" font-family="Times New Roman,serif" font-weight="bold" font-size="14.00">Middle</text>
<text text-anchor="start" x="128.5" y="-131.8" font-family="Times New Roman,serif" font-weight="bold" font-size="14.00">English</text>
<text text-anchor="start" x="139" y="-117.8" font-family="Times New Roman,serif" font-size="14.00" fill="red">feter</text>
</g>
<!-- feterOE&#45;&gt;feterME -->
<g id="edge11" class="edge">
<title>feterOE&#45;&gt;feterME</title>
<path fill="none" stroke="black" d="M151.5,-276.85C151.5,-249.09 151.5,-202.3 151.5,-170.32"/>
<polygon fill="black" stroke="black" points="155,-170.1 151.5,-160.1 148,-170.1 155,-170.1"/>
</g>
<!-- fetter -->
<g id="node13" class="node">
<title>fetter</title>
<text text-anchor="start" x="127" y="-47.8" font-family="Times New Roman,serif" font-weight="bold" font-size="14.00">Modern</text>
<text text-anchor="start" x="128.5" y="-33.8" font-family="Times New Roman,serif" font-weight="bold" font-size="14.00">English</text>
<text text-anchor="start" x="137" y="-19.8" font-family="Times New Roman,serif" font-size="14.00" fill="red">fetter</text>
</g>
<!-- feterME&#45;&gt;fetter -->
<g id="edge12" class="edge">
<title>feterME&#45;&gt;fetter</title>
<path fill="none" stroke="black" d="M151.5,-109.78C151.5,-98.41 151.5,-84.66 151.5,-72.25"/>
<polygon fill="black" stroke="black" points="155,-72.22 151.5,-62.22 148,-72.22 155,-72.22"/>
</g>
<!-- vizzelach -->
<g id="node15" class="node">
<title>vizzelach</title>
<text text-anchor="start" x="222.5" y="-317.8" font-family="Times New Roman,serif" font-weight="bold" font-size="14.00">Old High</text>
<text text-anchor="start" x="225" y="-303.8" font-family="Times New Roman,serif" font-weight="bold" font-size="14.00">German</text>
<text text-anchor="start" x="225" y="-289.8" font-family="Times New Roman,serif" font-size="14.00" fill="red">vizzelach</text>
<text text-anchor="start" x="235" y="-277.4" font-family="Times New Roman,serif" font-size="12.00">fetlock</text>
</g>
<!-- fetelGm&#45;&gt;vizzelach -->
<g id="edge14" class="edge">
<title>fetelGm&#45;&gt;vizzelach</title>
<path fill="none" stroke="black" d="M250.5,-453.87C250.5,-427.9 250.5,-377.84 250.5,-342.3"/>
<polygon fill="black" stroke="black" points="254,-342.24 250.5,-332.24 247,-342.24 254,-342.24"/>
</g>
<!-- fitlokME -->
<g id="node16" class="node">
<title>fitlokME</title>
<text text-anchor="start" x="229" y="-145.8" font-family="Times New Roman,serif" font-weight="bold" font-size="14.00">Middle</text>
<text text-anchor="start" x="227.5" y="-131.8" font-family="Times New Roman,serif" font-weight="bold" font-size="14.00">English</text>
<text text-anchor="start" x="236" y="-117.8" font-family="Times New Roman,serif" font-size="14.00" fill="red">fitlok</text>
</g>
<!-- vizzelach&#45;&gt;fitlokME -->
<g id="edge15" class="edge">
<title>vizzelach&#45;&gt;fitlokME</title>
<path fill="none" stroke="black" stroke-dasharray="5,2" d="M250.5,-269.92C250.5,-241.75 250.5,-199.7 250.5,-170.26"/>
<polygon fill="black" stroke="black" points="254,-170.03 250.5,-160.03 247,-170.03 254,-170.03"/>
</g>
<!-- fetlock -->
<g id="node17" class="node">
<title>fetlock</title>
<text text-anchor="start" x="226" y="-47.8" font-family="Times New Roman,serif" font-weight="bold" font-size="14.00">Modern</text>
<text text-anchor="start" x="227.5" y="-33.8" font-family="Times New Roman,serif" font-weight="bold" font-size="14.00">English</text>
<text text-anchor="start" x="231" y="-19.8" font-family="Times New Roman,serif" font-size="14.00" fill="red">fetlock</text>
</g>
<!-- fitlokME&#45;&gt;fetlock -->
<g id="edge16" class="edge">
<title>fitlokME&#45;&gt;fetlock</title>
<path fill="none" stroke="black" d="M250.5,-109.78C250.5,-98.41 250.5,-84.66 250.5,-72.25"/>
<polygon fill="black" stroke="black" points="254,-72.22 250.5,-62.22 247,-72.22 254,-72.22"/>
</g>
<!-- pedyos&#45;&gt;pedsamo -->
<!-- peiorL -->
<g id="node25" class="node">
<title>peiorL</title>
<text text-anchor="start" x="432" y="-481.8" font-family="Times New Roman,serif" font-weight="bold" font-size="14.00">Latin</text>
<text text-anchor="start" x="434" y="-467.8" font-family="Times New Roman,serif" font-size="14.00" fill="red">pēior</text>
<text text-anchor="start" x="410.5" y="-455.4" font-family="Times New Roman,serif" font-size="12.00">stumbling, worse</text>
</g>
<!-- pedyos&#45;&gt;peiorL -->
<g id="edge24" class="edge">
<title>pedyos&#45;&gt;peiorL</title>
<path fill="none" stroke="black" d="M446.92,-537.61C447.14,-528.58 447.42,-517.24 447.68,-506.59"/>
<polygon fill="black" stroke="black" points="451.19,-506.36 447.93,-496.28 444.19,-506.19 451.19,-506.36"/>
</g>
<!-- pedsamo&#45;&gt;pedko -->
<!-- pessimusL -->
<g id="node36" class="node">
<title>pessimusL</title>
<text text-anchor="start" x="530" y="-481.8" font-family="Times New Roman,serif" font-weight="bold" font-size="14.00">Latin</text>
<text text-anchor="start" x="520.5" y="-467.8" font-family="Times New Roman,serif" font-size="14.00" fill="red">pessimus</text>
<text text-anchor="start" x="533.5" y="-455.4" font-family="Times New Roman,serif" font-size="12.00">worst</text>
</g>
<!-- pedsamo&#45;&gt;pessimusL -->
<g id="edge35" class="edge">
<title>pedsamo&#45;&gt;pessimusL</title>
<path fill="none" stroke="black" d="M546.5,-537.61C546.5,-528.58 546.5,-517.24 546.5,-506.59"/>
<polygon fill="black" stroke="black" points="550,-506.28 546.5,-496.28 543,-506.28 550,-506.28"/>
</g>
<!-- peccareL -->
<g id="node39" class="node">
<title>peccareL</title>
<text text-anchor="start" x="785" y="-487.8" font-family="Times New Roman,serif" font-weight="bold" font-size="14.00">Latin</text>
<text text-anchor="start" x="779.5" y="-473.8" font-family="Times New Roman,serif" font-size="14.00" fill="red">peccāre</text>
<text text-anchor="start" x="776.5" y="-461.4" font-family="Times New Roman,serif" font-size="12.00">to stumble,</text>
<text text-anchor="start" x="789" y="-449.4" font-family="Times New Roman,serif" font-size="12.00">to sin</text>
</g>
<!-- pedko&#45;&gt;peccareL -->
<g id="edge38" class="edge">
<title>pedko&#45;&gt;peccareL</title>
<path fill="none" stroke="black" d="M709.03,-537.81C723.63,-527.57 742.57,-514.3 759.49,-502.44"/>
<polygon fill="black" stroke="black" points="761.95,-504.99 768.13,-496.39 757.93,-499.26 761.95,-504.99"/>
</g>
<!-- fecceanOE -->
<g id="node22" class="node">
<title>fecceanOE</title>
<text text-anchor="start" x="313" y="-317.8" font-family="Times New Roman,serif" font-weight="bold" font-size="14.00">Old English</text>
<text text-anchor="start" x="334" y="-303.8" font-family="Times New Roman,serif" font-size="14.00" fill="red">fetian</text>
<text text-anchor="start" x="328" y="-289.8" font-family="Times New Roman,serif" font-size="14.00" fill="red">feccean</text>
<text text-anchor="start" x="319" y="-277.4" font-family="Times New Roman,serif" font-size="12.00">to bring back</text>
</g>
<!-- fetenGm&#45;&gt;fecceanOE -->
<g id="edge21" class="edge">
<title>fetenGm&#45;&gt;fecceanOE</title>
<path fill="none" stroke="black" d="M345.91,-453.87C346.52,-427.9 347.7,-377.84 348.55,-342.3"/>
<polygon fill="black" stroke="black" points="352.05,-342.32 348.78,-332.24 345.05,-342.16 352.05,-342.32"/>
</g>
<!-- fecchenME -->
<g id="node23" class="node">
<title>fecchenME</title>
<text text-anchor="start" x="328" y="-145.8" font-family="Times New Roman,serif" font-weight="bold" font-size="14.00">Middle</text>
<text text-anchor="start" x="326.5" y="-131.8" font-family="Times New Roman,serif" font-weight="bold" font-size="14.00">English</text>
<text text-anchor="start" x="327.5" y="-117.8" font-family="Times New Roman,serif" font-size="14.00" fill="red">fecchen</text>
</g>
<!-- fecceanOE&#45;&gt;fecchenME -->
<g id="edge22" class="edge">
<title>fecceanOE&#45;&gt;fecchenME</title>
<path fill="none" stroke="black" d="M349.5,-269.92C349.5,-241.75 349.5,-199.7 349.5,-170.26"/>
<polygon fill="black" stroke="black" points="353,-170.03 349.5,-160.03 346,-170.03 353,-170.03"/>
</g>
<!-- fetch -->
<g id="node24" class="node">
<title>fetch</title>
<text text-anchor="start" x="325" y="-47.8" font-family="Times New Roman,serif" font-weight="bold" font-size="14.00">Modern</text>
<text text-anchor="start" x="326.5" y="-33.8" font-family="Times New Roman,serif" font-weight="bold" font-size="14.00">English</text>
<text text-anchor="start" x="335.5" y="-19.8" font-family="Times New Roman,serif" font-size="14.00" fill="red">fetch</text>
</g>
<!-- fecchenME&#45;&gt;fetch -->
<g id="edge23" class="edge">
<title>fecchenME&#45;&gt;fetch</title>
<path fill="none" stroke="black" d="M349.5,-109.78C349.5,-98.41 349.5,-84.66 349.5,-72.25"/>
<polygon fill="black" stroke="black" points="353,-72.22 349.5,-62.22 346,-72.22 353,-72.22"/>
</g>
<!-- peiorareL -->
<g id="node26" class="node">
<title>peiorareL</title>
<text text-anchor="start" x="425.5" y="-389.8" font-family="Times New Roman,serif" font-size="14.00" fill="red">pēiōrāre</text>
<text text-anchor="start" x="425.5" y="-377.4" font-family="Times New Roman,serif" font-size="12.00">to worsen</text>
</g>
<!-- peiorL&#45;&gt;peiorareL -->
<g id="edge25" class="edge">
<title>peiorL&#45;&gt;peiorareL</title>
<path fill="none" stroke="black" d="M448.5,-447.88C448.5,-437.84 448.5,-426 448.5,-415.51"/>
<polygon fill="black" stroke="black" points="452,-415.21 448.5,-405.21 445,-415.21 452,-415.21"/>
</g>
<!-- peioratusL -->
<g id="node27" class="node">
<title>peioratusL</title>
<text text-anchor="start" x="421.5" y="-297.3" font-family="Times New Roman,serif" font-size="14.00" fill="red">pēiōrātus</text>
</g>
<!-- peiorareL&#45;&gt;peioratusL -->
<g id="edge26" class="edge">
<title>peiorareL&#45;&gt;peioratusL</title>
<path fill="none" stroke="black" d="M448.29,-368.6C448.16,-357.26 447.98,-342.23 447.83,-329.32"/>
<polygon fill="black" stroke="black" points="451.32,-329.05 447.7,-319.1 444.32,-329.14 451.32,-329.05"/>
</g>
<!-- impeiorareL -->
<g id="node30" class="node">
<title>impeiorareL</title>
<text text-anchor="start" x="599" y="-303.8" font-family="Times New Roman,serif" font-size="14.00" fill="red">impēiōrāre</text>
<text text-anchor="start" x="603" y="-291.4" font-family="Times New Roman,serif" font-size="12.00">to worsen?</text>
</g>
<!-- peiorareL&#45;&gt;impeiorareL -->
<g id="edge30" class="edge">
<title>peiorareL&#45;&gt;impeiorareL</title>
<path fill="none" stroke="black" d="M479.71,-373.74C518.61,-358.46 582.93,-333.19 607.01,-323.73"/>
<polygon fill="black" stroke="black" points="608.47,-326.91 616.5,-320 605.91,-320.4 608.47,-326.91"/>
</g>
<!-- peioratioL -->
<g id="node28" class="node">
<title>peioratioL</title>
<text text-anchor="start" x="421" y="-218.8" font-family="Times New Roman,serif" font-size="14.00" fill="red">pēiōrātiō,</text>
<text text-anchor="start" x="417" y="-203.8" font-family="Times New Roman,serif" font-size="14.00" fill="red">pēiōrātiōn&#45;</text>
</g>
<!-- peioratusL&#45;&gt;peioratioL -->
<g id="edge27" class="edge">
<title>peioratusL&#45;&gt;peioratioL</title>
<path fill="none" stroke="black" d="M447.5,-282.6C447.5,-271.56 447.5,-257.02 447.5,-244.35"/>
<polygon fill="black" stroke="black" points="451,-244.25 447.5,-234.25 444,-244.25 451,-244.25"/>
</g>
<!-- pejoration -->
<g id="node29" class="node">
<title>pejoration</title>
<text text-anchor="start" x="422" y="-47.8" font-family="Times New Roman,serif" font-weight="bold" font-size="14.00">Modern</text>
<text text-anchor="start" x="423.5" y="-33.8" font-family="Times New Roman,serif" font-weight="bold" font-size="14.00">English</text>
<text text-anchor="start" x="418.5" y="-19.8" font-family="Times New Roman,serif" font-size="14.00" fill="red">pejoration</text>
</g>
<!-- peioratioL&#45;&gt;pejoration -->
<g id="edge28" class="edge">
<title>peioratioL&#45;&gt;pejoration</title>
<path fill="none" stroke="black" stroke-dasharray="5,2" d="M447.4,-195.83C447.23,-166.81 446.91,-109.52 446.7,-72.53"/>
<polygon fill="black" stroke="black" points="450.19,-72.2 446.64,-62.22 443.19,-72.24 450.19,-72.2"/>
</g>
<!-- empeirerOF -->
<g id="node31" class="node">
<title>empeirerOF</title>
<text text-anchor="start" x="594.5" y="-218.8" font-family="Times New Roman,serif" font-weight="bold" font-size="14.00">Old French</text>
<text text-anchor="start" x="605" y="-204.8" font-family="Times New Roman,serif" font-size="14.00" fill="red">empeirer</text>
</g>
<!-- impeiorareL&#45;&gt;empeirerOF -->
<g id="edge32" class="edge">
<title>impeiorareL&#45;&gt;empeirerOF</title>
<path fill="none" stroke="black" d="M628.71,-282.6C628.84,-271.26 629.02,-256.23 629.17,-243.32"/>
<polygon fill="black" stroke="black" points="632.68,-243.14 629.3,-233.1 625.68,-243.05 632.68,-243.14"/>
</g>
<!-- empairenME -->
<g id="node32" class="node">
<title>empairenME</title>
<text text-anchor="start" x="608" y="-145.8" font-family="Times New Roman,serif" font-weight="bold" font-size="14.00">Middle</text>
<text text-anchor="start" x="606.5" y="-131.8" font-family="Times New Roman,serif" font-weight="bold" font-size="14.00">English</text>
<text text-anchor="start" x="604" y="-117.8" font-family="Times New Roman,serif" font-size="14.00" fill="red">empeiren</text>
</g>
<!-- empeirerOF&#45;&gt;empairenME -->
<g id="edge33" class="edge">
<title>empeirerOF&#45;&gt;empairenME</title>
<path fill="none" stroke="black" stroke-dasharray="5,2" d="M629.5,-196.69C629.5,-188.86 629.5,-179.33 629.5,-170.16"/>
<polygon fill="black" stroke="black" points="633,-170.07 629.5,-160.07 626,-170.07 633,-170.07"/>
</g>
<!-- impair -->
<g id="node33" class="node">
<title>impair</title>
<text text-anchor="start" x="604" y="-47.8" font-family="Times New Roman,serif" font-weight="bold" font-size="14.00">Modern</text>
<text text-anchor="start" x="605.5" y="-33.8" font-family="Times New Roman,serif" font-weight="bold" font-size="14.00">English</text>
<text text-anchor="start" x="611" y="-19.8" font-family="Times New Roman,serif" font-size="14.00" fill="red">impair</text>
</g>
<!-- empairenME&#45;&gt;impair -->
<g id="edge34" class="edge">
<title>empairenME&#45;&gt;impair</title>
<path fill="none" stroke="black" d="M629.25,-109.78C629.13,-98.41 628.99,-84.66 628.86,-72.25"/>
<polygon fill="black" stroke="black" points="632.36,-72.18 628.75,-62.22 625.36,-72.25 632.36,-72.18"/>
</g>
<!-- enIE -->
<g id="node34" class="node">
<title>enIE</title>
<g id="a_node34"><a xlink:href="en-in1.svg" xlink:title="&lt;b&gt;Indo&#45;&lt;br/&gt;European&lt;/b&gt;&lt;br/&gt;&lt;font color=&quot;red&quot;&gt;*en&lt;/font&gt;&lt;br/&gt;&lt;font point&#45;size=&quot;12&quot;&gt;in&lt;/font&gt;">
<path fill="none" stroke="black" stroke-dasharray="5,2" d="M649,-765C649,-765 596,-765 596,-765 590,-765 584,-759 584,-753 584,-753 584,-715 584,-715 584,-709 590,-703 596,-703 596,-703 649,-703 649,-703 655,-703 661,-709 661,-715 661,-715 661,-753 661,-753 661,-759 655,-765 649,-765"/>
<text text-anchor="start" x="606" y="-750.8" font-family="Times New Roman,serif" font-weight="bold" font-size="14.00">Indo&#45;</text>
<text text-anchor="start" x="592" y="-736.8" font-family="Times New Roman,serif" font-weight="bold" font-size="14.00">European</text>
<text text-anchor="start" x="612.5" y="-722.8" font-family="Times New Roman,serif" font-size="14.00" fill="red">*en</text>
<text text-anchor="start" x="618.5" y="-710.4" font-family="Times New Roman,serif" font-size="12.00">in</text>
</a>
</g>
</g>
<!-- in2L -->
<g id="node35" class="node">
<title>in2L</title>
<text text-anchor="start" x="612" y="-487.8" font-family="Times New Roman,serif" font-weight="bold" font-size="14.00">Latin</text>
<text text-anchor="start" x="621" y="-473.8" font-family="Times New Roman,serif" font-size="14.00" fill="red">in&#45;</text>
<text text-anchor="start" x="607" y="-461.4" font-family="Times New Roman,serif" font-size="12.00">(intensive</text>
<text text-anchor="start" x="613.5" y="-449.4" font-family="Times New Roman,serif" font-size="12.00">prefix)</text>
</g>
<!-- enIE&#45;&gt;in2L -->
<g id="edge29" class="edge">
<title>enIE&#45;&gt;in2L</title>
<path fill="none" stroke="black" d="M623.19,-702.92C624.28,-655.77 626.39,-564.48 627.59,-512.23"/>
<polygon fill="black" stroke="black" points="631.1,-512.09 627.83,-502.01 624.1,-511.93 631.1,-512.09"/>
</g>
<!-- in2L&#45;&gt;impeiorareL -->
<g id="edge31" class="edge">
<title>in2L&#45;&gt;impeiorareL</title>
<path fill="none" stroke="black" d="M626.19,-441.89C623.46,-407.61 619.08,-352.49 617.3,-330.02"/>
<polygon fill="black" stroke="black" points="620.78,-329.69 616.5,-320 613.8,-330.25 620.78,-329.69"/>
</g>
<!-- pessimismeF -->
<g id="node37" class="node">
<title>pessimismeF</title>
<text text-anchor="start" x="515.5" y="-144.8" font-family="Times New Roman,serif" font-weight="bold" font-size="14.00">French</text>
<text text-anchor="start" x="505" y="-130.8" font-family="Times New Roman,serif" font-size="14.00" fill="red">pessimisme</text>
<text text-anchor="start" x="514.5" y="-118.4" font-family="Times New Roman,serif" font-size="12.00">pessimism</text>
</g>
<!-- pessimusL&#45;&gt;pessimismeF -->
<g id="edge36" class="edge">
<title>pessimusL&#45;&gt;pessimismeF</title>
<path fill="none" stroke="black" stroke-dasharray="5,2" d="M545.88,-447.97C544.32,-389.88 540.22,-237.18 538.4,-169.32"/>
<polygon fill="black" stroke="black" points="541.89,-169.09 538.12,-159.19 534.89,-169.28 541.89,-169.09"/>
</g>
<!-- pessimism -->
<g id="node38" class="node">
<title>pessimism</title>
<text text-anchor="start" x="514" y="-47.8" font-family="Times New Roman,serif" font-weight="bold" font-size="14.00">Modern</text>
<text text-anchor="start" x="515.5" y="-33.8" font-family="Times New Roman,serif" font-weight="bold" font-size="14.00">English</text>
<text text-anchor="start" x="509" y="-19.8" font-family="Times New Roman,serif" font-size="14.00" fill="red">pessimism</text>
</g>
<!-- pessimismeF&#45;&gt;pessimism -->
<g id="edge37" class="edge">
<title>pessimismeF&#45;&gt;pessimism</title>
<path fill="none" stroke="black" stroke-dasharray="5,2" d="M537.74,-110.76C537.86,-99.23 538.01,-85.07 538.14,-72.32"/>
<polygon fill="black" stroke="black" points="541.65,-72.06 538.25,-62.03 534.65,-71.99 541.65,-72.06"/>
</g>
<!-- peccansL -->
<g id="node40" class="node">
<title>peccansL</title>
<text text-anchor="start" x="689.5" y="-390.8" font-family="Times New Roman,serif" font-size="14.00" fill="red">peccāns</text>
<text text-anchor="start" x="688" y="-375.8" font-family="Times New Roman,serif" font-size="14.00" fill="red">peccant&#45;</text>
</g>
<!-- peccareL&#45;&gt;peccansL -->
<g id="edge39" class="edge">
<title>peccareL&#45;&gt;peccansL</title>
<path fill="none" stroke="black" d="M811.5,-441C811.5,-441 781.25,-424.81 754.2,-410.32"/>
<polygon fill="black" stroke="black" points="755.66,-407.14 745.19,-405.5 752.35,-413.31 755.66,-407.14"/>
</g>
<!-- peccaviL -->
<g id="node41" class="node">
<title>peccaviL</title>
<text text-anchor="start" x="780" y="-389.8" font-family="Times New Roman,serif" font-size="14.00" fill="red">peccavi</text>
<text text-anchor="start" x="771.5" y="-377.4" font-family="Times New Roman,serif" font-size="12.00">I have sinned</text>
</g>
<!-- peccareL&#45;&gt;peccaviL -->
<g id="edge40" class="edge">
<title>peccareL&#45;&gt;peccaviL</title>
<path fill="none" stroke="black" d="M811.5,-441C811.5,-441 809.05,-428.02 806.58,-414.9"/>
<polygon fill="black" stroke="black" points="810.01,-414.24 804.72,-405.06 803.13,-415.54 810.01,-414.24"/>
</g>
<!-- peccatumL -->
<g id="node42" class="node">
<title>peccatumL</title>
<text text-anchor="start" x="866" y="-389.8" font-family="Times New Roman,serif" font-size="14.00" fill="red">peccātum</text>
<text text-anchor="start" x="867" y="-377.4" font-family="Times New Roman,serif" font-size="12.00">a sin (neut.)</text>
</g>
<!-- peccareL&#45;&gt;peccatumL -->
<g id="edge41" class="edge">
<title>peccareL&#45;&gt;peccatumL</title>
<path fill="none" stroke="black" d="M811.5,-441C811.5,-441 836.15,-425.07 858.42,-410.67"/>
<polygon fill="black" stroke="black" points="860.6,-413.43 867.1,-405.06 856.8,-407.55 860.6,-413.43"/>
</g>
<!-- impeccabilis -->
<g id="node50" class="node">
<title>impeccabilis</title>
<text text-anchor="start" x="972.5" y="-383.3" font-family="Times New Roman,serif" font-size="14.00" fill="red">impeccābilis</text>
</g>
<!-- peccareL&#45;&gt;impeccabilis -->
<g id="edge51" class="edge">
<title>peccareL&#45;&gt;impeccabilis</title>
<path fill="none" stroke="black" d="M811.5,-441C811.5,-441 947.39,-415.15 985.61,-407.88"/>
<polygon fill="black" stroke="black" points="986.33,-411.31 995.5,-406 985.02,-404.43 986.33,-411.31"/>
</g>
<!-- peccant -->
<g id="node43" class="node">
<title>peccant</title>
<text text-anchor="start" x="689" y="-53.8" font-family="Times New Roman,serif" font-weight="bold" font-size="14.00">Modern</text>
<text text-anchor="start" x="690.5" y="-39.8" font-family="Times New Roman,serif" font-weight="bold" font-size="14.00">English</text>
<text text-anchor="start" x="691.5" y="-25.8" font-family="Times New Roman,serif" font-size="14.00" fill="red">peccant</text>
<text text-anchor="start" x="687.5" y="-13.4" font-family="Times New Roman,serif" font-size="12.00">sinful, guilty</text>
</g>
<!-- peccansL&#45;&gt;peccant -->
<g id="edge42" class="edge">
<title>peccansL&#45;&gt;peccant</title>
<path fill="none" stroke="black" stroke-dasharray="5,2" d="M712.55,-367.78C712.71,-313.75 713.17,-153.5 713.38,-78.09"/>
<polygon fill="black" stroke="black" points="716.88,-78.04 713.41,-68.03 709.88,-78.02 716.88,-78.04"/>
</g>
<!-- peccavi -->
<g id="node44" class="node">
<title>peccavi</title>
<text text-anchor="start" x="777" y="-59.8" font-family="Times New Roman,serif" font-weight="bold" font-size="14.00">Modern</text>
<text text-anchor="start" x="778.5" y="-45.8" font-family="Times New Roman,serif" font-weight="bold" font-size="14.00">English</text>
<text text-anchor="start" x="780" y="-31.8" font-family="Times New Roman,serif" font-size="14.00" fill="red">peccavi</text>
<text text-anchor="start" x="773.5" y="-19.4" font-family="Times New Roman,serif" font-size="12.00">a confession</text>
<text text-anchor="start" x="789" y="-7.4" font-family="Times New Roman,serif" font-size="12.00">of sin</text>
</g>
<!-- peccaviL&#45;&gt;peccavi -->
<g id="edge43" class="edge">
<title>peccaviL&#45;&gt;peccavi</title>
<path fill="none" stroke="black" stroke-dasharray="5,2" d="M801.5,-368.74C801.5,-317.09 801.5,-162.49 801.5,-84.33"/>
<polygon fill="black" stroke="black" points="805,-84.28 801.5,-74.28 798,-84.28 805,-84.28"/>
</g>
<!-- peccatoI -->
<g id="node45" class="node">
<title>peccatoI</title>
<text text-anchor="start" x="937.5" y="-218.8" font-family="Times New Roman,serif" font-weight="bold" font-size="14.00">Italian</text>
<text text-anchor="start" x="935" y="-204.8" font-family="Times New Roman,serif" font-size="14.00" fill="red">peccato</text>
</g>
<!-- peccatumL&#45;&gt;peccatoI -->
<g id="edge44" class="edge">
<title>peccatumL&#45;&gt;peccatoI</title>
<path fill="none" stroke="black" d="M895.5,-368C895.5,-368 928.89,-286.14 946.66,-242.57"/>
<polygon fill="black" stroke="black" points="949.97,-243.72 950.51,-233.14 943.49,-241.08 949.97,-243.72"/>
</g>
<!-- pecadoS -->
<g id="node47" class="node">
<title>pecadoS</title>
<text text-anchor="start" x="840" y="-218.8" font-family="Times New Roman,serif" font-weight="bold" font-size="14.00">Spanish</text>
<text text-anchor="start" x="843.5" y="-204.8" font-family="Times New Roman,serif" font-size="14.00" fill="red">pecado</text>
</g>
<!-- peccatumL&#45;&gt;pecadoS -->
<g id="edge45" class="edge">
<title>peccatumL&#45;&gt;pecadoS</title>
<path fill="none" stroke="black" d="M895.5,-368C895.5,-368 878.95,-286.83 870.03,-243.12"/>
<polygon fill="black" stroke="black" points="873.42,-242.24 868,-233.14 866.56,-243.64 873.42,-242.24"/>
</g>
<!-- peccadiglio -->
<g id="node46" class="node">
<title>peccadiglio</title>
<text text-anchor="start" x="925.5" y="-137.8" font-family="Times New Roman,serif" font-size="14.00" fill="red">peccadiglio</text>
<text text-anchor="start" x="931" y="-125.4" font-family="Times New Roman,serif" font-size="12.00">(diminutive)</text>
</g>
<!-- peccatoI&#45;&gt;peccadiglio -->
<g id="edge46" class="edge">
<title>peccatoI&#45;&gt;peccadiglio</title>
<path fill="none" stroke="black" d="M957.5,-196.69C957.5,-186.89 957.5,-174.42 957.5,-163.33"/>
<polygon fill="black" stroke="black" points="961,-163.26 957.5,-153.26 954,-163.26 961,-163.26"/>
</g>
<!-- peccadillo -->
<g id="node49" class="node">
<title>peccadillo</title>
<text text-anchor="start" x="887" y="-53.8" font-family="Times New Roman,serif" font-weight="bold" font-size="14.00">Modern</text>
<text text-anchor="start" x="888.5" y="-39.8" font-family="Times New Roman,serif" font-weight="bold" font-size="14.00">English</text>
<text text-anchor="start" x="882.5" y="-25.8" font-family="Times New Roman,serif" font-size="14.00" fill="red">peccadillo</text>
<text text-anchor="start" x="883.5" y="-13.4" font-family="Times New Roman,serif" font-size="12.00">a minor fault</text>
</g>
<!-- peccadiglio&#45;&gt;peccadillo -->
<g id="edge48" class="edge">
<title>peccadiglio&#45;&gt;peccadillo</title>
<path fill="none" stroke="black" stroke-dasharray="5,2" d="M945.41,-116.92C936.36,-104.13 924.38,-87.2 917.35,-77.26"/>
<polygon fill="black" stroke="black" points="920.13,-75.14 911.5,-69 914.42,-79.18 920.13,-75.14"/>
</g>
<!-- pecadilloS -->
<g id="node48" class="node">
<title>pecadilloS</title>
<text text-anchor="start" x="839" y="-137.8" font-family="Times New Roman,serif" font-size="14.00" fill="red">pecadillo</text>
<text text-anchor="start" x="838" y="-125.4" font-family="Times New Roman,serif" font-size="12.00">(diminutive)</text>
</g>
<!-- pecadoS&#45;&gt;pecadilloS -->
<g id="edge47" class="edge">
<title>pecadoS&#45;&gt;pecadilloS</title>
<path fill="none" stroke="black" d="M864.5,-196.69C864.5,-186.89 864.5,-174.42 864.5,-163.33"/>
<polygon fill="black" stroke="black" points="868,-163.26 864.5,-153.26 861,-163.26 868,-163.26"/>
</g>
<!-- pecadilloS&#45;&gt;peccadillo -->
<g id="edge49" class="edge">
<title>pecadilloS&#45;&gt;peccadillo</title>
<path fill="none" stroke="black" stroke-dasharray="5,2" d="M876.85,-116.92C886.1,-104.13 898.34,-87.2 905.53,-77.26"/>
<polygon fill="black" stroke="black" points="908.48,-79.15 911.5,-69 902.8,-75.05 908.48,-79.15"/>
</g>
<!-- impeccable -->
<g id="node51" class="node">
<title>impeccable</title>
<text text-anchor="start" x="1001" y="-53.8" font-family="Times New Roman,serif" font-weight="bold" font-size="14.00">Modern</text>
<text text-anchor="start" x="1002.5" y="-39.8" font-family="Times New Roman,serif" font-weight="bold" font-size="14.00">English</text>
<text text-anchor="start" x="993.5" y="-25.8" font-family="Times New Roman,serif" font-size="14.00" fill="red">impeccable</text>
<text text-anchor="start" x="1007.5" y="-13.4" font-family="Times New Roman,serif" font-size="12.00">flawless</text>
</g>
<!-- impeccabilis&#45;&gt;impeccable -->
<g id="edge53" class="edge">
<title>impeccabilis&#45;&gt;impeccable</title>
<path fill="none" stroke="black" stroke-dasharray="5,2" d="M1008.39,-368.74C1011.14,-315.69 1019.5,-154.03 1023.42,-78.14"/>
<polygon fill="black" stroke="black" points="1026.93,-78.19 1023.95,-68.02 1019.94,-77.83 1026.93,-78.19"/>
</g>
<!-- neIE -->
<g id="node52" class="node">
<title>neIE</title>
<g id="a_node52"><a xlink:href="ne-not3.svg" xlink:title="&lt;b&gt;Indo&#45;&lt;br/&gt;European&lt;/b&gt;&lt;br/&gt;&lt;font color=&quot;red&quot;&gt;*ne&lt;/font&gt;&lt;br/&gt;&lt;font point&#45;size=&quot;12&quot;&gt;not&lt;/font&gt;">
<path fill="none" stroke="black" stroke-dasharray="5,2" d="M1034,-765C1034,-765 981,-765 981,-765 975,-765 969,-759 969,-753 969,-753 969,-715 969,-715 969,-709 975,-703 981,-703 981,-703 1034,-703 1034,-703 1040,-703 1046,-709 1046,-715 1046,-715 1046,-753 1046,-753 1046,-759 1040,-765 1034,-765"/>
<text text-anchor="start" x="991" y="-750.8" font-family="Times New Roman,serif" font-weight="bold" font-size="14.00">Indo&#45;</text>
<text text-anchor="start" x="977" y="-736.8" font-family="Times New Roman,serif" font-weight="bold" font-size="14.00">European</text>
<text text-anchor="start" x="997.5" y="-722.8" font-family="Times New Roman,serif" font-size="14.00" fill="red">*ne</text>
<text text-anchor="start" x="1000" y="-710.4" font-family="Times New Roman,serif" font-size="12.00">not</text>
</a>
</g>
</g>
<!-- in1L -->
<g id="node53" class="node">
<title>in1L</title>
<text text-anchor="start" x="991" y="-475.8" font-family="Times New Roman,serif" font-weight="bold" font-size="14.00">Latin</text>
<text text-anchor="start" x="1000" y="-461.8" font-family="Times New Roman,serif" font-size="14.00" fill="red">in&#45;</text>
</g>
<!-- neIE&#45;&gt;in1L -->
<g id="edge50" class="edge">
<title>neIE&#45;&gt;in1L</title>
<path fill="none" stroke="black" d="M1007.5,-702.92C1007.5,-651.97 1007.5,-549.45 1007.5,-500.38"/>
<polygon fill="black" stroke="black" points="1011,-500.21 1007.5,-490.21 1004,-500.21 1011,-500.21"/>
</g>
<!-- in1L&#45;&gt;impeccabilis -->
<g id="edge52" class="edge">
<title>in1L&#45;&gt;impeccabilis</title>
<path fill="none" stroke="black" d="M1004.35,-453.92C1002.13,-441.89 999.22,-426.18 997.36,-416.08"/>
<polygon fill="black" stroke="black" points="1000.76,-415.2 995.5,-406 993.87,-416.47 1000.76,-415.2"/>
</g>
</g>
</svg>
