<?xml version="1.0" encoding="UTF-8" standalone="no"?>
<!DOCTYPE svg PUBLIC "-//W3C//DTD SVG 1.1//EN"
 "http://www.w3.org/Graphics/SVG/1.1/DTD/svg11.dtd">
<!-- Generated by graphviz version 2.49.0 (20210828.1703)
 -->
<!-- Pages: 1 -->
<svg width="690pt" height="760pt"
 viewBox="0.00 0.00 690.00 760.00" xmlns="http://www.w3.org/2000/svg" xmlns:xlink="http://www.w3.org/1999/xlink">
<g id="graph0" class="graph" transform="scale(1 1) rotate(0) translate(4 756)">
<polygon fill="white" stroke="transparent" points="-4,4 -4,-756 686,-756 686,4 -4,4"/>
<!-- penkwe -->
<g id="node1" class="node">
<title>penkwe</title>
<g id="a_node1"><a xlink:href="penkwe-five0.svg" xlink:title="Indo&#45;European &quot;penkʷe&quot; five">
<path fill="none" stroke="black" stroke-dasharray="5,2" d="M338,-746C338,-746 189,-746 189,-746 183,-746 177,-740 177,-734 177,-734 177,-708 177,-708 177,-702 183,-696 189,-696 189,-696 338,-696 338,-696 344,-696 350,-702 350,-708 350,-708 350,-734 350,-734 350,-740 344,-746 338,-746"/>
<text text-anchor="start" x="185" y="-723.8" font-family="Times New Roman,serif" font-weight="bold" font-size="24.00">Indo&#45;European</text>
<text text-anchor="start" x="223" y="-704.6" font-family="Times New Roman,serif" font-size="18.00" fill="red">penkʷe </text>
<text text-anchor="start" x="279" y="-704.6" font-family="Times New Roman,serif" font-size="16.00">five</text>
</a>
</g>
</g>
<!-- penkwto -->
<g id="node2" class="node">
<title>penkwto</title>
<text text-anchor="start" x="96.5" y="-564.8" font-family="Times New Roman,serif" font-size="14.00" fill="red">penkʷ&#45;to&#45;</text>
<text text-anchor="start" x="115" y="-552.4" font-family="Times New Roman,serif" font-size="12.00">fifth</text>
</g>
<!-- penkwe&#45;&gt;penkwto -->
<g id="edge1" class="edge">
<title>penkwe&#45;&gt;penkwto</title>
<path fill="none" stroke="black" d="M264.5,-695C264.5,-695 190.06,-625.31 149.35,-587.2"/>
<polygon fill="black" stroke="black" points="151.63,-584.54 141.93,-580.26 146.84,-589.65 151.63,-584.54"/>
</g>
<!-- penkwro -->
<g id="node3" class="node">
<title>penkwro</title>
<text text-anchor="start" x="188" y="-564.8" font-family="Times New Roman,serif" font-size="14.00" fill="red">penkʷ&#45;ro&#45;</text>
<text text-anchor="start" x="188" y="-552.4" font-family="Times New Roman,serif" font-size="12.00">&quot;one of five&quot;</text>
</g>
<!-- penkwe&#45;&gt;penkwro -->
<g id="edge2" class="edge">
<title>penkwe&#45;&gt;penkwro</title>
<path fill="none" stroke="black" d="M264.5,-695C264.5,-695 239.8,-628.46 225.47,-589.87"/>
<polygon fill="black" stroke="black" points="228.67,-588.41 221.91,-580.26 222.1,-590.85 228.67,-588.41"/>
</g>
<!-- pnksti -->
<g id="node4" class="node">
<title>pnksti</title>
<text text-anchor="start" x="287" y="-564.8" font-family="Times New Roman,serif" font-size="14.00" fill="red">pn̥k&#45;sti&#45;</text>
<text text-anchor="start" x="282.5" y="-552.4" font-family="Times New Roman,serif" font-size="12.00">&quot;set of five&quot;</text>
</g>
<!-- penkwe&#45;&gt;pnksti -->
<g id="edge3" class="edge">
<title>penkwe&#45;&gt;pnksti</title>
<path fill="none" stroke="black" d="M264.5,-695C264.5,-695 286.68,-628.46 299.54,-589.87"/>
<polygon fill="black" stroke="black" points="302.91,-590.85 302.75,-580.26 296.27,-588.64 302.91,-590.85"/>
</g>
<!-- penkwekonta -->
<g id="node5" class="node">
<title>penkwekonta</title>
<text text-anchor="start" x="446" y="-564.8" font-family="Times New Roman,serif" font-size="14.00" fill="red">penkʷe&#45;(d)konta</text>
<text text-anchor="start" x="473" y="-552.4" font-family="Times New Roman,serif" font-size="12.00">five tens</text>
</g>
<!-- penkwe&#45;&gt;penkwekonta -->
<g id="edge4" class="edge">
<title>penkwe&#45;&gt;penkwekonta</title>
<path fill="none" stroke="black" d="M264.5,-695C264.5,-695 432.15,-607.33 473.41,-585.75"/>
<polygon fill="black" stroke="black" points="475.26,-588.74 482.5,-581 472.02,-582.53 475.26,-588.74"/>
</g>
<!-- fimftonGm -->
<g id="node29" class="node">
<title>fimftonGm</title>
<text text-anchor="start" x="14" y="-302.8" font-family="Times New Roman,serif" font-weight="bold" font-size="14.00">Germanic</text>
<text text-anchor="start" x="21.5" y="-288.8" font-family="Times New Roman,serif" font-size="14.00" fill="red">fimftōn&#45;</text>
</g>
<!-- penkwto&#45;&gt;fimftonGm -->
<g id="edge28" class="edge">
<title>penkwto&#45;&gt;fimftonGm</title>
<path fill="none" stroke="black" d="M120.5,-543C120.5,-543 79.15,-532.55 63.5,-507 29,-450.66 34.12,-369.05 39.85,-327.11"/>
<polygon fill="black" stroke="black" points="43.32,-327.51 41.33,-317.11 36.4,-326.49 43.32,-327.51"/>
</g>
<!-- quintusL -->
<g id="node33" class="node">
<title>quintusL</title>
<text text-anchor="start" x="107" y="-473.8" font-family="Times New Roman,serif" font-weight="bold" font-size="14.00">Latin</text>
<text text-anchor="start" x="81" y="-459.8" font-family="Times New Roman,serif" font-size="14.00" fill="red">quīntus, quīnta</text>
</g>
<!-- penkwto&#45;&gt;quintusL -->
<g id="edge32" class="edge">
<title>penkwto&#45;&gt;quintusL</title>
<path fill="none" stroke="black" d="M120.5,-543C120.5,-543 121.52,-518.6 122.37,-498.21"/>
<polygon fill="black" stroke="black" points="125.87,-498.2 122.79,-488.06 118.88,-497.91 125.87,-498.2"/>
</g>
<!-- fingwrazGm -->
<g id="node18" class="node">
<title>fingwrazGm</title>
<text text-anchor="start" x="181" y="-302.8" font-family="Times New Roman,serif" font-weight="bold" font-size="14.00">Germanic</text>
<text text-anchor="start" x="187.5" y="-288.8" font-family="Times New Roman,serif" font-size="14.00" fill="red">fingwraz</text>
</g>
<!-- penkwro&#45;&gt;fingwrazGm -->
<g id="edge17" class="edge">
<title>penkwro&#45;&gt;fingwrazGm</title>
<path fill="none" stroke="black" d="M215.24,-543.88C214.56,-499.63 212.74,-381.22 211.92,-327.36"/>
<polygon fill="black" stroke="black" points="215.42,-327.13 211.76,-317.19 208.42,-327.24 215.42,-327.13"/>
</g>
<!-- funhstizGm -->
<g id="node22" class="node">
<title>funhstizGm</title>
<text text-anchor="start" x="281" y="-308.8" font-family="Times New Roman,serif" font-weight="bold" font-size="14.00">Germanic</text>
<text text-anchor="start" x="289.5" y="-294.8" font-family="Times New Roman,serif" font-size="14.00" fill="red">funhstiz</text>
<text text-anchor="start" x="305" y="-282.4" font-family="Times New Roman,serif" font-size="12.00">fist</text>
</g>
<!-- pnksti&#45;&gt;funhstizGm -->
<g id="edge21" class="edge">
<title>pnksti&#45;&gt;funhstizGm</title>
<path fill="none" stroke="black" d="M308.7,-543.88C309.19,-501.15 310.47,-389.27 311.12,-333.13"/>
<polygon fill="black" stroke="black" points="314.62,-333.04 311.24,-323 307.62,-332.96 314.62,-333.04"/>
</g>
<!-- quinquagintaL -->
<g id="node8" class="node">
<title>quinquagintaL</title>
<text text-anchor="start" x="475" y="-479.8" font-family="Times New Roman,serif" font-weight="bold" font-size="14.00">Latin</text>
<text text-anchor="start" x="455" y="-465.8" font-family="Times New Roman,serif" font-size="14.00" fill="red">quīnquāgintā</text>
<text text-anchor="start" x="483" y="-453.4" font-family="Times New Roman,serif" font-size="12.00">fifty</text>
</g>
<!-- penkwekonta&#45;&gt;quinquagintaL -->
<g id="edge7" class="edge">
<title>penkwekonta&#45;&gt;quinquagintaL</title>
<path fill="none" stroke="black" d="M500.5,-543C500.5,-543 498.01,-523.04 495.64,-504.14"/>
<polygon fill="black" stroke="black" points="499.11,-503.67 494.4,-494.18 492.16,-504.53 499.11,-503.67"/>
</g>
<!-- pentekontaG -->
<g id="node12" class="node">
<title>pentekontaG</title>
<text text-anchor="start" x="586.5" y="-492.8" font-family="Times New Roman,serif" font-weight="bold" font-size="14.00">Greek</text>
<text text-anchor="start" x="576" y="-478.8" font-family="Times New Roman,serif" font-size="14.00" fill="red">pentēkonta</text>
<text text-anchor="start" x="598" y="-466.4" font-family="Times New Roman,serif" font-size="12.00">fifty</text>
<text text-anchor="start" x="572.5" y="-452.8" font-family="Times New Roman,serif" font-size="14.00" fill="red">pentēkostos</text>
<text text-anchor="start" x="592.5" y="-440.4" font-family="Times New Roman,serif" font-size="12.00">fiftieth</text>
</g>
<!-- penkwekonta&#45;&gt;pentekontaG -->
<g id="edge11" class="edge">
<title>penkwekonta&#45;&gt;pentekontaG</title>
<path fill="none" stroke="black" d="M500.5,-543C500.5,-543 528.62,-523.9 555.9,-505.37"/>
<polygon fill="black" stroke="black" points="558,-508.18 564.3,-499.66 554.06,-502.39 558,-508.18"/>
</g>
<!-- kontaIE -->
<g id="node6" class="node">
<title>kontaIE</title>
<text text-anchor="start" x="444.5" y="-631.3" font-family="Times New Roman,serif" font-size="14.00" fill="red">&#45;dkōm&#45;tā̆, &#45;kontā̆</text>
</g>
<!-- kontaIE&#45;&gt;penkwekonta -->
<g id="edge5" class="edge">
<title>kontaIE&#45;&gt;penkwekonta</title>
<path fill="none" stroke="black" d="M488.6,-616.94C487.14,-608.34 485.43,-598.23 484.18,-590.92"/>
<polygon fill="black" stroke="black" points="487.62,-590.27 482.5,-581 480.72,-591.44 487.62,-590.27"/>
</g>
<!-- dekmIE -->
<g id="node7" class="node">
<title>dekmIE</title>
<g id="a_node7"><a xlink:href="dekm-ten.svg" xlink:title="&lt;b&gt;Indo&#45;&lt;br/&gt;European&lt;/b&gt;&lt;br/&gt;&lt;font color=&quot;red&quot;&gt;dekm̥&lt;/font&gt;&lt;br/&gt;&lt;font point&#45;size=&quot;12&quot;&gt;ten&lt;/font&gt;">
<path fill="none" stroke="black" stroke-dasharray="5,2" d="M518,-752C518,-752 465,-752 465,-752 459,-752 453,-746 453,-740 453,-740 453,-702 453,-702 453,-696 459,-690 465,-690 465,-690 518,-690 518,-690 524,-690 530,-696 530,-702 530,-702 530,-740 530,-740 530,-746 524,-752 518,-752"/>
<text text-anchor="start" x="475" y="-737.8" font-family="Times New Roman,serif" font-weight="bold" font-size="14.00">Indo&#45;</text>
<text text-anchor="start" x="461" y="-723.8" font-family="Times New Roman,serif" font-weight="bold" font-size="14.00">European</text>
<text text-anchor="start" x="476" y="-709.8" font-family="Times New Roman,serif" font-size="14.00" fill="red">dekm̥</text>
<text text-anchor="start" x="484.5" y="-697.4" font-family="Times New Roman,serif" font-size="12.00">ten</text>
</a>
</g>
</g>
<!-- dekmIE&#45;&gt;kontaIE -->
<g id="edge6" class="edge">
<title>dekmIE&#45;&gt;kontaIE</title>
<path fill="none" stroke="black" d="M491.5,-689.67C491.5,-681.08 491.5,-671.78 491.5,-663.38"/>
<polygon fill="black" stroke="black" points="495,-663.33 491.5,-653.33 488,-663.33 495,-663.33"/>
</g>
<!-- quinquageniL -->
<g id="node9" class="node">
<title>quinquageniL</title>
<text text-anchor="start" x="456.5" y="-380.8" font-family="Times New Roman,serif" font-size="14.00" fill="red">quīnquāgēnī</text>
<text text-anchor="start" x="471" y="-368.4" font-family="Times New Roman,serif" font-size="12.00">fifty each</text>
</g>
<!-- quinquagintaL&#45;&gt;quinquageniL -->
<g id="edge8" class="edge">
<title>quinquagintaL&#45;&gt;quinquageniL</title>
<path fill="none" stroke="black" d="M491.5,-445.82C491.5,-433.82 491.5,-419.08 491.5,-406.5"/>
<polygon fill="black" stroke="black" points="495,-406.13 491.5,-396.13 488,-406.13 495,-406.13"/>
</g>
<!-- quinquagenariusL -->
<g id="node10" class="node">
<title>quinquagenariusL</title>
<text text-anchor="start" x="445.5" y="-301.8" font-family="Times New Roman,serif" font-size="14.00" fill="red">quīnquāgēnārius</text>
<text text-anchor="start" x="459" y="-289.4" font-family="Times New Roman,serif" font-size="12.00">containing fifty</text>
</g>
<!-- quinquageniL&#45;&gt;quinquagenariusL -->
<g id="edge9" class="edge">
<title>quinquageniL&#45;&gt;quinquagenariusL</title>
<path fill="none" stroke="black" d="M491.5,-359.91C491.5,-350.34 491.5,-338.18 491.5,-327.32"/>
<polygon fill="black" stroke="black" points="495,-327.04 491.5,-317.04 488,-327.04 495,-327.04"/>
</g>
<!-- quinquagenarian -->
<g id="node11" class="node">
<title>quinquagenarian</title>
<text text-anchor="start" x="477" y="-35.8" font-family="Times New Roman,serif" font-weight="bold" font-size="14.00">Modern</text>
<text text-anchor="start" x="478.5" y="-21.8" font-family="Times New Roman,serif" font-weight="bold" font-size="14.00">English</text>
<text text-anchor="start" x="456" y="-7.8" font-family="Times New Roman,serif" font-size="14.00" fill="red">quinquagenarian</text>
</g>
<!-- quinquagenariusL&#45;&gt;quinquagenarian -->
<g id="edge10" class="edge">
<title>quinquagenariusL&#45;&gt;quinquagenarian</title>
<path fill="none" stroke="black" stroke-dasharray="5,2" d="M492.13,-280.99C493.74,-237.08 498.07,-119.3 500.23,-60.45"/>
<polygon fill="black" stroke="black" points="503.74,-60.3 500.61,-50.18 496.75,-60.05 503.74,-60.3"/>
</g>
<!-- pentekosteG -->
<g id="node13" class="node">
<title>pentekosteG</title>
<text text-anchor="start" x="561" y="-380.8" font-family="Times New Roman,serif" font-size="14.00" fill="red">pentēkostē (hēmera)</text>
<text text-anchor="start" x="590" y="-368.4" font-family="Times New Roman,serif" font-size="12.00">fiftieth (day)</text>
</g>
<!-- pentekontaG&#45;&gt;pentekosteG -->
<g id="edge12" class="edge">
<title>pentekontaG&#45;&gt;pentekosteG</title>
<path fill="none" stroke="black" d="M610.91,-432.91C612,-423.97 613.16,-414.54 614.19,-406.11"/>
<polygon fill="black" stroke="black" points="617.67,-406.43 615.41,-396.08 610.72,-405.59 617.67,-406.43"/>
</g>
<!-- pentecosteL -->
<g id="node14" class="node">
<title>pentecosteL</title>
<text text-anchor="start" x="601" y="-302.8" font-family="Times New Roman,serif" font-weight="bold" font-size="14.00">Latin</text>
<text text-anchor="start" x="587" y="-288.8" font-family="Times New Roman,serif" font-size="14.00" fill="red">Pentēcostē</text>
</g>
<!-- pentekosteG&#45;&gt;pentecosteL -->
<g id="edge13" class="edge">
<title>pentekosteG&#45;&gt;pentecosteL</title>
<path fill="none" stroke="black" stroke-dasharray="5,2" d="M617.5,-359.91C617.5,-350.34 617.5,-338.18 617.5,-327.32"/>
<polygon fill="black" stroke="black" points="621,-327.04 617.5,-317.04 614,-327.04 621,-327.04"/>
</g>
<!-- pentecostenOE -->
<g id="node15" class="node">
<title>pentecostenOE</title>
<text text-anchor="start" x="581" y="-216.8" font-family="Times New Roman,serif" font-weight="bold" font-size="14.00">Old English</text>
<text text-anchor="start" x="583.5" y="-202.8" font-family="Times New Roman,serif" font-size="14.00" fill="red">Pentecosten</text>
</g>
<!-- pentecosteL&#45;&gt;pentecostenOE -->
<g id="edge14" class="edge">
<title>pentecosteL&#45;&gt;pentecostenOE</title>
<path fill="none" stroke="black" stroke-dasharray="5,2" d="M617.5,-280.6C617.5,-269.26 617.5,-254.23 617.5,-241.32"/>
<polygon fill="black" stroke="black" points="621,-241.1 617.5,-231.1 614,-241.1 621,-241.1"/>
</g>
<!-- pentecosteME -->
<g id="node16" class="node">
<title>pentecosteME</title>
<text text-anchor="start" x="596" y="-136.8" font-family="Times New Roman,serif" font-weight="bold" font-size="14.00">Middle</text>
<text text-anchor="start" x="594.5" y="-122.8" font-family="Times New Roman,serif" font-weight="bold" font-size="14.00">English</text>
<text text-anchor="start" x="587" y="-108.8" font-family="Times New Roman,serif" font-size="14.00" fill="red">Pentecoste</text>
</g>
<!-- pentecostenOE&#45;&gt;pentecosteME -->
<g id="edge15" class="edge">
<title>pentecostenOE&#45;&gt;pentecosteME</title>
<path fill="none" stroke="black" d="M617.5,-194.8C617.5,-185.22 617.5,-172.94 617.5,-161.47"/>
<polygon fill="black" stroke="black" points="621,-161.26 617.5,-151.26 614,-161.26 621,-161.26"/>
</g>
<!-- pentecost -->
<g id="node17" class="node">
<title>pentecost</title>
<text text-anchor="start" x="593" y="-35.8" font-family="Times New Roman,serif" font-weight="bold" font-size="14.00">Modern</text>
<text text-anchor="start" x="594.5" y="-21.8" font-family="Times New Roman,serif" font-weight="bold" font-size="14.00">English</text>
<text text-anchor="start" x="590" y="-7.8" font-family="Times New Roman,serif" font-size="14.00" fill="red">Pentecost</text>
</g>
<!-- pentecosteME&#45;&gt;pentecost -->
<g id="edge16" class="edge">
<title>pentecosteME&#45;&gt;pentecost</title>
<path fill="none" stroke="black" d="M617.5,-100.78C617.5,-88.68 617.5,-73.81 617.5,-60.54"/>
<polygon fill="black" stroke="black" points="621,-60.31 617.5,-50.31 614,-60.31 621,-60.31"/>
</g>
<!-- fingerOE -->
<g id="node19" class="node">
<title>fingerOE</title>
<text text-anchor="start" x="168" y="-216.8" font-family="Times New Roman,serif" font-weight="bold" font-size="14.00">Old English</text>
<text text-anchor="start" x="188.5" y="-202.8" font-family="Times New Roman,serif" font-size="14.00" fill="red">finger</text>
</g>
<!-- fingwrazGm&#45;&gt;fingerOE -->
<g id="edge18" class="edge">
<title>fingwrazGm&#45;&gt;fingerOE</title>
<path fill="none" stroke="black" d="M210.05,-280.6C209.1,-269.26 207.85,-254.23 206.78,-241.32"/>
<polygon fill="black" stroke="black" points="210.24,-240.77 205.92,-231.1 203.27,-241.35 210.24,-240.77"/>
</g>
<!-- fingerME -->
<g id="node20" class="node">
<title>fingerME</title>
<text text-anchor="start" x="184" y="-136.8" font-family="Times New Roman,serif" font-weight="bold" font-size="14.00">Middle</text>
<text text-anchor="start" x="182.5" y="-122.8" font-family="Times New Roman,serif" font-weight="bold" font-size="14.00">English</text>
<text text-anchor="start" x="189.5" y="-108.8" font-family="Times New Roman,serif" font-size="14.00" fill="red">finger</text>
</g>
<!-- fingerOE&#45;&gt;fingerME -->
<g id="edge19" class="edge">
<title>fingerOE&#45;&gt;fingerME</title>
<path fill="none" stroke="black" d="M204.7,-194.8C204.82,-185.22 204.96,-172.94 205.09,-161.47"/>
<polygon fill="black" stroke="black" points="208.6,-161.3 205.21,-151.26 201.6,-161.22 208.6,-161.3"/>
</g>
<!-- finger -->
<g id="node21" class="node">
<title>finger</title>
<text text-anchor="start" x="182" y="-35.8" font-family="Times New Roman,serif" font-weight="bold" font-size="14.00">Modern</text>
<text text-anchor="start" x="183.5" y="-21.8" font-family="Times New Roman,serif" font-weight="bold" font-size="14.00">English</text>
<text text-anchor="start" x="190.5" y="-7.8" font-family="Times New Roman,serif" font-size="14.00" fill="red">finger</text>
</g>
<!-- fingerME&#45;&gt;finger -->
<g id="edge20" class="edge">
<title>fingerME&#45;&gt;finger</title>
<path fill="none" stroke="black" d="M205.74,-100.78C205.87,-88.68 206.02,-73.81 206.15,-60.54"/>
<polygon fill="black" stroke="black" points="209.65,-60.35 206.25,-50.31 202.65,-60.28 209.65,-60.35"/>
</g>
<!-- fystOE -->
<g id="node23" class="node">
<title>fystOE</title>
<text text-anchor="start" x="275" y="-216.8" font-family="Times New Roman,serif" font-weight="bold" font-size="14.00">Old English</text>
<text text-anchor="start" x="300.5" y="-202.8" font-family="Times New Roman,serif" font-size="14.00" fill="red">fȳst</text>
</g>
<!-- funhstizGm&#45;&gt;fystOE -->
<g id="edge22" class="edge">
<title>funhstizGm&#45;&gt;fystOE</title>
<path fill="none" stroke="black" d="M321.5,-274C321.5,-274 318.67,-257.02 316.02,-241.13"/>
<polygon fill="black" stroke="black" points="319.44,-240.32 314.34,-231.03 312.53,-241.47 319.44,-240.32"/>
</g>
<!-- vuistMD -->
<g id="node26" class="node">
<title>vuistMD</title>
<text text-anchor="start" x="382" y="-223.8" font-family="Times New Roman,serif" font-weight="bold" font-size="14.00">Middle</text>
<text text-anchor="start" x="385" y="-209.8" font-family="Times New Roman,serif" font-weight="bold" font-size="14.00">Dutch</text>
<text text-anchor="start" x="390" y="-195.8" font-family="Times New Roman,serif" font-size="14.00" fill="red">vuist</text>
</g>
<!-- funhstizGm&#45;&gt;vuistMD -->
<g id="edge25" class="edge">
<title>funhstizGm&#45;&gt;vuistMD</title>
<path fill="none" stroke="black" d="M321.5,-274C321.5,-274 344.23,-257.37 365.76,-241.62"/>
<polygon fill="black" stroke="black" points="367.89,-244.39 373.9,-235.66 363.76,-238.74 367.89,-244.39"/>
</g>
<!-- fistME -->
<g id="node24" class="node">
<title>fistME</title>
<text text-anchor="start" x="269" y="-136.8" font-family="Times New Roman,serif" font-weight="bold" font-size="14.00">Middle</text>
<text text-anchor="start" x="267.5" y="-122.8" font-family="Times New Roman,serif" font-weight="bold" font-size="14.00">English</text>
<text text-anchor="start" x="281.5" y="-108.8" font-family="Times New Roman,serif" font-size="14.00" fill="red">fist</text>
</g>
<!-- fystOE&#45;&gt;fistME -->
<g id="edge23" class="edge">
<title>fystOE&#45;&gt;fistME</title>
<path fill="none" stroke="black" d="M307.25,-194.8C304.86,-185.12 301.79,-172.69 298.93,-161.12"/>
<polygon fill="black" stroke="black" points="302.29,-160.13 296.49,-151.26 295.49,-161.81 302.29,-160.13"/>
</g>
<!-- fist -->
<g id="node25" class="node">
<title>fist</title>
<text text-anchor="start" x="266" y="-35.8" font-family="Times New Roman,serif" font-weight="bold" font-size="14.00">Modern</text>
<text text-anchor="start" x="267.5" y="-21.8" font-family="Times New Roman,serif" font-weight="bold" font-size="14.00">English</text>
<text text-anchor="start" x="281.5" y="-7.8" font-family="Times New Roman,serif" font-size="14.00" fill="red">fist</text>
</g>
<!-- fistME&#45;&gt;fist -->
<g id="edge24" class="edge">
<title>fistME&#45;&gt;fist</title>
<path fill="none" stroke="black" d="M290.5,-100.78C290.5,-88.68 290.5,-73.81 290.5,-60.54"/>
<polygon fill="black" stroke="black" points="294,-60.31 290.5,-50.31 287,-60.31 294,-60.31"/>
</g>
<!-- vuistenD -->
<g id="node27" class="node">
<title>vuistenD</title>
<text text-anchor="start" x="347.5" y="-135.8" font-family="Times New Roman,serif" font-weight="bold" font-size="14.00">Dutch (dialectical)</text>
<text text-anchor="start" x="383.5" y="-121.8" font-family="Times New Roman,serif" font-size="14.00" fill="red">vuisten</text>
<text text-anchor="start" x="370" y="-109.4" font-family="Times New Roman,serif" font-size="12.00">to take in hand</text>
</g>
<!-- vuistMD&#45;&gt;vuistenD -->
<g id="edge26" class="edge">
<title>vuistMD&#45;&gt;vuistenD</title>
<path fill="none" stroke="black" d="M403.5,-187.87C403.5,-179.24 403.5,-169.36 403.5,-160.1"/>
<polygon fill="black" stroke="black" points="407,-160.02 403.5,-150.02 400,-160.02 407,-160.02"/>
</g>
<!-- foist -->
<g id="node28" class="node">
<title>foist</title>
<text text-anchor="start" x="373" y="-35.8" font-family="Times New Roman,serif" font-weight="bold" font-size="14.00">Modern</text>
<text text-anchor="start" x="374.5" y="-21.8" font-family="Times New Roman,serif" font-weight="bold" font-size="14.00">English</text>
<text text-anchor="start" x="385" y="-7.8" font-family="Times New Roman,serif" font-size="14.00" fill="red">foist</text>
</g>
<!-- vuistenD&#45;&gt;foist -->
<g id="edge27" class="edge">
<title>vuistenD&#45;&gt;foist</title>
<path fill="none" stroke="black" stroke-dasharray="5,2" d="M402.09,-101.79C401.34,-89.4 400.4,-73.92 399.57,-60.18"/>
<polygon fill="black" stroke="black" points="403.06,-59.87 398.96,-50.1 396.07,-60.29 403.06,-59.87"/>
<text text-anchor="middle" x="405" y="-71.8" font-family="Times New Roman,serif" font-size="14.00">?</text>
</g>
<!-- fiftaOE -->
<g id="node30" class="node">
<title>fiftaOE</title>
<text text-anchor="start" x="8" y="-216.8" font-family="Times New Roman,serif" font-weight="bold" font-size="14.00">Old English</text>
<text text-anchor="start" x="32.5" y="-202.8" font-family="Times New Roman,serif" font-size="14.00" fill="red">fīfta</text>
</g>
<!-- fimftonGm&#45;&gt;fiftaOE -->
<g id="edge29" class="edge">
<title>fimftonGm&#45;&gt;fiftaOE</title>
<path fill="none" stroke="black" d="M44.5,-280.6C44.5,-269.26 44.5,-254.23 44.5,-241.32"/>
<polygon fill="black" stroke="black" points="48,-241.1 44.5,-231.1 41,-241.1 48,-241.1"/>
</g>
<!-- fifthME -->
<g id="node31" class="node">
<title>fifthME</title>
<text text-anchor="start" x="20" y="-136.8" font-family="Times New Roman,serif" font-weight="bold" font-size="14.00">Middle</text>
<text text-anchor="start" x="18.5" y="-122.8" font-family="Times New Roman,serif" font-weight="bold" font-size="14.00">English</text>
<text text-anchor="start" x="30" y="-108.8" font-family="Times New Roman,serif" font-size="14.00" fill="red">fifth</text>
</g>
<!-- fiftaOE&#45;&gt;fifthME -->
<g id="edge30" class="edge">
<title>fiftaOE&#45;&gt;fifthME</title>
<path fill="none" stroke="black" d="M43.89,-194.8C43.55,-185.22 43.12,-172.94 42.72,-161.47"/>
<polygon fill="black" stroke="black" points="46.21,-161.13 42.36,-151.26 39.21,-161.38 46.21,-161.13"/>
</g>
<!-- fifth -->
<g id="node32" class="node">
<title>fifth</title>
<text text-anchor="start" x="16" y="-35.8" font-family="Times New Roman,serif" font-weight="bold" font-size="14.00">Modern</text>
<text text-anchor="start" x="17.5" y="-21.8" font-family="Times New Roman,serif" font-weight="bold" font-size="14.00">English</text>
<text text-anchor="start" x="29" y="-7.8" font-family="Times New Roman,serif" font-size="14.00" fill="red">fifth</text>
</g>
<!-- fifthME&#45;&gt;fifth -->
<g id="edge31" class="edge">
<title>fifthME&#45;&gt;fifth</title>
<path fill="none" stroke="black" d="M41.26,-100.78C41.13,-88.68 40.98,-73.81 40.85,-60.54"/>
<polygon fill="black" stroke="black" points="44.35,-60.28 40.75,-50.31 37.35,-60.35 44.35,-60.28"/>
</g>
<!-- quintE -->
<g id="node34" class="node">
<title>quintE</title>
<text text-anchor="start" x="99" y="-35.8" font-family="Times New Roman,serif" font-weight="bold" font-size="14.00">Modern</text>
<text text-anchor="start" x="100.5" y="-21.8" font-family="Times New Roman,serif" font-weight="bold" font-size="14.00">English</text>
<text text-anchor="start" x="107" y="-7.8" font-family="Times New Roman,serif" font-size="14.00" fill="red">quint&#45;</text>
</g>
<!-- quintusL&#45;&gt;quintE -->
<g id="edge33" class="edge">
<title>quintusL&#45;&gt;quintE</title>
<path fill="none" stroke="black" stroke-dasharray="5,2" d="M123.5,-451.75C123.5,-433.63 123.5,-404.31 123.5,-379 123.5,-379 123.5,-379 123.5,-125 123.5,-103.39 123.5,-79.13 123.5,-60.03"/>
<polygon fill="black" stroke="black" points="127,-60.01 123.5,-50.01 120,-60.01 127,-60.01"/>
</g>
</g>
</svg>
