<?xml version="1.0" encoding="UTF-8" standalone="no"?>
<!DOCTYPE svg PUBLIC "-//W3C//DTD SVG 1.1//EN"
 "http://www.w3.org/Graphics/SVG/1.1/DTD/svg11.dtd">
<!-- Generated by graphviz version 2.49.0 (20210828.1703)
 -->
<!-- Pages: 1 -->
<svg width="1172pt" height="667pt"
 viewBox="0.00 0.00 1171.50 667.00" xmlns="http://www.w3.org/2000/svg" xmlns:xlink="http://www.w3.org/1999/xlink">
<g id="graph0" class="graph" transform="scale(1 1) rotate(0) translate(4 663)">
<polygon fill="white" stroke="transparent" points="-4,4 -4,-663 1167.5,-663 1167.5,4 -4,4"/>
<!-- penkwe -->
<g id="node1" class="node">
<title>penkwe</title>
<g id="a_node1"><a xlink:href="penkwe-five0.svg" xlink:title="Indo&#45;European &quot;*penkʷe&quot; five">
<path fill="none" stroke="black" stroke-dasharray="5,2" d="M550,-653C550,-653 401,-653 401,-653 395,-653 389,-647 389,-641 389,-641 389,-615 389,-615 389,-609 395,-603 401,-603 401,-603 550,-603 550,-603 556,-603 562,-609 562,-615 562,-615 562,-641 562,-641 562,-647 556,-653 550,-653"/>
<text text-anchor="start" x="397" y="-630.8" font-family="Times New Roman,serif" font-weight="bold" font-size="24.00">Indo&#45;European</text>
<text text-anchor="start" x="430.5" y="-611.6" font-family="Times New Roman,serif" font-size="18.00" fill="red">*penkʷe </text>
<text text-anchor="start" x="495.5" y="-611.6" font-family="Times New Roman,serif" font-size="16.00">five</text>
</a>
</g>
</g>
<!-- pempe -->
<g id="node2" class="node">
<title>pempe</title>
<text text-anchor="start" x="429" y="-533.3" font-family="Times New Roman,serif" font-size="14.00" fill="red">*pempe</text>
</g>
<!-- penkwe&#45;&gt;pempe -->
<g id="edge1" class="edge">
<title>penkwe&#45;&gt;pempe</title>
<path fill="none" stroke="black" d="M474.5,-602C474.5,-602 467.5,-582.51 461.22,-565.04"/>
<polygon fill="black" stroke="black" points="464.34,-563.38 457.66,-555.15 457.75,-565.75 464.34,-563.38"/>
</g>
<!-- kwenkwe -->
<g id="node3" class="node">
<title>kwenkwe</title>
<text text-anchor="start" x="552.5" y="-533.3" font-family="Times New Roman,serif" font-size="14.00" fill="red">*kʷenkʷe</text>
</g>
<!-- penkwe&#45;&gt;kwenkwe -->
<g id="edge2" class="edge">
<title>penkwe&#45;&gt;kwenkwe</title>
<path fill="none" stroke="black" d="M474.5,-602C474.5,-602 512.05,-578.9 542.02,-560.45"/>
<polygon fill="black" stroke="black" points="543.95,-563.37 550.63,-555.15 540.28,-557.41 543.95,-563.37"/>
</g>
<!-- penteG -->
<g id="node41" class="node">
<title>penteG</title>
<text text-anchor="start" x="41.5" y="-450.8" font-family="Times New Roman,serif" font-weight="bold" font-size="14.00">Greek</text>
<text text-anchor="start" x="46" y="-436.8" font-family="Times New Roman,serif" font-size="14.00" fill="red">pente</text>
</g>
<!-- penkwe&#45;&gt;penteG -->
<g id="edge41" class="edge">
<title>penkwe&#45;&gt;penteG</title>
<path fill="none" stroke="black" d="M474.5,-602C474.5,-602 201.03,-500.03 99.15,-462.04"/>
<polygon fill="black" stroke="black" points="100.16,-458.68 89.56,-458.46 97.71,-465.24 100.16,-458.68"/>
</g>
<!-- pancaII -->
<g id="node43" class="node">
<title>pancaII</title>
<text text-anchor="start" x="488.5" y="-450.8" font-family="Times New Roman,serif" font-weight="bold" font-size="14.00">Indo&#45;Iranian</text>
<text text-anchor="start" x="507.5" y="-436.8" font-family="Times New Roman,serif" font-size="14.00" fill="red">*panca</text>
</g>
<!-- penkwe&#45;&gt;pancaII -->
<g id="edge43" class="edge">
<title>penkwe&#45;&gt;pancaII</title>
<path fill="none" stroke="black" d="M474.5,-602C474.5,-602 483.9,-579.41 490.5,-561 500.95,-531.85 511.86,-498.06 519.1,-475.07"/>
<polygon fill="black" stroke="black" points="522.5,-475.92 522.15,-465.33 515.82,-473.83 522.5,-475.92"/>
</g>
<!-- fimfGm -->
<g id="node7" class="node">
<title>fimfGm</title>
<text text-anchor="start" x="349" y="-450.8" font-family="Times New Roman,serif" font-weight="bold" font-size="14.00">Germanic</text>
<text text-anchor="start" x="364.5" y="-436.8" font-family="Times New Roman,serif" font-size="14.00" fill="red">*fimf</text>
</g>
<!-- pempe&#45;&gt;fimfGm -->
<g id="edge5" class="edge">
<title>pempe&#45;&gt;fimfGm</title>
<path fill="none" stroke="black" d="M437.28,-518.61C426.65,-505.63 411.98,-487.7 400.09,-473.16"/>
<polygon fill="black" stroke="black" points="402.49,-470.57 393.45,-465.05 397.07,-475.01 402.49,-470.57"/>
</g>
<!-- quinqueL -->
<g id="node24" class="node">
<title>quinqueL</title>
<text text-anchor="start" x="895" y="-450.8" font-family="Times New Roman,serif" font-weight="bold" font-size="14.00">Latin</text>
<text text-anchor="start" x="888.5" y="-436.8" font-family="Times New Roman,serif" font-size="14.00" fill="red">quīnque</text>
</g>
<!-- kwenkwe&#45;&gt;quinqueL -->
<g id="edge24" class="edge">
<title>kwenkwe&#45;&gt;quinqueL</title>
<path fill="none" stroke="black" d="M612.57,-527C674.22,-510.7 804.03,-476.4 870.45,-458.85"/>
<polygon fill="black" stroke="black" points="871.39,-462.22 880.16,-456.28 869.6,-455.45 871.39,-462.22"/>
</g>
<!-- dekmIE -->
<g id="node4" class="node">
<title>dekmIE</title>
<g id="a_node4"><a xlink:href="dekm-ten1.svg" xlink:title="&lt;b&gt;Indo&#45;&lt;br/&gt;European&lt;/b&gt;&lt;br/&gt;&lt;font color=&quot;red&quot;&gt;*dekm̥&lt;/font&gt;&lt;br/&gt;&lt;font point&#45;size=&quot;12&quot;&gt;ten&lt;/font&gt;">
<path fill="none" stroke="black" stroke-dasharray="5,2" d="M228,-659C228,-659 175,-659 175,-659 169,-659 163,-653 163,-647 163,-647 163,-609 163,-609 163,-603 169,-597 175,-597 175,-597 228,-597 228,-597 234,-597 240,-603 240,-609 240,-609 240,-647 240,-647 240,-653 234,-659 228,-659"/>
<text text-anchor="start" x="185" y="-644.8" font-family="Times New Roman,serif" font-weight="bold" font-size="14.00">Indo&#45;</text>
<text text-anchor="start" x="171" y="-630.8" font-family="Times New Roman,serif" font-weight="bold" font-size="14.00">European</text>
<text text-anchor="start" x="182.5" y="-616.8" font-family="Times New Roman,serif" font-size="14.00" fill="red">*dekm̥</text>
<text text-anchor="start" x="194.5" y="-604.4" font-family="Times New Roman,serif" font-size="12.00">ten</text>
</a>
</g>
</g>
<!-- tehunGm -->
<g id="node5" class="node">
<title>tehunGm</title>
<text text-anchor="start" x="171" y="-450.8" font-family="Times New Roman,serif" font-weight="bold" font-size="14.00">Germanic</text>
<text text-anchor="start" x="183" y="-436.8" font-family="Times New Roman,serif" font-size="14.00" fill="red">*tehun</text>
</g>
<!-- dekmIE&#45;&gt;tehunGm -->
<g id="edge3" class="edge">
<title>dekmIE&#45;&gt;tehunGm</title>
<path fill="none" stroke="black" d="M201.5,-596.64C201.5,-562.76 201.5,-508.43 201.5,-475.68"/>
<polygon fill="black" stroke="black" points="205,-475.47 201.5,-465.47 198,-475.47 205,-475.47"/>
</g>
<!-- teneOE -->
<g id="node6" class="node">
<title>teneOE</title>
<text text-anchor="start" x="81" y="-359.8" font-family="Times New Roman,serif" font-weight="bold" font-size="14.00">Old English</text>
<text text-anchor="start" x="69.5" y="-345.8" font-family="Times New Roman,serif" font-size="14.00" fill="red">&#45;tēne, &#45;tīne, &#45;tȳne</text>
</g>
<!-- tehunGm&#45;&gt;teneOE -->
<g id="edge4" class="edge">
<title>tehunGm&#45;&gt;teneOE</title>
<path fill="none" stroke="black" d="M197.5,-428C197.5,-428 167.67,-401.52 144.44,-380.91"/>
<polygon fill="black" stroke="black" points="146.67,-378.21 136.87,-374.19 142.02,-383.44 146.67,-378.21"/>
</g>
<!-- fimftehunGm -->
<g id="node17" class="node">
<title>fimftehunGm</title>
<text text-anchor="start" x="199.5" y="-358.8" font-family="Times New Roman,serif" font-size="14.00" fill="red">*fimftehun</text>
<text text-anchor="start" x="215.5" y="-346.4" font-family="Times New Roman,serif" font-size="12.00">fifteen</text>
</g>
<!-- tehunGm&#45;&gt;fimftehunGm -->
<g id="edge17" class="edge">
<title>tehunGm&#45;&gt;fimftehunGm</title>
<path fill="none" stroke="black" d="M197.5,-428C197.5,-428 219.44,-398.19 230.41,-383.28"/>
<polygon fill="black" stroke="black" points="233.39,-385.13 236.5,-375 227.75,-380.98 233.39,-385.13"/>
</g>
<!-- fifteneOE -->
<g id="node14" class="node">
<title>fifteneOE</title>
<text text-anchor="start" x="99" y="-273.8" font-family="Times New Roman,serif" font-size="14.00" fill="red">fīftēne</text>
<text text-anchor="start" x="103.5" y="-261.4" font-family="Times New Roman,serif" font-size="12.00">fifteen</text>
</g>
<!-- teneOE&#45;&gt;fifteneOE -->
<g id="edge15" class="edge">
<title>teneOE&#45;&gt;fifteneOE</title>
<path fill="none" stroke="black" d="M120.65,-337.92C122.87,-325.89 125.78,-310.18 127.64,-300.08"/>
<polygon fill="black" stroke="black" points="131.13,-300.47 129.5,-290 124.24,-299.2 131.13,-300.47"/>
</g>
<!-- fifOE -->
<g id="node8" class="node">
<title>fifOE</title>
<text text-anchor="start" x="307" y="-359.8" font-family="Times New Roman,serif" font-weight="bold" font-size="14.00">Old English</text>
<text text-anchor="start" x="336.5" y="-345.8" font-family="Times New Roman,serif" font-size="14.00" fill="red">fīf</text>
</g>
<!-- fimfGm&#45;&gt;fifOE -->
<g id="edge6" class="edge">
<title>fimfGm&#45;&gt;fifOE</title>
<path fill="none" stroke="black" d="M374.5,-428C374.5,-428 363.83,-403.56 355.01,-383.35"/>
<polygon fill="black" stroke="black" points="358.21,-381.95 351,-374.19 351.8,-384.75 358.21,-381.95"/>
</g>
<!-- fimfGm&#45;&gt;fimftehunGm -->
<g id="edge16" class="edge">
<title>fimfGm&#45;&gt;fimftehunGm</title>
<path fill="none" stroke="black" d="M374.5,-428C374.5,-428 277.16,-390.62 245.99,-378.64"/>
<polygon fill="black" stroke="black" points="247.09,-375.32 236.5,-375 244.58,-381.85 247.09,-375.32"/>
</g>
<!-- funfOHG -->
<g id="node21" class="node">
<title>funfOHG</title>
<text text-anchor="start" x="420.5" y="-366.8" font-family="Times New Roman,serif" font-weight="bold" font-size="14.00">Old High</text>
<text text-anchor="start" x="423" y="-352.8" font-family="Times New Roman,serif" font-weight="bold" font-size="14.00">German</text>
<text text-anchor="start" x="424" y="-338.8" font-family="Times New Roman,serif" font-size="14.00" fill="red">funf, finf</text>
</g>
<!-- fimfGm&#45;&gt;funfOHG -->
<g id="edge21" class="edge">
<title>fimfGm&#45;&gt;funfOHG</title>
<path fill="none" stroke="black" d="M374.5,-428C374.5,-428 396.3,-407.09 416.23,-387.96"/>
<polygon fill="black" stroke="black" points="418.65,-390.49 423.45,-381.04 413.81,-385.44 418.65,-390.49"/>
</g>
<!-- fyfME -->
<g id="node9" class="node">
<title>fyfME</title>
<text text-anchor="start" x="274" y="-196.8" font-family="Times New Roman,serif" font-weight="bold" font-size="14.00">Middle</text>
<text text-anchor="start" x="272.5" y="-182.8" font-family="Times New Roman,serif" font-weight="bold" font-size="14.00">English</text>
<text text-anchor="start" x="273.5" y="-168.8" font-family="Times New Roman,serif" font-size="14.00" fill="red">fyf, five</text>
</g>
<!-- fifOE&#45;&gt;fyfME -->
<g id="edge7" class="edge">
<title>fifOE&#45;&gt;fyfME</title>
<path fill="none" stroke="black" d="M335.5,-337C335.5,-337 316.34,-265.13 304.54,-220.89"/>
<polygon fill="black" stroke="black" points="307.89,-219.86 301.93,-211.1 301.12,-221.66 307.89,-219.86"/>
</g>
<!-- fiftigOE -->
<g id="node11" class="node">
<title>fiftigOE</title>
<text text-anchor="start" x="349.5" y="-273.8" font-family="Times New Roman,serif" font-size="14.00" fill="red">fīftig</text>
<text text-anchor="start" x="355" y="-261.4" font-family="Times New Roman,serif" font-size="12.00">fifty</text>
</g>
<!-- fifOE&#45;&gt;fiftigOE -->
<g id="edge9" class="edge">
<title>fifOE&#45;&gt;fiftigOE</title>
<path fill="none" stroke="black" d="M335.5,-337C335.5,-337 344.29,-316.59 352.02,-298.65"/>
<polygon fill="black" stroke="black" points="355.4,-299.65 356.14,-289.08 348.97,-296.88 355.4,-299.65"/>
</g>
<!-- fifOE&#45;&gt;fifteneOE -->
<g id="edge12" class="edge">
<title>fifOE&#45;&gt;fifteneOE</title>
<path fill="none" stroke="black" d="M335.5,-337C335.5,-337 180.59,-301.66 139.44,-292.27"/>
<polygon fill="black" stroke="black" points="140.03,-288.81 129.5,-290 138.47,-295.64 140.03,-288.81"/>
</g>
<!-- five -->
<g id="node10" class="node">
<title>five</title>
<text text-anchor="start" x="260" y="-73.3" font-family="Times New Roman,serif" font-weight="bold" font-size="14.00">Modern</text>
<text text-anchor="start" x="261.5" y="-59.3" font-family="Times New Roman,serif" font-weight="bold" font-size="14.00">English</text>
<text text-anchor="start" x="274" y="-45.3" font-family="Times New Roman,serif" font-size="14.00" fill="red">five</text>
</g>
<!-- fyfME&#45;&gt;five -->
<g id="edge8" class="edge">
<title>fyfME&#45;&gt;five</title>
<path fill="none" stroke="black" d="M293.33,-161C291.7,-142.97 289.44,-118.04 287.61,-97.9"/>
<polygon fill="black" stroke="black" points="291.09,-97.51 286.71,-87.87 284.12,-98.15 291.09,-97.51"/>
</g>
<!-- fiftiME -->
<g id="node12" class="node">
<title>fiftiME</title>
<text text-anchor="start" x="354" y="-196.8" font-family="Times New Roman,serif" font-weight="bold" font-size="14.00">Middle</text>
<text text-anchor="start" x="352.5" y="-182.8" font-family="Times New Roman,serif" font-weight="bold" font-size="14.00">English</text>
<text text-anchor="start" x="366" y="-168.8" font-family="Times New Roman,serif" font-size="14.00" fill="red">fifti</text>
</g>
<!-- fiftigOE&#45;&gt;fiftiME -->
<g id="edge10" class="edge">
<title>fiftigOE&#45;&gt;fiftiME</title>
<path fill="none" stroke="black" d="M365.99,-252.8C367.31,-243.66 368.98,-232.09 370.55,-221.22"/>
<polygon fill="black" stroke="black" points="374.05,-221.5 372.02,-211.1 367.12,-220.5 374.05,-221.5"/>
</g>
<!-- fifty -->
<g id="node13" class="node">
<title>fifty</title>
<text text-anchor="start" x="343" y="-73.3" font-family="Times New Roman,serif" font-weight="bold" font-size="14.00">Modern</text>
<text text-anchor="start" x="344.5" y="-59.3" font-family="Times New Roman,serif" font-weight="bold" font-size="14.00">English</text>
<text text-anchor="start" x="356" y="-45.3" font-family="Times New Roman,serif" font-size="14.00" fill="red">fifty</text>
</g>
<!-- fiftiME&#45;&gt;fifty -->
<g id="edge11" class="edge">
<title>fiftiME&#45;&gt;fifty</title>
<path fill="none" stroke="black" d="M373.92,-161C372.73,-142.97 371.09,-118.04 369.77,-97.9"/>
<polygon fill="black" stroke="black" points="373.25,-97.62 369.1,-87.87 366.27,-98.08 373.25,-97.62"/>
</g>
<!-- fifteneME -->
<g id="node15" class="node">
<title>fifteneME</title>
<text text-anchor="start" x="92" y="-196.8" font-family="Times New Roman,serif" font-weight="bold" font-size="14.00">Middle</text>
<text text-anchor="start" x="90.5" y="-182.8" font-family="Times New Roman,serif" font-weight="bold" font-size="14.00">English</text>
<text text-anchor="start" x="96" y="-168.8" font-family="Times New Roman,serif" font-size="14.00" fill="red">fiftene</text>
</g>
<!-- fifteneOE&#45;&gt;fifteneME -->
<g id="edge13" class="edge">
<title>fifteneOE&#45;&gt;fifteneME</title>
<path fill="none" stroke="black" d="M116.67,-252.8C116.23,-243.66 115.67,-232.09 115.15,-221.22"/>
<polygon fill="black" stroke="black" points="118.64,-220.92 114.66,-211.1 111.65,-221.26 118.64,-220.92"/>
</g>
<!-- fifteen -->
<g id="node16" class="node">
<title>fifteen</title>
<text text-anchor="start" x="91" y="-73.3" font-family="Times New Roman,serif" font-weight="bold" font-size="14.00">Modern</text>
<text text-anchor="start" x="92.5" y="-59.3" font-family="Times New Roman,serif" font-weight="bold" font-size="14.00">English</text>
<text text-anchor="start" x="98" y="-45.3" font-family="Times New Roman,serif" font-size="14.00" fill="red">fifteen</text>
</g>
<!-- fifteneME&#45;&gt;fifteen -->
<g id="edge14" class="edge">
<title>fifteneME&#45;&gt;fifteen</title>
<path fill="none" stroke="black" d="M113.9,-161C114.19,-142.97 114.6,-118.04 114.93,-97.9"/>
<polygon fill="black" stroke="black" points="118.43,-97.93 115.1,-87.87 111.43,-97.81 118.43,-97.93"/>
</g>
<!-- fimmtanON -->
<g id="node18" class="node">
<title>fimmtanON</title>
<text text-anchor="start" x="184.5" y="-280.8" font-family="Times New Roman,serif" font-weight="bold" font-size="14.00">Old Norse</text>
<text text-anchor="start" x="193.5" y="-266.8" font-family="Times New Roman,serif" font-size="14.00" fill="red">fimmtān</text>
<text text-anchor="start" x="202.5" y="-254.4" font-family="Times New Roman,serif" font-size="12.00">fifteen</text>
</g>
<!-- fimftehunGm&#45;&gt;fimmtanON -->
<g id="edge18" class="edge">
<title>fimftehunGm&#45;&gt;fimmtanON</title>
<path fill="none" stroke="black" d="M226.81,-337.8C225.33,-328.35 223.44,-316.3 221.68,-305.1"/>
<polygon fill="black" stroke="black" points="225.13,-304.5 220.13,-295.16 218.22,-305.58 225.13,-304.5"/>
</g>
<!-- femto -->
<g id="node19" class="node">
<title>femto</title>
<text text-anchor="start" x="181" y="-196.8" font-family="Times New Roman,serif" font-weight="bold" font-size="14.00">Danish,</text>
<text text-anchor="start" x="170.5" y="-182.8" font-family="Times New Roman,serif" font-weight="bold" font-size="14.00">Norwegian</text>
<text text-anchor="start" x="188" y="-168.8" font-family="Times New Roman,serif" font-size="14.00" fill="red">femto</text>
</g>
<!-- fimmtanON&#45;&gt;femto -->
<g id="edge19" class="edge">
<title>fimmtanON&#45;&gt;femto</title>
<path fill="none" stroke="black" d="M213.16,-246.88C212,-238.88 210.68,-229.74 209.42,-221.05"/>
<polygon fill="black" stroke="black" points="212.89,-220.55 207.99,-211.15 205.96,-221.55 212.89,-220.55"/>
</g>
<!-- femtoE -->
<g id="node20" class="node">
<title>femtoE</title>
<text text-anchor="start" x="177" y="-73.3" font-family="Times New Roman,serif" font-weight="bold" font-size="14.00">Modern</text>
<text text-anchor="start" x="178.5" y="-59.3" font-family="Times New Roman,serif" font-weight="bold" font-size="14.00">English</text>
<text text-anchor="start" x="183" y="-45.3" font-family="Times New Roman,serif" font-size="14.00" fill="red">femto&#45;</text>
</g>
<!-- femto&#45;&gt;femtoE -->
<g id="edge20" class="edge">
<title>femto&#45;&gt;femtoE</title>
<path fill="none" stroke="black" stroke-dasharray="5,2" d="M203.91,-161C203.46,-142.97 202.85,-118.04 202.35,-97.9"/>
<polygon fill="black" stroke="black" points="205.85,-97.78 202.1,-87.87 198.85,-97.95 205.85,-97.78"/>
</g>
<!-- finfY -->
<g id="node22" class="node">
<title>finfY</title>
<text text-anchor="start" x="433.5" y="-274.8" font-family="Times New Roman,serif" font-weight="bold" font-size="14.00">Yiddish</text>
<text text-anchor="start" x="447" y="-260.8" font-family="Times New Roman,serif" font-size="14.00" fill="red">finf</text>
</g>
<!-- funfOHG&#45;&gt;finfY -->
<g id="edge22" class="edge">
<title>funfOHG&#45;&gt;finfY</title>
<path fill="none" stroke="black" d="M450.81,-330.99C451.77,-321.04 452.89,-309.45 453.88,-299.19"/>
<polygon fill="black" stroke="black" points="457.38,-299.39 454.85,-289.1 450.41,-298.72 457.38,-299.39"/>
</g>
<!-- fin -->
<g id="node23" class="node">
<title>fin</title>
<text text-anchor="start" x="433" y="-79.3" font-family="Times New Roman,serif" font-weight="bold" font-size="14.00">Modern</text>
<text text-anchor="start" x="434.5" y="-65.3" font-family="Times New Roman,serif" font-weight="bold" font-size="14.00">English</text>
<text text-anchor="start" x="450" y="-51.3" font-family="Times New Roman,serif" font-size="14.00" fill="red">fin</text>
<text text-anchor="start" x="426.5" y="-38.9" font-family="Times New Roman,serif" font-size="12.00">five&#45;dollar bill</text>
</g>
<!-- finfY&#45;&gt;fin -->
<g id="edge23" class="edge">
<title>finfY&#45;&gt;fin</title>
<path fill="none" stroke="black" stroke-dasharray="5,2" d="M456.58,-252.75C456.74,-220.19 457.09,-148.92 457.31,-103.73"/>
<polygon fill="black" stroke="black" points="460.81,-103.69 457.35,-93.68 453.81,-103.66 460.81,-103.69"/>
</g>
<!-- quinqueE -->
<g id="node25" class="node">
<title>quinqueE</title>
<text text-anchor="start" x="887" y="-73.3" font-family="Times New Roman,serif" font-weight="bold" font-size="14.00">Modern</text>
<text text-anchor="start" x="888.5" y="-59.3" font-family="Times New Roman,serif" font-weight="bold" font-size="14.00">English</text>
<text text-anchor="start" x="887" y="-45.3" font-family="Times New Roman,serif" font-size="14.00" fill="red">quinque&#45;</text>
</g>
<!-- quinqueL&#45;&gt;quinqueE -->
<g id="edge25" class="edge">
<title>quinqueL&#45;&gt;quinqueE</title>
<path fill="none" stroke="black" stroke-dasharray="5,2" d="M915.5,-428C915.5,-428 912.87,-188.45 911.88,-97.75"/>
<polygon fill="black" stroke="black" points="915.38,-97.66 911.77,-87.7 908.38,-97.74 915.38,-97.66"/>
</g>
<!-- cinqueI -->
<g id="node26" class="node">
<title>cinqueI</title>
<text text-anchor="start" x="947.5" y="-359.8" font-family="Times New Roman,serif" font-weight="bold" font-size="14.00">Italian</text>
<text text-anchor="start" x="949" y="-345.8" font-family="Times New Roman,serif" font-size="14.00" fill="red">cinque</text>
</g>
<!-- quinqueL&#45;&gt;cinqueI -->
<g id="edge28" class="edge">
<title>quinqueL&#45;&gt;cinqueI</title>
<path fill="none" stroke="black" d="M922.3,-428.84C930.51,-415.79 941.94,-397.62 951.26,-382.81"/>
<polygon fill="black" stroke="black" points="954.37,-384.44 956.74,-374.11 948.45,-380.71 954.37,-384.44"/>
</g>
<!-- quincunxL -->
<g id="node35" class="node">
<title>quincunxL</title>
<text text-anchor="start" x="1088" y="-365.8" font-family="Times New Roman,serif" font-size="14.00" fill="red">quīncūnx</text>
<text text-anchor="start" x="1085.5" y="-351.8" font-family="Times New Roman,serif" font-size="14.00" fill="red">quīncūnc&#45;</text>
<text text-anchor="start" x="1087.5" y="-339.4" font-family="Times New Roman,serif" font-size="12.00">five twelfths</text>
</g>
<!-- quinqueL&#45;&gt;quincunxL -->
<g id="edge35" class="edge">
<title>quinqueL&#45;&gt;quincunxL</title>
<path fill="none" stroke="black" d="M915.5,-428C915.5,-428 1050.65,-393.29 1088.66,-383.53"/>
<polygon fill="black" stroke="black" points="1089.69,-386.88 1098.5,-381 1087.94,-380.1 1089.69,-386.88"/>
</g>
<!-- quiniL -->
<g id="node37" class="node">
<title>quiniL</title>
<text text-anchor="start" x="813" y="-273.8" font-family="Times New Roman,serif" font-size="14.00" fill="red">quīnī</text>
<text text-anchor="start" x="808.5" y="-261.4" font-family="Times New Roman,serif" font-size="12.00">five each</text>
</g>
<!-- quinqueL&#45;&gt;quiniL -->
<g id="edge37" class="edge">
<title>quinqueL&#45;&gt;quiniL</title>
<path fill="none" stroke="black" d="M915.5,-428C915.5,-428 867.82,-342.5 843.05,-298.1"/>
<polygon fill="black" stroke="black" points="846.07,-296.32 838.14,-289.29 839.96,-299.73 846.07,-296.32"/>
</g>
<!-- cinquecentoI -->
<g id="node30" class="node">
<title>cinquecentoI</title>
<text text-anchor="start" x="957" y="-279.8" font-family="Times New Roman,serif" font-size="14.00" fill="red">(mil) cinquecento</text>
<text text-anchor="start" x="971.5" y="-267.4" font-family="Times New Roman,serif" font-size="12.00">(one thousand)</text>
<text text-anchor="start" x="977.5" y="-255.4" font-family="Times New Roman,serif" font-size="12.00">five hundred</text>
</g>
<!-- cinqueI&#45;&gt;cinquecentoI -->
<g id="edge29" class="edge">
<title>cinqueI&#45;&gt;cinquecentoI</title>
<path fill="none" stroke="black" d="M975.37,-337.8C979.89,-327.93 985.7,-315.24 991.02,-303.63"/>
<polygon fill="black" stroke="black" points="994.34,-304.78 995.32,-294.23 987.98,-301.86 994.34,-304.78"/>
</g>
<!-- dekm2 -->
<g id="node27" class="node">
<title>dekm2</title>
<g id="a_node27"><a xlink:href="dekm-ten3.svg" xlink:title="&lt;b&gt;Indo&#45;&lt;br/&gt;European&lt;/b&gt;&lt;br/&gt;&lt;font color=&quot;red&quot;&gt;*dekm̥&lt;/font&gt;&lt;br/&gt;&lt;font point&#45;size=&quot;12&quot;&gt;ten&lt;/font&gt;">
<path fill="none" stroke="black" stroke-dasharray="5,2" d="M1046,-659C1046,-659 993,-659 993,-659 987,-659 981,-653 981,-647 981,-647 981,-609 981,-609 981,-603 987,-597 993,-597 993,-597 1046,-597 1046,-597 1052,-597 1058,-603 1058,-609 1058,-609 1058,-647 1058,-647 1058,-653 1052,-659 1046,-659"/>
<text text-anchor="start" x="1003" y="-644.8" font-family="Times New Roman,serif" font-weight="bold" font-size="14.00">Indo&#45;</text>
<text text-anchor="start" x="989" y="-630.8" font-family="Times New Roman,serif" font-weight="bold" font-size="14.00">European</text>
<text text-anchor="start" x="1000.5" y="-616.8" font-family="Times New Roman,serif" font-size="14.00" fill="red">*dekm̥</text>
<text text-anchor="start" x="1012.5" y="-604.4" font-family="Times New Roman,serif" font-size="12.00">ten</text>
</a>
</g>
</g>
<!-- centumL -->
<g id="node28" class="node">
<title>centumL</title>
<text text-anchor="start" x="1004" y="-546.8" font-family="Times New Roman,serif" font-weight="bold" font-size="14.00">Latin</text>
<text text-anchor="start" x="1000" y="-532.8" font-family="Times New Roman,serif" font-size="14.00" fill="red">centum</text>
<text text-anchor="start" x="1002" y="-520.4" font-family="Times New Roman,serif" font-size="12.00">hundred</text>
</g>
<!-- dekm2&#45;&gt;centumL -->
<g id="edge26" class="edge">
<title>dekm2&#45;&gt;centumL</title>
<path fill="none" stroke="black" d="M1019.84,-596.87C1019.93,-588.64 1020.03,-579.68 1020.13,-571.29"/>
<polygon fill="black" stroke="black" points="1023.63,-571.1 1020.24,-561.06 1016.63,-571.02 1023.63,-571.1"/>
</g>
<!-- centoI -->
<g id="node29" class="node">
<title>centoI</title>
<text text-anchor="start" x="1002.5" y="-450.8" font-family="Times New Roman,serif" font-weight="bold" font-size="14.00">Italian</text>
<text text-anchor="start" x="1007" y="-436.8" font-family="Times New Roman,serif" font-size="14.00" fill="red">cento</text>
</g>
<!-- centumL&#45;&gt;centoI -->
<g id="edge27" class="edge">
<title>centumL&#45;&gt;centoI</title>
<path fill="none" stroke="black" d="M1021.03,-512.88C1021.29,-501.42 1021.6,-487.49 1021.88,-475.49"/>
<polygon fill="black" stroke="black" points="1025.38,-475.2 1022.11,-465.13 1018.38,-475.05 1025.38,-475.2"/>
</g>
<!-- centoI&#45;&gt;cinquecentoI -->
<g id="edge30" class="edge">
<title>centoI&#45;&gt;cinquecentoI</title>
<path fill="none" stroke="black" d="M1020.84,-429C1018.03,-400.2 1012.28,-341.37 1008.67,-304.47"/>
<polygon fill="black" stroke="black" points="1012.13,-303.84 1007.67,-294.23 1005.16,-304.52 1012.13,-303.84"/>
</g>
<!-- cinquecento -->
<g id="node31" class="node">
<title>cinquecento</title>
<text text-anchor="start" x="981" y="-73.3" font-family="Times New Roman,serif" font-weight="bold" font-size="14.00">Modern</text>
<text text-anchor="start" x="982.5" y="-59.3" font-family="Times New Roman,serif" font-weight="bold" font-size="14.00">English</text>
<text text-anchor="start" x="971.5" y="-45.3" font-family="Times New Roman,serif" font-size="14.00" fill="red">cinquecento</text>
</g>
<!-- cinquecentoI&#45;&gt;cinquecento -->
<g id="edge31" class="edge">
<title>cinquecentoI&#45;&gt;cinquecento</title>
<path fill="none" stroke="black" stroke-dasharray="5,2" d="M1005.5,-247.9C1005.5,-211.93 1005.5,-140.47 1005.5,-97.84"/>
<polygon fill="black" stroke="black" points="1009,-97.66 1005.5,-87.66 1002,-97.66 1009,-97.66"/>
</g>
<!-- oinoIE -->
<g id="node32" class="node">
<title>oinoIE</title>
<g id="a_node32"><a xlink:href="oino-one3.svg" xlink:title="&lt;b&gt;Indo&#45;&lt;br/&gt;European&lt;/b&gt;&lt;br/&gt;&lt;font color=&quot;red&quot;&gt;*oi&#45;no&#45;&lt;/font&gt;&lt;br/&gt;&lt;font point&#45;size=&quot;12&quot;&gt;one&lt;/font&gt;">
<path fill="none" stroke="black" stroke-dasharray="5,2" d="M1141,-659C1141,-659 1088,-659 1088,-659 1082,-659 1076,-653 1076,-647 1076,-647 1076,-609 1076,-609 1076,-603 1082,-597 1088,-597 1088,-597 1141,-597 1141,-597 1147,-597 1153,-603 1153,-609 1153,-609 1153,-647 1153,-647 1153,-653 1147,-659 1141,-659"/>
<text text-anchor="start" x="1098" y="-644.8" font-family="Times New Roman,serif" font-weight="bold" font-size="14.00">Indo&#45;</text>
<text text-anchor="start" x="1084" y="-630.8" font-family="Times New Roman,serif" font-weight="bold" font-size="14.00">European</text>
<text text-anchor="start" x="1094" y="-616.8" font-family="Times New Roman,serif" font-size="14.00" fill="red">*oi&#45;no&#45;</text>
<text text-anchor="start" x="1106" y="-604.4" font-family="Times New Roman,serif" font-size="12.00">one</text>
</a>
</g>
</g>
<!-- oinoko -->
<g id="node33" class="node">
<title>oinoko</title>
<text text-anchor="start" x="1087" y="-533.3" font-family="Times New Roman,serif" font-size="14.00" fill="red">*oino&#45;ko&#45;</text>
</g>
<!-- oinoIE&#45;&gt;oinoko -->
<g id="edge32" class="edge">
<title>oinoIE&#45;&gt;oinoko</title>
<path fill="none" stroke="black" d="M1114.5,-596.87C1114.5,-586.65 1114.5,-575.29 1114.5,-565.3"/>
<polygon fill="black" stroke="black" points="1118,-565.12 1114.5,-555.12 1111,-565.12 1118,-565.12"/>
</g>
<!-- unciaL -->
<g id="node34" class="node">
<title>unciaL</title>
<text text-anchor="start" x="1098" y="-462.8" font-family="Times New Roman,serif" font-weight="bold" font-size="14.00">Latin</text>
<text text-anchor="start" x="1099.5" y="-448.8" font-family="Times New Roman,serif" font-size="14.00" fill="red">ūncia</text>
<text text-anchor="start" x="1088.5" y="-436.4" font-family="Times New Roman,serif" font-size="12.00">one&#45;twelfth</text>
<text text-anchor="start" x="1096" y="-424.4" font-family="Times New Roman,serif" font-size="12.00">of a unit</text>
</g>
<!-- oinoko&#45;&gt;unciaL -->
<g id="edge33" class="edge">
<title>oinoko&#45;&gt;unciaL</title>
<path fill="none" stroke="black" d="M1114.5,-518.61C1114.5,-509.66 1114.5,-498.34 1114.5,-487.41"/>
<polygon fill="black" stroke="black" points="1118,-487.13 1114.5,-477.13 1111,-487.13 1118,-487.13"/>
</g>
<!-- unciaL&#45;&gt;quincunxL -->
<g id="edge34" class="edge">
<title>unciaL&#45;&gt;quincunxL</title>
<path fill="none" stroke="black" d="M1107.34,-416.92C1105.05,-407.59 1102.66,-397.88 1100.94,-390.91"/>
<polygon fill="black" stroke="black" points="1104.29,-389.87 1098.5,-381 1097.49,-391.55 1104.29,-389.87"/>
</g>
<!-- quincunx -->
<g id="node36" class="node">
<title>quincunx</title>
<text text-anchor="start" x="1090" y="-106.3" font-family="Times New Roman,serif" font-weight="bold" font-size="14.00">Modern</text>
<text text-anchor="start" x="1091.5" y="-92.3" font-family="Times New Roman,serif" font-weight="bold" font-size="14.00">English</text>
<text text-anchor="start" x="1088.5" y="-78.3" font-family="Times New Roman,serif" font-size="14.00" fill="red">quincunx</text>
<text text-anchor="start" x="1077.5" y="-65.9" font-family="Times New Roman,serif" font-size="12.00">this arrangement</text>
<text text-anchor="start" x="1081" y="-53.9" font-family="Times New Roman,serif" font-size="12.00">of five objects:</text>
<image xlink:href="quincunx.png" width="50px" height="37px" preserveAspectRatio="xMinYMin meet" x="1089.5" y="-44.5"/>
</g>
<!-- quincunxL&#45;&gt;quincunx -->
<g id="edge36" class="edge">
<title>quincunxL&#45;&gt;quincunx</title>
<path fill="none" stroke="black" stroke-dasharray="5,2" d="M1114.5,-331.64C1114.5,-289.51 1114.5,-199.24 1114.5,-135.1"/>
<polygon fill="black" stroke="black" points="1118,-135.04 1114.5,-125.04 1111,-135.04 1118,-135.04"/>
</g>
<!-- quineF -->
<g id="node38" class="node">
<title>quineF</title>
<text text-anchor="start" x="736.5" y="-189.8" font-family="Times New Roman,serif" font-weight="bold" font-size="14.00">French</text>
<text text-anchor="start" x="743" y="-175.8" font-family="Times New Roman,serif" font-size="14.00" fill="red">quine</text>
</g>
<!-- quiniL&#45;&gt;quineF -->
<g id="edge38" class="edge">
<title>quiniL&#45;&gt;quineF</title>
<path fill="none" stroke="black" d="M822.5,-252C822.5,-252 800.89,-230.05 782.79,-211.67"/>
<polygon fill="black" stroke="black" points="784.83,-208.75 775.32,-204.08 779.84,-213.66 784.83,-208.75"/>
</g>
<!-- quinate -->
<g id="node40" class="node">
<title>quinate</title>
<text text-anchor="start" x="804" y="-73.3" font-family="Times New Roman,serif" font-weight="bold" font-size="14.00">Modern</text>
<text text-anchor="start" x="805.5" y="-59.3" font-family="Times New Roman,serif" font-weight="bold" font-size="14.00">English</text>
<text text-anchor="start" x="808.5" y="-45.3" font-family="Times New Roman,serif" font-size="14.00" fill="red">quinate</text>
</g>
<!-- quiniL&#45;&gt;quinate -->
<g id="edge40" class="edge">
<title>quiniL&#45;&gt;quinate</title>
<path fill="none" stroke="black" stroke-dasharray="5,2" d="M822.5,-252C822.5,-252 825.67,-152.39 827.4,-97.99"/>
<polygon fill="black" stroke="black" points="830.91,-97.86 827.73,-87.76 823.91,-97.64 830.91,-97.86"/>
</g>
<!-- keno -->
<g id="node39" class="node">
<title>keno</title>
<text text-anchor="start" x="721" y="-73.3" font-family="Times New Roman,serif" font-weight="bold" font-size="14.00">Modern</text>
<text text-anchor="start" x="722.5" y="-59.3" font-family="Times New Roman,serif" font-weight="bold" font-size="14.00">English</text>
<text text-anchor="start" x="731.5" y="-45.3" font-family="Times New Roman,serif" font-size="14.00" fill="red">keno</text>
</g>
<!-- quineF&#45;&gt;keno -->
<g id="edge39" class="edge">
<title>quineF&#45;&gt;keno</title>
<path fill="none" stroke="black" stroke-dasharray="5,2" d="M756.66,-167.85C754.72,-149.7 751.61,-120.57 749.16,-97.69"/>
<polygon fill="black" stroke="black" points="752.63,-97.26 748.09,-87.69 745.67,-98 752.63,-97.26"/>
</g>
<!-- pentaE -->
<g id="node42" class="node">
<title>pentaE</title>
<text text-anchor="start" x="8" y="-80.3" font-family="Times New Roman,serif" font-weight="bold" font-size="14.00">Modern</text>
<text text-anchor="start" x="9.5" y="-66.3" font-family="Times New Roman,serif" font-weight="bold" font-size="14.00">English</text>
<text text-anchor="start" x="15" y="-52.3" font-family="Times New Roman,serif" font-size="14.00" fill="red">penta&#45;</text>
<text text-anchor="start" x="18" y="-38.3" font-family="Times New Roman,serif" font-size="14.00" fill="red">pent&#45;</text>
</g>
<!-- penteG&#45;&gt;pentaE -->
<g id="edge42" class="edge">
<title>penteG&#45;&gt;pentaE</title>
<path fill="none" stroke="black" stroke-dasharray="5,2" d="M58.78,-428.93C56.78,-415.85 54.14,-397.32 52.5,-381 42.57,-282.24 36.72,-165.68 34.12,-104.97"/>
<polygon fill="black" stroke="black" points="37.61,-104.5 33.69,-94.66 30.61,-104.8 37.61,-104.5"/>
</g>
<!-- pancaSk -->
<g id="node44" class="node">
<title>pancaSk</title>
<text text-anchor="start" x="534.5" y="-359.8" font-family="Times New Roman,serif" font-weight="bold" font-size="14.00">Sanskrit</text>
<text text-anchor="start" x="543.5" y="-345.8" font-family="Times New Roman,serif" font-size="14.00" fill="red">pañca</text>
</g>
<!-- pancaII&#45;&gt;pancaSk -->
<g id="edge44" class="edge">
<title>pancaII&#45;&gt;pancaSk</title>
<path fill="none" stroke="black" d="M533.86,-428.84C538.61,-416.04 545.19,-398.3 550.62,-383.65"/>
<polygon fill="black" stroke="black" points="553.96,-384.7 554.16,-374.11 547.4,-382.27 553.96,-384.7"/>
</g>
<!-- pancH -->
<g id="node45" class="node">
<title>pancH</title>
<text text-anchor="start" x="543.5" y="-189.8" font-family="Times New Roman,serif" font-weight="bold" font-size="14.00">Hindi</text>
<text text-anchor="start" x="546.5" y="-175.8" font-family="Times New Roman,serif" font-size="14.00" fill="red">pañc</text>
</g>
<!-- pancaSk&#45;&gt;pancH -->
<g id="edge45" class="edge">
<title>pancaSk&#45;&gt;pancH</title>
<path fill="none" stroke="black" d="M560.5,-337.97C560.5,-308.91 560.5,-249.52 560.5,-214.52"/>
<polygon fill="black" stroke="black" points="564,-214.08 560.5,-204.08 557,-214.08 564,-214.08"/>
</g>
<!-- pacisH -->
<g id="node49" class="node">
<title>pacisH</title>
<text text-anchor="start" x="625.5" y="-280.8" font-family="Times New Roman,serif" font-weight="bold" font-size="14.00">Hindi</text>
<text text-anchor="start" x="627" y="-266.8" font-family="Times New Roman,serif" font-size="14.00" fill="red">pacīs</text>
<text text-anchor="start" x="617" y="-254.4" font-family="Times New Roman,serif" font-size="12.00">twenty&#45;five</text>
</g>
<!-- pancaSk&#45;&gt;pacisH -->
<g id="edge49" class="edge">
<title>pancaSk&#45;&gt;pacisH</title>
<path fill="none" stroke="black" d="M581.33,-337.93C595.78,-326.09 614.23,-310.97 624.56,-302.51"/>
<polygon fill="black" stroke="black" points="626.98,-305.05 632.5,-296 622.55,-299.63 626.98,-305.05"/>
</g>
<!-- punch -->
<g id="node46" class="node">
<title>punch</title>
<text text-anchor="start" x="536" y="-91.3" font-family="Times New Roman,serif" font-weight="bold" font-size="14.00">Modern</text>
<text text-anchor="start" x="537.5" y="-77.3" font-family="Times New Roman,serif" font-weight="bold" font-size="14.00">English</text>
<text text-anchor="start" x="543" y="-63.3" font-family="Times New Roman,serif" font-size="14.00" fill="red">punch</text>
<text text-anchor="start" x="523" y="-50.9" font-family="Times New Roman,serif" font-size="12.00">a drink originally</text>
<text text-anchor="start" x="526.5" y="-38.9" font-family="Times New Roman,serif" font-size="12.00">made from five</text>
<text text-anchor="start" x="536" y="-26.9" font-family="Times New Roman,serif" font-size="12.00">ingredients</text>
</g>
<!-- pancH&#45;&gt;punch -->
<g id="edge46" class="edge">
<title>pancH&#45;&gt;punch</title>
<path fill="none" stroke="black" stroke-dasharray="5,2" d="M560.5,-167.85C560.5,-154.27 560.5,-134.55 560.5,-115.91"/>
<polygon fill="black" stroke="black" points="564,-115.7 560.5,-105.7 557,-115.7 564,-115.7"/>
</g>
<!-- wikmtiIE -->
<g id="node47" class="node">
<title>wikmtiIE</title>
<g id="a_node47"><a xlink:href="wikmti-twenty.svg" xlink:title="&lt;b&gt;Indo&#45;&lt;br/&gt;European&lt;/b&gt;&lt;br/&gt;&lt;font color=&quot;red&quot;&gt;*wīkm̥tī&#45;&lt;/font&gt;&lt;br/&gt;&lt;font point&#45;size=&quot;12&quot;&gt;twenty&lt;/font&gt;">
<path fill="none" stroke="black" stroke-dasharray="5,2" d="M669,-659C669,-659 616,-659 616,-659 610,-659 604,-653 604,-647 604,-647 604,-609 604,-609 604,-603 610,-597 616,-597 616,-597 669,-597 669,-597 675,-597 681,-603 681,-609 681,-609 681,-647 681,-647 681,-653 675,-659 669,-659"/>
<text text-anchor="start" x="626" y="-644.8" font-family="Times New Roman,serif" font-weight="bold" font-size="14.00">Indo&#45;</text>
<text text-anchor="start" x="612" y="-630.8" font-family="Times New Roman,serif" font-weight="bold" font-size="14.00">European</text>
<text text-anchor="start" x="616.5" y="-616.8" font-family="Times New Roman,serif" font-size="14.00" fill="red">*wīkm̥tī&#45;</text>
<text text-anchor="start" x="627" y="-604.4" font-family="Times New Roman,serif" font-size="12.00">twenty</text>
</a>
</g>
</g>
<!-- vimsatihSk -->
<g id="node48" class="node">
<title>vimsatihSk</title>
<text text-anchor="start" x="616.5" y="-456.8" font-family="Times New Roman,serif" font-weight="bold" font-size="14.00">Sanskrit</text>
<text text-anchor="start" x="619.5" y="-442.8" font-family="Times New Roman,serif" font-size="14.00" fill="red">viṁśatiḥ</text>
<text text-anchor="start" x="627" y="-430.4" font-family="Times New Roman,serif" font-size="12.00">twenty</text>
</g>
<!-- wikmtiIE&#45;&gt;vimsatihSk -->
<g id="edge47" class="edge">
<title>wikmtiIE&#45;&gt;vimsatihSk</title>
<path fill="none" stroke="black" d="M642.5,-596.64C642.5,-564.59 642.5,-514.25 642.5,-481.18"/>
<polygon fill="black" stroke="black" points="646,-481.1 642.5,-471.1 639,-481.1 646,-481.1"/>
</g>
<!-- vimsatihSk&#45;&gt;pacisH -->
<g id="edge48" class="edge">
<title>vimsatihSk&#45;&gt;pacisH</title>
<path fill="none" stroke="black" d="M640.96,-422.89C638.75,-389.69 634.76,-329.88 633.17,-306.12"/>
<polygon fill="black" stroke="black" points="636.66,-305.75 632.5,-296 629.67,-306.21 636.66,-305.75"/>
</g>
<!-- pacisiH -->
<g id="node50" class="node">
<title>pacisiH</title>
<text text-anchor="start" x="630.5" y="-188.8" font-family="Times New Roman,serif" font-size="14.00" fill="red">pacīsī</text>
<text text-anchor="start" x="628.5" y="-176.4" font-family="Times New Roman,serif" font-size="12.00">(a game)</text>
</g>
<!-- pacisH&#45;&gt;pacisiH -->
<g id="edge50" class="edge">
<title>pacisH&#45;&gt;pacisiH</title>
<path fill="none" stroke="black" d="M644.17,-246.88C644.9,-236.73 645.77,-224.75 646.53,-214.18"/>
<polygon fill="black" stroke="black" points="650.03,-214.43 647.26,-204.21 643.04,-213.93 650.03,-214.43"/>
</g>
<!-- pachisi -->
<g id="node51" class="node">
<title>pachisi</title>
<text text-anchor="start" x="635" y="-80.3" font-family="Times New Roman,serif" font-weight="bold" font-size="14.00">Modern</text>
<text text-anchor="start" x="636.5" y="-66.3" font-family="Times New Roman,serif" font-weight="bold" font-size="14.00">English</text>
<text text-anchor="start" x="639.5" y="-52.3" font-family="Times New Roman,serif" font-size="14.00" fill="red">pachisi</text>
<text text-anchor="start" x="632.5" y="-38.3" font-family="Times New Roman,serif" font-size="14.00" fill="red">Parcheesi</text>
</g>
<!-- pacisiH&#45;&gt;pachisi -->
<g id="edge51" class="edge">
<title>pacisiH&#45;&gt;pachisi</title>
<path fill="none" stroke="black" stroke-dasharray="5,2" d="M650.05,-167.85C651.53,-151.55 653.81,-126.39 655.76,-104.86"/>
<polygon fill="black" stroke="black" points="659.26,-104.92 656.68,-94.64 652.29,-104.29 659.26,-104.92"/>
</g>
</g>
</svg>
