<?xml version="1.0" encoding="UTF-8" standalone="no"?>
<!DOCTYPE svg PUBLIC "-//W3C//DTD SVG 1.1//EN"
 "http://www.w3.org/Graphics/SVG/1.1/DTD/svg11.dtd">
<!-- Generated by graphviz version 2.49.0 (20210828.1703)
 -->
<!-- Pages: 1 -->
<svg width="689pt" height="760pt"
 viewBox="0.00 0.00 689.00 760.00" xmlns="http://www.w3.org/2000/svg" xmlns:xlink="http://www.w3.org/1999/xlink">
<g id="graph0" class="graph" transform="scale(1 1) rotate(0) translate(4 756)">
<polygon fill="white" stroke="transparent" points="-4,4 -4,-756 685,-756 685,4 -4,4"/>
<!-- penkwe -->
<g id="node1" class="node">
<title>penkwe</title>
<g id="a_node1"><a xlink:href="penkwe-five0.svg" xlink:title="Indo&#45;European &quot;*penkʷe&quot; five">
<path fill="none" stroke="black" stroke-dasharray="5,2" d="M327,-746C327,-746 178,-746 178,-746 172,-746 166,-740 166,-734 166,-734 166,-708 166,-708 166,-702 172,-696 178,-696 178,-696 327,-696 327,-696 333,-696 339,-702 339,-708 339,-708 339,-734 339,-734 339,-740 333,-746 327,-746"/>
<text text-anchor="start" x="174" y="-723.8" font-family="Times New Roman,serif" font-weight="bold" font-size="24.00">Indo&#45;European</text>
<text text-anchor="start" x="207.5" y="-704.6" font-family="Times New Roman,serif" font-size="18.00" fill="red">*penkʷe </text>
<text text-anchor="start" x="272.5" y="-704.6" font-family="Times New Roman,serif" font-size="16.00">five</text>
</a>
</g>
</g>
<!-- penkwto -->
<g id="node2" class="node">
<title>penkwto</title>
<text text-anchor="start" x="93" y="-564.8" font-family="Times New Roman,serif" font-size="14.00" fill="red">*penkʷ&#45;to&#45;</text>
<text text-anchor="start" x="115" y="-552.4" font-family="Times New Roman,serif" font-size="12.00">fifth</text>
</g>
<!-- penkwe&#45;&gt;penkwto -->
<g id="edge1" class="edge">
<title>penkwe&#45;&gt;penkwto</title>
<path fill="none" stroke="black" d="M255.5,-695C255.5,-695 186.1,-625.6 147.94,-587.44"/>
<polygon fill="black" stroke="black" points="150.3,-584.85 140.76,-580.26 145.35,-589.8 150.3,-584.85"/>
</g>
<!-- penkwro -->
<g id="node3" class="node">
<title>penkwro</title>
<text text-anchor="start" x="189" y="-564.8" font-family="Times New Roman,serif" font-size="14.00" fill="red">*penkʷ&#45;ro&#45;</text>
<text text-anchor="start" x="192" y="-552.4" font-family="Times New Roman,serif" font-size="12.00">&quot;one of five&quot;</text>
</g>
<!-- penkwe&#45;&gt;penkwro -->
<g id="edge2" class="edge">
<title>penkwe&#45;&gt;penkwro</title>
<path fill="none" stroke="black" d="M255.5,-695C255.5,-695 237.51,-629.03 226.96,-590.36"/>
<polygon fill="black" stroke="black" points="230.21,-588.98 224.21,-580.26 223.46,-590.83 230.21,-588.98"/>
</g>
<!-- pnksti -->
<g id="node4" class="node">
<title>pnksti</title>
<text text-anchor="start" x="285.5" y="-564.8" font-family="Times New Roman,serif" font-size="14.00" fill="red">*pn̥k&#45;sti&#45;</text>
<text text-anchor="start" x="284.5" y="-552.4" font-family="Times New Roman,serif" font-size="12.00">&quot;set of five&quot;</text>
</g>
<!-- penkwe&#45;&gt;pnksti -->
<g id="edge3" class="edge">
<title>penkwe&#45;&gt;pnksti</title>
<path fill="none" stroke="black" d="M255.5,-695C255.5,-695 283.22,-628.46 299.31,-589.87"/>
<polygon fill="black" stroke="black" points="302.69,-590.83 303.31,-580.26 296.23,-588.14 302.69,-590.83"/>
</g>
<!-- penkwekonta -->
<g id="node5" class="node">
<title>penkwekonta</title>
<text text-anchor="start" x="441.5" y="-564.8" font-family="Times New Roman,serif" font-size="14.00" fill="red">*penkʷe&#45;(d)konta</text>
<text text-anchor="start" x="472" y="-552.4" font-family="Times New Roman,serif" font-size="12.00">five tens</text>
</g>
<!-- penkwe&#45;&gt;penkwekonta -->
<g id="edge4" class="edge">
<title>penkwe&#45;&gt;penkwekonta</title>
<path fill="none" stroke="black" d="M255.5,-695C255.5,-695 429.31,-606.94 471.4,-585.61"/>
<polygon fill="black" stroke="black" points="473.16,-588.64 480.5,-581 470,-582.4 473.16,-588.64"/>
</g>
<!-- fimftonGm -->
<g id="node29" class="node">
<title>fimftonGm</title>
<text text-anchor="start" x="14" y="-302.8" font-family="Times New Roman,serif" font-weight="bold" font-size="14.00">Germanic</text>
<text text-anchor="start" x="18.5" y="-288.8" font-family="Times New Roman,serif" font-size="14.00" fill="red">*fimftōn&#45;</text>
</g>
<!-- penkwto&#45;&gt;fimftonGm -->
<g id="edge28" class="edge">
<title>penkwto&#45;&gt;fimftonGm</title>
<path fill="none" stroke="black" d="M120.5,-543C120.5,-543 79.15,-532.55 63.5,-507 29,-450.66 34.12,-369.05 39.85,-327.11"/>
<polygon fill="black" stroke="black" points="43.32,-327.51 41.33,-317.11 36.4,-326.49 43.32,-327.51"/>
</g>
<!-- quintusL -->
<g id="node33" class="node">
<title>quintusL</title>
<text text-anchor="start" x="107" y="-473.8" font-family="Times New Roman,serif" font-weight="bold" font-size="14.00">Latin</text>
<text text-anchor="start" x="81" y="-459.8" font-family="Times New Roman,serif" font-size="14.00" fill="red">quīntus, quīnta</text>
</g>
<!-- penkwto&#45;&gt;quintusL -->
<g id="edge32" class="edge">
<title>penkwto&#45;&gt;quintusL</title>
<path fill="none" stroke="black" d="M120.5,-543C120.5,-543 121.52,-518.6 122.37,-498.21"/>
<polygon fill="black" stroke="black" points="125.87,-498.2 122.79,-488.06 118.88,-497.91 125.87,-498.2"/>
</g>
<!-- fingwrazGm -->
<g id="node18" class="node">
<title>fingwrazGm</title>
<text text-anchor="start" x="179" y="-302.8" font-family="Times New Roman,serif" font-weight="bold" font-size="14.00">Germanic</text>
<text text-anchor="start" x="182" y="-288.8" font-family="Times New Roman,serif" font-size="14.00" fill="red">*fingwraz</text>
</g>
<!-- penkwro&#45;&gt;fingwrazGm -->
<g id="edge17" class="edge">
<title>penkwro&#45;&gt;fingwrazGm</title>
<path fill="none" stroke="black" d="M218.84,-543.88C217.15,-499.63 212.61,-381.22 210.55,-327.36"/>
<polygon fill="black" stroke="black" points="214.04,-327.05 210.16,-317.19 207.04,-327.31 214.04,-327.05"/>
</g>
<!-- funhstizGm -->
<g id="node22" class="node">
<title>funhstizGm</title>
<text text-anchor="start" x="280" y="-308.8" font-family="Times New Roman,serif" font-weight="bold" font-size="14.00">Germanic</text>
<text text-anchor="start" x="285" y="-294.8" font-family="Times New Roman,serif" font-size="14.00" fill="red">*funhstiz</text>
<text text-anchor="start" x="304" y="-282.4" font-family="Times New Roman,serif" font-size="12.00">fist</text>
</g>
<!-- pnksti&#45;&gt;funhstizGm -->
<g id="edge21" class="edge">
<title>pnksti&#45;&gt;funhstizGm</title>
<path fill="none" stroke="black" d="M310.5,-543.88C310.5,-501.15 310.5,-389.27 310.5,-333.13"/>
<polygon fill="black" stroke="black" points="314,-333 310.5,-323 307,-333 314,-333"/>
</g>
<!-- quinquagintaL -->
<g id="node8" class="node">
<title>quinquagintaL</title>
<text text-anchor="start" x="474" y="-479.8" font-family="Times New Roman,serif" font-weight="bold" font-size="14.00">Latin</text>
<text text-anchor="start" x="454" y="-465.8" font-family="Times New Roman,serif" font-size="14.00" fill="red">quīnquāgintā</text>
<text text-anchor="start" x="482" y="-453.4" font-family="Times New Roman,serif" font-size="12.00">fifty</text>
</g>
<!-- penkwekonta&#45;&gt;quinquagintaL -->
<g id="edge7" class="edge">
<title>penkwekonta&#45;&gt;quinquagintaL</title>
<path fill="none" stroke="black" d="M499.5,-543C499.5,-543 497.01,-523.04 494.64,-504.14"/>
<polygon fill="black" stroke="black" points="498.11,-503.67 493.4,-494.18 491.16,-504.53 498.11,-503.67"/>
</g>
<!-- pentekontaG -->
<g id="node12" class="node">
<title>pentekontaG</title>
<text text-anchor="start" x="585.5" y="-492.8" font-family="Times New Roman,serif" font-weight="bold" font-size="14.00">Greek</text>
<text text-anchor="start" x="575" y="-478.8" font-family="Times New Roman,serif" font-size="14.00" fill="red">pentēkonta</text>
<text text-anchor="start" x="597" y="-466.4" font-family="Times New Roman,serif" font-size="12.00">fifty</text>
<text text-anchor="start" x="571.5" y="-452.8" font-family="Times New Roman,serif" font-size="14.00" fill="red">pentēkostos</text>
<text text-anchor="start" x="591.5" y="-440.4" font-family="Times New Roman,serif" font-size="12.00">fiftieth</text>
</g>
<!-- penkwekonta&#45;&gt;pentekontaG -->
<g id="edge11" class="edge">
<title>penkwekonta&#45;&gt;pentekontaG</title>
<path fill="none" stroke="black" d="M499.5,-543C499.5,-543 527.62,-523.9 554.9,-505.37"/>
<polygon fill="black" stroke="black" points="557,-508.18 563.3,-499.66 553.06,-502.39 557,-508.18"/>
</g>
<!-- kontaIE -->
<g id="node6" class="node">
<title>kontaIE</title>
<text text-anchor="start" x="436.5" y="-631.3" font-family="Times New Roman,serif" font-size="14.00" fill="red">*&#45;dkōm&#45;tā̆, *&#45;kontā̆</text>
</g>
<!-- kontaIE&#45;&gt;penkwekonta -->
<g id="edge5" class="edge">
<title>kontaIE&#45;&gt;penkwekonta</title>
<path fill="none" stroke="black" d="M487.28,-616.94C485.66,-608.34 483.75,-598.23 482.37,-590.92"/>
<polygon fill="black" stroke="black" points="485.79,-590.18 480.5,-581 478.91,-591.48 485.79,-590.18"/>
</g>
<!-- dekmIE -->
<g id="node7" class="node">
<title>dekmIE</title>
<g id="a_node7"><a xlink:href="dekm-ten2.svg" xlink:title="&lt;b&gt;Indo&#45;&lt;br/&gt;European&lt;/b&gt;&lt;br/&gt;&lt;font color=&quot;red&quot;&gt;*dekm̥&lt;/font&gt;&lt;br/&gt;&lt;font point&#45;size=&quot;12&quot;&gt;ten&lt;/font&gt;">
<path fill="none" stroke="black" stroke-dasharray="5,2" d="M517,-752C517,-752 464,-752 464,-752 458,-752 452,-746 452,-740 452,-740 452,-702 452,-702 452,-696 458,-690 464,-690 464,-690 517,-690 517,-690 523,-690 529,-696 529,-702 529,-702 529,-740 529,-740 529,-746 523,-752 517,-752"/>
<text text-anchor="start" x="474" y="-737.8" font-family="Times New Roman,serif" font-weight="bold" font-size="14.00">Indo&#45;</text>
<text text-anchor="start" x="460" y="-723.8" font-family="Times New Roman,serif" font-weight="bold" font-size="14.00">European</text>
<text text-anchor="start" x="471.5" y="-709.8" font-family="Times New Roman,serif" font-size="14.00" fill="red">*dekm̥</text>
<text text-anchor="start" x="483.5" y="-697.4" font-family="Times New Roman,serif" font-size="12.00">ten</text>
</a>
</g>
</g>
<!-- dekmIE&#45;&gt;kontaIE -->
<g id="edge6" class="edge">
<title>dekmIE&#45;&gt;kontaIE</title>
<path fill="none" stroke="black" d="M490.5,-689.67C490.5,-681.08 490.5,-671.78 490.5,-663.38"/>
<polygon fill="black" stroke="black" points="494,-663.33 490.5,-653.33 487,-663.33 494,-663.33"/>
</g>
<!-- quinquageniL -->
<g id="node9" class="node">
<title>quinquageniL</title>
<text text-anchor="start" x="455.5" y="-380.8" font-family="Times New Roman,serif" font-size="14.00" fill="red">quīnquāgēnī</text>
<text text-anchor="start" x="470" y="-368.4" font-family="Times New Roman,serif" font-size="12.00">fifty each</text>
</g>
<!-- quinquagintaL&#45;&gt;quinquageniL -->
<g id="edge8" class="edge">
<title>quinquagintaL&#45;&gt;quinquageniL</title>
<path fill="none" stroke="black" d="M490.5,-445.82C490.5,-433.82 490.5,-419.08 490.5,-406.5"/>
<polygon fill="black" stroke="black" points="494,-406.13 490.5,-396.13 487,-406.13 494,-406.13"/>
</g>
<!-- quinquagenariusL -->
<g id="node10" class="node">
<title>quinquagenariusL</title>
<text text-anchor="start" x="444.5" y="-301.8" font-family="Times New Roman,serif" font-size="14.00" fill="red">quīnquāgēnārius</text>
<text text-anchor="start" x="458" y="-289.4" font-family="Times New Roman,serif" font-size="12.00">containing fifty</text>
</g>
<!-- quinquageniL&#45;&gt;quinquagenariusL -->
<g id="edge9" class="edge">
<title>quinquageniL&#45;&gt;quinquagenariusL</title>
<path fill="none" stroke="black" d="M490.5,-359.91C490.5,-350.34 490.5,-338.18 490.5,-327.32"/>
<polygon fill="black" stroke="black" points="494,-327.04 490.5,-317.04 487,-327.04 494,-327.04"/>
</g>
<!-- quinquagenarian -->
<g id="node11" class="node">
<title>quinquagenarian</title>
<text text-anchor="start" x="476" y="-35.8" font-family="Times New Roman,serif" font-weight="bold" font-size="14.00">Modern</text>
<text text-anchor="start" x="477.5" y="-21.8" font-family="Times New Roman,serif" font-weight="bold" font-size="14.00">English</text>
<text text-anchor="start" x="455" y="-7.8" font-family="Times New Roman,serif" font-size="14.00" fill="red">quinquagenarian</text>
</g>
<!-- quinquagenariusL&#45;&gt;quinquagenarian -->
<g id="edge10" class="edge">
<title>quinquagenariusL&#45;&gt;quinquagenarian</title>
<path fill="none" stroke="black" stroke-dasharray="5,2" d="M491.13,-280.99C492.74,-237.08 497.07,-119.3 499.23,-60.45"/>
<polygon fill="black" stroke="black" points="502.74,-60.3 499.61,-50.18 495.75,-60.05 502.74,-60.3"/>
</g>
<!-- pentekosteG -->
<g id="node13" class="node">
<title>pentekosteG</title>
<text text-anchor="start" x="560" y="-380.8" font-family="Times New Roman,serif" font-size="14.00" fill="red">pentēkostē (hēmera)</text>
<text text-anchor="start" x="589" y="-368.4" font-family="Times New Roman,serif" font-size="12.00">fiftieth (day)</text>
</g>
<!-- pentekontaG&#45;&gt;pentekosteG -->
<g id="edge12" class="edge">
<title>pentekontaG&#45;&gt;pentekosteG</title>
<path fill="none" stroke="black" d="M609.91,-432.91C611,-423.97 612.16,-414.54 613.19,-406.11"/>
<polygon fill="black" stroke="black" points="616.67,-406.43 614.41,-396.08 609.72,-405.59 616.67,-406.43"/>
</g>
<!-- pentecosteL -->
<g id="node14" class="node">
<title>pentecosteL</title>
<text text-anchor="start" x="600" y="-302.8" font-family="Times New Roman,serif" font-weight="bold" font-size="14.00">Latin</text>
<text text-anchor="start" x="586" y="-288.8" font-family="Times New Roman,serif" font-size="14.00" fill="red">Pentēcostē</text>
</g>
<!-- pentekosteG&#45;&gt;pentecosteL -->
<g id="edge13" class="edge">
<title>pentekosteG&#45;&gt;pentecosteL</title>
<path fill="none" stroke="black" stroke-dasharray="5,2" d="M616.5,-359.91C616.5,-350.34 616.5,-338.18 616.5,-327.32"/>
<polygon fill="black" stroke="black" points="620,-327.04 616.5,-317.04 613,-327.04 620,-327.04"/>
</g>
<!-- pentecostenOE -->
<g id="node15" class="node">
<title>pentecostenOE</title>
<text text-anchor="start" x="580" y="-216.8" font-family="Times New Roman,serif" font-weight="bold" font-size="14.00">Old English</text>
<text text-anchor="start" x="582.5" y="-202.8" font-family="Times New Roman,serif" font-size="14.00" fill="red">Pentecosten</text>
</g>
<!-- pentecosteL&#45;&gt;pentecostenOE -->
<g id="edge14" class="edge">
<title>pentecosteL&#45;&gt;pentecostenOE</title>
<path fill="none" stroke="black" stroke-dasharray="5,2" d="M616.5,-280.6C616.5,-269.26 616.5,-254.23 616.5,-241.32"/>
<polygon fill="black" stroke="black" points="620,-241.1 616.5,-231.1 613,-241.1 620,-241.1"/>
</g>
<!-- pentecosteME -->
<g id="node16" class="node">
<title>pentecosteME</title>
<text text-anchor="start" x="595" y="-136.8" font-family="Times New Roman,serif" font-weight="bold" font-size="14.00">Middle</text>
<text text-anchor="start" x="593.5" y="-122.8" font-family="Times New Roman,serif" font-weight="bold" font-size="14.00">English</text>
<text text-anchor="start" x="586" y="-108.8" font-family="Times New Roman,serif" font-size="14.00" fill="red">Pentecoste</text>
</g>
<!-- pentecostenOE&#45;&gt;pentecosteME -->
<g id="edge15" class="edge">
<title>pentecostenOE&#45;&gt;pentecosteME</title>
<path fill="none" stroke="black" d="M616.5,-194.8C616.5,-185.22 616.5,-172.94 616.5,-161.47"/>
<polygon fill="black" stroke="black" points="620,-161.26 616.5,-151.26 613,-161.26 620,-161.26"/>
</g>
<!-- pentecost -->
<g id="node17" class="node">
<title>pentecost</title>
<text text-anchor="start" x="592" y="-35.8" font-family="Times New Roman,serif" font-weight="bold" font-size="14.00">Modern</text>
<text text-anchor="start" x="593.5" y="-21.8" font-family="Times New Roman,serif" font-weight="bold" font-size="14.00">English</text>
<text text-anchor="start" x="589" y="-7.8" font-family="Times New Roman,serif" font-size="14.00" fill="red">Pentecost</text>
</g>
<!-- pentecosteME&#45;&gt;pentecost -->
<g id="edge16" class="edge">
<title>pentecosteME&#45;&gt;pentecost</title>
<path fill="none" stroke="black" d="M616.5,-100.78C616.5,-88.68 616.5,-73.81 616.5,-60.54"/>
<polygon fill="black" stroke="black" points="620,-60.31 616.5,-50.31 613,-60.31 620,-60.31"/>
</g>
<!-- fingerOE -->
<g id="node19" class="node">
<title>fingerOE</title>
<text text-anchor="start" x="167" y="-216.8" font-family="Times New Roman,serif" font-weight="bold" font-size="14.00">Old English</text>
<text text-anchor="start" x="187.5" y="-202.8" font-family="Times New Roman,serif" font-size="14.00" fill="red">finger</text>
</g>
<!-- fingwrazGm&#45;&gt;fingerOE -->
<g id="edge18" class="edge">
<title>fingwrazGm&#45;&gt;fingerOE</title>
<path fill="none" stroke="black" d="M208.26,-280.6C207.45,-269.26 206.37,-254.23 205.45,-241.32"/>
<polygon fill="black" stroke="black" points="208.92,-240.82 204.72,-231.1 201.94,-241.32 208.92,-240.82"/>
</g>
<!-- fingerME -->
<g id="node20" class="node">
<title>fingerME</title>
<text text-anchor="start" x="184" y="-136.8" font-family="Times New Roman,serif" font-weight="bold" font-size="14.00">Middle</text>
<text text-anchor="start" x="182.5" y="-122.8" font-family="Times New Roman,serif" font-weight="bold" font-size="14.00">English</text>
<text text-anchor="start" x="189.5" y="-108.8" font-family="Times New Roman,serif" font-size="14.00" fill="red">finger</text>
</g>
<!-- fingerOE&#45;&gt;fingerME -->
<g id="edge19" class="edge">
<title>fingerOE&#45;&gt;fingerME</title>
<path fill="none" stroke="black" d="M203.9,-194.8C204.13,-185.22 204.42,-172.94 204.69,-161.47"/>
<polygon fill="black" stroke="black" points="208.19,-161.34 204.93,-151.26 201.19,-161.18 208.19,-161.34"/>
</g>
<!-- finger -->
<g id="node21" class="node">
<title>finger</title>
<text text-anchor="start" x="182" y="-35.8" font-family="Times New Roman,serif" font-weight="bold" font-size="14.00">Modern</text>
<text text-anchor="start" x="183.5" y="-21.8" font-family="Times New Roman,serif" font-weight="bold" font-size="14.00">English</text>
<text text-anchor="start" x="190.5" y="-7.8" font-family="Times New Roman,serif" font-size="14.00" fill="red">finger</text>
</g>
<!-- fingerME&#45;&gt;finger -->
<g id="edge20" class="edge">
<title>fingerME&#45;&gt;finger</title>
<path fill="none" stroke="black" d="M205.74,-100.78C205.87,-88.68 206.02,-73.81 206.15,-60.54"/>
<polygon fill="black" stroke="black" points="209.65,-60.35 206.25,-50.31 202.65,-60.28 209.65,-60.35"/>
</g>
<!-- fystOE -->
<g id="node23" class="node">
<title>fystOE</title>
<text text-anchor="start" x="274" y="-216.8" font-family="Times New Roman,serif" font-weight="bold" font-size="14.00">Old English</text>
<text text-anchor="start" x="299.5" y="-202.8" font-family="Times New Roman,serif" font-size="14.00" fill="red">fȳst</text>
</g>
<!-- funhstizGm&#45;&gt;fystOE -->
<g id="edge22" class="edge">
<title>funhstizGm&#45;&gt;fystOE</title>
<path fill="none" stroke="black" d="M320.5,-274C320.5,-274 317.67,-257.02 315.02,-241.13"/>
<polygon fill="black" stroke="black" points="318.44,-240.32 313.34,-231.03 311.53,-241.47 318.44,-240.32"/>
</g>
<!-- vuistMD -->
<g id="node26" class="node">
<title>vuistMD</title>
<text text-anchor="start" x="381" y="-223.8" font-family="Times New Roman,serif" font-weight="bold" font-size="14.00">Middle</text>
<text text-anchor="start" x="384" y="-209.8" font-family="Times New Roman,serif" font-weight="bold" font-size="14.00">Dutch</text>
<text text-anchor="start" x="389" y="-195.8" font-family="Times New Roman,serif" font-size="14.00" fill="red">vuist</text>
</g>
<!-- funhstizGm&#45;&gt;vuistMD -->
<g id="edge25" class="edge">
<title>funhstizGm&#45;&gt;vuistMD</title>
<path fill="none" stroke="black" d="M320.5,-274C320.5,-274 343.23,-257.37 364.76,-241.62"/>
<polygon fill="black" stroke="black" points="366.89,-244.39 372.9,-235.66 362.76,-238.74 366.89,-244.39"/>
</g>
<!-- fistME -->
<g id="node24" class="node">
<title>fistME</title>
<text text-anchor="start" x="268" y="-136.8" font-family="Times New Roman,serif" font-weight="bold" font-size="14.00">Middle</text>
<text text-anchor="start" x="266.5" y="-122.8" font-family="Times New Roman,serif" font-weight="bold" font-size="14.00">English</text>
<text text-anchor="start" x="280.5" y="-108.8" font-family="Times New Roman,serif" font-size="14.00" fill="red">fist</text>
</g>
<!-- fystOE&#45;&gt;fistME -->
<g id="edge23" class="edge">
<title>fystOE&#45;&gt;fistME</title>
<path fill="none" stroke="black" d="M306.25,-194.8C303.86,-185.12 300.79,-172.69 297.93,-161.12"/>
<polygon fill="black" stroke="black" points="301.29,-160.13 295.49,-151.26 294.49,-161.81 301.29,-160.13"/>
</g>
<!-- fist -->
<g id="node25" class="node">
<title>fist</title>
<text text-anchor="start" x="265" y="-35.8" font-family="Times New Roman,serif" font-weight="bold" font-size="14.00">Modern</text>
<text text-anchor="start" x="266.5" y="-21.8" font-family="Times New Roman,serif" font-weight="bold" font-size="14.00">English</text>
<text text-anchor="start" x="280.5" y="-7.8" font-family="Times New Roman,serif" font-size="14.00" fill="red">fist</text>
</g>
<!-- fistME&#45;&gt;fist -->
<g id="edge24" class="edge">
<title>fistME&#45;&gt;fist</title>
<path fill="none" stroke="black" d="M289.5,-100.78C289.5,-88.68 289.5,-73.81 289.5,-60.54"/>
<polygon fill="black" stroke="black" points="293,-60.31 289.5,-50.31 286,-60.31 293,-60.31"/>
</g>
<!-- vuistenD -->
<g id="node27" class="node">
<title>vuistenD</title>
<text text-anchor="start" x="346.5" y="-135.8" font-family="Times New Roman,serif" font-weight="bold" font-size="14.00">Dutch (dialectical)</text>
<text text-anchor="start" x="382.5" y="-121.8" font-family="Times New Roman,serif" font-size="14.00" fill="red">vuisten</text>
<text text-anchor="start" x="369" y="-109.4" font-family="Times New Roman,serif" font-size="12.00">to take in hand</text>
</g>
<!-- vuistMD&#45;&gt;vuistenD -->
<g id="edge26" class="edge">
<title>vuistMD&#45;&gt;vuistenD</title>
<path fill="none" stroke="black" d="M402.5,-187.87C402.5,-179.24 402.5,-169.36 402.5,-160.1"/>
<polygon fill="black" stroke="black" points="406,-160.02 402.5,-150.02 399,-160.02 406,-160.02"/>
</g>
<!-- foist -->
<g id="node28" class="node">
<title>foist</title>
<text text-anchor="start" x="372" y="-35.8" font-family="Times New Roman,serif" font-weight="bold" font-size="14.00">Modern</text>
<text text-anchor="start" x="373.5" y="-21.8" font-family="Times New Roman,serif" font-weight="bold" font-size="14.00">English</text>
<text text-anchor="start" x="384" y="-7.8" font-family="Times New Roman,serif" font-size="14.00" fill="red">foist</text>
</g>
<!-- vuistenD&#45;&gt;foist -->
<g id="edge27" class="edge">
<title>vuistenD&#45;&gt;foist</title>
<path fill="none" stroke="black" stroke-dasharray="5,2" d="M401.09,-101.79C400.34,-89.4 399.4,-73.92 398.57,-60.18"/>
<polygon fill="black" stroke="black" points="402.06,-59.87 397.96,-50.1 395.07,-60.29 402.06,-59.87"/>
<text text-anchor="middle" x="404" y="-71.8" font-family="Times New Roman,serif" font-size="14.00">?</text>
</g>
<!-- fiftaOE -->
<g id="node30" class="node">
<title>fiftaOE</title>
<text text-anchor="start" x="8" y="-216.8" font-family="Times New Roman,serif" font-weight="bold" font-size="14.00">Old English</text>
<text text-anchor="start" x="32.5" y="-202.8" font-family="Times New Roman,serif" font-size="14.00" fill="red">fīfta</text>
</g>
<!-- fimftonGm&#45;&gt;fiftaOE -->
<g id="edge29" class="edge">
<title>fimftonGm&#45;&gt;fiftaOE</title>
<path fill="none" stroke="black" d="M44.5,-280.6C44.5,-269.26 44.5,-254.23 44.5,-241.32"/>
<polygon fill="black" stroke="black" points="48,-241.1 44.5,-231.1 41,-241.1 48,-241.1"/>
</g>
<!-- fifthME -->
<g id="node31" class="node">
<title>fifthME</title>
<text text-anchor="start" x="21" y="-136.8" font-family="Times New Roman,serif" font-weight="bold" font-size="14.00">Middle</text>
<text text-anchor="start" x="19.5" y="-122.8" font-family="Times New Roman,serif" font-weight="bold" font-size="14.00">English</text>
<text text-anchor="start" x="31" y="-108.8" font-family="Times New Roman,serif" font-size="14.00" fill="red">fifth</text>
</g>
<!-- fiftaOE&#45;&gt;fifthME -->
<g id="edge30" class="edge">
<title>fiftaOE&#45;&gt;fifthME</title>
<path fill="none" stroke="black" d="M44.1,-194.8C43.87,-185.22 43.58,-172.94 43.31,-161.47"/>
<polygon fill="black" stroke="black" points="46.81,-161.18 43.07,-151.26 39.81,-161.34 46.81,-161.18"/>
</g>
<!-- fifth -->
<g id="node32" class="node">
<title>fifth</title>
<text text-anchor="start" x="16" y="-35.8" font-family="Times New Roman,serif" font-weight="bold" font-size="14.00">Modern</text>
<text text-anchor="start" x="17.5" y="-21.8" font-family="Times New Roman,serif" font-weight="bold" font-size="14.00">English</text>
<text text-anchor="start" x="29" y="-7.8" font-family="Times New Roman,serif" font-size="14.00" fill="red">fifth</text>
</g>
<!-- fifthME&#45;&gt;fifth -->
<g id="edge31" class="edge">
<title>fifthME&#45;&gt;fifth</title>
<path fill="none" stroke="black" d="M42.01,-100.78C41.77,-88.68 41.47,-73.81 41.2,-60.54"/>
<polygon fill="black" stroke="black" points="44.69,-60.24 40.99,-50.31 37.69,-60.38 44.69,-60.24"/>
</g>
<!-- quintE -->
<g id="node34" class="node">
<title>quintE</title>
<text text-anchor="start" x="99" y="-35.8" font-family="Times New Roman,serif" font-weight="bold" font-size="14.00">Modern</text>
<text text-anchor="start" x="100.5" y="-21.8" font-family="Times New Roman,serif" font-weight="bold" font-size="14.00">English</text>
<text text-anchor="start" x="107" y="-7.8" font-family="Times New Roman,serif" font-size="14.00" fill="red">quint&#45;</text>
</g>
<!-- quintusL&#45;&gt;quintE -->
<g id="edge33" class="edge">
<title>quintusL&#45;&gt;quintE</title>
<path fill="none" stroke="black" stroke-dasharray="5,2" d="M123.5,-451.75C123.5,-433.63 123.5,-404.31 123.5,-379 123.5,-379 123.5,-379 123.5,-125 123.5,-103.39 123.5,-79.13 123.5,-60.03"/>
<polygon fill="black" stroke="black" points="127,-60.01 123.5,-50.01 120,-60.01 127,-60.01"/>
</g>
</g>
</svg>
