<?xml version="1.0" encoding="UTF-8" standalone="no"?>
<!DOCTYPE svg PUBLIC "-//W3C//DTD SVG 1.1//EN"
 "http://www.w3.org/Graphics/SVG/1.1/DTD/svg11.dtd">
<!-- Generated by graphviz version 2.49.0 (20210828.1703)
 -->
<!-- Pages: 1 -->
<svg width="227pt" height="229pt"
 viewBox="0.00 0.00 227.00 229.00" xmlns="http://www.w3.org/2000/svg" xmlns:xlink="http://www.w3.org/1999/xlink">
<g id="graph0" class="graph" transform="scale(1 1) rotate(0) translate(4 225)">
<polygon fill="white" stroke="transparent" points="-4,4 -4,-225 223,-225 223,4 -4,4"/>
<!-- penkwe -->
<g id="node1" class="node">
<title>penkwe</title>
<g id="a_node1"><a xlink:title="Indo&#45;European &quot;*penk史e&quot; five">
<polygon fill="none" stroke="black" points="215,-217 4,-217 4,-113 215,-113 215,-217"/>
<polygon fill="none" stroke="black" points="219,-221 0,-221 0,-109 219,-109 219,-221"/>
<text text-anchor="start" x="31.5" y="-172.8" font-family="Times New Roman,serif" font-weight="bold" font-size="24.00">Indo&#45;European</text>
<text text-anchor="start" x="47" y="-144.6" font-family="Times New Roman,serif" font-size="18.00" fill="red">*penk史e</text>
<text text-anchor="start" x="147.5" y="-145.2" font-family="Times New Roman,serif" font-size="16.00">five</text>
</a>
</g>
</g>
<!-- link1 -->
<g id="node2" class="node">
<title>link1</title>
<g id="a_node2"><a xlink:href="penkwe-five1.svg" xlink:title="penk史e, basic form">
<path fill="none" stroke="black" stroke-dasharray="5,2" d="M84,-36C84,-36 31,-36 31,-36 25,-36 19,-30 19,-24 19,-24 19,-12 19,-12 19,-6 25,0 31,0 31,0 84,0 84,0 90,0 96,-6 96,-12 96,-12 96,-24 96,-24 96,-30 90,-36 84,-36"/>
<text text-anchor="start" x="27" y="-14.3" font-family="Times New Roman,serif" font-size="14.00">basic form</text>
</a>
</g>
</g>
<!-- penkwe&#45;&gt;link1 -->
<g id="edge1" class="edge">
<title>penkwe&#45;&gt;link1</title>
<path fill="none" stroke="black" d="M109.5,-108C109.5,-108 88,-71.21 72.65,-44.94"/>
<polygon fill="black" stroke="black" points="75.59,-43.03 67.53,-36.16 69.55,-46.56 75.59,-43.03"/>
</g>
<!-- link2 -->
<g id="node3" class="node">
<title>link2</title>
<g id="a_node3"><a xlink:href="penkwe-five2.svg" xlink:title="penk史e, derived forms">
<path fill="none" stroke="black" stroke-dasharray="5,2" d="M197,-36C197,-36 126,-36 126,-36 120,-36 114,-30 114,-24 114,-24 114,-12 114,-12 114,-6 120,0 126,0 126,0 197,0 197,0 203,0 209,-6 209,-12 209,-12 209,-24 209,-24 209,-30 203,-36 197,-36"/>
<text text-anchor="start" x="122" y="-14.3" font-family="Times New Roman,serif" font-size="14.00">derived forms</text>
</a>
</g>
</g>
<!-- penkwe&#45;&gt;link2 -->
<g id="edge2" class="edge">
<title>penkwe&#45;&gt;link2</title>
<path fill="none" stroke="black" d="M109.5,-108C109.5,-108 131,-71.21 146.35,-44.94"/>
<polygon fill="black" stroke="black" points="149.45,-46.56 151.47,-36.16 143.41,-43.03 149.45,-46.56"/>
</g>
</g>
</svg>
