<?xml version="1.0" encoding="UTF-8" standalone="no"?>
<!DOCTYPE svg PUBLIC "-//W3C//DTD SVG 1.1//EN"
 "http://www.w3.org/Graphics/SVG/1.1/DTD/svg11.dtd">
<!-- Generated by graphviz version 2.49.0 (20210828.1703)
 -->
<!-- Pages: 1 -->
<svg width="1114pt" height="655pt"
 viewBox="0.00 0.00 1114.00 655.00" xmlns="http://www.w3.org/2000/svg" xmlns:xlink="http://www.w3.org/1999/xlink">
<g id="graph0" class="graph" transform="scale(1 1) rotate(0) translate(4 651)">
<polygon fill="white" stroke="transparent" points="-4,4 -4,-651 1110,-651 1110,4 -4,4"/>
<!-- penkwe -->
<g id="node1" class="node">
<title>penkwe</title>
<g id="a_node1"><a xlink:href="penkwe-five0.svg" xlink:title="Indo&#45;European &quot;penkʷe&quot; five">
<path fill="none" stroke="black" stroke-dasharray="5,2" d="M618.5,-641C618.5,-641 469.5,-641 469.5,-641 463.5,-641 457.5,-635 457.5,-629 457.5,-629 457.5,-603 457.5,-603 457.5,-597 463.5,-591 469.5,-591 469.5,-591 618.5,-591 618.5,-591 624.5,-591 630.5,-597 630.5,-603 630.5,-603 630.5,-629 630.5,-629 630.5,-635 624.5,-641 618.5,-641"/>
<text text-anchor="start" x="465.5" y="-618.8" font-family="Times New Roman,serif" font-weight="bold" font-size="24.00">Indo&#45;European</text>
<text text-anchor="start" x="503.5" y="-599.6" font-family="Times New Roman,serif" font-size="18.00" fill="red">penkʷe </text>
<text text-anchor="start" x="559.5" y="-599.6" font-family="Times New Roman,serif" font-size="16.00">five</text>
</a>
</g>
</g>
<!-- pempe -->
<g id="node2" class="node">
<title>pempe</title>
<text text-anchor="start" x="337" y="-527.3" font-family="Times New Roman,serif" font-size="14.00" fill="red">pempe</text>
</g>
<!-- penkwe&#45;&gt;pempe -->
<g id="edge1" class="edge">
<title>penkwe&#45;&gt;pempe</title>
<path fill="none" stroke="black" d="M545,-590C545,-590 447.81,-560.18 392.82,-543.3"/>
<polygon fill="black" stroke="black" points="393.67,-539.9 383.08,-540.31 391.61,-546.59 393.67,-539.9"/>
</g>
<!-- kwenkwe -->
<g id="node3" class="node">
<title>kwenkwe</title>
<text text-anchor="start" x="702.5" y="-527.3" font-family="Times New Roman,serif" font-size="14.00" fill="red">kʷenkʷe</text>
</g>
<!-- penkwe&#45;&gt;kwenkwe -->
<g id="edge2" class="edge">
<title>penkwe&#45;&gt;kwenkwe</title>
<path fill="none" stroke="black" d="M545,-590C545,-590 631.59,-562.1 684.66,-545"/>
<polygon fill="black" stroke="black" points="686.02,-548.24 694.47,-541.84 683.87,-541.57 686.02,-548.24"/>
</g>
<!-- penteG -->
<g id="node35" class="node">
<title>penteG</title>
<text text-anchor="start" x="491" y="-450.8" font-family="Times New Roman,serif" font-weight="bold" font-size="14.00">Greek</text>
<text text-anchor="start" x="495.5" y="-436.8" font-family="Times New Roman,serif" font-size="14.00" fill="red">pente</text>
</g>
<!-- penkwe&#45;&gt;penteG -->
<g id="edge35" class="edge">
<title>penkwe&#45;&gt;penteG</title>
<path fill="none" stroke="black" d="M545,-590C545,-590 527.35,-516.29 517.48,-475.08"/>
<polygon fill="black" stroke="black" points="520.83,-474.04 515.1,-465.13 514.03,-475.67 520.83,-474.04"/>
</g>
<!-- pancaII -->
<g id="node37" class="node">
<title>pancaII</title>
<text text-anchor="start" x="566" y="-450.8" font-family="Times New Roman,serif" font-weight="bold" font-size="14.00">Indo&#45;Iranian</text>
<text text-anchor="start" x="588" y="-436.8" font-family="Times New Roman,serif" font-size="14.00" fill="red">panca</text>
</g>
<!-- penkwe&#45;&gt;pancaII -->
<g id="edge37" class="edge">
<title>penkwe&#45;&gt;pancaII</title>
<path fill="none" stroke="black" d="M545,-590C545,-590 576.41,-515.66 593.78,-474.56"/>
<polygon fill="black" stroke="black" points="597.09,-475.7 597.76,-465.13 590.65,-472.98 597.09,-475.7"/>
</g>
<!-- fimfGm -->
<g id="node7" class="node">
<title>fimfGm</title>
<text text-anchor="start" x="273.5" y="-450.8" font-family="Times New Roman,serif" font-weight="bold" font-size="14.00">Germanic</text>
<text text-anchor="start" x="292.5" y="-436.8" font-family="Times New Roman,serif" font-size="14.00" fill="red">fimf</text>
</g>
<!-- pempe&#45;&gt;fimfGm -->
<g id="edge5" class="edge">
<title>pempe&#45;&gt;fimfGm</title>
<path fill="none" stroke="black" d="M344.97,-512.61C337.82,-501.34 328.38,-486.45 320.37,-473.81"/>
<polygon fill="black" stroke="black" points="323.14,-471.65 314.83,-465.08 317.23,-475.4 323.14,-471.65"/>
</g>
<!-- quinqueL -->
<g id="node24" class="node">
<title>quinqueL</title>
<text text-anchor="start" x="816.5" y="-450.8" font-family="Times New Roman,serif" font-weight="bold" font-size="14.00">Latin</text>
<text text-anchor="start" x="810" y="-436.8" font-family="Times New Roman,serif" font-size="14.00" fill="red">quīnque</text>
</g>
<!-- kwenkwe&#45;&gt;quinqueL -->
<g id="edge24" class="edge">
<title>kwenkwe&#45;&gt;quinqueL</title>
<path fill="none" stroke="black" d="M747.64,-512.81C763.48,-500.78 784.83,-484.57 802.22,-471.37"/>
<polygon fill="black" stroke="black" points="804.54,-474 810.39,-465.17 800.31,-468.43 804.54,-474"/>
</g>
<!-- dekmIE -->
<g id="node4" class="node">
<title>dekmIE</title>
<g id="a_node4"><a xlink:href="dekm-ten.svg" xlink:title="&lt;b&gt;Indo&#45;&lt;br/&gt;European&lt;/b&gt;&lt;br/&gt;&lt;font color=&quot;red&quot;&gt;dekm̥&lt;/font&gt;&lt;br/&gt;&lt;font point&#45;size=&quot;12&quot;&gt;ten&lt;/font&gt;">
<path fill="none" stroke="black" stroke-dasharray="5,2" d="M137.5,-647C137.5,-647 84.5,-647 84.5,-647 78.5,-647 72.5,-641 72.5,-635 72.5,-635 72.5,-597 72.5,-597 72.5,-591 78.5,-585 84.5,-585 84.5,-585 137.5,-585 137.5,-585 143.5,-585 149.5,-591 149.5,-597 149.5,-597 149.5,-635 149.5,-635 149.5,-641 143.5,-647 137.5,-647"/>
<text text-anchor="start" x="94.5" y="-632.8" font-family="Times New Roman,serif" font-weight="bold" font-size="14.00">Indo&#45;</text>
<text text-anchor="start" x="80.5" y="-618.8" font-family="Times New Roman,serif" font-weight="bold" font-size="14.00">European</text>
<text text-anchor="start" x="95.5" y="-604.8" font-family="Times New Roman,serif" font-size="14.00" fill="red">dekm̥</text>
<text text-anchor="start" x="104" y="-592.4" font-family="Times New Roman,serif" font-size="12.00">ten</text>
</a>
</g>
</g>
<!-- tehunGm -->
<g id="node5" class="node">
<title>tehunGm</title>
<text text-anchor="start" x="80.5" y="-450.8" font-family="Times New Roman,serif" font-weight="bold" font-size="14.00">Germanic</text>
<text text-anchor="start" x="95.5" y="-436.8" font-family="Times New Roman,serif" font-size="14.00" fill="red">tehun</text>
</g>
<!-- dekmIE&#45;&gt;tehunGm -->
<g id="edge3" class="edge">
<title>dekmIE&#45;&gt;tehunGm</title>
<path fill="none" stroke="black" d="M111,-584.76C111,-553.62 111,-505.51 111,-475.44"/>
<polygon fill="black" stroke="black" points="114.5,-475.24 111,-465.24 107.5,-475.24 114.5,-475.24"/>
</g>
<!-- teneOE -->
<g id="node6" class="node">
<title>teneOE</title>
<text text-anchor="start" x="19.5" y="-359.8" font-family="Times New Roman,serif" font-weight="bold" font-size="14.00">Old English</text>
<text text-anchor="start" x="8" y="-345.8" font-family="Times New Roman,serif" font-size="14.00" fill="red">&#45;tēne, &#45;tīne, &#45;tȳne</text>
</g>
<!-- tehunGm&#45;&gt;teneOE -->
<g id="edge4" class="edge">
<title>tehunGm&#45;&gt;teneOE</title>
<path fill="none" stroke="black" d="M111,-428C111,-428 91.37,-402.66 75.57,-382.26"/>
<polygon fill="black" stroke="black" points="78.2,-379.95 69.31,-374.19 72.67,-384.24 78.2,-379.95"/>
</g>
<!-- fimftehunGm -->
<g id="node17" class="node">
<title>fimftehunGm</title>
<text text-anchor="start" x="138.5" y="-358.8" font-family="Times New Roman,serif" font-size="14.00" fill="red">fimftehun</text>
<text text-anchor="start" x="151" y="-346.4" font-family="Times New Roman,serif" font-size="12.00">fifteen</text>
</g>
<!-- tehunGm&#45;&gt;fimftehunGm -->
<g id="edge17" class="edge">
<title>tehunGm&#45;&gt;fimftehunGm</title>
<path fill="none" stroke="black" d="M111,-428C111,-428 145.7,-396.3 161.42,-381.93"/>
<polygon fill="black" stroke="black" points="163.98,-384.33 169,-375 159.26,-379.16 163.98,-384.33"/>
</g>
<!-- fifteneOE -->
<g id="node14" class="node">
<title>fifteneOE</title>
<text text-anchor="start" x="149.5" y="-273.8" font-family="Times New Roman,serif" font-size="14.00" fill="red">fīftēne</text>
<text text-anchor="start" x="154" y="-261.4" font-family="Times New Roman,serif" font-size="12.00">fifteen</text>
</g>
<!-- teneOE&#45;&gt;fifteneOE -->
<g id="edge15" class="edge">
<title>teneOE&#45;&gt;fifteneOE</title>
<path fill="none" stroke="black" d="M85.95,-337.92C111.02,-323.63 145.18,-304.15 161.12,-295.06"/>
<polygon fill="black" stroke="black" points="163.05,-297.99 170,-290 159.58,-291.91 163.05,-297.99"/>
</g>
<!-- fifOE -->
<g id="node8" class="node">
<title>fifOE</title>
<text text-anchor="start" x="316.5" y="-359.8" font-family="Times New Roman,serif" font-weight="bold" font-size="14.00">Old English</text>
<text text-anchor="start" x="346" y="-345.8" font-family="Times New Roman,serif" font-size="14.00" fill="red">fīf</text>
</g>
<!-- fimfGm&#45;&gt;fifOE -->
<g id="edge6" class="edge">
<title>fimfGm&#45;&gt;fifOE</title>
<path fill="none" stroke="black" d="M297,-428C297,-428 316.98,-402.66 333.08,-382.26"/>
<polygon fill="black" stroke="black" points="336,-384.21 339.44,-374.19 330.5,-379.87 336,-384.21"/>
</g>
<!-- fimfGm&#45;&gt;fimftehunGm -->
<g id="edge16" class="edge">
<title>fimfGm&#45;&gt;fimftehunGm</title>
<path fill="none" stroke="black" d="M297,-428C297,-428 208.39,-391.31 178.62,-378.98"/>
<polygon fill="black" stroke="black" points="179.58,-375.59 169,-375 176.9,-382.06 179.58,-375.59"/>
</g>
<!-- funfOHG -->
<g id="node21" class="node">
<title>funfOHG</title>
<text text-anchor="start" x="226" y="-366.8" font-family="Times New Roman,serif" font-weight="bold" font-size="14.00">Old High</text>
<text text-anchor="start" x="228.5" y="-352.8" font-family="Times New Roman,serif" font-weight="bold" font-size="14.00">German</text>
<text text-anchor="start" x="229.5" y="-338.8" font-family="Times New Roman,serif" font-size="14.00" fill="red">funf, finf</text>
</g>
<!-- fimfGm&#45;&gt;funfOHG -->
<g id="edge21" class="edge">
<title>fimfGm&#45;&gt;funfOHG</title>
<path fill="none" stroke="black" d="M297,-428C297,-428 285.1,-408.35 273.82,-389.73"/>
<polygon fill="black" stroke="black" points="276.73,-387.78 268.56,-381.04 270.74,-391.4 276.73,-387.78"/>
</g>
<!-- fyfME -->
<g id="node9" class="node">
<title>fyfME</title>
<text text-anchor="start" x="404.5" y="-196.8" font-family="Times New Roman,serif" font-weight="bold" font-size="14.00">Middle</text>
<text text-anchor="start" x="403" y="-182.8" font-family="Times New Roman,serif" font-weight="bold" font-size="14.00">English</text>
<text text-anchor="start" x="404" y="-168.8" font-family="Times New Roman,serif" font-size="14.00" fill="red">fyf, five</text>
</g>
<!-- fifOE&#45;&gt;fyfME -->
<g id="edge7" class="edge">
<title>fifOE&#45;&gt;fyfME</title>
<path fill="none" stroke="black" d="M349,-337C349,-337 372.45,-316.14 385,-295 398.85,-271.67 409.51,-242.84 416.49,-220.83"/>
<polygon fill="black" stroke="black" points="419.84,-221.84 419.43,-211.25 413.15,-219.78 419.84,-221.84"/>
</g>
<!-- fiftigOE -->
<g id="node11" class="node">
<title>fiftigOE</title>
<text text-anchor="start" x="335" y="-273.8" font-family="Times New Roman,serif" font-size="14.00" fill="red">fīftig</text>
<text text-anchor="start" x="340.5" y="-261.4" font-family="Times New Roman,serif" font-size="12.00">fifty</text>
</g>
<!-- fifOE&#45;&gt;fiftigOE -->
<g id="edge9" class="edge">
<title>fifOE&#45;&gt;fiftigOE</title>
<path fill="none" stroke="black" d="M349,-337C349,-337 349,-316.97 349,-299.15"/>
<polygon fill="black" stroke="black" points="352.5,-299.08 349,-289.08 345.5,-299.08 352.5,-299.08"/>
</g>
<!-- fifOE&#45;&gt;fifteneOE -->
<g id="edge12" class="edge">
<title>fifOE&#45;&gt;fifteneOE</title>
<path fill="none" stroke="black" d="M349,-337C349,-337 217.4,-302.45 179.88,-292.59"/>
<polygon fill="black" stroke="black" points="180.56,-289.15 170,-290 178.78,-295.92 180.56,-289.15"/>
</g>
<!-- five -->
<g id="node10" class="node">
<title>five</title>
<text text-anchor="start" x="402.5" y="-73.3" font-family="Times New Roman,serif" font-weight="bold" font-size="14.00">Modern</text>
<text text-anchor="start" x="404" y="-59.3" font-family="Times New Roman,serif" font-weight="bold" font-size="14.00">English</text>
<text text-anchor="start" x="416.5" y="-45.3" font-family="Times New Roman,serif" font-size="14.00" fill="red">five</text>
</g>
<!-- fyfME&#45;&gt;five -->
<g id="edge8" class="edge">
<title>fyfME&#45;&gt;five</title>
<path fill="none" stroke="black" d="M426.2,-161C426.35,-142.97 426.55,-118.04 426.72,-97.9"/>
<polygon fill="black" stroke="black" points="430.22,-97.9 426.8,-87.87 423.22,-97.84 430.22,-97.9"/>
</g>
<!-- fiftiME -->
<g id="node12" class="node">
<title>fiftiME</title>
<text text-anchor="start" x="323.5" y="-196.8" font-family="Times New Roman,serif" font-weight="bold" font-size="14.00">Middle</text>
<text text-anchor="start" x="322" y="-182.8" font-family="Times New Roman,serif" font-weight="bold" font-size="14.00">English</text>
<text text-anchor="start" x="335.5" y="-168.8" font-family="Times New Roman,serif" font-size="14.00" fill="red">fifti</text>
</g>
<!-- fiftigOE&#45;&gt;fiftiME -->
<g id="edge10" class="edge">
<title>fiftigOE&#45;&gt;fiftiME</title>
<path fill="none" stroke="black" d="M348.17,-252.8C347.73,-243.66 347.17,-232.09 346.65,-221.22"/>
<polygon fill="black" stroke="black" points="350.14,-220.92 346.16,-211.1 343.15,-221.26 350.14,-220.92"/>
</g>
<!-- fifty -->
<g id="node13" class="node">
<title>fifty</title>
<text text-anchor="start" x="319.5" y="-73.3" font-family="Times New Roman,serif" font-weight="bold" font-size="14.00">Modern</text>
<text text-anchor="start" x="321" y="-59.3" font-family="Times New Roman,serif" font-weight="bold" font-size="14.00">English</text>
<text text-anchor="start" x="332.5" y="-45.3" font-family="Times New Roman,serif" font-size="14.00" fill="red">fifty</text>
</g>
<!-- fiftiME&#45;&gt;fifty -->
<g id="edge11" class="edge">
<title>fiftiME&#45;&gt;fifty</title>
<path fill="none" stroke="black" d="M344.8,-161C344.65,-142.97 344.45,-118.04 344.28,-97.9"/>
<polygon fill="black" stroke="black" points="347.78,-97.84 344.2,-87.87 340.78,-97.9 347.78,-97.84"/>
</g>
<!-- fifteneME -->
<g id="node15" class="node">
<title>fifteneME</title>
<text text-anchor="start" x="146.5" y="-196.8" font-family="Times New Roman,serif" font-weight="bold" font-size="14.00">Middle</text>
<text text-anchor="start" x="145" y="-182.8" font-family="Times New Roman,serif" font-weight="bold" font-size="14.00">English</text>
<text text-anchor="start" x="150.5" y="-168.8" font-family="Times New Roman,serif" font-size="14.00" fill="red">fiftene</text>
</g>
<!-- fifteneOE&#45;&gt;fifteneME -->
<g id="edge13" class="edge">
<title>fifteneOE&#45;&gt;fifteneME</title>
<path fill="none" stroke="black" d="M168,-252.8C168,-243.66 168,-232.09 168,-221.22"/>
<polygon fill="black" stroke="black" points="171.5,-221.1 168,-211.1 164.5,-221.1 171.5,-221.1"/>
</g>
<!-- fifteen -->
<g id="node16" class="node">
<title>fifteen</title>
<text text-anchor="start" x="139.5" y="-73.3" font-family="Times New Roman,serif" font-weight="bold" font-size="14.00">Modern</text>
<text text-anchor="start" x="141" y="-59.3" font-family="Times New Roman,serif" font-weight="bold" font-size="14.00">English</text>
<text text-anchor="start" x="146.5" y="-45.3" font-family="Times New Roman,serif" font-size="14.00" fill="red">fifteen</text>
</g>
<!-- fifteneME&#45;&gt;fifteen -->
<g id="edge14" class="edge">
<title>fifteneME&#45;&gt;fifteen</title>
<path fill="none" stroke="black" d="M167.21,-161C166.62,-142.97 165.8,-118.04 165.13,-97.9"/>
<polygon fill="black" stroke="black" points="168.63,-97.75 164.8,-87.87 161.63,-97.98 168.63,-97.75"/>
</g>
<!-- fimmtanON -->
<g id="node18" class="node">
<title>fimmtanON</title>
<text text-anchor="start" x="48" y="-280.8" font-family="Times New Roman,serif" font-weight="bold" font-size="14.00">Old Norse</text>
<text text-anchor="start" x="57" y="-266.8" font-family="Times New Roman,serif" font-size="14.00" fill="red">fimmtān</text>
<text text-anchor="start" x="66" y="-254.4" font-family="Times New Roman,serif" font-size="12.00">fifteen</text>
</g>
<!-- fimftehunGm&#45;&gt;fimmtanON -->
<g id="edge18" class="edge">
<title>fimftehunGm&#45;&gt;fimmtanON</title>
<path fill="none" stroke="black" d="M147.39,-337.8C136.92,-327.58 123.34,-314.32 111.11,-302.38"/>
<polygon fill="black" stroke="black" points="113.32,-299.64 103.72,-295.16 108.43,-304.65 113.32,-299.64"/>
</g>
<!-- femto -->
<g id="node19" class="node">
<title>femto</title>
<text text-anchor="start" x="53.5" y="-196.8" font-family="Times New Roman,serif" font-weight="bold" font-size="14.00">Danish,</text>
<text text-anchor="start" x="43" y="-182.8" font-family="Times New Roman,serif" font-weight="bold" font-size="14.00">Norwegian</text>
<text text-anchor="start" x="60.5" y="-168.8" font-family="Times New Roman,serif" font-size="14.00" fill="red">femto</text>
</g>
<!-- fimmtanON&#45;&gt;femto -->
<g id="edge19" class="edge">
<title>fimmtanON&#45;&gt;femto</title>
<path fill="none" stroke="black" d="M79.16,-246.88C78.88,-238.97 78.55,-229.94 78.24,-221.34"/>
<polygon fill="black" stroke="black" points="81.73,-221.02 77.87,-211.15 74.74,-221.27 81.73,-221.02"/>
</g>
<!-- femtoE -->
<g id="node20" class="node">
<title>femtoE</title>
<text text-anchor="start" x="52.5" y="-73.3" font-family="Times New Roman,serif" font-weight="bold" font-size="14.00">Modern</text>
<text text-anchor="start" x="54" y="-59.3" font-family="Times New Roman,serif" font-weight="bold" font-size="14.00">English</text>
<text text-anchor="start" x="58.5" y="-45.3" font-family="Times New Roman,serif" font-size="14.00" fill="red">femto&#45;</text>
</g>
<!-- femto&#45;&gt;femtoE -->
<g id="edge20" class="edge">
<title>femto&#45;&gt;femtoE</title>
<path fill="none" stroke="black" stroke-dasharray="5,2" d="M77,-161C77,-142.97 77,-118.04 77,-97.9"/>
<polygon fill="black" stroke="black" points="80.5,-97.87 77,-87.87 73.5,-97.87 80.5,-97.87"/>
</g>
<!-- finfY -->
<g id="node22" class="node">
<title>finfY</title>
<text text-anchor="start" x="231" y="-189.8" font-family="Times New Roman,serif" font-weight="bold" font-size="14.00">Yiddish</text>
<text text-anchor="start" x="244.5" y="-175.8" font-family="Times New Roman,serif" font-size="14.00" fill="red">finf</text>
</g>
<!-- funfOHG&#45;&gt;finfY -->
<g id="edge22" class="edge">
<title>funfOHG&#45;&gt;finfY</title>
<path fill="none" stroke="black" d="M254,-330.93C254,-300.12 254,-246.86 254,-214.48"/>
<polygon fill="black" stroke="black" points="257.5,-214.37 254,-204.37 250.5,-214.37 257.5,-214.37"/>
</g>
<!-- fin -->
<g id="node23" class="node">
<title>fin</title>
<text text-anchor="start" x="229.5" y="-79.3" font-family="Times New Roman,serif" font-weight="bold" font-size="14.00">Modern</text>
<text text-anchor="start" x="231" y="-65.3" font-family="Times New Roman,serif" font-weight="bold" font-size="14.00">English</text>
<text text-anchor="start" x="246.5" y="-51.3" font-family="Times New Roman,serif" font-size="14.00" fill="red">fin</text>
<text text-anchor="start" x="223" y="-38.9" font-family="Times New Roman,serif" font-size="12.00">five&#45;dollar bill</text>
</g>
<!-- finfY&#45;&gt;fin -->
<g id="edge23" class="edge">
<title>finfY&#45;&gt;fin</title>
<path fill="none" stroke="black" stroke-dasharray="5,2" d="M254,-167.85C254,-151.32 254,-125.7 254,-103.98"/>
<polygon fill="black" stroke="black" points="257.5,-103.68 254,-93.68 250.5,-103.68 257.5,-103.68"/>
</g>
<!-- quinqueE -->
<g id="node25" class="node">
<title>quinqueE</title>
<text text-anchor="start" x="932.5" y="-73.3" font-family="Times New Roman,serif" font-weight="bold" font-size="14.00">Modern</text>
<text text-anchor="start" x="934" y="-59.3" font-family="Times New Roman,serif" font-weight="bold" font-size="14.00">English</text>
<text text-anchor="start" x="932.5" y="-45.3" font-family="Times New Roman,serif" font-size="14.00" fill="red">quinque&#45;</text>
</g>
<!-- quinqueL&#45;&gt;quinqueE -->
<g id="edge25" class="edge">
<title>quinqueL&#45;&gt;quinqueE</title>
<path fill="none" stroke="black" stroke-dasharray="5,2" d="M841,-428C841,-428 885.2,-357.28 907,-295 930.82,-226.95 945.46,-143.52 952.33,-97.7"/>
<polygon fill="black" stroke="black" points="955.81,-98.1 953.79,-87.7 948.88,-97.09 955.81,-98.1"/>
</g>
<!-- quincunxL -->
<g id="node29" class="node">
<title>quincunxL</title>
<text text-anchor="start" x="1030.5" y="-365.8" font-family="Times New Roman,serif" font-size="14.00" fill="red">quīncūnx</text>
<text text-anchor="start" x="1028" y="-351.8" font-family="Times New Roman,serif" font-size="14.00" fill="red">quīncūnc&#45;</text>
<text text-anchor="start" x="1030" y="-339.4" font-family="Times New Roman,serif" font-size="12.00">five twelfths</text>
</g>
<!-- quinqueL&#45;&gt;quincunxL -->
<g id="edge29" class="edge">
<title>quinqueL&#45;&gt;quincunxL</title>
<path fill="none" stroke="black" d="M841,-428C841,-428 990.73,-392.81 1031.08,-383.33"/>
<polygon fill="black" stroke="black" points="1032.07,-386.69 1041,-381 1030.46,-379.88 1032.07,-386.69"/>
</g>
<!-- quiniL -->
<g id="node31" class="node">
<title>quiniL</title>
<text text-anchor="start" x="769.5" y="-273.8" font-family="Times New Roman,serif" font-size="14.00" fill="red">quīnī</text>
<text text-anchor="start" x="765" y="-261.4" font-family="Times New Roman,serif" font-size="12.00">five each</text>
</g>
<!-- quinqueL&#45;&gt;quiniL -->
<g id="edge31" class="edge">
<title>quinqueL&#45;&gt;quiniL</title>
<path fill="none" stroke="black" d="M841,-428C841,-428 810.69,-343.57 794.67,-298.94"/>
<polygon fill="black" stroke="black" points="797.88,-297.52 791.21,-289.29 791.29,-299.89 797.88,-297.52"/>
</g>
<!-- oinoIE -->
<g id="node26" class="node">
<title>oinoIE</title>
<g id="a_node26"><a xlink:href="oino-one.svg" xlink:title="&lt;b&gt;Indo&#45;&lt;br/&gt;European&lt;/b&gt;&lt;br/&gt;&lt;font color=&quot;red&quot;&gt;oi&#45;no&#45;&lt;/font&gt;&lt;br/&gt;&lt;font point&#45;size=&quot;12&quot;&gt;one&lt;/font&gt;">
<path fill="none" stroke="black" stroke-dasharray="5,2" d="M1084.5,-647C1084.5,-647 1031.5,-647 1031.5,-647 1025.5,-647 1019.5,-641 1019.5,-635 1019.5,-635 1019.5,-597 1019.5,-597 1019.5,-591 1025.5,-585 1031.5,-585 1031.5,-585 1084.5,-585 1084.5,-585 1090.5,-585 1096.5,-591 1096.5,-597 1096.5,-597 1096.5,-635 1096.5,-635 1096.5,-641 1090.5,-647 1084.5,-647"/>
<text text-anchor="start" x="1041.5" y="-632.8" font-family="Times New Roman,serif" font-weight="bold" font-size="14.00">Indo&#45;</text>
<text text-anchor="start" x="1027.5" y="-618.8" font-family="Times New Roman,serif" font-weight="bold" font-size="14.00">European</text>
<text text-anchor="start" x="1041" y="-604.8" font-family="Times New Roman,serif" font-size="14.00" fill="red">oi&#45;no&#45;</text>
<text text-anchor="start" x="1049.5" y="-592.4" font-family="Times New Roman,serif" font-size="12.00">one</text>
</a>
</g>
</g>
<!-- oinoko -->
<g id="node27" class="node">
<title>oinoko</title>
<text text-anchor="start" x="1032.5" y="-527.3" font-family="Times New Roman,serif" font-size="14.00" fill="red">oino&#45;ko&#45;</text>
</g>
<!-- oinoIE&#45;&gt;oinoko -->
<g id="edge26" class="edge">
<title>oinoIE&#45;&gt;oinoko</title>
<path fill="none" stroke="black" d="M1057.63,-584.57C1057.53,-576.33 1057.43,-567.47 1057.33,-559.41"/>
<polygon fill="black" stroke="black" points="1060.83,-559.36 1057.21,-549.4 1053.83,-559.44 1060.83,-559.36"/>
</g>
<!-- unciaL -->
<g id="node28" class="node">
<title>unciaL</title>
<text text-anchor="start" x="1040.5" y="-462.8" font-family="Times New Roman,serif" font-weight="bold" font-size="14.00">Latin</text>
<text text-anchor="start" x="1042" y="-448.8" font-family="Times New Roman,serif" font-size="14.00" fill="red">ūncia</text>
<text text-anchor="start" x="1031" y="-436.4" font-family="Times New Roman,serif" font-size="12.00">one&#45;twelfth</text>
<text text-anchor="start" x="1038.5" y="-424.4" font-family="Times New Roman,serif" font-size="12.00">of a unit</text>
</g>
<!-- oinoko&#45;&gt;unciaL -->
<g id="edge27" class="edge">
<title>oinoko&#45;&gt;unciaL</title>
<path fill="none" stroke="black" d="M1057,-512.61C1057,-505.24 1057,-496.33 1057,-487.52"/>
<polygon fill="black" stroke="black" points="1060.5,-487.31 1057,-477.31 1053.5,-487.31 1060.5,-487.31"/>
</g>
<!-- unciaL&#45;&gt;quincunxL -->
<g id="edge28" class="edge">
<title>unciaL&#45;&gt;quincunxL</title>
<path fill="none" stroke="black" d="M1049.84,-416.92C1047.55,-407.59 1045.16,-397.88 1043.44,-390.91"/>
<polygon fill="black" stroke="black" points="1046.79,-389.87 1041,-381 1039.99,-391.55 1046.79,-389.87"/>
</g>
<!-- quincunx -->
<g id="node30" class="node">
<title>quincunx</title>
<text text-anchor="start" x="1032.5" y="-106.3" font-family="Times New Roman,serif" font-weight="bold" font-size="14.00">Modern</text>
<text text-anchor="start" x="1034" y="-92.3" font-family="Times New Roman,serif" font-weight="bold" font-size="14.00">English</text>
<text text-anchor="start" x="1031" y="-78.3" font-family="Times New Roman,serif" font-size="14.00" fill="red">quincunx</text>
<text text-anchor="start" x="1020" y="-65.9" font-family="Times New Roman,serif" font-size="12.00">this arrangement</text>
<text text-anchor="start" x="1023.5" y="-53.9" font-family="Times New Roman,serif" font-size="12.00">of five objects:</text>
<image xlink:href="quincunx.png" width="50px" height="37px" preserveAspectRatio="xMinYMin meet" x="1032" y="-44.5"/>
</g>
<!-- quincunxL&#45;&gt;quincunx -->
<g id="edge30" class="edge">
<title>quincunxL&#45;&gt;quincunx</title>
<path fill="none" stroke="black" stroke-dasharray="5,2" d="M1057,-331.64C1057,-289.51 1057,-199.24 1057,-135.1"/>
<polygon fill="black" stroke="black" points="1060.5,-135.04 1057,-125.04 1053.5,-135.04 1060.5,-135.04"/>
</g>
<!-- quineF -->
<g id="node32" class="node">
<title>quineF</title>
<text text-anchor="start" x="763" y="-189.8" font-family="Times New Roman,serif" font-weight="bold" font-size="14.00">French</text>
<text text-anchor="start" x="769.5" y="-175.8" font-family="Times New Roman,serif" font-size="14.00" fill="red">quine</text>
</g>
<!-- quiniL&#45;&gt;quineF -->
<g id="edge32" class="edge">
<title>quiniL&#45;&gt;quineF</title>
<path fill="none" stroke="black" d="M782,-252C782,-252 782.92,-231.97 783.75,-214.15"/>
<polygon fill="black" stroke="black" points="787.25,-214.23 784.21,-204.08 780.25,-213.91 787.25,-214.23"/>
</g>
<!-- quinate -->
<g id="node34" class="node">
<title>quinate</title>
<text text-anchor="start" x="677.5" y="-73.3" font-family="Times New Roman,serif" font-weight="bold" font-size="14.00">Modern</text>
<text text-anchor="start" x="679" y="-59.3" font-family="Times New Roman,serif" font-weight="bold" font-size="14.00">English</text>
<text text-anchor="start" x="682" y="-45.3" font-family="Times New Roman,serif" font-size="14.00" fill="red">quinate</text>
</g>
<!-- quiniL&#45;&gt;quinate -->
<g id="edge34" class="edge">
<title>quiniL&#45;&gt;quinate</title>
<path fill="none" stroke="black" stroke-dasharray="5,2" d="M782,-252C782,-252 757.74,-232.22 746,-211 726.01,-174.86 714.12,-128.61 707.84,-97.62"/>
<polygon fill="black" stroke="black" points="711.26,-96.88 705.92,-87.73 704.39,-98.21 711.26,-96.88"/>
</g>
<!-- keno -->
<g id="node33" class="node">
<title>keno</title>
<text text-anchor="start" x="760.5" y="-73.3" font-family="Times New Roman,serif" font-weight="bold" font-size="14.00">Modern</text>
<text text-anchor="start" x="762" y="-59.3" font-family="Times New Roman,serif" font-weight="bold" font-size="14.00">English</text>
<text text-anchor="start" x="771" y="-45.3" font-family="Times New Roman,serif" font-size="14.00" fill="red">keno</text>
</g>
<!-- quineF&#45;&gt;keno -->
<g id="edge33" class="edge">
<title>quineF&#45;&gt;keno</title>
<path fill="none" stroke="black" stroke-dasharray="5,2" d="M785,-167.85C785,-149.7 785,-120.57 785,-97.69"/>
<polygon fill="black" stroke="black" points="788.5,-97.69 785,-87.69 781.5,-97.69 788.5,-97.69"/>
</g>
<!-- pentaE -->
<g id="node36" class="node">
<title>pentaE</title>
<text text-anchor="start" x="485.5" y="-80.3" font-family="Times New Roman,serif" font-weight="bold" font-size="14.00">Modern</text>
<text text-anchor="start" x="487" y="-66.3" font-family="Times New Roman,serif" font-weight="bold" font-size="14.00">English</text>
<text text-anchor="start" x="492.5" y="-52.3" font-family="Times New Roman,serif" font-size="14.00" fill="red">penta&#45;</text>
<text text-anchor="start" x="495.5" y="-38.3" font-family="Times New Roman,serif" font-size="14.00" fill="red">pent&#45;</text>
</g>
<!-- penteG&#45;&gt;pentaE -->
<g id="edge36" class="edge">
<title>penteG&#45;&gt;pentaE</title>
<path fill="none" stroke="black" stroke-dasharray="5,2" d="M510.96,-428.82C510.81,-371.81 510.32,-187.75 510.11,-104.76"/>
<polygon fill="black" stroke="black" points="513.61,-104.68 510.08,-94.69 506.61,-104.7 513.61,-104.68"/>
</g>
<!-- pancaSk -->
<g id="node38" class="node">
<title>pancaSk</title>
<text text-anchor="start" x="580" y="-359.8" font-family="Times New Roman,serif" font-weight="bold" font-size="14.00">Sanskrit</text>
<text text-anchor="start" x="589" y="-345.8" font-family="Times New Roman,serif" font-size="14.00" fill="red">pañca</text>
</g>
<!-- pancaII&#45;&gt;pancaSk -->
<g id="edge38" class="edge">
<title>pancaII&#45;&gt;pancaSk</title>
<path fill="none" stroke="black" d="M605.19,-428.84C605.33,-416.28 605.53,-398.98 605.69,-384.5"/>
<polygon fill="black" stroke="black" points="609.2,-384.15 605.81,-374.11 602.2,-384.07 609.2,-384.15"/>
</g>
<!-- pancH -->
<g id="node39" class="node">
<title>pancH</title>
<text text-anchor="start" x="589" y="-274.8" font-family="Times New Roman,serif" font-weight="bold" font-size="14.00">Hindi</text>
<text text-anchor="start" x="592" y="-260.8" font-family="Times New Roman,serif" font-size="14.00" fill="red">pañc</text>
</g>
<!-- pancaSk&#45;&gt;pancH -->
<g id="edge39" class="edge">
<title>pancaSk&#45;&gt;pancH</title>
<path fill="none" stroke="black" d="M606,-337.8C606,-326.67 606,-311.94 606,-299.24"/>
<polygon fill="black" stroke="black" points="609.5,-299.18 606,-289.18 602.5,-299.18 609.5,-299.18"/>
</g>
<!-- pacisH -->
<g id="node43" class="node">
<title>pacisH</title>
<text text-anchor="start" x="848" y="-280.8" font-family="Times New Roman,serif" font-weight="bold" font-size="14.00">Hindi</text>
<text text-anchor="start" x="849.5" y="-266.8" font-family="Times New Roman,serif" font-size="14.00" fill="red">pacīs</text>
<text text-anchor="start" x="839.5" y="-254.4" font-family="Times New Roman,serif" font-size="12.00">twenty&#45;five</text>
</g>
<!-- pancaSk&#45;&gt;pacisH -->
<g id="edge43" class="edge">
<title>pancaSk&#45;&gt;pacisH</title>
<path fill="none" stroke="black" d="M640.24,-346.92C698.01,-333.29 811.9,-306.41 846.07,-298.34"/>
<polygon fill="black" stroke="black" points="847.07,-301.7 856,-296 845.46,-294.89 847.07,-301.7"/>
</g>
<!-- punch -->
<g id="node40" class="node">
<title>punch</title>
<text text-anchor="start" x="581.5" y="-91.3" font-family="Times New Roman,serif" font-weight="bold" font-size="14.00">Modern</text>
<text text-anchor="start" x="583" y="-77.3" font-family="Times New Roman,serif" font-weight="bold" font-size="14.00">English</text>
<text text-anchor="start" x="588.5" y="-63.3" font-family="Times New Roman,serif" font-size="14.00" fill="red">punch</text>
<text text-anchor="start" x="568.5" y="-50.9" font-family="Times New Roman,serif" font-size="12.00">a drink originally</text>
<text text-anchor="start" x="572" y="-38.9" font-family="Times New Roman,serif" font-size="12.00">made from five</text>
<text text-anchor="start" x="581.5" y="-26.9" font-family="Times New Roman,serif" font-size="12.00">ingredients</text>
</g>
<!-- pancH&#45;&gt;punch -->
<g id="edge40" class="edge">
<title>pancH&#45;&gt;punch</title>
<path fill="none" stroke="black" stroke-dasharray="5,2" d="M606,-252.75C606,-222.98 606,-160.85 606,-115.87"/>
<polygon fill="black" stroke="black" points="609.5,-115.7 606,-105.7 602.5,-115.7 609.5,-115.7"/>
</g>
<!-- wikmtiIE -->
<g id="node41" class="node">
<title>wikmtiIE</title>
<g id="a_node41"><a xlink:href="wikmti-twenty.svg" xlink:title="&lt;b&gt;Indo&#45;&lt;br/&gt;European&lt;/b&gt;&lt;br/&gt;&lt;font color=&quot;red&quot;&gt;wīkm̥tī&#45;&lt;/font&gt;&lt;br/&gt;&lt;font point&#45;size=&quot;12&quot;&gt;twenty&lt;/font&gt;">
<path fill="none" stroke="black" stroke-dasharray="5,2" d="M989.5,-647C989.5,-647 936.5,-647 936.5,-647 930.5,-647 924.5,-641 924.5,-635 924.5,-635 924.5,-597 924.5,-597 924.5,-591 930.5,-585 936.5,-585 936.5,-585 989.5,-585 989.5,-585 995.5,-585 1001.5,-591 1001.5,-597 1001.5,-597 1001.5,-635 1001.5,-635 1001.5,-641 995.5,-647 989.5,-647"/>
<text text-anchor="start" x="946.5" y="-632.8" font-family="Times New Roman,serif" font-weight="bold" font-size="14.00">Indo&#45;</text>
<text text-anchor="start" x="932.5" y="-618.8" font-family="Times New Roman,serif" font-weight="bold" font-size="14.00">European</text>
<text text-anchor="start" x="940.5" y="-604.8" font-family="Times New Roman,serif" font-size="14.00" fill="red">wīkm̥tī&#45;</text>
<text text-anchor="start" x="947.5" y="-592.4" font-family="Times New Roman,serif" font-size="12.00">twenty</text>
</a>
</g>
</g>
<!-- vimsatihSk -->
<g id="node42" class="node">
<title>vimsatihSk</title>
<text text-anchor="start" x="938" y="-456.8" font-family="Times New Roman,serif" font-weight="bold" font-size="14.00">Sanskrit</text>
<text text-anchor="start" x="941" y="-442.8" font-family="Times New Roman,serif" font-size="14.00" fill="red">viṁśatiḥ</text>
<text text-anchor="start" x="948.5" y="-430.4" font-family="Times New Roman,serif" font-size="12.00">twenty</text>
</g>
<!-- wikmtiIE&#45;&gt;vimsatihSk -->
<g id="edge41" class="edge">
<title>wikmtiIE&#45;&gt;vimsatihSk</title>
<path fill="none" stroke="black" d="M963.18,-584.76C963.36,-555.5 963.62,-511.26 963.8,-481.08"/>
<polygon fill="black" stroke="black" points="967.3,-481.06 963.86,-471.04 960.3,-481.02 967.3,-481.06"/>
</g>
<!-- vimsatihSk&#45;&gt;pacisH -->
<g id="edge42" class="edge">
<title>vimsatihSk&#45;&gt;pacisH</title>
<path fill="none" stroke="black" d="M947.36,-422.89C922.87,-388.87 878.25,-326.9 862.07,-304.43"/>
<polygon fill="black" stroke="black" points="864.68,-302.07 856,-296 859,-306.16 864.68,-302.07"/>
</g>
<!-- pacisiH -->
<g id="node44" class="node">
<title>pacisiH</title>
<text text-anchor="start" x="850" y="-188.8" font-family="Times New Roman,serif" font-size="14.00" fill="red">pacīsī</text>
<text text-anchor="start" x="848" y="-176.4" font-family="Times New Roman,serif" font-size="12.00">(a game)</text>
</g>
<!-- pacisH&#45;&gt;pacisiH -->
<g id="edge44" class="edge">
<title>pacisH&#45;&gt;pacisiH</title>
<path fill="none" stroke="black" d="M865.84,-246.88C866.2,-236.84 866.63,-225 867.01,-214.51"/>
<polygon fill="black" stroke="black" points="870.51,-214.33 867.38,-204.21 863.52,-214.07 870.51,-214.33"/>
</g>
<!-- pachisi -->
<g id="node45" class="node">
<title>pachisi</title>
<text text-anchor="start" x="846.5" y="-80.3" font-family="Times New Roman,serif" font-weight="bold" font-size="14.00">Modern</text>
<text text-anchor="start" x="848" y="-66.3" font-family="Times New Roman,serif" font-weight="bold" font-size="14.00">English</text>
<text text-anchor="start" x="851" y="-52.3" font-family="Times New Roman,serif" font-size="14.00" fill="red">pachisi</text>
<text text-anchor="start" x="844" y="-38.3" font-family="Times New Roman,serif" font-size="14.00" fill="red">Parcheesi</text>
</g>
<!-- pacisiH&#45;&gt;pachisi -->
<g id="edge45" class="edge">
<title>pacisiH&#45;&gt;pachisi</title>
<path fill="none" stroke="black" stroke-dasharray="5,2" d="M868.42,-167.85C868.83,-151.55 869.45,-126.39 869.98,-104.86"/>
<polygon fill="black" stroke="black" points="873.48,-104.73 870.23,-94.64 866.49,-104.55 873.48,-104.73"/>
</g>
</g>
</svg>
