<?xml version="1.0" encoding="UTF-8" standalone="no"?>
<!DOCTYPE svg PUBLIC "-//W3C//DTD SVG 1.1//EN"
 "http://www.w3.org/Graphics/SVG/1.1/DTD/svg11.dtd">
<!-- Generated by graphviz version 2.44.1 (20200629.0846)
 -->
<!-- Title: 1 Pages: 1 -->
<svg width="734pt" height="211pt"
 viewBox="0.00 0.00 733.50 211.00" xmlns="http://www.w3.org/2000/svg" xmlns:xlink="http://www.w3.org/1999/xlink">
<g id="graph0" class="graph" transform="scale(1 1) rotate(0) translate(4 207)">
<title>1</title>
<polygon fill="white" stroke="transparent" points="-4,4 -4,-207 729.5,-207 729.5,4 -4,4"/>
<!-- per -->
<g id="node1" class="node">
<title>per</title>
<text text-anchor="start" x="242.5" y="-184.3" font-family="Times New Roman,serif" font-weight="bold" font-size="14.00">Indo&#45;European</text>
<text text-anchor="start" x="250" y="-158.7" font-family="Times New Roman,serif" font-size="16.00" fill="red">per</text>
<text text-anchor="start" x="293.5" y="-165.5" font-family="Times New Roman,serif" font-size="10.00">forward,</text>
<text text-anchor="start" x="294" y="-154.5" font-family="Times New Roman,serif" font-size="10.00">through</text>
</g>
<!-- peri -->
<g id="node2" class="node">
<title>peri</title>
<g id="a_node2"><a xlink:href="per-peri.svg" xlink:title="&lt;font color=&quot;red&quot;&gt;per, peri&lt;/font&gt;">
<path fill="none" stroke="black" stroke-dasharray="5,2" d="M51,-108C51,-108 12,-108 12,-108 6,-108 0,-102 0,-96 0,-96 0,-84 0,-84 0,-78 6,-72 12,-72 12,-72 51,-72 51,-72 57,-72 63,-78 63,-84 63,-84 63,-96 63,-96 63,-102 57,-108 51,-108"/>
<text text-anchor="start" x="8" y="-86.3" font-family="Times New Roman,serif" font-size="14.00" fill="red">per, peri</text>
</a>
</g>
</g>
<!-- per&#45;&gt;peri -->
<g id="edge1" class="edge">
<title>per&#45;&gt;peri</title>
<path fill="none" stroke="black" d="M228.84,-156.47C187.47,-144.94 131.01,-128.41 72.88,-107.96"/>
<polygon fill="black" stroke="black" points="73.75,-104.55 63.16,-104.5 71.41,-111.15 73.75,-104.55"/>
</g>
<!-- pr -->
<g id="node3" class="node">
<title>pr</title>
<g id="a_node3"><a xlink:href="per-pr.svg" xlink:title="&lt;font color=&quot;red&quot;&gt;pr̥&#45;&lt;/font&gt;">
<path fill="none" stroke="black" stroke-dasharray="5,2" d="M123.5,-108C123.5,-108 93.5,-108 93.5,-108 87.5,-108 81.5,-102 81.5,-96 81.5,-96 81.5,-84 81.5,-84 81.5,-78 87.5,-72 93.5,-72 93.5,-72 123.5,-72 123.5,-72 129.5,-72 135.5,-78 135.5,-84 135.5,-84 135.5,-96 135.5,-96 135.5,-102 129.5,-108 123.5,-108"/>
<text text-anchor="start" x="100" y="-86.3" font-family="Times New Roman,serif" font-size="14.00" fill="red">pr̥&#45;</text>
</a>
</g>
</g>
<!-- per&#45;&gt;pr -->
<g id="edge2" class="edge">
<title>per&#45;&gt;pr</title>
<path fill="none" stroke="black" d="M228.83,-146.09C205.1,-135.52 177.37,-123.07 144.89,-108.14"/>
<polygon fill="black" stroke="black" points="146.15,-104.87 135.6,-103.87 143.22,-111.23 146.15,-104.87"/>
</g>
<!-- pre -->
<g id="node4" class="node">
<title>pre</title>
<g id="a_node4"><a xlink:href="per-pre.svg" xlink:title="&lt;font color=&quot;red&quot;&gt;pr̥ə&#45;&lt;/font&gt;">
<path fill="none" stroke="black" stroke-dasharray="5,2" d="M195.5,-108C195.5,-108 165.5,-108 165.5,-108 159.5,-108 153.5,-102 153.5,-96 153.5,-96 153.5,-84 153.5,-84 153.5,-78 159.5,-72 165.5,-72 165.5,-72 195.5,-72 195.5,-72 201.5,-72 207.5,-78 207.5,-84 207.5,-84 207.5,-96 207.5,-96 207.5,-102 201.5,-108 195.5,-108"/>
<text text-anchor="start" x="169" y="-86.3" font-family="Times New Roman,serif" font-size="14.00" fill="red">pr̥ə&#45;</text>
</a>
</g>
</g>
<!-- per&#45;&gt;pre -->
<g id="edge3" class="edge">
<title>per&#45;&gt;pre</title>
<path fill="none" stroke="black" d="M250.73,-144C237.88,-134.3 223.68,-123.58 211.43,-114.34"/>
<polygon fill="black" stroke="black" points="213.39,-111.43 203.3,-108.2 209.17,-117.02 213.39,-111.43"/>
</g>
<!-- prea -->
<g id="node5" class="node">
<title>prea</title>
<g id="a_node5"><a xlink:href="per-prea.svg" xlink:title="&lt;font color=&quot;red&quot;&gt;pr̥əā̆&lt;/font&gt;">
<path fill="none" stroke="black" stroke-dasharray="5,2" d="M267.5,-108C267.5,-108 237.5,-108 237.5,-108 231.5,-108 225.5,-102 225.5,-96 225.5,-96 225.5,-84 225.5,-84 225.5,-78 231.5,-72 237.5,-72 237.5,-72 267.5,-72 267.5,-72 273.5,-72 279.5,-78 279.5,-84 279.5,-84 279.5,-96 279.5,-96 279.5,-102 273.5,-108 267.5,-108"/>
<text text-anchor="start" x="240" y="-86.3" font-family="Times New Roman,serif" font-size="14.00" fill="red">pr̥əā̆</text>
</a>
</g>
</g>
<!-- per&#45;&gt;prea -->
<g id="edge4" class="edge">
<title>per&#45;&gt;prea</title>
<path fill="none" stroke="black" d="M275.91,-144C272.12,-135.42 267.98,-126.04 264.25,-117.59"/>
<polygon fill="black" stroke="black" points="267.34,-115.94 260.1,-108.2 260.94,-118.76 267.34,-115.94"/>
</g>
<!-- pro -->
<g id="node6" class="node">
<title>pro</title>
<g id="a_node6"><a xlink:href="per-pro.svg" xlink:title="&lt;font color=&quot;red&quot;&gt;prō̆&lt;/font&gt;">
<path fill="none" stroke="black" stroke-dasharray="5,2" d="M339.5,-108C339.5,-108 309.5,-108 309.5,-108 303.5,-108 297.5,-102 297.5,-96 297.5,-96 297.5,-84 297.5,-84 297.5,-78 303.5,-72 309.5,-72 309.5,-72 339.5,-72 339.5,-72 345.5,-72 351.5,-78 351.5,-84 351.5,-84 351.5,-96 351.5,-96 351.5,-102 345.5,-108 339.5,-108"/>
<text text-anchor="start" x="314.5" y="-86.3" font-family="Times New Roman,serif" font-size="14.00" fill="red">prō̆</text>
</a>
</g>
</g>
<!-- per&#45;&gt;pro -->
<g id="edge5" class="edge">
<title>per&#45;&gt;pro</title>
<path fill="none" stroke="black" d="M301.09,-144C304.88,-135.42 309.02,-126.04 312.75,-117.59"/>
<polygon fill="black" stroke="black" points="316.06,-118.76 316.9,-108.2 309.66,-115.94 316.06,-118.76"/>
</g>
<!-- prai -->
<g id="node7" class="node">
<title>prai</title>
<g id="a_node7"><a xlink:href="per-prai.svg" xlink:title="&lt;font color=&quot;red&quot;&gt;prai&#45;, prei&#45;&lt;/font&gt;">
<path fill="none" stroke="black" stroke-dasharray="5,2" d="M433,-108C433,-108 382,-108 382,-108 376,-108 370,-102 370,-96 370,-96 370,-84 370,-84 370,-78 376,-72 382,-72 382,-72 433,-72 433,-72 439,-72 445,-78 445,-84 445,-84 445,-96 445,-96 445,-102 439,-108 433,-108"/>
<text text-anchor="start" x="378" y="-86.3" font-family="Times New Roman,serif" font-size="14.00" fill="red">prai&#45;, prei&#45;</text>
</a>
</g>
</g>
<!-- per&#45;&gt;prai -->
<g id="edge6" class="edge">
<title>per&#45;&gt;prai</title>
<path fill="none" stroke="black" d="M330.12,-144C344.42,-134.21 360.23,-123.38 373.81,-114.07"/>
<polygon fill="black" stroke="black" points="376.11,-116.74 382.38,-108.2 372.15,-110.97 376.11,-116.74"/>
</g>
<!-- pres -->
<g id="node8" class="node">
<title>pres</title>
<g id="a_node8"><a xlink:href="per-pres.svg" xlink:title="&lt;font color=&quot;red&quot;&gt;pres&#45; &#160;&#160;&#160;&#160;proti&lt;/font&gt;">
<path fill="none" stroke="black" stroke-dasharray="5,2" d="M541.5,-108C541.5,-108 475.5,-108 475.5,-108 469.5,-108 463.5,-102 463.5,-96 463.5,-96 463.5,-84 463.5,-84 463.5,-78 469.5,-72 475.5,-72 475.5,-72 541.5,-72 541.5,-72 547.5,-72 553.5,-78 553.5,-84 553.5,-84 553.5,-96 553.5,-96 553.5,-102 547.5,-108 541.5,-108"/>
<text text-anchor="start" x="471.5" y="-86.3" font-family="Times New Roman,serif" font-size="14.00" fill="red">pres&#45; &#160;&#160;&#160;&#160;proti</text>
</a>
</g>
</g>
<!-- per&#45;&gt;pres -->
<g id="edge7" class="edge">
<title>per&#45;&gt;pres</title>
<path fill="none" stroke="black" d="M348.04,-150.44C380.9,-138.27 421.44,-123.25 453.55,-111.36"/>
<polygon fill="black" stroke="black" points="455.07,-114.53 463.23,-107.77 452.64,-107.96 455.07,-114.53"/>
</g>
<!-- per_lead -->
<g id="node9" class="node">
<title>per_lead</title>
<text text-anchor="start" x="615" y="-92.8" font-family="Times New Roman,serif" font-size="14.00" fill="red">per&#45;</text>
<text text-anchor="start" x="580" y="-80.4" font-family="Times New Roman,serif" font-size="12.00">to lead, to pass over</text>
</g>
<!-- per&#45;&gt;per_lead -->
<g id="edge8" class="edge">
<title>per&#45;&gt;per_lead</title>
<path fill="none" stroke="black" d="M348.21,-158.96C401.63,-146.73 482.3,-127.97 562,-108.09"/>
<polygon fill="black" stroke="black" points="562.86,-111.48 571.71,-105.66 561.16,-104.69 562.86,-111.48"/>
</g>
<!-- per_vb -->
<g id="node10" class="node">
<title>per_vb</title>
<g id="a_node10"><a xlink:href="per-vb.svg" xlink:title="&lt;font color=&quot;red&quot;&gt;per&#45;&lt;/font&gt;">
<path fill="none" stroke="black" stroke-dasharray="5,2" d="M569.5,-36C569.5,-36 539.5,-36 539.5,-36 533.5,-36 527.5,-30 527.5,-24 527.5,-24 527.5,-12 527.5,-12 527.5,-6 533.5,0 539.5,0 539.5,0 569.5,0 569.5,0 575.5,0 581.5,-6 581.5,-12 581.5,-12 581.5,-24 581.5,-24 581.5,-30 575.5,-36 569.5,-36"/>
<text text-anchor="start" x="543" y="-14.3" font-family="Times New Roman,serif" font-size="14.00" fill="red">per&#45;</text>
</a>
</g>
</g>
<!-- per_lead&#45;&gt;per_vb -->
<g id="edge9" class="edge">
<title>per_lead&#45;&gt;per_vb</title>
<path fill="none" stroke="black" d="M608.7,-71.7C599.9,-63.14 589.12,-52.66 579.5,-43.3"/>
<polygon fill="black" stroke="black" points="581.7,-40.57 572.09,-36.1 576.82,-45.58 581.7,-40.57"/>
</g>
<!-- por -->
<g id="node11" class="node">
<title>por</title>
<g id="a_node11"><a xlink:href="per-por.svg" xlink:title="&lt;font color=&quot;red&quot;&gt;por&#45;&lt;/font&gt;">
<path fill="none" stroke="black" stroke-dasharray="5,2" d="M641.5,-36C641.5,-36 611.5,-36 611.5,-36 605.5,-36 599.5,-30 599.5,-24 599.5,-24 599.5,-12 599.5,-12 599.5,-6 605.5,0 611.5,0 611.5,0 641.5,0 641.5,0 647.5,0 653.5,-6 653.5,-12 653.5,-12 653.5,-24 653.5,-24 653.5,-30 647.5,-36 641.5,-36"/>
<text text-anchor="start" x="614" y="-14.3" font-family="Times New Roman,serif" font-size="14.00" fill="red">por&#45;</text>
</a>
</g>
</g>
<!-- per_lead&#45;&gt;por -->
<g id="edge10" class="edge">
<title>per_lead&#45;&gt;por</title>
<path fill="none" stroke="black" d="M626.5,-71.7C626.5,-63.98 626.5,-54.71 626.5,-46.11"/>
<polygon fill="black" stroke="black" points="630,-46.1 626.5,-36.1 623,-46.1 630,-46.1"/>
</g>
<!-- pr_vb -->
<g id="node12" class="node">
<title>pr_vb</title>
<g id="a_node12"><a xlink:href="per-pr-vb.svg" xlink:title="&lt;font color=&quot;red&quot;&gt;pr̥&lt;/font&gt;">
<path fill="none" stroke="black" stroke-dasharray="5,2" d="M713.5,-36C713.5,-36 683.5,-36 683.5,-36 677.5,-36 671.5,-30 671.5,-24 671.5,-24 671.5,-12 671.5,-12 671.5,-6 677.5,0 683.5,0 683.5,0 713.5,0 713.5,0 719.5,0 725.5,-6 725.5,-12 725.5,-12 725.5,-24 725.5,-24 725.5,-30 719.5,-36 713.5,-36"/>
<text text-anchor="start" x="692" y="-14.3" font-family="Times New Roman,serif" font-size="14.00" fill="red">pr̥</text>
</a>
</g>
</g>
<!-- per_lead&#45;&gt;pr_vb -->
<g id="edge11" class="edge">
<title>per_lead&#45;&gt;pr_vb</title>
<path fill="none" stroke="black" d="M644.3,-71.7C653.1,-63.14 663.88,-52.66 673.5,-43.3"/>
<polygon fill="black" stroke="black" points="676.18,-45.58 680.91,-36.1 671.3,-40.57 676.18,-45.58"/>
</g>
</g>
</svg>
