<?xml version="1.0" encoding="UTF-8" standalone="no"?>
<!DOCTYPE svg PUBLIC "-//W3C//DTD SVG 1.1//EN"
 "http://www.w3.org/Graphics/SVG/1.1/DTD/svg11.dtd">
<!-- Generated by graphviz version 2.44.1 (20200629.0846)
 -->
<!-- Title: 5 Pages: 1 -->
<svg width="655pt" height="573pt"
 viewBox="0.00 0.00 655.00 573.00" xmlns="http://www.w3.org/2000/svg" xmlns:xlink="http://www.w3.org/1999/xlink">
<g id="graph0" class="graph" transform="scale(1 1) rotate(0) translate(4 569)">
<title>5</title>
<polygon fill="white" stroke="transparent" points="-4,4 -4,-569 651,-569 651,4 -4,4"/>
<!-- per -->
<g id="node1" class="node">
<title>per</title>
<text text-anchor="start" x="127.5" y="-546.3" font-family="Times New Roman,serif" font-weight="bold" font-size="14.00">Indo&#45;European</text>
<text text-anchor="start" x="132.5" y="-520.7" font-family="Times New Roman,serif" font-size="16.00" fill="red">per&#45;</text>
<text text-anchor="start" x="180.5" y="-527.5" font-family="Times New Roman,serif" font-size="10.00">to lead,</text>
<text text-anchor="start" x="175.5" y="-516.5" font-family="Times New Roman,serif" font-size="10.00">pass over</text>
</g>
<!-- pr -->
<g id="node2" class="node">
<title>pr</title>
<text text-anchor="start" x="165" y="-442.3" font-family="Times New Roman,serif" font-size="14.00" fill="red">pr̥&#45;</text>
</g>
<!-- per&#45;&gt;pr -->
<g id="edge1" class="edge">
<title>per&#45;&gt;pr</title>
<path fill="none" stroke="black" d="M173.5,-505.85C173.5,-495.75 173.5,-484.42 173.5,-474.42"/>
<polygon fill="black" stroke="black" points="177,-474.22 173.5,-464.22 170,-474.22 177,-474.22"/>
</g>
<!-- prto -->
<g id="node3" class="node">
<title>prto</title>
<text text-anchor="start" x="157" y="-358.3" font-family="Times New Roman,serif" font-size="14.00" fill="red">pr̥&#45;to&#45;</text>
</g>
<!-- pr&#45;&gt;prto -->
<g id="edge2" class="edge">
<title>pr&#45;&gt;prto</title>
<path fill="none" stroke="black" d="M173.5,-427.61C173.5,-416.77 173.5,-402.6 173.5,-390.29"/>
<polygon fill="black" stroke="black" points="177,-390.08 173.5,-380.08 170,-390.08 177,-390.08"/>
</g>
<!-- prta -->
<g id="node4" class="node">
<title>prta</title>
<text text-anchor="middle" x="323.5" y="-531.8" font-family="Times New Roman,serif" font-size="14.00">prta</text>
</g>
<!-- portaL -->
<g id="node5" class="node">
<title>portaL</title>
<text text-anchor="start" x="307" y="-455.8" font-family="Times New Roman,serif" font-weight="bold" font-size="14.00">Latin</text>
<text text-anchor="start" x="308.5" y="-441.8" font-family="Times New Roman,serif" font-size="14.00" fill="red">porta</text>
<text text-anchor="start" x="314" y="-429.4" font-family="Times New Roman,serif" font-size="12.00">gate</text>
</g>
<!-- prta&#45;&gt;portaL -->
<g id="edge3" class="edge">
<title>prta&#45;&gt;portaL</title>
<path fill="none" stroke="black" d="M323.5,-517.21C323.5,-506.71 323.5,-492.94 323.5,-480.38"/>
<polygon fill="black" stroke="black" points="327,-480.22 323.5,-470.22 320,-480.22 327,-480.22"/>
</g>
<!-- porteOF -->
<g id="node6" class="node">
<title>porteOF</title>
<text text-anchor="start" x="421.5" y="-274.8" font-family="Times New Roman,serif" font-weight="bold" font-size="14.00">Old French</text>
<text text-anchor="start" x="441.5" y="-260.8" font-family="Times New Roman,serif" font-size="14.00" fill="red">porte</text>
</g>
<!-- portaL&#45;&gt;porteOF -->
<g id="edge4" class="edge">
<title>portaL&#45;&gt;porteOF</title>
<path fill="none" stroke="black" d="M341.44,-421.67C366.3,-389.33 411.08,-331.08 436.83,-297.58"/>
<polygon fill="black" stroke="black" points="439.93,-299.29 443.25,-289.23 434.38,-295.03 439.93,-299.29"/>
</g>
<!-- porticusL -->
<g id="node9" class="node">
<title>porticusL</title>
<text text-anchor="start" x="167.5" y="-273.8" font-family="Times New Roman,serif" font-size="14.00" fill="red">porticus</text>
<text text-anchor="start" x="174" y="-261.4" font-family="Times New Roman,serif" font-size="12.00">portico</text>
</g>
<!-- portaL&#45;&gt;porticusL -->
<g id="edge7" class="edge">
<title>portaL&#45;&gt;porticusL</title>
<path fill="none" stroke="black" d="M305.56,-421.67C280.7,-389.33 235.92,-331.08 210.17,-297.58"/>
<polygon fill="black" stroke="black" points="212.62,-295.03 203.75,-289.23 207.07,-299.29 212.62,-295.03"/>
</g>
<!-- portalisL -->
<g id="node20" class="node">
<title>portalisL</title>
<text text-anchor="start" x="302.5" y="-364.8" font-family="Times New Roman,serif" font-size="14.00" fill="red">portālis</text>
<text text-anchor="start" x="303.5" y="-352.4" font-family="Times New Roman,serif" font-size="12.00">of a gate</text>
</g>
<!-- portaL&#45;&gt;portalisL -->
<g id="edge18" class="edge">
<title>portaL&#45;&gt;portalisL</title>
<path fill="none" stroke="black" d="M323.5,-421.72C323.5,-411.88 323.5,-400.36 323.5,-390.13"/>
<polygon fill="black" stroke="black" points="327,-390.08 323.5,-380.08 320,-390.08 327,-390.08"/>
</g>
<!-- port3ME -->
<g id="node7" class="node">
<title>port3ME</title>
<text text-anchor="start" x="410" y="-189.8" font-family="Times New Roman,serif" font-weight="bold" font-size="14.00">Middle English</text>
<text text-anchor="start" x="444.5" y="-175.8" font-family="Times New Roman,serif" font-size="14.00" fill="red">port</text>
</g>
<!-- porteOF&#45;&gt;port3ME -->
<g id="edge5" class="edge">
<title>porteOF&#45;&gt;port3ME</title>
<path fill="none" stroke="black" stroke-dasharray="1,5" d="M456.5,-252.8C456.5,-241.67 456.5,-226.94 456.5,-214.24"/>
<polygon fill="black" stroke="black" points="460,-214.18 456.5,-204.18 453,-214.18 460,-214.18"/>
</g>
<!-- portecoleiceOF -->
<g id="node17" class="node">
<title>portecoleiceOF</title>
<text text-anchor="start" x="545" y="-182.3" font-family="Times New Roman,serif" font-size="14.00" fill="red">porte coleice</text>
</g>
<!-- porteOF&#45;&gt;portecoleiceOF -->
<g id="edge14" class="edge">
<title>porteOF&#45;&gt;portecoleiceOF</title>
<path fill="none" stroke="black" d="M482.4,-252.8C501.17,-240.34 526.74,-223.36 547.21,-209.77"/>
<polygon fill="black" stroke="black" points="549.24,-212.62 555.63,-204.18 545.37,-206.79 549.24,-212.62"/>
</g>
<!-- port3 -->
<g id="node8" class="node">
<title>port3</title>
<text text-anchor="start" x="407" y="-45.8" font-family="Times New Roman,serif" font-weight="bold" font-size="14.00">Modern English</text>
<text text-anchor="start" x="444.5" y="-31.8" font-family="Times New Roman,serif" font-size="14.00" fill="red">port</text>
<text text-anchor="start" x="420.5" y="-19.4" font-family="Times New Roman,serif" font-size="12.00">(computer port,</text>
<text text-anchor="start" x="424.5" y="-7.4" font-family="Times New Roman,serif" font-size="12.00">porthole, etc.)</text>
</g>
<!-- port3ME&#45;&gt;port3 -->
<g id="edge6" class="edge">
<title>port3ME&#45;&gt;port3</title>
<path fill="none" stroke="black" d="M456.5,-167.93C456.5,-144.57 456.5,-101.96 456.5,-70.45"/>
<polygon fill="black" stroke="black" points="460,-70.23 456.5,-60.23 453,-70.23 460,-70.23"/>
</g>
<!-- porcheOF -->
<g id="node10" class="node">
<title>porcheOF</title>
<text text-anchor="start" x="155.5" y="-189.8" font-family="Times New Roman,serif" font-weight="bold" font-size="14.00">Old French</text>
<text text-anchor="start" x="170.5" y="-175.8" font-family="Times New Roman,serif" font-size="14.00" fill="red">porche</text>
</g>
<!-- porticusL&#45;&gt;porcheOF -->
<g id="edge8" class="edge">
<title>porticusL&#45;&gt;porcheOF</title>
<path fill="none" stroke="black" d="M190.5,-252.8C190.5,-241.67 190.5,-226.94 190.5,-214.24"/>
<polygon fill="black" stroke="black" points="194,-214.18 190.5,-204.18 187,-214.18 194,-214.18"/>
</g>
<!-- porticoI -->
<g id="node11" class="node">
<title>porticoI</title>
<text text-anchor="start" x="53.5" y="-117.8" font-family="Times New Roman,serif" font-weight="bold" font-size="14.00">Italian</text>
<text text-anchor="start" x="53" y="-103.8" font-family="Times New Roman,serif" font-size="14.00" fill="red">portico</text>
</g>
<!-- porticusL&#45;&gt;porticoI -->
<g id="edge9" class="edge">
<title>porticusL&#45;&gt;porticoI</title>
<path fill="none" stroke="black" d="M176.64,-252.76C166.06,-239.53 151.2,-220.73 138.5,-204 122.4,-182.78 104.59,-158.32 91.69,-140.42"/>
<polygon fill="black" stroke="black" points="94.46,-138.27 85.78,-132.2 88.77,-142.36 94.46,-138.27"/>
</g>
<!-- porcheME -->
<g id="node12" class="node">
<title>porcheME</title>
<text text-anchor="start" x="144" y="-117.8" font-family="Times New Roman,serif" font-weight="bold" font-size="14.00">Middle English</text>
<text text-anchor="start" x="170.5" y="-103.8" font-family="Times New Roman,serif" font-size="14.00" fill="red">porche</text>
</g>
<!-- porcheOF&#45;&gt;porcheME -->
<g id="edge10" class="edge">
<title>porcheOF&#45;&gt;porcheME</title>
<path fill="none" stroke="black" stroke-dasharray="1,5" d="M190.5,-167.7C190.5,-159.98 190.5,-150.71 190.5,-142.11"/>
<polygon fill="black" stroke="black" points="194,-142.1 190.5,-132.1 187,-142.1 194,-142.1"/>
</g>
<!-- portico -->
<g id="node14" class="node">
<title>portico</title>
<text text-anchor="start" x="8" y="-33.8" font-family="Times New Roman,serif" font-weight="bold" font-size="14.00">Modern English</text>
<text text-anchor="start" x="37" y="-19.8" font-family="Times New Roman,serif" font-size="14.00" fill="red">portico</text>
</g>
<!-- porticoI&#45;&gt;portico -->
<g id="edge12" class="edge">
<title>porticoI&#45;&gt;portico</title>
<path fill="none" stroke="black" stroke-dasharray="1,5" d="M70.11,-95.61C67.97,-84.66 65.17,-70.31 62.75,-57.92"/>
<polygon fill="black" stroke="black" points="66.18,-57.23 60.83,-48.08 59.31,-58.57 66.18,-57.23"/>
</g>
<!-- porch -->
<g id="node13" class="node">
<title>porch</title>
<text text-anchor="start" x="141" y="-33.8" font-family="Times New Roman,serif" font-weight="bold" font-size="14.00">Modern English</text>
<text text-anchor="start" x="173.5" y="-19.8" font-family="Times New Roman,serif" font-size="14.00" fill="red">porch</text>
</g>
<!-- porcheME&#45;&gt;porch -->
<g id="edge11" class="edge">
<title>porcheME&#45;&gt;porch</title>
<path fill="none" stroke="black" d="M190.5,-95.61C190.5,-84.77 190.5,-70.6 190.5,-58.29"/>
<polygon fill="black" stroke="black" points="194,-58.08 190.5,-48.08 187,-58.08 194,-58.08"/>
</g>
<!-- columL -->
<g id="node15" class="node">
<title>columL</title>
<text text-anchor="start" x="565" y="-371.8" font-family="Times New Roman,serif" font-weight="bold" font-size="14.00">Latin</text>
<text text-anchor="start" x="564" y="-357.8" font-family="Times New Roman,serif" font-size="14.00" fill="red">cōlum</text>
<text text-anchor="start" x="570" y="-345.4" font-family="Times New Roman,serif" font-size="12.00">seive</text>
</g>
<!-- coleiceOF -->
<g id="node16" class="node">
<title>coleiceOF</title>
<text text-anchor="start" x="546.5" y="-287.8" font-family="Times New Roman,serif" font-weight="bold" font-size="14.00">Old French</text>
<text text-anchor="start" x="563" y="-273.8" font-family="Times New Roman,serif" font-size="14.00" fill="red">coleis,</text>
<text text-anchor="start" x="561.5" y="-259.8" font-family="Times New Roman,serif" font-size="14.00" fill="red">coleice</text>
<text text-anchor="start" x="567.5" y="-247.4" font-family="Times New Roman,serif" font-size="12.00">sliding</text>
</g>
<!-- columL&#45;&gt;coleiceOF -->
<g id="edge13" class="edge">
<title>columL&#45;&gt;coleiceOF</title>
<path fill="none" stroke="black" d="M581.5,-337.62C581.5,-329.84 581.5,-320.95 581.5,-312.27"/>
<polygon fill="black" stroke="black" points="585,-312.27 581.5,-302.27 578,-312.27 585,-312.27"/>
</g>
<!-- coleiceOF&#45;&gt;portecoleiceOF -->
<g id="edge15" class="edge">
<title>coleiceOF&#45;&gt;portecoleiceOF</title>
<path fill="none" stroke="black" d="M581.5,-239.57C581.5,-231.33 581.5,-222.47 581.5,-214.41"/>
<polygon fill="black" stroke="black" points="585,-214.4 581.5,-204.4 578,-214.4 585,-214.4"/>
</g>
<!-- portcoliceME -->
<g id="node18" class="node">
<title>portcoliceME</title>
<text text-anchor="start" x="539" y="-117.8" font-family="Times New Roman,serif" font-weight="bold" font-size="14.00">Middle English</text>
<text text-anchor="start" x="555" y="-103.8" font-family="Times New Roman,serif" font-size="14.00" fill="red">port&#45;colice</text>
</g>
<!-- portecoleiceOF&#45;&gt;portcoliceME -->
<g id="edge16" class="edge">
<title>portecoleiceOF&#45;&gt;portcoliceME</title>
<path fill="none" stroke="black" stroke-dasharray="1,5" d="M582.49,-167.7C582.93,-159.98 583.46,-150.71 583.95,-142.11"/>
<polygon fill="black" stroke="black" points="587.45,-142.29 584.52,-132.1 580.46,-141.89 587.45,-142.29"/>
</g>
<!-- portcullis -->
<g id="node19" class="node">
<title>portcullis</title>
<text text-anchor="start" x="540" y="-33.8" font-family="Times New Roman,serif" font-weight="bold" font-size="14.00">Modern English</text>
<text text-anchor="start" x="563.5" y="-19.8" font-family="Times New Roman,serif" font-size="14.00" fill="red">portcullis</text>
</g>
<!-- portcoliceME&#45;&gt;portcullis -->
<g id="edge17" class="edge">
<title>portcoliceME&#45;&gt;portcullis</title>
<path fill="none" stroke="black" d="M586.35,-95.61C586.88,-84.77 587.57,-70.6 588.17,-58.29"/>
<polygon fill="black" stroke="black" points="591.68,-58.24 588.67,-48.08 584.68,-57.9 591.68,-58.24"/>
</g>
<!-- portaleL -->
<g id="node21" class="node">
<title>portaleL</title>
<text text-anchor="start" x="304" y="-273.8" font-family="Times New Roman,serif" font-size="14.00" fill="red">portāle</text>
<text text-anchor="start" x="304.5" y="-261.4" font-family="Times New Roman,serif" font-size="12.00">city gate</text>
</g>
<!-- portalisL&#45;&gt;portaleL -->
<g id="edge19" class="edge">
<title>portalisL&#45;&gt;portaleL</title>
<path fill="none" stroke="black" d="M323.5,-343.84C323.5,-331.28 323.5,-313.98 323.5,-299.5"/>
<polygon fill="black" stroke="black" points="327,-299.11 323.5,-289.11 320,-299.11 327,-299.11"/>
</g>
<!-- portalOF -->
<g id="node22" class="node">
<title>portalOF</title>
<text text-anchor="start" x="288.5" y="-189.8" font-family="Times New Roman,serif" font-weight="bold" font-size="14.00">Old French</text>
<text text-anchor="start" x="307" y="-175.8" font-family="Times New Roman,serif" font-size="14.00" fill="red">portal</text>
</g>
<!-- portaleL&#45;&gt;portalOF -->
<g id="edge20" class="edge">
<title>portaleL&#45;&gt;portalOF</title>
<path fill="none" stroke="black" d="M323.5,-252.8C323.5,-241.67 323.5,-226.94 323.5,-214.24"/>
<polygon fill="black" stroke="black" points="327,-214.18 323.5,-204.18 320,-214.18 327,-214.18"/>
</g>
<!-- portalME -->
<g id="node23" class="node">
<title>portalME</title>
<text text-anchor="start" x="277" y="-117.8" font-family="Times New Roman,serif" font-weight="bold" font-size="14.00">Middle English</text>
<text text-anchor="start" x="307" y="-103.8" font-family="Times New Roman,serif" font-size="14.00" fill="red">portal</text>
</g>
<!-- portalOF&#45;&gt;portalME -->
<g id="edge21" class="edge">
<title>portalOF&#45;&gt;portalME</title>
<path fill="none" stroke="black" stroke-dasharray="1,5" d="M323.5,-167.7C323.5,-159.98 323.5,-150.71 323.5,-142.11"/>
<polygon fill="black" stroke="black" points="327,-142.1 323.5,-132.1 320,-142.1 327,-142.1"/>
</g>
<!-- portal -->
<g id="node24" class="node">
<title>portal</title>
<text text-anchor="start" x="274" y="-33.8" font-family="Times New Roman,serif" font-weight="bold" font-size="14.00">Modern English</text>
<text text-anchor="start" x="307" y="-19.8" font-family="Times New Roman,serif" font-size="14.00" fill="red">portal</text>
</g>
<!-- portalME&#45;&gt;portal -->
<g id="edge22" class="edge">
<title>portalME&#45;&gt;portal</title>
<path fill="none" stroke="black" d="M323.5,-95.61C323.5,-84.77 323.5,-70.6 323.5,-58.29"/>
<polygon fill="black" stroke="black" points="327,-58.08 323.5,-48.08 320,-58.08 327,-58.08"/>
</g>
</g>
</svg>
