<?xml version="1.0" encoding="UTF-8" standalone="no"?>
<!DOCTYPE svg PUBLIC "-//W3C//DTD SVG 1.1//EN"
 "http://www.w3.org/Graphics/SVG/1.1/DTD/svg11.dtd">
<!-- Generated by graphviz version 2.44.1 (20200629.0846)
 -->
<!-- Title: 9 Pages: 1 -->
<svg width="1586pt" height="734pt"
 viewBox="0.00 0.00 1586.00 734.00" xmlns="http://www.w3.org/2000/svg" xmlns:xlink="http://www.w3.org/1999/xlink">
<g id="graph0" class="graph" transform="scale(1 1) rotate(0) translate(4 730)">
<title>9</title>
<polygon fill="white" stroke="transparent" points="-4,4 -4,-730 1582,-730 1582,4 -4,4"/>
<!-- prai -->
<g id="node1" class="node">
<title>prai</title>
<text text-anchor="start" x="550" y="-711.8" font-family="Times New Roman,serif" font-weight="bold" font-size="14.00">Indo&#45;European</text>
<text text-anchor="start" x="567" y="-697.8" font-family="Times New Roman,serif" font-size="14.00" fill="red">prai&#45;, prei&#45;</text>
<text text-anchor="start" x="560.5" y="-685.4" font-family="Times New Roman,serif" font-size="12.00">forward, before</text>
</g>
<!-- preis -->
<g id="node2" class="node">
<title>preis</title>
<text text-anchor="start" x="580.5" y="-614.3" font-family="Times New Roman,serif" font-size="14.00" fill="red">preis&#45;</text>
</g>
<!-- prai&#45;&gt;preis -->
<g id="edge1" class="edge">
<title>prai&#45;&gt;preis</title>
<path fill="none" stroke="black" d="M596.5,-677.72C596.5,-667.88 596.5,-656.36 596.5,-646.13"/>
<polygon fill="black" stroke="black" points="600,-646.08 596.5,-636.08 593,-646.08 600,-646.08"/>
</g>
<!-- preismo -->
<g id="node3" class="node">
<title>preismo</title>
<text text-anchor="start" x="615" y="-530.3" font-family="Times New Roman,serif" font-size="14.00" fill="red">preis&#45;mo&#45;</text>
</g>
<!-- preis&#45;&gt;preismo -->
<g id="edge2" class="edge">
<title>preis&#45;&gt;preismo</title>
<path fill="none" stroke="black" d="M606.26,-599.61C612.58,-588.34 620.93,-573.45 628.02,-560.81"/>
<polygon fill="black" stroke="black" points="631.08,-562.52 632.92,-552.08 624.97,-559.09 631.08,-562.52"/>
</g>
<!-- preistano -->
<g id="node4" class="node">
<title>preistano</title>
<text text-anchor="start" x="281" y="-530.3" font-family="Times New Roman,serif" font-size="14.00" fill="red">preis&#45;tano&#45;</text>
</g>
<!-- preis&#45;&gt;preistano -->
<g id="edge3" class="edge">
<title>preis&#45;&gt;preistano</title>
<path fill="none" stroke="black" d="M569.43,-609.21C521.26,-595.35 420.06,-566.23 359.73,-548.88"/>
<polygon fill="black" stroke="black" points="360.63,-545.49 350.05,-546.09 358.7,-552.22 360.63,-545.49"/>
</g>
<!-- primusL -->
<g id="node5" class="node">
<title>primusL</title>
<text text-anchor="start" x="626" y="-459.8" font-family="Times New Roman,serif" font-weight="bold" font-size="14.00">Latin</text>
<text text-anchor="start" x="595.5" y="-445.8" font-family="Times New Roman,serif" font-size="14.00" fill="red">prīsmus, prīmus</text>
<text text-anchor="start" x="612.5" y="-433.4" font-family="Times New Roman,serif" font-size="12.00">first,foremost</text>
</g>
<!-- preismo&#45;&gt;primusL -->
<g id="edge4" class="edge">
<title>preismo&#45;&gt;primusL</title>
<path fill="none" stroke="black" d="M642.5,-515.61C642.5,-506.58 642.5,-495.24 642.5,-484.59"/>
<polygon fill="black" stroke="black" points="646,-484.28 642.5,-474.28 639,-484.28 646,-484.28"/>
</g>
<!-- princepsL -->
<g id="node39" class="node">
<title>princepsL</title>
<text text-anchor="start" x="1123" y="-375.8" font-family="Times New Roman,serif" font-weight="bold" font-size="14.00">Latin</text>
<text text-anchor="start" x="1088" y="-361.8" font-family="Times New Roman,serif" font-size="14.00" fill="red">prīnceps, prīncip&#45;</text>
<text text-anchor="start" x="1065.5" y="-349.4" font-family="Times New Roman,serif" font-size="12.00">&quot;he who takes first place,&quot; leader</text>
</g>
<!-- preismo&#45;&gt;princepsL -->
<g id="edge37" class="edge">
<title>preismo&#45;&gt;princepsL</title>
<path fill="none" stroke="black" d="M678.24,-521.06C757.86,-494.47 951.37,-429.84 1060.77,-393.3"/>
<polygon fill="black" stroke="black" points="1062.06,-396.55 1070.44,-390.07 1059.85,-389.91 1062.06,-396.55"/>
</g>
<!-- pristinusL -->
<g id="node51" class="node">
<title>pristinusL</title>
<text text-anchor="start" x="64" y="-119.8" font-family="Times New Roman,serif" font-weight="bold" font-size="14.00">Latin</text>
<text text-anchor="start" x="56" y="-105.8" font-family="Times New Roman,serif" font-size="14.00" fill="red">prīstinus</text>
<text text-anchor="start" x="29" y="-93.4" font-family="Times New Roman,serif" font-size="12.00">former, earlier, original</text>
</g>
<!-- preistano&#45;&gt;pristinusL -->
<g id="edge50" class="edge">
<title>preistano&#45;&gt;pristinusL</title>
<path fill="none" stroke="black" d="M272.92,-521.58C246.43,-512.19 211.79,-496.72 187.5,-474 147.68,-436.76 127.5,-421.52 127.5,-367 127.5,-367 127.5,-367 127.5,-280 127.5,-231.08 108.99,-177.01 95.21,-143.51"/>
<polygon fill="black" stroke="black" points="98.4,-142.07 91.28,-134.22 91.95,-144.79 98.4,-142.07"/>
</g>
<!-- prinOF -->
<g id="node6" class="node">
<title>prinOF</title>
<text text-anchor="start" x="946.5" y="-369.8" font-family="Times New Roman,serif" font-weight="bold" font-size="14.00">Old French</text>
<text text-anchor="start" x="951" y="-355.8" font-family="Times New Roman,serif" font-size="14.00" fill="red">prin, prime</text>
</g>
<!-- primusL&#45;&gt;prinOF -->
<g id="edge5" class="edge">
<title>primusL&#45;&gt;prinOF</title>
<path fill="none" stroke="black" d="M697.72,-435.64C761.43,-420.23 865.47,-395.07 928.31,-379.87"/>
<polygon fill="black" stroke="black" points="929.51,-383.18 938.41,-377.42 927.87,-376.37 929.51,-383.18"/>
</g>
<!-- primoOI -->
<g id="node9" class="node">
<title>primoOI</title>
<text text-anchor="start" x="496" y="-369.8" font-family="Times New Roman,serif" font-weight="bold" font-size="14.00">Old Italian</text>
<text text-anchor="start" x="512.5" y="-355.8" font-family="Times New Roman,serif" font-size="14.00" fill="red">primo</text>
</g>
<!-- primusL&#45;&gt;primoOI -->
<g id="edge8" class="edge">
<title>primusL&#45;&gt;primoOI</title>
<path fill="none" stroke="black" d="M610.72,-425.94C595.3,-414.75 576.82,-401.34 561.38,-390.14"/>
<polygon fill="black" stroke="black" points="563.31,-387.21 553.16,-384.17 559.2,-392.87 563.31,-387.21"/>
</g>
<!-- primariusL -->
<g id="node12" class="node">
<title>primariusL</title>
<text text-anchor="start" x="615.5" y="-362.3" font-family="Times New Roman,serif" font-size="14.00" fill="red">prīmārius</text>
</g>
<!-- primusL&#45;&gt;primariusL -->
<g id="edge11" class="edge">
<title>primusL&#45;&gt;primariusL</title>
<path fill="none" stroke="black" d="M642.5,-425.72C642.5,-415.88 642.5,-404.36 642.5,-394.13"/>
<polygon fill="black" stroke="black" points="646,-394.08 642.5,-384.08 639,-394.08 646,-394.08"/>
</g>
<!-- primaevusL -->
<g id="node19" class="node">
<title>primaevusL</title>
<text text-anchor="start" x="194" y="-368.8" font-family="Times New Roman,serif" font-size="14.00" fill="red">prīmaevus</text>
<text text-anchor="start" x="199" y="-356.4" font-family="Times New Roman,serif" font-size="12.00">early in life</text>
</g>
<!-- primusL&#45;&gt;primaevusL -->
<g id="edge17" class="edge">
<title>primusL&#45;&gt;primaevusL</title>
<path fill="none" stroke="black" d="M587.29,-438.2C504.46,-421.98 349.41,-391.64 271.2,-376.34"/>
<polygon fill="black" stroke="black" points="271.63,-372.85 261.15,-374.37 270.29,-379.72 271.63,-372.85"/>
</g>
<!-- primitusL -->
<g id="node21" class="node">
<title>primitusL</title>
<text text-anchor="start" x="722" y="-368.8" font-family="Times New Roman,serif" font-size="14.00" fill="red">prīmitus</text>
<text text-anchor="start" x="731.5" y="-356.4" font-family="Times New Roman,serif" font-size="12.00">at first</text>
</g>
<!-- primusL&#45;&gt;primitusL -->
<g id="edge20" class="edge">
<title>primusL&#45;&gt;primitusL</title>
<path fill="none" stroke="black" d="M671.47,-425.94C685.39,-414.85 702.06,-401.58 716.05,-390.45"/>
<polygon fill="black" stroke="black" points="718.29,-393.13 723.94,-384.17 713.93,-387.66 718.29,-393.13"/>
</g>
<!-- primordiumL -->
<g id="node27" class="node">
<title>primordiumL</title>
<text text-anchor="start" x="359" y="-368.8" font-family="Times New Roman,serif" font-size="14.00" fill="red">prīmōrdium</text>
<text text-anchor="start" x="380" y="-356.4" font-family="Times New Roman,serif" font-size="12.00">origin</text>
</g>
<!-- primusL&#45;&gt;primordiumL -->
<g id="edge25" class="edge">
<title>primusL&#45;&gt;primordiumL</title>
<path fill="none" stroke="black" d="M587.33,-430.9C544.59,-416.89 485.83,-397.61 444.05,-383.91"/>
<polygon fill="black" stroke="black" points="444.93,-380.51 434.34,-380.72 442.75,-387.17 444.93,-380.51"/>
</g>
<!-- primogenituraL -->
<g id="node35" class="node">
<title>primogenituraL</title>
<text text-anchor="start" x="1373" y="-362.3" font-family="Times New Roman,serif" font-size="14.00" fill="red">prīmōgenitūra</text>
</g>
<!-- primusL&#45;&gt;primogenituraL -->
<g id="edge33" class="edge">
<title>primusL&#45;&gt;primogenituraL</title>
<path fill="none" stroke="black" d="M697.68,-443.94C801.88,-434.28 1034.77,-412.18 1230.5,-390 1271.98,-385.3 1318.69,-379.38 1354.4,-374.73"/>
<polygon fill="black" stroke="black" points="1355.18,-378.16 1364.64,-373.39 1354.27,-371.22 1355.18,-378.16"/>
</g>
<!-- primeME -->
<g id="node7" class="node">
<title>primeME</title>
<text text-anchor="start" x="937" y="-290.8" font-family="Times New Roman,serif" font-weight="bold" font-size="14.00">Middle English</text>
<text text-anchor="start" x="967.5" y="-276.8" font-family="Times New Roman,serif" font-size="14.00" fill="red">prime</text>
<text text-anchor="start" x="945" y="-264.4" font-family="Times New Roman,serif" font-size="12.00">first in occurence</text>
</g>
<!-- prinOF&#45;&gt;primeME -->
<g id="edge6" class="edge">
<title>prinOF&#45;&gt;primeME</title>
<path fill="none" stroke="black" stroke-dasharray="1,5" d="M981.91,-347.8C982.14,-338.45 982.43,-326.55 982.69,-315.45"/>
<polygon fill="black" stroke="black" points="986.2,-315.24 982.94,-305.16 979.2,-315.07 986.2,-315.24"/>
</g>
<!-- prime -->
<g id="node8" class="node">
<title>prime</title>
<text text-anchor="start" x="939" y="-28.8" font-family="Times New Roman,serif" font-weight="bold" font-size="14.00">Modern English</text>
<text text-anchor="start" x="972.5" y="-14.8" font-family="Times New Roman,serif" font-size="14.00" fill="red">prime</text>
</g>
<!-- primeME&#45;&gt;prime -->
<g id="edge7" class="edge">
<title>primeME&#45;&gt;prime</title>
<path fill="none" stroke="black" d="M983.96,-256.56C984.89,-209.42 986.98,-103.38 987.96,-53.25"/>
<polygon fill="black" stroke="black" points="991.46,-53.23 988.16,-43.16 984.47,-53.09 991.46,-53.23"/>
</g>
<!-- primoI -->
<g id="node10" class="node">
<title>primoI</title>
<text text-anchor="start" x="472.5" y="-198.8" font-family="Times New Roman,serif" font-weight="bold" font-size="14.00">Italian</text>
<text text-anchor="start" x="475.5" y="-184.8" font-family="Times New Roman,serif" font-size="14.00" fill="red">primo</text>
</g>
<!-- primoOI&#45;&gt;primoI -->
<g id="edge9" class="edge">
<title>primoOI&#45;&gt;primoI</title>
<path fill="none" stroke="black" d="M525.75,-347.87C519.32,-318.51 506.16,-258.38 498.46,-223.23"/>
<polygon fill="black" stroke="black" points="501.82,-222.2 496.26,-213.18 494.98,-223.7 501.82,-222.2"/>
</g>
<!-- primoE -->
<g id="node11" class="node">
<title>primoE</title>
<text text-anchor="start" x="407" y="-28.8" font-family="Times New Roman,serif" font-weight="bold" font-size="14.00">Modern English</text>
<text text-anchor="start" x="439.5" y="-14.8" font-family="Times New Roman,serif" font-size="14.00" fill="red">primo</text>
</g>
<!-- primoI&#45;&gt;primoE -->
<g id="edge10" class="edge">
<title>primoI&#45;&gt;primoE</title>
<path fill="none" stroke="black" stroke-dasharray="1,5" d="M488.85,-176.97C482.6,-147.79 469.79,-88.01 462.3,-53.06"/>
<polygon fill="black" stroke="black" points="465.68,-52.12 460.16,-43.08 458.83,-53.59 465.68,-52.12"/>
</g>
<!-- premierOF -->
<g id="node13" class="node">
<title>premierOF</title>
<text text-anchor="start" x="607.5" y="-198.8" font-family="Times New Roman,serif" font-weight="bold" font-size="14.00">Old French</text>
<text text-anchor="start" x="621" y="-184.8" font-family="Times New Roman,serif" font-size="14.00" fill="red">premier</text>
</g>
<!-- primariusL&#45;&gt;premierOF -->
<g id="edge12" class="edge">
<title>primariusL&#45;&gt;premierOF</title>
<path fill="none" stroke="black" d="M642.5,-347.87C642.5,-318.51 642.5,-258.38 642.5,-223.23"/>
<polygon fill="black" stroke="black" points="646,-223.18 642.5,-213.18 639,-223.18 646,-223.18"/>
</g>
<!-- premiereF -->
<g id="node14" class="node">
<title>premiereF</title>
<text text-anchor="start" x="686.5" y="-113.8" font-family="Times New Roman,serif" font-weight="bold" font-size="14.00">French</text>
<text text-anchor="start" x="684" y="-99.8" font-family="Times New Roman,serif" font-size="14.00" fill="red">première</text>
</g>
<!-- premierOF&#45;&gt;premiereF -->
<g id="edge13" class="edge">
<title>premierOF&#45;&gt;premiereF</title>
<path fill="none" stroke="black" d="M656.18,-176.8C665.47,-165.12 677.92,-149.46 688.34,-136.35"/>
<polygon fill="black" stroke="black" points="691.36,-138.18 694.84,-128.18 685.88,-133.82 691.36,-138.18"/>
</g>
<!-- premierME -->
<g id="node15" class="node">
<title>premierME</title>
<text text-anchor="start" x="550" y="-113.8" font-family="Times New Roman,serif" font-weight="bold" font-size="14.00">Middle English</text>
<text text-anchor="start" x="575" y="-99.8" font-family="Times New Roman,serif" font-size="14.00" fill="red">premier</text>
</g>
<!-- premierOF&#45;&gt;premierME -->
<g id="edge14" class="edge">
<title>premierOF&#45;&gt;premierME</title>
<path fill="none" stroke="black" stroke-dasharray="1,5" d="M632.97,-176.8C626.62,-165.34 618.15,-150.06 610.97,-137.11"/>
<polygon fill="black" stroke="black" points="613.93,-135.23 606.02,-128.18 607.81,-138.62 613.93,-135.23"/>
</g>
<!-- premiere -->
<g id="node17" class="node">
<title>premiere</title>
<text text-anchor="start" x="673" y="-28.8" font-family="Times New Roman,serif" font-weight="bold" font-size="14.00">Modern English</text>
<text text-anchor="start" x="698" y="-14.8" font-family="Times New Roman,serif" font-size="14.00" fill="red">premiere</text>
</g>
<!-- premiereF&#45;&gt;premiere -->
<g id="edge16" class="edge">
<title>premiereF&#45;&gt;premiere</title>
<path fill="none" stroke="black" stroke-dasharray="1,5" d="M711.4,-91.8C713.28,-80.67 715.76,-65.94 717.9,-53.24"/>
<polygon fill="black" stroke="black" points="721.39,-53.62 719.6,-43.18 714.49,-52.45 721.39,-53.62"/>
</g>
<!-- premier -->
<g id="node16" class="node">
<title>premier</title>
<text text-anchor="start" x="540" y="-28.8" font-family="Times New Roman,serif" font-weight="bold" font-size="14.00">Modern English</text>
<text text-anchor="start" x="568" y="-14.8" font-family="Times New Roman,serif" font-size="14.00" fill="red">premier</text>
</g>
<!-- premierME&#45;&gt;premier -->
<g id="edge15" class="edge">
<title>premierME&#45;&gt;premier</title>
<path fill="none" stroke="black" d="M595.05,-91.8C594.11,-80.67 592.87,-65.94 591.8,-53.24"/>
<polygon fill="black" stroke="black" points="595.28,-52.85 590.95,-43.18 588.3,-53.43 595.28,-52.85"/>
</g>
<!-- aevumL -->
<g id="node18" class="node">
<title>aevumL</title>
<g id="a_node18"><a xlink:href="aiw-life.svg" xlink:title="&lt;font color=&quot;red&quot;&gt;aevum&lt;/font&gt;&lt;br/&gt;&lt;font point&#45;size=&quot;12&quot;&gt;age&lt;/font&gt;">
<path fill="none" stroke="black" stroke-dasharray="5,2" d="M238.5,-468C238.5,-468 208.5,-468 208.5,-468 202.5,-468 196.5,-462 196.5,-456 196.5,-456 196.5,-444 196.5,-444 196.5,-438 202.5,-432 208.5,-432 208.5,-432 238.5,-432 238.5,-432 244.5,-432 250.5,-438 250.5,-444 250.5,-444 250.5,-456 250.5,-456 250.5,-462 244.5,-468 238.5,-468"/>
<text text-anchor="start" x="205" y="-452.8" font-family="Times New Roman,serif" font-size="14.00" fill="red">aevum</text>
<text text-anchor="start" x="215.5" y="-440.4" font-family="Times New Roman,serif" font-size="12.00">age</text>
</a>
</g>
</g>
<!-- aevumL&#45;&gt;primaevusL -->
<g id="edge18" class="edge">
<title>aevumL&#45;&gt;primaevusL</title>
<path fill="none" stroke="black" d="M223.5,-431.61C223.5,-420.77 223.5,-406.6 223.5,-394.29"/>
<polygon fill="black" stroke="black" points="227,-394.08 223.5,-384.08 220,-394.08 227,-394.08"/>
</g>
<!-- primeval -->
<g id="node20" class="node">
<title>primeval</title>
<text text-anchor="start" x="141" y="-28.8" font-family="Times New Roman,serif" font-weight="bold" font-size="14.00">Modern English</text>
<text text-anchor="start" x="166.5" y="-14.8" font-family="Times New Roman,serif" font-size="14.00" fill="red">primeval</text>
</g>
<!-- primaevusL&#45;&gt;primeval -->
<g id="edge19" class="edge">
<title>primaevusL&#45;&gt;primeval</title>
<path fill="none" stroke="black" stroke-dasharray="1,5" d="M221.82,-347.72C216.46,-292.64 199.73,-120.83 193.18,-53.48"/>
<polygon fill="black" stroke="black" points="196.63,-52.86 192.18,-43.24 189.66,-53.53 196.63,-52.86"/>
</g>
<!-- primitivusL -->
<g id="node22" class="node">
<title>primitivusL</title>
<text text-anchor="start" x="733.5" y="-277.3" font-family="Times New Roman,serif" font-size="14.00" fill="red">prīmitīvus</text>
</g>
<!-- primitusL&#45;&gt;primitivusL -->
<g id="edge21" class="edge">
<title>primitusL&#45;&gt;primitivusL</title>
<path fill="none" stroke="black" d="M749.02,-347.8C751.3,-336.67 754.32,-321.94 756.92,-309.24"/>
<polygon fill="black" stroke="black" points="760.4,-309.67 758.98,-299.18 753.55,-308.27 760.4,-309.67"/>
</g>
<!-- primitifOF -->
<g id="node23" class="node">
<title>primitifOF</title>
<text text-anchor="start" x="762.5" y="-198.8" font-family="Times New Roman,serif" font-weight="bold" font-size="14.00">Old French</text>
<text text-anchor="start" x="749.5" y="-184.8" font-family="Times New Roman,serif" font-size="14.00" fill="red">primitif, primitive</text>
</g>
<!-- primitivusL&#45;&gt;primitifOF -->
<g id="edge22" class="edge">
<title>primitivusL&#45;&gt;primitifOF</title>
<path fill="none" stroke="black" d="M769.75,-262.6C774.57,-251.03 780.99,-235.62 786.44,-222.54"/>
<polygon fill="black" stroke="black" points="789.76,-223.67 790.38,-213.1 783.3,-220.98 789.76,-223.67"/>
</g>
<!-- primitiveME -->
<g id="node24" class="node">
<title>primitiveME</title>
<text text-anchor="start" x="788" y="-113.8" font-family="Times New Roman,serif" font-weight="bold" font-size="14.00">Middle English</text>
<text text-anchor="start" x="810" y="-99.8" font-family="Times New Roman,serif" font-size="14.00" fill="red">primitive</text>
</g>
<!-- primitifOF&#45;&gt;primitiveME -->
<g id="edge23" class="edge">
<title>primitifOF&#45;&gt;primitiveME</title>
<path fill="none" stroke="black" stroke-dasharray="1,5" d="M805.17,-176.8C810.23,-165.45 816.96,-150.35 822.69,-137.48"/>
<polygon fill="black" stroke="black" points="825.97,-138.73 826.84,-128.18 819.57,-135.88 825.97,-138.73"/>
</g>
<!-- primitive -->
<g id="node25" class="node">
<title>primitive</title>
<text text-anchor="start" x="806" y="-28.8" font-family="Times New Roman,serif" font-weight="bold" font-size="14.00">Modern English</text>
<text text-anchor="start" x="831" y="-14.8" font-family="Times New Roman,serif" font-size="14.00" fill="red">primitive</text>
</g>
<!-- primitiveME&#45;&gt;primitive -->
<g id="edge24" class="edge">
<title>primitiveME&#45;&gt;primitive</title>
<path fill="none" stroke="black" d="M838.85,-91.8C841.67,-80.67 845.39,-65.94 848.61,-53.24"/>
<polygon fill="black" stroke="black" points="852.09,-53.73 851.15,-43.18 845.31,-52.01 852.09,-53.73"/>
</g>
<!-- ordiri -->
<g id="node26" class="node">
<title>ordiri</title>
<text text-anchor="start" x="375.5" y="-452.8" font-family="Times New Roman,serif" font-size="14.00" fill="red">ōrdīrī</text>
<text text-anchor="start" x="352" y="-440.4" font-family="Times New Roman,serif" font-size="12.00">to begin to weave</text>
</g>
<!-- ordiri&#45;&gt;primordiumL -->
<g id="edge26" class="edge">
<title>ordiri&#45;&gt;primordiumL</title>
<path fill="none" stroke="black" d="M392.5,-431.61C392.5,-420.77 392.5,-406.6 392.5,-394.29"/>
<polygon fill="black" stroke="black" points="396,-394.08 392.5,-384.08 389,-394.08 396,-394.08"/>
</g>
<!-- primordialisL -->
<g id="node28" class="node">
<title>primordialisL</title>
<text text-anchor="start" x="329.5" y="-277.3" font-family="Times New Roman,serif" font-size="14.00" fill="red">prīmōrdiālis</text>
</g>
<!-- primordiumL&#45;&gt;primordialisL -->
<g id="edge27" class="edge">
<title>primordiumL&#45;&gt;primordialisL</title>
<path fill="none" stroke="black" d="M386.49,-347.8C382.56,-336.56 377.35,-321.65 372.89,-308.86"/>
<polygon fill="black" stroke="black" points="376.1,-307.46 369.5,-299.18 369.5,-309.77 376.1,-307.46"/>
</g>
<!-- primordialME -->
<g id="node29" class="node">
<title>primordialME</title>
<text text-anchor="start" x="302" y="-113.8" font-family="Times New Roman,serif" font-weight="bold" font-size="14.00">Middle English</text>
<text text-anchor="start" x="319.5" y="-99.8" font-family="Times New Roman,serif" font-size="14.00" fill="red">primordial</text>
</g>
<!-- primordialisL&#45;&gt;primordialME -->
<g id="edge28" class="edge">
<title>primordialisL&#45;&gt;primordialME</title>
<path fill="none" stroke="black" stroke-dasharray="1,5" d="M361.98,-262.87C359.37,-233.51 354.04,-173.38 350.92,-138.23"/>
<polygon fill="black" stroke="black" points="354.4,-137.83 350.02,-128.18 347.42,-138.45 354.4,-137.83"/>
</g>
<!-- primordial -->
<g id="node30" class="node">
<title>primordial</title>
<text text-anchor="start" x="274" y="-28.8" font-family="Times New Roman,serif" font-weight="bold" font-size="14.00">Modern English</text>
<text text-anchor="start" x="294.5" y="-14.8" font-family="Times New Roman,serif" font-size="14.00" fill="red">primordial</text>
</g>
<!-- primordialME&#45;&gt;primordial -->
<g id="edge29" class="edge">
<title>primordialME&#45;&gt;primordial</title>
<path fill="none" stroke="black" d="M343.32,-91.8C339.93,-80.56 335.44,-65.65 331.59,-52.86"/>
<polygon fill="black" stroke="black" points="334.91,-51.74 328.67,-43.18 328.21,-53.76 334.91,-51.74"/>
</g>
<!-- gene -->
<g id="node31" class="node">
<title>gene</title>
<g id="a_node31"><a xlink:href="gen-birth.svg" xlink:title="&lt;b&gt;Indo&#45;European&lt;/b&gt;&lt;br/&gt;&lt;font color=&quot;red&quot;&gt;genə&#45;&lt;/font&gt;&lt;br/&gt;&lt;font point&#45;size=&quot;12&quot;&gt;to give birth, beget&lt;/font&gt;">
<path fill="none" stroke="black" stroke-dasharray="5,2" d="M1455,-726C1455,-726 1370,-726 1370,-726 1364,-726 1358,-720 1358,-714 1358,-714 1358,-690 1358,-690 1358,-684 1364,-678 1370,-678 1370,-678 1455,-678 1455,-678 1461,-678 1467,-684 1467,-690 1467,-690 1467,-714 1467,-714 1467,-720 1461,-726 1455,-726"/>
<text text-anchor="start" x="1366" y="-711.8" font-family="Times New Roman,serif" font-weight="bold" font-size="14.00">Indo&#45;European</text>
<text text-anchor="start" x="1397" y="-697.8" font-family="Times New Roman,serif" font-size="14.00" fill="red">genə&#45;</text>
<text text-anchor="start" x="1370" y="-685.4" font-family="Times New Roman,serif" font-size="12.00">to give birth, beget</text>
</a>
</g>
</g>
<!-- gignereL -->
<g id="node32" class="node">
<title>gignereL</title>
<text text-anchor="start" x="1396" y="-627.8" font-family="Times New Roman,serif" font-weight="bold" font-size="14.00">Latin</text>
<text text-anchor="start" x="1392.5" y="-613.8" font-family="Times New Roman,serif" font-size="14.00" fill="red">gignere</text>
<text text-anchor="start" x="1394" y="-601.4" font-family="Times New Roman,serif" font-size="12.00">to beget</text>
</g>
<!-- gene&#45;&gt;gignereL -->
<g id="edge30" class="edge">
<title>gene&#45;&gt;gignereL</title>
<path fill="none" stroke="black" d="M1412.5,-677.72C1412.5,-669.78 1412.5,-660.73 1412.5,-652.16"/>
<polygon fill="black" stroke="black" points="1416,-652.05 1412.5,-642.05 1409,-652.05 1416,-652.05"/>
</g>
<!-- genitusL -->
<g id="node33" class="node">
<title>genitusL</title>
<text text-anchor="start" x="1392.5" y="-530.3" font-family="Times New Roman,serif" font-size="14.00" fill="red">genitus</text>
</g>
<!-- gignereL&#45;&gt;genitusL -->
<g id="edge31" class="edge">
<title>gignereL&#45;&gt;genitusL</title>
<path fill="none" stroke="black" d="M1412.5,-593.72C1412.5,-583.88 1412.5,-572.36 1412.5,-562.13"/>
<polygon fill="black" stroke="black" points="1416,-562.08 1412.5,-552.08 1409,-562.08 1416,-562.08"/>
</g>
<!-- genituraL -->
<g id="node34" class="node">
<title>genituraL</title>
<text text-anchor="start" x="1390.5" y="-452.8" font-family="Times New Roman,serif" font-size="14.00" fill="red">genitūra</text>
<text text-anchor="start" x="1402" y="-440.4" font-family="Times New Roman,serif" font-size="12.00">birth</text>
</g>
<!-- genitusL&#45;&gt;genituraL -->
<g id="edge32" class="edge">
<title>genitusL&#45;&gt;genituraL</title>
<path fill="none" stroke="black" d="M1412.5,-515.61C1412.5,-504.77 1412.5,-490.6 1412.5,-478.29"/>
<polygon fill="black" stroke="black" points="1416,-478.08 1412.5,-468.08 1409,-478.08 1416,-478.08"/>
</g>
<!-- genituraL&#45;&gt;primogenituraL -->
<g id="edge34" class="edge">
<title>genituraL&#45;&gt;primogenituraL</title>
<path fill="none" stroke="black" d="M1412.5,-431.61C1412.5,-420.77 1412.5,-406.6 1412.5,-394.29"/>
<polygon fill="black" stroke="black" points="1416,-394.08 1412.5,-384.08 1409,-394.08 1416,-394.08"/>
</g>
<!-- primogeniture -->
<g id="node36" class="node">
<title>primogeniture</title>
<text text-anchor="start" x="1471" y="-28.8" font-family="Times New Roman,serif" font-weight="bold" font-size="14.00">Modern English</text>
<text text-anchor="start" x="1482" y="-14.8" font-family="Times New Roman,serif" font-size="14.00" fill="red">primogeniture</text>
</g>
<!-- primogenituraL&#45;&gt;primogeniture -->
<g id="edge35" class="edge">
<title>primogenituraL&#45;&gt;primogeniture</title>
<path fill="none" stroke="black" stroke-dasharray="1,5" d="M1418,-347.72C1435.59,-292.52 1490.51,-120.12 1511.88,-53.07"/>
<polygon fill="black" stroke="black" points="1515.31,-53.83 1515.01,-43.24 1508.64,-51.71 1515.31,-53.83"/>
</g>
<!-- kap -->
<g id="node37" class="node">
<title>kap</title>
<g id="a_node37"><a xlink:href="kap-grasp.svg" xlink:title="&lt;b&gt;Indo&#45;European&lt;/b&gt;&lt;br/&gt;&lt;font color=&quot;red&quot;&gt;kap&#45;&lt;/font&gt;&lt;br/&gt;&lt;font point&#45;size=&quot;12&quot;&gt;to grasp&lt;/font&gt;">
<path fill="none" stroke="black" stroke-dasharray="5,2" d="M1182,-558C1182,-558 1097,-558 1097,-558 1091,-558 1085,-552 1085,-546 1085,-546 1085,-522 1085,-522 1085,-516 1091,-510 1097,-510 1097,-510 1182,-510 1182,-510 1188,-510 1194,-516 1194,-522 1194,-522 1194,-546 1194,-546 1194,-552 1188,-558 1182,-558"/>
<text text-anchor="start" x="1093" y="-543.8" font-family="Times New Roman,serif" font-weight="bold" font-size="14.00">Indo&#45;European</text>
<text text-anchor="start" x="1127" y="-529.8" font-family="Times New Roman,serif" font-size="14.00" fill="red">kap&#45;</text>
<text text-anchor="start" x="1121" y="-517.4" font-family="Times New Roman,serif" font-size="12.00">to grasp</text>
</a>
</g>
</g>
<!-- cepsL -->
<g id="node38" class="node">
<title>cepsL</title>
<text text-anchor="start" x="1123" y="-459.8" font-family="Times New Roman,serif" font-weight="bold" font-size="14.00">Latin</text>
<text text-anchor="start" x="1124" y="-445.8" font-family="Times New Roman,serif" font-size="14.00" fill="red">&#45;ceps</text>
<text text-anchor="start" x="1127.5" y="-433.4" font-family="Times New Roman,serif" font-size="12.00">taker</text>
</g>
<!-- kap&#45;&gt;cepsL -->
<g id="edge36" class="edge">
<title>kap&#45;&gt;cepsL</title>
<path fill="none" stroke="black" d="M1139.5,-509.72C1139.5,-501.78 1139.5,-492.73 1139.5,-484.16"/>
<polygon fill="black" stroke="black" points="1143,-484.05 1139.5,-474.05 1136,-484.05 1143,-484.05"/>
</g>
<!-- cepsL&#45;&gt;princepsL -->
<g id="edge38" class="edge">
<title>cepsL&#45;&gt;princepsL</title>
<path fill="none" stroke="black" d="M1139.5,-425.72C1139.5,-417.78 1139.5,-408.73 1139.5,-400.16"/>
<polygon fill="black" stroke="black" points="1143,-400.05 1139.5,-390.05 1136,-400.05 1143,-400.05"/>
</g>
<!-- princeOF -->
<g id="node40" class="node">
<title>princeOF</title>
<text text-anchor="start" x="1318.5" y="-291.8" font-family="Times New Roman,serif" font-weight="bold" font-size="14.00">Old French</text>
<text text-anchor="start" x="1336" y="-277.8" font-family="Times New Roman,serif" font-size="14.00" fill="red">prince</text>
<text text-anchor="start" x="1327" y="-263.8" font-family="Times New Roman,serif" font-size="14.00" fill="red">princesse</text>
</g>
<!-- princepsL&#45;&gt;princeOF -->
<g id="edge39" class="edge">
<title>princepsL&#45;&gt;princeOF</title>
<path fill="none" stroke="black" d="M1198.83,-341.99C1230.75,-329.61 1269.79,-314.47 1300.66,-302.5"/>
<polygon fill="black" stroke="black" points="1302.32,-305.61 1310.37,-298.73 1299.78,-299.08 1302.32,-305.61"/>
</g>
<!-- principalisL -->
<g id="node43" class="node">
<title>principalisL</title>
<text text-anchor="start" x="1100" y="-277.3" font-family="Times New Roman,serif" font-size="14.00" fill="red">prīncipālis</text>
</g>
<!-- princepsL&#45;&gt;principalisL -->
<g id="edge42" class="edge">
<title>princepsL&#45;&gt;principalisL</title>
<path fill="none" stroke="black" d="M1136.71,-341.88C1135.49,-331.73 1134.05,-319.75 1132.78,-309.18"/>
<polygon fill="black" stroke="black" points="1136.24,-308.72 1131.57,-299.21 1129.29,-309.55 1136.24,-308.72"/>
</g>
<!-- principiumL -->
<g id="node47" class="node">
<title>principiumL</title>
<text text-anchor="start" x="1196" y="-277.3" font-family="Times New Roman,serif" font-size="14.00" fill="red">prīncipium</text>
</g>
<!-- princepsL&#45;&gt;principiumL -->
<g id="edge46" class="edge">
<title>princepsL&#45;&gt;principiumL</title>
<path fill="none" stroke="black" d="M1163.73,-341.88C1175.37,-330.78 1189.3,-317.49 1201.08,-306.25"/>
<polygon fill="black" stroke="black" points="1203.65,-308.64 1208.47,-299.21 1198.81,-303.58 1203.65,-308.64"/>
</g>
<!-- princeME -->
<g id="node41" class="node">
<title>princeME</title>
<text text-anchor="start" x="1333" y="-205.8" font-family="Times New Roman,serif" font-weight="bold" font-size="14.00">Middle English</text>
<text text-anchor="start" x="1362" y="-191.8" font-family="Times New Roman,serif" font-size="14.00" fill="red">prince</text>
<text text-anchor="start" x="1353" y="-177.8" font-family="Times New Roman,serif" font-size="14.00" fill="red">princesse</text>
</g>
<!-- princeOF&#45;&gt;princeME -->
<g id="edge40" class="edge">
<title>princeOF&#45;&gt;princeME</title>
<path fill="none" stroke="black" stroke-dasharray="1,5" d="M1361.02,-255.7C1363.5,-247.69 1366.3,-238.63 1368.97,-230.03"/>
<polygon fill="black" stroke="black" points="1372.38,-230.83 1372,-220.24 1365.7,-228.76 1372.38,-230.83"/>
</g>
<!-- prince -->
<g id="node42" class="node">
<title>prince</title>
<text text-anchor="start" x="1338" y="-35.8" font-family="Times New Roman,serif" font-weight="bold" font-size="14.00">Modern English</text>
<text text-anchor="start" x="1370" y="-21.8" font-family="Times New Roman,serif" font-size="14.00" fill="red">prince</text>
<text text-anchor="start" x="1370" y="-7.8" font-family="Times New Roman,serif" font-size="14.00" fill="red">prince</text>
</g>
<!-- princeME&#45;&gt;prince -->
<g id="edge41" class="edge">
<title>princeME&#45;&gt;prince</title>
<path fill="none" stroke="black" d="M1380.65,-169.93C1382.02,-141.11 1384.33,-92.66 1385.88,-60.02"/>
<polygon fill="black" stroke="black" points="1389.38,-60.18 1386.36,-50.03 1382.38,-59.85 1389.38,-60.18"/>
</g>
<!-- principalOF -->
<g id="node44" class="node">
<title>principalOF</title>
<text text-anchor="start" x="1089.5" y="-198.8" font-family="Times New Roman,serif" font-weight="bold" font-size="14.00">Old French</text>
<text text-anchor="start" x="1100" y="-184.8" font-family="Times New Roman,serif" font-size="14.00" fill="red">principal</text>
</g>
<!-- principalisL&#45;&gt;principalOF -->
<g id="edge43" class="edge">
<title>principalisL&#45;&gt;principalOF</title>
<path fill="none" stroke="black" d="M1128.46,-262.6C1127.79,-251.26 1126.89,-236.23 1126.13,-223.32"/>
<polygon fill="black" stroke="black" points="1129.61,-222.87 1125.52,-213.1 1122.62,-223.29 1129.61,-222.87"/>
</g>
<!-- principalME -->
<g id="node45" class="node">
<title>principalME</title>
<text text-anchor="start" x="1076" y="-113.8" font-family="Times New Roman,serif" font-weight="bold" font-size="14.00">Middle English</text>
<text text-anchor="start" x="1098" y="-99.8" font-family="Times New Roman,serif" font-size="14.00" fill="red">principal</text>
</g>
<!-- principalOF&#45;&gt;principalME -->
<g id="edge44" class="edge">
<title>principalOF&#45;&gt;principalME</title>
<path fill="none" stroke="black" stroke-dasharray="1,5" d="M1124.09,-176.8C1123.82,-165.67 1123.46,-150.94 1123.16,-138.24"/>
<polygon fill="black" stroke="black" points="1126.65,-138.09 1122.91,-128.18 1119.66,-138.26 1126.65,-138.09"/>
</g>
<!-- principal -->
<g id="node46" class="node">
<title>principal</title>
<text text-anchor="start" x="1072" y="-28.8" font-family="Times New Roman,serif" font-weight="bold" font-size="14.00">Modern English</text>
<text text-anchor="start" x="1097" y="-14.8" font-family="Times New Roman,serif" font-size="14.00" fill="red">principal</text>
</g>
<!-- principalME&#45;&gt;principal -->
<g id="edge45" class="edge">
<title>principalME&#45;&gt;principal</title>
<path fill="none" stroke="black" d="M1122.29,-91.8C1122.16,-80.67 1121.98,-65.94 1121.83,-53.24"/>
<polygon fill="black" stroke="black" points="1125.33,-53.13 1121.71,-43.18 1118.33,-53.22 1125.33,-53.13"/>
</g>
<!-- principeOF -->
<g id="node48" class="node">
<title>principeOF</title>
<text text-anchor="start" x="1210.5" y="-198.8" font-family="Times New Roman,serif" font-weight="bold" font-size="14.00">Old French</text>
<text text-anchor="start" x="1222.5" y="-184.8" font-family="Times New Roman,serif" font-size="14.00" fill="red">principe</text>
</g>
<!-- principiumL&#45;&gt;principeOF -->
<g id="edge47" class="edge">
<title>principiumL&#45;&gt;principeOF</title>
<path fill="none" stroke="black" d="M1230.44,-262.6C1233.03,-251.14 1236.47,-235.93 1239.41,-222.93"/>
<polygon fill="black" stroke="black" points="1242.84,-223.62 1241.63,-213.1 1236.01,-222.08 1242.84,-223.62"/>
</g>
<!-- principleME -->
<g id="node49" class="node">
<title>principleME</title>
<text text-anchor="start" x="1205" y="-113.8" font-family="Times New Roman,serif" font-weight="bold" font-size="14.00">Middle English</text>
<text text-anchor="start" x="1227" y="-99.8" font-family="Times New Roman,serif" font-size="14.00" fill="red">principle</text>
</g>
<!-- principeOF&#45;&gt;principleME -->
<g id="edge48" class="edge">
<title>principeOF&#45;&gt;principleME</title>
<path fill="none" stroke="black" stroke-dasharray="1,5" d="M1246.74,-176.8C1247.55,-165.67 1248.61,-150.94 1249.53,-138.24"/>
<polygon fill="black" stroke="black" points="1253.03,-138.4 1250.26,-128.18 1246.05,-137.9 1253.03,-138.4"/>
</g>
<!-- principle -->
<g id="node50" class="node">
<title>principle</title>
<text text-anchor="start" x="1205" y="-28.8" font-family="Times New Roman,serif" font-weight="bold" font-size="14.00">Modern English</text>
<text text-anchor="start" x="1230" y="-14.8" font-family="Times New Roman,serif" font-size="14.00" fill="red">principle</text>
</g>
<!-- principleME&#45;&gt;principle -->
<g id="edge49" class="edge">
<title>principleME&#45;&gt;principle</title>
<path fill="none" stroke="black" d="M1252.12,-91.8C1252.52,-80.67 1253.06,-65.94 1253.52,-53.24"/>
<polygon fill="black" stroke="black" points="1257.02,-53.3 1253.88,-43.18 1250.02,-53.04 1257.02,-53.3"/>
</g>
<!-- pristine -->
<g id="node52" class="node">
<title>pristine</title>
<text text-anchor="start" x="8" y="-28.8" font-family="Times New Roman,serif" font-weight="bold" font-size="14.00">Modern English</text>
<text text-anchor="start" x="37" y="-14.8" font-family="Times New Roman,serif" font-size="14.00" fill="red">pristine</text>
</g>
<!-- pristinusL&#45;&gt;pristine -->
<g id="edge51" class="edge">
<title>pristinusL&#45;&gt;pristine</title>
<path fill="none" stroke="black" stroke-dasharray="1,5" d="M74.09,-85.88C71.25,-75.63 67.89,-63.5 64.94,-52.85"/>
<polygon fill="black" stroke="black" points="68.31,-51.91 62.27,-43.21 61.57,-53.78 68.31,-51.91"/>
</g>
</g>
</svg>
