<?xml version="1.0" encoding="UTF-8" standalone="no"?>
<!DOCTYPE svg PUBLIC "-//W3C//DTD SVG 1.1//EN"
 "http://www.w3.org/Graphics/SVG/1.1/DTD/svg11.dtd">
<!-- Generated by graphviz version 2.44.1 (20200629.0846)
 -->
<!-- Title: 2 Pages: 1 -->
<svg width="922pt" height="755pt"
 viewBox="0.00 0.00 922.00 755.00" xmlns="http://www.w3.org/2000/svg" xmlns:xlink="http://www.w3.org/1999/xlink">
<g id="graph0" class="graph" transform="scale(1 1) rotate(0) translate(4 751)">
<title>2</title>
<polygon fill="white" stroke="transparent" points="-4,4 -4,-751 918,-751 918,4 -4,4"/>
<!-- per -->
<g id="node1" class="node">
<title>per</title>
<text text-anchor="start" x="352.5" y="-728.3" font-family="Times New Roman,serif" font-weight="bold" font-size="14.00">Indo&#45;European</text>
<text text-anchor="start" x="357.5" y="-702.7" font-family="Times New Roman,serif" font-size="16.00" fill="red">per&#45;</text>
<text text-anchor="start" x="405.5" y="-709.5" font-family="Times New Roman,serif" font-size="10.00">to lead,</text>
<text text-anchor="start" x="400.5" y="-698.5" font-family="Times New Roman,serif" font-size="10.00">pass over</text>
</g>
<!-- por -->
<g id="node2" class="node">
<title>por</title>
<text text-anchor="start" x="386" y="-629.3" font-family="Times New Roman,serif" font-size="14.00" fill="red">por&#45;</text>
</g>
<!-- per&#45;&gt;por -->
<g id="edge1" class="edge">
<title>per&#45;&gt;por</title>
<path fill="none" stroke="black" d="M398.5,-687.65C398.5,-679.15 398.5,-669.88 398.5,-661.48"/>
<polygon fill="black" stroke="black" points="402,-661.41 398.5,-651.41 395,-661.41 402,-661.41"/>
</g>
<!-- faranGm -->
<g id="node3" class="node">
<title>faranGm</title>
<text text-anchor="middle" x="101.5" y="-536.3" font-family="Times New Roman,serif" font-size="14.00">faranGm</text>
</g>
<!-- por&#45;&gt;faranGm -->
<g id="edge2" class="edge">
<title>por&#45;&gt;faranGm</title>
<path fill="none" stroke="black" d="M371.3,-627.22C323.81,-618.34 223.26,-597.14 143.5,-564 142.33,-563.52 141.16,-563.01 139.98,-562.48"/>
<polygon fill="black" stroke="black" points="141.47,-559.31 130.94,-558.14 138.44,-565.63 141.47,-559.31"/>
</g>
<!-- poro -->
<g id="node4" class="node">
<title>poro</title>
<text text-anchor="start" x="161" y="-536.3" font-family="Times New Roman,serif" font-size="14.00" fill="red">por&#45;o&#45;</text>
</g>
<!-- por&#45;&gt;poro -->
<g id="edge3" class="edge">
<title>por&#45;&gt;poro</title>
<path fill="none" stroke="black" d="M371.39,-623.92C334.99,-612.64 268.74,-590.52 215.5,-564 214.83,-563.67 214.15,-563.32 213.48,-562.97"/>
<polygon fill="black" stroke="black" points="215.11,-559.87 204.67,-558.03 211.68,-565.97 215.11,-559.87"/>
</g>
<!-- poreyo -->
<g id="node5" class="node">
<title>poreyo</title>
<text text-anchor="start" x="374" y="-536.3" font-family="Times New Roman,serif" font-size="14.00" fill="red">por&#45;eyo&#45;</text>
</g>
<!-- por&#45;&gt;poreyo -->
<g id="edge4" class="edge">
<title>por&#45;&gt;poreyo</title>
<path fill="none" stroke="black" d="M398.5,-614.88C398.5,-601.79 398.5,-583.48 398.5,-568.36"/>
<polygon fill="black" stroke="black" points="402,-568.04 398.5,-558.04 395,-568.04 402,-568.04"/>
</g>
<!-- poor -->
<g id="node6" class="node">
<title>poor</title>
<text text-anchor="start" x="591" y="-536.3" font-family="Times New Roman,serif" font-size="14.00" fill="red">pōr&#45;</text>
</g>
<!-- por&#45;&gt;poor -->
<g id="edge5" class="edge">
<title>por&#45;&gt;poor</title>
<path fill="none" stroke="black" d="M425.61,-622.66C459.35,-610.66 518.4,-588.46 566.5,-564 567.05,-563.72 567.6,-563.44 568.15,-563.15"/>
<polygon fill="black" stroke="black" points="570.1,-566.07 577.14,-558.14 566.7,-559.95 570.1,-566.07"/>
</g>
<!-- porno -->
<g id="node7" class="node">
<title>porno</title>
<text text-anchor="start" x="668" y="-536.3" font-family="Times New Roman,serif" font-size="14.00" fill="red">por&#45;no&#45;</text>
</g>
<!-- por&#45;&gt;porno -->
<g id="edge6" class="edge">
<title>por&#45;&gt;porno</title>
<path fill="none" stroke="black" d="M425.7,-625.84C470.82,-615.28 563.69,-592.13 639.5,-564 643.17,-562.64 646.95,-561.12 650.71,-559.53"/>
<polygon fill="black" stroke="black" points="652.18,-562.71 659.94,-555.5 649.37,-556.3 652.18,-562.71"/>
<text text-anchor="middle" x="585" y="-585.8" font-family="Times New Roman,serif" font-size="14.00">?</text>
</g>
<!-- porosG -->
<g id="node12" class="node">
<title>porosG</title>
<text text-anchor="start" x="120.5" y="-451.8" font-family="Times New Roman,serif" font-weight="bold" font-size="14.00">Greek</text>
<text text-anchor="start" x="123.5" y="-437.8" font-family="Times New Roman,serif" font-size="14.00" fill="red">poros</text>
<text text-anchor="start" x="102.5" y="-425.4" font-family="Times New Roman,serif" font-size="12.00">journey, passage</text>
</g>
<!-- poro&#45;&gt;porosG -->
<g id="edge11" class="edge">
<title>poro&#45;&gt;porosG</title>
<path fill="none" stroke="black" d="M172.53,-521.84C167.3,-508.97 160,-490.99 153.68,-475.44"/>
<polygon fill="black" stroke="black" points="156.91,-474.09 149.9,-466.15 150.42,-476.73 156.91,-474.09"/>
</g>
<!-- farjanGm -->
<g id="node8" class="node">
<title>farjanGm</title>
<text text-anchor="start" x="287" y="-451.8" font-family="Times New Roman,serif" font-weight="bold" font-size="14.00">Germanic</text>
<text text-anchor="start" x="302" y="-437.8" font-family="Times New Roman,serif" font-size="14.00" fill="red">farjan</text>
<text text-anchor="start" x="300.5" y="-425.4" font-family="Times New Roman,serif" font-size="12.00">to ferry</text>
</g>
<!-- poreyo&#45;&gt;farjanGm -->
<g id="edge7" class="edge">
<title>poreyo&#45;&gt;farjanGm</title>
<path fill="none" stroke="black" d="M384.02,-521.84C372.86,-508.61 357.13,-489.97 343.77,-474.13"/>
<polygon fill="black" stroke="black" points="346.15,-471.53 337.03,-466.15 340.8,-476.05 346.15,-471.53"/>
</g>
<!-- parayatiS -->
<g id="node26" class="node">
<title>parayatiS</title>
<text text-anchor="start" x="391.5" y="-464.8" font-family="Times New Roman,serif" font-weight="bold" font-size="14.00">Sanskrit</text>
<text text-anchor="start" x="393.5" y="-450.8" font-family="Times New Roman,serif" font-size="14.00" fill="red">pārayati,</text>
<text text-anchor="start" x="396" y="-436.8" font-family="Times New Roman,serif" font-size="14.00" fill="red">pālayati</text>
<text text-anchor="start" x="382.5" y="-424.4" font-family="Times New Roman,serif" font-size="12.00">he leads across</text>
<text text-anchor="start" x="383" y="-412.4" font-family="Times New Roman,serif" font-size="12.00">safely, protects</text>
</g>
<!-- poreyo&#45;&gt;parayatiS -->
<g id="edge24" class="edge">
<title>poreyo&#45;&gt;parayatiS</title>
<path fill="none" stroke="black" d="M401.9,-521.84C403.71,-512.66 406.05,-500.88 408.35,-489.23"/>
<polygon fill="black" stroke="black" points="411.85,-489.59 410.35,-479.1 404.98,-488.23 411.85,-489.59"/>
</g>
<!-- forjanGm -->
<g id="node30" class="node">
<title>forjanGm</title>
<text text-anchor="start" x="573" y="-445.8" font-family="Times New Roman,serif" font-weight="bold" font-size="14.00">Germanic</text>
<text text-anchor="start" x="585" y="-431.8" font-family="Times New Roman,serif" font-size="14.00" fill="red">fōr&#45;jan</text>
</g>
<!-- poor&#45;&gt;forjanGm -->
<g id="edge29" class="edge">
<title>poor&#45;&gt;forjanGm</title>
<path fill="none" stroke="black" d="M603.5,-521.84C603.5,-507.5 603.5,-486.81 603.5,-470.22"/>
<polygon fill="black" stroke="black" points="607,-470.01 603.5,-460.01 600,-470.01 607,-470.01"/>
</g>
<!-- farnoGm -->
<g id="node35" class="node">
<title>farnoGm</title>
<text text-anchor="start" x="669" y="-451.8" font-family="Times New Roman,serif" font-weight="bold" font-size="14.00">Germanic</text>
<text text-anchor="start" x="682.5" y="-437.8" font-family="Times New Roman,serif" font-size="14.00" fill="red">far&#45;nō</text>
<text text-anchor="start" x="673" y="-425.4" font-family="Times New Roman,serif" font-size="12.00">feather, leaf</text>
</g>
<!-- porno&#45;&gt;farnoGm -->
<g id="edge34" class="edge">
<title>porno&#45;&gt;farnoGm</title>
<path fill="none" stroke="black" d="M691.29,-521.84C692.6,-509.22 694.43,-491.67 696.03,-476.33"/>
<polygon fill="black" stroke="black" points="699.53,-476.46 697.09,-466.15 692.57,-475.73 699.53,-476.46"/>
</g>
<!-- ferianOE -->
<g id="node9" class="node">
<title>ferianOE</title>
<text text-anchor="start" x="286" y="-346.8" font-family="Times New Roman,serif" font-weight="bold" font-size="14.00">Old English</text>
<text text-anchor="start" x="307" y="-332.8" font-family="Times New Roman,serif" font-size="14.00" fill="red">ferian</text>
</g>
<!-- farjanGm&#45;&gt;ferianOE -->
<g id="edge8" class="edge">
<title>farjanGm&#45;&gt;ferianOE</title>
<path fill="none" stroke="black" d="M318.71,-417.52C319.42,-403.67 320.33,-386.07 321.08,-371.56"/>
<polygon fill="black" stroke="black" points="324.59,-371.35 321.61,-361.18 317.6,-370.99 324.59,-371.35"/>
</g>
<!-- ferienME -->
<g id="node10" class="node">
<title>ferienME</title>
<text text-anchor="start" x="276" y="-160.8" font-family="Times New Roman,serif" font-weight="bold" font-size="14.00">Middle English</text>
<text text-anchor="start" x="307" y="-146.8" font-family="Times New Roman,serif" font-size="14.00" fill="red">ferien</text>
</g>
<!-- ferianOE&#45;&gt;ferienME -->
<g id="edge9" class="edge">
<title>ferianOE&#45;&gt;ferienME</title>
<path fill="none" stroke="black" d="M322.5,-324.69C322.5,-292.69 322.5,-224.05 322.5,-185.58"/>
<polygon fill="black" stroke="black" points="326,-185.13 322.5,-175.13 319,-185.13 326,-185.13"/>
</g>
<!-- ferry -->
<g id="node11" class="node">
<title>ferry</title>
<text text-anchor="start" x="274" y="-27.8" font-family="Times New Roman,serif" font-weight="bold" font-size="14.00">Modern English</text>
<text text-anchor="start" x="310" y="-13.8" font-family="Times New Roman,serif" font-size="14.00" fill="red">ferry</text>
</g>
<!-- ferienME&#45;&gt;ferry -->
<g id="edge10" class="edge">
<title>ferienME&#45;&gt;ferry</title>
<path fill="none" stroke="black" d="M322.63,-138.87C322.8,-116.91 323.09,-78.54 323.29,-52.47"/>
<polygon fill="black" stroke="black" points="326.79,-52.16 323.37,-42.13 319.79,-52.1 326.79,-52.16"/>
</g>
<!-- porusL -->
<g id="node13" class="node">
<title>porusL</title>
<text text-anchor="start" x="90" y="-346.8" font-family="Times New Roman,serif" font-weight="bold" font-size="14.00">Latin</text>
<text text-anchor="start" x="90" y="-332.8" font-family="Times New Roman,serif" font-size="14.00" fill="red">porus</text>
</g>
<!-- porosG&#45;&gt;porusL -->
<g id="edge12" class="edge">
<title>porosG&#45;&gt;porusL</title>
<path fill="none" stroke="black" stroke-dasharray="1,5" d="M132.27,-417.52C127.32,-403.4 121,-385.38 115.86,-370.71"/>
<polygon fill="black" stroke="black" points="119.13,-369.46 112.52,-361.18 112.53,-371.78 119.13,-369.46"/>
</g>
<!-- emporosG -->
<g id="node19" class="node">
<title>emporosG</title>
<text text-anchor="start" x="165.5" y="-351.8" font-family="Times New Roman,serif" font-size="14.00" fill="red">emporos</text>
<text text-anchor="start" x="172" y="-339.4" font-family="Times New Roman,serif" font-size="12.00">traveler,</text>
<text text-anchor="start" x="169.5" y="-327.4" font-family="Times New Roman,serif" font-size="12.00">merchant</text>
</g>
<!-- porosG&#45;&gt;emporosG -->
<g id="edge17" class="edge">
<title>porosG&#45;&gt;emporosG</title>
<path fill="none" stroke="black" d="M152.6,-417.52C159.13,-404.85 167.28,-389.06 174.34,-375.35"/>
<polygon fill="black" stroke="black" points="177.55,-376.76 179.02,-366.27 171.33,-373.55 177.55,-376.76"/>
</g>
<!-- poreOF -->
<g id="node14" class="node">
<title>poreOF</title>
<text text-anchor="start" x="52.5" y="-240.8" font-family="Times New Roman,serif" font-weight="bold" font-size="14.00">Old French</text>
<text text-anchor="start" x="74.5" y="-226.8" font-family="Times New Roman,serif" font-size="14.00" fill="red">pore</text>
</g>
<!-- porusL&#45;&gt;poreOF -->
<g id="edge13" class="edge">
<title>porusL&#45;&gt;poreOF</title>
<path fill="none" stroke="black" d="M103.36,-324.83C100.41,-308.64 95.93,-284.13 92.48,-265.27"/>
<polygon fill="black" stroke="black" points="95.88,-264.41 90.64,-255.2 89,-265.67 95.88,-264.41"/>
</g>
<!-- poreME -->
<g id="node15" class="node">
<title>poreME</title>
<text text-anchor="start" x="23" y="-106.8" font-family="Times New Roman,serif" font-weight="bold" font-size="14.00">Middle English</text>
<text text-anchor="start" x="56.5" y="-92.8" font-family="Times New Roman,serif" font-size="14.00" fill="red">pore</text>
</g>
<!-- poreOF&#45;&gt;poreME -->
<g id="edge14" class="edge">
<title>poreOF&#45;&gt;poreME</title>
<path fill="none" stroke="black" stroke-dasharray="1,5" d="M85.15,-218.74C82.11,-196.51 76.81,-157.6 73.23,-131.32"/>
<polygon fill="black" stroke="black" points="76.67,-130.7 71.85,-121.26 69.74,-131.64 76.67,-130.7"/>
</g>
<!-- pore -->
<g id="node16" class="node">
<title>pore</title>
<text text-anchor="start" x="8" y="-33.8" font-family="Times New Roman,serif" font-weight="bold" font-size="14.00">Modern English</text>
<text text-anchor="start" x="44.5" y="-19.8" font-family="Times New Roman,serif" font-size="14.00" fill="red">pore</text>
<text text-anchor="start" x="39.5" y="-7.4" font-family="Times New Roman,serif" font-size="12.00">opening</text>
</g>
<!-- poreME&#45;&gt;pore -->
<g id="edge15" class="edge">
<title>poreME&#45;&gt;pore</title>
<path fill="none" stroke="black" d="M66.84,-84.91C65.61,-77.06 64.12,-67.46 62.68,-58.27"/>
<polygon fill="black" stroke="black" points="66.11,-57.52 61.11,-48.17 59.19,-58.59 66.11,-57.52"/>
</g>
<!-- enIE -->
<g id="node17" class="node">
<title>enIE</title>
<g id="a_node17"><a xlink:href="en-in.svg" xlink:title="&lt;b&gt;Indo&#45;European&lt;/b&gt;&lt;br/&gt;&lt;font color=&quot;red&quot;&gt;en&#45;&lt;/font&gt;&lt;br/&gt;&lt;font point&#45;size=&quot;12&quot;&gt;in&lt;/font&gt;">
<path fill="none" stroke="black" stroke-dasharray="5,2" d="M322,-564C322,-564 237,-564 237,-564 231,-564 225,-558 225,-552 225,-552 225,-528 225,-528 225,-522 231,-516 237,-516 237,-516 322,-516 322,-516 328,-516 334,-522 334,-528 334,-528 334,-552 334,-552 334,-558 328,-564 322,-564"/>
<text text-anchor="start" x="233" y="-549.8" font-family="Times New Roman,serif" font-weight="bold" font-size="14.00">Indo&#45;European</text>
<text text-anchor="start" x="270.5" y="-535.8" font-family="Times New Roman,serif" font-size="14.00" fill="red">en&#45;</text>
<text text-anchor="start" x="275.5" y="-523.4" font-family="Times New Roman,serif" font-size="12.00">in</text>
</a>
</g>
</g>
<!-- enG -->
<g id="node18" class="node">
<title>enG</title>
<text text-anchor="start" x="212.5" y="-445.8" font-family="Times New Roman,serif" font-weight="bold" font-size="14.00">Greek</text>
<text text-anchor="start" x="223.5" y="-431.8" font-family="Times New Roman,serif" font-size="14.00" fill="red">en&#45;</text>
</g>
<!-- enIE&#45;&gt;enG -->
<g id="edge16" class="edge">
<title>enIE&#45;&gt;enG</title>
<path fill="none" stroke="black" d="M268.12,-515.76C261.21,-501.65 252.38,-483.61 245.24,-469.02"/>
<polygon fill="black" stroke="black" points="248.37,-467.45 240.83,-460.01 242.08,-470.53 248.37,-467.45"/>
</g>
<!-- enG&#45;&gt;emporosG -->
<g id="edge18" class="edge">
<title>enG&#45;&gt;emporosG</title>
<path fill="none" stroke="black" d="M224.99,-423.66C219.25,-410.39 211.17,-391.73 204.27,-375.8"/>
<polygon fill="black" stroke="black" points="207.35,-374.1 200.16,-366.31 200.92,-376.88 207.35,-374.1"/>
</g>
<!-- emporionG -->
<g id="node20" class="node">
<title>emporionG</title>
<text text-anchor="start" x="163.5" y="-233.3" font-family="Times New Roman,serif" font-size="14.00" fill="red">emporion</text>
</g>
<!-- emporosG&#45;&gt;emporionG -->
<g id="edge19" class="edge">
<title>emporosG&#45;&gt;emporionG</title>
<path fill="none" stroke="black" d="M190.5,-319.94C190.5,-304.1 190.5,-282.62 190.5,-265.63"/>
<polygon fill="black" stroke="black" points="194,-265.22 190.5,-255.22 187,-265.22 194,-265.22"/>
</g>
<!-- emporiumL -->
<g id="node21" class="node">
<title>emporiumL</title>
<text text-anchor="start" x="174" y="-106.8" font-family="Times New Roman,serif" font-weight="bold" font-size="14.00">Latin</text>
<text text-anchor="start" x="162" y="-92.8" font-family="Times New Roman,serif" font-size="14.00" fill="red">emporium</text>
</g>
<!-- emporionG&#45;&gt;emporiumL -->
<g id="edge20" class="edge">
<title>emporionG&#45;&gt;emporiumL</title>
<path fill="none" stroke="black" stroke-dasharray="1,5" d="M190.5,-218.74C190.5,-196.51 190.5,-157.6 190.5,-131.32"/>
<polygon fill="black" stroke="black" points="194,-131.26 190.5,-121.26 187,-131.26 194,-131.26"/>
</g>
<!-- emporium -->
<g id="node22" class="node">
<title>emporium</title>
<text text-anchor="start" x="141" y="-27.8" font-family="Times New Roman,serif" font-weight="bold" font-size="14.00">Modern English</text>
<text text-anchor="start" x="162" y="-13.8" font-family="Times New Roman,serif" font-size="14.00" fill="red">emporium</text>
</g>
<!-- emporiumL&#45;&gt;emporium -->
<g id="edge21" class="edge">
<title>emporiumL&#45;&gt;emporium</title>
<path fill="none" stroke="black" stroke-dasharray="1,5" d="M190.5,-84.91C190.5,-75.34 190.5,-63.18 190.5,-52.32"/>
<polygon fill="black" stroke="black" points="194,-52.04 190.5,-42.04 187,-52.04 194,-52.04"/>
</g>
<!-- gwou -->
<g id="node23" class="node">
<title>gwou</title>
<g id="a_node23"><a xlink:href="gwou-ox.svg" xlink:title="&lt;b&gt;Indo&#45;European&lt;/b&gt;&lt;br/&gt;&lt;font color=&quot;red&quot;&gt;gʷou&#45;&lt;/font&gt;&lt;br/&gt;&lt;font point&#45;size=&quot;12&quot;&gt;ox, cow&lt;/font&gt;">
<path fill="none" stroke="black" stroke-dasharray="5,2" d="M546,-564C546,-564 461,-564 461,-564 455,-564 449,-558 449,-552 449,-552 449,-528 449,-528 449,-522 455,-516 461,-516 461,-516 546,-516 546,-516 552,-516 558,-522 558,-528 558,-528 558,-552 558,-552 558,-558 552,-564 546,-564"/>
<text text-anchor="start" x="457" y="-549.8" font-family="Times New Roman,serif" font-weight="bold" font-size="14.00">Indo&#45;European</text>
<text text-anchor="start" x="487.5" y="-535.8" font-family="Times New Roman,serif" font-size="14.00" fill="red">gʷou&#45;</text>
<text text-anchor="start" x="485" y="-523.4" font-family="Times New Roman,serif" font-size="12.00">ox, cow</text>
</a>
</g>
</g>
<!-- gauhS -->
<g id="node24" class="node">
<title>gauhS</title>
<text text-anchor="start" x="486.5" y="-451.8" font-family="Times New Roman,serif" font-weight="bold" font-size="14.00">Sanskrit</text>
<text text-anchor="start" x="499" y="-437.8" font-family="Times New Roman,serif" font-size="14.00" fill="red">gauḥ</text>
<text text-anchor="start" x="502.5" y="-425.4" font-family="Times New Roman,serif" font-size="12.00">cow</text>
</g>
<!-- gwou&#45;&gt;gauhS -->
<g id="edge22" class="edge">
<title>gwou&#45;&gt;gauhS</title>
<path fill="none" stroke="black" d="M505.68,-515.76C506.8,-503.85 508.17,-489.14 509.4,-476.07"/>
<polygon fill="black" stroke="black" points="512.89,-476.31 510.34,-466.02 505.92,-475.65 512.89,-476.31"/>
</g>
<!-- gopalahS -->
<g id="node25" class="node">
<title>gopalahS</title>
<text text-anchor="start" x="435.5" y="-345.8" font-family="Times New Roman,serif" font-size="14.00" fill="red">gopālaḥ</text>
<text text-anchor="start" x="437.5" y="-333.4" font-family="Times New Roman,serif" font-size="12.00">cowherd</text>
</g>
<!-- gauhS&#45;&gt;gopalahS -->
<g id="edge23" class="edge">
<title>gauhS&#45;&gt;gopalahS</title>
<path fill="none" stroke="black" d="M499.19,-417.52C491.1,-403.26 480.76,-385.03 472.41,-370.29"/>
<polygon fill="black" stroke="black" points="475.22,-368.16 467.24,-361.18 469.13,-371.61 475.22,-368.16"/>
</g>
<!-- gopaliS -->
<g id="node27" class="node">
<title>gopaliS</title>
<text text-anchor="start" x="419.5" y="-246.8" font-family="Times New Roman,serif" font-size="14.00" fill="red">gopālakarkaṭī</text>
<text text-anchor="start" x="406" y="-234.4" font-family="Times New Roman,serif" font-size="12.00">cowherder&#39;s cucumber</text>
<text text-anchor="start" x="439.5" y="-220.8" font-family="Times New Roman,serif" font-size="14.00" fill="red">gopālī</text>
</g>
<!-- gopalahS&#45;&gt;gopaliS -->
<g id="edge26" class="edge">
<title>gopalahS&#45;&gt;gopaliS</title>
<path fill="none" stroke="black" d="M457.5,-324.83C457.5,-310.26 457.5,-288.95 457.5,-271.09"/>
<polygon fill="black" stroke="black" points="461,-271.04 457.5,-261.04 454,-271.04 461,-271.04"/>
</g>
<!-- parayatiS&#45;&gt;gopalahS -->
<g id="edge25" class="edge">
<title>parayatiS&#45;&gt;gopalahS</title>
<path fill="none" stroke="black" d="M432.39,-404.88C437.07,-393.53 442.15,-381.22 446.51,-370.65"/>
<polygon fill="black" stroke="black" points="449.85,-371.72 450.43,-361.14 443.38,-369.05 449.85,-371.72"/>
</g>
<!-- guarH -->
<g id="node28" class="node">
<title>guarH</title>
<text text-anchor="start" x="440.5" y="-106.8" font-family="Times New Roman,serif" font-weight="bold" font-size="14.00">Hindi</text>
<text text-anchor="start" x="445" y="-92.8" font-family="Times New Roman,serif" font-size="14.00" fill="red">guār</text>
</g>
<!-- gopaliS&#45;&gt;guarH -->
<g id="edge27" class="edge">
<title>gopaliS&#45;&gt;guarH</title>
<path fill="none" stroke="black" d="M457.5,-212.7C457.5,-189.98 457.5,-155.43 457.5,-131.4"/>
<polygon fill="black" stroke="black" points="461,-131.18 457.5,-121.18 454,-131.18 461,-131.18"/>
</g>
<!-- guar -->
<g id="node29" class="node">
<title>guar</title>
<text text-anchor="start" x="408" y="-27.8" font-family="Times New Roman,serif" font-weight="bold" font-size="14.00">Modern English</text>
<text text-anchor="start" x="445" y="-13.8" font-family="Times New Roman,serif" font-size="14.00" fill="red">guar</text>
</g>
<!-- guarH&#45;&gt;guar -->
<g id="edge28" class="edge">
<title>guarH&#45;&gt;guar</title>
<path fill="none" stroke="black" stroke-dasharray="1,5" d="M457.5,-84.91C457.5,-75.34 457.5,-63.18 457.5,-52.32"/>
<polygon fill="black" stroke="black" points="461,-52.04 457.5,-42.04 454,-52.04 461,-52.04"/>
</g>
<!-- fuorenOG -->
<g id="node31" class="node">
<title>fuorenOG</title>
<text text-anchor="start" x="565.5" y="-353.8" font-family="Times New Roman,serif" font-weight="bold" font-size="14.00">Old High</text>
<text text-anchor="start" x="568" y="-339.8" font-family="Times New Roman,serif" font-weight="bold" font-size="14.00">German</text>
<text text-anchor="start" x="575" y="-325.8" font-family="Times New Roman,serif" font-size="14.00" fill="red">fuoren</text>
</g>
<!-- forjanGm&#45;&gt;fuorenOG -->
<g id="edge30" class="edge">
<title>forjanGm&#45;&gt;fuorenOG</title>
<path fill="none" stroke="black" d="M601.71,-423.66C600.42,-411.08 598.62,-393.66 597.04,-378.32"/>
<polygon fill="black" stroke="black" points="600.49,-377.7 595.99,-368.11 593.53,-378.42 600.49,-377.7"/>
</g>
<!-- vuerenMG -->
<g id="node32" class="node">
<title>vuerenMG</title>
<text text-anchor="start" x="553.5" y="-266.8" font-family="Times New Roman,serif" font-weight="bold" font-size="14.00">Middle High</text>
<text text-anchor="start" x="566" y="-252.8" font-family="Times New Roman,serif" font-weight="bold" font-size="14.00">German</text>
<text text-anchor="start" x="573" y="-238.8" font-family="Times New Roman,serif" font-size="14.00" fill="red">vüeren</text>
<text text-anchor="start" x="576" y="-226.4" font-family="Times New Roman,serif" font-size="12.00">to lead</text>
<text text-anchor="start" x="574" y="-212.8" font-family="Times New Roman,serif" font-size="14.00" fill="red">vüerer</text>
<text text-anchor="start" x="577.5" y="-200.4" font-family="Times New Roman,serif" font-size="12.00">leader</text>
</g>
<!-- fuorenOG&#45;&gt;vuerenMG -->
<g id="edge31" class="edge">
<title>fuorenOG&#45;&gt;vuerenMG</title>
<path fill="none" stroke="black" d="M593.04,-317.88C592.88,-309.86 592.7,-300.58 592.52,-291.25"/>
<polygon fill="black" stroke="black" points="596.02,-291.1 592.33,-281.16 589.02,-291.23 596.02,-291.1"/>
</g>
<!-- fuhrerG -->
<g id="node33" class="node">
<title>fuhrerG</title>
<text text-anchor="start" x="565" y="-106.8" font-family="Times New Roman,serif" font-weight="bold" font-size="14.00">German</text>
<text text-anchor="start" x="572" y="-92.8" font-family="Times New Roman,serif" font-size="14.00" fill="red">Führer</text>
</g>
<!-- vuerenMG&#45;&gt;fuhrerG -->
<g id="edge32" class="edge">
<title>vuerenMG&#45;&gt;fuhrerG</title>
<path fill="none" stroke="black" d="M591.17,-192.78C591.02,-172.6 590.84,-149.19 590.71,-131.48"/>
<polygon fill="black" stroke="black" points="594.21,-131.24 590.63,-121.27 587.21,-131.29 594.21,-131.24"/>
</g>
<!-- fuhrer -->
<g id="node34" class="node">
<title>fuhrer</title>
<text text-anchor="start" x="541" y="-27.8" font-family="Times New Roman,serif" font-weight="bold" font-size="14.00">Modern English</text>
<text text-anchor="start" x="573.5" y="-13.8" font-family="Times New Roman,serif" font-size="14.00" fill="red">führer</text>
</g>
<!-- fuhrerG&#45;&gt;fuhrer -->
<g id="edge33" class="edge">
<title>fuhrerG&#45;&gt;fuhrer</title>
<path fill="none" stroke="black" stroke-dasharray="1,5" d="M590.5,-84.91C590.5,-75.34 590.5,-63.18 590.5,-52.32"/>
<polygon fill="black" stroke="black" points="594,-52.04 590.5,-42.04 587,-52.04 594,-52.04"/>
</g>
<!-- fearnOE -->
<g id="node36" class="node">
<title>fearnOE</title>
<text text-anchor="start" x="678" y="-352.8" font-family="Times New Roman,serif" font-weight="bold" font-size="14.00">Old English</text>
<text text-anchor="start" x="703.5" y="-338.8" font-family="Times New Roman,serif" font-size="14.00" fill="red">fern</text>
<text text-anchor="start" x="705.5" y="-326.4" font-family="Times New Roman,serif" font-size="12.00">fern</text>
</g>
<!-- farnoGm&#45;&gt;fearnOE -->
<g id="edge35" class="edge">
<title>farnoGm&#45;&gt;fearnOE</title>
<path fill="none" stroke="black" d="M703.13,-417.52C704.99,-405.49 707.29,-390.62 709.33,-377.42"/>
<polygon fill="black" stroke="black" points="712.83,-377.68 710.9,-367.26 705.92,-376.61 712.83,-377.68"/>
</g>
<!-- fernME -->
<g id="node37" class="node">
<title>fernME</title>
<text text-anchor="start" x="676" y="-160.8" font-family="Times New Roman,serif" font-weight="bold" font-size="14.00">Middle English</text>
<text text-anchor="start" x="711.5" y="-146.8" font-family="Times New Roman,serif" font-size="14.00" fill="red">fern</text>
</g>
<!-- fearnOE&#45;&gt;fernME -->
<g id="edge36" class="edge">
<title>fearnOE&#45;&gt;fernME</title>
<path fill="none" stroke="black" d="M715.51,-318.7C716.99,-284.69 719.73,-221.6 721.31,-185.41"/>
<polygon fill="black" stroke="black" points="724.82,-185.25 721.76,-175.11 717.82,-184.95 724.82,-185.25"/>
</g>
<!-- fern -->
<g id="node38" class="node">
<title>fern</title>
<text text-anchor="start" x="674" y="-27.8" font-family="Times New Roman,serif" font-weight="bold" font-size="14.00">Modern English</text>
<text text-anchor="start" x="712.5" y="-13.8" font-family="Times New Roman,serif" font-size="14.00" fill="red">fern</text>
</g>
<!-- fernME&#45;&gt;fern -->
<g id="edge37" class="edge">
<title>fernME&#45;&gt;fern</title>
<path fill="none" stroke="black" d="M722.63,-138.87C722.8,-116.91 723.09,-78.54 723.29,-52.47"/>
<polygon fill="black" stroke="black" points="726.79,-52.16 723.37,-42.13 719.79,-52.1 726.79,-52.16"/>
</g>
<!-- prtu -->
<g id="node39" class="node">
<title>prtu</title>
<text text-anchor="middle" x="856.5" y="-438.3" font-family="Times New Roman,serif" font-size="14.00">prtu</text>
</g>
<!-- furduzGm -->
<g id="node40" class="node">
<title>furduzGm</title>
<text text-anchor="start" x="826" y="-346.8" font-family="Times New Roman,serif" font-weight="bold" font-size="14.00">Germanic</text>
<text text-anchor="start" x="838" y="-332.8" font-family="Times New Roman,serif" font-size="14.00" fill="red">furduz</text>
</g>
<!-- prtu&#45;&gt;furduzGm -->
<g id="edge38" class="edge">
<title>prtu&#45;&gt;furduzGm</title>
<path fill="none" stroke="black" d="M856.5,-423.66C856.5,-409.18 856.5,-388.26 856.5,-371.5"/>
<polygon fill="black" stroke="black" points="860,-371.19 856.5,-361.19 853,-371.19 860,-371.19"/>
</g>
<!-- fordOE -->
<g id="node41" class="node">
<title>fordOE</title>
<text text-anchor="start" x="820" y="-240.8" font-family="Times New Roman,serif" font-weight="bold" font-size="14.00">Old English</text>
<text text-anchor="start" x="844" y="-226.8" font-family="Times New Roman,serif" font-size="14.00" fill="red">ford</text>
</g>
<!-- furduzGm&#45;&gt;fordOE -->
<g id="edge39" class="edge">
<title>furduzGm&#45;&gt;fordOE</title>
<path fill="none" stroke="black" d="M856.5,-324.83C856.5,-308.64 856.5,-284.13 856.5,-265.27"/>
<polygon fill="black" stroke="black" points="860,-265.2 856.5,-255.2 853,-265.2 860,-265.2"/>
</g>
<!-- fordME -->
<g id="node42" class="node">
<title>fordME</title>
<text text-anchor="start" x="810" y="-106.8" font-family="Times New Roman,serif" font-weight="bold" font-size="14.00">Middle English</text>
<text text-anchor="start" x="844" y="-92.8" font-family="Times New Roman,serif" font-size="14.00" fill="red">ford</text>
</g>
<!-- fordOE&#45;&gt;fordME -->
<g id="edge40" class="edge">
<title>fordOE&#45;&gt;fordME</title>
<path fill="none" stroke="black" d="M856.5,-218.74C856.5,-196.51 856.5,-157.6 856.5,-131.32"/>
<polygon fill="black" stroke="black" points="860,-131.26 856.5,-121.26 853,-131.26 860,-131.26"/>
</g>
<!-- ford -->
<g id="node43" class="node">
<title>ford</title>
<text text-anchor="start" x="807" y="-27.8" font-family="Times New Roman,serif" font-weight="bold" font-size="14.00">Modern English</text>
<text text-anchor="start" x="844" y="-13.8" font-family="Times New Roman,serif" font-size="14.00" fill="red">ford</text>
</g>
<!-- fordME&#45;&gt;ford -->
<g id="edge41" class="edge">
<title>fordME&#45;&gt;ford</title>
<path fill="none" stroke="black" d="M856.5,-84.91C856.5,-75.34 856.5,-63.18 856.5,-52.32"/>
<polygon fill="black" stroke="black" points="860,-52.04 856.5,-42.04 853,-52.04 860,-52.04"/>
</g>
</g>
</svg>
