<?xml version="1.0" encoding="UTF-8" standalone="no"?>
<!DOCTYPE svg PUBLIC "-//W3C//DTD SVG 1.1//EN"
 "http://www.w3.org/Graphics/SVG/1.1/DTD/svg11.dtd">
<!-- Generated by graphviz version 2.44.1 (20200629.0846)
 -->
<!-- Title: 2 Pages: 1 -->
<svg width="1453pt" height="1151pt"
 viewBox="0.00 0.00 1453.00 1151.00" xmlns="http://www.w3.org/2000/svg" xmlns:xlink="http://www.w3.org/1999/xlink">
<g id="graph0" class="graph" transform="scale(1 1) rotate(0) translate(4 1147)">
<title>2</title>
<polygon fill="white" stroke="transparent" points="-4,4 -4,-1147 1449,-1147 1449,4 -4,4"/>
<!-- per -->
<g id="node1" class="node">
<title>per</title>
<text text-anchor="start" x="895" y="-1128.8" font-family="Times New Roman,serif" font-weight="bold" font-size="14.00">Indo&#45;European</text>
<text text-anchor="start" x="879" y="-1114.8" font-family="Times New Roman,serif" font-size="14.00" fill="red">per</text>
<text text-anchor="start" x="898" y="-1114.8" font-family="Times New Roman,serif" font-size="14.00"> &#160;&#160;forward, through</text>
</g>
<!-- peri -->
<g id="node2" class="node">
<title>peri</title>
<text text-anchor="start" x="323.5" y="-1048.3" font-family="Times New Roman,serif" font-size="14.00" fill="red">peri</text>
</g>
<!-- per&#45;&gt;peri -->
<g id="edge1" class="edge">
<title>per&#45;&gt;peri</title>
<path fill="none" stroke="black" d="M870.98,-1115.75C741.67,-1100.63 470.81,-1068.94 371.78,-1057.36"/>
<polygon fill="black" stroke="black" points="372,-1053.86 361.66,-1056.18 371.18,-1060.81 372,-1053.86"/>
</g>
<!-- ferGm -->
<g id="node3" class="node">
<title>ferGm</title>
<text text-anchor="start" x="844" y="-1055.8" font-family="Times New Roman,serif" font-weight="bold" font-size="14.00">Germanic</text>
<text text-anchor="start" x="851" y="-1041.8" font-family="Times New Roman,serif" font-size="14.00" fill="red">fer&#45;, far&#45;</text>
</g>
<!-- per&#45;&gt;ferGm -->
<g id="edge2" class="edge">
<title>per&#45;&gt;ferGm</title>
<path fill="none" stroke="black" d="M925.28,-1106.81C916.97,-1098 906.7,-1087.13 897.58,-1077.46"/>
<polygon fill="black" stroke="black" points="899.98,-1074.9 890.57,-1070.03 894.89,-1079.7 899.98,-1074.9"/>
</g>
<!-- perero -->
<g id="node8" class="node">
<title>perero</title>
<text text-anchor="start" x="949.5" y="-1054.8" font-family="Times New Roman,serif" font-size="14.00" fill="red">per&#45;ero&#45;</text>
<text text-anchor="start" x="944" y="-1042.4" font-family="Times New Roman,serif" font-size="12.00">farther away</text>
</g>
<!-- per&#45;&gt;perero -->
<g id="edge7" class="edge">
<title>per&#45;&gt;perero</title>
<path fill="none" stroke="black" d="M949,-1106.81C952.58,-1098.62 956.95,-1088.62 960.94,-1079.48"/>
<polygon fill="black" stroke="black" points="964.27,-1080.59 965.06,-1070.03 957.86,-1077.79 964.27,-1080.59"/>
</g>
<!-- perL -->
<g id="node13" class="node">
<title>perL</title>
<text text-anchor="start" x="1105" y="-452.8" font-family="Times New Roman,serif" font-weight="bold" font-size="14.00">Latin</text>
<text text-anchor="start" x="1097" y="-438.8" font-family="Times New Roman,serif" font-size="14.00" fill="red">per, per&#45;</text>
<text text-anchor="start" x="1104.5" y="-426.4" font-family="Times New Roman,serif" font-size="12.00">through</text>
</g>
<!-- per&#45;&gt;perL -->
<g id="edge12" class="edge">
<title>per&#45;&gt;perL</title>
<path fill="none" stroke="black" stroke-dasharray="1,5" d="M1012.18,-1107.01C1037.32,-1096.41 1059.5,-1079.54 1059.5,-1053 1059.5,-1053 1059.5,-1053 1059.5,-521 1059.5,-503.21 1069.66,-487.2 1081.76,-474.45"/>
<polygon fill="black" stroke="black" points="1084.34,-476.82 1089.05,-467.33 1079.45,-471.82 1084.34,-476.82"/>
</g>
<!-- periG -->
<g id="node21" class="node">
<title>periG</title>
<text text-anchor="start" x="106.5" y="-916.8" font-family="Times New Roman,serif" font-weight="bold" font-size="14.00">Greek</text>
<text text-anchor="start" x="99" y="-902.8" font-family="Times New Roman,serif" font-size="14.00" fill="red">peri, peri&#45;</text>
<text text-anchor="start" x="78" y="-890.4" font-family="Times New Roman,serif" font-size="12.00">around, near, beyond</text>
</g>
<!-- peri&#45;&gt;periG -->
<g id="edge20" class="edge">
<title>peri&#45;&gt;periG</title>
<path fill="none" stroke="black" stroke-dasharray="1,5" d="M309.41,-1033.75C274.54,-1009.77 210.94,-966.05 168.7,-937.01"/>
<polygon fill="black" stroke="black" points="170.51,-934.01 160.29,-931.23 166.54,-939.78 170.51,-934.01"/>
</g>
<!-- pariII -->
<g id="node23" class="node">
<title>pariII</title>
<text text-anchor="start" x="295.5" y="-982.8" font-family="Times New Roman,serif" font-weight="bold" font-size="14.00">Indo&#45;Iranian</text>
<text text-anchor="start" x="321.5" y="-968.8" font-family="Times New Roman,serif" font-size="14.00" fill="red">pari&#45;</text>
<text text-anchor="start" x="318.5" y="-956.4" font-family="Times New Roman,serif" font-size="12.00">around</text>
</g>
<!-- peri&#45;&gt;pariII -->
<g id="edge22" class="edge">
<title>peri&#45;&gt;pariII</title>
<path fill="none" stroke="black" d="M334.5,-1033.91C334.5,-1026.06 334.5,-1016.46 334.5,-1007.27"/>
<polygon fill="black" stroke="black" points="338,-1007.17 334.5,-997.17 331,-1007.17 338,-1007.17"/>
</g>
<!-- verMD -->
<g id="node4" class="node">
<title>verMD</title>
<text text-anchor="start" x="822.5" y="-982.8" font-family="Times New Roman,serif" font-weight="bold" font-size="14.00">Middle Dutch</text>
<text text-anchor="start" x="853.5" y="-968.8" font-family="Times New Roman,serif" font-size="14.00" fill="red">ver&#45;</text>
<text text-anchor="start" x="840" y="-956.4" font-family="Times New Roman,serif" font-size="12.00">completely</text>
</g>
<!-- ferGm&#45;&gt;verMD -->
<g id="edge3" class="edge">
<title>ferGm&#45;&gt;verMD</title>
<path fill="none" stroke="black" d="M872.28,-1033.91C871.26,-1026.06 870.01,-1016.46 868.82,-1007.27"/>
<polygon fill="black" stroke="black" points="872.27,-1006.64 867.51,-997.17 865.33,-1007.54 872.27,-1006.64"/>
</g>
<!-- verrompelen -->
<g id="node5" class="node">
<title>verrompelen</title>
<text text-anchor="start" x="822.5" y="-843.8" font-family="Times New Roman,serif" font-size="14.00" fill="red">verrompelen</text>
<text text-anchor="start" x="834.5" y="-831.4" font-family="Times New Roman,serif" font-size="12.00">to wrinkle</text>
</g>
<!-- verMD&#45;&gt;verrompelen -->
<g id="edge4" class="edge">
<title>verMD&#45;&gt;verrompelen</title>
<path fill="none" stroke="black" d="M863.25,-948.76C862.05,-926.47 860.24,-892.81 858.97,-869.26"/>
<polygon fill="black" stroke="black" points="862.46,-869.03 858.43,-859.23 855.47,-869.4 862.46,-869.03"/>
</g>
<!-- frumpleME -->
<g id="node6" class="node">
<title>frumpleME</title>
<text text-anchor="start" x="809" y="-579.8" font-family="Times New Roman,serif" font-weight="bold" font-size="14.00">Middle English</text>
<text text-anchor="start" x="834" y="-565.8" font-family="Times New Roman,serif" font-size="14.00" fill="red">frumple</text>
</g>
<!-- verrompelen&#45;&gt;frumpleME -->
<g id="edge5" class="edge">
<title>verrompelen&#45;&gt;frumpleME</title>
<path fill="none" stroke="black" stroke-dasharray="1,5" d="M857.37,-822.74C857.03,-778.16 856.12,-658.84 855.71,-604.57"/>
<polygon fill="black" stroke="black" points="859.21,-604.29 855.63,-594.32 852.21,-604.35 859.21,-604.29"/>
</g>
<!-- frump -->
<g id="node7" class="node">
<title>frump</title>
<text text-anchor="start" x="806" y="-27.8" font-family="Times New Roman,serif" font-weight="bold" font-size="14.00">Modern English</text>
<text text-anchor="start" x="838.5" y="-13.8" font-family="Times New Roman,serif" font-size="14.00" fill="red">frump</text>
</g>
<!-- frumpleME&#45;&gt;frump -->
<g id="edge6" class="edge">
<title>frumpleME&#45;&gt;frump</title>
<path fill="none" stroke="black" d="M855.5,-557.94C855.5,-540.02 855.5,-511.03 855.5,-486 855.5,-486 855.5,-486 855.5,-102 855.5,-85.59 855.5,-67.22 855.5,-52.54"/>
<polygon fill="black" stroke="black" points="859,-52.13 855.5,-42.13 852,-52.13 859,-52.13"/>
<text text-anchor="middle" x="859" y="-325.3" font-family="Times New Roman,serif" font-size="14.00">?</text>
</g>
<!-- ferraGm -->
<g id="node9" class="node">
<title>ferraGm</title>
<text text-anchor="start" x="952" y="-976.8" font-family="Times New Roman,serif" font-weight="bold" font-size="14.00">Germanic</text>
<text text-anchor="start" x="962" y="-962.8" font-family="Times New Roman,serif" font-size="14.00" fill="red">fer(e)ra</text>
</g>
<!-- perero&#45;&gt;ferraGm -->
<g id="edge8" class="edge">
<title>perero&#45;&gt;ferraGm</title>
<path fill="none" stroke="black" d="M974.72,-1033.91C975.98,-1024.24 977.57,-1011.93 979,-1000.98"/>
<polygon fill="black" stroke="black" points="982.47,-1001.41 980.29,-991.04 975.53,-1000.51 982.47,-1001.41"/>
</g>
<!-- feorOE -->
<g id="node10" class="node">
<title>feorOE</title>
<text text-anchor="start" x="949" y="-844.8" font-family="Times New Roman,serif" font-weight="bold" font-size="14.00">Old English</text>
<text text-anchor="start" x="967" y="-830.8" font-family="Times New Roman,serif" font-size="14.00" fill="red">feor(r)</text>
</g>
<!-- ferraGm&#45;&gt;feorOE -->
<g id="edge9" class="edge">
<title>ferraGm&#45;&gt;feorOE</title>
<path fill="none" stroke="black" d="M982.9,-954.74C983.4,-932.98 984.27,-895.32 984.86,-869.56"/>
<polygon fill="black" stroke="black" points="988.37,-869.41 985.1,-859.33 981.37,-869.25 988.37,-869.41"/>
</g>
<!-- farME -->
<g id="node11" class="node">
<title>farME</title>
<text text-anchor="start" x="941" y="-699.8" font-family="Times New Roman,serif" font-weight="bold" font-size="14.00">Middle English</text>
<text text-anchor="start" x="979.5" y="-685.8" font-family="Times New Roman,serif" font-size="14.00" fill="red">far</text>
</g>
<!-- feorOE&#45;&gt;farME -->
<g id="edge10" class="edge">
<title>feorOE&#45;&gt;farME</title>
<path fill="none" stroke="black" d="M985.74,-822.75C986.08,-798.38 986.71,-753.61 987.11,-724.59"/>
<polygon fill="black" stroke="black" points="990.62,-724.36 987.26,-714.31 983.62,-724.26 990.62,-724.36"/>
</g>
<!-- far -->
<g id="node12" class="node">
<title>far</title>
<text text-anchor="start" x="939" y="-27.8" font-family="Times New Roman,serif" font-weight="bold" font-size="14.00">Modern English</text>
<text text-anchor="start" x="980.5" y="-13.8" font-family="Times New Roman,serif" font-size="14.00" fill="red">far</text>
</g>
<!-- farME&#45;&gt;far -->
<g id="edge11" class="edge">
<title>farME&#45;&gt;far</title>
<path fill="none" stroke="black" d="M987.74,-677.8C988.03,-654.83 988.5,-612.85 988.5,-577 988.5,-577 988.5,-577 988.5,-102 988.5,-85.59 988.5,-67.22 988.5,-52.54"/>
<polygon fill="black" stroke="black" points="992,-52.13 988.5,-42.13 985,-52.13 992,-52.13"/>
</g>
<!-- perE -->
<g id="node14" class="node">
<title>perE</title>
<text text-anchor="start" x="1072" y="-27.8" font-family="Times New Roman,serif" font-weight="bold" font-size="14.00">Modern English</text>
<text text-anchor="start" x="1110" y="-13.8" font-family="Times New Roman,serif" font-size="14.00" fill="red">per&#45;</text>
</g>
<!-- perL&#45;&gt;perE -->
<g id="edge13" class="edge">
<title>perL&#45;&gt;perE</title>
<path fill="none" stroke="black" stroke-dasharray="1,5" d="M1121.5,-418.83C1121.5,-396.18 1121.5,-360.72 1121.5,-330 1121.5,-330 1121.5,-330 1121.5,-102 1121.5,-85.59 1121.5,-67.22 1121.5,-52.54"/>
<polygon fill="black" stroke="black" points="1125,-52.13 1121.5,-42.13 1118,-52.13 1125,-52.13"/>
</g>
<!-- parAN -->
<g id="node15" class="node">
<title>parAN</title>
<text text-anchor="start" x="1209" y="-332.8" font-family="Times New Roman,serif" font-weight="bold" font-size="14.00">Anglo&#45;Norman</text>
<text text-anchor="start" x="1245" y="-318.8" font-family="Times New Roman,serif" font-size="14.00" fill="red">par</text>
</g>
<!-- perL&#45;&gt;parAN -->
<g id="edge14" class="edge">
<title>perL&#45;&gt;parAN</title>
<path fill="none" stroke="black" d="M1149.06,-418.79C1171.56,-399.85 1203.24,-373.17 1225.99,-354.01"/>
<polygon fill="black" stroke="black" points="1228.54,-356.44 1233.93,-347.32 1224.03,-351.08 1228.54,-356.44"/>
</g>
<!-- paramourAN -->
<g id="node16" class="node">
<title>paramourAN</title>
<text text-anchor="start" x="1225.5" y="-224.8" font-family="Times New Roman,serif" font-size="14.00" fill="red">par amour</text>
<text text-anchor="start" x="1221" y="-212.4" font-family="Times New Roman,serif" font-size="12.00">by way of love</text>
<text text-anchor="start" x="1227" y="-200.4" font-family="Times New Roman,serif" font-size="12.00">passionately</text>
</g>
<!-- parAN&#45;&gt;paramourAN -->
<g id="edge15" class="edge">
<title>parAN&#45;&gt;paramourAN</title>
<path fill="none" stroke="black" d="M1254.5,-310.66C1254.5,-294.32 1254.5,-269.45 1254.5,-249.44"/>
<polygon fill="black" stroke="black" points="1258,-249.2 1254.5,-239.2 1251,-249.2 1258,-249.2"/>
</g>
<!-- paramontAN -->
<g id="node17" class="node">
<title>paramontAN</title>
<text text-anchor="start" x="1341.5" y="-159.8" font-family="Times New Roman,serif" font-size="14.00" fill="red">paramount</text>
<text text-anchor="start" x="1357.5" y="-147.4" font-family="Times New Roman,serif" font-size="12.00">above</text>
</g>
<!-- parAN&#45;&gt;paramontAN -->
<g id="edge16" class="edge">
<title>parAN&#45;&gt;paramontAN</title>
<path fill="none" stroke="black" d="M1266.36,-310.76C1287.09,-280.65 1329.98,-218.33 1354.08,-183.31"/>
<polygon fill="black" stroke="black" points="1356.99,-185.25 1359.78,-175.03 1351.23,-181.28 1356.99,-185.25"/>
</g>
<!-- paramourME -->
<g id="node18" class="node">
<title>paramourME</title>
<text text-anchor="start" x="1208" y="-106.8" font-family="Times New Roman,serif" font-weight="bold" font-size="14.00">Middle English</text>
<text text-anchor="start" x="1227.5" y="-92.8" font-family="Times New Roman,serif" font-size="14.00" fill="red">paramour</text>
</g>
<!-- paramourAN&#45;&gt;paramourME -->
<g id="edge17" class="edge">
<title>paramourAN&#45;&gt;paramourME</title>
<path fill="none" stroke="black" stroke-dasharray="1,5" d="M1254.5,-192.8C1254.5,-175.06 1254.5,-150.1 1254.5,-131.16"/>
<polygon fill="black" stroke="black" points="1258,-131.07 1254.5,-121.07 1251,-131.07 1258,-131.07"/>
</g>
<!-- paramount -->
<g id="node20" class="node">
<title>paramount</title>
<text text-anchor="start" x="1338" y="-27.8" font-family="Times New Roman,serif" font-weight="bold" font-size="14.00">Modern English</text>
<text text-anchor="start" x="1357.5" y="-13.8" font-family="Times New Roman,serif" font-size="14.00" fill="red">paramount</text>
</g>
<!-- paramontAN&#45;&gt;paramount -->
<g id="edge19" class="edge">
<title>paramontAN&#45;&gt;paramount</title>
<path fill="none" stroke="black" stroke-dasharray="1,5" d="M1373.59,-138.87C1376.29,-116.81 1381,-78.19 1384.19,-52.12"/>
<polygon fill="black" stroke="black" points="1387.67,-52.48 1385.41,-42.13 1380.72,-51.63 1387.67,-52.48"/>
</g>
<!-- paramour -->
<g id="node19" class="node">
<title>paramour</title>
<text text-anchor="start" x="1205" y="-27.8" font-family="Times New Roman,serif" font-weight="bold" font-size="14.00">Modern English</text>
<text text-anchor="start" x="1227.5" y="-13.8" font-family="Times New Roman,serif" font-size="14.00" fill="red">paramour</text>
</g>
<!-- paramourME&#45;&gt;paramour -->
<g id="edge18" class="edge">
<title>paramourME&#45;&gt;paramour</title>
<path fill="none" stroke="black" d="M1254.5,-84.91C1254.5,-75.34 1254.5,-63.18 1254.5,-52.32"/>
<polygon fill="black" stroke="black" points="1258,-52.04 1254.5,-42.04 1251,-52.04 1258,-52.04"/>
</g>
<!-- periE -->
<g id="node22" class="node">
<title>periE</title>
<text text-anchor="start" x="8" y="-27.8" font-family="Times New Roman,serif" font-weight="bold" font-size="14.00">Modern English</text>
<text text-anchor="start" x="44.5" y="-13.8" font-family="Times New Roman,serif" font-size="14.00" fill="red">peri&#45;</text>
</g>
<!-- periG&#45;&gt;periE -->
<g id="edge21" class="edge">
<title>periG&#45;&gt;periE</title>
<path fill="none" stroke="black" stroke-dasharray="1,5" d="M100.41,-882.81C80.87,-862.78 57.5,-831.93 57.5,-799 57.5,-799 57.5,-799 57.5,-102 57.5,-85.59 57.5,-67.22 57.5,-52.54"/>
<polygon fill="black" stroke="black" points="61,-52.13 57.5,-42.13 54,-52.13 61,-52.13"/>
</g>
<!-- pariS -->
<g id="node24" class="node">
<title>pariS</title>
<text text-anchor="start" x="174.5" y="-844.8" font-family="Times New Roman,serif" font-weight="bold" font-size="14.00">Sanskrit</text>
<text text-anchor="start" x="187.5" y="-830.8" font-family="Times New Roman,serif" font-size="14.00" fill="red">pari&#45;</text>
</g>
<!-- pariII&#45;&gt;pariS -->
<g id="edge23" class="edge">
<title>pariII&#45;&gt;pariS</title>
<path fill="none" stroke="black" d="M310.54,-948.76C286.63,-925.56 250.04,-890.06 225.7,-866.45"/>
<polygon fill="black" stroke="black" points="227.87,-863.68 218.26,-859.23 223,-868.7 227.87,-863.68"/>
</g>
<!-- pairiAv -->
<g id="node25" class="node">
<title>pairiAv</title>
<text text-anchor="start" x="268" y="-844.8" font-family="Times New Roman,serif" font-weight="bold" font-size="14.00">Avestan</text>
<text text-anchor="start" x="278" y="-830.8" font-family="Times New Roman,serif" font-size="14.00" fill="red">pairi&#45;</text>
</g>
<!-- pariII&#45;&gt;pairiAv -->
<g id="edge24" class="edge">
<title>pariII&#45;&gt;pairiAv</title>
<path fill="none" stroke="black" d="M326.99,-948.76C319.76,-926.37 308.82,-892.5 301.2,-868.94"/>
<polygon fill="black" stroke="black" points="304.47,-867.67 298.07,-859.23 297.81,-869.82 304.47,-867.67"/>
</g>
<!-- pariOP -->
<g id="node26" class="node">
<title>pariOP</title>
<text text-anchor="start" x="424" y="-850.8" font-family="Times New Roman,serif" font-weight="bold" font-size="14.00">Old Persian</text>
<text text-anchor="start" x="449.5" y="-836.8" font-family="Times New Roman,serif" font-size="14.00" fill="red">pari</text>
<text text-anchor="start" x="450" y="-824.4" font-family="Times New Roman,serif" font-size="12.00">over</text>
</g>
<!-- pariII&#45;&gt;pariOP -->
<g id="edge25" class="edge">
<title>pariII&#45;&gt;pariOP</title>
<path fill="none" stroke="black" d="M357.03,-948.76C377.72,-927.41 408.52,-895.63 431.14,-872.3"/>
<polygon fill="black" stroke="black" points="433.72,-874.66 438.17,-865.04 428.7,-869.78 433.72,-874.66"/>
</g>
<!-- parivaraka -->
<g id="node27" class="node">
<title>parivaraka</title>
<text text-anchor="start" x="604.5" y="-850.8" font-family="Times New Roman,serif" font-weight="bold" font-size="14.00">Old Iranian</text>
<text text-anchor="start" x="607" y="-836.8" font-family="Times New Roman,serif" font-size="14.00" fill="red">pari&#45;vāraka&#45;</text>
<text text-anchor="start" x="617.5" y="-824.4" font-family="Times New Roman,serif" font-size="12.00">protective</text>
</g>
<!-- pariII&#45;&gt;parivaraka -->
<g id="edge26" class="edge">
<title>pariII&#45;&gt;parivaraka</title>
<path fill="none" stroke="black" d="M381.88,-951.9C432.54,-930.41 515.2,-895.32 586.5,-865 586.6,-864.96 586.7,-864.92 586.8,-864.87"/>
<polygon fill="black" stroke="black" points="588.47,-867.97 596.3,-860.83 585.73,-861.53 588.47,-867.97"/>
</g>
<!-- paryankah -->
<g id="node28" class="node">
<title>paryankah</title>
<text text-anchor="start" x="137" y="-758.8" font-family="Times New Roman,serif" font-size="14.00" fill="red">paryaṅkaḥ, palyaṅkaḥ</text>
<text text-anchor="start" x="172" y="-746.4" font-family="Times New Roman,serif" font-size="12.00">couch, bed</text>
</g>
<!-- pariS&#45;&gt;paryankah -->
<g id="edge27" class="edge">
<title>pariS&#45;&gt;paryankah</title>
<path fill="none" stroke="black" d="M199.88,-822.8C199.48,-811.67 198.94,-796.94 198.48,-784.24"/>
<polygon fill="black" stroke="black" points="201.98,-784.04 198.12,-774.18 194.98,-784.3 201.98,-784.04"/>
</g>
<!-- pairidaeza -->
<g id="node34" class="node">
<title>pairidaeza</title>
<text text-anchor="start" x="295.5" y="-758.8" font-family="Times New Roman,serif" font-size="14.00" fill="red">pairidaēza</text>
<text text-anchor="start" x="312.5" y="-746.4" font-family="Times New Roman,serif" font-size="12.00">park</text>
</g>
<!-- pairiAv&#45;&gt;pairidaeza -->
<g id="edge32" class="edge">
<title>pairiAv&#45;&gt;pairidaeza</title>
<path fill="none" stroke="black" d="M298.92,-822.8C303.12,-811.56 308.69,-796.65 313.47,-783.86"/>
<polygon fill="black" stroke="black" points="316.86,-784.77 317.09,-774.18 310.31,-782.32 316.86,-784.77"/>
</g>
<!-- paridakaOP -->
<g id="node41" class="node">
<title>paridakaOP</title>
<text text-anchor="start" x="519.5" y="-758.8" font-family="Times New Roman,serif" font-size="14.00" fill="red">paridaka&#45;</text>
<text text-anchor="start" x="537.5" y="-746.4" font-family="Times New Roman,serif" font-size="12.00">veil</text>
</g>
<!-- pariOP&#45;&gt;paridakaOP -->
<g id="edge39" class="edge">
<title>pariOP&#45;&gt;paridakaOP</title>
<path fill="none" stroke="black" d="M484.18,-816.88C495.54,-805.78 509.15,-792.49 520.66,-781.25"/>
<polygon fill="black" stroke="black" points="523.17,-783.7 527.88,-774.21 518.28,-778.69 523.17,-783.7"/>
</g>
<!-- barbarP -->
<g id="node51" class="node">
<title>barbarP</title>
<text text-anchor="start" x="636" y="-765.8" font-family="Times New Roman,serif" font-weight="bold" font-size="14.00">Persian</text>
<text text-anchor="start" x="641" y="-751.8" font-family="Times New Roman,serif" font-size="14.00" fill="red">barbār</text>
<text text-anchor="start" x="646" y="-739.4" font-family="Times New Roman,serif" font-size="12.00">buard</text>
</g>
<!-- parivaraka&#45;&gt;barbarP -->
<g id="edge50" class="edge">
<title>parivaraka&#45;&gt;barbarP</title>
<path fill="none" stroke="black" d="M645.79,-816.88C647.69,-808.59 649.87,-799.06 651.93,-790.09"/>
<polygon fill="black" stroke="black" points="655.35,-790.81 654.17,-780.28 648.53,-789.25 655.35,-790.81"/>
</g>
<!-- pallanko -->
<g id="node29" class="node">
<title>pallanko</title>
<text text-anchor="start" x="183" y="-639.8" font-family="Times New Roman,serif" font-weight="bold" font-size="14.00">Pali</text>
<text text-anchor="start" x="172" y="-625.8" font-family="Times New Roman,serif" font-size="14.00" fill="red">pallaṅko</text>
</g>
<!-- paryankah&#45;&gt;pallanko -->
<g id="edge28" class="edge">
<title>paryankah&#45;&gt;pallanko</title>
<path fill="none" stroke="black" d="M197.21,-737.84C196.88,-718.53 196.35,-686.89 195.96,-664.2"/>
<polygon fill="black" stroke="black" points="199.46,-664.12 195.79,-654.18 192.46,-664.24 199.46,-664.12"/>
</g>
<!-- pelangki -->
<g id="node30" class="node">
<title>pelangki</title>
<text text-anchor="start" x="166" y="-525.8" font-family="Times New Roman,serif" font-weight="bold" font-size="14.00">Javanese</text>
<text text-anchor="start" x="171.5" y="-511.8" font-family="Times New Roman,serif" font-size="14.00" fill="red">pelangki</text>
</g>
<!-- pallanko&#45;&gt;pelangki -->
<g id="edge29" class="edge">
<title>pallanko&#45;&gt;pelangki</title>
<path fill="none" stroke="black" stroke-dasharray="1,5" d="M195.35,-617.99C195.19,-600.06 194.93,-571.56 194.75,-550.44"/>
<polygon fill="black" stroke="black" points="198.24,-550.14 194.65,-540.17 191.24,-550.2 198.24,-550.14"/>
</g>
<!-- palanquimP -->
<g id="node31" class="node">
<title>palanquimP</title>
<text text-anchor="start" x="157.5" y="-278.8" font-family="Times New Roman,serif" font-weight="bold" font-size="14.00">Portuguese</text>
<text text-anchor="start" x="163.5" y="-264.8" font-family="Times New Roman,serif" font-size="14.00" fill="red">palanquim</text>
</g>
<!-- pelangki&#45;&gt;palanquimP -->
<g id="edge30" class="edge">
<title>pelangki&#45;&gt;palanquimP</title>
<path fill="none" stroke="black" stroke-dasharray="1,5" d="M194.36,-503.77C194.02,-461.86 193.14,-354.31 192.72,-303.44"/>
<polygon fill="black" stroke="black" points="196.22,-303.18 192.64,-293.21 189.22,-303.24 196.22,-303.18"/>
</g>
<!-- palanquin -->
<g id="node32" class="node">
<title>palanquin</title>
<text text-anchor="start" x="141" y="-27.8" font-family="Times New Roman,serif" font-weight="bold" font-size="14.00">Modern English</text>
<text text-anchor="start" x="163.5" y="-13.8" font-family="Times New Roman,serif" font-size="14.00" fill="red">palanquin</text>
</g>
<!-- palanquimP&#45;&gt;palanquin -->
<g id="edge31" class="edge">
<title>palanquimP&#45;&gt;palanquin</title>
<path fill="none" stroke="black" stroke-dasharray="1,5" d="M192.36,-256.89C192.02,-214.42 191.13,-103.92 190.72,-52.31"/>
<polygon fill="black" stroke="black" points="194.22,-52.21 190.64,-42.23 187.22,-52.26 194.22,-52.21"/>
</g>
<!-- daeza -->
<g id="node33" class="node">
<title>daeza</title>
<g id="a_node33"><a xlink:href="dheigh-build.svg" xlink:title="&lt;font color=&quot;red&quot;&gt;daēza&lt;/font&gt;&lt;br/&gt;&lt;font point&#45;size=&quot;12&quot;&gt;wall&lt;/font&gt;">
<path fill="none" stroke="black" stroke-dasharray="5,2" d="M385.5,-859C385.5,-859 355.5,-859 355.5,-859 349.5,-859 343.5,-853 343.5,-847 343.5,-847 343.5,-835 343.5,-835 343.5,-829 349.5,-823 355.5,-823 355.5,-823 385.5,-823 385.5,-823 391.5,-823 397.5,-829 397.5,-835 397.5,-835 397.5,-847 397.5,-847 397.5,-853 391.5,-859 385.5,-859"/>
<text text-anchor="start" x="354.5" y="-843.8" font-family="Times New Roman,serif" font-size="14.00" fill="red">daēza</text>
<text text-anchor="start" x="361" y="-831.4" font-family="Times New Roman,serif" font-size="12.00">wall</text>
</a>
</g>
</g>
<!-- daeza&#45;&gt;pairidaeza -->
<g id="edge33" class="edge">
<title>daeza&#45;&gt;pairidaeza</title>
<path fill="none" stroke="black" d="M360.76,-822.8C354.27,-811.34 345.62,-796.06 338.28,-783.11"/>
<polygon fill="black" stroke="black" points="341.2,-781.15 333.23,-774.18 335.11,-784.6 341.2,-781.15"/>
</g>
<!-- paradeisosG -->
<g id="node35" class="node">
<title>paradeisosG</title>
<text text-anchor="start" x="303.5" y="-645.8" font-family="Times New Roman,serif" font-weight="bold" font-size="14.00">Greek</text>
<text text-anchor="start" x="293" y="-631.8" font-family="Times New Roman,serif" font-size="14.00" fill="red">paradeisos</text>
<text text-anchor="start" x="272" y="-619.4" font-family="Times New Roman,serif" font-size="12.00">garden, park, paradise</text>
</g>
<!-- pairidaeza&#45;&gt;paradeisosG -->
<g id="edge34" class="edge">
<title>pairidaeza&#45;&gt;paradeisosG</title>
<path fill="none" stroke="black" d="M323.5,-737.84C323.5,-720.26 323.5,-692.48 323.5,-670.52"/>
<polygon fill="black" stroke="black" points="327,-670.28 323.5,-660.28 320,-670.28 327,-670.28"/>
</g>
<!-- paradisusL -->
<g id="node36" class="node">
<title>paradisusL</title>
<text text-anchor="start" x="307" y="-525.8" font-family="Times New Roman,serif" font-weight="bold" font-size="14.00">Latin</text>
<text text-anchor="start" x="296" y="-511.8" font-family="Times New Roman,serif" font-size="14.00" fill="red">paradīsus</text>
</g>
<!-- paradeisosG&#45;&gt;paradisusL -->
<g id="edge35" class="edge">
<title>paradeisosG&#45;&gt;paradisusL</title>
<path fill="none" stroke="black" d="M323.5,-611.79C323.5,-593.93 323.5,-569.19 323.5,-550.36"/>
<polygon fill="black" stroke="black" points="327,-550.32 323.5,-540.32 320,-550.32 327,-550.32"/>
</g>
<!-- paradisOF -->
<g id="node37" class="node">
<title>paradisOF</title>
<text text-anchor="start" x="288.5" y="-446.8" font-family="Times New Roman,serif" font-weight="bold" font-size="14.00">Old French</text>
<text text-anchor="start" x="303" y="-432.8" font-family="Times New Roman,serif" font-size="14.00" fill="red">paradis</text>
</g>
<!-- paradisusL&#45;&gt;paradisOF -->
<g id="edge36" class="edge">
<title>paradisusL&#45;&gt;paradisOF</title>
<path fill="none" stroke="black" d="M323.5,-503.91C323.5,-494.34 323.5,-482.18 323.5,-471.32"/>
<polygon fill="black" stroke="black" points="327,-471.04 323.5,-461.04 320,-471.04 327,-471.04"/>
</g>
<!-- paradisME -->
<g id="node38" class="node">
<title>paradisME</title>
<text text-anchor="start" x="277" y="-278.8" font-family="Times New Roman,serif" font-weight="bold" font-size="14.00">Middle English</text>
<text text-anchor="start" x="303" y="-264.8" font-family="Times New Roman,serif" font-size="14.00" fill="red">paradis</text>
</g>
<!-- paradisOF&#45;&gt;paradisME -->
<g id="edge37" class="edge">
<title>paradisOF&#45;&gt;paradisME</title>
<path fill="none" stroke="black" stroke-dasharray="1,5" d="M323.5,-424.86C323.5,-396.16 323.5,-338.13 323.5,-303.61"/>
<polygon fill="black" stroke="black" points="327,-303.3 323.5,-293.3 320,-303.3 327,-303.3"/>
</g>
<!-- paradise -->
<g id="node39" class="node">
<title>paradise</title>
<text text-anchor="start" x="274" y="-27.8" font-family="Times New Roman,serif" font-weight="bold" font-size="14.00">Modern English</text>
<text text-anchor="start" x="300" y="-13.8" font-family="Times New Roman,serif" font-size="14.00" fill="red">paradise</text>
</g>
<!-- paradisME&#45;&gt;paradise -->
<g id="edge38" class="edge">
<title>paradisME&#45;&gt;paradise</title>
<path fill="none" stroke="black" d="M323.5,-256.89C323.5,-214.42 323.5,-103.92 323.5,-52.31"/>
<polygon fill="black" stroke="black" points="327,-52.23 323.5,-42.23 320,-52.23 327,-52.23"/>
</g>
<!-- daOP -->
<g id="node40" class="node">
<title>daOP</title>
<text text-anchor="start" x="541" y="-843.8" font-family="Times New Roman,serif" font-size="14.00" fill="red">dā&#45;</text>
<text text-anchor="start" x="532" y="-831.4" font-family="Times New Roman,serif" font-size="12.00">to place</text>
</g>
<!-- daOP&#45;&gt;paridakaOP -->
<g id="edge40" class="edge">
<title>daOP&#45;&gt;paridakaOP</title>
<path fill="none" stroke="black" d="M549.46,-822.8C548.79,-811.67 547.91,-796.94 547.14,-784.24"/>
<polygon fill="black" stroke="black" points="550.63,-783.95 546.53,-774.18 543.64,-784.37 550.63,-783.95"/>
</g>
<!-- pardakMP -->
<g id="node42" class="node">
<title>pardakMP</title>
<text text-anchor="start" x="498.5" y="-639.8" font-family="Times New Roman,serif" font-weight="bold" font-size="14.00">Middle Persian</text>
<text text-anchor="start" x="526" y="-625.8" font-family="Times New Roman,serif" font-size="14.00" fill="red">pardak</text>
</g>
<!-- paridakaOP&#45;&gt;pardakMP -->
<g id="edge41" class="edge">
<title>paridakaOP&#45;&gt;pardakMP</title>
<path fill="none" stroke="black" d="M545.5,-737.84C545.5,-718.53 545.5,-686.89 545.5,-664.2"/>
<polygon fill="black" stroke="black" points="549,-664.18 545.5,-654.18 542,-664.18 549,-664.18"/>
</g>
<!-- pardahP -->
<g id="node43" class="node">
<title>pardahP</title>
<text text-anchor="start" x="522" y="-525.8" font-family="Times New Roman,serif" font-weight="bold" font-size="14.00">Persian</text>
<text text-anchor="start" x="526" y="-511.8" font-family="Times New Roman,serif" font-size="14.00" fill="red">pardah</text>
</g>
<!-- pardakMP&#45;&gt;pardahP -->
<g id="edge42" class="edge">
<title>pardakMP&#45;&gt;pardahP</title>
<path fill="none" stroke="black" d="M545.5,-617.99C545.5,-600.06 545.5,-571.56 545.5,-550.44"/>
<polygon fill="black" stroke="black" points="549,-550.17 545.5,-540.17 542,-550.17 549,-550.17"/>
</g>
<!-- pardahU -->
<g id="node44" class="node">
<title>pardahU</title>
<text text-anchor="start" x="461" y="-386.8" font-family="Times New Roman,serif" font-weight="bold" font-size="14.00">Urdu</text>
<text text-anchor="start" x="457" y="-372.8" font-family="Times New Roman,serif" font-size="14.00" fill="red">pardah</text>
</g>
<!-- pardahP&#45;&gt;pardahU -->
<g id="edge43" class="edge">
<title>pardahP&#45;&gt;pardahU</title>
<path fill="none" stroke="black" d="M534.17,-503.85C527.49,-493.4 519.08,-479.68 512.5,-467 502.97,-448.65 493.72,-427.21 486.98,-410.73"/>
<polygon fill="black" stroke="black" points="490.12,-409.14 483.13,-401.17 483.62,-411.76 490.12,-409.14"/>
</g>
<!-- bardaaA -->
<g id="node46" class="node">
<title>bardaaA</title>
<text text-anchor="start" x="534.5" y="-452.8" font-family="Times New Roman,serif" font-weight="bold" font-size="14.00">Arabic</text>
<text text-anchor="start" x="535" y="-438.8" font-family="Times New Roman,serif" font-size="14.00" fill="red">barda&#39;a</text>
<text text-anchor="start" x="529.5" y="-426.4" font-family="Times New Roman,serif" font-size="12.00">packsaddle</text>
</g>
<!-- pardahP&#45;&gt;bardaaA -->
<g id="edge45" class="edge">
<title>pardahP&#45;&gt;bardaaA</title>
<path fill="none" stroke="black" stroke-dasharray="1,5" d="M547.72,-503.91C548.74,-496.06 549.99,-486.46 551.18,-477.27"/>
<polygon fill="black" stroke="black" points="554.67,-477.54 552.49,-467.17 547.73,-476.64 554.67,-477.54"/>
</g>
<!-- purdah -->
<g id="node45" class="node">
<title>purdah</title>
<text text-anchor="start" x="407" y="-27.8" font-family="Times New Roman,serif" font-weight="bold" font-size="14.00">Modern English</text>
<text text-anchor="start" x="436.5" y="-13.8" font-family="Times New Roman,serif" font-size="14.00" fill="red">purdah</text>
</g>
<!-- pardahU&#45;&gt;purdah -->
<g id="edge44" class="edge">
<title>pardahU&#45;&gt;purdah</title>
<path fill="none" stroke="black" stroke-dasharray="1,5" d="M471.25,-364.93C465.32,-344.13 456.5,-307.84 456.5,-276 456.5,-276 456.5,-276 456.5,-102 456.5,-85.59 456.5,-67.22 456.5,-52.54"/>
<polygon fill="black" stroke="black" points="460,-52.13 456.5,-42.13 453,-52.13 460,-52.13"/>
</g>
<!-- bardaOI -->
<g id="node47" class="node">
<title>bardaOI</title>
<text text-anchor="start" x="547" y="-332.8" font-family="Times New Roman,serif" font-weight="bold" font-size="14.00">Old Italian</text>
<text text-anchor="start" x="564.5" y="-318.8" font-family="Times New Roman,serif" font-size="14.00" fill="red">barda</text>
</g>
<!-- bardaaA&#45;&gt;bardaOI -->
<g id="edge46" class="edge">
<title>bardaaA&#45;&gt;bardaOI</title>
<path fill="none" stroke="black" stroke-dasharray="1,5" d="M560.68,-418.79C564.69,-400.85 570.24,-375.96 574.45,-357.1"/>
<polygon fill="black" stroke="black" points="577.87,-357.84 576.63,-347.32 571.04,-356.32 577.87,-357.84"/>
</g>
<!-- bardaOF -->
<g id="node48" class="node">
<title>bardaOF</title>
<text text-anchor="start" x="550.5" y="-219.8" font-family="Times New Roman,serif" font-weight="bold" font-size="14.00">Old French</text>
<text text-anchor="start" x="569.5" y="-205.8" font-family="Times New Roman,serif" font-size="14.00" fill="red">barda</text>
</g>
<!-- bardaOI&#45;&gt;bardaOF -->
<g id="edge47" class="edge">
<title>bardaOI&#45;&gt;bardaOF</title>
<path fill="none" stroke="black" stroke-dasharray="1,5" d="M581.28,-310.66C582.08,-292.9 583.34,-265.04 584.27,-244.32"/>
<polygon fill="black" stroke="black" points="587.77,-244.37 584.72,-234.22 580.78,-244.05 587.77,-244.37"/>
</g>
<!-- bardeME -->
<g id="node49" class="node">
<title>bardeME</title>
<text text-anchor="start" x="542" y="-106.8" font-family="Times New Roman,serif" font-weight="bold" font-size="14.00">Middle English</text>
<text text-anchor="start" x="572.5" y="-92.8" font-family="Times New Roman,serif" font-size="14.00" fill="red">barde</text>
</g>
<!-- bardaOF&#45;&gt;bardeME -->
<g id="edge48" class="edge">
<title>bardaOF&#45;&gt;bardeME</title>
<path fill="none" stroke="black" stroke-dasharray="1,5" d="M585.97,-197.66C586.45,-179.9 587.2,-152.04 587.76,-131.32"/>
<polygon fill="black" stroke="black" points="591.26,-131.31 588.03,-121.22 584.27,-131.12 591.26,-131.31"/>
</g>
<!-- bard -->
<g id="node50" class="node">
<title>bard</title>
<text text-anchor="start" x="540" y="-33.8" font-family="Times New Roman,serif" font-weight="bold" font-size="14.00">Modern English</text>
<text text-anchor="start" x="576.5" y="-19.8" font-family="Times New Roman,serif" font-size="14.00" fill="red">bard</text>
<text text-anchor="start" x="562" y="-7.4" font-family="Times New Roman,serif" font-size="12.00">horse armor</text>
</g>
<!-- bardeME&#45;&gt;bard -->
<g id="edge49" class="edge">
<title>bardeME&#45;&gt;bard</title>
<path fill="none" stroke="black" d="M588.72,-84.91C588.82,-77.06 588.95,-67.46 589.07,-58.27"/>
<polygon fill="black" stroke="black" points="592.57,-58.22 589.2,-48.17 585.57,-58.13 592.57,-58.22"/>
</g>
<!-- barbarkhanP -->
<g id="node52" class="node">
<title>barbarkhanP</title>
<text text-anchor="start" x="653" y="-638.8" font-family="Times New Roman,serif" font-size="14.00" fill="red">barbārkhān</text>
<text text-anchor="start" x="657" y="-626.4" font-family="Times New Roman,serif" font-size="12.00">guard house</text>
</g>
<!-- barbarP&#45;&gt;barbarkhanP -->
<g id="edge51" class="edge">
<title>barbarP&#45;&gt;barbarkhanP</title>
<path fill="none" stroke="black" d="M664.38,-731.97C668.49,-712.55 674.39,-684.72 678.74,-664.21"/>
<polygon fill="black" stroke="black" points="682.2,-664.74 680.85,-654.23 675.35,-663.29 682.2,-664.74"/>
</g>
<!-- barbacanaL -->
<g id="node53" class="node">
<title>barbacanaL</title>
<text text-anchor="start" x="668" y="-525.8" font-family="Times New Roman,serif" font-weight="bold" font-size="14.00">Latin</text>
<text text-anchor="start" x="655.5" y="-511.8" font-family="Times New Roman,serif" font-size="14.00" fill="red">barbacana</text>
</g>
<!-- barbarkhanP&#45;&gt;barbacanaL -->
<g id="edge52" class="edge">
<title>barbarkhanP&#45;&gt;barbacanaL</title>
<path fill="none" stroke="black" stroke-dasharray="1,5" d="M684.5,-617.99C684.5,-600.06 684.5,-571.56 684.5,-550.44"/>
<polygon fill="black" stroke="black" points="688,-550.17 684.5,-540.17 681,-550.17 688,-550.17"/>
</g>
<!-- barbacaneOF -->
<g id="node54" class="node">
<title>barbacaneOF</title>
<text text-anchor="start" x="651.5" y="-446.8" font-family="Times New Roman,serif" font-weight="bold" font-size="14.00">Old French</text>
<text text-anchor="start" x="657.5" y="-432.8" font-family="Times New Roman,serif" font-size="14.00" fill="red">barbacane</text>
</g>
<!-- barbacanaL&#45;&gt;barbacaneOF -->
<g id="edge53" class="edge">
<title>barbacanaL&#45;&gt;barbacaneOF</title>
<path fill="none" stroke="black" d="M684.94,-503.91C685.19,-494.34 685.51,-482.18 685.79,-471.32"/>
<polygon fill="black" stroke="black" points="689.3,-471.13 686.06,-461.04 682.3,-470.95 689.3,-471.13"/>
</g>
<!-- barbicanME -->
<g id="node55" class="node">
<title>barbicanME</title>
<text text-anchor="start" x="661" y="-160.8" font-family="Times New Roman,serif" font-weight="bold" font-size="14.00">Middle English</text>
<text text-anchor="start" x="683" y="-146.8" font-family="Times New Roman,serif" font-size="14.00" fill="red">barbican</text>
</g>
<!-- barbacaneOF&#45;&gt;barbicanME -->
<g id="edge54" class="edge">
<title>barbacaneOF&#45;&gt;barbicanME</title>
<path fill="none" stroke="black" stroke-dasharray="1,5" d="M687.78,-424.66C691.31,-376.92 701.2,-243.23 705.48,-185.32"/>
<polygon fill="black" stroke="black" points="708.99,-185.34 706.23,-175.11 702.01,-184.83 708.99,-185.34"/>
</g>
<!-- barbican -->
<g id="node56" class="node">
<title>barbican</title>
<text text-anchor="start" x="673" y="-27.8" font-family="Times New Roman,serif" font-weight="bold" font-size="14.00">Modern English</text>
<text text-anchor="start" x="698" y="-13.8" font-family="Times New Roman,serif" font-size="14.00" fill="red">barbican</text>
</g>
<!-- barbicanME&#45;&gt;barbican -->
<g id="edge55" class="edge">
<title>barbicanME&#45;&gt;barbican</title>
<path fill="none" stroke="black" d="M709.46,-138.87C711.99,-116.81 716.41,-78.19 719.39,-52.12"/>
<polygon fill="black" stroke="black" points="722.88,-52.46 720.54,-42.13 715.92,-51.67 722.88,-52.46"/>
</g>
</g>
</svg>
