<?xml version="1.0" encoding="UTF-8" standalone="no"?>
<!DOCTYPE svg PUBLIC "-//W3C//DTD SVG 1.1//EN"
 "http://www.w3.org/Graphics/SVG/1.1/DTD/svg11.dtd">
<!-- Generated by graphviz version 2.44.1 (20200629.0846)
 -->
<!-- Title: 4 Pages: 1 -->
<svg width="788pt" height="700pt"
 viewBox="0.00 0.00 788.00 700.00" xmlns="http://www.w3.org/2000/svg" xmlns:xlink="http://www.w3.org/1999/xlink">
<g id="graph0" class="graph" transform="scale(1 1) rotate(0) translate(4 696)">
<title>4</title>
<polygon fill="white" stroke="transparent" points="-4,4 -4,-696 784,-696 784,4 -4,4"/>
<!-- pre -->
<g id="node1" class="node">
<title>pre</title>
<text text-anchor="start" x="331" y="-677.8" font-family="Times New Roman,serif" font-weight="bold" font-size="14.00">Indo&#45;European</text>
<text text-anchor="start" x="338" y="-663.8" font-family="Times New Roman,serif" font-size="14.00" fill="red">pr̥ə&#45;</text>
<text text-anchor="start" x="361" y="-663.8" font-family="Times New Roman,serif" font-size="14.00"> &#160;&#160;forward</text>
</g>
<!-- premo -->
<g id="node2" class="node">
<title>premo</title>
<text text-anchor="start" x="167.5" y="-434.3" font-family="Times New Roman,serif" font-size="14.00" fill="red">pr̥ə&#45;mo&#45;</text>
</g>
<!-- pre&#45;&gt;premo -->
<g id="edge1" class="edge">
<title>pre&#45;&gt;premo</title>
<path fill="none" stroke="black" d="M344.18,-655.92C328.45,-646.75 310.17,-634.37 296.5,-620 251.56,-572.78 217.64,-503.1 201.3,-465.46"/>
<polygon fill="black" stroke="black" points="204.49,-464 197.35,-456.17 198.05,-466.74 204.49,-464"/>
</g>
<!-- preisto -->
<g id="node3" class="node">
<title>preisto</title>
<text text-anchor="start" x="313.5" y="-597.3" font-family="Times New Roman,serif" font-size="14.00" fill="red">pr̥ə&#45;isto&#45;</text>
</g>
<!-- pre&#45;&gt;preisto -->
<g id="edge2" class="edge">
<title>pre&#45;&gt;preisto</title>
<path fill="none" stroke="black" d="M367.82,-655.81C363.1,-647.44 357.33,-637.2 352.09,-627.9"/>
<polygon fill="black" stroke="black" points="355.05,-626.02 347.09,-619.03 348.95,-629.46 355.05,-626.02"/>
</g>
<!-- prewo -->
<g id="node4" class="node">
<title>prewo</title>
<text text-anchor="start" x="403" y="-604.8" font-family="Times New Roman,serif" font-size="14.00" fill="red">pr̥ə&#45;wo&#45;</text>
<text text-anchor="start" x="404.5" y="-589.8" font-family="Times New Roman,serif" font-size="14.00" fill="red">prōwo&#45;</text>
</g>
<!-- pre&#45;&gt;prewo -->
<g id="edge3" class="edge">
<title>pre&#45;&gt;prewo</title>
<path fill="none" stroke="black" d="M389.12,-655.81C394.67,-647.6 401.44,-637.59 407.62,-628.44"/>
<polygon fill="black" stroke="black" points="410.62,-630.26 413.32,-620.02 404.82,-626.34 410.62,-630.26"/>
</g>
<!-- prei -->
<g id="node5" class="node">
<title>prei</title>
<text text-anchor="middle" x="501.5" y="-597.3" font-family="Times New Roman,serif" font-size="14.00">prei</text>
</g>
<!-- pre&#45;&gt;prei -->
<g id="edge4" class="edge">
<title>pre&#45;&gt;prei</title>
<path fill="none" stroke="black" d="M407.2,-655.99C424.69,-645.98 446.93,-633.25 465.42,-622.66"/>
<polygon fill="black" stroke="black" points="467.22,-625.66 474.16,-617.65 463.74,-619.59 467.22,-625.66"/>
</g>
<!-- frumaGm -->
<g id="node8" class="node">
<title>frumaGm</title>
<text text-anchor="start" x="31" y="-356.8" font-family="Times New Roman,serif" font-weight="bold" font-size="14.00">Germanic</text>
<text text-anchor="start" x="20.5" y="-342.8" font-family="Times New Roman,serif" font-size="14.00" fill="red">fruma&#45;, furma&#45;</text>
</g>
<!-- premo&#45;&gt;frumaGm -->
<g id="edge7" class="edge">
<title>premo&#45;&gt;frumaGm</title>
<path fill="none" stroke="black" d="M163.77,-419.8C144.31,-407.28 117.77,-390.21 96.61,-376.59"/>
<polygon fill="black" stroke="black" points="98.5,-373.64 88.19,-371.18 94.71,-379.53 98.5,-373.64"/>
</g>
<!-- frumistaGm -->
<g id="node13" class="node">
<title>frumistaGm</title>
<text text-anchor="start" x="160" y="-356.8" font-family="Times New Roman,serif" font-weight="bold" font-size="14.00">Germanic</text>
<text text-anchor="start" x="137" y="-342.8" font-family="Times New Roman,serif" font-size="14.00" fill="red">frumista&#45;, furmista&#45;</text>
</g>
<!-- premo&#45;&gt;frumistaGm -->
<g id="edge12" class="edge">
<title>premo&#45;&gt;frumistaGm</title>
<path fill="none" stroke="black" d="M190.5,-419.8C190.5,-408.67 190.5,-393.94 190.5,-381.24"/>
<polygon fill="black" stroke="black" points="194,-381.18 190.5,-371.18 187,-381.18 194,-381.18"/>
</g>
<!-- furistaGm -->
<g id="node17" class="node">
<title>furistaGm</title>
<text text-anchor="start" x="294" y="-531.8" font-family="Times New Roman,serif" font-weight="bold" font-size="14.00">Germanic</text>
<text text-anchor="start" x="304.5" y="-517.8" font-family="Times New Roman,serif" font-size="14.00" fill="red">furista&#45;</text>
<text text-anchor="start" x="304.5" y="-505.4" font-family="Times New Roman,serif" font-size="12.00">foremost</text>
</g>
<!-- preisto&#45;&gt;furistaGm -->
<g id="edge16" class="edge">
<title>preisto&#45;&gt;furistaGm</title>
<path fill="none" stroke="black" d="M334.61,-582.91C333.29,-575.06 331.67,-565.46 330.12,-556.27"/>
<polygon fill="black" stroke="black" points="333.53,-555.45 328.41,-546.17 326.63,-556.62 333.53,-555.45"/>
</g>
<!-- prowarya -->
<g id="node6" class="node">
<title>prowarya</title>
<text text-anchor="start" x="407.5" y="-518.3" font-family="Times New Roman,serif" font-size="14.00" fill="red">prōw&#45;arya&#45;</text>
</g>
<!-- prewo&#45;&gt;prowarya -->
<g id="edge5" class="edge">
<title>prewo&#45;&gt;prowarya</title>
<path fill="none" stroke="black" d="M428.58,-581.75C430.18,-572.28 432.17,-560.52 433.94,-550.02"/>
<polygon fill="black" stroke="black" points="437.41,-550.51 435.62,-540.06 430.5,-549.34 437.41,-550.51"/>
</g>
<!-- prowato -->
<g id="node7" class="node">
<title>prowato</title>
<text text-anchor="start" x="532.5" y="-518.3" font-family="Times New Roman,serif" font-size="14.00" fill="red">prōw&#45;ato&#45;</text>
</g>
<!-- prewo&#45;&gt;prowato -->
<g id="edge6" class="edge">
<title>prewo&#45;&gt;prowato</title>
<path fill="none" stroke="black" d="M456.13,-582.53C475.51,-571.47 500.75,-557.08 521.54,-545.22"/>
<polygon fill="black" stroke="black" points="523.5,-548.13 530.45,-540.14 520.03,-542.05 523.5,-548.13"/>
</g>
<!-- proiraG -->
<g id="node21" class="node">
<title>proiraG</title>
<text text-anchor="start" x="419.5" y="-441.8" font-family="Times New Roman,serif" font-weight="bold" font-size="14.00">Greek</text>
<text text-anchor="start" x="422.5" y="-427.8" font-family="Times New Roman,serif" font-size="14.00" fill="red">prōira</text>
</g>
<!-- prowarya&#45;&gt;proiraG -->
<g id="edge20" class="edge">
<title>prowarya&#45;&gt;proiraG</title>
<path fill="none" stroke="black" d="M438.71,-503.61C438.84,-492.77 439.02,-478.6 439.17,-466.29"/>
<polygon fill="black" stroke="black" points="442.67,-466.13 439.29,-456.08 435.67,-466.04 442.67,-466.13"/>
</g>
<!-- protosG -->
<g id="node27" class="node">
<title>protosG</title>
<text text-anchor="start" x="569.5" y="-277.8" font-family="Times New Roman,serif" font-weight="bold" font-size="14.00">Greek</text>
<text text-anchor="start" x="569" y="-263.8" font-family="Times New Roman,serif" font-size="14.00" fill="red">prōtos,</text>
<text text-anchor="start" x="571.5" y="-249.8" font-family="Times New Roman,serif" font-size="14.00" fill="red">prōto&#45;</text>
<text text-anchor="start" x="581" y="-237.4" font-family="Times New Roman,serif" font-size="12.00">first</text>
</g>
<!-- prowato&#45;&gt;protosG -->
<g id="edge26" class="edge">
<title>prowato&#45;&gt;protosG</title>
<path fill="none" stroke="black" d="M562.45,-503.6C567.03,-462.71 578.57,-359.6 585,-302.17"/>
<polygon fill="black" stroke="black" points="588.51,-302.34 586.14,-292.01 581.55,-301.56 588.51,-302.34"/>
</g>
<!-- formaOE -->
<g id="node9" class="node">
<title>formaOE</title>
<text text-anchor="start" x="25" y="-270.8" font-family="Times New Roman,serif" font-weight="bold" font-size="14.00">Old English</text>
<text text-anchor="start" x="44.5" y="-256.8" font-family="Times New Roman,serif" font-size="14.00" fill="red">forma</text>
<text text-anchor="start" x="53" y="-244.4" font-family="Times New Roman,serif" font-size="12.00">first</text>
</g>
<!-- frumaGm&#45;&gt;formaOE -->
<g id="edge8" class="edge">
<title>frumaGm&#45;&gt;formaOE</title>
<path fill="none" stroke="black" d="M61.5,-334.65C61.5,-323.52 61.5,-308.72 61.5,-295.38"/>
<polygon fill="black" stroke="black" points="65,-295.09 61.5,-285.09 58,-295.09 65,-295.09"/>
</g>
<!-- formeME -->
<g id="node10" class="node">
<title>formeME</title>
<text text-anchor="start" x="14" y="-179.8" font-family="Times New Roman,serif" font-weight="bold" font-size="14.00">Middle English</text>
<text text-anchor="start" x="43.5" y="-165.8" font-family="Times New Roman,serif" font-size="14.00" fill="red">forme</text>
</g>
<!-- formaOE&#45;&gt;formeME -->
<g id="edge9" class="edge">
<title>formaOE&#45;&gt;formeME</title>
<path fill="none" stroke="black" d="M61.22,-236.88C61.1,-226.84 60.96,-215 60.83,-204.51"/>
<polygon fill="black" stroke="black" points="64.33,-204.16 60.71,-194.21 57.33,-204.25 64.33,-204.16"/>
</g>
<!-- formerME -->
<g id="node11" class="node">
<title>formerME</title>
<text text-anchor="start" x="39.5" y="-106.8" font-family="Times New Roman,serif" font-size="14.00" fill="red">former</text>
<text text-anchor="start" x="26.5" y="-94.4" font-family="Times New Roman,serif" font-size="12.00">(comparative)</text>
</g>
<!-- formeME&#45;&gt;formerME -->
<g id="edge10" class="edge">
<title>formeME&#45;&gt;formerME</title>
<path fill="none" stroke="black" d="M60.01,-157.7C59.79,-149.98 59.52,-140.71 59.27,-132.11"/>
<polygon fill="black" stroke="black" points="62.77,-132 58.99,-122.1 55.78,-132.2 62.77,-132"/>
</g>
<!-- former -->
<g id="node12" class="node">
<title>former</title>
<text text-anchor="start" x="8" y="-28.8" font-family="Times New Roman,serif" font-weight="bold" font-size="14.00">Modern English</text>
<text text-anchor="start" x="38.5" y="-14.8" font-family="Times New Roman,serif" font-size="14.00" fill="red">former</text>
</g>
<!-- formerME&#45;&gt;former -->
<g id="edge11" class="edge">
<title>formerME&#45;&gt;former</title>
<path fill="none" stroke="black" d="M58.28,-85.91C58.15,-76.34 58,-64.18 57.85,-53.32"/>
<polygon fill="black" stroke="black" points="61.35,-52.99 57.72,-43.04 54.35,-53.09 61.35,-52.99"/>
</g>
<!-- formestOE -->
<g id="node14" class="node">
<title>formestOE</title>
<text text-anchor="start" x="154" y="-264.8" font-family="Times New Roman,serif" font-weight="bold" font-size="14.00">Old English</text>
<text text-anchor="start" x="169" y="-250.8" font-family="Times New Roman,serif" font-size="14.00" fill="red">formest</text>
</g>
<!-- frumistaGm&#45;&gt;formestOE -->
<g id="edge13" class="edge">
<title>frumistaGm&#45;&gt;formestOE</title>
<path fill="none" stroke="black" d="M190.5,-334.65C190.5,-321.82 190.5,-304.11 190.5,-289.38"/>
<polygon fill="black" stroke="black" points="194,-289.3 190.5,-279.3 187,-289.3 194,-289.3"/>
</g>
<!-- formestME -->
<g id="node15" class="node">
<title>formestME</title>
<text text-anchor="start" x="144" y="-179.8" font-family="Times New Roman,serif" font-weight="bold" font-size="14.00">Middle English</text>
<text text-anchor="start" x="169" y="-165.8" font-family="Times New Roman,serif" font-size="14.00" fill="red">formest</text>
</g>
<!-- formestOE&#45;&gt;formestME -->
<g id="edge14" class="edge">
<title>formestOE&#45;&gt;formestME</title>
<path fill="none" stroke="black" d="M190.5,-242.8C190.5,-231.67 190.5,-216.94 190.5,-204.24"/>
<polygon fill="black" stroke="black" points="194,-204.18 190.5,-194.18 187,-204.18 194,-204.18"/>
</g>
<!-- foremost -->
<g id="node16" class="node">
<title>foremost</title>
<text text-anchor="start" x="141" y="-28.8" font-family="Times New Roman,serif" font-weight="bold" font-size="14.00">Modern English</text>
<text text-anchor="start" x="165" y="-14.8" font-family="Times New Roman,serif" font-size="14.00" fill="red">foremost</text>
</g>
<!-- formestME&#45;&gt;foremost -->
<g id="edge15" class="edge">
<title>formestME&#45;&gt;foremost</title>
<path fill="none" stroke="black" d="M190.5,-157.91C190.5,-132.45 190.5,-84.28 190.5,-53.74"/>
<polygon fill="black" stroke="black" points="194,-53.35 190.5,-43.35 187,-53.35 194,-53.35"/>
</g>
<!-- fyrstOE -->
<g id="node18" class="node">
<title>fyrstOE</title>
<text text-anchor="start" x="288" y="-447.8" font-family="Times New Roman,serif" font-weight="bold" font-size="14.00">Old English</text>
<text text-anchor="start" x="292" y="-433.8" font-family="Times New Roman,serif" font-size="14.00" fill="red">fyrst, fyrest</text>
<text text-anchor="start" x="316" y="-421.4" font-family="Times New Roman,serif" font-size="12.00">first</text>
</g>
<!-- furistaGm&#45;&gt;fyrstOE -->
<g id="edge17" class="edge">
<title>furistaGm&#45;&gt;fyrstOE</title>
<path fill="none" stroke="black" d="M324.5,-497.72C324.5,-489.78 324.5,-480.73 324.5,-472.16"/>
<polygon fill="black" stroke="black" points="328,-472.05 324.5,-462.05 321,-472.05 328,-472.05"/>
</g>
<!-- firstME -->
<g id="node19" class="node">
<title>firstME</title>
<text text-anchor="start" x="277" y="-107.8" font-family="Times New Roman,serif" font-weight="bold" font-size="14.00">Middle English</text>
<text text-anchor="start" x="312.5" y="-93.8" font-family="Times New Roman,serif" font-size="14.00" fill="red">first</text>
</g>
<!-- fyrstOE&#45;&gt;firstME -->
<g id="edge18" class="edge">
<title>fyrstOE&#45;&gt;firstME</title>
<path fill="none" stroke="black" d="M324.43,-413.92C324.25,-354.42 323.77,-196.05 323.58,-132.23"/>
<polygon fill="black" stroke="black" points="327.08,-132.12 323.55,-122.13 320.08,-132.14 327.08,-132.12"/>
</g>
<!-- first -->
<g id="node20" class="node">
<title>first</title>
<text text-anchor="start" x="274" y="-28.8" font-family="Times New Roman,serif" font-weight="bold" font-size="14.00">Modern English</text>
<text text-anchor="start" x="312.5" y="-14.8" font-family="Times New Roman,serif" font-size="14.00" fill="red">first</text>
</g>
<!-- firstME&#45;&gt;first -->
<g id="edge19" class="edge">
<title>firstME&#45;&gt;first</title>
<path fill="none" stroke="black" d="M323.5,-85.91C323.5,-76.34 323.5,-64.18 323.5,-53.32"/>
<polygon fill="black" stroke="black" points="327,-53.04 323.5,-43.04 320,-53.04 327,-53.04"/>
</g>
<!-- proraL -->
<g id="node22" class="node">
<title>proraL</title>
<text text-anchor="start" x="428" y="-363.8" font-family="Times New Roman,serif" font-weight="bold" font-size="14.00">Latin</text>
<text text-anchor="start" x="427.5" y="-349.8" font-family="Times New Roman,serif" font-size="14.00" fill="red">prōra,</text>
<text text-anchor="start" x="427.5" y="-335.8" font-family="Times New Roman,serif" font-size="14.00" fill="red">prōda</text>
</g>
<!-- proiraG&#45;&gt;proraL -->
<g id="edge21" class="edge">
<title>proiraG&#45;&gt;proraL</title>
<path fill="none" stroke="black" stroke-dasharray="1,5" d="M440.54,-419.8C441.09,-410.66 441.78,-399.09 442.44,-388.22"/>
<polygon fill="black" stroke="black" points="445.94,-388.29 443.05,-378.1 438.95,-387.87 445.94,-388.29"/>
</g>
<!-- pruaI -->
<g id="node23" class="node">
<title>pruaI</title>
<text text-anchor="start" x="433.5" y="-271.8" font-family="Times New Roman,serif" font-weight="bold" font-size="14.00">Italian</text>
<text text-anchor="start" x="426" y="-257.8" font-family="Times New Roman,serif" font-size="14.00">dialectical</text>
<text text-anchor="start" x="441" y="-243.8" font-family="Times New Roman,serif" font-size="14.00" fill="red">prua</text>
</g>
<!-- proraL&#45;&gt;pruaI -->
<g id="edge22" class="edge">
<title>proraL&#45;&gt;pruaI</title>
<path fill="none" stroke="black" d="M446.91,-327.88C447.88,-318.2 449.01,-306.85 450.07,-296.34"/>
<polygon fill="black" stroke="black" points="453.57,-296.48 451.08,-286.18 446.6,-295.79 453.57,-296.48"/>
</g>
<!-- proueF -->
<g id="node24" class="node">
<title>proueF</title>
<text text-anchor="start" x="433.5" y="-179.8" font-family="Times New Roman,serif" font-weight="bold" font-size="14.00">French</text>
<text text-anchor="start" x="439" y="-165.8" font-family="Times New Roman,serif" font-size="14.00" fill="red">proue</text>
</g>
<!-- pruaI&#45;&gt;proueF -->
<g id="edge23" class="edge">
<title>pruaI&#45;&gt;proueF</title>
<path fill="none" stroke="black" stroke-dasharray="1,5" d="M454.08,-235.99C454.32,-226.04 454.6,-214.45 454.84,-204.19"/>
<polygon fill="black" stroke="black" points="458.35,-204.18 455.09,-194.1 451.35,-204.02 458.35,-204.18"/>
</g>
<!-- proueME -->
<g id="node25" class="node">
<title>proueME</title>
<text text-anchor="start" x="409" y="-107.8" font-family="Times New Roman,serif" font-weight="bold" font-size="14.00">Middle English</text>
<text text-anchor="start" x="439" y="-93.8" font-family="Times New Roman,serif" font-size="14.00" fill="red">proue</text>
</g>
<!-- proueF&#45;&gt;proueME -->
<g id="edge24" class="edge">
<title>proueF&#45;&gt;proueME</title>
<path fill="none" stroke="black" stroke-dasharray="1,5" d="M455.5,-157.7C455.5,-149.98 455.5,-140.71 455.5,-132.11"/>
<polygon fill="black" stroke="black" points="459,-132.1 455.5,-122.1 452,-132.1 459,-132.1"/>
</g>
<!-- prow -->
<g id="node26" class="node">
<title>prow</title>
<text text-anchor="start" x="407" y="-28.8" font-family="Times New Roman,serif" font-weight="bold" font-size="14.00">Modern English</text>
<text text-anchor="start" x="441.5" y="-14.8" font-family="Times New Roman,serif" font-size="14.00" fill="red">prow</text>
</g>
<!-- proueME&#45;&gt;prow -->
<g id="edge25" class="edge">
<title>proueME&#45;&gt;prow</title>
<path fill="none" stroke="black" d="M455.72,-85.91C455.85,-76.34 456,-64.18 456.15,-53.32"/>
<polygon fill="black" stroke="black" points="459.65,-53.09 456.28,-43.04 452.65,-52.99 459.65,-53.09"/>
</g>
<!-- proteiosG -->
<g id="node28" class="node">
<title>proteiosG</title>
<text text-anchor="start" x="566.5" y="-178.8" font-family="Times New Roman,serif" font-size="14.00" fill="red">prōteios</text>
<text text-anchor="start" x="550.5" y="-166.4" font-family="Times New Roman,serif" font-size="12.00">of the first quality</text>
</g>
<!-- protosG&#45;&gt;proteiosG -->
<g id="edge27" class="edge">
<title>protosG&#45;&gt;proteiosG</title>
<path fill="none" stroke="black" d="M589.5,-229.57C589.5,-221.33 589.5,-212.47 589.5,-204.41"/>
<polygon fill="black" stroke="black" points="593,-204.4 589.5,-194.4 586,-204.4 593,-204.4"/>
</g>
<!-- proton -->
<g id="node29" class="node">
<title>proton</title>
<text text-anchor="start" x="673" y="-35.8" font-family="Times New Roman,serif" font-weight="bold" font-size="14.00">Modern English</text>
<text text-anchor="start" x="704.5" y="-21.8" font-family="Times New Roman,serif" font-size="14.00" fill="red">proto&#45;</text>
<text text-anchor="start" x="703.5" y="-7.8" font-family="Times New Roman,serif" font-size="14.00" fill="red">proton</text>
</g>
<!-- protosG&#45;&gt;proton -->
<g id="edge28" class="edge">
<title>protosG&#45;&gt;proton</title>
<path fill="none" stroke="black" stroke-dasharray="1,5" d="M618.13,-229.81C627.53,-219.01 637.59,-206.42 645.5,-194 673.33,-150.27 696.7,-94.83 710.15,-59.87"/>
<polygon fill="black" stroke="black" points="713.57,-60.74 713.84,-50.15 707.02,-58.26 713.57,-60.74"/>
</g>
<!-- proteineF -->
<g id="node30" class="node">
<title>proteineF</title>
<text text-anchor="start" x="567.5" y="-107.8" font-family="Times New Roman,serif" font-weight="bold" font-size="14.00">French</text>
<text text-anchor="start" x="566.5" y="-93.8" font-family="Times New Roman,serif" font-size="14.00" fill="red">protéine</text>
</g>
<!-- proteiosG&#45;&gt;proteineF -->
<g id="edge29" class="edge">
<title>proteiosG&#45;&gt;proteineF</title>
<path fill="none" stroke="black" stroke-dasharray="1,5" d="M589.5,-157.7C589.5,-149.98 589.5,-140.71 589.5,-132.11"/>
<polygon fill="black" stroke="black" points="593,-132.1 589.5,-122.1 586,-132.1 593,-132.1"/>
</g>
<!-- protein -->
<g id="node31" class="node">
<title>protein</title>
<text text-anchor="start" x="540" y="-28.8" font-family="Times New Roman,serif" font-weight="bold" font-size="14.00">Modern English</text>
<text text-anchor="start" x="569.5" y="-14.8" font-family="Times New Roman,serif" font-size="14.00" fill="red">protein</text>
</g>
<!-- proteineF&#45;&gt;protein -->
<g id="edge30" class="edge">
<title>proteineF&#45;&gt;protein</title>
<path fill="none" stroke="black" stroke-dasharray="1,5" d="M589.5,-85.91C589.5,-76.34 589.5,-64.18 589.5,-53.32"/>
<polygon fill="black" stroke="black" points="593,-53.04 589.5,-43.04 586,-53.04 593,-53.04"/>
</g>
</g>
</svg>
