<?xml version="1.0" encoding="UTF-8" standalone="no"?>
<!DOCTYPE svg PUBLIC "-//W3C//DTD SVG 1.1//EN"
 "http://www.w3.org/Graphics/SVG/1.1/DTD/svg11.dtd">
<!-- Generated by graphviz version 2.44.1 (20200629.0846)
 -->
<!-- Title: 7 Pages: 1 -->
<svg width="1187pt" height="756pt"
 viewBox="0.00 0.00 1187.00 756.00" xmlns="http://www.w3.org/2000/svg" xmlns:xlink="http://www.w3.org/1999/xlink">
<g id="graph0" class="graph" transform="scale(1 1) rotate(0) translate(4 752)">
<title>7</title>
<polygon fill="white" stroke="transparent" points="-4,4 -4,-752 1183,-752 1183,4 -4,4"/>
<!-- pro -->
<g id="node1" class="node">
<title>pro</title>
<text text-anchor="start" x="154" y="-733.8" font-family="Times New Roman,serif" font-weight="bold" font-size="14.00">Indo&#45;European</text>
<text text-anchor="start" x="162.5" y="-719.8" font-family="Times New Roman,serif" font-size="14.00" fill="red">prō̆</text>
<text text-anchor="start" x="182.5" y="-719.8" font-family="Times New Roman,serif" font-size="14.00"> &#160;&#160;forward</text>
</g>
<!-- prokwe -->
<g id="node2" class="node">
<title>prokwe</title>
<text text-anchor="start" x="379" y="-654.3" font-family="Times New Roman,serif" font-size="14.00" fill="red">prokʷe</text>
</g>
<!-- pro&#45;&gt;prokwe -->
<g id="edge1" class="edge">
<title>pro&#45;&gt;prokwe</title>
<path fill="none" stroke="black" d="M248.68,-711.97C283.29,-699.73 329.25,-683.48 361.1,-672.22"/>
<polygon fill="black" stroke="black" points="362.65,-675.39 370.91,-668.75 360.32,-668.79 362.65,-675.39"/>
</g>
<!-- probhwo -->
<g id="node3" class="node">
<title>probhwo</title>
<g id="a_node3"><a xlink:href="bheue-grow4.svg" xlink:title="&lt;font color=&quot;red&quot;&gt;pro&#45;bhw&#45;o&#45;&lt;/font&gt;">
<path fill="none" stroke="black" stroke-dasharray="5,2" d="M122,-676C122,-676 65,-676 65,-676 59,-676 53,-670 53,-664 53,-664 53,-652 53,-652 53,-646 59,-640 65,-640 65,-640 122,-640 122,-640 128,-640 134,-646 134,-652 134,-652 134,-664 134,-664 134,-670 128,-676 122,-676"/>
<text text-anchor="start" x="61" y="-654.3" font-family="Times New Roman,serif" font-size="14.00" fill="red">pro&#45;bhw&#45;o&#45;</text>
</a>
</g>
</g>
<!-- pro&#45;&gt;probhwo -->
<g id="edge2" class="edge">
<title>pro&#45;&gt;probhwo</title>
<path fill="none" stroke="black" d="M174.32,-711.88C160.46,-702.81 143.26,-691.55 128.29,-681.76"/>
<polygon fill="black" stroke="black" points="130.06,-678.74 119.78,-676.19 126.23,-684.59 130.06,-678.74"/>
</g>
<!-- proL -->
<g id="node4" class="node">
<title>proL</title>
<text text-anchor="start" x="944" y="-504.8" font-family="Times New Roman,serif" font-weight="bold" font-size="14.00">Latin</text>
<text text-anchor="start" x="934.5" y="-490.8" font-family="Times New Roman,serif" font-size="14.00" fill="red">prō, prō&#45;</text>
<text text-anchor="start" x="911.5" y="-478.4" font-family="Times New Roman,serif" font-size="12.00">before, for, in front of</text>
</g>
<!-- pro&#45;&gt;proL -->
<g id="edge3" class="edge">
<title>pro&#45;&gt;proL</title>
<path fill="none" stroke="black" d="M255.45,-718.05C303.29,-708.18 374.37,-692.68 435.5,-676 637.27,-620.94 688.83,-608.44 883.5,-532 890.3,-529.33 897.35,-526.35 904.3,-523.27"/>
<polygon fill="black" stroke="black" points="906,-526.34 913.67,-519.04 903.12,-519.96 906,-526.34"/>
</g>
<!-- proG -->
<g id="node5" class="node">
<title>proG</title>
<text text-anchor="start" x="111.5" y="-504.8" font-family="Times New Roman,serif" font-weight="bold" font-size="14.00">Greek</text>
<text text-anchor="start" x="105.5" y="-490.8" font-family="Times New Roman,serif" font-size="14.00" fill="red">pro, pro&#45;</text>
<text text-anchor="start" x="77" y="-478.4" font-family="Times New Roman,serif" font-size="12.00">before, in front, forward</text>
</g>
<!-- pro&#45;&gt;proG -->
<g id="edge4" class="edge">
<title>pro&#45;&gt;proG</title>
<path fill="none" stroke="black" d="M195.43,-711.87C184.01,-673.33 156.15,-579.25 141.26,-528.96"/>
<polygon fill="black" stroke="black" points="144.57,-527.82 138.38,-519.23 137.86,-529.81 144.57,-527.82"/>
</g>
<!-- roweroC -->
<g id="node6" class="node">
<title>roweroC</title>
<g id="a_node6"><a xlink:href="wereo.svg" xlink:title="&lt;b&gt;Celtic&lt;/b&gt;&lt;br/&gt;&lt;font color=&quot;red&quot;&gt;ro&#45;wero&#45;&lt;/font&gt;&lt;br/&gt;&lt;font point&#45;size=&quot;12&quot;&gt;sufficiency&lt;/font&gt;">
<path fill="none" stroke="black" stroke-dasharray="5,2" d="M269,-519C269,-519 228,-519 228,-519 222,-519 216,-513 216,-507 216,-507 216,-483 216,-483 216,-477 222,-471 228,-471 228,-471 269,-471 269,-471 275,-471 281,-477 281,-483 281,-483 281,-507 281,-507 281,-513 275,-519 269,-519"/>
<text text-anchor="start" x="230" y="-504.8" font-family="Times New Roman,serif" font-weight="bold" font-size="14.00">Celtic</text>
<text text-anchor="start" x="224" y="-490.8" font-family="Times New Roman,serif" font-size="14.00" fill="red">ro&#45;wero&#45;</text>
<text text-anchor="start" x="225" y="-478.4" font-family="Times New Roman,serif" font-size="12.00">sufficiency</text>
</a>
</g>
</g>
<!-- pro&#45;&gt;roweroC -->
<g id="edge5" class="edge">
<title>pro&#45;&gt;roweroC</title>
<path fill="none" stroke="black" d="M201.04,-711.81C202.29,-682.06 206.4,-619.27 219.5,-568 222.9,-554.71 228.18,-540.61 233.31,-528.44"/>
<polygon fill="black" stroke="black" points="236.57,-529.71 237.35,-519.14 230.15,-526.92 236.57,-529.71"/>
</g>
<!-- propeL -->
<g id="node7" class="node">
<title>propeL</title>
<text text-anchor="start" x="721" y="-517.8" font-family="Times New Roman,serif" font-weight="bold" font-size="14.00">Latin</text>
<text text-anchor="start" x="720.5" y="-503.8" font-family="Times New Roman,serif" font-size="14.00" fill="red">prope</text>
<text text-anchor="start" x="727.5" y="-491.4" font-family="Times New Roman,serif" font-size="12.00">near</text>
<text text-anchor="start" x="716" y="-477.8" font-family="Times New Roman,serif" font-size="14.00" fill="red">propius</text>
<text text-anchor="start" x="723" y="-465.4" font-family="Times New Roman,serif" font-size="12.00">nearer</text>
</g>
<!-- prokwe&#45;&gt;propeL -->
<g id="edge6" class="edge">
<title>prokwe&#45;&gt;propeL</title>
<path fill="none" stroke="black" d="M426.24,-643.82C486.5,-615.21 629.49,-547.3 698.67,-514.44"/>
<polygon fill="black" stroke="black" points="700.4,-517.5 707.93,-510.04 697.39,-511.17 700.4,-517.5"/>
</g>
<!-- prokwinkwo -->
<g id="node8" class="node">
<title>prokwinkwo</title>
<text text-anchor="start" x="308.5" y="-582.3" font-family="Times New Roman,serif" font-size="14.00" fill="red">prokʷ&#45;inkʷo&#45;</text>
</g>
<!-- prokwe&#45;&gt;prokwinkwo -->
<g id="edge7" class="edge">
<title>prokwe&#45;&gt;prokwinkwo</title>
<path fill="none" stroke="black" d="M385.15,-639.7C378.74,-631.39 370.94,-621.28 363.89,-612.14"/>
<polygon fill="black" stroke="black" points="366.57,-609.88 357.69,-604.1 361.03,-614.16 366.57,-609.88"/>
</g>
<!-- prokwisamo -->
<g id="node9" class="node">
<title>prokwisamo</title>
<text text-anchor="start" x="415" y="-582.3" font-family="Times New Roman,serif" font-size="14.00" fill="red">prokʷ&#45;isamo&#45;</text>
</g>
<!-- prokwe&#45;&gt;prokwisamo -->
<g id="edge8" class="edge">
<title>prokwe&#45;&gt;prokwisamo</title>
<path fill="none" stroke="black" d="M411.85,-639.7C418.26,-631.39 426.06,-621.28 433.11,-612.14"/>
<polygon fill="black" stroke="black" points="435.97,-614.16 439.31,-604.1 430.43,-609.88 435.97,-614.16"/>
</g>
<!-- pro1OF -->
<g id="node43" class="node">
<title>pro1OF</title>
<text text-anchor="start" x="999.5" y="-334.8" font-family="Times New Roman,serif" font-weight="bold" font-size="14.00">Old French</text>
<text text-anchor="start" x="1022" y="-320.8" font-family="Times New Roman,serif" font-size="14.00" fill="red">pro&#45;</text>
</g>
<!-- proL&#45;&gt;pro1OF -->
<g id="edge43" class="edge">
<title>proL&#45;&gt;pro1OF</title>
<path fill="none" stroke="black" d="M971.1,-470.79C984.66,-441.11 1008.09,-389.82 1022.35,-358.59"/>
<polygon fill="black" stroke="black" points="1025.67,-359.76 1026.64,-349.21 1019.3,-356.85 1025.67,-359.76"/>
</g>
<!-- pro2OF -->
<g id="node46" class="node">
<title>pro2OF</title>
<text text-anchor="start" x="75.5" y="-334.8" font-family="Times New Roman,serif" font-weight="bold" font-size="14.00">Old French</text>
<text text-anchor="start" x="98" y="-320.8" font-family="Times New Roman,serif" font-size="14.00" fill="red">pro&#45;</text>
</g>
<!-- proG&#45;&gt;pro2OF -->
<g id="edge46" class="edge">
<title>proG&#45;&gt;pro2OF</title>
<path fill="none" stroke="black" stroke-dasharray="1,5" d="M128.49,-470.79C124.68,-441.36 118.11,-390.7 114.05,-359.41"/>
<polygon fill="black" stroke="black" points="117.49,-358.68 112.73,-349.21 110.55,-359.58 117.49,-358.68"/>
</g>
<!-- appropiareL -->
<g id="node15" class="node">
<title>appropiareL</title>
<text text-anchor="start" x="707" y="-400.3" font-family="Times New Roman,serif" font-size="14.00" fill="red">appropiāre</text>
</g>
<!-- propeL&#45;&gt;appropiareL -->
<g id="edge11" class="edge">
<title>propeL&#45;&gt;appropiareL</title>
<path fill="none" stroke="black" d="M737.5,-457.8C737.5,-449.33 737.5,-440.44 737.5,-432.43"/>
<polygon fill="black" stroke="black" points="741,-432.16 737.5,-422.16 734,-432.16 741,-432.16"/>
</g>
<!-- repropiareL -->
<g id="node25" class="node">
<title>repropiareL</title>
<text text-anchor="start" x="808.5" y="-400.3" font-family="Times New Roman,serif" font-size="14.00" fill="red">repropiāre</text>
</g>
<!-- propeL&#45;&gt;repropiareL -->
<g id="edge21" class="edge">
<title>propeL&#45;&gt;repropiareL</title>
<path fill="none" stroke="black" d="M767.23,-467.54C781,-455.29 797.23,-440.84 810.62,-428.92"/>
<polygon fill="black" stroke="black" points="813,-431.49 818.14,-422.23 808.34,-426.27 813,-431.49"/>
</g>
<!-- propinquusL -->
<g id="node12" class="node">
<title>propinquusL</title>
<text text-anchor="start" x="325" y="-504.8" font-family="Times New Roman,serif" font-weight="bold" font-size="14.00">Latin</text>
<text text-anchor="start" x="309.5" y="-490.8" font-family="Times New Roman,serif" font-size="14.00" fill="red">propinquus</text>
<text text-anchor="start" x="331.5" y="-478.4" font-family="Times New Roman,serif" font-size="12.00">near</text>
</g>
<!-- prokwinkwo&#45;&gt;propinquusL -->
<g id="edge26" class="edge">
<title>prokwinkwo&#45;&gt;propinquusL</title>
<path fill="none" stroke="black" d="M343.92,-567.84C343.55,-556.92 343.06,-542.41 342.62,-529.29"/>
<polygon fill="black" stroke="black" points="346.12,-529.04 342.28,-519.17 339.12,-529.28 346.12,-529.04"/>
</g>
<!-- proximusL -->
<g id="node13" class="node">
<title>proximusL</title>
<text text-anchor="start" x="436" y="-504.8" font-family="Times New Roman,serif" font-weight="bold" font-size="14.00">Latin</text>
<text text-anchor="start" x="426" y="-490.8" font-family="Times New Roman,serif" font-size="14.00" fill="red">proximus</text>
<text text-anchor="start" x="436" y="-478.4" font-family="Times New Roman,serif" font-size="12.00">nearest</text>
</g>
<!-- prokwisamo&#45;&gt;proximusL -->
<g id="edge31" class="edge">
<title>prokwisamo&#45;&gt;proximusL</title>
<path fill="none" stroke="black" d="M452.5,-567.84C452.5,-556.92 452.5,-542.41 452.5,-529.29"/>
<polygon fill="black" stroke="black" points="456,-529.17 452.5,-519.17 449,-529.17 456,-529.17"/>
</g>
<!-- bheue -->
<g id="node10" class="node">
<title>bheue</title>
<text text-anchor="start" x="74.5" y="-726.3" font-family="Times New Roman,serif" font-size="14.00" fill="red">bheuə&#45;</text>
</g>
<!-- bheue&#45;&gt;probhwo -->
<g id="edge9" class="edge">
<title>bheue&#45;&gt;probhwo</title>
<path fill="none" stroke="black" d="M93.5,-711.7C93.5,-703.98 93.5,-694.71 93.5,-686.11"/>
<polygon fill="black" stroke="black" points="97,-686.1 93.5,-676.1 90,-686.1 97,-686.1"/>
</g>
<!-- wero -->
<g id="node11" class="node">
<title>wero</title>
<text text-anchor="start" x="237" y="-582.3" font-family="Times New Roman,serif" font-size="14.00" fill="red">&#45;wero&#45;</text>
</g>
<!-- wero&#45;&gt;roweroC -->
<g id="edge10" class="edge">
<title>wero&#45;&gt;roweroC</title>
<path fill="none" stroke="black" d="M254.15,-567.84C253.29,-556.92 252.15,-542.41 251.12,-529.29"/>
<polygon fill="black" stroke="black" points="254.6,-528.86 250.32,-519.17 247.62,-529.41 254.6,-528.86"/>
</g>
<!-- propinquitasL -->
<g id="node29" class="node">
<title>propinquitasL</title>
<text text-anchor="start" x="197.5" y="-400.3" font-family="Times New Roman,serif" font-size="14.00" fill="red">propinquitās</text>
</g>
<!-- propinquusL&#45;&gt;propinquitasL -->
<g id="edge27" class="edge">
<title>propinquusL&#45;&gt;propinquitasL</title>
<path fill="none" stroke="black" d="M313.15,-470.85C297.25,-457.87 277.46,-441.71 261.46,-428.65"/>
<polygon fill="black" stroke="black" points="263.44,-425.74 253.48,-422.13 259.01,-431.17 263.44,-425.74"/>
</g>
<!-- proximareL -->
<g id="node33" class="node">
<title>proximareL</title>
<text text-anchor="start" x="428" y="-406.8" font-family="Times New Roman,serif" font-size="14.00" fill="red">proximāre</text>
<text text-anchor="start" x="426.5" y="-394.4" font-family="Times New Roman,serif" font-size="12.00">to come near</text>
</g>
<!-- proximusL&#45;&gt;proximareL -->
<g id="edge32" class="edge">
<title>proximusL&#45;&gt;proximareL</title>
<path fill="none" stroke="black" d="M453.55,-470.62C454.08,-458.83 454.73,-444.46 455.28,-432.18"/>
<polygon fill="black" stroke="black" points="458.78,-432.19 455.73,-422.04 451.79,-431.87 458.78,-432.19"/>
</g>
<!-- proximitaasL -->
<g id="node36" class="node">
<title>proximitaasL</title>
<text text-anchor="start" x="323" y="-400.3" font-family="Times New Roman,serif" font-size="14.00" fill="red">proximitās</text>
</g>
<!-- proximusL&#45;&gt;proximitaasL -->
<g id="edge35" class="edge">
<title>proximusL&#45;&gt;proximitaasL</title>
<path fill="none" stroke="black" d="M426.49,-470.85C412.03,-457.99 394.08,-442 379.47,-429.01"/>
<polygon fill="black" stroke="black" points="381.54,-426.16 371.75,-422.13 376.89,-431.39 381.54,-426.16"/>
</g>
<!-- adL -->
<g id="node14" class="node">
<title>adL</title>
<text text-anchor="start" x="612" y="-497.8" font-family="Times New Roman,serif" font-size="14.00" fill="red">ad&#45;</text>
<text text-anchor="start" x="616.5" y="-485.4" font-family="Times New Roman,serif" font-size="12.00">to</text>
</g>
<!-- adL&#45;&gt;appropiareL -->
<g id="edge12" class="edge">
<title>adL&#45;&gt;appropiareL</title>
<path fill="none" stroke="black" d="M643.87,-476.84C661.84,-463.05 687.27,-443.54 707.09,-428.33"/>
<polygon fill="black" stroke="black" points="709.4,-430.97 715.2,-422.11 705.14,-425.42 709.4,-430.97"/>
</g>
<!-- approximareL -->
<g id="node40" class="node">
<title>approximareL</title>
<text text-anchor="start" x="554.5" y="-334.8" font-family="Times New Roman,serif" font-size="14.00" fill="red">approximāre</text>
<text text-anchor="start" x="551.5" y="-319.8" font-family="Times New Roman,serif" font-size="14.00" fill="red">approximātus</text>
</g>
<!-- adL&#45;&gt;approximareL -->
<g id="edge39" class="edge">
<title>adL&#45;&gt;approximareL</title>
<path fill="none" stroke="black" d="M618.14,-476.97C612.66,-449.26 601.77,-394.13 595.11,-360.42"/>
<polygon fill="black" stroke="black" points="598.48,-359.41 593.11,-350.28 591.62,-360.77 598.48,-359.41"/>
</g>
<!-- aprochierOF -->
<g id="node16" class="node">
<title>aprochierOF</title>
<text text-anchor="start" x="715.5" y="-334.8" font-family="Times New Roman,serif" font-weight="bold" font-size="14.00">Old French</text>
<text text-anchor="start" x="724" y="-320.8" font-family="Times New Roman,serif" font-size="14.00" fill="red">aprochier</text>
</g>
<!-- appropiareL&#45;&gt;aprochierOF -->
<g id="edge13" class="edge">
<title>appropiareL&#45;&gt;aprochierOF</title>
<path fill="none" stroke="black" d="M740.65,-385.81C742.12,-377.79 743.9,-368.05 745.54,-359.07"/>
<polygon fill="black" stroke="black" points="749.02,-359.5 747.38,-349.03 742.14,-358.23 749.02,-359.5"/>
</g>
<!-- approchenME -->
<g id="node17" class="node">
<title>approchenME</title>
<text text-anchor="start" x="804" y="-117.8" font-family="Times New Roman,serif" font-weight="bold" font-size="14.00">Middle English</text>
<text text-anchor="start" x="820.5" y="-103.8" font-family="Times New Roman,serif" font-size="14.00" fill="red">approchen</text>
</g>
<!-- aprochierOF&#45;&gt;approchenME -->
<g id="edge14" class="edge">
<title>aprochierOF&#45;&gt;approchenME</title>
<path fill="none" stroke="black" stroke-dasharray="1,5" d="M768.13,-312.82C777.6,-302.8 788.86,-289.51 796.5,-276 821.25,-232.23 836.99,-175.33 844.74,-142.21"/>
<polygon fill="black" stroke="black" points="848.18,-142.87 846.98,-132.34 841.35,-141.32 848.18,-142.87"/>
</g>
<!-- approcherF -->
<g id="node19" class="node">
<title>approcherF</title>
<text text-anchor="start" x="728.5" y="-261.8" font-family="Times New Roman,serif" font-weight="bold" font-size="14.00">French</text>
<text text-anchor="start" x="721.5" y="-247.8" font-family="Times New Roman,serif" font-size="14.00" fill="red">approcher</text>
</g>
<!-- aprochierOF&#45;&gt;approcherF -->
<g id="edge16" class="edge">
<title>aprochierOF&#45;&gt;approcherF</title>
<path fill="none" stroke="black" d="M750.5,-312.81C750.5,-304.79 750.5,-295.05 750.5,-286.07"/>
<polygon fill="black" stroke="black" points="754,-286.03 750.5,-276.03 747,-286.03 754,-286.03"/>
</g>
<!-- approach -->
<g id="node18" class="node">
<title>approach</title>
<text text-anchor="start" x="806" y="-33.8" font-family="Times New Roman,serif" font-weight="bold" font-size="14.00">Modern English</text>
<text text-anchor="start" x="829" y="-19.8" font-family="Times New Roman,serif" font-size="14.00" fill="red">approach</text>
</g>
<!-- approchenME&#45;&gt;approach -->
<g id="edge15" class="edge">
<title>approchenME&#45;&gt;approach</title>
<path fill="none" stroke="black" d="M851.56,-95.61C852.22,-84.77 853.09,-70.6 853.84,-58.29"/>
<polygon fill="black" stroke="black" points="857.34,-58.28 854.46,-48.08 850.36,-57.85 857.34,-58.28"/>
</g>
<!-- rapprocherF -->
<g id="node20" class="node">
<title>rapprocherF</title>
<text text-anchor="start" x="691.5" y="-188.8" font-family="Times New Roman,serif" font-size="14.00" fill="red">rapprocher</text>
<text text-anchor="start" x="685" y="-176.4" font-family="Times New Roman,serif" font-size="12.00">to bring together</text>
</g>
<!-- approcherF&#45;&gt;rapprocherF -->
<g id="edge17" class="edge">
<title>approcherF&#45;&gt;rapprocherF</title>
<path fill="none" stroke="black" d="M743.58,-239.7C740.43,-231.81 736.62,-222.3 733.12,-213.55"/>
<polygon fill="black" stroke="black" points="736.31,-212.09 729.34,-204.1 729.81,-214.69 736.31,-212.09"/>
</g>
<!-- rapprochementF -->
<g id="node21" class="node">
<title>rapprochementF</title>
<text text-anchor="start" x="680" y="-110.3" font-family="Times New Roman,serif" font-size="14.00" fill="red">rapprochement</text>
</g>
<!-- rapprocherF&#45;&gt;rapprochementF -->
<g id="edge18" class="edge">
<title>rapprocherF&#45;&gt;rapprochementF</title>
<path fill="none" stroke="black" d="M722.5,-167.7C722.5,-159.98 722.5,-150.71 722.5,-142.11"/>
<polygon fill="black" stroke="black" points="726,-142.1 722.5,-132.1 719,-142.1 726,-142.1"/>
</g>
<!-- rapprochement -->
<g id="node22" class="node">
<title>rapprochement</title>
<text text-anchor="start" x="673" y="-33.8" font-family="Times New Roman,serif" font-weight="bold" font-size="14.00">Modern English</text>
<text text-anchor="start" x="680" y="-19.8" font-family="Times New Roman,serif" font-size="14.00" fill="red">rapprochement</text>
</g>
<!-- rapprochementF&#45;&gt;rapprochement -->
<g id="edge19" class="edge">
<title>rapprochementF&#45;&gt;rapprochement</title>
<path fill="none" stroke="black" stroke-dasharray="1,5" d="M722.5,-95.61C722.5,-84.77 722.5,-70.6 722.5,-58.29"/>
<polygon fill="black" stroke="black" points="726,-58.08 722.5,-48.08 719,-58.08 726,-58.08"/>
</g>
<!-- reF -->
<g id="node23" class="node">
<title>reF</title>
<text text-anchor="start" x="650.5" y="-260.8" font-family="Times New Roman,serif" font-size="14.00" fill="red">re&#45;</text>
<text text-anchor="start" x="629.5" y="-248.4" font-family="Times New Roman,serif" font-size="12.00">again, back?</text>
</g>
<!-- reF&#45;&gt;rapprocherF -->
<g id="edge20" class="edge">
<title>reF&#45;&gt;rapprocherF</title>
<path fill="none" stroke="black" d="M674.32,-239.7C682.07,-231.22 691.54,-220.86 700.02,-211.58"/>
<polygon fill="black" stroke="black" points="702.7,-213.85 706.86,-204.1 697.53,-209.12 702.7,-213.85"/>
</g>
<!-- reL -->
<g id="node24" class="node">
<title>reL</title>
<text text-anchor="start" x="829.5" y="-497.8" font-family="Times New Roman,serif" font-size="14.00" fill="red">re&#45;</text>
<text text-anchor="start" x="808.5" y="-485.4" font-family="Times New Roman,serif" font-size="12.00">again, back?</text>
</g>
<!-- reL&#45;&gt;repropiareL -->
<g id="edge22" class="edge">
<title>reL&#45;&gt;repropiareL</title>
<path fill="none" stroke="black" d="M837.5,-476.84C837.5,-464.28 837.5,-446.98 837.5,-432.5"/>
<polygon fill="black" stroke="black" points="841,-432.11 837.5,-422.11 834,-432.11 841,-432.11"/>
</g>
<!-- reprochierOF -->
<g id="node26" class="node">
<title>reprochierOF</title>
<text text-anchor="start" x="827.5" y="-334.8" font-family="Times New Roman,serif" font-weight="bold" font-size="14.00">Old French</text>
<text text-anchor="start" x="833.5" y="-320.8" font-family="Times New Roman,serif" font-size="14.00" fill="red">reprochier</text>
</g>
<!-- repropiareL&#45;&gt;reprochierOF -->
<g id="edge23" class="edge">
<title>repropiareL&#45;&gt;reprochierOF</title>
<path fill="none" stroke="black" d="M843.55,-385.81C846.44,-377.62 849.96,-367.62 853.17,-358.48"/>
<polygon fill="black" stroke="black" points="856.48,-359.62 856.5,-349.03 849.88,-357.3 856.48,-359.62"/>
</g>
<!-- reprochenME -->
<g id="node27" class="node">
<title>reprochenME</title>
<text text-anchor="start" x="936" y="-117.8" font-family="Times New Roman,serif" font-weight="bold" font-size="14.00">Middle English</text>
<text text-anchor="start" x="954" y="-103.8" font-family="Times New Roman,serif" font-size="14.00" fill="red">reprochen</text>
</g>
<!-- reprochierOF&#45;&gt;reprochenME -->
<g id="edge24" class="edge">
<title>reprochierOF&#45;&gt;reprochenME</title>
<path fill="none" stroke="black" stroke-dasharray="1,5" d="M872.12,-312.77C893.15,-275.09 943.31,-185.21 968.12,-140.77"/>
<polygon fill="black" stroke="black" points="971.19,-142.45 973,-132.01 965.07,-139.04 971.19,-142.45"/>
</g>
<!-- reproach -->
<g id="node28" class="node">
<title>reproach</title>
<text text-anchor="start" x="939" y="-33.8" font-family="Times New Roman,serif" font-weight="bold" font-size="14.00">Modern English</text>
<text text-anchor="start" x="963.5" y="-19.8" font-family="Times New Roman,serif" font-size="14.00" fill="red">reproach</text>
</g>
<!-- reprochenME&#45;&gt;reproach -->
<g id="edge25" class="edge">
<title>reprochenME&#45;&gt;reproach</title>
<path fill="none" stroke="black" d="M983.77,-95.61C984.57,-84.77 985.6,-70.6 986.5,-58.29"/>
<polygon fill="black" stroke="black" points="990.01,-58.31 987.25,-48.08 983.03,-57.8 990.01,-58.31"/>
</g>
<!-- propinquiteOF -->
<g id="node30" class="node">
<title>propinquiteOF</title>
<text text-anchor="start" x="186.5" y="-334.8" font-family="Times New Roman,serif" font-weight="bold" font-size="14.00">Old French</text>
<text text-anchor="start" x="189.5" y="-320.8" font-family="Times New Roman,serif" font-size="14.00" fill="red">propinquite</text>
</g>
<!-- propinquitasL&#45;&gt;propinquiteOF -->
<g id="edge28" class="edge">
<title>propinquitasL&#45;&gt;propinquiteOF</title>
<path fill="none" stroke="black" d="M229.84,-385.81C228.59,-377.79 227.08,-368.05 225.69,-359.07"/>
<polygon fill="black" stroke="black" points="229.13,-358.38 224.14,-349.03 222.21,-359.45 229.13,-358.38"/>
</g>
<!-- propinquiteME -->
<g id="node31" class="node">
<title>propinquiteME</title>
<text text-anchor="start" x="149" y="-117.8" font-family="Times New Roman,serif" font-weight="bold" font-size="14.00">Middle English</text>
<text text-anchor="start" x="163.5" y="-103.8" font-family="Times New Roman,serif" font-size="14.00" fill="red">propinquite</text>
</g>
<!-- propinquiteOF&#45;&gt;propinquiteME -->
<g id="edge29" class="edge">
<title>propinquiteOF&#45;&gt;propinquiteME</title>
<path fill="none" stroke="black" stroke-dasharray="1,5" d="M219.42,-312.77C214.91,-275.49 204.22,-187.08 198.79,-142.18"/>
<polygon fill="black" stroke="black" points="202.23,-141.52 197.56,-132.01 195.28,-142.36 202.23,-141.52"/>
</g>
<!-- propinquity -->
<g id="node32" class="node">
<title>propinquity</title>
<text text-anchor="start" x="141" y="-33.8" font-family="Times New Roman,serif" font-weight="bold" font-size="14.00">Modern English</text>
<text text-anchor="start" x="158" y="-19.8" font-family="Times New Roman,serif" font-size="14.00" fill="red">propinquity</text>
</g>
<!-- propinquiteME&#45;&gt;propinquity -->
<g id="edge30" class="edge">
<title>propinquiteME&#45;&gt;propinquity</title>
<path fill="none" stroke="black" d="M194.44,-95.61C193.78,-84.77 192.91,-70.6 192.16,-58.29"/>
<polygon fill="black" stroke="black" points="195.64,-57.85 191.54,-48.08 188.66,-58.28 195.64,-57.85"/>
</g>
<!-- proximaatusL -->
<g id="node34" class="node">
<title>proximaatusL</title>
<text text-anchor="start" x="425" y="-182.3" font-family="Times New Roman,serif" font-size="14.00" fill="red">proximātus</text>
</g>
<!-- proximareL&#45;&gt;proximaatusL -->
<g id="edge33" class="edge">
<title>proximareL&#45;&gt;proximaatusL</title>
<path fill="none" stroke="black" d="M456.5,-385.69C456.5,-348.23 456.5,-259.42 456.5,-214.31"/>
<polygon fill="black" stroke="black" points="460,-214.09 456.5,-204.09 453,-214.09 460,-214.09"/>
</g>
<!-- proximareL&#45;&gt;approximareL -->
<g id="edge40" class="edge">
<title>proximareL&#45;&gt;approximareL</title>
<path fill="none" stroke="black" d="M488.36,-385.99C505.79,-376.69 527.64,-365.03 546.56,-354.92"/>
<polygon fill="black" stroke="black" points="548.4,-357.91 555.58,-350.11 545.11,-351.73 548.4,-357.91"/>
</g>
<!-- proximate -->
<g id="node35" class="node">
<title>proximate</title>
<text text-anchor="start" x="407" y="-33.8" font-family="Times New Roman,serif" font-weight="bold" font-size="14.00">Modern English</text>
<text text-anchor="start" x="428.5" y="-19.8" font-family="Times New Roman,serif" font-size="14.00" fill="red">proximate</text>
</g>
<!-- proximaatusL&#45;&gt;proximate -->
<g id="edge34" class="edge">
<title>proximaatusL&#45;&gt;proximate</title>
<path fill="none" stroke="black" stroke-dasharray="1,5" d="M456.5,-167.93C456.5,-141.45 456.5,-90.22 456.5,-58.49"/>
<polygon fill="black" stroke="black" points="460,-58.15 456.5,-48.15 453,-58.15 460,-58.15"/>
</g>
<!-- proximiteOF -->
<g id="node37" class="node">
<title>proximiteOF</title>
<text text-anchor="start" x="303.5" y="-334.8" font-family="Times New Roman,serif" font-weight="bold" font-size="14.00">Old French</text>
<text text-anchor="start" x="312" y="-320.8" font-family="Times New Roman,serif" font-size="14.00" fill="red">proximite</text>
</g>
<!-- proximitaasL&#45;&gt;proximiteOF -->
<g id="edge36" class="edge">
<title>proximitaasL&#45;&gt;proximiteOF</title>
<path fill="none" stroke="black" d="M349.11,-385.81C347.53,-377.79 345.61,-368.05 343.84,-359.07"/>
<polygon fill="black" stroke="black" points="347.23,-358.16 341.86,-349.03 340.36,-359.52 347.23,-358.16"/>
</g>
<!-- proximityME -->
<g id="node38" class="node">
<title>proximityME</title>
<text text-anchor="start" x="282" y="-117.8" font-family="Times New Roman,serif" font-weight="bold" font-size="14.00">Middle English</text>
<text text-anchor="start" x="301.5" y="-103.8" font-family="Times New Roman,serif" font-size="14.00" fill="red">proximity</text>
</g>
<!-- proximiteOF&#45;&gt;proximityME -->
<g id="edge37" class="edge">
<title>proximiteOF&#45;&gt;proximityME</title>
<path fill="none" stroke="black" stroke-dasharray="1,5" d="M337.7,-312.77C335.96,-275.49 331.85,-187.08 329.76,-142.18"/>
<polygon fill="black" stroke="black" points="333.25,-141.84 329.29,-132.01 326.26,-142.17 333.25,-141.84"/>
</g>
<!-- proximity -->
<g id="node39" class="node">
<title>proximity</title>
<text text-anchor="start" x="274" y="-33.8" font-family="Times New Roman,serif" font-weight="bold" font-size="14.00">Modern English</text>
<text text-anchor="start" x="296.5" y="-19.8" font-family="Times New Roman,serif" font-size="14.00" fill="red">proximity</text>
</g>
<!-- proximityME&#45;&gt;proximity -->
<g id="edge38" class="edge">
<title>proximityME&#45;&gt;proximity</title>
<path fill="none" stroke="black" d="M327.44,-95.61C326.78,-84.77 325.91,-70.6 325.16,-58.29"/>
<polygon fill="black" stroke="black" points="328.64,-57.85 324.54,-48.08 321.66,-58.28 328.64,-57.85"/>
</g>
<!-- approximateME -->
<g id="node41" class="node">
<title>approximateME</title>
<text text-anchor="start" x="543" y="-117.8" font-family="Times New Roman,serif" font-weight="bold" font-size="14.00">Middle English</text>
<text text-anchor="start" x="554.5" y="-103.8" font-family="Times New Roman,serif" font-size="14.00" fill="red">approximate</text>
</g>
<!-- approximareL&#45;&gt;approximateME -->
<g id="edge41" class="edge">
<title>approximareL&#45;&gt;approximateME</title>
<path fill="none" stroke="black" stroke-dasharray="1,5" d="M589.5,-311.67C589.5,-273.77 589.5,-186.62 589.5,-142.16"/>
<polygon fill="black" stroke="black" points="593,-142.08 589.5,-132.08 586,-142.08 593,-142.08"/>
</g>
<!-- approximate -->
<g id="node42" class="node">
<title>approximate</title>
<text text-anchor="start" x="540" y="-33.8" font-family="Times New Roman,serif" font-weight="bold" font-size="14.00">Modern English</text>
<text text-anchor="start" x="554.5" y="-19.8" font-family="Times New Roman,serif" font-size="14.00" fill="red">approximate</text>
</g>
<!-- approximateME&#45;&gt;approximate -->
<g id="edge42" class="edge">
<title>approximateME&#45;&gt;approximate</title>
<path fill="none" stroke="black" d="M589.5,-95.61C589.5,-84.77 589.5,-70.6 589.5,-58.29"/>
<polygon fill="black" stroke="black" points="593,-58.08 589.5,-48.08 586,-58.08 593,-58.08"/>
</g>
<!-- pro1ME -->
<g id="node44" class="node">
<title>pro1ME</title>
<text text-anchor="start" x="1069" y="-117.8" font-family="Times New Roman,serif" font-weight="bold" font-size="14.00">Middle English</text>
<text text-anchor="start" x="1103" y="-103.8" font-family="Times New Roman,serif" font-size="14.00" fill="red">pro&#45;</text>
</g>
<!-- pro1OF&#45;&gt;pro1ME -->
<g id="edge44" class="edge">
<title>pro1OF&#45;&gt;pro1ME</title>
<path fill="none" stroke="black" stroke-dasharray="1,5" d="M1040.99,-312.77C1055.1,-275.33 1088.63,-186.33 1105.47,-141.61"/>
<polygon fill="black" stroke="black" points="1108.84,-142.61 1109.09,-132.01 1102.29,-140.14 1108.84,-142.61"/>
</g>
<!-- pro1 -->
<g id="node45" class="node">
<title>pro1</title>
<text text-anchor="start" x="1072" y="-45.8" font-family="Times New Roman,serif" font-weight="bold" font-size="14.00">Modern English</text>
<text text-anchor="start" x="1109" y="-31.8" font-family="Times New Roman,serif" font-size="14.00" fill="red">pro&#45;</text>
<text text-anchor="start" x="1101.5" y="-19.4" font-family="Times New Roman,serif" font-size="12.00">favoring,</text>
<text text-anchor="start" x="1088.5" y="-7.4" font-family="Times New Roman,serif" font-size="12.00">substituting for</text>
</g>
<!-- pro1ME&#45;&gt;pro1 -->
<g id="edge45" class="edge">
<title>pro1ME&#45;&gt;pro1</title>
<path fill="none" stroke="black" d="M1116.77,-95.61C1117.31,-88.24 1117.96,-79.33 1118.61,-70.52"/>
<polygon fill="black" stroke="black" points="1122.12,-70.54 1119.36,-60.31 1115.14,-70.03 1122.12,-70.54"/>
</g>
<!-- pro2ME -->
<g id="node47" class="node">
<title>pro2ME</title>
<text text-anchor="start" x="19" y="-117.8" font-family="Times New Roman,serif" font-weight="bold" font-size="14.00">Middle English</text>
<text text-anchor="start" x="53" y="-103.8" font-family="Times New Roman,serif" font-size="14.00" fill="red">pro&#45;</text>
</g>
<!-- pro2OF&#45;&gt;pro2ME -->
<g id="edge47" class="edge">
<title>pro2OF&#45;&gt;pro2ME</title>
<path fill="none" stroke="black" stroke-dasharray="1,5" d="M106.89,-312.77C99.07,-275.41 80.51,-186.71 71.13,-141.9"/>
<polygon fill="black" stroke="black" points="74.54,-141.09 69.06,-132.01 67.68,-142.52 74.54,-141.09"/>
</g>
<!-- pro2 -->
<g id="node48" class="node">
<title>pro2</title>
<text text-anchor="start" x="8" y="-45.8" font-family="Times New Roman,serif" font-weight="bold" font-size="14.00">Modern English</text>
<text text-anchor="start" x="45" y="-31.8" font-family="Times New Roman,serif" font-size="14.00" fill="red">pro&#45;</text>
<text text-anchor="start" x="41" y="-19.4" font-family="Times New Roman,serif" font-size="12.00">before,</text>
<text text-anchor="start" x="35.5" y="-7.4" font-family="Times New Roman,serif" font-size="12.00">in front of</text>
</g>
<!-- pro2ME&#45;&gt;pro2 -->
<g id="edge48" class="edge">
<title>pro2ME&#45;&gt;pro2</title>
<path fill="none" stroke="black" d="M63.8,-95.61C63.08,-88.24 62.22,-79.33 61.36,-70.52"/>
<polygon fill="black" stroke="black" points="64.81,-69.92 60.36,-60.31 57.85,-70.6 64.81,-69.92"/>
</g>
</g>
</svg>
