<?xml version="1.0" encoding="UTF-8" standalone="no"?>
<!DOCTYPE svg PUBLIC "-//W3C//DTD SVG 1.1//EN"
 "http://www.w3.org/Graphics/SVG/1.1/DTD/svg11.dtd">
<!-- Generated by graphviz version 2.44.1 (20200629.0846)
 -->
<!-- Title: 6 Pages: 1 -->
<svg width="1255pt" height="823pt"
 viewBox="0.00 0.00 1255.00 823.00" xmlns="http://www.w3.org/2000/svg" xmlns:xlink="http://www.w3.org/1999/xlink">
<g id="graph0" class="graph" transform="scale(1 1) rotate(0) translate(4 819)">
<title>6</title>
<polygon fill="white" stroke="transparent" points="-4,4 -4,-819 1251,-819 1251,4 -4,4"/>
<!-- pro -->
<g id="node1" class="node">
<title>pro</title>
<text text-anchor="start" x="666" y="-800.8" font-family="Times New Roman,serif" font-weight="bold" font-size="14.00">Indo&#45;European</text>
<text text-anchor="start" x="674.5" y="-786.8" font-family="Times New Roman,serif" font-size="14.00" fill="red">prō̆</text>
<text text-anchor="start" x="694.5" y="-786.8" font-family="Times New Roman,serif" font-size="14.00"> &#160;&#160;forward</text>
</g>
<!-- fraGm -->
<g id="node2" class="node">
<title>fraGm</title>
<text text-anchor="start" x="241" y="-640.8" font-family="Times New Roman,serif" font-weight="bold" font-size="14.00">Germanic</text>
<text text-anchor="start" x="263.5" y="-626.8" font-family="Times New Roman,serif" font-size="14.00" fill="red">fra</text>
<text text-anchor="start" x="226" y="-614.4" font-family="Times New Roman,serif" font-size="12.00">forward, away from</text>
</g>
<!-- pro&#45;&gt;fraGm -->
<g id="edge1" class="edge">
<title>pro&#45;&gt;fraGm</title>
<path fill="none" stroke="black" d="M659.05,-778.93C618.16,-765.65 560.49,-746.44 510.5,-728 450.32,-705.81 382.55,-678.34 334.58,-658.49"/>
<polygon fill="black" stroke="black" points="335.84,-655.22 325.26,-654.62 333.16,-661.68 335.84,-655.22"/>
</g>
<!-- pfraGm -->
<g id="node3" class="node">
<title>pfraGm</title>
<text text-anchor="start" x="657" y="-640.8" font-family="Times New Roman,serif" font-weight="bold" font-size="14.00">Germanic</text>
<text text-anchor="start" x="677.5" y="-626.8" font-family="Times New Roman,serif" font-size="14.00" fill="red">fra&#45;</text>
<text text-anchor="start" x="663" y="-614.4" font-family="Times New Roman,serif" font-size="12.00">completely</text>
</g>
<!-- pro&#45;&gt;pfraGm -->
<g id="edge2" class="edge">
<title>pro&#45;&gt;pfraGm</title>
<path fill="none" stroke="black" d="M709.87,-778.76C705.77,-751.85 697.78,-699.41 692.54,-665.05"/>
<polygon fill="black" stroke="black" points="695.98,-664.38 691.01,-655.02 689.06,-665.43 695.98,-664.38"/>
</g>
<!-- promo -->
<g id="node4" class="node">
<title>promo</title>
<text text-anchor="start" x="528" y="-706.3" font-family="Times New Roman,serif" font-size="14.00" fill="red">prō&#45;mo&#45;</text>
</g>
<!-- pro&#45;&gt;promo -->
<g id="edge3" class="edge">
<title>pro&#45;&gt;promo</title>
<path fill="none" stroke="black" d="M679.92,-778.8C654.58,-765.42 619.27,-746.78 592.09,-732.43"/>
<polygon fill="black" stroke="black" points="593.69,-729.31 583.21,-727.74 590.42,-735.5 593.69,-729.31"/>
</g>
<!-- prowo -->
<g id="node5" class="node">
<title>prowo</title>
<text text-anchor="start" x="760.5" y="-706.3" font-family="Times New Roman,serif" font-size="14.00" fill="red">prō&#45;wo&#45;</text>
</g>
<!-- pro&#45;&gt;prowo -->
<g id="edge4" class="edge">
<title>pro&#45;&gt;prowo</title>
<path fill="none" stroke="black" d="M726.87,-778.8C737.17,-766.47 751.19,-749.68 762.71,-735.89"/>
<polygon fill="black" stroke="black" points="765.43,-738.09 769.15,-728.18 760.06,-733.61 765.43,-738.09"/>
</g>
<!-- prono -->
<g id="node6" class="node">
<title>prono</title>
<text text-anchor="start" x="1023" y="-706.3" font-family="Times New Roman,serif" font-size="14.00" fill="red">prō&#45;no&#45;</text>
</g>
<!-- pro&#45;&gt;prono -->
<g id="edge5" class="edge">
<title>pro&#45;&gt;prono</title>
<path fill="none" stroke="black" d="M767.34,-785.34C799.55,-778.84 840.98,-770.06 877.5,-761 929.53,-748.1 942.28,-743.81 993.5,-728 997.3,-726.83 1001.26,-725.57 1005.2,-724.29"/>
<polygon fill="black" stroke="black" points="1006.5,-727.55 1014.91,-721.11 1004.31,-720.9 1006.5,-727.55"/>
</g>
<!-- proko -->
<g id="node7" class="node">
<title>proko</title>
<text text-anchor="start" x="933" y="-706.3" font-family="Times New Roman,serif" font-size="14.00" fill="red">pro&#45;ko&#45;</text>
</g>
<!-- pro&#45;&gt;proko -->
<g id="edge6" class="edge">
<title>pro&#45;&gt;proko</title>
<path fill="none" stroke="black" d="M767.24,-779.1C808.36,-766.06 865.89,-747.08 915.5,-728 915.59,-727.96 915.69,-727.93 915.78,-727.89"/>
<polygon fill="black" stroke="black" points="916.83,-731.24 924.8,-724.27 914.22,-724.75 916.83,-731.24"/>
<text text-anchor="middle" x="870" y="-749.8" font-family="Times New Roman,serif" font-size="14.00">?</text>
</g>
<!-- fraON -->
<g id="node16" class="node">
<title>fraON</title>
<text text-anchor="start" x="136.5" y="-429.8" font-family="Times New Roman,serif" font-weight="bold" font-size="14.00">Old Norse</text>
<text text-anchor="start" x="160.5" y="-415.8" font-family="Times New Roman,serif" font-size="14.00" fill="red">frā</text>
</g>
<!-- fraGm&#45;&gt;fraON -->
<g id="edge14" class="edge">
<title>fraGm&#45;&gt;fraON</title>
<path fill="none" stroke="black" d="M259.68,-606.71C240.35,-568.61 202.09,-493.21 181.82,-453.26"/>
<polygon fill="black" stroke="black" points="184.84,-451.48 177.2,-444.14 178.6,-454.65 184.84,-451.48"/>
</g>
<!-- fraetanGm -->
<g id="node20" class="node">
<title>fraetanGm</title>
<text text-anchor="middle" x="729.5" y="-501.3" font-family="Times New Roman,serif" font-size="14.00">fraetanGm</text>
</g>
<!-- pfraGm&#45;&gt;fraetanGm -->
<g id="edge17" class="edge">
<title>pfraGm&#45;&gt;fraetanGm</title>
<path fill="none" stroke="black" d="M695.3,-606.97C702.39,-586.05 712.84,-555.17 720.33,-533.08"/>
<polygon fill="black" stroke="black" points="723.74,-533.91 723.63,-523.32 717.11,-531.66 723.74,-533.91"/>
</g>
<!-- framGm -->
<g id="node8" class="node">
<title>framGm</title>
<text text-anchor="start" x="388" y="-574.8" font-family="Times New Roman,serif" font-weight="bold" font-size="14.00">Germanic</text>
<text text-anchor="start" x="405.5" y="-560.8" font-family="Times New Roman,serif" font-size="14.00" fill="red">fram</text>
<text text-anchor="start" x="407.5" y="-548.4" font-family="Times New Roman,serif" font-size="12.00">from</text>
</g>
<!-- promo&#45;&gt;framGm -->
<g id="edge7" class="edge">
<title>promo&#45;&gt;framGm</title>
<path fill="none" stroke="black" d="M535.46,-691.75C513.64,-668.29 474.24,-625.94 447.25,-596.92"/>
<polygon fill="black" stroke="black" points="449.71,-594.42 440.34,-589.48 444.58,-599.18 449.71,-594.42"/>
</g>
<!-- frumGm -->
<g id="node9" class="node">
<title>frumGm</title>
<text text-anchor="start" x="521" y="-640.8" font-family="Times New Roman,serif" font-weight="bold" font-size="14.00">Germanic</text>
<text text-anchor="start" x="538" y="-626.8" font-family="Times New Roman,serif" font-size="14.00" fill="red">frum</text>
<text text-anchor="start" x="533" y="-614.4" font-family="Times New Roman,serif" font-size="12.00">forward</text>
</g>
<!-- promo&#45;&gt;frumGm -->
<g id="edge8" class="edge">
<title>promo&#45;&gt;frumGm</title>
<path fill="none" stroke="black" d="M551.5,-691.91C551.5,-684.06 551.5,-674.46 551.5,-665.27"/>
<polygon fill="black" stroke="black" points="555,-665.17 551.5,-655.17 548,-665.17 555,-665.17"/>
</g>
<!-- frawanGm -->
<g id="node10" class="node">
<title>frawanGm</title>
<text text-anchor="start" x="825" y="-640.8" font-family="Times New Roman,serif" font-weight="bold" font-size="14.00">Germanic</text>
<text text-anchor="start" x="834" y="-626.8" font-family="Times New Roman,serif" font-size="14.00" fill="red">frawan&#45;</text>
<text text-anchor="start" x="846" y="-614.4" font-family="Times New Roman,serif" font-size="12.00">lord</text>
</g>
<!-- prowo&#45;&gt;frawanGm -->
<g id="edge9" class="edge">
<title>prowo&#45;&gt;frawanGm</title>
<path fill="none" stroke="black" d="M799.48,-691.91C807.53,-683.3 817.55,-672.58 826.88,-662.61"/>
<polygon fill="black" stroke="black" points="829.56,-664.87 833.83,-655.17 824.44,-660.09 829.56,-664.87"/>
</g>
<!-- pronusL -->
<g id="node15" class="node">
<title>pronusL</title>
<text text-anchor="start" x="1066" y="-640.8" font-family="Times New Roman,serif" font-weight="bold" font-size="14.00">Latin</text>
<text text-anchor="start" x="1062.5" y="-626.8" font-family="Times New Roman,serif" font-size="14.00" fill="red">prōnus</text>
<text text-anchor="start" x="1047.5" y="-614.4" font-family="Times New Roman,serif" font-size="12.00">leaning forward</text>
</g>
<!-- prono&#45;&gt;pronusL -->
<g id="edge44" class="edge">
<title>prono&#45;&gt;pronusL</title>
<path fill="none" stroke="black" d="M1052.93,-691.91C1056.93,-683.8 1061.85,-673.84 1066.52,-664.38"/>
<polygon fill="black" stroke="black" points="1069.78,-665.69 1071.06,-655.17 1063.5,-662.59 1069.78,-665.69"/>
</g>
<!-- reciprocusL -->
<g id="node14" class="node">
<title>reciprocusL</title>
<text text-anchor="middle" x="954.5" y="-627.3" font-family="Times New Roman,serif" font-size="14.00">reciprocusL</text>
</g>
<!-- proko&#45;&gt;reciprocusL -->
<g id="edge12" class="edge">
<title>proko&#45;&gt;reciprocusL</title>
<path fill="none" stroke="black" d="M954.5,-691.91C954.5,-682.34 954.5,-670.18 954.5,-659.32"/>
<polygon fill="black" stroke="black" points="958,-659.04 954.5,-649.04 951,-659.04 958,-659.04"/>
</g>
<!-- framOE -->
<g id="node21" class="node">
<title>framOE</title>
<text text-anchor="start" x="287" y="-435.8" font-family="Times New Roman,serif" font-weight="bold" font-size="14.00">Old English</text>
<text text-anchor="start" x="310.5" y="-421.8" font-family="Times New Roman,serif" font-size="14.00" fill="red">fram</text>
<text text-anchor="start" x="291.5" y="-409.4" font-family="Times New Roman,serif" font-size="12.00">forward, from</text>
</g>
<!-- framGm&#45;&gt;framOE -->
<g id="edge19" class="edge">
<title>framGm&#45;&gt;framOE</title>
<path fill="none" stroke="black" d="M402.38,-540.76C386.76,-518.22 362.93,-483.86 345.55,-458.8"/>
<polygon fill="black" stroke="black" points="348.27,-456.58 339.69,-450.35 342.52,-460.57 348.27,-456.58"/>
</g>
<!-- frumjanGm -->
<g id="node27" class="node">
<title>frumjanGm</title>
<text text-anchor="start" x="530" y="-507.8" font-family="Times New Roman,serif" font-size="14.00" fill="red">frumjan</text>
<text text-anchor="start" x="530.5" y="-495.4" font-family="Times New Roman,serif" font-size="12.00">to further</text>
</g>
<!-- frumGm&#45;&gt;frumjanGm -->
<g id="edge25" class="edge">
<title>frumGm&#45;&gt;frumjanGm</title>
<path fill="none" stroke="black" d="M551.5,-606.97C551.5,-586.14 551.5,-555.45 551.5,-533.38"/>
<polygon fill="black" stroke="black" points="555,-533.32 551.5,-523.32 548,-533.32 555,-533.32"/>
</g>
<!-- frowoGm -->
<g id="node11" class="node">
<title>frowoGm</title>
<text text-anchor="start" x="838.5" y="-507.8" font-family="Times New Roman,serif" font-size="14.00" fill="red">frōwō</text>
<text text-anchor="start" x="846" y="-495.4" font-family="Times New Roman,serif" font-size="12.00">lady</text>
</g>
<!-- frawanGm&#45;&gt;frowoGm -->
<g id="edge10" class="edge">
<title>frawanGm&#45;&gt;frowoGm</title>
<path fill="none" stroke="black" d="M855.5,-606.97C855.5,-586.14 855.5,-555.45 855.5,-533.38"/>
<polygon fill="black" stroke="black" points="859,-533.32 855.5,-523.32 852,-533.32 859,-533.32"/>
</g>
<!-- frawazGm -->
<g id="node12" class="node">
<title>frawazGm</title>
<text text-anchor="start" x="972" y="-501.3" font-family="Times New Roman,serif" font-size="14.00" fill="red">frawaz</text>
</g>
<!-- frawanGm&#45;&gt;frawazGm -->
<g id="edge11" class="edge">
<title>frawanGm&#45;&gt;frawazGm</title>
<path fill="none" stroke="black" d="M880.58,-606.97C904.38,-585.1 940.03,-552.36 964.22,-530.13"/>
<polygon fill="black" stroke="black" points="966.65,-532.66 971.65,-523.32 961.92,-527.5 966.65,-532.66"/>
</g>
<!-- frouwaOG -->
<g id="node37" class="node">
<title>frouwaOG</title>
<text text-anchor="start" x="851.5" y="-429.8" font-family="Times New Roman,serif" font-weight="bold" font-size="14.00">Old High German</text>
<text text-anchor="start" x="886.5" y="-415.8" font-family="Times New Roman,serif" font-size="14.00" fill="red">frouwa</text>
</g>
<!-- frowoGm&#45;&gt;frouwaOG -->
<g id="edge35" class="edge">
<title>frowoGm&#45;&gt;frouwaOG</title>
<path fill="none" stroke="black" d="M866.82,-486.91C873.49,-476.84 882.05,-463.91 889.52,-452.64"/>
<polygon fill="black" stroke="black" points="892.61,-454.31 895.21,-444.04 886.77,-450.45 892.61,-454.31"/>
</g>
<!-- freyjaON -->
<g id="node41" class="node">
<title>freyjaON</title>
<text text-anchor="start" x="753.5" y="-435.8" font-family="Times New Roman,serif" font-weight="bold" font-size="14.00">Old Norse</text>
<text text-anchor="start" x="770" y="-421.8" font-family="Times New Roman,serif" font-size="14.00" fill="red">freyja</text>
<text text-anchor="start" x="776" y="-409.4" font-family="Times New Roman,serif" font-size="12.00">lady</text>
</g>
<!-- frowoGm&#45;&gt;freyjaON -->
<g id="edge39" class="edge">
<title>frowoGm&#45;&gt;freyjaON</title>
<path fill="none" stroke="black" d="M839.96,-486.91C832.13,-478.3 822.39,-467.58 813.33,-457.61"/>
<polygon fill="black" stroke="black" points="815.88,-455.22 806.57,-450.17 810.7,-459.93 815.88,-455.22"/>
</g>
<!-- freyrON -->
<g id="node44" class="node">
<title>freyrON</title>
<text text-anchor="start" x="1027.5" y="-435.8" font-family="Times New Roman,serif" font-weight="bold" font-size="14.00">Old Norse</text>
<text text-anchor="start" x="1044" y="-421.8" font-family="Times New Roman,serif" font-size="14.00" fill="red">Freyr</text>
<text text-anchor="start" x="995.5" y="-409.4" font-family="Times New Roman,serif" font-size="12.00">god of peace and prosperity</text>
</g>
<!-- frawazGm&#45;&gt;freyrON -->
<g id="edge42" class="edge">
<title>frawazGm&#45;&gt;freyrON</title>
<path fill="none" stroke="black" d="M1005.81,-486.91C1013.46,-478.38 1022.94,-467.79 1031.81,-457.9"/>
<polygon fill="black" stroke="black" points="1034.67,-459.96 1038.73,-450.17 1029.45,-455.29 1034.67,-459.96"/>
</g>
<!-- reko -->
<g id="node13" class="node">
<title>reko</title>
<text text-anchor="start" x="860.5" y="-712.8" font-family="Times New Roman,serif" font-size="14.00" fill="red">re&#45;ko</text>
<text text-anchor="start" x="852.5" y="-700.4" font-family="Times New Roman,serif" font-size="12.00">backward</text>
</g>
<!-- reko&#45;&gt;reciprocusL -->
<g id="edge13" class="edge">
<title>reko&#45;&gt;reciprocusL</title>
<path fill="none" stroke="black" d="M893.03,-691.91C903.77,-681.44 917.69,-667.88 929.56,-656.31"/>
<polygon fill="black" stroke="black" points="932.3,-658.53 937.02,-649.04 927.41,-653.51 932.3,-658.53"/>
</g>
<!-- proneME -->
<g id="node46" class="node">
<title>proneME</title>
<text text-anchor="start" x="1136" y="-242.8" font-family="Times New Roman,serif" font-weight="bold" font-size="14.00">Middle English</text>
<text text-anchor="start" x="1166" y="-228.8" font-family="Times New Roman,serif" font-size="14.00" fill="red">prone</text>
<text text-anchor="start" x="1165.5" y="-216.4" font-family="Times New Roman,serif" font-size="12.00">inclined</text>
</g>
<!-- pronusL&#45;&gt;proneME -->
<g id="edge45" class="edge">
<title>pronusL&#45;&gt;proneME</title>
<path fill="none" stroke="black" stroke-dasharray="1,5" d="M1114.51,-606.8C1141.41,-584.37 1175.5,-547.71 1175.5,-506 1175.5,-506 1175.5,-506 1175.5,-346 1175.5,-319.55 1177.47,-289.65 1179.32,-267.4"/>
<polygon fill="black" stroke="black" points="1182.83,-267.4 1180.21,-257.14 1175.86,-266.8 1182.83,-267.4"/>
</g>
<!-- froME -->
<g id="node17" class="node">
<title>froME</title>
<text text-anchor="start" x="14" y="-236.8" font-family="Times New Roman,serif" font-weight="bold" font-size="14.00">Middle English</text>
<text text-anchor="start" x="52" y="-222.8" font-family="Times New Roman,serif" font-size="14.00" fill="red">fro</text>
</g>
<!-- fraON&#45;&gt;froME -->
<g id="edge15" class="edge">
<title>fraON&#45;&gt;froME</title>
<path fill="none" stroke="black" stroke-dasharray="1,5" d="M158.73,-407.71C139.69,-374.05 97.55,-299.53 75.16,-259.92"/>
<polygon fill="black" stroke="black" points="78.14,-258.09 70.17,-251.11 72.05,-261.54 78.14,-258.09"/>
<text text-anchor="middle" x="138" y="-343.3" font-family="Times New Roman,serif" font-size="14.00">?</text>
</g>
<!-- fro -->
<g id="node18" class="node">
<title>fro</title>
<text text-anchor="start" x="8" y="-28.8" font-family="Times New Roman,serif" font-weight="bold" font-size="14.00">Modern English</text>
<text text-anchor="start" x="49" y="-14.8" font-family="Times New Roman,serif" font-size="14.00" fill="red">fro</text>
</g>
<!-- froME&#45;&gt;fro -->
<g id="edge16" class="edge">
<title>froME&#45;&gt;fro</title>
<path fill="none" stroke="black" d="M60.25,-214.79C59.73,-178.95 58.52,-96.09 57.89,-53.05"/>
<polygon fill="black" stroke="black" points="61.39,-52.96 57.75,-43.02 54.39,-53.07 61.39,-52.96"/>
</g>
<!-- ed -->
<g id="node19" class="node">
<title>ed</title>
<text text-anchor="middle" x="771.5" y="-627.3" font-family="Times New Roman,serif" font-size="14.00">ed</text>
</g>
<!-- ed&#45;&gt;fraetanGm -->
<g id="edge18" class="edge">
<title>ed&#45;&gt;fraetanGm</title>
<path fill="none" stroke="black" d="M765.66,-612.76C758.64,-592.03 746.78,-557.01 738.56,-532.76"/>
<polygon fill="black" stroke="black" points="741.81,-531.44 735.29,-523.1 735.18,-533.69 741.81,-531.44"/>
</g>
<!-- fromME -->
<g id="node22" class="node">
<title>fromME</title>
<text text-anchor="start" x="147" y="-236.8" font-family="Times New Roman,serif" font-weight="bold" font-size="14.00">Middle English</text>
<text text-anchor="start" x="179.5" y="-222.8" font-family="Times New Roman,serif" font-size="14.00" fill="red">from</text>
</g>
<!-- framOE&#45;&gt;fromME -->
<g id="edge20" class="edge">
<title>framOE&#45;&gt;fromME</title>
<path fill="none" stroke="black" d="M307.82,-401.96C283.37,-366.05 236.35,-296.96 210.9,-259.56"/>
<polygon fill="black" stroke="black" points="213.73,-257.51 205.21,-251.21 207.95,-261.44 213.73,-257.51"/>
</g>
<!-- framianOE -->
<g id="node24" class="node">
<title>framianOE</title>
<text text-anchor="start" x="302.5" y="-349.8" font-family="Times New Roman,serif" font-size="14.00" fill="red">framian</text>
<text text-anchor="start" x="302.5" y="-337.4" font-family="Times New Roman,serif" font-size="12.00">to further</text>
</g>
<!-- framOE&#45;&gt;framianOE -->
<g id="edge22" class="edge">
<title>framOE&#45;&gt;framianOE</title>
<path fill="none" stroke="black" d="M323.5,-401.9C323.5,-393.58 323.5,-384.12 323.5,-375.47"/>
<polygon fill="black" stroke="black" points="327,-375.45 323.5,-365.45 320,-375.45 327,-375.45"/>
</g>
<!-- from -->
<g id="node23" class="node">
<title>from</title>
<text text-anchor="start" x="141" y="-28.8" font-family="Times New Roman,serif" font-weight="bold" font-size="14.00">Modern English</text>
<text text-anchor="start" x="176.5" y="-14.8" font-family="Times New Roman,serif" font-size="14.00" fill="red">from</text>
</g>
<!-- fromME&#45;&gt;from -->
<g id="edge21" class="edge">
<title>fromME&#45;&gt;from</title>
<path fill="none" stroke="black" d="M193.25,-214.79C192.73,-178.95 191.52,-96.09 190.89,-53.05"/>
<polygon fill="black" stroke="black" points="194.39,-52.96 190.75,-43.02 187.39,-53.07 194.39,-52.96"/>
</g>
<!-- framenME -->
<g id="node25" class="node">
<title>framenME</title>
<text text-anchor="start" x="277" y="-236.8" font-family="Times New Roman,serif" font-weight="bold" font-size="14.00">Middle English</text>
<text text-anchor="start" x="304" y="-222.8" font-family="Times New Roman,serif" font-size="14.00" fill="red">framen</text>
</g>
<!-- framianOE&#45;&gt;framenME -->
<g id="edge23" class="edge">
<title>framianOE&#45;&gt;framenME</title>
<path fill="none" stroke="black" d="M323.5,-328.99C323.5,-311.06 323.5,-282.56 323.5,-261.44"/>
<polygon fill="black" stroke="black" points="327,-261.17 323.5,-251.17 320,-261.17 327,-261.17"/>
</g>
<!-- frame -->
<g id="node26" class="node">
<title>frame</title>
<text text-anchor="start" x="274" y="-28.8" font-family="Times New Roman,serif" font-weight="bold" font-size="14.00">Modern English</text>
<text text-anchor="start" x="307.5" y="-14.8" font-family="Times New Roman,serif" font-size="14.00" fill="red">frame</text>
</g>
<!-- framenME&#45;&gt;frame -->
<g id="edge24" class="edge">
<title>framenME&#45;&gt;frame</title>
<path fill="none" stroke="black" d="M323.5,-214.79C323.5,-178.95 323.5,-96.09 323.5,-53.05"/>
<polygon fill="black" stroke="black" points="327,-53.02 323.5,-43.02 320,-53.02 327,-53.02"/>
</g>
<!-- fournirOF -->
<g id="node28" class="node">
<title>fournirOF</title>
<text text-anchor="start" x="516.5" y="-435.8" font-family="Times New Roman,serif" font-weight="bold" font-size="14.00">Old French</text>
<text text-anchor="start" x="504" y="-421.8" font-family="Times New Roman,serif" font-size="14.00" fill="red">fournir, fourniss&#45;</text>
<text text-anchor="start" x="528" y="-409.4" font-family="Times New Roman,serif" font-size="12.00">to provide</text>
</g>
<!-- frumjanGm&#45;&gt;fournirOF -->
<g id="edge26" class="edge">
<title>frumjanGm&#45;&gt;fournirOF</title>
<path fill="none" stroke="black" stroke-dasharray="1,5" d="M551.5,-486.91C551.5,-479.06 551.5,-469.46 551.5,-460.27"/>
<polygon fill="black" stroke="black" points="555,-460.17 551.5,-450.17 548,-460.17 555,-460.17"/>
</g>
<!-- furnisshenME -->
<g id="node29" class="node">
<title>furnisshenME</title>
<text text-anchor="start" x="616" y="-236.8" font-family="Times New Roman,serif" font-weight="bold" font-size="14.00">Middle English</text>
<text text-anchor="start" x="633.5" y="-222.8" font-family="Times New Roman,serif" font-size="14.00" fill="red">furnisshen</text>
</g>
<!-- fournirOF&#45;&gt;furnisshenME -->
<g id="edge27" class="edge">
<title>fournirOF&#45;&gt;furnisshenME</title>
<path fill="none" stroke="black" stroke-dasharray="1,5" d="M567.09,-401.89C574.4,-390.84 583.1,-377.36 590.5,-365 611.87,-329.3 634.71,-286.94 648.8,-260.26"/>
<polygon fill="black" stroke="black" points="652.02,-261.66 653.58,-251.18 645.82,-258.41 652.02,-261.66"/>
</g>
<!-- fournitureOF -->
<g id="node31" class="node">
<title>fournitureOF</title>
<text text-anchor="start" x="438" y="-289.3" font-family="Times New Roman,serif" font-size="14.00" fill="red">fourniture</text>
</g>
<!-- fournirOF&#45;&gt;fournitureOF -->
<g id="edge29" class="edge">
<title>fournirOF&#45;&gt;fournitureOF</title>
<path fill="none" stroke="black" d="M536.32,-401.88C521.19,-378.82 497.99,-343.49 482.31,-319.6"/>
<polygon fill="black" stroke="black" points="485.11,-317.49 476.69,-311.05 479.26,-321.33 485.11,-317.49"/>
</g>
<!-- fournirF -->
<g id="node33" class="node">
<title>fournirF</title>
<text text-anchor="start" x="529.5" y="-350.8" font-family="Times New Roman,serif" font-weight="bold" font-size="14.00">French</text>
<text text-anchor="start" x="532.5" y="-336.8" font-family="Times New Roman,serif" font-size="14.00" fill="red">fournir</text>
</g>
<!-- fournirOF&#45;&gt;fournirF -->
<g id="edge31" class="edge">
<title>fournirOF&#45;&gt;fournirF</title>
<path fill="none" stroke="black" d="M551.5,-401.9C551.5,-393.58 551.5,-384.12 551.5,-375.47"/>
<polygon fill="black" stroke="black" points="555,-375.45 551.5,-365.45 548,-375.45 555,-375.45"/>
</g>
<!-- furnish -->
<g id="node30" class="node">
<title>furnish</title>
<text text-anchor="start" x="613" y="-28.8" font-family="Times New Roman,serif" font-weight="bold" font-size="14.00">Modern English</text>
<text text-anchor="start" x="643" y="-14.8" font-family="Times New Roman,serif" font-size="14.00" fill="red">furnish</text>
</g>
<!-- furnisshenME&#45;&gt;furnish -->
<g id="edge28" class="edge">
<title>furnisshenME&#45;&gt;furnish</title>
<path fill="none" stroke="black" d="M662.5,-214.79C662.5,-178.95 662.5,-96.09 662.5,-53.05"/>
<polygon fill="black" stroke="black" points="666,-53.02 662.5,-43.02 659,-53.02 666,-53.02"/>
</g>
<!-- furniture -->
<g id="node32" class="node">
<title>furniture</title>
<text text-anchor="start" x="407" y="-28.8" font-family="Times New Roman,serif" font-weight="bold" font-size="14.00">Modern English</text>
<text text-anchor="start" x="433" y="-14.8" font-family="Times New Roman,serif" font-size="14.00" fill="red">furniture</text>
</g>
<!-- fournitureOF&#45;&gt;furniture -->
<g id="edge30" class="edge">
<title>fournitureOF&#45;&gt;furniture</title>
<path fill="none" stroke="black" stroke-dasharray="1,5" d="M464.92,-274.96C463.4,-230.02 459.28,-108.03 457.42,-53.26"/>
<polygon fill="black" stroke="black" points="460.92,-53.12 457.08,-43.25 453.92,-53.36 460.92,-53.12"/>
</g>
<!-- furnierungG -->
<g id="node34" class="node">
<title>furnierungG</title>
<text text-anchor="start" x="526" y="-236.8" font-family="Times New Roman,serif" font-weight="bold" font-size="14.00">German</text>
<text text-anchor="start" x="521" y="-222.8" font-family="Times New Roman,serif" font-size="14.00" fill="red">Furnierung</text>
</g>
<!-- fournirF&#45;&gt;furnierungG -->
<g id="edge32" class="edge">
<title>fournirF&#45;&gt;furnierungG</title>
<path fill="none" stroke="black" stroke-dasharray="1,5" d="M551.5,-328.99C551.5,-311.06 551.5,-282.56 551.5,-261.44"/>
<polygon fill="black" stroke="black" points="555,-261.17 551.5,-251.17 548,-261.17 555,-261.17"/>
</g>
<!-- faneeringE -->
<g id="node35" class="node">
<title>faneeringE</title>
<text text-anchor="start" x="506" y="-122.8" font-family="Times New Roman,serif" font-weight="bold" font-size="14.00">Modern English</text>
<text text-anchor="start" x="527" y="-108.8" font-family="Times New Roman,serif" font-size="14.00">(obsolete)</text>
<text text-anchor="start" x="530" y="-94.8" font-family="Times New Roman,serif" font-size="14.00" fill="red">faneering</text>
</g>
<!-- furnierungG&#45;&gt;faneeringE -->
<g id="edge33" class="edge">
<title>furnierungG&#45;&gt;faneeringE</title>
<path fill="none" stroke="black" stroke-dasharray="1,5" d="M552.07,-214.95C552.67,-197.31 553.61,-169.27 554.35,-147.07"/>
<polygon fill="black" stroke="black" points="557.85,-147.13 554.69,-137.02 550.86,-146.89 557.85,-147.13"/>
</g>
<!-- veneer -->
<g id="node36" class="node">
<title>veneer</title>
<text text-anchor="start" x="541" y="-21.3" font-family="Times New Roman,serif" font-size="14.00" fill="red">veneer</text>
</g>
<!-- faneeringE&#45;&gt;veneer -->
<g id="edge34" class="edge">
<title>faneeringE&#45;&gt;veneer</title>
<path fill="none" stroke="black" d="M556.64,-86.87C557.13,-76.42 557.71,-64.12 558.21,-53.33"/>
<polygon fill="black" stroke="black" points="561.72,-53.32 558.69,-43.17 554.73,-52.99 561.72,-53.32"/>
</g>
<!-- vroweMG -->
<g id="node38" class="node">
<title>vroweMG</title>
<text text-anchor="start" x="853.5" y="-236.8" font-family="Times New Roman,serif" font-weight="bold" font-size="14.00">Middle High German</text>
<text text-anchor="start" x="901" y="-222.8" font-family="Times New Roman,serif" font-size="14.00" fill="red">vrowe</text>
</g>
<!-- frouwaOG&#45;&gt;vroweMG -->
<g id="edge36" class="edge">
<title>frouwaOG&#45;&gt;vroweMG</title>
<path fill="none" stroke="black" d="M907.59,-407.71C909.68,-374.4 914.28,-301.1 916.79,-261.19"/>
<polygon fill="black" stroke="black" points="920.29,-261.31 917.43,-251.11 913.3,-260.87 920.29,-261.31"/>
</g>
<!-- frauG -->
<g id="node39" class="node">
<title>frauG</title>
<text text-anchor="start" x="896" y="-122.8" font-family="Times New Roman,serif" font-weight="bold" font-size="14.00">German</text>
<text text-anchor="start" x="908.5" y="-108.8" font-family="Times New Roman,serif" font-size="14.00" fill="red">Frau</text>
<text text-anchor="start" x="899" y="-94.8" font-family="Times New Roman,serif" font-size="14.00" fill="red">Fräulein</text>
</g>
<!-- vroweMG&#45;&gt;frauG -->
<g id="edge37" class="edge">
<title>vroweMG&#45;&gt;frauG</title>
<path fill="none" stroke="black" d="M918.93,-214.95C919.37,-197.31 920.08,-169.27 920.64,-147.07"/>
<polygon fill="black" stroke="black" points="924.14,-147.1 920.89,-137.02 917.14,-146.93 924.14,-147.1"/>
</g>
<!-- frau -->
<g id="node40" class="node">
<title>frau</title>
<text text-anchor="start" x="873" y="-35.8" font-family="Times New Roman,serif" font-weight="bold" font-size="14.00">Modern English</text>
<text text-anchor="start" x="909.5" y="-21.8" font-family="Times New Roman,serif" font-size="14.00" fill="red">Frau</text>
<text text-anchor="start" x="900" y="-7.8" font-family="Times New Roman,serif" font-size="14.00" fill="red">Fräulein</text>
</g>
<!-- frauG&#45;&gt;frau -->
<g id="edge38" class="edge">
<title>frauG&#45;&gt;frau</title>
<path fill="none" stroke="black" stroke-dasharray="1,5" d="M921.78,-86.87C921.88,-78.61 921.99,-69.22 922.1,-60.31"/>
<polygon fill="black" stroke="black" points="925.6,-60.23 922.22,-50.19 918.6,-60.15 925.6,-60.23"/>
</g>
<!-- nfreyjaON -->
<g id="node42" class="node">
<title>nfreyjaON</title>
<text text-anchor="start" x="770" y="-175.8" font-family="Times New Roman,serif" font-size="14.00" fill="red">Freyja</text>
<text text-anchor="start" x="725.5" y="-163.4" font-family="Times New Roman,serif" font-size="12.00">goddess of love and beauty</text>
</g>
<!-- freyjaON&#45;&gt;nfreyjaON -->
<g id="edge40" class="edge">
<title>freyjaON&#45;&gt;nfreyjaON</title>
<path fill="none" stroke="black" d="M785.68,-401.84C786.05,-355.37 786.89,-250.97 787.28,-201.29"/>
<polygon fill="black" stroke="black" points="790.78,-201.3 787.36,-191.28 783.78,-201.25 790.78,-201.3"/>
</g>
<!-- freya -->
<g id="node43" class="node">
<title>freya</title>
<text text-anchor="start" x="746" y="-35.8" font-family="Times New Roman,serif" font-weight="bold" font-size="14.00">Middle English</text>
<text text-anchor="start" x="776.5" y="-21.8" font-family="Times New Roman,serif" font-size="14.00" fill="red">Freya</text>
<text text-anchor="start" x="770.5" y="-7.8" font-family="Times New Roman,serif" font-size="14.00" fill="red">(Freyja)</text>
</g>
<!-- nfreyjaON&#45;&gt;freya -->
<g id="edge41" class="edge">
<title>nfreyjaON&#45;&gt;freya</title>
<path fill="none" stroke="black" stroke-dasharray="1,5" d="M788.08,-154.97C788.87,-131.92 790.3,-90.28 791.32,-60.54"/>
<polygon fill="black" stroke="black" points="794.83,-60.3 791.67,-50.19 787.83,-60.06 794.83,-60.3"/>
</g>
<!-- frey -->
<g id="node45" class="node">
<title>frey</title>
<text text-anchor="start" x="1007" y="-28.8" font-family="Times New Roman,serif" font-weight="bold" font-size="14.00">Modern English</text>
<text text-anchor="start" x="1043.5" y="-14.8" font-family="Times New Roman,serif" font-size="14.00" fill="red">Frey</text>
</g>
<!-- freyrON&#45;&gt;frey -->
<g id="edge43" class="edge">
<title>freyrON&#45;&gt;frey</title>
<path fill="none" stroke="black" stroke-dasharray="1,5" d="M1058.12,-401.76C1057.33,-386.49 1056.5,-366.06 1056.5,-348 1056.5,-348 1056.5,-348 1056.5,-111 1056.5,-91.75 1056.5,-70.05 1056.5,-53.4"/>
<polygon fill="black" stroke="black" points="1060,-53.26 1056.5,-43.26 1053,-53.26 1060,-53.26"/>
</g>
<!-- prone -->
<g id="node47" class="node">
<title>prone</title>
<text text-anchor="start" x="1140" y="-28.8" font-family="Times New Roman,serif" font-weight="bold" font-size="14.00">Modern English</text>
<text text-anchor="start" x="1173" y="-14.8" font-family="Times New Roman,serif" font-size="14.00" fill="red">prone</text>
</g>
<!-- proneME&#45;&gt;prone -->
<g id="edge46" class="edge">
<title>proneME&#45;&gt;prone</title>
<path fill="none" stroke="black" d="M1183.29,-208.77C1184.59,-170.42 1187.19,-94.07 1188.57,-53.24"/>
<polygon fill="black" stroke="black" points="1192.07,-53.31 1188.92,-43.2 1185.08,-53.07 1192.07,-53.31"/>
</g>
</g>
</svg>
