<?xml version="1.0" encoding="UTF-8" standalone="no"?>
<!DOCTYPE svg PUBLIC "-//W3C//DTD SVG 1.1//EN"
 "http://www.w3.org/Graphics/SVG/1.1/DTD/svg11.dtd">
<!-- Generated by graphviz version 2.44.1 (20200629.0846)
 -->
<!-- Title: 1 Pages: 1 -->
<svg width="1463pt" height="677pt"
 viewBox="0.00 0.00 1463.00 677.00" xmlns="http://www.w3.org/2000/svg" xmlns:xlink="http://www.w3.org/1999/xlink">
<g id="graph0" class="graph" transform="scale(1 1) rotate(0) translate(4 673)">
<title>1</title>
<polygon fill="white" stroke="transparent" points="-4,4 -4,-673 1459,-673 1459,4 -4,4"/>
<!-- per -->
<g id="node1" class="node">
<title>per</title>
<text text-anchor="start" x="353.5" y="-650.3" font-family="Times New Roman,serif" font-weight="bold" font-size="14.00">Indo&#45;European</text>
<text text-anchor="start" x="358.5" y="-624.7" font-family="Times New Roman,serif" font-size="16.00" fill="red">per&#45;</text>
<text text-anchor="start" x="406.5" y="-631.5" font-family="Times New Roman,serif" font-size="10.00">to lead,</text>
<text text-anchor="start" x="401.5" y="-620.5" font-family="Times New Roman,serif" font-size="10.00">pass over</text>
</g>
<!-- pertu -->
<g id="node2" class="node">
<title>pertu</title>
<text text-anchor="start" x="103.5" y="-420.3" font-family="Times New Roman,serif" font-size="14.00" fill="red">per&#45;tu&#45;</text>
</g>
<!-- ferthuzGm -->
<g id="node4" class="node">
<title>ferthuzGm</title>
<text text-anchor="start" x="92" y="-300.8" font-family="Times New Roman,serif" font-weight="bold" font-size="14.00">Germanic</text>
<text text-anchor="start" x="103" y="-286.8" font-family="Times New Roman,serif" font-size="14.00" fill="red">ferthuz</text>
<text text-anchor="start" x="54.5" y="-274.4" font-family="Times New Roman,serif" font-size="12.00">&quot;place for crossing over,&quot; ford</text>
</g>
<!-- pertu&#45;&gt;ferthuzGm -->
<g id="edge1" class="edge">
<title>pertu&#45;&gt;ferthuzGm</title>
<path fill="none" stroke="black" d="M122.5,-405.87C122.5,-385.51 122.5,-351.07 122.5,-325.38"/>
<polygon fill="black" stroke="black" points="126,-325.32 122.5,-315.32 119,-325.32 126,-325.32"/>
</g>
<!-- pertra -->
<g id="node3" class="node">
<title>pertra</title>
<text text-anchor="start" x="486" y="-635.8" font-family="Times New Roman,serif" font-size="14.00" fill="red">per&#45;trā</text>
</g>
<!-- petraG -->
<g id="node26" class="node">
<title>petraG</title>
<text text-anchor="start" x="484.5" y="-558.8" font-family="Times New Roman,serif" font-weight="bold" font-size="14.00">Greek</text>
<text text-anchor="start" x="486" y="-544.8" font-family="Times New Roman,serif" font-size="14.00" fill="red">pertrā,</text>
<text text-anchor="start" x="490.5" y="-530.8" font-family="Times New Roman,serif" font-size="14.00" fill="red">petrā</text>
<text text-anchor="start" x="483.5" y="-518.4" font-family="Times New Roman,serif" font-size="12.00">bedrock,</text>
<text text-anchor="start" x="496.5" y="-506.4" font-family="Times New Roman,serif" font-size="12.00">cliff</text>
</g>
<!-- pertra&#45;&gt;petraG -->
<g id="edge21" class="edge">
<title>pertra&#45;&gt;petraG</title>
<path fill="none" stroke="black" d="M504.5,-621.28C504.5,-610.83 504.5,-596.93 504.5,-583.45"/>
<polygon fill="black" stroke="black" points="508,-583.28 504.5,-573.28 501,-583.28 508,-583.28"/>
</g>
<!-- fjordhrON -->
<g id="node5" class="node">
<title>fjordhrON</title>
<text text-anchor="start" x="90.5" y="-214.8" font-family="Times New Roman,serif" font-weight="bold" font-size="14.00">Old Norse</text>
<text text-anchor="start" x="103" y="-200.8" font-family="Times New Roman,serif" font-size="14.00" fill="red">fjördhr</text>
<text text-anchor="start" x="94" y="-188.4" font-family="Times New Roman,serif" font-size="12.00">inlet, estuary</text>
</g>
<!-- ferthuzGm&#45;&gt;fjordhrON -->
<g id="edge2" class="edge">
<title>ferthuzGm&#45;&gt;fjordhrON</title>
<path fill="none" stroke="black" d="M122.5,-266.6C122.5,-258.23 122.5,-248.62 122.5,-239.55"/>
<polygon fill="black" stroke="black" points="126,-239.27 122.5,-229.27 119,-239.27 126,-239.27"/>
</g>
<!-- fjordN -->
<g id="node6" class="node">
<title>fjordN</title>
<text text-anchor="start" x="28.5" y="-94.8" font-family="Times New Roman,serif" font-weight="bold" font-size="14.00">Norwegian</text>
<text text-anchor="start" x="48.5" y="-80.8" font-family="Times New Roman,serif" font-size="14.00" fill="red">fjord</text>
</g>
<!-- fjordhrON&#45;&gt;fjordN -->
<g id="edge3" class="edge">
<title>fjordhrON&#45;&gt;fjordN</title>
<path fill="none" stroke="black" d="M110.07,-180.79C100.32,-162.6 86.75,-137.26 76.6,-118.31"/>
<polygon fill="black" stroke="black" points="79.59,-116.48 71.78,-109.32 73.42,-119.79 79.59,-116.48"/>
</g>
<!-- firthME -->
<g id="node7" class="node">
<title>firthME</title>
<text text-anchor="start" x="135" y="-94.8" font-family="Times New Roman,serif" font-weight="bold" font-size="14.00">Middle English</text>
<text text-anchor="start" x="170" y="-80.8" font-family="Times New Roman,serif" font-size="14.00" fill="red">firth</text>
</g>
<!-- fjordhrON&#45;&gt;firthME -->
<g id="edge4" class="edge">
<title>fjordhrON&#45;&gt;firthME</title>
<path fill="none" stroke="black" stroke-dasharray="1,5" d="M134.72,-180.79C144.31,-162.6 157.66,-137.26 167.64,-118.31"/>
<polygon fill="black" stroke="black" points="170.81,-119.8 172.38,-109.32 164.62,-116.54 170.81,-119.8"/>
</g>
<!-- fjord -->
<g id="node8" class="node">
<title>fjord</title>
<text text-anchor="start" x="8" y="-21.8" font-family="Times New Roman,serif" font-weight="bold" font-size="14.00">Modern English</text>
<text text-anchor="start" x="43.5" y="-7.8" font-family="Times New Roman,serif" font-size="14.00" fill="red">fjord</text>
</g>
<!-- fjordN&#45;&gt;fjord -->
<g id="edge5" class="edge">
<title>fjordN&#45;&gt;fjord</title>
<path fill="none" stroke="black" stroke-dasharray="1,5" d="M61.29,-72.81C60.72,-64.79 60.04,-55.05 59.41,-46.07"/>
<polygon fill="black" stroke="black" points="62.89,-45.76 58.7,-36.03 55.91,-46.25 62.89,-45.76"/>
</g>
<!-- firth -->
<g id="node9" class="node">
<title>firth</title>
<text text-anchor="start" x="141" y="-21.8" font-family="Times New Roman,serif" font-weight="bold" font-size="14.00">Modern English</text>
<text text-anchor="start" x="179" y="-7.8" font-family="Times New Roman,serif" font-size="14.00" fill="red">firth</text>
</g>
<!-- firthME&#45;&gt;firth -->
<g id="edge6" class="edge">
<title>firthME&#45;&gt;firth</title>
<path fill="none" stroke="black" d="M183.68,-72.81C184.7,-64.79 185.93,-55.05 187.07,-46.07"/>
<polygon fill="black" stroke="black" points="190.56,-46.39 188.34,-36.03 183.61,-45.51 190.56,-46.39"/>
</g>
<!-- poreyo -->
<g id="node10" class="node">
<title>poreyo</title>
<text text-anchor="middle" x="865.5" y="-420.3" font-family="Times New Roman,serif" font-size="14.00">poreyo</text>
</g>
<!-- farjanGm -->
<g id="node11" class="node">
<title>farjanGm</title>
<text text-anchor="start" x="835" y="-300.8" font-family="Times New Roman,serif" font-weight="bold" font-size="14.00">Germanic</text>
<text text-anchor="start" x="850" y="-286.8" font-family="Times New Roman,serif" font-size="14.00" fill="red">farjan</text>
<text text-anchor="start" x="848.5" y="-274.4" font-family="Times New Roman,serif" font-size="12.00">to ferry</text>
</g>
<!-- poreyo&#45;&gt;farjanGm -->
<g id="edge7" class="edge">
<title>poreyo&#45;&gt;farjanGm</title>
<path fill="none" stroke="black" d="M865.5,-405.87C865.5,-385.51 865.5,-351.07 865.5,-325.38"/>
<polygon fill="black" stroke="black" points="869,-325.32 865.5,-315.32 862,-325.32 869,-325.32"/>
</g>
<!-- ferianOE -->
<g id="node12" class="node">
<title>ferianOE</title>
<text text-anchor="start" x="829" y="-208.8" font-family="Times New Roman,serif" font-weight="bold" font-size="14.00">Old English</text>
<text text-anchor="start" x="850" y="-194.8" font-family="Times New Roman,serif" font-size="14.00" fill="red">ferian</text>
</g>
<!-- farjanGm&#45;&gt;ferianOE -->
<g id="edge8" class="edge">
<title>farjanGm&#45;&gt;ferianOE</title>
<path fill="none" stroke="black" d="M865.5,-266.6C865.5,-256.26 865.5,-244.04 865.5,-233.28"/>
<polygon fill="black" stroke="black" points="869,-233.15 865.5,-223.15 862,-233.15 869,-233.15"/>
</g>
<!-- ferienME -->
<g id="node13" class="node">
<title>ferienME</title>
<text text-anchor="start" x="819" y="-94.8" font-family="Times New Roman,serif" font-weight="bold" font-size="14.00">Middle English</text>
<text text-anchor="start" x="850" y="-80.8" font-family="Times New Roman,serif" font-size="14.00" fill="red">ferien</text>
</g>
<!-- ferianOE&#45;&gt;ferienME -->
<g id="edge9" class="edge">
<title>ferianOE&#45;&gt;ferienME</title>
<path fill="none" stroke="black" d="M865.5,-186.99C865.5,-169.06 865.5,-140.56 865.5,-119.44"/>
<polygon fill="black" stroke="black" points="869,-119.17 865.5,-109.17 862,-119.17 869,-119.17"/>
</g>
<!-- ferry -->
<g id="node14" class="node">
<title>ferry</title>
<text text-anchor="start" x="816" y="-21.8" font-family="Times New Roman,serif" font-weight="bold" font-size="14.00">Modern English</text>
<text text-anchor="start" x="852" y="-7.8" font-family="Times New Roman,serif" font-size="14.00" fill="red">ferry</text>
</g>
<!-- ferienME&#45;&gt;ferry -->
<g id="edge10" class="edge">
<title>ferienME&#45;&gt;ferry</title>
<path fill="none" stroke="black" d="M865.5,-72.81C865.5,-64.79 865.5,-55.05 865.5,-46.07"/>
<polygon fill="black" stroke="black" points="869,-46.03 865.5,-36.03 862,-46.03 869,-46.03"/>
</g>
<!-- faranGm -->
<g id="node15" class="node">
<title>faranGm</title>
<text text-anchor="start" x="1197" y="-545.8" font-family="Times New Roman,serif" font-weight="bold" font-size="14.00">Germanic</text>
<text text-anchor="start" x="1213.5" y="-531.8" font-family="Times New Roman,serif" font-size="14.00" fill="red">faran</text>
<text text-anchor="start" x="1215.5" y="-519.4" font-family="Times New Roman,serif" font-size="12.00">to go</text>
</g>
<!-- faranOE -->
<g id="node16" class="node">
<title>faranOE</title>
<text text-anchor="start" x="1191" y="-433.8" font-family="Times New Roman,serif" font-weight="bold" font-size="14.00">Old English</text>
<text text-anchor="start" x="1213.5" y="-419.8" font-family="Times New Roman,serif" font-size="14.00" fill="red">faran</text>
<text text-anchor="start" x="1162.5" y="-407.4" font-family="Times New Roman,serif" font-size="12.00">to go on a journey, get along</text>
</g>
<!-- faranGm&#45;&gt;faranOE -->
<g id="edge11" class="edge">
<title>faranGm&#45;&gt;faranOE</title>
<path fill="none" stroke="black" d="M1227.5,-511.94C1227.5,-496.39 1227.5,-475.64 1227.5,-458.3"/>
<polygon fill="black" stroke="black" points="1231,-458.03 1227.5,-448.03 1224,-458.03 1231,-458.03"/>
</g>
<!-- farenME -->
<g id="node17" class="node">
<title>farenME</title>
<text text-anchor="start" x="1181" y="-294.8" font-family="Times New Roman,serif" font-weight="bold" font-size="14.00">Middle English</text>
<text text-anchor="start" x="1213.5" y="-280.8" font-family="Times New Roman,serif" font-size="14.00" fill="red">faren</text>
</g>
<!-- faranOE&#45;&gt;farenME -->
<g id="edge12" class="edge">
<title>faranOE&#45;&gt;farenME</title>
<path fill="none" stroke="black" d="M1227.5,-399.88C1227.5,-377.33 1227.5,-343.04 1227.5,-319.19"/>
<polygon fill="black" stroke="black" points="1231,-319.05 1227.5,-309.05 1224,-319.05 1231,-319.05"/>
</g>
<!-- fare -->
<g id="node18" class="node">
<title>fare</title>
<text text-anchor="start" x="949" y="-21.8" font-family="Times New Roman,serif" font-weight="bold" font-size="14.00">Modern English</text>
<text text-anchor="start" x="987.5" y="-7.8" font-family="Times New Roman,serif" font-size="14.00" fill="red">fare</text>
</g>
<!-- farenME&#45;&gt;fare -->
<g id="edge13" class="edge">
<title>farenME&#45;&gt;fare</title>
<path fill="none" stroke="black" d="M1187.18,-272.99C1165.85,-262.56 1140.26,-247.62 1121.5,-229 1065.97,-173.89 1026.42,-88.65 1008.79,-45.69"/>
<polygon fill="black" stroke="black" points="1011.95,-44.17 1004.97,-36.21 1005.46,-46.79 1011.95,-44.17"/>
</g>
<!-- farereME -->
<g id="node19" class="node">
<title>farereME</title>
<text text-anchor="start" x="1141.5" y="-207.8" font-family="Times New Roman,serif" font-size="14.00" fill="red">farere</text>
<text text-anchor="start" x="1140.5" y="-195.4" font-family="Times New Roman,serif" font-size="12.00">traveler</text>
</g>
<!-- farenME&#45;&gt;farereME -->
<g id="edge14" class="edge">
<title>farenME&#45;&gt;farereME</title>
<path fill="none" stroke="black" d="M1213,-272.6C1202.98,-260.58 1189.51,-244.41 1178.35,-231.02"/>
<polygon fill="black" stroke="black" points="1180.84,-228.54 1171.75,-223.1 1175.46,-233.02 1180.84,-228.54"/>
</g>
<!-- welfarenME -->
<g id="node20" class="node">
<title>welfarenME</title>
<text text-anchor="start" x="1231" y="-147.8" font-family="Times New Roman,serif" font-size="14.00" fill="red">welfaren</text>
<text text-anchor="start" x="1229" y="-135.4" font-family="Times New Roman,serif" font-size="12.00">to fare well</text>
</g>
<!-- farenME&#45;&gt;welfarenME -->
<g id="edge15" class="edge">
<title>farenME&#45;&gt;welfarenME</title>
<path fill="none" stroke="black" d="M1230.7,-272.92C1235.33,-248.23 1243.93,-202.35 1249.43,-173.04"/>
<polygon fill="black" stroke="black" points="1252.9,-173.54 1251.3,-163.06 1246.02,-172.25 1252.9,-173.54"/>
</g>
<!-- warrefareME -->
<g id="node21" class="node">
<title>warrefareME</title>
<text text-anchor="start" x="1330.5" y="-147.8" font-family="Times New Roman,serif" font-size="14.00" fill="red">warre fare</text>
<text text-anchor="start" x="1331" y="-135.4" font-family="Times New Roman,serif" font-size="12.00">war journey</text>
</g>
<!-- farenME&#45;&gt;warrefareME -->
<g id="edge16" class="edge">
<title>farenME&#45;&gt;warrefareME</title>
<path fill="none" stroke="black" d="M1243.04,-272.92C1266.09,-247.58 1309.45,-199.92 1335.97,-170.76"/>
<polygon fill="black" stroke="black" points="1338.84,-172.81 1342.98,-163.06 1333.66,-168.1 1338.84,-172.81"/>
</g>
<!-- weyfarereME -->
<g id="node22" class="node">
<title>weyfarereME</title>
<text text-anchor="start" x="1109" y="-87.3" font-family="Times New Roman,serif" font-size="14.00" fill="red">weyfarere</text>
</g>
<!-- farereME&#45;&gt;weyfarereME -->
<g id="edge17" class="edge">
<title>farereME&#45;&gt;weyfarereME</title>
<path fill="none" stroke="black" d="M1154.31,-186.99C1150.93,-168.98 1145.56,-140.29 1141.59,-119.15"/>
<polygon fill="black" stroke="black" points="1145,-118.35 1139.72,-109.17 1138.12,-119.64 1145,-118.35"/>
</g>
<!-- welfare -->
<g id="node24" class="node">
<title>welfare</title>
<text text-anchor="start" x="1215" y="-21.8" font-family="Times New Roman,serif" font-weight="bold" font-size="14.00">Modern English</text>
<text text-anchor="start" x="1244.5" y="-7.8" font-family="Times New Roman,serif" font-size="14.00" fill="red">welfare</text>
</g>
<!-- welfarenME&#45;&gt;welfare -->
<g id="edge19" class="edge">
<title>welfarenME&#45;&gt;welfare</title>
<path fill="none" stroke="black" d="M1255.87,-126.88C1257.53,-106.15 1260.34,-70.95 1262.31,-46.42"/>
<polygon fill="black" stroke="black" points="1265.81,-46.56 1263.11,-36.31 1258.83,-46 1265.81,-46.56"/>
</g>
<!-- warfare -->
<g id="node25" class="node">
<title>warfare</title>
<text text-anchor="start" x="1348" y="-21.8" font-family="Times New Roman,serif" font-weight="bold" font-size="14.00">Modern English</text>
<text text-anchor="start" x="1376.5" y="-7.8" font-family="Times New Roman,serif" font-size="14.00" fill="red">warfare</text>
</g>
<!-- warrefareME&#45;&gt;warfare -->
<g id="edge20" class="edge">
<title>warrefareME&#45;&gt;warfare</title>
<path fill="none" stroke="black" d="M1363.84,-126.88C1370.34,-106.05 1381.39,-70.64 1389.05,-46.09"/>
<polygon fill="black" stroke="black" points="1392.46,-46.9 1392.1,-36.31 1385.78,-44.82 1392.46,-46.9"/>
</g>
<!-- wayfarer -->
<g id="node23" class="node">
<title>wayfarer</title>
<text text-anchor="start" x="1082" y="-21.8" font-family="Times New Roman,serif" font-weight="bold" font-size="14.00">Modern English</text>
<text text-anchor="start" x="1107" y="-7.8" font-family="Times New Roman,serif" font-size="14.00" fill="red">wayfarer</text>
</g>
<!-- weyfarereME&#45;&gt;wayfarer -->
<g id="edge18" class="edge">
<title>weyfarereME&#45;&gt;wayfarer</title>
<path fill="none" stroke="black" d="M1135.29,-72.81C1134.72,-64.79 1134.04,-55.05 1133.41,-46.07"/>
<polygon fill="black" stroke="black" points="1136.89,-45.76 1132.7,-36.03 1129.91,-46.25 1136.89,-45.76"/>
</g>
<!-- petrosG -->
<g id="node27" class="node">
<title>petrosG</title>
<text text-anchor="start" x="312.5" y="-367.8" font-family="Times New Roman,serif" font-weight="bold" font-size="14.00">Greek</text>
<text text-anchor="start" x="294" y="-353.8" font-family="Times New Roman,serif" font-size="14.00" fill="red">petros, petro&#45;</text>
<text text-anchor="start" x="321.5" y="-341.4" font-family="Times New Roman,serif" font-size="12.00">rock</text>
</g>
<!-- petraG&#45;&gt;petrosG -->
<g id="edge22" class="edge">
<title>petraG&#45;&gt;petrosG</title>
<path fill="none" stroke="black" d="M475.31,-506.73C472.09,-504.01 468.78,-501.38 465.5,-499 427.99,-471.76 406.12,-481.91 374.5,-448 359.65,-432.08 349.18,-409.96 342.41,-391.76"/>
<polygon fill="black" stroke="black" points="345.64,-390.39 339.02,-382.11 339.03,-392.71 345.64,-390.39"/>
<text text-anchor="middle" x="438" y="-469.8" font-family="Times New Roman,serif" font-size="14.00">??</text>
</g>
<!-- petraL -->
<g id="node31" class="node">
<title>petraL</title>
<text text-anchor="start" x="467" y="-427.8" font-family="Times New Roman,serif" font-weight="bold" font-size="14.00">Latin</text>
<text text-anchor="start" x="469.5" y="-413.8" font-family="Times New Roman,serif" font-size="14.00" fill="red">petra</text>
</g>
<!-- petraG&#45;&gt;petraL -->
<g id="edge25" class="edge">
<title>petraG&#45;&gt;petraL</title>
<path fill="none" stroke="black" stroke-dasharray="1,5" d="M497.62,-498.98C494.73,-483.8 491.41,-466.43 488.72,-452.33"/>
<polygon fill="black" stroke="black" points="492.11,-451.44 486.8,-442.28 485.24,-452.76 492.11,-451.44"/>
</g>
<!-- petroselinon -->
<g id="node41" class="node">
<title>petroselinon</title>
<text text-anchor="start" x="613.5" y="-420.3" font-family="Times New Roman,serif" font-size="14.00" fill="red">petroselīnon</text>
</g>
<!-- petraG&#45;&gt;petroselinon -->
<g id="edge35" class="edge">
<title>petraG&#45;&gt;petroselinon</title>
<path fill="none" stroke="black" d="M533.64,-512.74C558.15,-494.01 593.09,-467.33 617.98,-448.31"/>
<polygon fill="black" stroke="black" points="620.19,-451.03 626.01,-442.18 615.94,-445.47 620.19,-451.03"/>
</g>
<!-- petroE -->
<g id="node28" class="node">
<title>petroE</title>
<text text-anchor="start" x="274" y="-21.8" font-family="Times New Roman,serif" font-weight="bold" font-size="14.00">Modern English</text>
<text text-anchor="start" x="306.5" y="-7.8" font-family="Times New Roman,serif" font-size="14.00" fill="red">petro&#45;</text>
</g>
<!-- petrosG&#45;&gt;petroE -->
<g id="edge23" class="edge">
<title>petrosG&#45;&gt;petroE</title>
<path fill="none" stroke="black" stroke-dasharray="1,5" d="M329.45,-333.66C326.84,-311.62 323.5,-277.62 323.5,-248 323.5,-248 323.5,-248 323.5,-90 323.5,-75.65 323.5,-59.67 323.5,-46.51"/>
<polygon fill="black" stroke="black" points="327,-46.22 323.5,-36.22 320,-46.22 327,-46.22"/>
</g>
<!-- sal -->
<g id="node29" class="node">
<title>sal</title>
<g id="a_node29"><a xlink:href="sal-salt.svg" xlink:title="&lt;b&gt;Indo&#45;European&lt;/b&gt;&lt;br/&gt;&lt;font color=&quot;red&quot;&gt;sal&#45;&lt;/font&gt;&lt;br/&gt;&lt;font point&#45;size=&quot;12&quot;&gt;salt&lt;/font&gt;">
<path fill="none" stroke="black" stroke-dasharray="5,2" d="M445,-560C445,-560 360,-560 360,-560 354,-560 348,-554 348,-548 348,-548 348,-524 348,-524 348,-518 354,-512 360,-512 360,-512 445,-512 445,-512 451,-512 457,-518 457,-524 457,-524 457,-548 457,-548 457,-554 451,-560 445,-560"/>
<text text-anchor="start" x="356" y="-545.8" font-family="Times New Roman,serif" font-weight="bold" font-size="14.00">Indo&#45;European</text>
<text text-anchor="start" x="392.5" y="-531.8" font-family="Times New Roman,serif" font-size="14.00" fill="red">sal&#45;</text>
<text text-anchor="start" x="394.5" y="-519.4" font-family="Times New Roman,serif" font-size="12.00">salt</text>
</a>
</g>
</g>
<!-- salL -->
<g id="node30" class="node">
<title>salL</title>
<text text-anchor="start" x="394" y="-427.8" font-family="Times New Roman,serif" font-weight="bold" font-size="14.00">Latin</text>
<text text-anchor="start" x="402.5" y="-413.8" font-family="Times New Roman,serif" font-size="14.00" fill="red">sāl</text>
</g>
<!-- sal&#45;&gt;salL -->
<g id="edge24" class="edge">
<title>sal&#45;&gt;salL</title>
<path fill="none" stroke="black" d="M404.18,-511.94C405.44,-494.56 407.18,-470.67 408.51,-452.33"/>
<polygon fill="black" stroke="black" points="412.01,-452.49 409.24,-442.27 405.03,-451.99 412.01,-452.49"/>
</g>
<!-- salpetraeL -->
<g id="node32" class="node">
<title>salpetraeL</title>
<text text-anchor="start" x="432" y="-293.8" font-family="Times New Roman,serif" font-size="14.00" fill="red">sālpetrae</text>
<text text-anchor="start" x="427" y="-281.4" font-family="Times New Roman,serif" font-size="12.00">&quot;salt of rock&quot;</text>
</g>
<!-- salL&#45;&gt;salpetraeL -->
<g id="edge26" class="edge">
<title>salL&#45;&gt;salpetraeL</title>
<path fill="none" stroke="black" d="M416.51,-405.87C424.3,-383.71 437.94,-344.85 447.1,-318.77"/>
<polygon fill="black" stroke="black" points="450.47,-319.72 450.48,-309.13 443.87,-317.41 450.47,-319.72"/>
</g>
<!-- petraL&#45;&gt;salpetraeL -->
<g id="edge27" class="edge">
<title>petraL&#45;&gt;salpetraeL</title>
<path fill="none" stroke="black" d="M479.97,-405.87C475.42,-383.81 467.46,-345.19 462.09,-319.12"/>
<polygon fill="black" stroke="black" points="465.48,-318.22 460.03,-309.13 458.62,-319.63 465.48,-318.22"/>
</g>
<!-- petroleumL -->
<g id="node37" class="node">
<title>petroleumL</title>
<text text-anchor="start" x="525.5" y="-287.3" font-family="Times New Roman,serif" font-size="14.00" fill="red">petrōleum</text>
</g>
<!-- petraL&#45;&gt;petroleumL -->
<g id="edge31" class="edge">
<title>petraL&#45;&gt;petroleumL</title>
<path fill="none" stroke="black" d="M492.65,-405.87C504.6,-383.51 525.63,-344.16 539.56,-318.08"/>
<polygon fill="black" stroke="black" points="542.72,-319.6 544.35,-309.13 536.55,-316.3 542.72,-319.6"/>
</g>
<!-- salpetreOF -->
<g id="node33" class="node">
<title>salpetreOF</title>
<text text-anchor="start" x="421.5" y="-208.8" font-family="Times New Roman,serif" font-weight="bold" font-size="14.00">Old French</text>
<text text-anchor="start" x="435" y="-194.8" font-family="Times New Roman,serif" font-size="14.00" fill="red">salpetre</text>
</g>
<!-- salpetraeL&#45;&gt;salpetreOF -->
<g id="edge28" class="edge">
<title>salpetraeL&#45;&gt;salpetreOF</title>
<path fill="none" stroke="black" d="M456.5,-272.6C456.5,-261.26 456.5,-246.23 456.5,-233.32"/>
<polygon fill="black" stroke="black" points="460,-233.1 456.5,-223.1 453,-233.1 460,-233.1"/>
</g>
<!-- salpetreME -->
<g id="node34" class="node">
<title>salpetreME</title>
<text text-anchor="start" x="410" y="-94.8" font-family="Times New Roman,serif" font-weight="bold" font-size="14.00">Middle English</text>
<text text-anchor="start" x="435" y="-80.8" font-family="Times New Roman,serif" font-size="14.00" fill="red">salpetre</text>
</g>
<!-- salpetreOF&#45;&gt;salpetreME -->
<g id="edge29" class="edge">
<title>salpetreOF&#45;&gt;salpetreME</title>
<path fill="none" stroke="black" stroke-dasharray="1,5" d="M456.5,-186.99C456.5,-169.06 456.5,-140.56 456.5,-119.44"/>
<polygon fill="black" stroke="black" points="460,-119.17 456.5,-109.17 453,-119.17 460,-119.17"/>
</g>
<!-- saltpeter -->
<g id="node35" class="node">
<title>saltpeter</title>
<text text-anchor="start" x="407" y="-21.8" font-family="Times New Roman,serif" font-weight="bold" font-size="14.00">Modern English</text>
<text text-anchor="start" x="433" y="-7.8" font-family="Times New Roman,serif" font-size="14.00" fill="red">saltpeter</text>
</g>
<!-- salpetreME&#45;&gt;saltpeter -->
<g id="edge30" class="edge">
<title>salpetreME&#45;&gt;saltpeter</title>
<path fill="none" stroke="black" d="M456.5,-72.81C456.5,-64.79 456.5,-55.05 456.5,-46.07"/>
<polygon fill="black" stroke="black" points="460,-46.03 456.5,-36.03 453,-46.03 460,-46.03"/>
</g>
<!-- oleum -->
<g id="node36" class="node">
<title>oleum</title>
<text text-anchor="start" x="538.5" y="-426.8" font-family="Times New Roman,serif" font-size="14.00" fill="red">ōleum</text>
<text text-anchor="start" x="550" y="-414.4" font-family="Times New Roman,serif" font-size="12.00">oil</text>
</g>
<!-- oleum&#45;&gt;petroleumL -->
<g id="edge32" class="edge">
<title>oleum&#45;&gt;petroleumL</title>
<path fill="none" stroke="black" d="M555.24,-405.87C554.9,-383.91 554.32,-345.54 553.92,-319.47"/>
<polygon fill="black" stroke="black" points="557.41,-319.08 553.76,-309.13 550.41,-319.18 557.41,-319.08"/>
</g>
<!-- petroleumME -->
<g id="node38" class="node">
<title>petroleumME</title>
<text text-anchor="start" x="530" y="-148.8" font-family="Times New Roman,serif" font-weight="bold" font-size="14.00">Middle English</text>
<text text-anchor="start" x="548.5" y="-134.8" font-family="Times New Roman,serif" font-size="14.00" fill="red">petroleum</text>
</g>
<!-- petroleumL&#45;&gt;petroleumME -->
<g id="edge33" class="edge">
<title>petroleumL&#45;&gt;petroleumME</title>
<path fill="none" stroke="black" stroke-dasharray="1,5" d="M556.23,-272.92C560.17,-248.23 567.5,-202.35 572.18,-173.04"/>
<polygon fill="black" stroke="black" points="575.65,-173.49 573.77,-163.06 568.74,-172.38 575.65,-173.49"/>
</g>
<!-- petroleum -->
<g id="node39" class="node">
<title>petroleum</title>
<text text-anchor="start" x="540" y="-21.8" font-family="Times New Roman,serif" font-weight="bold" font-size="14.00">Modern English</text>
<text text-anchor="start" x="561.5" y="-7.8" font-family="Times New Roman,serif" font-size="14.00" fill="red">petroleum</text>
</g>
<!-- petroleumME&#45;&gt;petroleum -->
<g id="edge34" class="edge">
<title>petroleumME&#45;&gt;petroleum</title>
<path fill="none" stroke="black" d="M578.28,-126.88C580.44,-106.15 584.1,-70.95 586.65,-46.42"/>
<polygon fill="black" stroke="black" points="590.15,-46.62 587.7,-36.31 583.18,-45.9 590.15,-46.62"/>
</g>
<!-- selinon -->
<g id="node40" class="node">
<title>selinon</title>
<text text-anchor="start" x="628" y="-538.8" font-family="Times New Roman,serif" font-size="14.00" fill="red">selīnon</text>
<text text-anchor="start" x="634.5" y="-526.4" font-family="Times New Roman,serif" font-size="12.00">celery</text>
</g>
<!-- selinon&#45;&gt;petroselinon -->
<g id="edge36" class="edge">
<title>selinon&#45;&gt;petroselinon</title>
<path fill="none" stroke="black" d="M648.5,-517.81C648.5,-500.21 648.5,-472.61 648.5,-452.07"/>
<polygon fill="black" stroke="black" points="652,-452.07 648.5,-442.07 645,-452.07 652,-452.07"/>
</g>
<!-- petrosillum -->
<g id="node42" class="node">
<title>petrosillum</title>
<text text-anchor="start" x="636" y="-301.8" font-family="Times New Roman,serif" font-weight="bold" font-size="14.00">Latin</text>
<text text-anchor="start" x="616" y="-287.8" font-family="Times New Roman,serif" font-size="14.00" fill="red">petroselīnum</text>
<text text-anchor="start" x="621.5" y="-273.8" font-family="Times New Roman,serif" font-size="14.00" fill="red">petrosillum</text>
</g>
<!-- petroselinon&#45;&gt;petrosillum -->
<g id="edge37" class="edge">
<title>petroselinon&#45;&gt;petrosillum</title>
<path fill="none" stroke="black" d="M649.02,-405.87C649.64,-385.76 650.67,-351.89 651.45,-326.31"/>
<polygon fill="black" stroke="black" points="654.95,-326.36 651.76,-316.26 647.96,-326.15 654.95,-326.36"/>
</g>
<!-- persilOF -->
<g id="node43" class="node">
<title>persilOF</title>
<text text-anchor="start" x="613.5" y="-208.8" font-family="Times New Roman,serif" font-weight="bold" font-size="14.00">Old French</text>
<text text-anchor="start" x="633" y="-194.8" font-family="Times New Roman,serif" font-size="14.00" fill="red">persil</text>
</g>
<!-- petrosillum&#45;&gt;persilOF -->
<g id="edge38" class="edge">
<title>petrosillum&#45;&gt;persilOF</title>
<path fill="none" stroke="black" d="M651.34,-265.7C650.86,-255.56 650.3,-243.74 649.8,-233.3"/>
<polygon fill="black" stroke="black" points="653.28,-232.87 649.31,-223.05 646.29,-233.2 653.28,-232.87"/>
</g>
<!-- petersilie -->
<g id="node44" class="node">
<title>petersilie</title>
<text text-anchor="start" x="718" y="-208.8" font-family="Times New Roman,serif" font-weight="bold" font-size="14.00">Old English</text>
<text text-anchor="start" x="730" y="-194.8" font-family="Times New Roman,serif" font-size="14.00" fill="red">petersilie</text>
</g>
<!-- petrosillum&#45;&gt;petersilie -->
<g id="edge39" class="edge">
<title>petrosillum&#45;&gt;petersilie</title>
<path fill="none" stroke="black" stroke-dasharray="1,5" d="M681.73,-265.93C695.61,-254.5 712.13,-240.89 725.92,-229.53"/>
<polygon fill="black" stroke="black" points="728.19,-232.2 733.69,-223.14 723.74,-226.79 728.19,-232.2"/>
</g>
<!-- perselyME -->
<g id="node45" class="node">
<title>perselyME</title>
<text text-anchor="start" x="683" y="-94.8" font-family="Times New Roman,serif" font-weight="bold" font-size="14.00">Middle English</text>
<text text-anchor="start" x="709.5" y="-80.8" font-family="Times New Roman,serif" font-size="14.00" fill="red">persely</text>
</g>
<!-- persilOF&#45;&gt;perselyME -->
<g id="edge40" class="edge">
<title>persilOF&#45;&gt;perselyME</title>
<path fill="none" stroke="black" stroke-dasharray="1,5" d="M660.8,-186.99C674.18,-168.49 695.72,-138.71 711.11,-117.43"/>
<polygon fill="black" stroke="black" points="714.06,-119.32 717.08,-109.17 708.39,-115.22 714.06,-119.32"/>
</g>
<!-- petersilie&#45;&gt;perselyME -->
<g id="edge41" class="edge">
<title>petersilie&#45;&gt;perselyME</title>
<path fill="none" stroke="black" d="M750.7,-186.99C746.68,-168.98 740.28,-140.29 735.56,-119.15"/>
<polygon fill="black" stroke="black" points="738.93,-118.17 733.33,-109.17 732.1,-119.69 738.93,-118.17"/>
</g>
<!-- parsley -->
<g id="node46" class="node">
<title>parsley</title>
<text text-anchor="start" x="680" y="-21.8" font-family="Times New Roman,serif" font-weight="bold" font-size="14.00">Modern English</text>
<text text-anchor="start" x="709.5" y="-7.8" font-family="Times New Roman,serif" font-size="14.00" fill="red">parsley</text>
</g>
<!-- perselyME&#45;&gt;parsley -->
<g id="edge42" class="edge">
<title>perselyME&#45;&gt;parsley</title>
<path fill="none" stroke="black" d="M729.5,-72.81C729.5,-64.79 729.5,-55.05 729.5,-46.07"/>
<polygon fill="black" stroke="black" points="733,-46.03 729.5,-36.03 726,-46.03 733,-46.03"/>
</g>
</g>
</svg>
