<?xml version="1.0" encoding="UTF-8" standalone="no"?>
<!DOCTYPE svg PUBLIC "-//W3C//DTD SVG 1.1//EN"
 "http://www.w3.org/Graphics/SVG/1.1/DTD/svg11.dtd">
<!-- Generated by graphviz version 2.44.1 (20200629.0846)
 -->
<!-- Title: 3 Pages: 1 -->
<svg width="597pt" height="586pt"
 viewBox="0.00 0.00 597.00 586.00" xmlns="http://www.w3.org/2000/svg" xmlns:xlink="http://www.w3.org/1999/xlink">
<g id="graph0" class="graph" transform="scale(1 1) rotate(0) translate(4 582)">
<title>3</title>
<polygon fill="white" stroke="transparent" points="-4,4 -4,-582 593,-582 593,4 -4,4"/>
<!-- pr -->
<g id="node1" class="node">
<title>pr</title>
<text text-anchor="start" x="202" y="-563.8" font-family="Times New Roman,serif" font-weight="bold" font-size="14.00">Indo&#45;European</text>
<text text-anchor="start" x="214" y="-549.8" font-family="Times New Roman,serif" font-size="14.00" fill="red">pr̥</text>
<text text-anchor="start" x="227" y="-549.8" font-family="Times New Roman,serif" font-size="14.00"> &#160;&#160;forward</text>
</g>
<!-- furGm -->
<g id="node2" class="node">
<title>furGm</title>
<text text-anchor="start" x="90" y="-491.8" font-family="Times New Roman,serif" font-weight="bold" font-size="14.00">Germanic</text>
<text text-anchor="start" x="112.5" y="-477.8" font-family="Times New Roman,serif" font-size="14.00" fill="red">fur</text>
<text text-anchor="start" x="99" y="-465.4" font-family="Times New Roman,serif" font-size="12.00">before, in</text>
</g>
<!-- pr&#45;&gt;furGm -->
<g id="edge1" class="edge">
<title>pr&#45;&gt;furGm</title>
<path fill="none" stroke="black" d="M219.77,-541.94C204.58,-532.93 185.54,-521.62 168.2,-511.32"/>
<polygon fill="black" stroke="black" points="169.71,-508.15 159.32,-506.05 166.14,-514.17 169.71,-508.15"/>
</g>
<!-- prt -->
<g id="node3" class="node">
<title>prt</title>
<text text-anchor="start" x="202" y="-478.3" font-family="Times New Roman,serif" font-size="14.00" fill="red">pr̥t&#45;</text>
</g>
<!-- pr&#45;&gt;prt -->
<g id="edge2" class="edge">
<title>pr&#45;&gt;prt</title>
<path fill="none" stroke="black" d="M240.33,-541.75C235.82,-532.23 230.12,-520.2 225.06,-509.51"/>
<polygon fill="black" stroke="black" points="228.08,-507.72 220.64,-500.18 221.75,-510.71 228.08,-507.72"/>
</g>
<!-- prtero -->
<g id="node4" class="node">
<title>prtero</title>
<text text-anchor="start" x="274" y="-478.3" font-family="Times New Roman,serif" font-size="14.00" fill="red">pr̥t&#45;</text>
</g>
<!-- pr&#45;&gt;prtero -->
<g id="edge3" class="edge">
<title>pr&#45;&gt;prtero</title>
<path fill="none" stroke="black" d="M256.67,-541.75C261.18,-532.23 266.88,-520.2 271.94,-509.51"/>
<polygon fill="black" stroke="black" points="275.25,-510.71 276.36,-500.18 268.92,-507.72 275.25,-510.71"/>
</g>
<!-- prsti -->
<g id="node5" class="node">
<title>prsti</title>
<g id="a_node5"><a xlink:href="porsti.svg" xlink:title="&lt;font color=&quot;red&quot;&gt;pr̥&#45;st&#45;i&#45;, por&#45;st&#45;i&#45;&lt;/font&gt;">
<path fill="none" stroke="black" stroke-dasharray="5,2" d="M425.5,-500C425.5,-500 341.5,-500 341.5,-500 335.5,-500 329.5,-494 329.5,-488 329.5,-488 329.5,-476 329.5,-476 329.5,-470 335.5,-464 341.5,-464 341.5,-464 425.5,-464 425.5,-464 431.5,-464 437.5,-470 437.5,-476 437.5,-476 437.5,-488 437.5,-488 437.5,-494 431.5,-500 425.5,-500"/>
<text text-anchor="start" x="337.5" y="-478.3" font-family="Times New Roman,serif" font-size="14.00" fill="red">pr̥&#45;st&#45;i&#45;, por&#45;st&#45;i&#45;</text>
</a>
</g>
</g>
<!-- pr&#45;&gt;prsti -->
<g id="edge4" class="edge">
<title>pr&#45;&gt;prsti</title>
<path fill="none" stroke="black" d="M278.8,-541.94C298.03,-531.12 323.12,-516.99 343.92,-505.28"/>
<polygon fill="black" stroke="black" points="345.84,-508.22 352.84,-500.26 342.41,-502.12 345.84,-508.22"/>
</g>
<!-- forOE -->
<g id="node6" class="node">
<title>forOE</title>
<text text-anchor="start" x="67" y="-401.8" font-family="Times New Roman,serif" font-weight="bold" font-size="14.00">Old English</text>
<text text-anchor="start" x="80.5" y="-387.8" font-family="Times New Roman,serif" font-size="14.00" fill="red">for, for&#45;</text>
</g>
<!-- furGm&#45;&gt;forOE -->
<g id="edge5" class="edge">
<title>furGm&#45;&gt;forOE</title>
<path fill="none" stroke="black" d="M115.67,-457.72C113.63,-447.88 111.24,-436.36 109.13,-426.13"/>
<polygon fill="black" stroke="black" points="112.5,-425.16 107.04,-416.08 105.64,-426.58 112.5,-425.16"/>
</g>
<!-- furthGm -->
<g id="node9" class="node">
<title>furthGm</title>
<text text-anchor="start" x="182" y="-407.8" font-family="Times New Roman,serif" font-weight="bold" font-size="14.00">Germanic</text>
<text text-anchor="start" x="197" y="-393.8" font-family="Times New Roman,serif" font-size="14.00" fill="red">furth&#45;</text>
<text text-anchor="start" x="194" y="-381.4" font-family="Times New Roman,serif" font-size="12.00">forward</text>
</g>
<!-- prt&#45;&gt;furthGm -->
<g id="edge8" class="edge">
<title>prt&#45;&gt;furthGm</title>
<path fill="none" stroke="black" d="M212.5,-463.61C212.5,-454.58 212.5,-443.24 212.5,-432.59"/>
<polygon fill="black" stroke="black" points="216,-432.28 212.5,-422.28 209,-432.28 216,-432.28"/>
</g>
<!-- furtheraGm -->
<g id="node17" class="node">
<title>furtheraGm</title>
<text text-anchor="start" x="285" y="-407.8" font-family="Times New Roman,serif" font-weight="bold" font-size="14.00">Germanic</text>
<text text-anchor="start" x="291.5" y="-393.8" font-family="Times New Roman,serif" font-size="14.00" fill="red">furthera&#45;</text>
<text text-anchor="start" x="287" y="-381.4" font-family="Times New Roman,serif" font-size="12.00">farther away</text>
</g>
<!-- prtero&#45;&gt;furtheraGm -->
<g id="edge16" class="edge">
<title>prtero&#45;&gt;furtheraGm</title>
<path fill="none" stroke="black" d="M291.07,-463.61C294.56,-454.4 298.95,-442.77 303.05,-431.92"/>
<polygon fill="black" stroke="black" points="306.44,-432.87 306.7,-422.28 299.89,-430.39 306.44,-432.87"/>
</g>
<!-- forME -->
<g id="node7" class="node">
<title>forME</title>
<text text-anchor="start" x="43" y="-323.8" font-family="Times New Roman,serif" font-weight="bold" font-size="14.00">Middle English</text>
<text text-anchor="start" x="66.5" y="-309.8" font-family="Times New Roman,serif" font-size="14.00" fill="red">for, for&#45;</text>
</g>
<!-- forOE&#45;&gt;forME -->
<g id="edge6" class="edge">
<title>forOE&#45;&gt;forME</title>
<path fill="none" stroke="black" d="M100.32,-379.75C98.6,-370.43 96.44,-358.69 94.5,-348.17"/>
<polygon fill="black" stroke="black" points="97.92,-347.38 92.66,-338.18 91.03,-348.65 97.92,-347.38"/>
</g>
<!-- for -->
<g id="node8" class="node">
<title>for</title>
<text text-anchor="start" x="8" y="-251.8" font-family="Times New Roman,serif" font-weight="bold" font-size="14.00">Modern English</text>
<text text-anchor="start" x="49" y="-237.8" font-family="Times New Roman,serif" font-size="14.00" fill="red">for</text>
<text text-anchor="start" x="46.5" y="-223.8" font-family="Times New Roman,serif" font-size="14.00" fill="red">for&#45;</text>
</g>
<!-- forME&#45;&gt;for -->
<g id="edge7" class="edge">
<title>forME&#45;&gt;for</title>
<path fill="none" stroke="black" d="M82.4,-301.91C79.15,-294.08 75.17,-284.53 71.37,-275.37"/>
<polygon fill="black" stroke="black" points="74.56,-273.94 67.49,-266.05 68.1,-276.63 74.56,-273.94"/>
</g>
<!-- forthOE -->
<g id="node10" class="node">
<title>forthOE</title>
<text text-anchor="start" x="176" y="-323.8" font-family="Times New Roman,serif" font-weight="bold" font-size="14.00">Old English</text>
<text text-anchor="start" x="198.5" y="-309.8" font-family="Times New Roman,serif" font-size="14.00" fill="red">forth</text>
</g>
<!-- furthGm&#45;&gt;forthOE -->
<g id="edge9" class="edge">
<title>furthGm&#45;&gt;forthOE</title>
<path fill="none" stroke="black" d="M212.5,-373.78C212.5,-365.68 212.5,-356.52 212.5,-348.12"/>
<polygon fill="black" stroke="black" points="216,-348.04 212.5,-338.04 209,-348.04 216,-348.04"/>
</g>
<!-- forthME -->
<g id="node11" class="node">
<title>forthME</title>
<text text-anchor="start" x="141" y="-244.8" font-family="Times New Roman,serif" font-weight="bold" font-size="14.00">Middle English</text>
<text text-anchor="start" x="173.5" y="-230.8" font-family="Times New Roman,serif" font-size="14.00" fill="red">forth</text>
</g>
<!-- forthOE&#45;&gt;forthME -->
<g id="edge10" class="edge">
<title>forthOE&#45;&gt;forthME</title>
<path fill="none" stroke="black" d="M206.95,-301.91C203.78,-292.14 199.73,-279.68 196.15,-268.65"/>
<polygon fill="black" stroke="black" points="199.45,-267.47 193.03,-259.04 192.79,-269.63 199.45,-267.47"/>
</g>
<!-- forthianOE -->
<g id="node13" class="node">
<title>forthianOE</title>
<text text-anchor="start" x="268" y="-243.8" font-family="Times New Roman,serif" font-size="14.00" fill="red">forthian</text>
<text text-anchor="start" x="268.5" y="-231.4" font-family="Times New Roman,serif" font-size="12.00">to further</text>
</g>
<!-- forthOE&#45;&gt;forthianOE -->
<g id="edge12" class="edge">
<title>forthOE&#45;&gt;forthianOE</title>
<path fill="none" stroke="black" d="M229.59,-301.91C240.06,-291.44 253.62,-277.88 265.19,-266.31"/>
<polygon fill="black" stroke="black" points="267.86,-268.59 272.46,-259.04 262.91,-263.64 267.86,-268.59"/>
</g>
<!-- forth -->
<g id="node12" class="node">
<title>forth</title>
<text text-anchor="start" x="128" y="-165.8" font-family="Times New Roman,serif" font-weight="bold" font-size="14.00">Modern English</text>
<text text-anchor="start" x="163.5" y="-151.8" font-family="Times New Roman,serif" font-size="14.00" fill="red">forth</text>
</g>
<!-- forthME&#45;&gt;forth -->
<g id="edge11" class="edge">
<title>forthME&#45;&gt;forth</title>
<path fill="none" stroke="black" d="M185.28,-222.91C184.02,-213.24 182.43,-200.93 181,-189.98"/>
<polygon fill="black" stroke="black" points="184.47,-189.51 179.71,-180.04 177.53,-190.41 184.47,-189.51"/>
</g>
<!-- geforthianOE -->
<g id="node14" class="node">
<title>geforthianOE</title>
<text text-anchor="start" x="261.5" y="-164.8" font-family="Times New Roman,serif" font-size="14.00" fill="red">geforthian</text>
<text text-anchor="start" x="263" y="-152.4" font-family="Times New Roman,serif" font-size="12.00">to carry out</text>
</g>
<!-- forthianOE&#45;&gt;geforthianOE -->
<g id="edge13" class="edge">
<title>forthianOE&#45;&gt;geforthianOE</title>
<path fill="none" stroke="black" d="M289.5,-222.91C289.5,-213.34 289.5,-201.18 289.5,-190.32"/>
<polygon fill="black" stroke="black" points="293,-190.04 289.5,-180.04 286,-190.04 293,-190.04"/>
</g>
<!-- aforthenME -->
<g id="node15" class="node">
<title>aforthenME</title>
<text text-anchor="start" x="243" y="-93.8" font-family="Times New Roman,serif" font-weight="bold" font-size="14.00">Middle English</text>
<text text-anchor="start" x="266.5" y="-79.8" font-family="Times New Roman,serif" font-size="14.00" fill="red">aforthen</text>
</g>
<!-- geforthianOE&#45;&gt;aforthenME -->
<g id="edge14" class="edge">
<title>geforthianOE&#45;&gt;aforthenME</title>
<path fill="none" stroke="black" d="M289.5,-143.7C289.5,-135.98 289.5,-126.71 289.5,-118.11"/>
<polygon fill="black" stroke="black" points="293,-118.1 289.5,-108.1 286,-118.1 293,-118.1"/>
</g>
<!-- afford -->
<g id="node16" class="node">
<title>afford</title>
<text text-anchor="start" x="240" y="-21.8" font-family="Times New Roman,serif" font-weight="bold" font-size="14.00">Modern English</text>
<text text-anchor="start" x="272" y="-7.8" font-family="Times New Roman,serif" font-size="14.00" fill="red">afford</text>
</g>
<!-- aforthenME&#45;&gt;afford -->
<g id="edge15" class="edge">
<title>aforthenME&#45;&gt;afford</title>
<path fill="none" stroke="black" d="M289.5,-71.7C289.5,-63.98 289.5,-54.71 289.5,-46.11"/>
<polygon fill="black" stroke="black" points="293,-46.1 289.5,-36.1 286,-46.1 293,-46.1"/>
</g>
<!-- furthraOE -->
<g id="node18" class="node">
<title>furthraOE</title>
<text text-anchor="start" x="339" y="-323.8" font-family="Times New Roman,serif" font-weight="bold" font-size="14.00">Old English</text>
<text text-anchor="start" x="334" y="-309.8" font-family="Times New Roman,serif" font-size="14.00" fill="red">furthra, furthor</text>
</g>
<!-- furtheraGm&#45;&gt;furthraOE -->
<g id="edge17" class="edge">
<title>furtheraGm&#45;&gt;furthraOE</title>
<path fill="none" stroke="black" d="M333.83,-373.78C340.79,-364.96 348.75,-354.88 355.84,-345.9"/>
<polygon fill="black" stroke="black" points="358.59,-348.06 362.04,-338.04 353.1,-343.72 358.59,-348.06"/>
</g>
<!-- furtherME -->
<g id="node19" class="node">
<title>furtherME</title>
<text text-anchor="start" x="355" y="-244.8" font-family="Times New Roman,serif" font-weight="bold" font-size="14.00">Middle English</text>
<text text-anchor="start" x="383" y="-230.8" font-family="Times New Roman,serif" font-size="14.00" fill="red">further</text>
</g>
<!-- furthraOE&#45;&gt;furtherME -->
<g id="edge18" class="edge">
<title>furthraOE&#45;&gt;furtherME</title>
<path fill="none" stroke="black" d="M381.27,-301.91C384.57,-292.14 388.78,-279.68 392.5,-268.65"/>
<polygon fill="black" stroke="black" points="395.86,-269.64 395.75,-259.04 389.23,-267.4 395.86,-269.64"/>
</g>
<!-- further -->
<g id="node20" class="node">
<title>further</title>
<text text-anchor="start" x="352" y="-165.8" font-family="Times New Roman,serif" font-weight="bold" font-size="14.00">Modern English</text>
<text text-anchor="start" x="383" y="-151.8" font-family="Times New Roman,serif" font-size="14.00" fill="red">further</text>
</g>
<!-- furtherME&#45;&gt;further -->
<g id="edge19" class="edge">
<title>furtherME&#45;&gt;further</title>
<path fill="none" stroke="black" d="M401.5,-222.91C401.5,-213.34 401.5,-201.18 401.5,-190.32"/>
<polygon fill="black" stroke="black" points="405,-190.04 401.5,-180.04 398,-190.04 405,-190.04"/>
</g>
<!-- furthestME -->
<g id="node21" class="node">
<title>furthestME</title>
<text text-anchor="start" x="485" y="-165.8" font-family="Times New Roman,serif" font-weight="bold" font-size="14.00">Middle English</text>
<text text-anchor="start" x="510" y="-151.8" font-family="Times New Roman,serif" font-size="14.00" fill="red">furthest</text>
</g>
<!-- furtherME&#45;&gt;furthestME -->
<g id="edge20" class="edge">
<title>furtherME&#45;&gt;furthestME</title>
<path fill="none" stroke="black" d="M430.35,-222.91C449.12,-211.8 473.78,-197.19 494.05,-185.18"/>
<polygon fill="black" stroke="black" points="495.91,-188.15 502.73,-180.04 492.34,-182.13 495.91,-188.15"/>
</g>
<!-- furthest -->
<g id="node22" class="node">
<title>furthest</title>
<text text-anchor="start" x="482" y="-93.8" font-family="Times New Roman,serif" font-weight="bold" font-size="14.00">Modern English</text>
<text text-anchor="start" x="510" y="-79.8" font-family="Times New Roman,serif" font-size="14.00" fill="red">furthest</text>
</g>
<!-- furthestME&#45;&gt;furthest -->
<g id="edge21" class="edge">
<title>furthestME&#45;&gt;furthest</title>
<path fill="none" stroke="black" d="M531.5,-143.7C531.5,-135.98 531.5,-126.71 531.5,-118.11"/>
<polygon fill="black" stroke="black" points="535,-118.1 531.5,-108.1 528,-118.1 535,-118.1"/>
</g>
</g>
</svg>
