<?xml version="1.0" encoding="UTF-8" standalone="no"?>
<!DOCTYPE svg PUBLIC "-//W3C//DTD SVG 1.1//EN"
 "http://www.w3.org/Graphics/SVG/1.1/DTD/svg11.dtd">
<!-- Generated by graphviz version 2.49.0 (20210828.1703)
 -->
<!-- Pages: 1 -->
<svg width="1315pt" height="818pt"
 viewBox="0.00 0.00 1314.50 818.00" xmlns="http://www.w3.org/2000/svg" xmlns:xlink="http://www.w3.org/1999/xlink">
<g id="graph0" class="graph" transform="scale(1 1) rotate(0) translate(4 814)">
<polygon fill="white" stroke="transparent" points="-4,4 -4,-814 1310.5,-814 1310.5,4 -4,4"/>
<!-- sem -->
<g id="node1" class="node">
<title>sem</title>
<g id="a_node1"><a xlink:href="sem-one0.svg" xlink:title="Indo&#45;European &quot;*sem&#45;&quot; one, as one">
<polygon fill="none" stroke="black" stroke-dasharray="5,2" points="724,-810 513,-810 513,-706 724,-706 724,-810"/>
<text text-anchor="start" x="540.5" y="-765.8" font-family="Times New Roman,serif" font-weight="bold" font-size="24.00">Indo&#45;European</text>
<text text-anchor="start" x="549" y="-737.6" font-family="Times New Roman,serif" font-size="18.00" fill="red">*sem&#45;</text>
<text text-anchor="start" x="618.5" y="-738.2" font-family="Times New Roman,serif" font-size="16.00">one, as one</text>
</a>
</g>
</g>
<!-- sm -->
<g id="node2" class="node">
<title>sm</title>
<text text-anchor="start" x="604.5" y="-635.3" font-family="Times New Roman,serif" font-size="14.00" fill="red">*sm̥&#45;</text>
</g>
<!-- sem&#45;&gt;sm -->
<g id="edge1" class="edge">
<title>sem&#45;&gt;sm</title>
<path fill="none" stroke="black" d="M618.5,-705.68C618.5,-692.47 618.5,-678.76 618.5,-667.3"/>
<polygon fill="black" stroke="black" points="622,-667.1 618.5,-657.1 615,-667.1 622,-667.1"/>
</g>
<!-- haGk -->
<g id="node3" class="node">
<title>haGk</title>
<text text-anchor="start" x="802.5" y="-557.8" font-family="Times New Roman,serif" font-weight="bold" font-size="14.00">Greek</text>
<text text-anchor="start" x="804.5" y="-543.8" font-family="Times New Roman,serif" font-size="14.00" fill="red">ha&#45;, a&#45;</text>
<text text-anchor="start" x="804" y="-531.4" font-family="Times New Roman,serif" font-size="12.00">together</text>
</g>
<!-- sm&#45;&gt;haGk -->
<g id="edge2" class="edge">
<title>sm&#45;&gt;haGk</title>
<path fill="none" stroke="black" d="M645.54,-628.81C678.9,-617.13 737.01,-595.61 784.5,-572 784.7,-571.9 784.9,-571.8 785.1,-571.7"/>
<polygon fill="black" stroke="black" points="786.99,-574.66 794.15,-566.85 783.68,-568.49 786.99,-574.66"/>
</g>
<!-- smplek -->
<g id="node17" class="node">
<title>smplek</title>
<text text-anchor="start" x="199.5" y="-550.8" font-family="Times New Roman,serif" font-size="14.00" fill="red">*sm̥&#45;plek&#45;</text>
<text text-anchor="start" x="208" y="-538.4" font-family="Times New Roman,serif" font-size="12.00">one&#45;fold</text>
</g>
<!-- sm&#45;&gt;smplek -->
<g id="edge15" class="edge">
<title>sm&#45;&gt;smplek</title>
<path fill="none" stroke="black" d="M591.11,-631.87C539.38,-620.27 423.77,-594.29 326.5,-572 309.27,-568.05 290.36,-563.67 273.72,-559.8"/>
<polygon fill="black" stroke="black" points="274.23,-556.32 263.69,-557.46 272.64,-563.14 274.23,-556.32"/>
</g>
<!-- smplo -->
<g id="node20" class="node">
<title>smplo</title>
<text text-anchor="start" x="276" y="-211.8" font-family="Times New Roman,serif" font-size="14.00" fill="red">*sm̥&#45;plo&#45;</text>
<text text-anchor="start" x="284.5" y="-199.4" font-family="Times New Roman,serif" font-size="12.00">onefold</text>
</g>
<!-- sm&#45;&gt;smplo -->
<g id="edge19" class="edge">
<title>sm&#45;&gt;smplo</title>
<path fill="none" stroke="black" d="M591.34,-634.26C521.39,-622.96 340.5,-582.39 340.5,-465 340.5,-465 340.5,-465 340.5,-378 340.5,-327.21 323.37,-269.96 311.82,-237.11"/>
<polygon fill="black" stroke="black" points="314.98,-235.56 308.29,-227.35 308.4,-237.94 314.98,-235.56"/>
</g>
<!-- smmo -->
<g id="node27" class="node">
<title>smmo</title>
<text text-anchor="start" x="638" y="-544.3" font-family="Times New Roman,serif" font-size="14.00" fill="red">*sm̥m&#45;o&#45;</text>
</g>
<!-- sm&#45;&gt;smmo -->
<g id="edge27" class="edge">
<title>sm&#45;&gt;smmo</title>
<path fill="none" stroke="black" d="M627.18,-620.84C633.71,-607.91 642.79,-589.96 650.24,-575.23"/>
<polygon fill="black" stroke="black" points="653.46,-576.61 654.85,-566.11 647.21,-573.45 653.46,-576.61"/>
</g>
<!-- smmalo -->
<g id="node32" class="node">
<title>smmalo</title>
<text text-anchor="start" x="543.5" y="-544.3" font-family="Times New Roman,serif" font-size="14.00" fill="red">*sm̥m&#45;alo&#45;</text>
</g>
<!-- sm&#45;&gt;smmalo -->
<g id="edge32" class="edge">
<title>sm&#45;&gt;smmalo</title>
<path fill="none" stroke="black" d="M609.82,-620.84C603.29,-607.91 594.21,-589.96 586.76,-575.23"/>
<polygon fill="black" stroke="black" points="589.79,-573.45 582.15,-566.11 583.54,-576.61 589.79,-573.45"/>
</g>
<!-- smkero -->
<g id="node47" class="node">
<title>smkero</title>
<text text-anchor="start" x="1237.5" y="-550.8" font-family="Times New Roman,serif" font-size="14.00" fill="red">*sm̥&#45;kēro&#45;</text>
<text text-anchor="start" x="1234.5" y="-538.4" font-family="Times New Roman,serif" font-size="12.00">of one growth</text>
</g>
<!-- sm&#45;&gt;smkero -->
<g id="edge46" class="edge">
<title>sm&#45;&gt;smkero</title>
<path fill="none" stroke="black" d="M645.54,-634.04C685.37,-628.22 762.15,-617.08 827.5,-608 865.36,-602.74 1109.24,-570.06 1216.27,-555.72"/>
<polygon fill="black" stroke="black" points="1216.74,-559.19 1226.19,-554.4 1215.81,-552.25 1216.74,-559.19"/>
</g>
<!-- smtero -->
<g id="node50" class="node">
<title>smtero</title>
<text text-anchor="start" x="428" y="-544.3" font-family="Times New Roman,serif" font-size="14.00" fill="red">*sm̥&#45;tero&#45;</text>
</g>
<!-- sm&#45;&gt;smtero -->
<g id="edge50" class="edge">
<title>sm&#45;&gt;smtero</title>
<path fill="none" stroke="black" d="M591.22,-623.1C565.1,-608.84 525.39,-587.16 495.66,-570.93"/>
<polygon fill="black" stroke="black" points="497.23,-567.8 486.78,-566.08 493.88,-573.94 497.23,-567.8"/>
</g>
<!-- smma -->
<g id="node53" class="node">
<title>smma</title>
<text text-anchor="start" x="723" y="-544.3" font-family="Times New Roman,serif" font-size="14.00" fill="red">*sm̥ma&#45;</text>
</g>
<!-- sm&#45;&gt;smma -->
<g id="edge53" class="edge">
<title>sm&#45;&gt;smma</title>
<path fill="none" stroke="black" d="M642.99,-620.84C662.84,-606.93 691,-587.19 712.78,-571.93"/>
<polygon fill="black" stroke="black" points="714.91,-574.71 721.09,-566.11 710.89,-568.98 714.91,-574.71"/>
</g>
<!-- akolouthosGk -->
<g id="node5" class="node">
<title>akolouthosGk</title>
<text text-anchor="start" x="1020.5" y="-466.8" font-family="Times New Roman,serif" font-size="14.00" fill="red">akolouthos</text>
<text text-anchor="start" x="1019" y="-454.4" font-family="Times New Roman,serif" font-size="12.00">accompanying</text>
</g>
<!-- haGk&#45;&gt;akolouthosGk -->
<g id="edge3" class="edge">
<title>haGk&#45;&gt;akolouthosGk</title>
<path fill="none" stroke="black" d="M850.78,-528.41C853.67,-526.82 856.61,-525.32 859.5,-524 905.63,-503 961.27,-486.83 1000.75,-476.77"/>
<polygon fill="black" stroke="black" points="1001.83,-480.11 1010.68,-474.28 1000.13,-473.32 1001.83,-480.11"/>
</g>
<!-- keleuthosGk -->
<g id="node4" class="node">
<title>keleuthosGk</title>
<text text-anchor="start" x="1031.5" y="-557.8" font-family="Times New Roman,serif" font-weight="bold" font-size="14.00">Greek</text>
<text text-anchor="start" x="1025" y="-543.8" font-family="Times New Roman,serif" font-size="14.00" fill="red">keleuthos</text>
<text text-anchor="start" x="1029" y="-531.4" font-family="Times New Roman,serif" font-size="12.00">way, path</text>
</g>
<!-- keleuthosGk&#45;&gt;akolouthosGk -->
<g id="edge4" class="edge">
<title>keleuthosGk&#45;&gt;akolouthosGk</title>
<path fill="none" stroke="black" d="M1051.5,-523.72C1051.5,-513.88 1051.5,-502.36 1051.5,-492.13"/>
<polygon fill="black" stroke="black" points="1055,-492.08 1051.5,-482.08 1048,-492.08 1055,-492.08"/>
</g>
<!-- anakolouthosGk -->
<g id="node8" class="node">
<title>anakolouthosGk</title>
<text text-anchor="start" x="1121" y="-381.8" font-family="Times New Roman,serif" font-size="14.00" fill="red">anakolouthos</text>
<text text-anchor="start" x="1132.5" y="-369.4" font-family="Times New Roman,serif" font-size="12.00">inconsistent</text>
</g>
<!-- akolouthosGk&#45;&gt;anakolouthosGk -->
<g id="edge6" class="edge">
<title>akolouthosGk&#45;&gt;anakolouthosGk</title>
<path fill="none" stroke="black" d="M1073.67,-445.8C1089.45,-433.56 1110.85,-416.96 1128.2,-403.5"/>
<polygon fill="black" stroke="black" points="1130.6,-406.07 1136.36,-397.18 1126.31,-400.54 1130.6,-406.07"/>
</g>
<!-- acolytusL -->
<g id="node12" class="node">
<title>acolytusL</title>
<text text-anchor="start" x="1023" y="-389.8" font-family="Times New Roman,serif" font-weight="bold" font-size="14.00">Medieval</text>
<text text-anchor="start" x="1035" y="-375.8" font-family="Times New Roman,serif" font-weight="bold" font-size="14.00">Latin</text>
<text text-anchor="start" x="1028" y="-361.8" font-family="Times New Roman,serif" font-size="14.00" fill="red">acolytus</text>
</g>
<!-- akolouthosGk&#45;&gt;acolytusL -->
<g id="edge11" class="edge">
<title>akolouthosGk&#45;&gt;acolytusL</title>
<path fill="none" stroke="black" stroke-dasharray="5,2" d="M1051.5,-445.8C1051.5,-436.66 1051.5,-425.09 1051.5,-414.22"/>
<polygon fill="black" stroke="black" points="1055,-414.1 1051.5,-404.1 1048,-414.1 1055,-414.1"/>
</g>
<!-- neIE -->
<g id="node6" class="node">
<title>neIE</title>
<g id="a_node6"><a xlink:href="ne-not3.svg" xlink:title="&lt;b&gt;Indo&#45;&lt;br/&gt;European&lt;/b&gt;&lt;br/&gt;&lt;font color=&quot;red&quot;&gt;*ne&lt;/font&gt;&lt;br/&gt;&lt;font point&#45;size=&quot;12&quot;&gt;not&lt;/font&gt;">
<path fill="none" stroke="black" stroke-dasharray="5,2" d="M1185,-670C1185,-670 1132,-670 1132,-670 1126,-670 1120,-664 1120,-658 1120,-658 1120,-620 1120,-620 1120,-614 1126,-608 1132,-608 1132,-608 1185,-608 1185,-608 1191,-608 1197,-614 1197,-620 1197,-620 1197,-658 1197,-658 1197,-664 1191,-670 1185,-670"/>
<text text-anchor="start" x="1142" y="-655.8" font-family="Times New Roman,serif" font-weight="bold" font-size="14.00">Indo&#45;</text>
<text text-anchor="start" x="1128" y="-641.8" font-family="Times New Roman,serif" font-weight="bold" font-size="14.00">European</text>
<text text-anchor="start" x="1148.5" y="-627.8" font-family="Times New Roman,serif" font-size="14.00" fill="red">*ne</text>
<text text-anchor="start" x="1151" y="-615.4" font-family="Times New Roman,serif" font-size="12.00">not</text>
</a>
</g>
</g>
<!-- anGk -->
<g id="node7" class="node">
<title>anGk</title>
<text text-anchor="start" x="1138.5" y="-467.8" font-family="Times New Roman,serif" font-weight="bold" font-size="14.00">Greek</text>
<text text-anchor="start" x="1149.5" y="-453.8" font-family="Times New Roman,serif" font-size="14.00" fill="red">an&#45;</text>
</g>
<!-- neIE&#45;&gt;anGk -->
<g id="edge5" class="edge">
<title>neIE&#45;&gt;anGk</title>
<path fill="none" stroke="black" d="M1158.5,-607.87C1158.5,-575.3 1158.5,-523.87 1158.5,-492.41"/>
<polygon fill="black" stroke="black" points="1162,-492.18 1158.5,-482.18 1155,-492.18 1162,-492.18"/>
</g>
<!-- anGk&#45;&gt;anakolouthosGk -->
<g id="edge7" class="edge">
<title>anGk&#45;&gt;anakolouthosGk</title>
<path fill="none" stroke="black" d="M1158.5,-445.8C1158.5,-434.67 1158.5,-419.94 1158.5,-407.24"/>
<polygon fill="black" stroke="black" points="1162,-407.18 1158.5,-397.18 1155,-407.18 1162,-407.18"/>
</g>
<!-- anakolouthonGk -->
<g id="node9" class="node">
<title>anakolouthonGk</title>
<text text-anchor="start" x="1132" y="-303.8" font-family="Times New Roman,serif" font-weight="bold" font-size="14.00">Late Greek</text>
<text text-anchor="start" x="1129.5" y="-289.8" font-family="Times New Roman,serif" font-size="14.00" fill="red">anakolouthon</text>
<text text-anchor="start" x="1120.5" y="-277.4" font-family="Times New Roman,serif" font-size="12.00">inconsistency in logic</text>
</g>
<!-- anakolouthosGk&#45;&gt;anakolouthonGk -->
<g id="edge8" class="edge">
<title>anakolouthosGk&#45;&gt;anakolouthonGk</title>
<path fill="none" stroke="black" d="M1160.36,-360.8C1161.39,-351.35 1162.7,-339.3 1163.91,-328.1"/>
<polygon fill="black" stroke="black" points="1167.39,-328.48 1164.99,-318.16 1160.43,-327.72 1167.39,-328.48"/>
</g>
<!-- anacoluthonL -->
<g id="node10" class="node">
<title>anacoluthonL</title>
<text text-anchor="start" x="1138.5" y="-212.8" font-family="Times New Roman,serif" font-weight="bold" font-size="14.00">Late Latin</text>
<text text-anchor="start" x="1136.5" y="-198.8" font-family="Times New Roman,serif" font-size="14.00" fill="red">anacoluthon</text>
</g>
<!-- anakolouthonGk&#45;&gt;anacoluthonL -->
<g id="edge9" class="edge">
<title>anakolouthonGk&#45;&gt;anacoluthonL</title>
<path fill="none" stroke="black" stroke-dasharray="5,2" d="M1168.34,-269.88C1168.7,-259.84 1169.13,-248 1169.51,-237.51"/>
<polygon fill="black" stroke="black" points="1173.01,-237.33 1169.88,-227.21 1166.02,-237.07 1173.01,-237.33"/>
</g>
<!-- anacoluthon -->
<g id="node11" class="node">
<title>anacoluthon</title>
<text text-anchor="start" x="1150" y="-41.8" font-family="Times New Roman,serif" font-weight="bold" font-size="14.00">Modern</text>
<text text-anchor="start" x="1151.5" y="-27.8" font-family="Times New Roman,serif" font-weight="bold" font-size="14.00">English</text>
<text text-anchor="start" x="1140.5" y="-13.8" font-family="Times New Roman,serif" font-size="14.00" fill="red">anacoluthon</text>
</g>
<!-- anacoluthonL&#45;&gt;anacoluthon -->
<g id="edge10" class="edge">
<title>anacoluthonL&#45;&gt;anacoluthon</title>
<path fill="none" stroke="black" stroke-dasharray="5,2" d="M1170.89,-190.8C1171.54,-162.15 1172.86,-104.09 1173.71,-66.67"/>
<polygon fill="black" stroke="black" points="1177.22,-66.32 1173.95,-56.24 1170.22,-66.16 1177.22,-66.32"/>
</g>
<!-- acolitOF -->
<g id="node13" class="node">
<title>acolitOF</title>
<text text-anchor="start" x="1016.5" y="-297.8" font-family="Times New Roman,serif" font-weight="bold" font-size="14.00">Old French</text>
<text text-anchor="start" x="1036" y="-283.8" font-family="Times New Roman,serif" font-size="14.00" fill="red">acolit</text>
</g>
<!-- acolytusL&#45;&gt;acolitOF -->
<g id="edge12" class="edge">
<title>acolytusL&#45;&gt;acolitOF</title>
<path fill="none" stroke="black" d="M1051.5,-353.99C1051.5,-344.04 1051.5,-332.45 1051.5,-322.19"/>
<polygon fill="black" stroke="black" points="1055,-322.1 1051.5,-312.1 1048,-322.1 1055,-322.1"/>
</g>
<!-- acolitME -->
<g id="node14" class="node">
<title>acolitME</title>
<text text-anchor="start" x="1044" y="-219.8" font-family="Times New Roman,serif" font-weight="bold" font-size="14.00">Middle</text>
<text text-anchor="start" x="1042.5" y="-205.8" font-family="Times New Roman,serif" font-weight="bold" font-size="14.00">English</text>
<text text-anchor="start" x="1050" y="-191.8" font-family="Times New Roman,serif" font-size="14.00" fill="red">acolit</text>
</g>
<!-- acolitOF&#45;&gt;acolitME -->
<g id="edge13" class="edge">
<title>acolitOF&#45;&gt;acolitME</title>
<path fill="none" stroke="black" stroke-dasharray="5,2" d="M1054.4,-275.8C1055.94,-266.66 1057.89,-255.09 1059.73,-244.22"/>
<polygon fill="black" stroke="black" points="1063.22,-244.54 1061.44,-234.1 1056.32,-243.38 1063.22,-244.54"/>
</g>
<!-- acolyte -->
<g id="node15" class="node">
<title>acolyte</title>
<text text-anchor="start" x="1057" y="-41.8" font-family="Times New Roman,serif" font-weight="bold" font-size="14.00">Modern</text>
<text text-anchor="start" x="1058.5" y="-27.8" font-family="Times New Roman,serif" font-weight="bold" font-size="14.00">English</text>
<text text-anchor="start" x="1061.5" y="-13.8" font-family="Times New Roman,serif" font-size="14.00" fill="red">acolyte</text>
</g>
<!-- acolitME&#45;&gt;acolyte -->
<g id="edge14" class="edge">
<title>acolitME&#45;&gt;acolyte</title>
<path fill="none" stroke="black" d="M1067.69,-183.9C1070.46,-153.44 1075.24,-100.82 1078.39,-66.21"/>
<polygon fill="black" stroke="black" points="1081.89,-66.37 1079.31,-56.09 1074.92,-65.74 1081.89,-66.37"/>
</g>
<!-- plekIE -->
<g id="node16" class="node">
<title>plekIE</title>
<g id="a_node16"><a xlink:href="plek-plait.svg" xlink:title="&lt;b&gt;Indo&#45;&lt;br/&gt;European&lt;/b&gt;&lt;br/&gt;&lt;font color=&quot;red&quot;&gt;*plek&#45;&lt;/font&gt;&lt;br/&gt;&lt;font point&#45;size=&quot;12&quot;&gt;to plait&lt;/font&gt;">
<path fill="none" stroke="black" stroke-dasharray="5,2" d="M254,-670C254,-670 201,-670 201,-670 195,-670 189,-664 189,-658 189,-658 189,-620 189,-620 189,-614 195,-608 201,-608 201,-608 254,-608 254,-608 260,-608 266,-614 266,-620 266,-620 266,-658 266,-658 266,-664 260,-670 254,-670"/>
<text text-anchor="start" x="211" y="-655.8" font-family="Times New Roman,serif" font-weight="bold" font-size="14.00">Indo&#45;</text>
<text text-anchor="start" x="197" y="-641.8" font-family="Times New Roman,serif" font-weight="bold" font-size="14.00">European</text>
<text text-anchor="start" x="210" y="-627.8" font-family="Times New Roman,serif" font-size="14.00" fill="red">*plek&#45;</text>
<text text-anchor="start" x="212" y="-615.4" font-family="Times New Roman,serif" font-size="12.00">to plait</text>
</a>
</g>
</g>
<!-- plekIE&#45;&gt;smplek -->
<g id="edge16" class="edge">
<title>plekIE&#45;&gt;smplek</title>
<path fill="none" stroke="black" d="M227.5,-607.87C227.5,-597.65 227.5,-586.29 227.5,-576.3"/>
<polygon fill="black" stroke="black" points="231,-576.12 227.5,-566.12 224,-576.12 231,-576.12"/>
</g>
<!-- simplexL -->
<g id="node18" class="node">
<title>simplexL</title>
<text text-anchor="start" x="119" y="-218.8" font-family="Times New Roman,serif" font-weight="bold" font-size="14.00">Latin</text>
<text text-anchor="start" x="114" y="-204.8" font-family="Times New Roman,serif" font-size="14.00" fill="red">simplex</text>
<text text-anchor="start" x="121" y="-192.4" font-family="Times New Roman,serif" font-size="12.00">simple</text>
</g>
<!-- smplek&#45;&gt;simplexL -->
<g id="edge17" class="edge">
<title>smplek&#45;&gt;simplexL</title>
<path fill="none" stroke="black" d="M222.81,-529.82C208.26,-476.51 163.69,-313.24 144.47,-242.86"/>
<polygon fill="black" stroke="black" points="147.84,-241.89 141.83,-233.17 141.08,-243.74 147.84,-241.89"/>
</g>
<!-- simplex -->
<g id="node19" class="node">
<title>simplex</title>
<text text-anchor="start" x="8" y="-41.8" font-family="Times New Roman,serif" font-weight="bold" font-size="14.00">Modern</text>
<text text-anchor="start" x="9.5" y="-27.8" font-family="Times New Roman,serif" font-weight="bold" font-size="14.00">English</text>
<text text-anchor="start" x="11" y="-13.8" font-family="Times New Roman,serif" font-size="14.00" fill="red">simplex</text>
</g>
<!-- simplexL&#45;&gt;simplex -->
<g id="edge18" class="edge">
<title>simplexL&#45;&gt;simplex</title>
<path fill="none" stroke="black" stroke-dasharray="5,2" d="M105.65,-190.02C90.63,-179.53 73.35,-165.01 62.5,-148 46.81,-123.41 39.31,-90.95 35.73,-66.62"/>
<polygon fill="black" stroke="black" points="39.16,-65.86 34.39,-56.4 32.22,-66.77 39.16,-65.86"/>
</g>
<!-- simple -->
<g id="node22" class="node">
<title>simple</title>
<text text-anchor="start" x="190" y="-41.8" font-family="Times New Roman,serif" font-weight="bold" font-size="14.00">Modern</text>
<text text-anchor="start" x="191.5" y="-27.8" font-family="Times New Roman,serif" font-weight="bold" font-size="14.00">English</text>
<text text-anchor="start" x="196" y="-13.8" font-family="Times New Roman,serif" font-size="14.00" fill="red">simple</text>
</g>
<!-- simplexL&#45;&gt;simple -->
<g id="edge21" class="edge">
<title>simplexL&#45;&gt;simple</title>
<path fill="none" stroke="black" stroke-dasharray="5,2" d="M145.77,-184.8C155.65,-162.52 171.03,-127.93 184.5,-98 189.28,-87.37 194.54,-75.79 199.29,-65.34"/>
<polygon fill="black" stroke="black" points="202.53,-66.67 203.48,-56.12 196.16,-63.77 202.53,-66.67"/>
</g>
<!-- sempliceI -->
<g id="node23" class="node">
<title>sempliceI</title>
<text text-anchor="start" x="84.5" y="-126.8" font-family="Times New Roman,serif" font-weight="bold" font-size="14.00">Italian</text>
<text text-anchor="start" x="80" y="-112.8" font-family="Times New Roman,serif" font-size="14.00" fill="red">semplice</text>
</g>
<!-- simplexL&#45;&gt;sempliceI -->
<g id="edge23" class="edge">
<title>simplexL&#45;&gt;sempliceI</title>
<path fill="none" stroke="black" d="M126.86,-184.6C122.97,-174.05 118.35,-161.53 114.32,-150.61"/>
<polygon fill="black" stroke="black" points="117.57,-149.32 110.83,-141.15 111.01,-151.74 117.57,-149.32"/>
</g>
<!-- simplusL -->
<g id="node21" class="node">
<title>simplusL</title>
<text text-anchor="start" x="207" y="-132.8" font-family="Times New Roman,serif" font-weight="bold" font-size="14.00">Latin</text>
<text text-anchor="start" x="202" y="-118.8" font-family="Times New Roman,serif" font-size="14.00" fill="red">simplus</text>
<text text-anchor="start" x="209" y="-106.4" font-family="Times New Roman,serif" font-size="12.00">simple</text>
</g>
<!-- smplo&#45;&gt;simplusL -->
<g id="edge20" class="edge">
<title>smplo&#45;&gt;simplusL</title>
<path fill="none" stroke="black" d="M285.34,-190.6C275.66,-180.17 263.08,-166.62 251.79,-154.47"/>
<polygon fill="black" stroke="black" points="254.34,-152.07 244.97,-147.12 249.21,-156.83 254.34,-152.07"/>
</g>
<!-- haploosGk -->
<g id="node25" class="node">
<title>haploosGk</title>
<text text-anchor="start" x="281.5" y="-132.8" font-family="Times New Roman,serif" font-weight="bold" font-size="14.00">Greek</text>
<text text-anchor="start" x="279" y="-118.8" font-family="Times New Roman,serif" font-size="14.00" fill="red">haploos</text>
<text text-anchor="start" x="289" y="-106.4" font-family="Times New Roman,serif" font-size="12.00">single</text>
</g>
<!-- smplo&#45;&gt;haploosGk -->
<g id="edge25" class="edge">
<title>smplo&#45;&gt;haploosGk</title>
<path fill="none" stroke="black" d="M301.5,-190.6C301.5,-180.96 301.5,-168.65 301.5,-157.24"/>
<polygon fill="black" stroke="black" points="305,-157.12 301.5,-147.12 298,-157.12 305,-157.12"/>
</g>
<!-- simplusL&#45;&gt;simple -->
<g id="edge22" class="edge">
<title>simplusL&#45;&gt;simple</title>
<path fill="none" stroke="black" stroke-dasharray="5,2" d="M221.18,-98.82C220.19,-88.88 219.01,-77.05 217.91,-66.14"/>
<polygon fill="black" stroke="black" points="221.38,-65.64 216.9,-56.04 214.42,-66.34 221.38,-65.64"/>
</g>
<!-- semplice -->
<g id="node24" class="node">
<title>semplice</title>
<text text-anchor="start" x="91" y="-41.8" font-family="Times New Roman,serif" font-weight="bold" font-size="14.00">Modern</text>
<text text-anchor="start" x="92.5" y="-27.8" font-family="Times New Roman,serif" font-weight="bold" font-size="14.00">English</text>
<text text-anchor="start" x="91" y="-13.8" font-family="Times New Roman,serif" font-size="14.00" fill="red">semplice</text>
</g>
<!-- sempliceI&#45;&gt;semplice -->
<g id="edge24" class="edge">
<title>sempliceI&#45;&gt;semplice</title>
<path fill="none" stroke="black" stroke-dasharray="5,2" d="M106.62,-104.65C107.95,-93.76 109.71,-79.36 111.31,-66.25"/>
<polygon fill="black" stroke="black" points="114.81,-66.45 112.55,-56.1 107.87,-65.61 114.81,-66.45"/>
</g>
<!-- haploid -->
<g id="node26" class="node">
<title>haploid</title>
<text text-anchor="start" x="277" y="-41.8" font-family="Times New Roman,serif" font-weight="bold" font-size="14.00">Modern</text>
<text text-anchor="start" x="278.5" y="-27.8" font-family="Times New Roman,serif" font-weight="bold" font-size="14.00">English</text>
<text text-anchor="start" x="280.5" y="-13.8" font-family="Times New Roman,serif" font-size="14.00" fill="red">haploid</text>
</g>
<!-- haploosGk&#45;&gt;haploid -->
<g id="edge26" class="edge">
<title>haploosGk&#45;&gt;haploid</title>
<path fill="none" stroke="black" stroke-dasharray="5,2" d="M301.5,-98.82C301.5,-88.88 301.5,-77.05 301.5,-66.14"/>
<polygon fill="black" stroke="black" points="305,-66.04 301.5,-56.04 298,-66.04 305,-66.04"/>
</g>
<!-- sumaGc -->
<g id="node28" class="node">
<title>sumaGc</title>
<text text-anchor="start" x="651" y="-467.8" font-family="Times New Roman,serif" font-weight="bold" font-size="14.00">Germanic</text>
<text text-anchor="start" x="661" y="-453.8" font-family="Times New Roman,serif" font-size="14.00" fill="red">*suma&#45;</text>
</g>
<!-- smmo&#45;&gt;sumaGc -->
<g id="edge28" class="edge">
<title>smmo&#45;&gt;sumaGc</title>
<path fill="none" stroke="black" d="M667.32,-529.61C669.72,-518.66 672.87,-504.31 675.59,-491.92"/>
<polygon fill="black" stroke="black" points="679.02,-492.6 677.75,-482.08 672.19,-491.1 679.02,-492.6"/>
</g>
<!-- sumOE -->
<g id="node29" class="node">
<title>sumOE</title>
<text text-anchor="start" x="709" y="-382.8" font-family="Times New Roman,serif" font-weight="bold" font-size="14.00">Old English</text>
<text text-anchor="start" x="716" y="-368.8" font-family="Times New Roman,serif" font-size="14.00" fill="red">sum, &#45;sum</text>
</g>
<!-- sumaGc&#45;&gt;sumOE -->
<g id="edge29" class="edge">
<title>sumaGc&#45;&gt;sumOE</title>
<path fill="none" stroke="black" d="M694.76,-445.8C703.77,-434.12 715.84,-418.46 725.95,-405.35"/>
<polygon fill="black" stroke="black" points="728.92,-407.23 732.26,-397.18 723.38,-402.96 728.92,-407.23"/>
</g>
<!-- someME -->
<g id="node30" class="node">
<title>someME</title>
<text text-anchor="start" x="746" y="-133.8" font-family="Times New Roman,serif" font-weight="bold" font-size="14.00">Middle</text>
<text text-anchor="start" x="744.5" y="-119.8" font-family="Times New Roman,serif" font-weight="bold" font-size="14.00">English</text>
<text text-anchor="start" x="734" y="-105.8" font-family="Times New Roman,serif" font-size="14.00" fill="red">some, &#45;som</text>
</g>
<!-- sumOE&#45;&gt;someME -->
<g id="edge30" class="edge">
<title>sumOE&#45;&gt;someME</title>
<path fill="none" stroke="black" d="M778.39,-360.96C794.24,-350.82 811.69,-336.34 820.5,-318 846.23,-264.46 814.35,-196.4 790.07,-156.77"/>
<polygon fill="black" stroke="black" points="793.02,-154.87 784.72,-148.28 787.1,-158.61 793.02,-154.87"/>
</g>
<!-- some -->
<g id="node31" class="node">
<title>some</title>
<text text-anchor="start" x="728" y="-41.8" font-family="Times New Roman,serif" font-weight="bold" font-size="14.00">Modern</text>
<text text-anchor="start" x="729.5" y="-27.8" font-family="Times New Roman,serif" font-weight="bold" font-size="14.00">English</text>
<text text-anchor="start" x="716" y="-13.8" font-family="Times New Roman,serif" font-size="14.00" fill="red">some, &#45;some</text>
</g>
<!-- someME&#45;&gt;some -->
<g id="edge31" class="edge">
<title>someME&#45;&gt;some</title>
<path fill="none" stroke="black" d="M763.48,-97.88C761.87,-88.2 759.98,-76.85 758.22,-66.34"/>
<polygon fill="black" stroke="black" points="761.63,-65.47 756.53,-56.18 754.72,-66.62 761.63,-65.47"/>
</g>
<!-- similisL -->
<g id="node33" class="node">
<title>similisL</title>
<text text-anchor="start" x="557" y="-473.8" font-family="Times New Roman,serif" font-weight="bold" font-size="14.00">Latin</text>
<text text-anchor="start" x="556" y="-459.8" font-family="Times New Roman,serif" font-size="14.00" fill="red">similis</text>
<text text-anchor="start" x="536" y="-447.4" font-family="Times New Roman,serif" font-size="12.00">of the same kind</text>
</g>
<!-- smmalo&#45;&gt;similisL -->
<g id="edge33" class="edge">
<title>smmalo&#45;&gt;similisL</title>
<path fill="none" stroke="black" d="M573.5,-529.61C573.5,-520.58 573.5,-509.24 573.5,-498.59"/>
<polygon fill="black" stroke="black" points="577,-498.28 573.5,-488.28 570,-498.28 577,-498.28"/>
</g>
<!-- similaireF -->
<g id="node34" class="node">
<title>similaireF</title>
<text text-anchor="start" x="443.5" y="-212.8" font-family="Times New Roman,serif" font-weight="bold" font-size="14.00">French</text>
<text text-anchor="start" x="442.5" y="-198.8" font-family="Times New Roman,serif" font-size="14.00" fill="red">similaire</text>
</g>
<!-- similisL&#45;&gt;similaireF -->
<g id="edge34" class="edge">
<title>similisL&#45;&gt;similaireF</title>
<path fill="none" stroke="black" d="M527.6,-444.06C509.77,-434.53 490.73,-421.27 478.5,-404 443.13,-354.06 451.34,-277.55 459.14,-237.16"/>
<polygon fill="black" stroke="black" points="462.59,-237.74 461.19,-227.24 455.74,-236.32 462.59,-237.74"/>
</g>
<!-- simulareL -->
<g id="node37" class="node">
<title>simulareL</title>
<text text-anchor="start" x="567.5" y="-381.8" font-family="Times New Roman,serif" font-size="14.00" fill="red">simulāre</text>
<text text-anchor="start" x="569.5" y="-369.4" font-family="Times New Roman,serif" font-size="12.00">to imitate</text>
</g>
<!-- similisL&#45;&gt;simulareL -->
<g id="edge36" class="edge">
<title>similisL&#45;&gt;simulareL</title>
<path fill="none" stroke="black" d="M578.24,-439.88C580.31,-429.73 582.77,-417.75 584.93,-407.18"/>
<polygon fill="black" stroke="black" points="588.4,-407.7 586.98,-397.21 581.54,-406.3 588.4,-407.7"/>
</g>
<!-- similar -->
<g id="node35" class="node">
<title>similar</title>
<text text-anchor="start" x="458" y="-41.8" font-family="Times New Roman,serif" font-weight="bold" font-size="14.00">Modern</text>
<text text-anchor="start" x="459.5" y="-27.8" font-family="Times New Roman,serif" font-weight="bold" font-size="14.00">English</text>
<text text-anchor="start" x="464" y="-13.8" font-family="Times New Roman,serif" font-size="14.00" fill="red">similar</text>
</g>
<!-- similaireF&#45;&gt;similar -->
<g id="edge35" class="edge">
<title>similaireF&#45;&gt;similar</title>
<path fill="none" stroke="black" stroke-dasharray="5,2" d="M467.16,-190.8C469.93,-162.15 475.54,-104.09 479.15,-66.67"/>
<polygon fill="black" stroke="black" points="482.68,-66.53 480.16,-56.24 475.71,-65.86 482.68,-66.53"/>
</g>
<!-- adL -->
<g id="node36" class="node">
<title>adL</title>
<text text-anchor="start" x="498" y="-388.8" font-family="Times New Roman,serif" font-weight="bold" font-size="14.00">Latin</text>
<text text-anchor="start" x="505" y="-374.8" font-family="Times New Roman,serif" font-size="14.00" fill="red">ad&#45;</text>
<text text-anchor="start" x="509.5" y="-362.4" font-family="Times New Roman,serif" font-size="12.00">to</text>
</g>
<!-- assimilareL -->
<g id="node38" class="node">
<title>assimilareL</title>
<text text-anchor="start" x="476.5" y="-296.8" font-family="Times New Roman,serif" font-size="14.00" fill="red">assimilāre, assimilāt&#45;</text>
<text text-anchor="start" x="493" y="-284.4" font-family="Times New Roman,serif" font-size="12.00">to make similar to</text>
</g>
<!-- adL&#45;&gt;assimilareL -->
<g id="edge37" class="edge">
<title>adL&#45;&gt;assimilareL</title>
<path fill="none" stroke="black" d="M519.79,-354.88C522.11,-344.73 524.86,-332.75 527.28,-322.18"/>
<polygon fill="black" stroke="black" points="530.74,-322.73 529.56,-312.21 523.92,-321.17 530.74,-322.73"/>
</g>
<!-- simulareL&#45;&gt;assimilareL -->
<g id="edge38" class="edge">
<title>simulareL&#45;&gt;assimilareL</title>
<path fill="none" stroke="black" d="M578.69,-360.8C570.74,-349.23 560.12,-333.76 551.17,-320.73"/>
<polygon fill="black" stroke="black" points="553.84,-318.44 545.3,-312.18 548.07,-322.4 553.84,-318.44"/>
</g>
<!-- semblerOF -->
<g id="node41" class="node">
<title>semblerOF</title>
<text text-anchor="start" x="624.5" y="-303.8" font-family="Times New Roman,serif" font-weight="bold" font-size="14.00">Old French</text>
<text text-anchor="start" x="637.5" y="-289.8" font-family="Times New Roman,serif" font-size="14.00" fill="red">sembler</text>
<text text-anchor="start" x="637.5" y="-277.4" font-family="Times New Roman,serif" font-size="12.00">to appear</text>
</g>
<!-- simulareL&#45;&gt;semblerOF -->
<g id="edge41" class="edge">
<title>simulareL&#45;&gt;semblerOF</title>
<path fill="none" stroke="black" d="M604.8,-360.8C613.14,-350.77 623.91,-337.82 633.68,-326.06"/>
<polygon fill="black" stroke="black" points="636.55,-328.09 640.25,-318.16 631.16,-323.61 636.55,-328.09"/>
</g>
<!-- assimilatenME -->
<g id="node39" class="node">
<title>assimilatenME</title>
<text text-anchor="start" x="541" y="-219.8" font-family="Times New Roman,serif" font-weight="bold" font-size="14.00">Middle</text>
<text text-anchor="start" x="539.5" y="-205.8" font-family="Times New Roman,serif" font-weight="bold" font-size="14.00">English</text>
<text text-anchor="start" x="532" y="-191.8" font-family="Times New Roman,serif" font-size="14.00" fill="red">assimilaten</text>
</g>
<!-- assimilareL&#45;&gt;assimilatenME -->
<g id="edge39" class="edge">
<title>assimilareL&#45;&gt;assimilatenME</title>
<path fill="none" stroke="black" stroke-dasharray="5,2" d="M539.51,-275.8C542.77,-266.47 546.91,-254.62 550.78,-243.54"/>
<polygon fill="black" stroke="black" points="554.09,-244.69 554.08,-234.1 547.48,-242.39 554.09,-244.69"/>
</g>
<!-- assimilate -->
<g id="node40" class="node">
<title>assimilate</title>
<text text-anchor="start" x="544" y="-41.8" font-family="Times New Roman,serif" font-weight="bold" font-size="14.00">Modern</text>
<text text-anchor="start" x="545.5" y="-27.8" font-family="Times New Roman,serif" font-weight="bold" font-size="14.00">English</text>
<text text-anchor="start" x="541.5" y="-13.8" font-family="Times New Roman,serif" font-size="14.00" fill="red">assimilate</text>
</g>
<!-- assimilatenME&#45;&gt;assimilate -->
<g id="edge40" class="edge">
<title>assimilatenME&#45;&gt;assimilate</title>
<path fill="none" stroke="black" d="M563.32,-183.9C564.36,-153.44 566.15,-100.82 567.33,-66.21"/>
<polygon fill="black" stroke="black" points="570.84,-66.21 567.68,-56.09 563.84,-65.97 570.84,-66.21"/>
</g>
<!-- resemblerOF -->
<g id="node43" class="node">
<title>resemblerOF</title>
<text text-anchor="start" x="632" y="-205.3" font-family="Times New Roman,serif" font-size="14.00" fill="red">resembler</text>
</g>
<!-- semblerOF&#45;&gt;resemblerOF -->
<g id="edge42" class="edge">
<title>semblerOF&#45;&gt;resemblerOF</title>
<path fill="none" stroke="black" d="M659.5,-269.88C659.5,-259.84 659.5,-248 659.5,-237.51"/>
<polygon fill="black" stroke="black" points="663,-237.21 659.5,-227.21 656,-237.21 663,-237.21"/>
</g>
<!-- reOF -->
<g id="node42" class="node">
<title>reOF</title>
<text text-anchor="start" x="731.5" y="-303.8" font-family="Times New Roman,serif" font-weight="bold" font-size="14.00">Old French</text>
<text text-anchor="start" x="758.5" y="-289.8" font-family="Times New Roman,serif" font-size="14.00" fill="red">re&#45;</text>
<text text-anchor="start" x="729" y="-277.4" font-family="Times New Roman,serif" font-size="12.00">(intensive prefix)</text>
</g>
<!-- reOF&#45;&gt;resemblerOF -->
<g id="edge43" class="edge">
<title>reOF&#45;&gt;resemblerOF</title>
<path fill="none" stroke="black" d="M736.69,-269.88C722.12,-258.57 704.6,-244.98 689.94,-233.61"/>
<polygon fill="black" stroke="black" points="691.73,-230.57 681.68,-227.21 687.44,-236.1 691.73,-230.57"/>
</g>
<!-- resemblenME -->
<g id="node44" class="node">
<title>resemblenME</title>
<text text-anchor="start" x="636" y="-133.8" font-family="Times New Roman,serif" font-weight="bold" font-size="14.00">Middle</text>
<text text-anchor="start" x="634.5" y="-119.8" font-family="Times New Roman,serif" font-weight="bold" font-size="14.00">English</text>
<text text-anchor="start" x="629" y="-105.8" font-family="Times New Roman,serif" font-size="14.00" fill="red">resemblen</text>
</g>
<!-- resemblerOF&#45;&gt;resemblenME -->
<g id="edge44" class="edge">
<title>resemblerOF&#45;&gt;resemblenME</title>
<path fill="none" stroke="black" stroke-dasharray="5,2" d="M659.09,-190.6C658.86,-181.27 658.58,-169.45 658.32,-158.37"/>
<polygon fill="black" stroke="black" points="661.81,-157.98 658.07,-148.07 654.81,-158.15 661.81,-157.98"/>
</g>
<!-- resemble -->
<g id="node45" class="node">
<title>resemble</title>
<text text-anchor="start" x="632" y="-41.8" font-family="Times New Roman,serif" font-weight="bold" font-size="14.00">Modern</text>
<text text-anchor="start" x="633.5" y="-27.8" font-family="Times New Roman,serif" font-weight="bold" font-size="14.00">English</text>
<text text-anchor="start" x="631.5" y="-13.8" font-family="Times New Roman,serif" font-size="14.00" fill="red">resemble</text>
</g>
<!-- resemblenME&#45;&gt;resemble -->
<g id="edge45" class="edge">
<title>resemblenME&#45;&gt;resemble</title>
<path fill="none" stroke="black" d="M657.23,-97.88C657.12,-88.2 657,-76.85 656.88,-66.34"/>
<polygon fill="black" stroke="black" points="660.38,-66.15 656.77,-56.18 653.38,-66.22 660.38,-66.15"/>
</g>
<!-- kerIE -->
<g id="node46" class="node">
<title>kerIE</title>
<g id="a_node46"><a xlink:href="ker-grow.svg" xlink:title="&lt;b&gt;Indo&#45;&lt;br/&gt;European&lt;/b&gt;&lt;br/&gt;&lt;font color=&quot;red&quot;&gt;*ker&#45;&lt;/font&gt;&lt;br/&gt;&lt;font point&#45;size=&quot;12&quot;&gt;to grow&lt;/font&gt;">
<path fill="none" stroke="black" stroke-dasharray="5,2" d="M1293,-670C1293,-670 1240,-670 1240,-670 1234,-670 1228,-664 1228,-658 1228,-658 1228,-620 1228,-620 1228,-614 1234,-608 1240,-608 1240,-608 1293,-608 1293,-608 1299,-608 1305,-614 1305,-620 1305,-620 1305,-658 1305,-658 1305,-664 1299,-670 1293,-670"/>
<text text-anchor="start" x="1250" y="-655.8" font-family="Times New Roman,serif" font-weight="bold" font-size="14.00">Indo&#45;</text>
<text text-anchor="start" x="1236" y="-641.8" font-family="Times New Roman,serif" font-weight="bold" font-size="14.00">European</text>
<text text-anchor="start" x="1252" y="-627.8" font-family="Times New Roman,serif" font-size="14.00" fill="red">*ker&#45;</text>
<text text-anchor="start" x="1248.5" y="-615.4" font-family="Times New Roman,serif" font-size="12.00">to grow</text>
</a>
</g>
</g>
<!-- kerIE&#45;&gt;smkero -->
<g id="edge47" class="edge">
<title>kerIE&#45;&gt;smkero</title>
<path fill="none" stroke="black" d="M1266.5,-607.87C1266.5,-597.65 1266.5,-586.29 1266.5,-576.3"/>
<polygon fill="black" stroke="black" points="1270,-576.12 1266.5,-566.12 1263,-576.12 1270,-576.12"/>
</g>
<!-- sincerusL -->
<g id="node48" class="node">
<title>sincerusL</title>
<text text-anchor="start" x="1257" y="-303.8" font-family="Times New Roman,serif" font-weight="bold" font-size="14.00">Latin</text>
<text text-anchor="start" x="1250.5" y="-289.8" font-family="Times New Roman,serif" font-size="14.00" fill="red">sincērus</text>
<text text-anchor="start" x="1248.5" y="-277.4" font-family="Times New Roman,serif" font-size="12.00">pure. clean</text>
</g>
<!-- smkero&#45;&gt;sincerusL -->
<g id="edge48" class="edge">
<title>smkero&#45;&gt;sincerusL</title>
<path fill="none" stroke="black" d="M1266.98,-529.68C1268.13,-488.19 1271.07,-382.53 1272.58,-328.27"/>
<polygon fill="black" stroke="black" points="1276.08,-328.23 1272.86,-318.14 1269.08,-328.04 1276.08,-328.23"/>
</g>
<!-- sincere -->
<g id="node49" class="node">
<title>sincere</title>
<text text-anchor="start" x="1249" y="-41.8" font-family="Times New Roman,serif" font-weight="bold" font-size="14.00">Modern</text>
<text text-anchor="start" x="1250.5" y="-27.8" font-family="Times New Roman,serif" font-weight="bold" font-size="14.00">English</text>
<text text-anchor="start" x="1253.5" y="-13.8" font-family="Times New Roman,serif" font-size="14.00" fill="red">sincere</text>
</g>
<!-- sincerusL&#45;&gt;sincere -->
<g id="edge49" class="edge">
<title>sincerusL&#45;&gt;sincere</title>
<path fill="none" stroke="black" stroke-dasharray="5,2" d="M1273.5,-269.84C1273.5,-223.76 1273.5,-120.38 1273.5,-66.36"/>
<polygon fill="black" stroke="black" points="1277,-66.24 1273.5,-56.24 1270,-66.24 1277,-66.24"/>
</g>
<!-- heterosGk -->
<g id="node51" class="node">
<title>heterosGk</title>
<text text-anchor="start" x="382.5" y="-132.8" font-family="Times New Roman,serif" font-weight="bold" font-size="14.00">Greek</text>
<text text-anchor="start" x="358.5" y="-118.8" font-family="Times New Roman,serif" font-size="14.00" fill="red">heteros, hetero&#45;</text>
<text text-anchor="start" x="363" y="-106.4" font-family="Times New Roman,serif" font-size="12.00">one of two, other</text>
</g>
<!-- smtero&#45;&gt;heterosGk -->
<g id="edge51" class="edge">
<title>smtero&#45;&gt;heterosGk</title>
<path fill="none" stroke="black" d="M446.02,-529.54C430.78,-499.77 402.5,-436.88 402.5,-380 402.5,-380 402.5,-380 402.5,-293 402.5,-246.01 402.5,-191.66 402.5,-157.56"/>
<polygon fill="black" stroke="black" points="406,-157.24 402.5,-147.24 399,-157.24 406,-157.24"/>
</g>
<!-- hetero -->
<g id="node52" class="node">
<title>hetero</title>
<text text-anchor="start" x="375" y="-41.8" font-family="Times New Roman,serif" font-weight="bold" font-size="14.00">Modern</text>
<text text-anchor="start" x="376.5" y="-27.8" font-family="Times New Roman,serif" font-weight="bold" font-size="14.00">English</text>
<text text-anchor="start" x="379.5" y="-13.8" font-family="Times New Roman,serif" font-size="14.00" fill="red">hetero&#45;</text>
</g>
<!-- heterosGk&#45;&gt;hetero -->
<g id="edge52" class="edge">
<title>heterosGk&#45;&gt;hetero</title>
<path fill="none" stroke="black" stroke-dasharray="5,2" d="M401.73,-98.82C401.4,-88.88 401,-77.05 400.64,-66.14"/>
<polygon fill="black" stroke="black" points="404.13,-65.92 400.3,-56.04 397.14,-66.15 404.13,-65.92"/>
</g>
<!-- hamaGk -->
<g id="node54" class="node">
<title>hamaGk</title>
<text text-anchor="start" x="777.5" y="-473.8" font-family="Times New Roman,serif" font-weight="bold" font-size="14.00">Greek</text>
<text text-anchor="start" x="782.5" y="-459.8" font-family="Times New Roman,serif" font-size="14.00" fill="red">hama</text>
<text text-anchor="start" x="768" y="-447.4" font-family="Times New Roman,serif" font-size="12.00">together with</text>
</g>
<!-- smma&#45;&gt;hamaGk -->
<g id="edge54" class="edge">
<title>smma&#45;&gt;hamaGk</title>
<path fill="none" stroke="black" d="M756.53,-529.61C762.55,-520.11 770.2,-508.05 777.25,-496.93"/>
<polygon fill="black" stroke="black" points="780.34,-498.6 782.74,-488.28 774.43,-494.85 780.34,-498.6"/>
</g>
<!-- hamadruasGk -->
<g id="node58" class="node">
<title>hamadruasGk</title>
<text text-anchor="start" x="853.5" y="-375.3" font-family="Times New Roman,serif" font-size="14.00" fill="red">Hamadruas</text>
</g>
<!-- hamaGk&#45;&gt;hamadruasGk -->
<g id="edge57" class="edge">
<title>hamaGk&#45;&gt;hamadruasGk</title>
<path fill="none" stroke="black" d="M822.01,-439.88C833.78,-428.78 847.87,-415.49 859.79,-404.25"/>
<polygon fill="black" stroke="black" points="862.38,-406.61 867.26,-397.21 857.58,-401.52 862.38,-406.61"/>
</g>
<!-- deruIE -->
<g id="node55" class="node">
<title>deruIE</title>
<g id="a_node55"><a xlink:href="deru-firm.svg" xlink:title="&lt;b&gt;Indo&#45;&lt;br/&gt;European&lt;/b&gt;&lt;br/&gt;&lt;font color=&quot;red&quot;&gt;*deru&#45;&lt;/font&gt;&lt;br/&gt;&lt;font point&#45;size=&quot;12&quot;&gt;to be firm, solid, wood&lt;/font&gt;">
<path fill="none" stroke="black" stroke-dasharray="5,2" d="M944,-670C944,-670 849,-670 849,-670 843,-670 837,-664 837,-658 837,-658 837,-620 837,-620 837,-614 843,-608 849,-608 849,-608 944,-608 944,-608 950,-608 956,-614 956,-620 956,-620 956,-658 956,-658 956,-664 950,-670 944,-670"/>
<text text-anchor="start" x="880" y="-655.8" font-family="Times New Roman,serif" font-weight="bold" font-size="14.00">Indo&#45;</text>
<text text-anchor="start" x="866" y="-641.8" font-family="Times New Roman,serif" font-weight="bold" font-size="14.00">European</text>
<text text-anchor="start" x="878" y="-627.8" font-family="Times New Roman,serif" font-size="14.00" fill="red">*deru&#45;</text>
<text text-anchor="start" x="845" y="-615.4" font-family="Times New Roman,serif" font-size="12.00">to be firm, solid, wood</text>
</a>
</g>
</g>
<!-- drusGk -->
<g id="node56" class="node">
<title>drusGk</title>
<text text-anchor="start" x="876.5" y="-557.8" font-family="Times New Roman,serif" font-weight="bold" font-size="14.00">Greek</text>
<text text-anchor="start" x="884" y="-543.8" font-family="Times New Roman,serif" font-size="14.00" fill="red">drūs</text>
<text text-anchor="start" x="887.5" y="-531.4" font-family="Times New Roman,serif" font-size="12.00">oak</text>
</g>
<!-- deruIE&#45;&gt;drusGk -->
<g id="edge55" class="edge">
<title>deruIE&#45;&gt;drusGk</title>
<path fill="none" stroke="black" d="M896.5,-607.87C896.5,-599.64 896.5,-590.68 896.5,-582.29"/>
<polygon fill="black" stroke="black" points="900,-582.06 896.5,-572.06 893,-582.06 900,-582.06"/>
</g>
<!-- druasGk -->
<g id="node57" class="node">
<title>druasGk</title>
<text text-anchor="start" x="874.5" y="-466.8" font-family="Times New Roman,serif" font-size="14.00" fill="red">Druas</text>
<text text-anchor="start" x="878" y="-454.4" font-family="Times New Roman,serif" font-size="12.00">dryad</text>
</g>
<!-- drusGk&#45;&gt;druasGk -->
<g id="edge56" class="edge">
<title>drusGk&#45;&gt;druasGk</title>
<path fill="none" stroke="black" d="M895.08,-523.72C894.48,-513.88 893.78,-502.36 893.15,-492.13"/>
<polygon fill="black" stroke="black" points="896.64,-491.85 892.54,-482.08 889.66,-492.27 896.64,-491.85"/>
</g>
<!-- druasGk&#45;&gt;hamadruasGk -->
<g id="edge58" class="edge">
<title>druasGk&#45;&gt;hamadruasGk</title>
<path fill="none" stroke="black" d="M890.26,-445.8C889.45,-434.67 888.39,-419.94 887.47,-407.24"/>
<polygon fill="black" stroke="black" points="890.95,-406.9 886.74,-397.18 883.97,-407.4 890.95,-406.9"/>
</g>
<!-- hamadryasL -->
<g id="node59" class="node">
<title>hamadryasL</title>
<text text-anchor="start" x="852" y="-126.8" font-family="Times New Roman,serif" font-size="14.00" fill="red">Hamadryas,</text>
<text text-anchor="start" x="850.5" y="-111.8" font-family="Times New Roman,serif" font-size="14.00" fill="red">Hamadryad&#45;</text>
</g>
<!-- hamadruasGk&#45;&gt;hamadryasL -->
<g id="edge59" class="edge">
<title>hamadruasGk&#45;&gt;hamadryasL</title>
<path fill="none" stroke="black" d="M885.5,-360.94C885.5,-318.07 885.5,-205.46 885.5,-152.41"/>
<polygon fill="black" stroke="black" points="889,-152.34 885.5,-142.34 882,-152.34 889,-152.34"/>
</g>
<!-- hamadryad -->
<g id="node60" class="node">
<title>hamadryad</title>
<text text-anchor="start" x="946" y="-47.8" font-family="Times New Roman,serif" font-weight="bold" font-size="14.00">Modern</text>
<text text-anchor="start" x="947.5" y="-33.8" font-family="Times New Roman,serif" font-weight="bold" font-size="14.00">English</text>
<text text-anchor="start" x="939.5" y="-19.8" font-family="Times New Roman,serif" font-size="14.00" fill="red">hamadryad</text>
<text text-anchor="start" x="918" y="-7.4" font-family="Times New Roman,serif" font-size="12.00">tree nymph, king cobra</text>
</g>
<!-- hamadryasL&#45;&gt;hamadryad -->
<g id="edge60" class="edge">
<title>hamadryasL&#45;&gt;hamadryad</title>
<path fill="none" stroke="black" d="M902.7,-103.79C911.93,-94.01 923.67,-81.59 934.77,-69.83"/>
<polygon fill="black" stroke="black" points="937.62,-71.91 941.94,-62.23 932.53,-67.1 937.62,-71.91"/>
</g>
<!-- hamadryas -->
<g id="node61" class="node">
<title>hamadryas</title>
<text text-anchor="start" x="829" y="-47.8" font-family="Times New Roman,serif" font-weight="bold" font-size="14.00">Modern</text>
<text text-anchor="start" x="830.5" y="-33.8" font-family="Times New Roman,serif" font-weight="bold" font-size="14.00">English</text>
<text text-anchor="start" x="823" y="-19.8" font-family="Times New Roman,serif" font-size="14.00" fill="red">hamadryas</text>
<text text-anchor="start" x="836" y="-7.4" font-family="Times New Roman,serif" font-size="12.00">baboon</text>
</g>
<!-- hamadryasL&#45;&gt;hamadryas -->
<g id="edge61" class="edge">
<title>hamadryasL&#45;&gt;hamadryas</title>
<path fill="none" stroke="black" d="M879.02,-103.79C875.75,-94.57 871.63,-83 867.67,-71.85"/>
<polygon fill="black" stroke="black" points="870.9,-70.48 864.25,-62.23 864.3,-72.83 870.9,-70.48"/>
</g>
</g>
</svg>
