<?xml version="1.0" encoding="UTF-8" standalone="no"?>
<!DOCTYPE svg PUBLIC "-//W3C//DTD SVG 1.1//EN"
 "http://www.w3.org/Graphics/SVG/1.1/DTD/svg11.dtd">
<!-- Generated by graphviz version 2.49.0 (20210828.1703)
 -->
<!-- Pages: 1 -->
<svg width="242pt" height="220pt"
 viewBox="0.00 0.00 242.00 220.00" xmlns="http://www.w3.org/2000/svg" xmlns:xlink="http://www.w3.org/1999/xlink">
<g id="graph0" class="graph" transform="scale(1 1) rotate(0) translate(4 216)">
<polygon fill="white" stroke="transparent" points="-4,4 -4,-216 238,-216 238,4 -4,4"/>
<!-- sem -->
<g id="node1" class="node">
<title>sem</title>
<g id="a_node1"><a xlink:title="Indo&#45;European &quot;*sem&#45;&quot; one, as one">
<polygon fill="none" stroke="black" points="230,-208 19,-208 19,-104 230,-104 230,-208"/>
<polygon fill="none" stroke="black" points="234,-212 15,-212 15,-100 234,-100 234,-212"/>
<text text-anchor="start" x="46.5" y="-163.8" font-family="Times New Roman,serif" font-weight="bold" font-size="24.00">Indo&#45;European</text>
<text text-anchor="start" x="55" y="-135.6" font-family="Times New Roman,serif" font-size="18.00" fill="red">*sem&#45;</text>
<text text-anchor="start" x="124.5" y="-136.2" font-family="Times New Roman,serif" font-size="16.00">one, as one</text>
</a>
</g>
</g>
<!-- base -->
<g id="node2" class="node">
<title>base</title>
<g id="a_node2"><a xlink:href="sem-one1.svg" xlink:title="base form">
<path fill="none" stroke="black" stroke-dasharray="5,2" d="M61,-50C61,-50 12,-50 12,-50 6,-50 0,-44 0,-38 0,-38 0,-26 0,-26 0,-20 6,-14 12,-14 12,-14 61,-14 61,-14 67,-14 73,-20 73,-26 73,-26 73,-38 73,-38 73,-44 67,-50 61,-50"/>
<text text-anchor="start" x="8" y="-28.3" font-family="Times New Roman,serif" font-size="14.00">base form</text>
</a>
</g>
</g>
<!-- sem&#45;&gt;base -->
<g id="edge1" class="edge">
<title>sem&#45;&gt;base</title>
<path fill="none" stroke="black" d="M84.62,-99.71C74.23,-85.3 63.53,-70.47 54.86,-58.45"/>
<polygon fill="black" stroke="black" points="57.63,-56.32 48.94,-50.25 51.96,-60.41 57.63,-56.32"/>
</g>
<!-- som -->
<g id="node3" class="node">
<title>som</title>
<g id="a_node3"><a xlink:href="sem-one2.svg" xlink:title="*som&#45;, *sōm&#45;">
<path fill="none" stroke="black" stroke-dasharray="5,2" d="M145.5,-64C145.5,-64 103.5,-64 103.5,-64 97.5,-64 91.5,-58 91.5,-52 91.5,-52 91.5,-12 91.5,-12 91.5,-6 97.5,0 103.5,0 103.5,0 145.5,0 145.5,0 151.5,0 157.5,-6 157.5,-12 157.5,-12 157.5,-52 157.5,-52 157.5,-58 151.5,-64 145.5,-64"/>
<text text-anchor="start" x="106.5" y="-41.8" font-family="Times New Roman,serif" font-size="14.00" fill="red">*som&#45;</text>
<text text-anchor="start" x="106.5" y="-14.8" font-family="Times New Roman,serif" font-size="14.00" fill="red">*sōm&#45;</text>
</a>
</g>
</g>
<!-- sem&#45;&gt;som -->
<g id="edge2" class="edge">
<title>sem&#45;&gt;som</title>
<path fill="none" stroke="black" d="M124.5,-99.71C124.5,-91.11 124.5,-82.36 124.5,-74.15"/>
<polygon fill="black" stroke="black" points="128,-74.08 124.5,-64.08 121,-74.08 128,-74.08"/>
</g>
<!-- sm -->
<g id="node4" class="node">
<title>sm</title>
<g id="a_node4"><a xlink:href="sem-one3.svg" xlink:title="*sm̥&#45;">
<path fill="none" stroke="black" stroke-dasharray="5,2" d="M217.5,-50C217.5,-50 187.5,-50 187.5,-50 181.5,-50 175.5,-44 175.5,-38 175.5,-38 175.5,-26 175.5,-26 175.5,-20 181.5,-14 187.5,-14 187.5,-14 217.5,-14 217.5,-14 223.5,-14 229.5,-20 229.5,-26 229.5,-26 229.5,-38 229.5,-38 229.5,-44 223.5,-50 217.5,-50"/>
<text text-anchor="start" x="188.5" y="-28.3" font-family="Times New Roman,serif" font-size="14.00" fill="red">*sm̥&#45;</text>
</a>
</g>
</g>
<!-- sem&#45;&gt;sm -->
<g id="edge3" class="edge">
<title>sem&#45;&gt;sm</title>
<path fill="none" stroke="black" d="M159.85,-99.71C168.97,-85.44 178.36,-70.75 186,-58.8"/>
<polygon fill="black" stroke="black" points="189.03,-60.56 191.47,-50.25 183.13,-56.79 189.03,-60.56"/>
</g>
</g>
</svg>
