<?xml version="1.0" encoding="UTF-8" standalone="no"?>
<!DOCTYPE svg PUBLIC "-//W3C//DTD SVG 1.1//EN"
 "http://www.w3.org/Graphics/SVG/1.1/DTD/svg11.dtd">
<!-- Generated by graphviz version 2.49.0 (20210828.1703)
 -->
<!-- Pages: 1 -->
<svg width="880pt" height="656pt"
 viewBox="0.00 0.00 880.00 656.00" xmlns="http://www.w3.org/2000/svg" xmlns:xlink="http://www.w3.org/1999/xlink">
<g id="graph0" class="graph" transform="scale(1 1) rotate(0) translate(4 652)">
<polygon fill="white" stroke="transparent" points="-4,4 -4,-652 876,-652 876,4 -4,4"/>
<!-- septm -->
<g id="node1" class="node">
<title>septm</title>
<g id="a_node1"><a xlink:title="Indo&#45;European &quot;*septm̥&quot; seven">
<polygon fill="none" stroke="black" points="533.5,-644 337.5,-644 337.5,-540 533.5,-540 533.5,-644"/>
<polygon fill="none" stroke="black" points="537.5,-648 333.5,-648 333.5,-536 537.5,-536 537.5,-648"/>
<text text-anchor="start" x="364.5" y="-598.8" font-family="Times New Roman,serif" font-size="24.00">Indo&#45;European</text>
<text text-anchor="start" x="376" y="-571.6" font-family="Times New Roman,serif" font-size="18.00" fill="red">*septm̥</text>
<text text-anchor="start" x="459.5" y="-572.2" font-family="Times New Roman,serif" font-size="16.00">seven</text>
</a>
</g>
</g>
<!-- sebunGm -->
<g id="node7" class="node">
<title>sebunGm</title>
<text text-anchor="start" x="196" y="-394.8" font-family="Times New Roman,serif" font-weight="bold" font-size="14.00">Germanic</text>
<text text-anchor="start" x="206.5" y="-380.8" font-family="Times New Roman,serif" font-size="14.00" fill="red">*sebun</text>
</g>
<!-- septm&#45;&gt;sebunGm -->
<g id="edge5" class="edge">
<title>septm&#45;&gt;sebunGm</title>
<path fill="none" stroke="black" d="M436.5,-535C436.5,-535 395.83,-489.79 355.5,-464 322.31,-442.78 308.47,-447.95 274.5,-428 268.08,-424.23 261.5,-419.76 255.35,-415.27"/>
<polygon fill="black" stroke="black" points="257.39,-412.42 247.29,-409.2 253.18,-418.01 257.39,-412.42"/>
</g>
<!-- septemL -->
<g id="node17" class="node">
<title>septemL</title>
<text text-anchor="start" x="419" y="-394.8" font-family="Times New Roman,serif" font-weight="bold" font-size="14.00">Latin</text>
<text text-anchor="start" x="415.5" y="-380.8" font-family="Times New Roman,serif" font-size="14.00" fill="red">septem</text>
</g>
<!-- septm&#45;&gt;septemL -->
<g id="edge16" class="edge">
<title>septm&#45;&gt;septemL</title>
<path fill="none" stroke="black" d="M436.5,-535C436.5,-535 435.98,-460.77 435.69,-419.27"/>
<polygon fill="black" stroke="black" points="439.19,-419.22 435.62,-409.25 432.19,-419.27 439.19,-419.22"/>
</g>
<!-- heptaG -->
<g id="node27" class="node">
<title>heptaG</title>
<text text-anchor="start" x="659.5" y="-394.8" font-family="Times New Roman,serif" font-weight="bold" font-size="14.00">Greek</text>
<text text-anchor="start" x="643" y="-380.8" font-family="Times New Roman,serif" font-size="14.00" fill="red">hepta, hepta&#45;</text>
</g>
<!-- septm&#45;&gt;heptaG -->
<g id="edge27" class="edge">
<title>septm&#45;&gt;heptaG</title>
<path fill="none" stroke="black" d="M436.5,-535C436.5,-535 573.02,-454.66 641.41,-414.42"/>
<polygon fill="black" stroke="black" points="643.35,-417.34 650.19,-409.25 639.79,-411.3 643.35,-417.34"/>
</g>
<!-- dekmIE -->
<g id="node2" class="node">
<title>dekmIE</title>
<g id="a_node2"><a xlink:href="dekm-ten0.svg" xlink:title="&lt;b&gt;Indo&#45;&lt;br/&gt;European&lt;/b&gt;&lt;br/&gt;&lt;font color=&quot;red&quot;&gt;*dekm̥&lt;/font&gt;&lt;br/&gt;&lt;font point&#45;size=&quot;12&quot;&gt;ten&lt;/font&gt;">
<path fill="none" stroke="black" stroke-dasharray="5,2" d="M251,-623C251,-623 198,-623 198,-623 192,-623 186,-617 186,-611 186,-611 186,-573 186,-573 186,-567 192,-561 198,-561 198,-561 251,-561 251,-561 257,-561 263,-567 263,-573 263,-573 263,-611 263,-611 263,-617 257,-623 251,-623"/>
<text text-anchor="start" x="208" y="-608.8" font-family="Times New Roman,serif" font-weight="bold" font-size="14.00">Indo&#45;</text>
<text text-anchor="start" x="194" y="-594.8" font-family="Times New Roman,serif" font-weight="bold" font-size="14.00">European</text>
<text text-anchor="start" x="205.5" y="-580.8" font-family="Times New Roman,serif" font-size="14.00" fill="red">*dekm̥</text>
<text text-anchor="start" x="217.5" y="-568.4" font-family="Times New Roman,serif" font-size="12.00">ten</text>
</a>
</g>
</g>
<!-- tehunGm -->
<g id="node3" class="node">
<title>tehunGm</title>
<text text-anchor="start" x="101" y="-394.8" font-family="Times New Roman,serif" font-weight="bold" font-size="14.00">Germanic</text>
<text text-anchor="start" x="113" y="-380.8" font-family="Times New Roman,serif" font-size="14.00" fill="red">*tehun</text>
</g>
<!-- dekmIE&#45;&gt;tehunGm -->
<g id="edge1" class="edge">
<title>dekmIE&#45;&gt;tehunGm</title>
<path fill="none" stroke="black" d="M225.5,-560C225.5,-560 172.26,-464.85 145.92,-417.77"/>
<polygon fill="black" stroke="black" points="148.97,-416.05 141.03,-409.03 142.86,-419.47 148.97,-416.05"/>
</g>
<!-- kontaIE -->
<g id="node5" class="node">
<title>kontaIE</title>
<text text-anchor="start" x="230.5" y="-478.3" font-family="Times New Roman,serif" font-size="14.00" fill="red">*&#45;dkōm&#45;tā̆, *&#45;kontā̆</text>
</g>
<!-- dekmIE&#45;&gt;kontaIE -->
<g id="edge3" class="edge">
<title>dekmIE&#45;&gt;kontaIE</title>
<path fill="none" stroke="black" d="M225.5,-560C225.5,-560 247.93,-530.73 265.13,-508.28"/>
<polygon fill="black" stroke="black" points="268.1,-510.16 271.41,-500.09 262.55,-505.9 268.1,-510.16"/>
</g>
<!-- tyneOE -->
<g id="node4" class="node">
<title>tyneOE</title>
<text text-anchor="start" x="26" y="-291.8" font-family="Times New Roman,serif" font-weight="bold" font-size="14.00">Old English</text>
<text text-anchor="start" x="14.5" y="-277.8" font-family="Times New Roman,serif" font-size="14.00" fill="red">&#45;tēne, &#45;tīne, &#45;tȳne</text>
</g>
<!-- tehunGm&#45;&gt;tyneOE -->
<g id="edge2" class="edge">
<title>tehunGm&#45;&gt;tyneOE</title>
<path fill="none" stroke="black" d="M119.8,-372.87C108.89,-356.91 92.49,-332.9 80.02,-314.65"/>
<polygon fill="black" stroke="black" points="82.79,-312.5 74.26,-306.22 77.01,-316.45 82.79,-312.5"/>
</g>
<!-- tehunGm&#45;&gt;sebunGm -->
<!-- seofontineOE -->
<g id="node14" class="node">
<title>seofontineOE</title>
<text text-anchor="start" x="25.5" y="-206.8" font-family="Times New Roman,serif" font-size="14.00" fill="red">seofontīne</text>
<text text-anchor="start" x="33" y="-194.4" font-family="Times New Roman,serif" font-size="12.00">seventeen</text>
</g>
<!-- tyneOE&#45;&gt;seofontineOE -->
<g id="edge15" class="edge">
<title>tyneOE&#45;&gt;seofontineOE</title>
<path fill="none" stroke="black" d="M61.02,-269.61C60.09,-258.77 58.88,-244.6 57.83,-232.29"/>
<polygon fill="black" stroke="black" points="61.3,-231.75 56.96,-222.08 54.32,-232.35 61.3,-231.75"/>
</g>
<!-- gintaL -->
<g id="node6" class="node">
<title>gintaL</title>
<text text-anchor="start" x="295" y="-400.8" font-family="Times New Roman,serif" font-weight="bold" font-size="14.00">Latin</text>
<text text-anchor="start" x="296" y="-386.8" font-family="Times New Roman,serif" font-size="14.00" fill="red">&#45;gintā</text>
<text text-anchor="start" x="291.5" y="-374.4" font-family="Times New Roman,serif" font-size="12.00">ten times</text>
</g>
<!-- kontaIE&#45;&gt;gintaL -->
<g id="edge4" class="edge">
<title>kontaIE&#45;&gt;gintaL</title>
<path fill="none" stroke="black" d="M289.71,-463.84C293.05,-452.81 297.51,-438.12 301.52,-424.9"/>
<polygon fill="black" stroke="black" points="304.92,-425.75 304.47,-415.17 298.22,-423.72 304.92,-425.75"/>
</g>
<!-- gintaL&#45;&gt;septemL -->
<!-- septuagintaL -->
<g id="node22" class="node">
<title>septuagintaL</title>
<text text-anchor="start" x="280" y="-290.8" font-family="Times New Roman,serif" font-size="14.00" fill="red">septuāgintā</text>
<text text-anchor="start" x="294.5" y="-278.4" font-family="Times New Roman,serif" font-size="12.00">seventy</text>
</g>
<!-- gintaL&#45;&gt;septuagintaL -->
<g id="edge24" class="edge">
<title>gintaL&#45;&gt;septuagintaL</title>
<path fill="none" stroke="black" d="M314.01,-366.88C315.78,-350.57 318.06,-329.52 319.39,-317.21"/>
<polygon fill="black" stroke="black" points="322.9,-317.32 320.5,-307 315.94,-316.56 322.9,-317.32"/>
</g>
<!-- sebunGm&#45;&gt;gintaL -->
<!-- seofonOE -->
<g id="node8" class="node">
<title>seofonOE</title>
<text text-anchor="start" x="152" y="-291.8" font-family="Times New Roman,serif" font-weight="bold" font-size="14.00">Old English</text>
<text text-anchor="start" x="169" y="-277.8" font-family="Times New Roman,serif" font-size="14.00" fill="red">seofon</text>
</g>
<!-- sebunGm&#45;&gt;seofonOE -->
<g id="edge6" class="edge">
<title>sebunGm&#45;&gt;seofonOE</title>
<path fill="none" stroke="black" d="M220.05,-372.87C214.16,-357.2 205.34,-333.77 198.53,-315.65"/>
<polygon fill="black" stroke="black" points="201.78,-314.34 194.98,-306.22 195.22,-316.81 201.78,-314.34"/>
</g>
<!-- sevenME -->
<g id="node9" class="node">
<title>sevenME</title>
<text text-anchor="start" x="100" y="-135.8" font-family="Times New Roman,serif" font-weight="bold" font-size="14.00">Middle</text>
<text text-anchor="start" x="98.5" y="-121.8" font-family="Times New Roman,serif" font-weight="bold" font-size="14.00">English</text>
<text text-anchor="start" x="105.5" y="-107.8" font-family="Times New Roman,serif" font-size="14.00" fill="red">seven</text>
</g>
<!-- seofonOE&#45;&gt;sevenME -->
<g id="edge7" class="edge">
<title>seofonOE&#45;&gt;sevenME</title>
<path fill="none" stroke="black" d="M180.5,-269C180.5,-269 152.44,-246.7 140.5,-222 131.2,-202.77 126.46,-179.27 124.03,-160.34"/>
<polygon fill="black" stroke="black" points="127.5,-159.9 122.91,-150.35 120.55,-160.68 127.5,-159.9"/>
</g>
<!-- seofontigOE -->
<g id="node11" class="node">
<title>seofontigOE</title>
<text text-anchor="start" x="158" y="-206.8" font-family="Times New Roman,serif" font-size="14.00" fill="red">(hund)seofontig</text>
<text text-anchor="start" x="185.5" y="-194.4" font-family="Times New Roman,serif" font-size="12.00">seventy</text>
</g>
<!-- seofonOE&#45;&gt;seofontigOE -->
<g id="edge9" class="edge">
<title>seofonOE&#45;&gt;seofontigOE</title>
<path fill="none" stroke="black" d="M180.5,-269C180.5,-269 187.2,-249.51 193.2,-232.04"/>
<polygon fill="black" stroke="black" points="196.66,-232.75 196.6,-222.15 190.04,-230.47 196.66,-232.75"/>
</g>
<!-- seofonOE&#45;&gt;seofontineOE -->
<g id="edge12" class="edge">
<title>seofonOE&#45;&gt;seofontineOE</title>
<path fill="none" stroke="black" d="M180.5,-269C180.5,-269 134.2,-245.3 97.96,-226.74"/>
<polygon fill="black" stroke="black" points="99.49,-223.59 89,-222.15 96.3,-229.82 99.49,-223.59"/>
</g>
<!-- seven -->
<g id="node10" class="node">
<title>seven</title>
<text text-anchor="start" x="97" y="-42.8" font-family="Times New Roman,serif" font-weight="bold" font-size="14.00">Modern</text>
<text text-anchor="start" x="98.5" y="-28.8" font-family="Times New Roman,serif" font-weight="bold" font-size="14.00">English</text>
<text text-anchor="start" x="105.5" y="-14.8" font-family="Times New Roman,serif" font-size="14.00" fill="red">seven</text>
</g>
<!-- sevenME&#45;&gt;seven -->
<g id="edge8" class="edge">
<title>sevenME&#45;&gt;seven</title>
<path fill="none" stroke="black" d="M121.5,-99.61C121.5,-89.74 121.5,-78.17 121.5,-67.46"/>
<polygon fill="black" stroke="black" points="125,-67.14 121.5,-57.14 118,-67.14 125,-67.14"/>
</g>
<!-- seventyME -->
<g id="node12" class="node">
<title>seventyME</title>
<text text-anchor="start" x="182" y="-135.8" font-family="Times New Roman,serif" font-weight="bold" font-size="14.00">Middle</text>
<text text-anchor="start" x="180.5" y="-121.8" font-family="Times New Roman,serif" font-weight="bold" font-size="14.00">English</text>
<text text-anchor="start" x="182" y="-107.8" font-family="Times New Roman,serif" font-size="14.00" fill="red">seventy</text>
</g>
<!-- seofontigOE&#45;&gt;seventyME -->
<g id="edge10" class="edge">
<title>seofontigOE&#45;&gt;seventyME</title>
<path fill="none" stroke="black" d="M202.72,-185.91C202.82,-178.33 202.94,-169.13 203.06,-160.23"/>
<polygon fill="black" stroke="black" points="206.56,-160.09 203.19,-150.05 199.56,-160 206.56,-160.09"/>
</g>
<!-- seventy -->
<g id="node13" class="node">
<title>seventy</title>
<text text-anchor="start" x="180" y="-42.8" font-family="Times New Roman,serif" font-weight="bold" font-size="14.00">Modern</text>
<text text-anchor="start" x="181.5" y="-28.8" font-family="Times New Roman,serif" font-weight="bold" font-size="14.00">English</text>
<text text-anchor="start" x="183" y="-14.8" font-family="Times New Roman,serif" font-size="14.00" fill="red">seventy</text>
</g>
<!-- seventyME&#45;&gt;seventy -->
<g id="edge11" class="edge">
<title>seventyME&#45;&gt;seventy</title>
<path fill="none" stroke="black" d="M203.77,-99.61C203.88,-89.74 204,-78.17 204.12,-67.46"/>
<polygon fill="black" stroke="black" points="207.62,-67.18 204.23,-57.14 200.62,-67.1 207.62,-67.18"/>
</g>
<!-- seventeneME -->
<g id="node15" class="node">
<title>seventeneME</title>
<text text-anchor="start" x="14" y="-135.8" font-family="Times New Roman,serif" font-weight="bold" font-size="14.00">Middle</text>
<text text-anchor="start" x="12.5" y="-121.8" font-family="Times New Roman,serif" font-weight="bold" font-size="14.00">English</text>
<text text-anchor="start" x="8" y="-107.8" font-family="Times New Roman,serif" font-size="14.00" fill="red">seventene</text>
</g>
<!-- seofontineOE&#45;&gt;seventeneME -->
<g id="edge13" class="edge">
<title>seofontineOE&#45;&gt;seventeneME</title>
<path fill="none" stroke="black" d="M51.06,-185.91C49.07,-178.25 46.65,-168.93 44.32,-159.94"/>
<polygon fill="black" stroke="black" points="47.65,-158.85 41.75,-150.05 40.87,-160.61 47.65,-158.85"/>
</g>
<!-- seventeen -->
<g id="node16" class="node">
<title>seventeen</title>
<text text-anchor="start" x="11" y="-42.8" font-family="Times New Roman,serif" font-weight="bold" font-size="14.00">Modern</text>
<text text-anchor="start" x="12.5" y="-28.8" font-family="Times New Roman,serif" font-weight="bold" font-size="14.00">English</text>
<text text-anchor="start" x="8" y="-14.8" font-family="Times New Roman,serif" font-size="14.00" fill="red">seventeen</text>
</g>
<!-- seventeneME&#45;&gt;seventeen -->
<g id="edge14" class="edge">
<title>seventeneME&#45;&gt;seventeen</title>
<path fill="none" stroke="black" d="M35.5,-99.61C35.5,-89.74 35.5,-78.17 35.5,-67.46"/>
<polygon fill="black" stroke="black" points="39,-67.14 35.5,-57.14 32,-67.14 39,-67.14"/>
</g>
<!-- septemberL -->
<g id="node18" class="node">
<title>septemberL</title>
<text text-anchor="start" x="379" y="-290.8" font-family="Times New Roman,serif" font-size="14.00" fill="red">September</text>
<text text-anchor="start" x="377" y="-278.4" font-family="Times New Roman,serif" font-size="12.00">seventh month</text>
</g>
<!-- septemL&#45;&gt;septemberL -->
<g id="edge17" class="edge">
<title>septemL&#45;&gt;septemberL</title>
<path fill="none" stroke="black" d="M435.5,-372C435.5,-372 425.55,-340.23 417.96,-316.01"/>
<polygon fill="black" stroke="black" points="421.22,-314.69 414.89,-306.2 414.54,-316.79 421.22,-314.69"/>
</g>
<!-- septemL&#45;&gt;septuagintaL -->
<g id="edge21" class="edge">
<title>septemL&#45;&gt;septuagintaL</title>
<path fill="none" stroke="black" d="M435.5,-372C435.5,-372 356.63,-327.42 329.52,-312.1"/>
<polygon fill="black" stroke="black" points="330.93,-308.87 320.5,-307 327.48,-314.97 330.93,-308.87"/>
</g>
<!-- septuplusL -->
<g id="node25" class="node">
<title>septuplusL</title>
<text text-anchor="start" x="476.5" y="-290.8" font-family="Times New Roman,serif" font-size="14.00" fill="red">septuplus</text>
<text text-anchor="start" x="482" y="-278.4" font-family="Times New Roman,serif" font-size="12.00">sevenfold</text>
</g>
<!-- septemL&#45;&gt;septuplusL -->
<g id="edge25" class="edge">
<title>septemL&#45;&gt;septuplusL</title>
<path fill="none" stroke="black" d="M435.5,-372C435.5,-372 462.94,-338.51 482.96,-314.08"/>
<polygon fill="black" stroke="black" points="485.78,-316.15 489.41,-306.2 480.37,-311.71 485.78,-316.15"/>
</g>
<!-- zepE -->
<g id="node36" class="node">
<title>zepE</title>
<text text-anchor="start" x="561" y="-49.8" font-family="Times New Roman,serif" font-weight="bold" font-size="14.00">Modern</text>
<text text-anchor="start" x="562.5" y="-35.8" font-family="Times New Roman,serif" font-weight="bold" font-size="14.00">English</text>
<text text-anchor="start" x="570" y="-21.8" font-family="Times New Roman,serif" font-size="14.00" fill="red">zetta&#45;</text>
<text text-anchor="start" x="567.5" y="-7.8" font-family="Times New Roman,serif" font-size="14.00" fill="red">zepto&#45;</text>
</g>
<!-- septemL&#45;&gt;zepE -->
<g id="edge36" class="edge">
<title>septemL&#45;&gt;zepE</title>
<path fill="none" stroke="black" stroke-dasharray="5,2" d="M435.5,-372C435.5,-372 515.08,-362.75 547.5,-318 600.14,-245.36 597.6,-134.26 591.41,-74.49"/>
<polygon fill="black" stroke="black" points="594.86,-73.85 590.27,-64.3 587.9,-74.63 594.86,-73.85"/>
</g>
<!-- septembreOF -->
<g id="node19" class="node">
<title>septembreOF</title>
<text text-anchor="start" x="376.5" y="-207.8" font-family="Times New Roman,serif" font-weight="bold" font-size="14.00">Old French</text>
<text text-anchor="start" x="381" y="-193.8" font-family="Times New Roman,serif" font-size="14.00" fill="red">Septembre</text>
</g>
<!-- septemberL&#45;&gt;septembreOF -->
<g id="edge18" class="edge">
<title>septemberL&#45;&gt;septembreOF</title>
<path fill="none" stroke="black" d="M409.92,-269.61C410.19,-258.77 410.53,-244.6 410.83,-232.29"/>
<polygon fill="black" stroke="black" points="414.34,-232.17 411.08,-222.08 407.34,-232 414.34,-232.17"/>
</g>
<!-- septembreME -->
<g id="node20" class="node">
<title>septembreME</title>
<text text-anchor="start" x="390" y="-135.8" font-family="Times New Roman,serif" font-weight="bold" font-size="14.00">Middle</text>
<text text-anchor="start" x="388.5" y="-121.8" font-family="Times New Roman,serif" font-weight="bold" font-size="14.00">English</text>
<text text-anchor="start" x="381" y="-107.8" font-family="Times New Roman,serif" font-size="14.00" fill="red">Septembre</text>
</g>
<!-- septembreOF&#45;&gt;septembreME -->
<g id="edge19" class="edge">
<title>septembreOF&#45;&gt;septembreME</title>
<path fill="none" stroke="black" stroke-dasharray="5,2" d="M411.5,-185.91C411.5,-178.33 411.5,-169.13 411.5,-160.23"/>
<polygon fill="black" stroke="black" points="415,-160.05 411.5,-150.05 408,-160.05 415,-160.05"/>
</g>
<!-- september -->
<g id="node21" class="node">
<title>september</title>
<text text-anchor="start" x="387" y="-42.8" font-family="Times New Roman,serif" font-weight="bold" font-size="14.00">Modern</text>
<text text-anchor="start" x="388.5" y="-28.8" font-family="Times New Roman,serif" font-weight="bold" font-size="14.00">English</text>
<text text-anchor="start" x="381" y="-14.8" font-family="Times New Roman,serif" font-size="14.00" fill="red">September</text>
</g>
<!-- septembreME&#45;&gt;september -->
<g id="edge20" class="edge">
<title>septembreME&#45;&gt;september</title>
<path fill="none" stroke="black" d="M411.5,-99.61C411.5,-89.74 411.5,-78.17 411.5,-67.46"/>
<polygon fill="black" stroke="black" points="415,-67.14 411.5,-57.14 408,-67.14 415,-67.14"/>
</g>
<!-- septuageniL -->
<g id="node23" class="node">
<title>septuageniL</title>
<text text-anchor="start" x="281" y="-206.8" font-family="Times New Roman,serif" font-size="14.00" fill="red">septuāgenī</text>
<text text-anchor="start" x="282.5" y="-194.4" font-family="Times New Roman,serif" font-size="12.00">seventy each</text>
</g>
<!-- septuagintaL&#45;&gt;septuageniL -->
<g id="edge22" class="edge">
<title>septuagintaL&#45;&gt;septuageniL</title>
<path fill="none" stroke="black" d="M311.5,-269.61C311.5,-258.77 311.5,-244.6 311.5,-232.29"/>
<polygon fill="black" stroke="black" points="315,-232.08 311.5,-222.08 308,-232.08 315,-232.08"/>
</g>
<!-- septuagenarian -->
<g id="node24" class="node">
<title>septuagenarian</title>
<text text-anchor="start" x="281" y="-42.8" font-family="Times New Roman,serif" font-weight="bold" font-size="14.00">Modern</text>
<text text-anchor="start" x="282.5" y="-28.8" font-family="Times New Roman,serif" font-weight="bold" font-size="14.00">English</text>
<text text-anchor="start" x="264.5" y="-14.8" font-family="Times New Roman,serif" font-size="14.00" fill="red">septuagenarian</text>
</g>
<!-- septuageniL&#45;&gt;septuagenarian -->
<g id="edge23" class="edge">
<title>septuageniL&#45;&gt;septuagenarian</title>
<path fill="none" stroke="black" stroke-dasharray="5,2" d="M310.89,-185.76C309.91,-158.03 307.97,-102.98 306.7,-67.09"/>
<polygon fill="black" stroke="black" points="310.2,-66.94 306.35,-57.07 303.2,-67.19 310.2,-66.94"/>
</g>
<!-- septuple -->
<g id="node26" class="node">
<title>septuple</title>
<text text-anchor="start" x="477" y="-49.8" font-family="Times New Roman,serif" font-weight="bold" font-size="14.00">Modern</text>
<text text-anchor="start" x="478.5" y="-35.8" font-family="Times New Roman,serif" font-weight="bold" font-size="14.00">English</text>
<text text-anchor="start" x="478" y="-21.8" font-family="Times New Roman,serif" font-size="14.00" fill="red">septuple</text>
<text text-anchor="start" x="476" y="-7.8" font-family="Times New Roman,serif" font-size="14.00" fill="red">septuplet</text>
</g>
<!-- septuplusL&#45;&gt;septuple -->
<g id="edge26" class="edge">
<title>septuplusL&#45;&gt;septuple</title>
<path fill="none" stroke="black" stroke-dasharray="5,2" d="M503.37,-269.94C503.05,-230.25 502.27,-130.82 501.82,-74.18"/>
<polygon fill="black" stroke="black" points="505.32,-74.1 501.75,-64.12 498.32,-74.15 505.32,-74.1"/>
</g>
<!-- heptaE -->
<g id="node28" class="node">
<title>heptaE</title>
<text text-anchor="start" x="727" y="-42.8" font-family="Times New Roman,serif" font-weight="bold" font-size="14.00">Modern</text>
<text text-anchor="start" x="728.5" y="-28.8" font-family="Times New Roman,serif" font-weight="bold" font-size="14.00">English</text>
<text text-anchor="start" x="729.5" y="-14.8" font-family="Times New Roman,serif" font-size="14.00" fill="red">hept(a)&#45;</text>
</g>
<!-- heptaG&#45;&gt;heptaE -->
<g id="edge28" class="edge">
<title>heptaG&#45;&gt;heptaE</title>
<path fill="none" stroke="black" stroke-dasharray="5,2" d="M686.5,-372C686.5,-372 711.96,-344.96 721.5,-318 752.06,-231.59 754.17,-121.96 752.96,-67.28"/>
<polygon fill="black" stroke="black" points="756.45,-66.99 752.67,-57.09 749.45,-67.19 756.45,-66.99"/>
</g>
<!-- heptasG -->
<g id="node29" class="node">
<title>heptasG</title>
<text text-anchor="start" x="661" y="-303.8" font-family="Times New Roman,serif" font-size="14.00" fill="red">heptas</text>
<text text-anchor="start" x="658" y="-289.8" font-family="Times New Roman,serif" font-size="14.00" fill="red">heptad&#45;</text>
<text text-anchor="start" x="654" y="-277.4" font-family="Times New Roman,serif" font-size="12.00">the number</text>
<text text-anchor="start" x="666.5" y="-265.4" font-family="Times New Roman,serif" font-size="12.00">seven</text>
</g>
<!-- heptaG&#45;&gt;heptasG -->
<g id="edge29" class="edge">
<title>heptaG&#45;&gt;heptasG</title>
<path fill="none" stroke="black" d="M686.5,-372C686.5,-372 684.61,-349.62 682.8,-328.1"/>
<polygon fill="black" stroke="black" points="686.28,-327.7 681.95,-318.03 679.3,-328.29 686.28,-327.7"/>
</g>
<!-- heptagonosG -->
<g id="node31" class="node">
<title>heptagonosG</title>
<text text-anchor="start" x="792" y="-290.8" font-family="Times New Roman,serif" font-size="14.00" fill="red">heptagōnos</text>
<text text-anchor="start" x="797" y="-278.4" font-family="Times New Roman,serif" font-size="12.00">seven&#45;sided</text>
</g>
<!-- heptaG&#45;&gt;heptagonosG -->
<g id="edge31" class="edge">
<title>heptaG&#45;&gt;heptagonosG</title>
<path fill="none" stroke="black" d="M686.5,-372C686.5,-372 776.64,-326.58 806.22,-311.67"/>
<polygon fill="black" stroke="black" points="808.14,-314.63 815.5,-307 804.99,-308.37 808.14,-314.63"/>
</g>
<!-- heptad -->
<g id="node30" class="node">
<title>heptad</title>
<text text-anchor="start" x="644" y="-42.8" font-family="Times New Roman,serif" font-weight="bold" font-size="14.00">Modern</text>
<text text-anchor="start" x="645.5" y="-28.8" font-family="Times New Roman,serif" font-weight="bold" font-size="14.00">English</text>
<text text-anchor="start" x="649.5" y="-14.8" font-family="Times New Roman,serif" font-size="14.00" fill="red">heptad</text>
</g>
<!-- heptasG&#45;&gt;heptad -->
<g id="edge30" class="edge">
<title>heptasG&#45;&gt;heptad</title>
<path fill="none" stroke="black" stroke-dasharray="5,2" d="M678.24,-257.86C676.19,-210.66 672.17,-117.7 669.99,-67.35"/>
<polygon fill="black" stroke="black" points="673.48,-67.12 669.55,-57.28 666.49,-67.42 673.48,-67.12"/>
</g>
<!-- heptagonumL -->
<g id="node32" class="node">
<title>heptagonumL</title>
<text text-anchor="start" x="813" y="-128.8" font-family="Times New Roman,serif" font-weight="bold" font-size="14.00">Latin</text>
<text text-anchor="start" x="795" y="-114.8" font-family="Times New Roman,serif" font-size="14.00" fill="red">heptagōnum</text>
</g>
<!-- heptagonosG&#45;&gt;heptagonumL -->
<g id="edge32" class="edge">
<title>heptagonosG&#45;&gt;heptagonumL</title>
<path fill="none" stroke="black" stroke-dasharray="5,2" d="M825.04,-269.77C825.9,-241.93 827.61,-186.81 828.65,-153.5"/>
<polygon fill="black" stroke="black" points="832.16,-153.21 828.97,-143.11 825.16,-152.99 832.16,-153.21"/>
</g>
<!-- heptagon -->
<g id="node33" class="node">
<title>heptagon</title>
<text text-anchor="start" x="812" y="-42.8" font-family="Times New Roman,serif" font-weight="bold" font-size="14.00">Modern</text>
<text text-anchor="start" x="813.5" y="-28.8" font-family="Times New Roman,serif" font-weight="bold" font-size="14.00">English</text>
<text text-anchor="start" x="810.5" y="-14.8" font-family="Times New Roman,serif" font-size="14.00" fill="red">heptagon</text>
</g>
<!-- heptagonumL&#45;&gt;heptagon -->
<g id="edge33" class="edge">
<title>heptagonumL&#45;&gt;heptagon</title>
<path fill="none" stroke="black" stroke-dasharray="5,2" d="M830.82,-106.88C831.68,-95.72 832.83,-80.77 833.87,-67.24"/>
<polygon fill="black" stroke="black" points="837.36,-67.49 834.63,-57.25 830.38,-66.95 837.36,-67.49"/>
</g>
<!-- genuIE -->
<g id="node34" class="node">
<title>genuIE</title>
<g id="a_node34"><a xlink:href="genu-knee.svg" xlink:title="&lt;b&gt;Indo&#45;&lt;br/&gt;European&lt;/b&gt;&lt;br/&gt;&lt;font color=&quot;red&quot;&gt;*genu&#45;&lt;/font&gt;&lt;br/&gt;&lt;font point&#45;size=&quot;12&quot;&gt;knee&lt;/font&gt;">
<path fill="none" stroke="black" stroke-dasharray="5,2" d="M851,-623C851,-623 798,-623 798,-623 792,-623 786,-617 786,-611 786,-611 786,-573 786,-573 786,-567 792,-561 798,-561 798,-561 851,-561 851,-561 857,-561 863,-567 863,-573 863,-573 863,-611 863,-611 863,-617 857,-623 851,-623"/>
<text text-anchor="start" x="808" y="-608.8" font-family="Times New Roman,serif" font-weight="bold" font-size="14.00">Indo&#45;</text>
<text text-anchor="start" x="794" y="-594.8" font-family="Times New Roman,serif" font-weight="bold" font-size="14.00">European</text>
<text text-anchor="start" x="805.5" y="-580.8" font-family="Times New Roman,serif" font-size="14.00" fill="red">*genu&#45;</text>
<text text-anchor="start" x="813.5" y="-568.4" font-family="Times New Roman,serif" font-size="12.00">knee</text>
</a>
</g>
</g>
<!-- goniaG -->
<g id="node35" class="node">
<title>goniaG</title>
<text text-anchor="start" x="804.5" y="-413.8" font-family="Times New Roman,serif" font-weight="bold" font-size="14.00">Greek</text>
<text text-anchor="start" x="809" y="-399.8" font-family="Times New Roman,serif" font-size="14.00" fill="red">gōniā</text>
<text text-anchor="start" x="812.5" y="-387.4" font-family="Times New Roman,serif" font-size="12.00">angle</text>
<text text-anchor="start" x="807" y="-373.8" font-family="Times New Roman,serif" font-size="14.00" fill="red">gōnos</text>
<text text-anchor="start" x="809.5" y="-361.4" font-family="Times New Roman,serif" font-size="12.00">angled</text>
</g>
<!-- genuIE&#45;&gt;goniaG -->
<g id="edge34" class="edge">
<title>genuIE&#45;&gt;goniaG</title>
<path fill="none" stroke="black" d="M824.5,-560.78C824.5,-528.28 824.5,-476.2 824.5,-438.49"/>
<polygon fill="black" stroke="black" points="828,-438.26 824.5,-428.26 821,-438.26 828,-438.26"/>
</g>
<!-- goniaG&#45;&gt;heptagonosG -->
<g id="edge35" class="edge">
<title>goniaG&#45;&gt;heptagonosG</title>
<path fill="none" stroke="black" d="M820.58,-353.84C819.12,-340.38 817.58,-326.17 816.58,-316.97"/>
<polygon fill="black" stroke="black" points="820.06,-316.56 815.5,-307 813.1,-317.32 820.06,-316.56"/>
</g>
</g>
</svg>
