<?xml version="1.0" encoding="UTF-8" standalone="no"?>
<!DOCTYPE svg PUBLIC "-//W3C//DTD SVG 1.1//EN"
 "http://www.w3.org/Graphics/SVG/1.1/DTD/svg11.dtd">
<!-- Generated by graphviz version 2.44.1 (20200629.0846)
 -->
<!-- Pages: 1 -->
<svg width="1313pt" height="666pt"
 viewBox="0.00 0.00 1313.00 666.00" xmlns="http://www.w3.org/2000/svg" xmlns:xlink="http://www.w3.org/1999/xlink">
<g id="graph0" class="graph" transform="scale(1 1) rotate(0) translate(4 662)">
<polygon fill="white" stroke="transparent" points="-4,4 -4,-662 1309,-662 1309,4 -4,4"/>
<!-- sweks -->
<g id="node1" class="node">
<title>sweks</title>
<g id="a_node1"><a xlink:title="Indo&#45;European &quot;s(w)eks&quot; six">
<polygon fill="none" stroke="black" points="666.5,-654 470.5,-654 470.5,-550 666.5,-550 666.5,-654"/>
<polygon fill="none" stroke="black" points="670.5,-658 466.5,-658 466.5,-546 670.5,-546 670.5,-658"/>
<text text-anchor="start" x="497.5" y="-608.8" font-family="Times New Roman,serif" font-size="24.00">Indo&#45;European</text>
<text text-anchor="start" x="512" y="-581.6" font-family="Times New Roman,serif" font-size="18.00" fill="red">s(w)eks</text>
<text text-anchor="start" x="605.5" y="-582.2" font-family="Times New Roman,serif" font-size="16.00">six</text>
</a>
</g>
</g>
<!-- sexto -->
<g id="node2" class="node">
<title>sexto</title>
<text text-anchor="start" x="323.5" y="-488.3" font-family="Times New Roman,serif" font-size="14.00" fill="red">seks&#45;to&#45;</text>
</g>
<!-- sweks&#45;&gt;sexto -->
<g id="edge1" class="edge">
<title>sweks&#45;&gt;sexto</title>
<path fill="none" stroke="black" d="M579.5,-545C579.5,-545 454.67,-517.14 387.75,-502.21"/>
<polygon fill="black" stroke="black" points="388.45,-498.78 377.92,-500.01 386.92,-505.61 388.45,-498.78"/>
</g>
<!-- seksGm -->
<g id="node8" class="node">
<title>seksGm</title>
<text text-anchor="start" x="513" y="-398.8" font-family="Times New Roman,serif" font-weight="bold" font-size="14.00">Germanic</text>
<text text-anchor="start" x="531" y="-384.8" font-family="Times New Roman,serif" font-size="14.00" fill="red">seks</text>
</g>
<!-- sweks&#45;&gt;seksGm -->
<g id="edge6" class="edge">
<title>sweks&#45;&gt;seksGm</title>
<path fill="none" stroke="black" d="M579.5,-545C579.5,-545 560.37,-465.82 550,-422.9"/>
<polygon fill="black" stroke="black" points="553.38,-421.99 547.63,-413.09 546.58,-423.63 553.38,-421.99"/>
</g>
<!-- sexL -->
<g id="node18" class="node">
<title>sexL</title>
<text text-anchor="start" x="708" y="-398.8" font-family="Times New Roman,serif" font-weight="bold" font-size="14.00">Latin</text>
<text text-anchor="start" x="703" y="-384.8" font-family="Times New Roman,serif" font-size="14.00" fill="red">sex, sē&#45;</text>
</g>
<!-- sweks&#45;&gt;sexL -->
<g id="edge17" class="edge">
<title>sweks&#45;&gt;sexL</title>
<path fill="none" stroke="black" d="M579.5,-545C579.5,-545 639.16,-486.31 685.5,-438 690.8,-432.47 696.45,-426.47 701.74,-420.78"/>
<polygon fill="black" stroke="black" points="704.46,-423 708.69,-413.28 699.32,-418.24 704.46,-423"/>
</g>
<!-- hexG -->
<g id="node39" class="node">
<title>hexG</title>
<text text-anchor="start" x="1010.5" y="-405.8" font-family="Times New Roman,serif" font-weight="bold" font-size="14.00">Greek</text>
<text text-anchor="start" x="1020.5" y="-391.8" font-family="Times New Roman,serif" font-size="14.00" fill="red">hex</text>
<text text-anchor="start" x="1010.5" y="-377.8" font-family="Times New Roman,serif" font-size="14.00" fill="red">hex(a)&#45;</text>
</g>
<!-- sweks&#45;&gt;hexG -->
<g id="edge39" class="edge">
<title>sweks&#45;&gt;hexG</title>
<path fill="none" stroke="black" d="M579.5,-545C579.5,-545 663.16,-499.53 734.5,-474 824.94,-441.64 935.23,-416.09 992.25,-403.87"/>
<polygon fill="black" stroke="black" points="993.21,-407.24 1002.26,-401.74 991.75,-400.4 993.21,-407.24"/>
</g>
<!-- sextusL -->
<g id="node26" class="node">
<title>sextusL</title>
<text text-anchor="start" x="192" y="-404.8" font-family="Times New Roman,serif" font-weight="bold" font-size="14.00">Latin</text>
<text text-anchor="start" x="190.5" y="-390.8" font-family="Times New Roman,serif" font-size="14.00" fill="red">sextus</text>
<text text-anchor="start" x="198" y="-378.4" font-family="Times New Roman,serif" font-size="12.00">sixth</text>
</g>
<!-- sexto&#45;&gt;sextusL -->
<g id="edge26" class="edge">
<title>sexto&#45;&gt;sextusL</title>
<path fill="none" stroke="black" d="M321.51,-473.8C299.83,-458.87 268.21,-437.1 243.92,-420.38"/>
<polygon fill="black" stroke="black" points="245.89,-417.49 235.67,-414.7 241.92,-423.25 245.89,-417.49"/>
</g>
<!-- dekmIE -->
<g id="node3" class="node">
<title>dekmIE</title>
<g id="a_node3"><a xlink:href="dekm-ten.svg" xlink:title="&lt;b&gt;Indo&#45;&lt;br/&gt;European&lt;/b&gt;&lt;br/&gt;&lt;font color=&quot;red&quot;&gt;dekm̥&lt;/font&gt;&lt;br/&gt;&lt;font point&#45;size=&quot;12&quot;&gt;ten&lt;/font&gt;">
<path fill="none" stroke="black" stroke-dasharray="5,2" d="M825,-633C825,-633 772,-633 772,-633 766,-633 760,-627 760,-621 760,-621 760,-583 760,-583 760,-577 766,-571 772,-571 772,-571 825,-571 825,-571 831,-571 837,-577 837,-583 837,-583 837,-621 837,-621 837,-627 831,-633 825,-633"/>
<text text-anchor="start" x="782" y="-618.8" font-family="Times New Roman,serif" font-weight="bold" font-size="14.00">Indo&#45;</text>
<text text-anchor="start" x="768" y="-604.8" font-family="Times New Roman,serif" font-weight="bold" font-size="14.00">European</text>
<text text-anchor="start" x="783" y="-590.8" font-family="Times New Roman,serif" font-size="14.00" fill="red">dekm̥</text>
<text text-anchor="start" x="791.5" y="-578.4" font-family="Times New Roman,serif" font-size="12.00">ten</text>
</a>
</g>
</g>
<!-- tehanGm -->
<g id="node4" class="node">
<title>tehanGm</title>
<text text-anchor="start" x="608" y="-398.8" font-family="Times New Roman,serif" font-weight="bold" font-size="14.00">Germanic</text>
<text text-anchor="start" x="623.5" y="-384.8" font-family="Times New Roman,serif" font-size="14.00" fill="red">tehan</text>
</g>
<!-- dekmIE&#45;&gt;tehanGm -->
<g id="edge2" class="edge">
<title>dekmIE&#45;&gt;tehanGm</title>
<path fill="none" stroke="black" d="M787.5,-570C787.5,-570 757.74,-536.94 734.5,-510 708.31,-479.64 678.65,-444.26 659.32,-421.06"/>
<polygon fill="black" stroke="black" points="661.78,-418.55 652.69,-413.1 656.4,-423.03 661.78,-418.55"/>
</g>
<!-- kontaIE -->
<g id="node6" class="node">
<title>kontaIE</title>
<text text-anchor="start" x="751.5" y="-488.3" font-family="Times New Roman,serif" font-size="14.00" fill="red">&#45;dkōm&#45;tā̆, &#45;kontā̆</text>
</g>
<!-- dekmIE&#45;&gt;kontaIE -->
<g id="edge4" class="edge">
<title>dekmIE&#45;&gt;kontaIE</title>
<path fill="none" stroke="black" d="M787.5,-570C787.5,-570 791.46,-542.26 794.63,-520.08"/>
<polygon fill="black" stroke="black" points="798.11,-520.48 796.06,-510.09 791.18,-519.49 798.11,-520.48"/>
</g>
<!-- tyneOE -->
<g id="node5" class="node">
<title>tyneOE</title>
<text text-anchor="start" x="551" y="-295.8" font-family="Times New Roman,serif" font-weight="bold" font-size="14.00">Old English</text>
<text text-anchor="start" x="539.5" y="-281.8" font-family="Times New Roman,serif" font-size="14.00" fill="red">&#45;tēne, &#45;tīne, &#45;tȳne</text>
</g>
<!-- tehanGm&#45;&gt;tyneOE -->
<g id="edge3" class="edge">
<title>tehanGm&#45;&gt;tyneOE</title>
<path fill="none" stroke="black" d="M629.85,-376.87C621.86,-361.05 609.89,-337.33 600.7,-319.15"/>
<polygon fill="black" stroke="black" points="603.83,-317.57 596.19,-310.22 597.58,-320.72 603.83,-317.57"/>
</g>
<!-- tehanGm&#45;&gt;sexL -->
<!-- sixtyneOE -->
<g id="node15" class="node">
<title>sixtyneOE</title>
<text text-anchor="start" x="567.5" y="-210.3" font-family="Times New Roman,serif" font-size="14.00" fill="red">sixtȳne</text>
</g>
<!-- tyneOE&#45;&gt;sixtyneOE -->
<g id="edge16" class="edge">
<title>tyneOE&#45;&gt;sixtyneOE</title>
<path fill="none" stroke="black" d="M584.55,-273.91C582.83,-263.89 580.7,-251.56 579.24,-243.08"/>
<polygon fill="black" stroke="black" points="582.65,-242.26 577.5,-233 575.75,-243.45 582.65,-242.26"/>
</g>
<!-- gintaL -->
<g id="node7" class="node">
<title>gintaL</title>
<text text-anchor="start" x="784" y="-404.8" font-family="Times New Roman,serif" font-weight="bold" font-size="14.00">Latin</text>
<text text-anchor="start" x="785" y="-390.8" font-family="Times New Roman,serif" font-size="14.00" fill="red">&#45;gintā</text>
<text text-anchor="start" x="780.5" y="-378.4" font-family="Times New Roman,serif" font-size="12.00">ten times</text>
</g>
<!-- kontaIE&#45;&gt;gintaL -->
<g id="edge5" class="edge">
<title>kontaIE&#45;&gt;gintaL</title>
<path fill="none" stroke="black" d="M798.87,-473.58C799.13,-461.25 799.48,-444.33 799.8,-429.44"/>
<polygon fill="black" stroke="black" points="803.3,-429.12 800.01,-419.05 796.31,-428.97 803.3,-429.12"/>
</g>
<!-- sexagintaL -->
<g id="node20" class="node">
<title>sexagintaL</title>
<text text-anchor="start" x="851.5" y="-294.8" font-family="Times New Roman,serif" font-size="14.00" fill="red">sexāgintā</text>
<text text-anchor="start" x="867" y="-282.4" font-family="Times New Roman,serif" font-size="12.00">sixty</text>
</g>
<!-- gintaL&#45;&gt;sexagintaL -->
<g id="edge20" class="edge">
<title>gintaL&#45;&gt;sexagintaL</title>
<path fill="none" stroke="black" d="M816.66,-370.88C828.59,-353.8 844.16,-331.52 852.54,-319.53"/>
<polygon fill="black" stroke="black" points="855.64,-321.2 858.5,-311 849.9,-317.19 855.64,-321.2"/>
</g>
<!-- seksGm&#45;&gt;tehanGm -->
<!-- sixOE -->
<g id="node9" class="node">
<title>sixOE</title>
<text text-anchor="start" x="432" y="-295.8" font-family="Times New Roman,serif" font-weight="bold" font-size="14.00">Old English</text>
<text text-anchor="start" x="432.5" y="-281.8" font-family="Times New Roman,serif" font-size="14.00" fill="red">sex, siex, six</text>
</g>
<!-- seksGm&#45;&gt;sixOE -->
<g id="edge7" class="edge">
<title>seksGm&#45;&gt;sixOE</title>
<path fill="none" stroke="black" d="M530.78,-376.87C518.93,-360.91 501.1,-336.9 487.55,-318.65"/>
<polygon fill="black" stroke="black" points="490.06,-316.16 481.29,-310.22 484.44,-320.33 490.06,-316.16"/>
</g>
<!-- sixME -->
<g id="node10" class="node">
<title>sixME</title>
<text text-anchor="start" x="485" y="-140.8" font-family="Times New Roman,serif" font-weight="bold" font-size="14.00">Middle</text>
<text text-anchor="start" x="483.5" y="-126.8" font-family="Times New Roman,serif" font-weight="bold" font-size="14.00">English</text>
<text text-anchor="start" x="498.5" y="-112.8" font-family="Times New Roman,serif" font-size="14.00" fill="red">six</text>
</g>
<!-- sixOE&#45;&gt;sixME -->
<g id="edge8" class="edge">
<title>sixOE&#45;&gt;sixME</title>
<path fill="none" stroke="black" d="M473.5,-273C473.5,-273 488.85,-206.94 498.61,-164.94"/>
<polygon fill="black" stroke="black" points="502.05,-165.62 500.9,-155.09 495.23,-164.04 502.05,-165.62"/>
</g>
<!-- sixtigOE -->
<g id="node12" class="node">
<title>sixtigOE</title>
<text text-anchor="start" x="416.5" y="-210.3" font-family="Times New Roman,serif" font-size="14.00" fill="red">sixtig</text>
</g>
<!-- sixOE&#45;&gt;sixtigOE -->
<g id="edge10" class="edge">
<title>sixOE&#45;&gt;sixtigOE</title>
<path fill="none" stroke="black" d="M473.5,-273C473.5,-273 461.23,-256.05 449.95,-240.48"/>
<polygon fill="black" stroke="black" points="452.57,-238.13 443.87,-232.09 446.9,-242.24 452.57,-238.13"/>
</g>
<!-- sixOE&#45;&gt;sixtyneOE -->
<g id="edge13" class="edge">
<title>sixOE&#45;&gt;sixtyneOE</title>
<path fill="none" stroke="black" d="M473.5,-273C473.5,-273 542.16,-246.59 567.9,-236.69"/>
<polygon fill="black" stroke="black" points="569.42,-239.86 577.5,-233 566.91,-233.32 569.42,-239.86"/>
</g>
<!-- six -->
<g id="node11" class="node">
<title>six</title>
<text text-anchor="start" x="483" y="-42.8" font-family="Times New Roman,serif" font-weight="bold" font-size="14.00">Modern</text>
<text text-anchor="start" x="484.5" y="-28.8" font-family="Times New Roman,serif" font-weight="bold" font-size="14.00">English</text>
<text text-anchor="start" x="499.5" y="-14.8" font-family="Times New Roman,serif" font-size="14.00" fill="red">six</text>
</g>
<!-- sixME&#45;&gt;six -->
<g id="edge9" class="edge">
<title>sixME&#45;&gt;six</title>
<path fill="none" stroke="black" d="M506.75,-104.78C506.87,-93.41 507.01,-79.66 507.14,-67.25"/>
<polygon fill="black" stroke="black" points="510.64,-67.25 507.25,-57.22 503.64,-67.18 510.64,-67.25"/>
</g>
<!-- sixtyME -->
<g id="node13" class="node">
<title>sixtyME</title>
<text text-anchor="start" x="404" y="-140.8" font-family="Times New Roman,serif" font-weight="bold" font-size="14.00">Middle</text>
<text text-anchor="start" x="402.5" y="-126.8" font-family="Times New Roman,serif" font-weight="bold" font-size="14.00">English</text>
<text text-anchor="start" x="412" y="-112.8" font-family="Times New Roman,serif" font-size="14.00" fill="red">sixty</text>
</g>
<!-- sixtigOE&#45;&gt;sixtyME -->
<g id="edge11" class="edge">
<title>sixtigOE&#45;&gt;sixtyME</title>
<path fill="none" stroke="black" d="M430.23,-195.61C429.58,-186.8 428.78,-175.77 428.01,-165.34"/>
<polygon fill="black" stroke="black" points="431.49,-164.93 427.27,-155.21 424.51,-165.44 431.49,-164.93"/>
</g>
<!-- sixty -->
<g id="node14" class="node">
<title>sixty</title>
<text text-anchor="start" x="400" y="-42.8" font-family="Times New Roman,serif" font-weight="bold" font-size="14.00">Modern</text>
<text text-anchor="start" x="401.5" y="-28.8" font-family="Times New Roman,serif" font-weight="bold" font-size="14.00">English</text>
<text text-anchor="start" x="411" y="-14.8" font-family="Times New Roman,serif" font-size="14.00" fill="red">sixty</text>
</g>
<!-- sixtyME&#45;&gt;sixty -->
<g id="edge12" class="edge">
<title>sixtyME&#45;&gt;sixty</title>
<path fill="none" stroke="black" d="M425.25,-104.78C425.13,-93.41 424.99,-79.66 424.86,-67.25"/>
<polygon fill="black" stroke="black" points="428.36,-67.18 424.75,-57.22 421.36,-67.25 428.36,-67.18"/>
</g>
<!-- sixteneME -->
<g id="node16" class="node">
<title>sixteneME</title>
<text text-anchor="start" x="568" y="-140.8" font-family="Times New Roman,serif" font-weight="bold" font-size="14.00">Middle</text>
<text text-anchor="start" x="566.5" y="-126.8" font-family="Times New Roman,serif" font-weight="bold" font-size="14.00">English</text>
<text text-anchor="start" x="570" y="-112.8" font-family="Times New Roman,serif" font-size="14.00" fill="red">sixtene</text>
</g>
<!-- sixtyneOE&#45;&gt;sixteneME -->
<g id="edge14" class="edge">
<title>sixtyneOE&#45;&gt;sixteneME</title>
<path fill="none" stroke="black" d="M587.92,-195.61C588.14,-186.8 588.41,-175.77 588.66,-165.34"/>
<polygon fill="black" stroke="black" points="592.16,-165.29 588.91,-155.21 585.17,-165.12 592.16,-165.29"/>
</g>
<!-- sixteen -->
<g id="node17" class="node">
<title>sixteen</title>
<text text-anchor="start" x="566" y="-42.8" font-family="Times New Roman,serif" font-weight="bold" font-size="14.00">Modern</text>
<text text-anchor="start" x="567.5" y="-28.8" font-family="Times New Roman,serif" font-weight="bold" font-size="14.00">English</text>
<text text-anchor="start" x="571" y="-14.8" font-family="Times New Roman,serif" font-size="14.00" fill="red">sixteen</text>
</g>
<!-- sixteneME&#45;&gt;sixteen -->
<g id="edge15" class="edge">
<title>sixteneME&#45;&gt;sixteen</title>
<path fill="none" stroke="black" d="M589.75,-104.78C589.87,-93.41 590.01,-79.66 590.14,-67.25"/>
<polygon fill="black" stroke="black" points="593.64,-67.25 590.25,-57.22 586.64,-67.18 593.64,-67.25"/>
</g>
<!-- sexL&#45;&gt;gintaL -->
<!-- sexE -->
<g id="node19" class="node">
<title>sexE</title>
<text text-anchor="start" x="787" y="-42.8" font-family="Times New Roman,serif" font-weight="bold" font-size="14.00">Modern</text>
<text text-anchor="start" x="788.5" y="-28.8" font-family="Times New Roman,serif" font-weight="bold" font-size="14.00">English</text>
<text text-anchor="start" x="799.5" y="-14.8" font-family="Times New Roman,serif" font-size="14.00" fill="red">sex&#45;</text>
</g>
<!-- sexL&#45;&gt;sexE -->
<g id="edge18" class="edge">
<title>sexL&#45;&gt;sexE</title>
<path fill="none" stroke="black" stroke-dasharray="1,5" d="M732.5,-376C732.5,-376 787.39,-333.55 795.5,-316 833.73,-233.34 825.04,-122.29 817.3,-67.1"/>
<polygon fill="black" stroke="black" points="820.75,-66.53 815.83,-57.15 813.83,-67.55 820.75,-66.53"/>
</g>
<!-- sexL&#45;&gt;sexagintaL -->
<g id="edge19" class="edge">
<title>sexL&#45;&gt;sexagintaL</title>
<path fill="none" stroke="black" d="M732.5,-376C732.5,-376 748.49,-360.86 763.5,-352 793.05,-334.56 831.39,-320.32 848.95,-314.21"/>
<polygon fill="black" stroke="black" points="850.14,-317.51 858.5,-311 847.91,-310.87 850.14,-317.51"/>
</g>
<!-- semestrisL -->
<g id="node23" class="node">
<title>semestrisL</title>
<text text-anchor="start" x="670" y="-301.8" font-family="Times New Roman,serif" font-size="14.00" fill="red">(cursus) sēmēnstris</text>
<text text-anchor="start" x="673.5" y="-287.8" font-family="Times New Roman,serif" font-size="14.00" fill="red">(cursus) sēmēstris</text>
<text text-anchor="start" x="674.5" y="-275.4" font-family="Times New Roman,serif" font-size="12.00">(course) of six months</text>
</g>
<!-- sexL&#45;&gt;semestrisL -->
<g id="edge23" class="edge">
<title>sexL&#45;&gt;semestrisL</title>
<path fill="none" stroke="black" d="M732.5,-376C732.5,-376 729.94,-349.44 727.72,-326.37"/>
<polygon fill="black" stroke="black" points="731.17,-325.74 726.73,-316.12 724.2,-326.41 731.17,-325.74"/>
</g>
<!-- sexageniL -->
<g id="node21" class="node">
<title>sexageniL</title>
<text text-anchor="start" x="853" y="-216.8" font-family="Times New Roman,serif" font-size="14.00" fill="red">sexāgēnī</text>
<text text-anchor="start" x="855" y="-204.4" font-family="Times New Roman,serif" font-size="12.00">sixty each</text>
</g>
<!-- sexagintaL&#45;&gt;sexageniL -->
<g id="edge21" class="edge">
<title>sexagintaL&#45;&gt;sexageniL</title>
<path fill="none" stroke="black" d="M877.5,-273.75C877.5,-264.52 877.5,-252.93 877.5,-242.49"/>
<polygon fill="black" stroke="black" points="881,-242.18 877.5,-232.18 874,-242.18 881,-242.18"/>
</g>
<!-- sexagenary -->
<g id="node22" class="node">
<title>sexagenary</title>
<text text-anchor="start" x="881" y="-49.8" font-family="Times New Roman,serif" font-weight="bold" font-size="14.00">Modern</text>
<text text-anchor="start" x="882.5" y="-35.8" font-family="Times New Roman,serif" font-weight="bold" font-size="14.00">English</text>
<text text-anchor="start" x="874.5" y="-21.8" font-family="Times New Roman,serif" font-size="14.00" fill="red">sexagenary</text>
<text text-anchor="start" x="870" y="-7.8" font-family="Times New Roman,serif" font-size="14.00" fill="red">sexagenarian</text>
</g>
<!-- sexageniL&#45;&gt;sexagenary -->
<g id="edge22" class="edge">
<title>sexageniL&#45;&gt;sexagenary</title>
<path fill="none" stroke="black" stroke-dasharray="1,5" d="M880.18,-195.74C884.49,-168.07 893.05,-113.01 899.02,-74.63"/>
<polygon fill="black" stroke="black" points="902.55,-74.71 900.63,-64.29 895.64,-73.63 902.55,-74.71"/>
</g>
<!-- semesterGer -->
<g id="node24" class="node">
<title>semesterGer</title>
<text text-anchor="start" x="699" y="-133.8" font-family="Times New Roman,serif" font-weight="bold" font-size="14.00">German</text>
<text text-anchor="start" x="698.5" y="-119.8" font-family="Times New Roman,serif" font-size="14.00" fill="red">Semester</text>
</g>
<!-- semestrisL&#45;&gt;semesterGer -->
<g id="edge24" class="edge">
<title>semestrisL&#45;&gt;semesterGer</title>
<path fill="none" stroke="black" stroke-dasharray="1,5" d="M724.5,-267.73C724.5,-238.74 724.5,-189.25 724.5,-158.44"/>
<polygon fill="black" stroke="black" points="728,-158.38 724.5,-148.38 721,-158.38 728,-158.38"/>
</g>
<!-- semester -->
<g id="node25" class="node">
<title>semester</title>
<text text-anchor="start" x="700" y="-42.8" font-family="Times New Roman,serif" font-weight="bold" font-size="14.00">Modern</text>
<text text-anchor="start" x="701.5" y="-28.8" font-family="Times New Roman,serif" font-weight="bold" font-size="14.00">English</text>
<text text-anchor="start" x="700" y="-14.8" font-family="Times New Roman,serif" font-size="14.00" fill="red">semester</text>
</g>
<!-- semesterGer&#45;&gt;semester -->
<g id="edge25" class="edge">
<title>semesterGer&#45;&gt;semester</title>
<path fill="none" stroke="black" stroke-dasharray="1,5" d="M724.5,-111.84C724.5,-99.48 724.5,-82.39 724.5,-67.29"/>
<polygon fill="black" stroke="black" points="728,-67.23 724.5,-57.23 721,-67.23 728,-67.23"/>
</g>
<!-- sextansL -->
<g id="node27" class="node">
<title>sextansL</title>
<text text-anchor="start" x="8" y="-294.8" font-family="Times New Roman,serif" font-size="14.00" fill="red">sextāns, sextant&#45;</text>
<text text-anchor="start" x="33.5" y="-282.4" font-family="Times New Roman,serif" font-size="12.00">sixth part</text>
</g>
<!-- sextusL&#45;&gt;sextansL -->
<g id="edge27" class="edge">
<title>sextusL&#45;&gt;sextansL</title>
<path fill="none" stroke="black" d="M208.5,-370C208.5,-370 143.34,-337.42 97.78,-314.64"/>
<polygon fill="black" stroke="black" points="99.19,-311.43 88.68,-310.09 96.06,-317.69 99.19,-311.43"/>
</g>
<!-- sextuplusL -->
<g id="node30" class="node">
<title>sextuplusL</title>
<text text-anchor="start" x="135" y="-294.8" font-family="Times New Roman,serif" font-size="14.00" fill="red">sextuplus</text>
<text text-anchor="start" x="146.5" y="-282.4" font-family="Times New Roman,serif" font-size="12.00">sixfold</text>
</g>
<!-- sextusL&#45;&gt;sextuplusL -->
<g id="edge30" class="edge">
<title>sextusL&#45;&gt;sextuplusL</title>
<path fill="none" stroke="black" d="M208.5,-370C208.5,-370 190.95,-341.24 177.3,-318.88"/>
<polygon fill="black" stroke="black" points="180.13,-316.8 171.93,-310.09 174.15,-320.45 180.13,-316.8"/>
</g>
<!-- sextaL -->
<g id="node32" class="node">
<title>sextaL</title>
<text text-anchor="start" x="222" y="-300.8" font-family="Times New Roman,serif" font-size="14.00" fill="red">sexta (hōra)</text>
<text text-anchor="start" x="228" y="-288.4" font-family="Times New Roman,serif" font-size="12.00">sixth (hour),</text>
<text text-anchor="start" x="238.5" y="-276.4" font-family="Times New Roman,serif" font-size="12.00">midday</text>
</g>
<!-- sextusL&#45;&gt;sextaL -->
<g id="edge32" class="edge">
<title>sextusL&#45;&gt;sextaL</title>
<path fill="none" stroke="black" d="M208.5,-370C208.5,-370 223.58,-345.29 236.66,-323.87"/>
<polygon fill="black" stroke="black" points="239.68,-325.63 241.91,-315.27 233.71,-321.98 239.68,-325.63"/>
</g>
<!-- sixtusL -->
<g id="node35" class="node">
<title>sixtusL</title>
<text text-anchor="start" x="339" y="-300.8" font-family="Times New Roman,serif" font-size="14.00" fill="red">Sixtus</text>
<text text-anchor="start" x="328" y="-288.4" font-family="Times New Roman,serif" font-size="12.00">(the name of</text>
<text text-anchor="start" x="323" y="-276.4" font-family="Times New Roman,serif" font-size="12.00">several popes)</text>
</g>
<!-- sextusL&#45;&gt;sixtusL -->
<g id="edge35" class="edge">
<title>sextusL&#45;&gt;sixtusL</title>
<path fill="none" stroke="black" d="M208.5,-370C208.5,-370 263.07,-341.61 305.93,-319.31"/>
<polygon fill="black" stroke="black" points="307.62,-322.37 314.88,-314.65 304.39,-316.16 307.62,-322.37"/>
</g>
<!-- sextantNL -->
<g id="node28" class="node">
<title>sextantNL</title>
<text text-anchor="start" x="22.5" y="-145.8" font-family="Times New Roman,serif" font-weight="bold" font-size="14.00">New Latin</text>
<text text-anchor="start" x="34.5" y="-131.8" font-family="Times New Roman,serif" font-size="14.00" fill="red">sextant</text>
<text text-anchor="start" x="25.5" y="-119.4" font-family="Times New Roman,serif" font-size="12.00">astronomical</text>
<text text-anchor="start" x="31.5" y="-107.4" font-family="Times New Roman,serif" font-size="12.00">instrument</text>
</g>
<!-- sextansL&#45;&gt;sextantNL -->
<g id="edge28" class="edge">
<title>sextansL&#45;&gt;sextantNL</title>
<path fill="none" stroke="black" stroke-dasharray="1,5" d="M54.5,-273.88C54.5,-249.36 54.5,-203.57 54.5,-170.42"/>
<polygon fill="black" stroke="black" points="58,-170.14 54.5,-160.14 51,-170.14 58,-170.14"/>
</g>
<!-- sextant -->
<g id="node29" class="node">
<title>sextant</title>
<text text-anchor="start" x="30" y="-42.8" font-family="Times New Roman,serif" font-weight="bold" font-size="14.00">Modern</text>
<text text-anchor="start" x="31.5" y="-28.8" font-family="Times New Roman,serif" font-weight="bold" font-size="14.00">English</text>
<text text-anchor="start" x="34.5" y="-14.8" font-family="Times New Roman,serif" font-size="14.00" fill="red">sextant</text>
</g>
<!-- sextantNL&#45;&gt;sextant -->
<g id="edge29" class="edge">
<title>sextantNL&#45;&gt;sextant</title>
<path fill="none" stroke="black" stroke-dasharray="1,5" d="M54.5,-99.94C54.5,-89.67 54.5,-78.03 54.5,-67.37"/>
<polygon fill="black" stroke="black" points="58,-67.12 54.5,-57.12 51,-67.12 58,-67.12"/>
</g>
<!-- sextuple -->
<g id="node31" class="node">
<title>sextuple</title>
<text text-anchor="start" x="137" y="-49.8" font-family="Times New Roman,serif" font-weight="bold" font-size="14.00">Modern</text>
<text text-anchor="start" x="138.5" y="-35.8" font-family="Times New Roman,serif" font-weight="bold" font-size="14.00">English</text>
<text text-anchor="start" x="138.5" y="-21.8" font-family="Times New Roman,serif" font-size="14.00" fill="red">sextuple</text>
<text text-anchor="start" x="136.5" y="-7.8" font-family="Times New Roman,serif" font-size="14.00" fill="red">sextuplet</text>
</g>
<!-- sextuplusL&#45;&gt;sextuple -->
<g id="edge31" class="edge">
<title>sextuplusL&#45;&gt;sextuple</title>
<path fill="none" stroke="black" stroke-dasharray="1,5" d="M161.5,-273.67C161.5,-233.25 161.5,-131.82 161.5,-74.37"/>
<polygon fill="black" stroke="black" points="165,-74.18 161.5,-64.18 158,-74.18 165,-74.18"/>
</g>
<!-- siestaS -->
<g id="node33" class="node">
<title>siestaS</title>
<text text-anchor="start" x="231" y="-139.8" font-family="Times New Roman,serif" font-weight="bold" font-size="14.00">Spanish</text>
<text text-anchor="start" x="240" y="-125.8" font-family="Times New Roman,serif" font-size="14.00" fill="red">siesta</text>
<text text-anchor="start" x="229" y="-113.4" font-family="Times New Roman,serif" font-size="12.00">midday nap</text>
</g>
<!-- sextaL&#45;&gt;siestaS -->
<g id="edge33" class="edge">
<title>sextaL&#45;&gt;siestaS</title>
<path fill="none" stroke="black" d="M255.5,-268.75C255.5,-241.6 255.5,-195.43 255.5,-164.1"/>
<polygon fill="black" stroke="black" points="259,-164.09 255.5,-154.09 252,-164.09 259,-164.09"/>
</g>
<!-- siesta -->
<g id="node34" class="node">
<title>siesta</title>
<text text-anchor="start" x="231" y="-42.8" font-family="Times New Roman,serif" font-weight="bold" font-size="14.00">Modern</text>
<text text-anchor="start" x="232.5" y="-28.8" font-family="Times New Roman,serif" font-weight="bold" font-size="14.00">English</text>
<text text-anchor="start" x="240" y="-14.8" font-family="Times New Roman,serif" font-size="14.00" fill="red">siesta</text>
</g>
<!-- siestaS&#45;&gt;siesta -->
<g id="edge34" class="edge">
<title>siestaS&#45;&gt;siesta</title>
<path fill="none" stroke="black" stroke-dasharray="1,5" d="M255.5,-105.76C255.5,-94.23 255.5,-80.07 255.5,-67.32"/>
<polygon fill="black" stroke="black" points="259,-67.03 255.5,-57.03 252,-67.03 259,-67.03"/>
</g>
<!-- sixtinusL -->
<g id="node36" class="node">
<title>sixtinusL</title>
<text text-anchor="start" x="325.5" y="-210.3" font-family="Times New Roman,serif" font-size="14.00" fill="red">sixtīnus</text>
</g>
<!-- sixtusL&#45;&gt;sixtinusL -->
<g id="edge36" class="edge">
<title>sixtusL&#45;&gt;sixtinusL</title>
<path fill="none" stroke="black" d="M353.85,-268.61C352.88,-260.39 351.76,-250.99 350.74,-242.39"/>
<polygon fill="black" stroke="black" points="354.21,-241.93 349.56,-232.41 347.26,-242.75 354.21,-241.93"/>
</g>
<!-- sistinoI -->
<g id="node37" class="node">
<title>sistinoI</title>
<text text-anchor="start" x="323.5" y="-133.8" font-family="Times New Roman,serif" font-weight="bold" font-size="14.00">Italian</text>
<text text-anchor="start" x="325" y="-119.8" font-family="Times New Roman,serif" font-size="14.00" fill="red">sistino</text>
</g>
<!-- sixtinusL&#45;&gt;sistinoI -->
<g id="edge37" class="edge">
<title>sixtinusL&#45;&gt;sistinoI</title>
<path fill="none" stroke="black" d="M346.65,-195.61C346.12,-184.77 345.43,-170.6 344.83,-158.29"/>
<polygon fill="black" stroke="black" points="348.32,-157.9 344.33,-148.08 341.32,-158.24 348.32,-157.9"/>
</g>
<!-- sistine -->
<g id="node38" class="node">
<title>sistine</title>
<text text-anchor="start" x="317" y="-49.8" font-family="Times New Roman,serif" font-weight="bold" font-size="14.00">Modern</text>
<text text-anchor="start" x="318.5" y="-35.8" font-family="Times New Roman,serif" font-weight="bold" font-size="14.00">English</text>
<text text-anchor="start" x="323" y="-21.8" font-family="Times New Roman,serif" font-size="14.00" fill="red">Sistine</text>
<text text-anchor="start" x="317" y="-7.8" font-family="Times New Roman,serif" font-size="14.00" fill="red">(Chapel)</text>
</g>
<!-- sistinoI&#45;&gt;sistine -->
<g id="edge38" class="edge">
<title>sistinoI&#45;&gt;sistine</title>
<path fill="none" stroke="black" stroke-dasharray="1,5" d="M343.14,-111.84C342.93,-101.45 342.64,-87.73 342.37,-74.65"/>
<polygon fill="black" stroke="black" points="345.86,-74.3 342.15,-64.37 338.86,-74.44 345.86,-74.3"/>
</g>
<!-- hexaE -->
<g id="node40" class="node">
<title>hexaE</title>
<text text-anchor="start" x="975" y="-42.8" font-family="Times New Roman,serif" font-weight="bold" font-size="14.00">Modern</text>
<text text-anchor="start" x="976.5" y="-28.8" font-family="Times New Roman,serif" font-weight="bold" font-size="14.00">English</text>
<text text-anchor="start" x="979.5" y="-14.8" font-family="Times New Roman,serif" font-size="14.00" fill="red">hex(a)&#45;</text>
</g>
<!-- hexG&#45;&gt;hexaE -->
<g id="edge40" class="edge">
<title>hexG&#45;&gt;hexaE</title>
<path fill="none" stroke="black" stroke-dasharray="1,5" d="M1047.5,-369C1047.5,-369 1016.59,-152.63 1004.38,-67.15"/>
<polygon fill="black" stroke="black" points="1007.83,-66.57 1002.95,-57.16 1000.9,-67.56 1007.83,-66.57"/>
</g>
<!-- hexagonosG -->
<g id="node42" class="node">
<title>hexagonosG</title>
<text text-anchor="start" x="1095" y="-294.8" font-family="Times New Roman,serif" font-size="14.00" fill="red">hexagōnos</text>
<text text-anchor="start" x="1088" y="-282.4" font-family="Times New Roman,serif" font-size="12.00">having six angles</text>
</g>
<!-- hexG&#45;&gt;hexagonosG -->
<g id="edge42" class="edge">
<title>hexG&#45;&gt;hexagonosG</title>
<path fill="none" stroke="black" d="M1047.5,-369C1047.5,-369 1092.14,-332.53 1110.63,-317.43"/>
<polygon fill="black" stroke="black" points="1112.97,-320.04 1118.5,-311 1108.54,-314.62 1112.97,-320.04"/>
</g>
<!-- hexaedronG -->
<g id="node47" class="node">
<title>hexaedronG</title>
<text text-anchor="start" x="1224.5" y="-294.8" font-family="Times New Roman,serif" font-size="14.00" fill="red">hexaedron</text>
<text text-anchor="start" x="1218.5" y="-282.4" font-family="Times New Roman,serif" font-size="12.00">having six sides</text>
</g>
<!-- hexG&#45;&gt;hexaedronG -->
<g id="edge47" class="edge">
<title>hexG&#45;&gt;hexaedronG</title>
<path fill="none" stroke="black" d="M1047.5,-369C1047.5,-369 1069.82,-358.34 1088.5,-352 1141.62,-333.96 1207.24,-318.63 1231.7,-313.15"/>
<polygon fill="black" stroke="black" points="1232.48,-316.57 1241.5,-311 1230.98,-309.73 1232.48,-316.57"/>
</g>
<!-- exaE -->
<g id="node41" class="node">
<title>exaE</title>
<text text-anchor="start" x="1058" y="-42.8" font-family="Times New Roman,serif" font-weight="bold" font-size="14.00">Modern</text>
<text text-anchor="start" x="1059.5" y="-28.8" font-family="Times New Roman,serif" font-weight="bold" font-size="14.00">English</text>
<text text-anchor="start" x="1070.5" y="-14.8" font-family="Times New Roman,serif" font-size="14.00" fill="red">exa&#45;</text>
</g>
<!-- hexaE&#45;&gt;exaE -->
<g id="edge41" class="edge">
<title>hexaE&#45;&gt;exaE</title>
<path fill="none" stroke="black" d="M1032.25,-32C1034.73,-32 1037.22,-32 1039.7,-32"/>
<polygon fill="black" stroke="black" points="1039.91,-35.5 1049.91,-32 1039.91,-28.5 1039.91,-35.5"/>
</g>
<!-- hexagonumL -->
<g id="node43" class="node">
<title>hexagonumL</title>
<text text-anchor="start" x="1109" y="-217.8" font-family="Times New Roman,serif" font-weight="bold" font-size="14.00">Latin</text>
<text text-anchor="start" x="1093.5" y="-203.8" font-family="Times New Roman,serif" font-size="14.00" fill="red">hexagōnum</text>
</g>
<!-- hexagonosG&#45;&gt;hexagonumL -->
<g id="edge43" class="edge">
<title>hexagonosG&#45;&gt;hexagonumL</title>
<path fill="none" stroke="black" stroke-dasharray="1,5" d="M1125.5,-273.75C1125.5,-264.52 1125.5,-252.93 1125.5,-242.49"/>
<polygon fill="black" stroke="black" points="1129,-242.18 1125.5,-232.18 1122,-242.18 1129,-242.18"/>
</g>
<!-- hexagon -->
<g id="node44" class="node">
<title>hexagon</title>
<text text-anchor="start" x="1145" y="-49.8" font-family="Times New Roman,serif" font-weight="bold" font-size="14.00">Modern</text>
<text text-anchor="start" x="1146.5" y="-35.8" font-family="Times New Roman,serif" font-weight="bold" font-size="14.00">English</text>
<text text-anchor="start" x="1146" y="-21.8" font-family="Times New Roman,serif" font-size="14.00" fill="red">hexagon</text>
<text text-anchor="start" x="1141.5" y="-7.8" font-family="Times New Roman,serif" font-size="14.00" fill="red">hexagonal</text>
</g>
<!-- hexagonumL&#45;&gt;hexagon -->
<g id="edge44" class="edge">
<title>hexagonumL&#45;&gt;hexagon</title>
<path fill="none" stroke="black" stroke-dasharray="1,5" d="M1129.72,-195.74C1136.51,-167.95 1150.06,-112.54 1159.44,-74.14"/>
<polygon fill="black" stroke="black" points="1162.88,-74.83 1161.85,-64.29 1156.08,-73.17 1162.88,-74.83"/>
</g>
<!-- genuIE -->
<g id="node45" class="node">
<title>genuIE</title>
<g id="a_node45"><a xlink:href="genu-knee.svg" xlink:title="&lt;b&gt;Indo&#45;&lt;br/&gt;European&lt;/b&gt;&lt;br/&gt;&lt;font color=&quot;red&quot;&gt;genu&#45;&lt;/font&gt;&lt;br/&gt;&lt;font point&#45;size=&quot;12&quot;&gt;knee&lt;/font&gt;">
<path fill="none" stroke="black" stroke-dasharray="5,2" d="M1152,-633C1152,-633 1099,-633 1099,-633 1093,-633 1087,-627 1087,-621 1087,-621 1087,-583 1087,-583 1087,-577 1093,-571 1099,-571 1099,-571 1152,-571 1152,-571 1158,-571 1164,-577 1164,-583 1164,-583 1164,-621 1164,-621 1164,-627 1158,-633 1152,-633"/>
<text text-anchor="start" x="1109" y="-618.8" font-family="Times New Roman,serif" font-weight="bold" font-size="14.00">Indo&#45;</text>
<text text-anchor="start" x="1095" y="-604.8" font-family="Times New Roman,serif" font-weight="bold" font-size="14.00">European</text>
<text text-anchor="start" x="1110" y="-590.8" font-family="Times New Roman,serif" font-size="14.00" fill="red">genu&#45;</text>
<text text-anchor="start" x="1114.5" y="-578.4" font-family="Times New Roman,serif" font-size="12.00">knee</text>
</a>
</g>
</g>
<!-- goniaG -->
<g id="node46" class="node">
<title>goniaG</title>
<text text-anchor="start" x="1105.5" y="-417.8" font-family="Times New Roman,serif" font-weight="bold" font-size="14.00">Greek</text>
<text text-anchor="start" x="1110" y="-403.8" font-family="Times New Roman,serif" font-size="14.00" fill="red">gōniā</text>
<text text-anchor="start" x="1113.5" y="-391.4" font-family="Times New Roman,serif" font-size="12.00">angle</text>
<text text-anchor="start" x="1108" y="-377.8" font-family="Times New Roman,serif" font-size="14.00" fill="red">gōnos</text>
<text text-anchor="start" x="1110.5" y="-365.4" font-family="Times New Roman,serif" font-size="12.00">angled</text>
</g>
<!-- genuIE&#45;&gt;goniaG -->
<g id="edge45" class="edge">
<title>genuIE&#45;&gt;goniaG</title>
<path fill="none" stroke="black" d="M1125.5,-570.75C1125.5,-536.91 1125.5,-481.69 1125.5,-442.38"/>
<polygon fill="black" stroke="black" points="1129,-442.26 1125.5,-432.26 1122,-442.26 1129,-442.26"/>
</g>
<!-- goniaG&#45;&gt;hexagonosG -->
<g id="edge46" class="edge">
<title>goniaG&#45;&gt;hexagonosG</title>
<path fill="none" stroke="black" d="M1122.45,-357.84C1121.32,-344.38 1120.12,-330.17 1119.34,-320.97"/>
<polygon fill="black" stroke="black" points="1122.83,-320.67 1118.5,-311 1115.85,-321.26 1122.83,-320.67"/>
</g>
<!-- hexahedron -->
<g id="node48" class="node">
<title>hexahedron</title>
<text text-anchor="start" x="1240" y="-42.8" font-family="Times New Roman,serif" font-weight="bold" font-size="14.00">Modern</text>
<text text-anchor="start" x="1241.5" y="-28.8" font-family="Times New Roman,serif" font-weight="bold" font-size="14.00">English</text>
<text text-anchor="start" x="1232" y="-14.8" font-family="Times New Roman,serif" font-size="14.00" fill="red">hexahedron</text>
</g>
<!-- hexaedronG&#45;&gt;hexahedron -->
<g id="edge48" class="edge">
<title>hexaedronG&#45;&gt;hexahedron</title>
<path fill="none" stroke="black" stroke-dasharray="1,5" d="M1254.24,-273.67C1256.04,-231.53 1260.66,-123.08 1263.04,-67.28"/>
<polygon fill="black" stroke="black" points="1266.54,-67.32 1263.47,-57.18 1259.55,-67.02 1266.54,-67.32"/>
</g>
<!-- sedIE -->
<g id="node49" class="node">
<title>sedIE</title>
<g id="a_node49"><a xlink:href="sed-sit.svg" xlink:title="&lt;b&gt;Indo&#45;&lt;br/&gt;European&lt;/b&gt;&lt;br/&gt;&lt;font color=&quot;red&quot;&gt;sed&#45;&lt;/font&gt;&lt;br/&gt;&lt;font point&#45;size=&quot;12&quot;&gt;to sit&lt;/font&gt;">
<path fill="none" stroke="black" stroke-dasharray="5,2" d="M1280,-633C1280,-633 1227,-633 1227,-633 1221,-633 1215,-627 1215,-621 1215,-621 1215,-583 1215,-583 1215,-577 1221,-571 1227,-571 1227,-571 1280,-571 1280,-571 1286,-571 1292,-577 1292,-583 1292,-583 1292,-621 1292,-621 1292,-627 1286,-633 1280,-633"/>
<text text-anchor="start" x="1237" y="-618.8" font-family="Times New Roman,serif" font-weight="bold" font-size="14.00">Indo&#45;</text>
<text text-anchor="start" x="1223" y="-604.8" font-family="Times New Roman,serif" font-weight="bold" font-size="14.00">European</text>
<text text-anchor="start" x="1241" y="-590.8" font-family="Times New Roman,serif" font-size="14.00" fill="red">sed&#45;</text>
<text text-anchor="start" x="1242.5" y="-578.4" font-family="Times New Roman,serif" font-size="12.00">to sit</text>
</a>
</g>
</g>
<!-- sedraIE -->
<g id="node50" class="node">
<title>sedraIE</title>
<text text-anchor="start" x="1233.5" y="-488.3" font-family="Times New Roman,serif" font-size="14.00" fill="red">sed&#45;rā&#45;</text>
</g>
<!-- sedIE&#45;&gt;sedraIE -->
<g id="edge49" class="edge">
<title>sedIE&#45;&gt;sedraIE</title>
<path fill="none" stroke="black" d="M1253.5,-570.92C1253.5,-555.15 1253.5,-535.96 1253.5,-520.58"/>
<polygon fill="black" stroke="black" points="1257,-520.15 1253.5,-510.15 1250,-520.15 1257,-520.15"/>
</g>
<!-- hedraG -->
<g id="node51" class="node">
<title>hedraG</title>
<text text-anchor="start" x="1233.5" y="-423.8" font-family="Times New Roman,serif" font-weight="bold" font-size="14.00">Greek</text>
<text text-anchor="start" x="1238" y="-409.8" font-family="Times New Roman,serif" font-size="14.00" fill="red">hedrā</text>
<text text-anchor="start" x="1221.5" y="-397.4" font-family="Times New Roman,serif" font-size="12.00">seat, face of a</text>
<text text-anchor="start" x="1219" y="-385.4" font-family="Times New Roman,serif" font-size="12.00">geometric solid</text>
<text text-anchor="start" x="1213" y="-371.8" font-family="Times New Roman,serif" font-size="14.00" fill="red">&#45;edros, &#45;edron</text>
<text text-anchor="start" x="1239" y="-359.4" font-family="Times New Roman,serif" font-size="12.00">&#45;sided</text>
</g>
<!-- sedraIE&#45;&gt;hedraG -->
<g id="edge50" class="edge">
<title>sedraIE&#45;&gt;hedraG</title>
<path fill="none" stroke="black" d="M1253.5,-473.58C1253.5,-466.34 1253.5,-457.51 1253.5,-448.45"/>
<polygon fill="black" stroke="black" points="1257,-448.18 1253.5,-438.18 1250,-448.18 1257,-448.18"/>
</g>
<!-- hedraG&#45;&gt;hexaedronG -->
<g id="edge51" class="edge">
<title>hedraG&#45;&gt;hexaedronG</title>
<path fill="none" stroke="black" d="M1247.36,-351.53C1245.72,-340.2 1244.1,-328.97 1242.98,-321.21"/>
<polygon fill="black" stroke="black" points="1246.39,-320.4 1241.5,-311 1239.47,-321.4 1246.39,-320.4"/>
</g>
</g>
</svg>
