<?xml version="1.0" encoding="UTF-8" standalone="no"?>
<!DOCTYPE svg PUBLIC "-//W3C//DTD SVG 1.1//EN"
 "http://www.w3.org/Graphics/SVG/1.1/DTD/svg11.dtd">
<!-- Generated by graphviz version 2.49.0 (20210828.1703)
 -->
<!-- Pages: 1 -->
<svg width="877pt" height="947pt"
 viewBox="0.00 0.00 876.50 947.00" xmlns="http://www.w3.org/2000/svg" xmlns:xlink="http://www.w3.org/1999/xlink">
<g id="graph0" class="graph" transform="scale(1 1) rotate(0) translate(4 943)">
<polygon fill="white" stroke="transparent" points="-4,4 -4,-943 872.5,-943 872.5,4 -4,4"/>
<!-- tereIE -->
<g id="node1" class="node">
<title>tereIE</title>
<g id="a_node1"><a xlink:title="Indo&#45;European &quot;*terə&#45;&quot; to corss over, pass through, overcome">
<polygon fill="none" stroke="black" points="732,-935 395,-935 395,-831 732,-831 732,-935"/>
<polygon fill="none" stroke="black" points="736,-939 391,-939 391,-827 736,-827 736,-939"/>
<text text-anchor="start" x="485.5" y="-890.8" font-family="Times New Roman,serif" font-weight="bold" font-size="24.00">Indo&#45;European</text>
<text text-anchor="start" x="421.5" y="-862.6" font-family="Times New Roman,serif" font-size="18.00" fill="red">*terə&#45;</text>
<text text-anchor="start" x="470.5" y="-863.2" font-family="Times New Roman,serif" font-size="16.00">to corss over, pass through, overcome</text>
</a>
</g>
</g>
<!-- treIE -->
<g id="node2" class="node">
<title>treIE</title>
<text text-anchor="start" x="241" y="-755.3" font-family="Times New Roman,serif" font-size="14.00" fill="red">*tr̥(ə)&#45;</text>
</g>
<!-- tereIE&#45;&gt;treIE -->
<g id="edge1" class="edge">
<title>tereIE&#45;&gt;treIE</title>
<path fill="none" stroke="black" d="M390.71,-827.65C361.09,-816.42 331.01,-803.77 303.5,-790 299.11,-787.8 294.64,-785.26 290.3,-782.59"/>
<polygon fill="black" stroke="black" points="291.96,-779.49 281.66,-777.02 288.17,-785.38 291.96,-779.49"/>
</g>
<!-- taratiSk -->
<g id="node23" class="node">
<title>taratiSk</title>
<text text-anchor="start" x="426.5" y="-768.8" font-family="Times New Roman,serif" font-weight="bold" font-size="14.00">Sanskrit</text>
<text text-anchor="start" x="438.5" y="-754.8" font-family="Times New Roman,serif" font-size="14.00" fill="red">tarati</text>
<text text-anchor="start" x="428.5" y="-742.4" font-family="Times New Roman,serif" font-size="12.00">he crosses</text>
</g>
<!-- tereIE&#45;&gt;taratiSk -->
<g id="edge22" class="edge">
<title>tereIE&#45;&gt;taratiSk</title>
<path fill="none" stroke="black" d="M513.2,-826.71C501.93,-814.33 490.38,-801.64 480.42,-790.69"/>
<polygon fill="black" stroke="black" points="482.79,-788.1 473.48,-783.05 477.62,-792.81 482.79,-788.1"/>
</g>
<!-- traIE -->
<g id="node27" class="node">
<title>traIE</title>
<text text-anchor="start" x="587.5" y="-552.3" font-family="Times New Roman,serif" font-size="14.00" fill="red">*trā&#45;</text>
</g>
<!-- tereIE&#45;&gt;traIE -->
<g id="edge26" class="edge">
<title>tereIE&#45;&gt;traIE</title>
<path fill="none" stroke="black" d="M575.36,-826.71C577.65,-814.65 579.85,-801.93 581.5,-790 591.74,-715.87 597.09,-627.66 599.28,-584.1"/>
<polygon fill="black" stroke="black" points="602.78,-584.19 599.76,-574.03 595.78,-583.85 602.78,-584.19"/>
</g>
<!-- truIE -->
<g id="node34" class="node">
<title>truIE</title>
<text text-anchor="start" x="713" y="-552.3" font-family="Times New Roman,serif" font-size="14.00" fill="red">*tru&#45;</text>
</g>
<!-- tereIE&#45;&gt;truIE -->
<g id="edge33" class="edge">
<title>tereIE&#45;&gt;truIE</title>
<path fill="none" stroke="black" d="M591.15,-826.87C626.64,-756.11 686.77,-636.21 713.28,-583.36"/>
<polygon fill="black" stroke="black" points="716.47,-584.8 717.83,-574.3 710.21,-581.67 716.47,-584.8"/>
<text text-anchor="middle" x="660" y="-698.8" font-family="Times New Roman,serif" font-size="14.00">?</text>
</g>
<!-- thurilaGmc -->
<g id="node3" class="node">
<title>thurilaGmc</title>
<text text-anchor="start" x="128" y="-650.8" font-family="Times New Roman,serif" font-weight="bold" font-size="14.00">Germanic</text>
<text text-anchor="start" x="133.5" y="-636.8" font-family="Times New Roman,serif" font-size="14.00" fill="red">*thur&#45;ila&#45;</text>
</g>
<!-- treIE&#45;&gt;thurilaGmc -->
<g id="edge2" class="edge">
<title>treIE&#45;&gt;thurilaGmc</title>
<path fill="none" stroke="black" d="M242.88,-740.81C226.22,-722.49 199.69,-693.31 180.83,-672.56"/>
<polygon fill="black" stroke="black" points="183.33,-670.11 174.02,-665.07 178.15,-674.82 183.33,-670.11"/>
</g>
<!-- trekweIE -->
<g id="node15" class="node">
<title>trekweIE</title>
<text text-anchor="start" x="227" y="-643.3" font-family="Times New Roman,serif" font-size="14.00" fill="red">*tr̥ə&#45;kʷe</text>
</g>
<!-- treIE&#45;&gt;trekweIE -->
<g id="edge14" class="edge">
<title>treIE&#45;&gt;trekweIE</title>
<path fill="none" stroke="black" d="M257.09,-740.81C255.65,-723.21 253.4,-695.61 251.71,-675.07"/>
<polygon fill="black" stroke="black" points="255.2,-674.75 250.9,-665.07 248.22,-675.32 255.2,-674.75"/>
</g>
<!-- nektarGk -->
<g id="node21" class="node">
<title>nektarGk</title>
<text text-anchor="start" x="331.5" y="-662.8" font-family="Times New Roman,serif" font-weight="bold" font-size="14.00">Greek</text>
<text text-anchor="start" x="334.5" y="-648.8" font-family="Times New Roman,serif" font-size="14.00" fill="red">nektar</text>
<text text-anchor="start" x="306" y="-636.4" font-family="Times New Roman,serif" font-size="12.00">&quot;overcoming death,&quot;</text>
<text text-anchor="start" x="313" y="-624.4" font-family="Times New Roman,serif" font-size="12.00">drink of the gods</text>
</g>
<!-- treIE&#45;&gt;nektarGk -->
<g id="edge19" class="edge">
<title>treIE&#45;&gt;nektarGk</title>
<path fill="none" stroke="black" d="M273.03,-740.81C285.64,-725.9 304.32,-703.81 320.29,-684.92"/>
<polygon fill="black" stroke="black" points="323.16,-686.94 326.94,-677.05 317.81,-682.42 323.16,-686.94"/>
</g>
<!-- thyrelOE -->
<g id="node4" class="node">
<title>thyrelOE</title>
<text text-anchor="start" x="118" y="-565.8" font-family="Times New Roman,serif" font-weight="bold" font-size="14.00">Old English</text>
<text text-anchor="start" x="115" y="-551.8" font-family="Times New Roman,serif" font-size="14.00" fill="red">thyr(e)l, thȳrel</text>
<text text-anchor="start" x="140.5" y="-539.4" font-family="Times New Roman,serif" font-size="12.00">a hole</text>
</g>
<!-- thurilaGmc&#45;&gt;thyrelOE -->
<g id="edge3" class="edge">
<title>thurilaGmc&#45;&gt;thyrelOE</title>
<path fill="none" stroke="black" d="M157.73,-628.84C157.24,-617.92 156.59,-603.41 156,-590.29"/>
<polygon fill="black" stroke="black" points="159.49,-590 155.54,-580.17 152.49,-590.31 159.49,-590"/>
</g>
<!-- thyrlianOE -->
<g id="node5" class="node">
<title>thyrlianOE</title>
<text text-anchor="start" x="134" y="-461.3" font-family="Times New Roman,serif" font-size="14.00" fill="red">thȳrlian</text>
</g>
<!-- thyrelOE&#45;&gt;thyrlianOE -->
<g id="edge4" class="edge">
<title>thyrelOE&#45;&gt;thyrlianOE</title>
<path fill="none" stroke="black" d="M154.5,-531.62C154.5,-519.83 154.5,-505.46 154.5,-493.18"/>
<polygon fill="black" stroke="black" points="158,-493.04 154.5,-483.04 151,-493.04 158,-493.04"/>
</g>
<!-- nosthyrlOE -->
<g id="node12" class="node">
<title>nosthyrlOE</title>
<text text-anchor="start" x="41.5" y="-461.3" font-family="Times New Roman,serif" font-size="14.00" fill="red">nosthyrl</text>
</g>
<!-- thyrelOE&#45;&gt;nosthyrlOE -->
<g id="edge10" class="edge">
<title>thyrelOE&#45;&gt;nosthyrlOE</title>
<path fill="none" stroke="black" d="M130.85,-531.62C117.97,-518.87 102.04,-503.12 89.02,-490.25"/>
<polygon fill="black" stroke="black" points="91.3,-487.58 81.73,-483.04 86.38,-492.56 91.3,-487.58"/>
</g>
<!-- thirlenME -->
<g id="node6" class="node">
<title>thirlenME</title>
<text text-anchor="start" x="133" y="-324.8" font-family="Times New Roman,serif" font-weight="bold" font-size="14.00">Middle</text>
<text text-anchor="start" x="131.5" y="-310.8" font-family="Times New Roman,serif" font-weight="bold" font-size="14.00">English</text>
<text text-anchor="start" x="137.5" y="-296.8" font-family="Times New Roman,serif" font-size="14.00" fill="red">thirlen</text>
<text text-anchor="start" x="134.5" y="-284.4" font-family="Times New Roman,serif" font-size="12.00">to pierce</text>
</g>
<!-- thyrlianOE&#45;&gt;thirlenME -->
<g id="edge5" class="edge">
<title>thyrlianOE&#45;&gt;thirlenME</title>
<path fill="none" stroke="black" d="M154.5,-446.82C154.5,-423.45 154.5,-380.93 154.5,-349.28"/>
<polygon fill="black" stroke="black" points="158,-349 154.5,-339 151,-349 158,-349"/>
</g>
<!-- thrillenME -->
<g id="node7" class="node">
<title>thrillenME</title>
<text text-anchor="start" x="136" y="-149.3" font-family="Times New Roman,serif" font-size="14.00" fill="red">thrillen</text>
</g>
<!-- thirlenME&#45;&gt;thrillenME -->
<g id="edge6" class="edge">
<title>thirlenME&#45;&gt;thrillenME</title>
<path fill="none" stroke="black" d="M154.5,-276.77C154.5,-249.06 154.5,-208.38 154.5,-181.55"/>
<polygon fill="black" stroke="black" points="158,-181.32 154.5,-171.32 151,-181.32 158,-181.32"/>
</g>
<!-- thrill -->
<g id="node8" class="node">
<title>thrill</title>
<text text-anchor="start" x="130" y="-56.8" font-family="Times New Roman,serif" font-weight="bold" font-size="14.00">Modern</text>
<text text-anchor="start" x="131.5" y="-42.8" font-family="Times New Roman,serif" font-weight="bold" font-size="14.00">English</text>
<text text-anchor="start" x="142" y="-28.8" font-family="Times New Roman,serif" font-size="14.00" fill="red">thrill</text>
</g>
<!-- thrillenME&#45;&gt;thrill -->
<g id="edge7" class="edge">
<title>thrillenME&#45;&gt;thrill</title>
<path fill="none" stroke="black" d="M154.5,-134.66C154.5,-120.15 154.5,-99.01 154.5,-81.12"/>
<polygon fill="black" stroke="black" points="158,-81.04 154.5,-71.04 151,-81.04 158,-81.04"/>
</g>
<!-- nasIE -->
<g id="node9" class="node">
<title>nasIE</title>
<g id="a_node9"><a xlink:href="nas-nose.svg" xlink:title="&lt;b&gt;Indo&#45;&lt;br/&gt;European&lt;/b&gt;&lt;br/&gt;&lt;font color=&quot;red&quot;&gt;*nas&#45;&lt;/font&gt;&lt;br/&gt;&lt;font point&#45;size=&quot;12&quot;&gt;nose&lt;/font&gt;">
<path fill="none" stroke="black" stroke-dasharray="5,2" d="M71,-790C71,-790 18,-790 18,-790 12,-790 6,-784 6,-778 6,-778 6,-740 6,-740 6,-734 12,-728 18,-728 18,-728 71,-728 71,-728 77,-728 83,-734 83,-740 83,-740 83,-778 83,-778 83,-784 77,-790 71,-790"/>
<text text-anchor="start" x="28" y="-775.8" font-family="Times New Roman,serif" font-weight="bold" font-size="14.00">Indo&#45;</text>
<text text-anchor="start" x="14" y="-761.8" font-family="Times New Roman,serif" font-weight="bold" font-size="14.00">European</text>
<text text-anchor="start" x="29" y="-747.8" font-family="Times New Roman,serif" font-size="14.00" fill="red">*nas&#45;</text>
<text text-anchor="start" x="33.5" y="-735.4" font-family="Times New Roman,serif" font-size="12.00">nose</text>
</a>
</g>
</g>
<!-- nusoGmc -->
<g id="node10" class="node">
<title>nusoGmc</title>
<text text-anchor="start" x="14" y="-650.8" font-family="Times New Roman,serif" font-weight="bold" font-size="14.00">Germanic</text>
<text text-anchor="start" x="27.5" y="-636.8" font-family="Times New Roman,serif" font-size="14.00" fill="red">*nusō</text>
</g>
<!-- nasIE&#45;&gt;nusoGmc -->
<g id="edge8" class="edge">
<title>nasIE&#45;&gt;nusoGmc</title>
<path fill="none" stroke="black" d="M44.5,-727.94C44.5,-711.51 44.5,-691.3 44.5,-675.32"/>
<polygon fill="black" stroke="black" points="48,-675.02 44.5,-665.02 41,-675.02 48,-675.02"/>
</g>
<!-- nosuOE -->
<g id="node11" class="node">
<title>nosuOE</title>
<text text-anchor="start" x="8" y="-559.8" font-family="Times New Roman,serif" font-weight="bold" font-size="14.00">Old English</text>
<text text-anchor="start" x="30.5" y="-545.8" font-family="Times New Roman,serif" font-size="14.00" fill="red">nosu</text>
</g>
<!-- nusoGmc&#45;&gt;nosuOE -->
<g id="edge9" class="edge">
<title>nusoGmc&#45;&gt;nosuOE</title>
<path fill="none" stroke="black" d="M44.5,-628.84C44.5,-616.28 44.5,-598.98 44.5,-584.5"/>
<polygon fill="black" stroke="black" points="48,-584.11 44.5,-574.11 41,-584.11 48,-584.11"/>
</g>
<!-- nosuOE&#45;&gt;nosthyrlOE -->
<g id="edge11" class="edge">
<title>nosuOE&#45;&gt;nosthyrlOE</title>
<path fill="none" stroke="black" d="M48.36,-537.84C51.21,-525.16 55.14,-507.64 58.42,-493.08"/>
<polygon fill="black" stroke="black" points="61.88,-493.63 60.66,-483.11 55.05,-492.1 61.88,-493.63"/>
</g>
<!-- nostrilleME -->
<g id="node13" class="node">
<title>nostrilleME</title>
<text text-anchor="start" x="43" y="-237.8" font-family="Times New Roman,serif" font-weight="bold" font-size="14.00">Middle</text>
<text text-anchor="start" x="41.5" y="-223.8" font-family="Times New Roman,serif" font-weight="bold" font-size="14.00">English</text>
<text text-anchor="start" x="42.5" y="-209.8" font-family="Times New Roman,serif" font-size="14.00" fill="red">nostrille</text>
</g>
<!-- nosthyrlOE&#45;&gt;nostrilleME -->
<g id="edge12" class="edge">
<title>nosthyrlOE&#45;&gt;nostrilleME</title>
<path fill="none" stroke="black" d="M64.5,-446.65C64.5,-407.89 64.5,-313.68 64.5,-262.49"/>
<polygon fill="black" stroke="black" points="68,-262.26 64.5,-252.26 61,-262.26 68,-262.26"/>
</g>
<!-- nostril -->
<g id="node14" class="node">
<title>nostril</title>
<text text-anchor="start" x="40" y="-56.8" font-family="Times New Roman,serif" font-weight="bold" font-size="14.00">Modern</text>
<text text-anchor="start" x="41.5" y="-42.8" font-family="Times New Roman,serif" font-weight="bold" font-size="14.00">English</text>
<text text-anchor="start" x="47" y="-28.8" font-family="Times New Roman,serif" font-size="14.00" fill="red">nostril</text>
</g>
<!-- nostrilleME&#45;&gt;nostril -->
<g id="edge13" class="edge">
<title>nostrilleME&#45;&gt;nostril</title>
<path fill="none" stroke="black" d="M64.5,-201.86C64.5,-170.81 64.5,-116.69 64.5,-81.36"/>
<polygon fill="black" stroke="black" points="68,-81.04 64.5,-71.04 61,-81.04 68,-81.04"/>
</g>
<!-- thurhGmc -->
<g id="node16" class="node">
<title>thurhGmc</title>
<text text-anchor="start" x="228" y="-559.8" font-family="Times New Roman,serif" font-weight="bold" font-size="14.00">Germanic</text>
<text text-anchor="start" x="240.5" y="-545.8" font-family="Times New Roman,serif" font-size="14.00" fill="red">*thurh</text>
</g>
<!-- trekweIE&#45;&gt;thurhGmc -->
<g id="edge15" class="edge">
<title>trekweIE&#45;&gt;thurhGmc</title>
<path fill="none" stroke="black" d="M251.24,-628.84C252.52,-616.16 254.29,-598.64 255.76,-584.08"/>
<polygon fill="black" stroke="black" points="259.25,-584.41 256.77,-574.11 252.28,-583.7 259.25,-584.41"/>
</g>
<!-- thuruhOE -->
<g id="node17" class="node">
<title>thuruhOE</title>
<text text-anchor="start" x="222" y="-480.8" font-family="Times New Roman,serif" font-weight="bold" font-size="14.00">Old English</text>
<text text-anchor="start" x="240.5" y="-466.8" font-family="Times New Roman,serif" font-size="14.00" fill="red">thuruh</text>
<text text-anchor="start" x="220.5" y="-454.4" font-family="Times New Roman,serif" font-size="12.00">from end to end,</text>
<text text-anchor="start" x="241.5" y="-442.4" font-family="Times New Roman,serif" font-size="12.00">through</text>
</g>
<!-- thurhGmc&#45;&gt;thuruhOE -->
<g id="edge16" class="edge">
<title>thurhGmc&#45;&gt;thuruhOE</title>
<path fill="none" stroke="black" d="M258.5,-537.84C258.5,-528.56 258.5,-516.69 258.5,-505.28"/>
<polygon fill="black" stroke="black" points="262,-505.02 258.5,-495.02 255,-505.02 262,-505.02"/>
</g>
<!-- thorowME -->
<g id="node18" class="node">
<title>thorowME</title>
<text text-anchor="start" x="237" y="-244.8" font-family="Times New Roman,serif" font-weight="bold" font-size="14.00">Middle</text>
<text text-anchor="start" x="235.5" y="-230.8" font-family="Times New Roman,serif" font-weight="bold" font-size="14.00">English</text>
<text text-anchor="start" x="238.5" y="-216.8" font-family="Times New Roman,serif" font-size="14.00" fill="red">thorow</text>
<text text-anchor="start" x="237" y="-202.8" font-family="Times New Roman,serif" font-size="14.00" fill="red">through</text>
</g>
<!-- thuruhOE&#45;&gt;thorowME -->
<g id="edge17" class="edge">
<title>thuruhOE&#45;&gt;thorowME</title>
<path fill="none" stroke="black" d="M258.5,-434.59C258.5,-393 258.5,-316.83 258.5,-269.5"/>
<polygon fill="black" stroke="black" points="262,-269.29 258.5,-259.29 255,-269.29 262,-269.29"/>
</g>
<!-- thorough -->
<g id="node19" class="node">
<title>thorough</title>
<text text-anchor="start" x="234" y="-63.8" font-family="Times New Roman,serif" font-weight="bold" font-size="14.00">Modern</text>
<text text-anchor="start" x="235.5" y="-49.8" font-family="Times New Roman,serif" font-weight="bold" font-size="14.00">English</text>
<text text-anchor="start" x="233" y="-35.8" font-family="Times New Roman,serif" font-size="14.00" fill="red">thorough</text>
<text text-anchor="start" x="237" y="-21.8" font-family="Times New Roman,serif" font-size="14.00" fill="red">through</text>
</g>
<!-- thorowME&#45;&gt;thorough -->
<g id="edge18" class="edge">
<title>thorowME&#45;&gt;thorough</title>
<path fill="none" stroke="black" d="M258.5,-194.82C258.5,-165.27 258.5,-120.68 258.5,-88.21"/>
<polygon fill="black" stroke="black" points="262,-88.12 258.5,-78.12 255,-88.12 262,-88.12"/>
</g>
<!-- nekIE -->
<g id="node20" class="node">
<title>nekIE</title>
<g id="a_node20"><a xlink:href="nek-death.svg" xlink:title="&lt;b&gt;Indo&#45;&lt;br/&gt;European&lt;/b&gt;&lt;br/&gt;&lt;font color=&quot;red&quot;&gt;*nek&#45;&lt;/font&gt;&lt;br/&gt;&lt;font point&#45;size=&quot;12&quot;&gt;death&lt;/font&gt;">
<path fill="none" stroke="black" stroke-dasharray="5,2" d="M378,-790C378,-790 325,-790 325,-790 319,-790 313,-784 313,-778 313,-778 313,-740 313,-740 313,-734 319,-728 325,-728 325,-728 378,-728 378,-728 384,-728 390,-734 390,-740 390,-740 390,-778 390,-778 390,-784 384,-790 378,-790"/>
<text text-anchor="start" x="335" y="-775.8" font-family="Times New Roman,serif" font-weight="bold" font-size="14.00">Indo&#45;</text>
<text text-anchor="start" x="321" y="-761.8" font-family="Times New Roman,serif" font-weight="bold" font-size="14.00">European</text>
<text text-anchor="start" x="336" y="-747.8" font-family="Times New Roman,serif" font-size="14.00" fill="red">*nek&#45;</text>
<text text-anchor="start" x="339" y="-735.4" font-family="Times New Roman,serif" font-size="12.00">death</text>
</a>
</g>
</g>
<!-- nekIE&#45;&gt;nektarGk -->
<g id="edge20" class="edge">
<title>nekIE&#45;&gt;nektarGk</title>
<path fill="none" stroke="black" d="M351.5,-727.94C351.5,-715.49 351.5,-700.88 351.5,-687.58"/>
<polygon fill="black" stroke="black" points="355,-687.26 351.5,-677.26 348,-687.26 355,-687.26"/>
</g>
<!-- nectar -->
<g id="node22" class="node">
<title>nectar</title>
<text text-anchor="start" x="327" y="-63.8" font-family="Times New Roman,serif" font-weight="bold" font-size="14.00">Modern</text>
<text text-anchor="start" x="328.5" y="-49.8" font-family="Times New Roman,serif" font-weight="bold" font-size="14.00">English</text>
<text text-anchor="start" x="334.5" y="-35.8" font-family="Times New Roman,serif" font-size="14.00" fill="red">nectar</text>
<text text-anchor="start" x="326.5" y="-21.8" font-family="Times New Roman,serif" font-size="14.00" fill="red">nectarine</text>
</g>
<!-- nektarGk&#45;&gt;nectar -->
<g id="edge21" class="edge">
<title>nektarGk&#45;&gt;nectar</title>
<path fill="none" stroke="black" stroke-dasharray="5,2" d="M351.5,-616.74C351.5,-599.38 351.5,-576.93 351.5,-557 351.5,-557 351.5,-557 351.5,-152 351.5,-130.99 351.5,-107.6 351.5,-88.25"/>
<polygon fill="black" stroke="black" points="355,-88.24 351.5,-78.24 348,-88.24 355,-88.24"/>
</g>
<!-- avatarahSk -->
<g id="node25" class="node">
<title>avatarahSk</title>
<text text-anchor="start" x="460.5" y="-655.8" font-family="Times New Roman,serif" font-size="14.00" fill="red">avatāraḥ</text>
<text text-anchor="start" x="431.5" y="-643.4" font-family="Times New Roman,serif" font-size="12.00">descent (from heaven),</text>
<text text-anchor="start" x="469.5" y="-631.4" font-family="Times New Roman,serif" font-size="12.00">avatar</text>
</g>
<!-- taratiSk&#45;&gt;avatarahSk -->
<g id="edge23" class="edge">
<title>taratiSk&#45;&gt;avatarahSk</title>
<path fill="none" stroke="black" d="M459,-734.94C463.48,-719.04 469.5,-697.68 474.45,-680.11"/>
<polygon fill="black" stroke="black" points="477.88,-680.85 477.22,-670.28 471.14,-678.95 477.88,-680.85"/>
</g>
<!-- avaSk -->
<g id="node24" class="node">
<title>avaSk</title>
<text text-anchor="start" x="512.5" y="-768.8" font-family="Times New Roman,serif" font-weight="bold" font-size="14.00">Sanskrit</text>
<text text-anchor="start" x="529" y="-754.8" font-family="Times New Roman,serif" font-size="14.00" fill="red">ava</text>
<text text-anchor="start" x="525.5" y="-742.4" font-family="Times New Roman,serif" font-size="12.00">down</text>
</g>
<!-- avaSk&#45;&gt;avatarahSk -->
<g id="edge24" class="edge">
<title>avaSk&#45;&gt;avatarahSk</title>
<path fill="none" stroke="black" d="M526.97,-734.94C518.94,-718.89 508.14,-697.28 499.31,-679.62"/>
<polygon fill="black" stroke="black" points="502.24,-677.66 494.64,-670.28 495.98,-680.79 502.24,-677.66"/>
</g>
<!-- avatar -->
<g id="node26" class="node">
<title>avatar</title>
<text text-anchor="start" x="435" y="-56.8" font-family="Times New Roman,serif" font-weight="bold" font-size="14.00">Modern</text>
<text text-anchor="start" x="436.5" y="-42.8" font-family="Times New Roman,serif" font-weight="bold" font-size="14.00">English</text>
<text text-anchor="start" x="442.5" y="-28.8" font-family="Times New Roman,serif" font-size="14.00" fill="red">avatar</text>
</g>
<!-- avatarahSk&#45;&gt;avatar -->
<g id="edge25" class="edge">
<title>avatarahSk&#45;&gt;avatar</title>
<path fill="none" stroke="black" stroke-dasharray="5,2" d="M474.01,-623.77C467.31,-606.03 459.5,-580.36 459.5,-557 459.5,-557 459.5,-557 459.5,-152 459.5,-128.4 459.5,-101.83 459.5,-81.31"/>
<polygon fill="black" stroke="black" points="463,-81.19 459.5,-71.19 456,-81.19 463,-81.19"/>
</g>
<!-- transL -->
<g id="node28" class="node">
<title>transL</title>
<text text-anchor="start" x="526" y="-402.8" font-family="Times New Roman,serif" font-weight="bold" font-size="14.00">Latin</text>
<text text-anchor="start" x="509" y="-388.8" font-family="Times New Roman,serif" font-size="14.00" fill="red">trāns, trāns&#45;</text>
<text text-anchor="start" x="506" y="-376.4" font-family="Times New Roman,serif" font-size="12.00">across, beyond,</text>
<text text-anchor="start" x="525.5" y="-364.4" font-family="Times New Roman,serif" font-size="12.00">through</text>
</g>
<!-- traIE&#45;&gt;transL -->
<g id="edge27" class="edge">
<title>traIE&#45;&gt;transL</title>
<path fill="none" stroke="black" d="M588.95,-537.82C581.59,-526.18 572.36,-510.19 566.5,-495 558.12,-473.27 552.27,-447.87 548.44,-427.28"/>
<polygon fill="black" stroke="black" points="551.86,-426.53 546.67,-417.29 544.97,-427.75 551.86,-426.53"/>
</g>
<!-- trayoIE -->
<g id="node30" class="node">
<title>trayoIE</title>
<text text-anchor="start" x="584" y="-461.3" font-family="Times New Roman,serif" font-size="14.00" fill="red">*trā&#45;yo&#45;</text>
</g>
<!-- traIE&#45;&gt;trayoIE -->
<g id="edge29" class="edge">
<title>traIE&#45;&gt;trayoIE</title>
<path fill="none" stroke="black" d="M601.66,-537.84C602.5,-525.28 603.67,-507.98 604.65,-493.5"/>
<polygon fill="black" stroke="black" points="608.17,-493.32 605.35,-483.11 601.18,-492.85 608.17,-493.32"/>
</g>
<!-- trans -->
<g id="node29" class="node">
<title>trans</title>
<text text-anchor="start" x="518" y="-56.8" font-family="Times New Roman,serif" font-weight="bold" font-size="14.00">Modern</text>
<text text-anchor="start" x="519.5" y="-42.8" font-family="Times New Roman,serif" font-weight="bold" font-size="14.00">English</text>
<text text-anchor="start" x="526.5" y="-28.8" font-family="Times New Roman,serif" font-size="14.00" fill="red">trans&#45;</text>
</g>
<!-- transL&#45;&gt;trans -->
<g id="edge28" class="edge">
<title>transL&#45;&gt;trans</title>
<path fill="none" stroke="black" stroke-dasharray="5,2" d="M542.5,-356.8C542.5,-294.43 542.5,-148.42 542.5,-81.55"/>
<polygon fill="black" stroke="black" points="546,-81.15 542.5,-71.15 539,-81.15 546,-81.15"/>
</g>
<!-- thrayaIr -->
<g id="node31" class="node">
<title>thrayaIr</title>
<text text-anchor="start" x="592.5" y="-317.8" font-family="Times New Roman,serif" font-weight="bold" font-size="14.00">Iranian</text>
<text text-anchor="start" x="592.5" y="-303.8" font-family="Times New Roman,serif" font-size="14.00" fill="red">*thrāya&#45;</text>
<text text-anchor="start" x="593" y="-291.4" font-family="Times New Roman,serif" font-size="12.00">to protect</text>
</g>
<!-- trayoIE&#45;&gt;thrayaIr -->
<g id="edge30" class="edge">
<title>trayoIE&#45;&gt;thrayaIr</title>
<path fill="none" stroke="black" d="M607.5,-446.82C608.96,-421.68 611.7,-374.38 613.57,-342.28"/>
<polygon fill="black" stroke="black" points="617.08,-342.22 614.16,-332.04 610.09,-341.82 617.08,-342.22"/>
</g>
<!-- sarayP -->
<g id="node32" class="node">
<title>sarayP</title>
<text text-anchor="start" x="609" y="-162.8" font-family="Times New Roman,serif" font-weight="bold" font-size="14.00">Persian</text>
<text text-anchor="start" x="617.5" y="-148.8" font-family="Times New Roman,serif" font-size="14.00" fill="red">sarāy</text>
<text text-anchor="start" x="608" y="-136.4" font-family="Times New Roman,serif" font-size="12.00">inn, palace</text>
</g>
<!-- thrayaIr&#45;&gt;sarayP -->
<g id="edge31" class="edge">
<title>thrayaIr&#45;&gt;sarayP</title>
<path fill="none" stroke="black" d="M618.08,-283.76C620.93,-258.15 625.53,-216.73 628.77,-187.58"/>
<polygon fill="black" stroke="black" points="632.27,-187.78 629.89,-177.46 625.31,-187.01 632.27,-187.78"/>
</g>
<!-- serai -->
<g id="node33" class="node">
<title>serai</title>
<text text-anchor="start" x="610" y="-70.8" font-family="Times New Roman,serif" font-weight="bold" font-size="14.00">Modern</text>
<text text-anchor="start" x="611.5" y="-56.8" font-family="Times New Roman,serif" font-weight="bold" font-size="14.00">English</text>
<text text-anchor="start" x="621.5" y="-42.8" font-family="Times New Roman,serif" font-size="14.00" fill="red">serai</text>
<text text-anchor="start" x="601" y="-28.8" font-family="Times New Roman,serif" font-size="14.00" fill="red">caravansary</text>
<text text-anchor="start" x="610" y="-14.8" font-family="Times New Roman,serif" font-size="14.00" fill="red">lamasery</text>
</g>
<!-- sarayP&#45;&gt;serai -->
<g id="edge32" class="edge">
<title>sarayP&#45;&gt;serai</title>
<path fill="none" stroke="black" stroke-dasharray="5,2" d="M632.94,-128.96C633.13,-119.06 633.36,-107.09 633.58,-95.4"/>
<polygon fill="black" stroke="black" points="637.08,-95.32 633.77,-85.26 630.08,-95.19 637.08,-95.32"/>
</g>
<!-- trukIE -->
<g id="node35" class="node">
<title>trukIE</title>
<text text-anchor="start" x="707.5" y="-461.3" font-family="Times New Roman,serif" font-size="14.00" fill="red">*tru&#45;k&#45;</text>
</g>
<!-- truIE&#45;&gt;trukIE -->
<g id="edge34" class="edge">
<title>truIE&#45;&gt;trukIE</title>
<path fill="none" stroke="black" d="M726.5,-537.84C726.5,-525.28 726.5,-507.98 726.5,-493.5"/>
<polygon fill="black" stroke="black" points="730,-493.11 726.5,-483.11 723,-493.11 730,-493.11"/>
</g>
<!-- trunkoIE -->
<g id="node39" class="node">
<title>trunkoIE</title>
<text text-anchor="start" x="781" y="-461.3" font-family="Times New Roman,serif" font-size="14.00" fill="red">*tru&#45;n&#45;k&#45;o&#45;</text>
</g>
<!-- truIE&#45;&gt;trunkoIE -->
<g id="edge38" class="edge">
<title>truIE&#45;&gt;trunkoIE</title>
<path fill="none" stroke="black" d="M742.89,-537.84C755.71,-524.42 773.7,-505.58 788.04,-490.56"/>
<polygon fill="black" stroke="black" points="790.79,-492.76 795.16,-483.11 785.72,-487.92 790.79,-492.76"/>
</g>
<!-- truxL -->
<g id="node36" class="node">
<title>truxL</title>
<text text-anchor="start" x="710" y="-317.8" font-family="Times New Roman,serif" font-weight="bold" font-size="14.00">Latin</text>
<text text-anchor="start" x="698.5" y="-303.8" font-family="Times New Roman,serif" font-size="14.00" fill="red">trux, truc&#45;</text>
<text text-anchor="start" x="714" y="-291.4" font-family="Times New Roman,serif" font-size="12.00">fierce</text>
</g>
<!-- trukIE&#45;&gt;truxL -->
<g id="edge35" class="edge">
<title>trukIE&#45;&gt;truxL</title>
<path fill="none" stroke="black" d="M726.5,-446.82C726.5,-421.68 726.5,-374.38 726.5,-342.28"/>
<polygon fill="black" stroke="black" points="730,-342.04 726.5,-332.04 723,-342.04 730,-342.04"/>
</g>
<!-- truculentusL -->
<g id="node37" class="node">
<title>truculentusL</title>
<text text-anchor="start" x="696" y="-149.3" font-family="Times New Roman,serif" font-size="14.00" fill="red">truculentus</text>
</g>
<!-- truxL&#45;&gt;truculentusL -->
<g id="edge36" class="edge">
<title>truxL&#45;&gt;truculentusL</title>
<path fill="none" stroke="black" d="M726.5,-283.76C726.5,-256.34 726.5,-210.78 726.5,-181.58"/>
<polygon fill="black" stroke="black" points="730,-181.27 726.5,-171.27 723,-181.27 730,-181.27"/>
</g>
<!-- truculent -->
<g id="node38" class="node">
<title>truculent</title>
<text text-anchor="start" x="702" y="-56.8" font-family="Times New Roman,serif" font-weight="bold" font-size="14.00">Modern</text>
<text text-anchor="start" x="703.5" y="-42.8" font-family="Times New Roman,serif" font-weight="bold" font-size="14.00">English</text>
<text text-anchor="start" x="702" y="-28.8" font-family="Times New Roman,serif" font-size="14.00" fill="red">truculent</text>
</g>
<!-- truculentusL&#45;&gt;truculent -->
<g id="edge37" class="edge">
<title>truculentusL&#45;&gt;truculent</title>
<path fill="none" stroke="black" stroke-dasharray="5,2" d="M726.5,-134.66C726.5,-120.15 726.5,-99.01 726.5,-81.12"/>
<polygon fill="black" stroke="black" points="730,-81.04 726.5,-71.04 723,-81.04 730,-81.04"/>
</g>
<!-- truncusL -->
<g id="node40" class="node">
<title>truncusL</title>
<text text-anchor="start" x="796" y="-236.8" font-family="Times New Roman,serif" font-weight="bold" font-size="14.00">Latin</text>
<text text-anchor="start" x="791.5" y="-222.8" font-family="Times New Roman,serif" font-size="14.00" fill="red">truncus</text>
<text text-anchor="start" x="764.5" y="-210.4" font-family="Times New Roman,serif" font-size="12.00">deprived of branches</text>
</g>
<!-- trunkoIE&#45;&gt;truncusL -->
<g id="edge39" class="edge">
<title>trunkoIE&#45;&gt;truncusL</title>
<path fill="none" stroke="black" d="M811.57,-446.65C811.74,-407.59 812.14,-312.23 812.36,-261.32"/>
<polygon fill="black" stroke="black" points="815.86,-261.18 812.4,-251.16 808.86,-261.15 815.86,-261.18"/>
</g>
<!-- trunk -->
<g id="node41" class="node">
<title>trunk</title>
<text text-anchor="start" x="789" y="-77.8" font-family="Times New Roman,serif" font-weight="bold" font-size="14.00">Modern</text>
<text text-anchor="start" x="790.5" y="-63.8" font-family="Times New Roman,serif" font-weight="bold" font-size="14.00">English</text>
<text text-anchor="start" x="799" y="-49.8" font-family="Times New Roman,serif" font-size="14.00" fill="red">trunk</text>
<text text-anchor="start" x="791" y="-35.8" font-family="Times New Roman,serif" font-size="14.00" fill="red">truncate</text>
<text text-anchor="start" x="796" y="-21.8" font-family="Times New Roman,serif" font-size="14.00" fill="red">trench</text>
<text text-anchor="start" x="785.5" y="-7.8" font-family="Times New Roman,serif" font-size="14.00" fill="red">truncheon</text>
</g>
<!-- truncusL&#45;&gt;trunk -->
<g id="edge40" class="edge">
<title>truncusL&#45;&gt;trunk</title>
<path fill="none" stroke="black" stroke-dasharray="5,2" d="M812.63,-202.97C812.77,-177.72 813,-136.32 813.19,-102.51"/>
<polygon fill="black" stroke="black" points="816.69,-102.31 813.25,-92.29 809.69,-102.27 816.69,-102.31"/>
</g>
</g>
</svg>
