<?xml version="1.0" encoding="UTF-8" standalone="no"?>
<!DOCTYPE svg PUBLIC "-//W3C//DTD SVG 1.1//EN"
 "http://www.w3.org/Graphics/SVG/1.1/DTD/svg11.dtd">
<!-- Generated by graphviz version 2.49.0 (20210828.1703)
 -->
<!-- Pages: 1 -->
<svg width="1245pt" height="744pt"
 viewBox="0.00 0.00 1244.50 744.00" xmlns="http://www.w3.org/2000/svg" xmlns:xlink="http://www.w3.org/1999/xlink">
<g id="graph0" class="graph" transform="scale(1 1) rotate(0) translate(4 740)">
<polygon fill="white" stroke="transparent" points="-4,4 -4,-740 1240.5,-740 1240.5,4 -4,4"/>
<!-- ters -->
<g id="node1" class="node">
<title>ters</title>
<g id="a_node1"><a xlink:title="Indo&#45;European &quot;*ters&#45;&quot; to dry">
<polygon fill="none" stroke="black" points="614,-732 403,-732 403,-628 614,-628 614,-732"/>
<polygon fill="none" stroke="black" points="618,-736 399,-736 399,-624 618,-624 618,-736"/>
<text text-anchor="start" x="430.5" y="-687.8" font-family="Times New Roman,serif" font-weight="bold" font-size="24.00">Indo&#45;European</text>
<text text-anchor="start" x="448" y="-659.6" font-family="Times New Roman,serif" font-size="18.00" fill="red">*ters&#45;</text>
<text text-anchor="start" x="533" y="-660.2" font-family="Times New Roman,serif" font-size="16.00">to dry</text>
</a>
</g>
</g>
<!-- trs -->
<g id="node2" class="node">
<title>trs</title>
<text text-anchor="start" x="32.5" y="-553.3" font-family="Times New Roman,serif" font-size="14.00" fill="red">*tr̥s&#45;</text>
</g>
<!-- ters&#45;&gt;trs -->
<g id="edge1" class="edge">
<title>ters&#45;&gt;trs</title>
<path fill="none" stroke="black" d="M398.96,-670.31C309.78,-659.86 182.57,-637.11 81.5,-588 77.82,-586.21 74.19,-583.97 70.75,-581.51"/>
<polygon fill="black" stroke="black" points="72.63,-578.55 62.61,-575.13 68.32,-584.06 72.63,-578.55"/>
</g>
<!-- tersa -->
<g id="node8" class="node">
<title>tersa</title>
<text text-anchor="start" x="487" y="-553.3" font-family="Times New Roman,serif" font-size="14.00" fill="red">*ters&#45;ā&#45;</text>
</g>
<!-- ters&#45;&gt;tersa -->
<g id="edge7" class="edge">
<title>ters&#45;&gt;tersa</title>
<path fill="none" stroke="black" d="M508.5,-623.81C508.5,-610.49 508.5,-596.83 508.5,-585.42"/>
<polygon fill="black" stroke="black" points="512,-585.27 508.5,-575.27 505,-585.27 512,-585.27"/>
</g>
<!-- torseyo -->
<g id="node49" class="node">
<title>torseyo</title>
<text text-anchor="start" x="982.5" y="-553.3" font-family="Times New Roman,serif" font-size="14.00" fill="red">*tors&#45;eyo&#45;</text>
</g>
<!-- ters&#45;&gt;torseyo -->
<g id="edge48" class="edge">
<title>ters&#45;&gt;torseyo</title>
<path fill="none" stroke="black" d="M618.21,-665.17C709.7,-651.62 842.53,-627.2 953.5,-588 960.04,-585.69 966.76,-582.77 973.2,-579.67"/>
<polygon fill="black" stroke="black" points="975.04,-582.66 982.4,-575.04 971.89,-576.41 975.04,-582.66"/>
</g>
<!-- thursGm -->
<g id="node3" class="node">
<title>thursGm</title>
<text text-anchor="start" x="14" y="-469.8" font-family="Times New Roman,serif" font-weight="bold" font-size="14.00">Germanic</text>
<text text-anchor="start" x="24.5" y="-455.8" font-family="Times New Roman,serif" font-size="14.00" fill="red">*thurs&#45;</text>
</g>
<!-- trs&#45;&gt;thursGm -->
<g id="edge2" class="edge">
<title>trs&#45;&gt;thursGm</title>
<path fill="none" stroke="black" d="M45.31,-538.84C45.17,-526.28 44.97,-508.98 44.81,-494.5"/>
<polygon fill="black" stroke="black" points="48.3,-494.07 44.69,-484.11 41.3,-494.15 48.3,-494.07"/>
</g>
<!-- thurstuGm -->
<g id="node4" class="node">
<title>thurstuGm</title>
<text text-anchor="start" x="17" y="-371.3" font-family="Times New Roman,serif" font-size="14.00" fill="red">*thurs&#45;tu&#45;</text>
</g>
<!-- thursGm&#45;&gt;thurstuGm -->
<g id="edge3" class="edge">
<title>thursGm&#45;&gt;thurstuGm</title>
<path fill="none" stroke="black" d="M44.5,-447.84C44.5,-435.28 44.5,-417.98 44.5,-403.5"/>
<polygon fill="black" stroke="black" points="48,-403.11 44.5,-393.11 41,-403.11 48,-403.11"/>
</g>
<!-- thurstOE -->
<g id="node5" class="node">
<title>thurstOE</title>
<text text-anchor="start" x="8" y="-292.8" font-family="Times New Roman,serif" font-weight="bold" font-size="14.00">Old English</text>
<text text-anchor="start" x="28.5" y="-278.8" font-family="Times New Roman,serif" font-size="14.00" fill="red">thurst</text>
<text text-anchor="start" x="13" y="-266.4" font-family="Times New Roman,serif" font-size="12.00">dryness, thirst</text>
</g>
<!-- thurstuGm&#45;&gt;thurstOE -->
<g id="edge4" class="edge">
<title>thurstuGm&#45;&gt;thurstOE</title>
<path fill="none" stroke="black" d="M44.5,-356.65C44.5,-345.52 44.5,-330.72 44.5,-317.38"/>
<polygon fill="black" stroke="black" points="48,-317.09 44.5,-307.09 41,-317.09 48,-317.09"/>
</g>
<!-- thirstME -->
<g id="node6" class="node">
<title>thirstME</title>
<text text-anchor="start" x="23" y="-207.8" font-family="Times New Roman,serif" font-weight="bold" font-size="14.00">Middle</text>
<text text-anchor="start" x="21.5" y="-193.8" font-family="Times New Roman,serif" font-weight="bold" font-size="14.00">English</text>
<text text-anchor="start" x="30.5" y="-179.8" font-family="Times New Roman,serif" font-size="14.00" fill="red">thirst</text>
</g>
<!-- thurstOE&#45;&gt;thirstME -->
<g id="edge5" class="edge">
<title>thurstOE&#45;&gt;thirstME</title>
<path fill="none" stroke="black" d="M44.5,-258.6C44.5,-250.44 44.5,-241.1 44.5,-232.23"/>
<polygon fill="black" stroke="black" points="48,-232.15 44.5,-222.15 41,-232.15 48,-232.15"/>
</g>
<!-- thirst -->
<g id="node7" class="node">
<title>thirst</title>
<text text-anchor="start" x="20" y="-35.8" font-family="Times New Roman,serif" font-weight="bold" font-size="14.00">Modern</text>
<text text-anchor="start" x="21.5" y="-21.8" font-family="Times New Roman,serif" font-weight="bold" font-size="14.00">English</text>
<text text-anchor="start" x="30.5" y="-7.8" font-family="Times New Roman,serif" font-size="14.00" fill="red">thirst</text>
</g>
<!-- thirstME&#45;&gt;thirst -->
<g id="edge6" class="edge">
<title>thirstME&#45;&gt;thirst</title>
<path fill="none" stroke="black" d="M44.5,-171.64C44.5,-142.4 44.5,-93.17 44.5,-60.15"/>
<polygon fill="black" stroke="black" points="48,-60.04 44.5,-50.04 41,-60.04 48,-60.04"/>
</g>
<!-- terraL -->
<g id="node9" class="node">
<title>terraL</title>
<text text-anchor="start" x="492" y="-475.8" font-family="Times New Roman,serif" font-weight="bold" font-size="14.00">Latin</text>
<text text-anchor="start" x="496" y="-461.8" font-family="Times New Roman,serif" font-size="14.00" fill="red">terra</text>
<text text-anchor="start" x="472" y="-449.4" font-family="Times New Roman,serif" font-size="12.00">&quot;dry land,&quot; earth</text>
</g>
<!-- tersa&#45;&gt;terraL -->
<g id="edge8" class="edge">
<title>tersa&#45;&gt;terraL</title>
<path fill="none" stroke="black" d="M508.5,-538.84C508.5,-527.92 508.5,-513.41 508.5,-500.29"/>
<polygon fill="black" stroke="black" points="512,-500.17 508.5,-490.17 505,-500.17 512,-500.17"/>
</g>
<!-- terrestrisL -->
<g id="node10" class="node">
<title>terrestrisL</title>
<text text-anchor="start" x="317" y="-371.3" font-family="Times New Roman,serif" font-size="14.00" fill="red">terrestris</text>
</g>
<!-- terraL&#45;&gt;terrestrisL -->
<g id="edge9" class="edge">
<title>terraL&#45;&gt;terrestrisL</title>
<path fill="none" stroke="black" d="M463.99,-446.68C439.37,-435.93 408.58,-421.45 382.5,-406 378.83,-403.83 375.08,-401.4 371.42,-398.9"/>
<polygon fill="black" stroke="black" points="373.28,-395.93 363.09,-393 369.23,-401.64 373.28,-395.93"/>
</g>
<!-- terrenumL -->
<g id="node13" class="node">
<title>terrenumL</title>
<text text-anchor="start" x="400" y="-371.3" font-family="Times New Roman,serif" font-size="14.00" fill="red">terrēnum</text>
</g>
<!-- terraL&#45;&gt;terrenumL -->
<g id="edge12" class="edge">
<title>terraL&#45;&gt;terrenumL</title>
<path fill="none" stroke="black" d="M486.43,-441.62C474.51,-428.99 459.81,-413.42 447.73,-400.61"/>
<polygon fill="black" stroke="black" points="449.99,-397.91 440.58,-393.04 444.9,-402.72 449.99,-397.91"/>
</g>
<!-- terraceaL -->
<g id="node18" class="node">
<title>terraceaL</title>
<text text-anchor="start" x="483" y="-377.8" font-family="Times New Roman,serif" font-size="14.00" fill="red">*terrācea</text>
<text text-anchor="start" x="491.5" y="-365.4" font-family="Times New Roman,serif" font-size="12.00">earthen</text>
</g>
<!-- terraL&#45;&gt;terraceaL -->
<g id="edge17" class="edge">
<title>terraL&#45;&gt;terraceaL</title>
<path fill="none" stroke="black" d="M508.5,-441.62C508.5,-429.83 508.5,-415.46 508.5,-403.18"/>
<polygon fill="black" stroke="black" points="512,-403.04 508.5,-393.04 505,-403.04 512,-403.04"/>
</g>
<!-- terrariusL -->
<g id="node23" class="node">
<title>terrariusL</title>
<text text-anchor="start" x="695" y="-391.8" font-family="Times New Roman,serif" font-weight="bold" font-size="14.00">Medieval</text>
<text text-anchor="start" x="707" y="-377.8" font-family="Times New Roman,serif" font-weight="bold" font-size="14.00">Latin</text>
<text text-anchor="start" x="700.5" y="-363.8" font-family="Times New Roman,serif" font-size="14.00" fill="red">terrārius</text>
<text text-anchor="start" x="697.5" y="-351.4" font-family="Times New Roman,serif" font-size="12.00">of the earth</text>
</g>
<!-- terraL&#45;&gt;terrariusL -->
<g id="edge22" class="edge">
<title>terraL&#45;&gt;terrariusL</title>
<path fill="none" stroke="black" d="M553.1,-452.66C587.88,-442.28 636.92,-425.95 677.5,-406 677.6,-405.95 677.69,-405.91 677.79,-405.86"/>
<polygon fill="black" stroke="black" points="679.64,-408.84 686.8,-401.03 676.33,-402.67 679.64,-408.84"/>
</g>
<!-- terrinusL -->
<g id="node27" class="node">
<title>terrinusL</title>
<text text-anchor="start" x="158.5" y="-377.8" font-family="Times New Roman,serif" font-size="14.00" fill="red">*terrīnus</text>
<text text-anchor="start" x="166.5" y="-365.4" font-family="Times New Roman,serif" font-size="12.00">earthen</text>
</g>
<!-- terraL&#45;&gt;terrinusL -->
<g id="edge26" class="edge">
<title>terraL&#45;&gt;terrinusL</title>
<path fill="none" stroke="black" d="M463.62,-461.4C406.31,-455.54 305.03,-440.84 225.5,-406 221.02,-404.04 216.53,-401.54 212.26,-398.84"/>
<polygon fill="black" stroke="black" points="214.06,-395.83 203.83,-393.09 210.12,-401.62 214.06,-395.83"/>
</g>
<!-- interrareL -->
<g id="node33" class="node">
<title>interrareL</title>
<text text-anchor="start" x="793" y="-378.8" font-family="Times New Roman,serif" font-weight="bold" font-size="14.00">Latin</text>
<text text-anchor="start" x="786.5" y="-364.8" font-family="Times New Roman,serif" font-size="14.00" fill="red">interrāre</text>
</g>
<!-- terraL&#45;&gt;interrareL -->
<g id="edge31" class="edge">
<title>terraL&#45;&gt;interrareL</title>
<path fill="none" stroke="black" d="M553.04,-460.48C606.27,-453.84 697.1,-438.52 768.5,-406 772.88,-404 777.26,-401.49 781.44,-398.78"/>
<polygon fill="black" stroke="black" points="783.48,-401.62 789.67,-393.02 779.47,-395.89 783.48,-401.62"/>
</g>
<!-- mediterraneusL -->
<g id="node37" class="node">
<title>mediterraneusL</title>
<text text-anchor="start" x="867.5" y="-377.8" font-family="Times New Roman,serif" font-size="14.00" fill="red">mediterrāneus</text>
<text text-anchor="start" x="893" y="-365.4" font-family="Times New Roman,serif" font-size="12.00">inland</text>
</g>
<!-- terraL&#45;&gt;mediterraneusL -->
<g id="edge35" class="edge">
<title>terraL&#45;&gt;mediterraneusL</title>
<path fill="none" stroke="black" d="M553.19,-461.75C619.42,-455.93 746.83,-440.93 849.5,-406 856.04,-403.77 862.75,-400.87 869.16,-397.75"/>
<polygon fill="black" stroke="black" points="870.98,-400.76 878.29,-393.08 867.79,-394.52 870.98,-400.76"/>
</g>
<!-- terraI -->
<g id="node41" class="node">
<title>terraI</title>
<text text-anchor="start" x="242.5" y="-384.8" font-family="Times New Roman,serif" font-weight="bold" font-size="14.00">Italian</text>
<text text-anchor="start" x="250" y="-370.8" font-family="Times New Roman,serif" font-size="14.00" fill="red">terra</text>
<text text-anchor="start" x="251" y="-358.4" font-family="Times New Roman,serif" font-size="12.00">earth</text>
</g>
<!-- terraL&#45;&gt;terraI -->
<g id="edge39" class="edge">
<title>terraL&#45;&gt;terraI</title>
<path fill="none" stroke="black" d="M463.73,-457.81C420.03,-449.56 352.55,-433.5 299.5,-406 298.66,-405.57 297.83,-405.11 297,-404.64"/>
<polygon fill="black" stroke="black" points="298.57,-401.49 288.27,-399.02 294.78,-407.38 298.57,-401.49"/>
</g>
<!-- terrameritaL -->
<g id="node45" class="node">
<title>terrameritaL</title>
<text text-anchor="start" x="568" y="-384.8" font-family="Times New Roman,serif" font-weight="bold" font-size="14.00">Medieval Latin</text>
<text text-anchor="start" x="583" y="-370.8" font-family="Times New Roman,serif" font-size="14.00" fill="red">terre merita</text>
<text text-anchor="start" x="577" y="-358.4" font-family="Times New Roman,serif" font-size="12.00">&quot;deserved earth&quot;</text>
</g>
<!-- terraL&#45;&gt;terrameritaL -->
<g id="edge44" class="edge">
<title>terraL&#45;&gt;terrameritaL</title>
<path fill="none" stroke="black" d="M536.07,-441.85C549.2,-430.83 565.06,-417.51 579.06,-405.75"/>
<polygon fill="black" stroke="black" points="581.66,-408.15 587.06,-399.04 577.16,-402.79 581.66,-408.15"/>
</g>
<!-- terrestrialME -->
<g id="node11" class="node">
<title>terrestrialME</title>
<text text-anchor="start" x="313" y="-121.8" font-family="Times New Roman,serif" font-weight="bold" font-size="14.00">Middle</text>
<text text-anchor="start" x="311.5" y="-107.8" font-family="Times New Roman,serif" font-weight="bold" font-size="14.00">English</text>
<text text-anchor="start" x="308.5" y="-93.8" font-family="Times New Roman,serif" font-size="14.00" fill="red">terrestrial</text>
</g>
<!-- terrestrisL&#45;&gt;terrestrialME -->
<g id="edge10" class="edge">
<title>terrestrisL&#45;&gt;terrestrialME</title>
<path fill="none" stroke="black" stroke-dasharray="5,2" d="M341.04,-356.81C339.9,-314.24 336.94,-203.29 335.42,-146.53"/>
<polygon fill="black" stroke="black" points="338.91,-146.17 335.15,-136.27 331.92,-146.36 338.91,-146.17"/>
</g>
<!-- terrestrial -->
<g id="node12" class="node">
<title>terrestrial</title>
<text text-anchor="start" x="310" y="-35.8" font-family="Times New Roman,serif" font-weight="bold" font-size="14.00">Modern</text>
<text text-anchor="start" x="311.5" y="-21.8" font-family="Times New Roman,serif" font-weight="bold" font-size="14.00">English</text>
<text text-anchor="start" x="308.5" y="-7.8" font-family="Times New Roman,serif" font-size="14.00" fill="red">terrestrial</text>
</g>
<!-- terrestrialME&#45;&gt;terrestrial -->
<g id="edge11" class="edge">
<title>terrestrialME&#45;&gt;terrestrial</title>
<path fill="none" stroke="black" d="M334.5,-85.7C334.5,-77.78 334.5,-68.83 334.5,-60.31"/>
<polygon fill="black" stroke="black" points="338,-60.24 334.5,-50.24 331,-60.24 338,-60.24"/>
</g>
<!-- terranumL -->
<g id="node14" class="node">
<title>terranumL</title>
<text text-anchor="start" x="374.5" y="-279.3" font-family="Times New Roman,serif" font-size="14.00" fill="red">*terrānum</text>
</g>
<!-- terrenumL&#45;&gt;terranumL -->
<g id="edge13" class="edge">
<title>terrenumL&#45;&gt;terranumL</title>
<path fill="none" stroke="black" d="M420.26,-356.65C417.12,-343.82 412.79,-326.11 409.19,-311.38"/>
<polygon fill="black" stroke="black" points="412.5,-310.18 406.73,-301.3 405.7,-311.84 412.5,-310.18"/>
</g>
<!-- terrainOF -->
<g id="node15" class="node">
<title>terrainOF</title>
<text text-anchor="start" x="370.5" y="-200.8" font-family="Times New Roman,serif" font-weight="bold" font-size="14.00">Old French</text>
<text text-anchor="start" x="388" y="-186.8" font-family="Times New Roman,serif" font-size="14.00" fill="red">terrain</text>
</g>
<!-- terranumL&#45;&gt;terrainOF -->
<g id="edge14" class="edge">
<title>terranumL&#45;&gt;terrainOF</title>
<path fill="none" stroke="black" d="M403.12,-264.6C403.53,-253.26 404.06,-238.23 404.52,-225.32"/>
<polygon fill="black" stroke="black" points="408.03,-225.21 404.89,-215.1 401.03,-224.96 408.03,-225.21"/>
</g>
<!-- terrainF -->
<g id="node16" class="node">
<title>terrainF</title>
<text text-anchor="start" x="396.5" y="-114.8" font-family="Times New Roman,serif" font-weight="bold" font-size="14.00">French</text>
<text text-anchor="start" x="401" y="-100.8" font-family="Times New Roman,serif" font-size="14.00" fill="red">terrain</text>
</g>
<!-- terrainOF&#45;&gt;terrainF -->
<g id="edge15" class="edge">
<title>terrainOF&#45;&gt;terrainF</title>
<path fill="none" stroke="black" d="M408.19,-178.6C409.95,-167.26 412.27,-152.23 414.27,-139.32"/>
<polygon fill="black" stroke="black" points="417.78,-139.51 415.85,-129.1 410.87,-138.44 417.78,-139.51"/>
</g>
<!-- terrain -->
<g id="node17" class="node">
<title>terrain</title>
<text text-anchor="start" x="395" y="-35.8" font-family="Times New Roman,serif" font-weight="bold" font-size="14.00">Modern</text>
<text text-anchor="start" x="396.5" y="-21.8" font-family="Times New Roman,serif" font-weight="bold" font-size="14.00">English</text>
<text text-anchor="start" x="402" y="-7.8" font-family="Times New Roman,serif" font-size="14.00" fill="red">terrain</text>
</g>
<!-- terrainF&#45;&gt;terrain -->
<g id="edge16" class="edge">
<title>terrainF&#45;&gt;terrain</title>
<path fill="none" stroke="black" stroke-dasharray="5,2" d="M418.71,-92.6C418.82,-83.27 418.96,-71.45 419.09,-60.37"/>
<polygon fill="black" stroke="black" points="422.59,-60.11 419.21,-50.07 415.59,-60.03 422.59,-60.11"/>
</g>
<!-- terrassaOP -->
<g id="node19" class="node">
<title>terrassaOP</title>
<text text-anchor="start" x="464.5" y="-286.8" font-family="Times New Roman,serif" font-weight="bold" font-size="14.00">Old Provençal</text>
<text text-anchor="start" x="487" y="-272.8" font-family="Times New Roman,serif" font-size="14.00" fill="red">terrassa</text>
</g>
<!-- terraceaL&#45;&gt;terrassaOP -->
<g id="edge18" class="edge">
<title>terraceaL&#45;&gt;terrassaOP</title>
<path fill="none" stroke="black" d="M508.5,-356.65C508.5,-343.82 508.5,-326.11 508.5,-311.38"/>
<polygon fill="black" stroke="black" points="512,-311.3 508.5,-301.3 505,-311.3 512,-311.3"/>
</g>
<!-- terraceOF -->
<g id="node20" class="node">
<title>terraceOF</title>
<text text-anchor="start" x="474.5" y="-200.8" font-family="Times New Roman,serif" font-weight="bold" font-size="14.00">Old French</text>
<text text-anchor="start" x="490.5" y="-186.8" font-family="Times New Roman,serif" font-size="14.00" fill="red">terrace</text>
</g>
<!-- terrassaOP&#45;&gt;terraceOF -->
<g id="edge19" class="edge">
<title>terrassaOP&#45;&gt;terraceOF</title>
<path fill="none" stroke="black" stroke-dasharray="5,2" d="M508.71,-264.6C508.84,-253.26 509.02,-238.23 509.17,-225.32"/>
<polygon fill="black" stroke="black" points="512.68,-225.14 509.3,-215.1 505.68,-225.05 512.68,-225.14"/>
</g>
<!-- terraceF -->
<g id="node21" class="node">
<title>terraceF</title>
<text text-anchor="start" x="487.5" y="-114.8" font-family="Times New Roman,serif" font-weight="bold" font-size="14.00">French</text>
<text text-anchor="start" x="490.5" y="-100.8" font-family="Times New Roman,serif" font-size="14.00" fill="red">terrace</text>
</g>
<!-- terraceOF&#45;&gt;terraceF -->
<g id="edge20" class="edge">
<title>terraceOF&#45;&gt;terraceF</title>
<path fill="none" stroke="black" d="M509.5,-178.6C509.5,-167.26 509.5,-152.23 509.5,-139.32"/>
<polygon fill="black" stroke="black" points="513,-139.1 509.5,-129.1 506,-139.1 513,-139.1"/>
</g>
<!-- terrace -->
<g id="node22" class="node">
<title>terrace</title>
<text text-anchor="start" x="485" y="-35.8" font-family="Times New Roman,serif" font-weight="bold" font-size="14.00">Modern</text>
<text text-anchor="start" x="486.5" y="-21.8" font-family="Times New Roman,serif" font-weight="bold" font-size="14.00">English</text>
<text text-anchor="start" x="490.5" y="-7.8" font-family="Times New Roman,serif" font-size="14.00" fill="red">terrace</text>
</g>
<!-- terraceF&#45;&gt;terrace -->
<g id="edge21" class="edge">
<title>terraceF&#45;&gt;terrace</title>
<path fill="none" stroke="black" stroke-dasharray="5,2" d="M509.5,-92.6C509.5,-83.27 509.5,-71.45 509.5,-60.37"/>
<polygon fill="black" stroke="black" points="513,-60.07 509.5,-50.07 506,-60.07 513,-60.07"/>
</g>
<!-- terrierOF -->
<g id="node24" class="node">
<title>terrierOF</title>
<text text-anchor="start" x="693.5" y="-292.8" font-family="Times New Roman,serif" font-weight="bold" font-size="14.00">Old French</text>
<text text-anchor="start" x="691" y="-278.8" font-family="Times New Roman,serif" font-size="14.00" fill="red">(chien) terrier</text>
<text text-anchor="start" x="698.5" y="-266.4" font-family="Times New Roman,serif" font-size="12.00">ground (dog)</text>
</g>
<!-- terrariusL&#45;&gt;terrierOF -->
<g id="edge23" class="edge">
<title>terrariusL&#45;&gt;terrierOF</title>
<path fill="none" stroke="black" d="M725.19,-343.53C725.66,-335.05 726.18,-325.79 726.66,-317.16"/>
<polygon fill="black" stroke="black" points="730.16,-317.22 727.22,-307.04 723.17,-316.83 730.16,-317.22"/>
</g>
<!-- terrierME -->
<g id="node25" class="node">
<title>terrierME</title>
<text text-anchor="start" x="706" y="-207.8" font-family="Times New Roman,serif" font-weight="bold" font-size="14.00">Middle</text>
<text text-anchor="start" x="704.5" y="-193.8" font-family="Times New Roman,serif" font-weight="bold" font-size="14.00">English</text>
<text text-anchor="start" x="711" y="-179.8" font-family="Times New Roman,serif" font-size="14.00" fill="red">terrier</text>
</g>
<!-- terrierOF&#45;&gt;terrierME -->
<g id="edge24" class="edge">
<title>terrierOF&#45;&gt;terrierME</title>
<path fill="none" stroke="black" stroke-dasharray="5,2" d="M728.22,-258.6C728.12,-250.44 728.01,-241.1 727.91,-232.23"/>
<polygon fill="black" stroke="black" points="731.41,-232.11 727.79,-222.15 724.41,-232.19 731.41,-232.11"/>
</g>
<!-- terrier -->
<g id="node26" class="node">
<title>terrier</title>
<text text-anchor="start" x="701" y="-35.8" font-family="Times New Roman,serif" font-weight="bold" font-size="14.00">Modern</text>
<text text-anchor="start" x="702.5" y="-21.8" font-family="Times New Roman,serif" font-weight="bold" font-size="14.00">English</text>
<text text-anchor="start" x="709" y="-7.8" font-family="Times New Roman,serif" font-size="14.00" fill="red">terrier</text>
</g>
<!-- terrierME&#45;&gt;terrier -->
<g id="edge25" class="edge">
<title>terrierME&#45;&gt;terrier</title>
<path fill="none" stroke="black" d="M727.21,-171.64C726.87,-142.4 726.29,-93.17 725.9,-60.15"/>
<polygon fill="black" stroke="black" points="729.4,-60 725.78,-50.04 722.4,-60.08 729.4,-60"/>
</g>
<!-- terrineOF -->
<g id="node28" class="node">
<title>terrineOF</title>
<text text-anchor="start" x="122.5" y="-293.8" font-family="Times New Roman,serif" font-weight="bold" font-size="14.00">Old French</text>
<text text-anchor="start" x="141" y="-279.8" font-family="Times New Roman,serif" font-size="14.00" fill="red">terrin,</text>
<text text-anchor="start" x="140" y="-265.8" font-family="Times New Roman,serif" font-size="14.00" fill="red">terrine</text>
</g>
<!-- terrinusL&#45;&gt;terrineOF -->
<g id="edge27" class="edge">
<title>terrinusL&#45;&gt;terrineOF</title>
<path fill="none" stroke="black" d="M178.49,-356.65C175.31,-345.66 171.1,-331.07 167.28,-317.86"/>
<polygon fill="black" stroke="black" points="170.6,-316.74 164.46,-308.1 163.88,-318.68 170.6,-316.74"/>
</g>
<!-- terrineF -->
<g id="node29" class="node">
<title>terrineF</title>
<text text-anchor="start" x="135.5" y="-114.8" font-family="Times New Roman,serif" font-weight="bold" font-size="14.00">French</text>
<text text-anchor="start" x="140" y="-100.8" font-family="Times New Roman,serif" font-size="14.00" fill="red">terrine</text>
</g>
<!-- terrineOF&#45;&gt;terrineF -->
<g id="edge28" class="edge">
<title>terrineOF&#45;&gt;terrineF</title>
<path fill="none" stroke="black" d="M157.5,-257.64C157.5,-226.3 157.5,-172 157.5,-139.29"/>
<polygon fill="black" stroke="black" points="161,-139.09 157.5,-129.09 154,-139.09 161,-139.09"/>
</g>
<!-- tureen -->
<g id="node30" class="node">
<title>tureen</title>
<text text-anchor="start" x="133" y="-35.8" font-family="Times New Roman,serif" font-weight="bold" font-size="14.00">Modern</text>
<text text-anchor="start" x="134.5" y="-21.8" font-family="Times New Roman,serif" font-weight="bold" font-size="14.00">English</text>
<text text-anchor="start" x="140.5" y="-7.8" font-family="Times New Roman,serif" font-size="14.00" fill="red">tureen</text>
</g>
<!-- terrineF&#45;&gt;tureen -->
<g id="edge29" class="edge">
<title>terrineF&#45;&gt;tureen</title>
<path fill="none" stroke="black" stroke-dasharray="5,2" d="M157.5,-92.6C157.5,-83.27 157.5,-71.45 157.5,-60.37"/>
<polygon fill="black" stroke="black" points="161,-60.07 157.5,-50.07 154,-60.07 161,-60.07"/>
</g>
<!-- enIE -->
<g id="node31" class="node">
<title>enIE</title>
<g id="a_node31"><a xlink:href="en-in1.svg" xlink:title="&lt;b&gt;Indo&#45;&lt;br/&gt;European&lt;/b&gt;&lt;br/&gt;&lt;font color=&quot;red&quot;&gt;*en&lt;/font&gt;&lt;br/&gt;&lt;font point&#45;size=&quot;12&quot;&gt;in&lt;/font&gt;">
<path fill="none" stroke="black" stroke-dasharray="5,2" d="M836,-588C836,-588 783,-588 783,-588 777,-588 771,-582 771,-576 771,-576 771,-538 771,-538 771,-532 777,-526 783,-526 783,-526 836,-526 836,-526 842,-526 848,-532 848,-538 848,-538 848,-576 848,-576 848,-582 842,-588 836,-588"/>
<text text-anchor="start" x="793" y="-573.8" font-family="Times New Roman,serif" font-weight="bold" font-size="14.00">Indo&#45;</text>
<text text-anchor="start" x="779" y="-559.8" font-family="Times New Roman,serif" font-weight="bold" font-size="14.00">European</text>
<text text-anchor="start" x="799.5" y="-545.8" font-family="Times New Roman,serif" font-size="14.00" fill="red">*en</text>
<text text-anchor="start" x="805.5" y="-533.4" font-family="Times New Roman,serif" font-size="12.00">in</text>
</a>
</g>
</g>
<!-- inL -->
<g id="node32" class="node">
<title>inL</title>
<text text-anchor="start" x="793" y="-469.8" font-family="Times New Roman,serif" font-weight="bold" font-size="14.00">Latin</text>
<text text-anchor="start" x="802" y="-455.8" font-family="Times New Roman,serif" font-size="14.00" fill="red">in&#45;</text>
</g>
<!-- enIE&#45;&gt;inL -->
<g id="edge30" class="edge">
<title>enIE&#45;&gt;inL</title>
<path fill="none" stroke="black" d="M809.5,-525.87C809.5,-515.65 809.5,-504.29 809.5,-494.3"/>
<polygon fill="black" stroke="black" points="813,-494.12 809.5,-484.12 806,-494.12 813,-494.12"/>
</g>
<!-- inL&#45;&gt;interrareL -->
<g id="edge32" class="edge">
<title>inL&#45;&gt;interrareL</title>
<path fill="none" stroke="black" d="M809.5,-447.84C809.5,-435.28 809.5,-417.98 809.5,-403.5"/>
<polygon fill="black" stroke="black" points="813,-403.11 809.5,-393.11 806,-403.11 813,-403.11"/>
</g>
<!-- inter -->
<g id="node34" class="node">
<title>inter</title>
<text text-anchor="start" x="784" y="-35.8" font-family="Times New Roman,serif" font-weight="bold" font-size="14.00">Modern</text>
<text text-anchor="start" x="785.5" y="-21.8" font-family="Times New Roman,serif" font-weight="bold" font-size="14.00">English</text>
<text text-anchor="start" x="796" y="-7.8" font-family="Times New Roman,serif" font-size="14.00" fill="red">inter</text>
</g>
<!-- interrareL&#45;&gt;inter -->
<g id="edge33" class="edge">
<title>interrareL&#45;&gt;inter</title>
<path fill="none" stroke="black" stroke-dasharray="5,2" d="M809.45,-356.74C809.29,-302.23 808.81,-133.05 808.6,-60.07"/>
<polygon fill="black" stroke="black" points="812.1,-60.02 808.57,-50.03 805.1,-60.04 812.1,-60.02"/>
</g>
<!-- medhyoIE -->
<g id="node35" class="node">
<title>medhyoIE</title>
<g id="a_node35"><a xlink:href="medhyo-middle2.svg" xlink:title="&lt;b&gt;Indo&#45;&lt;br/&gt;European&lt;/b&gt;&lt;br/&gt;&lt;font color=&quot;red&quot;&gt;*medhyo&#45;&lt;/font&gt;&lt;br/&gt;&lt;font point&#45;size=&quot;12&quot;&gt;middle&lt;/font&gt;">
<path fill="none" stroke="black" stroke-dasharray="5,2" d="M933,-588C933,-588 880,-588 880,-588 874,-588 868,-582 868,-576 868,-576 868,-538 868,-538 868,-532 874,-526 880,-526 880,-526 933,-526 933,-526 939,-526 945,-532 945,-538 945,-538 945,-576 945,-576 945,-582 939,-588 933,-588"/>
<text text-anchor="start" x="890" y="-573.8" font-family="Times New Roman,serif" font-weight="bold" font-size="14.00">Indo&#45;</text>
<text text-anchor="start" x="876" y="-559.8" font-family="Times New Roman,serif" font-weight="bold" font-size="14.00">European</text>
<text text-anchor="start" x="878" y="-545.8" font-family="Times New Roman,serif" font-size="14.00" fill="red">*medhyo&#45;</text>
<text text-anchor="start" x="891" y="-533.4" font-family="Times New Roman,serif" font-size="12.00">middle</text>
</a>
</g>
</g>
<!-- mediusL -->
<g id="node36" class="node">
<title>mediusL</title>
<text text-anchor="start" x="890" y="-469.8" font-family="Times New Roman,serif" font-weight="bold" font-size="14.00">Latin</text>
<text text-anchor="start" x="886.5" y="-455.8" font-family="Times New Roman,serif" font-size="14.00" fill="red">medius</text>
</g>
<!-- medhyoIE&#45;&gt;mediusL -->
<g id="edge34" class="edge">
<title>medhyoIE&#45;&gt;mediusL</title>
<path fill="none" stroke="black" d="M906.5,-525.87C906.5,-515.65 906.5,-504.29 906.5,-494.3"/>
<polygon fill="black" stroke="black" points="910,-494.12 906.5,-484.12 903,-494.12 910,-494.12"/>
</g>
<!-- mediusL&#45;&gt;mediterraneusL -->
<g id="edge36" class="edge">
<title>mediusL&#45;&gt;mediterraneusL</title>
<path fill="none" stroke="black" d="M906.5,-447.84C906.5,-435.28 906.5,-417.98 906.5,-403.5"/>
<polygon fill="black" stroke="black" points="910,-403.11 906.5,-393.11 903,-403.11 910,-403.11"/>
</g>
<!-- mediterranean -->
<g id="node38" class="node">
<title>mediterranean</title>
<text text-anchor="start" x="882" y="-35.8" font-family="Times New Roman,serif" font-weight="bold" font-size="14.00">Modern</text>
<text text-anchor="start" x="883.5" y="-21.8" font-family="Times New Roman,serif" font-weight="bold" font-size="14.00">English</text>
<text text-anchor="start" x="867.5" y="-7.8" font-family="Times New Roman,serif" font-size="14.00" fill="red">mediterranean</text>
</g>
<!-- mediterraneusL&#45;&gt;mediterranean -->
<g id="edge37" class="edge">
<title>mediterraneusL&#45;&gt;mediterranean</title>
<path fill="none" stroke="black" stroke-dasharray="5,2" d="M906.5,-356.74C906.5,-302.23 906.5,-133.05 906.5,-60.07"/>
<polygon fill="black" stroke="black" points="910,-60.03 906.5,-50.03 903,-60.03 910,-60.03"/>
</g>
<!-- peleIE -->
<g id="node39" class="node">
<title>peleIE</title>
<g id="a_node39"><a xlink:href="pele-fill1.svg" xlink:title="&lt;b&gt;Indo&#45;&lt;br/&gt;European&lt;/b&gt;&lt;br/&gt;&lt;font color=&quot;red&quot;&gt;*pelə&#45;&lt;/font&gt;&lt;br/&gt;&lt;font point&#45;size=&quot;12&quot;&gt;to fill&lt;/font&gt;">
<path fill="none" stroke="black" stroke-dasharray="5,2" d="M156,-588C156,-588 103,-588 103,-588 97,-588 91,-582 91,-576 91,-576 91,-538 91,-538 91,-532 97,-526 103,-526 103,-526 156,-526 156,-526 162,-526 168,-532 168,-538 168,-538 168,-576 168,-576 168,-582 162,-588 156,-588"/>
<text text-anchor="start" x="113" y="-573.8" font-family="Times New Roman,serif" font-weight="bold" font-size="14.00">Indo&#45;</text>
<text text-anchor="start" x="99" y="-559.8" font-family="Times New Roman,serif" font-weight="bold" font-size="14.00">European</text>
<text text-anchor="start" x="112.5" y="-545.8" font-family="Times New Roman,serif" font-size="14.00" fill="red">*pelə&#45;</text>
<text text-anchor="start" x="118.5" y="-533.4" font-family="Times New Roman,serif" font-size="12.00">to fill</text>
</a>
</g>
</g>
<!-- pienoI -->
<g id="node40" class="node">
<title>pienoI</title>
<text text-anchor="start" x="109.5" y="-475.8" font-family="Times New Roman,serif" font-weight="bold" font-size="14.00">Italian</text>
<text text-anchor="start" x="114" y="-461.8" font-family="Times New Roman,serif" font-size="14.00" fill="red">pieno</text>
<text text-anchor="start" x="123" y="-449.4" font-family="Times New Roman,serif" font-size="12.00">full</text>
</g>
<!-- peleIE&#45;&gt;pienoI -->
<g id="edge38" class="edge">
<title>peleIE&#45;&gt;pienoI</title>
<path fill="none" stroke="black" d="M129.5,-525.87C129.5,-517.64 129.5,-508.68 129.5,-500.29"/>
<polygon fill="black" stroke="black" points="133,-500.06 129.5,-490.06 126,-500.06 133,-500.06"/>
</g>
<!-- terrapienareI -->
<g id="node42" class="node">
<title>terrapienareI</title>
<text text-anchor="start" x="229" y="-292.8" font-family="Times New Roman,serif" font-size="14.00" fill="red">terrapienare</text>
<text text-anchor="start" x="226.5" y="-280.4" font-family="Times New Roman,serif" font-size="12.00">to fill with earth</text>
<text text-anchor="start" x="233.5" y="-266.8" font-family="Times New Roman,serif" font-size="14.00" fill="red">terrapieno</text>
</g>
<!-- pienoI&#45;&gt;terrapienareI -->
<g id="edge40" class="edge">
<title>pienoI&#45;&gt;terrapienareI</title>
<path fill="none" stroke="black" d="M125.59,-441.82C122.49,-415.68 121.51,-373.04 141.5,-344 143.76,-340.72 177.96,-323.77 209.27,-308.72"/>
<polygon fill="black" stroke="black" points="210.92,-311.81 218.42,-304.33 207.89,-305.5 210.92,-311.81"/>
</g>
<!-- terraI&#45;&gt;terrapienareI -->
<g id="edge41" class="edge">
<title>terraI&#45;&gt;terrapienareI</title>
<path fill="none" stroke="black" d="M262.24,-350.82C262.13,-340.64 261.99,-328.49 261.87,-317.36"/>
<polygon fill="black" stroke="black" points="265.37,-317.06 261.76,-307.1 258.37,-317.14 265.37,-317.06"/>
</g>
<!-- terrepleinF -->
<g id="node43" class="node">
<title>terrepleinF</title>
<text text-anchor="start" x="233.5" y="-200.8" font-family="Times New Roman,serif" font-weight="bold" font-size="14.00">French</text>
<text text-anchor="start" x="229.5" y="-186.8" font-family="Times New Roman,serif" font-size="14.00" fill="red">terreplein</text>
</g>
<!-- terrapienareI&#45;&gt;terrepleinF -->
<g id="edge42" class="edge">
<title>terrapienareI&#45;&gt;terrepleinF</title>
<path fill="none" stroke="black" stroke-dasharray="5,2" d="M259.83,-258.6C259.09,-248.26 258.22,-236.04 257.45,-225.28"/>
<polygon fill="black" stroke="black" points="260.93,-224.87 256.72,-215.15 253.95,-225.37 260.93,-224.87"/>
</g>
<!-- terreplein -->
<g id="node44" class="node">
<title>terreplein</title>
<text text-anchor="start" x="224" y="-35.8" font-family="Times New Roman,serif" font-weight="bold" font-size="14.00">Modern</text>
<text text-anchor="start" x="225.5" y="-21.8" font-family="Times New Roman,serif" font-weight="bold" font-size="14.00">English</text>
<text text-anchor="start" x="222.5" y="-7.8" font-family="Times New Roman,serif" font-size="14.00" fill="red">terreplein</text>
</g>
<!-- terrepleinF&#45;&gt;terreplein -->
<g id="edge43" class="edge">
<title>terrepleinF&#45;&gt;terreplein</title>
<path fill="none" stroke="black" stroke-dasharray="5,2" d="M254.79,-178.76C253.65,-151.03 251.38,-95.98 249.9,-60.09"/>
<polygon fill="black" stroke="black" points="253.4,-59.92 249.49,-50.07 246.41,-60.21 253.4,-59.92"/>
</g>
<!-- terremeriteOF -->
<g id="node46" class="node">
<title>terremeriteOF</title>
<text text-anchor="start" x="586.5" y="-292.8" font-family="Times New Roman,serif" font-weight="bold" font-size="14.00">Old French</text>
<text text-anchor="start" x="589.5" y="-278.8" font-family="Times New Roman,serif" font-size="14.00" fill="red">terre&#45;merite</text>
<text text-anchor="start" x="606" y="-266.4" font-family="Times New Roman,serif" font-size="12.00">saffron</text>
</g>
<!-- terrameritaL&#45;&gt;terremeriteOF -->
<g id="edge45" class="edge">
<title>terrameritaL&#45;&gt;terremeriteOF</title>
<path fill="none" stroke="black" d="M616.3,-350.82C617.09,-340.64 618.04,-328.49 618.91,-317.36"/>
<polygon fill="black" stroke="black" points="622.42,-317.34 619.7,-307.1 615.44,-316.8 622.42,-317.34"/>
</g>
<!-- termeryteME -->
<g id="node47" class="node">
<title>termeryteME</title>
<text text-anchor="start" x="600" y="-207.8" font-family="Times New Roman,serif" font-weight="bold" font-size="14.00">Middle</text>
<text text-anchor="start" x="598.5" y="-193.8" font-family="Times New Roman,serif" font-weight="bold" font-size="14.00">English</text>
<text text-anchor="start" x="595.5" y="-179.8" font-family="Times New Roman,serif" font-size="14.00" fill="red">termeryte</text>
</g>
<!-- terremeriteOF&#45;&gt;termeryteME -->
<g id="edge46" class="edge">
<title>terremeriteOF&#45;&gt;termeryteME</title>
<path fill="none" stroke="black" stroke-dasharray="5,2" d="M621.5,-258.6C621.5,-250.44 621.5,-241.1 621.5,-232.23"/>
<polygon fill="black" stroke="black" points="625,-232.15 621.5,-222.15 618,-232.15 625,-232.15"/>
</g>
<!-- turmeric -->
<g id="node48" class="node">
<title>turmeric</title>
<text text-anchor="start" x="597" y="-35.8" font-family="Times New Roman,serif" font-weight="bold" font-size="14.00">Modern</text>
<text text-anchor="start" x="598.5" y="-21.8" font-family="Times New Roman,serif" font-weight="bold" font-size="14.00">English</text>
<text text-anchor="start" x="598.5" y="-7.8" font-family="Times New Roman,serif" font-size="14.00" fill="red">turmeric</text>
</g>
<!-- termeryteME&#45;&gt;turmeric -->
<g id="edge47" class="edge">
<title>termeryteME&#45;&gt;turmeric</title>
<path fill="none" stroke="black" d="M621.5,-171.64C621.5,-142.4 621.5,-93.17 621.5,-60.15"/>
<polygon fill="black" stroke="black" points="625,-60.04 621.5,-50.04 618,-60.04 625,-60.04"/>
</g>
<!-- torrereL -->
<g id="node50" class="node">
<title>torrereL</title>
<text text-anchor="start" x="1036" y="-384.8" font-family="Times New Roman,serif" font-weight="bold" font-size="14.00">Latin</text>
<text text-anchor="start" x="1034" y="-370.8" font-family="Times New Roman,serif" font-size="14.00" fill="red">torrēre</text>
<text text-anchor="start" x="1010" y="-358.4" font-family="Times New Roman,serif" font-size="12.00">to dry, parch, burn</text>
</g>
<!-- torseyo&#45;&gt;torrereL -->
<g id="edge49" class="edge">
<title>torseyo&#45;&gt;torrereL</title>
<path fill="none" stroke="black" d="M1015.43,-538.74C1022.21,-508.98 1036.21,-447.53 1044.93,-409.24"/>
<polygon fill="black" stroke="black" points="1048.43,-409.62 1047.24,-399.1 1041.61,-408.07 1048.43,-409.62"/>
</g>
<!-- tostareL -->
<g id="node51" class="node">
<title>tostareL</title>
<text text-anchor="start" x="1051" y="-279.3" font-family="Times New Roman,serif" font-size="14.00" fill="red">*tostāre</text>
</g>
<!-- torrereL&#45;&gt;tostareL -->
<g id="edge50" class="edge">
<title>torrereL&#45;&gt;tostareL</title>
<path fill="none" stroke="black" d="M1057.91,-350.82C1060.74,-338.7 1064.22,-323.78 1067.17,-311.12"/>
<polygon fill="black" stroke="black" points="1070.64,-311.66 1069.5,-301.13 1063.82,-310.07 1070.64,-311.66"/>
</g>
<!-- torrensL -->
<g id="node55" class="node">
<title>torrensL</title>
<text text-anchor="start" x="1140.5" y="-113.8" font-family="Times New Roman,serif" font-size="14.00" fill="red">torrēns, torrent&#45;</text>
<text text-anchor="start" x="1167.5" y="-101.4" font-family="Times New Roman,serif" font-size="12.00">burning</text>
</g>
<!-- torrereL&#45;&gt;torrensL -->
<g id="edge54" class="edge">
<title>torrereL&#45;&gt;torrensL</title>
<path fill="none" stroke="black" d="M1078.22,-350.85C1090.22,-338.98 1103.93,-323.73 1113.5,-308 1147.29,-252.5 1168.6,-178.44 1178.32,-139.16"/>
<polygon fill="black" stroke="black" points="1181.77,-139.81 1180.71,-129.27 1174.96,-138.17 1181.77,-139.81"/>
</g>
<!-- torridusL -->
<g id="node57" class="node">
<title>torridusL</title>
<text text-anchor="start" x="982.5" y="-107.3" font-family="Times New Roman,serif" font-size="14.00" fill="red">torridus</text>
</g>
<!-- torrereL&#45;&gt;torridusL -->
<g id="edge56" class="edge">
<title>torrereL&#45;&gt;torridusL</title>
<path fill="none" stroke="black" d="M1045.52,-350.94C1041.88,-338.34 1037.56,-322.41 1034.5,-308 1021.85,-248.39 1012.35,-177.5 1007.69,-139.43"/>
<polygon fill="black" stroke="black" points="1011.13,-138.67 1006.46,-129.16 1004.18,-139.51 1011.13,-138.67"/>
</g>
<!-- tosterOF -->
<g id="node52" class="node">
<title>tosterOF</title>
<text text-anchor="start" x="1046.5" y="-200.8" font-family="Times New Roman,serif" font-weight="bold" font-size="14.00">Old French</text>
<text text-anchor="start" x="1065.5" y="-186.8" font-family="Times New Roman,serif" font-size="14.00" fill="red">toster</text>
</g>
<!-- tostareL&#45;&gt;tosterOF -->
<g id="edge51" class="edge">
<title>tostareL&#45;&gt;tosterOF</title>
<path fill="none" stroke="black" d="M1075.16,-264.6C1076.24,-253.26 1077.67,-238.23 1078.9,-225.32"/>
<polygon fill="black" stroke="black" points="1082.41,-225.38 1079.87,-215.1 1075.44,-224.72 1082.41,-225.38"/>
</g>
<!-- tostenME -->
<g id="node53" class="node">
<title>tostenME</title>
<text text-anchor="start" x="1062" y="-121.8" font-family="Times New Roman,serif" font-weight="bold" font-size="14.00">Middle</text>
<text text-anchor="start" x="1060.5" y="-107.8" font-family="Times New Roman,serif" font-weight="bold" font-size="14.00">English</text>
<text text-anchor="start" x="1066.5" y="-93.8" font-family="Times New Roman,serif" font-size="14.00" fill="red">tosten</text>
</g>
<!-- tosterOF&#45;&gt;tostenME -->
<g id="edge52" class="edge">
<title>tosterOF&#45;&gt;tostenME</title>
<path fill="none" stroke="black" stroke-dasharray="5,2" d="M1081.91,-178.6C1082.14,-169.27 1082.42,-157.45 1082.68,-146.37"/>
<polygon fill="black" stroke="black" points="1086.19,-146.15 1082.93,-136.07 1079.19,-145.98 1086.19,-146.15"/>
</g>
<!-- toast -->
<g id="node54" class="node">
<title>toast</title>
<text text-anchor="start" x="1063" y="-35.8" font-family="Times New Roman,serif" font-weight="bold" font-size="14.00">Modern</text>
<text text-anchor="start" x="1064.5" y="-21.8" font-family="Times New Roman,serif" font-weight="bold" font-size="14.00">English</text>
<text text-anchor="start" x="1073.5" y="-7.8" font-family="Times New Roman,serif" font-size="14.00" fill="red">toast</text>
</g>
<!-- tostenME&#45;&gt;toast -->
<g id="edge53" class="edge">
<title>tostenME&#45;&gt;toast</title>
<path fill="none" stroke="black" d="M1084.66,-85.7C1085.03,-77.78 1085.46,-68.83 1085.87,-60.31"/>
<polygon fill="black" stroke="black" points="1089.37,-60.4 1086.35,-50.24 1082.37,-60.06 1089.37,-60.4"/>
</g>
<!-- torrent -->
<g id="node56" class="node">
<title>torrent</title>
<text text-anchor="start" x="1160" y="-35.8" font-family="Times New Roman,serif" font-weight="bold" font-size="14.00">Modern</text>
<text text-anchor="start" x="1161.5" y="-21.8" font-family="Times New Roman,serif" font-weight="bold" font-size="14.00">English</text>
<text text-anchor="start" x="1166" y="-7.8" font-family="Times New Roman,serif" font-size="14.00" fill="red">torrent</text>
</g>
<!-- torrensL&#45;&gt;torrent -->
<g id="edge55" class="edge">
<title>torrensL&#45;&gt;torrent</title>
<path fill="none" stroke="black" stroke-dasharray="5,2" d="M1184.5,-92.6C1184.5,-83.27 1184.5,-71.45 1184.5,-60.37"/>
<polygon fill="black" stroke="black" points="1188,-60.07 1184.5,-50.07 1181,-60.07 1188,-60.07"/>
</g>
<!-- torrid -->
<g id="node58" class="node">
<title>torrid</title>
<text text-anchor="start" x="980" y="-35.8" font-family="Times New Roman,serif" font-weight="bold" font-size="14.00">Modern</text>
<text text-anchor="start" x="981.5" y="-21.8" font-family="Times New Roman,serif" font-weight="bold" font-size="14.00">English</text>
<text text-anchor="start" x="989" y="-7.8" font-family="Times New Roman,serif" font-size="14.00" fill="red">torrid</text>
</g>
<!-- torridusL&#45;&gt;torrid -->
<g id="edge57" class="edge">
<title>torridusL&#45;&gt;torrid</title>
<path fill="none" stroke="black" stroke-dasharray="5,2" d="M1004.5,-92.6C1004.5,-83.27 1004.5,-71.45 1004.5,-60.37"/>
<polygon fill="black" stroke="black" points="1008,-60.07 1004.5,-50.07 1001,-60.07 1008,-60.07"/>
</g>
</g>
</svg>
