<?xml version="1.0" encoding="UTF-8" standalone="no"?>
<!DOCTYPE svg PUBLIC "-//W3C//DTD SVG 1.1//EN"
 "http://www.w3.org/Graphics/SVG/1.1/DTD/svg11.dtd">
<!-- Generated by graphviz version 2.49.0 (20210828.1703)
 -->
<!-- Pages: 1 -->
<svg width="765pt" height="518pt"
 viewBox="0.00 0.00 765.00 518.00" xmlns="http://www.w3.org/2000/svg" xmlns:xlink="http://www.w3.org/1999/xlink">
<g id="graph0" class="graph" transform="scale(1 1) rotate(0) translate(4 514)">
<polygon fill="white" stroke="transparent" points="-4,4 -4,-514 761,-514 761,4 -4,4"/>
<!-- treiIE -->
<g id="node1" class="node">
<title>treiIE</title>
<g id="a_node1"><a xlink:href="trei-three0.svg" xlink:title="Indo&#45;European &quot;*trei&quot; three">
<path fill="none" stroke="black" stroke-dasharray="5,2" d="M420,-510C420,-510 271,-510 271,-510 265,-510 259,-504 259,-498 259,-498 259,-456 259,-456 259,-450 265,-444 271,-444 271,-444 420,-444 420,-444 426,-444 432,-450 432,-456 432,-456 432,-498 432,-498 432,-504 426,-510 420,-510"/>
<text text-anchor="start" x="267" y="-487.8" font-family="Times New Roman,serif" font-weight="bold" font-size="24.00">Indo&#45;European</text>
<text text-anchor="start" x="298" y="-468.6" font-family="Times New Roman,serif" font-size="18.00" fill="red">*trei, *treyes</text>
<text text-anchor="start" x="330" y="-452.2" font-family="Times New Roman,serif" font-size="16.00">three</text>
</a>
</g>
</g>
<!-- triL -->
<g id="node2" class="node">
<title>triL</title>
<text text-anchor="start" x="187" y="-387.8" font-family="Times New Roman,serif" font-weight="bold" font-size="14.00">Latin</text>
<text text-anchor="start" x="195.5" y="-373.8" font-family="Times New Roman,serif" font-size="14.00" fill="red">tri&#45;</text>
</g>
<!-- treiIE&#45;&gt;triL -->
<g id="edge1" class="edge">
<title>treiIE&#45;&gt;triL</title>
<path fill="none" stroke="black" d="M345.5,-443C345.5,-443 282.02,-417.07 239.95,-399.89"/>
<polygon fill="black" stroke="black" points="241.12,-396.59 230.54,-396.05 238.48,-403.07 241.12,-396.59"/>
</g>
<!-- triG -->
<g id="node3" class="node">
<title>triG</title>
<text text-anchor="start" x="64.5" y="-387.8" font-family="Times New Roman,serif" font-weight="bold" font-size="14.00">Greek</text>
<text text-anchor="start" x="76.5" y="-373.8" font-family="Times New Roman,serif" font-size="14.00" fill="red">tri&#45;</text>
</g>
<!-- treiIE&#45;&gt;triG -->
<g id="edge2" class="edge">
<title>treiIE&#45;&gt;triG</title>
<path fill="none" stroke="black" d="M345.5,-443C345.5,-443 245.96,-426.56 167.5,-408 152.75,-404.51 136.66,-400.18 122.61,-396.22"/>
<polygon fill="black" stroke="black" points="123.37,-392.79 112.79,-393.41 121.45,-399.52 123.37,-392.79"/>
</g>
<!-- triSk -->
<g id="node12" class="node">
<title>triSk</title>
<text text-anchor="start" x="279.5" y="-387.8" font-family="Times New Roman,serif" font-weight="bold" font-size="14.00">Sanskrit</text>
<text text-anchor="start" x="297.5" y="-373.8" font-family="Times New Roman,serif" font-size="14.00" fill="red">tri&#45;</text>
</g>
<!-- treiIE&#45;&gt;triSk -->
<g id="edge12" class="edge">
<title>treiIE&#45;&gt;triSk</title>
<path fill="none" stroke="black" d="M345.5,-443C345.5,-443 333.81,-426.05 323.07,-410.48"/>
<polygon fill="black" stroke="black" points="325.84,-408.33 317.28,-402.09 320.08,-412.31 325.84,-408.33"/>
</g>
<!-- triasG -->
<g id="node15" class="node">
<title>triasG</title>
<text text-anchor="start" x="365.5" y="-387.8" font-family="Times New Roman,serif" font-weight="bold" font-size="14.00">Greek</text>
<text text-anchor="start" x="373.5" y="-373.8" font-family="Times New Roman,serif" font-size="14.00" fill="red">trias</text>
</g>
<!-- treiIE&#45;&gt;triasG -->
<g id="edge15" class="edge">
<title>treiIE&#45;&gt;triasG</title>
<path fill="none" stroke="black" d="M345.5,-443C345.5,-443 357.19,-426.05 367.93,-410.48"/>
<polygon fill="black" stroke="black" points="370.92,-412.31 373.72,-402.09 365.16,-408.33 370.92,-412.31"/>
</g>
<!-- trikhaG -->
<g id="node18" class="node">
<title>trikhaG</title>
<text text-anchor="start" x="449.5" y="-393.8" font-family="Times New Roman,serif" font-weight="bold" font-size="14.00">Greek</text>
<text text-anchor="start" x="454" y="-379.8" font-family="Times New Roman,serif" font-size="14.00" fill="red">trikha</text>
<text text-anchor="start" x="440" y="-367.4" font-family="Times New Roman,serif" font-size="12.00">in three parts</text>
</g>
<!-- treiIE&#45;&gt;trikhaG -->
<g id="edge18" class="edge">
<title>treiIE&#45;&gt;trikhaG</title>
<path fill="none" stroke="black" d="M345.5,-443C345.5,-443 388.5,-424.04 422.5,-408 422.59,-407.96 422.69,-407.91 422.79,-407.87"/>
<polygon fill="black" stroke="black" points="424.32,-411.01 431.84,-403.55 421.3,-404.69 424.32,-411.01"/>
</g>
<!-- siP -->
<g id="node21" class="node">
<title>siP</title>
<text text-anchor="start" x="614" y="-387.8" font-family="Times New Roman,serif" font-weight="bold" font-size="14.00">Persian</text>
<text text-anchor="start" x="632.5" y="-373.8" font-family="Times New Roman,serif" font-size="14.00" fill="red">si</text>
</g>
<!-- treiIE&#45;&gt;siP -->
<g id="edge21" class="edge">
<title>treiIE&#45;&gt;siP</title>
<path fill="none" stroke="black" d="M345.5,-443C345.5,-443 489.76,-443.95 596.5,-408 597.95,-407.51 599.41,-406.97 600.86,-406.39"/>
<polygon fill="black" stroke="black" points="602.72,-409.39 610.36,-402.05 599.81,-403.02 602.72,-409.39"/>
</g>
<!-- tri -->
<g id="node4" class="node">
<title>tri</title>
<text text-anchor="start" x="8" y="-41.8" font-family="Times New Roman,serif" font-weight="bold" font-size="14.00">Modern</text>
<text text-anchor="start" x="9.5" y="-27.8" font-family="Times New Roman,serif" font-weight="bold" font-size="14.00">English</text>
<text text-anchor="start" x="24.5" y="-13.8" font-family="Times New Roman,serif" font-size="14.00" fill="red">tri&#45;</text>
</g>
<!-- triL&#45;&gt;tri -->
<g id="edge3" class="edge">
<title>triL&#45;&gt;tri</title>
<path fill="none" stroke="black" stroke-dasharray="1,5" d="M197.5,-365C197.5,-365 130.96,-358.85 98.5,-324 27.53,-247.81 35.62,-105.98 39.37,-67.09"/>
<polygon fill="black" stroke="black" points="42.87,-67.33 40.5,-57 35.91,-66.55 42.87,-67.33"/>
</g>
<!-- triI -->
<g id="node5" class="node">
<title>triI</title>
<text text-anchor="start" x="115.5" y="-309.8" font-family="Times New Roman,serif" font-weight="bold" font-size="14.00">Italian</text>
<text text-anchor="start" x="127.5" y="-295.8" font-family="Times New Roman,serif" font-size="14.00" fill="red">tri&#45;</text>
</g>
<!-- triL&#45;&gt;triI -->
<g id="edge5" class="edge">
<title>triL&#45;&gt;triI</title>
<path fill="none" stroke="black" d="M197.5,-365C197.5,-365 178.37,-347.1 161.36,-331.19"/>
<polygon fill="black" stroke="black" points="163.46,-328.36 153.77,-324.09 158.68,-333.48 163.46,-328.36"/>
</g>
<!-- triplusL -->
<g id="node8" class="node">
<title>triplusL</title>
<text text-anchor="start" x="202" y="-308.8" font-family="Times New Roman,serif" font-size="14.00" fill="red">triplus</text>
<text text-anchor="start" x="197" y="-296.4" font-family="Times New Roman,serif" font-size="12.00">three&#45;fold</text>
</g>
<!-- triL&#45;&gt;triplusL -->
<g id="edge8" class="edge">
<title>triL&#45;&gt;triplusL</title>
<path fill="none" stroke="black" d="M197.5,-365C197.5,-365 203.58,-348.98 209.34,-333.78"/>
<polygon fill="black" stroke="black" points="212.74,-334.68 213.02,-324.09 206.2,-332.2 212.74,-334.68"/>
</g>
<!-- triG&#45;&gt;tri -->
<g id="edge4" class="edge">
<title>triG&#45;&gt;tri</title>
<path fill="none" stroke="black" stroke-dasharray="1,5" d="M82.2,-365.93C74.26,-307.11 48.18,-113.87 41.88,-67.21"/>
<polygon fill="black" stroke="black" points="45.31,-66.44 40.5,-57 38.37,-67.38 45.31,-66.44"/>
</g>
<!-- trioF -->
<g id="node6" class="node">
<title>trioF</title>
<text text-anchor="start" x="106.5" y="-237.8" font-family="Times New Roman,serif" font-weight="bold" font-size="14.00">French</text>
<text text-anchor="start" x="119" y="-223.8" font-family="Times New Roman,serif" font-size="14.00" fill="red">trio</text>
<text text-anchor="start" x="93" y="-211.4" font-family="Times New Roman,serif" font-size="12.00">composition for</text>
<text text-anchor="start" x="101" y="-199.4" font-family="Times New Roman,serif" font-size="12.00">three voices</text>
</g>
<!-- triI&#45;&gt;trioF -->
<g id="edge6" class="edge">
<title>triI&#45;&gt;trioF</title>
<path fill="none" stroke="black" stroke-dasharray="1,5" d="M134.02,-287.61C133.39,-280.24 132.63,-271.33 131.87,-262.52"/>
<polygon fill="black" stroke="black" points="135.34,-261.97 131,-252.31 128.37,-262.57 135.34,-261.97"/>
</g>
<!-- trio -->
<g id="node7" class="node">
<title>trio</title>
<text text-anchor="start" x="103" y="-41.8" font-family="Times New Roman,serif" font-weight="bold" font-size="14.00">Modern</text>
<text text-anchor="start" x="104.5" y="-27.8" font-family="Times New Roman,serif" font-weight="bold" font-size="14.00">English</text>
<text text-anchor="start" x="118" y="-13.8" font-family="Times New Roman,serif" font-size="14.00" fill="red">trio</text>
</g>
<!-- trioF&#45;&gt;trio -->
<g id="edge7" class="edge">
<title>trioF&#45;&gt;trio</title>
<path fill="none" stroke="black" stroke-dasharray="1,5" d="M128.35,-191.88C128.17,-157.96 127.87,-101.97 127.68,-66.06"/>
<polygon fill="black" stroke="black" points="131.18,-66.03 127.63,-56.05 124.18,-66.07 131.18,-66.03"/>
</g>
<!-- tripleOF -->
<g id="node9" class="node">
<title>tripleOF</title>
<text text-anchor="start" x="198.5" y="-225.8" font-family="Times New Roman,serif" font-weight="bold" font-size="14.00">Old French</text>
<text text-anchor="start" x="219.5" y="-211.8" font-family="Times New Roman,serif" font-size="14.00" fill="red">triple</text>
</g>
<!-- triplusL&#45;&gt;tripleOF -->
<g id="edge9" class="edge">
<title>triplusL&#45;&gt;tripleOF</title>
<path fill="none" stroke="black" d="M222.47,-287.61C224.32,-276.77 226.74,-262.6 228.84,-250.29"/>
<polygon fill="black" stroke="black" points="232.35,-250.53 230.58,-240.08 225.45,-249.35 232.35,-250.53"/>
</g>
<!-- tripleME -->
<g id="node10" class="node">
<title>tripleME</title>
<text text-anchor="start" x="189" y="-137.8" font-family="Times New Roman,serif" font-weight="bold" font-size="14.00">Middle</text>
<text text-anchor="start" x="187.5" y="-123.8" font-family="Times New Roman,serif" font-weight="bold" font-size="14.00">English</text>
<text text-anchor="start" x="196.5" y="-109.8" font-family="Times New Roman,serif" font-size="14.00" fill="red">triple</text>
</g>
<!-- tripleOF&#45;&gt;tripleME -->
<g id="edge10" class="edge">
<title>tripleOF&#45;&gt;tripleME</title>
<path fill="none" stroke="black" stroke-dasharray="1,5" d="M229.28,-203.94C226.4,-192.3 222.49,-176.46 218.98,-162.27"/>
<polygon fill="black" stroke="black" points="222.31,-161.17 216.51,-152.31 215.51,-162.85 222.31,-161.17"/>
</g>
<!-- triple -->
<g id="node11" class="node">
<title>triple</title>
<text text-anchor="start" x="186" y="-41.8" font-family="Times New Roman,serif" font-weight="bold" font-size="14.00">Modern</text>
<text text-anchor="start" x="187.5" y="-27.8" font-family="Times New Roman,serif" font-weight="bold" font-size="14.00">English</text>
<text text-anchor="start" x="196.5" y="-13.8" font-family="Times New Roman,serif" font-size="14.00" fill="red">triple</text>
</g>
<!-- tripleME&#45;&gt;triple -->
<g id="edge11" class="edge">
<title>tripleME&#45;&gt;triple</title>
<path fill="none" stroke="black" d="M210.5,-101.79C210.5,-91.05 210.5,-78.21 210.5,-66.48"/>
<polygon fill="black" stroke="black" points="214,-66.13 210.5,-56.13 207,-66.13 214,-66.13"/>
</g>
<!-- trimurtiSk -->
<g id="node13" class="node">
<title>trimurtiSk</title>
<text text-anchor="start" x="284" y="-141.8" font-family="Times New Roman,serif" font-size="14.00" fill="red">trimūrtiḥ</text>
<text text-anchor="start" x="278" y="-129.4" font-family="Times New Roman,serif" font-size="12.00">&quot;three forms&quot;</text>
<text text-anchor="start" x="268" y="-117.4" font-family="Times New Roman,serif" font-size="12.00">(Brahma, Vishnu,</text>
<text text-anchor="start" x="283" y="-105.4" font-family="Times New Roman,serif" font-size="12.00">and Shiva)</text>
</g>
<!-- triSk&#45;&gt;trimurtiSk -->
<g id="edge13" class="edge">
<title>triSk&#45;&gt;trimurtiSk</title>
<path fill="none" stroke="black" d="M305.63,-365.87C305.95,-325.38 306.76,-222.92 307.2,-166.59"/>
<polygon fill="black" stroke="black" points="310.7,-166.32 307.28,-156.3 303.7,-166.27 310.7,-166.32"/>
</g>
<!-- trimurti -->
<g id="node14" class="node">
<title>trimurti</title>
<text text-anchor="start" x="278" y="-41.8" font-family="Times New Roman,serif" font-weight="bold" font-size="14.00">Modern</text>
<text text-anchor="start" x="279.5" y="-27.8" font-family="Times New Roman,serif" font-weight="bold" font-size="14.00">English</text>
<text text-anchor="start" x="279.5" y="-13.8" font-family="Times New Roman,serif" font-size="14.00" fill="red">Trimurti</text>
</g>
<!-- trimurtiSk&#45;&gt;trimurti -->
<g id="edge14" class="edge">
<title>trimurtiSk&#45;&gt;trimurti</title>
<path fill="none" stroke="black" stroke-dasharray="1,5" d="M306,-97.8C305.47,-87.82 304.87,-76.49 304.31,-66.08"/>
<polygon fill="black" stroke="black" points="307.81,-65.85 303.78,-56.05 300.82,-66.22 307.81,-65.85"/>
</g>
<!-- triasL -->
<g id="node16" class="node">
<title>triasL</title>
<text text-anchor="start" x="353.5" y="-225.8" font-family="Times New Roman,serif" font-weight="bold" font-size="14.00">Late Latin</text>
<text text-anchor="start" x="355" y="-211.8" font-family="Times New Roman,serif" font-size="14.00" fill="red">trias, triad&#45;</text>
</g>
<!-- triasG&#45;&gt;triasL -->
<g id="edge16" class="edge">
<title>triasG&#45;&gt;triasL</title>
<path fill="none" stroke="black" stroke-dasharray="1,5" d="M385.5,-365.88C385.5,-338.35 385.5,-284.01 385.5,-250.85"/>
<polygon fill="black" stroke="black" points="389,-250.48 385.5,-240.48 382,-250.48 389,-250.48"/>
</g>
<!-- triad -->
<g id="node17" class="node">
<title>triad</title>
<text text-anchor="start" x="361" y="-41.8" font-family="Times New Roman,serif" font-weight="bold" font-size="14.00">Modern</text>
<text text-anchor="start" x="362.5" y="-27.8" font-family="Times New Roman,serif" font-weight="bold" font-size="14.00">English</text>
<text text-anchor="start" x="373" y="-13.8" font-family="Times New Roman,serif" font-size="14.00" fill="red">triad</text>
</g>
<!-- triasL&#45;&gt;triad -->
<g id="edge17" class="edge">
<title>triasL&#45;&gt;triad</title>
<path fill="none" stroke="black" stroke-dasharray="1,5" d="M385.5,-203.89C385.5,-172.95 385.5,-107.12 385.5,-66.5"/>
<polygon fill="black" stroke="black" points="389,-66.26 385.5,-56.26 382,-66.26 389,-66.26"/>
</g>
<!-- trichotomiaNL -->
<g id="node19" class="node">
<title>trichotomiaNL</title>
<text text-anchor="start" x="440.5" y="-136.8" font-family="Times New Roman,serif" font-weight="bold" font-size="14.00">New Latin</text>
<text text-anchor="start" x="440.5" y="-122.8" font-family="Times New Roman,serif" font-size="14.00" fill="red">trichotomia</text>
<text text-anchor="start" x="426.5" y="-110.4" font-family="Times New Roman,serif" font-size="12.00">&quot;cut into three parts&quot;</text>
</g>
<!-- trikhaG&#45;&gt;trichotomiaNL -->
<g id="edge19" class="edge">
<title>trikhaG&#45;&gt;trichotomiaNL</title>
<path fill="none" stroke="black" stroke-dasharray="1,5" d="M469.77,-359.92C470.3,-314.62 471.49,-213.89 472.11,-161.35"/>
<polygon fill="black" stroke="black" points="475.61,-161.25 472.23,-151.21 468.61,-161.17 475.61,-161.25"/>
</g>
<!-- trichotomy -->
<g id="node20" class="node">
<title>trichotomy</title>
<text text-anchor="start" x="450" y="-41.8" font-family="Times New Roman,serif" font-weight="bold" font-size="14.00">Modern</text>
<text text-anchor="start" x="451.5" y="-27.8" font-family="Times New Roman,serif" font-weight="bold" font-size="14.00">English</text>
<text text-anchor="start" x="444" y="-13.8" font-family="Times New Roman,serif" font-size="14.00" fill="red">trichotomy</text>
</g>
<!-- trichotomiaNL&#45;&gt;trichotomy -->
<g id="edge20" class="edge">
<title>trichotomiaNL&#45;&gt;trichotomy</title>
<path fill="none" stroke="black" stroke-dasharray="1,5" d="M472.99,-102.76C473.23,-91.83 473.51,-78.57 473.77,-66.5"/>
<polygon fill="black" stroke="black" points="477.27,-66.35 473.98,-56.28 470.27,-66.2 477.27,-66.35"/>
</g>
<!-- sitarH -->
<g id="node23" class="node">
<title>sitarH</title>
<text text-anchor="start" x="582.5" y="-309.8" font-family="Times New Roman,serif" font-weight="bold" font-size="14.00">Hindi</text>
<text text-anchor="start" x="587.5" y="-295.8" font-family="Times New Roman,serif" font-size="14.00" fill="red">sitār</text>
</g>
<!-- siP&#45;&gt;sitarH -->
<g id="edge22" class="edge">
<title>siP&#45;&gt;sitarH</title>
<path fill="none" stroke="black" stroke-dasharray="1,5" d="M626.3,-365.91C619.3,-355.22 610.58,-341.91 605.03,-333.43"/>
<polygon fill="black" stroke="black" points="607.91,-331.45 599.5,-325 602.05,-335.28 607.91,-331.45"/>
</g>
<!-- sipayaP -->
<g id="node27" class="node">
<title>sipayaP</title>
<text text-anchor="start" x="680.5" y="-302.3" font-family="Times New Roman,serif" font-size="14.00" fill="red">si&#45;payā</text>
</g>
<!-- siP&#45;&gt;sipayaP -->
<g id="edge26" class="edge">
<title>siP&#45;&gt;sipayaP</title>
<path fill="none" stroke="black" d="M654.88,-365.91C666.3,-354.68 680.66,-340.57 689.18,-332.2"/>
<polygon fill="black" stroke="black" points="691.82,-334.51 696.5,-325 686.92,-329.51 691.82,-334.51"/>
</g>
<!-- tarP -->
<g id="node22" class="node">
<title>tarP</title>
<text text-anchor="start" x="533" y="-393.8" font-family="Times New Roman,serif" font-weight="bold" font-size="14.00">Persian</text>
<text text-anchor="start" x="549" y="-379.8" font-family="Times New Roman,serif" font-size="14.00" fill="red">tār</text>
<text text-anchor="start" x="544" y="-367.4" font-family="Times New Roman,serif" font-size="12.00">string</text>
</g>
<!-- tarP&#45;&gt;sitarH -->
<g id="edge23" class="edge">
<title>tarP&#45;&gt;sitarH</title>
<path fill="none" stroke="black" stroke-dasharray="1,5" d="M573.74,-359.74C580.75,-350.29 588.39,-339.99 593.51,-333.07"/>
<polygon fill="black" stroke="black" points="596.36,-335.12 599.5,-325 590.73,-330.95 596.36,-335.12"/>
</g>
<!-- sitar -->
<g id="node24" class="node">
<title>sitar</title>
<text text-anchor="start" x="575" y="-41.8" font-family="Times New Roman,serif" font-weight="bold" font-size="14.00">Modern</text>
<text text-anchor="start" x="576.5" y="-27.8" font-family="Times New Roman,serif" font-weight="bold" font-size="14.00">English</text>
<text text-anchor="start" x="587.5" y="-13.8" font-family="Times New Roman,serif" font-size="14.00" fill="red">sitar</text>
</g>
<!-- sitarH&#45;&gt;sitar -->
<g id="edge24" class="edge">
<title>sitarH&#45;&gt;sitar</title>
<path fill="none" stroke="black" stroke-dasharray="1,5" d="M599.5,-287.92C599.5,-243.86 599.5,-125.64 599.5,-66.58"/>
<polygon fill="black" stroke="black" points="603,-66.27 599.5,-56.27 596,-66.27 603,-66.27"/>
</g>
<!-- pedIE -->
<g id="node25" class="node">
<title>pedIE</title>
<g id="a_node25"><a xlink:href="ped-foot4.svg" xlink:title="&lt;b&gt;Indo&#45;&lt;br/&gt;European&lt;/b&gt;&lt;br/&gt;&lt;font color=&quot;red&quot;&gt;ped&#45;&lt;/font&gt;&lt;br/&gt;&lt;font point&#45;size=&quot;12&quot;&gt;foot&lt;/font&gt;">
<path fill="none" stroke="black" stroke-dasharray="5,2" d="M745,-508C745,-508 692,-508 692,-508 686,-508 680,-502 680,-496 680,-496 680,-458 680,-458 680,-452 686,-446 692,-446 692,-446 745,-446 745,-446 751,-446 757,-452 757,-458 757,-458 757,-496 757,-496 757,-502 751,-508 745,-508"/>
<text text-anchor="start" x="702" y="-493.8" font-family="Times New Roman,serif" font-weight="bold" font-size="14.00">Indo&#45;</text>
<text text-anchor="start" x="688" y="-479.8" font-family="Times New Roman,serif" font-weight="bold" font-size="14.00">European</text>
<text text-anchor="start" x="705.5" y="-465.8" font-family="Times New Roman,serif" font-size="14.00" fill="red">ped&#45;</text>
<text text-anchor="start" x="709" y="-453.4" font-family="Times New Roman,serif" font-size="12.00">foot</text>
</a>
</g>
</g>
<!-- paiP -->
<g id="node26" class="node">
<title>paiP</title>
<text text-anchor="start" x="695" y="-393.8" font-family="Times New Roman,serif" font-weight="bold" font-size="14.00">Persian</text>
<text text-anchor="start" x="709" y="-379.8" font-family="Times New Roman,serif" font-size="14.00" fill="red">pāī</text>
<text text-anchor="start" x="712" y="-367.4" font-family="Times New Roman,serif" font-size="12.00">leg</text>
</g>
<!-- pedIE&#45;&gt;paiP -->
<g id="edge25" class="edge">
<title>pedIE&#45;&gt;paiP</title>
<path fill="none" stroke="black" d="M718.5,-445.95C718.5,-437.1 718.5,-427.35 718.5,-418.31"/>
<polygon fill="black" stroke="black" points="722,-418.1 718.5,-408.1 715,-418.1 722,-418.1"/>
</g>
<!-- paiP&#45;&gt;sipayaP -->
<g id="edge27" class="edge">
<title>paiP&#45;&gt;sipayaP</title>
<path fill="none" stroke="black" d="M709.68,-359.74C706.33,-350.92 702.7,-341.36 700.1,-334.5"/>
<polygon fill="black" stroke="black" points="703.32,-333.11 696.5,-325 696.77,-335.59 703.32,-333.11"/>
</g>
<!-- tipaiH -->
<g id="node28" class="node">
<title>tipaiH</title>
<text text-anchor="start" x="683.5" y="-130.8" font-family="Times New Roman,serif" font-weight="bold" font-size="14.00">Hindi</text>
<text text-anchor="start" x="688" y="-116.8" font-family="Times New Roman,serif" font-size="14.00" fill="red">tipāī</text>
</g>
<!-- sipayaP&#45;&gt;tipaiH -->
<g id="edge28" class="edge">
<title>sipayaP&#45;&gt;tipaiH</title>
<path fill="none" stroke="black" stroke-dasharray="1,5" d="M700.5,-287.71C700.5,-256.83 700.5,-192 700.5,-155.14"/>
<polygon fill="black" stroke="black" points="704,-155.1 700.5,-145.1 697,-155.1 704,-155.1"/>
</g>
<!-- teapoy -->
<g id="node29" class="node">
<title>teapoy</title>
<text text-anchor="start" x="676" y="-47.8" font-family="Times New Roman,serif" font-weight="bold" font-size="14.00">Modern</text>
<text text-anchor="start" x="677.5" y="-33.8" font-family="Times New Roman,serif" font-weight="bold" font-size="14.00">English</text>
<text text-anchor="start" x="681.5" y="-19.8" font-family="Times New Roman,serif" font-size="14.00" fill="red">teapoy</text>
<text text-anchor="start" x="677" y="-7.4" font-family="Times New Roman,serif" font-size="12.00">a tea table</text>
</g>
<!-- tipaiH&#45;&gt;teapoy -->
<g id="edge29" class="edge">
<title>tipaiH&#45;&gt;teapoy</title>
<path fill="none" stroke="black" stroke-dasharray="1,5" d="M700.5,-108.76C700.5,-98.47 700.5,-84.95 700.5,-72.13"/>
<polygon fill="black" stroke="black" points="704,-72.07 700.5,-62.07 697,-72.07 704,-72.07"/>
</g>
</g>
</svg>
