<?xml version="1.0" encoding="UTF-8" standalone="no"?>
<!DOCTYPE svg PUBLIC "-//W3C//DTD SVG 1.1//EN"
 "http://www.w3.org/Graphics/SVG/1.1/DTD/svg11.dtd">
<!-- Generated by graphviz version 2.49.0 (20210828.1703)
 -->
<!-- Pages: 1 -->
<svg width="1013pt" height="718pt"
 viewBox="0.00 0.00 1012.50 718.00" xmlns="http://www.w3.org/2000/svg" xmlns:xlink="http://www.w3.org/1999/xlink">
<g id="graph0" class="graph" transform="scale(1 1) rotate(0) translate(4 714)">
<polygon fill="white" stroke="transparent" points="-4,4 -4,-714 1008.5,-714 1008.5,4 -4,4"/>
<!-- treiIE -->
<g id="node1" class="node">
<title>treiIE</title>
<g id="a_node1"><a xlink:href="trei-three0.svg" xlink:title="Indo&#45;European &quot;*trei&quot; three">
<path fill="none" stroke="black" stroke-dasharray="5,2" d="M318.5,-710C318.5,-710 169.5,-710 169.5,-710 163.5,-710 157.5,-704 157.5,-698 157.5,-698 157.5,-656 157.5,-656 157.5,-650 163.5,-644 169.5,-644 169.5,-644 318.5,-644 318.5,-644 324.5,-644 330.5,-650 330.5,-656 330.5,-656 330.5,-698 330.5,-698 330.5,-704 324.5,-710 318.5,-710"/>
<text text-anchor="start" x="165.5" y="-687.8" font-family="Times New Roman,serif" font-weight="bold" font-size="24.00">Indo&#45;European</text>
<text text-anchor="start" x="196.5" y="-668.6" font-family="Times New Roman,serif" font-size="18.00" fill="red">*trei, *treyes</text>
<text text-anchor="start" x="228.5" y="-652.2" font-family="Times New Roman,serif" font-size="16.00">three</text>
</a>
</g>
</g>
<!-- trisIE -->
<g id="node2" class="node">
<title>trisIE</title>
<text text-anchor="start" x="492.5" y="-579.8" font-family="Times New Roman,serif" font-size="14.00" fill="red">*tris</text>
<text text-anchor="start" x="492.5" y="-567.4" font-family="Times New Roman,serif" font-size="12.00">thrice</text>
</g>
<!-- treiIE&#45;&gt;trisIE -->
<g id="edge1" class="edge">
<title>treiIE&#45;&gt;trisIE</title>
<path fill="none" stroke="black" d="M330.6,-657.18C372.84,-646.1 423.55,-629.91 466,-608 469.84,-606.02 473.69,-603.64 477.39,-601.11"/>
<polygon fill="black" stroke="black" points="479.69,-603.77 485.69,-595.04 475.55,-598.12 479.69,-603.77"/>
</g>
<!-- trisnoIE -->
<g id="node3" class="node">
<title>trisnoIE</title>
<text text-anchor="start" x="131" y="-573.3" font-family="Times New Roman,serif" font-size="14.00" fill="red">*tris&#45;no&#45;</text>
</g>
<!-- treiIE&#45;&gt;trisnoIE -->
<g id="edge2" class="edge">
<title>treiIE&#45;&gt;trisnoIE</title>
<path fill="none" stroke="black" d="M214.86,-643.91C202.71,-630.54 188.83,-615.25 177.5,-602.77"/>
<polygon fill="black" stroke="black" points="179.77,-600.07 170.46,-595.02 174.59,-604.78 179.77,-600.07"/>
</g>
<!-- troyoIE -->
<g id="node4" class="node">
<title>troyoIE</title>
<text text-anchor="start" x="221" y="-573.3" font-family="Times New Roman,serif" font-size="14.00" fill="red">*troy&#45;o&#45;</text>
</g>
<!-- treiIE&#45;&gt;troyoIE -->
<g id="edge3" class="edge">
<title>treiIE&#45;&gt;troyoIE</title>
<path fill="none" stroke="black" d="M244,-643.91C244,-631.43 244,-617.28 244,-605.3"/>
<polygon fill="black" stroke="black" points="247.5,-605.02 244,-595.02 240.5,-605.02 247.5,-605.02"/>
</g>
<!-- terL -->
<g id="node5" class="node">
<title>terL</title>
<text text-anchor="start" x="488.5" y="-489.8" font-family="Times New Roman,serif" font-weight="bold" font-size="14.00">Latin</text>
<text text-anchor="start" x="497.5" y="-475.8" font-family="Times New Roman,serif" font-size="14.00" fill="red">ter</text>
</g>
<!-- trisIE&#45;&gt;terL -->
<g id="edge4" class="edge">
<title>trisIE&#45;&gt;terL</title>
<path fill="none" stroke="black" d="M505,-558.84C505,-546.28 505,-528.98 505,-514.5"/>
<polygon fill="black" stroke="black" points="508.5,-514.11 505,-504.11 501.5,-514.11 508.5,-514.11"/>
</g>
<!-- trisG -->
<g id="node19" class="node">
<title>trisG</title>
<text text-anchor="start" x="626" y="-489.8" font-family="Times New Roman,serif" font-weight="bold" font-size="14.00">Greek</text>
<text text-anchor="start" x="637" y="-475.8" font-family="Times New Roman,serif" font-size="14.00" fill="red">tris</text>
</g>
<!-- trisIE&#45;&gt;trisG -->
<g id="edge18" class="edge">
<title>trisIE&#45;&gt;trisG</title>
<path fill="none" stroke="black" d="M532.19,-558.84C554.42,-544.8 586.05,-524.84 610.32,-509.52"/>
<polygon fill="black" stroke="black" points="612.31,-512.4 618.9,-504.11 608.57,-506.49 612.31,-512.4"/>
</g>
<!-- triniL -->
<g id="node30" class="node">
<title>triniL</title>
<text text-anchor="start" x="117.5" y="-411.8" font-family="Times New Roman,serif" font-weight="bold" font-size="14.00">Latin</text>
<text text-anchor="start" x="121.5" y="-397.8" font-family="Times New Roman,serif" font-size="14.00" fill="red">trīnī</text>
<text text-anchor="start" x="117.5" y="-383.8" font-family="Times New Roman,serif" font-size="14.00" fill="red">trīnus</text>
<text text-anchor="start" x="110.5" y="-371.4" font-family="Times New Roman,serif" font-size="12.00">three each</text>
</g>
<!-- trisnoIE&#45;&gt;triniL -->
<g id="edge29" class="edge">
<title>trisnoIE&#45;&gt;triniL</title>
<path fill="none" stroke="black" d="M152.99,-558.74C149.73,-530.83 143.22,-475.05 138.74,-436.63"/>
<polygon fill="black" stroke="black" points="142.17,-435.82 137.53,-426.3 135.22,-436.64 142.17,-435.82"/>
</g>
<!-- trojeR -->
<g id="node38" class="node">
<title>trojeR</title>
<text text-anchor="start" x="219.5" y="-495.8" font-family="Times New Roman,serif" font-weight="bold" font-size="14.00">Russian</text>
<text text-anchor="start" x="231.5" y="-481.8" font-family="Times New Roman,serif" font-size="14.00" fill="red">troje</text>
<text text-anchor="start" x="212" y="-469.4" font-family="Times New Roman,serif" font-size="12.00">group of three</text>
</g>
<!-- troyoIE&#45;&gt;trojeR -->
<g id="edge37" class="edge">
<title>troyoIE&#45;&gt;trojeR</title>
<path fill="none" stroke="black" d="M244,-558.84C244,-547.92 244,-533.41 244,-520.29"/>
<polygon fill="black" stroke="black" points="247.5,-520.17 244,-510.17 240.5,-520.17 247.5,-520.17"/>
</g>
<!-- terniL -->
<g id="node6" class="node">
<title>terniL</title>
<text text-anchor="start" x="492" y="-397.8" font-family="Times New Roman,serif" font-size="14.00" fill="red">ternī</text>
<text text-anchor="start" x="481.5" y="-385.4" font-family="Times New Roman,serif" font-size="12.00">three each</text>
</g>
<!-- terL&#45;&gt;terniL -->
<g id="edge5" class="edge">
<title>terL&#45;&gt;terniL</title>
<path fill="none" stroke="black" d="M505,-467.84C505,-455.28 505,-437.98 505,-423.5"/>
<polygon fill="black" stroke="black" points="508.5,-423.11 505,-413.11 501.5,-423.11 508.5,-423.11"/>
</g>
<!-- terpolymer -->
<g id="node14" class="node">
<title>terpolymer</title>
<text text-anchor="start" x="355.5" y="-47.8" font-family="Times New Roman,serif" font-weight="bold" font-size="14.00">Modern</text>
<text text-anchor="start" x="357" y="-33.8" font-family="Times New Roman,serif" font-weight="bold" font-size="14.00">English</text>
<text text-anchor="start" x="349.5" y="-19.8" font-family="Times New Roman,serif" font-size="14.00" fill="red">terpolymer</text>
</g>
<!-- terL&#45;&gt;terpolymer -->
<g id="edge16" class="edge">
<title>terL&#45;&gt;terpolymer</title>
<path fill="none" stroke="black" stroke-dasharray="1,5" d="M490.89,-467.95C467.68,-438.12 424,-373.64 424,-311 424,-311 424,-311 424,-230 424,-173.34 405.57,-109.59 392.56,-71.67"/>
<polygon fill="black" stroke="black" points="395.84,-70.42 389.22,-62.14 389.23,-72.74 395.84,-70.42"/>
</g>
<!-- ternasL -->
<g id="node7" class="node">
<title>ternasL</title>
<text text-anchor="start" x="555" y="-306.3" font-family="Times New Roman,serif" font-size="14.00" fill="red">ternās</text>
</g>
<!-- terniL&#45;&gt;ternasL -->
<g id="edge6" class="edge">
<title>terniL&#45;&gt;ternasL</title>
<path fill="none" stroke="black" d="M518.88,-376.8C528.4,-365.01 541.19,-349.16 551.83,-335.98"/>
<polygon fill="black" stroke="black" points="554.58,-338.16 558.14,-328.18 549.13,-333.76 554.58,-338.16"/>
</g>
<!-- ternariusL -->
<g id="node11" class="node">
<title>ternariusL</title>
<text text-anchor="start" x="467" y="-306.3" font-family="Times New Roman,serif" font-size="14.00" fill="red">ternārius</text>
</g>
<!-- terniL&#45;&gt;ternariusL -->
<g id="edge10" class="edge">
<title>terniL&#45;&gt;ternariusL</title>
<path fill="none" stroke="black" d="M502.1,-376.8C500.22,-365.67 497.74,-350.94 495.6,-338.24"/>
<polygon fill="black" stroke="black" points="499.01,-337.45 493.9,-328.18 492.11,-338.62 499.01,-337.45"/>
</g>
<!-- ternesOF -->
<g id="node8" class="node">
<title>ternesOF</title>
<text text-anchor="start" x="540" y="-241.8" font-family="Times New Roman,serif" font-weight="bold" font-size="14.00">Old French</text>
<text text-anchor="start" x="558" y="-227.8" font-family="Times New Roman,serif" font-size="14.00" fill="red">ternes</text>
<text text-anchor="start" x="561" y="-213.8" font-family="Times New Roman,serif" font-size="14.00" fill="red">terne</text>
</g>
<!-- ternasL&#45;&gt;ternesOF -->
<g id="edge7" class="edge">
<title>ternasL&#45;&gt;ternesOF</title>
<path fill="none" stroke="black" d="M572.67,-291.91C572.96,-284.33 573.32,-275.13 573.67,-266.23"/>
<polygon fill="black" stroke="black" points="577.17,-266.18 574.06,-256.05 570.18,-265.91 577.17,-266.18"/>
</g>
<!-- terneME -->
<g id="node9" class="node">
<title>terneME</title>
<text text-anchor="start" x="553.5" y="-150.8" font-family="Times New Roman,serif" font-weight="bold" font-size="14.00">Middle</text>
<text text-anchor="start" x="552" y="-136.8" font-family="Times New Roman,serif" font-weight="bold" font-size="14.00">English</text>
<text text-anchor="start" x="561" y="-122.8" font-family="Times New Roman,serif" font-size="14.00" fill="red">terne</text>
</g>
<!-- ternesOF&#45;&gt;terneME -->
<g id="edge8" class="edge">
<title>ternesOF&#45;&gt;terneME</title>
<path fill="none" stroke="black" stroke-dasharray="1,5" d="M575,-205.68C575,-196.36 575,-185.54 575,-175.45"/>
<polygon fill="black" stroke="black" points="578.5,-175.29 575,-165.29 571.5,-175.29 578.5,-175.29"/>
</g>
<!-- tern -->
<g id="node10" class="node">
<title>tern</title>
<text text-anchor="start" x="550.5" y="-59.8" font-family="Times New Roman,serif" font-weight="bold" font-size="14.00">Modern</text>
<text text-anchor="start" x="552" y="-45.8" font-family="Times New Roman,serif" font-weight="bold" font-size="14.00">English</text>
<text text-anchor="start" x="564" y="-31.8" font-family="Times New Roman,serif" font-size="14.00" fill="red">tern</text>
<text text-anchor="start" x="548" y="-19.4" font-family="Times New Roman,serif" font-size="12.00">set of three,</text>
<text text-anchor="start" x="554" y="-7.4" font-family="Times New Roman,serif" font-size="12.00">schooner</text>
</g>
<!-- terneME&#45;&gt;tern -->
<g id="edge9" class="edge">
<title>terneME&#45;&gt;tern</title>
<path fill="none" stroke="black" d="M575,-114.81C575,-105.7 575,-95.02 575,-84.56"/>
<polygon fill="black" stroke="black" points="578.5,-84.24 575,-74.24 571.5,-84.24 578.5,-84.24"/>
</g>
<!-- ternaryME -->
<g id="node12" class="node">
<title>ternaryME</title>
<text text-anchor="start" x="461.5" y="-241.8" font-family="Times New Roman,serif" font-weight="bold" font-size="14.00">Middle</text>
<text text-anchor="start" x="460" y="-227.8" font-family="Times New Roman,serif" font-weight="bold" font-size="14.00">English</text>
<text text-anchor="start" x="463.5" y="-213.8" font-family="Times New Roman,serif" font-size="14.00" fill="red">ternary</text>
</g>
<!-- ternariusL&#45;&gt;ternaryME -->
<g id="edge11" class="edge">
<title>ternariusL&#45;&gt;ternaryME</title>
<path fill="none" stroke="black" stroke-dasharray="1,5" d="M489.22,-291.91C488.44,-284.33 487.48,-275.13 486.56,-266.23"/>
<polygon fill="black" stroke="black" points="490.01,-265.63 485.5,-256.05 483.05,-266.36 490.01,-265.63"/>
</g>
<!-- ternary -->
<g id="node13" class="node">
<title>ternary</title>
<text text-anchor="start" x="458.5" y="-47.8" font-family="Times New Roman,serif" font-weight="bold" font-size="14.00">Modern</text>
<text text-anchor="start" x="460" y="-33.8" font-family="Times New Roman,serif" font-weight="bold" font-size="14.00">English</text>
<text text-anchor="start" x="463.5" y="-19.8" font-family="Times New Roman,serif" font-size="14.00" fill="red">ternary</text>
</g>
<!-- ternaryME&#45;&gt;ternary -->
<g id="edge12" class="edge">
<title>ternaryME&#45;&gt;ternary</title>
<path fill="none" stroke="black" d="M483,-205.68C483,-171.92 483,-110.69 483,-72.3"/>
<polygon fill="black" stroke="black" points="486.5,-72.12 483,-62.12 479.5,-72.12 486.5,-72.12"/>
</g>
<!-- poluG -->
<g id="node15" class="node">
<title>poluG</title>
<text text-anchor="start" x="398" y="-495.8" font-family="Times New Roman,serif" font-weight="bold" font-size="14.00">Greek</text>
<text text-anchor="start" x="384" y="-481.8" font-family="Times New Roman,serif" font-size="14.00" fill="red">polus, polu&#45;</text>
<text text-anchor="start" x="405.5" y="-469.4" font-family="Times New Roman,serif" font-size="12.00">many</text>
</g>
<!-- polumeresG -->
<g id="node18" class="node">
<title>polumeresG</title>
<text text-anchor="start" x="314" y="-397.8" font-family="Times New Roman,serif" font-size="14.00" fill="red">polumerēs</text>
<text text-anchor="start" x="298" y="-385.4" font-family="Times New Roman,serif" font-size="12.00">made of many parts</text>
</g>
<!-- poluG&#45;&gt;polumeresG -->
<g id="edge14" class="edge">
<title>poluG&#45;&gt;polumeresG</title>
<path fill="none" stroke="black" d="M398.29,-461.62C387.76,-449.11 374.78,-433.71 364.04,-420.97"/>
<polygon fill="black" stroke="black" points="366.48,-418.43 357.36,-413.04 361.13,-422.94 366.48,-418.43"/>
</g>
<!-- merosG -->
<g id="node16" class="node">
<title>merosG</title>
<text text-anchor="start" x="310" y="-495.8" font-family="Times New Roman,serif" font-weight="bold" font-size="14.00">Greek</text>
<text text-anchor="start" x="312.5" y="-481.8" font-family="Times New Roman,serif" font-size="14.00" fill="red">meros</text>
<text text-anchor="start" x="320.5" y="-469.4" font-family="Times New Roman,serif" font-size="12.00">part</text>
</g>
<!-- merosG&#45;&gt;polumeresG -->
<g id="edge15" class="edge">
<title>merosG&#45;&gt;polumeresG</title>
<path fill="none" stroke="black" d="M333.42,-461.62C335.14,-449.83 337.24,-435.46 339.03,-423.18"/>
<polygon fill="black" stroke="black" points="342.53,-423.44 340.51,-413.04 335.6,-422.43 342.53,-423.44"/>
</g>
<!-- peleIE -->
<g id="node17" class="node">
<title>peleIE</title>
<g id="a_node17"><a xlink:href="pele-fill.svg" xlink:title="&lt;b&gt;Indo&#45;&lt;br/&gt;European&lt;/b&gt;&lt;br/&gt;&lt;font color=&quot;red&quot;&gt;*pelə&#45;&lt;/font&gt;&lt;br/&gt;&lt;font point&#45;size=&quot;12&quot;&gt;to fill&lt;/font&gt;">
<path fill="none" stroke="black" stroke-dasharray="5,2" d="M444.5,-608C444.5,-608 391.5,-608 391.5,-608 385.5,-608 379.5,-602 379.5,-596 379.5,-596 379.5,-558 379.5,-558 379.5,-552 385.5,-546 391.5,-546 391.5,-546 444.5,-546 444.5,-546 450.5,-546 456.5,-552 456.5,-558 456.5,-558 456.5,-596 456.5,-596 456.5,-602 450.5,-608 444.5,-608"/>
<text text-anchor="start" x="401.5" y="-593.8" font-family="Times New Roman,serif" font-weight="bold" font-size="14.00">Indo&#45;</text>
<text text-anchor="start" x="387.5" y="-579.8" font-family="Times New Roman,serif" font-weight="bold" font-size="14.00">European</text>
<text text-anchor="start" x="401" y="-565.8" font-family="Times New Roman,serif" font-size="14.00" fill="red">*pelə&#45;</text>
<text text-anchor="start" x="407" y="-553.4" font-family="Times New Roman,serif" font-size="12.00">to fill</text>
</a>
</g>
</g>
<!-- peleIE&#45;&gt;poluG -->
<g id="edge13" class="edge">
<title>peleIE&#45;&gt;poluG</title>
<path fill="none" stroke="black" d="M418,-545.87C418,-537.64 418,-528.68 418,-520.29"/>
<polygon fill="black" stroke="black" points="421.5,-520.06 418,-510.06 414.5,-520.06 421.5,-520.06"/>
</g>
<!-- polumeresG&#45;&gt;terpolymer -->
<g id="edge17" class="edge">
<title>polumeresG&#45;&gt;terpolymer</title>
<path fill="none" stroke="black" stroke-dasharray="1,5" d="M344.78,-376.83C350.54,-321.49 368.66,-147.12 376.42,-72.46"/>
<polygon fill="black" stroke="black" points="379.93,-72.51 377.49,-62.2 372.97,-71.78 379.93,-72.51"/>
</g>
<!-- trisoctahedron -->
<g id="node24" class="node">
<title>trisoctahedron</title>
<text text-anchor="start" x="850.5" y="-47.8" font-family="Times New Roman,serif" font-weight="bold" font-size="14.00">Modern</text>
<text text-anchor="start" x="852" y="-33.8" font-family="Times New Roman,serif" font-weight="bold" font-size="14.00">English</text>
<text text-anchor="start" x="834.5" y="-19.8" font-family="Times New Roman,serif" font-size="14.00" fill="red">trisoctahedron</text>
</g>
<!-- trisG&#45;&gt;trisoctahedron -->
<g id="edge21" class="edge">
<title>trisG&#45;&gt;trisoctahedron</title>
<path fill="none" stroke="black" stroke-dasharray="1,5" d="M646,-467.71C646,-436.44 646,-368.4 646,-311 646,-311 646,-311 646,-230 646,-175.93 629.11,-149.53 666,-110 713.08,-59.56 753.31,-100.53 817,-74 821.73,-72.03 826.52,-69.69 831.22,-67.18"/>
<polygon fill="black" stroke="black" points="833.1,-70.13 840.08,-62.16 829.65,-64.04 833.1,-70.13"/>
</g>
<!-- trismegistosG -->
<g id="node27" class="node">
<title>trismegistosG</title>
<text text-anchor="start" x="682.5" y="-397.8" font-family="Times New Roman,serif" font-size="14.00" fill="red">(Hermēs) trismegistos</text>
<text text-anchor="start" x="688.5" y="-385.4" font-family="Times New Roman,serif" font-size="12.00">thrice&#45;greatest (Hermes)</text>
</g>
<!-- trisG&#45;&gt;trismegistosG -->
<g id="edge25" class="edge">
<title>trisG&#45;&gt;trismegistosG</title>
<path fill="none" stroke="black" d="M664.9,-467.84C679.81,-454.3 700.8,-435.24 717.41,-420.15"/>
<polygon fill="black" stroke="black" points="720.11,-422.42 725.16,-413.11 715.41,-417.24 720.11,-422.42"/>
</g>
<!-- oktoIE -->
<g id="node20" class="node">
<title>oktoIE</title>
<g id="a_node20"><a xlink:href="okto-eight.svg" xlink:title="&lt;b&gt;Indo&#45;&lt;br/&gt;European&lt;/b&gt;&lt;br/&gt;&lt;font color=&quot;red&quot;&gt;*oktō(u)&lt;/font&gt;&lt;br/&gt;&lt;font point&#45;size=&quot;12&quot;&gt;eight&lt;/font&gt;">
<path fill="none" stroke="black" stroke-dasharray="5,2" d="M992.5,-608C992.5,-608 939.5,-608 939.5,-608 933.5,-608 927.5,-602 927.5,-596 927.5,-596 927.5,-558 927.5,-558 927.5,-552 933.5,-546 939.5,-546 939.5,-546 992.5,-546 992.5,-546 998.5,-546 1004.5,-552 1004.5,-558 1004.5,-558 1004.5,-596 1004.5,-596 1004.5,-602 998.5,-608 992.5,-608"/>
<text text-anchor="start" x="949.5" y="-593.8" font-family="Times New Roman,serif" font-weight="bold" font-size="14.00">Indo&#45;</text>
<text text-anchor="start" x="935.5" y="-579.8" font-family="Times New Roman,serif" font-weight="bold" font-size="14.00">European</text>
<text text-anchor="start" x="941.5" y="-565.8" font-family="Times New Roman,serif" font-size="14.00" fill="red">*oktō(u)</text>
<text text-anchor="start" x="955" y="-553.4" font-family="Times New Roman,serif" font-size="12.00">eight</text>
</a>
</g>
</g>
<!-- oktoG -->
<g id="node21" class="node">
<title>oktoG</title>
<text text-anchor="start" x="943" y="-143.8" font-family="Times New Roman,serif" font-weight="bold" font-size="14.00">Greek</text>
<text text-anchor="start" x="950" y="-129.8" font-family="Times New Roman,serif" font-size="14.00" fill="red">oktō</text>
</g>
<!-- oktoIE&#45;&gt;oktoG -->
<g id="edge19" class="edge">
<title>oktoIE&#45;&gt;oktoG</title>
<path fill="none" stroke="black" d="M966,-545.74C966,-509.98 966,-448.66 966,-396 966,-396 966,-396 966,-309 966,-259.47 964.68,-201.73 963.79,-168.46"/>
<polygon fill="black" stroke="black" points="967.28,-168.07 963.51,-158.17 960.28,-168.26 967.28,-168.07"/>
</g>
<!-- oktoG&#45;&gt;trisoctahedron -->
<g id="edge22" class="edge">
<title>oktoG&#45;&gt;trisoctahedron</title>
<path fill="none" stroke="black" stroke-dasharray="1,5" d="M948.07,-121.87C935.65,-107.62 917.65,-86.95 902.62,-69.69"/>
<polygon fill="black" stroke="black" points="905.16,-67.28 895.95,-62.04 899.88,-71.88 905.16,-67.28"/>
</g>
<!-- sedIE -->
<g id="node22" class="node">
<title>sedIE</title>
<g id="a_node22"><a xlink:href="sed-sit.svg" xlink:title="&lt;b&gt;Indo&#45;&lt;br/&gt;European&lt;/b&gt;&lt;br/&gt;&lt;font color=&quot;red&quot;&gt;*sed&#45;&lt;/font&gt;&lt;br/&gt;&lt;font point&#45;size=&quot;12&quot;&gt;to sit&lt;/font&gt;">
<path fill="none" stroke="black" stroke-dasharray="5,2" d="M897.5,-608C897.5,-608 844.5,-608 844.5,-608 838.5,-608 832.5,-602 832.5,-596 832.5,-596 832.5,-558 832.5,-558 832.5,-552 838.5,-546 844.5,-546 844.5,-546 897.5,-546 897.5,-546 903.5,-546 909.5,-552 909.5,-558 909.5,-558 909.5,-596 909.5,-596 909.5,-602 903.5,-608 897.5,-608"/>
<text text-anchor="start" x="854.5" y="-593.8" font-family="Times New Roman,serif" font-weight="bold" font-size="14.00">Indo&#45;</text>
<text text-anchor="start" x="840.5" y="-579.8" font-family="Times New Roman,serif" font-weight="bold" font-size="14.00">European</text>
<text text-anchor="start" x="855.5" y="-565.8" font-family="Times New Roman,serif" font-size="14.00" fill="red">*sed&#45;</text>
<text text-anchor="start" x="860" y="-553.4" font-family="Times New Roman,serif" font-size="12.00">to sit</text>
</a>
</g>
</g>
<!-- hedraG -->
<g id="node23" class="node">
<title>hedraG</title>
<text text-anchor="start" x="853" y="-155.8" font-family="Times New Roman,serif" font-weight="bold" font-size="14.00">Greek</text>
<text text-anchor="start" x="857.5" y="-141.8" font-family="Times New Roman,serif" font-size="14.00" fill="red">hedrā</text>
<text text-anchor="start" x="841" y="-129.4" font-family="Times New Roman,serif" font-size="12.00">seat, face of a</text>
<text text-anchor="start" x="838.5" y="-117.4" font-family="Times New Roman,serif" font-size="12.00">geometric solid</text>
</g>
<!-- sedIE&#45;&gt;hedraG -->
<g id="edge20" class="edge">
<title>sedIE&#45;&gt;hedraG</title>
<path fill="none" stroke="black" d="M871,-545.74C871,-509.98 871,-448.66 871,-396 871,-396 871,-396 871,-309 871,-264.85 871.7,-214.19 872.27,-180.14"/>
<polygon fill="black" stroke="black" points="875.77,-180.19 872.44,-170.13 868.77,-180.07 875.77,-180.19"/>
</g>
<!-- hedraG&#45;&gt;trisoctahedron -->
<g id="edge23" class="edge">
<title>hedraG&#45;&gt;trisoctahedron</title>
<path fill="none" stroke="black" stroke-dasharray="1,5" d="M873.58,-109.79C873.81,-98.07 874.08,-84.48 874.32,-72.3"/>
<polygon fill="black" stroke="black" points="877.83,-72.11 874.52,-62.04 870.83,-71.97 877.83,-72.11"/>
</g>
<!-- megIE -->
<g id="node25" class="node">
<title>megIE</title>
<g id="a_node25"><a xlink:href="meg-great3.svg" xlink:title="&lt;b&gt;Indo&#45;&lt;br/&gt;European&lt;/b&gt;&lt;br/&gt;&lt;font color=&quot;red&quot;&gt;*meg&#45;&lt;/font&gt;&lt;br/&gt;&lt;font point&#45;size=&quot;12&quot;&gt;great&lt;/font&gt;">
<path fill="none" stroke="black" stroke-dasharray="5,2" d="M770.5,-608C770.5,-608 717.5,-608 717.5,-608 711.5,-608 705.5,-602 705.5,-596 705.5,-596 705.5,-558 705.5,-558 705.5,-552 711.5,-546 717.5,-546 717.5,-546 770.5,-546 770.5,-546 776.5,-546 782.5,-552 782.5,-558 782.5,-558 782.5,-596 782.5,-596 782.5,-602 776.5,-608 770.5,-608"/>
<text text-anchor="start" x="727.5" y="-593.8" font-family="Times New Roman,serif" font-weight="bold" font-size="14.00">Indo&#45;</text>
<text text-anchor="start" x="713.5" y="-579.8" font-family="Times New Roman,serif" font-weight="bold" font-size="14.00">European</text>
<text text-anchor="start" x="726.5" y="-565.8" font-family="Times New Roman,serif" font-size="14.00" fill="red">*meg&#45;</text>
<text text-anchor="start" x="732.5" y="-553.4" font-family="Times New Roman,serif" font-size="12.00">great</text>
</a>
</g>
</g>
<!-- megistosG -->
<g id="node26" class="node">
<title>megistosG</title>
<text text-anchor="start" x="724" y="-495.8" font-family="Times New Roman,serif" font-weight="bold" font-size="14.00">Greek</text>
<text text-anchor="start" x="719" y="-481.8" font-family="Times New Roman,serif" font-size="14.00" fill="red">megistos</text>
<text text-anchor="start" x="726" y="-469.4" font-family="Times New Roman,serif" font-size="12.00">greatest</text>
</g>
<!-- megIE&#45;&gt;megistosG -->
<g id="edge24" class="edge">
<title>megIE&#45;&gt;megistosG</title>
<path fill="none" stroke="black" d="M744,-545.87C744,-537.64 744,-528.68 744,-520.29"/>
<polygon fill="black" stroke="black" points="747.5,-520.06 744,-510.06 740.5,-520.06 747.5,-520.06"/>
</g>
<!-- megistosG&#45;&gt;trismegistosG -->
<g id="edge26" class="edge">
<title>megistosG&#45;&gt;trismegistosG</title>
<path fill="none" stroke="black" d="M744,-461.62C744,-449.83 744,-435.46 744,-423.18"/>
<polygon fill="black" stroke="black" points="747.5,-423.04 744,-413.04 740.5,-423.04 747.5,-423.04"/>
</g>
<!-- trismegistusL -->
<g id="node28" class="node">
<title>trismegistusL</title>
<text text-anchor="start" x="713.5" y="-150.8" font-family="Times New Roman,serif" font-weight="bold" font-size="14.00">Medieval</text>
<text text-anchor="start" x="725.5" y="-136.8" font-family="Times New Roman,serif" font-weight="bold" font-size="14.00">Latin</text>
<text text-anchor="start" x="683" y="-122.8" font-family="Times New Roman,serif" font-size="14.00" fill="red">Hermēs Trismegistus</text>
</g>
<!-- trismegistosG&#45;&gt;trismegistusL -->
<g id="edge27" class="edge">
<title>trismegistosG&#45;&gt;trismegistusL</title>
<path fill="none" stroke="black" stroke-dasharray="1,5" d="M743.86,-376.61C743.54,-335.27 742.71,-230.48 742.27,-175.65"/>
<polygon fill="black" stroke="black" points="745.77,-175.35 742.19,-165.38 738.77,-175.41 745.77,-175.35"/>
</g>
<!-- trismegistus -->
<g id="node29" class="node">
<title>trismegistus</title>
<text text-anchor="start" x="716.5" y="-47.8" font-family="Times New Roman,serif" font-weight="bold" font-size="14.00">Modern</text>
<text text-anchor="start" x="718" y="-33.8" font-family="Times New Roman,serif" font-weight="bold" font-size="14.00">English</text>
<text text-anchor="start" x="682" y="-19.8" font-family="Times New Roman,serif" font-size="14.00" fill="red">Hermes Trismegistus</text>
</g>
<!-- trismegistusL&#45;&gt;trismegistus -->
<g id="edge28" class="edge">
<title>trismegistusL&#45;&gt;trismegistus</title>
<path fill="none" stroke="black" stroke-dasharray="1,5" d="M741.76,-114.81C741.64,-102.16 741.48,-86.45 741.34,-72.55"/>
<polygon fill="black" stroke="black" points="744.84,-72.31 741.24,-62.34 737.84,-72.38 744.84,-72.31"/>
</g>
<!-- trineOF -->
<g id="node31" class="node">
<title>trineOF</title>
<text text-anchor="start" x="8" y="-313.8" font-family="Times New Roman,serif" font-weight="bold" font-size="14.00">Old French</text>
<text text-anchor="start" x="30.5" y="-299.8" font-family="Times New Roman,serif" font-size="14.00" fill="red">trine</text>
</g>
<!-- triniL&#45;&gt;trineOF -->
<g id="edge30" class="edge">
<title>triniL&#45;&gt;trineOF</title>
<path fill="none" stroke="black" d="M102.43,-365.2C91.63,-355.35 79.67,-344.45 69.33,-335.01"/>
<polygon fill="black" stroke="black" points="71.53,-332.28 61.78,-328.13 66.81,-337.46 71.53,-332.28"/>
</g>
<!-- trinitasL -->
<g id="node34" class="node">
<title>trinitasL</title>
<text text-anchor="start" x="117.5" y="-313.8" font-family="Times New Roman,serif" font-weight="bold" font-size="14.00">Latin</text>
<text text-anchor="start" x="114.5" y="-299.8" font-family="Times New Roman,serif" font-size="14.00" fill="red">trīnitās</text>
</g>
<!-- triniL&#45;&gt;trinitasL -->
<g id="edge33" class="edge">
<title>triniL&#45;&gt;trinitasL</title>
<path fill="none" stroke="black" d="M134,-363.57C134,-355.33 134,-346.47 134,-338.41"/>
<polygon fill="black" stroke="black" points="137.5,-338.4 134,-328.4 130.5,-338.4 137.5,-338.4"/>
</g>
<!-- trineME -->
<g id="node32" class="node">
<title>trineME</title>
<text text-anchor="start" x="20.5" y="-241.8" font-family="Times New Roman,serif" font-weight="bold" font-size="14.00">Middle</text>
<text text-anchor="start" x="19" y="-227.8" font-family="Times New Roman,serif" font-weight="bold" font-size="14.00">English</text>
<text text-anchor="start" x="29.5" y="-213.8" font-family="Times New Roman,serif" font-size="14.00" fill="red">trine</text>
</g>
<!-- trineOF&#45;&gt;trineME -->
<g id="edge31" class="edge">
<title>trineOF&#45;&gt;trineME</title>
<path fill="none" stroke="black" stroke-dasharray="1,5" d="M42.78,-291.91C42.68,-284.33 42.56,-275.13 42.44,-266.23"/>
<polygon fill="black" stroke="black" points="45.94,-266 42.31,-256.05 38.94,-266.09 45.94,-266"/>
</g>
<!-- trine -->
<g id="node33" class="node">
<title>trine</title>
<text text-anchor="start" x="17.5" y="-59.8" font-family="Times New Roman,serif" font-weight="bold" font-size="14.00">Modern</text>
<text text-anchor="start" x="19" y="-45.8" font-family="Times New Roman,serif" font-weight="bold" font-size="14.00">English</text>
<text text-anchor="start" x="29.5" y="-31.8" font-family="Times New Roman,serif" font-size="14.00" fill="red">trine</text>
<text text-anchor="start" x="20.5" y="-19.4" font-family="Times New Roman,serif" font-size="12.00">threefold,</text>
<text text-anchor="start" x="17.5" y="-7.4" font-family="Times New Roman,serif" font-size="12.00">120° apart</text>
</g>
<!-- trineME&#45;&gt;trine -->
<g id="edge32" class="edge">
<title>trineME&#45;&gt;trine</title>
<path fill="none" stroke="black" d="M42,-205.68C42,-175.34 42,-122.79 42,-84.59"/>
<polygon fill="black" stroke="black" points="45.5,-84.23 42,-74.23 38.5,-84.23 45.5,-84.23"/>
</g>
<!-- triniteOF -->
<g id="node35" class="node">
<title>triniteOF</title>
<text text-anchor="start" x="99" y="-234.8" font-family="Times New Roman,serif" font-weight="bold" font-size="14.00">Old French</text>
<text text-anchor="start" x="118.5" y="-220.8" font-family="Times New Roman,serif" font-size="14.00" fill="red">trinite</text>
</g>
<!-- trinitasL&#45;&gt;triniteOF -->
<g id="edge34" class="edge">
<title>trinitasL&#45;&gt;triniteOF</title>
<path fill="none" stroke="black" d="M134,-291.91C134,-282.34 134,-270.18 134,-259.32"/>
<polygon fill="black" stroke="black" points="137.5,-259.04 134,-249.04 130.5,-259.04 137.5,-259.04"/>
</g>
<!-- triniteME -->
<g id="node36" class="node">
<title>triniteME</title>
<text text-anchor="start" x="112.5" y="-150.8" font-family="Times New Roman,serif" font-weight="bold" font-size="14.00">Middle</text>
<text text-anchor="start" x="111" y="-136.8" font-family="Times New Roman,serif" font-weight="bold" font-size="14.00">English</text>
<text text-anchor="start" x="118.5" y="-122.8" font-family="Times New Roman,serif" font-size="14.00" fill="red">trinite</text>
</g>
<!-- triniteOF&#45;&gt;triniteME -->
<g id="edge35" class="edge">
<title>triniteOF&#45;&gt;triniteME</title>
<path fill="none" stroke="black" stroke-dasharray="1,5" d="M134,-212.84C134,-202.26 134,-188.32 134,-175.54"/>
<polygon fill="black" stroke="black" points="137.5,-175.17 134,-165.17 130.5,-175.17 137.5,-175.17"/>
</g>
<!-- trinity -->
<g id="node37" class="node">
<title>trinity</title>
<text text-anchor="start" x="109.5" y="-47.8" font-family="Times New Roman,serif" font-weight="bold" font-size="14.00">Modern</text>
<text text-anchor="start" x="111" y="-33.8" font-family="Times New Roman,serif" font-weight="bold" font-size="14.00">English</text>
<text text-anchor="start" x="118" y="-19.8" font-family="Times New Roman,serif" font-size="14.00" fill="red">trinity</text>
</g>
<!-- triniteME&#45;&gt;trinity -->
<g id="edge36" class="edge">
<title>triniteME&#45;&gt;trinity</title>
<path fill="none" stroke="black" d="M134,-114.81C134,-102.16 134,-86.45 134,-72.55"/>
<polygon fill="black" stroke="black" points="137.5,-72.34 134,-62.34 130.5,-72.34 137.5,-72.34"/>
</g>
<!-- troikaR -->
<g id="node39" class="node">
<title>troikaR</title>
<text text-anchor="start" x="232" y="-233.8" font-family="Times New Roman,serif" font-size="14.00" fill="red">troĭka</text>
<text text-anchor="start" x="203.5" y="-221.4" font-family="Times New Roman,serif" font-size="12.00">three&#45;horse carriage</text>
</g>
<!-- trojeR&#45;&gt;troikaR -->
<g id="edge38" class="edge">
<title>trojeR&#45;&gt;troikaR</title>
<path fill="none" stroke="black" d="M244.46,-461.65C245.39,-414.7 247.48,-309.08 248.46,-259.14"/>
<polygon fill="black" stroke="black" points="251.96,-259.16 248.66,-249.09 244.97,-259.02 251.96,-259.16"/>
</g>
<!-- troika -->
<g id="node40" class="node">
<title>troika</title>
<text text-anchor="start" x="224.5" y="-47.8" font-family="Times New Roman,serif" font-weight="bold" font-size="14.00">Modern</text>
<text text-anchor="start" x="226" y="-33.8" font-family="Times New Roman,serif" font-weight="bold" font-size="14.00">English</text>
<text text-anchor="start" x="233" y="-19.8" font-family="Times New Roman,serif" font-size="14.00" fill="red">troika</text>
</g>
<!-- troikaR&#45;&gt;troika -->
<g id="edge39" class="edge">
<title>troikaR&#45;&gt;troika</title>
<path fill="none" stroke="black" stroke-dasharray="1,5" d="M249,-212.96C249,-181.47 249,-113.61 249,-72.27"/>
<polygon fill="black" stroke="black" points="252.5,-72.11 249,-62.11 245.5,-72.11 252.5,-72.11"/>
</g>
</g>
</svg>
