<?xml version="1.0" encoding="UTF-8" standalone="no"?>
<!DOCTYPE svg PUBLIC "-//W3C//DTD SVG 1.1//EN"
 "http://www.w3.org/Graphics/SVG/1.1/DTD/svg11.dtd">
<!-- Generated by graphviz version 2.49.0 (20210828.1703)
 -->
<!-- Pages: 1 -->
<svg width="1135pt" height="767pt"
 viewBox="0.00 0.00 1134.50 767.00" xmlns="http://www.w3.org/2000/svg" xmlns:xlink="http://www.w3.org/1999/xlink">
<g id="graph0" class="graph" transform="scale(1 1) rotate(0) translate(4 763)">
<polygon fill="white" stroke="transparent" points="-4,4 -4,-763 1130.5,-763 1130.5,4 -4,4"/>
<!-- treiIE -->
<g id="node1" class="node">
<title>treiIE</title>
<g id="a_node1"><a xlink:href="trei-three0.svg" xlink:title="Indo&#45;European &quot;*trei&quot; three">
<path fill="none" stroke="black" stroke-dasharray="5,2" d="M858,-759C858,-759 709,-759 709,-759 703,-759 697,-753 697,-747 697,-747 697,-705 697,-705 697,-699 703,-693 709,-693 709,-693 858,-693 858,-693 864,-693 870,-699 870,-705 870,-705 870,-747 870,-747 870,-753 864,-759 858,-759"/>
<text text-anchor="start" x="705" y="-736.8" font-family="Times New Roman,serif" font-weight="bold" font-size="24.00">Indo&#45;European</text>
<text text-anchor="start" x="736" y="-717.6" font-family="Times New Roman,serif" font-size="18.00" fill="red">*trei, *treyes</text>
<text text-anchor="start" x="768" y="-701.2" font-family="Times New Roman,serif" font-size="16.00">three</text>
</a>
</g>
</g>
<!-- thrijizGm -->
<g id="node2" class="node">
<title>thrijizGm</title>
<text text-anchor="start" x="290" y="-556.8" font-family="Times New Roman,serif" font-weight="bold" font-size="14.00">Germanic</text>
<text text-anchor="start" x="302" y="-542.8" font-family="Times New Roman,serif" font-size="14.00" fill="red">*thrijiz</text>
</g>
<!-- treiIE&#45;&gt;thrijizGm -->
<g id="edge1" class="edge">
<title>treiIE&#45;&gt;thrijizGm</title>
<path fill="none" stroke="black" d="M783.5,-692C783.5,-692 487.94,-603.91 369.11,-568.49"/>
<polygon fill="black" stroke="black" points="369.76,-565.03 359.18,-565.53 367.76,-571.74 369.76,-565.03"/>
</g>
<!-- tresL -->
<g id="node19" class="node">
<title>tresL</title>
<text text-anchor="start" x="767" y="-556.8" font-family="Times New Roman,serif" font-weight="bold" font-size="14.00">Latin</text>
<text text-anchor="start" x="760.5" y="-542.8" font-family="Times New Roman,serif" font-size="14.00" fill="red">trēs, tria</text>
</g>
<!-- treiIE&#45;&gt;tresL -->
<g id="edge18" class="edge">
<title>treiIE&#45;&gt;tresL</title>
<path fill="none" stroke="black" d="M783.5,-692C783.5,-692 783.5,-621.68 783.5,-581.43"/>
<polygon fill="black" stroke="black" points="787,-581.2 783.5,-571.2 780,-581.2 787,-581.2"/>
</g>
<!-- treisG -->
<g id="node39" class="node">
<title>treisG</title>
<text text-anchor="start" x="1049.5" y="-635.8" font-family="Times New Roman,serif" font-weight="bold" font-size="14.00">Greek</text>
<text text-anchor="start" x="1057.5" y="-621.8" font-family="Times New Roman,serif" font-size="14.00" fill="red">treis</text>
</g>
<!-- treiIE&#45;&gt;treisG -->
<g id="edge38" class="edge">
<title>treiIE&#45;&gt;treisG</title>
<path fill="none" stroke="black" d="M783.5,-692C783.5,-692 927.46,-694.33 1032.5,-656 1033.7,-655.56 1034.9,-655.08 1036.1,-654.57"/>
<polygon fill="black" stroke="black" points="1037.75,-657.66 1045.14,-650.07 1034.63,-651.39 1037.75,-657.66"/>
</g>
<!-- thriOE -->
<g id="node3" class="node">
<title>thriOE</title>
<text text-anchor="start" x="16" y="-442.8" font-family="Times New Roman,serif" font-weight="bold" font-size="14.00">Old English</text>
<text text-anchor="start" x="8" y="-428.8" font-family="Times New Roman,serif" font-size="14.00" fill="red">thrīe, thrēo, thrī</text>
</g>
<!-- thrijizGm&#45;&gt;thriOE -->
<g id="edge2" class="edge">
<title>thrijizGm&#45;&gt;thriOE</title>
<path fill="none" stroke="black" d="M316.5,-534C316.5,-534 268.87,-528.33 232.5,-517 184.39,-502.01 131.64,-478.56 95.75,-461.48"/>
<polygon fill="black" stroke="black" points="97.08,-458.23 86.55,-457.06 94.05,-464.54 97.08,-458.23"/>
</g>
<!-- thrigaOE -->
<g id="node6" class="node">
<title>thrigaOE</title>
<text text-anchor="start" x="131" y="-448.8" font-family="Times New Roman,serif" font-weight="bold" font-size="14.00">Old English</text>
<text text-anchor="start" x="151" y="-434.8" font-family="Times New Roman,serif" font-size="14.00" fill="red">thrīga</text>
<text text-anchor="start" x="155" y="-422.4" font-family="Times New Roman,serif" font-size="12.00">thrice</text>
</g>
<!-- thrijizGm&#45;&gt;thrigaOE -->
<g id="edge5" class="edge">
<title>thrijizGm&#45;&gt;thrigaOE</title>
<path fill="none" stroke="black" d="M316.5,-534C316.5,-534 256.69,-496.27 212.86,-468.62"/>
<polygon fill="black" stroke="black" points="214.66,-465.61 204.33,-463.24 210.92,-471.53 214.66,-465.61"/>
</g>
<!-- threotineOE -->
<g id="node9" class="node">
<title>threotineOE</title>
<text text-anchor="start" x="238" y="-448.8" font-family="Times New Roman,serif" font-weight="bold" font-size="14.00">Old English</text>
<text text-anchor="start" x="249.5" y="-434.8" font-family="Times New Roman,serif" font-size="14.00" fill="red">thrēotīne</text>
<text text-anchor="start" x="257.5" y="-422.4" font-family="Times New Roman,serif" font-size="12.00">thirteen</text>
</g>
<!-- thrijizGm&#45;&gt;threotineOE -->
<g id="edge8" class="edge">
<title>thrijizGm&#45;&gt;threotineOE</title>
<path fill="none" stroke="black" d="M316.5,-534C316.5,-534 301.15,-499.65 289.01,-472.48"/>
<polygon fill="black" stroke="black" points="292.16,-470.94 284.88,-463.24 285.77,-473.79 292.16,-470.94"/>
</g>
<!-- thritigOE -->
<g id="node12" class="node">
<title>thritigOE</title>
<text text-anchor="start" x="345" y="-448.8" font-family="Times New Roman,serif" font-weight="bold" font-size="14.00">Old English</text>
<text text-anchor="start" x="364.5" y="-434.8" font-family="Times New Roman,serif" font-size="14.00" fill="red">thrītig</text>
<text text-anchor="start" x="370" y="-422.4" font-family="Times New Roman,serif" font-size="12.00">thirty</text>
</g>
<!-- thrijizGm&#45;&gt;thritigOE -->
<g id="edge11" class="edge">
<title>thrijizGm&#45;&gt;thritigOE</title>
<path fill="none" stroke="black" d="M316.5,-534C316.5,-534 340.67,-499.05 359.53,-471.77"/>
<polygon fill="black" stroke="black" points="362.62,-473.45 365.43,-463.24 356.87,-469.47 362.62,-473.45"/>
</g>
<!-- thrirOS -->
<g id="node15" class="node">
<title>thrirOS</title>
<text text-anchor="start" x="452" y="-442.8" font-family="Times New Roman,serif" font-weight="bold" font-size="14.00">Old Swedish</text>
<text text-anchor="start" x="478" y="-428.8" font-family="Times New Roman,serif" font-size="14.00" fill="red">thrīr</text>
</g>
<!-- thrijizGm&#45;&gt;thrirOS -->
<g id="edge14" class="edge">
<title>thrijizGm&#45;&gt;thrirOS</title>
<path fill="none" stroke="black" d="M316.5,-534C316.5,-534 337.99,-525.34 354.5,-517 388.66,-499.74 426.46,-478.12 453.53,-462.19"/>
<polygon fill="black" stroke="black" points="455.44,-465.12 462.27,-457.02 451.88,-459.1 455.44,-465.12"/>
</g>
<!-- threeME -->
<g id="node4" class="node">
<title>threeME</title>
<text text-anchor="start" x="31" y="-243.8" font-family="Times New Roman,serif" font-weight="bold" font-size="14.00">Middle</text>
<text text-anchor="start" x="29.5" y="-229.8" font-family="Times New Roman,serif" font-weight="bold" font-size="14.00">English</text>
<text text-anchor="start" x="38.5" y="-215.8" font-family="Times New Roman,serif" font-size="14.00" fill="red">three</text>
</g>
<!-- thriOE&#45;&gt;threeME -->
<g id="edge3" class="edge">
<title>thriOE&#45;&gt;threeME</title>
<path fill="none" stroke="black" d="M52.5,-420.96C52.5,-387.52 52.5,-312.72 52.5,-268.54"/>
<polygon fill="black" stroke="black" points="56,-268.28 52.5,-258.28 49,-268.28 56,-268.28"/>
</g>
<!-- three -->
<g id="node5" class="node">
<title>three</title>
<text text-anchor="start" x="28" y="-47.8" font-family="Times New Roman,serif" font-weight="bold" font-size="14.00">Modern</text>
<text text-anchor="start" x="29.5" y="-33.8" font-family="Times New Roman,serif" font-weight="bold" font-size="14.00">English</text>
<text text-anchor="start" x="38.5" y="-19.8" font-family="Times New Roman,serif" font-size="14.00" fill="red">three</text>
</g>
<!-- threeME&#45;&gt;three -->
<g id="edge4" class="edge">
<title>threeME&#45;&gt;three</title>
<path fill="none" stroke="black" d="M52.5,-207.82C52.5,-173.75 52.5,-111.42 52.5,-72.49"/>
<polygon fill="black" stroke="black" points="56,-72.18 52.5,-62.18 49,-72.18 56,-72.18"/>
</g>
<!-- thrieME -->
<g id="node7" class="node">
<title>thrieME</title>
<text text-anchor="start" x="146" y="-243.8" font-family="Times New Roman,serif" font-weight="bold" font-size="14.00">Middle</text>
<text text-anchor="start" x="144.5" y="-229.8" font-family="Times New Roman,serif" font-weight="bold" font-size="14.00">English</text>
<text text-anchor="start" x="136.5" y="-215.8" font-family="Times New Roman,serif" font-size="14.00" fill="red">thrie, thries</text>
</g>
<!-- thrigaOE&#45;&gt;thrieME -->
<g id="edge6" class="edge">
<title>thrigaOE&#45;&gt;thrieME</title>
<path fill="none" stroke="black" d="M167.5,-415C167.5,-379.24 167.5,-310.12 167.5,-268.41"/>
<polygon fill="black" stroke="black" points="171,-268.18 167.5,-258.18 164,-268.18 171,-268.18"/>
</g>
<!-- thrice -->
<g id="node8" class="node">
<title>thrice</title>
<text text-anchor="start" x="143" y="-47.8" font-family="Times New Roman,serif" font-weight="bold" font-size="14.00">Modern</text>
<text text-anchor="start" x="144.5" y="-33.8" font-family="Times New Roman,serif" font-weight="bold" font-size="14.00">English</text>
<text text-anchor="start" x="152" y="-19.8" font-family="Times New Roman,serif" font-size="14.00" fill="red">thrice</text>
</g>
<!-- thrieME&#45;&gt;thrice -->
<g id="edge7" class="edge">
<title>thrieME&#45;&gt;thrice</title>
<path fill="none" stroke="black" d="M167.5,-207.82C167.5,-173.75 167.5,-111.42 167.5,-72.49"/>
<polygon fill="black" stroke="black" points="171,-72.18 167.5,-62.18 164,-72.18 171,-72.18"/>
</g>
<!-- thyrteneME -->
<g id="node10" class="node">
<title>thyrteneME</title>
<text text-anchor="start" x="253" y="-250.8" font-family="Times New Roman,serif" font-weight="bold" font-size="14.00">Middle</text>
<text text-anchor="start" x="251.5" y="-236.8" font-family="Times New Roman,serif" font-weight="bold" font-size="14.00">English</text>
<text text-anchor="start" x="250" y="-222.8" font-family="Times New Roman,serif" font-size="14.00" fill="red">thrittene,</text>
<text text-anchor="start" x="252" y="-208.8" font-family="Times New Roman,serif" font-size="14.00" fill="red">thyrtene</text>
</g>
<!-- threotineOE&#45;&gt;thyrteneME -->
<g id="edge9" class="edge">
<title>threotineOE&#45;&gt;thyrteneME</title>
<path fill="none" stroke="black" d="M274.5,-415C274.5,-381.18 274.5,-317.53 274.5,-275.44"/>
<polygon fill="black" stroke="black" points="278,-275.23 274.5,-265.23 271,-275.23 278,-275.23"/>
</g>
<!-- thirteen -->
<g id="node11" class="node">
<title>thirteen</title>
<text text-anchor="start" x="250" y="-47.8" font-family="Times New Roman,serif" font-weight="bold" font-size="14.00">Modern</text>
<text text-anchor="start" x="251.5" y="-33.8" font-family="Times New Roman,serif" font-weight="bold" font-size="14.00">English</text>
<text text-anchor="start" x="254" y="-19.8" font-family="Times New Roman,serif" font-size="14.00" fill="red">thirteen</text>
</g>
<!-- thyrteneME&#45;&gt;thirteen -->
<g id="edge10" class="edge">
<title>thyrteneME&#45;&gt;thirteen</title>
<path fill="none" stroke="black" d="M274.5,-200.83C274.5,-165.64 274.5,-108.56 274.5,-72.17"/>
<polygon fill="black" stroke="black" points="278,-72.05 274.5,-62.05 271,-72.05 278,-72.05"/>
</g>
<!-- thirtyME -->
<g id="node13" class="node">
<title>thirtyME</title>
<text text-anchor="start" x="360" y="-157.8" font-family="Times New Roman,serif" font-weight="bold" font-size="14.00">Middle</text>
<text text-anchor="start" x="358.5" y="-143.8" font-family="Times New Roman,serif" font-weight="bold" font-size="14.00">English</text>
<text text-anchor="start" x="347" y="-129.8" font-family="Times New Roman,serif" font-size="14.00" fill="red">thritty, thirty</text>
</g>
<!-- thritigOE&#45;&gt;thirtyME -->
<g id="edge12" class="edge">
<title>thritigOE&#45;&gt;thirtyME</title>
<path fill="none" stroke="black" d="M381.5,-414.76C381.5,-363.79 381.5,-241.98 381.5,-182.23"/>
<polygon fill="black" stroke="black" points="385,-182.17 381.5,-172.17 378,-182.17 385,-182.17"/>
</g>
<!-- thirty -->
<g id="node14" class="node">
<title>thirty</title>
<text text-anchor="start" x="357" y="-47.8" font-family="Times New Roman,serif" font-weight="bold" font-size="14.00">Modern</text>
<text text-anchor="start" x="358.5" y="-33.8" font-family="Times New Roman,serif" font-weight="bold" font-size="14.00">English</text>
<text text-anchor="start" x="367" y="-19.8" font-family="Times New Roman,serif" font-size="14.00" fill="red">thirty</text>
</g>
<!-- thirtyME&#45;&gt;thirty -->
<g id="edge13" class="edge">
<title>thirtyME&#45;&gt;thirty</title>
<path fill="none" stroke="black" d="M381.5,-121.76C381.5,-107.17 381.5,-88.37 381.5,-72.27"/>
<polygon fill="black" stroke="black" points="385,-72.16 381.5,-62.16 378,-72.16 385,-72.16"/>
</g>
<!-- trillingSw -->
<g id="node16" class="node">
<title>trillingSw</title>
<text text-anchor="start" x="465" y="-322.8" font-family="Times New Roman,serif" font-weight="bold" font-size="14.00">Swedish</text>
<text text-anchor="start" x="473.5" y="-308.8" font-family="Times New Roman,serif" font-size="14.00" fill="red">trilling</text>
<text text-anchor="start" x="477.5" y="-296.4" font-family="Times New Roman,serif" font-size="12.00">triplet</text>
</g>
<!-- thrirOS&#45;&gt;trillingSw -->
<g id="edge15" class="edge">
<title>thrirOS&#45;&gt;trillingSw</title>
<path fill="none" stroke="black" d="M490.5,-420.76C490.5,-401.95 490.5,-371.36 490.5,-347.74"/>
<polygon fill="black" stroke="black" points="494,-347.44 490.5,-337.44 487,-347.44 494,-347.44"/>
</g>
<!-- trilliumNL -->
<g id="node17" class="node">
<title>trilliumNL</title>
<text text-anchor="start" x="458.5" y="-162.8" font-family="Times New Roman,serif" font-weight="bold" font-size="14.00">New Latin</text>
<text text-anchor="start" x="469" y="-148.8" font-family="Times New Roman,serif" font-size="14.00" fill="red">Trillium</text>
<text text-anchor="start" x="457" y="-136.4" font-family="Times New Roman,serif" font-size="12.00">genus of plants</text>
<text text-anchor="start" x="452.5" y="-124.4" font-family="Times New Roman,serif" font-size="12.00">with three leaves</text>
</g>
<!-- trillingSw&#45;&gt;trilliumNL -->
<g id="edge16" class="edge">
<title>trillingSw&#45;&gt;trilliumNL</title>
<path fill="none" stroke="black" stroke-dasharray="1,5" d="M490.5,-288.85C490.5,-262.51 490.5,-219.06 490.5,-187.37"/>
<polygon fill="black" stroke="black" points="494,-187.12 490.5,-177.12 487,-187.12 494,-187.12"/>
<text text-anchor="middle" x="506" y="-229.3" font-family="Times New Roman,serif" font-size="14.00">prob.</text>
<polyline fill="none" stroke="black" points="521.5,-225.5 490.5,-225.5 490.5,-232.87 "/>
</g>
<!-- trillium -->
<g id="node18" class="node">
<title>trillium</title>
<text text-anchor="start" x="466" y="-47.8" font-family="Times New Roman,serif" font-weight="bold" font-size="14.00">Modern</text>
<text text-anchor="start" x="467.5" y="-33.8" font-family="Times New Roman,serif" font-weight="bold" font-size="14.00">English</text>
<text text-anchor="start" x="471.5" y="-19.8" font-family="Times New Roman,serif" font-size="14.00" fill="red">trillium</text>
</g>
<!-- trilliumNL&#45;&gt;trillium -->
<g id="edge17" class="edge">
<title>trilliumNL&#45;&gt;trillium</title>
<path fill="none" stroke="black" stroke-dasharray="1,5" d="M490.5,-116.77C490.5,-103.13 490.5,-86.8 490.5,-72.55"/>
<polygon fill="black" stroke="black" points="494,-72.14 490.5,-62.14 487,-72.14 494,-72.14"/>
</g>
<!-- treieOF -->
<g id="node20" class="node">
<title>treieOF</title>
<text text-anchor="start" x="563.5" y="-442.8" font-family="Times New Roman,serif" font-weight="bold" font-size="14.00">Old French</text>
<text text-anchor="start" x="586.5" y="-428.8" font-family="Times New Roman,serif" font-size="14.00" fill="red">treie</text>
</g>
<!-- tresL&#45;&gt;treieOF -->
<g id="edge19" class="edge">
<title>tresL&#45;&gt;treieOF</title>
<path fill="none" stroke="black" d="M783.5,-534C783.5,-534 680.22,-531.58 655.5,-517 635.68,-505.31 620.63,-483.76 610.99,-466.43"/>
<polygon fill="black" stroke="black" points="613.95,-464.53 606.19,-457.32 607.75,-467.8 613.95,-464.53"/>
</g>
<!-- trecentoI -->
<g id="node23" class="node">
<title>trecentoI</title>
<text text-anchor="start" x="657.5" y="-168.8" font-family="Times New Roman,serif" font-weight="bold" font-size="14.00">Italian</text>
<text text-anchor="start" x="640" y="-154.8" font-family="Times New Roman,serif" font-size="14.00" fill="red">(mil) trecento</text>
<text text-anchor="start" x="641.5" y="-142.4" font-family="Times New Roman,serif" font-size="12.00">&quot;(one thousand)</text>
<text text-anchor="start" x="642.5" y="-130.4" font-family="Times New Roman,serif" font-size="12.00">three hundred,&quot;</text>
<text text-anchor="start" x="649" y="-118.4" font-family="Times New Roman,serif" font-size="12.00">14th century</text>
</g>
<!-- tresL&#45;&gt;trecentoI -->
<g id="edge22" class="edge">
<title>tresL&#45;&gt;trecentoI</title>
<path fill="none" stroke="black" d="M783.5,-534C783.5,-534 710.48,-435.23 688.5,-343 675.45,-288.22 682.56,-219.78 685.99,-194.24"/>
<polygon fill="black" stroke="black" points="689.5,-194.4 687.5,-184 682.58,-193.38 689.5,-194.4"/>
</g>
<!-- tredecimL -->
<g id="node26" class="node">
<title>tredecimL</title>
<text text-anchor="start" x="754" y="-235.8" font-family="Times New Roman,serif" font-size="14.00" fill="red">tredecim</text>
<text text-anchor="start" x="761.5" y="-223.4" font-family="Times New Roman,serif" font-size="12.00">thirteen</text>
</g>
<!-- tresL&#45;&gt;tredecimL -->
<g id="edge25" class="edge">
<title>tresL&#45;&gt;tredecimL</title>
<path fill="none" stroke="black" d="M783.5,-534C783.5,-534 780.2,-336.27 778.96,-261.87"/>
<polygon fill="black" stroke="black" points="782.46,-261.37 778.79,-251.43 775.46,-261.48 782.46,-261.37"/>
</g>
<!-- triumvirumL -->
<g id="node28" class="node">
<title>triumvirumL</title>
<text text-anchor="start" x="816.5" y="-381.8" font-family="Times New Roman,serif" font-size="14.00" fill="red">trium virum</text>
<text text-anchor="start" x="820" y="-369.4" font-family="Times New Roman,serif" font-size="12.00">of three men</text>
</g>
<!-- tresL&#45;&gt;triumvirumL -->
<g id="edge27" class="edge">
<title>tresL&#45;&gt;triumvirumL</title>
<path fill="none" stroke="black" d="M783.5,-534C783.5,-534 792.61,-525.48 797.5,-517 818.15,-481.16 833.18,-435.42 841.37,-406.92"/>
<polygon fill="black" stroke="black" points="844.75,-407.82 844.08,-397.25 838.01,-405.94 844.75,-407.82"/>
</g>
<!-- troisOF -->
<g id="node30" class="node">
<title>troisOF</title>
<text text-anchor="start" x="857.5" y="-442.8" font-family="Times New Roman,serif" font-weight="bold" font-size="14.00">Old French</text>
<text text-anchor="start" x="880" y="-428.8" font-family="Times New Roman,serif" font-size="14.00" fill="red">trois</text>
</g>
<!-- tresL&#45;&gt;troisOF -->
<g id="edge29" class="edge">
<title>tresL&#45;&gt;troisOF</title>
<path fill="none" stroke="black" d="M783.5,-534C783.5,-534 815.78,-531.22 835.5,-517 853.94,-503.7 868.94,-482.65 878.91,-465.92"/>
<polygon fill="black" stroke="black" points="882,-467.57 883.93,-457.15 875.93,-464.09 882,-467.57"/>
</g>
<!-- treyeME -->
<g id="node21" class="node">
<title>treyeME</title>
<text text-anchor="start" x="574" y="-243.8" font-family="Times New Roman,serif" font-weight="bold" font-size="14.00">Middle</text>
<text text-anchor="start" x="572.5" y="-229.8" font-family="Times New Roman,serif" font-weight="bold" font-size="14.00">English</text>
<text text-anchor="start" x="581.5" y="-215.8" font-family="Times New Roman,serif" font-size="14.00" fill="red">treye</text>
</g>
<!-- treieOF&#45;&gt;treyeME -->
<g id="edge20" class="edge">
<title>treieOF&#45;&gt;treyeME</title>
<path fill="none" stroke="black" stroke-dasharray="1,5" d="M598.25,-420.96C597.76,-387.52 596.66,-312.72 596.01,-268.54"/>
<polygon fill="black" stroke="black" points="599.5,-268.22 595.86,-258.28 592.5,-268.33 599.5,-268.22"/>
</g>
<!-- trey -->
<g id="node22" class="node">
<title>trey</title>
<text text-anchor="start" x="570" y="-47.8" font-family="Times New Roman,serif" font-weight="bold" font-size="14.00">Modern</text>
<text text-anchor="start" x="571.5" y="-33.8" font-family="Times New Roman,serif" font-weight="bold" font-size="14.00">English</text>
<text text-anchor="start" x="583.5" y="-19.8" font-family="Times New Roman,serif" font-size="14.00" fill="red">trey</text>
</g>
<!-- treyeME&#45;&gt;trey -->
<g id="edge21" class="edge">
<title>treyeME&#45;&gt;trey</title>
<path fill="none" stroke="black" d="M595.38,-207.82C595.2,-173.75 594.88,-111.42 594.68,-72.49"/>
<polygon fill="black" stroke="black" points="598.18,-72.16 594.62,-62.18 591.18,-72.2 598.18,-72.16"/>
</g>
<!-- trecento -->
<g id="node24" class="node">
<title>trecento</title>
<text text-anchor="start" x="653" y="-47.8" font-family="Times New Roman,serif" font-weight="bold" font-size="14.00">Modern</text>
<text text-anchor="start" x="654.5" y="-33.8" font-family="Times New Roman,serif" font-weight="bold" font-size="14.00">English</text>
<text text-anchor="start" x="654.5" y="-19.8" font-family="Times New Roman,serif" font-size="14.00" fill="red">trecento</text>
</g>
<!-- trecentoI&#45;&gt;trecento -->
<g id="edge24" class="edge">
<title>trecentoI&#45;&gt;trecento</title>
<path fill="none" stroke="black" stroke-dasharray="1,5" d="M677.5,-110.94C677.5,-98.64 677.5,-84.86 677.5,-72.6"/>
<polygon fill="black" stroke="black" points="681,-72.31 677.5,-62.31 674,-72.31 681,-72.31"/>
</g>
<!-- centumL -->
<g id="node25" class="node">
<title>centumL</title>
<text text-anchor="start" x="710" y="-322.8" font-family="Times New Roman,serif" font-weight="bold" font-size="14.00">Latin</text>
<text text-anchor="start" x="706" y="-308.8" font-family="Times New Roman,serif" font-size="14.00" fill="red">centum</text>
<text text-anchor="start" x="708" y="-296.4" font-family="Times New Roman,serif" font-size="12.00">hundred</text>
</g>
<!-- centumL&#45;&gt;trecentoI -->
<g id="edge23" class="edge">
<title>centumL&#45;&gt;trecentoI</title>
<path fill="none" stroke="black" d="M719.44,-288.82C710.79,-260.44 696.54,-213.66 690.43,-193.61"/>
<polygon fill="black" stroke="black" points="693.76,-192.55 687.5,-184 687.07,-194.59 693.76,-192.55"/>
</g>
<!-- tredecillion -->
<g id="node27" class="node">
<title>tredecillion</title>
<text text-anchor="start" x="742" y="-47.8" font-family="Times New Roman,serif" font-weight="bold" font-size="14.00">Modern</text>
<text text-anchor="start" x="743.5" y="-33.8" font-family="Times New Roman,serif" font-weight="bold" font-size="14.00">English</text>
<text text-anchor="start" x="736" y="-19.8" font-family="Times New Roman,serif" font-size="14.00" fill="red">tredecillion</text>
</g>
<!-- tredecimL&#45;&gt;tredecillion -->
<g id="edge26" class="edge">
<title>tredecimL&#45;&gt;tredecillion</title>
<path fill="none" stroke="black" stroke-dasharray="1,5" d="M777.44,-214.78C775.46,-182.88 771.2,-114.03 768.62,-72.29"/>
<polygon fill="black" stroke="black" points="772.1,-71.81 767.99,-62.05 765.11,-72.24 772.1,-71.81"/>
</g>
<!-- triumvir -->
<g id="node29" class="node">
<title>triumvir</title>
<text text-anchor="start" x="836" y="-54.8" font-family="Times New Roman,serif" font-weight="bold" font-size="14.00">Modern</text>
<text text-anchor="start" x="837.5" y="-40.8" font-family="Times New Roman,serif" font-weight="bold" font-size="14.00">English</text>
<text text-anchor="start" x="839" y="-26.8" font-family="Times New Roman,serif" font-size="14.00" fill="red">triumvir</text>
<text text-anchor="start" x="831" y="-12.8" font-family="Times New Roman,serif" font-size="14.00" fill="red">triumvirate</text>
</g>
<!-- triumvirumL&#45;&gt;triumvir -->
<g id="edge28" class="edge">
<title>triumvirumL&#45;&gt;triumvir</title>
<path fill="none" stroke="black" stroke-dasharray="1,5" d="M849.11,-360.67C850.94,-308.89 856.4,-154.26 859.04,-79.45"/>
<polygon fill="black" stroke="black" points="862.55,-79.13 859.41,-69.01 855.55,-78.88 862.55,-79.13"/>
</g>
<!-- troisF -->
<g id="node31" class="node">
<title>troisF</title>
<text text-anchor="start" x="895.5" y="-316.8" font-family="Times New Roman,serif" font-weight="bold" font-size="14.00">French</text>
<text text-anchor="start" x="905" y="-302.8" font-family="Times New Roman,serif" font-size="14.00" fill="red">trois</text>
</g>
<!-- troisOF&#45;&gt;troisF -->
<g id="edge30" class="edge">
<title>troisOF&#45;&gt;troisF</title>
<path fill="none" stroke="black" d="M895.98,-420.76C900.14,-400.12 907.15,-365.32 912.04,-341.08"/>
<polygon fill="black" stroke="black" points="915.51,-341.59 914.05,-331.1 908.65,-340.21 915.51,-341.59"/>
</g>
<!-- trocartF -->
<g id="node37" class="node">
<title>trocartF</title>
<text text-anchor="start" x="937" y="-143.3" font-family="Times New Roman,serif" font-size="14.00" fill="red">trocart</text>
</g>
<!-- troisF&#45;&gt;trocartF -->
<g id="edge35" class="edge">
<title>troisF&#45;&gt;trocartF</title>
<path fill="none" stroke="black" d="M921.93,-294.97C929.92,-264.28 946.49,-200.6 952.9,-176"/>
<polygon fill="black" stroke="black" points="956.37,-176.56 955.5,-166 949.59,-174.8 956.37,-176.56"/>
</g>
<!-- kwetwerIE -->
<g id="node32" class="node">
<title>kwetwerIE</title>
<g id="a_node32"><a xlink:href="kwetwer-four2.svg" xlink:title="&lt;b&gt;Indo&#45;&lt;br/&gt;European&lt;/b&gt;&lt;br/&gt;&lt;font color=&quot;red&quot;&gt;kʷetwer&#45;&lt;/font&gt;&lt;br/&gt;&lt;font point&#45;size=&quot;12&quot;&gt;four&lt;/font&gt;">
<path fill="none" stroke="black" stroke-dasharray="5,2" d="M1017,-757C1017,-757 964,-757 964,-757 958,-757 952,-751 952,-745 952,-745 952,-707 952,-707 952,-701 958,-695 964,-695 964,-695 1017,-695 1017,-695 1023,-695 1029,-701 1029,-707 1029,-707 1029,-745 1029,-745 1029,-751 1023,-757 1017,-757"/>
<text text-anchor="start" x="974" y="-742.8" font-family="Times New Roman,serif" font-weight="bold" font-size="14.00">Indo&#45;</text>
<text text-anchor="start" x="960" y="-728.8" font-family="Times New Roman,serif" font-weight="bold" font-size="14.00">European</text>
<text text-anchor="start" x="966.5" y="-714.8" font-family="Times New Roman,serif" font-size="14.00" fill="red">kʷetwer&#45;</text>
<text text-anchor="start" x="981" y="-702.4" font-family="Times New Roman,serif" font-size="12.00">four</text>
</a>
</g>
</g>
<!-- quadrumL -->
<g id="node33" class="node">
<title>quadrumL</title>
<text text-anchor="start" x="974" y="-641.8" font-family="Times New Roman,serif" font-weight="bold" font-size="14.00">Latin</text>
<text text-anchor="start" x="965.5" y="-627.8" font-family="Times New Roman,serif" font-size="14.00" fill="red">quadrum</text>
<text text-anchor="start" x="975" y="-615.4" font-family="Times New Roman,serif" font-size="12.00">square</text>
</g>
<!-- kwetwerIE&#45;&gt;quadrumL -->
<g id="edge31" class="edge">
<title>kwetwerIE&#45;&gt;quadrumL</title>
<path fill="none" stroke="black" d="M990.5,-694.88C990.5,-685.74 990.5,-675.65 990.5,-666.31"/>
<polygon fill="black" stroke="black" points="994,-666.19 990.5,-656.19 987,-666.19 994,-666.19"/>
</g>
<!-- quadrareL -->
<g id="node34" class="node">
<title>quadrareL</title>
<text text-anchor="start" x="970" y="-555.8" font-family="Times New Roman,serif" font-size="14.00" fill="red">quadrāre</text>
<text text-anchor="start" x="959.5" y="-543.4" font-family="Times New Roman,serif" font-size="12.00">to make square</text>
</g>
<!-- quadrumL&#45;&gt;quadrareL -->
<g id="edge32" class="edge">
<title>quadrumL&#45;&gt;quadrareL</title>
<path fill="none" stroke="black" d="M991.7,-607.9C992.13,-599.58 992.62,-590.12 993.07,-581.47"/>
<polygon fill="black" stroke="black" points="996.57,-581.62 993.59,-571.45 989.58,-581.26 996.57,-581.62"/>
</g>
<!-- carrerOF -->
<g id="node35" class="node">
<title>carrerOF</title>
<text text-anchor="start" x="961.5" y="-442.8" font-family="Times New Roman,serif" font-weight="bold" font-size="14.00">Old French</text>
<text text-anchor="start" x="980" y="-428.8" font-family="Times New Roman,serif" font-size="14.00" fill="red">carrer</text>
</g>
<!-- quadrareL&#45;&gt;carrerOF -->
<g id="edge33" class="edge">
<title>quadrareL&#45;&gt;carrerOF</title>
<path fill="none" stroke="black" d="M994.8,-534.99C995.12,-517.06 995.63,-488.56 996.01,-467.44"/>
<polygon fill="black" stroke="black" points="999.51,-467.23 996.19,-457.17 992.52,-467.11 999.51,-467.23"/>
</g>
<!-- carreF -->
<g id="node36" class="node">
<title>carreF</title>
<text text-anchor="start" x="974.5" y="-328.8" font-family="Times New Roman,serif" font-weight="bold" font-size="14.00">French</text>
<text text-anchor="start" x="982.5" y="-314.8" font-family="Times New Roman,serif" font-size="14.00" fill="red">carre</text>
<text text-anchor="start" x="974.5" y="-302.4" font-family="Times New Roman,serif" font-size="12.00">side of an</text>
<text text-anchor="start" x="973.5" y="-290.4" font-family="Times New Roman,serif" font-size="12.00">instrument</text>
</g>
<!-- carrerOF&#45;&gt;carreF -->
<g id="edge34" class="edge">
<title>carrerOF&#45;&gt;carreF</title>
<path fill="none" stroke="black" d="M996.5,-420.76C996.5,-403.33 996.5,-375.8 996.5,-353.06"/>
<polygon fill="black" stroke="black" points="1000,-353 996.5,-343 993,-353 1000,-353"/>
</g>
<!-- carreF&#45;&gt;trocartF -->
<g id="edge36" class="edge">
<title>carreF&#45;&gt;trocartF</title>
<path fill="none" stroke="black" d="M988.3,-282.81C979,-249.69 964.34,-197.48 958.27,-175.87"/>
<polygon fill="black" stroke="black" points="961.57,-174.68 955.5,-166 954.83,-176.57 961.57,-174.68"/>
</g>
<!-- trocar -->
<g id="node38" class="node">
<title>trocar</title>
<text text-anchor="start" x="931" y="-59.8" font-family="Times New Roman,serif" font-weight="bold" font-size="14.00">Modern</text>
<text text-anchor="start" x="932.5" y="-45.8" font-family="Times New Roman,serif" font-weight="bold" font-size="14.00">English</text>
<text text-anchor="start" x="938.5" y="-31.8" font-family="Times New Roman,serif" font-size="14.00" fill="red">trocar</text>
<text text-anchor="start" x="934" y="-19.4" font-family="Times New Roman,serif" font-size="12.00">a surgical</text>
<text text-anchor="start" x="932.5" y="-7.4" font-family="Times New Roman,serif" font-size="12.00">instrument</text>
</g>
<!-- trocartF&#45;&gt;trocar -->
<g id="edge37" class="edge">
<title>trocartF&#45;&gt;trocar</title>
<path fill="none" stroke="black" stroke-dasharray="1,5" d="M955.5,-128.65C955.5,-116.62 955.5,-99.99 955.5,-84.25"/>
<polygon fill="black" stroke="black" points="959,-84.1 955.5,-74.1 952,-84.1 959,-84.1"/>
</g>
<!-- triskaidekaG -->
<g id="node40" class="node">
<title>triskaidekaG</title>
<text text-anchor="start" x="1039.5" y="-501.8" font-family="Times New Roman,serif" font-size="14.00" fill="red">triskaideka</text>
<text text-anchor="start" x="1052.5" y="-489.4" font-family="Times New Roman,serif" font-size="12.00">thirteen</text>
</g>
<!-- treisG&#45;&gt;triskaidekaG -->
<g id="edge39" class="edge">
<title>treisG&#45;&gt;triskaidekaG</title>
<path fill="none" stroke="black" d="M1069.5,-613.87C1069.5,-591.91 1069.5,-553.54 1069.5,-527.47"/>
<polygon fill="black" stroke="black" points="1073,-527.13 1069.5,-517.13 1066,-527.13 1073,-527.13"/>
</g>
<!-- triskaidekaphobia -->
<g id="node41" class="node">
<title>triskaidekaphobia</title>
<text text-anchor="start" x="1045" y="-53.8" font-family="Times New Roman,serif" font-weight="bold" font-size="14.00">Modern</text>
<text text-anchor="start" x="1046.5" y="-39.8" font-family="Times New Roman,serif" font-weight="bold" font-size="14.00">English</text>
<text text-anchor="start" x="1020.5" y="-25.8" font-family="Times New Roman,serif" font-size="14.00" fill="red">triskaidekaphobia</text>
<text text-anchor="start" x="1020.5" y="-13.4" font-family="Times New Roman,serif" font-size="12.00">fear of the number 13</text>
</g>
<!-- triskaidekaG&#45;&gt;triskaidekaphobia -->
<g id="edge40" class="edge">
<title>triskaidekaG&#45;&gt;triskaidekaphobia</title>
<path fill="none" stroke="black" stroke-dasharray="1,5" d="M1069.5,-480.8C1069.5,-457.83 1069.5,-415.85 1069.5,-380 1069.5,-380 1069.5,-380 1069.5,-146 1069.5,-123.65 1069.5,-98.69 1069.5,-78.4"/>
<polygon fill="black" stroke="black" points="1073,-78.26 1069.5,-68.26 1066,-78.26 1073,-78.26"/>
</g>
</g>
</svg>
