<?xml version="1.0" encoding="UTF-8" standalone="no"?>
<!DOCTYPE svg PUBLIC "-//W3C//DTD SVG 1.1//EN"
 "http://www.w3.org/Graphics/SVG/1.1/DTD/svg11.dtd">
<!-- Generated by graphviz version 2.49.0 (20210828.1703)
 -->
<!-- Pages: 1 -->
<svg width="1357pt" height="798pt"
 viewBox="0.00 0.00 1357.00 798.00" xmlns="http://www.w3.org/2000/svg" xmlns:xlink="http://www.w3.org/1999/xlink">
<g id="graph0" class="graph" transform="scale(1 1) rotate(0) translate(4 794)">
<polygon fill="white" stroke="transparent" points="-4,4 -4,-794 1353,-794 1353,4 -4,4"/>
<!-- uperIE -->
<g id="node1" class="node">
<title>uperIE</title>
<g id="a_node1"><a xlink:title="Indo&#45;European &quot;*uper&quot; over">
<polygon fill="none" stroke="black" points="221,-786 10,-786 10,-682 221,-682 221,-786"/>
<polygon fill="none" stroke="black" points="225,-790 6,-790 6,-678 225,-678 225,-790"/>
<text text-anchor="start" x="37.5" y="-741.8" font-family="Times New Roman,serif" font-weight="bold" font-size="24.00">Indo&#45;European</text>
<text text-anchor="start" x="57" y="-713.6" font-family="Times New Roman,serif" font-size="18.00" fill="red">*uper</text>
<text text-anchor="start" x="146.5" y="-714.2" font-family="Times New Roman,serif" font-size="16.00">over</text>
</a>
</g>
</g>
<!-- uperiIE -->
<g id="node2" class="node">
<title>uperiIE</title>
<text text-anchor="start" x="98" y="-607.3" font-family="Times New Roman,serif" font-size="14.00" fill="red">*uperi</text>
</g>
<!-- uperIE&#45;&gt;uperiIE -->
<g id="edge1" class="edge">
<title>uperIE&#45;&gt;uperiIE</title>
<path fill="none" stroke="black" d="M115.5,-677.81C115.5,-664.49 115.5,-650.83 115.5,-639.42"/>
<polygon fill="black" stroke="black" points="119,-639.27 115.5,-629.27 112,-639.27 119,-639.27"/>
</g>
<!-- superIE -->
<g id="node6" class="node">
<title>superIE</title>
<text text-anchor="start" x="530" y="-607.3" font-family="Times New Roman,serif" font-size="14.00" fill="red">*(s)uper</text>
</g>
<!-- uperIE&#45;&gt;superIE -->
<g id="edge5" class="edge">
<title>uperIE&#45;&gt;superIE</title>
<path fill="none" stroke="black" d="M225.18,-702.7C318.26,-676.99 446.79,-641.48 511.98,-623.47"/>
<polygon fill="black" stroke="black" points="513.18,-626.77 521.88,-620.73 511.31,-620.02 513.18,-626.77"/>
</g>
<!-- huperGk -->
<g id="node58" class="node">
<title>huperGk</title>
<text text-anchor="start" x="20.5" y="-431.8" font-family="Times New Roman,serif" font-weight="bold" font-size="14.00">Greek</text>
<text text-anchor="start" x="24.5" y="-417.8" font-family="Times New Roman,serif" font-size="14.00" fill="red">huper</text>
<text text-anchor="start" x="22" y="-403.8" font-family="Times New Roman,serif" font-size="14.00" fill="red">huper&#45;</text>
<text text-anchor="start" x="10" y="-391.4" font-family="Times New Roman,serif" font-size="12.00">over, beyond</text>
</g>
<!-- uperIE&#45;&gt;huperGk -->
<g id="edge57" class="edge">
<title>uperIE&#45;&gt;huperGk</title>
<path fill="none" stroke="black" d="M91.57,-677.8C87.1,-666.13 82.81,-653.78 79.5,-642 61.57,-578.16 50.47,-501.75 44.89,-456.13"/>
<polygon fill="black" stroke="black" points="48.35,-455.56 43.69,-446.05 41.4,-456.39 48.35,-455.56"/>
</g>
<!-- oferOE -->
<g id="node3" class="node">
<title>oferOE</title>
<text text-anchor="start" x="79" y="-320.8" font-family="Times New Roman,serif" font-weight="bold" font-size="14.00">Old English</text>
<text text-anchor="start" x="104" y="-306.8" font-family="Times New Roman,serif" font-size="14.00" fill="red">ofer</text>
</g>
<!-- uperiIE&#45;&gt;oferOE -->
<g id="edge2" class="edge">
<title>uperiIE&#45;&gt;oferOE</title>
<path fill="none" stroke="black" d="M115.5,-592.61C115.5,-543.72 115.5,-404.76 115.5,-345.42"/>
<polygon fill="black" stroke="black" points="119,-345.3 115.5,-335.3 112,-345.3 119,-345.3"/>
</g>
<!-- overME -->
<g id="node4" class="node">
<title>overME</title>
<text text-anchor="start" x="94" y="-142.8" font-family="Times New Roman,serif" font-weight="bold" font-size="14.00">Middle</text>
<text text-anchor="start" x="92.5" y="-128.8" font-family="Times New Roman,serif" font-weight="bold" font-size="14.00">English</text>
<text text-anchor="start" x="103" y="-114.8" font-family="Times New Roman,serif" font-size="14.00" fill="red">over</text>
</g>
<!-- oferOE&#45;&gt;overME -->
<g id="edge3" class="edge">
<title>oferOE&#45;&gt;overME</title>
<path fill="none" stroke="black" d="M115.5,-298.78C115.5,-268.79 115.5,-206.43 115.5,-167.32"/>
<polygon fill="black" stroke="black" points="119,-167.19 115.5,-157.19 112,-167.19 119,-167.19"/>
</g>
<!-- over -->
<g id="node5" class="node">
<title>over</title>
<text text-anchor="start" x="91" y="-42.8" font-family="Times New Roman,serif" font-weight="bold" font-size="14.00">Modern</text>
<text text-anchor="start" x="92.5" y="-28.8" font-family="Times New Roman,serif" font-weight="bold" font-size="14.00">English</text>
<text text-anchor="start" x="103" y="-14.8" font-family="Times New Roman,serif" font-size="14.00" fill="red">over</text>
</g>
<!-- overME&#45;&gt;over -->
<g id="edge4" class="edge">
<title>overME&#45;&gt;over</title>
<path fill="none" stroke="black" d="M115.5,-106.78C115.5,-94.88 115.5,-80.34 115.5,-67.32"/>
<polygon fill="black" stroke="black" points="119,-67.29 115.5,-57.29 112,-67.29 119,-67.29"/>
</g>
<!-- superL -->
<g id="node7" class="node">
<title>superL</title>
<text text-anchor="start" x="590" y="-529.8" font-family="Times New Roman,serif" font-weight="bold" font-size="14.00">Latin</text>
<text text-anchor="start" x="591" y="-515.8" font-family="Times New Roman,serif" font-size="14.00" fill="red">super</text>
<text text-anchor="start" x="579" y="-503.4" font-family="Times New Roman,serif" font-size="12.00">over, above</text>
<text text-anchor="start" x="588.5" y="-489.8" font-family="Times New Roman,serif" font-size="14.00" fill="red">super&#45;</text>
</g>
<!-- superIE&#45;&gt;superL -->
<g id="edge6" class="edge">
<title>superIE&#45;&gt;superL</title>
<path fill="none" stroke="black" d="M562.98,-592.84C569.08,-581.78 577.28,-566.93 584.91,-553.1"/>
<polygon fill="black" stroke="black" points="588.05,-554.66 589.82,-544.21 581.92,-551.28 588.05,-554.66"/>
</g>
<!-- supernoIE -->
<g id="node30" class="node">
<title>supernoIE</title>
<text text-anchor="start" x="465.5" y="-509.3" font-family="Times New Roman,serif" font-size="14.00" fill="red">*(s)uper&#45;no&#45;</text>
</g>
<!-- superIE&#45;&gt;supernoIE -->
<g id="edge29" class="edge">
<title>superIE&#45;&gt;supernoIE</title>
<path fill="none" stroke="black" d="M544.02,-592.84C535.88,-578.09 524.03,-556.62 514.75,-539.8"/>
<polygon fill="black" stroke="black" points="517.79,-538.08 509.89,-531.01 511.66,-541.46 517.79,-538.08"/>
</g>
<!-- superbhwo -->
<g id="node36" class="node">
<title>superbhwo</title>
<text text-anchor="start" x="329" y="-515.8" font-family="Times New Roman,serif" font-size="14.00" fill="red">*super&#45;bhw&#45;o&#45;</text>
<text text-anchor="start" x="343" y="-503.4" font-family="Times New Roman,serif" font-size="12.00">being above</text>
</g>
<!-- superIE&#45;&gt;superbhwo -->
<g id="edge34" class="edge">
<title>superIE&#45;&gt;superbhwo</title>
<path fill="none" stroke="black" d="M521.62,-593.28C491.2,-577.32 445.21,-553.19 411.95,-535.75"/>
<polygon fill="black" stroke="black" points="413.41,-532.56 402.93,-531.01 410.16,-538.76 413.41,-532.56"/>
</g>
<!-- supmoIE -->
<g id="node39" class="node">
<title>supmoIE</title>
<text text-anchor="start" x="822" y="-509.3" font-family="Times New Roman,serif" font-size="14.00" fill="red">*sup&#45;mo&#45;</text>
</g>
<!-- superIE&#45;&gt;supmoIE -->
<g id="edge38" class="edge">
<title>superIE&#45;&gt;supmoIE</title>
<path fill="none" stroke="black" d="M585.18,-599.73C637.87,-582.64 743.72,-548.31 804.26,-528.67"/>
<polygon fill="black" stroke="black" points="805.5,-531.95 813.93,-525.54 803.34,-525.29 805.5,-531.95"/>
</g>
<!-- superoIE -->
<g id="node48" class="node">
<title>superoIE</title>
<text text-anchor="start" x="1038" y="-509.3" font-family="Times New Roman,serif" font-size="14.00" fill="red">*super&#45;o&#45;</text>
</g>
<!-- superIE&#45;&gt;superoIE -->
<g id="edge47" class="edge">
<title>superIE&#45;&gt;superoIE</title>
<path fill="none" stroke="black" d="M585.14,-604.07C672.51,-587.69 917.38,-541.77 1019.68,-522.59"/>
<polygon fill="black" stroke="black" points="1020.52,-525.99 1029.71,-520.71 1019.23,-519.11 1020.52,-525.99"/>
</g>
<!-- super -->
<g id="node8" class="node">
<title>super</title>
<text text-anchor="start" x="865" y="-49.8" font-family="Times New Roman,serif" font-weight="bold" font-size="14.00">Modern</text>
<text text-anchor="start" x="866.5" y="-35.8" font-family="Times New Roman,serif" font-weight="bold" font-size="14.00">English</text>
<text text-anchor="start" x="871.5" y="-21.8" font-family="Times New Roman,serif" font-size="14.00" fill="red">super&#45;</text>
<text text-anchor="start" x="874" y="-7.8" font-family="Times New Roman,serif" font-size="14.00" fill="red">super</text>
</g>
<!-- superL&#45;&gt;super -->
<g id="edge7" class="edge">
<title>superL&#45;&gt;super</title>
<path fill="none" stroke="black" stroke-dasharray="5,2" d="M642.06,-505.12C718.06,-488.14 889.5,-436.69 889.5,-318 889.5,-318 889.5,-318 889.5,-224 889.5,-172.47 889.5,-113.13 889.5,-74.44"/>
<polygon fill="black" stroke="black" points="893,-74.1 889.5,-64.1 886,-74.1 893,-74.1"/>
</g>
<!-- surOF -->
<g id="node9" class="node">
<title>surOF</title>
<text text-anchor="start" x="444.5" y="-320.8" font-family="Times New Roman,serif" font-weight="bold" font-size="14.00">Old French</text>
<text text-anchor="start" x="468.5" y="-306.8" font-family="Times New Roman,serif" font-size="14.00" fill="red">sur&#45;</text>
</g>
<!-- superL&#45;&gt;surOF -->
<g id="edge8" class="edge">
<title>superL&#45;&gt;surOF</title>
<path fill="none" stroke="black" d="M570.94,-491.27C547.09,-476.71 518.62,-457.79 510.5,-446 489.66,-415.74 482.77,-373.05 480.53,-345.44"/>
<polygon fill="black" stroke="black" points="484.01,-345.06 479.86,-335.31 477.02,-345.52 484.01,-345.06"/>
</g>
<!-- superanusL -->
<g id="node12" class="node">
<title>superanusL</title>
<text text-anchor="start" x="527.5" y="-411.3" font-family="Times New Roman,serif" font-size="14.00" fill="red">*superānus</text>
</g>
<!-- superL&#45;&gt;superanusL -->
<g id="edge11" class="edge">
<title>superL&#45;&gt;superanusL</title>
<path fill="none" stroke="black" d="M591.76,-481.89C585.56,-469.22 578.4,-454.61 572.41,-442.37"/>
<polygon fill="black" stroke="black" points="575.44,-440.59 567.9,-433.15 569.15,-443.67 575.44,-440.59"/>
</g>
<!-- superareL -->
<g id="node16" class="node">
<title>superareL</title>
<text text-anchor="start" x="630.5" y="-417.8" font-family="Times New Roman,serif" font-size="14.00" fill="red">superāre</text>
<text text-anchor="start" x="625.5" y="-405.4" font-family="Times New Roman,serif" font-size="12.00">to overcome</text>
</g>
<!-- superL&#45;&gt;superareL -->
<g id="edge15" class="edge">
<title>superL&#45;&gt;superareL</title>
<path fill="none" stroke="black" d="M621.56,-481.89C627.89,-469.22 635.2,-454.61 641.31,-442.37"/>
<polygon fill="black" stroke="black" points="644.58,-443.66 645.93,-433.15 638.32,-440.53 644.58,-443.66"/>
</g>
<!-- superusL -->
<g id="node19" class="node">
<title>superusL</title>
<text text-anchor="start" x="717.5" y="-417.8" font-family="Times New Roman,serif" font-size="14.00" fill="red">superus</text>
<text text-anchor="start" x="726" y="-405.4" font-family="Times New Roman,serif" font-size="12.00">upper</text>
</g>
<!-- superL&#45;&gt;superusL -->
<g id="edge18" class="edge">
<title>superL&#45;&gt;superusL</title>
<path fill="none" stroke="black" d="M642.02,-487.6C659.73,-475.3 681.38,-460.05 700.5,-446 703.34,-443.91 706.28,-441.72 709.21,-439.51"/>
<polygon fill="black" stroke="black" points="711.52,-442.15 717.35,-433.3 707.28,-436.58 711.52,-442.15"/>
</g>
<!-- surME -->
<g id="node10" class="node">
<title>surME</title>
<text text-anchor="start" x="470" y="-235.8" font-family="Times New Roman,serif" font-weight="bold" font-size="14.00">Middle</text>
<text text-anchor="start" x="468.5" y="-221.8" font-family="Times New Roman,serif" font-weight="bold" font-size="14.00">English</text>
<text text-anchor="start" x="480.5" y="-207.8" font-family="Times New Roman,serif" font-size="14.00" fill="red">sur&#45;</text>
</g>
<!-- surOF&#45;&gt;surME -->
<g id="edge9" class="edge">
<title>surOF&#45;&gt;surME</title>
<path fill="none" stroke="black" stroke-dasharray="5,2" d="M481.81,-298.65C483.26,-287.76 485.19,-273.36 486.93,-260.25"/>
<polygon fill="black" stroke="black" points="490.43,-260.48 488.29,-250.1 483.5,-259.55 490.43,-260.48"/>
</g>
<!-- surlongeOF -->
<g id="node27" class="node">
<title>surlongeOF</title>
<text text-anchor="start" x="322.5" y="-221.3" font-family="Times New Roman,serif" font-size="14.00" fill="red">surlonge, *surloigne</text>
</g>
<!-- surOF&#45;&gt;surlongeOF -->
<g id="edge25" class="edge">
<title>surOF&#45;&gt;surlongeOF</title>
<path fill="none" stroke="black" d="M460.03,-298.65C444.52,-284.83 422.63,-265.33 405.44,-250.01"/>
<polygon fill="black" stroke="black" points="407.71,-247.34 397.91,-243.3 403.05,-252.57 407.71,-247.34"/>
</g>
<!-- sur -->
<g id="node11" class="node">
<title>sur</title>
<text text-anchor="start" x="439" y="-42.8" font-family="Times New Roman,serif" font-weight="bold" font-size="14.00">Modern</text>
<text text-anchor="start" x="440.5" y="-28.8" font-family="Times New Roman,serif" font-weight="bold" font-size="14.00">English</text>
<text text-anchor="start" x="452.5" y="-14.8" font-family="Times New Roman,serif" font-size="14.00" fill="red">sur&#45;</text>
</g>
<!-- surME&#45;&gt;sur -->
<g id="edge10" class="edge">
<title>surME&#45;&gt;sur</title>
<path fill="none" stroke="black" d="M487.95,-199.81C483.04,-166.32 474.15,-105.64 468.55,-67.43"/>
<polygon fill="black" stroke="black" points="471.98,-66.68 467.06,-57.29 465.05,-67.7 471.98,-66.68"/>
</g>
<!-- soverainOF -->
<g id="node13" class="node">
<title>soverainOF</title>
<text text-anchor="start" x="548.5" y="-320.8" font-family="Times New Roman,serif" font-weight="bold" font-size="14.00">Old French</text>
<text text-anchor="start" x="560" y="-306.8" font-family="Times New Roman,serif" font-size="14.00" fill="red">soverain</text>
</g>
<!-- superanusL&#45;&gt;soverainOF -->
<g id="edge12" class="edge">
<title>superanusL&#45;&gt;soverainOF</title>
<path fill="none" stroke="black" d="M563.79,-396.84C567.41,-382.37 572.65,-361.41 576.81,-344.74"/>
<polygon fill="black" stroke="black" points="580.22,-345.56 579.25,-335.01 573.43,-343.87 580.22,-345.56"/>
</g>
<!-- soverainME -->
<g id="node14" class="node">
<title>soverainME</title>
<text text-anchor="start" x="528" y="-142.8" font-family="Times New Roman,serif" font-weight="bold" font-size="14.00">Middle</text>
<text text-anchor="start" x="526.5" y="-128.8" font-family="Times New Roman,serif" font-weight="bold" font-size="14.00">English</text>
<text text-anchor="start" x="526" y="-114.8" font-family="Times New Roman,serif" font-size="14.00" fill="red">soverain</text>
</g>
<!-- soverainOF&#45;&gt;soverainME -->
<g id="edge13" class="edge">
<title>soverainOF&#45;&gt;soverainME</title>
<path fill="none" stroke="black" stroke-dasharray="5,2" d="M580.3,-298.78C574.72,-268.73 563.09,-206.16 555.83,-167.07"/>
<polygon fill="black" stroke="black" points="559.26,-166.39 554,-157.19 552.38,-167.67 559.26,-166.39"/>
</g>
<!-- sovereign -->
<g id="node15" class="node">
<title>sovereign</title>
<text text-anchor="start" x="525" y="-42.8" font-family="Times New Roman,serif" font-weight="bold" font-size="14.00">Modern</text>
<text text-anchor="start" x="526.5" y="-28.8" font-family="Times New Roman,serif" font-weight="bold" font-size="14.00">English</text>
<text text-anchor="start" x="522.5" y="-14.8" font-family="Times New Roman,serif" font-size="14.00" fill="red">sovereign</text>
</g>
<!-- soverainME&#45;&gt;sovereign -->
<g id="edge14" class="edge">
<title>soverainME&#45;&gt;sovereign</title>
<path fill="none" stroke="black" d="M549.5,-106.78C549.5,-94.88 549.5,-80.34 549.5,-67.32"/>
<polygon fill="black" stroke="black" points="553,-67.29 549.5,-57.29 546,-67.29 553,-67.29"/>
</g>
<!-- superabilisL -->
<g id="node17" class="node">
<title>superabilisL</title>
<text text-anchor="start" x="607.5" y="-128.3" font-family="Times New Roman,serif" font-size="14.00" fill="red">superābilis</text>
</g>
<!-- superareL&#45;&gt;superabilisL -->
<g id="edge16" class="edge">
<title>superareL&#45;&gt;superabilisL</title>
<path fill="none" stroke="black" d="M653.46,-396.85C650.61,-349.72 642.64,-217.96 639.16,-160.44"/>
<polygon fill="black" stroke="black" points="642.64,-160.06 638.55,-150.29 635.66,-160.48 642.64,-160.06"/>
</g>
<!-- superable -->
<g id="node18" class="node">
<title>superable</title>
<text text-anchor="start" x="613" y="-42.8" font-family="Times New Roman,serif" font-weight="bold" font-size="14.00">Modern</text>
<text text-anchor="start" x="614.5" y="-28.8" font-family="Times New Roman,serif" font-weight="bold" font-size="14.00">English</text>
<text text-anchor="start" x="610.5" y="-14.8" font-family="Times New Roman,serif" font-size="14.00" fill="red">superable</text>
</g>
<!-- superabilisL&#45;&gt;superable -->
<g id="edge17" class="edge">
<title>superabilisL&#45;&gt;superable</title>
<path fill="none" stroke="black" stroke-dasharray="5,2" d="M637.5,-113.93C637.5,-101.19 637.5,-83.34 637.5,-67.65"/>
<polygon fill="black" stroke="black" points="641,-67.22 637.5,-57.22 634,-67.22 641,-67.22"/>
</g>
<!-- superiorL -->
<g id="node20" class="node">
<title>superiorL</title>
<text text-anchor="start" x="715.5" y="-319.8" font-family="Times New Roman,serif" font-size="14.00" fill="red">superior</text>
<text text-anchor="start" x="724.5" y="-307.4" font-family="Times New Roman,serif" font-size="12.00">higher</text>
</g>
<!-- superusL&#45;&gt;superiorL -->
<g id="edge19" class="edge">
<title>superusL&#45;&gt;superiorL</title>
<path fill="none" stroke="black" d="M739.32,-396.84C739.17,-382.5 738.96,-361.81 738.78,-345.22"/>
<polygon fill="black" stroke="black" points="742.28,-344.98 738.68,-335.01 735.28,-345.05 742.28,-344.98"/>
</g>
<!-- supremusL -->
<g id="node24" class="node">
<title>supremusL</title>
<text text-anchor="start" x="782" y="-134.8" font-family="Times New Roman,serif" font-size="14.00" fill="red">suprēmus</text>
<text text-anchor="start" x="794" y="-122.4" font-family="Times New Roman,serif" font-size="12.00">highest</text>
</g>
<!-- superusL&#45;&gt;supremusL -->
<g id="edge23" class="edge">
<title>superusL&#45;&gt;supremusL</title>
<path fill="none" stroke="black" d="M752.08,-397C760.91,-384.18 772.22,-365.83 778.5,-348 801.26,-283.34 807.33,-202.12 808.93,-160.45"/>
<polygon fill="black" stroke="black" points="812.44,-160.37 809.27,-150.26 805.44,-160.14 812.44,-160.37"/>
</g>
<!-- superiorOF -->
<g id="node21" class="node">
<title>superiorOF</title>
<text text-anchor="start" x="691.5" y="-228.8" font-family="Times New Roman,serif" font-weight="bold" font-size="14.00">Old French</text>
<text text-anchor="start" x="703.5" y="-214.8" font-family="Times New Roman,serif" font-size="14.00" fill="red">superior</text>
</g>
<!-- superiorL&#45;&gt;superiorOF -->
<g id="edge20" class="edge">
<title>superiorL&#45;&gt;superiorOF</title>
<path fill="none" stroke="black" d="M736.19,-298.65C734.48,-285.82 732.11,-268.11 730.15,-253.38"/>
<polygon fill="black" stroke="black" points="733.6,-252.75 728.81,-243.3 726.66,-253.67 733.6,-252.75"/>
</g>
<!-- superiorME -->
<g id="node22" class="node">
<title>superiorME</title>
<text text-anchor="start" x="703" y="-142.8" font-family="Times New Roman,serif" font-weight="bold" font-size="14.00">Middle</text>
<text text-anchor="start" x="701.5" y="-128.8" font-family="Times New Roman,serif" font-weight="bold" font-size="14.00">English</text>
<text text-anchor="start" x="701.5" y="-114.8" font-family="Times New Roman,serif" font-size="14.00" fill="red">superior</text>
</g>
<!-- superiorOF&#45;&gt;superiorME -->
<g id="edge21" class="edge">
<title>superiorOF&#45;&gt;superiorME</title>
<path fill="none" stroke="black" stroke-dasharray="5,2" d="M726.12,-206.88C725.88,-195.83 725.56,-181.06 725.26,-167.64"/>
<polygon fill="black" stroke="black" points="728.75,-167.17 725.03,-157.25 721.75,-167.33 728.75,-167.17"/>
</g>
<!-- superior -->
<g id="node23" class="node">
<title>superior</title>
<text text-anchor="start" x="699" y="-42.8" font-family="Times New Roman,serif" font-weight="bold" font-size="14.00">Modern</text>
<text text-anchor="start" x="700.5" y="-28.8" font-family="Times New Roman,serif" font-weight="bold" font-size="14.00">English</text>
<text text-anchor="start" x="700.5" y="-14.8" font-family="Times New Roman,serif" font-size="14.00" fill="red">superior</text>
</g>
<!-- superiorME&#45;&gt;superior -->
<g id="edge22" class="edge">
<title>superiorME&#45;&gt;superior</title>
<path fill="none" stroke="black" d="M724.25,-106.78C724.13,-94.88 723.98,-80.34 723.85,-67.32"/>
<polygon fill="black" stroke="black" points="727.35,-67.25 723.75,-57.29 720.35,-67.32 727.35,-67.25"/>
</g>
<!-- supreme -->
<g id="node25" class="node">
<title>supreme</title>
<text text-anchor="start" x="782" y="-42.8" font-family="Times New Roman,serif" font-weight="bold" font-size="14.00">Modern</text>
<text text-anchor="start" x="783.5" y="-28.8" font-family="Times New Roman,serif" font-weight="bold" font-size="14.00">English</text>
<text text-anchor="start" x="782.5" y="-14.8" font-family="Times New Roman,serif" font-size="14.00" fill="red">supreme</text>
</g>
<!-- supremusL&#45;&gt;supreme -->
<g id="edge24" class="edge">
<title>supremusL&#45;&gt;supreme</title>
<path fill="none" stroke="black" stroke-dasharray="5,2" d="M808.98,-113.93C808.59,-101.19 808.04,-83.34 807.56,-67.65"/>
<polygon fill="black" stroke="black" points="811.05,-67.11 807.24,-57.22 804.05,-67.32 811.05,-67.11"/>
</g>
<!-- longeOF -->
<g id="node26" class="node">
<title>longeOF</title>
<text text-anchor="start" x="339.5" y="-326.8" font-family="Times New Roman,serif" font-weight="bold" font-size="14.00">Old French</text>
<text text-anchor="start" x="339" y="-312.8" font-family="Times New Roman,serif" font-size="14.00" fill="red">longe, loigne</text>
<text text-anchor="start" x="366.5" y="-300.4" font-family="Times New Roman,serif" font-size="12.00">loin</text>
</g>
<!-- longeOF&#45;&gt;surlongeOF -->
<g id="edge26" class="edge">
<title>longeOF&#45;&gt;surlongeOF</title>
<path fill="none" stroke="black" d="M375.53,-292.82C376.07,-280.7 376.73,-265.78 377.29,-253.12"/>
<polygon fill="black" stroke="black" points="380.79,-253.27 377.74,-243.13 373.8,-252.96 380.79,-253.27"/>
</g>
<!-- surloineME -->
<g id="node28" class="node">
<title>surloineME</title>
<text text-anchor="start" x="357" y="-142.8" font-family="Times New Roman,serif" font-weight="bold" font-size="14.00">Middle</text>
<text text-anchor="start" x="355.5" y="-128.8" font-family="Times New Roman,serif" font-weight="bold" font-size="14.00">English</text>
<text text-anchor="start" x="356.5" y="-114.8" font-family="Times New Roman,serif" font-size="14.00" fill="red">surloine</text>
</g>
<!-- surlongeOF&#45;&gt;surloineME -->
<g id="edge27" class="edge">
<title>surlongeOF&#45;&gt;surloineME</title>
<path fill="none" stroke="black" stroke-dasharray="5,2" d="M378.5,-206.88C378.5,-195.83 378.5,-181.06 378.5,-167.64"/>
<polygon fill="black" stroke="black" points="382,-167.25 378.5,-157.25 375,-167.25 382,-167.25"/>
</g>
<!-- sirloin -->
<g id="node29" class="node">
<title>sirloin</title>
<text text-anchor="start" x="354" y="-42.8" font-family="Times New Roman,serif" font-weight="bold" font-size="14.00">Modern</text>
<text text-anchor="start" x="355.5" y="-28.8" font-family="Times New Roman,serif" font-weight="bold" font-size="14.00">English</text>
<text text-anchor="start" x="361.5" y="-14.8" font-family="Times New Roman,serif" font-size="14.00" fill="red">sirloin</text>
</g>
<!-- surloineME&#45;&gt;sirloin -->
<g id="edge28" class="edge">
<title>surloineME&#45;&gt;sirloin</title>
<path fill="none" stroke="black" d="M378.5,-106.78C378.5,-94.88 378.5,-80.34 378.5,-67.32"/>
<polygon fill="black" stroke="black" points="382,-67.29 378.5,-57.29 375,-67.29 382,-67.29"/>
</g>
<!-- supernusL -->
<g id="node31" class="node">
<title>supernusL</title>
<text text-anchor="start" x="363" y="-424.8" font-family="Times New Roman,serif" font-weight="bold" font-size="14.00">Latin</text>
<text text-anchor="start" x="354" y="-410.8" font-family="Times New Roman,serif" font-size="14.00" fill="red">supernus</text>
<text text-anchor="start" x="338.5" y="-398.4" font-family="Times New Roman,serif" font-size="12.00">above, upper, top</text>
</g>
<!-- supernoIE&#45;&gt;supernusL -->
<g id="edge30" class="edge">
<title>supernoIE&#45;&gt;supernusL</title>
<path fill="none" stroke="black" d="M478.87,-494.84C461.58,-481.13 436.96,-461.59 416.55,-445.4"/>
<polygon fill="black" stroke="black" points="418.68,-442.62 408.68,-439.15 414.33,-448.1 418.68,-442.62"/>
</g>
<!-- supernalOF -->
<g id="node32" class="node">
<title>supernalOF</title>
<text text-anchor="start" x="234.5" y="-320.8" font-family="Times New Roman,serif" font-weight="bold" font-size="14.00">Old French</text>
<text text-anchor="start" x="246" y="-306.8" font-family="Times New Roman,serif" font-size="14.00" fill="red">supernal</text>
</g>
<!-- supernusL&#45;&gt;supernalOF -->
<g id="edge31" class="edge">
<title>supernusL&#45;&gt;supernalOF</title>
<path fill="none" stroke="black" d="M352.87,-390.76C335.93,-375.98 314.05,-356.88 296.95,-341.96"/>
<polygon fill="black" stroke="black" points="298.82,-338.95 288.99,-335.01 294.22,-344.22 298.82,-338.95"/>
</g>
<!-- supernalME -->
<g id="node33" class="node">
<title>supernalME</title>
<text text-anchor="start" x="243" y="-235.8" font-family="Times New Roman,serif" font-weight="bold" font-size="14.00">Middle</text>
<text text-anchor="start" x="241.5" y="-221.8" font-family="Times New Roman,serif" font-weight="bold" font-size="14.00">English</text>
<text text-anchor="start" x="241" y="-207.8" font-family="Times New Roman,serif" font-size="14.00" fill="red">supernal</text>
</g>
<!-- supernalOF&#45;&gt;supernalME -->
<g id="edge32" class="edge">
<title>supernalOF&#45;&gt;supernalME</title>
<path fill="none" stroke="black" stroke-dasharray="5,2" d="M268.54,-298.65C267.93,-287.76 267.13,-273.36 266.4,-260.25"/>
<polygon fill="black" stroke="black" points="269.89,-259.89 265.84,-250.1 262.9,-260.28 269.89,-259.89"/>
</g>
<!-- supernal -->
<g id="node34" class="node">
<title>supernal</title>
<text text-anchor="start" x="257" y="-42.8" font-family="Times New Roman,serif" font-weight="bold" font-size="14.00">Modern</text>
<text text-anchor="start" x="258.5" y="-28.8" font-family="Times New Roman,serif" font-weight="bold" font-size="14.00">English</text>
<text text-anchor="start" x="258" y="-14.8" font-family="Times New Roman,serif" font-size="14.00" fill="red">supernal</text>
</g>
<!-- supernalME&#45;&gt;supernal -->
<g id="edge33" class="edge">
<title>supernalME&#45;&gt;supernal</title>
<path fill="none" stroke="black" d="M266.65,-199.81C269.63,-166.32 275.03,-105.64 278.44,-67.43"/>
<polygon fill="black" stroke="black" points="281.94,-67.57 279.34,-57.29 274.96,-66.95 281.94,-67.57"/>
</g>
<!-- bheueIE -->
<g id="node35" class="node">
<title>bheueIE</title>
<g id="a_node35"><a xlink:href="bheue-be.svg" xlink:title="&lt;b&gt;Indo&#45;&lt;br/&gt;European&lt;/b&gt;&lt;br/&gt;&lt;font color=&quot;red&quot;&gt;*bheu(ə)&lt;/font&gt;&lt;br/&gt;&lt;font point&#45;size=&quot;12&quot;&gt;to be&lt;/font&gt;">
<path fill="none" stroke="black" stroke-dasharray="5,2" d="M397,-642C397,-642 344,-642 344,-642 338,-642 332,-636 332,-630 332,-630 332,-592 332,-592 332,-586 338,-580 344,-580 344,-580 397,-580 397,-580 403,-580 409,-586 409,-592 409,-592 409,-630 409,-630 409,-636 403,-642 397,-642"/>
<text text-anchor="start" x="354" y="-627.8" font-family="Times New Roman,serif" font-weight="bold" font-size="14.00">Indo&#45;</text>
<text text-anchor="start" x="340" y="-613.8" font-family="Times New Roman,serif" font-weight="bold" font-size="14.00">European</text>
<text text-anchor="start" x="346" y="-599.8" font-family="Times New Roman,serif" font-size="14.00" fill="red">*bheu(ə)</text>
<text text-anchor="start" x="358.5" y="-587.4" font-family="Times New Roman,serif" font-size="12.00">to be</text>
</a>
</g>
</g>
<!-- bheueIE&#45;&gt;superbhwo -->
<g id="edge35" class="edge">
<title>bheueIE&#45;&gt;superbhwo</title>
<path fill="none" stroke="black" d="M370.5,-579.89C370.5,-567.6 370.5,-553.48 370.5,-541.47"/>
<polygon fill="black" stroke="black" points="374,-541.15 370.5,-531.15 367,-541.15 374,-541.15"/>
</g>
<!-- superbusL -->
<g id="node37" class="node">
<title>superbusL</title>
<text text-anchor="start" x="205" y="-424.8" font-family="Times New Roman,serif" font-weight="bold" font-size="14.00">Latin</text>
<text text-anchor="start" x="195.5" y="-410.8" font-family="Times New Roman,serif" font-size="14.00" fill="red">superbus</text>
<text text-anchor="start" x="203" y="-398.4" font-family="Times New Roman,serif" font-size="12.00">superior</text>
</g>
<!-- superbhwo&#45;&gt;superbusL -->
<g id="edge36" class="edge">
<title>superbhwo&#45;&gt;superbusL</title>
<path fill="none" stroke="black" d="M343.86,-494.84C321.68,-480.54 289.67,-459.92 263.96,-443.35"/>
<polygon fill="black" stroke="black" points="265.8,-440.38 255.5,-437.91 262.01,-446.27 265.8,-440.38"/>
</g>
<!-- superb -->
<g id="node38" class="node">
<title>superb</title>
<text text-anchor="start" x="174" y="-42.8" font-family="Times New Roman,serif" font-weight="bold" font-size="14.00">Modern</text>
<text text-anchor="start" x="175.5" y="-28.8" font-family="Times New Roman,serif" font-weight="bold" font-size="14.00">English</text>
<text text-anchor="start" x="179" y="-14.8" font-family="Times New Roman,serif" font-size="14.00" fill="red">superb</text>
</g>
<!-- superbusL&#45;&gt;superb -->
<g id="edge37" class="edge">
<title>superbusL&#45;&gt;superb</title>
<path fill="none" stroke="black" stroke-dasharray="5,2" d="M220.09,-390.79C219.32,-378.14 218.36,-362.21 217.5,-348 211.32,-245.81 204.04,-124.96 200.56,-67.15"/>
<polygon fill="black" stroke="black" points="204.05,-66.88 199.95,-57.11 197.06,-67.3 204.05,-66.88"/>
</g>
<!-- summusL -->
<g id="node40" class="node">
<title>summusL</title>
<text text-anchor="start" x="947" y="-424.8" font-family="Times New Roman,serif" font-weight="bold" font-size="14.00">Latin</text>
<text text-anchor="start" x="940" y="-410.8" font-family="Times New Roman,serif" font-size="14.00" fill="red">summus</text>
<text text-anchor="start" x="948" y="-398.4" font-family="Times New Roman,serif" font-size="12.00">highest</text>
</g>
<!-- supmoIE&#45;&gt;summusL -->
<g id="edge39" class="edge">
<title>supmoIE&#45;&gt;summusL</title>
<path fill="none" stroke="black" d="M869.88,-494.84C886.09,-481.19 909.16,-461.76 928.33,-445.61"/>
<polygon fill="black" stroke="black" points="930.62,-448.27 936.01,-439.15 926.11,-442.91 930.62,-448.27"/>
</g>
<!-- summaL -->
<g id="node41" class="node">
<title>summaL</title>
<text text-anchor="start" x="1033.5" y="-313.3" font-family="Times New Roman,serif" font-size="14.00" fill="red">summa</text>
</g>
<!-- summusL&#45;&gt;summaL -->
<g id="edge40" class="edge">
<title>summusL&#45;&gt;summaL</title>
<path fill="none" stroke="black" d="M985.29,-390.76C999.02,-376.11 1016.73,-357.23 1030.66,-342.37"/>
<polygon fill="black" stroke="black" points="1033.27,-344.7 1037.56,-335.01 1028.16,-339.91 1033.27,-344.7"/>
</g>
<!-- somOF -->
<g id="node45" class="node">
<title>somOF</title>
<text text-anchor="start" x="928.5" y="-333.8" font-family="Times New Roman,serif" font-weight="bold" font-size="14.00">Old French</text>
<text text-anchor="start" x="951" y="-319.8" font-family="Times New Roman,serif" font-size="14.00" fill="red">som</text>
<text text-anchor="start" x="955.5" y="-307.4" font-family="Times New Roman,serif" font-size="12.00">top</text>
<text text-anchor="start" x="936" y="-293.8" font-family="Times New Roman,serif" font-size="14.00" fill="red">sommette</text>
</g>
<!-- summusL&#45;&gt;somOF -->
<g id="edge44" class="edge">
<title>summusL&#45;&gt;somOF</title>
<path fill="none" stroke="black" d="M963.5,-390.76C963.5,-381.09 963.5,-369.57 963.5,-358.58"/>
<polygon fill="black" stroke="black" points="967,-358.29 963.5,-348.29 960,-358.29 967,-358.29"/>
</g>
<!-- summeOF -->
<g id="node42" class="node">
<title>summeOF</title>
<text text-anchor="start" x="1020.5" y="-228.8" font-family="Times New Roman,serif" font-weight="bold" font-size="14.00">Old French</text>
<text text-anchor="start" x="1035.5" y="-214.8" font-family="Times New Roman,serif" font-size="14.00" fill="red">summe</text>
</g>
<!-- summaL&#45;&gt;summeOF -->
<g id="edge41" class="edge">
<title>summaL&#45;&gt;summeOF</title>
<path fill="none" stroke="black" d="M1053.89,-298.65C1054.17,-285.82 1054.56,-268.11 1054.89,-253.38"/>
<polygon fill="black" stroke="black" points="1058.39,-253.37 1055.12,-243.3 1051.39,-253.22 1058.39,-253.37"/>
</g>
<!-- summeME -->
<g id="node43" class="node">
<title>summeME</title>
<text text-anchor="start" x="1034" y="-142.8" font-family="Times New Roman,serif" font-weight="bold" font-size="14.00">Middle</text>
<text text-anchor="start" x="1032.5" y="-128.8" font-family="Times New Roman,serif" font-weight="bold" font-size="14.00">English</text>
<text text-anchor="start" x="1035.5" y="-114.8" font-family="Times New Roman,serif" font-size="14.00" fill="red">summe</text>
</g>
<!-- summeOF&#45;&gt;summeME -->
<g id="edge42" class="edge">
<title>summeOF&#45;&gt;summeME</title>
<path fill="none" stroke="black" stroke-dasharray="5,2" d="M1055.5,-206.88C1055.5,-195.83 1055.5,-181.06 1055.5,-167.64"/>
<polygon fill="black" stroke="black" points="1059,-167.25 1055.5,-157.25 1052,-167.25 1059,-167.25"/>
</g>
<!-- sum -->
<g id="node44" class="node">
<title>sum</title>
<text text-anchor="start" x="1031" y="-42.8" font-family="Times New Roman,serif" font-weight="bold" font-size="14.00">Modern</text>
<text text-anchor="start" x="1032.5" y="-28.8" font-family="Times New Roman,serif" font-weight="bold" font-size="14.00">English</text>
<text text-anchor="start" x="1043.5" y="-14.8" font-family="Times New Roman,serif" font-size="14.00" fill="red">sum</text>
</g>
<!-- summeME&#45;&gt;sum -->
<g id="edge43" class="edge">
<title>summeME&#45;&gt;sum</title>
<path fill="none" stroke="black" d="M1055.5,-106.78C1055.5,-94.88 1055.5,-80.34 1055.5,-67.32"/>
<polygon fill="black" stroke="black" points="1059,-67.29 1055.5,-57.29 1052,-67.29 1059,-67.29"/>
</g>
<!-- sometME -->
<g id="node46" class="node">
<title>sometME</title>
<text text-anchor="start" x="942" y="-235.8" font-family="Times New Roman,serif" font-weight="bold" font-size="14.00">Middle</text>
<text text-anchor="start" x="940.5" y="-221.8" font-family="Times New Roman,serif" font-weight="bold" font-size="14.00">English</text>
<text text-anchor="start" x="946.5" y="-207.8" font-family="Times New Roman,serif" font-size="14.00" fill="red">somet</text>
</g>
<!-- somOF&#45;&gt;sometME -->
<g id="edge45" class="edge">
<title>somOF&#45;&gt;sometME</title>
<path fill="none" stroke="black" stroke-dasharray="5,2" d="M963.5,-285.53C963.5,-277.43 963.5,-268.62 963.5,-260.32"/>
<polygon fill="black" stroke="black" points="967,-260.18 963.5,-250.18 960,-260.18 967,-260.18"/>
</g>
<!-- summit -->
<g id="node47" class="node">
<title>summit</title>
<text text-anchor="start" x="948" y="-42.8" font-family="Times New Roman,serif" font-weight="bold" font-size="14.00">Modern</text>
<text text-anchor="start" x="949.5" y="-28.8" font-family="Times New Roman,serif" font-weight="bold" font-size="14.00">English</text>
<text text-anchor="start" x="952" y="-14.8" font-family="Times New Roman,serif" font-size="14.00" fill="red">summit</text>
</g>
<!-- sometME&#45;&gt;summit -->
<g id="edge46" class="edge">
<title>sometME&#45;&gt;summit</title>
<path fill="none" stroke="black" d="M964.64,-199.81C966.22,-166.32 969.08,-105.64 970.88,-67.43"/>
<polygon fill="black" stroke="black" points="974.38,-67.45 971.36,-57.29 967.39,-67.12 974.38,-67.45"/>
</g>
<!-- supraL -->
<g id="node49" class="node">
<title>supraL</title>
<text text-anchor="start" x="1176" y="-431.8" font-family="Times New Roman,serif" font-weight="bold" font-size="14.00">Latin</text>
<text text-anchor="start" x="1177" y="-417.8" font-family="Times New Roman,serif" font-size="14.00" fill="red">suprā</text>
<text text-anchor="start" x="1174.5" y="-403.8" font-family="Times New Roman,serif" font-size="14.00" fill="red">supra&#45;</text>
<text text-anchor="start" x="1158.5" y="-391.4" font-family="Times New Roman,serif" font-size="12.00">above, beyond</text>
</g>
<!-- superoIE&#45;&gt;supraL -->
<g id="edge48" class="edge">
<title>superoIE&#45;&gt;supraL</title>
<path fill="none" stroke="black" d="M1088.21,-494.84C1103.87,-482.99 1125.29,-466.8 1144.64,-452.18"/>
<polygon fill="black" stroke="black" points="1146.92,-454.84 1152.79,-446.02 1142.7,-449.26 1146.92,-454.84"/>
</g>
<!-- supra -->
<g id="node50" class="node">
<title>supra</title>
<text text-anchor="start" x="1209" y="-42.8" font-family="Times New Roman,serif" font-weight="bold" font-size="14.00">Modern</text>
<text text-anchor="start" x="1210.5" y="-28.8" font-family="Times New Roman,serif" font-weight="bold" font-size="14.00">English</text>
<text text-anchor="start" x="1215.5" y="-14.8" font-family="Times New Roman,serif" font-size="14.00" fill="red">supra&#45;</text>
</g>
<!-- supraL&#45;&gt;supra -->
<g id="edge49" class="edge">
<title>supraL&#45;&gt;supra</title>
<path fill="none" stroke="black" stroke-dasharray="5,2" d="M1203.81,-383.84C1207.52,-372.73 1211.26,-359.94 1213.5,-348 1232.41,-247.36 1234.37,-125.8 1234.05,-67.49"/>
<polygon fill="black" stroke="black" points="1237.55,-67.33 1233.97,-57.36 1230.55,-67.38 1237.55,-67.33"/>
</g>
<!-- sopraI -->
<g id="node51" class="node">
<title>sopraI</title>
<text text-anchor="start" x="1277.5" y="-320.8" font-family="Times New Roman,serif" font-weight="bold" font-size="14.00">Italian</text>
<text text-anchor="start" x="1281.5" y="-306.8" font-family="Times New Roman,serif" font-size="14.00" fill="red">sopra</text>
</g>
<!-- supraL&#45;&gt;sopraI -->
<g id="edge50" class="edge">
<title>supraL&#45;&gt;sopraI</title>
<path fill="none" stroke="black" d="M1225.43,-383.89C1240.12,-370.47 1257.18,-354.87 1271.01,-342.22"/>
<polygon fill="black" stroke="black" points="1273.73,-344.48 1278.75,-335.15 1269,-339.31 1273.73,-344.48"/>
</g>
<!-- sobreOP -->
<g id="node54" class="node">
<title>sobreOP</title>
<text text-anchor="start" x="1108.5" y="-320.8" font-family="Times New Roman,serif" font-weight="bold" font-size="14.00">Old Provençal</text>
<text text-anchor="start" x="1134" y="-306.8" font-family="Times New Roman,serif" font-size="14.00" fill="red">sobre&#45;</text>
</g>
<!-- supraL&#45;&gt;sobreOP -->
<g id="edge53" class="edge">
<title>supraL&#45;&gt;sobreOP</title>
<path fill="none" stroke="black" d="M1179.95,-383.89C1174.73,-371.34 1168.71,-356.9 1163.64,-344.74"/>
<polygon fill="black" stroke="black" points="1166.72,-343.03 1159.64,-335.15 1160.26,-345.72 1166.72,-343.03"/>
</g>
<!-- sopranoI -->
<g id="node52" class="node">
<title>sopranoI</title>
<text text-anchor="start" x="1281.5" y="-221.3" font-family="Times New Roman,serif" font-size="14.00" fill="red">soprano</text>
</g>
<!-- sopraI&#45;&gt;sopranoI -->
<g id="edge51" class="edge">
<title>sopraI&#45;&gt;sopranoI</title>
<path fill="none" stroke="black" d="M1298.85,-298.65C1299.85,-285.82 1301.22,-268.11 1302.37,-253.38"/>
<polygon fill="black" stroke="black" points="1305.87,-253.54 1303.15,-243.3 1298.89,-253 1305.87,-253.54"/>
</g>
<!-- soprano -->
<g id="node53" class="node">
<title>soprano</title>
<text text-anchor="start" x="1292" y="-42.8" font-family="Times New Roman,serif" font-weight="bold" font-size="14.00">Modern</text>
<text text-anchor="start" x="1293.5" y="-28.8" font-family="Times New Roman,serif" font-weight="bold" font-size="14.00">English</text>
<text text-anchor="start" x="1293.5" y="-14.8" font-family="Times New Roman,serif" font-size="14.00" fill="red">soprano</text>
</g>
<!-- sopranoI&#45;&gt;soprano -->
<g id="edge52" class="edge">
<title>sopranoI&#45;&gt;soprano</title>
<path fill="none" stroke="black" stroke-dasharray="5,2" d="M1305.59,-206.71C1307.56,-175.29 1311.77,-108.27 1314.35,-67.27"/>
<polygon fill="black" stroke="black" points="1317.85,-67.4 1314.98,-57.2 1310.86,-66.96 1317.85,-67.4"/>
</g>
<!-- sobresautOP -->
<g id="node55" class="node">
<title>sobresautOP</title>
<text text-anchor="start" x="1125" y="-221.3" font-family="Times New Roman,serif" font-size="14.00" fill="red">sobresaut</text>
</g>
<!-- sobreOP&#45;&gt;sobresautOP -->
<g id="edge54" class="edge">
<title>sobreOP&#45;&gt;sobresautOP</title>
<path fill="none" stroke="black" d="M1152.5,-298.65C1152.5,-285.82 1152.5,-268.11 1152.5,-253.38"/>
<polygon fill="black" stroke="black" points="1156,-253.3 1152.5,-243.3 1149,-253.3 1156,-253.3"/>
</g>
<!-- sombresaultF -->
<g id="node56" class="node">
<title>sombresaultF</title>
<text text-anchor="start" x="1127.5" y="-149.8" font-family="Times New Roman,serif" font-weight="bold" font-size="14.00">French</text>
<text text-anchor="start" x="1121" y="-135.8" font-family="Times New Roman,serif" font-size="14.00">(obsolete)</text>
<text text-anchor="start" x="1120.5" y="-121.8" font-family="Times New Roman,serif" font-size="14.00" fill="red">sobresault</text>
<text text-anchor="start" x="1115.5" y="-107.8" font-family="Times New Roman,serif" font-size="14.00" fill="red">sombresault</text>
</g>
<!-- sobresautOP&#45;&gt;sombresaultF -->
<g id="edge55" class="edge">
<title>sobresautOP&#45;&gt;sombresaultF</title>
<path fill="none" stroke="black" stroke-dasharray="5,2" d="M1151.94,-206.88C1151.63,-197.66 1151.24,-185.84 1150.86,-174.38"/>
<polygon fill="black" stroke="black" points="1154.35,-173.92 1150.52,-164.04 1147.35,-174.15 1154.35,-173.92"/>
</g>
<!-- somersault -->
<g id="node57" class="node">
<title>somersault</title>
<text text-anchor="start" x="1120" y="-42.8" font-family="Times New Roman,serif" font-weight="bold" font-size="14.00">Modern</text>
<text text-anchor="start" x="1121.5" y="-28.8" font-family="Times New Roman,serif" font-weight="bold" font-size="14.00">English</text>
<text text-anchor="start" x="1114" y="-14.8" font-family="Times New Roman,serif" font-size="14.00" fill="red">somersault</text>
</g>
<!-- sombresaultF&#45;&gt;somersault -->
<g id="edge56" class="edge">
<title>sombresaultF&#45;&gt;somersault</title>
<path fill="none" stroke="black" stroke-dasharray="5,2" d="M1147.92,-99.99C1147.39,-89.65 1146.8,-78.06 1146.26,-67.46"/>
<polygon fill="black" stroke="black" points="1149.74,-67.1 1145.74,-57.29 1142.75,-67.45 1149.74,-67.1"/>
</g>
<!-- hyper -->
<g id="node59" class="node">
<title>hyper</title>
<text text-anchor="start" x="8" y="-42.8" font-family="Times New Roman,serif" font-weight="bold" font-size="14.00">Modern</text>
<text text-anchor="start" x="9.5" y="-28.8" font-family="Times New Roman,serif" font-weight="bold" font-size="14.00">English</text>
<text text-anchor="start" x="14" y="-14.8" font-family="Times New Roman,serif" font-size="14.00" fill="red">hyper&#45;</text>
</g>
<!-- huperGk&#45;&gt;hyper -->
<g id="edge58" class="edge">
<title>huperGk&#45;&gt;hyper</title>
<path fill="none" stroke="black" stroke-dasharray="5,2" d="M39.87,-383.79C38.4,-313.83 34.77,-141.1 33.22,-67.31"/>
<polygon fill="black" stroke="black" points="36.72,-67.09 33.01,-57.17 29.72,-67.24 36.72,-67.09"/>
</g>
</g>
</svg>
