<?xml version="1.0" encoding="UTF-8" standalone="no"?>
<!DOCTYPE svg PUBLIC "-//W3C//DTD SVG 1.1//EN"
 "http://www.w3.org/Graphics/SVG/1.1/DTD/svg11.dtd">
<!-- Generated by graphviz version 2.49.0 (20210828.1703)
 -->
<!-- Pages: 1 -->
<svg width="598pt" height="644pt"
 viewBox="0.00 0.00 597.50 644.00" xmlns="http://www.w3.org/2000/svg" xmlns:xlink="http://www.w3.org/1999/xlink">
<g id="graph0" class="graph" transform="scale(1 1) rotate(0) translate(4 640)">
<polygon fill="white" stroke="transparent" points="-4,4 -4,-640 593.5,-640 593.5,4 -4,4"/>
<!-- weIE -->
<g id="node1" class="node">
<title>weIE</title>
<g id="a_node1"><a xlink:title="Indo&#45;European &quot;wē&#45;&quot; to blow">
<polygon fill="none" stroke="black" points="286,-632 75,-632 75,-528 286,-528 286,-632"/>
<polygon fill="none" stroke="black" points="290,-636 71,-636 71,-524 290,-524 290,-636"/>
<text text-anchor="start" x="102.5" y="-587.8" font-family="Times New Roman,serif" font-weight="bold" font-size="24.00">Indo&#45;European</text>
<text text-anchor="start" x="118" y="-559.6" font-family="Times New Roman,serif" font-size="18.00" fill="red">*wē&#45;</text>
<text text-anchor="start" x="194.5" y="-560.2" font-family="Times New Roman,serif" font-size="16.00">to blow</text>
</a>
</g>
</g>
<!-- wedhroIE -->
<g id="node2" class="node">
<title>wedhroIE</title>
<text text-anchor="start" x="43.5" y="-466.3" font-family="Times New Roman,serif" font-size="14.00" fill="red">*we&#45;dhro&#45;</text>
</g>
<!-- weIE&#45;&gt;wedhroIE -->
<g id="edge1" class="edge">
<title>weIE&#45;&gt;wedhroIE</title>
<path fill="none" stroke="black" d="M125.23,-523.73C115.38,-513.88 105.58,-504.08 97.15,-495.65"/>
<polygon fill="black" stroke="black" points="99.38,-492.93 89.84,-488.34 94.43,-497.88 99.38,-492.93"/>
</g>
<!-- wentoIE -->
<g id="node7" class="node">
<title>wentoIE</title>
<text text-anchor="start" x="200" y="-472.8" font-family="Times New Roman,serif" font-size="14.00" fill="red">*wē&#45;nt&#45;o&#45;</text>
<text text-anchor="start" x="216.5" y="-460.4" font-family="Times New Roman,serif" font-size="12.00">wind</text>
</g>
<!-- weIE&#45;&gt;wentoIE -->
<g id="edge6" class="edge">
<title>weIE&#45;&gt;wentoIE</title>
<path fill="none" stroke="black" d="M204.55,-523.73C208.49,-514.68 212.41,-505.68 215.86,-497.75"/>
<polygon fill="black" stroke="black" points="219.17,-498.9 219.96,-488.34 212.76,-496.11 219.17,-498.9"/>
</g>
<!-- ventusL -->
<g id="node21" class="node">
<title>ventusL</title>
<text text-anchor="start" x="125" y="-401.8" font-family="Times New Roman,serif" font-weight="bold" font-size="14.00">Latin</text>
<text text-anchor="start" x="123" y="-387.8" font-family="Times New Roman,serif" font-size="14.00" fill="red">ventus</text>
<text text-anchor="start" x="130.5" y="-375.4" font-family="Times New Roman,serif" font-size="12.00">wind</text>
<text text-anchor="start" x="118.5" y="-361.8" font-family="Times New Roman,serif" font-size="14.00" fill="red">ventulus</text>
</g>
<!-- weIE&#45;&gt;ventusL -->
<g id="edge20" class="edge">
<title>weIE&#45;&gt;ventusL</title>
<path fill="none" stroke="black" d="M169.38,-523.95C163.08,-492.79 155.35,-454.52 149.62,-426.19"/>
<polygon fill="black" stroke="black" points="153.02,-425.35 147.61,-416.24 146.16,-426.74 153.02,-425.35"/>
</g>
<!-- vatiSk -->
<g id="node25" class="node">
<title>vatiSk</title>
<text text-anchor="start" x="506.5" y="-394.8" font-family="Times New Roman,serif" font-weight="bold" font-size="14.00">Sanskrit</text>
<text text-anchor="start" x="512.5" y="-380.8" font-family="Times New Roman,serif" font-size="14.00" fill="red">vāti, vā</text>
<text text-anchor="start" x="514.5" y="-368.4" font-family="Times New Roman,serif" font-size="12.00">it blows</text>
</g>
<!-- weIE&#45;&gt;vatiSk -->
<g id="edge24" class="edge">
<title>weIE&#45;&gt;vatiSk</title>
<path fill="none" stroke="black" d="M283.6,-523.82C341.64,-492.55 415.34,-452.49 480.5,-416 483.5,-414.32 486.59,-412.57 489.7,-410.81"/>
<polygon fill="black" stroke="black" points="491.5,-413.81 498.45,-405.81 488.03,-407.73 491.5,-413.81"/>
</g>
<!-- wedramGm -->
<g id="node3" class="node">
<title>wedramGm</title>
<text text-anchor="start" x="20" y="-394.8" font-family="Times New Roman,serif" font-weight="bold" font-size="14.00">Germanic</text>
<text text-anchor="start" x="24.5" y="-380.8" font-family="Times New Roman,serif" font-size="14.00" fill="red">*wedram</text>
<text text-anchor="start" x="32" y="-368.4" font-family="Times New Roman,serif" font-size="12.00">weather</text>
</g>
<!-- wedhroIE&#45;&gt;wedramGm -->
<g id="edge2" class="edge">
<title>wedhroIE&#45;&gt;wedramGm</title>
<path fill="none" stroke="black" d="M67.94,-451.8C65.44,-442.35 62.24,-430.3 59.27,-419.1"/>
<polygon fill="black" stroke="black" points="62.58,-417.93 56.64,-409.16 55.82,-419.72 62.58,-417.93"/>
</g>
<!-- wederOE -->
<g id="node4" class="node">
<title>wederOE</title>
<text text-anchor="start" x="8" y="-297.8" font-family="Times New Roman,serif" font-weight="bold" font-size="14.00">Old English</text>
<text text-anchor="start" x="27.5" y="-283.8" font-family="Times New Roman,serif" font-size="14.00" fill="red">weder</text>
</g>
<!-- wedramGm&#45;&gt;wederOE -->
<g id="edge3" class="edge">
<title>wedramGm&#45;&gt;wederOE</title>
<path fill="none" stroke="black" d="M48.92,-360.62C48.13,-348.83 47.16,-334.46 46.33,-322.18"/>
<polygon fill="black" stroke="black" points="49.81,-321.78 45.65,-312.04 42.83,-322.25 49.81,-321.78"/>
</g>
<!-- wethyrME -->
<g id="node5" class="node">
<title>wethyrME</title>
<text text-anchor="start" x="23" y="-121.8" font-family="Times New Roman,serif" font-weight="bold" font-size="14.00">Middle</text>
<text text-anchor="start" x="21.5" y="-107.8" font-family="Times New Roman,serif" font-weight="bold" font-size="14.00">English</text>
<text text-anchor="start" x="25.5" y="-93.8" font-family="Times New Roman,serif" font-size="14.00" fill="red">wethyr</text>
</g>
<!-- wederOE&#45;&gt;wethyrME -->
<g id="edge4" class="edge">
<title>wederOE&#45;&gt;wethyrME</title>
<path fill="none" stroke="black" d="M44.5,-275.97C44.5,-246.45 44.5,-185.22 44.5,-146.51"/>
<polygon fill="black" stroke="black" points="48,-146.23 44.5,-136.23 41,-146.23 48,-146.23"/>
</g>
<!-- weather -->
<g id="node6" class="node">
<title>weather</title>
<text text-anchor="start" x="20" y="-35.8" font-family="Times New Roman,serif" font-weight="bold" font-size="14.00">Modern</text>
<text text-anchor="start" x="21.5" y="-21.8" font-family="Times New Roman,serif" font-weight="bold" font-size="14.00">English</text>
<text text-anchor="start" x="23" y="-7.8" font-family="Times New Roman,serif" font-size="14.00" fill="red">weather</text>
</g>
<!-- wethyrME&#45;&gt;weather -->
<g id="edge5" class="edge">
<title>wethyrME&#45;&gt;weather</title>
<path fill="none" stroke="black" d="M44.5,-85.7C44.5,-77.78 44.5,-68.83 44.5,-60.31"/>
<polygon fill="black" stroke="black" points="48,-60.24 44.5,-50.24 41,-60.24 48,-60.24"/>
</g>
<!-- windazGm -->
<g id="node8" class="node">
<title>windazGm</title>
<text text-anchor="start" x="202" y="-388.8" font-family="Times New Roman,serif" font-weight="bold" font-size="14.00">Germanic</text>
<text text-anchor="start" x="209.5" y="-374.8" font-family="Times New Roman,serif" font-size="14.00" fill="red">*windaz</text>
</g>
<!-- wentoIE&#45;&gt;windazGm -->
<g id="edge7" class="edge">
<title>wentoIE&#45;&gt;windazGm</title>
<path fill="none" stroke="black" d="M228.54,-451.8C229.21,-440.67 230.09,-425.94 230.86,-413.24"/>
<polygon fill="black" stroke="black" points="234.36,-413.37 231.47,-403.18 227.37,-412.95 234.36,-413.37"/>
</g>
<!-- windOE -->
<g id="node9" class="node">
<title>windOE</title>
<text text-anchor="start" x="196" y="-297.8" font-family="Times New Roman,serif" font-weight="bold" font-size="14.00">Old English</text>
<text text-anchor="start" x="218.5" y="-283.8" font-family="Times New Roman,serif" font-size="14.00" fill="red">wind</text>
</g>
<!-- windazGm&#45;&gt;windOE -->
<g id="edge8" class="edge">
<title>windazGm&#45;&gt;windOE</title>
<path fill="none" stroke="black" d="M232.5,-366.84C232.5,-354.28 232.5,-336.98 232.5,-322.5"/>
<polygon fill="black" stroke="black" points="236,-322.11 232.5,-312.11 229,-322.11 236,-322.11"/>
</g>
<!-- vindrON -->
<g id="node15" class="node">
<title>vindrON</title>
<text text-anchor="start" x="303.5" y="-297.8" font-family="Times New Roman,serif" font-weight="bold" font-size="14.00">Old Norse</text>
<text text-anchor="start" x="321" y="-283.8" font-family="Times New Roman,serif" font-size="14.00" fill="red">vindr</text>
</g>
<!-- windazGm&#45;&gt;vindrON -->
<g id="edge14" class="edge">
<title>windazGm&#45;&gt;vindrON</title>
<path fill="none" stroke="black" d="M252.36,-366.84C268.18,-353.17 290.49,-333.89 308.02,-318.74"/>
<polygon fill="black" stroke="black" points="310.42,-321.29 315.7,-312.11 305.85,-316 310.42,-321.29"/>
</g>
<!-- windME -->
<g id="node10" class="node">
<title>windME</title>
<text text-anchor="start" x="203" y="-121.8" font-family="Times New Roman,serif" font-weight="bold" font-size="14.00">Middle</text>
<text text-anchor="start" x="201.5" y="-107.8" font-family="Times New Roman,serif" font-weight="bold" font-size="14.00">English</text>
<text text-anchor="start" x="210.5" y="-93.8" font-family="Times New Roman,serif" font-size="14.00" fill="red">wind</text>
</g>
<!-- windOE&#45;&gt;windME -->
<g id="edge9" class="edge">
<title>windOE&#45;&gt;windME</title>
<path fill="none" stroke="black" d="M231.75,-275.97C230.44,-246.45 227.74,-185.22 226.03,-146.51"/>
<polygon fill="black" stroke="black" points="229.51,-146.07 225.57,-136.23 222.52,-146.38 229.51,-146.07"/>
</g>
<!-- windwianOE -->
<g id="node12" class="node">
<title>windwianOE</title>
<text text-anchor="start" x="271" y="-205.8" font-family="Times New Roman,serif" font-size="14.00" fill="red">windwian</text>
<text text-anchor="start" x="273.5" y="-193.4" font-family="Times New Roman,serif" font-size="12.00">to winnow</text>
</g>
<!-- windOE&#45;&gt;windwianOE -->
<g id="edge11" class="edge">
<title>windOE&#45;&gt;windwianOE</title>
<path fill="none" stroke="black" d="M245.03,-275.84C254.65,-262.67 268.09,-244.27 278.95,-229.39"/>
<polygon fill="black" stroke="black" points="281.93,-231.25 285.01,-221.11 276.28,-227.12 281.93,-231.25"/>
</g>
<!-- wind -->
<g id="node11" class="node">
<title>wind</title>
<text text-anchor="start" x="199" y="-35.8" font-family="Times New Roman,serif" font-weight="bold" font-size="14.00">Modern</text>
<text text-anchor="start" x="200.5" y="-21.8" font-family="Times New Roman,serif" font-weight="bold" font-size="14.00">English</text>
<text text-anchor="start" x="209.5" y="-7.8" font-family="Times New Roman,serif" font-size="14.00" fill="red">wind</text>
</g>
<!-- windME&#45;&gt;wind -->
<g id="edge10" class="edge">
<title>windME&#45;&gt;wind</title>
<path fill="none" stroke="black" d="M224.21,-85.7C224.12,-77.78 224.01,-68.83 223.91,-60.31"/>
<polygon fill="black" stroke="black" points="227.41,-60.2 223.79,-50.24 220.41,-60.28 227.41,-60.2"/>
</g>
<!-- winwenME -->
<g id="node13" class="node">
<title>winwenME</title>
<text text-anchor="start" x="284" y="-121.8" font-family="Times New Roman,serif" font-weight="bold" font-size="14.00">Middle</text>
<text text-anchor="start" x="282.5" y="-107.8" font-family="Times New Roman,serif" font-weight="bold" font-size="14.00">English</text>
<text text-anchor="start" x="284" y="-93.8" font-family="Times New Roman,serif" font-size="14.00" fill="red">winwen</text>
</g>
<!-- windwianOE&#45;&gt;winwenME -->
<g id="edge12" class="edge">
<title>windwianOE&#45;&gt;winwenME</title>
<path fill="none" stroke="black" d="M299.04,-184.65C300.01,-173.76 301.29,-159.36 302.46,-146.25"/>
<polygon fill="black" stroke="black" points="305.96,-146.37 303.36,-136.1 298.99,-145.75 305.96,-146.37"/>
</g>
<!-- winnow -->
<g id="node14" class="node">
<title>winnow</title>
<text text-anchor="start" x="282" y="-35.8" font-family="Times New Roman,serif" font-weight="bold" font-size="14.00">Modern</text>
<text text-anchor="start" x="283.5" y="-21.8" font-family="Times New Roman,serif" font-weight="bold" font-size="14.00">English</text>
<text text-anchor="start" x="284.5" y="-7.8" font-family="Times New Roman,serif" font-size="14.00" fill="red">winnow</text>
</g>
<!-- winwenME&#45;&gt;winnow -->
<g id="edge13" class="edge">
<title>winwenME&#45;&gt;winnow</title>
<path fill="none" stroke="black" d="M305.79,-85.7C305.88,-77.78 305.99,-68.83 306.09,-60.31"/>
<polygon fill="black" stroke="black" points="309.59,-60.28 306.21,-50.24 302.59,-60.2 309.59,-60.28"/>
</g>
<!-- vindaugaON -->
<g id="node18" class="node">
<title>vindaugaON</title>
<text text-anchor="start" x="392.5" y="-205.8" font-family="Times New Roman,serif" font-size="14.00" fill="red">vindauga</text>
<text text-anchor="start" x="399" y="-193.4" font-family="Times New Roman,serif" font-size="12.00">window</text>
</g>
<!-- vindrON&#45;&gt;vindaugaON -->
<g id="edge16" class="edge">
<title>vindrON&#45;&gt;vindaugaON</title>
<path fill="none" stroke="black" d="M351.31,-275.84C363.68,-262.42 381.03,-243.58 394.87,-228.56"/>
<polygon fill="black" stroke="black" points="397.54,-230.83 401.74,-221.11 392.39,-226.09 397.54,-230.83"/>
</g>
<!-- okwIE -->
<g id="node16" class="node">
<title>okwIE</title>
<g id="a_node16"><a xlink:href="okw-see.svg" xlink:title="&lt;b&gt;Indo&#45;&lt;br/&gt;European&lt;/b&gt;&lt;br/&gt;&lt;font color=&quot;red&quot;&gt;*okʷ&#45;&lt;/font&gt;&lt;br/&gt;&lt;font point&#45;size=&quot;12&quot;&gt;to see&lt;/font&gt;">
<path fill="none" stroke="black" stroke-dasharray="5,2" d="M460,-416C460,-416 407,-416 407,-416 401,-416 395,-410 395,-404 395,-404 395,-366 395,-366 395,-360 401,-354 407,-354 407,-354 460,-354 460,-354 466,-354 472,-360 472,-366 472,-366 472,-404 472,-404 472,-410 466,-416 460,-416"/>
<text text-anchor="start" x="417" y="-401.8" font-family="Times New Roman,serif" font-weight="bold" font-size="14.00">Indo&#45;</text>
<text text-anchor="start" x="403" y="-387.8" font-family="Times New Roman,serif" font-weight="bold" font-size="14.00">European</text>
<text text-anchor="start" x="417.5" y="-373.8" font-family="Times New Roman,serif" font-size="14.00" fill="red">*okʷ&#45;</text>
<text text-anchor="start" x="419.5" y="-361.4" font-family="Times New Roman,serif" font-size="12.00">to see</text>
</a>
</g>
</g>
<!-- augaON -->
<g id="node17" class="node">
<title>augaON</title>
<text text-anchor="start" x="401.5" y="-303.8" font-family="Times New Roman,serif" font-weight="bold" font-size="14.00">Old Norse</text>
<text text-anchor="start" x="420.5" y="-289.8" font-family="Times New Roman,serif" font-size="14.00" fill="red">auga</text>
<text text-anchor="start" x="425.5" y="-277.4" font-family="Times New Roman,serif" font-size="12.00">eye</text>
</g>
<!-- okwIE&#45;&gt;augaON -->
<g id="edge15" class="edge">
<title>okwIE&#45;&gt;augaON</title>
<path fill="none" stroke="black" d="M433.5,-353.87C433.5,-345.64 433.5,-336.68 433.5,-328.29"/>
<polygon fill="black" stroke="black" points="437,-328.06 433.5,-318.06 430,-328.06 437,-328.06"/>
</g>
<!-- augaON&#45;&gt;vindaugaON -->
<g id="edge17" class="edge">
<title>augaON&#45;&gt;vindaugaON</title>
<path fill="none" stroke="black" d="M429.3,-269.62C427.18,-257.83 424.59,-243.46 422.39,-231.18"/>
<polygon fill="black" stroke="black" points="425.78,-230.26 420.56,-221.04 418.89,-231.5 425.78,-230.26"/>
</g>
<!-- windoweME -->
<g id="node19" class="node">
<title>windoweME</title>
<text text-anchor="start" x="396" y="-121.8" font-family="Times New Roman,serif" font-weight="bold" font-size="14.00">Middle</text>
<text text-anchor="start" x="394.5" y="-107.8" font-family="Times New Roman,serif" font-weight="bold" font-size="14.00">English</text>
<text text-anchor="start" x="392" y="-93.8" font-family="Times New Roman,serif" font-size="14.00" fill="red">windowe</text>
</g>
<!-- vindaugaON&#45;&gt;windoweME -->
<g id="edge18" class="edge">
<title>vindaugaON&#45;&gt;windoweME</title>
<path fill="none" stroke="black" stroke-dasharray="1,5" d="M417.5,-184.65C417.5,-173.76 417.5,-159.36 417.5,-146.25"/>
<polygon fill="black" stroke="black" points="421,-146.1 417.5,-136.1 414,-146.1 421,-146.1"/>
</g>
<!-- window -->
<g id="node20" class="node">
<title>window</title>
<text text-anchor="start" x="393" y="-35.8" font-family="Times New Roman,serif" font-weight="bold" font-size="14.00">Modern</text>
<text text-anchor="start" x="394.5" y="-21.8" font-family="Times New Roman,serif" font-weight="bold" font-size="14.00">English</text>
<text text-anchor="start" x="395" y="-7.8" font-family="Times New Roman,serif" font-size="14.00" fill="red">window</text>
</g>
<!-- windoweME&#45;&gt;window -->
<g id="edge19" class="edge">
<title>windoweME&#45;&gt;window</title>
<path fill="none" stroke="black" d="M417.5,-85.7C417.5,-77.78 417.5,-68.83 417.5,-60.31"/>
<polygon fill="black" stroke="black" points="421,-60.24 417.5,-50.24 414,-60.24 421,-60.24"/>
</g>
<!-- ventilareL -->
<g id="node22" class="node">
<title>ventilareL</title>
<text text-anchor="start" x="115.5" y="-303.8" font-family="Times New Roman,serif" font-size="14.00" fill="red">ventilāre</text>
<text text-anchor="start" x="116.5" y="-289.8" font-family="Times New Roman,serif" font-size="14.00" fill="red">ventilāt&#45;</text>
<text text-anchor="start" x="125.5" y="-277.4" font-family="Times New Roman,serif" font-size="12.00">to fan</text>
</g>
<!-- ventusL&#45;&gt;ventilareL -->
<g id="edge21" class="edge">
<title>ventusL&#45;&gt;ventilareL</title>
<path fill="none" stroke="black" d="M140.48,-353.87C140.21,-345.64 139.91,-336.68 139.62,-328.29"/>
<polygon fill="black" stroke="black" points="143.11,-327.94 139.28,-318.06 136.12,-328.18 143.11,-327.94"/>
</g>
<!-- ventilatenME -->
<g id="node23" class="node">
<title>ventilatenME</title>
<text text-anchor="start" x="117" y="-219.8" font-family="Times New Roman,serif" font-weight="bold" font-size="14.00">Middle</text>
<text text-anchor="start" x="115.5" y="-205.8" font-family="Times New Roman,serif" font-weight="bold" font-size="14.00">English</text>
<text text-anchor="start" x="112.5" y="-191.8" font-family="Times New Roman,serif" font-size="14.00" fill="red">ventilaten</text>
<text text-anchor="start" x="107.5" y="-179.4" font-family="Times New Roman,serif" font-size="12.00">to blow away</text>
</g>
<!-- ventilareL&#45;&gt;ventilatenME -->
<g id="edge22" class="edge">
<title>ventilareL&#45;&gt;ventilatenME</title>
<path fill="none" stroke="black" stroke-dasharray="1,5" d="M138.5,-269.62C138.5,-261.84 138.5,-252.95 138.5,-244.27"/>
<polygon fill="black" stroke="black" points="142,-244.27 138.5,-234.27 135,-244.27 142,-244.27"/>
</g>
<!-- ventilate -->
<g id="node24" class="node">
<title>ventilate</title>
<text text-anchor="start" x="114" y="-35.8" font-family="Times New Roman,serif" font-weight="bold" font-size="14.00">Modern</text>
<text text-anchor="start" x="115.5" y="-21.8" font-family="Times New Roman,serif" font-weight="bold" font-size="14.00">English</text>
<text text-anchor="start" x="115.5" y="-7.8" font-family="Times New Roman,serif" font-size="14.00" fill="red">ventilate</text>
</g>
<!-- ventilatenME&#45;&gt;ventilate -->
<g id="edge23" class="edge">
<title>ventilatenME&#45;&gt;ventilate</title>
<path fill="none" stroke="black" d="M138.5,-171.74C138.5,-140.84 138.5,-92.92 138.5,-60.54"/>
<polygon fill="black" stroke="black" points="142,-60.21 138.5,-50.21 135,-60.21 142,-60.21"/>
</g>
<!-- nirvaSk -->
<g id="node26" class="node">
<title>nirvaSk</title>
<text text-anchor="start" x="524.5" y="-296.8" font-family="Times New Roman,serif" font-size="14.00" fill="red">nirvā&#45;</text>
<text text-anchor="start" x="499.5" y="-284.4" font-family="Times New Roman,serif" font-size="12.00">to be extinguished</text>
</g>
<!-- vatiSk&#45;&gt;nirvaSk -->
<g id="edge25" class="edge">
<title>vatiSk&#45;&gt;nirvaSk</title>
<path fill="none" stroke="black" d="M534.6,-360.62C535.66,-348.83 536.95,-334.46 538.06,-322.18"/>
<polygon fill="black" stroke="black" points="541.56,-322.31 538.97,-312.04 534.59,-321.69 541.56,-322.31"/>
</g>
<!-- nirvanaSk -->
<g id="node27" class="node">
<title>nirvanaSk</title>
<text text-anchor="start" x="520.5" y="-199.3" font-family="Times New Roman,serif" font-size="14.00" fill="red">nirvāna</text>
</g>
<!-- nirvaSk&#45;&gt;nirvanaSk -->
<g id="edge26" class="edge">
<title>nirvaSk&#45;&gt;nirvanaSk</title>
<path fill="none" stroke="black" d="M540.5,-275.84C540.5,-263.28 540.5,-245.98 540.5,-231.5"/>
<polygon fill="black" stroke="black" points="544,-231.11 540.5,-221.11 537,-231.11 544,-231.11"/>
</g>
<!-- nirvana -->
<g id="node28" class="node">
<title>nirvana</title>
<text text-anchor="start" x="516" y="-35.8" font-family="Times New Roman,serif" font-weight="bold" font-size="14.00">Modern</text>
<text text-anchor="start" x="517.5" y="-21.8" font-family="Times New Roman,serif" font-weight="bold" font-size="14.00">English</text>
<text text-anchor="start" x="520.5" y="-7.8" font-family="Times New Roman,serif" font-size="14.00" fill="red">nirvana</text>
</g>
<!-- nirvanaSk&#45;&gt;nirvana -->
<g id="edge27" class="edge">
<title>nirvanaSk&#45;&gt;nirvana</title>
<path fill="none" stroke="black" stroke-dasharray="1,5" d="M540.5,-184.8C540.5,-156.15 540.5,-98.09 540.5,-60.67"/>
<polygon fill="black" stroke="black" points="544,-60.24 540.5,-50.24 537,-60.24 544,-60.24"/>
</g>
</g>
</svg>
