<?xml version="1.0" encoding="UTF-8" standalone="no"?>
<!DOCTYPE svg PUBLIC "-//W3C//DTD SVG 1.1//EN"
 "http://www.w3.org/Graphics/SVG/1.1/DTD/svg11.dtd">
<!-- Generated by graphviz version 2.44.1 (20200629.0846)
 -->
<!-- Pages: 1 -->
<svg width="842pt" height="664pt"
 viewBox="0.00 0.00 842.00 664.00" xmlns="http://www.w3.org/2000/svg" xmlns:xlink="http://www.w3.org/1999/xlink">
<g id="graph0" class="graph" transform="scale(1 1) rotate(0) translate(4 660)">
<polygon fill="white" stroke="transparent" points="-4,4 -4,-660 838,-660 838,4 -4,4"/>
<!-- weg -->
<g id="node1" class="node">
<title>weg</title>
<text text-anchor="start" x="463" y="-641.8" font-family="Times New Roman,serif" font-weight="bold" font-size="14.00">Indo&#45;European</text>
<text text-anchor="start" x="495.5" y="-627.8" font-family="Times New Roman,serif" font-size="14.00" fill="red">weg&#45;</text>
<text text-anchor="start" x="468" y="-615.4" font-family="Times New Roman,serif" font-size="12.00">to be strong, lively</text>
</g>
<!-- wakojan -->
<g id="node2" class="node">
<title>wakojan</title>
<text text-anchor="start" x="332" y="-557.8" font-family="Times New Roman,serif" font-weight="bold" font-size="14.00">Germanic</text>
<text text-anchor="start" x="339.5" y="-543.8" font-family="Times New Roman,serif" font-size="14.00" fill="red">wakōjan</text>
</g>
<!-- weg&#45;&gt;wakojan -->
<g id="edge1" class="edge">
<title>weg&#45;&gt;wakojan</title>
<path fill="none" stroke="black" d="M465,-607.99C445.82,-598.08 423.52,-586.55 404.62,-576.78"/>
<polygon fill="black" stroke="black" points="406.13,-573.62 395.64,-572.14 402.92,-579.84 406.13,-573.62"/>
</g>
<!-- wakhtan -->
<g id="node3" class="node">
<title>wakhtan</title>
<text text-anchor="start" x="596" y="-557.8" font-family="Times New Roman,serif" font-weight="bold" font-size="14.00">Germanic</text>
<text text-anchor="start" x="599" y="-543.8" font-family="Times New Roman,serif" font-size="14.00" fill="red">wa(k)htan</text>
</g>
<!-- weg&#45;&gt;wakhtan -->
<g id="edge2" class="edge">
<title>weg&#45;&gt;wakhtan</title>
<path fill="none" stroke="black" d="M544.92,-607.99C559.63,-598.44 576.65,-587.38 591.32,-577.85"/>
<polygon fill="black" stroke="black" points="593.64,-580.52 600.12,-572.14 589.83,-574.65 593.64,-580.52"/>
</g>
<!-- woeccan -->
<g id="node4" class="node">
<title>woeccan</title>
<text text-anchor="start" x="8" y="-472.8" font-family="Times New Roman,serif" font-weight="bold" font-size="14.00">Old English</text>
<text text-anchor="start" x="21" y="-458.8" font-family="Times New Roman,serif" font-size="14.00" fill="red">wœccan</text>
</g>
<!-- wakojan&#45;&gt;woeccan -->
<g id="edge3" class="edge">
<title>wakojan&#45;&gt;woeccan</title>
<path fill="none" stroke="black" d="M323.82,-542.91C267.58,-528.22 162.95,-500.92 98.94,-484.21"/>
<polygon fill="black" stroke="black" points="99.59,-480.76 89.03,-481.62 97.82,-487.53 99.59,-480.76"/>
</g>
<!-- wacan -->
<g id="node5" class="node">
<title>wacan</title>
<text text-anchor="start" x="326" y="-478.8" font-family="Times New Roman,serif" font-weight="bold" font-size="14.00">Old English</text>
<text text-anchor="start" x="344.5" y="-464.8" font-family="Times New Roman,serif" font-size="14.00" fill="red">wacan</text>
<text text-anchor="start" x="341" y="-452.4" font-family="Times New Roman,serif" font-size="12.00">to awake</text>
</g>
<!-- wakojan&#45;&gt;wacan -->
<g id="edge4" class="edge">
<title>wakojan&#45;&gt;wacan</title>
<path fill="none" stroke="black" d="M362.5,-535.8C362.5,-526.45 362.5,-514.55 362.5,-503.45"/>
<polygon fill="black" stroke="black" points="366,-503.16 362.5,-493.16 359,-503.16 366,-503.16"/>
</g>
<!-- wacian -->
<g id="node6" class="node">
<title>wacian</title>
<text text-anchor="start" x="188" y="-478.8" font-family="Times New Roman,serif" font-weight="bold" font-size="14.00">Old English</text>
<text text-anchor="start" x="205" y="-464.8" font-family="Times New Roman,serif" font-size="14.00" fill="red">wacian</text>
<text text-anchor="start" x="196" y="-452.4" font-family="Times New Roman,serif" font-size="12.00">to be awake</text>
</g>
<!-- wakojan&#45;&gt;wacian -->
<g id="edge5" class="edge">
<title>wakojan&#45;&gt;wacian</title>
<path fill="none" stroke="black" d="M333.91,-535.8C315.88,-524.96 292.16,-510.7 271.43,-498.22"/>
<polygon fill="black" stroke="black" points="273.12,-495.16 262.74,-493 269.51,-501.16 273.12,-495.16"/>
</g>
<!-- wahtaOG -->
<g id="node7" class="node">
<title>wahtaOG</title>
<text text-anchor="start" x="445.5" y="-479.8" font-family="Times New Roman,serif" font-weight="bold" font-size="14.00">Old High</text>
<text text-anchor="start" x="448" y="-465.8" font-family="Times New Roman,serif" font-weight="bold" font-size="14.00">German</text>
<text text-anchor="start" x="457" y="-451.8" font-family="Times New Roman,serif" font-size="14.00" fill="red">wahta</text>
</g>
<!-- wakojan&#45;&gt;wahtaOG -->
<g id="edge6" class="edge">
<title>wakojan&#45;&gt;wahtaOG</title>
<path fill="none" stroke="black" d="M385.5,-535.8C399.23,-525.53 417.07,-512.2 433.09,-500.22"/>
<polygon fill="black" stroke="black" points="435.36,-502.89 441.27,-494.1 431.17,-497.28 435.36,-502.89"/>
</g>
<!-- wachten -->
<g id="node24" class="node">
<title>wachten</title>
<text text-anchor="start" x="605" y="-387.8" font-family="Times New Roman,serif" font-weight="bold" font-size="14.00">Middle</text>
<text text-anchor="start" x="608" y="-373.8" font-family="Times New Roman,serif" font-weight="bold" font-size="14.00">Dutch</text>
<text text-anchor="start" x="603.5" y="-359.8" font-family="Times New Roman,serif" font-size="14.00" fill="red">wachten</text>
<text text-anchor="start" x="591" y="-347.4" font-family="Times New Roman,serif" font-size="12.00">to watch, guard</text>
</g>
<!-- wakhtan&#45;&gt;wachten -->
<g id="edge25" class="edge">
<title>wakhtan&#45;&gt;wachten</title>
<path fill="none" stroke="black" d="M626.5,-535.97C626.5,-507.98 626.5,-451.48 626.5,-412.7"/>
<polygon fill="black" stroke="black" points="630,-412.27 626.5,-402.27 623,-412.27 630,-412.27"/>
</g>
<!-- watier -->
<g id="node25" class="node">
<title>watier</title>
<text text-anchor="start" x="688" y="-485.8" font-family="Times New Roman,serif" font-weight="bold" font-size="14.00">Old North</text>
<text text-anchor="start" x="697.5" y="-471.8" font-family="Times New Roman,serif" font-weight="bold" font-size="14.00">French</text>
<text text-anchor="start" x="702.5" y="-457.8" font-family="Times New Roman,serif" font-size="14.00" fill="red">watier</text>
<text text-anchor="start" x="699.5" y="-445.4" font-family="Times New Roman,serif" font-size="12.00">to watch</text>
</g>
<!-- wakhtan&#45;&gt;watier -->
<g id="edge26" class="edge">
<title>wakhtan&#45;&gt;watier</title>
<path fill="none" stroke="black" stroke-dasharray="1,5" d="M645.77,-535.8C655.11,-527.47 666.71,-517.12 677.92,-507.11"/>
<polygon fill="black" stroke="black" points="680.46,-509.54 685.59,-500.27 675.8,-504.31 680.46,-509.54"/>
</g>
<!-- wacchen -->
<g id="node8" class="node">
<title>wacchen</title>
<text text-anchor="start" x="23" y="-199.8" font-family="Times New Roman,serif" font-weight="bold" font-size="14.00">Middle</text>
<text text-anchor="start" x="21.5" y="-185.8" font-family="Times New Roman,serif" font-weight="bold" font-size="14.00">English</text>
<text text-anchor="start" x="20" y="-171.8" font-family="Times New Roman,serif" font-size="14.00" fill="red">wacchen</text>
</g>
<!-- woeccan&#45;&gt;wacchen -->
<g id="edge7" class="edge">
<title>woeccan&#45;&gt;wacchen</title>
<path fill="none" stroke="black" d="M44.5,-450.61C44.5,-405.53 44.5,-284.26 44.5,-224.39"/>
<polygon fill="black" stroke="black" points="48,-224.3 44.5,-214.3 41,-224.3 48,-224.3"/>
</g>
<!-- waken -->
<g id="node10" class="node">
<title>waken</title>
<text text-anchor="start" x="381" y="-199.8" font-family="Times New Roman,serif" font-weight="bold" font-size="14.00">Middle</text>
<text text-anchor="start" x="379.5" y="-185.8" font-family="Times New Roman,serif" font-weight="bold" font-size="14.00">English</text>
<text text-anchor="start" x="384.5" y="-171.8" font-family="Times New Roman,serif" font-size="14.00" fill="red">waken</text>
</g>
<!-- wacan&#45;&gt;waken -->
<g id="edge9" class="edge">
<title>wacan&#45;&gt;waken</title>
<path fill="none" stroke="black" d="M367,-444.83C369.38,-432.2 372.26,-416.27 374.5,-402 384.31,-339.45 393.48,-266.15 398.5,-224.19"/>
<polygon fill="black" stroke="black" points="401.98,-224.56 399.69,-214.22 395.03,-223.73 401.98,-224.56"/>
</g>
<!-- awacan -->
<g id="node11" class="node">
<title>awacan</title>
<text text-anchor="start" x="315.5" y="-367.3" font-family="Times New Roman,serif" font-size="14.00" fill="red">awacan</text>
</g>
<!-- wacan&#45;&gt;awacan -->
<g id="edge10" class="edge">
<title>wacan&#45;&gt;awacan</title>
<path fill="none" stroke="black" d="M356.21,-444.76C352.46,-430.92 347.68,-413.29 343.77,-398.86"/>
<polygon fill="black" stroke="black" points="347.1,-397.74 341.11,-389.01 340.34,-399.57 347.1,-397.74"/>
</g>
<!-- wakien -->
<g id="node13" class="node">
<title>wakien</title>
<text text-anchor="start" x="203" y="-199.8" font-family="Times New Roman,serif" font-weight="bold" font-size="14.00">Middle</text>
<text text-anchor="start" x="201.5" y="-185.8" font-family="Times New Roman,serif" font-weight="bold" font-size="14.00">English</text>
<text text-anchor="start" x="183.5" y="-171.8" font-family="Times New Roman,serif" font-size="14.00" fill="red">wakien, waken</text>
</g>
<!-- wacian&#45;&gt;wakien -->
<g id="edge12" class="edge">
<title>wacian&#45;&gt;wakien</title>
<path fill="none" stroke="black" d="M224.5,-444.78C224.5,-395.76 224.5,-281.54 224.5,-224.17"/>
<polygon fill="black" stroke="black" points="228,-224.14 224.5,-214.14 221,-224.14 228,-224.14"/>
</g>
<!-- awacian -->
<g id="node14" class="node">
<title>awacian</title>
<text text-anchor="start" x="133" y="-367.3" font-family="Times New Roman,serif" font-size="14.00" fill="red">awacian</text>
</g>
<!-- wacian&#45;&gt;awacian -->
<g id="edge13" class="edge">
<title>wacian&#45;&gt;awacian</title>
<path fill="none" stroke="black" d="M207.8,-444.76C197.46,-430.38 184.19,-411.92 173.6,-397.19"/>
<polygon fill="black" stroke="black" points="176.4,-395.08 167.72,-389.01 170.72,-399.17 176.4,-395.08"/>
</g>
<!-- wahteMG -->
<g id="node18" class="node">
<title>wahteMG</title>
<text text-anchor="start" x="446.5" y="-381.8" font-family="Times New Roman,serif" font-weight="bold" font-size="14.00">Middle High</text>
<text text-anchor="start" x="459" y="-367.8" font-family="Times New Roman,serif" font-weight="bold" font-size="14.00">German</text>
<text text-anchor="start" x="468" y="-353.8" font-family="Times New Roman,serif" font-size="14.00" fill="red">wahte</text>
</g>
<!-- wahtaOG&#45;&gt;wahteMG -->
<g id="edge19" class="edge">
<title>wahtaOG&#45;&gt;wahteMG</title>
<path fill="none" stroke="black" d="M476.28,-443.78C477.58,-432.41 479.15,-418.66 480.58,-406.25"/>
<polygon fill="black" stroke="black" points="484.06,-406.55 481.73,-396.22 477.11,-405.75 484.06,-406.55"/>
</g>
<!-- watch -->
<g id="node9" class="node">
<title>watch</title>
<text text-anchor="start" x="20" y="-35.8" font-family="Times New Roman,serif" font-weight="bold" font-size="14.00">Modern</text>
<text text-anchor="start" x="21.5" y="-21.8" font-family="Times New Roman,serif" font-weight="bold" font-size="14.00">English</text>
<text text-anchor="start" x="27.5" y="-7.8" font-family="Times New Roman,serif" font-size="14.00" fill="red">watch</text>
</g>
<!-- wacchen&#45;&gt;watch -->
<g id="edge8" class="edge">
<title>wacchen&#45;&gt;watch</title>
<path fill="none" stroke="black" d="M44.5,-163.75C44.5,-136.35 44.5,-91.54 44.5,-60.51"/>
<polygon fill="black" stroke="black" points="48,-60.15 44.5,-50.15 41,-60.15 48,-60.15"/>
</g>
<!-- wake -->
<g id="node16" class="node">
<title>wake</title>
<text text-anchor="start" x="278" y="-35.8" font-family="Times New Roman,serif" font-weight="bold" font-size="14.00">Modern</text>
<text text-anchor="start" x="279.5" y="-21.8" font-family="Times New Roman,serif" font-weight="bold" font-size="14.00">English</text>
<text text-anchor="start" x="288" y="-7.8" font-family="Times New Roman,serif" font-size="14.00" fill="red">wake</text>
</g>
<!-- waken&#45;&gt;wake -->
<g id="edge15" class="edge">
<title>waken&#45;&gt;wake</title>
<path fill="none" stroke="black" d="M387.53,-163.75C370.32,-135.87 341.99,-89.97 322.8,-58.89"/>
<polygon fill="black" stroke="black" points="325.64,-56.82 317.41,-50.15 319.68,-60.5 325.64,-56.82"/>
</g>
<!-- awaken -->
<g id="node12" class="node">
<title>awaken</title>
<text text-anchor="start" x="301" y="-199.8" font-family="Times New Roman,serif" font-weight="bold" font-size="14.00">Middle</text>
<text text-anchor="start" x="299.5" y="-185.8" font-family="Times New Roman,serif" font-weight="bold" font-size="14.00">English</text>
<text text-anchor="start" x="301.5" y="-171.8" font-family="Times New Roman,serif" font-size="14.00" fill="red">awaken</text>
</g>
<!-- awacan&#45;&gt;awaken -->
<g id="edge11" class="edge">
<title>awacan&#45;&gt;awaken</title>
<path fill="none" stroke="black" d="M335.16,-352.74C332.87,-323.3 328.17,-262.85 325.18,-224.49"/>
<polygon fill="black" stroke="black" points="328.65,-223.99 324.39,-214.3 321.68,-224.54 328.65,-223.99"/>
</g>
<!-- awake -->
<g id="node17" class="node">
<title>awake</title>
<text text-anchor="start" x="188" y="-35.8" font-family="Times New Roman,serif" font-weight="bold" font-size="14.00">Modern</text>
<text text-anchor="start" x="189.5" y="-21.8" font-family="Times New Roman,serif" font-weight="bold" font-size="14.00">English</text>
<text text-anchor="start" x="195" y="-7.8" font-family="Times New Roman,serif" font-size="14.00" fill="red">awake</text>
</g>
<!-- awaken&#45;&gt;awake -->
<g id="edge17" class="edge">
<title>awaken&#45;&gt;awake</title>
<path fill="none" stroke="black" d="M306.03,-163.75C287.02,-135.75 255.67,-89.58 234.56,-58.49"/>
<polygon fill="black" stroke="black" points="237.41,-56.46 228.9,-50.15 231.62,-60.39 237.41,-56.46"/>
</g>
<!-- wakien&#45;&gt;wake -->
<g id="edge16" class="edge">
<title>wakien&#45;&gt;wake</title>
<path fill="none" stroke="black" d="M236.18,-163.75C249.54,-135.99 271.51,-90.37 286.47,-59.29"/>
<polygon fill="black" stroke="black" points="289.69,-60.68 290.87,-50.15 283.38,-57.65 289.69,-60.68"/>
</g>
<!-- awakien -->
<g id="node15" class="node">
<title>awakien</title>
<text text-anchor="start" x="105" y="-199.8" font-family="Times New Roman,serif" font-weight="bold" font-size="14.00">Middle</text>
<text text-anchor="start" x="103.5" y="-185.8" font-family="Times New Roman,serif" font-weight="bold" font-size="14.00">English</text>
<text text-anchor="start" x="104" y="-171.8" font-family="Times New Roman,serif" font-size="14.00" fill="red">awakien</text>
</g>
<!-- awacian&#45;&gt;awakien -->
<g id="edge14" class="edge">
<title>awacian&#45;&gt;awakien</title>
<path fill="none" stroke="black" d="M152.72,-352.74C147.98,-323.3 138.24,-262.85 132.06,-224.49"/>
<polygon fill="black" stroke="black" points="135.46,-223.61 130.41,-214.3 128.55,-224.73 135.46,-223.61"/>
</g>
<!-- awakien&#45;&gt;awake -->
<g id="edge18" class="edge">
<title>awakien&#45;&gt;awake</title>
<path fill="none" stroke="black" d="M139.38,-163.75C154.11,-135.99 178.33,-90.37 194.83,-59.29"/>
<polygon fill="black" stroke="black" points="198.08,-60.63 199.68,-50.15 191.9,-57.35 198.08,-60.63"/>
</g>
<!-- wacht -->
<g id="node19" class="node">
<title>wacht</title>
<text text-anchor="start" x="467" y="-289.8" font-family="Times New Roman,serif" font-weight="bold" font-size="14.00">German</text>
<text text-anchor="start" x="474" y="-275.8" font-family="Times New Roman,serif" font-size="14.00" fill="red">Wacht</text>
<text text-anchor="start" x="467" y="-263.4" font-family="Times New Roman,serif" font-size="12.00">watch, vigil</text>
</g>
<!-- wahteMG&#45;&gt;wacht -->
<g id="edge20" class="edge">
<title>wahteMG&#45;&gt;wacht</title>
<path fill="none" stroke="black" d="M486.69,-345.68C487.56,-335.95 488.58,-324.59 489.52,-314.13"/>
<polygon fill="black" stroke="black" points="493.02,-314.34 490.43,-304.06 486.05,-313.71 493.02,-314.34"/>
</g>
<!-- beiwacht -->
<g id="node21" class="node">
<title>beiwacht</title>
<text text-anchor="start" x="467.5" y="-197.8" font-family="Times New Roman,serif" font-size="14.00" fill="red">beiwacht</text>
<text text-anchor="start" x="459.5" y="-185.4" font-family="Times New Roman,serif" font-size="12.00">supplementary</text>
<text text-anchor="start" x="466.5" y="-173.4" font-family="Times New Roman,serif" font-size="12.00">night watch</text>
</g>
<!-- wacht&#45;&gt;beiwacht -->
<g id="edge22" class="edge">
<title>wacht&#45;&gt;beiwacht</title>
<path fill="none" stroke="black" d="M492.5,-255.62C492.5,-245.39 492.5,-233.23 492.5,-222.17"/>
<polygon fill="black" stroke="black" points="496,-222 492.5,-212 489,-222 496,-222"/>
</g>
<!-- bei -->
<g id="node20" class="node">
<title>bei</title>
<text text-anchor="start" x="560.5" y="-282.8" font-family="Times New Roman,serif" font-size="14.00" fill="red">bei&#45;</text>
<text text-anchor="start" x="556.5" y="-270.4" font-family="Times New Roman,serif" font-size="12.00">beside</text>
</g>
<!-- bei&#45;&gt;beiwacht -->
<g id="edge21" class="edge">
<title>bei&#45;&gt;beiwacht</title>
<path fill="none" stroke="black" d="M556.27,-261.84C545.68,-249.91 531.28,-233.69 518.85,-219.68"/>
<polygon fill="black" stroke="black" points="521.44,-217.33 512.18,-212.17 516.2,-221.97 521.44,-217.33"/>
</g>
<!-- bivouacF -->
<g id="node22" class="node">
<title>bivouacF</title>
<text text-anchor="start" x="470.5" y="-107.8" font-family="Times New Roman,serif" font-weight="bold" font-size="14.00">French</text>
<text text-anchor="start" x="470" y="-93.8" font-family="Times New Roman,serif" font-size="14.00" fill="red">bivouac</text>
</g>
<!-- beiwacht&#45;&gt;bivouacF -->
<g id="edge23" class="edge">
<title>beiwacht&#45;&gt;bivouacF</title>
<path fill="none" stroke="black" stroke-dasharray="1,5" d="M492.5,-165.76C492.5,-155.46 492.5,-143.12 492.5,-132.27"/>
<polygon fill="black" stroke="black" points="496,-132.04 492.5,-122.04 489,-132.04 496,-132.04"/>
</g>
<!-- bivouac -->
<g id="node23" class="node">
<title>bivouac</title>
<text text-anchor="start" x="468" y="-35.8" font-family="Times New Roman,serif" font-weight="bold" font-size="14.00">Modern</text>
<text text-anchor="start" x="469.5" y="-21.8" font-family="Times New Roman,serif" font-weight="bold" font-size="14.00">English</text>
<text text-anchor="start" x="470" y="-7.8" font-family="Times New Roman,serif" font-size="14.00" fill="red">bivouac</text>
</g>
<!-- bivouacF&#45;&gt;bivouac -->
<g id="edge24" class="edge">
<title>bivouacF&#45;&gt;bivouac</title>
<path fill="none" stroke="black" stroke-dasharray="1,5" d="M492.5,-85.91C492.5,-78.33 492.5,-69.13 492.5,-60.23"/>
<polygon fill="black" stroke="black" points="496,-60.05 492.5,-50.05 489,-60.05 496,-60.05"/>
</g>
<!-- waughten -->
<g id="node26" class="node">
<title>waughten</title>
<text text-anchor="start" x="603" y="-205.8" font-family="Times New Roman,serif" font-weight="bold" font-size="14.00">Middle</text>
<text text-anchor="start" x="601.5" y="-191.8" font-family="Times New Roman,serif" font-weight="bold" font-size="14.00">English</text>
<text text-anchor="start" x="598" y="-177.8" font-family="Times New Roman,serif" font-size="14.00" fill="red">waughten</text>
<text text-anchor="start" x="586.5" y="-165.4" font-family="Times New Roman,serif" font-size="12.00">to guard, convey</text>
</g>
<!-- wachten&#45;&gt;waughten -->
<g id="edge27" class="edge">
<title>wachten&#45;&gt;waughten</title>
<path fill="none" stroke="black" stroke-dasharray="1,5" d="M626.17,-339.87C625.83,-309.89 625.32,-263.68 624.95,-230.5"/>
<polygon fill="black" stroke="black" points="628.45,-230.19 624.84,-220.23 621.45,-230.26 628.45,-230.19"/>
</g>
<!-- waitME -->
<g id="node28" class="node">
<title>waitME</title>
<text text-anchor="start" x="779" y="-199.8" font-family="Times New Roman,serif" font-weight="bold" font-size="14.00">Middle</text>
<text text-anchor="start" x="777.5" y="-185.8" font-family="Times New Roman,serif" font-weight="bold" font-size="14.00">English</text>
<text text-anchor="start" x="789" y="-171.8" font-family="Times New Roman,serif" font-size="14.00" fill="red">wait</text>
</g>
<!-- watier&#45;&gt;waitME -->
<g id="edge29" class="edge">
<title>watier&#45;&gt;waitME</title>
<path fill="none" stroke="black" stroke-dasharray="1,5" d="M740.21,-437.87C746.9,-426.97 753.8,-414.31 758.5,-402 781.44,-341.89 792.49,-267.2 797.29,-224.42"/>
<polygon fill="black" stroke="black" points="800.79,-224.58 798.38,-214.26 793.83,-223.83 800.79,-224.58"/>
</g>
<!-- awaitier -->
<g id="node30" class="node">
<title>awaitier</title>
<text text-anchor="start" x="698" y="-367.3" font-family="Times New Roman,serif" font-size="14.00" fill="red">awaitier</text>
</g>
<!-- watier&#45;&gt;awaitier -->
<g id="edge30" class="edge">
<title>watier&#45;&gt;awaitier</title>
<path fill="none" stroke="black" d="M719.5,-437.89C719.5,-425.6 719.5,-411.48 719.5,-399.47"/>
<polygon fill="black" stroke="black" points="723,-399.15 719.5,-389.15 716,-399.15 723,-399.15"/>
</g>
<!-- waft -->
<g id="node27" class="node">
<title>waft</title>
<text text-anchor="start" x="600" y="-35.8" font-family="Times New Roman,serif" font-weight="bold" font-size="14.00">Modern</text>
<text text-anchor="start" x="601.5" y="-21.8" font-family="Times New Roman,serif" font-weight="bold" font-size="14.00">English</text>
<text text-anchor="start" x="612" y="-7.8" font-family="Times New Roman,serif" font-size="14.00" fill="red">waft</text>
</g>
<!-- waughten&#45;&gt;waft -->
<g id="edge28" class="edge">
<title>waughten&#45;&gt;waft</title>
<path fill="none" stroke="black" d="M624.5,-157.91C624.5,-130.2 624.5,-89.13 624.5,-60.19"/>
<polygon fill="black" stroke="black" points="628,-60.12 624.5,-50.12 621,-60.12 628,-60.12"/>
</g>
<!-- wait -->
<g id="node29" class="node">
<title>wait</title>
<text text-anchor="start" x="777" y="-35.8" font-family="Times New Roman,serif" font-weight="bold" font-size="14.00">Modern</text>
<text text-anchor="start" x="778.5" y="-21.8" font-family="Times New Roman,serif" font-weight="bold" font-size="14.00">English</text>
<text text-anchor="start" x="790" y="-7.8" font-family="Times New Roman,serif" font-size="14.00" fill="red">wait</text>
</g>
<!-- waitME&#45;&gt;wait -->
<g id="edge32" class="edge">
<title>waitME&#45;&gt;wait</title>
<path fill="none" stroke="black" d="M800.65,-163.75C800.82,-136.35 801.1,-91.54 801.29,-60.51"/>
<polygon fill="black" stroke="black" points="804.79,-60.18 801.35,-50.15 797.79,-60.13 804.79,-60.18"/>
</g>
<!-- awaitME -->
<g id="node31" class="node">
<title>awaitME</title>
<text text-anchor="start" x="698" y="-199.8" font-family="Times New Roman,serif" font-weight="bold" font-size="14.00">Middle</text>
<text text-anchor="start" x="696.5" y="-185.8" font-family="Times New Roman,serif" font-weight="bold" font-size="14.00">English</text>
<text text-anchor="start" x="705" y="-171.8" font-family="Times New Roman,serif" font-size="14.00" fill="red">await</text>
</g>
<!-- awaitier&#45;&gt;awaitME -->
<g id="edge31" class="edge">
<title>awaitier&#45;&gt;awaitME</title>
<path fill="none" stroke="black" stroke-dasharray="1,5" d="M719.5,-352.74C719.5,-323.3 719.5,-262.85 719.5,-224.49"/>
<polygon fill="black" stroke="black" points="723,-224.3 719.5,-214.3 716,-224.3 723,-224.3"/>
</g>
<!-- await -->
<g id="node32" class="node">
<title>await</title>
<text text-anchor="start" x="694" y="-35.8" font-family="Times New Roman,serif" font-weight="bold" font-size="14.00">Modern</text>
<text text-anchor="start" x="695.5" y="-21.8" font-family="Times New Roman,serif" font-weight="bold" font-size="14.00">English</text>
<text text-anchor="start" x="704" y="-7.8" font-family="Times New Roman,serif" font-size="14.00" fill="red">await</text>
</g>
<!-- awaitME&#45;&gt;await -->
<g id="edge33" class="edge">
<title>awaitME&#45;&gt;await</title>
<path fill="none" stroke="black" d="M719.35,-163.75C719.18,-136.35 718.9,-91.54 718.71,-60.51"/>
<polygon fill="black" stroke="black" points="722.21,-60.13 718.65,-50.15 715.21,-60.18 722.21,-60.13"/>
</g>
</g>
</svg>
