<?xml version="1.0" encoding="UTF-8" standalone="no"?>
<!DOCTYPE svg PUBLIC "-//W3C//DTD SVG 1.1//EN"
 "http://www.w3.org/Graphics/SVG/1.1/DTD/svg11.dtd">
<!-- Generated by graphviz version 2.49.0 (20210828.1703)
 -->
<!-- Pages: 1 -->
<svg width="891pt" height="800pt"
 viewBox="0.00 0.00 891.00 800.00" xmlns="http://www.w3.org/2000/svg" xmlns:xlink="http://www.w3.org/1999/xlink">
<g id="graph0" class="graph" transform="scale(1 1) rotate(0) translate(4 796)">
<polygon fill="white" stroke="transparent" points="-4,4 -4,-796 887,-796 887,4 -4,4"/>
<!-- weg -->
<g id="node1" class="node">
<title>weg</title>
<g id="a_node1"><a xlink:title="Indo&#45;European &quot;*weg&#45;&quot; to be strong, lively">
<polygon fill="none" stroke="black" points="499,-788 280,-788 280,-684 499,-684 499,-788"/>
<polygon fill="none" stroke="black" points="503,-792 276,-792 276,-680 503,-680 503,-792"/>
<text text-anchor="start" x="311.5" y="-743.8" font-family="Times New Roman,serif" font-weight="bold" font-size="24.00">Indo&#45;European</text>
<text text-anchor="start" x="306.5" y="-715.6" font-family="Times New Roman,serif" font-size="18.00" fill="red">*weg&#45;</text>
<text text-anchor="start" x="357.5" y="-716.2" font-family="Times New Roman,serif" font-size="16.00">to be strong, lively</text>
</a>
</g>
</g>
<!-- wakojan -->
<g id="node2" class="node">
<title>wakojan</title>
<text text-anchor="start" x="338" y="-557.8" font-family="Times New Roman,serif" font-weight="bold" font-size="14.00">Germanic</text>
<text text-anchor="start" x="342" y="-543.8" font-family="Times New Roman,serif" font-size="14.00" fill="red">*wakōjan</text>
</g>
<!-- weg&#45;&gt;wakojan -->
<g id="edge1" class="edge">
<title>weg&#45;&gt;wakojan</title>
<path fill="none" stroke="black" d="M383.03,-679.53C379.27,-647.35 374.71,-608.23 371.71,-582.53"/>
<polygon fill="black" stroke="black" points="375.16,-581.92 370.53,-572.39 368.21,-582.73 375.16,-581.92"/>
</g>
<!-- wakhtan -->
<g id="node3" class="node">
<title>wakhtan</title>
<text text-anchor="start" x="655" y="-557.8" font-family="Times New Roman,serif" font-weight="bold" font-size="14.00">Germanic</text>
<text text-anchor="start" x="654.5" y="-543.8" font-family="Times New Roman,serif" font-size="14.00" fill="red">*wa(k)htan</text>
</g>
<!-- weg&#45;&gt;wakhtan -->
<g id="edge2" class="edge">
<title>weg&#45;&gt;wakhtan</title>
<path fill="none" stroke="black" d="M503,-686.3C508.23,-684.16 513.42,-682.05 518.5,-680 560.39,-663.14 576.92,-670.47 613.5,-644 637.1,-626.92 657.27,-600.23 670.21,-580.53"/>
<polygon fill="black" stroke="black" points="673.21,-582.34 675.63,-572.03 667.31,-578.58 673.21,-582.34"/>
</g>
<!-- woeccan -->
<g id="node4" class="node">
<title>woeccan</title>
<text text-anchor="start" x="8" y="-472.8" font-family="Times New Roman,serif" font-weight="bold" font-size="14.00">Old English</text>
<text text-anchor="start" x="21" y="-458.8" font-family="Times New Roman,serif" font-size="14.00" fill="red">wœccan</text>
</g>
<!-- wakojan&#45;&gt;woeccan -->
<g id="edge3" class="edge">
<title>wakojan&#45;&gt;woeccan</title>
<path fill="none" stroke="black" d="M329.74,-543.07C272.22,-528.34 164.06,-500.63 98.72,-483.89"/>
<polygon fill="black" stroke="black" points="99.56,-480.49 89,-481.4 97.82,-487.27 99.56,-480.49"/>
</g>
<!-- wacan -->
<g id="node5" class="node">
<title>wacan</title>
<text text-anchor="start" x="225" y="-478.8" font-family="Times New Roman,serif" font-weight="bold" font-size="14.00">Old English</text>
<text text-anchor="start" x="243.5" y="-464.8" font-family="Times New Roman,serif" font-size="14.00" fill="red">wacan</text>
<text text-anchor="start" x="240" y="-452.4" font-family="Times New Roman,serif" font-size="12.00">to awake</text>
</g>
<!-- wakojan&#45;&gt;wacan -->
<g id="edge4" class="edge">
<title>wakojan&#45;&gt;wacan</title>
<path fill="none" stroke="black" d="M346.33,-535.8C332.78,-525.29 315.08,-511.56 299.36,-499.37"/>
<polygon fill="black" stroke="black" points="301.4,-496.52 291.35,-493.16 297.11,-502.05 301.4,-496.52"/>
</g>
<!-- wacian -->
<g id="node6" class="node">
<title>wacian</title>
<text text-anchor="start" x="332" y="-478.8" font-family="Times New Roman,serif" font-weight="bold" font-size="14.00">Old English</text>
<text text-anchor="start" x="349" y="-464.8" font-family="Times New Roman,serif" font-size="14.00" fill="red">wacian</text>
<text text-anchor="start" x="340" y="-452.4" font-family="Times New Roman,serif" font-size="12.00">to be awake</text>
</g>
<!-- wakojan&#45;&gt;wacian -->
<g id="edge5" class="edge">
<title>wakojan&#45;&gt;wacian</title>
<path fill="none" stroke="black" d="M368.5,-535.8C368.5,-526.45 368.5,-514.55 368.5,-503.45"/>
<polygon fill="black" stroke="black" points="372,-503.16 368.5,-493.16 365,-503.16 372,-503.16"/>
</g>
<!-- wahtaOG -->
<g id="node7" class="node">
<title>wahtaOG</title>
<text text-anchor="start" x="439.5" y="-479.8" font-family="Times New Roman,serif" font-weight="bold" font-size="14.00">Old High</text>
<text text-anchor="start" x="442" y="-465.8" font-family="Times New Roman,serif" font-weight="bold" font-size="14.00">German</text>
<text text-anchor="start" x="451" y="-451.8" font-family="Times New Roman,serif" font-size="14.00" fill="red">wahta</text>
</g>
<!-- wakojan&#45;&gt;wahtaOG -->
<g id="edge6" class="edge">
<title>wakojan&#45;&gt;wahtaOG</title>
<path fill="none" stroke="black" d="M389.01,-535.8C401.15,-525.63 416.88,-512.44 431.07,-500.55"/>
<polygon fill="black" stroke="black" points="433.34,-503.21 438.75,-494.1 428.84,-497.84 433.34,-503.21"/>
</g>
<!-- wachten -->
<g id="node29" class="node">
<title>wachten</title>
<text text-anchor="start" x="664" y="-387.8" font-family="Times New Roman,serif" font-weight="bold" font-size="14.00">Middle</text>
<text text-anchor="start" x="667" y="-373.8" font-family="Times New Roman,serif" font-weight="bold" font-size="14.00">Dutch</text>
<text text-anchor="start" x="662.5" y="-359.8" font-family="Times New Roman,serif" font-size="14.00" fill="red">wachten</text>
<text text-anchor="start" x="650" y="-347.4" font-family="Times New Roman,serif" font-size="12.00">to watch, guard</text>
</g>
<!-- wakhtan&#45;&gt;wachten -->
<g id="edge30" class="edge">
<title>wakhtan&#45;&gt;wachten</title>
<path fill="none" stroke="black" d="M685.5,-535.97C685.5,-507.98 685.5,-451.48 685.5,-412.7"/>
<polygon fill="black" stroke="black" points="689,-412.27 685.5,-402.27 682,-412.27 689,-412.27"/>
</g>
<!-- watier -->
<g id="node30" class="node">
<title>watier</title>
<text text-anchor="start" x="737" y="-485.8" font-family="Times New Roman,serif" font-weight="bold" font-size="14.00">Old North</text>
<text text-anchor="start" x="746.5" y="-471.8" font-family="Times New Roman,serif" font-weight="bold" font-size="14.00">French</text>
<text text-anchor="start" x="751.5" y="-457.8" font-family="Times New Roman,serif" font-size="14.00" fill="red">watier</text>
<text text-anchor="start" x="748.5" y="-445.4" font-family="Times New Roman,serif" font-size="12.00">to watch</text>
</g>
<!-- wakhtan&#45;&gt;watier -->
<g id="edge31" class="edge">
<title>wakhtan&#45;&gt;watier</title>
<path fill="none" stroke="black" stroke-dasharray="5,2" d="M702.7,-535.8C710.95,-527.55 721.18,-517.32 731.1,-507.4"/>
<polygon fill="black" stroke="black" points="733.64,-509.81 738.23,-500.27 728.69,-504.86 733.64,-509.81"/>
</g>
<!-- wacchen -->
<g id="node8" class="node">
<title>wacchen</title>
<text text-anchor="start" x="23" y="-199.8" font-family="Times New Roman,serif" font-weight="bold" font-size="14.00">Middle</text>
<text text-anchor="start" x="21.5" y="-185.8" font-family="Times New Roman,serif" font-weight="bold" font-size="14.00">English</text>
<text text-anchor="start" x="20" y="-171.8" font-family="Times New Roman,serif" font-size="14.00" fill="red">wacchen</text>
</g>
<!-- woeccan&#45;&gt;wacchen -->
<g id="edge7" class="edge">
<title>woeccan&#45;&gt;wacchen</title>
<path fill="none" stroke="black" d="M44.5,-450.61C44.5,-405.53 44.5,-284.26 44.5,-224.39"/>
<polygon fill="black" stroke="black" points="48,-224.3 44.5,-214.3 41,-224.3 48,-224.3"/>
</g>
<!-- waken -->
<g id="node10" class="node">
<title>waken</title>
<text text-anchor="start" x="105" y="-199.8" font-family="Times New Roman,serif" font-weight="bold" font-size="14.00">Middle</text>
<text text-anchor="start" x="103.5" y="-185.8" font-family="Times New Roman,serif" font-weight="bold" font-size="14.00">English</text>
<text text-anchor="start" x="108.5" y="-171.8" font-family="Times New Roman,serif" font-size="14.00" fill="red">waken</text>
</g>
<!-- wacan&#45;&gt;waken -->
<g id="edge9" class="edge">
<title>wacan&#45;&gt;waken</title>
<path fill="none" stroke="black" d="M242.05,-444.85C232.37,-432.62 220.96,-417.05 212.5,-402 178.9,-342.22 151.5,-266.64 137.23,-223.77"/>
<polygon fill="black" stroke="black" points="140.5,-222.52 134.05,-214.11 133.85,-224.71 140.5,-222.52"/>
</g>
<!-- awacan -->
<g id="node11" class="node">
<title>awacan</title>
<text text-anchor="start" x="268.5" y="-367.3" font-family="Times New Roman,serif" font-size="14.00" fill="red">awacan</text>
</g>
<!-- wacan&#45;&gt;awacan -->
<g id="edge10" class="edge">
<title>wacan&#45;&gt;awacan</title>
<path fill="none" stroke="black" d="M268.28,-444.76C272.32,-430.92 277.46,-413.29 281.67,-398.86"/>
<polygon fill="black" stroke="black" points="285.1,-399.59 284.54,-389.01 278.38,-397.63 285.1,-399.59"/>
</g>
<!-- wakien -->
<g id="node13" class="node">
<title>wakien</title>
<text text-anchor="start" x="203" y="-199.8" font-family="Times New Roman,serif" font-weight="bold" font-size="14.00">Middle</text>
<text text-anchor="start" x="201.5" y="-185.8" font-family="Times New Roman,serif" font-weight="bold" font-size="14.00">English</text>
<text text-anchor="start" x="183.5" y="-171.8" font-family="Times New Roman,serif" font-size="14.00" fill="red">wakien, waken</text>
</g>
<!-- wacian&#45;&gt;wakien -->
<g id="edge12" class="edge">
<title>wacian&#45;&gt;wakien</title>
<path fill="none" stroke="black" d="M327.22,-444.99C293.79,-426.32 252.12,-402.93 251.5,-402 215.28,-348.13 215.96,-268.86 220.02,-224.08"/>
<polygon fill="black" stroke="black" points="223.51,-224.31 221.04,-214 216.55,-223.6 223.51,-224.31"/>
</g>
<!-- awacian -->
<g id="node14" class="node">
<title>awacian</title>
<text text-anchor="start" x="348" y="-367.3" font-family="Times New Roman,serif" font-size="14.00" fill="red">awacian</text>
</g>
<!-- wacian&#45;&gt;awacian -->
<g id="edge13" class="edge">
<title>wacian&#45;&gt;awacian</title>
<path fill="none" stroke="black" d="M368.98,-444.76C369.27,-431.05 369.63,-413.63 369.93,-399.28"/>
<polygon fill="black" stroke="black" points="373.44,-399.08 370.15,-389.01 366.44,-398.93 373.44,-399.08"/>
</g>
<!-- wahteMG -->
<g id="node18" class="node">
<title>wahteMG</title>
<text text-anchor="start" x="429.5" y="-381.8" font-family="Times New Roman,serif" font-weight="bold" font-size="14.00">Middle High</text>
<text text-anchor="start" x="442" y="-367.8" font-family="Times New Roman,serif" font-weight="bold" font-size="14.00">German</text>
<text text-anchor="start" x="451" y="-353.8" font-family="Times New Roman,serif" font-size="14.00" fill="red">wahte</text>
</g>
<!-- wahtaOG&#45;&gt;wahteMG -->
<g id="edge19" class="edge">
<title>wahtaOG&#45;&gt;wahteMG</title>
<path fill="none" stroke="black" d="M467.5,-443.78C467.5,-432.41 467.5,-418.66 467.5,-406.25"/>
<polygon fill="black" stroke="black" points="471,-406.22 467.5,-396.22 464,-406.22 471,-406.22"/>
</g>
<!-- watch -->
<g id="node9" class="node">
<title>watch</title>
<text text-anchor="start" x="20" y="-35.8" font-family="Times New Roman,serif" font-weight="bold" font-size="14.00">Modern</text>
<text text-anchor="start" x="21.5" y="-21.8" font-family="Times New Roman,serif" font-weight="bold" font-size="14.00">English</text>
<text text-anchor="start" x="27.5" y="-7.8" font-family="Times New Roman,serif" font-size="14.00" fill="red">watch</text>
</g>
<!-- wacchen&#45;&gt;watch -->
<g id="edge8" class="edge">
<title>wacchen&#45;&gt;watch</title>
<path fill="none" stroke="black" d="M44.5,-163.75C44.5,-136.35 44.5,-91.54 44.5,-60.51"/>
<polygon fill="black" stroke="black" points="48,-60.15 44.5,-50.15 41,-60.15 48,-60.15"/>
</g>
<!-- wake -->
<g id="node16" class="node">
<title>wake</title>
<text text-anchor="start" x="151" y="-35.8" font-family="Times New Roman,serif" font-weight="bold" font-size="14.00">Modern</text>
<text text-anchor="start" x="152.5" y="-21.8" font-family="Times New Roman,serif" font-weight="bold" font-size="14.00">English</text>
<text text-anchor="start" x="161" y="-7.8" font-family="Times New Roman,serif" font-size="14.00" fill="red">wake</text>
</g>
<!-- waken&#45;&gt;wake -->
<g id="edge15" class="edge">
<title>waken&#45;&gt;wake</title>
<path fill="none" stroke="black" d="M133.84,-163.75C142.16,-136.23 155.79,-91.15 165.19,-60.1"/>
<polygon fill="black" stroke="black" points="168.65,-60.74 168.19,-50.15 161.95,-58.71 168.65,-60.74"/>
</g>
<!-- awaken -->
<g id="node12" class="node">
<title>awaken</title>
<text text-anchor="start" x="301" y="-199.8" font-family="Times New Roman,serif" font-weight="bold" font-size="14.00">Middle</text>
<text text-anchor="start" x="299.5" y="-185.8" font-family="Times New Roman,serif" font-weight="bold" font-size="14.00">English</text>
<text text-anchor="start" x="301.5" y="-171.8" font-family="Times New Roman,serif" font-size="14.00" fill="red">awaken</text>
</g>
<!-- awacan&#45;&gt;awaken -->
<g id="edge11" class="edge">
<title>awacan&#45;&gt;awaken</title>
<path fill="none" stroke="black" d="M292.66,-352.74C298.06,-323.3 309.14,-262.85 316.18,-224.49"/>
<polygon fill="black" stroke="black" points="319.68,-224.76 318.05,-214.3 312.8,-223.5 319.68,-224.76"/>
</g>
<!-- awake -->
<g id="node17" class="node">
<title>awake</title>
<text text-anchor="start" x="327" y="-35.8" font-family="Times New Roman,serif" font-weight="bold" font-size="14.00">Modern</text>
<text text-anchor="start" x="328.5" y="-21.8" font-family="Times New Roman,serif" font-weight="bold" font-size="14.00">English</text>
<text text-anchor="start" x="334" y="-7.8" font-family="Times New Roman,serif" font-size="14.00" fill="red">awake</text>
</g>
<!-- awaken&#45;&gt;awake -->
<g id="edge17" class="edge">
<title>awaken&#45;&gt;awake</title>
<path fill="none" stroke="black" d="M326.84,-163.75C331.77,-136.23 339.84,-91.15 345.4,-60.1"/>
<polygon fill="black" stroke="black" points="348.86,-60.61 347.18,-50.15 341.97,-59.38 348.86,-60.61"/>
</g>
<!-- wakien&#45;&gt;wake -->
<g id="edge16" class="edge">
<title>wakien&#45;&gt;wake</title>
<path fill="none" stroke="black" d="M217.16,-163.75C208.84,-136.23 195.21,-91.15 185.81,-60.1"/>
<polygon fill="black" stroke="black" points="189.05,-58.71 182.81,-50.15 182.35,-60.74 189.05,-58.71"/>
</g>
<!-- awakien -->
<g id="node15" class="node">
<title>awakien</title>
<text text-anchor="start" x="381" y="-199.8" font-family="Times New Roman,serif" font-weight="bold" font-size="14.00">Middle</text>
<text text-anchor="start" x="379.5" y="-185.8" font-family="Times New Roman,serif" font-weight="bold" font-size="14.00">English</text>
<text text-anchor="start" x="380" y="-171.8" font-family="Times New Roman,serif" font-size="14.00" fill="red">awakien</text>
</g>
<!-- awacian&#45;&gt;awakien -->
<g id="edge14" class="edge">
<title>awacian&#45;&gt;awakien</title>
<path fill="none" stroke="black" d="M373.57,-352.74C378.8,-323.3 389.55,-262.85 396.37,-224.49"/>
<polygon fill="black" stroke="black" points="399.88,-224.75 398.18,-214.3 392.98,-223.53 399.88,-224.75"/>
</g>
<!-- awakien&#45;&gt;awake -->
<g id="edge18" class="edge">
<title>awakien&#45;&gt;awake</title>
<path fill="none" stroke="black" d="M394.86,-163.75C386.16,-136.11 371.89,-90.76 362.11,-59.7"/>
<polygon fill="black" stroke="black" points="365.45,-58.64 359.1,-50.15 358.77,-60.74 365.45,-58.64"/>
</g>
<!-- wacht -->
<g id="node19" class="node">
<title>wacht</title>
<text text-anchor="start" x="467" y="-289.8" font-family="Times New Roman,serif" font-weight="bold" font-size="14.00">German</text>
<text text-anchor="start" x="474" y="-275.8" font-family="Times New Roman,serif" font-size="14.00" fill="red">Wacht</text>
<text text-anchor="start" x="467" y="-263.4" font-family="Times New Roman,serif" font-size="12.00">watch, vigil</text>
</g>
<!-- wahteMG&#45;&gt;wacht -->
<g id="edge20" class="edge">
<title>wahteMG&#45;&gt;wacht</title>
<path fill="none" stroke="black" d="M474.33,-345.68C477.09,-335.85 480.32,-324.36 483.28,-313.81"/>
<polygon fill="black" stroke="black" points="486.69,-314.64 486.02,-304.06 479.95,-312.75 486.69,-314.64"/>
</g>
<!-- beiwacht -->
<g id="node21" class="node">
<title>beiwacht</title>
<text text-anchor="start" x="467.5" y="-197.8" font-family="Times New Roman,serif" font-size="14.00" fill="red">beiwacht</text>
<text text-anchor="start" x="459.5" y="-185.4" font-family="Times New Roman,serif" font-size="12.00">supplementary</text>
<text text-anchor="start" x="466.5" y="-173.4" font-family="Times New Roman,serif" font-size="12.00">night watch</text>
</g>
<!-- wacht&#45;&gt;beiwacht -->
<g id="edge22" class="edge">
<title>wacht&#45;&gt;beiwacht</title>
<path fill="none" stroke="black" d="M492.5,-255.62C492.5,-245.39 492.5,-233.23 492.5,-222.17"/>
<polygon fill="black" stroke="black" points="496,-222 492.5,-212 489,-222 496,-222"/>
</g>
<!-- bei -->
<g id="node20" class="node">
<title>bei</title>
<text text-anchor="start" x="552" y="-289.8" font-family="Times New Roman,serif" font-weight="bold" font-size="14.00">German</text>
<text text-anchor="start" x="566.5" y="-275.8" font-family="Times New Roman,serif" font-size="14.00" fill="red">bei&#45;</text>
<text text-anchor="start" x="562.5" y="-263.4" font-family="Times New Roman,serif" font-size="12.00">beside</text>
</g>
<!-- bei&#45;&gt;beiwacht -->
<g id="edge21" class="edge">
<title>bei&#45;&gt;beiwacht</title>
<path fill="none" stroke="black" d="M555.17,-255.62C544.6,-244.55 531.86,-231.21 520.63,-219.46"/>
<polygon fill="black" stroke="black" points="522.95,-216.82 513.51,-212 517.89,-221.65 522.95,-216.82"/>
</g>
<!-- bivouacF -->
<g id="node27" class="node">
<title>bivouacF</title>
<text text-anchor="start" x="470.5" y="-107.8" font-family="Times New Roman,serif" font-weight="bold" font-size="14.00">French</text>
<text text-anchor="start" x="470" y="-93.8" font-family="Times New Roman,serif" font-size="14.00" fill="red">bivouac</text>
</g>
<!-- beiwacht&#45;&gt;bivouacF -->
<g id="edge28" class="edge">
<title>beiwacht&#45;&gt;bivouacF</title>
<path fill="none" stroke="black" stroke-dasharray="5,2" d="M492.5,-165.76C492.5,-155.46 492.5,-143.12 492.5,-132.27"/>
<polygon fill="black" stroke="black" points="496,-132.04 492.5,-122.04 489,-132.04 496,-132.04"/>
</g>
<!-- bhiIE -->
<g id="node22" class="node">
<title>bhiIE</title>
<text text-anchor="start" x="565" y="-622.3" font-family="Times New Roman,serif" font-size="14.00" fill="red">*bhi</text>
</g>
<!-- biGmc -->
<g id="node23" class="node">
<title>biGmc</title>
<text text-anchor="start" x="547" y="-557.8" font-family="Times New Roman,serif" font-weight="bold" font-size="14.00">Germanic</text>
<text text-anchor="start" x="554" y="-543.8" font-family="Times New Roman,serif" font-size="14.00" fill="red">*bi, *bi&#45;</text>
</g>
<!-- bhiIE&#45;&gt;biGmc -->
<g id="edge24" class="edge">
<title>bhiIE&#45;&gt;biGmc</title>
<path fill="none" stroke="black" d="M577.5,-607.7C577.5,-599.98 577.5,-590.71 577.5,-582.11"/>
<polygon fill="black" stroke="black" points="581,-582.1 577.5,-572.1 574,-582.1 581,-582.1"/>
</g>
<!-- biOHG -->
<g id="node24" class="node">
<title>biOHG</title>
<text text-anchor="start" x="549.5" y="-485.8" font-family="Times New Roman,serif" font-weight="bold" font-size="14.00">Old High</text>
<text text-anchor="start" x="552" y="-471.8" font-family="Times New Roman,serif" font-weight="bold" font-size="14.00">German</text>
<text text-anchor="start" x="572" y="-457.8" font-family="Times New Roman,serif" font-size="14.00" fill="red">bi</text>
<text text-anchor="start" x="564.5" y="-445.4" font-family="Times New Roman,serif" font-size="12.00">by, at</text>
</g>
<!-- biGmc&#45;&gt;biOHG -->
<g id="edge25" class="edge">
<title>biGmc&#45;&gt;biOHG</title>
<path fill="none" stroke="black" d="M577.5,-535.8C577.5,-528.35 577.5,-519.28 577.5,-510.29"/>
<polygon fill="black" stroke="black" points="581,-510.27 577.5,-500.27 574,-510.27 581,-510.27"/>
</g>
<!-- biMHG -->
<g id="node25" class="node">
<title>biMHG</title>
<text text-anchor="start" x="539.5" y="-381.8" font-family="Times New Roman,serif" font-weight="bold" font-size="14.00">Middle High</text>
<text text-anchor="start" x="552" y="-367.8" font-family="Times New Roman,serif" font-weight="bold" font-size="14.00">German</text>
<text text-anchor="start" x="569.5" y="-353.8" font-family="Times New Roman,serif" font-size="14.00" fill="red">bi&#45;</text>
</g>
<!-- biOHG&#45;&gt;biMHG -->
<g id="edge26" class="edge">
<title>biOHG&#45;&gt;biMHG</title>
<path fill="none" stroke="black" d="M577.5,-437.89C577.5,-427.93 577.5,-416.77 577.5,-406.51"/>
<polygon fill="black" stroke="black" points="581,-406.23 577.5,-396.23 574,-406.23 581,-406.23"/>
</g>
<!-- biMHG&#45;&gt;bei -->
<g id="edge27" class="edge">
<title>biMHG&#45;&gt;bei</title>
<path fill="none" stroke="black" d="M577.5,-345.68C577.5,-335.95 577.5,-324.59 577.5,-314.13"/>
<polygon fill="black" stroke="black" points="581,-314.06 577.5,-304.06 574,-314.06 581,-314.06"/>
</g>
<!-- ambhiIE -->
<g id="node26" class="node">
<title>ambhiIE</title>
<g id="a_node26"><a xlink:href="ambhi-around.svg" xlink:title="&lt;b&gt;Indo&#45;&lt;br/&gt;European&lt;/b&gt;&lt;br/&gt;&lt;font color=&quot;red&quot;&gt;*ambhi, *m̥bhi&lt;/font&gt;&lt;br/&gt;&lt;font point&#45;size=&quot;12&quot;&gt;around&lt;/font&gt;">
<path fill="none" stroke="black" stroke-dasharray="5,2" d="M615,-767C615,-767 540,-767 540,-767 534,-767 528,-761 528,-755 528,-755 528,-717 528,-717 528,-711 534,-705 540,-705 540,-705 615,-705 615,-705 621,-705 627,-711 627,-717 627,-717 627,-755 627,-755 627,-761 621,-767 615,-767"/>
<text text-anchor="start" x="561" y="-752.8" font-family="Times New Roman,serif" font-weight="bold" font-size="14.00">Indo&#45;</text>
<text text-anchor="start" x="547" y="-738.8" font-family="Times New Roman,serif" font-weight="bold" font-size="14.00">European</text>
<text text-anchor="start" x="536" y="-724.8" font-family="Times New Roman,serif" font-size="14.00" fill="red">*ambhi, *m̥bhi</text>
<text text-anchor="start" x="561.5" y="-712.4" font-family="Times New Roman,serif" font-size="12.00">around</text>
</a>
</g>
</g>
<!-- ambhiIE&#45;&gt;bhiIE -->
<g id="edge23" class="edge">
<title>ambhiIE&#45;&gt;bhiIE</title>
<path fill="none" stroke="black" d="M577.5,-704.92C577.5,-689.15 577.5,-669.96 577.5,-654.58"/>
<polygon fill="black" stroke="black" points="581,-654.15 577.5,-644.15 574,-654.15 581,-654.15"/>
</g>
<!-- bivouac -->
<g id="node28" class="node">
<title>bivouac</title>
<text text-anchor="start" x="468" y="-35.8" font-family="Times New Roman,serif" font-weight="bold" font-size="14.00">Modern</text>
<text text-anchor="start" x="469.5" y="-21.8" font-family="Times New Roman,serif" font-weight="bold" font-size="14.00">English</text>
<text text-anchor="start" x="470" y="-7.8" font-family="Times New Roman,serif" font-size="14.00" fill="red">bivouac</text>
</g>
<!-- bivouacF&#45;&gt;bivouac -->
<g id="edge29" class="edge">
<title>bivouacF&#45;&gt;bivouac</title>
<path fill="none" stroke="black" stroke-dasharray="5,2" d="M492.5,-85.91C492.5,-78.33 492.5,-69.13 492.5,-60.23"/>
<polygon fill="black" stroke="black" points="496,-60.05 492.5,-50.05 489,-60.05 496,-60.05"/>
</g>
<!-- waughten -->
<g id="node31" class="node">
<title>waughten</title>
<text text-anchor="start" x="652" y="-205.8" font-family="Times New Roman,serif" font-weight="bold" font-size="14.00">Middle</text>
<text text-anchor="start" x="650.5" y="-191.8" font-family="Times New Roman,serif" font-weight="bold" font-size="14.00">English</text>
<text text-anchor="start" x="647" y="-177.8" font-family="Times New Roman,serif" font-size="14.00" fill="red">waughten</text>
<text text-anchor="start" x="635.5" y="-165.4" font-family="Times New Roman,serif" font-size="12.00">to guard, convey</text>
</g>
<!-- wachten&#45;&gt;waughten -->
<g id="edge32" class="edge">
<title>wachten&#45;&gt;waughten</title>
<path fill="none" stroke="black" stroke-dasharray="5,2" d="M683.49,-339.87C681.49,-309.89 678.41,-263.68 676.2,-230.5"/>
<polygon fill="black" stroke="black" points="679.67,-229.97 675.52,-220.23 672.69,-230.44 679.67,-229.97"/>
</g>
<!-- waitME -->
<g id="node33" class="node">
<title>waitME</title>
<text text-anchor="start" x="747" y="-199.8" font-family="Times New Roman,serif" font-weight="bold" font-size="14.00">Middle</text>
<text text-anchor="start" x="745.5" y="-185.8" font-family="Times New Roman,serif" font-weight="bold" font-size="14.00">English</text>
<text text-anchor="start" x="757" y="-171.8" font-family="Times New Roman,serif" font-size="14.00" fill="red">wait</text>
</g>
<!-- watier&#45;&gt;waitME -->
<g id="edge34" class="edge">
<title>watier&#45;&gt;waitME</title>
<path fill="none" stroke="black" stroke-dasharray="5,2" d="M768.5,-437.98C768.5,-385.99 768.5,-279.48 768.5,-224.52"/>
<polygon fill="black" stroke="black" points="772,-224.24 768.5,-214.24 765,-224.24 772,-224.24"/>
</g>
<!-- awaitier -->
<g id="node35" class="node">
<title>awaitier</title>
<text text-anchor="start" x="816" y="-276.3" font-family="Times New Roman,serif" font-size="14.00" fill="red">awaitier</text>
</g>
<!-- watier&#45;&gt;awaitier -->
<g id="edge35" class="edge">
<title>watier&#45;&gt;awaitier</title>
<path fill="none" stroke="black" d="M779.59,-437.96C792.9,-401.87 815.02,-341.91 827.73,-307.49"/>
<polygon fill="black" stroke="black" points="831.02,-308.68 831.19,-298.09 824.45,-306.26 831.02,-308.68"/>
</g>
<!-- waft -->
<g id="node32" class="node">
<title>waft</title>
<text text-anchor="start" x="649" y="-35.8" font-family="Times New Roman,serif" font-weight="bold" font-size="14.00">Modern</text>
<text text-anchor="start" x="650.5" y="-21.8" font-family="Times New Roman,serif" font-weight="bold" font-size="14.00">English</text>
<text text-anchor="start" x="661" y="-7.8" font-family="Times New Roman,serif" font-size="14.00" fill="red">waft</text>
</g>
<!-- waughten&#45;&gt;waft -->
<g id="edge33" class="edge">
<title>waughten&#45;&gt;waft</title>
<path fill="none" stroke="black" d="M673.5,-157.91C673.5,-130.2 673.5,-89.13 673.5,-60.19"/>
<polygon fill="black" stroke="black" points="677,-60.12 673.5,-50.12 670,-60.12 677,-60.12"/>
</g>
<!-- wait -->
<g id="node34" class="node">
<title>wait</title>
<text text-anchor="start" x="743" y="-35.8" font-family="Times New Roman,serif" font-weight="bold" font-size="14.00">Modern</text>
<text text-anchor="start" x="744.5" y="-21.8" font-family="Times New Roman,serif" font-weight="bold" font-size="14.00">English</text>
<text text-anchor="start" x="756" y="-7.8" font-family="Times New Roman,serif" font-size="14.00" fill="red">wait</text>
</g>
<!-- waitME&#45;&gt;wait -->
<g id="edge37" class="edge">
<title>waitME&#45;&gt;wait</title>
<path fill="none" stroke="black" d="M768.35,-163.75C768.18,-136.35 767.9,-91.54 767.71,-60.51"/>
<polygon fill="black" stroke="black" points="771.21,-60.13 767.65,-50.15 764.21,-60.18 771.21,-60.13"/>
</g>
<!-- awaitME -->
<g id="node36" class="node">
<title>awaitME</title>
<text text-anchor="start" x="828" y="-199.8" font-family="Times New Roman,serif" font-weight="bold" font-size="14.00">Middle</text>
<text text-anchor="start" x="826.5" y="-185.8" font-family="Times New Roman,serif" font-weight="bold" font-size="14.00">English</text>
<text text-anchor="start" x="835" y="-171.8" font-family="Times New Roman,serif" font-size="14.00" fill="red">await</text>
</g>
<!-- awaitier&#45;&gt;awaitME -->
<g id="edge36" class="edge">
<title>awaitier&#45;&gt;awaitME</title>
<path fill="none" stroke="black" stroke-dasharray="5,2" d="M839.81,-261.84C841.25,-251.16 843.16,-237.04 844.89,-224.16"/>
<polygon fill="black" stroke="black" points="848.37,-224.55 846.24,-214.17 841.44,-223.62 848.37,-224.55"/>
</g>
<!-- await -->
<g id="node37" class="node">
<title>await</title>
<text text-anchor="start" x="826" y="-35.8" font-family="Times New Roman,serif" font-weight="bold" font-size="14.00">Modern</text>
<text text-anchor="start" x="827.5" y="-21.8" font-family="Times New Roman,serif" font-weight="bold" font-size="14.00">English</text>
<text text-anchor="start" x="836" y="-7.8" font-family="Times New Roman,serif" font-size="14.00" fill="red">await</text>
</g>
<!-- awaitME&#45;&gt;await -->
<g id="edge38" class="edge">
<title>awaitME&#45;&gt;await</title>
<path fill="none" stroke="black" d="M849.65,-163.75C849.82,-136.35 850.1,-91.54 850.29,-60.51"/>
<polygon fill="black" stroke="black" points="853.79,-60.18 850.35,-50.15 846.79,-60.13 853.79,-60.18"/>
</g>
</g>
</svg>
