<?xml version="1.0" encoding="UTF-8" standalone="no"?>
<!DOCTYPE svg PUBLIC "-//W3C//DTD SVG 1.1//EN"
 "http://www.w3.org/Graphics/SVG/1.1/DTD/svg11.dtd">
<!-- Generated by graphviz version 2.49.0 (20210828.1703)
 -->
<!-- Pages: 1 -->
<svg width="1127pt" height="602pt"
 viewBox="0.00 0.00 1126.50 602.00" xmlns="http://www.w3.org/2000/svg" xmlns:xlink="http://www.w3.org/1999/xlink">
<g id="graph0" class="graph" transform="scale(1 1) rotate(0) translate(4 598)">
<polygon fill="white" stroke="transparent" points="-4,4 -4,-598 1122.5,-598 1122.5,4 -4,4"/>
<!-- weidIE -->
<g id="node1" class="node">
<title>weidIE</title>
<g id="a_node1"><a xlink:href="weid-see2.svg" xlink:title="Indo&#45;European &quot;*weid&#45;&quot; to see">
<polygon fill="none" stroke="black" stroke-dasharray="5,2" points="767,-594 556,-594 556,-490 767,-490 767,-594"/>
<text text-anchor="start" x="583.5" y="-549.8" font-family="Times New Roman,serif" font-weight="bold" font-size="24.00">Indo&#45;European</text>
<text text-anchor="start" x="599" y="-521.6" font-family="Times New Roman,serif" font-size="18.00" fill="red">*weid&#45;</text>
<text text-anchor="start" x="688" y="-522.2" font-family="Times New Roman,serif" font-size="16.00">to see</text>
</a>
</g>
</g>
<!-- videreL -->
<g id="node2" class="node">
<title>videreL</title>
<text text-anchor="start" x="645" y="-426.8" font-family="Times New Roman,serif" font-weight="bold" font-size="14.00">Latin</text>
<text text-anchor="start" x="644.5" y="-412.8" font-family="Times New Roman,serif" font-size="14.00" fill="red">vidēre</text>
</g>
<!-- weidIE&#45;&gt;videreL -->
<g id="edge1" class="edge">
<title>weidIE&#45;&gt;videreL</title>
<path fill="none" stroke="black" d="M661.5,-489.68C661.5,-476.47 661.5,-462.76 661.5,-451.3"/>
<polygon fill="black" stroke="black" points="665,-451.1 661.5,-441.1 658,-451.1 665,-451.1"/>
</g>
<!-- visusL -->
<g id="node3" class="node">
<title>visusL</title>
<text text-anchor="start" x="433" y="-334.8" font-family="Times New Roman,serif" font-size="14.00" fill="red">vīsus</text>
<text text-anchor="start" x="422" y="-322.4" font-family="Times New Roman,serif" font-size="12.00">appearance</text>
</g>
<!-- videreL&#45;&gt;visusL -->
<g id="edge2" class="edge">
<title>videreL&#45;&gt;visusL</title>
<path fill="none" stroke="black" d="M634.09,-410.55C598.26,-395.58 535.07,-369.17 492.5,-351.38"/>
<polygon fill="black" stroke="black" points="493.79,-348.13 483.22,-347.51 491.09,-354.59 493.79,-348.13"/>
</g>
<!-- videoL -->
<g id="node24" class="node">
<title>videoL</title>
<text text-anchor="start" x="612" y="-334.8" font-family="Times New Roman,serif" font-size="14.00" fill="red">videō</text>
<text text-anchor="start" x="616.5" y="-322.4" font-family="Times New Roman,serif" font-size="12.00">I see</text>
</g>
<!-- videreL&#45;&gt;videoL -->
<g id="edge23" class="edge">
<title>videreL&#45;&gt;videoL</title>
<path fill="none" stroke="black" d="M654.94,-404.84C650.05,-392.04 643.28,-374.3 637.68,-359.65"/>
<polygon fill="black" stroke="black" points="640.87,-358.2 634.04,-350.11 634.33,-360.7 640.87,-358.2"/>
</g>
<!-- voirOF -->
<g id="node26" class="node">
<title>voirOF</title>
<text text-anchor="start" x="678.5" y="-250.8" font-family="Times New Roman,serif" font-weight="bold" font-size="14.00">Old French</text>
<text text-anchor="start" x="702.5" y="-236.8" font-family="Times New Roman,serif" font-size="14.00" fill="red">voir</text>
<text text-anchor="start" x="699.5" y="-224.4" font-family="Times New Roman,serif" font-size="12.00">to see</text>
</g>
<!-- videreL&#45;&gt;voirOF -->
<g id="edge25" class="edge">
<title>videreL&#45;&gt;voirOF</title>
<path fill="none" stroke="black" d="M666.49,-404.74C675.12,-374.85 692.99,-313 704.04,-274.75"/>
<polygon fill="black" stroke="black" points="707.41,-275.68 706.83,-265.1 700.69,-273.73 707.41,-275.68"/>
</g>
<!-- vedereI -->
<g id="node36" class="node">
<title>vedereI</title>
<text text-anchor="start" x="967.5" y="-244.8" font-family="Times New Roman,serif" font-weight="bold" font-size="14.00">Italian</text>
<text text-anchor="start" x="969" y="-230.8" font-family="Times New Roman,serif" font-size="14.00" fill="red">vedere</text>
</g>
<!-- videreL&#45;&gt;vedereI -->
<g id="edge35" class="edge">
<title>videreL&#45;&gt;vedereI</title>
<path fill="none" stroke="black" d="M688.55,-413.93C733.86,-400.2 822.95,-372.2 851.5,-356 894.97,-331.34 937.96,-292.16 963.62,-266.76"/>
<polygon fill="black" stroke="black" points="966.43,-268.9 971.01,-259.35 961.47,-263.96 966.43,-268.9"/>
</g>
<!-- visAN -->
<g id="node4" class="node">
<title>visAN</title>
<text text-anchor="start" x="21" y="-257.8" font-family="Times New Roman,serif" font-weight="bold" font-size="14.00">Anglo&#45;Norman</text>
<text text-anchor="start" x="58.5" y="-243.8" font-family="Times New Roman,serif" font-size="14.00" fill="red">vis</text>
<text text-anchor="start" x="57" y="-231.4" font-family="Times New Roman,serif" font-size="12.00">face</text>
<text text-anchor="start" x="53" y="-217.8" font-family="Times New Roman,serif" font-size="14.00" fill="red">viser</text>
</g>
<!-- visusL&#45;&gt;visAN -->
<g id="edge3" class="edge">
<title>visusL&#45;&gt;visAN</title>
<path fill="none" stroke="black" d="M417.61,-313.99C412.66,-311.72 407.51,-309.63 402.5,-308 309.09,-277.7 280.62,-292.12 184.5,-272 166.77,-268.29 147.69,-263.7 130.15,-259.24"/>
<polygon fill="black" stroke="black" points="130.58,-255.74 120.02,-256.64 128.84,-262.52 130.58,-255.74"/>
</g>
<!-- visOF -->
<g id="node6" class="node">
<title>visOF</title>
<text text-anchor="start" x="201.5" y="-244.8" font-family="Times New Roman,serif" font-weight="bold" font-size="14.00">Old French</text>
<text text-anchor="start" x="228.5" y="-230.8" font-family="Times New Roman,serif" font-size="14.00" fill="red">vis</text>
</g>
<!-- visusL&#45;&gt;visOF -->
<g id="edge5" class="edge">
<title>visusL&#45;&gt;visOF</title>
<path fill="none" stroke="black" d="M415.24,-313.96C410.98,-311.89 406.66,-309.86 402.5,-308 381.6,-298.64 329.58,-278.12 289.3,-262.43"/>
<polygon fill="black" stroke="black" points="290.45,-259.12 279.86,-258.76 287.91,-265.64 290.45,-259.12"/>
</g>
<!-- improvisusL -->
<g id="node17" class="node">
<title>improvisusL</title>
<text text-anchor="start" x="332.5" y="-243.8" font-family="Times New Roman,serif" font-size="14.00" fill="red">improvīsus</text>
<text text-anchor="start" x="342.5" y="-231.4" font-family="Times New Roman,serif" font-size="12.00">unforseen</text>
</g>
<!-- visusL&#45;&gt;improvisusL -->
<g id="edge14" class="edge">
<title>visusL&#45;&gt;improvisusL</title>
<path fill="none" stroke="black" d="M432.3,-313.84C419.64,-300.42 401.86,-281.58 387.68,-266.56"/>
<polygon fill="black" stroke="black" points="390.06,-263.98 380.65,-259.11 384.96,-268.78 390.06,-263.98"/>
</g>
<!-- visionL -->
<g id="node19" class="node">
<title>visionL</title>
<text text-anchor="start" x="433.5" y="-252.3" font-family="Times New Roman,serif" font-size="14.00" fill="red">visiōn&#45;</text>
<text text-anchor="start" x="431" y="-237.3" font-family="Times New Roman,serif" font-size="14.00" fill="red">vīsibilis</text>
<text text-anchor="start" x="431" y="-222.3" font-family="Times New Roman,serif" font-size="14.00" fill="red">vīsuālis</text>
</g>
<!-- visusL&#45;&gt;visionL -->
<g id="edge18" class="edge">
<title>visusL&#45;&gt;visionL</title>
<path fill="none" stroke="black" d="M449.27,-313.84C449.73,-303.58 450.34,-290.15 450.9,-277.69"/>
<polygon fill="black" stroke="black" points="454.4,-277.68 451.35,-267.53 447.41,-277.37 454.4,-277.68"/>
</g>
<!-- visaL -->
<g id="node21" class="node">
<title>visaL</title>
<text text-anchor="start" x="511.5" y="-249.8" font-family="Times New Roman,serif" font-size="14.00" fill="red">(carta) visa</text>
<text text-anchor="start" x="508" y="-237.4" font-family="Times New Roman,serif" font-size="12.00">(the document)</text>
<text text-anchor="start" x="510.5" y="-225.4" font-family="Times New Roman,serif" font-size="12.00">has been seen</text>
</g>
<!-- visusL&#45;&gt;visaL -->
<g id="edge20" class="edge">
<title>visusL&#45;&gt;visaL</title>
<path fill="none" stroke="black" d="M466.62,-313.84C479.34,-301.8 496.67,-285.39 511.56,-271.3"/>
<polygon fill="black" stroke="black" points="514.23,-273.59 519.08,-264.17 509.41,-268.51 514.23,-273.59"/>
</g>
<!-- visor -->
<g id="node5" class="node">
<title>visor</title>
<text text-anchor="start" x="8" y="-49.8" font-family="Times New Roman,serif" font-weight="bold" font-size="14.00">Modern</text>
<text text-anchor="start" x="9.5" y="-35.8" font-family="Times New Roman,serif" font-weight="bold" font-size="14.00">English</text>
<text text-anchor="start" x="18.5" y="-21.8" font-family="Times New Roman,serif" font-size="14.00" fill="red">visor</text>
</g>
<!-- visAN&#45;&gt;visor -->
<g id="edge4" class="edge">
<title>visAN&#45;&gt;visor</title>
<path fill="none" stroke="black" stroke-dasharray="5,2" d="M61.34,-209.62C55.14,-173.17 44.77,-112.2 38.3,-74.14"/>
<polygon fill="black" stroke="black" points="41.72,-73.33 36.59,-64.05 34.81,-74.5 41.72,-73.33"/>
</g>
<!-- visageOF -->
<g id="node7" class="node">
<title>visageOF</title>
<text text-anchor="start" x="99" y="-140.3" font-family="Times New Roman,serif" font-size="14.00" fill="red">visage</text>
</g>
<!-- visOF&#45;&gt;visageOF -->
<g id="edge6" class="edge">
<title>visOF&#45;&gt;visageOF</title>
<path fill="none" stroke="black" d="M214.77,-222.8C195.57,-207.6 167.4,-185.29 146.13,-168.46"/>
<polygon fill="black" stroke="black" points="148.08,-165.54 138.07,-162.08 143.74,-171.03 148.08,-165.54"/>
</g>
<!-- visavisF -->
<g id="node9" class="node">
<title>visavisF</title>
<text text-anchor="start" x="176.5" y="-153.8" font-family="Times New Roman,serif" font-weight="bold" font-size="14.00">French</text>
<text text-anchor="start" x="175" y="-139.8" font-family="Times New Roman,serif" font-size="14.00" fill="red">vis&#45;à&#45;vis</text>
<text text-anchor="start" x="170.5" y="-127.4" font-family="Times New Roman,serif" font-size="12.00">face&#45;to&#45;face</text>
</g>
<!-- visOF&#45;&gt;visavisF -->
<g id="edge8" class="edge">
<title>visOF&#45;&gt;visavisF</title>
<path fill="none" stroke="black" d="M229.53,-222.58C224.5,-210.01 217.57,-192.67 211.53,-177.57"/>
<polygon fill="black" stroke="black" points="214.68,-176.03 207.72,-168.05 208.18,-178.63 214.68,-176.03"/>
</g>
<!-- avisOF -->
<g id="node11" class="node">
<title>avisOF</title>
<text text-anchor="start" x="267.5" y="-159.8" font-family="Times New Roman,serif" font-size="14.00" fill="red">a vis</text>
<text text-anchor="start" x="262.5" y="-147.4" font-family="Times New Roman,serif" font-size="12.00">to seem</text>
<text text-anchor="start" x="269.5" y="-133.8" font-family="Times New Roman,serif" font-size="14.00" fill="red">avis</text>
<text text-anchor="start" x="265.5" y="-121.4" font-family="Times New Roman,serif" font-size="12.00">advice</text>
</g>
<!-- visOF&#45;&gt;avisOF -->
<g id="edge10" class="edge">
<title>visOF&#45;&gt;avisOF</title>
<path fill="none" stroke="black" d="M244.57,-222.58C249.65,-211.61 256.41,-197.01 262.7,-183.43"/>
<polygon fill="black" stroke="black" points="265.92,-184.8 266.95,-174.25 259.57,-181.86 265.92,-184.8"/>
</g>
<!-- visage -->
<g id="node8" class="node">
<title>visage</title>
<text text-anchor="start" x="91" y="-49.8" font-family="Times New Roman,serif" font-weight="bold" font-size="14.00">Modern</text>
<text text-anchor="start" x="92.5" y="-35.8" font-family="Times New Roman,serif" font-weight="bold" font-size="14.00">English</text>
<text text-anchor="start" x="98" y="-21.8" font-family="Times New Roman,serif" font-size="14.00" fill="red">visage</text>
</g>
<!-- visageOF&#45;&gt;visage -->
<g id="edge7" class="edge">
<title>visageOF&#45;&gt;visage</title>
<path fill="none" stroke="black" stroke-dasharray="5,2" d="M116.33,-125.99C116.2,-112.08 116,-91.95 115.84,-74.67"/>
<polygon fill="black" stroke="black" points="119.33,-74.32 115.74,-64.36 112.33,-74.39 119.33,-74.32"/>
</g>
<!-- visavis -->
<g id="node10" class="node">
<title>visavis</title>
<text text-anchor="start" x="174" y="-49.8" font-family="Times New Roman,serif" font-weight="bold" font-size="14.00">Modern</text>
<text text-anchor="start" x="175.5" y="-35.8" font-family="Times New Roman,serif" font-weight="bold" font-size="14.00">English</text>
<text text-anchor="start" x="175" y="-21.8" font-family="Times New Roman,serif" font-size="14.00" fill="red">vis&#45;à&#45;vis</text>
</g>
<!-- visavisF&#45;&gt;visavis -->
<g id="edge9" class="edge">
<title>visavisF&#45;&gt;visavis</title>
<path fill="none" stroke="black" stroke-dasharray="5,2" d="M198.5,-119.88C198.5,-106.52 198.5,-89.45 198.5,-74.52"/>
<polygon fill="black" stroke="black" points="202,-74.11 198.5,-64.11 195,-74.11 202,-74.11"/>
</g>
<!-- advice -->
<g id="node12" class="node">
<title>advice</title>
<text text-anchor="start" x="257" y="-56.8" font-family="Times New Roman,serif" font-weight="bold" font-size="14.00">Modern</text>
<text text-anchor="start" x="258.5" y="-42.8" font-family="Times New Roman,serif" font-weight="bold" font-size="14.00">English</text>
<text text-anchor="start" x="263" y="-28.8" font-family="Times New Roman,serif" font-size="14.00" fill="red">advice</text>
<text text-anchor="start" x="263.5" y="-14.8" font-family="Times New Roman,serif" font-size="14.00" fill="red">advise</text>
</g>
<!-- avisOF&#45;&gt;advice -->
<g id="edge11" class="edge">
<title>avisOF&#45;&gt;advice</title>
<path fill="none" stroke="black" stroke-dasharray="5,2" d="M280.78,-113.76C280.88,-103.66 280.99,-92.15 281.1,-81.28"/>
<polygon fill="black" stroke="black" points="284.6,-81.15 281.2,-71.11 277.6,-81.08 284.6,-81.15"/>
</g>
<!-- neIE -->
<g id="node13" class="node">
<title>neIE</title>
<g id="a_node13"><a xlink:href="ne-not3.svg" xlink:title="&lt;b&gt;Indo&#45;&lt;br/&gt;European&lt;/b&gt;&lt;br/&gt;&lt;font color=&quot;red&quot;&gt;*ne&lt;/font&gt;&lt;br/&gt;&lt;font point&#45;size=&quot;12&quot;&gt;not&lt;/font&gt;">
<path fill="none" stroke="black" stroke-dasharray="5,2" d="M304,-454C304,-454 251,-454 251,-454 245,-454 239,-448 239,-442 239,-442 239,-404 239,-404 239,-398 245,-392 251,-392 251,-392 304,-392 304,-392 310,-392 316,-398 316,-404 316,-404 316,-442 316,-442 316,-448 310,-454 304,-454"/>
<text text-anchor="start" x="261" y="-439.8" font-family="Times New Roman,serif" font-weight="bold" font-size="14.00">Indo&#45;</text>
<text text-anchor="start" x="247" y="-425.8" font-family="Times New Roman,serif" font-weight="bold" font-size="14.00">European</text>
<text text-anchor="start" x="267.5" y="-411.8" font-family="Times New Roman,serif" font-size="14.00" fill="red">*ne</text>
<text text-anchor="start" x="270" y="-399.4" font-family="Times New Roman,serif" font-size="12.00">not</text>
</a>
</g>
</g>
<!-- inL -->
<g id="node14" class="node">
<title>inL</title>
<text text-anchor="start" x="272" y="-335.8" font-family="Times New Roman,serif" font-weight="bold" font-size="14.00">Latin</text>
<text text-anchor="start" x="281" y="-321.8" font-family="Times New Roman,serif" font-size="14.00" fill="red">in&#45;</text>
</g>
<!-- neIE&#45;&gt;inL -->
<g id="edge12" class="edge">
<title>neIE&#45;&gt;inL</title>
<path fill="none" stroke="black" d="M281.22,-391.87C282.49,-381.65 283.89,-370.29 285.13,-360.3"/>
<polygon fill="black" stroke="black" points="288.63,-360.47 286.38,-350.12 281.68,-359.62 288.63,-360.47"/>
</g>
<!-- inL&#45;&gt;improvisusL -->
<g id="edge15" class="edge">
<title>inL&#45;&gt;improvisusL</title>
<path fill="none" stroke="black" d="M303.15,-313.84C314.51,-300.54 330.4,-281.93 343.17,-266.98"/>
<polygon fill="black" stroke="black" points="346.06,-268.98 349.89,-259.11 340.74,-264.44 346.06,-268.98"/>
</g>
<!-- perIE -->
<g id="node15" class="node">
<title>perIE</title>
<g id="a_node15"><a xlink:href="per-pro2.svg" xlink:title="&lt;b&gt;Indo&#45;&lt;br/&gt;European&lt;/b&gt;&lt;br/&gt;&lt;font color=&quot;red&quot;&gt;*per&lt;/font&gt;&lt;br/&gt;&lt;font point&#45;size=&quot;12&quot;&gt;forward&lt;/font&gt;">
<path fill="none" stroke="black" stroke-dasharray="5,2" d="M399,-454C399,-454 346,-454 346,-454 340,-454 334,-448 334,-442 334,-442 334,-404 334,-404 334,-398 340,-392 346,-392 346,-392 399,-392 399,-392 405,-392 411,-398 411,-404 411,-404 411,-442 411,-442 411,-448 405,-454 399,-454"/>
<text text-anchor="start" x="356" y="-439.8" font-family="Times New Roman,serif" font-weight="bold" font-size="14.00">Indo&#45;</text>
<text text-anchor="start" x="342" y="-425.8" font-family="Times New Roman,serif" font-weight="bold" font-size="14.00">European</text>
<text text-anchor="start" x="360" y="-411.8" font-family="Times New Roman,serif" font-size="14.00" fill="red">*per</text>
<text text-anchor="start" x="354" y="-399.4" font-family="Times New Roman,serif" font-size="12.00">forward</text>
</a>
</g>
</g>
<!-- proL -->
<g id="node16" class="node">
<title>proL</title>
<text text-anchor="start" x="350" y="-335.8" font-family="Times New Roman,serif" font-weight="bold" font-size="14.00">Latin</text>
<text text-anchor="start" x="354" y="-321.8" font-family="Times New Roman,serif" font-size="14.00" fill="red">prō&#45;</text>
</g>
<!-- perIE&#45;&gt;proL -->
<g id="edge13" class="edge">
<title>perIE&#45;&gt;proL</title>
<path fill="none" stroke="black" d="M370.47,-391.87C369.78,-381.65 369.01,-370.29 368.34,-360.3"/>
<polygon fill="black" stroke="black" points="371.82,-359.86 367.65,-350.12 364.83,-360.33 371.82,-359.86"/>
</g>
<!-- proL&#45;&gt;improvisusL -->
<g id="edge16" class="edge">
<title>proL&#45;&gt;improvisusL</title>
<path fill="none" stroke="black" d="M366.11,-313.84C365.83,-301.28 365.44,-283.98 365.12,-269.5"/>
<polygon fill="black" stroke="black" points="368.61,-269.03 364.88,-259.11 361.61,-269.18 368.61,-269.03"/>
</g>
<!-- improvise -->
<g id="node18" class="node">
<title>improvise</title>
<text text-anchor="start" x="343" y="-49.8" font-family="Times New Roman,serif" font-weight="bold" font-size="14.00">Modern</text>
<text text-anchor="start" x="344.5" y="-35.8" font-family="Times New Roman,serif" font-weight="bold" font-size="14.00">English</text>
<text text-anchor="start" x="340" y="-21.8" font-family="Times New Roman,serif" font-size="14.00" fill="red">improvise</text>
</g>
<!-- improvisusL&#45;&gt;improvise -->
<g id="edge17" class="edge">
<title>improvisusL&#45;&gt;improvise</title>
<path fill="none" stroke="black" stroke-dasharray="5,2" d="M364.76,-222.95C365.25,-190.05 366.34,-117.25 366.99,-74.06"/>
<polygon fill="black" stroke="black" points="370.49,-74.07 367.14,-64.02 363.49,-73.97 370.49,-74.07"/>
</g>
<!-- vision -->
<g id="node20" class="node">
<title>vision</title>
<text text-anchor="start" x="429" y="-63.8" font-family="Times New Roman,serif" font-weight="bold" font-size="14.00">Modern</text>
<text text-anchor="start" x="430.5" y="-49.8" font-family="Times New Roman,serif" font-weight="bold" font-size="14.00">English</text>
<text text-anchor="start" x="436.5" y="-35.8" font-family="Times New Roman,serif" font-size="14.00" fill="red">vision</text>
<text text-anchor="start" x="435.5" y="-21.8" font-family="Times New Roman,serif" font-size="14.00" fill="red">visible</text>
<text text-anchor="start" x="437.5" y="-7.8" font-family="Times New Roman,serif" font-size="14.00" fill="red">visual</text>
</g>
<!-- visionL&#45;&gt;vision -->
<g id="edge19" class="edge">
<title>visionL&#45;&gt;vision</title>
<path fill="none" stroke="black" stroke-dasharray="5,2" d="M452.63,-214.26C452.79,-182.59 453.06,-128.16 453.26,-88.54"/>
<polygon fill="black" stroke="black" points="456.76,-88.32 453.31,-78.3 449.76,-88.28 456.76,-88.32"/>
</g>
<!-- visaF -->
<g id="node22" class="node">
<title>visaF</title>
<text text-anchor="start" x="517.5" y="-147.8" font-family="Times New Roman,serif" font-weight="bold" font-size="14.00">French</text>
<text text-anchor="start" x="528.5" y="-133.8" font-family="Times New Roman,serif" font-size="14.00" fill="red">visa</text>
</g>
<!-- visaL&#45;&gt;visaF -->
<g id="edge21" class="edge">
<title>visaL&#45;&gt;visaF</title>
<path fill="none" stroke="black" d="M541.8,-217.97C541.38,-204.43 540.83,-186.97 540.37,-172.52"/>
<polygon fill="black" stroke="black" points="543.86,-172.06 540.04,-162.18 536.86,-172.28 543.86,-172.06"/>
</g>
<!-- visa -->
<g id="node23" class="node">
<title>visa</title>
<text text-anchor="start" x="514" y="-49.8" font-family="Times New Roman,serif" font-weight="bold" font-size="14.00">Modern</text>
<text text-anchor="start" x="515.5" y="-35.8" font-family="Times New Roman,serif" font-weight="bold" font-size="14.00">English</text>
<text text-anchor="start" x="527.5" y="-21.8" font-family="Times New Roman,serif" font-size="14.00" fill="red">visa</text>
</g>
<!-- visaF&#45;&gt;visa -->
<g id="edge22" class="edge">
<title>visaF&#45;&gt;visa</title>
<path fill="none" stroke="black" stroke-dasharray="5,2" d="M539.33,-125.99C539.2,-112.08 539,-91.95 538.84,-74.67"/>
<polygon fill="black" stroke="black" points="542.33,-74.32 538.74,-64.36 535.33,-74.39 542.33,-74.32"/>
</g>
<!-- video -->
<g id="node25" class="node">
<title>video</title>
<text text-anchor="start" x="597" y="-56.8" font-family="Times New Roman,serif" font-weight="bold" font-size="14.00">Modern</text>
<text text-anchor="start" x="598.5" y="-42.8" font-family="Times New Roman,serif" font-weight="bold" font-size="14.00">English</text>
<text text-anchor="start" x="606" y="-28.8" font-family="Times New Roman,serif" font-size="14.00" fill="red">video</text>
<text text-anchor="start" x="603.5" y="-14.8" font-family="Times New Roman,serif" font-size="14.00" fill="red">video&#45;</text>
</g>
<!-- videoL&#45;&gt;video -->
<g id="edge24" class="edge">
<title>videoL&#45;&gt;video</title>
<path fill="none" stroke="black" stroke-dasharray="5,2" d="M627.14,-313.67C626.21,-268.47 623.69,-146.01 622.35,-81.33"/>
<polygon fill="black" stroke="black" points="625.85,-81.01 622.14,-71.08 618.85,-81.15 625.85,-81.01"/>
</g>
<!-- voyeurOF -->
<g id="node27" class="node">
<title>voyeurOF</title>
<text text-anchor="start" x="683" y="-146.8" font-family="Times New Roman,serif" font-size="14.00" fill="red">voyeur</text>
<text text-anchor="start" x="658" y="-134.4" font-family="Times New Roman,serif" font-size="12.00">one who lies in wait</text>
</g>
<!-- voirOF&#45;&gt;voyeurOF -->
<g id="edge26" class="edge">
<title>voirOF&#45;&gt;voyeurOF</title>
<path fill="none" stroke="black" d="M710.78,-216.52C709.23,-203.12 707.28,-186.26 705.66,-172.28"/>
<polygon fill="black" stroke="black" points="709.12,-171.78 704.5,-162.25 702.17,-172.59 709.12,-171.78"/>
</g>
<!-- clairvoyantF -->
<g id="node32" class="node">
<title>clairvoyantF</title>
<text text-anchor="start" x="793.5" y="-153.8" font-family="Times New Roman,serif" font-weight="bold" font-size="14.00">French</text>
<text text-anchor="start" x="783" y="-139.8" font-family="Times New Roman,serif" font-size="14.00" fill="red">clair voyant</text>
<text text-anchor="start" x="781.5" y="-127.4" font-family="Times New Roman,serif" font-size="12.00">&quot;seeing clearly&quot;</text>
</g>
<!-- voirOF&#45;&gt;clairvoyantF -->
<g id="edge30" class="edge">
<title>voirOF&#45;&gt;clairvoyantF</title>
<path fill="none" stroke="black" d="M738.45,-216.76C751.79,-204.34 768.37,-188.89 782.74,-175.52"/>
<polygon fill="black" stroke="black" points="785.52,-177.71 790.45,-168.33 780.75,-172.58 785.52,-177.71"/>
</g>
<!-- voilaF -->
<g id="node34" class="node">
<title>voilaF</title>
<text text-anchor="start" x="884.5" y="-153.8" font-family="Times New Roman,serif" font-weight="bold" font-size="14.00">French</text>
<text text-anchor="start" x="891" y="-139.8" font-family="Times New Roman,serif" font-size="14.00" fill="red">voi là</text>
<text text-anchor="start" x="883.5" y="-127.4" font-family="Times New Roman,serif" font-size="12.00">look there</text>
</g>
<!-- voirOF&#45;&gt;voilaF -->
<g id="edge33" class="edge">
<title>voirOF&#45;&gt;voilaF</title>
<path fill="none" stroke="black" d="M756.71,-218.98C763.31,-215.9 770.06,-212.82 776.5,-210 815.97,-192.73 828.77,-194.8 866.5,-174 866.8,-173.84 867.09,-173.67 867.39,-173.51"/>
<polygon fill="black" stroke="black" points="869.27,-176.46 875.99,-168.27 865.63,-170.48 869.27,-176.46"/>
</g>
<!-- voyeur -->
<g id="node28" class="node">
<title>voyeur</title>
<text text-anchor="start" x="680" y="-49.8" font-family="Times New Roman,serif" font-weight="bold" font-size="14.00">Modern</text>
<text text-anchor="start" x="681.5" y="-35.8" font-family="Times New Roman,serif" font-weight="bold" font-size="14.00">English</text>
<text text-anchor="start" x="685" y="-21.8" font-family="Times New Roman,serif" font-size="14.00" fill="red">voyeur</text>
</g>
<!-- voyeurOF&#45;&gt;voyeur -->
<g id="edge27" class="edge">
<title>voyeurOF&#45;&gt;voyeur</title>
<path fill="none" stroke="black" stroke-dasharray="5,2" d="M702.83,-125.99C703.1,-112.08 703.49,-91.95 703.83,-74.67"/>
<polygon fill="black" stroke="black" points="707.33,-74.42 704.03,-64.36 700.33,-74.29 707.33,-74.42"/>
</g>
<!-- keleIE -->
<g id="node29" class="node">
<title>keleIE</title>
<g id="a_node29"><a xlink:href="kele-shout.svg" xlink:title="&lt;b&gt;Indo&#45;&lt;br/&gt;European&lt;/b&gt;&lt;br/&gt;&lt;font color=&quot;red&quot;&gt;*kelə&#45;&lt;/font&gt;&lt;br/&gt;&lt;font point&#45;size=&quot;12&quot;&gt;to shout&lt;/font&gt;">
<path fill="none" stroke="black" stroke-dasharray="5,2" d="M842,-454C842,-454 789,-454 789,-454 783,-454 777,-448 777,-442 777,-442 777,-404 777,-404 777,-398 783,-392 789,-392 789,-392 842,-392 842,-392 848,-392 854,-398 854,-404 854,-404 854,-442 854,-442 854,-448 848,-454 842,-454"/>
<text text-anchor="start" x="799" y="-439.8" font-family="Times New Roman,serif" font-weight="bold" font-size="14.00">Indo&#45;</text>
<text text-anchor="start" x="785" y="-425.8" font-family="Times New Roman,serif" font-weight="bold" font-size="14.00">European</text>
<text text-anchor="start" x="798.5" y="-411.8" font-family="Times New Roman,serif" font-size="14.00" fill="red">*kelə&#45;</text>
<text text-anchor="start" x="797" y="-399.4" font-family="Times New Roman,serif" font-size="12.00">to shout</text>
</a>
</g>
</g>
<!-- clarusL -->
<g id="node30" class="node">
<title>clarusL</title>
<text text-anchor="start" x="799" y="-341.8" font-family="Times New Roman,serif" font-weight="bold" font-size="14.00">Latin</text>
<text text-anchor="start" x="798.5" y="-327.8" font-family="Times New Roman,serif" font-size="14.00" fill="red">clārus</text>
<text text-anchor="start" x="804.5" y="-315.4" font-family="Times New Roman,serif" font-size="12.00">clear</text>
</g>
<!-- keleIE&#45;&gt;clarusL -->
<g id="edge28" class="edge">
<title>keleIE&#45;&gt;clarusL</title>
<path fill="none" stroke="black" d="M815.5,-391.87C815.5,-383.64 815.5,-374.68 815.5,-366.29"/>
<polygon fill="black" stroke="black" points="819,-366.06 815.5,-356.06 812,-366.06 819,-366.06"/>
</g>
<!-- clairF -->
<g id="node31" class="node">
<title>clairF</title>
<text text-anchor="start" x="793.5" y="-244.8" font-family="Times New Roman,serif" font-weight="bold" font-size="14.00">French</text>
<text text-anchor="start" x="803.5" y="-230.8" font-family="Times New Roman,serif" font-size="14.00" fill="red">clair</text>
</g>
<!-- clarusL&#45;&gt;clairF -->
<g id="edge29" class="edge">
<title>clarusL&#45;&gt;clairF</title>
<path fill="none" stroke="black" d="M815.5,-307.62C815.5,-295.83 815.5,-281.46 815.5,-269.18"/>
<polygon fill="black" stroke="black" points="819,-269.04 815.5,-259.04 812,-269.04 819,-269.04"/>
</g>
<!-- clairF&#45;&gt;clairvoyantF -->
<g id="edge31" class="edge">
<title>clairF&#45;&gt;clairvoyantF</title>
<path fill="none" stroke="black" d="M815.5,-222.58C815.5,-210.25 815.5,-193.33 815.5,-178.44"/>
<polygon fill="black" stroke="black" points="819,-178.05 815.5,-168.05 812,-178.05 819,-178.05"/>
</g>
<!-- clairvoyant -->
<g id="node33" class="node">
<title>clairvoyant</title>
<text text-anchor="start" x="791" y="-49.8" font-family="Times New Roman,serif" font-weight="bold" font-size="14.00">Modern</text>
<text text-anchor="start" x="792.5" y="-35.8" font-family="Times New Roman,serif" font-weight="bold" font-size="14.00">English</text>
<text text-anchor="start" x="785" y="-21.8" font-family="Times New Roman,serif" font-size="14.00" fill="red">clairvoyant</text>
</g>
<!-- clairvoyantF&#45;&gt;clairvoyant -->
<g id="edge32" class="edge">
<title>clairvoyantF&#45;&gt;clairvoyant</title>
<path fill="none" stroke="black" stroke-dasharray="5,2" d="M815.5,-119.88C815.5,-106.52 815.5,-89.45 815.5,-74.52"/>
<polygon fill="black" stroke="black" points="819,-74.11 815.5,-64.11 812,-74.11 819,-74.11"/>
</g>
<!-- voila -->
<g id="node35" class="node">
<title>voila</title>
<text text-anchor="start" x="881" y="-49.8" font-family="Times New Roman,serif" font-weight="bold" font-size="14.00">Modern</text>
<text text-anchor="start" x="882.5" y="-35.8" font-family="Times New Roman,serif" font-weight="bold" font-size="14.00">English</text>
<text text-anchor="start" x="892" y="-21.8" font-family="Times New Roman,serif" font-size="14.00" fill="red">voilà</text>
</g>
<!-- voilaF&#45;&gt;voila -->
<g id="edge34" class="edge">
<title>voilaF&#45;&gt;voila</title>
<path fill="none" stroke="black" stroke-dasharray="5,2" d="M906.28,-119.88C906.15,-106.52 905.98,-89.45 905.84,-74.52"/>
<polygon fill="black" stroke="black" points="909.33,-74.08 905.73,-64.11 902.33,-74.15 909.33,-74.08"/>
</g>
<!-- vistaI -->
<g id="node37" class="node">
<title>vistaI</title>
<text text-anchor="start" x="974.5" y="-140.3" font-family="Times New Roman,serif" font-size="14.00" fill="red">vista</text>
</g>
<!-- vedereI&#45;&gt;vistaI -->
<g id="edge36" class="edge">
<title>vedereI&#45;&gt;vistaI</title>
<path fill="none" stroke="black" d="M987.5,-222.58C987.5,-208.65 987.5,-188.86 987.5,-172.76"/>
<polygon fill="black" stroke="black" points="991,-172.31 987.5,-162.31 984,-172.31 991,-172.31"/>
</g>
<!-- belvedereI -->
<g id="node42" class="node">
<title>belvedereI</title>
<text text-anchor="start" x="1046.5" y="-146.8" font-family="Times New Roman,serif" font-size="14.00" fill="red">bel vedere</text>
<text text-anchor="start" x="1040.5" y="-134.4" font-family="Times New Roman,serif" font-size="12.00">&quot;beautiful view&quot;</text>
</g>
<!-- vedereI&#45;&gt;belvedereI -->
<g id="edge40" class="edge">
<title>vedereI&#45;&gt;belvedereI</title>
<path fill="none" stroke="black" d="M1003.64,-222.58C1017.29,-207.84 1037,-186.56 1052.33,-170.01"/>
<polygon fill="black" stroke="black" points="1055.23,-172.03 1059.46,-162.31 1050.1,-167.27 1055.23,-172.03"/>
</g>
<!-- vista -->
<g id="node38" class="node">
<title>vista</title>
<text text-anchor="start" x="964" y="-49.8" font-family="Times New Roman,serif" font-weight="bold" font-size="14.00">Modern</text>
<text text-anchor="start" x="965.5" y="-35.8" font-family="Times New Roman,serif" font-weight="bold" font-size="14.00">English</text>
<text text-anchor="start" x="975.5" y="-21.8" font-family="Times New Roman,serif" font-size="14.00" fill="red">vista</text>
</g>
<!-- vistaI&#45;&gt;vista -->
<g id="edge37" class="edge">
<title>vistaI&#45;&gt;vista</title>
<path fill="none" stroke="black" stroke-dasharray="5,2" d="M987.67,-125.99C987.8,-112.08 988,-91.95 988.16,-74.67"/>
<polygon fill="black" stroke="black" points="991.67,-74.39 988.26,-64.36 984.67,-74.32 991.67,-74.39"/>
</g>
<!-- deuIE -->
<g id="node39" class="node">
<title>deuIE</title>
<g id="a_node39"><a xlink:href="deu-do.svg" xlink:title="&lt;b&gt;Indo&#45;&lt;br/&gt;European&lt;/b&gt;&lt;br/&gt;&lt;font color=&quot;red&quot;&gt;*deu&#45;&lt;/font&gt;&lt;br/&gt;&lt;font point&#45;size=&quot;12&quot;&gt;to do, revere&lt;/font&gt;">
<path fill="none" stroke="black" stroke-dasharray="5,2" d="M1102,-454C1102,-454 1049,-454 1049,-454 1043,-454 1037,-448 1037,-442 1037,-442 1037,-404 1037,-404 1037,-398 1043,-392 1049,-392 1049,-392 1102,-392 1102,-392 1108,-392 1114,-398 1114,-404 1114,-404 1114,-442 1114,-442 1114,-448 1108,-454 1102,-454"/>
<text text-anchor="start" x="1059" y="-439.8" font-family="Times New Roman,serif" font-weight="bold" font-size="14.00">Indo&#45;</text>
<text text-anchor="start" x="1045" y="-425.8" font-family="Times New Roman,serif" font-weight="bold" font-size="14.00">European</text>
<text text-anchor="start" x="1059.5" y="-411.8" font-family="Times New Roman,serif" font-size="14.00" fill="red">*deu&#45;</text>
<text text-anchor="start" x="1046" y="-399.4" font-family="Times New Roman,serif" font-size="12.00">to do, revere</text>
</a>
</g>
</g>
<!-- bellusL -->
<g id="node40" class="node">
<title>bellusL</title>
<text text-anchor="start" x="1059" y="-341.8" font-family="Times New Roman,serif" font-weight="bold" font-size="14.00">Latin</text>
<text text-anchor="start" x="1059" y="-327.8" font-family="Times New Roman,serif" font-size="14.00" fill="red">bellus</text>
<text text-anchor="start" x="1056.5" y="-315.4" font-family="Times New Roman,serif" font-size="12.00">beautiful</text>
</g>
<!-- deuIE&#45;&gt;bellusL -->
<g id="edge38" class="edge">
<title>deuIE&#45;&gt;bellusL</title>
<path fill="none" stroke="black" d="M1075.5,-391.87C1075.5,-383.64 1075.5,-374.68 1075.5,-366.29"/>
<polygon fill="black" stroke="black" points="1079,-366.06 1075.5,-356.06 1072,-366.06 1079,-366.06"/>
</g>
<!-- belI -->
<g id="node41" class="node">
<title>belI</title>
<text text-anchor="start" x="1055.5" y="-244.8" font-family="Times New Roman,serif" font-weight="bold" font-size="14.00">Italian</text>
<text text-anchor="start" x="1067" y="-230.8" font-family="Times New Roman,serif" font-size="14.00" fill="red">bel</text>
</g>
<!-- bellusL&#45;&gt;belI -->
<g id="edge39" class="edge">
<title>bellusL&#45;&gt;belI</title>
<path fill="none" stroke="black" d="M1075.5,-307.62C1075.5,-295.83 1075.5,-281.46 1075.5,-269.18"/>
<polygon fill="black" stroke="black" points="1079,-269.04 1075.5,-259.04 1072,-269.04 1079,-269.04"/>
</g>
<!-- belI&#45;&gt;belvedereI -->
<g id="edge41" class="edge">
<title>belI&#45;&gt;belvedereI</title>
<path fill="none" stroke="black" d="M1075.5,-222.58C1075.5,-208.65 1075.5,-188.86 1075.5,-172.76"/>
<polygon fill="black" stroke="black" points="1079,-172.31 1075.5,-162.31 1072,-172.31 1079,-172.31"/>
</g>
<!-- belvedere -->
<g id="node43" class="node">
<title>belvedere</title>
<text text-anchor="start" x="1051" y="-49.8" font-family="Times New Roman,serif" font-weight="bold" font-size="14.00">Modern</text>
<text text-anchor="start" x="1052.5" y="-35.8" font-family="Times New Roman,serif" font-weight="bold" font-size="14.00">English</text>
<text text-anchor="start" x="1048.5" y="-21.8" font-family="Times New Roman,serif" font-size="14.00" fill="red">belvedere</text>
</g>
<!-- belvedereI&#45;&gt;belvedere -->
<g id="edge42" class="edge">
<title>belvedereI&#45;&gt;belvedere</title>
<path fill="none" stroke="black" stroke-dasharray="5,2" d="M1075.5,-125.99C1075.5,-112.08 1075.5,-91.95 1075.5,-74.67"/>
<polygon fill="black" stroke="black" points="1079,-74.36 1075.5,-64.36 1072,-74.36 1079,-74.36"/>
</g>
</g>
</svg>
