<?xml version="1.0" encoding="UTF-8" standalone="no"?>
<!DOCTYPE svg PUBLIC "-//W3C//DTD SVG 1.1//EN"
 "http://www.w3.org/Graphics/SVG/1.1/DTD/svg11.dtd">
<!-- Generated by graphviz version 2.49.0 (20210828.1703)
 -->
<!-- Pages: 1 -->
<svg width="843pt" height="878pt"
 viewBox="0.00 0.00 842.50 878.00" xmlns="http://www.w3.org/2000/svg" xmlns:xlink="http://www.w3.org/1999/xlink">
<g id="graph0" class="graph" transform="scale(1 1) rotate(0) translate(4 874)">
<polygon fill="white" stroke="transparent" points="-4,4 -4,-874 838.5,-874 838.5,4 -4,4"/>
<!-- weidIE -->
<g id="node1" class="node">
<title>weidIE</title>
<g id="a_node1"><a xlink:href="weid-see0.svg" xlink:title="Indo&#45;European &quot;*weid&#45;&quot; to see">
<polygon fill="none" stroke="black" stroke-dasharray="5,2" points="476,-870 265,-870 265,-766 476,-766 476,-870"/>
<text text-anchor="start" x="292.5" y="-825.8" font-family="Times New Roman,serif" font-weight="bold" font-size="24.00">Indo&#45;European</text>
<text text-anchor="start" x="308" y="-797.6" font-family="Times New Roman,serif" font-size="18.00" fill="red">*weid&#45;</text>
<text text-anchor="start" x="397" y="-798.2" font-family="Times New Roman,serif" font-size="16.00">to see</text>
</a>
</g>
</g>
<!-- widIE -->
<g id="node2" class="node">
<title>widIE</title>
<text text-anchor="start" x="358" y="-695.3" font-family="Times New Roman,serif" font-size="14.00" fill="red">wid&#45;</text>
</g>
<!-- weidIE&#45;&gt;widIE -->
<g id="edge1" class="edge">
<title>weidIE&#45;&gt;widIE</title>
<path fill="none" stroke="black" d="M370.5,-765.68C370.5,-752.47 370.5,-738.76 370.5,-727.3"/>
<polygon fill="black" stroke="black" points="374,-727.1 370.5,-717.1 367,-727.1 374,-727.1"/>
</g>
<!-- witGmc -->
<g id="node3" class="node">
<title>witGmc</title>
<text text-anchor="start" x="543" y="-425.8" font-family="Times New Roman,serif" font-weight="bold" font-size="14.00">Germanic</text>
<text text-anchor="start" x="559.5" y="-411.8" font-family="Times New Roman,serif" font-size="14.00" fill="red">*wit&#45;</text>
</g>
<!-- widIE&#45;&gt;witGmc -->
<g id="edge2" class="edge">
<title>widIE&#45;&gt;witGmc</title>
<path fill="none" stroke="black" d="M394.14,-680.95C410.35,-668.53 431.69,-650.68 447.5,-632 497.8,-572.57 540.81,-490.76 561.08,-449.33"/>
<polygon fill="black" stroke="black" points="564.3,-450.71 565.51,-440.18 558,-447.66 564.3,-450.71"/>
</g>
<!-- windoIE -->
<g id="node15" class="node">
<title>windoIE</title>
<text text-anchor="start" x="633.5" y="-604.3" font-family="Times New Roman,serif" font-size="14.00" fill="red">*wi&#45;n&#45;d&#45;o&#45;</text>
</g>
<!-- widIE&#45;&gt;windoIE -->
<g id="edge14" class="edge">
<title>widIE&#45;&gt;windoIE</title>
<path fill="none" stroke="black" d="M397.54,-689.79C447.16,-674.71 553.36,-642.46 615.5,-623.58"/>
<polygon fill="black" stroke="black" points="616.53,-626.92 625.08,-620.67 614.5,-620.23 616.53,-626.92"/>
</g>
<!-- widC -->
<g id="node19" class="node">
<title>widC</title>
<text text-anchor="start" x="103" y="-617.8" font-family="Times New Roman,serif" font-weight="bold" font-size="14.00">Celtic</text>
<text text-anchor="start" x="105.5" y="-603.8" font-family="Times New Roman,serif" font-size="14.00" fill="red">*wid&#45;</text>
<text text-anchor="start" x="112" y="-591.4" font-family="Times New Roman,serif" font-size="12.00">seer</text>
</g>
<!-- widIE&#45;&gt;widC -->
<g id="edge18" class="edge">
<title>widIE&#45;&gt;widC</title>
<path fill="none" stroke="black" d="M343.27,-690.97C303.3,-680.28 226.75,-658.36 164.5,-632 162.41,-631.11 160.29,-630.16 158.16,-629.17"/>
<polygon fill="black" stroke="black" points="159.41,-625.88 148.9,-624.6 156.32,-632.16 159.41,-625.88"/>
</g>
<!-- wideIE -->
<g id="node24" class="node">
<title>wideIE</title>
<text text-anchor="start" x="182.5" y="-604.3" font-family="Times New Roman,serif" font-size="14.00" fill="red">wid&#45;ē&#45;</text>
</g>
<!-- widIE&#45;&gt;wideIE -->
<g id="edge23" class="edge">
<title>widIE&#45;&gt;wideIE</title>
<path fill="none" stroke="black" d="M343.35,-685.71C315.96,-673.06 272.65,-652.37 236.5,-632 236.1,-631.77 235.69,-631.54 235.28,-631.31"/>
<polygon fill="black" stroke="black" points="237.03,-628.27 226.64,-626.17 233.45,-634.29 237.03,-628.27"/>
</g>
<!-- widesyaIE -->
<g id="node28" class="node">
<title>widesyaIE</title>
<text text-anchor="start" x="254" y="-604.3" font-family="Times New Roman,serif" font-size="14.00" fill="red">wid&#45;es&#45;yā&#45;</text>
</g>
<!-- widIE&#45;&gt;widesyaIE -->
<g id="edge27" class="edge">
<title>widIE&#45;&gt;widesyaIE</title>
<path fill="none" stroke="black" d="M353.73,-680.84C340.61,-667.42 322.19,-648.58 307.51,-633.56"/>
<polygon fill="black" stroke="black" points="309.72,-630.81 300.22,-626.11 304.71,-635.71 309.72,-630.81"/>
</g>
<!-- widtorIE -->
<g id="node38" class="node">
<title>widtorIE</title>
<text text-anchor="start" x="347.5" y="-604.3" font-family="Times New Roman,serif" font-size="14.00" fill="red">wid&#45;tor&#45;</text>
</g>
<!-- widIE&#45;&gt;widtorIE -->
<g id="edge37" class="edge">
<title>widIE&#45;&gt;widtorIE</title>
<path fill="none" stroke="black" d="M370.5,-680.84C370.5,-668.28 370.5,-650.98 370.5,-636.5"/>
<polygon fill="black" stroke="black" points="374,-636.11 370.5,-626.11 367,-636.11 374,-636.11"/>
</g>
<!-- haidesGk -->
<g id="node45" class="node">
<title>haidesGk</title>
<text text-anchor="start" x="425.5" y="-159.8" font-family="Times New Roman,serif" font-weight="bold" font-size="14.00">Greek</text>
<text text-anchor="start" x="426" y="-145.8" font-family="Times New Roman,serif" font-size="14.00" fill="red">Haidēs</text>
<text text-anchor="start" x="414" y="-133.4" font-family="Times New Roman,serif" font-size="12.00">&quot;the invisible,&quot;</text>
<text text-anchor="start" x="411" y="-121.4" font-family="Times New Roman,serif" font-size="12.00">the underworld</text>
</g>
<!-- widIE&#45;&gt;haidesGk -->
<g id="edge44" class="edge">
<title>widIE&#45;&gt;haidesGk</title>
<path fill="none" stroke="black" d="M383.11,-680.93C392.02,-668.09 403.57,-649.72 410.5,-632 429.17,-584.27 433.5,-570.25 433.5,-519 433.5,-519 433.5,-519 433.5,-331 433.5,-280.27 438,-221.93 441.49,-184.31"/>
<polygon fill="black" stroke="black" points="444.98,-184.56 442.44,-174.28 438.01,-183.9 444.98,-184.56"/>
</g>
<!-- witOE -->
<g id="node4" class="node">
<title>witOE</title>
<text text-anchor="start" x="576" y="-341.8" font-family="Times New Roman,serif" font-weight="bold" font-size="14.00">Old English</text>
<text text-anchor="start" x="590" y="-327.8" font-family="Times New Roman,serif" font-size="14.00" fill="red">wit, witt</text>
<text text-anchor="start" x="588" y="-315.4" font-family="Times New Roman,serif" font-size="12.00">intelligence</text>
</g>
<!-- witGmc&#45;&gt;witOE -->
<g id="edge3" class="edge">
<title>witGmc&#45;&gt;witOE</title>
<path fill="none" stroke="black" d="M581.21,-403.61C586.02,-392.76 592.36,-378.44 598.08,-365.53"/>
<polygon fill="black" stroke="black" points="601.45,-366.58 602.3,-356.02 595.05,-363.74 601.45,-366.58"/>
</g>
<!-- witnessGmc -->
<g id="node7" class="node">
<title>witnessGmc</title>
<text text-anchor="start" x="683.5" y="-334.8" font-family="Times New Roman,serif" font-size="14.00" fill="red">*wit&#45;ness&#45;</text>
<text text-anchor="start" x="687.5" y="-322.4" font-family="Times New Roman,serif" font-size="12.00">knowledge</text>
</g>
<!-- witGmc&#45;&gt;witnessGmc -->
<g id="edge6" class="edge">
<title>witGmc&#45;&gt;witnessGmc</title>
<path fill="none" stroke="black" d="M600.63,-403.82C622.35,-390.07 652.99,-370.67 676.72,-355.65"/>
<polygon fill="black" stroke="black" points="678.86,-358.44 685.44,-350.13 675.12,-352.52 678.86,-358.44"/>
</g>
<!-- witanGmc -->
<g id="node11" class="node">
<title>witanGmc</title>
<text text-anchor="start" x="507.5" y="-328.3" font-family="Times New Roman,serif" font-size="14.00" fill="red">witan</text>
</g>
<!-- witGmc&#45;&gt;witanGmc -->
<g id="edge10" class="edge">
<title>witGmc&#45;&gt;witanGmc</title>
<path fill="none" stroke="black" d="M563.42,-403.61C556.04,-390.88 545.9,-373.37 537.56,-358.98"/>
<polygon fill="black" stroke="black" points="540.42,-356.95 532.38,-350.05 534.37,-360.46 540.42,-356.95"/>
</g>
<!-- witME -->
<g id="node5" class="node">
<title>witME</title>
<text text-anchor="start" x="596" y="-252.8" font-family="Times New Roman,serif" font-weight="bold" font-size="14.00">Middle</text>
<text text-anchor="start" x="594.5" y="-238.8" font-family="Times New Roman,serif" font-weight="bold" font-size="14.00">English</text>
<text text-anchor="start" x="609" y="-224.8" font-family="Times New Roman,serif" font-size="14.00" fill="red">wit</text>
</g>
<!-- witOE&#45;&gt;witME -->
<g id="edge4" class="edge">
<title>witOE&#45;&gt;witME</title>
<path fill="none" stroke="black" d="M613.81,-307.88C614.34,-298.58 614.96,-287.66 615.54,-277.47"/>
<polygon fill="black" stroke="black" points="619.05,-277.38 616.13,-267.2 612.06,-276.98 619.05,-277.38"/>
</g>
<!-- wit -->
<g id="node6" class="node">
<title>wit</title>
<text text-anchor="start" x="596" y="-54.8" font-family="Times New Roman,serif" font-weight="bold" font-size="14.00">Modern</text>
<text text-anchor="start" x="597.5" y="-40.8" font-family="Times New Roman,serif" font-weight="bold" font-size="14.00">English</text>
<text text-anchor="start" x="612" y="-26.8" font-family="Times New Roman,serif" font-size="14.00" fill="red">wit</text>
<text text-anchor="start" x="605.5" y="-14.4" font-family="Times New Roman,serif" font-size="12.00">(noun)</text>
</g>
<!-- witME&#45;&gt;wit -->
<g id="edge5" class="edge">
<title>witME&#45;&gt;wit</title>
<path fill="none" stroke="black" d="M617.86,-216.63C618.37,-182.56 619.29,-120.25 619.9,-79.23"/>
<polygon fill="black" stroke="black" points="623.4,-79.09 620.05,-69.04 616.41,-78.98 623.4,-79.09"/>
</g>
<!-- witnessOE -->
<g id="node8" class="node">
<title>witnessOE</title>
<text text-anchor="start" x="675" y="-251.8" font-family="Times New Roman,serif" font-weight="bold" font-size="14.00">Old English</text>
<text text-anchor="start" x="690.5" y="-237.8" font-family="Times New Roman,serif" font-size="14.00" fill="red">witness</text>
<text text-anchor="start" x="690" y="-225.4" font-family="Times New Roman,serif" font-size="12.00">testimony</text>
</g>
<!-- witnessGmc&#45;&gt;witnessOE -->
<g id="edge7" class="edge">
<title>witnessGmc&#45;&gt;witnessOE</title>
<path fill="none" stroke="black" d="M712.3,-313.61C712.18,-302.97 712.02,-289 711.88,-276.29"/>
<polygon fill="black" stroke="black" points="715.38,-275.98 711.76,-266.02 708.38,-276.06 715.38,-275.98"/>
</g>
<!-- witnesseME -->
<g id="node9" class="node">
<title>witnesseME</title>
<text text-anchor="start" x="687" y="-154.8" font-family="Times New Roman,serif" font-weight="bold" font-size="14.00">Middle</text>
<text text-anchor="start" x="685.5" y="-140.8" font-family="Times New Roman,serif" font-weight="bold" font-size="14.00">English</text>
<text text-anchor="start" x="684.5" y="-126.8" font-family="Times New Roman,serif" font-size="14.00" fill="red">witnesse</text>
</g>
<!-- witnessOE&#45;&gt;witnesseME -->
<g id="edge8" class="edge">
<title>witnessOE&#45;&gt;witnesseME</title>
<path fill="none" stroke="black" d="M710.77,-217.76C710.41,-206.23 709.97,-192.07 709.57,-179.32"/>
<polygon fill="black" stroke="black" points="713.06,-178.91 709.25,-169.03 706.07,-179.13 713.06,-178.91"/>
</g>
<!-- witness -->
<g id="node10" class="node">
<title>witness</title>
<text text-anchor="start" x="684" y="-48.8" font-family="Times New Roman,serif" font-weight="bold" font-size="14.00">Modern</text>
<text text-anchor="start" x="685.5" y="-34.8" font-family="Times New Roman,serif" font-weight="bold" font-size="14.00">English</text>
<text text-anchor="start" x="687.5" y="-20.8" font-family="Times New Roman,serif" font-size="14.00" fill="red">witness</text>
</g>
<!-- witnesseME&#45;&gt;witness -->
<g id="edge9" class="edge">
<title>witnesseME&#45;&gt;witness</title>
<path fill="none" stroke="black" d="M708.5,-118.88C708.5,-105.46 708.5,-88.51 708.5,-73.69"/>
<polygon fill="black" stroke="black" points="712,-73.35 708.5,-63.35 705,-73.35 712,-73.35"/>
</g>
<!-- witanOE -->
<g id="node12" class="node">
<title>witanOE</title>
<text text-anchor="start" x="486" y="-251.8" font-family="Times New Roman,serif" font-weight="bold" font-size="14.00">Old English</text>
<text text-anchor="start" x="507.5" y="-237.8" font-family="Times New Roman,serif" font-size="14.00" fill="red">witan</text>
<text text-anchor="start" x="503.5" y="-225.4" font-family="Times New Roman,serif" font-size="12.00">to know</text>
</g>
<!-- witanGmc&#45;&gt;witanOE -->
<g id="edge11" class="edge">
<title>witanGmc&#45;&gt;witanOE</title>
<path fill="none" stroke="black" d="M522.5,-313.61C522.5,-302.97 522.5,-289 522.5,-276.29"/>
<polygon fill="black" stroke="black" points="526,-276.02 522.5,-266.02 519,-276.02 526,-276.02"/>
</g>
<!-- wittenME -->
<g id="node13" class="node">
<title>wittenME</title>
<text text-anchor="start" x="518" y="-161.8" font-family="Times New Roman,serif" font-weight="bold" font-size="14.00">Middle</text>
<text text-anchor="start" x="516.5" y="-147.8" font-family="Times New Roman,serif" font-weight="bold" font-size="14.00">English</text>
<text text-anchor="start" x="522.5" y="-133.8" font-family="Times New Roman,serif" font-size="14.00" fill="red">witten</text>
<text text-anchor="start" x="514" y="-119.8" font-family="Times New Roman,serif" font-size="14.00" fill="red">unwitting</text>
</g>
<!-- witanOE&#45;&gt;wittenME -->
<g id="edge12" class="edge">
<title>witanOE&#45;&gt;wittenME</title>
<path fill="none" stroke="black" d="M526.62,-217.76C528.3,-208.26 530.3,-196.97 532.21,-186.16"/>
<polygon fill="black" stroke="black" points="535.71,-186.46 534.01,-176.01 528.82,-185.24 535.71,-186.46"/>
</g>
<!-- unwitting -->
<g id="node14" class="node">
<title>unwitting</title>
<text text-anchor="start" x="512" y="-61.8" font-family="Times New Roman,serif" font-weight="bold" font-size="14.00">Modern</text>
<text text-anchor="start" x="513.5" y="-47.8" font-family="Times New Roman,serif" font-weight="bold" font-size="14.00">English</text>
<text text-anchor="start" x="511" y="-33.8" font-family="Times New Roman,serif" font-size="14.00" fill="red">unwitting</text>
<text text-anchor="start" x="528" y="-19.8" font-family="Times New Roman,serif" font-size="14.00" fill="red">wit</text>
<text text-anchor="start" x="522.5" y="-7.4" font-family="Times New Roman,serif" font-size="12.00">(verb)</text>
</g>
<!-- wittenME&#45;&gt;unwitting -->
<g id="edge13" class="edge">
<title>wittenME&#45;&gt;unwitting</title>
<path fill="none" stroke="black" d="M538.6,-111.8C538.37,-103.71 538.11,-94.82 537.86,-86.12"/>
<polygon fill="black" stroke="black" points="541.36,-85.94 537.57,-76.05 534.36,-86.14 541.36,-85.94"/>
</g>
<!-- gwynW -->
<g id="node16" class="node">
<title>gwynW</title>
<text text-anchor="start" x="707" y="-533.8" font-family="Times New Roman,serif" font-weight="bold" font-size="14.00">Welsh</text>
<text text-anchor="start" x="711" y="-519.8" font-family="Times New Roman,serif" font-size="14.00" fill="red">gwyn</text>
<text text-anchor="start" x="696" y="-507.4" font-family="Times New Roman,serif" font-size="12.00">white (clearly</text>
<text text-anchor="start" x="710.5" y="-495.4" font-family="Times New Roman,serif" font-size="12.00">visible)</text>
</g>
<!-- windoIE&#45;&gt;gwynW -->
<g id="edge15" class="edge">
<title>windoIE&#45;&gt;gwynW</title>
<path fill="none" stroke="black" d="M675.95,-589.61C682.76,-580.1 691.47,-567.93 699.74,-556.38"/>
<polygon fill="black" stroke="black" points="702.67,-558.3 705.64,-548.13 696.98,-554.22 702.67,-558.3"/>
</g>
<!-- pengwynW -->
<g id="node17" class="node">
<title>pengwynW</title>
<text text-anchor="start" x="769" y="-152.8" font-family="Times New Roman,serif" font-size="14.00" fill="red">pen gwyn</text>
<text text-anchor="start" x="766.5" y="-140.4" font-family="Times New Roman,serif" font-size="12.00">&quot;white head,&quot;</text>
<text text-anchor="start" x="775" y="-128.4" font-family="Times New Roman,serif" font-size="12.00">great auk</text>
</g>
<!-- gwynW&#45;&gt;pengwynW -->
<g id="edge16" class="edge">
<title>gwynW&#45;&gt;pengwynW</title>
<path fill="none" stroke="black" d="M732.44,-487.95C738.99,-455.73 749.75,-402.2 758.5,-356 770.48,-292.75 783.62,-218.66 790.88,-177.24"/>
<polygon fill="black" stroke="black" points="794.36,-177.65 792.64,-167.2 787.47,-176.45 794.36,-177.65"/>
</g>
<!-- penguin -->
<g id="node18" class="node">
<title>penguin</title>
<text text-anchor="start" x="772" y="-48.8" font-family="Times New Roman,serif" font-weight="bold" font-size="14.00">Modern</text>
<text text-anchor="start" x="773.5" y="-34.8" font-family="Times New Roman,serif" font-weight="bold" font-size="14.00">English</text>
<text text-anchor="start" x="774.5" y="-20.8" font-family="Times New Roman,serif" font-size="14.00" fill="red">penguin</text>
</g>
<!-- pengwynW&#45;&gt;penguin -->
<g id="edge17" class="edge">
<title>pengwynW&#45;&gt;penguin</title>
<path fill="none" stroke="black" stroke-dasharray="5,2" d="M796.5,-120.94C796.5,-107.19 796.5,-89.18 796.5,-73.56"/>
<polygon fill="black" stroke="black" points="800,-73.2 796.5,-63.2 793,-73.2 800,-73.2"/>
</g>
<!-- druwidC -->
<g id="node21" class="node">
<title>druwidC</title>
<text text-anchor="start" x="24" y="-520.8" font-family="Times New Roman,serif" font-size="14.00" fill="red">*dru&#45;wid&#45;</text>
<text text-anchor="start" x="26.5" y="-508.4" font-family="Times New Roman,serif" font-size="12.00">strong seer</text>
</g>
<!-- widC&#45;&gt;druwidC -->
<g id="edge19" class="edge">
<title>widC&#45;&gt;druwidC</title>
<path fill="none" stroke="black" d="M103.11,-583.88C93.43,-571.71 81.55,-556.78 71.63,-544.31"/>
<polygon fill="black" stroke="black" points="74.09,-541.77 65.12,-536.13 68.61,-546.13 74.09,-541.77"/>
</g>
<!-- deruIE -->
<g id="node20" class="node">
<title>deruIE</title>
<g id="a_node20"><a xlink:href="deru-firm.svg" xlink:title="&lt;b&gt;Indo&#45;&lt;br/&gt;European&lt;/b&gt;&lt;br/&gt;&lt;font color=&quot;red&quot;&gt;*deru&#45;, *dreu&#45;&lt;/font&gt;&lt;br/&gt;&lt;font point&#45;size=&quot;12&quot;&gt;to be solid&lt;/font&gt;">
<path fill="none" stroke="black" stroke-dasharray="5,2" d="M87.5,-730C87.5,-730 15.5,-730 15.5,-730 9.5,-730 3.5,-724 3.5,-718 3.5,-718 3.5,-680 3.5,-680 3.5,-674 9.5,-668 15.5,-668 15.5,-668 87.5,-668 87.5,-668 93.5,-668 99.5,-674 99.5,-680 99.5,-680 99.5,-718 99.5,-718 99.5,-724 93.5,-730 87.5,-730"/>
<text text-anchor="start" x="35" y="-715.8" font-family="Times New Roman,serif" font-weight="bold" font-size="14.00">Indo&#45;</text>
<text text-anchor="start" x="21" y="-701.8" font-family="Times New Roman,serif" font-weight="bold" font-size="14.00">European</text>
<text text-anchor="start" x="11.5" y="-687.8" font-family="Times New Roman,serif" font-size="14.00" fill="red">*deru&#45;, *dreu&#45;</text>
<text text-anchor="start" x="27.5" y="-675.4" font-family="Times New Roman,serif" font-size="12.00">to be solid</text>
</a>
</g>
</g>
<!-- deruIE&#45;&gt;druwidC -->
<g id="edge20" class="edge">
<title>deruIE&#45;&gt;druwidC</title>
<path fill="none" stroke="black" d="M51.5,-667.64C51.5,-633.76 51.5,-579.43 51.5,-546.68"/>
<polygon fill="black" stroke="black" points="55,-546.47 51.5,-536.47 48,-546.47 55,-546.47"/>
</g>
<!-- druidesL -->
<g id="node22" class="node">
<title>druidesL</title>
<text text-anchor="start" x="27" y="-425.8" font-family="Times New Roman,serif" font-weight="bold" font-size="14.00">Latin</text>
<text text-anchor="start" x="22.5" y="-411.8" font-family="Times New Roman,serif" font-size="14.00" fill="red">druidēs</text>
</g>
<!-- druwidC&#45;&gt;druidesL -->
<g id="edge21" class="edge">
<title>druwidC&#45;&gt;druidesL</title>
<path fill="none" stroke="black" stroke-dasharray="5,2" d="M50.03,-499.76C48.86,-485.98 47.19,-466.4 45.84,-450.47"/>
<polygon fill="black" stroke="black" points="49.29,-449.8 44.96,-440.13 42.32,-450.39 49.29,-449.8"/>
</g>
<!-- druid -->
<g id="node23" class="node">
<title>druid</title>
<text text-anchor="start" x="8" y="-48.8" font-family="Times New Roman,serif" font-weight="bold" font-size="14.00">Modern</text>
<text text-anchor="start" x="9.5" y="-34.8" font-family="Times New Roman,serif" font-weight="bold" font-size="14.00">English</text>
<text text-anchor="start" x="16.5" y="-20.8" font-family="Times New Roman,serif" font-size="14.00" fill="red">Druid</text>
</g>
<!-- druidesL&#45;&gt;druid -->
<g id="edge22" class="edge">
<title>druidesL&#45;&gt;druid</title>
<path fill="none" stroke="black" stroke-dasharray="5,2" d="M43,-403.59C41.3,-344.77 35.77,-152.63 33.49,-73.51"/>
<polygon fill="black" stroke="black" points="36.98,-73.02 33.19,-63.13 29.98,-73.22 36.98,-73.02"/>
</g>
<!-- videreL -->
<g id="node25" class="node">
<title>videreL</title>
<text text-anchor="start" x="184" y="-521.8" font-family="Times New Roman,serif" font-weight="bold" font-size="14.00">Latin</text>
<text text-anchor="start" x="183.5" y="-507.8" font-family="Times New Roman,serif" font-size="14.00" fill="red">vidēre</text>
</g>
<!-- wideIE&#45;&gt;videreL -->
<g id="edge24" class="edge">
<title>wideIE&#45;&gt;videreL</title>
<path fill="none" stroke="black" d="M200.5,-589.61C200.5,-577.24 200.5,-560.37 200.5,-546.22"/>
<polygon fill="black" stroke="black" points="204,-546.05 200.5,-536.05 197,-546.05 204,-546.05"/>
</g>
<!-- p1 -->
<g id="node26" class="node">
<title>p1</title>
<g id="a_node26"><a xlink:href="weid-see3.svg" xlink:title="p1">
<path fill="none" stroke="black" stroke-dasharray="5,2" d="M143.5,-440C143.5,-440 113.5,-440 113.5,-440 107.5,-440 101.5,-434 101.5,-428 101.5,-428 101.5,-416 101.5,-416 101.5,-410 107.5,-404 113.5,-404 113.5,-404 143.5,-404 143.5,-404 149.5,-404 155.5,-410 155.5,-416 155.5,-416 155.5,-428 155.5,-428 155.5,-434 149.5,-440 143.5,-440"/>
<text text-anchor="middle" x="128.5" y="-418.3" font-family="Times New Roman,serif" font-size="14.00">p1</text>
</a>
</g>
</g>
<!-- videreL&#45;&gt;p1 -->
<g id="edge25" class="edge">
<title>videreL&#45;&gt;p1</title>
<path fill="none" stroke="black" d="M187.29,-499.76C176.23,-485.32 160.29,-464.5 147.8,-448.19"/>
<polygon fill="black" stroke="black" points="150.48,-445.94 141.62,-440.13 144.92,-450.2 150.48,-445.94"/>
</g>
<!-- p2 -->
<g id="node27" class="node">
<title>p2</title>
<g id="a_node27"><a xlink:href="weid-see4.svg" xlink:title="p2">
<path fill="none" stroke="black" stroke-dasharray="5,2" d="M215.5,-440C215.5,-440 185.5,-440 185.5,-440 179.5,-440 173.5,-434 173.5,-428 173.5,-428 173.5,-416 173.5,-416 173.5,-410 179.5,-404 185.5,-404 185.5,-404 215.5,-404 215.5,-404 221.5,-404 227.5,-410 227.5,-416 227.5,-416 227.5,-428 227.5,-428 227.5,-434 221.5,-440 215.5,-440"/>
<text text-anchor="middle" x="200.5" y="-418.3" font-family="Times New Roman,serif" font-size="14.00">p2</text>
</a>
</g>
</g>
<!-- videreL&#45;&gt;p2 -->
<g id="edge26" class="edge">
<title>videreL&#45;&gt;p2</title>
<path fill="none" stroke="black" d="M200.5,-499.76C200.5,-485.98 200.5,-466.4 200.5,-450.47"/>
<polygon fill="black" stroke="black" points="204,-450.13 200.5,-440.13 197,-450.13 204,-450.13"/>
</g>
<!-- ideaGk -->
<g id="node29" class="node">
<title>ideaGk</title>
<text text-anchor="start" x="261.5" y="-437.8" font-family="Times New Roman,serif" font-weight="bold" font-size="14.00">Greek</text>
<text text-anchor="start" x="270" y="-423.8" font-family="Times New Roman,serif" font-size="14.00" fill="red">ideā</text>
<text text-anchor="start" x="253.5" y="-411.4" font-family="Times New Roman,serif" font-size="12.00">appearance,</text>
<text text-anchor="start" x="258.5" y="-399.4" font-family="Times New Roman,serif" font-size="12.00">form, idea</text>
</g>
<!-- widesyaIE&#45;&gt;ideaGk -->
<g id="edge28" class="edge">
<title>widesyaIE&#45;&gt;ideaGk</title>
<path fill="none" stroke="black" d="M283.31,-589.69C283,-560.7 282.35,-501.64 281.93,-462.18"/>
<polygon fill="black" stroke="black" points="285.42,-462.07 281.82,-452.11 278.43,-462.14 285.42,-462.07"/>
</g>
<!-- ideaL -->
<g id="node30" class="node">
<title>ideaL</title>
<text text-anchor="start" x="188" y="-335.8" font-family="Times New Roman,serif" font-weight="bold" font-size="14.00">Latin</text>
<text text-anchor="start" x="193" y="-321.8" font-family="Times New Roman,serif" font-size="14.00" fill="red">idea</text>
</g>
<!-- ideaGk&#45;&gt;ideaL -->
<g id="edge29" class="edge">
<title>ideaGk&#45;&gt;ideaL</title>
<path fill="none" stroke="black" stroke-dasharray="5,2" d="M255.86,-391.7C246.24,-380.7 235.41,-368.32 226.18,-357.77"/>
<polygon fill="black" stroke="black" points="228.7,-355.34 219.48,-350.12 223.43,-359.95 228.7,-355.34"/>
</g>
<!-- ideoF -->
<g id="node36" class="node">
<title>ideoF</title>
<text text-anchor="start" x="259.5" y="-335.8" font-family="Times New Roman,serif" font-weight="bold" font-size="14.00">French</text>
<text text-anchor="start" x="267" y="-321.8" font-family="Times New Roman,serif" font-size="14.00" fill="red">idéo&#45;</text>
</g>
<!-- ideaGk&#45;&gt;ideoF -->
<g id="edge35" class="edge">
<title>ideaGk&#45;&gt;ideoF</title>
<path fill="none" stroke="black" stroke-dasharray="5,2" d="M281.5,-391.7C281.5,-381.56 281.5,-370.25 281.5,-360.29"/>
<polygon fill="black" stroke="black" points="285,-360.12 281.5,-350.12 278,-360.12 285,-360.12"/>
</g>
<!-- ideaME -->
<g id="node31" class="node">
<title>ideaME</title>
<text text-anchor="start" x="94" y="-252.8" font-family="Times New Roman,serif" font-weight="bold" font-size="14.00">Middle</text>
<text text-anchor="start" x="92.5" y="-238.8" font-family="Times New Roman,serif" font-weight="bold" font-size="14.00">English</text>
<text text-anchor="start" x="104" y="-224.8" font-family="Times New Roman,serif" font-size="14.00" fill="red">idea</text>
</g>
<!-- ideaL&#45;&gt;ideaME -->
<g id="edge30" class="edge">
<title>ideaL&#45;&gt;ideaME</title>
<path fill="none" stroke="black" stroke-dasharray="5,2" d="M186.92,-313.61C175.55,-302.37 160.42,-287.42 147.02,-274.16"/>
<polygon fill="black" stroke="black" points="149.36,-271.55 139.78,-267.01 144.43,-276.53 149.36,-271.55"/>
</g>
<!-- idealisL -->
<g id="node33" class="node">
<title>idealisL</title>
<text text-anchor="start" x="172.5" y="-257.8" font-family="Times New Roman,serif" font-weight="bold" font-size="14.00">Late Latin</text>
<text text-anchor="start" x="187" y="-243.8" font-family="Times New Roman,serif" font-size="14.00" fill="red">ideālis</text>
<text text-anchor="start" x="185" y="-231.4" font-family="Times New Roman,serif" font-size="12.00">of divine</text>
<text text-anchor="start" x="180" y="-219.4" font-family="Times New Roman,serif" font-size="12.00">archetypes</text>
</g>
<!-- ideaL&#45;&gt;idealisL -->
<g id="edge32" class="edge">
<title>ideaL&#45;&gt;idealisL</title>
<path fill="none" stroke="black" d="M204.5,-313.61C204.5,-304.66 204.5,-293.34 204.5,-282.41"/>
<polygon fill="black" stroke="black" points="208,-282.13 204.5,-272.13 201,-282.13 208,-282.13"/>
</g>
<!-- idea -->
<g id="node32" class="node">
<title>idea</title>
<text text-anchor="start" x="91" y="-48.8" font-family="Times New Roman,serif" font-weight="bold" font-size="14.00">Modern</text>
<text text-anchor="start" x="92.5" y="-34.8" font-family="Times New Roman,serif" font-weight="bold" font-size="14.00">English</text>
<text text-anchor="start" x="104" y="-20.8" font-family="Times New Roman,serif" font-size="14.00" fill="red">idea</text>
</g>
<!-- ideaME&#45;&gt;idea -->
<g id="edge31" class="edge">
<title>ideaME&#45;&gt;idea</title>
<path fill="none" stroke="black" d="M115.5,-216.63C115.5,-180.9 115.5,-114.11 115.5,-73.39"/>
<polygon fill="black" stroke="black" points="119,-73.14 115.5,-63.14 112,-73.14 119,-73.14"/>
</g>
<!-- idealME -->
<g id="node34" class="node">
<title>idealME</title>
<text text-anchor="start" x="180" y="-154.8" font-family="Times New Roman,serif" font-weight="bold" font-size="14.00">Middle</text>
<text text-anchor="start" x="178.5" y="-140.8" font-family="Times New Roman,serif" font-weight="bold" font-size="14.00">English</text>
<text text-anchor="start" x="188.5" y="-126.8" font-family="Times New Roman,serif" font-size="14.00" fill="red">ideal</text>
</g>
<!-- idealisL&#45;&gt;idealME -->
<g id="edge33" class="edge">
<title>idealisL&#45;&gt;idealME</title>
<path fill="none" stroke="black" stroke-dasharray="5,2" d="M203.59,-211.94C203.27,-201.67 202.91,-190.03 202.57,-179.37"/>
<polygon fill="black" stroke="black" points="206.06,-179.01 202.25,-169.12 199.07,-179.22 206.06,-179.01"/>
</g>
<!-- ideal -->
<g id="node35" class="node">
<title>ideal</title>
<text text-anchor="start" x="174" y="-48.8" font-family="Times New Roman,serif" font-weight="bold" font-size="14.00">Modern</text>
<text text-anchor="start" x="175.5" y="-34.8" font-family="Times New Roman,serif" font-weight="bold" font-size="14.00">English</text>
<text text-anchor="start" x="185.5" y="-20.8" font-family="Times New Roman,serif" font-size="14.00" fill="red">ideal</text>
</g>
<!-- idealME&#45;&gt;ideal -->
<g id="edge34" class="edge">
<title>idealME&#45;&gt;ideal</title>
<path fill="none" stroke="black" d="M200.8,-118.88C200.42,-105.46 199.93,-88.51 199.5,-73.69"/>
<polygon fill="black" stroke="black" points="202.99,-73.25 199.2,-63.35 195.99,-73.45 202.99,-73.25"/>
</g>
<!-- ideo -->
<g id="node37" class="node">
<title>ideo</title>
<text text-anchor="start" x="257" y="-48.8" font-family="Times New Roman,serif" font-weight="bold" font-size="14.00">Modern</text>
<text text-anchor="start" x="258.5" y="-34.8" font-family="Times New Roman,serif" font-weight="bold" font-size="14.00">English</text>
<text text-anchor="start" x="267" y="-20.8" font-family="Times New Roman,serif" font-size="14.00" fill="red">ideo&#45;</text>
</g>
<!-- ideoF&#45;&gt;ideo -->
<g id="edge36" class="edge">
<title>ideoF&#45;&gt;ideo</title>
<path fill="none" stroke="black" stroke-dasharray="5,2" d="M281.5,-313.61C281.5,-266.49 281.5,-135.71 281.5,-73.17"/>
<polygon fill="black" stroke="black" points="285,-73.03 281.5,-63.03 278,-73.03 285,-73.03"/>
</g>
<!-- historGk -->
<g id="node39" class="node">
<title>historGk</title>
<text text-anchor="start" x="349.5" y="-527.8" font-family="Times New Roman,serif" font-weight="bold" font-size="14.00">Greek</text>
<text text-anchor="start" x="353.5" y="-513.8" font-family="Times New Roman,serif" font-size="14.00" fill="red">histōr</text>
<text text-anchor="start" x="352.5" y="-501.4" font-family="Times New Roman,serif" font-size="12.00">learned</text>
</g>
<!-- widtorIE&#45;&gt;historGk -->
<g id="edge38" class="edge">
<title>widtorIE&#45;&gt;historGk</title>
<path fill="none" stroke="black" d="M370.3,-589.61C370.18,-578.97 370.02,-565 369.88,-552.29"/>
<polygon fill="black" stroke="black" points="373.38,-551.98 369.76,-542.02 366.38,-552.06 373.38,-551.98"/>
</g>
<!-- historiaGk -->
<g id="node40" class="node">
<title>historiaGk</title>
<text text-anchor="start" x="344.5" y="-431.8" font-family="Times New Roman,serif" font-size="14.00" fill="red">historein</text>
<text text-anchor="start" x="347" y="-419.4" font-family="Times New Roman,serif" font-size="12.00">to inquire</text>
<text text-anchor="start" x="348" y="-405.8" font-family="Times New Roman,serif" font-size="14.00" fill="red">historiā</text>
</g>
<!-- historGk&#45;&gt;historiaGk -->
<g id="edge39" class="edge">
<title>historGk&#45;&gt;historiaGk</title>
<path fill="none" stroke="black" d="M369.25,-493.76C369.13,-482.58 368.99,-468.96 368.86,-456.66"/>
<polygon fill="black" stroke="black" points="372.35,-456.26 368.75,-446.29 365.35,-456.33 372.35,-456.26"/>
</g>
<!-- historiaL -->
<g id="node41" class="node">
<title>historiaL</title>
<text text-anchor="start" x="349" y="-335.8" font-family="Times New Roman,serif" font-weight="bold" font-size="14.00">Latin</text>
<text text-anchor="start" x="345" y="-321.8" font-family="Times New Roman,serif" font-size="14.00" fill="red">historia</text>
</g>
<!-- historiaGk&#45;&gt;historiaL -->
<g id="edge40" class="edge">
<title>historiaGk&#45;&gt;historiaL</title>
<path fill="none" stroke="black" stroke-dasharray="5,2" d="M367.71,-397.88C367.32,-386.42 366.85,-372.49 366.44,-360.49"/>
<polygon fill="black" stroke="black" points="369.92,-360 366.08,-350.13 362.93,-360.24 369.92,-360"/>
</g>
<!-- histoireOF -->
<g id="node42" class="node">
<title>histoireOF</title>
<text text-anchor="start" x="327.5" y="-252.8" font-family="Times New Roman,serif" font-weight="bold" font-size="14.00">Old French</text>
<text text-anchor="start" x="342" y="-238.8" font-family="Times New Roman,serif" font-size="14.00" fill="red">histoire</text>
<text text-anchor="start" x="344" y="-224.8" font-family="Times New Roman,serif" font-size="14.00" fill="red">estoire</text>
</g>
<!-- historiaL&#45;&gt;histoireOF -->
<g id="edge41" class="edge">
<title>historiaL&#45;&gt;histoireOF</title>
<path fill="none" stroke="black" d="M364.91,-313.61C364.55,-303.2 364.09,-289.61 363.66,-277.14"/>
<polygon fill="black" stroke="black" points="367.16,-276.89 363.32,-267.01 360.16,-277.13 367.16,-276.89"/>
</g>
<!-- histoireME -->
<g id="node43" class="node">
<title>histoireME</title>
<text text-anchor="start" x="332" y="-161.8" font-family="Times New Roman,serif" font-weight="bold" font-size="14.00">Middle</text>
<text text-anchor="start" x="330.5" y="-147.8" font-family="Times New Roman,serif" font-weight="bold" font-size="14.00">English</text>
<text text-anchor="start" x="333" y="-133.8" font-family="Times New Roman,serif" font-size="14.00" fill="red">histoire</text>
<text text-anchor="start" x="338" y="-119.8" font-family="Times New Roman,serif" font-size="14.00" fill="red">storie</text>
</g>
<!-- histoireOF&#45;&gt;histoireME -->
<g id="edge42" class="edge">
<title>histoireOF&#45;&gt;histoireME</title>
<path fill="none" stroke="black" stroke-dasharray="5,2" d="M360.23,-216.78C359.36,-207.53 358.35,-196.7 357.37,-186.31"/>
<polygon fill="black" stroke="black" points="360.84,-185.76 356.42,-176.13 353.87,-186.41 360.84,-185.76"/>
</g>
<!-- history -->
<g id="node44" class="node">
<title>history</title>
<text text-anchor="start" x="340" y="-55.8" font-family="Times New Roman,serif" font-weight="bold" font-size="14.00">Modern</text>
<text text-anchor="start" x="341.5" y="-41.8" font-family="Times New Roman,serif" font-weight="bold" font-size="14.00">English</text>
<text text-anchor="start" x="345" y="-27.8" font-family="Times New Roman,serif" font-size="14.00" fill="red">history</text>
<text text-anchor="start" x="350" y="-13.8" font-family="Times New Roman,serif" font-size="14.00" fill="red">story</text>
</g>
<!-- histoireME&#45;&gt;history -->
<g id="edge43" class="edge">
<title>histoireME&#45;&gt;history</title>
<path fill="none" stroke="black" d="M356.8,-111.8C357.84,-101.92 359.02,-90.85 360.12,-80.38"/>
<polygon fill="black" stroke="black" points="363.63,-80.49 361.2,-70.18 356.67,-79.76 363.63,-80.49"/>
</g>
<!-- hades -->
<g id="node46" class="node">
<title>hades</title>
<text text-anchor="start" x="423" y="-48.8" font-family="Times New Roman,serif" font-weight="bold" font-size="14.00">Modern</text>
<text text-anchor="start" x="424.5" y="-34.8" font-family="Times New Roman,serif" font-weight="bold" font-size="14.00">English</text>
<text text-anchor="start" x="429.5" y="-20.8" font-family="Times New Roman,serif" font-size="14.00" fill="red">Hades</text>
</g>
<!-- haidesGk&#45;&gt;hades -->
<g id="edge45" class="edge">
<title>haidesGk&#45;&gt;hades</title>
<path fill="none" stroke="black" stroke-dasharray="5,2" d="M446.06,-113.75C446.3,-101.14 446.59,-86.31 446.84,-73.19"/>
<polygon fill="black" stroke="black" points="450.34,-73.19 447.04,-63.12 443.34,-73.05 450.34,-73.19"/>
</g>
</g>
</svg>
