<?xml version="1.0" encoding="UTF-8" standalone="no"?>
<!DOCTYPE svg PUBLIC "-//W3C//DTD SVG 1.1//EN"
 "http://www.w3.org/Graphics/SVG/1.1/DTD/svg11.dtd">
<!-- Generated by graphviz version 2.49.0 (20210828.1703)
 -->
<!-- Pages: 1 -->
<svg width="227pt" height="194pt"
 viewBox="0.00 0.00 227.00 194.00" xmlns="http://www.w3.org/2000/svg" xmlns:xlink="http://www.w3.org/1999/xlink">
<g id="graph0" class="graph" transform="scale(1 1) rotate(0) translate(4 190)">
<polygon fill="white" stroke="transparent" points="-4,4 -4,-190 223,-190 223,4 -4,4"/>
<!-- weidIE -->
<g id="node1" class="node">
<title>weidIE</title>
<g id="a_node1"><a xlink:title="Indo&#45;European &quot;*weid&#45;&quot; to see">
<polygon fill="none" stroke="black" points="215,-182 4,-182 4,-78 215,-78 215,-182"/>
<polygon fill="none" stroke="black" points="219,-186 0,-186 0,-74 219,-74 219,-186"/>
<text text-anchor="start" x="31.5" y="-137.8" font-family="Times New Roman,serif" font-weight="bold" font-size="24.00">Indo&#45;European</text>
<text text-anchor="start" x="47" y="-109.6" font-family="Times New Roman,serif" font-size="18.00" fill="red">*weid&#45;</text>
<text text-anchor="start" x="136" y="-110.2" font-family="Times New Roman,serif" font-size="16.00">to see</text>
</a>
</g>
</g>
<!-- base -->
<g id="node2" class="node">
<title>base</title>
<g id="a_node2"><a xlink:href="weid-see1.svg" xlink:title="base and suffixed forms">
<path fill="none" stroke="black" stroke-dasharray="5,2" d="M99.5,-38C99.5,-38 25.5,-38 25.5,-38 19.5,-38 13.5,-32 13.5,-26 13.5,-26 13.5,-12 13.5,-12 13.5,-6 19.5,0 25.5,0 25.5,0 99.5,0 99.5,0 105.5,0 111.5,-6 111.5,-12 111.5,-12 111.5,-26 111.5,-26 111.5,-32 105.5,-38 99.5,-38"/>
<text text-anchor="start" x="37.5" y="-22.8" font-family="Times New Roman,serif" font-size="14.00">base and</text>
<text text-anchor="start" x="21.5" y="-7.8" font-family="Times New Roman,serif" font-size="14.00">suffixed forms</text>
</a>
</g>
</g>
<!-- weidIE&#45;&gt;base -->
<g id="edge1" class="edge">
<title>weidIE&#45;&gt;base</title>
<path fill="none" stroke="black" d="M85.72,-73.86C81.77,-64.7 77.84,-55.57 74.35,-47.49"/>
<polygon fill="black" stroke="black" points="77.54,-46.03 70.36,-38.23 71.11,-48.8 77.54,-46.03"/>
</g>
<!-- wid -->
<g id="node3" class="node">
<title>wid</title>
<g id="a_node3"><a xlink:href="weid-see2.svg" xlink:title="wid&#45;">
<path fill="none" stroke="black" stroke-dasharray="5,2" d="M171.5,-37C171.5,-37 141.5,-37 141.5,-37 135.5,-37 129.5,-31 129.5,-25 129.5,-25 129.5,-13 129.5,-13 129.5,-7 135.5,-1 141.5,-1 141.5,-1 171.5,-1 171.5,-1 177.5,-1 183.5,-7 183.5,-13 183.5,-13 183.5,-25 183.5,-25 183.5,-31 177.5,-37 171.5,-37"/>
<text text-anchor="start" x="144" y="-15.3" font-family="Times New Roman,serif" font-size="14.00" fill="red">wid&#45;</text>
</a>
</g>
</g>
<!-- weidIE&#45;&gt;wid -->
<g id="edge2" class="edge">
<title>weidIE&#45;&gt;wid</title>
<path fill="none" stroke="black" d="M133.28,-73.86C137.35,-64.4 141.42,-54.97 144.99,-46.7"/>
<polygon fill="black" stroke="black" points="148.31,-47.84 149.05,-37.27 141.88,-45.06 148.31,-47.84"/>
</g>
</g>
</svg>
