<?xml version="1.0" encoding="UTF-8" standalone="no"?>
<!DOCTYPE svg PUBLIC "-//W3C//DTD SVG 1.1//EN"
 "http://www.w3.org/Graphics/SVG/1.1/DTD/svg11.dtd">
<!-- Generated by graphviz version 2.49.0 (20210828.1703)
 -->
<!-- Pages: 1 -->
<svg width="933pt" height="783pt"
 viewBox="0.00 0.00 933.00 783.00" xmlns="http://www.w3.org/2000/svg" xmlns:xlink="http://www.w3.org/1999/xlink">
<g id="graph0" class="graph" transform="scale(1 1) rotate(0) translate(4 779)">
<polygon fill="white" stroke="transparent" points="-4,4 -4,-779 929,-779 929,4 -4,4"/>
<!-- wesperoIE -->
<g id="node1" class="node">
<title>wesperoIE</title>
<g id="a_node1"><a xlink:title="Indo&#45;European &quot;*wes&#45;pero&#45;&quot; evening, night">
<polygon fill="none" stroke="black" points="620.5,-771 392.5,-771 392.5,-667 620.5,-667 620.5,-771"/>
<polygon fill="none" stroke="black" points="624.5,-775 388.5,-775 388.5,-663 624.5,-663 624.5,-775"/>
<text text-anchor="start" x="428" y="-726.8" font-family="Times New Roman,serif" font-weight="bold" font-size="24.00">Indo&#45;European</text>
<text text-anchor="start" x="418.5" y="-698.6" font-family="Times New Roman,serif" font-size="18.00" fill="red">*wes&#45;pero&#45;</text>
<text text-anchor="start" x="506.5" y="-699.2" font-family="Times New Roman,serif" font-size="16.00">evening, night</text>
</a>
</g>
</g>
<!-- wesIE -->
<g id="node2" class="node">
<title>wesIE</title>
<text text-anchor="start" x="319.5" y="-598.3" font-family="Times New Roman,serif" font-size="14.00" fill="red">*wes&#45;</text>
</g>
<!-- wesperoIE&#45;&gt;wesIE -->
<g id="edge1" class="edge">
<title>wesperoIE&#45;&gt;wesIE</title>
<path fill="none" stroke="black" d="M424.99,-662.86C405.57,-649.73 385.92,-636.43 370.08,-625.71"/>
<polygon fill="black" stroke="black" points="371.94,-622.75 361.7,-620.05 368.02,-628.55 371.94,-622.75"/>
</g>
<!-- vesperL -->
<g id="node17" class="node">
<title>vesperL</title>
<text text-anchor="start" x="490" y="-611.8" font-family="Times New Roman,serif" font-weight="bold" font-size="14.00">Latin</text>
<text text-anchor="start" x="488" y="-597.8" font-family="Times New Roman,serif" font-size="14.00" fill="red">vesper</text>
<text text-anchor="start" x="489.5" y="-585.4" font-family="Times New Roman,serif" font-size="12.00">evening</text>
</g>
<!-- wesperoIE&#45;&gt;vesperL -->
<g id="edge16" class="edge">
<title>wesperoIE&#45;&gt;vesperL</title>
<path fill="none" stroke="black" d="M506.5,-662.86C506.5,-653.78 506.5,-644.62 506.5,-636.29"/>
<polygon fill="black" stroke="black" points="510,-636.25 506.5,-626.25 503,-636.25 510,-636.25"/>
</g>
<!-- hesperosGk -->
<g id="node29" class="node">
<title>hesperosGk</title>
<text text-anchor="start" x="773.5" y="-404.8" font-family="Times New Roman,serif" font-weight="bold" font-size="14.00">Greek</text>
<text text-anchor="start" x="768" y="-390.8" font-family="Times New Roman,serif" font-size="14.00" fill="red">hesperos</text>
</g>
<!-- wesperoIE&#45;&gt;hesperosGk -->
<g id="edge28" class="edge">
<title>wesperoIE&#45;&gt;hesperosGk</title>
<path fill="none" stroke="black" d="M556.49,-662.96C619.45,-593.64 724.95,-477.48 770.93,-426.85"/>
<polygon fill="black" stroke="black" points="773.65,-429.06 777.78,-419.31 768.47,-424.35 773.65,-429.06"/>
</g>
<!-- westoIE -->
<g id="node3" class="node">
<title>westoIE</title>
<text text-anchor="start" x="200" y="-505.3" font-family="Times New Roman,serif" font-size="14.00" fill="red">*wes&#45;to&#45;</text>
</g>
<!-- wesIE&#45;&gt;westoIE -->
<g id="edge2" class="edge">
<title>wesIE&#45;&gt;westoIE</title>
<path fill="none" stroke="black" d="M315.43,-583.88C297.91,-569.65 272.8,-549.24 253.4,-533.48"/>
<polygon fill="black" stroke="black" points="255.44,-530.63 245.47,-527.04 251.03,-536.06 255.44,-530.63"/>
</g>
<!-- wisGmc -->
<g id="node14" class="node">
<title>wisGmc</title>
<text text-anchor="start" x="306" y="-512.8" font-family="Times New Roman,serif" font-weight="bold" font-size="14.00">Germanic</text>
<text text-anchor="start" x="321" y="-498.8" font-family="Times New Roman,serif" font-size="14.00" fill="red">*wis&#45;</text>
</g>
<!-- wesIE&#45;&gt;wisGmc -->
<g id="edge13" class="edge">
<title>wesIE&#45;&gt;wisGmc</title>
<path fill="none" stroke="black" d="M336.5,-583.88C336.5,-570.79 336.5,-552.48 336.5,-537.36"/>
<polygon fill="black" stroke="black" points="340,-537.04 336.5,-527.04 333,-537.04 340,-537.04"/>
<text text-anchor="middle" x="340" y="-548.8" font-family="Times New Roman,serif" font-size="14.00">?</text>
</g>
<!-- westGmc -->
<g id="node4" class="node">
<title>westGmc</title>
<text text-anchor="start" x="142" y="-404.8" font-family="Times New Roman,serif" font-weight="bold" font-size="14.00">Germanic</text>
<text text-anchor="start" x="154" y="-390.8" font-family="Times New Roman,serif" font-size="14.00" fill="red">*west&#45;</text>
</g>
<!-- westoIE&#45;&gt;westGmc -->
<g id="edge3" class="edge">
<title>westoIE&#45;&gt;westGmc</title>
<path fill="none" stroke="black" d="M216.15,-490.97C207.86,-474.07 195.03,-447.94 185.43,-428.36"/>
<polygon fill="black" stroke="black" points="188.55,-426.78 181.01,-419.34 182.27,-429.86 188.55,-426.78"/>
</g>
<!-- westOE -->
<g id="node5" class="node">
<title>westOE</title>
<text text-anchor="start" x="8" y="-270.8" font-family="Times New Roman,serif" font-weight="bold" font-size="14.00">Old English</text>
<text text-anchor="start" x="31.5" y="-256.8" font-family="Times New Roman,serif" font-size="14.00" fill="red">west</text>
</g>
<!-- westGmc&#45;&gt;westOE -->
<g id="edge4" class="edge">
<title>westGmc&#45;&gt;westOE</title>
<path fill="none" stroke="black" d="M155.77,-382.74C133.44,-359.72 93.77,-318.81 68.33,-292.57"/>
<polygon fill="black" stroke="black" points="70.71,-290 61.24,-285.26 65.69,-294.88 70.71,-290"/>
</g>
<!-- westerneOE -->
<g id="node8" class="node">
<title>westerneOE</title>
<text text-anchor="start" x="115" y="-270.8" font-family="Times New Roman,serif" font-weight="bold" font-size="14.00">Old English</text>
<text text-anchor="start" x="127" y="-256.8" font-family="Times New Roman,serif" font-size="14.00" fill="red">westerne</text>
</g>
<!-- westGmc&#45;&gt;westerneOE -->
<g id="edge7" class="edge">
<title>westGmc&#45;&gt;westerneOE</title>
<path fill="none" stroke="black" d="M169.75,-382.74C166.22,-360.51 160.03,-321.6 155.85,-295.32"/>
<polygon fill="black" stroke="black" points="159.27,-294.59 154.25,-285.26 152.36,-295.69 159.27,-294.59"/>
</g>
<!-- westraOE -->
<g id="node11" class="node">
<title>westraOE</title>
<text text-anchor="start" x="222" y="-270.8" font-family="Times New Roman,serif" font-weight="bold" font-size="14.00">Old English</text>
<text text-anchor="start" x="240" y="-256.8" font-family="Times New Roman,serif" font-size="14.00" fill="red">westra</text>
</g>
<!-- westGmc&#45;&gt;westraOE -->
<g id="edge10" class="edge">
<title>westGmc&#45;&gt;westraOE</title>
<path fill="none" stroke="black" d="M183.74,-382.74C198.49,-360.11 224.48,-320.21 241.6,-293.94"/>
<polygon fill="black" stroke="black" points="244.73,-295.55 247.25,-285.26 238.86,-291.73 244.73,-295.55"/>
</g>
<!-- westME -->
<g id="node6" class="node">
<title>westME</title>
<text text-anchor="start" x="23" y="-143.8" font-family="Times New Roman,serif" font-weight="bold" font-size="14.00">Middle</text>
<text text-anchor="start" x="21.5" y="-129.8" font-family="Times New Roman,serif" font-weight="bold" font-size="14.00">English</text>
<text text-anchor="start" x="31.5" y="-115.8" font-family="Times New Roman,serif" font-size="14.00" fill="red">west</text>
</g>
<!-- westOE&#45;&gt;westME -->
<g id="edge5" class="edge">
<title>westOE&#45;&gt;westME</title>
<path fill="none" stroke="black" d="M44.5,-248.74C44.5,-228.47 44.5,-194.35 44.5,-168.57"/>
<polygon fill="black" stroke="black" points="48,-168.45 44.5,-158.45 41,-168.45 48,-168.45"/>
</g>
<!-- west -->
<g id="node7" class="node">
<title>west</title>
<text text-anchor="start" x="20" y="-42.8" font-family="Times New Roman,serif" font-weight="bold" font-size="14.00">Modern</text>
<text text-anchor="start" x="21.5" y="-28.8" font-family="Times New Roman,serif" font-weight="bold" font-size="14.00">English</text>
<text text-anchor="start" x="31.5" y="-14.8" font-family="Times New Roman,serif" font-size="14.00" fill="red">west</text>
</g>
<!-- westME&#45;&gt;west -->
<g id="edge6" class="edge">
<title>westME&#45;&gt;west</title>
<path fill="none" stroke="black" d="M44.5,-107.78C44.5,-95.68 44.5,-80.81 44.5,-67.54"/>
<polygon fill="black" stroke="black" points="48,-67.31 44.5,-57.31 41,-67.31 48,-67.31"/>
</g>
<!-- westernME -->
<g id="node9" class="node">
<title>westernME</title>
<text text-anchor="start" x="130" y="-143.8" font-family="Times New Roman,serif" font-weight="bold" font-size="14.00">Middle</text>
<text text-anchor="start" x="128.5" y="-129.8" font-family="Times New Roman,serif" font-weight="bold" font-size="14.00">English</text>
<text text-anchor="start" x="130" y="-115.8" font-family="Times New Roman,serif" font-size="14.00" fill="red">western</text>
</g>
<!-- westerneOE&#45;&gt;westernME -->
<g id="edge8" class="edge">
<title>westerneOE&#45;&gt;westernME</title>
<path fill="none" stroke="black" d="M151.5,-248.74C151.5,-228.47 151.5,-194.35 151.5,-168.57"/>
<polygon fill="black" stroke="black" points="155,-168.45 151.5,-158.45 148,-168.45 155,-168.45"/>
</g>
<!-- western -->
<g id="node10" class="node">
<title>western</title>
<text text-anchor="start" x="127" y="-42.8" font-family="Times New Roman,serif" font-weight="bold" font-size="14.00">Modern</text>
<text text-anchor="start" x="128.5" y="-28.8" font-family="Times New Roman,serif" font-weight="bold" font-size="14.00">English</text>
<text text-anchor="start" x="130" y="-14.8" font-family="Times New Roman,serif" font-size="14.00" fill="red">western</text>
</g>
<!-- westernME&#45;&gt;western -->
<g id="edge9" class="edge">
<title>westernME&#45;&gt;western</title>
<path fill="none" stroke="black" d="M151.5,-107.78C151.5,-95.68 151.5,-80.81 151.5,-67.54"/>
<polygon fill="black" stroke="black" points="155,-67.31 151.5,-57.31 148,-67.31 155,-67.31"/>
</g>
<!-- westerME -->
<g id="node12" class="node">
<title>westerME</title>
<text text-anchor="start" x="234" y="-150.8" font-family="Times New Roman,serif" font-weight="bold" font-size="14.00">Middle</text>
<text text-anchor="start" x="232.5" y="-136.8" font-family="Times New Roman,serif" font-weight="bold" font-size="14.00">English</text>
<text text-anchor="start" x="237" y="-122.8" font-family="Times New Roman,serif" font-size="14.00" fill="red">wester</text>
<text text-anchor="start" x="232.5" y="-108.8" font-family="Times New Roman,serif" font-size="14.00" fill="red">westerly</text>
</g>
<!-- westraOE&#45;&gt;westerME -->
<g id="edge11" class="edge">
<title>westraOE&#45;&gt;westerME</title>
<path fill="none" stroke="black" d="M258.11,-248.74C257.69,-230.22 257,-200.11 256.44,-175.38"/>
<polygon fill="black" stroke="black" points="259.93,-175.08 256.21,-165.16 252.94,-175.24 259.93,-175.08"/>
</g>
<!-- westerly -->
<g id="node13" class="node">
<title>westerly</title>
<text text-anchor="start" x="229" y="-42.8" font-family="Times New Roman,serif" font-weight="bold" font-size="14.00">Modern</text>
<text text-anchor="start" x="230.5" y="-28.8" font-family="Times New Roman,serif" font-weight="bold" font-size="14.00">English</text>
<text text-anchor="start" x="230.5" y="-14.8" font-family="Times New Roman,serif" font-size="14.00" fill="red">westerly</text>
</g>
<!-- westerME&#45;&gt;westerly -->
<g id="edge12" class="edge">
<title>westerME&#45;&gt;westerly</title>
<path fill="none" stroke="black" d="M254.87,-100.95C254.66,-90.2 254.41,-78.11 254.19,-67.13"/>
<polygon fill="black" stroke="black" points="257.69,-66.96 253.99,-57.03 250.69,-67.1 257.69,-66.96"/>
</g>
<!-- visigothiL -->
<g id="node15" class="node">
<title>visigothiL</title>
<text text-anchor="start" x="304.5" y="-216.8" font-family="Times New Roman,serif" font-weight="bold" font-size="14.00">Late Latin</text>
<text text-anchor="start" x="310.5" y="-202.8" font-family="Times New Roman,serif" font-size="14.00" fill="red">Visigothī</text>
<text text-anchor="start" x="305.5" y="-190.4" font-family="Times New Roman,serif" font-size="12.00">&quot;West Goths&quot;</text>
</g>
<!-- wisGmc&#45;&gt;visigothiL -->
<g id="edge14" class="edge">
<title>wisGmc&#45;&gt;visigothiL</title>
<path fill="none" stroke="black" stroke-dasharray="5,2" d="M336.5,-490.57C336.5,-442.11 336.5,-305.09 336.5,-241.36"/>
<polygon fill="black" stroke="black" points="340,-241.07 336.5,-231.07 333,-241.07 340,-241.07"/>
</g>
<!-- visigoth -->
<g id="node16" class="node">
<title>visigoth</title>
<text text-anchor="start" x="312" y="-42.8" font-family="Times New Roman,serif" font-weight="bold" font-size="14.00">Modern</text>
<text text-anchor="start" x="313.5" y="-28.8" font-family="Times New Roman,serif" font-weight="bold" font-size="14.00">English</text>
<text text-anchor="start" x="313" y="-14.8" font-family="Times New Roman,serif" font-size="14.00" fill="red">Visigoth</text>
</g>
<!-- visigothiL&#45;&gt;visigoth -->
<g id="edge15" class="edge">
<title>visigothiL&#45;&gt;visigoth</title>
<path fill="none" stroke="black" stroke-dasharray="5,2" d="M336.5,-182.67C336.5,-153.04 336.5,-101.67 336.5,-67.51"/>
<polygon fill="black" stroke="black" points="340,-67.07 336.5,-57.07 333,-67.07 340,-67.07"/>
</g>
<!-- vesperME -->
<g id="node18" class="node">
<title>vesperME</title>
<text text-anchor="start" x="413" y="-350.8" font-family="Times New Roman,serif" font-weight="bold" font-size="14.00">Middle</text>
<text text-anchor="start" x="411.5" y="-336.8" font-family="Times New Roman,serif" font-weight="bold" font-size="14.00">English</text>
<text text-anchor="start" x="416" y="-322.8" font-family="Times New Roman,serif" font-size="14.00" fill="red">vesper</text>
<text text-anchor="start" x="407.5" y="-310.4" font-family="Times New Roman,serif" font-size="12.00">evening star</text>
</g>
<!-- vesperL&#45;&gt;vesperME -->
<g id="edge17" class="edge">
<title>vesperL&#45;&gt;vesperME</title>
<path fill="none" stroke="black" stroke-dasharray="5,2" d="M495.74,-577.92C484.39,-552.67 466.76,-510.76 456.5,-473 447.7,-440.61 441.99,-402.94 438.6,-375.14"/>
<polygon fill="black" stroke="black" points="442.05,-374.53 437.41,-365 435.1,-375.34 442.05,-374.53"/>
</g>
<!-- vespertinusL -->
<g id="node20" class="node">
<title>vespertinusL</title>
<text text-anchor="start" x="474" y="-451.3" font-family="Times New Roman,serif" font-size="14.00" fill="red">vespertīnus</text>
</g>
<!-- vesperL&#45;&gt;vespertinusL -->
<g id="edge19" class="edge">
<title>vesperL&#45;&gt;vespertinusL</title>
<path fill="none" stroke="black" d="M506.5,-577.7C506.5,-551.98 506.5,-510.6 506.5,-483.36"/>
<polygon fill="black" stroke="black" points="510,-483.32 506.5,-473.32 503,-483.32 510,-483.32"/>
</g>
<!-- vespertilioL -->
<g id="node22" class="node">
<title>vespertilioL</title>
<text text-anchor="start" x="577.5" y="-511.8" font-family="Times New Roman,serif" font-size="14.00" fill="red">vespertiliō</text>
<text text-anchor="start" x="599" y="-499.4" font-family="Times New Roman,serif" font-size="12.00">bat</text>
</g>
<!-- vesperL&#45;&gt;vespertilioL -->
<g id="edge21" class="edge">
<title>vesperL&#45;&gt;vespertilioL</title>
<path fill="none" stroke="black" d="M531.99,-577.8C546.78,-564.35 565.36,-547.44 580.26,-533.87"/>
<polygon fill="black" stroke="black" points="582.64,-536.44 587.69,-527.12 577.93,-531.26 582.64,-536.44"/>
</g>
<!-- vesper -->
<g id="node19" class="node">
<title>vesper</title>
<text text-anchor="start" x="395" y="-49.8" font-family="Times New Roman,serif" font-weight="bold" font-size="14.00">Modern</text>
<text text-anchor="start" x="396.5" y="-35.8" font-family="Times New Roman,serif" font-weight="bold" font-size="14.00">English</text>
<text text-anchor="start" x="401" y="-21.8" font-family="Times New Roman,serif" font-size="14.00" fill="red">vesper</text>
<text text-anchor="start" x="398" y="-7.8" font-family="Times New Roman,serif" font-size="14.00" fill="red">vespers</text>
</g>
<!-- vesperME&#45;&gt;vesper -->
<g id="edge18" class="edge">
<title>vesperME&#45;&gt;vesper</title>
<path fill="none" stroke="black" d="M432.99,-302.86C430.29,-248.78 424.61,-135.23 421.55,-74.08"/>
<polygon fill="black" stroke="black" points="425.05,-73.83 421.05,-64.02 418.05,-74.18 425.05,-73.83"/>
</g>
<!-- vespertine -->
<g id="node21" class="node">
<title>vespertine</title>
<text text-anchor="start" x="482" y="-42.8" font-family="Times New Roman,serif" font-weight="bold" font-size="14.00">Modern</text>
<text text-anchor="start" x="483.5" y="-28.8" font-family="Times New Roman,serif" font-weight="bold" font-size="14.00">English</text>
<text text-anchor="start" x="478" y="-14.8" font-family="Times New Roman,serif" font-size="14.00" fill="red">vespertine</text>
</g>
<!-- vespertinusL&#45;&gt;vespertine -->
<g id="edge20" class="edge">
<title>vespertinusL&#45;&gt;vespertine</title>
<path fill="none" stroke="black" stroke-dasharray="5,2" d="M506.5,-436.66C506.5,-413.49 506.5,-371.15 506.5,-335 506.5,-335 506.5,-335 506.5,-132 506.5,-110.39 506.5,-86.13 506.5,-67.03"/>
<polygon fill="black" stroke="black" points="510,-67.01 506.5,-57.01 503,-67.01 510,-67.01"/>
</g>
<!-- vespertilionidaeNL -->
<g id="node23" class="node">
<title>vespertilionidaeNL</title>
<text text-anchor="start" x="574.5" y="-337.8" font-family="Times New Roman,serif" font-weight="bold" font-size="14.00">New Latin</text>
<text text-anchor="start" x="561.5" y="-323.8" font-family="Times New Roman,serif" font-size="14.00" fill="red">Vespertiliōnidae</text>
</g>
<!-- vespertilioL&#45;&gt;vespertilionidaeNL -->
<g id="edge22" class="edge">
<title>vespertilioL&#45;&gt;vespertilionidaeNL</title>
<path fill="none" stroke="black" stroke-dasharray="5,2" d="M606.5,-490.78C606.5,-460.73 606.5,-398.48 606.5,-362.43"/>
<polygon fill="black" stroke="black" points="610,-362.15 606.5,-352.15 603,-362.15 610,-362.15"/>
</g>
<!-- vipistrelloOI -->
<g id="node25" class="node">
<title>vipistrelloOI</title>
<text text-anchor="start" x="655" y="-404.8" font-family="Times New Roman,serif" font-weight="bold" font-size="14.00">Old Italian</text>
<text text-anchor="start" x="661" y="-390.8" font-family="Times New Roman,serif" font-size="14.00" fill="red">vipistrello</text>
</g>
<!-- vespertilioL&#45;&gt;vipistrelloOI -->
<g id="edge24" class="edge">
<title>vespertilioL&#45;&gt;vipistrelloOI</title>
<path fill="none" stroke="black" d="M619.67,-490.97C632.98,-473.76 653.7,-446.98 668.93,-427.29"/>
<polygon fill="black" stroke="black" points="671.74,-429.39 675.09,-419.34 666.2,-425.11 671.74,-429.39"/>
</g>
<!-- vespertilionid -->
<g id="node24" class="node">
<title>vespertilionid</title>
<text text-anchor="start" x="582" y="-42.8" font-family="Times New Roman,serif" font-weight="bold" font-size="14.00">Modern</text>
<text text-anchor="start" x="583.5" y="-28.8" font-family="Times New Roman,serif" font-weight="bold" font-size="14.00">English</text>
<text text-anchor="start" x="569" y="-14.8" font-family="Times New Roman,serif" font-size="14.00" fill="red">vespertilionid</text>
</g>
<!-- vespertilionidaeNL&#45;&gt;vespertilionid -->
<g id="edge23" class="edge">
<title>vespertilionidaeNL&#45;&gt;vespertilionid</title>
<path fill="none" stroke="black" stroke-dasharray="5,2" d="M606.5,-315.57C606.5,-267.36 606.5,-131.53 606.5,-67.38"/>
<polygon fill="black" stroke="black" points="610,-67.36 606.5,-57.36 603,-67.36 610,-67.36"/>
</g>
<!-- pipistrelloI -->
<g id="node26" class="node">
<title>pipistrelloI</title>
<text text-anchor="start" x="672.5" y="-270.8" font-family="Times New Roman,serif" font-weight="bold" font-size="14.00">Italian</text>
<text text-anchor="start" x="665" y="-256.8" font-family="Times New Roman,serif" font-size="14.00" fill="red">pipistrello</text>
</g>
<!-- vipistrelloOI&#45;&gt;pipistrelloI -->
<g id="edge25" class="edge">
<title>vipistrelloOI&#45;&gt;pipistrelloI</title>
<path fill="none" stroke="black" d="M689.02,-382.74C689.7,-360.51 690.88,-321.6 691.67,-295.32"/>
<polygon fill="black" stroke="black" points="695.17,-295.36 691.98,-285.26 688.18,-295.15 695.17,-295.36"/>
</g>
<!-- pipistrelleF -->
<g id="node27" class="node">
<title>pipistrelleF</title>
<text text-anchor="start" x="681.5" y="-136.8" font-family="Times New Roman,serif" font-weight="bold" font-size="14.00">French</text>
<text text-anchor="start" x="676.5" y="-122.8" font-family="Times New Roman,serif" font-size="14.00" fill="red">pipistrelle</text>
</g>
<!-- pipistrelloI&#45;&gt;pipistrelleF -->
<g id="edge26" class="edge">
<title>pipistrelloI&#45;&gt;pipistrelleF</title>
<path fill="none" stroke="black" stroke-dasharray="5,2" d="M693.94,-248.74C695.79,-226.51 699.03,-187.6 701.22,-161.32"/>
<polygon fill="black" stroke="black" points="704.72,-161.52 702.06,-151.26 697.74,-160.94 704.72,-161.52"/>
</g>
<!-- pipistrelle -->
<g id="node28" class="node">
<title>pipistrelle</title>
<text text-anchor="start" x="681" y="-42.8" font-family="Times New Roman,serif" font-weight="bold" font-size="14.00">Modern</text>
<text text-anchor="start" x="682.5" y="-28.8" font-family="Times New Roman,serif" font-weight="bold" font-size="14.00">English</text>
<text text-anchor="start" x="678.5" y="-14.8" font-family="Times New Roman,serif" font-size="14.00" fill="red">pipistrelle</text>
</g>
<!-- pipistrelleF&#45;&gt;pipistrelle -->
<g id="edge27" class="edge">
<title>pipistrelleF&#45;&gt;pipistrelle</title>
<path fill="none" stroke="black" stroke-dasharray="5,2" d="M703.85,-114.76C704.11,-101.67 704.48,-83.25 704.81,-67.21"/>
<polygon fill="black" stroke="black" points="708.31,-67.16 705.01,-57.09 701.31,-67.02 708.31,-67.16"/>
</g>
<!-- hesperusL -->
<g id="node30" class="node">
<title>hesperusL</title>
<text text-anchor="start" x="777" y="-270.8" font-family="Times New Roman,serif" font-weight="bold" font-size="14.00">Latin</text>
<text text-anchor="start" x="767" y="-256.8" font-family="Times New Roman,serif" font-size="14.00" fill="red">Hesperus</text>
</g>
<!-- hesperosGk&#45;&gt;hesperusL -->
<g id="edge29" class="edge">
<title>hesperosGk&#45;&gt;hesperusL</title>
<path fill="none" stroke="black" stroke-dasharray="5,2" d="M793.5,-382.74C793.5,-360.51 793.5,-321.6 793.5,-295.32"/>
<polygon fill="black" stroke="black" points="797,-295.26 793.5,-285.26 790,-295.26 797,-295.26"/>
</g>
<!-- hesperidesGk -->
<g id="node33" class="node">
<title>hesperidesGk</title>
<text text-anchor="start" x="846" y="-203.3" font-family="Times New Roman,serif" font-size="14.00" fill="red">Hesperides</text>
</g>
<!-- hesperosGk&#45;&gt;hesperidesGk -->
<g id="edge32" class="edge">
<title>hesperosGk&#45;&gt;hesperidesGk</title>
<path fill="none" stroke="black" d="M800.95,-382.96C815.65,-349.37 848.45,-274.41 865.96,-234.38"/>
<polygon fill="black" stroke="black" points="869.26,-235.57 870.06,-225 862.85,-232.76 869.26,-235.57"/>
</g>
<!-- hesperusME -->
<g id="node31" class="node">
<title>hesperusME</title>
<text text-anchor="start" x="772" y="-143.8" font-family="Times New Roman,serif" font-weight="bold" font-size="14.00">Middle</text>
<text text-anchor="start" x="770.5" y="-129.8" font-family="Times New Roman,serif" font-weight="bold" font-size="14.00">English</text>
<text text-anchor="start" x="767" y="-115.8" font-family="Times New Roman,serif" font-size="14.00" fill="red">Hesperus</text>
</g>
<!-- hesperusL&#45;&gt;hesperusME -->
<g id="edge30" class="edge">
<title>hesperusL&#45;&gt;hesperusME</title>
<path fill="none" stroke="black" stroke-dasharray="5,2" d="M793.5,-248.74C793.5,-228.47 793.5,-194.35 793.5,-168.57"/>
<polygon fill="black" stroke="black" points="797,-168.45 793.5,-158.45 790,-168.45 797,-168.45"/>
</g>
<!-- hesperus -->
<g id="node32" class="node">
<title>hesperus</title>
<text text-anchor="start" x="769" y="-42.8" font-family="Times New Roman,serif" font-weight="bold" font-size="14.00">Modern</text>
<text text-anchor="start" x="770.5" y="-28.8" font-family="Times New Roman,serif" font-weight="bold" font-size="14.00">English</text>
<text text-anchor="start" x="767" y="-14.8" font-family="Times New Roman,serif" font-size="14.00" fill="red">Hesperus</text>
</g>
<!-- hesperusME&#45;&gt;hesperus -->
<g id="edge31" class="edge">
<title>hesperusME&#45;&gt;hesperus</title>
<path fill="none" stroke="black" d="M793.5,-107.78C793.5,-95.68 793.5,-80.81 793.5,-67.54"/>
<polygon fill="black" stroke="black" points="797,-67.31 793.5,-57.31 790,-67.31 797,-67.31"/>
</g>
<!-- hesperides -->
<g id="node34" class="node">
<title>hesperides</title>
<text text-anchor="start" x="861" y="-42.8" font-family="Times New Roman,serif" font-weight="bold" font-size="14.00">Modern</text>
<text text-anchor="start" x="862.5" y="-28.8" font-family="Times New Roman,serif" font-weight="bold" font-size="14.00">English</text>
<text text-anchor="start" x="854" y="-14.8" font-family="Times New Roman,serif" font-size="14.00" fill="red">Hesperides</text>
</g>
<!-- hesperidesGk&#45;&gt;hesperides -->
<g id="edge33" class="edge">
<title>hesperidesGk&#45;&gt;hesperides</title>
<path fill="none" stroke="black" stroke-dasharray="5,2" d="M878.3,-188.78C879.6,-160.54 882.22,-103.88 883.92,-67.24"/>
<polygon fill="black" stroke="black" points="887.42,-67.17 884.39,-57.02 880.43,-66.85 887.42,-67.17"/>
</g>
</g>
</svg>
