<?xml version="1.0" encoding="UTF-8" standalone="no"?>
<!DOCTYPE svg PUBLIC "-//W3C//DTD SVG 1.1//EN"
 "http://www.w3.org/Graphics/SVG/1.1/DTD/svg11.dtd">
<!-- Generated by graphviz version 2.44.1 (20200629.0846)
 -->
<!-- Pages: 1 -->
<svg width="612pt" height="790pt"
 viewBox="0.00 0.00 611.50 790.00" xmlns="http://www.w3.org/2000/svg" xmlns:xlink="http://www.w3.org/1999/xlink">
<g id="graph0" class="graph" transform="scale(1 1) rotate(0) translate(4 786)">
<polygon fill="white" stroke="transparent" points="-4,4 -4,-786 607.5,-786 607.5,4 -4,4"/>
<!-- wi -->
<g id="node1" class="node">
<title>wi</title>
<text text-anchor="start" x="285.5" y="-669.8" font-family="Times New Roman,serif" font-weight="bold" font-size="14.00">Indo&#45;</text>
<text text-anchor="start" x="271.5" y="-655.8" font-family="Times New Roman,serif" font-weight="bold" font-size="14.00">European</text>
<text text-anchor="start" x="293" y="-641.8" font-family="Times New Roman,serif" font-size="14.00" fill="red">wi&#45;</text>
<text text-anchor="start" x="277" y="-629.4" font-family="Times New Roman,serif" font-size="12.00">in half, two</text>
</g>
<!-- wikmti -->
<g id="node4" class="node">
<title>wikmti</title>
<g id="a_node4"><a xlink:title="Indo&#45;European &quot;wīkm̥tī&#45;&quot; twenty">
<polygon fill="none" stroke="black" points="451.5,-582 240.5,-582 240.5,-478 451.5,-478 451.5,-582"/>
<polygon fill="none" stroke="black" points="455.5,-586 236.5,-586 236.5,-474 455.5,-474 455.5,-586"/>
<text text-anchor="start" x="268" y="-537.8" font-family="Times New Roman,serif" font-weight="bold" font-size="24.00">Indo&#45;European</text>
<text text-anchor="start" x="280.5" y="-509.6" font-family="Times New Roman,serif" font-size="18.00" fill="red">wīkm̥tī&#45;</text>
<text text-anchor="start" x="370" y="-510.2" font-family="Times New Roman,serif" font-size="16.00">twenty</text>
</a>
</g>
</g>
<!-- wi&#45;&gt;wikmti -->
<g id="edge2" class="edge">
<title>wi&#45;&gt;wikmti</title>
<path fill="none" stroke="black" d="M322.45,-621.78C329.01,-612.1 335.74,-602.15 340.32,-595.39"/>
<polygon fill="black" stroke="black" points="343.29,-597.24 346,-587 337.5,-593.32 343.29,-597.24"/>
</g>
<!-- dekm -->
<g id="node2" class="node">
<title>dekm</title>
<g id="a_node2"><a xlink:href="dekm-ten.svg" xlink:title="&lt;b&gt;Indo&#45;&lt;br/&gt;European&lt;/b&gt;&lt;br/&gt;&lt;font color=&quot;red&quot;&gt;dekm̥&#45;&lt;/font&gt;&lt;br/&gt;&lt;font point&#45;size=&quot;12&quot;&gt;ten&lt;/font&gt;">
<path fill="none" stroke="black" stroke-dasharray="5,2" d="M416.5,-782C416.5,-782 363.5,-782 363.5,-782 357.5,-782 351.5,-776 351.5,-770 351.5,-770 351.5,-732 351.5,-732 351.5,-726 357.5,-720 363.5,-720 363.5,-720 416.5,-720 416.5,-720 422.5,-720 428.5,-726 428.5,-732 428.5,-732 428.5,-770 428.5,-770 428.5,-776 422.5,-782 416.5,-782"/>
<text text-anchor="start" x="373.5" y="-767.8" font-family="Times New Roman,serif" font-weight="bold" font-size="14.00">Indo&#45;</text>
<text text-anchor="start" x="359.5" y="-753.8" font-family="Times New Roman,serif" font-weight="bold" font-size="14.00">European</text>
<text text-anchor="start" x="372" y="-739.8" font-family="Times New Roman,serif" font-size="14.00" fill="red">dekm̥&#45;</text>
<text text-anchor="start" x="383" y="-727.4" font-family="Times New Roman,serif" font-size="12.00">ten</text>
</a>
</g>
</g>
<!-- dkmti -->
<g id="node3" class="node">
<title>dkmti</title>
<text text-anchor="start" x="366.5" y="-655.8" font-family="Times New Roman,serif" font-size="14.00" fill="red">(d)km̥t&#45;ī</text>
<text text-anchor="start" x="373" y="-643.4" font-family="Times New Roman,serif" font-size="12.00">decade</text>
</g>
<!-- dekm&#45;&gt;dkmti -->
<g id="edge1" class="edge">
<title>dekm&#45;&gt;dkmti</title>
<path fill="none" stroke="black" d="M390,-719.89C390,-707.6 390,-693.48 390,-681.47"/>
<polygon fill="black" stroke="black" points="393.5,-681.15 390,-671.15 386.5,-681.15 393.5,-681.15"/>
</g>
<!-- dkmti&#45;&gt;wikmti -->
<g id="edge3" class="edge">
<title>dkmti&#45;&gt;wikmti</title>
<path fill="none" stroke="black" d="M378.44,-634.92C369.88,-622.28 358.59,-605.59 351.83,-595.61"/>
<polygon fill="black" stroke="black" points="354.5,-593.32 346,-587 348.71,-597.24 354.5,-593.32"/>
</g>
<!-- vigintiL -->
<g id="node5" class="node">
<title>vigintiL</title>
<text text-anchor="start" x="329.5" y="-321.8" font-family="Times New Roman,serif" font-weight="bold" font-size="14.00">Latin</text>
<text text-anchor="start" x="327.5" y="-307.8" font-family="Times New Roman,serif" font-size="14.00" fill="red">vīgintī</text>
</g>
<!-- wikmti&#45;&gt;vigintiL -->
<g id="edge4" class="edge">
<title>wikmti&#45;&gt;vigintiL</title>
<path fill="none" stroke="black" d="M344,-473C344,-473 345.07,-390.36 345.65,-346.15"/>
<polygon fill="black" stroke="black" points="349.15,-346.11 345.78,-336.07 342.15,-346.02 349.15,-346.11"/>
</g>
<!-- eikosiG -->
<g id="node17" class="node">
<title>eikosiG</title>
<text text-anchor="start" x="432" y="-321.8" font-family="Times New Roman,serif" font-weight="bold" font-size="14.00">Greek</text>
<text text-anchor="start" x="435.5" y="-307.8" font-family="Times New Roman,serif" font-size="14.00" fill="red">eikosi</text>
</g>
<!-- wikmti&#45;&gt;eikosiG -->
<g id="edge16" class="edge">
<title>wikmti&#45;&gt;eikosiG</title>
<path fill="none" stroke="black" d="M344,-473C344,-473 403.44,-388.25 434.13,-344.49"/>
<polygon fill="black" stroke="black" points="437.15,-346.27 440.03,-336.07 431.42,-342.25 437.15,-346.27"/>
</g>
<!-- vimsatihSk -->
<g id="node23" class="node">
<title>vimsatihSk</title>
<text text-anchor="start" x="180" y="-327.8" font-family="Times New Roman,serif" font-weight="bold" font-size="14.00">Sanskrit</text>
<text text-anchor="start" x="183" y="-313.8" font-family="Times New Roman,serif" font-size="14.00" fill="red">viṁśatiḥ</text>
<text text-anchor="start" x="190.5" y="-301.4" font-family="Times New Roman,serif" font-size="12.00">twenty</text>
</g>
<!-- wikmti&#45;&gt;vimsatihSk -->
<g id="edge22" class="edge">
<title>wikmti&#45;&gt;vimsatihSk</title>
<path fill="none" stroke="black" d="M344,-473C344,-473 273.84,-394.7 233.57,-349.76"/>
<polygon fill="black" stroke="black" points="235.94,-347.17 226.66,-342.06 230.73,-351.84 235.94,-347.17"/>
</g>
<!-- viceniL -->
<g id="node6" class="node">
<title>viceniL</title>
<text text-anchor="start" x="168" y="-236.8" font-family="Times New Roman,serif" font-size="14.00" fill="red">vīcēnī</text>
<text text-anchor="start" x="158.5" y="-224.4" font-family="Times New Roman,serif" font-size="12.00">twenty each</text>
</g>
<!-- vigintiL&#45;&gt;viceniL -->
<g id="edge5" class="edge">
<title>vigintiL&#45;&gt;viceniL</title>
<path fill="none" stroke="black" d="M345,-299C345,-299 278.1,-272.07 231.09,-253.15"/>
<polygon fill="black" stroke="black" points="232.27,-249.85 221.68,-249.36 229.65,-256.34 232.27,-249.85"/>
</g>
<!-- vicesimusL -->
<g id="node9" class="node">
<title>vicesimusL</title>
<text text-anchor="start" x="435.5" y="-151.8" font-family="Times New Roman,serif" font-size="14.00" fill="red">vīcēsimus</text>
<text text-anchor="start" x="435.5" y="-137.8" font-family="Times New Roman,serif" font-size="14.00" fill="red">vīgēsimus</text>
<text text-anchor="start" x="443.5" y="-125.4" font-family="Times New Roman,serif" font-size="12.00">twentieth</text>
</g>
<!-- vigintiL&#45;&gt;vicesimusL -->
<g id="edge8" class="edge">
<title>vigintiL&#45;&gt;vicesimusL</title>
<path fill="none" stroke="black" d="M345,-299C345,-299 421.86,-298.82 453,-258 470.56,-234.98 471.81,-201.35 469.57,-176.39"/>
<polygon fill="black" stroke="black" points="473.03,-175.83 468.43,-166.29 466.07,-176.62 473.03,-175.83"/>
</g>
<!-- viciensL -->
<g id="node11" class="node">
<title>viciensL</title>
<text text-anchor="start" x="387" y="-236.8" font-family="Times New Roman,serif" font-size="14.00" fill="red">vīciēns</text>
<text text-anchor="start" x="378.5" y="-224.4" font-family="Times New Roman,serif" font-size="12.00">twenty times</text>
</g>
<!-- vigintiL&#45;&gt;viciensL -->
<g id="edge10" class="edge">
<title>vigintiL&#45;&gt;viciensL</title>
<path fill="none" stroke="black" d="M345,-299C345,-299 365.69,-277.65 383.16,-259.61"/>
<polygon fill="black" stroke="black" points="385.94,-261.77 390.39,-252.15 380.91,-256.9 385.94,-261.77"/>
</g>
<!-- vigintillion -->
<g id="node15" class="node">
<title>vigintillion</title>
<text text-anchor="start" x="187.5" y="-59.8" font-family="Times New Roman,serif" font-weight="bold" font-size="14.00">Modern</text>
<text text-anchor="start" x="189" y="-45.8" font-family="Times New Roman,serif" font-weight="bold" font-size="14.00">English</text>
<text text-anchor="start" x="183.5" y="-31.8" font-family="Times New Roman,serif" font-size="14.00" fill="red">vigintillion</text>
<text text-anchor="start" x="184" y="-19.4" font-family="Times New Roman,serif" font-size="12.00">10^63 (US)</text>
<text text-anchor="start" x="180" y="-7.4" font-family="Times New Roman,serif" font-size="12.00">10^120 (UK)</text>
</g>
<!-- vigintiL&#45;&gt;vigintillion -->
<g id="edge14" class="edge">
<title>vigintiL&#45;&gt;vigintillion</title>
<path fill="none" stroke="black" stroke-dasharray="5,2" d="M345,-299C345,-299 306.37,-283.49 289,-258 250.69,-201.79 281.6,-170.24 250,-110 244.2,-98.94 234.33,-88.37 227.5,-81.79"/>
<polygon fill="black" stroke="black" points="229.76,-79.11 220,-75 225.07,-84.31 229.76,-79.11"/>
</g>
<!-- vicenariusL -->
<g id="node7" class="node">
<title>vicenariusL</title>
<text text-anchor="start" x="92" y="-144.8" font-family="Times New Roman,serif" font-size="14.00" fill="red">vīcēnārius</text>
<text text-anchor="start" x="92" y="-132.4" font-family="Times New Roman,serif" font-size="12.00">related to 20</text>
</g>
<!-- viceniL&#45;&gt;vicenariusL -->
<g id="edge6" class="edge">
<title>viceniL&#45;&gt;vicenariusL</title>
<path fill="none" stroke="black" d="M173.47,-215.65C163.85,-202.32 150.41,-183.72 139.55,-168.68"/>
<polygon fill="black" stroke="black" points="142.19,-166.36 133.49,-160.3 136.51,-170.46 142.19,-166.36"/>
</g>
<!-- vicenary -->
<g id="node8" class="node">
<title>vicenary</title>
<text text-anchor="start" x="96.5" y="-47.8" font-family="Times New Roman,serif" font-weight="bold" font-size="14.00">Modern</text>
<text text-anchor="start" x="98" y="-33.8" font-family="Times New Roman,serif" font-weight="bold" font-size="14.00">English</text>
<text text-anchor="start" x="97.5" y="-19.8" font-family="Times New Roman,serif" font-size="14.00" fill="red">vicenary</text>
</g>
<!-- vicenariusL&#45;&gt;vicenary -->
<g id="edge7" class="edge">
<title>vicenariusL&#45;&gt;vicenary</title>
<path fill="none" stroke="black" stroke-dasharray="5,2" d="M121,-123.99C121,-110.08 121,-89.95 121,-72.67"/>
<polygon fill="black" stroke="black" points="124.5,-72.36 121,-62.36 117.5,-72.36 124.5,-72.36"/>
</g>
<!-- vigesimal -->
<g id="node10" class="node">
<title>vigesimal</title>
<text text-anchor="start" x="435.5" y="-59.8" font-family="Times New Roman,serif" font-weight="bold" font-size="14.00">Modern</text>
<text text-anchor="start" x="437" y="-45.8" font-family="Times New Roman,serif" font-weight="bold" font-size="14.00">English</text>
<text text-anchor="start" x="434" y="-31.8" font-family="Times New Roman,serif" font-size="14.00" fill="red">vigesimal</text>
<text text-anchor="start" x="433.5" y="-19.4" font-family="Times New Roman,serif" font-size="12.00">occurring in</text>
<text text-anchor="start" x="428" y="-7.4" font-family="Times New Roman,serif" font-size="12.00">intervals of 20</text>
</g>
<!-- vicesimusL&#45;&gt;vigesimal -->
<g id="edge9" class="edge">
<title>vicesimusL&#45;&gt;vigesimal</title>
<path fill="none" stroke="black" stroke-dasharray="5,2" d="M463.1,-117.88C462.72,-107.98 462.25,-96.03 461.8,-84.43"/>
<polygon fill="black" stroke="black" points="465.3,-84.24 461.41,-74.38 458.3,-84.51 465.3,-84.24"/>
</g>
<!-- vicenniumL -->
<g id="node13" class="node">
<title>vicenniumL</title>
<text text-anchor="start" x="313" y="-150.8" font-family="Times New Roman,serif" font-size="14.00" fill="red">vīcennium</text>
<text text-anchor="start" x="321" y="-138.4" font-family="Times New Roman,serif" font-size="12.00">period of</text>
<text text-anchor="start" x="313" y="-126.4" font-family="Times New Roman,serif" font-size="12.00">twenty years</text>
</g>
<!-- viciensL&#45;&gt;vicenniumL -->
<g id="edge11" class="edge">
<title>viciensL&#45;&gt;vicenniumL</title>
<path fill="none" stroke="black" d="M391.55,-215.75C379.33,-202.1 362.85,-183.7 353.75,-173.54"/>
<polygon fill="black" stroke="black" points="356.28,-171.11 347,-166 351.06,-175.78 356.28,-171.11"/>
</g>
<!-- annusL -->
<g id="node12" class="node">
<title>annusL</title>
<text text-anchor="start" x="308.5" y="-243.8" font-family="Times New Roman,serif" font-weight="bold" font-size="14.00">Latin</text>
<text text-anchor="start" x="308.5" y="-229.8" font-family="Times New Roman,serif" font-size="14.00" fill="red">annus</text>
<text text-anchor="start" x="315" y="-217.4" font-family="Times New Roman,serif" font-size="12.00">year</text>
</g>
<!-- annusL&#45;&gt;vicenniumL -->
<g id="edge12" class="edge">
<title>annusL&#45;&gt;vicenniumL</title>
<path fill="none" stroke="black" d="M332.57,-209.94C336.4,-198.28 340.84,-184.75 343.78,-175.82"/>
<polygon fill="black" stroke="black" points="347.21,-176.59 347,-166 340.55,-174.41 347.21,-176.59"/>
</g>
<!-- vicennial -->
<g id="node14" class="node">
<title>vicennial</title>
<text text-anchor="start" x="317.5" y="-47.8" font-family="Times New Roman,serif" font-weight="bold" font-size="14.00">Modern</text>
<text text-anchor="start" x="319" y="-33.8" font-family="Times New Roman,serif" font-weight="bold" font-size="14.00">English</text>
<text text-anchor="start" x="317.5" y="-19.8" font-family="Times New Roman,serif" font-size="14.00" fill="red">vicennial</text>
</g>
<!-- vicenniumL&#45;&gt;vicennial -->
<g id="edge13" class="edge">
<title>vicenniumL&#45;&gt;vicennial</title>
<path fill="none" stroke="black" stroke-dasharray="5,2" d="M342,-118.9C342,-105.36 342,-87.74 342,-72.4"/>
<polygon fill="black" stroke="black" points="345.5,-72.22 342,-62.22 338.5,-72.22 345.5,-72.22"/>
</g>
<!-- million -->
<g id="node16" class="node">
<title>million</title>
<text text-anchor="start" x="184.5" y="-159.8" font-family="Times New Roman,serif" font-weight="bold" font-size="14.00">Modern</text>
<text text-anchor="start" x="186" y="-145.8" font-family="Times New Roman,serif" font-weight="bold" font-size="14.00">English</text>
<text text-anchor="start" x="190.5" y="-131.8" font-family="Times New Roman,serif" font-size="14.00" fill="red">million</text>
<text text-anchor="start" x="193.5" y="-117.8" font-family="Times New Roman,serif" font-size="14.00" fill="red">&#45;illion</text>
</g>
<!-- million&#45;&gt;vigintillion -->
<g id="edge15" class="edge">
<title>million&#45;&gt;vigintillion</title>
<path fill="none" stroke="black" d="M214.18,-109.93C215.67,-100.97 217.2,-91.82 218.31,-85.13"/>
<polygon fill="black" stroke="black" points="221.81,-85.44 220,-75 214.9,-84.29 221.81,-85.44"/>
</g>
<!-- eikosaedronG -->
<g id="node18" class="node">
<title>eikosaedronG</title>
<text text-anchor="start" x="523" y="-230.3" font-family="Times New Roman,serif" font-size="14.00" fill="red">eikosaedron</text>
</g>
<!-- eikosiG&#45;&gt;eikosaedronG -->
<g id="edge19" class="edge">
<title>eikosiG&#45;&gt;eikosaedronG</title>
<path fill="none" stroke="black" d="M477.73,-299.85C498.16,-286.22 525.53,-267.98 539.3,-258.8"/>
<polygon fill="black" stroke="black" points="541.62,-261.46 548,-253 537.74,-255.63 541.62,-261.46"/>
</g>
<!-- icosahedron -->
<g id="node19" class="node">
<title>icosahedron</title>
<text text-anchor="start" x="536.5" y="-47.8" font-family="Times New Roman,serif" font-weight="bold" font-size="14.00">Modern</text>
<text text-anchor="start" x="538" y="-33.8" font-family="Times New Roman,serif" font-weight="bold" font-size="14.00">English</text>
<text text-anchor="start" x="526.5" y="-19.8" font-family="Times New Roman,serif" font-size="14.00" fill="red">icosahedron</text>
</g>
<!-- eikosaedronG&#45;&gt;icosahedron -->
<g id="edge21" class="edge">
<title>eikosaedronG&#45;&gt;icosahedron</title>
<path fill="none" stroke="black" stroke-dasharray="5,2" d="M557.35,-215.7C558.01,-183.56 559.44,-114.12 560.3,-72.2"/>
<polygon fill="black" stroke="black" points="563.8,-72.24 560.5,-62.17 556.8,-72.1 563.8,-72.24"/>
</g>
<!-- sedIE -->
<g id="node20" class="node">
<title>sedIE</title>
<g id="a_node20"><a xlink:href="sed-sit.svg" xlink:title="&lt;b&gt;Indo&#45;&lt;br/&gt;European&lt;/b&gt;&lt;br/&gt;&lt;font color=&quot;red&quot;&gt;sed&#45;&lt;/font&gt;&lt;br/&gt;&lt;font point&#45;size=&quot;12&quot;&gt;to sit&lt;/font&gt;">
<path fill="none" stroke="black" stroke-dasharray="5,2" d="M583.5,-561C583.5,-561 530.5,-561 530.5,-561 524.5,-561 518.5,-555 518.5,-549 518.5,-549 518.5,-511 518.5,-511 518.5,-505 524.5,-499 530.5,-499 530.5,-499 583.5,-499 583.5,-499 589.5,-499 595.5,-505 595.5,-511 595.5,-511 595.5,-549 595.5,-549 595.5,-555 589.5,-561 583.5,-561"/>
<text text-anchor="start" x="540.5" y="-546.8" font-family="Times New Roman,serif" font-weight="bold" font-size="14.00">Indo&#45;</text>
<text text-anchor="start" x="526.5" y="-532.8" font-family="Times New Roman,serif" font-weight="bold" font-size="14.00">European</text>
<text text-anchor="start" x="544.5" y="-518.8" font-family="Times New Roman,serif" font-size="14.00" fill="red">sed&#45;</text>
<text text-anchor="start" x="546" y="-506.4" font-family="Times New Roman,serif" font-size="12.00">to sit</text>
</a>
</g>
</g>
<!-- hedraG -->
<g id="node21" class="node">
<title>hedraG</title>
<text text-anchor="start" x="537" y="-423.8" font-family="Times New Roman,serif" font-weight="bold" font-size="14.00">Greek</text>
<text text-anchor="start" x="541.5" y="-409.8" font-family="Times New Roman,serif" font-size="14.00" fill="red">hedrā</text>
<text text-anchor="start" x="525" y="-397.4" font-family="Times New Roman,serif" font-size="12.00">seat, face of a</text>
<text text-anchor="start" x="522.5" y="-385.4" font-family="Times New Roman,serif" font-size="12.00">geometric solid</text>
</g>
<!-- sedIE&#45;&gt;hedraG -->
<g id="edge17" class="edge">
<title>sedIE&#45;&gt;hedraG</title>
<path fill="none" stroke="black" d="M557,-498.72C557,-483.45 557,-464.76 557,-448.39"/>
<polygon fill="black" stroke="black" points="560.5,-448.03 557,-438.03 553.5,-448.03 560.5,-448.03"/>
</g>
<!-- edronG -->
<g id="node22" class="node">
<title>edronG</title>
<text text-anchor="start" x="538.5" y="-320.8" font-family="Times New Roman,serif" font-size="14.00" fill="red">&#45;edron</text>
<text text-anchor="start" x="542.5" y="-308.4" font-family="Times New Roman,serif" font-size="12.00">&#45;sided</text>
</g>
<!-- hedraG&#45;&gt;edronG -->
<g id="edge18" class="edge">
<title>hedraG&#45;&gt;edronG</title>
<path fill="none" stroke="black" d="M557,-377.7C557,-367.56 557,-356.25 557,-346.29"/>
<polygon fill="black" stroke="black" points="560.5,-346.12 557,-336.12 553.5,-346.12 560.5,-346.12"/>
</g>
<!-- edronG&#45;&gt;eikosaedronG -->
<g id="edge20" class="edge">
<title>edronG&#45;&gt;eikosaedronG</title>
<path fill="none" stroke="black" d="M554.59,-299.85C552.94,-288.15 550.82,-273.05 549.43,-263.2"/>
<polygon fill="black" stroke="black" points="552.86,-262.42 548,-253 545.93,-263.39 552.86,-262.42"/>
</g>
<!-- pacisH -->
<g id="node24" class="node">
<title>pacisH</title>
<text text-anchor="start" x="41" y="-243.8" font-family="Times New Roman,serif" font-weight="bold" font-size="14.00">Hindi</text>
<text text-anchor="start" x="42.5" y="-229.8" font-family="Times New Roman,serif" font-size="14.00" fill="red">pacīs</text>
<text text-anchor="start" x="32.5" y="-217.4" font-family="Times New Roman,serif" font-size="12.00">twenty&#45;five</text>
</g>
<!-- vimsatihSk&#45;&gt;pacisH -->
<g id="edge23" class="edge">
<title>vimsatihSk&#45;&gt;pacisH</title>
<path fill="none" stroke="black" d="M171.84,-302.21C141.75,-289.19 99.93,-271.09 81.44,-263.08"/>
<polygon fill="black" stroke="black" points="82.57,-259.76 72,-259 79.79,-266.18 82.57,-259.76"/>
</g>
<!-- pacisiH -->
<g id="node25" class="node">
<title>pacisiH</title>
<text text-anchor="start" x="19" y="-144.8" font-family="Times New Roman,serif" font-size="14.00" fill="red">pacīsī</text>
<text text-anchor="start" x="17" y="-132.4" font-family="Times New Roman,serif" font-size="12.00">(a game)</text>
</g>
<!-- pacisH&#45;&gt;pacisiH -->
<g id="edge27" class="edge">
<title>pacisH&#45;&gt;pacisiH</title>
<path fill="none" stroke="black" d="M52.59,-209.82C49.76,-197.7 46.28,-182.78 43.33,-170.12"/>
<polygon fill="black" stroke="black" points="46.68,-169.07 41,-160.13 39.86,-170.66 46.68,-169.07"/>
</g>
<!-- pachisi -->
<g id="node26" class="node">
<title>pachisi</title>
<text text-anchor="start" x="10.5" y="-54.8" font-family="Times New Roman,serif" font-weight="bold" font-size="14.00">Modern</text>
<text text-anchor="start" x="12" y="-40.8" font-family="Times New Roman,serif" font-weight="bold" font-size="14.00">English</text>
<text text-anchor="start" x="15" y="-26.8" font-family="Times New Roman,serif" font-size="14.00" fill="red">pachisi</text>
<text text-anchor="start" x="8" y="-12.8" font-family="Times New Roman,serif" font-size="14.00" fill="red">Parcheesi</text>
</g>
<!-- pacisiH&#45;&gt;pachisi -->
<g id="edge28" class="edge">
<title>pacisiH&#45;&gt;pachisi</title>
<path fill="none" stroke="black" stroke-dasharray="5,2" d="M36.67,-123.99C36.43,-111.81 36.1,-94.85 35.8,-79.21"/>
<polygon fill="black" stroke="black" points="39.3,-79.12 35.61,-69.19 32.3,-79.26 39.3,-79.12"/>
</g>
<!-- penkweIE -->
<g id="node27" class="node">
<title>penkweIE</title>
<g id="a_node27"><a xlink:href="penkwe-five.svg" xlink:title="&lt;b&gt;Indo&#45;&lt;br/&gt;European&lt;/b&gt;&lt;br/&gt;&lt;font color=&quot;red&quot;&gt;penkʷe&lt;/font&gt;&lt;br/&gt;&lt;font point&#45;size=&quot;12&quot;&gt;five&lt;/font&gt;">
<path fill="none" stroke="black" stroke-dasharray="5,2" d="M84.5,-561C84.5,-561 31.5,-561 31.5,-561 25.5,-561 19.5,-555 19.5,-549 19.5,-549 19.5,-511 19.5,-511 19.5,-505 25.5,-499 31.5,-499 31.5,-499 84.5,-499 84.5,-499 90.5,-499 96.5,-505 96.5,-511 96.5,-511 96.5,-549 96.5,-549 96.5,-555 90.5,-561 84.5,-561"/>
<text text-anchor="start" x="41.5" y="-546.8" font-family="Times New Roman,serif" font-weight="bold" font-size="14.00">Indo&#45;</text>
<text text-anchor="start" x="27.5" y="-532.8" font-family="Times New Roman,serif" font-weight="bold" font-size="14.00">European</text>
<text text-anchor="start" x="38" y="-518.8" font-family="Times New Roman,serif" font-size="14.00" fill="red">penkʷe</text>
<text text-anchor="start" x="50" y="-506.4" font-family="Times New Roman,serif" font-size="12.00">five</text>
</a>
</g>
</g>
<!-- pancaII -->
<g id="node28" class="node">
<title>pancaII</title>
<text text-anchor="start" x="19" y="-411.8" font-family="Times New Roman,serif" font-weight="bold" font-size="14.00">Indo&#45;Iranian</text>
<text text-anchor="start" x="41" y="-397.8" font-family="Times New Roman,serif" font-size="14.00" fill="red">panca</text>
</g>
<!-- penkweIE&#45;&gt;pancaII -->
<g id="edge24" class="edge">
<title>penkweIE&#45;&gt;pancaII</title>
<path fill="none" stroke="black" d="M58,-498.72C58,-479.57 58,-455.01 58,-436.43"/>
<polygon fill="black" stroke="black" points="61.5,-436.26 58,-426.26 54.5,-436.26 61.5,-436.26"/>
</g>
<!-- pancaSk -->
<g id="node29" class="node">
<title>pancaSk</title>
<text text-anchor="start" x="32" y="-321.8" font-family="Times New Roman,serif" font-weight="bold" font-size="14.00">Sanskrit</text>
<text text-anchor="start" x="41" y="-307.8" font-family="Times New Roman,serif" font-size="14.00" fill="red">pañca</text>
</g>
<!-- pancaII&#45;&gt;pancaSk -->
<g id="edge25" class="edge">
<title>pancaII&#45;&gt;pancaSk</title>
<path fill="none" stroke="black" d="M58,-389.61C58,-377.24 58,-360.37 58,-346.22"/>
<polygon fill="black" stroke="black" points="61.5,-346.05 58,-336.05 54.5,-346.05 61.5,-346.05"/>
</g>
<!-- pancaSk&#45;&gt;pacisH -->
<g id="edge26" class="edge">
<title>pancaSk&#45;&gt;pacisH</title>
<path fill="none" stroke="black" d="M62.12,-299.91C64.58,-289.75 67.6,-277.24 69.65,-268.74"/>
<polygon fill="black" stroke="black" points="73.06,-269.54 72,-259 66.25,-267.9 73.06,-269.54"/>
</g>
</g>
</svg>
