<?xml version="1.0" encoding="UTF-8" standalone="no"?>
<!DOCTYPE svg PUBLIC "-//W3C//DTD SVG 1.1//EN"
 "http://www.w3.org/Graphics/SVG/1.1/DTD/svg11.dtd">
<!-- Generated by graphviz version 2.49.0 (20210828.1703)
 -->
<!-- Pages: 1 -->
<svg width="743pt" height="627pt"
 viewBox="0.00 0.00 742.50 627.00" xmlns="http://www.w3.org/2000/svg" xmlns:xlink="http://www.w3.org/1999/xlink">
<g id="graph0" class="graph" transform="scale(1 1) rotate(0) translate(4 623)">
<polygon fill="white" stroke="transparent" points="-4,4 -4,-623 738.5,-623 738.5,4 -4,4"/>
<!-- aiw -->
<g id="node1" class="node">
<title>aiw</title>
<g id="a_node1"><a xlink:href="aiw-life.svg" xlink:title="&lt;b&gt;Indo&#45;&lt;br/&gt;European&lt;/b&gt;&lt;br/&gt;&lt;font color=&quot;red&quot;&gt;aiw&#45;&lt;/font&gt;&lt;br/&gt;&lt;font point&#45;size=&quot;12&quot;&gt;vital force,&lt;br/&gt;life, eternity&lt;/font&gt;">
<path fill="none" stroke="black" stroke-dasharray="5,2" d="M104,-592C104,-592 51,-592 51,-592 45,-592 39,-586 39,-580 39,-580 39,-530 39,-530 39,-524 45,-518 51,-518 51,-518 104,-518 104,-518 110,-518 116,-524 116,-530 116,-530 116,-580 116,-580 116,-586 110,-592 104,-592"/>
<text text-anchor="start" x="61" y="-577.8" font-family="Times New Roman,serif" font-weight="bold" font-size="14.00">Indo&#45;</text>
<text text-anchor="start" x="47" y="-563.8" font-family="Times New Roman,serif" font-weight="bold" font-size="14.00">European</text>
<text text-anchor="start" x="65.5" y="-549.8" font-family="Times New Roman,serif" font-size="14.00" fill="red">aiw&#45;</text>
<text text-anchor="start" x="53.5" y="-537.4" font-family="Times New Roman,serif" font-size="12.00">vital force,</text>
<text text-anchor="start" x="51.5" y="-525.4" font-family="Times New Roman,serif" font-size="12.00">life, eternity</text>
</a>
</g>
</g>
<!-- yeu -->
<g id="node2" class="node">
<title>yeu</title>
<g id="a_node2"><a xlink:title="Indo&#45;European &quot;yeu&#45;&quot; vital force, youthful vigor">
<polygon fill="none" stroke="black" points="349,-615 138,-615 138,-495 349,-495 349,-615"/>
<polygon fill="none" stroke="black" points="353,-619 134,-619 134,-491 353,-491 353,-619"/>
<text text-anchor="start" x="165.5" y="-570.8" font-family="Times New Roman,serif" font-weight="bold" font-size="24.00">Indo&#45;European</text>
<text text-anchor="start" x="171.5" y="-534.6" font-family="Times New Roman,serif" font-size="18.00" fill="red">yeu&#45;</text>
<text text-anchor="start" x="236.5" y="-544.2" font-family="Times New Roman,serif" font-size="16.00">vital force,</text>
<text text-anchor="start" x="225" y="-526.2" font-family="Times New Roman,serif" font-size="16.00">youthful vigor</text>
</a>
</g>
</g>
<!-- aiw&#45;&gt;yeu -->
<g id="edge1" class="edge">
<title>aiw&#45;&gt;yeu</title>
<path fill="none" stroke="black" d="M116.08,-555C118.53,-555 120.98,-555 123.43,-555"/>
<polygon fill="black" stroke="black" points="123.5,-558.5 133.5,-555 123.5,-551.5 123.5,-558.5"/>
</g>
<!-- jugunthoGm -->
<g id="node3" class="node">
<title>jugunthoGm</title>
<text text-anchor="start" x="120" y="-397.8" font-family="Times New Roman,serif" font-weight="bold" font-size="14.00">Germanic</text>
<text text-anchor="start" x="126" y="-383.8" font-family="Times New Roman,serif" font-size="14.00" fill="red">jugunthō</text>
</g>
<!-- yeu&#45;&gt;jugunthoGm -->
<g id="edge2" class="edge">
<title>yeu&#45;&gt;jugunthoGm</title>
<path fill="none" stroke="black" d="M249.5,-490C249.5,-490 205.46,-447.74 176.13,-419.59"/>
<polygon fill="black" stroke="black" points="178.3,-416.82 168.66,-412.42 173.45,-421.87 178.3,-416.82"/>
</g>
<!-- yowankoC -->
<g id="node10" class="node">
<title>yowankoC</title>
<text text-anchor="start" x="225" y="-397.8" font-family="Times New Roman,serif" font-weight="bold" font-size="14.00">Celtic</text>
<text text-anchor="start" x="215.5" y="-383.8" font-family="Times New Roman,serif" font-size="14.00" fill="red">yowanko&#45;</text>
</g>
<!-- yeu&#45;&gt;yowankoC -->
<g id="edge9" class="edge">
<title>yeu&#45;&gt;yowankoC</title>
<path fill="none" stroke="black" d="M249.5,-490C249.5,-490 247.01,-450.57 245.24,-422.51"/>
<polygon fill="black" stroke="black" points="248.72,-422.18 244.6,-412.42 241.74,-422.63 248.72,-422.18"/>
</g>
<!-- iuvenisL -->
<g id="node15" class="node">
<title>iuvenisL</title>
<text text-anchor="start" x="399" y="-403.8" font-family="Times New Roman,serif" font-weight="bold" font-size="14.00">Latin</text>
<text text-anchor="start" x="396" y="-389.8" font-family="Times New Roman,serif" font-size="14.00" fill="red">iuvenis</text>
<text text-anchor="start" x="401.5" y="-377.4" font-family="Times New Roman,serif" font-size="12.00">young</text>
</g>
<!-- yeu&#45;&gt;iuvenisL -->
<g id="edge14" class="edge">
<title>yeu&#45;&gt;iuvenisL</title>
<path fill="none" stroke="black" d="M249.5,-490C249.5,-490 330.11,-443.87 378.99,-415.9"/>
<polygon fill="black" stroke="black" points="380.77,-418.91 387.72,-410.9 377.3,-412.83 380.77,-418.91"/>
</g>
<!-- geoguthOE -->
<g id="node4" class="node">
<title>geoguthOE</title>
<text text-anchor="start" x="8" y="-226.8" font-family="Times New Roman,serif" font-weight="bold" font-size="14.00">Old English</text>
<text text-anchor="start" x="22" y="-212.8" font-family="Times New Roman,serif" font-size="14.00" fill="red">geoguth</text>
<text text-anchor="start" x="32" y="-200.4" font-family="Times New Roman,serif" font-size="12.00">youth</text>
</g>
<!-- jugunthoGm&#45;&gt;geoguthOE -->
<g id="edge3" class="edge">
<title>jugunthoGm&#45;&gt;geoguthOE</title>
<path fill="none" stroke="black" d="M145.5,-375C145.5,-375 94.31,-295.43 64.82,-249.58"/>
<polygon fill="black" stroke="black" points="67.76,-247.68 59.4,-241.17 61.87,-251.47 67.76,-247.68"/>
</g>
<!-- geongOE -->
<g id="node7" class="node">
<title>geongOE</title>
<text text-anchor="start" x="115" y="-226.8" font-family="Times New Roman,serif" font-weight="bold" font-size="14.00">Old English</text>
<text text-anchor="start" x="134.5" y="-212.8" font-family="Times New Roman,serif" font-size="14.00" fill="red">geong</text>
<text text-anchor="start" x="137.5" y="-200.4" font-family="Times New Roman,serif" font-size="12.00">young</text>
</g>
<!-- jugunthoGm&#45;&gt;geongOE -->
<g id="edge6" class="edge">
<title>jugunthoGm&#45;&gt;geongOE</title>
<path fill="none" stroke="black" d="M145.5,-375C145.5,-375 148.47,-297.4 150.23,-251.31"/>
<polygon fill="black" stroke="black" points="153.73,-251.29 150.61,-241.17 146.74,-251.02 153.73,-251.29"/>
</g>
<!-- youtheME -->
<g id="node5" class="node">
<title>youtheME</title>
<text text-anchor="start" x="23" y="-135.8" font-family="Times New Roman,serif" font-weight="bold" font-size="14.00">Middle</text>
<text text-anchor="start" x="21.5" y="-121.8" font-family="Times New Roman,serif" font-weight="bold" font-size="14.00">English</text>
<text text-anchor="start" x="25.5" y="-107.8" font-family="Times New Roman,serif" font-size="14.00" fill="red">youthe</text>
</g>
<!-- geoguthOE&#45;&gt;youtheME -->
<g id="edge4" class="edge">
<title>geoguthOE&#45;&gt;youtheME</title>
<path fill="none" stroke="black" d="M44.5,-192.82C44.5,-182.88 44.5,-171.05 44.5,-160.14"/>
<polygon fill="black" stroke="black" points="48,-160.04 44.5,-150.04 41,-160.04 48,-160.04"/>
</g>
<!-- youth -->
<g id="node6" class="node">
<title>youth</title>
<text text-anchor="start" x="20" y="-42.8" font-family="Times New Roman,serif" font-weight="bold" font-size="14.00">Modern</text>
<text text-anchor="start" x="21.5" y="-28.8" font-family="Times New Roman,serif" font-weight="bold" font-size="14.00">English</text>
<text text-anchor="start" x="28.5" y="-14.8" font-family="Times New Roman,serif" font-size="14.00" fill="red">youth</text>
</g>
<!-- youtheME&#45;&gt;youth -->
<g id="edge5" class="edge">
<title>youtheME&#45;&gt;youth</title>
<path fill="none" stroke="black" d="M44.5,-99.61C44.5,-89.74 44.5,-78.17 44.5,-67.46"/>
<polygon fill="black" stroke="black" points="48,-67.14 44.5,-57.14 41,-67.14 48,-67.14"/>
</g>
<!-- yongME -->
<g id="node8" class="node">
<title>yongME</title>
<text text-anchor="start" x="130" y="-135.8" font-family="Times New Roman,serif" font-weight="bold" font-size="14.00">Middle</text>
<text text-anchor="start" x="128.5" y="-121.8" font-family="Times New Roman,serif" font-weight="bold" font-size="14.00">English</text>
<text text-anchor="start" x="137.5" y="-107.8" font-family="Times New Roman,serif" font-size="14.00" fill="red">yong</text>
</g>
<!-- geongOE&#45;&gt;yongME -->
<g id="edge7" class="edge">
<title>geongOE&#45;&gt;yongME</title>
<path fill="none" stroke="black" d="M151.5,-192.82C151.5,-182.88 151.5,-171.05 151.5,-160.14"/>
<polygon fill="black" stroke="black" points="155,-160.04 151.5,-150.04 148,-160.04 155,-160.04"/>
</g>
<!-- young -->
<g id="node9" class="node">
<title>young</title>
<text text-anchor="start" x="127" y="-42.8" font-family="Times New Roman,serif" font-weight="bold" font-size="14.00">Modern</text>
<text text-anchor="start" x="128.5" y="-28.8" font-family="Times New Roman,serif" font-weight="bold" font-size="14.00">English</text>
<text text-anchor="start" x="134" y="-14.8" font-family="Times New Roman,serif" font-size="14.00" fill="red">young</text>
</g>
<!-- yongME&#45;&gt;young -->
<g id="edge8" class="edge">
<title>yongME&#45;&gt;young</title>
<path fill="none" stroke="black" d="M151.5,-99.61C151.5,-89.74 151.5,-78.17 151.5,-67.46"/>
<polygon fill="black" stroke="black" points="155,-67.14 151.5,-57.14 148,-67.14 155,-67.14"/>
</g>
<!-- oacOI -->
<g id="node11" class="node">
<title>oacOI</title>
<text text-anchor="start" x="232" y="-319.8" font-family="Times New Roman,serif" font-weight="bold" font-size="14.00">Old</text>
<text text-anchor="start" x="229" y="-305.8" font-family="Times New Roman,serif" font-weight="bold" font-size="14.00">Irish</text>
<text text-anchor="start" x="233" y="-291.8" font-family="Times New Roman,serif" font-size="14.00" fill="red">ōac</text>
</g>
<!-- yowankoC&#45;&gt;oacOI -->
<g id="edge10" class="edge">
<title>yowankoC&#45;&gt;oacOI</title>
<path fill="none" stroke="black" d="M243.5,-375.8C243.5,-366.66 243.5,-355.09 243.5,-344.22"/>
<polygon fill="black" stroke="black" points="247,-344.1 243.5,-334.1 240,-344.1 247,-344.1"/>
</g>
<!-- oglachIG -->
<g id="node12" class="node">
<title>oglachIG</title>
<text text-anchor="start" x="229" y="-233.8" font-family="Times New Roman,serif" font-weight="bold" font-size="14.00">Irish</text>
<text text-anchor="start" x="223.5" y="-219.8" font-family="Times New Roman,serif" font-weight="bold" font-size="14.00">Gaelic</text>
<text text-anchor="start" x="225" y="-205.8" font-family="Times New Roman,serif" font-size="14.00" fill="red">oglach</text>
<text text-anchor="start" x="228" y="-193.4" font-family="Times New Roman,serif" font-size="12.00">soldier</text>
</g>
<!-- oacOI&#45;&gt;oglachIG -->
<g id="edge11" class="edge">
<title>oacOI&#45;&gt;oglachIG</title>
<path fill="none" stroke="black" d="M243.5,-283.88C243.5,-276.02 243.5,-267.07 243.5,-258.36"/>
<polygon fill="black" stroke="black" points="247,-258.31 243.5,-248.31 240,-258.31 247,-258.31"/>
</g>
<!-- galloglach -->
<g id="node13" class="node">
<title>galloglach</title>
<text text-anchor="start" x="215.5" y="-127.8" font-family="Times New Roman,serif" font-size="14.00" fill="red">galloglach</text>
<text text-anchor="start" x="211.5" y="-115.4" font-family="Times New Roman,serif" font-size="12.00">foreign soldier</text>
</g>
<!-- oglachIG&#45;&gt;galloglach -->
<g id="edge12" class="edge">
<title>oglachIG&#45;&gt;galloglach</title>
<path fill="none" stroke="black" d="M243.5,-185.53C243.5,-175.01 243.5,-163.3 243.5,-153.07"/>
<polygon fill="black" stroke="black" points="247,-153.05 243.5,-143.05 240,-153.05 247,-153.05"/>
</g>
<!-- gallowglass -->
<g id="node14" class="node">
<title>gallowglass</title>
<text text-anchor="start" x="219" y="-49.8" font-family="Times New Roman,serif" font-weight="bold" font-size="14.00">Modern</text>
<text text-anchor="start" x="220.5" y="-35.8" font-family="Times New Roman,serif" font-weight="bold" font-size="14.00">English</text>
<text text-anchor="start" x="216" y="-21.8" font-family="Times New Roman,serif" font-size="14.00" fill="red">galloglass</text>
<text text-anchor="start" x="211.5" y="-7.8" font-family="Times New Roman,serif" font-size="14.00" fill="red">gallowglass</text>
</g>
<!-- galloglach&#45;&gt;gallowglass -->
<g id="edge13" class="edge">
<title>galloglach&#45;&gt;gallowglass</title>
<path fill="none" stroke="black" stroke-dasharray="5,2" d="M243.5,-106.88C243.5,-97.66 243.5,-85.84 243.5,-74.38"/>
<polygon fill="black" stroke="black" points="247,-74.04 243.5,-64.04 240,-74.04 247,-74.04"/>
</g>
<!-- iuniorL -->
<g id="node16" class="node">
<title>iuniorL</title>
<text text-anchor="start" x="327.5" y="-311.8" font-family="Times New Roman,serif" font-size="14.00" fill="red">iūnior</text>
<text text-anchor="start" x="325" y="-299.4" font-family="Times New Roman,serif" font-size="12.00">younger</text>
</g>
<!-- iuvenisL&#45;&gt;iuniorL -->
<g id="edge15" class="edge">
<title>iuvenisL&#45;&gt;iuniorL</title>
<path fill="none" stroke="black" d="M422.5,-369C422.5,-369 396.7,-349.73 374.58,-333.21"/>
<polygon fill="black" stroke="black" points="376.46,-330.24 366.35,-327.07 372.27,-335.85 376.46,-330.24"/>
</g>
<!-- iunoL -->
<g id="node17" class="node">
<title>iunoL</title>
<text text-anchor="start" x="402.5" y="-311.8" font-family="Times New Roman,serif" font-size="14.00" fill="red">Iūnō</text>
<text text-anchor="start" x="404.5" y="-299.4" font-family="Times New Roman,serif" font-size="12.00">Juno</text>
</g>
<!-- iuvenisL&#45;&gt;iunoL -->
<g id="edge16" class="edge">
<title>iuvenisL&#45;&gt;iunoL</title>
<path fill="none" stroke="black" d="M422.5,-369C422.5,-369 420.58,-352.82 418.75,-337.41"/>
<polygon fill="black" stroke="black" points="422.18,-336.58 417.52,-327.07 415.23,-337.41 422.18,-336.58"/>
</g>
<!-- iuvenilisL -->
<g id="node18" class="node">
<title>iuvenilisL</title>
<text text-anchor="start" x="540.5" y="-311.8" font-family="Times New Roman,serif" font-size="14.00" fill="red">iuvenīlis</text>
<text text-anchor="start" x="543.5" y="-299.4" font-family="Times New Roman,serif" font-size="12.00">juvenile?</text>
</g>
<!-- iuvenisL&#45;&gt;iuvenilisL -->
<g id="edge17" class="edge">
<title>iuvenisL&#45;&gt;iuvenilisL</title>
<path fill="none" stroke="black" d="M422.5,-369C422.5,-369 480.46,-354.11 523.5,-334 524.88,-333.36 526.26,-332.68 527.66,-331.98"/>
<polygon fill="black" stroke="black" points="529.66,-334.87 536.8,-327.05 526.34,-328.71 529.66,-334.87"/>
</g>
<!-- rejuvenate -->
<g id="node28" class="node">
<title>rejuvenate</title>
<text text-anchor="start" x="674" y="-42.8" font-family="Times New Roman,serif" font-weight="bold" font-size="14.00">Modern</text>
<text text-anchor="start" x="675.5" y="-28.8" font-family="Times New Roman,serif" font-weight="bold" font-size="14.00">English</text>
<text text-anchor="start" x="670.5" y="-14.8" font-family="Times New Roman,serif" font-size="14.00" fill="red">rejuvenate</text>
</g>
<!-- iuvenisL&#45;&gt;rejuvenate -->
<g id="edge28" class="edge">
<title>iuvenisL&#45;&gt;rejuvenate</title>
<path fill="none" stroke="black" stroke-dasharray="5,2" d="M422.5,-369C422.5,-369 572.92,-361.26 603.5,-334 681.8,-264.2 696.12,-130.49 698.36,-67.47"/>
<polygon fill="black" stroke="black" points="701.87,-67.36 698.64,-57.27 694.87,-67.17 701.87,-67.36"/>
</g>
<!-- juniorME -->
<g id="node19" class="node">
<title>juniorME</title>
<text text-anchor="start" x="314" y="-135.8" font-family="Times New Roman,serif" font-weight="bold" font-size="14.00">Middle</text>
<text text-anchor="start" x="312.5" y="-121.8" font-family="Times New Roman,serif" font-weight="bold" font-size="14.00">English</text>
<text text-anchor="start" x="319.5" y="-107.8" font-family="Times New Roman,serif" font-size="14.00" fill="red">junior</text>
</g>
<!-- iuniorL&#45;&gt;juniorME -->
<g id="edge18" class="edge">
<title>iuniorL&#45;&gt;juniorME</title>
<path fill="none" stroke="black" stroke-dasharray="5,2" d="M342.75,-290.88C341.44,-261.11 338.72,-199.29 337.01,-160.38"/>
<polygon fill="black" stroke="black" points="340.49,-159.9 336.56,-150.06 333.5,-160.21 340.49,-159.9"/>
</g>
<!-- juno -->
<g id="node21" class="node">
<title>juno</title>
<text text-anchor="start" x="393" y="-42.8" font-family="Times New Roman,serif" font-weight="bold" font-size="14.00">Modern</text>
<text text-anchor="start" x="394.5" y="-28.8" font-family="Times New Roman,serif" font-weight="bold" font-size="14.00">English</text>
<text text-anchor="start" x="404" y="-14.8" font-family="Times New Roman,serif" font-size="14.00" fill="red">Juno</text>
</g>
<!-- iunoL&#45;&gt;juno -->
<g id="edge20" class="edge">
<title>iunoL&#45;&gt;juno</title>
<path fill="none" stroke="black" stroke-dasharray="5,2" d="M415.63,-290.8C415.95,-246.3 416.82,-126.74 417.25,-67.39"/>
<polygon fill="black" stroke="black" points="420.75,-67.06 417.33,-57.04 413.75,-67.01 420.75,-67.06"/>
</g>
<!-- iuniusL -->
<g id="node22" class="node">
<title>iuniusL</title>
<text text-anchor="start" x="470.5" y="-311.8" font-family="Times New Roman,serif" font-size="14.00" fill="red">Iūnius</text>
<text text-anchor="start" x="477" y="-299.4" font-family="Times New Roman,serif" font-size="12.00">June</text>
</g>
<!-- iunoL&#45;&gt;iuniusL -->
<g id="edge21" class="edge">
<title>iunoL&#45;&gt;iuniusL</title>
<path fill="none" stroke="black" d="M442.78,-309C445.24,-309 447.69,-309 450.15,-309"/>
<polygon fill="black" stroke="black" points="450.25,-312.5 460.25,-309 450.25,-305.5 450.25,-312.5"/>
</g>
<!-- juvenile -->
<g id="node27" class="node">
<title>juvenile</title>
<text text-anchor="start" x="587" y="-42.8" font-family="Times New Roman,serif" font-weight="bold" font-size="14.00">Modern</text>
<text text-anchor="start" x="588.5" y="-28.8" font-family="Times New Roman,serif" font-weight="bold" font-size="14.00">English</text>
<text text-anchor="start" x="590.5" y="-14.8" font-family="Times New Roman,serif" font-size="14.00" fill="red">juvenile</text>
</g>
<!-- iuvenilisL&#45;&gt;juvenile -->
<g id="edge27" class="edge">
<title>iuvenilisL&#45;&gt;juvenile</title>
<path fill="none" stroke="black" stroke-dasharray="5,2" d="M573.88,-290.81C580.39,-279.15 588.32,-263.17 592.5,-248 609.63,-185.89 612.32,-110.23 612.24,-67.24"/>
<polygon fill="black" stroke="black" points="615.74,-67.01 612.17,-57.04 608.74,-67.06 615.74,-67.01"/>
</g>
<!-- junior -->
<g id="node20" class="node">
<title>junior</title>
<text text-anchor="start" x="310" y="-42.8" font-family="Times New Roman,serif" font-weight="bold" font-size="14.00">Modern</text>
<text text-anchor="start" x="311.5" y="-28.8" font-family="Times New Roman,serif" font-weight="bold" font-size="14.00">English</text>
<text text-anchor="start" x="318.5" y="-14.8" font-family="Times New Roman,serif" font-size="14.00" fill="red">junior</text>
</g>
<!-- juniorME&#45;&gt;junior -->
<g id="edge19" class="edge">
<title>juniorME&#45;&gt;junior</title>
<path fill="none" stroke="black" d="M335.23,-99.61C335.12,-89.74 335,-78.17 334.88,-67.46"/>
<polygon fill="black" stroke="black" points="338.38,-67.1 334.77,-57.14 331.38,-67.18 338.38,-67.1"/>
</g>
<!-- juinOF -->
<g id="node23" class="node">
<title>juinOF</title>
<text text-anchor="start" x="542" y="-227.8" font-family="Times New Roman,serif" font-weight="bold" font-size="14.00">Old</text>
<text text-anchor="start" x="531.5" y="-213.8" font-family="Times New Roman,serif" font-weight="bold" font-size="14.00">French</text>
<text text-anchor="start" x="543.5" y="-199.8" font-family="Times New Roman,serif" font-size="14.00" fill="red">juin</text>
</g>
<!-- iuniusL&#45;&gt;juinOF -->
<g id="edge23" class="edge">
<title>iuniusL&#45;&gt;juinOF</title>
<path fill="none" stroke="black" d="M491.5,-290C491.5,-290 509.28,-269.35 525.8,-250.16"/>
<polygon fill="black" stroke="black" points="528.64,-252.24 532.51,-242.38 523.33,-247.67 528.64,-252.24"/>
</g>
<!-- juniusOE -->
<g id="node24" class="node">
<title>juniusOE</title>
<text text-anchor="start" x="463" y="-227.8" font-family="Times New Roman,serif" font-weight="bold" font-size="14.00">Old</text>
<text text-anchor="start" x="451.5" y="-213.8" font-family="Times New Roman,serif" font-weight="bold" font-size="14.00">English</text>
<text text-anchor="start" x="457" y="-199.8" font-family="Times New Roman,serif" font-size="14.00" fill="red">Junius</text>
</g>
<!-- iuniusL&#45;&gt;juniusOE -->
<g id="edge22" class="edge">
<title>iuniusL&#45;&gt;juniusOE</title>
<path fill="none" stroke="black" stroke-dasharray="5,2" d="M491.5,-290C491.5,-290 486.96,-270.79 482.58,-252.21"/>
<polygon fill="black" stroke="black" points="485.96,-251.3 480.26,-242.38 479.15,-252.91 485.96,-251.3"/>
</g>
<!-- juneME -->
<g id="node25" class="node">
<title>juneME</title>
<text text-anchor="start" x="498" y="-135.8" font-family="Times New Roman,serif" font-weight="bold" font-size="14.00">Middle</text>
<text text-anchor="start" x="496.5" y="-121.8" font-family="Times New Roman,serif" font-weight="bold" font-size="14.00">English</text>
<text text-anchor="start" x="507" y="-107.8" font-family="Times New Roman,serif" font-size="14.00" fill="red">June</text>
</g>
<!-- juinOF&#45;&gt;juneME -->
<g id="edge25" class="edge">
<title>juinOF&#45;&gt;juneME</title>
<path fill="none" stroke="black" stroke-dasharray="5,2" d="M540.47,-191.8C534.48,-180.68 527.75,-168.17 523.33,-159.97"/>
<polygon fill="black" stroke="black" points="526.32,-158.15 518.5,-151 520.16,-161.46 526.32,-158.15"/>
</g>
<!-- juniusOE&#45;&gt;juneME -->
<g id="edge24" class="edge">
<title>juniusOE&#45;&gt;juneME</title>
<path fill="none" stroke="black" d="M490.88,-191.8C498.6,-180.39 507.31,-167.52 512.85,-159.34"/>
<polygon fill="black" stroke="black" points="515.79,-161.24 518.5,-151 510,-157.32 515.79,-161.24"/>
</g>
<!-- june -->
<g id="node26" class="node">
<title>june</title>
<text text-anchor="start" x="495" y="-42.8" font-family="Times New Roman,serif" font-weight="bold" font-size="14.00">Modern</text>
<text text-anchor="start" x="496.5" y="-28.8" font-family="Times New Roman,serif" font-weight="bold" font-size="14.00">English</text>
<text text-anchor="start" x="507" y="-14.8" font-family="Times New Roman,serif" font-size="14.00" fill="red">June</text>
</g>
<!-- juneME&#45;&gt;june -->
<g id="edge26" class="edge">
<title>juneME&#45;&gt;june</title>
<path fill="none" stroke="black" d="M519.5,-99.61C519.5,-89.74 519.5,-78.17 519.5,-67.46"/>
<polygon fill="black" stroke="black" points="523,-67.14 519.5,-57.14 516,-67.14 523,-67.14"/>
</g>
</g>
</svg>
